<?xml version="1.0" standalone="no"?>
<!DOCTYPE svg PUBLIC "-//W3C//DTD SVG 1.1//EN" "http://www.w3.org/Graphics/SVG/1.1/DTD/svg11.dtd" >
<svg xmlns="http://www.w3.org/2000/svg">
<metadata></metadata>
<defs>
<font id="hankenbook" horiz-adv-x="1304" >
<font-face units-per-em="2048" ascent="1638" descent="-410" />
<missing-glyph horiz-adv-x="718" />
<glyph horiz-adv-x="0" />
<glyph unicode="&#xd;" horiz-adv-x="0" />
<glyph horiz-adv-x="0" />
<glyph horiz-adv-x="0" />
<glyph unicode=" "  horiz-adv-x="718" />
<glyph unicode="&#x09;" horiz-adv-x="718" />
<glyph unicode="&#xa0;" horiz-adv-x="718" />
<glyph unicode="!" horiz-adv-x="583" d="M170 90q0 51 37 86q35 35 85 35t85 -35t35 -86t-35 -86t-86 -35q-49 0 -85 35t-36 86zM201 444v1069q0 37 26.5 64t63.5 27q39 0 65.5 -27t26.5 -64v-1069q0 -37 -26.5 -63.5t-65.5 -26.5q-37 0 -63.5 27t-26.5 63z" />
<glyph unicode="&#x22;" horiz-adv-x="436" d="M10 1235v260q0 37 26.5 63.5t63.5 26.5t63.5 -26.5t26.5 -63.5v-260q0 -37 -26.5 -63.5t-63.5 -26.5t-63.5 26.5t-26.5 63.5zM246 1235v260q0 37 26.5 63.5t63.5 26.5t63.5 -26.5t26.5 -63.5v-260q0 -37 -26.5 -63.5t-63.5 -26.5t-63.5 26.5t-26.5 63.5z" />
<glyph unicode="#" horiz-adv-x="1712" d="M-10 567q0 37 26.5 63.5t63.5 26.5h379l102 254h-305q-37 0 -63.5 27t-26.5 66q0 37 26.5 63.5t63.5 26.5h379l180 448q16 35 50 50.5t69 0.5q35 -14 50 -49t1 -69l-154 -381h357l180 448q14 35 49 50.5t70 0.5q35 -14 49 -49t0 -69l-154 -381h248q39 0 65.5 -27 t26.5 -63q0 -39 -26.5 -66t-65.5 -27h-321l-103 -254h248q39 0 65.5 -26.5t26.5 -63.5q0 -39 -26.5 -65.5t-65.5 -26.5h-321l-181 -448q-10 -29 -33.5 -43.5t-50.5 -14.5q-23 0 -43 11.5t-32.5 29t-15.5 40t7 44.5l154 381h-356l-183 -448q-10 -27 -32.5 -42.5t-51.5 -15.5 q-47 0 -74.5 39t-9.5 86l154 381h-305q-37 0 -63.5 26.5t-26.5 65.5zM655 657h357l102 254h-356z" />
<glyph unicode="$" horiz-adv-x="1157" d="M125 422q0 39 26.5 65.5t65.5 26.5q37 0 63.5 -26.5t26.5 -65.5q0 -88 51.5 -157.5t128.5 -98.5v555q-68 27 -133 62.5t-116.5 87t-82 119t-30.5 157.5q0 82 27.5 155.5t75.5 132t115 99.5t144 57v142q0 37 27 63.5t64 26.5t63.5 -27t26.5 -63v-142q78 -16 144.5 -57 t115.5 -99.5t76.5 -132t27.5 -155.5q0 -39 -26.5 -64.5t-65.5 -25.5q-37 0 -63.5 25.5t-26.5 64.5q0 88 -51 157.5t-131 98.5v-553q72 -27 137 -61.5t116.5 -85t81 -119t29.5 -162.5q0 -82 -27.5 -155.5t-76.5 -132t-115.5 -100t-144.5 -57.5v-143q0 -37 -27 -63.5 t-63 -26.5q-37 0 -64 26.5t-27 63.5v143q-78 16 -144.5 57.5t-114.5 100t-75.5 132t-27.5 155.5zM307 1147q0 -86 51.5 -140.5t128.5 -88.5v485q-78 -29 -129 -98.5t-51 -157.5zM668 166q80 29 131 98.5t51 157.5q0 96 -51 147t-131 86v-489z" />
<glyph unicode="%" horiz-adv-x="1120" d="M-10 1333q0 57 22.5 109.5t60.5 90.5t89 60.5t110 22.5q57 0 109.5 -22.5t90.5 -60.5t60.5 -90t22.5 -110q0 -59 -22.5 -110.5t-60.5 -89t-90.5 -60t-109.5 -22.5q-59 0 -110 22.5t-89 60t-60.5 89t-22.5 110.5zM156 59q0 18 6 35l581 1448q10 27 33 42t51 15 q39 0 66 -26.5t27 -63.5q-1 -20 -9 -34l-579 -1448q-10 -27 -34 -42.5t-52 -15.5q-37 0 -63.5 27t-26.5 63zM160 1333q0 -47 32.5 -79.5t79.5 -32.5t80 32.5t33 79.5t-33 80t-80 33t-79.5 -33t-32.5 -80zM565 252q0 57 22.5 109.5t60.5 90t89 60.5t111 23q57 0 109.5 -23 t90 -60.5t60 -90t22.5 -109.5q0 -59 -22.5 -110.5t-60 -89.5t-90 -60.5t-109.5 -22.5q-59 0 -110.5 22.5t-89.5 60.5t-60.5 89.5t-22.5 110.5zM735 252q0 -47 33 -80t80 -33t80 33t33 80t-33 80t-80 33t-80 -33t-33 -80z" />
<glyph unicode="&#x26;" horiz-adv-x="1511" d="M125 496q0 90 21.5 156.5t58.5 123.5q35 51 80 97.5t90 91.5q-49 53 -76 115.5t-27 140.5t30 147.5t81 120.5t120.5 80.5t147.5 29.5q80 0 148.5 -29.5t120 -80.5t81 -121t29.5 -147q0 -72 -28.5 -146t-81.5 -123q-27 -27 -64 -26q-39 0 -64.5 26.5t-25.5 65.5 q0 16 5 28.5t11 22.5t14.5 19.5t16.5 19.5q14 20 25.5 47t11.5 66q0 82 -57.5 139t-141.5 57q-82 0 -139 -57t-57 -139q0 -49 16 -81t49 -65q20 -25 47 -47l553 -553l223 223q25 27 66 27q37 0 63.5 -26.5t26.5 -63.5q1 -37 -26 -64l-226 -225l221 -219q27 -31 27 -66 q0 -37 -26.5 -63.5t-65.5 -26.5t-64 27l-219 219q-45 -43 -91 -88t-97 -80q-57 -37 -124 -58.5t-157 -21.5q-109 0 -205 41t-167.5 113t-112.5 168t-41 205zM307 496q0 -72 26.5 -134.5t74 -109.5t110 -73.5t133.5 -26.5q92 0 153.5 35.5t123.5 95.5l63 63l-489 490l-64 -64 q-59 -61 -95 -122.5t-36 -153.5z" />
<glyph unicode="'" horiz-adv-x="200" d="M10 1235v260q0 37 26.5 63.5t63.5 26.5t63.5 -26.5t26.5 -63.5v-260q0 -37 -26.5 -63.5t-63.5 -26.5t-63.5 26.5t-26.5 63.5z" />
<glyph unicode="(" horiz-adv-x="604" d="M80 552q0 257 68.5 511t205.5 489q18 33 54 42.5t69 -9.5q35 -20 44 -56t-11 -69q-125 -213 -187.5 -443.5t-62.5 -465t62.5 -464.5t187.5 -443q20 -33 11 -70t-44 -55q-23 -12 -45 -13q-51 0 -78 45q-137 236 -205.5 490t-68.5 511z" />
<glyph unicode=")" horiz-adv-x="604" d="M83 -426q-9 37 9 70q125 213 186.5 443t61.5 464.5t-61.5 465t-186.5 443.5q-18 33 -9 69t42 56q33 18 68.5 9t56.5 -42q137 -236 204.5 -489.5t67.5 -510.5t-67.5 -511t-204.5 -490q-27 -45 -80 -45q-25 0 -45 13q-33 18 -42 55z" />
<glyph unicode="*" horiz-adv-x="636" d="M37 1393q8 29 31.5 44t52.5 11l108 -14q2 20 5.5 48.5t10.5 55.5t24.5 45.5t49.5 18.5q33 0 49.5 -18.5t24.5 -45.5t10.5 -55.5t4.5 -48.5l110 14q29 4 51.5 -11.5t30.5 -43.5q8 -29 -4 -54.5t-41 -35.5l-92 -37l51 -103q14 -27 7 -54.5t-32 -43.5q-29 -18 -53 -11 t-45.5 25.5t-40 42t-31.5 39.5l-71 -82q-10 -14 -25.5 -20t-32.5 -6q-41 0 -64.5 35.5t-2.5 74.5l51 103q-18 8 -45 17t-50.5 22.5t-36.5 35t-5 52.5z" />
<glyph unicode="+" horiz-adv-x="1132" d="M37 500q0 39 26.5 64.5t65.5 25.5h346v348q0 37 26.5 63.5t63.5 26.5q39 0 65.5 -26.5t26.5 -63.5v-348h347q39 0 64.5 -25.5t25.5 -64.5q0 -37 -27 -64t-63 -26h-347v-349q0 -37 -26.5 -63.5t-65.5 -26.5q-37 0 -63.5 27t-26.5 63v349h-346q-39 0 -65.5 26.5t-26.5 63.5 z" />
<glyph unicode="," horiz-adv-x="387" d="M61 -188q0 25 9.5 41t23.5 28q29 27 39 46.5t10 49.5v9q-29 16 -45 42.5t-16 61.5q0 51 36 85t85 34q63 0 93 -41t30 -92v-99q0 -70 -32 -131t-87 -104q-29 -18 -57 -18q-37 0 -63 25.5t-26 62.5z" />
<glyph unicode="-" horiz-adv-x="968" d="M35 498q0 37 26.5 63.5t63.5 26.5h719q37 0 63.5 -26.5t26.5 -63.5q0 -39 -26.5 -65.5t-63.5 -26.5h-719q-37 0 -63.5 26.5t-26.5 65.5z" />
<glyph unicode="." horiz-adv-x="364" d="M61 90q0 51 35 85t86 34t86 -34t35 -85q0 -49 -36 -85t-85 -36t-85 36t-36 85z" />
<glyph unicode="/" horiz-adv-x="929" d="M-4 -373l768 1915q14 35 49 50.5t70 0.5q35 -14 50 -49t-1 -69l-766 -1915q-10 -29 -33.5 -43.5t-52.5 -14.5q-47 0 -75 39t-9 86z" />
<glyph unicode="0" horiz-adv-x="1157" d="M125 422v725q0 94 36 176t97 143.5t143 97t177 35.5q94 0 177 -35.5t144.5 -97t97 -143.5t35.5 -176v-725q0 -94 -35.5 -176t-97 -143.5t-144.5 -97.5t-177 -36t-176.5 36t-143.5 97.5t-97 143.5t-36 176zM307 422q0 -55 21.5 -104.5t58.5 -86t86 -58t105 -21.5 q55 0 105 21.5t87 58t58.5 86t21.5 104.5v725q0 55 -21.5 104t-58.5 86t-87 58.5t-105 21.5t-104.5 -21.5t-86.5 -58.5t-58.5 -86t-21.5 -104v-725z" />
<glyph unicode="1" horiz-adv-x="892" d="M76.5 1315q7.5 37 38.5 59l286 201q23 16 47.5 17t47.5 -9q49 -27 49 -82v-1349h180q39 0 65.5 -27t26.5 -66q0 -37 -26.5 -63.5t-65.5 -26.5h-537q-37 0 -63.5 27t-26.5 63q0 39 26 66t64 27h174v1175l-143 -102q-31 -23 -67.5 -15.5t-59.5 37.5q-23 31 -15.5 68z" />
<glyph unicode="2" horiz-adv-x="1157" d="M125 59q0 102 31.5 183.5t83.5 150.5q51 72 113.5 132.5t121.5 119.5l287 287q41 41 62.5 93t21.5 110q0 57 -20.5 106t-56.5 86t-85 57.5t-106 20.5q-55 0 -104.5 -21.5t-86.5 -58.5t-58.5 -87t-21.5 -105q0 -37 -26.5 -64t-63.5 -27q-39 0 -65.5 27t-26.5 64 q0 94 36 176t97 143t144 97t176 36q96 0 178 -34.5t142 -95t94 -143.5t34 -179q0 -92 -35 -177.5t-100 -150.5l-287 -287q-47 -47 -96 -91t-94 -93q-37 -41 -63.5 -86t-37.5 -96h688q37 0 65 -27t28 -66q0 -37 -28 -63.5t-65 -26.5h-786q-37 0 -63.5 27t-26.5 63z" />
<glyph unicode="3" horiz-adv-x="1157" d="M125 422q0 39 26.5 65.5t65.5 26.5q37 0 63.5 -26.5t26.5 -65.5q0 -55 21.5 -104.5t58.5 -86t86 -58t105 -21.5q55 0 105 21.5t87 58t58.5 86t21.5 104.5t-21.5 102t-58.5 82t-86 54.5t-106 19.5q-37 0 -64 26.5t-27 63.5q0 39 27 65.5t64 26.5q55 0 105 21.5t87 58.5 t58.5 86t21.5 105q0 55 -21.5 105t-58.5 87t-87 58.5t-105 21.5t-104.5 -21.5t-86.5 -58.5t-58.5 -87t-21.5 -105q0 -37 -26.5 -64t-63.5 -27q-39 0 -65.5 27t-26.5 64q0 94 36 176t97 143t143 97t177 36q94 0 177 -36t144.5 -97t97 -143t35.5 -176q0 -111 -49 -205 t-133 -158q82 -59 132 -147t50 -201q0 -94 -35.5 -176t-97 -143.5t-144.5 -97.5t-177 -36t-176.5 36t-143.5 97.5t-97 143.5t-36 176z" />
<glyph unicode="4" horiz-adv-x="1150" d="M33 684q0 10 3 20.5t11 20.5l600 827q12 16 33.5 31.5t50.5 15.5q35 0 62.5 -27.5t27.5 -62.5q0 -27 -14 -43l-512 -694h391v363q0 37 26.5 63.5t65.5 26.5q37 0 63.5 -27t26.5 -63v-363h111q39 0 65.5 -26.5t26.5 -63.5q0 -39 -26.5 -65.5t-65.5 -26.5h-111v-531 q0 -37 -26.5 -63.5t-63.5 -26.5q-39 0 -65.5 27t-26.5 63v531h-561q-37 0 -64.5 28.5t-27.5 65.5z" />
<glyph unicode="5" horiz-adv-x="1122" d="M125 424q0 39 26.5 65.5t65.5 26.5q37 0 63.5 -26.5t26.5 -65.5q0 -55 21.5 -105.5t58.5 -87t87 -58t106 -21.5q57 0 107 21.5t87 58t58.5 87t21.5 105.5q0 57 -21.5 107.5t-58.5 87t-87 58t-107 21.5h-301q-39 0 -66 27t-27 63v707q0 37 27 63.5t66 26.5h665 q39 0 65.5 -26.5t26.5 -63.5q0 -39 -26.5 -64.5t-65.5 -25.5h-575v-524h211q94 0 177 -36t145.5 -98.5t98 -145.5t35.5 -177t-35.5 -177t-98 -144.5t-145.5 -97.5t-177 -36t-177.5 36t-144.5 97.5t-97 144.5t-36 177z" />
<glyph unicode="6" horiz-adv-x="1112" d="M125 422v725q0 94 36 176t97 143.5t143 97t177 35.5q94 0 177 -35.5t144.5 -97t97 -143.5t35.5 -176q0 -39 -26.5 -64.5t-65.5 -25.5q-37 0 -63.5 25.5t-26.5 64.5q0 55 -21.5 104t-58.5 86t-87 58.5t-105 21.5t-104.5 -21.5t-86.5 -58.5t-58.5 -86t-21.5 -104v-363 q57 43 126 66.5t145 23.5q94 0 177 -35.5t144.5 -97t97 -143.5t35.5 -176t-35.5 -176t-97 -143.5t-144.5 -97.5t-177 -36t-176.5 36t-143.5 97.5t-97 143.5t-36 176zM307 422q0 -55 21.5 -104.5t58.5 -86t86 -58t105 -21.5q55 0 105 21.5t87 58t58.5 86t21.5 104.5 t-21.5 105.5t-58.5 87t-87 58t-105 21.5t-104.5 -21.5t-86.5 -58t-58.5 -87t-21.5 -105.5z" />
<glyph unicode="7" horiz-adv-x="1028" d="M45 1495q0 37 26.5 63.5t65.5 26.5h764q49 0 76 -39t10 -84l-571 -1435q-10 -27 -34 -42.5t-50 -15.5q-47 0 -76 39t-10 86l522 1311h-631q-39 0 -65.5 25.5t-26.5 64.5z" />
<glyph unicode="8" horiz-adv-x="1157" d="M125 422q0 111 49 206t133 156q-84 59 -133 147.5t-49 201.5q0 94 36 176t97 143t143 97t177 36q94 0 177 -36t144.5 -97t97 -143t35.5 -176q0 -113 -50 -201t-132 -148q84 -61 133 -155t49 -207q0 -94 -35.5 -176t-97 -143.5t-143.5 -97.5t-176 -36t-177.5 36 t-144.5 97.5t-97 143.5t-36 176zM307 422q0 -55 21.5 -104.5t58.5 -86t87 -58t106 -21.5q55 0 104 21.5t86 58t58.5 86t21.5 104.5q0 57 -21.5 107.5t-57.5 88t-84 58t-103 18.5h-6q-57 2 -106.5 -19.5t-86.5 -59t-57.5 -88t-20.5 -105.5zM307 1133q0 -57 21.5 -105.5 t58.5 -83.5t86 -53.5t107 -16.5q55 -2 104 16.5t86 53.5t58.5 83t21.5 106q0 55 -21.5 105t-58.5 87t-86 58.5t-106 21.5q-55 0 -104.5 -21.5t-86.5 -58.5t-58.5 -87t-21.5 -105z" />
<glyph unicode="9" horiz-adv-x="1112" d="M80 422q0 39 26.5 65.5t63.5 26.5q39 0 65.5 -26.5t26.5 -65.5q0 -55 21.5 -104.5t58.5 -86t86 -58t104 -21.5t105.5 21.5t87.5 58t58.5 86t21.5 104.5v348q-57 -43 -126 -66.5t-147 -23.5q-94 0 -176 36t-143 97t-97 143t-36 177q0 94 36 176t97 143t143 97t176 36 t177.5 -36t144.5 -97t97 -143t36 -176v-711q0 -94 -36 -176t-97 -143.5t-144.5 -97.5t-177.5 -36t-176 36t-143 97.5t-97 143.5t-36 176zM262 1133q0 -55 21.5 -104.5t58.5 -86.5t86 -58.5t104 -21.5t105.5 21.5t87.5 58.5t58.5 86t21.5 105q0 55 -21.5 105t-58.5 87 t-87.5 58.5t-105.5 21.5t-104 -21.5t-86 -58.5t-58.5 -87t-21.5 -105z" />
<glyph unicode=":" horiz-adv-x="364" d="M61 90q0 51 35 85t86 34t86 -34t35 -85q0 -49 -36 -85t-85 -36t-85 36t-36 85zM61 963q0 51 35 84.5t86 33.5t86 -33.5t35 -84.5q0 -49 -36 -85t-85 -36t-85 35.5t-36 85.5z" />
<glyph unicode=";" horiz-adv-x="387" d="M61 -188q0 25 9.5 41t23.5 28q29 27 39 46.5t10 49.5v9q-29 16 -45 42.5t-16 61.5q0 51 36 85t85 34q63 0 93 -41t30 -92v-99q0 -70 -32 -131t-87 -104q-29 -18 -57 -18q-37 0 -63 25.5t-26 62.5zM84 963q0 51 35 84.5t86 33.5t86 -33.5t35 -84.5q0 -49 -36 -85t-85 -36 t-85 35.5t-36 85.5z" />
<glyph unicode="&#x3c;" horiz-adv-x="1034" d="M90 498q0 49 43 75l692 437q31 20 68 12t57 -41q20 -31 12 -67.5t-40 -57.5l-570 -358l570 -361q33 -20 41 -56t-13 -69q-31 -43 -78 -43q-27 0 -47 15l-692 436q-43 27 -43 78z" />
<glyph unicode="=" horiz-adv-x="1353" d="M80 285q0 39 26.5 65.5t63.5 26.5h1014q39 0 64.5 -26.5t25.5 -65.5q0 -37 -25.5 -63.5t-64.5 -26.5h-1014q-37 0 -63.5 26.5t-26.5 63.5zM80 723q0 39 26.5 65.5t63.5 26.5h1014q39 0 64.5 -26.5t25.5 -65.5q0 -37 -25.5 -63.5t-64.5 -26.5h-1014q-37 0 -63.5 26.5 t-26.5 63.5z" />
<glyph unicode="&#x3e;" horiz-adv-x="1034" d="M82 81q8 36 41 56l569 361l-569 358q-33 20 -41 57t12 68q20 33 56 41t69 -12l692 -437q43 -27 43 -75q0 -51 -43 -78l-692 -436q-20 -14 -47 -15q-51 0 -78 43q-20 33 -12 69z" />
<glyph unicode="?" horiz-adv-x="1216" d="M80 1090q0 109 41 205t112.5 167.5t168 112.5t206.5 41q109 0 204 -42t167 -113.5t114 -167t42 -203.5q0 -147 -73 -269t-202 -194q-35 -23 -67 -37q-45 -27 -70 -56.5t-25 -89.5q0 -37 -26.5 -63.5t-63.5 -26.5q-39 0 -65.5 27t-26.5 63q0 72 21.5 124.5t56.5 90 t82 67.5t96 58q86 47 134 127t48 179q0 70 -27.5 133t-74.5 110t-110.5 75t-133.5 28q-72 0 -135 -28t-110.5 -75t-74 -109.5t-26.5 -133.5q0 -39 -26.5 -66t-65.5 -27q-37 0 -63.5 27t-26.5 66zM487 90q0 51 35 86t86 35t86 -35t35 -86t-36 -86t-85 -35q-51 0 -86 35 t-35 86z" />
<glyph unicode="@" horiz-adv-x="1214" d="M111 496q0 104 39.5 196t113.5 164q76 72 169 106.5t198 30.5q100 -4 186 -46t149.5 -110.5t100.5 -159.5t37 -194q0 -49 -18.5 -92t-51.5 -75.5t-76 -51t-92 -18.5h-69q-41 0 -56 39q-61 -39 -133 -39q-53 0 -98 19.5t-80 53t-54.5 79.5t-19.5 98q0 51 19.5 97t54.5 81 t80 54.5t98 19.5q72 0 133 -39q14 39 56 39q27 0 44 -17.5t17 -44.5v-319h8q47 0 82 34.5t35 81.5q0 78 -27.5 147.5t-76 122t-114 84t-140.5 35.5q-162 6 -277 -104q-117 -111 -117 -272q0 -78 30 -146.5t81 -119t119.5 -80t146.5 -29.5h436q25 0 42.5 -17.5t17.5 -44.5 q0 -25 -17.5 -42t-42.5 -17h-436q-102 0 -193 39t-159 106.5t-106.5 157.5t-38.5 193zM477 496q0 -53 39 -91t92 -38t91 38t38 91t-37.5 92t-91.5 39q-53 0 -92 -39t-39 -92z" />
<glyph unicode="A" horiz-adv-x="1484" d="M41 26q-7 16 -7 33q0 19 9 37l184 436l432 1012q10 27 33 41t51 14q27 0 49.5 -14t32.5 -41q156 -365 309.5 -724t309.5 -724q7 -18 7 -35t-7 -35q-14 -35 -49 -49q-16 -8 -35 -8q-27 0 -50.5 14.5t-33.5 41.5l-162 381h-743l-162 -381q-14 -35 -49 -49q-17 -7 -33 -7 l-37 8q-35 14 -49 49zM449 588h587l-293 688z" />
<glyph unicode="B" d="M170 59v1436q0 37 26.5 63.5t65.5 26.5h299q78 0 147.5 -29.5t121 -81t81 -121t29.5 -147.5q0 -123 -74 -225q80 -27 145.5 -73t112.5 -109.5t74 -140t27 -162.5q0 -109 -41 -205t-113 -168t-168 -113t-205 -41h-436q-39 0 -65.5 27t-26.5 63zM352 152h346 q72 0 134.5 26.5t109.5 73.5t73.5 109.5t26.5 134.5t-27.5 133t-73.5 105t-109.5 68.5t-133.5 24.5h-346v-675zM352 1010h230q33 0 64.5 17t56 45t40 62.5t15.5 71.5q0 41 -15.5 77t-42 63.5t-62.5 43t-77 15.5h-209v-395z" />
<glyph unicode="C" horiz-adv-x="1671" d="M125 786q0 168 64.5 314.5t175 254t259 169t318.5 61.5q164 0 311.5 -60.5t264.5 -176.5q29 -29 29 -65q0 -38 -29 -64q-27 -27 -64 -27t-63 27q-92 92 -207 139t-242 47q-133 0 -248.5 -48t-201.5 -131t-135.5 -195.5t-49.5 -244.5q0 -131 50.5 -246.5t136.5 -201.5 t201.5 -136t246.5 -50q127 0 241.5 47t207.5 137q27 29 63.5 29t63.5 -29q29 -27 29 -62q0 -37 -29 -65q-117 -117 -264.5 -178.5t-311.5 -61.5q-170 0 -318.5 64.5t-259 175t-175 259t-64.5 318.5z" />
<glyph unicode="D" horiz-adv-x="1605" d="M176 94v1401q0 37 26.5 63.5t65.5 26.5h494q162 0 295 -69.5t227 -182t145.5 -256t51.5 -291.5q0 -182 -62.5 -332.5t-164 -258t-230.5 -167t-260 -59.5h-504q-25 0 -47.5 14.5t-32.5 36.5q-10 19 -10 40q0 16 6 34zM358 150h406q117 0 214 56t169 146t111.5 205 t39.5 229q0 117 -38.5 228.5t-109.5 198.5t-170 139.5t-218 52.5h-404v-1255z" />
<glyph unicode="E" horiz-adv-x="1110" d="M170 59v4v5v1427q0 37 26.5 63.5t65.5 26.5h705q39 0 65.5 -26.5t26.5 -63.5q0 -39 -26.5 -64.5t-65.5 -25.5h-615v-522h518q37 0 64 -26t27 -64q0 -37 -27 -64t-64 -27h-518v-550h615q39 0 65.5 -27t26.5 -66q0 -37 -26.5 -63.5t-65.5 -26.5h-705q-39 0 -65.5 27 t-26.5 63z" />
<glyph unicode="F" horiz-adv-x="1048" d="M170 59v1436q0 37 26.5 63.5t65.5 26.5h705q39 0 65.5 -26.5t26.5 -63.5q0 -39 -26.5 -64.5t-65.5 -25.5h-615v-531h518q37 0 64 -26.5t27 -63.5q0 -39 -27 -64.5t-64 -25.5h-518v-635q0 -37 -26.5 -63.5t-63.5 -26.5q-39 0 -65.5 27t-26.5 63z" />
<glyph unicode="G" horiz-adv-x="1718" d="M125 786q0 170 64.5 315.5t176 253t260 169t316.5 61.5q166 0 314.5 -61.5t265.5 -177.5q27 -27 27 -63q-1 -38 -27 -64q-29 -29 -66 -29t-63 29q-92 90 -207 138t-244 48q-131 0 -246.5 -47t-201.5 -130t-136.5 -196.5t-50.5 -245.5q0 -131 50.5 -246.5t136.5 -201.5 t201.5 -136t246.5 -50q119 0 227.5 40.5t196.5 118.5v385h-414q-39 0 -65.5 27t-26.5 63q0 39 26.5 66t65.5 27h504q39 0 65.5 -27t26.5 -66v-514q1 -36 -26 -63q-117 -117 -265.5 -178.5t-314.5 -61.5q-170 0 -318.5 64.5t-259 175t-175 259t-64.5 318.5z" />
<glyph unicode="H" horiz-adv-x="1509" d="M170 59v1436q0 37 26.5 63.5t65.5 26.5q37 0 63.5 -26.5t26.5 -63.5v-559h805v559q0 37 26.5 63.5t63.5 26.5q39 0 65.5 -26.5t26.5 -63.5v-1436q0 -37 -26.5 -63.5t-65.5 -26.5q-37 0 -63.5 27t-26.5 63v695h-805v-695q0 -37 -26.5 -63.5t-63.5 -26.5q-39 0 -65.5 27 t-26.5 63z" />
<glyph unicode="I" horiz-adv-x="522" d="M170 59v1436q0 37 26.5 63.5t65.5 26.5q37 0 63.5 -26.5t26.5 -63.5v-1436q0 -37 -26.5 -63.5t-63.5 -26.5q-39 0 -65.5 27t-26.5 63z" />
<glyph unicode="J" horiz-adv-x="765" d="M57 238q0 39 27 64.5t63 25.5q39 0 66 -26t27 -64q0 -35 25.5 -60.5t60.5 -25.5q37 0 62.5 25.5t25.5 60.5v1257q0 37 25.5 63.5t64.5 26.5q37 0 63.5 -26.5t26.5 -63.5v-1257q0 -55 -20.5 -104.5t-57.5 -85.5t-86 -57.5t-104 -21.5t-104.5 21.5t-85.5 57.5t-57.5 85 t-21.5 105z" />
<glyph unicode="K" horiz-adv-x="1271" d="M170 59v1436q0 39 26.5 64.5t63.5 25.5q39 0 64.5 -25.5t25.5 -64.5v-594l688 660q26 26 60 26q2 -1 4 -1q37 -2 63 -27q26 -28 26 -63q0 -39 -28 -66l-680 -652l680 -653q28 -28 28 -66q0 -35 -26 -61q-24 -29 -65 -29q-37 0 -62 25l-688 659v-594q0 -37 -25.5 -63.5 t-64.5 -26.5q-37 0 -63.5 27t-26.5 63z" />
<glyph unicode="L" horiz-adv-x="888" d="M170 59v1436q0 39 26.5 64.5t63.5 25.5q39 0 64.5 -25.5t25.5 -64.5v-1345h457q39 0 65.5 -27t26.5 -64t-26.5 -63.5t-65.5 -26.5h-547q-37 0 -63.5 27t-26.5 63z" />
<glyph unicode="M" horiz-adv-x="1937" d="M170 59v1436q0 37 26.5 63.5t63.5 26.5q55 0 82 -49l627 -1272l626 1272q27 49 82 49q37 0 63.5 -26.5t26.5 -63.5v-1436q0 -37 -26.5 -63.5t-63.5 -26.5t-63.5 27t-26.5 63v1067l-536 -1106q-12 -23 -35 -37t-47 -14q-25 0 -47.5 14.5t-34.5 36.5l-537 1106v-1067 q0 -37 -25.5 -63.5t-64.5 -26.5q-37 0 -63.5 27t-26.5 63z" />
<glyph unicode="N" horiz-adv-x="1427" d="M170 59v1436q0 37 26.5 63.5t63.5 26.5q51 0 78 -41l739 -1171v1122q0 37 25.5 63.5t64.5 26.5q37 0 63.5 -26.5t26.5 -63.5v-1436q0 -37 -26.5 -63.5t-63.5 -26.5q-51 0 -77 43l-740 1172v-1125q0 -37 -25.5 -63.5t-64.5 -26.5q-37 0 -63.5 27t-26.5 63z" />
<glyph unicode="O" horiz-adv-x="1867" d="M125 778q0 166 63.5 313.5t173 257t257 173t315.5 63.5q166 0 313.5 -63.5t257 -173t173 -257t63.5 -313.5q0 -168 -63.5 -315.5t-173 -257t-257 -173t-313.5 -63.5q-168 0 -315.5 63.5t-257 173t-173 257t-63.5 315.5zM305 778q0 -129 49 -243.5t135 -200.5t201 -135 t244 -49t243.5 49t199.5 135t134.5 200.5t49.5 243.5t-49.5 244t-134.5 200t-199.5 134t-243.5 49t-244 -49t-201 -134t-135 -200t-49 -244z" />
<glyph unicode="P" horiz-adv-x="1112" d="M170 59v1436q0 37 26.5 63.5t65.5 26.5h361q94 0 177 -36t144.5 -97t97 -143t35.5 -176t-35.5 -176.5t-97 -143.5t-144.5 -97t-177 -36h-271v-621q0 -37 -26.5 -63.5t-63.5 -26.5q-39 0 -65.5 27t-26.5 63zM352 862h271q55 0 105 21.5t87 58.5t58.5 86t21.5 105 q0 55 -21.5 105t-58.5 87t-87 58.5t-105 21.5h-271v-543z" />
<glyph unicode="Q" horiz-adv-x="1880" d="M125 778q0 166 63.5 313.5t173 257t257 173t315.5 63.5q166 0 313.5 -63.5t257 -173t173 -257t63.5 -313.5q0 -141 -45 -266t-125 -229l158 -158q26 -26 26 -63q0 -40 -26.5 -66.5t-63.5 -26.5t-63 27l-158 156q-104 -86 -234.5 -134.5t-275.5 -48.5q-168 0 -315.5 63.5 t-257 173t-173 257t-63.5 315.5zM305 778q0 -129 49 -243.5t135 -200.5t201 -135t244 -49q109 0 206 34.5t177 96.5l-277 276q-26 26 -26 61q0 40 26.5 66.5t63.5 26.5q39 0 65 -27l273 -272q57 78 88 170t31 196q0 129 -49.5 244t-134.5 200t-199.5 134t-243.5 49t-244 -49 t-201 -134t-135 -200t-49 -244z" />
<glyph unicode="R" horiz-adv-x="1112" d="M170 59v1436q0 37 26.5 63.5t65.5 26.5h361q94 0 177 -36t144.5 -97t97 -143t35.5 -176t-35.5 -176.5t-97 -143.5t-144.5 -97t-177 -36h-25l27 47l370 -621q12 -23 13 -47q0 -37 -27 -63.5t-63 -26.5q-25 0 -46.5 12.5t-33.5 32.5l-398 666h-88v-621q0 -37 -26.5 -63.5 t-63.5 -26.5q-39 0 -65.5 27t-26.5 63zM352 862h271q55 0 105 21.5t87 58.5t58.5 86t21.5 105q0 55 -21.5 105t-58.5 87t-87 58.5t-105 21.5h-271v-543z" />
<glyph unicode="S" horiz-adv-x="1157" d="M125 422q0 39 26.5 65.5t65.5 26.5q37 0 63.5 -26.5t26.5 -65.5q0 -55 21.5 -104.5t58.5 -86t86 -58t105 -21.5q55 0 105 21.5t87 58t58.5 86t21.5 104.5q0 68 -26.5 112t-73.5 76q-23 16 -51.5 29.5t-59.5 28.5q-31 12 -63.5 24.5t-67.5 24.5q-68 25 -136.5 55.5 t-122.5 76.5t-89 114.5t-35 169.5q0 94 36 176t97 143t143 97t177 36q94 0 177 -36t144.5 -97t97 -143t35.5 -176q0 -37 -26.5 -64t-65.5 -27q-37 0 -63.5 27t-26.5 64q0 55 -21.5 105t-58.5 87t-87 58.5t-105 21.5t-104.5 -21.5t-86.5 -58.5t-58.5 -87t-21.5 -105 q0 -61 25.5 -102.5t73.5 -72.5q49 -31 110 -55q33 -12 65.5 -24.5t67.5 -24.5q68 -25 136.5 -56.5t123 -79.5t89 -120t34.5 -176q0 -94 -35.5 -176t-97 -143.5t-144.5 -97.5t-177 -36t-176.5 36t-143.5 97.5t-97 143.5t-36 176z" />
<glyph unicode="T" horiz-adv-x="1050" d="M12 1495q0 37 27 63.5t63 26.5h846q37 0 63.5 -26.5t26.5 -63.5q0 -39 -26.5 -64.5t-63.5 -25.5h-332v-1346q0 -37 -26.5 -63.5t-63.5 -26.5q-39 0 -65.5 27t-26.5 63v1346h-332q-37 0 -63.5 25.5t-26.5 64.5z" />
<glyph unicode="U" horiz-adv-x="1587" d="M170 592v903q0 37 26.5 63.5t65.5 26.5q37 0 63.5 -26.5t26.5 -63.5v-903q0 -92 35 -172t94.5 -139.5t140 -94t171.5 -34.5q92 0 171.5 34.5t140 94t95.5 140.5t35 171v903q0 37 26.5 63.5t63.5 26.5q39 0 65.5 -26.5t26.5 -63.5v-903q0 -129 -49 -242.5t-134 -197.5 t-198.5 -133.5t-242.5 -49.5t-242 49.5t-198 133.5t-134 197.5t-49 242.5z" />
<glyph unicode="V" horiz-adv-x="1376" d="M12 1509q0 37 27 63.5t63 26.5q29 0 52.5 -15t33.5 -42l500 -1239l500 1239q10 27 32.5 42t51.5 15q39 0 65.5 -26.5t26.5 -63.5q0 -20 -8 -34l-584 -1448q-10 -27 -32.5 -42.5t-51.5 -15.5t-51.5 15.5t-32.5 42.5l-586 1448q-6 14 -6 34z" />
<glyph unicode="W" horiz-adv-x="2209" d="M-51 1509q0 37 26.5 63.5t63.5 26.5q29 0 52.5 -16t33.5 -43l448 -1216l447 1216q10 27 33.5 43t52.5 16t51.5 -16t32.5 -43l448 -1216l447 1216q10 27 33.5 43t52.5 16q37 0 63.5 -26.5t26.5 -63.5q0 -8 -21.5 -72.5t-57.5 -163.5t-81 -223t-92 -253q-49 -131 -96 -259 t-87 -233.5t-66.5 -179.5t-35.5 -96q-10 -27 -33.5 -43.5t-52.5 -16.5t-52 16.5t-34 43.5l-446 1216l-449 -1216q-10 -27 -32.5 -43.5t-51.5 -16.5t-52 16.5t-34 43.5q-8 23 -35.5 96.5t-66.5 179t-86 233.5t-96 259q-47 129 -93.5 253t-82 223t-57 163.5t-21.5 72.5z" />
<glyph unicode="X" horiz-adv-x="1423" d="M12 59q0 33 21 60l561 665l-561 666q-20 27 -21 59q0 37 27 63.5t63 26.5q43 0 70 -32l541 -641l538 641q28 32 68 32h2q39 0 64.5 -26.5t25.5 -63.5t-20 -59l-560 -666l560 -665q20 -23 20 -60t-25.5 -63.5t-64.5 -26.5q-41 0 -70 33l-538 641l-541 -641 q-27 -33 -70 -33q-37 0 -63.5 27t-26.5 63z" />
<glyph unicode="Y" horiz-adv-x="1159" d="M12 1495q0 37 27 63.5t63 26.5q25 0 46.5 -12t33.5 -33l398 -711l397 711q12 20 33.5 32.5t46.5 12.5q37 0 63.5 -26.5t26.5 -63.5q0 -25 -12 -45l-465 -832v-559q0 -37 -27 -63.5t-63 -26.5q-37 0 -64 27t-27 63v559l-464 832q-12 20 -13 45z" />
<glyph unicode="Z" horiz-adv-x="1120" d="M35 59q0 25 12 47l787 1299h-709q-37 0 -63.5 26.5t-26.5 63.5t26.5 63.5t63.5 26.5h870q37 0 63.5 -26.5t26.5 -63.5q0 -27 -12 -47l-786 -1296h708q37 0 63.5 -27t26.5 -66q0 -37 -26.5 -63.5t-63.5 -26.5h-870q-37 0 -63.5 27t-26.5 63z" />
<glyph unicode="[" horiz-adv-x="749" d="M80 -403v1898q0 37 26.5 63.5t63.5 26.5h408q39 0 64.5 -26.5t25.5 -63.5q0 -39 -26 -64.5t-64 -25.5h-316v-1716h316q39 0 64.5 -27t25.5 -65q0 -37 -25.5 -64t-64.5 -27h-408q-37 0 -63.5 27t-26.5 64z" />
<glyph unicode="\" horiz-adv-x="929" d="M-4 1475q-14 35 1 69.5t50 48.5t69 -1t50 -50l766 -1915q16 -35 1 -70t-50 -49q-16 -6 -35 -6q-27 0 -50.5 14.5t-33.5 43.5z" />
<glyph unicode="]" horiz-adv-x="749" d="M80 -403q0 39 26.5 65.5t63.5 26.5h317v1716h-317q-37 0 -63.5 25.5t-26.5 64.5q0 37 26.5 63.5t63.5 26.5h408q39 0 64.5 -26.5t25.5 -63.5v-1898q0 -37 -25.5 -64t-64.5 -27h-408q-37 0 -63.5 27t-26.5 64z" />
<glyph unicode="^" horiz-adv-x="1079" d="M14 797.5q-8 36.5 13 68.5l436 693q25 41 76 40q53 0 77 -40l437 -693q14 -20 14 -49q0 -23 -10 -43.5t-33 -32.5q-33 -20 -68.5 -12t-56.5 41l-360 569l-359 -569q-20 -33 -57 -41t-68 12q-33 20 -41 56.5z" />
<glyph unicode="_" horiz-adv-x="968" d="M35 59q0 39 26.5 66t63.5 27h719q37 0 63.5 -27t26.5 -66q0 -37 -26.5 -63.5t-63.5 -26.5h-719q-37 0 -63.5 27t-26.5 63z" />
<glyph unicode="`" horiz-adv-x="434" d="M35 1546q0 37 26.5 63.5t63.5 26.5t63 -26l185 -185q27 -25 26 -63q0 -37 -26.5 -63.5t-63.5 -26.5q-39 0 -63 26l-185 185q-27 27 -26 63z" />
<glyph unicode="a" d="M80 496q0 109 42 205t113.5 167.5t168 113.5t204.5 42q96 0 184.5 -34t159.5 -95v39q0 37 27 63.5t65 26.5q37 0 64 -26.5t27 -63.5v-875q0 -37 -27 -63.5t-64 -26.5q-39 0 -65.5 27t-26.5 63v39q-72 -61 -159.5 -95t-184.5 -34q-109 0 -205 42t-167.5 114t-113.5 167 t-42 204zM262 496q0 -72 27.5 -134.5t75 -109.5t110 -73.5t133.5 -26.5q72 0 134.5 26.5t109.5 73.5t73.5 109.5t26.5 134.5t-26.5 134t-73.5 109t-109.5 75t-134.5 28t-134 -28t-109.5 -75t-75 -109.5t-27.5 -133.5z" />
<glyph unicode="b" d="M162 1495q-2 37 25.5 63.5t64.5 26.5q39 0 64.5 -26.5t25.5 -63.5l8 -602q72 63 161 97t187 34q109 0 205 -42t168 -113.5t113 -168t41 -204.5q0 -109 -41 -204t-113 -167t-168 -114t-205 -42q-98 0 -186 34t-160 95v-39q0 -37 -26.5 -63.5t-63.5 -26.5q-39 0 -65.5 27 t-26.5 63zM352 496q0 -72 28 -134.5t75 -109.5t109.5 -73.5t133.5 -26.5q72 0 134.5 26.5t109.5 73.5t73.5 109.5t26.5 134.5t-26.5 134t-73.5 109t-109.5 75t-134.5 28t-134 -28t-109 -75t-75 -109.5t-28 -133.5z" />
<glyph unicode="c" horiz-adv-x="1069" d="M80 496q0 109 42 205t113.5 167.5t168 113.5t204.5 42q49 0 100.5 -10t100.5 -29.5t93 -49.5t79 -67q10 -12 18.5 -27.5t8.5 -35.5q0 -37 -27 -63.5t-66 -26.5q-20 0 -34.5 7t-26.5 17q-59 51 -114.5 77t-131.5 26q-72 0 -134 -28t-109.5 -75t-75 -109.5t-27.5 -133.5 q0 -72 27.5 -134.5t75 -109.5t110 -73.5t133.5 -26.5q76 0 131.5 25.5t114.5 76.5q12 10 26.5 17.5t34.5 7.5q39 0 66 -27t27 -64q0 -20 -8.5 -35.5t-18.5 -27.5q-35 -37 -79 -66.5t-93 -49t-100.5 -30t-100.5 -10.5q-109 0 -205 42t-167.5 114t-113.5 167t-42 204z" />
<glyph unicode="d" d="M80 496q0 109 42 205t113.5 167.5t168 113.5t204.5 42q96 0 184.5 -34t159.5 -97v602q0 37 27 63.5t65 26.5q37 0 64 -26.5t27 -63.5v-1436q0 -37 -27 -63.5t-64 -26.5q-39 0 -65.5 27t-26.5 63v39q-72 -61 -159.5 -95t-184.5 -34q-109 0 -205 42t-167.5 114t-113.5 167 t-42 204zM262 496q0 -72 27.5 -134.5t75 -108.5t110 -73.5t133.5 -27.5q70 0 133.5 27.5t109.5 73.5t73.5 108.5t27.5 134.5t-27.5 134t-73.5 109t-109.5 75t-133.5 28q-72 0 -134 -28t-109.5 -75t-75 -109.5t-27.5 -133.5z" />
<glyph unicode="e" horiz-adv-x="1212" d="M80 496q0 109 42 205t113.5 167.5t168 113.5t204.5 42q104 0 196.5 -35t164 -99.5t114.5 -153.5t50 -195v-5q0 -38 -26 -62q-28 -26 -65 -25h-776q8 -63 38 -118t76 -94.5t104.5 -62t123.5 -22.5q39 0 71 6t59.5 19t55 32.5t60.5 44.5q12 10 25.5 17.5t35.5 7.5 q39 0 66 -27t27 -64q0 -23 -8.5 -37t-18.5 -26q-33 -37 -77 -66.5t-94 -49t-102.5 -30t-99.5 -10.5q-109 0 -205 42t-167.5 114t-113.5 167t-42 204zM289 631h637q-39 96 -126.5 153.5t-191.5 57.5q-106 0 -192 -58.5t-127 -152.5z" />
<glyph unicode="f" horiz-adv-x="786" d="M35 934q0 37 26.5 63.5t63.5 26.5h123v293q0 55 21.5 104t57 85t85 57.5t104.5 21.5t104.5 -21.5t85 -57.5t57 -85t21.5 -104q0 -37 -26.5 -63.5t-63.5 -26.5t-63.5 26.5t-26.5 63.5q0 35 -26.5 61.5t-61.5 26.5t-60.5 -26.5t-25.5 -61.5v-293h264q37 0 63.5 -26.5 t26.5 -63.5q0 -39 -26.5 -65.5t-63.5 -26.5h-264v-783q0 -37 -26.5 -63.5t-63.5 -26.5q-39 0 -65.5 27t-26.5 63v783h-123q-37 0 -63.5 26.5t-26.5 65.5z" />
<glyph unicode="g" d="M80 498q0 109 42 204t113.5 166.5t168 113.5t204.5 42q96 0 184.5 -34t159.5 -95v39q0 37 27 63.5t65 26.5q37 0 64 -26.5t27 -63.5v-877q0 -109 -42 -205t-114 -167.5t-167 -113.5t-204 -42q-68 0 -134 17.5t-126.5 51t-111 82t-82.5 107.5q-4 10 -8.5 21.5t-4.5 23.5 q0 37 27 64.5t65 27.5q29 0 45.5 -12t30.5 -29q4 -8 10.5 -15t10.5 -15l18 -25q47 -55 117 -86t143 -31q70 0 133.5 28t109.5 75t73.5 109.5t27.5 133.5v43q-72 -63 -159.5 -97t-184.5 -34q-109 0 -205 42t-167.5 114t-113.5 168t-42 205zM262 498q0 -72 27.5 -134.5 t75 -109.5t110 -74.5t133.5 -27.5q70 0 133.5 27.5t109.5 74.5t73.5 109.5t27.5 134.5q0 70 -27.5 133t-73.5 109t-109.5 74t-133.5 28q-72 0 -134 -28t-109.5 -74t-75 -109.5t-27.5 -132.5z" />
<glyph unicode="h" horiz-adv-x="1153" d="M170 59v1436q0 37 26.5 63.5t65.5 26.5q37 0 63.5 -26.5t26.5 -63.5v-551q53 39 118 59.5t130 20.5q88 0 166 -34t136.5 -92t92 -136t33.5 -166v-537q0 -37 -26.5 -63.5t-63.5 -26.5q-39 0 -65.5 27t-26.5 63v537q0 51 -19.5 95t-53.5 78t-78 53.5t-95 19.5 q-49 0 -94 -19.5t-78 -53.5t-52.5 -78t-19.5 -95q0 -8 -4 -16v-521q0 -37 -26.5 -63.5t-63.5 -26.5q-39 0 -65.5 27t-26.5 63z" />
<glyph unicode="i" horiz-adv-x="581" d="M170 1284q0 51 36 85t85 34q51 0 86 -34t35 -85q0 -49 -36 -85t-85 -36t-85 36t-36 85zM201 59v875q0 37 26.5 63.5t63.5 26.5t64.5 -26.5t27.5 -63.5v-875q0 -37 -27.5 -63.5t-64.5 -26.5t-63.5 27t-26.5 63z" />
<glyph unicode="j" horiz-adv-x="546" d="M-190 -201q0 37 26.5 63.5t63.5 26.5t63.5 -26.5t26.5 -63.5q0 -35 26.5 -60.5t61.5 -25.5t60.5 25.5t25.5 60.5v1135q0 37 26.5 63.5t63.5 26.5q39 0 65.5 -26.5t26.5 -63.5v-1135q0 -55 -21.5 -104t-57.5 -85t-85 -57.5t-104 -21.5t-104.5 21.5t-85 57.5t-57 85 t-21.5 104zM137 1284q0 51 35 85t86 34q49 0 85 -34t36 -85q0 -49 -36 -85t-85 -36t-85 36t-36 85z" />
<glyph unicode="k" horiz-adv-x="935" d="M170 59v1436q0 37 26.5 63.5t63.5 26.5t63.5 -26.5t26.5 -63.5v-872l398 381q24 24 60 24h3q37 0 63.5 -26.5t26.5 -63.5t-29 -66l-389 -372l389 -375q29 -25 29 -66q0 -37 -26.5 -63.5t-63.5 -26.5q-39 0 -63 25l-398 381v-316q0 -37 -26.5 -63.5t-63.5 -26.5t-63.5 27 t-26.5 63z" />
<glyph unicode="l" horiz-adv-x="522" d="M170 59v1436q0 37 26.5 63.5t63.5 26.5t63.5 -26.5t26.5 -63.5v-1436q0 -37 -26.5 -63.5t-63.5 -26.5t-63.5 27t-26.5 63z" />
<glyph unicode="m" horiz-adv-x="1642" d="M170 59v887q0 39 26.5 65.5t65.5 26.5h2q72 0 84 -75q96 61 207 61q86 0 162 -36t129 -99q53 63 129 99t160 36q80 0 148.5 -29.5t120.5 -82t82 -122t30 -147.5v-584q0 -37 -27 -63.5t-64 -26.5t-63.5 27t-26.5 63v584q0 41 -15 77t-43 63.5t-64.5 43t-77.5 15.5 t-77 -15.5t-63.5 -43t-43 -63.5t-15.5 -77v-584q0 -37 -26.5 -63.5t-63.5 -26.5q-39 0 -65.5 27t-26.5 63v584q0 41 -15.5 77t-43 63.5t-63.5 43t-77 15.5t-78 -15.5t-63.5 -43t-42 -63.5t-15.5 -77q0 -6 -4 -18v-566q0 -37 -26.5 -63.5t-63.5 -26.5q-39 0 -65.5 27 t-26.5 63z" />
<glyph unicode="n" horiz-adv-x="1060" d="M170 59v887q0 39 26.5 65.5t65.5 26.5h2q72 0 84 -75q96 61 207 61q78 0 147.5 -29.5t122 -82t82 -122t29.5 -147.5v-584q0 -37 -26.5 -63.5t-63.5 -26.5q-39 0 -65.5 27t-26.5 63v584q0 41 -15.5 77t-43 63.5t-63.5 43t-77 15.5t-78 -15.5t-63.5 -43t-42 -63.5 t-15.5 -77q0 -6 -4 -18v-566q0 -37 -26.5 -63.5t-63.5 -26.5q-39 0 -65.5 27t-26.5 63z" />
<glyph unicode="o" horiz-adv-x="1214" d="M80 496q0 109 42 205t113.5 167.5t168 113.5t204.5 42q109 0 204 -42t167 -113.5t114 -168t42 -204.5q0 -109 -42 -204t-114 -167t-167 -114t-204 -42t-205 42t-167.5 114t-113.5 167t-42 204zM262 496q0 -72 27.5 -134.5t75 -109.5t110 -73.5t133.5 -26.5 q72 0 134.5 26.5t109.5 73.5t73.5 109.5t26.5 134.5t-27.5 134t-73.5 109t-109.5 75t-133.5 28q-72 0 -134 -28t-109.5 -75t-75 -109.5t-27.5 -133.5z" />
<glyph unicode="p" d="M170 -399v1333q0 37 26.5 63.5t65.5 26.5q37 0 63.5 -26.5t26.5 -63.5v-39q72 61 160 95t186 34q109 0 205 -42t168 -113.5t113 -167t41 -203.5q0 -109 -41 -205t-113 -168t-168 -114t-205 -42q-98 0 -186 34t-160 95v-497q0 -39 -26.5 -66t-63.5 -27q-39 0 -65.5 27 t-26.5 66zM352 498q0 -72 28 -134.5t75 -109.5t109.5 -74.5t133.5 -27.5q72 0 134.5 27.5t109.5 74.5t73.5 109.5t26.5 134.5t-26.5 134t-73.5 109t-109.5 74t-134.5 27t-134 -27t-109 -74t-75 -109.5t-28 -133.5z" />
<glyph unicode="q" d="M80 498q0 109 42 204t113.5 166.5t168 113.5t204.5 42q96 0 184.5 -34t159.5 -95v39q0 37 27 63.5t65 26.5q37 0 64 -26.5t27 -63.5v-1333q0 -39 -27 -66t-64 -27q-39 0 -65.5 27t-26.5 66v497q-72 -61 -159.5 -95t-184.5 -34q-109 0 -205 42t-167.5 114t-113.5 168 t-42 205zM262 498q0 -72 27.5 -134.5t75 -109.5t110 -74.5t133.5 -27.5q70 0 133.5 27.5t109.5 74.5t73.5 109.5t27.5 134.5t-27.5 134t-73.5 109t-109.5 74t-133.5 27q-72 0 -134 -27t-109.5 -74t-75 -109.5t-27.5 -133.5z" />
<glyph unicode="r" horiz-adv-x="800" d="M170 59v875q0 37 26.5 63.5t65.5 26.5q29 0 51.5 -16t32.5 -43q33 29 73 44t81 15q100 0 164.5 -49t99.5 -141q6 -16 6 -34v-9q-2 -23 -13.5 -41.5t-30.5 -29.5t-46 -11q-23 0 -40 10t-30 24q-10 12 -17 25.5t-15 28.5q-14 23 -32 37t-59 10q-27 -2 -51 -16.5t-42.5 -35 t-30 -46t-11.5 -52.5v-635q0 -37 -26.5 -63.5t-63.5 -26.5q-39 0 -65.5 27t-26.5 63z" />
<glyph unicode="s" horiz-adv-x="843" d="M82 274q0 37 26.5 64t63.5 27q39 0 65.5 -27t26.5 -64q0 -59 51.5 -90.5t116.5 -31.5q72 0 110 29.5t38 97.5q0 41 -15.5 65.5t-44.5 42.5q-16 10 -33.5 17.5t-37.5 15.5t-42 14t-45 15q-45 14 -91 33.5t-83.5 50t-61.5 77.5t-24 119q0 66 25 120t68 93t99 60.5t118 21.5 q61 0 117.5 -21.5t98.5 -60.5t67.5 -93t25.5 -120q0 -37 -26.5 -63.5t-65.5 -26.5q-37 0 -63.5 26.5t-26.5 63.5q0 51 -37 82t-90 31t-90 -31t-37 -82q0 -47 57 -76q33 -18 74 -30q20 -10 42.5 -16.5t45.5 -16.5q45 -16 91 -40t83 -59.5t60.5 -87t23.5 -124.5 q0 -74 -25.5 -131.5t-70.5 -97.5t-105.5 -60.5t-128.5 -20.5q-61 0 -123.5 20.5t-113 59.5t-82 96.5t-31.5 128.5z" />
<glyph unicode="t" horiz-adv-x="780" d="M41 932q0 39 26.5 65.5t63.5 26.5h168v301q0 39 26.5 64.5t63.5 25.5q39 0 65.5 -25.5t26.5 -64.5v-301h166q39 0 65.5 -26.5t26.5 -65.5q0 -37 -26.5 -63.5t-65.5 -26.5h-166v-783q0 -37 -26.5 -63.5t-65.5 -26.5q-37 0 -63.5 27t-26.5 63v783h-168q-37 0 -63.5 26.5 t-26.5 63.5z" />
<glyph unicode="u" horiz-adv-x="1064" d="M125 381v543q0 39 26.5 65.5t65.5 26.5q37 0 63.5 -26.5t26.5 -65.5v-543q0 -47 17.5 -88t48 -72t71.5 -48t88 -17q45 0 86 17t72 48t49.5 72t18.5 88v543q0 39 26.5 65.5t63.5 26.5t63.5 -26.5t26.5 -65.5v-543q0 -84 -32 -159t-87 -130t-129 -87t-158 -32t-158.5 32 t-130 87t-87 130t-31.5 159z" />
<glyph unicode="v" horiz-adv-x="935" d="M35 934q0 37 26.5 63.5t63.5 26.5q29 0 52.5 -15.5t33.5 -41.5l256 -695l258 695q10 27 33.5 42t50.5 15q39 0 65.5 -26.5t26.5 -63.5q0 -15 -8 -35l-340 -872q-10 -27 -33.5 -42.5t-52.5 -15.5q-27 0 -50.5 15.5t-33.5 42.5l-342 872q-6 14 -6 35z" />
<glyph unicode="w" horiz-adv-x="1640" d="M35 934q0 37 26.5 63.5t63.5 26.5q29 0 52.5 -15.5t33.5 -41.5l262 -697l262 697q10 27 34 42t50 15q29 0 52.5 -15.5t33.5 -41.5l262 -697l263 697q10 27 32.5 42t50.5 15q39 0 66 -26.5t27 -63.5q-1 -15 -9 -35l-346 -872q-10 -27 -32.5 -42.5t-51.5 -15.5t-51 15.5 t-33 42.5l-264 661l-262 -661q-10 -27 -32.5 -42.5t-51.5 -15.5t-51.5 15.5t-32.5 42.5l-348 872q-6 14 -6 35z" />
<glyph unicode="x" horiz-adv-x="962" d="M35 59q0 33 20 60l307 391l-307 364q-20 27 -20 60q0 37 26.5 63.5t63.5 26.5q45 0 72 -33l284 -358l287 358q27 33 70 33q37 0 63.5 -26.5t26.5 -63.5t-21 -60l-307 -364l307 -391q20 -27 21 -60q0 -37 -26.5 -63.5t-63.5 -26.5q-18 0 -38 8.5t-34 26.5l-285 381 l-284 -381q-27 -35 -72 -35q-37 0 -63.5 27t-26.5 63z" />
<glyph unicode="y" horiz-adv-x="935" d="M35 934q0 37 26.5 63.5t63.5 26.5q29 0 52.5 -15.5t33.5 -41.5l256 -656l258 656q10 27 32.5 42t51.5 15q39 0 65.5 -26.5t26.5 -63.5q0 -21 -8 -35l-342 -848l-178 -434q-10 -27 -33 -42t-51 -15q-37 0 -63.5 26.5t-26.5 63.5q0 18 6 35l164 401l-328 813q-6 14 -6 35z " />
<glyph unicode="z" horiz-adv-x="1007" d="M35 59q0 33 22 60l625 723h-557q-37 0 -63.5 26.5t-26.5 63.5q0 39 26.5 65.5t63.5 26.5h756q39 0 65.5 -26.5t26.5 -63.5q0 -35 -23 -62l-624 -720h555q39 0 65.5 -27t26.5 -66q0 -37 -26.5 -63.5t-65.5 -26.5h-756q-37 0 -63.5 27t-26.5 63z" />
<glyph unicode="{" horiz-adv-x="768" d="M35 494q0 47 43 77l76 47q82 53 114.5 143.5t3.5 182.5l-73 234q-25 78 -10.5 153.5t57.5 135t110.5 95t149.5 35.5h92q37 0 63.5 -26.5t26.5 -65.5q0 -37 -26.5 -63.5t-63.5 -26.5h-92q-35 0 -64.5 -15.5t-48 -42t-25 -59t4.5 -65.5l73 -236q23 -70 22 -140.5 t-21.5 -137t-60.5 -124.5t-95 -101q55 -47 93 -107.5t56.5 -128.5t15.5 -140.5t-28 -142.5l-37 -98q-25 -70 17 -129q41 -59 114 -59h76q37 0 63.5 -27t26.5 -65q0 -37 -26.5 -64t-63.5 -27h-76q-78 0 -148.5 36t-115.5 102t-55 143.5t16 151.5l37 100q35 94 3 188.5 t-116 147.5l-65 43q-43 27 -43 76z" />
<glyph unicode="|" horiz-adv-x="522" d="M170 -403v1898q0 37 26.5 63.5t63.5 26.5q39 0 64.5 -26.5t25.5 -63.5v-1898q0 -37 -25.5 -64t-64.5 -27q-37 0 -63.5 27t-26.5 64z" />
<glyph unicode="}" horiz-adv-x="768" d="M80 -403q0 39 26.5 65.5t63.5 26.5h76q76 0 116 59q39 57 17 129l-37 98q-27 70 -29 142.5t16.5 140.5t56.5 128t93 108q-57 43 -97 101t-60.5 124.5t-21.5 137.5t22 140l73 236q10 33 4 65.5t-24.5 59t-47 42t-65.5 15.5h-92q-37 0 -63.5 26.5t-26.5 63.5 q0 39 26.5 65.5t63.5 26.5h92q82 0 149.5 -35.5t110.5 -95t57.5 -135.5t-10.5 -153l-73 -234q-29 -92 3.5 -182t114.5 -144l78 -47q41 -31 41 -77q0 -49 -41 -76l-65 -43q-43 -27 -72 -65t-44 -83t-15 -93t16 -95l37 -100q29 -74 18.5 -152t-57.5 -143q-45 -66 -114.5 -102 t-149.5 -36h-76q-37 0 -63.5 27t-26.5 64z" />
<glyph unicode="~" horiz-adv-x="1138" d="M242 414q0 20 10 41q29 66 73 111.5t121 45.5q47 0 85 -17t69 -38.5t54.5 -39t41.5 -17.5q14 0 23.5 14t20 31.5t24.5 32t43 14.5q33 0 61.5 -22.5t28.5 -57.5q0 -10 -4 -21.5t-8 -21.5q-27 -59 -69 -99t-114 -40q-47 0 -80.5 17.5t-62.5 39t-53.5 39.5t-50.5 18 q-18 0 -27.5 -17t-21 -37.5t-29 -38t-47.5 -17.5q-33 0 -60.5 22.5t-27.5 57.5z" />
<glyph unicode="&#xa1;" horiz-adv-x="583" d="M170 1483q0 51 36 86t85 35q51 0 86 -35t35 -86t-35 -86t-85 -35t-85 35q-37 33 -37 86zM201 59v1069q0 37 26.5 64t63.5 27q39 0 65.5 -27t26.5 -64v-1069q0 -37 -26.5 -63.5t-65.5 -26.5q-37 0 -63.5 27t-26.5 63z" />
<glyph unicode="&#xa2;" horiz-adv-x="1042" d="M80 496q0 98 33.5 185t92 155.5t138.5 115.5t172 64v84q0 39 26.5 65.5t65.5 26.5q37 0 63.5 -26.5t26.5 -65.5v-84q78 -14 154 -51t129 -97q10 -12 18.5 -27.5t8.5 -35.5q0 -37 -27 -63.5t-66 -26.5q-20 0 -34.5 7t-26.5 17q-41 35 -78 57.5t-78 34.5v-669 q41 12 78 34.5t78 57.5q12 10 26.5 17.5t34.5 7.5q39 0 66 -27t27 -64q0 -20 -8.5 -35.5t-18.5 -27.5q-53 -59 -129 -96t-154 -52v-75q0 -39 -26.5 -65.5t-63.5 -26.5q-39 0 -65.5 26.5t-26.5 65.5v75q-92 16 -172 62.5t-138.5 116t-92 156.5t-33.5 184zM262 496 q0 -59 19.5 -112.5t53.5 -97.5t80 -76t101 -46v665q-55 -14 -101 -45.5t-80 -75.5t-53.5 -98.5t-19.5 -113.5z" />
<glyph unicode="&#xa3;" horiz-adv-x="1312" d="M80 932q0 39 26.5 65.5t63.5 26.5h137q8 141 52 237.5t96 155.5q72 86 172 134t202 48h269q37 0 63.5 -26.5t26.5 -63.5q0 -39 -26.5 -65.5t-63.5 -26.5h-269q-47 0 -113.5 -26.5t-123.5 -92.5q-35 -41 -65.5 -106.5t-37.5 -167.5h342q37 0 64 -26.5t27 -65.5 q0 -37 -27 -63.5t-64 -26.5h-331q20 -129 29.5 -231.5t2 -184.5t-33 -148.5t-76.5 -125.5h676q37 0 63.5 -27t26.5 -66q0 -37 -26.5 -63.5t-63.5 -26.5h-928q-29 0 -52.5 18.5t-33.5 47.5t1 56.5t36 43.5q90 59 142 110.5t72.5 122t14.5 176t-31 277.5l-4 21h-145 q-37 0 -63.5 26.5t-26.5 63.5z" />
<glyph unicode="&#xa5;" horiz-adv-x="1198" d="M29 267q0 39 26.5 65.5t63.5 26.5h1014q39 0 64.5 -26.5t25.5 -65.5q0 -37 -25.5 -63.5t-64.5 -26.5h-1014q-37 0 -63.5 26.5t-26.5 63.5zM29 705q0 39 26.5 65.5t63.5 26.5h1014q39 0 64.5 -26.5t25.5 -65.5q0 -37 -25.5 -63.5t-64.5 -26.5h-1014q-37 0 -63.5 26.5 t-26.5 63.5zM35 1495q0 37 27 63.5t63 26.5q25 0 46.5 -12t33.5 -33l398 -711l397 711q12 20 33.5 32.5t46.5 12.5q37 0 63.5 -26.5t26.5 -63.5q0 -25 -12 -45l-465 -832v-559q0 -37 -27 -63.5t-63 -26.5q-37 0 -64 27t-27 63v559l-464 832q-12 20 -13 45z" />
<glyph unicode="&#xa6;" horiz-adv-x="522" d="M170 371q0 37 26.5 63.5t63.5 26.5q39 0 64.5 -26.5t25.5 -63.5v-774q0 -37 -25.5 -64t-64.5 -27q-37 0 -63.5 27t-26.5 64v774zM170 735v774q0 39 26.5 64.5t63.5 25.5q39 0 64.5 -25.5t25.5 -64.5v-774q0 -37 -25.5 -63.5t-64.5 -26.5q-37 0 -63.5 26.5t-26.5 63.5z " />
<glyph unicode="&#xa8;" horiz-adv-x="659" d="M35 1346q0 51 34.5 85.5t86.5 34.5q51 0 85.5 -34.5t34.5 -85.5q0 -49 -35.5 -85t-84.5 -36t-85 35.5t-36 85.5zM383 1346q0 51 35 85.5t86 34.5t86 -34.5t35 -85.5q0 -49 -36 -85t-85 -36t-85 35.5t-36 85.5z" />
<glyph unicode="&#xa9;" horiz-adv-x="1038" d="M55 1133q0 94 37 179t99.5 147.5t146.5 99t180 36.5t181 -36.5t147.5 -99t99.5 -147.5t37 -179q0 -96 -37 -181.5t-99.5 -148t-147.5 -99t-181 -36.5t-180 36.5t-146.5 99t-99.5 147.5t-37 182zM158 1133q0 -76 28.5 -141.5t77.5 -115t114.5 -78t139.5 -28.5 q76 0 141.5 28.5t114.5 78t78 115t29 141.5q0 74 -29 139t-78 114.5t-114.5 78t-141.5 28.5q-74 0 -139.5 -28.5t-114.5 -78t-77.5 -115t-28.5 -138.5zM242 1126q0 55 21.5 105.5t58 88.5t86 59.5t106.5 21.5q49 0 104.5 -20.5t88.5 -61.5q14 -18 14 -35q0 -23 -14 -37 t-37 -14q-8 0 -15.5 4t-15.5 8q-6 4 -13.5 10.5t-17.5 12.5q-16 10 -38.5 20t-55.5 10q-72 0 -122 -50t-50 -122t50 -122t122 -50q33 0 55.5 9.5t38.5 21.5q10 6 17.5 12.5t13.5 10.5q8 4 15.5 8t15.5 4q23 0 37 -15.5t14 -35.5t-14 -35q-33 -41 -88.5 -61.5t-104.5 -20.5 q-57 0 -106.5 21.5t-86 58.5t-58 87t-21.5 107z" />
<glyph unicode="&#xab;" horiz-adv-x="1439" d="M12 498q0 49 43 75l693 437q31 20 67.5 12t56.5 -41q20 -31 12.5 -67.5t-40.5 -57.5l-570 -358l570 -361q33 -20 41 -56t-13 -69q-30 -43 -77 -43q-27 0 -47 15l-693 436q-43 27 -43 78zM487 498q0 49 41 75l693 437q33 20 68.5 12t56.5 -41q20 -31 12 -67.5t-39 -57.5 l-571 -358l571 -361q31 -20 39 -56t-12 -69q-27 -43 -76 -43q-27 0 -49 15l-693 436q-41 27 -41 78z" />
<glyph unicode="&#xac;" horiz-adv-x="1589" d="M125 993q0 35 22.5 63.5t69.5 28.5h1110q37 0 64.5 -27.5t27.5 -64.5v-495q0 -47 -28.5 -69.5t-63.5 -22.5t-63.5 22.5t-28.5 69.5v403h-1018q-47 0 -69.5 28.5t-22.5 63.5z" />
<glyph unicode="&#xad;" horiz-adv-x="968" d="M35 498q0 37 26.5 63.5t63.5 26.5h719q37 0 63.5 -26.5t26.5 -63.5q0 -39 -26.5 -65.5t-63.5 -26.5h-719q-37 0 -63.5 26.5t-26.5 65.5z" />
<glyph unicode="&#xae;" horiz-adv-x="1038" d="M55 1133q0 94 37 179t99.5 147.5t146.5 99t180 36.5t181 -36.5t147.5 -99t99.5 -147.5t37 -179q0 -96 -37 -181.5t-99.5 -148t-147.5 -99t-181 -36.5t-180 36.5t-146.5 99t-99.5 147.5t-37 182zM158 1133q0 -76 28.5 -141.5t77.5 -115t114.5 -78t139.5 -28.5 q76 0 141.5 28.5t114.5 78t78 115t29 141.5q0 74 -29 139t-78 114.5t-114.5 78t-141.5 28.5q-74 0 -139.5 -28.5t-114.5 -78t-77.5 -115t-28.5 -138.5zM397 905v447q0 18 12.5 31.5t30.5 13.5h107q33 0 59.5 -13.5t47 -35t31.5 -49t11 -58.5q0 -51 -30.5 -93t-85.5 -58 q16 -29 33.5 -59t30.5 -56.5t22.5 -45t9.5 -24.5q0 -18 -12.5 -31.5t-30.5 -13.5q-23 0 -37 23l-113 202h-2v-180q0 -18 -12 -31.5t-29 -13.5q-18 0 -30.5 13.5t-12.5 31.5zM481 1171h66q29 0 47 20.5t18 49.5q0 27 -18 47.5t-47 20.5h-66v-138z" />
<glyph unicode="&#xb0;" horiz-adv-x="538" d="M60 1442q0 49 18.5 92t50 74.5t74.5 50t92 18.5t91 -18.5t74 -50t50.5 -74.5t18.5 -92t-18.5 -91t-50.5 -74t-74 -50.5t-91 -18.5t-92 18.5t-74.5 50.5t-50 74t-18.5 91zM209 1442q0 -35 26 -59.5t60 -24.5q35 0 59.5 24.5t24.5 59.5t-24.5 60.5t-59.5 25.5t-60.5 -25.5 t-25.5 -60.5z" />
<glyph unicode="&#xb1;" horiz-adv-x="1220" d="M80 748q0 37 26.5 63.5t63.5 26.5h348v346q0 39 26.5 65.5t63.5 26.5q39 0 65.5 -26.5t26.5 -65.5v-346h347q37 0 63.5 -27t26.5 -63q0 -39 -27 -66t-63 -27h-347v-346q0 -39 -26.5 -64.5t-65.5 -25.5q-37 0 -63.5 25.5t-26.5 64.5v346h-348q-37 0 -63.5 27t-26.5 66z M86 59q0 39 26.5 66t63.5 27h875q37 0 63.5 -27t26.5 -66q0 -37 -26.5 -63.5t-63.5 -26.5h-875q-37 0 -63.5 27t-26.5 63z" />
<glyph unicode="&#xb4;" horiz-adv-x="434" d="M35 1362q0 37 26 63l185 185q27 27 63 26q37 0 63.5 -26.5t26.5 -63.5q1 -38 -26 -63l-185 -185q-25 -27 -63 -26q-37 0 -63.5 26.5t-26.5 63.5z" />
<glyph unicode="&#xb5;" horiz-adv-x="1155" d="M170 377v543v14q0 37 26.5 63.5t65.5 26.5q37 0 63.5 -26.5t26.5 -63.5v-14v-543q0 -47 17.5 -88t48.5 -72t71.5 -48t88.5 -17q45 0 86 17t71.5 48t49 71t18.5 87v545v14q0 37 26.5 63.5t63.5 26.5q39 0 64.5 -26.5t25.5 -63.5v-14v-543v-318q0 -37 -25.5 -63.5 t-64.5 -26.5q-33 0 -56.5 20.5t-31.5 49.5q-49 -33 -106.5 -51.5t-120.5 -18.5t-121 17.5t-105 50.5v-436q0 -39 -26.5 -66t-63.5 -27q-39 0 -65.5 27t-26.5 66v776z" />
<glyph unicode="&#xb6;" horiz-adv-x="1116" d="M111 1079q0 100 38.5 190.5t104 156t155 104.5t191.5 39h254q25 0 42 -17.5t17 -42.5v-1450q0 -25 -17 -42t-42 -17t-42 17.5t-17 41.5v1389h-133v-799v-590q0 -25 -17.5 -42t-44.5 -17q-25 0 -42 17.5t-17 41.5v533q-90 12 -169 54t-137.5 107.5t-91 148.5t-32.5 177z " />
<glyph unicode="&#xb7;" horiz-adv-x="348" d="M137 740q0 68 46 112.5t114 44.5q66 0 113 -44.5t47 -112.5q0 -66 -47.5 -113t-112.5 -47q-66 0 -113 47t-47 113z" />
<glyph unicode="&#xb8;" horiz-adv-x="2267" d="M895 -264q0 39 29.5 49t60.5 10q18 0 36.5 -1t37.5 -1q16 0 35.5 2t19.5 25q0 16 -18.5 18t-30.5 2q-18 0 -35.5 -3t-36.5 -3q-27 0 -44 14.5t-17 42.5q0 16 8 41t18 50q10 23 22.5 50t31.5 68v-6q18 18 45 19q27 0 44 -17.5t17 -44.5q0 -16 -13 -47t-22 -47 q53 -4 94.5 -31.5t41.5 -93.5q0 -59 -24 -91t-58.5 -46t-78.5 -17.5t-83 -3.5q-27 0 -53.5 10.5t-26.5 51.5z" />
<glyph unicode="&#xbb;" horiz-adv-x="1439" d="M82 81q8 36 41 56l569 361l-569 358q-33 20 -41 57t12 68q20 33 56 41t69 -12l692 -437q43 -27 43 -75q0 -51 -43 -78l-692 -436q-20 -14 -47 -15q-51 0 -78 43q-20 33 -12 69zM557 81q8 36 39 56l571 361l-571 358q-31 20 -39 57t12 68q20 33 56.5 41t68.5 -12l692 -437 q41 -25 41 -75q0 -53 -41 -78l-692 -436q-23 -14 -49 -15q-23 0 -43 11.5t-33 31.5q-20 33 -12 69z" />
<glyph unicode="&#xbf;" horiz-adv-x="1216" d="M80 473q-6 154 66.5 284t207.5 204q23 10 40.5 20t33.5 20q45 27 66.5 54.5t21.5 85.5q0 37 26.5 63.5t65.5 26.5q37 0 63.5 -26.5t26.5 -63.5q0 -68 -19.5 -118t-53 -89t-80.5 -71t-103 -62q-88 -47 -136 -133t-44 -187q2 -66 29.5 -125t72 -103t103.5 -71.5t125 -29.5 q150 -6 254 94q109 104 108 252q0 37 27 63.5t63 26.5q39 0 65 -26.5t26 -63.5q0 -111 -42 -209t-120 -174q-80 -76 -179.5 -113t-209.5 -33q-102 4 -191.5 46t-157 110t-109.5 157t-46 191zM487 1495q0 51 35 86t86 35q49 0 85 -35t36 -86q0 -49 -35 -84t-86 -35t-86 35 t-35 84z" />
<glyph unicode="&#xc0;" horiz-adv-x="1484" d="M66 26q-14 35 2 70l184 436l432 1012q10 27 33 41t51 14q27 0 49.5 -14t32.5 -41q156 -365 309.5 -724t309.5 -724q14 -35 0 -70t-49 -49q-16 -8 -35 -8q-27 0 -50.5 14.5t-33.5 41.5l-162 381h-743l-162 -381q-14 -35 -49 -49.5t-70 1.5q-35 14 -49 49zM473 1902 q0 37 26.5 63.5t63.5 26.5t63 -26l185 -185q27 -25 26 -63q0 -37 -26.5 -63.5t-63.5 -26.5q-39 0 -63 26l-185 185q-27 27 -26 63zM474 588h587l-293 688z" />
<glyph unicode="&#xc1;" horiz-adv-x="1484" d="M66 26q-14 35 2 70l184 436l432 1012q10 27 33 41t51 14q27 0 49.5 -14t32.5 -41q156 -365 309.5 -724t309.5 -724q14 -35 0 -70t-49 -49q-16 -8 -35 -8q-27 0 -50.5 14.5t-33.5 41.5l-162 381h-743l-162 -381q-14 -35 -49 -49.5t-70 1.5q-35 14 -49 49zM474 588h587 l-293 688zM650 1718q0 -37 26.5 -63.5t63.5 -26.5q39 0 63 26l185 185q27 27 26 63q0 37 -26.5 63.5t-63.5 26.5t-63 -26l-185 -185q-27 -25 -26 -63z" />
<glyph unicode="&#xc2;" horiz-adv-x="1484" d="M66 26q-14 35 2 70l184 436l432 1012q10 27 33 41t51 14q27 0 49.5 -14t32.5 -41q156 -365 309.5 -724t309.5 -724q14 -35 0 -70t-49 -49q-16 -8 -35 -8q-27 0 -50.5 14.5t-33.5 41.5l-162 381h-743l-162 -381q-14 -35 -49 -49.5t-70 1.5q-35 14 -49 49zM474 588h587 l-293 688zM490 1757q0 35 24 60l193 196q20 25 57 25q35 0 60 -25l192 -196q23 -27 23 -60q0 -35 -23.5 -59.5t-58.5 -24.5t-60 25l-133 137l-133 -137q-25 -25 -59 -25q-35 0 -58.5 24.5t-23.5 59.5z" />
<glyph unicode="&#xc3;" horiz-adv-x="1484" d="M66 26q-14 35 2 70l184 436l432 1012q10 27 33 41t51 14q27 0 49.5 -14t32.5 -41q156 -365 309.5 -724t309.5 -724q14 -35 0 -70t-49 -49q-16 -8 -35 -8q-27 0 -50.5 14.5t-33.5 41.5l-162 381h-743l-162 -381q-14 -35 -49 -49.5t-70 1.5q-35 14 -49 49zM414 1805 q0 23 12 45q31 49 80 85t108 36q39 0 76 -14.5t71 -32t62.5 -32t50.5 -14.5q14 0 24.5 10.5t22 21.5t25.5 21.5t39 10.5q35 0 61.5 -24.5t26.5 -59.5q0 -29 -19.5 -56.5t-49 -48t-62 -33t-59.5 -12.5q-39 0 -77 14.5t-73 32t-63.5 32t-49.5 14.5q-14 0 -24 -12.5t-22.5 -28 t-30 -27.5t-41.5 -12q-35 0 -61.5 24.5t-26.5 59.5zM474 588h587l-293 688z" />
<glyph unicode="&#xc4;" horiz-adv-x="1484" d="M66 26q-14 35 2 70l184 436l432 1012q10 27 33 41t51 14q27 0 49.5 -14t32.5 -41q156 -365 309.5 -724t309.5 -724q14 -35 0 -70t-49 -49q-16 -8 -35 -8q-27 0 -50.5 14.5t-33.5 41.5l-162 381h-743l-162 -381q-14 -35 -49 -49.5t-70 1.5q-35 14 -49 49zM469 1819 q0 51 34.5 85.5t86.5 34.5q51 0 85.5 -34.5t34.5 -85.5q0 -49 -35.5 -85t-84.5 -36t-85 35.5t-36 85.5zM474 588h587l-293 688zM817 1819q0 51 35 85.5t86 34.5t86 -34.5t35 -85.5q0 -49 -36 -85t-85 -36t-85 35.5t-36 85.5z" />
<glyph unicode="&#xc5;" horiz-adv-x="1484" d="M66 26q-14 35 2 70l184 436l432 1012q10 27 33 41t51 14q27 0 49.5 -14t32.5 -41q156 -365 309.5 -724t309.5 -724q14 -35 0 -70t-49 -49q-16 -8 -35 -8q-27 0 -50.5 14.5t-33.5 41.5l-162 381h-743l-162 -381q-14 -35 -49 -49.5t-70 1.5q-35 14 -49 49zM474 588h587 l-293 688zM529 1745q0 49 18.5 92t50 74.5t74.5 50t92 18.5t91 -18.5t74 -50t50.5 -74.5t18.5 -92t-18.5 -91t-50.5 -74t-74 -50.5t-91 -18.5t-92 18.5t-74.5 50.5t-50 74t-18.5 91zM678 1745q0 -35 26 -59.5t60 -24.5q35 0 59.5 24.5t24.5 59.5t-24.5 60.5t-59.5 25.5 t-60.5 -25.5t-25.5 -60.5z" />
<glyph unicode="&#xc6;" horiz-adv-x="2236" d="M35 59q0 20 8 37l616 1448q10 25 33 40t51 15h1242q37 0 63.5 -26.5t26.5 -63.5t-27 -63.5t-63 -26.5h-1104l227 -536h860q37 0 63.5 -27t26.5 -63q0 -37 -26.5 -64t-63.5 -27h-782l233 -550h647q37 0 64 -27t27 -66q0 -37 -27 -63.5t-64 -26.5h-706q-29 0 -51.5 15.5 t-32.5 40.5l-162 381h-743l-162 -381q-10 -25 -32.5 -40.5t-51.5 -15.5q-37 0 -63.5 27t-26.5 63zM449 588h587l-293 688z" />
<glyph unicode="&#xc7;" horiz-adv-x="1671" d="M160 786q0 168 64.5 314.5t175 254t259 169t318.5 61.5q164 0 311.5 -60.5t264.5 -176.5q29 -29 28.5 -66t-28.5 -63q-27 -27 -64 -27t-63 27q-92 92 -207 139t-242 47q-133 0 -248.5 -48t-201.5 -131t-135.5 -195.5t-49.5 -244.5q0 -131 50.5 -246.5t136.5 -201.5 t201.5 -136t246.5 -50q127 0 241.5 47t207.5 137q27 29 63.5 29t63.5 -29q29 -27 28.5 -63.5t-28.5 -63.5q-117 -117 -264.5 -178.5t-311.5 -61.5q-170 0 -318.5 64.5t-259 175t-175 259t-64.5 318.5zM829 -264q0 39 29.5 49t60.5 10q18 0 36.5 -1t37.5 -1q16 0 35.5 2 t19.5 25q0 16 -18.5 18t-30.5 2q-18 0 -35.5 -3t-36.5 -3q-27 0 -44 14.5t-17 42.5q0 16 8 41t18 50q10 23 22.5 50t31.5 68v-6q18 18 45 19q27 0 44 -17.5t17 -44.5q0 -16 -13 -47t-22 -47q53 -4 94.5 -31.5t41.5 -93.5q0 -59 -24 -91t-58.5 -46t-78.5 -17.5t-83 -3.5 q-27 0 -53.5 10.5t-26.5 51.5z" />
<glyph unicode="&#xc8;" horiz-adv-x="1138" d="M209 59v4v5v1427q0 37 26.5 63.5t65.5 26.5h705q39 0 65.5 -26.5t26.5 -63.5q0 -39 -26.5 -64.5t-65.5 -25.5h-615v-522h518q37 0 64 -26t27 -64q0 -37 -27 -64t-64 -27h-518v-550h615q39 0 65.5 -27t26.5 -66q0 -37 -26.5 -63.5t-65.5 -26.5h-705q-39 0 -65.5 27 t-26.5 63zM402 1902q0 37 26.5 63.5t63.5 26.5t63 -26l185 -185q27 -25 26 -63q0 -37 -26.5 -63.5t-63.5 -26.5q-39 0 -63 26l-185 185q-27 27 -26 63z" />
<glyph unicode="&#xc9;" horiz-adv-x="1138" d="M209 59v4v5v1427q0 37 26.5 63.5t65.5 26.5h705q39 0 65.5 -26.5t26.5 -63.5q0 -39 -26.5 -64.5t-65.5 -25.5h-615v-522h518q37 0 64 -26t27 -64q0 -37 -27 -64t-64 -27h-518v-550h615q39 0 65.5 -27t26.5 -66q0 -37 -26.5 -63.5t-65.5 -26.5h-705q-39 0 -65.5 27 t-26.5 63zM539 1718q0 -37 26.5 -63.5t63.5 -26.5q39 0 63 26l185 185q27 27 26 63q0 37 -26.5 63.5t-63.5 26.5t-63 -26l-185 -185q-27 -25 -26 -63z" />
<glyph unicode="&#xca;" horiz-adv-x="1138" d="M209 59v4v5v1427q0 37 26.5 63.5t65.5 26.5h705q39 0 65.5 -26.5t26.5 -63.5q0 -39 -26.5 -64.5t-65.5 -25.5h-615v-522h518q37 0 64 -26t27 -64q0 -37 -27 -64t-64 -27h-518v-550h615q39 0 65.5 -27t26.5 -66q0 -37 -26.5 -63.5t-65.5 -26.5h-705q-39 0 -65.5 27 t-26.5 63zM400 1757q0 35 24 60l193 196q20 25 57 25q35 0 60 -25l192 -196q23 -27 23 -60q0 -35 -23.5 -59.5t-58.5 -24.5t-60 25l-133 137l-133 -137q-25 -25 -59 -25q-35 0 -58.5 24.5t-23.5 59.5z" />
<glyph unicode="&#xcb;" horiz-adv-x="1138" d="M209 59v4v5v1427q0 37 26.5 63.5t65.5 26.5h705q39 0 65.5 -26.5t26.5 -63.5q0 -39 -26.5 -64.5t-65.5 -25.5h-615v-522h518q37 0 64 -26t27 -64q0 -37 -27 -64t-64 -27h-518v-550h615q39 0 65.5 -27t26.5 -66q0 -37 -26.5 -63.5t-65.5 -26.5h-705q-39 0 -65.5 27 t-26.5 63zM397 1819q0 51 34.5 85.5t86.5 34.5q51 0 85.5 -34.5t34.5 -85.5q0 -49 -35.5 -85t-84.5 -36t-85 35.5t-36 85.5zM745 1819q0 51 35 85.5t86 34.5t86 -34.5t35 -85.5q0 -49 -36 -85t-85 -36t-85 35.5t-36 85.5z" />
<glyph unicode="&#xcc;" horiz-adv-x="503" d="M-8 1902q0 37 26.5 63.5t63.5 26.5t63 -26l185 -185q27 -25 26 -63q0 -37 -26.5 -63.5t-63.5 -26.5q-39 0 -63 26l-185 185q-27 27 -26 63zM188 59v1436q0 37 26.5 63.5t65.5 26.5q37 0 63.5 -26.5t26.5 -63.5v-1436q0 -37 -26.5 -63.5t-63.5 -26.5q-39 0 -65.5 27 t-26.5 63z" />
<glyph unicode="&#xcd;" horiz-adv-x="503" d="M168 1718q0 -37 26.5 -63.5t63.5 -26.5q39 0 63 26l185 185q27 27 26 63q0 37 -26.5 63.5t-63.5 26.5t-63 -26l-185 -185q-27 -25 -26 -63zM209 59v1436q0 37 26.5 63.5t65.5 26.5q37 0 63.5 -26.5t26.5 -63.5v-1436q0 -37 -26.5 -63.5t-63.5 -26.5q-39 0 -65.5 27 t-26.5 63z" />
<glyph unicode="&#xce;" horiz-adv-x="485" d="M-10 1757q0 35 24 60l193 196q20 25 57 25q35 0 60 -25l192 -196q23 -27 23 -60q0 -35 -23.5 -59.5t-58.5 -24.5t-60 25l-133 137l-133 -137q-25 -25 -59 -25q-35 0 -58.5 24.5t-23.5 59.5zM188 59v1436q0 37 26.5 63.5t65.5 26.5q37 0 63.5 -26.5t26.5 -63.5v-1436 q0 -37 -26.5 -63.5t-63.5 -26.5q-39 0 -65.5 27t-26.5 63z" />
<glyph unicode="&#xcf;" horiz-adv-x="481" d="M-33 1819q0 51 34.5 85.5t86.5 34.5q51 0 85.5 -34.5t34.5 -85.5q0 -49 -35.5 -85t-84.5 -36t-85 35.5t-36 85.5zM186 59v1436q0 37 26.5 63.5t65.5 26.5q37 0 63.5 -26.5t26.5 -63.5v-1436q0 -37 -26.5 -63.5t-63.5 -26.5q-39 0 -65.5 27t-26.5 63zM315 1819 q0 51 35 85.5t86 34.5t86 -34.5t35 -85.5q0 -49 -36 -85t-85 -36t-85 35.5t-36 85.5z" />
<glyph unicode="&#xd0;" horiz-adv-x="1605" d="M35 784q0 37 26.5 63.5t63.5 26.5h51v621q0 37 26.5 63.5t65.5 26.5h494q162 0 295 -69.5t227 -182t145.5 -256t51.5 -291.5q0 -182 -62.5 -332.5t-164 -258t-230.5 -167t-260 -59.5h-504q-25 0 -47.5 14.5t-32.5 36.5q-18 33 -4 74v598h-51q-37 0 -63.5 26.5t-26.5 65.5 zM358 150h406q117 0 214 56t169 146t111.5 205t39.5 229q0 117 -38.5 228.5t-109.5 198.5t-170 139.5t-218 52.5h-404v-531h486q37 0 63.5 -26.5t26.5 -63.5q0 -39 -26.5 -65.5t-63.5 -26.5h-486v-542z" />
<glyph unicode="&#xd1;" horiz-adv-x="1427" d="M209 59v1436q0 37 26.5 63.5t63.5 26.5q51 0 78 -41l739 -1171v1122q0 37 25.5 63.5t64.5 26.5q37 0 63.5 -26.5t26.5 -63.5v-1436q0 -37 -26.5 -63.5t-63.5 -26.5q-51 0 -77 43l-740 1172v-1125q0 -37 -25.5 -63.5t-64.5 -26.5q-37 0 -63.5 27t-26.5 63zM447 1805 q0 23 12 45q31 49 80 85t108 36q39 0 76 -14.5t71 -32t62.5 -32t50.5 -14.5q14 0 24.5 10.5t22 21.5t25.5 21.5t39 10.5q35 0 61.5 -24.5t26.5 -59.5q0 -29 -19.5 -56.5t-49 -48t-62 -33t-59.5 -12.5q-39 0 -77 14.5t-73 32t-63.5 32t-49.5 14.5q-14 0 -24 -12.5t-22.5 -28 t-30 -27.5t-41.5 -12q-35 0 -61.5 24.5t-26.5 59.5z" />
<glyph unicode="&#xd2;" horiz-adv-x="1867" d="M145 778q0 166 63.5 313.5t173 257t257 173t315.5 63.5q166 0 313.5 -63.5t257 -173t173 -257t63.5 -313.5q0 -168 -63.5 -315.5t-173 -257t-257 -173t-313.5 -63.5q-168 0 -315.5 63.5t-257 173t-173 257t-63.5 315.5zM325 778q0 -129 49 -243.5t135 -200.5t201 -135 t244 -49t243.5 49t199.5 135t134.5 200.5t49.5 243.5t-49.5 244t-134.5 200t-199.5 134t-243.5 49t-244 -49t-201 -134t-135 -200t-49 -244zM674 1902q0 37 26.5 63.5t63.5 26.5t63 -26l185 -185q27 -25 26 -63q0 -37 -26.5 -63.5t-63.5 -26.5q-39 0 -63 26l-185 185 q-27 27 -26 63z" />
<glyph unicode="&#xd3;" horiz-adv-x="1867" d="M145 778q0 166 63.5 313.5t173 257t257 173t315.5 63.5q166 0 313.5 -63.5t257 -173t173 -257t63.5 -313.5q0 -168 -63.5 -315.5t-173 -257t-257 -173t-313.5 -63.5q-168 0 -315.5 63.5t-257 173t-173 257t-63.5 315.5zM325 778q0 -129 49 -243.5t135 -200.5t201 -135 t244 -49t243.5 49t199.5 135t134.5 200.5t49.5 243.5t-49.5 244t-134.5 200t-199.5 134t-243.5 49t-244 -49t-201 -134t-135 -200t-49 -244zM842 1718q0 -37 26.5 -63.5t63.5 -26.5q39 0 63 26l185 185q27 27 26 63q0 37 -26.5 63.5t-63.5 26.5t-63 -26l-185 -185 q-27 -25 -26 -63z" />
<glyph unicode="&#xd4;" horiz-adv-x="1867" d="M145 778q0 166 63.5 313.5t173 257t257 173t315.5 63.5q166 0 313.5 -63.5t257 -173t173 -257t63.5 -313.5q0 -168 -63.5 -315.5t-173 -257t-257 -173t-313.5 -63.5q-168 0 -315.5 63.5t-257 173t-173 257t-63.5 315.5zM325 778q0 -129 49 -243.5t135 -200.5t201 -135 t244 -49t243.5 49t199.5 135t134.5 200.5t49.5 243.5t-49.5 244t-134.5 200t-199.5 134t-243.5 49t-244 -49t-201 -134t-135 -200t-49 -244zM680 1757q0 35 24 60l193 196q20 25 57 25q35 0 60 -25l192 -196q23 -27 23 -60q0 -35 -23.5 -59.5t-58.5 -24.5t-60 25l-133 137 l-133 -137q-25 -25 -59 -25q-35 0 -58.5 24.5t-23.5 59.5z" />
<glyph unicode="&#xd5;" horiz-adv-x="1867" d="M145 778q0 166 63.5 313.5t173 257t257 173t315.5 63.5q166 0 313.5 -63.5t257 -173t173 -257t63.5 -313.5q0 -168 -63.5 -315.5t-173 -257t-257 -173t-313.5 -63.5q-168 0 -315.5 63.5t-257 173t-173 257t-63.5 315.5zM325 778q0 -129 49 -243.5t135 -200.5t201 -135 t244 -49t243.5 49t199.5 135t134.5 200.5t49.5 243.5t-49.5 244t-134.5 200t-199.5 134t-243.5 49t-244 -49t-201 -134t-135 -200t-49 -244zM605 1805q0 23 12 45q31 49 80 85t108 36q39 0 76 -14.5t71 -32t62.5 -32t50.5 -14.5q14 0 24.5 10.5t22 21.5t25.5 21.5t39 10.5 q35 0 61.5 -24.5t26.5 -59.5q0 -29 -19.5 -56.5t-49 -48t-62 -33t-59.5 -12.5q-39 0 -77 14.5t-73 32t-63.5 32t-49.5 14.5q-14 0 -24 -12.5t-22.5 -28t-30 -27.5t-41.5 -12q-35 0 -61.5 24.5t-26.5 59.5z" />
<glyph unicode="&#xd6;" horiz-adv-x="1867" d="M160 778q0 166 63.5 313.5t173 257t257 173t315.5 63.5q166 0 313.5 -63.5t257 -173t173 -257t63.5 -313.5q0 -168 -63.5 -315.5t-173 -257t-257 -173t-313.5 -63.5q-168 0 -315.5 63.5t-257 173t-173 257t-63.5 315.5zM340 778q0 -129 49 -243.5t135 -200.5t201 -135 t244 -49t243.5 49t199.5 135t134.5 200.5t49.5 243.5t-49.5 244t-134.5 200t-199.5 134t-243.5 49t-244 -49t-201 -134t-135 -200t-49 -244zM660 1819q0 51 34.5 85.5t86.5 34.5q51 0 85.5 -34.5t34.5 -85.5q0 -49 -35.5 -85t-84.5 -36t-85 35.5t-36 85.5zM1008 1819 q0 51 35 85.5t86 34.5t86 -34.5t35 -85.5q0 -49 -36 -85t-85 -36t-85 35.5t-36 85.5z" />
<glyph unicode="&#xd7;" horiz-adv-x="1130" d="M34.5 59.5q0.5 36.5 26.5 65.5l375 375l-375 374q-27 29 -26.5 66t26.5 64q27 29 64 28.5t65 -28.5l375 -375l377 375q27 29 63.5 28.5t63.5 -28.5q29 -27 29 -64t-29 -66l-375 -374l375 -375q29 -29 29 -65.5t-29 -63.5q-24 -27 -63 -27t-64 27l-377 375l-375 -375 q-27 -27 -65 -27q-37 0 -64 27t-26.5 63.5z" />
<glyph unicode="&#xd8;" horiz-adv-x="1867" d="M125 778q0 166 63.5 313.5t173 257t257 173t315.5 63.5q115 0 223 -31l82 203q14 35 48 49.5t69 -0.5q35 -14 50 -49t1 -69l-82 -203q92 -53 169 -127t132 -165t85 -196.5t30 -218.5q0 -168 -63.5 -315.5t-173 -257t-257 -173t-313.5 -63.5q-111 0 -205 27l-90 -223 q-10 -27 -33.5 -42.5t-50.5 -15.5q-47 0 -74.5 39t-9.5 86l88 221q-96 51 -176 126t-137.5 167t-89 200t-31.5 224zM305 778q0 -178 89 -322.5t233 -226.5l463 1155q-37 10 -76 15.5t-80 5.5q-129 0 -244 -49t-201 -134t-135 -200t-49 -244zM797 166q70 -16 137 -16 q129 0 243.5 49t199.5 135t134.5 200.5t49.5 243.5q0 172 -83.5 312.5t-220.5 224.5z" />
<glyph unicode="&#xd9;" horiz-adv-x="1587" d="M209 592v903q0 37 26.5 63.5t65.5 26.5q37 0 63.5 -26.5t26.5 -63.5v-903q0 -92 35 -172t94.5 -139.5t140 -94t171.5 -34.5q92 0 171.5 34.5t140 94t95.5 140.5t35 171v903q0 37 26.5 63.5t63.5 26.5q39 0 65.5 -26.5t26.5 -63.5v-903q0 -129 -49 -242.5t-134 -197.5 t-198.5 -133.5t-242.5 -49.5t-242 49.5t-198 133.5t-134 197.5t-49 242.5zM588 1902q0 37 26.5 63.5t63.5 26.5t63 -26l185 -185q27 -25 26 -63q0 -37 -26.5 -63.5t-63.5 -26.5q-39 0 -63 26l-185 185q-27 27 -26 63z" />
<glyph unicode="&#xda;" horiz-adv-x="1587" d="M209 592v903q0 37 26.5 63.5t65.5 26.5q37 0 63.5 -26.5t26.5 -63.5v-903q0 -92 35 -172t94.5 -139.5t140 -94t171.5 -34.5q92 0 171.5 34.5t140 94t95.5 140.5t35 171v903q0 37 26.5 63.5t63.5 26.5q39 0 65.5 -26.5t26.5 -63.5v-903q0 -129 -49 -242.5t-134 -197.5 t-198.5 -133.5t-242.5 -49.5t-242 49.5t-198 133.5t-134 197.5t-49 242.5zM662 1718q0 -37 26.5 -63.5t63.5 -26.5q39 0 63 26l185 185q27 27 26 63q0 37 -26.5 63.5t-63.5 26.5t-63 -26l-185 -185q-27 -25 -26 -63z" />
<glyph unicode="&#xdb;" horiz-adv-x="1587" d="M209 592v903q0 37 26.5 63.5t65.5 26.5q37 0 63.5 -26.5t26.5 -63.5v-903q0 -92 35 -172t94.5 -139.5t140 -94t171.5 -34.5q92 0 171.5 34.5t140 94t95.5 140.5t35 171v903q0 37 26.5 63.5t63.5 26.5q39 0 65.5 -26.5t26.5 -63.5v-903q0 -129 -49 -242.5t-134 -197.5 t-198.5 -133.5t-242.5 -49.5t-242 49.5t-198 133.5t-134 197.5t-49 242.5zM539 1757q0 35 24 60l193 196q20 25 57 25q35 0 60 -25l192 -196q23 -27 23 -60q0 -35 -23.5 -59.5t-58.5 -24.5t-60 25l-133 137l-133 -137q-25 -25 -59 -25q-35 0 -58.5 24.5t-23.5 59.5z" />
<glyph unicode="&#xdc;" horiz-adv-x="1587" d="M209 592v903q0 37 26.5 63.5t65.5 26.5q37 0 63.5 -26.5t26.5 -63.5v-903q0 -92 35 -172t94.5 -139.5t140 -94t171.5 -34.5q92 0 171.5 34.5t140 94t95.5 140.5t35 171v903q0 37 26.5 63.5t63.5 26.5q39 0 65.5 -26.5t26.5 -63.5v-903q0 -129 -49 -242.5t-134 -197.5 t-198.5 -133.5t-242.5 -49.5t-242 49.5t-198 133.5t-134 197.5t-49 242.5zM518 1819q0 51 34.5 85.5t86.5 34.5q51 0 85.5 -34.5t34.5 -85.5q0 -49 -35.5 -85t-84.5 -36t-85 35.5t-36 85.5zM866 1819q0 51 35 85.5t86 34.5t86 -34.5t35 -85.5q0 -49 -36 -85t-85 -36 t-85 35.5t-36 85.5z" />
<glyph unicode="&#xdd;" horiz-adv-x="1159" d="M32 1495q0 37 27 63.5t63 26.5q25 0 46.5 -12t33.5 -33l398 -711l397 711q12 20 33.5 32.5t46.5 12.5q37 0 63.5 -26.5t26.5 -63.5q0 -25 -12 -45l-465 -832v-559q0 -37 -27 -63.5t-63 -26.5q-37 0 -64 27t-27 63v559l-464 832q-12 20 -13 45zM437 1718q0 -37 26.5 -63.5 t63.5 -26.5q39 0 63 26l185 185q27 27 26 63q0 37 -26.5 63.5t-63.5 26.5t-63 -26l-185 -185q-27 -25 -26 -63z" />
<glyph unicode="&#xde;" horiz-adv-x="1112" d="M170 59v1436q0 37 26.5 63.5t65.5 26.5q37 0 63.5 -26.5t26.5 -63.5v-123h271q94 0 177 -36t144.5 -97t97 -143t35.5 -176t-35.5 -176t-97 -143.5t-144.5 -97.5t-177 -36h-271v-408q0 -37 -26.5 -63.5t-63.5 -26.5q-39 0 -65.5 27t-26.5 63zM352 647h271q55 0 105 21.5 t87 58.5t58.5 87t21.5 106q0 55 -21.5 104t-58.5 86t-87 58.5t-105 21.5h-271v-543z" />
<glyph unicode="&#xdf;" horiz-adv-x="1155" d="M170 59v1162q0 78 29.5 147.5t81 120.5t121 80.5t147.5 29.5t147.5 -29.5t120.5 -80.5t81 -121t30 -147q0 -78 -30 -146.5t-83 -122.5q121 -72 190.5 -192.5t69.5 -261.5q0 -109 -41 -205t-112.5 -168t-167.5 -113t-205 -41q-37 0 -63.5 27t-26.5 63q0 39 26.5 66 t63.5 27q72 0 134 26.5t109.5 73.5t74 109.5t26.5 134.5t-26.5 134t-74 109t-109.5 74t-134 27q-37 0 -63.5 26.5t-26.5 63.5q0 39 26.5 65.5t63.5 26.5q82 0 139 57.5t57 139.5t-57 139t-139 57t-139.5 -57t-57.5 -139v-1162q0 -37 -26.5 -63.5t-63.5 -26.5q-39 0 -65.5 27 t-26.5 63z" />
<glyph unicode="&#xe0;" d="M109 496q0 109 42 205t113.5 167.5t168 113.5t204.5 42q96 0 184.5 -34t159.5 -95v39q0 37 27 63.5t65 26.5q37 0 64 -26.5t27 -63.5v-875q0 -37 -27 -63.5t-64 -26.5q-39 0 -65.5 27t-26.5 63v39q-72 -61 -159.5 -95t-184.5 -34q-109 0 -205 42t-167.5 114t-113.5 167 t-42 204zM291 496q0 -72 27.5 -134.5t75 -109.5t110 -73.5t133.5 -26.5q72 0 134.5 26.5t109.5 73.5t73.5 109.5t26.5 134.5t-26.5 134t-73.5 109t-109.5 75t-134.5 28t-134 -28t-109.5 -75t-75 -109.5t-27.5 -133.5zM352 1437q0 37 26.5 63.5t63.5 26.5t63 -26l185 -185 q27 -25 26 -63q0 -37 -26.5 -63.5t-63.5 -26.5q-39 0 -63 26l-185 185q-27 27 -26 63z" />
<glyph unicode="&#xe1;" d="M109 496q0 109 42 205t113.5 167.5t168 113.5t204.5 42q96 0 184.5 -34t159.5 -95v39q0 37 27 63.5t65 26.5q37 0 64 -26.5t27 -63.5v-875q0 -37 -27 -63.5t-64 -26.5q-39 0 -65.5 27t-26.5 63v39q-72 -61 -159.5 -95t-184.5 -34q-109 0 -205 42t-167.5 114t-113.5 167 t-42 204zM291 496q0 -72 27.5 -134.5t75 -109.5t110 -73.5t133.5 -26.5q72 0 134.5 26.5t109.5 73.5t73.5 109.5t26.5 134.5t-26.5 134t-73.5 109t-109.5 75t-134.5 28t-134 -28t-109.5 -75t-75 -109.5t-27.5 -133.5zM490 1253q0 -37 26.5 -63.5t63.5 -26.5q39 0 63 26 l185 185q27 27 26 63q0 37 -26.5 63.5t-63.5 26.5t-63 -26l-185 -185q-27 -25 -26 -63z" />
<glyph unicode="&#xe2;" d="M109 496q0 109 42 205t113.5 167.5t168 113.5t204.5 42q96 0 184.5 -34t159.5 -95v39q0 37 27 63.5t65 26.5q37 0 64 -26.5t27 -63.5v-875q0 -37 -27 -63.5t-64 -26.5q-39 0 -65.5 27t-26.5 63v39q-72 -61 -159.5 -95t-184.5 -34q-109 0 -205 42t-167.5 114t-113.5 167 t-42 204zM291 496q0 -72 27.5 -134.5t75 -109.5t110 -73.5t133.5 -26.5q72 0 134.5 26.5t109.5 73.5t73.5 109.5t26.5 134.5t-26.5 134t-73.5 109t-109.5 75t-134.5 28t-134 -28t-109.5 -75t-75 -109.5t-27.5 -133.5zM357 1233q0 35 24 60l193 196q20 25 57 25q35 0 60 -25 l192 -196q23 -27 23 -60q0 -35 -23.5 -59.5t-58.5 -24.5t-60 25l-133 137l-133 -137q-25 -25 -59 -25q-35 0 -58.5 24.5t-23.5 59.5z" />
<glyph unicode="&#xe3;" d="M80 496q0 109 42 205t113.5 167.5t168 113.5t204.5 42q96 0 184.5 -34t159.5 -95v39q0 37 27 63.5t65 26.5q37 0 64 -26.5t27 -63.5v-875q0 -37 -27 -63.5t-64 -26.5q-39 0 -65.5 27t-26.5 63v39q-72 -61 -159.5 -95t-184.5 -34q-109 0 -205 42t-167.5 114t-113.5 167 t-42 204zM260 1295q0 23 12 45q31 49 80 85t108 36q39 0 76 -14.5t71 -32t62.5 -32t50.5 -14.5q14 0 24.5 10.5t22 21.5t25.5 21.5t39 10.5q35 0 61.5 -24.5t26.5 -59.5q0 -29 -19.5 -56.5t-49 -48t-62 -33t-59.5 -12.5q-39 0 -77 14.5t-73 32t-63.5 32t-49.5 14.5 q-14 0 -24 -12.5t-22.5 -28t-30 -27.5t-41.5 -12q-35 0 -61.5 24.5t-26.5 59.5zM262 496q0 -72 27.5 -134.5t75 -109.5t110 -73.5t133.5 -26.5q72 0 134.5 26.5t109.5 73.5t73.5 109.5t26.5 134.5t-26.5 134t-73.5 109t-109.5 75t-134.5 28t-134 -28t-109.5 -75t-75 -109.5 t-27.5 -133.5z" />
<glyph unicode="&#xe4;" d="M109 496q0 109 42 205t113.5 167.5t168 113.5t204.5 42q96 0 184.5 -34t159.5 -95v39q0 37 27 63.5t65 26.5q37 0 64 -26.5t27 -63.5v-875q0 -37 -27 -63.5t-64 -26.5q-39 0 -65.5 27t-26.5 63v39q-72 -61 -159.5 -95t-184.5 -34q-109 0 -205 42t-167.5 114t-113.5 167 t-42 204zM291 496q0 -72 27.5 -134.5t75 -109.5t110 -73.5t133.5 -26.5q72 0 134.5 26.5t109.5 73.5t73.5 109.5t26.5 134.5t-26.5 134t-73.5 109t-109.5 75t-134.5 28t-134 -28t-109.5 -75t-75 -109.5t-27.5 -133.5zM342 1346q0 51 34.5 85.5t86.5 34.5q51 0 85.5 -34.5 t34.5 -85.5q0 -49 -35.5 -85t-84.5 -36t-85 35.5t-36 85.5zM690 1346q0 51 35 85.5t86 34.5t86 -34.5t35 -85.5q0 -49 -36 -85t-85 -36t-85 35.5t-36 85.5z" />
<glyph unicode="&#xe5;" d="M109 496q0 109 42 205t113.5 167.5t168 113.5t204.5 42q96 0 184.5 -34t159.5 -95v39q0 37 27 63.5t65 26.5q37 0 64 -26.5t27 -63.5v-875q0 -37 -27 -63.5t-64 -26.5q-39 0 -65.5 27t-26.5 63v39q-72 -61 -159.5 -95t-184.5 -34q-109 0 -205 42t-167.5 114t-113.5 167 t-42 204zM291 496q0 -72 27.5 -134.5t75 -109.5t110 -73.5t133.5 -26.5q72 0 134.5 26.5t109.5 73.5t73.5 109.5t26.5 134.5t-26.5 134t-73.5 109t-109.5 75t-134.5 28t-134 -28t-109.5 -75t-75 -109.5t-27.5 -133.5zM393 1352q0 49 18.5 92t50 74.5t74.5 50t92 18.5 t91 -18.5t74 -50t50.5 -74.5t18.5 -92t-18.5 -91t-50.5 -74t-74 -50.5t-91 -18.5t-92 18.5t-74.5 50.5t-50 74t-18.5 91zM542 1352q0 -35 26 -59.5t60 -24.5q35 0 59.5 24.5t24.5 59.5t-24.5 60.5t-59.5 25.5t-60.5 -25.5t-25.5 -60.5z" />
<glyph unicode="&#xe6;" horiz-adv-x="1957" d="M80 299q0 68 26.5 128t70.5 105.5t104.5 72t128.5 26.5h389q-41 94 -128 152.5t-192 58.5q-41 0 -71.5 -6.5t-58 -19.5t-55.5 -32.5t-61 -44.5q-12 -10 -26 -17t-37 -7q-37 0 -63.5 26.5t-26.5 63.5q0 20 7 35.5t17 27.5q33 37 78 67t95.5 49.5t102.5 29.5t99 10 q133 0 249 -61.5t187 -169.5q74 109 190 170t247 61q104 0 198.5 -35t165 -99.5t113.5 -153.5t49 -195q2 -41 -25.5 -66.5t-66.5 -25.5h-776q8 -63 38.5 -118t76.5 -94.5t103.5 -62t123.5 -22.5q41 0 72.5 6t59 19t55.5 32.5t60 44.5q12 10 25.5 17.5t36.5 7.5 q37 0 63.5 -27t26.5 -64q0 -35 -25 -63q-33 -37 -76.5 -66.5t-95 -49t-103.5 -30t-99 -10.5q-98 0 -196.5 38t-168.5 114v-58q0 -37 -24.5 -65.5t-67.5 -28.5h-485q-68 0 -128.5 27t-104.5 71t-70.5 104t-26.5 128zM262 299q0 -61 44 -104t104 -43h415v297h-415 q-59 0 -103.5 -44.5t-44.5 -105.5zM1034 631h637q-41 96 -127 153.5t-192 57.5q-104 0 -190.5 -58.5t-127.5 -152.5z" />
<glyph unicode="&#xe7;" horiz-adv-x="1042" d="M109 496q0 109 42 205t113.5 167.5t168 113.5t204.5 42q49 0 100.5 -10t100.5 -29.5t93 -49.5t79 -67q10 -12 18.5 -27.5t8.5 -35.5q0 -37 -27 -63.5t-66 -26.5q-20 0 -34.5 7t-26.5 17q-59 51 -114.5 77t-131.5 26q-72 0 -134 -28t-109.5 -75t-75 -109.5t-27.5 -133.5 q0 -72 27.5 -134.5t75 -109.5t110 -73.5t133.5 -26.5q76 0 131.5 25.5t114.5 76.5q12 10 26.5 17.5t34.5 7.5q39 0 66 -27t27 -64q0 -20 -8.5 -35.5t-18.5 -27.5q-35 -37 -79 -66.5t-93 -49t-100.5 -30t-100.5 -10.5q-109 0 -205 42t-167.5 114t-113.5 167t-42 204z M485 -264q0 39 29.5 49t60.5 10q18 0 36.5 -1t37.5 -1q16 0 35.5 2t19.5 25q0 16 -18.5 18t-30.5 2q-18 0 -35.5 -3t-36.5 -3q-27 0 -44 14.5t-17 42.5q0 16 8 41t18 50q10 23 22.5 50t31.5 68v-6q18 18 45 19q27 0 44 -17.5t17 -44.5q0 -16 -13 -47t-22 -47 q53 -4 94.5 -31.5t41.5 -93.5q0 -59 -24 -91t-58.5 -46t-78.5 -17.5t-83 -3.5q-27 0 -53.5 10.5t-26.5 51.5z" />
<glyph unicode="&#xe8;" horiz-adv-x="1212" d="M109 496q0 109 42 205t113.5 167.5t168 113.5t204.5 42q104 0 196.5 -35t164 -99.5t114.5 -153.5t50 -195q2 -41 -26 -66.5t-65 -25.5h-776q8 -63 38 -118t76 -94.5t104.5 -62t123.5 -22.5q39 0 71 6t59.5 19t55 32.5t60.5 44.5q12 10 25.5 17.5t35.5 7.5q39 0 66 -27 t27 -64q0 -23 -8.5 -37t-18.5 -26q-33 -37 -77 -66.5t-94 -49t-102.5 -30t-99.5 -10.5q-109 0 -205 42t-167.5 114t-113.5 167t-42 204zM318 631h637q-39 96 -126.5 153.5t-191.5 57.5q-106 0 -192 -58.5t-127 -152.5zM346 1437q0 37 26.5 63.5t63.5 26.5t63 -26l185 -185 q27 -25 26 -63q0 -37 -26.5 -63.5t-63.5 -26.5q-39 0 -63 26l-185 185q-27 27 -26 63z" />
<glyph unicode="&#xe9;" horiz-adv-x="1212" d="M109 496q0 109 42 205t113.5 167.5t168 113.5t204.5 42q104 0 196.5 -35t164 -99.5t114.5 -153.5t50 -195q2 -41 -26 -66.5t-65 -25.5h-776q8 -63 38 -118t76 -94.5t104.5 -62t123.5 -22.5q39 0 71 6t59.5 19t55 32.5t60.5 44.5q12 10 25.5 17.5t35.5 7.5q39 0 66 -27 t27 -64q0 -23 -8.5 -37t-18.5 -26q-33 -37 -77 -66.5t-94 -49t-102.5 -30t-99.5 -10.5q-109 0 -205 42t-167.5 114t-113.5 167t-42 204zM318 631h637q-39 96 -126.5 153.5t-191.5 57.5q-106 0 -192 -58.5t-127 -152.5zM482 1253q0 -37 26.5 -63.5t63.5 -26.5q39 0 63 26 l185 185q27 27 26 63q0 37 -26.5 63.5t-63.5 26.5t-63 -26l-185 -185q-27 -25 -26 -63z" />
<glyph unicode="&#xea;" horiz-adv-x="1212" d="M109 496q0 109 42 205t113.5 167.5t168 113.5t204.5 42q104 0 196.5 -35t164 -99.5t114.5 -153.5t50 -195q2 -41 -26 -66.5t-65 -25.5h-776q8 -63 38 -118t76 -94.5t104.5 -62t123.5 -22.5q39 0 71 6t59.5 19t55 32.5t60.5 44.5q12 10 25.5 17.5t35.5 7.5q39 0 66 -27 t27 -64q0 -23 -8.5 -37t-18.5 -26q-33 -37 -77 -66.5t-94 -49t-102.5 -30t-99.5 -10.5q-109 0 -205 42t-167.5 114t-113.5 167t-42 204zM318 631h637q-39 96 -126.5 153.5t-191.5 57.5q-106 0 -192 -58.5t-127 -152.5zM357 1233q0 35 24 60l193 196q20 25 57 25q35 0 60 -25 l192 -196q23 -27 23 -60q0 -35 -23.5 -59.5t-58.5 -24.5t-60 25l-133 137l-133 -137q-25 -25 -59 -25q-35 0 -58.5 24.5t-23.5 59.5z" />
<glyph unicode="&#xeb;" horiz-adv-x="1212" d="M109 496q0 109 42 205t113.5 167.5t168 113.5t204.5 42q104 0 196.5 -35t164 -99.5t114.5 -153.5t50 -195q2 -41 -26 -66.5t-65 -25.5h-776q8 -63 38 -118t76 -94.5t104.5 -62t123.5 -22.5q39 0 71 6t59.5 19t55 32.5t60.5 44.5q12 10 25.5 17.5t35.5 7.5q39 0 66 -27 t27 -64q0 -23 -8.5 -37t-18.5 -26q-33 -37 -77 -66.5t-94 -49t-102.5 -30t-99.5 -10.5q-109 0 -205 42t-167.5 114t-113.5 167t-42 204zM318 631h637q-39 96 -126.5 153.5t-191.5 57.5q-106 0 -192 -58.5t-127 -152.5zM332 1346q0 51 34.5 85.5t86.5 34.5q51 0 85.5 -34.5 t34.5 -85.5q0 -49 -35.5 -85t-84.5 -36t-85 35.5t-36 85.5zM680 1346q0 51 35 85.5t86 34.5t86 -34.5t35 -85.5q0 -49 -36 -85t-85 -36t-85 35.5t-36 85.5z" />
<glyph unicode="&#xec;" horiz-adv-x="569" d="M31 1437q0 37 26.5 63.5t63.5 26.5t63 -26l185 -185q27 -25 26 -63q0 -37 -26.5 -63.5t-63.5 -26.5q-39 0 -63 26l-185 185q-27 27 -26 63zM226 59v875q0 37 26.5 63.5t65.5 26.5q37 0 63.5 -26.5t26.5 -63.5v-875q0 -37 -26.5 -63.5t-63.5 -26.5q-39 0 -65.5 27 t-26.5 63z" />
<glyph unicode="&#xed;" horiz-adv-x="569" d="M197 1253q0 -37 26.5 -63.5t63.5 -26.5q39 0 63 26l185 185q27 27 26 63q0 37 -26.5 63.5t-63.5 26.5t-63 -26l-185 -185q-27 -25 -26 -63zM244 59v875q0 37 26.5 63.5t65.5 26.5q37 0 63.5 -26.5t26.5 -63.5v-875q0 -37 -26.5 -63.5t-63.5 -26.5q-39 0 -65.5 27 t-26.5 63z" />
<glyph unicode="&#xee;" horiz-adv-x="550" d="M29 1233q0 35 24 60l193 196q20 25 57 25q35 0 60 -25l192 -196q23 -27 23 -60q0 -35 -23.5 -59.5t-58.5 -24.5t-60 25l-133 137l-133 -137q-25 -25 -59 -25q-35 0 -58.5 24.5t-23.5 59.5zM226 59v875q0 37 26.5 63.5t65.5 26.5q37 0 63.5 -26.5t26.5 -63.5v-875 q0 -37 -26.5 -63.5t-63.5 -26.5q-39 0 -65.5 27t-26.5 63z" />
<glyph unicode="&#xef;" horiz-adv-x="546" d="M0 1346q0 51 34.5 85.5t86.5 34.5q51 0 85.5 -34.5t34.5 -85.5q0 -49 -35.5 -85t-84.5 -36t-85 35.5t-36 85.5zM221 59v875q0 37 26.5 63.5t65.5 26.5q37 0 63.5 -26.5t26.5 -63.5v-875q0 -37 -26.5 -63.5t-63.5 -26.5q-39 0 -65.5 27t-26.5 63zM348 1346q0 51 35 85.5 t86 34.5t86 -34.5t35 -85.5q0 -49 -36 -85t-85 -36t-85 35.5t-36 85.5z" />
<glyph unicode="&#xf0;" d="M80 496q0 109 42 205t113.5 167.5t168 113.5t204.5 42q96 0 184.5 -34t159.5 -97v211h-467q-39 0 -65.5 25.5t-26.5 64.5t26.5 64.5t65.5 25.5h467v225q0 37 27 63.5t65 26.5q37 0 64 -26.5t27 -63.5v-225h67q39 0 64.5 -25.5t25.5 -64.5t-25.5 -64.5t-64.5 -25.5h-67 v-1045q0 -37 -27 -63.5t-64 -26.5q-39 0 -65.5 27t-26.5 63v39q-72 -61 -159.5 -95t-184.5 -34q-109 0 -205 42t-167.5 114t-113.5 167t-42 204zM262 496q0 -72 27.5 -134.5t75 -108.5t110 -73.5t133.5 -27.5q70 0 133.5 27.5t109.5 73.5t73.5 108.5t27.5 134.5t-27.5 134 t-73.5 109t-109.5 75t-133.5 28q-72 0 -134 -28t-109.5 -75t-75 -109.5t-27.5 -133.5z" />
<glyph unicode="&#xf1;" horiz-adv-x="1060" d="M209 59v887q0 39 26.5 65.5t65.5 26.5q74 1 86 -75q96 61 207 61q78 0 147.5 -29.5t122 -82t82 -122t29.5 -147.5v-584q0 -37 -26.5 -63.5t-63.5 -26.5q-39 0 -65.5 27t-26.5 63v584q0 41 -15.5 77t-43 63.5t-63.5 43t-77 15.5t-78 -15.5t-63.5 -43t-42 -63.5t-15.5 -77 q0 -6 -4 -18v-566q0 -37 -26.5 -63.5t-63.5 -26.5q-39 0 -65.5 27t-26.5 63zM240 1295q0 23 12 45q31 49 80 85t108 36q39 0 76 -14.5t71 -32t62.5 -32t50.5 -14.5q14 0 24.5 10.5t22 21.5t25.5 21.5t39 10.5q35 0 61.5 -24.5t26.5 -59.5q0 -29 -19.5 -56.5t-49 -48t-62 -33 t-59.5 -12.5q-39 0 -77 14.5t-73 32t-63.5 32t-49.5 14.5q-14 0 -24 -12.5t-22.5 -28t-30 -27.5t-41.5 -12q-35 0 -61.5 24.5t-26.5 59.5z" />
<glyph unicode="&#xf2;" horiz-adv-x="1228" d="M109 496q0 109 42 205t113.5 167.5t168 113.5t204.5 42q109 0 204 -42t167 -113.5t114 -168t42 -204.5q0 -109 -42 -204t-114 -167t-167 -114t-204 -42t-205 42t-167.5 114t-113.5 167t-42 204zM291 496q0 -72 27.5 -134.5t75 -109.5t110 -73.5t133.5 -26.5 q72 0 134.5 26.5t109.5 73.5t73.5 109.5t26.5 134.5t-27.5 134t-73.5 109t-109.5 75t-133.5 28q-72 0 -134 -28t-109.5 -75t-75 -109.5t-27.5 -133.5zM352 1437q0 37 26.5 63.5t63.5 26.5t63 -26l185 -185q27 -25 26 -63q0 -37 -26.5 -63.5t-63.5 -26.5q-39 0 -63 26 l-185 185q-27 27 -26 63z" />
<glyph unicode="&#xf3;" horiz-adv-x="1228" d="M109 496q0 109 42 205t113.5 167.5t168 113.5t204.5 42q109 0 204 -42t167 -113.5t114 -168t42 -204.5q0 -109 -42 -204t-114 -167t-167 -114t-204 -42t-205 42t-167.5 114t-113.5 167t-42 204zM291 496q0 -72 27.5 -134.5t75 -109.5t110 -73.5t133.5 -26.5 q72 0 134.5 26.5t109.5 73.5t73.5 109.5t26.5 134.5t-27.5 134t-73.5 109t-109.5 75t-133.5 28q-72 0 -134 -28t-109.5 -75t-75 -109.5t-27.5 -133.5zM490 1253q0 -37 26.5 -63.5t63.5 -26.5q39 0 63 26l185 185q27 27 26 63q0 37 -26.5 63.5t-63.5 26.5t-63 -26l-185 -185 q-27 -25 -26 -63z" />
<glyph unicode="&#xf4;" horiz-adv-x="1228" d="M109 496q0 109 42 205t113.5 167.5t168 113.5t204.5 42q109 0 204 -42t167 -113.5t114 -168t42 -204.5q0 -109 -42 -204t-114 -167t-167 -114t-204 -42t-205 42t-167.5 114t-113.5 167t-42 204zM291 496q0 -72 27.5 -134.5t75 -109.5t110 -73.5t133.5 -26.5 q72 0 134.5 26.5t109.5 73.5t73.5 109.5t26.5 134.5t-27.5 134t-73.5 109t-109.5 75t-133.5 28q-72 0 -134 -28t-109.5 -75t-75 -109.5t-27.5 -133.5zM357 1233q0 35 24 60l193 196q20 25 57 25q35 0 60 -25l192 -196q23 -27 23 -60q0 -35 -23.5 -59.5t-58.5 -24.5t-60 25 l-133 137l-133 -137q-25 -25 -59 -25q-35 0 -58.5 24.5t-23.5 59.5z" />
<glyph unicode="&#xf5;" horiz-adv-x="1228" d="M109 496q0 109 42 205t113.5 167.5t168 113.5t204.5 42q109 0 204 -42t167 -113.5t114 -168t42 -204.5q0 -109 -42 -204t-114 -167t-167 -114t-204 -42t-205 42t-167.5 114t-113.5 167t-42 204zM287 1295q0 23 12 45q31 49 80 85t108 36q39 0 76 -14.5t71 -32t62.5 -32 t50.5 -14.5q14 0 24.5 10.5t22 21.5t25.5 21.5t39 10.5q35 0 61.5 -24.5t26.5 -59.5q0 -29 -19.5 -56.5t-49 -48t-62 -33t-59.5 -12.5q-39 0 -77 14.5t-73 32t-63.5 32t-49.5 14.5q-14 0 -24 -12.5t-22.5 -28t-30 -27.5t-41.5 -12q-35 0 -61.5 24.5t-26.5 59.5zM291 496 q0 -72 27.5 -134.5t75 -109.5t110 -73.5t133.5 -26.5q72 0 134.5 26.5t109.5 73.5t73.5 109.5t26.5 134.5t-27.5 134t-73.5 109t-109.5 75t-133.5 28q-72 0 -134 -28t-109.5 -75t-75 -109.5t-27.5 -133.5z" />
<glyph unicode="&#xf6;" horiz-adv-x="1228" d="M109 496q0 109 42 205t113.5 167.5t168 113.5t204.5 42q109 0 204 -42t167 -113.5t114 -168t42 -204.5q0 -109 -42 -204t-114 -167t-167 -114t-204 -42t-205 42t-167.5 114t-113.5 167t-42 204zM291 496q0 -72 27.5 -134.5t75 -109.5t110 -73.5t133.5 -26.5 q72 0 134.5 26.5t109.5 73.5t73.5 109.5t26.5 134.5t-27.5 134t-73.5 109t-109.5 75t-133.5 28q-72 0 -134 -28t-109.5 -75t-75 -109.5t-27.5 -133.5zM340 1346q0 51 34.5 85.5t86.5 34.5q51 0 85.5 -34.5t34.5 -85.5q0 -49 -35.5 -85t-84.5 -36t-85 35.5t-36 85.5z M688 1346q0 51 35 85.5t86 34.5t86 -34.5t35 -85.5q0 -49 -36 -85t-85 -36t-85 35.5t-36 85.5z" />
<glyph unicode="&#xf7;" horiz-adv-x="1378" d="M35 498q0 37 26.5 63.5t63.5 26.5h1128q37 0 63.5 -26.5t26.5 -63.5q0 -39 -26.5 -65.5t-63.5 -26.5h-1128q-37 0 -63.5 26.5t-26.5 65.5zM588 90q0 51 35.5 85t85.5 34q51 0 85.5 -34t34.5 -85q0 -49 -34.5 -85t-85.5 -36q-49 0 -85 36t-36 85zM588 903q0 51 35.5 85 t85.5 34q51 0 85.5 -34t34.5 -85q0 -49 -34.5 -85t-85.5 -36q-49 0 -85 36t-36 85z" />
<glyph unicode="&#xf8;" horiz-adv-x="1228" d="M80 500q0 111 42 208t114.5 169.5t170 114.5t207.5 42q68 0 125 -14l43 104q14 35 49 50.5t70 -0.5q35 -14 49.5 -48t-0.5 -69l-43 -111q111 -72 176.5 -188.5t65.5 -257.5q0 -111 -42 -208t-114.5 -170t-170 -115t-208.5 -42q-27 0 -52 3t-50 7l-49 -118 q-10 -29 -32.5 -43.5t-51.5 -14.5q-47 0 -75 39t-9 86l47 117q-117 70 -189.5 190.5t-72.5 268.5zM262 500q0 -90 41 -165t109 -124l258 637q-14 4 -28 4h-28q-74 0 -137 -27.5t-111.5 -76t-76 -112t-27.5 -136.5zM584 150q10 -2 30 -3q74 0 137.5 28t111.5 76t76 111.5 t28 137.5q0 84 -36 154.5t-95 119.5z" />
<glyph unicode="&#xf9;" horiz-adv-x="1064" d="M160 381v543q0 39 26.5 65.5t65.5 26.5q37 0 63.5 -26.5t26.5 -65.5v-543q0 -47 17.5 -88t48 -72t71.5 -48t88 -17q45 0 86 17t72 48t49.5 72t18.5 88v543q0 39 26.5 65.5t63.5 26.5t63.5 -26.5t26.5 -65.5v-543q0 -84 -32 -159t-87 -130t-129 -87t-158 -32t-158.5 32 t-130 87t-87 130t-31.5 159zM295 1437q0 37 26.5 63.5t63.5 26.5t63 -26l185 -185q27 -25 26 -63q0 -37 -26.5 -63.5t-63.5 -26.5q-39 0 -63 26l-185 185q-27 27 -26 63z" />
<glyph unicode="&#xfa;" horiz-adv-x="1064" d="M160 381v543q0 39 26.5 65.5t65.5 26.5q37 0 63.5 -26.5t26.5 -65.5v-543q0 -47 17.5 -88t48 -72t71.5 -48t88 -17q45 0 86 17t72 48t49.5 72t18.5 88v543q0 39 26.5 65.5t63.5 26.5t63.5 -26.5t26.5 -65.5v-543q0 -84 -32 -159t-87 -130t-129 -87t-158 -32t-158.5 32 t-130 87t-87 130t-31.5 159zM435 1253q0 -37 26.5 -63.5t63.5 -26.5q39 0 63 26l185 185q27 27 26 63q0 37 -26.5 63.5t-63.5 26.5t-63 -26l-185 -185q-27 -25 -26 -63z" />
<glyph unicode="&#xfb;" horiz-adv-x="1064" d="M160 381v543q0 39 26.5 65.5t65.5 26.5q37 0 63.5 -26.5t26.5 -65.5v-543q0 -47 17.5 -88t48 -72t71.5 -48t88 -17q45 0 86 17t72 48t49.5 72t18.5 88v543q0 39 26.5 65.5t63.5 26.5t63.5 -26.5t26.5 -65.5v-543q0 -84 -32 -159t-87 -130t-129 -87t-158 -32t-158.5 32 t-130 87t-87 130t-31.5 159zM279 1233q0 35 24 60l193 196q20 25 57 25q35 0 60 -25l192 -196q23 -27 23 -60q0 -35 -23.5 -59.5t-58.5 -24.5t-60 25l-133 137l-133 -137q-25 -25 -59 -25q-35 0 -58.5 24.5t-23.5 59.5z" />
<glyph unicode="&#xfc;" horiz-adv-x="1064" d="M160 381v543q0 39 26.5 65.5t65.5 26.5q37 0 63.5 -26.5t26.5 -65.5v-543q0 -47 17.5 -88t48 -72t71.5 -48t88 -17q45 0 86 17t72 48t49.5 72t18.5 88v543q0 39 26.5 65.5t63.5 26.5t63.5 -26.5t26.5 -65.5v-543q0 -84 -32 -159t-87 -130t-129 -87t-158 -32t-158.5 32 t-130 87t-87 130t-31.5 159zM258 1346q0 51 34.5 85.5t86.5 34.5q51 0 85.5 -34.5t34.5 -85.5q0 -49 -35.5 -85t-84.5 -36t-85 35.5t-36 85.5zM606 1346q0 51 35 85.5t86 34.5t86 -34.5t35 -85.5q0 -49 -36 -85t-85 -36t-85 35.5t-36 85.5z" />
<glyph unicode="&#xfd;" horiz-adv-x="935" d="M55 934q0 37 26.5 63.5t63.5 26.5q29 0 52.5 -15.5t33.5 -41.5l256 -656l258 656q10 27 32.5 42t51.5 15q39 0 65.5 -26.5t26.5 -63.5q0 -21 -8 -35l-342 -848l-178 -434q-10 -27 -33 -42t-51 -15q-37 0 -63.5 26.5t-26.5 63.5q0 18 6 35l164 401l-328 813q-6 14 -6 35z M387 1253q0 -37 26.5 -63.5t63.5 -26.5q39 0 63 26l185 185q27 27 26 63q0 37 -26.5 63.5t-63.5 26.5t-63 -26l-185 -185q-27 -25 -26 -63z" />
<glyph unicode="&#xfe;" d="M170 -399v1894q0 37 26.5 63.5t65.5 26.5q37 0 63.5 -26.5t26.5 -63.5v-600q72 61 160 95t186 34q109 0 205 -42t168 -113.5t113 -167t41 -203.5q0 -109 -41 -205t-113 -168t-168 -114t-205 -42q-98 0 -186 34t-160 95v-497q0 -39 -26.5 -66t-63.5 -27q-39 0 -65.5 27 t-26.5 66zM352 498q0 -72 28 -134.5t75 -109.5t109.5 -74.5t133.5 -27.5q72 0 134.5 27.5t109.5 74.5t73.5 109.5t26.5 134.5t-26.5 134t-73.5 109t-109.5 74t-134.5 27t-134 -27t-109 -74t-75 -109.5t-28 -133.5z" />
<glyph unicode="&#xff;" horiz-adv-x="935" d="M60 934q0 37 26.5 63.5t63.5 26.5q29 0 52.5 -15.5t33.5 -41.5l256 -656l258 656q10 27 32.5 42t51.5 15q39 0 65.5 -26.5t26.5 -63.5q0 -21 -8 -35l-342 -848l-178 -434q-10 -27 -33 -42t-51 -15q-37 0 -63.5 26.5t-26.5 63.5q0 18 6 35l164 401l-328 813q-6 14 -6 35z M193 1346q0 51 34.5 85.5t86.5 34.5q51 0 85.5 -34.5t34.5 -85.5q0 -49 -35.5 -85t-84.5 -36t-85 35.5t-36 85.5zM541 1346q0 51 35 85.5t86 34.5t86 -34.5t35 -85.5q0 -49 -36 -85t-85 -36t-85 35.5t-36 85.5z" />
<glyph unicode="&#x152;" horiz-adv-x="1773" d="M80 784q0 168 63.5 315.5t173 258t257 175t315.5 66.5h117h596q39 0 64.5 -26.5t25.5 -63.5q0 -39 -26 -64.5t-64 -25.5h-615v-542h518q37 0 63.5 -27t26.5 -66q0 -37 -26.5 -63.5t-63.5 -26.5h-518v-542h615q39 0 64.5 -27t25.5 -64q0 -39 -25.5 -65.5t-64.5 -26.5h-461 h-246q-168 0 -316.5 64.5t-259 175t-175 259t-64.5 316.5zM262 784q0 -119 41 -225t113.5 -189t172 -139.5t216.5 -72.5v1253q-117 -16 -216.5 -72.5t-172 -139.5t-113.5 -189.5t-41 -225.5z" />
<glyph unicode="&#x153;" horiz-adv-x="2099" d="M80 500q0 111 42 208t114.5 169.5t170 114.5t207.5 42q135 0 253 -64.5t192 -174.5q74 106 188.5 167.5t245.5 61.5q106 0 199.5 -35t164 -98.5t113.5 -152.5t49 -197q2 -41 -25.5 -66.5t-64.5 -25.5h-778q8 -63 39 -118t77 -94.5t103 -62t123 -22.5t110 17t76 40 q18 12 32.5 23.5t27.5 21.5q14 8 29.5 16.5t33.5 8.5q37 0 63.5 -27t26.5 -64q0 -35 -24 -63q-33 -39 -77 -67.5t-95 -48t-103.5 -30t-99.5 -10.5q-131 0 -247 61.5t-189 170.5q-74 -111 -190.5 -173.5t-252.5 -62.5q-111 0 -208 42t-169.5 115t-114.5 170t-42 208zM262 500 q0 -74 27.5 -137.5t76 -111.5t112 -76t136.5 -28q74 0 137.5 28t111.5 76t76 111.5t28 137.5t-28 138t-75 111.5t-111.5 75t-138.5 27.5t-137 -27.5t-111.5 -76t-76 -112t-27.5 -136.5zM1176 631h636q-41 96 -127 153.5t-192 57.5q-104 0 -190 -58.5t-127 -152.5z" />
<glyph unicode="&#x178;" horiz-adv-x="1204" d="M55 1495q0 37 27 63.5t63 26.5q25 0 46.5 -12t33.5 -33l398 -711l397 711q12 20 33.5 32.5t46.5 12.5q37 0 63.5 -26.5t26.5 -63.5q0 -25 -12 -45l-465 -832v-559q0 -37 -27 -63.5t-63 -26.5q-37 0 -64 27t-27 63v559l-464 832q-12 20 -13 45zM328 1819q0 51 34.5 85.5 t86.5 34.5q51 0 85.5 -34.5t34.5 -85.5q0 -49 -35.5 -85t-84.5 -36t-85 35.5t-36 85.5zM676 1819q0 51 35 85.5t86 34.5t86 -34.5t35 -85.5q0 -49 -36 -85t-85 -36t-85 35.5t-36 85.5z" />
<glyph unicode="&#x2c6;" horiz-adv-x="618" d="M35 1376q0 35 24 60l193 196q20 25 57 25q35 0 60 -25l192 -196q23 -27 23 -60q0 -35 -23.5 -59.5t-58.5 -24.5t-60 25l-133 137l-133 -137q-25 -25 -59 -25q-35 0 -58.5 24.5t-23.5 59.5z" />
<glyph unicode="&#x2dc;" horiz-adv-x="1138" d="M240 1395q0 23 12 45q31 49 80 85t108 36q39 0 76 -14.5t71 -32t62.5 -32t50.5 -14.5q14 0 24.5 10.5t22 21.5t25.5 21.5t39 10.5q35 0 61.5 -24.5t26.5 -59.5q0 -29 -19.5 -56.5t-49 -48t-62 -33t-59.5 -12.5q-39 0 -77 14.5t-73 32t-63.5 32t-49.5 14.5 q-14 0 -24 -12.5t-22.5 -28t-30 -27.5t-41.5 -12q-35 0 -61.5 24.5t-26.5 59.5z" />
<glyph unicode="&#x2000;" horiz-adv-x="1019" />
<glyph unicode="&#x2001;" horiz-adv-x="2038" />
<glyph unicode="&#x2002;" horiz-adv-x="1019" />
<glyph unicode="&#x2003;" horiz-adv-x="2038" />
<glyph unicode="&#x2004;" horiz-adv-x="679" />
<glyph unicode="&#x2005;" horiz-adv-x="509" />
<glyph unicode="&#x2006;" horiz-adv-x="339" />
<glyph unicode="&#x2007;" horiz-adv-x="339" />
<glyph unicode="&#x2008;" horiz-adv-x="254" />
<glyph unicode="&#x2009;" horiz-adv-x="407" />
<glyph unicode="&#x200a;" horiz-adv-x="113" />
<glyph unicode="&#x2010;" horiz-adv-x="968" d="M35 498q0 37 26.5 63.5t63.5 26.5h719q37 0 63.5 -26.5t26.5 -63.5q0 -39 -26.5 -65.5t-63.5 -26.5h-719q-37 0 -63.5 26.5t-26.5 65.5z" />
<glyph unicode="&#x2011;" horiz-adv-x="968" d="M35 498q0 37 26.5 63.5t63.5 26.5h719q37 0 63.5 -26.5t26.5 -63.5q0 -39 -26.5 -65.5t-63.5 -26.5h-719q-37 0 -63.5 26.5t-26.5 65.5z" />
<glyph unicode="&#x2012;" horiz-adv-x="968" d="M35 498q0 37 26.5 63.5t63.5 26.5h719q37 0 63.5 -26.5t26.5 -63.5q0 -39 -26.5 -65.5t-63.5 -26.5h-719q-37 0 -63.5 26.5t-26.5 65.5z" />
<glyph unicode="&#x2013;" horiz-adv-x="968" d="M35 498q0 37 26.5 63.5t63.5 26.5h719q37 0 63.5 -26.5t26.5 -63.5q0 -39 -26.5 -65.5t-63.5 -26.5h-719q-37 0 -63.5 26.5t-26.5 65.5z" />
<glyph unicode="&#x2014;" horiz-adv-x="1771" d="M35 498q0 37 26.5 63.5t63.5 26.5h1520q39 0 64.5 -26.5t25.5 -63.5q0 -39 -25.5 -65.5t-64.5 -26.5h-1520q-37 0 -63.5 26.5t-26.5 65.5z" />
<glyph unicode="&#x2018;" horiz-adv-x="339" d="M82 1262v100q0 66 28.5 122t82.5 97q20 14 45 14q29 0 48 -19.5t19 -47.5q1 -32 -26 -55q-29 -29 -42.5 -51.5t-13.5 -59.5v-21q29 -12 45.5 -36.5t16.5 -55.5q0 -43 -30 -71.5t-71 -28.5q-51 0 -76.5 34t-25.5 79z" />
<glyph unicode="&#x2019;" horiz-adv-x="339" d="M35 1198q0 31 26 53q29 29 42.5 51.5t13.5 61.5v20q-29 10 -45.5 36t-16.5 57q0 41 30 69.5t71 28.5q51 0 76.5 -34t25.5 -79v-98q0 -66 -29 -122t-82 -97q-20 -16 -45 -17q-29 0 -48 20.5t-19 49.5z" />
<glyph unicode="&#x201a;" horiz-adv-x="339" d="M14 -188q0 25 9.5 41t23.5 28q29 27 39 46.5t10 49.5v9q-29 16 -45 42.5t-16 61.5q0 51 35.5 85t85.5 34q63 0 93 -41t30 -92v-99q0 -70 -32 -131t-87 -104q-29 -18 -58 -18q-37 0 -62.5 25.5t-25.5 62.5z" />
<glyph unicode="&#x201c;" horiz-adv-x="604" d="M82 1262v100q0 66 28.5 122t82.5 97q20 14 45 14q29 0 48 -19.5t19 -47.5q1 -32 -26 -55q-29 -29 -42.5 -51.5t-13.5 -59.5v-21q29 -12 45.5 -36.5t16.5 -55.5q0 -43 -30 -71.5t-71 -28.5q-51 0 -76.5 34t-25.5 79zM346 1262v100q0 66 28.5 122t82.5 97q25 14 45 14 q29 0 48 -19.5t19 -47.5q0 -18 -7 -31.5t-17 -23.5q-29 -29 -43.5 -51.5t-14.5 -59.5v-21q29 -12 45.5 -36.5t16.5 -55.5q0 -43 -30 -71.5t-70 -28.5q-51 0 -77 34t-26 79z" />
<glyph unicode="&#x201d;" horiz-adv-x="604" d="M35 1219q0 31 26 53q29 29 42.5 51.5t13.5 60.5v21q-29 10 -45.5 35.5t-16.5 56.5q0 41 30 69.5t71 28.5q51 0 76.5 -33.5t25.5 -78.5v-99q0 -66 -29 -122t-82 -97q-20 -16 -45 -16q-29 0 -48 20.5t-19 49.5zM299 1219q0 31 27 53q29 29 43 51.5t14 60.5v21 q-29 10 -45 35.5t-16 56.5q0 41 28.5 69.5t71.5 28.5q51 0 75.5 -33.5t24.5 -78.5v-99q0 -66 -28.5 -122t-81.5 -97q-20 -16 -43 -16q-29 0 -49.5 20.5t-20.5 49.5z" />
<glyph unicode="&#x201e;" horiz-adv-x="604" d="M14 -193q0 23 9.5 39.5t23.5 30.5q29 27 39 45.5t10 50.5v7q-29 16 -45 43.5t-16 60.5q0 53 35.5 87t85.5 34q63 0 93 -41t30 -92v-99q0 -72 -32 -132t-87 -103q-27 -20 -58 -21q-37 0 -62.5 26t-25.5 64zM299 -193q0 23 9 39.5t24 30.5q29 27 40 45.5t11 50.5v7 q-61 35 -61 104q0 53 34.5 87t85.5 34q61 0 91 -41t30 -92v-99q0 -72 -31 -132t-88 -103q-27 -20 -55 -21q-39 0 -64.5 26t-25.5 64z" />
<glyph unicode="&#x2022;" horiz-adv-x="503" d="M92 498q0 68 46 112.5t114 44.5q66 0 113 -44.5t47 -112.5q0 -66 -47.5 -113t-112.5 -47q-66 0 -113 47t-47 113z" />
<glyph unicode="&#x2026;" horiz-adv-x="1298" d="M170 90q0 51 36 85t85 34q51 0 86 -34t35 -85q0 -49 -35 -85t-86 -36q-49 0 -85 36t-36 85zM518 90q0 51 36 85t85 34q51 0 86 -34t35 -85q0 -49 -35 -85t-86 -36q-49 0 -85 36t-36 85zM887 90q0 51 35.5 85t85.5 34q51 0 85.5 -34t34.5 -85q0 -49 -34.5 -85t-85.5 -36 q-49 0 -85 36t-36 85z" />
<glyph unicode="&#x202f;" horiz-adv-x="407" />
<glyph unicode="&#x2039;" horiz-adv-x="1034" d="M90 498q0 49 43 75l692 437q31 20 68 12t57 -41q20 -31 12 -67.5t-40 -57.5l-570 -358l570 -361q33 -20 41 -56t-13 -69q-31 -43 -78 -43q-27 0 -47 15l-692 436q-43 27 -43 78z" />
<glyph unicode="&#x203a;" horiz-adv-x="1034" d="M82 81q8 36 41 56l569 361l-569 358q-33 20 -41 57t12 68q20 33 56 41t69 -12l692 -437q43 -27 43 -75q0 -51 -43 -78l-692 -436q-20 -14 -47 -15q-51 0 -78 43q-20 33 -12 69z" />
<glyph unicode="&#x205f;" horiz-adv-x="509" />
<glyph unicode="&#x20ac;" horiz-adv-x="1544" d="M80 614q0 39 26.5 66t63.5 27h72q-2 18 -3 37.5t-1 41.5q0 20 1 40t3 38h-72q-37 0 -63.5 27t-26.5 65q0 37 26.5 64t63.5 27h111q41 121 116.5 222t177 175t223.5 116t257 42h319q37 0 63.5 -27t26.5 -64q0 -39 -26.5 -65.5t-63.5 -26.5h-319q-96 0 -185.5 -27.5 t-164 -76.5t-134 -118t-96.5 -150h768q37 0 63.5 -27t26.5 -64q0 -39 -26.5 -65.5t-63.5 -26.5h-819q-2 -18 -3 -37.5t-1 -40.5q0 -23 1 -42t3 -37h819q37 0 63.5 -27t26.5 -66q0 -37 -26.5 -63.5t-63.5 -26.5h-768q37 -82 96.5 -150.5t134 -117.5t163.5 -76.5t186 -27.5 h319q37 0 63.5 -27t26.5 -66q0 -37 -26.5 -63.5t-63.5 -26.5h-319q-135 0 -257 42t-223.5 116t-177 175t-116.5 222h-111q-37 0 -63.5 27t-26.5 63z" />
<glyph unicode="&#x2122;" horiz-adv-x="845" d="M33 1561q0 16 11 27t28 11h202q16 0 27.5 -11t11.5 -27t-11.5 -27.5t-27.5 -11.5h-61v-297q0 -16 -12.5 -27.5t-28.5 -11.5t-27.5 11t-11.5 28v297h-61q-16 0 -27.5 11t-11.5 28zM336 1225v331q0 16 12 27.5t29 11.5q20 0 35 -20l133 -264l135 264q10 20 35 20 q16 0 27.5 -11t11.5 -28v-331q0 -16 -11.5 -27.5t-27.5 -11.5t-28.5 11t-12.5 28v168l-94 -187q-10 -20 -35 -20t-35 20l-94 187v-168q0 -16 -11.5 -27.5t-27.5 -11.5t-28.5 11t-12.5 28z" />
<glyph unicode="&#x25fc;" horiz-adv-x="1024" d="M0 0v1024h1024v-1024h-1024z" />
</font>
</defs>
</svg>
