<?xml version="1.0" encoding="UTF-8" standalone="no"?>
<svg width="254px" height="203px" viewBox="0 0 254 203" version="1.1" xmlns="http://www.w3.org/2000/svg" xmlns:xlink="http://www.w3.org/1999/xlink">
    <!-- Generator: Sketch 3.6.1 (26313) - http://www.bohemiancoding.com/sketch -->
    <title>Group</title>
    <desc>Created with Sketch.</desc>
    <defs></defs>
    <g id="Page-1" stroke="none" stroke-width="1" fill="none" fill-rule="evenodd">
        <g id="Group">
            <g id="Layer_2">
                <path d="M250,2 C251.1,2 252,2.9 252,4 L252,173 C252,174.1 251.1,175 250,175 L4,175 C2.9,175 2,174.1 2,173 L2,4 C2,2.9 2.9,2 4,2 L250,2 L250,2 Z M250,0 L4,0 C1.8,0 0,1.8 0,4 L0,173 C0,175.2 1.8,177 4,177 L250,177 C252.2,177 254,175.2 254,173 L254,4 C254,1.8 252.3,0 250,0 L250,0 L250,0 Z" id="Shape" fill="#666666"></path>
                <path d="M252.5,154.8 L0.5,154.8 L0.5,156.8 L252.5,156.8 L252.5,154.8 L252.5,154.8 Z" id="Shape" fill="#666666"></path>
                <path d="M242,11.8 L242,11.8 L242,143.8 L11,143.8 L11,11.8 L242,11.8 L242,11.8 Z M242,9.8 L11,9.8 C9.9,9.8 9,10.7 9,11.8 L9,143.8 C9,144.9 9.9,145.8 11,145.8 L242,145.8 C243.1,145.8 244,144.9 244,143.8 L244,11.8 C244,10.7 243.1,9.8 242,9.8 L242,9.8 L242,9.8 Z" id="Shape" fill="#666666"></path>
                <path d="M51,11.8 L203,11.8 L203,143.7 L51,143.7 L51,11.8 L51,11.8 Z" id="Shape" fill="#FFFFFF"></path>
                <path d="M152.3,177 L154.6,195.5 L154.7,196.1 L155.1,196.6 C155.1,196.7 156.3,198 157.8,199.5 C158.5,200.2 159.3,200.7 160.3,201.1 L93.3,201.1 C94.3,200.7 95.3,200.3 96.1,199.7 C99.5,197.4 100.7,195.1 100.8,194.8 L101,194.5 L101,194.2 L102.9,177.1 L152.3,177 L152.3,177 Z M154,175 L101,175 L98.9,193.8 C98.9,193.8 97.9,195.9 94.9,197.9 C92.5,199.6 87.9,200.2 87.7,200.4 C86.1,202 89,202.9 89,202.9 L165.4,202.9 C165.4,202.9 167.2,201.7 166.3,200.4 C163.6,199.8 160.8,199.4 159.2,197.9 C157.7,196.5 156.6,195.1 156.6,195.1 L154,175 L154,175 L154,175 Z" id="Shape" fill="#666666"></path>
                <path d="M51,11.8 L202,11.8 L202,79.8 L51,79.8 L51,11.8 L51,11.8 Z" id="Shape" fill="#3AC4C3"></path>
            </g>
            <path d="M50.5,12.5 L50.5,143.595383" id="Line" stroke="#CBCBCB" stroke-linecap="square"></path>
            <path d="M201.5,12.5 L201.5,143.595383" id="Line" stroke="#CBCBCB" stroke-linecap="square"></path>
        </g>
    </g>
</svg>