<?xml version="1.0" encoding="utf-8"?>
<!-- Generator: Adobe Illustrator 18.0.0, SVG Export Plug-In . SVG Version: 6.00 Build 0)  -->
<!DOCTYPE svg PUBLIC "-//W3C//DTD SVG 1.1//EN" "http://www.w3.org/Graphics/SVG/1.1/DTD/svg11.dtd">
<svg version="1.1" xmlns="http://www.w3.org/2000/svg" xmlns:xlink="http://www.w3.org/1999/xlink" x="0px" y="0px" width="254px" height="204px" viewBox="0 0 254 204" enable-background="new 0 0 254 204" xml:space="preserve">

<g id="Layer_1">
	<g>
		<g>
			<path fill="#666666" d="M250.5,3c1.1,0,2,0.9,2,2v169c0,1.1-0.9,2-2,2H4.5c-1.1,0-2-0.9-2-2V5c0-1.1,0.9-2,2-2H250.5 M250.5,1
				H4.5c-2.2,0-4,1.8-4,4v169c0,2.2,1.8,4,4,4h246c2.2,0,4-1.8,4-4V5C254.5,2.8,252.7,1,250.5,1L250.5,1z"/>
		</g>
	</g>
	<g>
		<g>
			<polygon fill="#666666" points="253,155.8 1,155.8 1,157.8 253,157.8 253,155.8 			"/>
		</g>
	</g>
	<g>
		<g>
			<path fill="#666666" d="M242.5,12.8L242.5,12.8v132l-231,0v-132H242.5 M242.5,10.8h-231c-1.1,0-2,0.9-2,2v132c0,1.1,0.9,2,2,2
				h231c1.1,0,2-0.9,2-2v-132C244.5,11.7,243.6,10.8,242.5,10.8L242.5,10.8z"/>
		</g>
	</g>
	<g>
		<g>
			<path fill="#666666" d="M152.7,178l2.3,18.5l0.1,0.6l0.4,0.5c0,0.1,1.2,1.4,2.7,2.9c0.7,0.7,1.5,1.2,2.5,1.6h-67
				c1-0.4,2-0.8,2.8-1.4c3.4-2.3,4.6-4.6,4.7-4.9l0.2-0.3l0-0.3l1.9-17.1L152.7,178 M154.5,176l-53,0l-2.1,18.8c0,0-1,2.1-4,4.1
				c-2.4,1.7-7,2.3-7.2,2.5c-1.6,1.6,1.3,2.5,1.3,2.5h76.4c0,0,1.8-1.2,0.9-2.5c-2.7-0.6-5.5-1-7.1-2.5c-1.5-1.4-2.6-2.8-2.6-2.8
				L154.5,176L154.5,176z"/>
		</g>
	</g>
	<g>
		<g>
			<path fill-rule="evenodd" clip-rule="evenodd" fill="#3AC4C3" d="M11.5,12.8h231v68h-231V12.8z"/>
		</g>
	</g>
</g>
<g id="Layer_2" display="none">
	<g display="inline">
		<g>
			<path fill="#666666" d="M250,3c1.1,0,2,0.9,2,2v169c0,1.1-0.9,2-2,2H4c-1.1,0-2-0.9-2-2V5c0-1.1,0.9-2,2-2H250 M250,1H4
				C1.8,1,0,2.8,0,5v169c0,2.2,1.8,4,4,4h246c2.2,0,4-1.8,4-4V5C254,2.8,252.3,1,250,1L250,1z"/>
		</g>
	</g>
	<g display="inline">
		<g>
			<polygon fill="#666666" points="252.5,155.8 0.5,155.8 0.5,157.8 252.5,157.8 252.5,155.8 			"/>
		</g>
	</g>
	<g display="inline">
		<g>
			<path fill="#666666" d="M242,12.8L242,12.8v132l-231,0v-132H242 M242,10.8H11c-1.1,0-2,0.9-2,2v132c0,1.1,0.9,2,2,2h231
				c1.1,0,2-0.9,2-2v-132C244,11.7,243.1,10.8,242,10.8L242,10.8z"/>
		</g>
	</g>
	<g display="inline">
		<g>
			<path fill-rule="evenodd" clip-rule="evenodd" fill="#FFFFFF" d="M51,12.8h152v131.9H51V12.8z"/>
		</g>
	</g>
	<g display="inline">
		<g>
			<path fill="#666666" d="M152.3,178l2.3,18.5l0.1,0.6l0.4,0.5c0,0.1,1.2,1.4,2.7,2.9c0.7,0.7,1.5,1.2,2.5,1.6h-67
				c1-0.4,2-0.8,2.8-1.4c3.4-2.3,4.6-4.6,4.7-4.9l0.2-0.3l0-0.3l1.9-17.1L152.3,178 M154,176l-53,0l-2.1,18.8c0,0-1,2.1-4,4.1
				c-2.4,1.7-7,2.3-7.2,2.5c-1.6,1.6,1.3,2.5,1.3,2.5h76.4c0,0,1.8-1.2,0.9-2.5c-2.7-0.6-5.5-1-7.1-2.5c-1.5-1.4-2.6-2.8-2.6-2.8
				L154,176L154,176z"/>
		</g>
	</g>
	<g display="inline">
		<g>
			<path fill-rule="evenodd" clip-rule="evenodd" fill="#3AC4C3" d="M50.5,12.8h152v68h-152V12.8z"/>
		</g>
	</g>
</g>
</svg>
