<?xml version="1.0" encoding="utf-8"?>
<!-- Generator: Adobe Illustrator 16.0.0, SVG Export Plug-In . SVG Version: 6.00 Build 0)  -->
<!DOCTYPE svg PUBLIC "-//W3C//DTD SVG 1.1//EN" "http://www.w3.org/Graphics/SVG/1.1/DTD/svg11.dtd">
<svg version="1.1" id="Layer_1" xmlns="http://www.w3.org/2000/svg" xmlns:xlink="http://www.w3.org/1999/xlink" x="0px" y="0px"
	 width="15.985px" height="12px" viewBox="0 0 15.985 12" enable-background="new 0 0 15.985 12" xml:space="preserve">
<g>
	<g>
		<path fill-rule="evenodd" clip-rule="evenodd" fill="#999999" d="M7.993,2.143c-2.609,0-4.812,1.375-4.812,3
			c0,0.119,0.098,0.215,0.219,0.215s0.219-0.096,0.219-0.215c0-1.369,2.044-2.571,4.375-2.571c0.121,0,0.219-0.096,0.219-0.214
			C8.211,2.239,8.114,2.143,7.993,2.143z M7.993,0c-3.866,0-7,2.303-7,5.143c0,1.769,1.216,3.328,3.066,4.254
			c0,0.012-0.003,0.02-0.003,0.032c0,0.769-0.586,1.595-0.843,2.03c0,0,0.001,0,0.001,0c-0.021,0.047-0.033,0.098-0.033,0.152
			C3.18,11.826,3.357,12,3.577,12c0.041,0,0.113-0.011,0.111-0.006c1.367-0.219,2.655-1.449,2.955-1.807
			c0.437,0.062,0.887,0.099,1.35,0.099c3.865,0,7-2.304,7-5.144S11.858,0,7.993,0z M7.993,9.429c-0.401,0-0.812-0.03-1.223-0.089
			C6.727,9.334,6.685,9.33,6.643,9.33c-0.26,0-0.509,0.114-0.676,0.314c-0.187,0.223-0.72,0.721-1.35,1.088
			c0.17-0.384,0.304-0.813,0.313-1.256c0.002-0.028,0.004-0.056,0.004-0.08c0-0.321-0.184-0.617-0.477-0.764
			c-1.621-0.811-2.589-2.116-2.589-3.49c0-2.363,2.748-4.285,6.125-4.285c3.377,0,6.125,1.922,6.125,4.285
			C14.118,7.506,11.37,9.429,7.993,9.429z"/>
	</g>
</g>
<g display="none">
	<g display="inline">
		<path fill-rule="evenodd" clip-rule="evenodd" fill="#999999" d="M15.68,5.028l-2.496-3.667C12.819,0.826,12.178,0.5,11.489,0.5
			H1.998C0.895,0.5,0,1.321,0,2.333v7.334C0,10.68,0.895,11.5,1.998,11.5h9.491c0.689,0,1.33-0.326,1.695-0.861l2.496-3.667
			C16.086,6.377,16.086,5.623,15.68,5.028z M14.834,6.485l-2.498,3.667c-0.184,0.27-0.5,0.431-0.848,0.431H1.998
			c-0.551,0-0.999-0.411-0.999-0.916V2.333c0-0.505,0.448-0.916,0.999-0.916h9.491c0.348,0,0.664,0.161,0.848,0.43l2.496,3.667
			C15.036,5.81,15.036,6.191,14.834,6.485z M11.489,4.625C10.661,4.625,9.991,5.24,9.991,6s0.67,1.375,1.498,1.375
			S12.987,6.76,12.987,6S12.317,4.625,11.489,4.625z M11.489,6.917c-0.551,0-0.998-0.411-0.998-0.917s0.447-0.917,0.998-0.917
			c0.553,0,1,0.411,1,0.917S12.042,6.917,11.489,6.917z"/>
	</g>
</g>
<path display="none" fill="#999999" d="M13.659,10.626c-0.075-0.05-1.443-0.946-3.477-1.387c0.746-0.946,1.225-2.218,1.428-3.063
	c0.283-1.173,0.174-3.468-0.953-4.898C9.999,0.441,9.077,0,7.993,0C6.907,0,5.986,0.441,5.328,1.277
	c-1.126,1.43-1.235,3.725-0.954,4.898c0.204,0.846,0.684,2.117,1.43,3.063c-2.035,0.44-3.402,1.337-3.478,1.387
	c-0.274,0.184-0.397,0.525-0.302,0.841C2.12,11.783,2.412,12,2.742,12h10.5c0.33,0,0.622-0.217,0.718-0.533
	C14.057,11.151,13.934,10.81,13.659,10.626z M9.592,8.774L9.47,8.93c-0.895,1.027-2.061,1.027-2.956,0L6.392,8.774
	C5.348,7.451,4.829,5.701,5.053,4.031C5.257,2.426,6.177,0.75,7.993,0.75c1.815,0,2.734,1.676,2.939,3.281
	C11.155,5.702,10.637,7.451,9.592,8.774z M2.742,11.25c0.052-0.034,1.322-0.867,3.22-1.277l0.932-0.202
	c0.333,0.219,0.698,0.354,1.099,0.354s0.767-0.136,1.099-0.354l0.932,0.202c1.883,0.406,3.149,1.23,3.22,1.277H2.742z"/>
</svg>
