<?xml version="1.0" encoding="utf-8"?>
<!-- Generator: Adobe Illustrator 16.0.0, SVG Export Plug-In . SVG Version: 6.00 Build 0)  -->
<!DOCTYPE svg PUBLIC "-//W3C//DTD SVG 1.1//EN" "http://www.w3.org/Graphics/SVG/1.1/DTD/svg11.dtd">
<svg version="1.1" id="Layer_1" xmlns="http://www.w3.org/2000/svg" xmlns:xlink="http://www.w3.org/1999/xlink" x="0px" y="0px"
	 width="15.984px" height="12px" viewBox="0 0 15.984 12" enable-background="new 0 0 15.984 12" xml:space="preserve">
<g display="none">
	<g display="inline">
		<path fill="#999999" d="M7.993,2.143c-2.609,0-4.812,1.375-4.812,3c0,0.119,0.098,0.215,0.219,0.215s0.22-0.096,0.22-0.215
			c0-1.369,2.044-2.571,4.375-2.571c0.121,0,0.219-0.096,0.219-0.214C8.211,2.239,8.114,2.143,7.993,2.143z M7.993,0
			c-3.866,0-7,2.303-7,5.143c0,1.769,1.216,3.328,3.065,4.253c0,0.013-0.003,0.021-0.003,0.033c0,0.769-0.586,1.594-0.843,2.029
			h0.001c-0.021,0.047-0.033,0.098-0.033,0.152C3.18,11.826,3.357,12,3.577,12c0.041,0,0.112-0.011,0.11-0.006
			c1.367-0.219,2.655-1.449,2.955-1.807c0.438,0.062,0.887,0.099,1.351,0.099c3.864,0,7-2.304,7-5.144S11.858,0,7.993,0z
			 M7.993,9.43c-0.401,0-0.812-0.031-1.224-0.09C6.727,9.334,6.685,9.33,6.643,9.33c-0.26,0-0.509,0.113-0.676,0.314
			c-0.188,0.223-0.72,0.721-1.35,1.088c0.17-0.385,0.304-0.813,0.312-1.256c0.002-0.028,0.004-0.057,0.004-0.08
			c0-0.321-0.184-0.617-0.477-0.765C2.836,7.82,1.868,6.516,1.868,5.142c0-2.363,2.748-4.285,6.125-4.285s6.125,1.922,6.125,4.285
			C14.118,7.506,11.37,9.43,7.993,9.43z"/>
	</g>
</g>
<g display="none">
	<g display="inline">
		<path fill="#999999" d="M15.68,5.028l-2.496-3.667C12.819,0.826,12.178,0.5,11.489,0.5h-9.49C0.895,0.5,0,1.321,0,2.333v7.334
			C0,10.68,0.895,11.5,1.998,11.5h9.49c0.689,0,1.33-0.326,1.695-0.861l2.496-3.666C16.086,6.377,16.086,5.623,15.68,5.028z
			 M14.834,6.485l-2.498,3.667c-0.185,0.27-0.5,0.431-0.849,0.431H1.998c-0.552,0-0.999-0.411-0.999-0.916V2.333
			c0-0.505,0.447-0.916,0.999-0.916h9.49c0.349,0,0.664,0.161,0.849,0.43l2.496,3.667C15.036,5.81,15.036,6.191,14.834,6.485z
			 M11.489,4.625C10.661,4.625,9.991,5.24,9.991,6s0.67,1.375,1.497,1.375c0.828,0,1.498-0.615,1.498-1.375
			S12.317,4.625,11.489,4.625z M11.489,6.917c-0.551,0-0.997-0.411-0.997-0.917s0.446-0.917,0.997-0.917
			c0.554,0,1.001,0.411,1.001,0.917S12.042,6.917,11.489,6.917z"/>
	</g>
</g>
<path display="none" fill="#999999" d="M13.659,10.626c-0.075-0.05-1.443-0.946-3.478-1.387c0.746-0.946,1.226-2.218,1.428-3.063
	c0.283-1.173,0.175-3.468-0.952-4.898C9.999,0.441,9.077,0,7.993,0C6.907,0,5.986,0.441,5.328,1.277
	c-1.126,1.43-1.235,3.725-0.954,4.898c0.204,0.847,0.684,2.117,1.43,3.063c-2.035,0.439-3.402,1.337-3.478,1.387
	c-0.274,0.184-0.397,0.525-0.303,0.841C2.12,11.783,2.412,12,2.742,12h10.5c0.329,0,0.622-0.217,0.718-0.533
	C14.057,11.15,13.934,10.811,13.659,10.626z M9.592,8.773L9.47,8.93c-0.895,1.027-2.061,1.027-2.956,0L6.392,8.773
	C5.348,7.451,4.829,5.701,5.053,4.031C5.257,2.426,6.177,0.75,7.993,0.75c1.814,0,2.733,1.676,2.938,3.281
	C11.155,5.702,10.637,7.451,9.592,8.773z M2.742,11.25c0.052-0.034,1.321-0.867,3.22-1.277l0.932-0.201
	c0.333,0.219,0.698,0.354,1.1,0.354c0.4,0,0.767-0.136,1.099-0.354l0.932,0.201c1.884,0.406,3.149,1.23,3.221,1.277H2.742z"/>
<path fill="#999999" d="M12.895,0.963C12.281,0.35,11.473,0,10.676,0c-0.67,0-1.29,0.25-1.741,0.7L7.118,2.53
	C7.114,2.535,7.107,2.539,7.101,2.544c-0.002,0.003-0.003,0.007-0.007,0.01l0.002,0.001L3.241,6.437
	C3.064,6.614,2.935,6.833,2.864,7.073l-0.876,3.174c-0.001,0.009-0.058,0.259-0.058,0.385c0,0.721,0.585,1.306,1.308,1.306
	c0.144,0,0.422-0.068,0.431-0.07l3.163-0.831c0.24-0.071,0.458-0.201,0.636-0.379l5.694-5.739
	C14.197,3.882,14.08,2.145,12.895,0.963z M7.904,8.877C7.872,8.54,7.777,8.21,7.635,7.897l3.527-3.527
	c0.215,0.681,0.104,1.393-0.368,1.866c-0.003,0.003-0.007,0.005-0.009,0.008l0.004,0.005L7.907,9.155
	C7.907,9.062,7.911,8.972,7.904,8.877z M7.448,7.557C7.309,7.328,7.151,7.107,6.954,6.912c-0.229-0.229-0.49-0.407-0.763-0.557
	L9.747,2.8c0.28,0.124,0.547,0.299,0.783,0.535c0.202,0.202,0.357,0.427,0.478,0.661L7.448,7.557z M5.841,6.179
	C5.495,6.04,5.133,5.96,4.772,5.955L7.646,3.06c0.438-0.429,1.08-0.553,1.71-0.396L5.841,6.179z M3.483,11.144
	c-0.041,0.01-0.167,0.042-0.252,0.048c-0.307-0.003-0.556-0.253-0.556-0.56c0.004-0.062,0.03-0.17,0.038-0.21l0.392-1.423
	C3.532,8.987,3.99,9.153,4.352,9.515c0.366,0.366,0.538,0.835,0.52,1.265L3.483,11.144z M5.24,10.684
	C5.23,10.183,5.026,9.661,4.616,9.251c-0.389-0.39-0.897-0.613-1.405-0.633l0.371-1.347c0.027-0.09,0.08-0.178,0.146-0.256
	C4.476,6.48,5.627,6.639,6.427,7.438c0.846,0.847,0.976,2.085,0.324,2.824c-0.042,0.022-0.086,0.043-0.134,0.059L5.24,10.684z
	 M12.633,4.392l-0.629,0.632c0-0.083,0.011-0.165,0.003-0.25c-0.066-0.722-0.403-1.42-0.949-1.965
	C10.45,2.2,9.645,1.851,8.846,1.849l0.619-0.623c0.308-0.309,0.739-0.48,1.211-0.48c0.602,0,1.219,0.271,1.691,0.744
	c0.446,0.445,0.712,0.997,0.749,1.555C13.152,3.566,12.98,4.044,12.633,4.392z"/>
</svg>
