<?xml version="1.0" standalone="no"?>
<!DOCTYPE svg PUBLIC "-//W3C//DTD SVG 1.1//EN" "http://www.w3.org/Graphics/SVG/1.1/DTD/svg11.dtd" >
<svg xmlns="http://www.w3.org/2000/svg">
<metadata>
This is a custom SVG webfont generated by Font Squirrel.
Copyright   : Copyright c Manfred Klein 2004 All rights reserved
</metadata>
<defs>
<font id="webfontOpRjNwKL" horiz-adv-x="1085" >
<font-face units-per-em="2048" ascent="1638" descent="-410" />
<missing-glyph horiz-adv-x="491" />
<glyph unicode=" "  horiz-adv-x="491" />
<glyph unicode="&#x09;" horiz-adv-x="491" />
<glyph unicode="&#xa0;" horiz-adv-x="491" />
<glyph unicode="!" horiz-adv-x="440" d="M133 70q0 -37 23.5 -66t62.5 -29q41 0 64.5 29t23.5 66q0 41 -23.5 68.5t-62.5 27.5t-62.5 -27.5t-25.5 -68.5zM156 1380l20 -1011h84l21 1011h-125z" />
<glyph unicode="&#x22;" horiz-adv-x="618" d="M123 1423l29 -454h65l29 454h-123zM373 1423l28 -454h66l29 454h-123z" />
<glyph unicode="#" horiz-adv-x="1024" d="M82 426h186l-53 -426h88l53 426h250l-53 -426h88l53 426h207v80h-196l40 330h197v79h-186l51 416h-86l-53 -416h-250l51 416h-86l-53 -416h-205v-79h194l-40 -330h-197v-80zM367 506l41 330h249l-41 -330h-249z" />
<glyph unicode="$" d="M162 137q57 -47 142 -71.5t169 -24.5v-215h86v215q82 12 143.5 46t100.5 80t58.5 99t19.5 105q0 70 -22.5 124t-64.5 98t-102.5 79t-136.5 67q-147 61 -210.5 118.5t-63.5 148.5q0 37 14 75.5t45 69.5t80 51.5t121 20.5q100 0 163.5 -29t92.5 -49l45 78q-45 29 -107.5 52 t-154.5 28v219h-86v-219q-141 -18 -224.5 -103.5t-83.5 -206.5t83 -199.5t259 -150.5q121 -49 188.5 -113.5t67.5 -164.5q0 -51 -21.5 -96.5t-59 -78t-92 -51t-119.5 -18.5q-84 0 -158 26.5t-127 67.5z" />
<glyph unicode="%" horiz-adv-x="1576" d="M61 936q0 -104 25 -179t66 -124t93 -72.5t109 -23.5q63 0 118.5 26.5t96.5 78.5t64.5 132t23.5 187q0 201 -79.5 298t-208.5 97q-57 0 -112.5 -25.5t-99.5 -77t-70 -131.5t-26 -186zM152 946q2 160 60 250t150 90q111 0 160 -91t49 -243q0 -162 -52 -254t-159 -92 q-94 0 -153 90t-55 250zM332 -25h84l825 1381h-84zM920 389q0 -104 24.5 -179t65.5 -124t93 -72.5t109 -23.5q63 0 118.5 26.5t96.5 78.5t65 132t24 187q0 201 -80 298t-209 97q-57 0 -112.5 -25.5t-99.5 -77t-69.5 -131.5t-25.5 -186zM1010 399q2 160 60 250t151 90 q111 0 160 -91t49 -242q0 -162 -52.5 -254.5t-158.5 -92.5q-94 0 -153.5 90t-55.5 250z" />
<glyph unicode="&#x26;" horiz-adv-x="1208" d="M61 362q0 -86 33 -156.5t88.5 -121.5t130 -80t160.5 -29q119 0 228.5 38t230.5 145q53 -47 90 -85t76 -73h129l-113 104l-125 121q68 72 114 193t81 305h-94q-16 -92 -33 -160.5t-36.5 -121t-42 -91.5t-46.5 -71l-83 85l-105 110l-120 129l-128 140v7q2 2 4 2t4 2 q94 47 158.5 91t105.5 88t59.5 92t18.5 103q0 59 -21.5 110.5t-58.5 88.5t-89 57.5t-114 20.5q-80 0 -142.5 -28.5t-104.5 -75t-64.5 -105.5t-22.5 -123q0 -137 127 -297v-6q-59 -29 -112.5 -66.5t-93 -88t-64.5 -113t-25 -140.5zM160 377q0 70 25.5 125t62.5 96t79 68.5 t76 44.5l153 -167l138 -147l111 -113l69 -69q-66 -68 -161 -114t-215 -46q-70 0 -131.5 22.5t-107.5 64.5t-72.5 101.5t-26.5 133.5zM326 1083q0 47 14 91.5t43 78t71 54t97 20.5q53 0 92 -18.5t63.5 -49t36 -67.5t11.5 -74q0 -55 -22.5 -98t-63.5 -80t-97.5 -69.5 t-124.5 -65.5q-41 53 -80.5 120.5t-39.5 157.5z" />
<glyph unicode="'" horiz-adv-x="368" d="M123 1423l29 -454h65l29 454h-123z" />
<glyph unicode="(" horiz-adv-x="552" d="M133 582q0 -152 26.5 -275t71.5 -225t100.5 -185t114.5 -151h97q-68 84 -125.5 173t-99.5 189.5t-65.5 216t-23.5 255.5q0 141 22.5 261t63.5 223t98.5 193.5t129.5 172.5h-97q-59 -72 -114.5 -156t-100.5 -187.5t-71.5 -228t-26.5 -276.5z" />
<glyph unicode=")" horiz-adv-x="552" d="M10 -254h96q57 70 113.5 154t102 186t72 226t26.5 276t-26.5 276.5t-72 228t-101.5 186.5t-114 151h-96q70 -84 127.5 -173.5t98 -190.5t64.5 -219t24 -257q0 -141 -24 -259t-65.5 -221.5t-99 -192.5t-125.5 -171z" />
<glyph unicode="*" horiz-adv-x="819" d="M61 1020l301 31v-7l-186 -245l82 -56l145 275h5l129 -275l100 56l-186 243v7l307 -29v100l-309 -24v4l188 252l-94 53l-131 -272h-4l-136 272l-96 -55l184 -248v-4l-299 22v-100z" />
<glyph unicode="+" horiz-adv-x="1220" d="M82 506h483v-506h90v506h484v82h-484v502h-90v-502h-483v-82z" />
<glyph unicode="," horiz-adv-x="358" d="M55 -258l80 10q12 20 33 72l44 115q24 63 45.5 131.5t35.5 126.5l-131 -21q-6 -47 -19.5 -109.5t-29 -124t-31 -114.5t-27.5 -86z" />
<glyph unicode="-" horiz-adv-x="614" d="M61 535h492v88h-492v-88z" />
<glyph unicode="." horiz-adv-x="358" d="M55 70q-2 -37 22.5 -66t63.5 -29q41 0 64.5 29t23.5 66q0 41 -23.5 68.5t-62.5 27.5t-63.5 -27.5t-24.5 -68.5z" />
<glyph unicode="/" horiz-adv-x="765" d="M-49 -82h98l737 1487h-104z" />
<glyph unicode="0" d="M84 657q2 -178 40 -307t99.5 -212t140 -123t164.5 -40q221 0 347 179.5t126 535.5q0 168 -32.5 294t-91 208t-139.5 123t-179 41q-90 0 -176 -41t-152.5 -127t-107.5 -218.5t-39 -312.5zM186 676q2 135 29 245.5t73 188.5t110.5 121t142.5 43q94 0 160.5 -43t109.5 -122 t63.5 -189.5t20.5 -243.5q0 -139 -21.5 -254t-65.5 -196t-112.5 -125t-160.5 -44q-78 0 -143.5 42t-112 122t-71 195t-22.5 260z" />
<glyph unicode="1" d="M266 1188l25 -80l217 125h4v-1233h98v1331h-96z" />
<glyph unicode="2" d="M100 0h861v84h-717v4l94 84l257 237q110 105 182.5 199t108.5 184.5t36 190.5q0 53 -19.5 117.5t-65.5 122t-123 95.5t-194 38q-109 0 -203 -39t-172 -109l41 -67q51 45 132 86t182 41q96 0 157.5 -29t97.5 -73t50 -99t14 -111q0 -78 -29.5 -150.5t-98 -159.5 t-181.5 -197l-279 -265l-131 -121v-63z" />
<glyph unicode="3" d="M102 74q45 -33 137.5 -66t209.5 -33q127 0 219 35t151.5 92.5t87 128t27.5 142.5q0 68 -24.5 126t-67.5 103t-101.5 77t-128.5 44v4q129 45 195.5 128t66.5 187q0 53 -19 109.5t-63 101.5t-116 74t-176 29q-102 0 -194.5 -36t-145.5 -77l41 -74q49 39 125.5 70t162.5 31 q80 0 134.5 -21.5t86 -56.5t46 -77t14.5 -85q0 -70 -34 -121t-86 -86t-116.5 -52t-125.5 -17h-107v-74h100q76 0 152 -16.5t137.5 -53.5t99 -96t39.5 -145q0 -35 -12 -87.5t-52 -101.5t-111.5 -84t-190.5 -35q-53 0 -101.5 9.5t-90.5 22.5t-74.5 29.5t-53.5 31.5z" />
<glyph unicode="4" d="M12 389h703v-389h96v389h221v84h-221v858h-78l-721 -874v-68zM133 473v4l483 588q23 27 45.5 57.5t51.5 73.5l6 -2q-4 -35 -4 -74v-76v-571h-582z" />
<glyph unicode="5" d="M98 70q45 -33 133 -64t207 -31q98 0 184.5 33t151 91.5t102 140.5t37.5 182q0 74 -21.5 135t-55 107.5t-76.5 79t-86 49.5q-59 23 -117.5 33t-128.5 10q-53 0 -85 -3.5t-58 -7.5l63 418h547v88h-625l-84 -598q41 6 95.5 11.5t119.5 5.5q111 0 189 -28t127 -75 t72.5 -110.5t23.5 -135.5t-27.5 -133t-77 -107t-116 -73t-146.5 -27q-104 0 -184 30t-123 59z" />
<glyph unicode="6" d="M78 541q0 -145 39 -252t105.5 -176.5t151.5 -103.5t177 -34q113 0 198 42t142 110t86 150.5t29 166.5q0 92 -30 171t-86 137.5t-137 92.5t-184 34q-68 0 -127 -17.5t-107 -45.5t-85 -63.5t-62 -74.5h-4q8 102 48 196.5t105.5 170t157 129t203.5 75.5q12 4 23.5 5t23.5 3 q33 4 64 5.5t55 1.5l-2 92q-29 0 -68.5 -3t-82.5 -14q-231 -43 -389 -188q-102 -92 -173 -246.5t-71 -363.5zM180 510q0 23 8.5 44t18.5 42q49 86 141 141.5t197 55.5q76 0 141.5 -24t113.5 -69t74.5 -110.5t26.5 -149.5q0 -78 -23.5 -146.5t-68.5 -120.5t-108.5 -83 t-143.5 -31q-94 0 -164.5 36t-118 97.5t-71 143.5t-23.5 174z" />
<glyph unicode="7" d="M145 1247h736v-4l-648 -1243h99l653 1251v80h-840v-84z" />
<glyph unicode="8" d="M88 338q0 -86 37 -152.5t98.5 -113.5t144.5 -72t175 -25q86 0 168 27t145.5 76t102 120.5t38.5 161.5q0 113 -72.5 203t-230.5 142v8q76 31 125 69.5t78 81.5t39 86t10 82q0 70 -27.5 129.5t-79 102.5t-123 67.5t-159.5 24.5q-90 0 -166 -26.5t-131 -73t-86 -110 t-31 -138.5q0 -86 53.5 -167t186.5 -132v-9q-147 -55 -221 -147t-74 -215zM195 356q4 115 81.5 201t233.5 121q92 -20 165 -48t122 -68t74.5 -93t25.5 -127q0 -55 -23.5 -107.5t-69.5 -91.5t-111.5 -62.5t-151.5 -23.5q-84 0 -149.5 26t-110.5 66.5t-66.5 95t-19.5 111.5z M246 1022q0 49 19.5 94t58 81t96 57.5t135.5 21.5q82 0 137.5 -23.5t90 -60.5t50 -81t15.5 -85q0 -117 -78 -190.5t-195 -104.5q-160 31 -245.5 100.5t-83.5 190.5z" />
<glyph unicode="9" d="M106 879q0 -74 26 -148t78 -131t129 -93t181 -36q117 0 213 47t168 139l6 2q-20 -141 -68 -241.5t-114 -171.5q-68 -72 -148.5 -114t-173.5 -54q-113 -16 -172 -10v-93q82 -4 205 19q78 14 164 55t154 101q49 43 94 102t81 139t57.5 179.5t21.5 220.5q0 145 -35 251.5 t-94.5 176t-138 103.5t-165.5 34q-109 0 -195.5 -41t-147 -107.5t-93.5 -152.5t-33 -176zM207 883q0 76 23.5 146.5t68.5 123.5t109.5 86t144.5 33q92 0 159.5 -37t110.5 -101.5t63.5 -150.5t20.5 -184q0 -20 -6 -35.5t-12 -26.5q-47 -76 -139.5 -128t-214.5 -52 q-74 0 -134.5 24.5t-103.5 68.5t-66.5 103.5t-23.5 129.5z" />
<glyph unicode=":" horiz-adv-x="358" d="M111 70q0 -37 23.5 -66t62.5 -29q41 0 64.5 29t23.5 66q0 41 -23.5 68.5t-62.5 27.5t-62.5 -27.5t-25.5 -68.5zM113 817q0 -37 23.5 -65.5t62.5 -28.5q41 0 64.5 28.5t23.5 65.5q0 41 -23.5 68.5t-62.5 27.5t-62.5 -27.5t-25.5 -68.5z" />
<glyph unicode=";" horiz-adv-x="358" d="M55 -258l80 10q12 20 33 72l44 115q24 63 45.5 131.5t35.5 126.5l-131 -21q-6 -47 -19.5 -109.5t-29 -124t-31 -114.5t-27.5 -86zM127 817q0 -37 23.5 -65.5t62.5 -28.5q41 0 64.5 28.5t23.5 65.5q0 41 -23.5 68.5t-62.5 27.5t-62.5 -27.5t-25.5 -68.5z" />
<glyph unicode="&#x3c;" horiz-adv-x="1220" d="M145 510l930 -510v96l-833 447v4l833 446v97l-930 -510v-70z" />
<glyph unicode="=" horiz-adv-x="1220" d="M82 317h1057v82h-1057v-82zM82 707h1057v81h-1057v-81z" />
<glyph unicode="&#x3e;" horiz-adv-x="1220" d="M145 0l930 510v70l-930 510v-97l834 -446v-4l-834 -447v-96z" />
<glyph unicode="?" horiz-adv-x="839" d="M106 1313l41 -72q43 35 106.5 54.5t125.5 19.5q125 0 183.5 -62.5t58.5 -154.5q0 -72 -37 -143.5t-127 -168.5q-86 -94 -124 -185t-28 -175l8 -64h93l-5 74q-4 72 28 147.5t116 168.5q94 102 139 183t45 169q0 55 -19.5 109.5t-60.5 96.5t-103.5 68.5t-148.5 26.5 q-33 0 -70.5 -5t-76.5 -16.5t-76 -28.5t-68 -42zM274 70q0 -37 24 -66t62 -29q41 0 65 29t24 66q0 41 -24 68.5t-63 27.5t-62.5 -27.5t-25.5 -68.5z" />
<glyph unicode="@" horiz-adv-x="1568" d="M78 375q0 -145 52 -267t142 -209t209 -135.5t252 -48.5q104 0 199.5 21.5t181.5 68.5l-33 74q-66 -41 -153.5 -62.5t-188.5 -21.5q-117 0 -220 43t-180 122t-121 187.5t-44 237.5q0 158 52.5 285t141.5 216t208.5 136t254.5 47q133 0 238 -43t177.5 -119t110.5 -179 t38 -226q0 -84 -17.5 -146.5t-52.5 -108.5t-86 -80t-117 -61q-8 -4 -16 -2t-16 2q-6 31 -10.5 63t-4.5 64v314q0 51 -10 114.5t-44 119t-98.5 93t-174.5 37.5q-35 0 -74 -6l3 -15q3 -15 9 -56q12 2 26.5 3t28.5 1q86 0 135.5 -32t74 -74t30.5 -85t6 -67v-21 q-305 4 -445.5 -84t-140.5 -235q0 -47 22.5 -98.5t72.5 -86.5q53 -41 125 -49h4q12 -2 24.5 -3t26.5 -1q59 0 109.5 14.5t90 38t68.5 51t45 52.5h4l33 -138l80 5v2q66 0 134.5 36.5t123.5 101t91 154t36 193.5q0 133 -45 249t-129 201t-203 134t-266 49q-182 0 -325.5 -63.5 t-242 -170t-150.5 -245.5t-52 -291zM494 256q0 76 45 122t115.5 70.5t158.5 31.5t174 5v-184q0 -25 -12 -49q-12 -29 -36 -60.5t-59.5 -58.5t-83.5 -43t-112 -16q-78 0 -134 45t-56 137z" />
<glyph unicode="A" horiz-adv-x="1310" d="M61 0l105 -20l190 505h615l194 -505l105 20l-553 1380h-99zM391 569l197 492q25 61 42 110.5l34 102.5h4l31 -100q15 -49 44 -119l195 -486h-547z" />
<glyph unicode="B" horiz-adv-x="1122" d="M180 0q47 -4 113.5 -8t146.5 -4q168 0 287 32.5t191 104.5q47 47 75.5 110.5t28.5 149.5q0 88 -33 149.5t-80 103.5t-99 63.5t-89 29.5v6q51 18 96 49t78 71t51.5 88t18.5 99q0 141 -86 228q-61 61 -154.5 91t-235.5 30q-86 0 -165.5 -8.5t-143.5 -22.5v-1362zM281 84 v604h206q88 0 166 -17.5t136.5 -54t93.5 -95t35 -140.5q0 -92 -39 -151.5t-101.5 -95.5t-141.5 -49t-161 -13q-61 0 -110 2t-84 10zM281 770v522q27 6 73.5 11.5t128.5 5.5q76 0 145.5 -12.5t121 -43t82 -82t30.5 -131.5q0 -55 -22.5 -104t-65.5 -86t-106.5 -58.5 t-145.5 -21.5h-241z" />
<glyph unicode="C" horiz-adv-x="1310" d="M78 684q0 -180 61.5 -313t162.5 -221.5t233.5 -131.5t271.5 -43q150 0 261.5 26t170.5 54l-31 80q-72 -35 -167 -54.5t-197 -19.5q-164 0 -287 48.5t-207 131.5t-126 195.5t-42 239.5q0 139 44 258t131 205t215 134t296 48q98 0 185.5 -19.5t148.5 -50.5l33 84 q-35 16 -125 43t-248 27q-195 0 -341 -62.5t-244.5 -164t-148.5 -230.5t-50 -264z" />
<glyph unicode="D" horiz-adv-x="1482" d="M180 0q90 -8 177 -10t182 -2q233 0 404 61.5t271 167.5q109 117 150 251t41 253q0 135 -40 245.5t-126 204.5q-98 106 -261 164t-384 58q-117 0 -219.5 -9.5t-194.5 -21.5v-1362zM281 84v1198q53 10 128.5 18.5t176.5 8.5q188 0 324.5 -45t223.5 -124t128 -186.5 t41 -234.5q0 -135 -44.5 -253t-134.5 -205t-231 -138t-338 -51q-84 0 -154.5 2t-119.5 10z" />
<glyph unicode="E" horiz-adv-x="1046" d="M180 0h826v84h-725v602h614v84h-614v526h608v84h-709v-1380z" />
<glyph unicode="F" horiz-adv-x="1044" d="M180 0h101v670h696v84h-696v542h649v84h-750v-1380z" />
<glyph unicode="G" horiz-adv-x="1421" d="M78 692q0 -158 54 -291t147 -219q117 -109 254 -152.5t296 -43.5q119 0 213.5 16t159.5 37q29 8 51.5 1t38.5 -7v649h-456v-82h356v-473q-47 -25 -131 -41t-213 -16q-158 0 -282 46t-209 129t-130 195.5t-45 247.5q0 129 44 241.5t132 197.5t217.5 134.5t298.5 49.5 q113 0 195 -19.5t145 -48.5l33 82q-43 20 -141 45t-227 25q-209 0 -359.5 -64.5t-249 -166t-145.5 -226.5t-47 -246z" />
<glyph unicode="H" horiz-adv-x="1425" d="M180 0h101v692h864v-692h100v1380h-100v-604h-864v604h-101v-1380z" />
<glyph unicode="I" horiz-adv-x="460" d="M180 0h101v1380h-101v-1380z" />
<glyph unicode="J" horiz-adv-x="774" d="M-45 14q29 -14 85 -26.5t112 -12.5q74 0 145.5 20.5t128.5 73t92 144.5t35 238v929h-100v-903q0 -123 -20.5 -202.5t-58.5 -127t-94.5 -67t-127.5 -19.5q-55 0 -99.5 10.5t-72.5 24.5z" />
<glyph unicode="K" horiz-adv-x="1105" d="M180 0h101v569l159 160l609 -770l104 41l-643 793l582 587l-97 21l-581 -588l-62 -64q-33 -34 -63 -75h-8v706h-101v-1380z" />
<glyph unicode="L" horiz-adv-x="1003" d="M180 0h785v223h-80v-139h-604v1296h-101v-1380z" />
<glyph unicode="M" horiz-adv-x="1730" d="M137 0l99 -20l49 651q6 86 11 174l10 171q5 83 8 158.5t5 135.5h5q35 -111 82 -238l112 -289l299 -743h76l319 754l116 281l91 235h4q0 -55 3.5 -130t8.5 -158t11 -169t10 -162l43 -671l98 20l-98 1380h-119l-348 -825q-59 -137 -100 -243.5t-70 -194.5h-4 q-61 186 -164 440l-332 823h-114z" />
<glyph unicode="N" horiz-adv-x="1445" d="M180 0h99v737q0 154 -2.5 272.5t-10.5 235.5l6 4q55 -92 132 -199l165 -229l605 -821h92v1380h-99v-712q0 -160 3.5 -288t13.5 -249l-4 -4q-53 92 -120 183l-161 220l-625 850h-94v-1380z" />
<glyph unicode="O" horiz-adv-x="1542" d="M78 672q0 -152 52 -280t144.5 -220t218 -144.5t273.5 -52.5q135 0 261 47.5t223.5 140.5t155.5 230t58 316q0 150 -50 276.5t-141 219.5t-217 146.5t-278 53.5q-147 0 -275 -53.5t-222.5 -150.5t-148.5 -232t-54 -297zM180 676q0 127 37 244.5t111.5 207t185.5 142.5 t258 53t257 -55.5t182.5 -144.5t109.5 -199.5t37 -223.5q0 -137 -41 -254.5t-118 -203.5t-187.5 -135.5t-247.5 -49.5q-135 0 -243.5 51.5t-183.5 136.5t-116 196.5t-41 234.5zM682 700q0 -37 23.5 -65.5t62.5 -28.5q41 0 64.5 29t23.5 65q0 41 -23.5 69t-62.5 28t-62.5 -28 t-25.5 -69z" />
<glyph unicode="P" horiz-adv-x="1122" d="M180 0h101v588q43 -14 93 -17.5t103 -3.5q137 0 250 38t184 112q106 106 107 284q0 86 -28.5 153t-82.5 116q-61 59 -160.5 91t-238.5 32q-96 0 -179 -8.5t-149 -18.5v-1366zM281 676v614q31 6 89 12.5t136 6.5q84 0 158.5 -16.5t131 -54.5t89.5 -99.5t33 -149.5 q0 -160 -111 -249t-318 -89q-59 0 -112 5.5t-96 19.5z" />
<glyph unicode="Q" horiz-adv-x="1542" d="M78 672q0 -152 52 -280t144.5 -220t218 -144.5t273.5 -52.5q199 0 369 101q-16 -49 -50 -113q-63 -129 -63 -221q0 -94 78 -172q43 -43 96 -63q40 -15 84 -14q14 0 28 1q58 6 119.5 37t120.5 90q57 55 92 118.5t52 127.5l-86 35q-12 -53 -40 -113.5t-81 -114.5 q-47 -45 -91 -66.5t-84 -24.5q-7 -1 -14 0q-32 0 -61 11q-35 14 -61 41q-53 53 -53 119v16q7 75 63 183q31 59 45 110.5t16 96.5q100 92 159.5 229t59.5 320q0 150 -50 276.5t-141 219.5t-217 146.5t-278 53.5q-147 0 -275 -53.5t-222.5 -150.5t-148.5 -232t-54 -297z M180 676q0 127 37 244.5t111.5 207t185.5 142.5t258 53t257 -55.5t182.5 -144.5t109.5 -199.5t37 -223.5q0 -127 -34 -235.5t-99 -192.5q-16 33 -41 58q-37 37 -87 57q-46 19 -96 19h-10q-55 -2 -114.5 -29t-114.5 -84q-45 -45 -81 -107.5t-52 -113.5q-104 25 -188.5 82 t-141.5 138t-88 179.5t-31 204.5zM721 59q14 41 42 93.5t71 95.5q72 70 146 70h3q73 0 121 -50q35 -37 45 -75q-74 -66 -171 -101t-214 -35h-23q-10 0 -20 2z" />
<glyph unicode="R" horiz-adv-x="1124" d="M180 0h101v633h262q141 0 214.5 -76t108.5 -225l28 -126l25 -111q11 -50 21 -86t18 -50l107 41q-25 45 -49.5 133t-63.5 252q-25 104 -79 178t-140 103v4q127 39 206 130t79 228q0 72 -26.5 136.5t-71.5 105.5q-63 61 -159.5 92t-244.5 31q-80 0 -172 -8.5t-164 -22.5 v-1362zM281 715v573q29 8 88 15.5t145 7.5q82 0 155.5 -15.5t129 -51.5t87.5 -93t32 -139q0 -135 -99.5 -216t-271.5 -81h-266z" />
<glyph unicode="S" horiz-adv-x="1034" d="M94 78q31 -23 74 -42.5t92 -32.5t101.5 -20.5t101.5 -7.5q123 0 212 33t146.5 87.5t84 123t26.5 139.5q0 84 -24.5 145.5t-74 108.5t-122 83t-166.5 67q-168 53 -240 122.5t-72 180.5q0 41 16.5 86t54.5 84t100.5 63.5t154.5 24.5q102 0 173 -25.5t99 -46.5l39 84 q-41 27 -118.5 48.5t-188.5 21.5q-96 0 -174 -26.5t-135 -75t-88 -113t-31 -139.5q0 -135 90 -225.5t297 -155.5q86 -29 145.5 -59.5t96.5 -69.5t53.5 -86t16.5 -107q0 -129 -95.5 -209t-263.5 -80q-100 0 -187 28t-155 75z" />
<glyph unicode="T" horiz-adv-x="1044" d="M-41 1296h514v-1296h100v1296h514v84h-1128v-84z" />
<glyph unicode="U" horiz-adv-x="1415" d="M180 582q0 -170 42 -286t113 -186.5t163 -102.5t192 -32q111 0 209 34t173 107.5t119 191.5t44 284v788h-100v-796q0 -137 -33 -235.5t-91.5 -163t-138 -95.5t-176.5 -31q-86 0 -161.5 30t-132 92.5t-89 161.5t-32.5 241v796h-101v-798z" />
<glyph unicode="V" horiz-adv-x="1116" d="M-16 1380l503 -1380h99l573 1380l-108 21l-308 -783l-111 -279q-52 -126 -87 -237h-4q-33 109 -78 234l-101 285l-272 780z" />
<glyph unicode="W" horiz-adv-x="1804" d="M23 1380l391 -1380h98l258 795l86 270q35 109 53 199h4q8 -47 18.5 -96.5t24.5 -105.5l33 -123l41 -148l223 -791h99l456 1380l-104 21l-254 -815l-79 -250q-36 -113 -60 -211h-4q-16 92 -51 215l-68 250l-223 790h-99l-254 -792l-82 -256q-39 -121 -57 -207h-4l-56 209 l-69 254l-219 813z" />
<glyph unicode="X" horiz-adv-x="1228" d="M66 0h118l215 324l69 102l53 80l42 64l37 59h4l85 -124l126 -179l229 -326h119l-495 705l495 675h-121l-262 -374l-92 -133l-74 -107h-4l-70 106l-89 136l-246 372h-119l463 -682z" />
<glyph unicode="Y" horiz-adv-x="1107" d="M25 1380l483 -790v-590h100v586l514 794l-114 21l-269 -451l-93 -153q-44 -70 -79 -135h-4q-39 72 -80 137t-88 151l-256 451z" />
<glyph unicode="Z" horiz-adv-x="1239" d="M76 0h1091l21 84h-371h-610v6l946 1221v69h-999l-21 -84h887v-6l-944 -1222v-68z" />
<glyph unicode="[" horiz-adv-x="552" d="M184 -229h379v77h-287v1479h287v78h-379v-1634z" />
<glyph unicode="\" horiz-adv-x="757" d="M-20 1405l725 -1487h102l-725 1487h-102z" />
<glyph unicode="]" horiz-adv-x="552" d="M-10 -152v-77h379v1634h-379v-78h286v-1479h-286z" />
<glyph unicode="^" horiz-adv-x="1220" d="M143 401h97l368 838h4l369 -838h96l-420 930h-94z" />
<glyph unicode="_" horiz-adv-x="1024" d="M0 -457v-102h1024v102h-1024z" />
<glyph unicode="`" horiz-adv-x="614" d="M59 1397l260 -287h78l-186 287h-152z" />
<glyph unicode="a" horiz-adv-x="1015" d="M86 246q0 -55 25.5 -112.5t83.5 -98.5q29 -20 63.5 -34.5t77.5 -20.5h4q14 -2 28.5 -3.5t30.5 -1.5q68 0 125.5 16.5t102.5 43t77.5 57.5t51.5 60h4l37 -172l92 20q-10 59 -23.5 118.5t-13.5 119.5v356q0 57 -11.5 130t-49 135.5t-111.5 105.5t-199 43q-41 0 -84 -7 l3 -17q3 -17 10 -64q16 2 31.5 3t31.5 1q98 0 153.5 -35t83 -83t35 -98.5t7.5 -76.5v-23h-27q-323 0 -478 -95q-161 -99 -161 -267zM193 264q0 86 51 138.5t131 80t179 35.5q79 7 158 7q20 0 40 -1v-209q0 -27 -13 -57q-14 -33 -40.5 -68.5t-67.5 -64.5t-96.5 -48.5 t-126.5 -19.5q-86 0 -150.5 51.5t-64.5 155.5z" />
<glyph unicode="b" horiz-adv-x="1255" d="M172 0h92l6 190h4q72 -117 173.5 -166t230.5 -49q92 0 179 34t156.5 100.5t111.5 166t42 230.5q0 102 -33.5 193.5t-95 160t-148.5 108.5t-196 40q-154 0 -255 -64.5t-154 -163.5h-4v686h-101v-1228q0 -59 -2 -119t-6 -119zM281 391v170q0 29 5 50.5t11 39.5 q20 68 59 120t89.5 86t108.5 51.5t120 17.5q92 0 164.5 -34t124 -92.5t78 -135t26.5 -162.5q0 -100 -28.5 -182t-81 -140.5t-127 -90.5t-168.5 -32q-72 0 -132.5 21.5t-108.5 56.5t-82 82t-48 98q-10 41 -10 76z" />
<glyph unicode="c" horiz-adv-x="1019" d="M88 477q0 -106 37 -198.5t105.5 -160t165 -105.5t212.5 -38q127 0 212 28t118 44l-29 80q-43 -18 -111.5 -42t-174.5 -24q-94 0 -173 31t-137.5 87.5t-91.5 135t-33 174.5q0 90 30 169t86 137.5t140 92.5t195 34q96 0 161.5 -20.5t108.5 -45.5l37 82q-31 23 -109.5 46.5 t-189.5 23.5q-119 0 -221 -37t-177 -105.5t-118 -167t-43 -221.5z" />
<glyph unicode="d" horiz-adv-x="1183" d="M90 477q0 -109 36 -200t100.5 -158.5t155.5 -105.5t200 -38q92 0 182 31t162.5 96.5t118 168t45.5 247.5q0 111 -24 209t-69 188q-35 72 -83 137.5t-107 125.5q-27 29 -55.5 53t-59.5 47l-71 53q-66 49 -144 89t-155 71l-41 -82q68 -25 134 -56.5t115 -66.5l76 -51 q117 -78 195 -171t135 -194l-4 -6q-88 88 -172 116t-172 28q-92 0 -181.5 -37t-160 -105.5t-113.5 -167t-43 -221.5zM188 481q0 76 24 155t73 143.5t124.5 105.5t178.5 41q106 0 178 -37t119 -82q55 -53 77.5 -121t22.5 -182q0 -109 -31.5 -193t-87 -140t-129 -85 t-159.5 -29q-74 0 -143.5 29t-124 82t-88.5 132t-34 181z" />
<glyph unicode="e" horiz-adv-x="1099" d="M88 467q0 -106 36 -196.5t101.5 -156t158.5 -102.5t208 -37q37 0 70.5 2.5t62.5 6.5l-8 84q-49 -6 -115 -7q-88 0 -164 27t-132 81t-88 134t-32 189h818q4 12 4 24v37q0 49 -15.5 126t-61.5 150.5t-130 126t-221 52.5q-104 0 -194.5 -38t-156 -107.5t-103.5 -170 t-38 -225.5zM193 571q8 55 32.5 118t68.5 115t111.5 87t161.5 35q111 0 177.5 -41t102.5 -98.5t46 -117t10 -98.5h-710z" />
<glyph unicode="f" horiz-adv-x="583" d="M10 903h170v-1077q0 -43 -9 -86t-21.5 -77t-21.5 -54l-9 -21l100 -20l9 21q9 22 21.5 59t22 84t9.5 96v1075h268l20 80h-288v49q0 74 10 142.5t36.5 120t74 82t122.5 30.5q49 0 82 -9t56 -22l32 78q-33 20 -100 33q-14 2 -29.5 3t-32.5 1q-139 0 -233 -88 q-63 -59 -91 -152.5t-28 -220.5v-47h-149z" />
<glyph unicode="g" horiz-adv-x="774" d="M16 641q0 -76 29 -138.5t80 -109.5l-8 -34q-6 -26 -11.5 -56.5t-8.5 -61t1 -44.5q10 -51 29.5 -76t51.5 -37t78 -21.5t114 -29.5q117 -37 174 -85t57 -134q0 -76 -59.5 -133.5t-188.5 -57.5q-74 0 -137 22.5t-108 51.5l-37 -86q55 -33 125.5 -52.5t148.5 -19.5 q84 0 149.5 21.5t111.5 59.5t69.5 90t23.5 112q0 111 -66.5 175t-201.5 112q-55 18 -100 27t-77 20.5t-50.5 32t-18.5 61.5q0 2 3.5 20.5t6.5 43t1 34.5q70 -37 161 -37q57 0 118 19.5t111 61.5t82.5 106.5t32.5 154.5q2 80 -32.5 150.5t-98.5 118.5l160 -19v88l-369 -4h-4 q-63 0 -124.5 -23.5t-109.5 -68.5t-78 -109.5t-30 -144.5zM104 645q0 49 15.5 97.5t48.5 86t80 61t112 23.5q68 0 116 -25.5t80 -64.5t46 -85t14 -89q0 -68 -21.5 -117t-57 -81.5t-81.5 -49t-96 -16.5q-45 0 -90 16.5t-81.5 49t-60.5 80.5t-24 114z" />
<glyph unicode="h" horiz-adv-x="1210" d="M180 0h101v584q0 63 16 104q18 45 50 87t76 74t96 51.5t112 19.5q78 0 134 -26t93 -69q43 -51 62.5 -120.5t19.5 -147.5v-354q0 -49 9 -93t21.5 -78t21.5 -54l9 -19l101 41q-2 4 -15.5 35t-30 80t-16.5 88v358q0 100 -21.5 173t-56 123t-77.5 80t-86 45t-81 20.5t-61 5.5 q-59 0 -116.5 -17.5t-104.5 -46.5q-51 -29 -90 -71t-61 -89h-4v682h-101v-1466z" />
<glyph unicode="i" horiz-adv-x="460" d="M147 1294q0 -35 23 -61.5t59 -26.5q39 0 61.5 27t22.5 61q0 35 -23.5 61.5t-58.5 26.5t-59.5 -26.5t-24.5 -61.5zM180 0h101v983h-101v-983z" />
<glyph unicode="j" horiz-adv-x="471" d="M-119 -352l10 -82q27 0 64 5t77 18.5t79 34t67 50.5q70 74 91.5 171.5t21.5 226.5v911h-101v-838q0 -104 -5 -173.5t-14 -115.5t-25.5 -76t-36.5 -52q-37 -39 -95.5 -58.5t-132.5 -21.5zM158 1294q0 -33 21.5 -60.5t60.5 -27.5q41 0 62.5 28t21.5 60q0 35 -22.5 61.5 t-57.5 26.5q-37 0 -61.5 -26.5t-24.5 -61.5z" />
<glyph unicode="k" horiz-adv-x="937" d="M180 0h101v412l112 108l469 -561l105 41l-502 578l438 405h-127l-383 -360q-27 -25 -57 -58l-51 -55h-4v956h-101v-1466z" />
<glyph unicode="l" horiz-adv-x="522" d="M180 494q0 -129 15.5 -232.5t85.5 -177.5q29 -31 66.5 -51.5t74.5 -31.5t67.5 -16t49.5 -5l10 90q-37 0 -93.5 20.5t-93.5 59.5q-23 23 -38 52t-24 75.5t-14 116t-5 173.5v899h-101v-972z" />
<glyph unicode="m" horiz-adv-x="1837" d="M172 983q4 -59 6 -118.5t2 -119.5v-745h101v598q0 27 5 51.5t13 44.5q16 41 45 82t68 73t88 52.5t104 20.5q125 0 197.5 -89.5t72.5 -234.5v-598h101v627q0 29 6 52t14 44q16 37 44 72.5t65 63.5t82 45.5t96 17.5q141 0 215 -101q35 -47 53.5 -114.5t18.5 -159.5v-35 q0 -35 1 -87t1 -112v-110q0 -68 15.5 -125.5t28.5 -86t15 -32.5l101 41q-2 4 -15.5 35t-30 80t-16.5 88v346q0 154 -42 245t-99.5 138t-116.5 61.5t-94 14.5q-92 0 -153.5 -25t-114.5 -72q-29 -25 -54.5 -58.5t-48.5 -78.5h-4q-16 47 -45 89t-67.5 75t-89 51.5t-107.5 18.5 q-135 0 -218 -61.5t-136 -153.5h-5l-8 190h-94z" />
<glyph unicode="n" horiz-adv-x="1210" d="M172 983q4 -59 6 -118.5t2 -119.5v-745h101v600q0 23 5 47.5t11 40.5q16 47 49 89t76 75t96 51.5t113 18.5q84 0 143.5 -30t96 -80t53 -115.5t16.5 -137.5v-356q0 -68 16.5 -126.5t29.5 -85.5l15 -32l101 41q-2 4 -15.5 35t-30 80t-16.5 88v356q0 102 -22.5 175t-57 123 t-77.5 80t-86 45t-80 20.5t-60 5.5q-68 0 -127 -17.5t-107 -48.5t-85 -71t-59 -85h-5l-8 197h-94z" />
<glyph unicode="o" horiz-adv-x="1210" d="M88 481q0 -109 38 -202t105.5 -160.5t160.5 -105.5t204 -38q90 0 183 31t170 95.5t125 164t48 238.5q0 104 -35.5 196.5t-102 161t-162 107.5t-214.5 39q-102 0 -196.5 -36t-166 -104.5t-114.5 -166t-43 -220.5zM186 487q0 86 27 165t79 140.5t131 97.5t183 36 q109 0 186.5 -41t129 -103.5t75 -138.5t23.5 -145q0 -106 -36 -188.5t-94.5 -138.5t-135 -85t-158.5 -29q-80 0 -153.5 29t-130 84t-91.5 135t-35 182zM528 496q0 -33 20.5 -57.5t55.5 -24.5t56.5 24.5t21.5 57.5q0 37 -20.5 60.5t-55.5 23.5t-55.5 -23.5t-22.5 -60.5z" />
<glyph unicode="p" horiz-adv-x="1255" d="M119 -410l100 -20l9 19q9 19 21.5 52t22 73t9.5 81v381h4q61 -104 164.5 -152.5t220.5 -48.5q100 0 190 36t158.5 103.5t108.5 168t40 229.5q0 100 -33.5 190.5t-95 158t-148.5 107.5t-196 40q-154 0 -256 -64.5t-157 -165.5h-5l-8 205h-96q4 -80 6 -159t2 -158v-58 q0 -53 1 -150.5t1 -209.5v-232v-221q0 -49 -16 -98t-30.5 -76t-16.5 -31zM281 395v174q0 20 6 43l12 43q20 68 59 118t88.5 84t107.5 51.5t120 17.5q92 0 164.5 -34t124 -91.5t78 -133t26.5 -159.5q0 -102 -28.5 -186t-81 -142.5t-127 -90.5t-168.5 -32q-70 0 -130.5 21.5 t-108.5 56.5t-83 82t-49 100q-10 41 -10 78z" />
<glyph unicode="q" horiz-adv-x="1228" d="M88 469q0 -94 31 -178t84 -150q63 -76 154.5 -121t201.5 -45q76 0 138.5 18.5t111.5 48.5t84 67.5t55 78.5h4v-598h101v1155v7v34q0 10 1 18.5t1 18.5v2v19q0 68 6 139h-92l-6 -184h-5q-16 35 -45.5 71.5t-75.5 67.5t-106.5 50.5t-138.5 19.5q-84 0 -173 -30t-163 -94.5 t-121 -167t-47 -247.5zM188 483q0 100 30 182.5t83 140.5t126 89t161 31q70 0 127 -19.5t102 -52.5t76 -76t47 -92q12 -43 12 -96v-199q0 -23 -6 -49.5t-16 -48.5q-41 -104 -135.5 -170t-214.5 -66q-78 0 -140.5 21.5t-109.5 60.5q-72 61 -107 153.5t-35 190.5z" />
<glyph unicode="r" horiz-adv-x="655" d="M172 983q4 -80 6 -159t2 -158v-666h101v532q0 49 10 97q25 129 97.5 206.5t176.5 77.5h29q14 0 29 -4v92q-23 6 -48 7q-111 0 -187.5 -67t-113.5 -171h-6l-4 213h-92z" />
<glyph unicode="s" horiz-adv-x="835" d="M102 47q55 -33 126 -52.5t149 -19.5q84 0 149.5 21.5t111.5 59.5t69.5 90.5t23.5 111.5q0 111 -66.5 175.5t-201.5 111.5q-55 18 -97 36.5t-72 41t-45.5 53.5t-15.5 72q0 72 52.5 124t154.5 52q86 0 139.5 -23.5t77.5 -40.5l39 82q-43 29 -104.5 47.5t-132.5 18.5 q-80 0 -140.5 -22.5t-101.5 -61.5t-61.5 -88.5t-20.5 -100.5q0 -180 266 -266q117 -37 174.5 -85t57.5 -134q0 -76 -59.5 -133.5t-188.5 -57.5q-74 0 -137.5 22.5t-108.5 51.5z" />
<glyph unicode="t" horiz-adv-x="694" d="M20 903h127h74v-616q0 -70 14.5 -133.5t51.5 -104.5q61 -74 182 -74q49 0 87 8.5t65 18.5l-13 78q-23 -8 -53.5 -13.5t-75.5 -5.5q-90 0 -123.5 61.5t-33.5 151.5v629h290l21 80h-311v217l-101 -31v-186h-180z" />
<glyph unicode="u" horiz-adv-x="1200" d="M170 432q0 -158 42 -248t101.5 -137t122 -59.5t105.5 -12.5q74 0 135 19.5t108 51.5t82 72t58 81h4q0 -2 2 -19.5t6 -45.5t8 -50q8 -33 20 -69l11 -35l94 20q-23 53 -36 115.5t-13 122.5v745h-100v-596q0 -33 -7.5 -62.5t-17.5 -52.5q-39 -86 -127 -147.5t-201 -61.5 q-82 0 -138 29t-92 80t-51.5 123t-15.5 158v530h-100v-551z" />
<glyph unicode="v" horiz-adv-x="1015" d="M29 983l430 -983h90l448 983h-106l-262 -606l-65 -146q-30 -68 -54 -133h-4q-23 66 -50 130l-63 149l-256 606h-108z" />
<glyph unicode="w" horiz-adv-x="1605" d="M49 983l324 -983h90l215 541l66 179q32 87 57 173h4q23 -84 52 -170l65 -180l200 -543h90l357 983h-103l-196 -573l-56 -164q-25 -74 -40 -140h-5l-45 139q-25 75 -59 167l-209 571h-100l-219 -573l-62 -164q-27 -74 -47 -140h-4l-40 141l-50 163l-180 573h-105z" />
<glyph unicode="x" horiz-adv-x="962" d="M20 0h117l193 250l73 96q33 43 64 90h4l68 -91l71 -95l197 -250h117l-396 506l377 477h-112l-189 -242l-65 -83l-62 -83h-4l-60 82l-65 84l-188 242h-115l375 -479z" />
<glyph unicode="y" horiz-adv-x="983" d="M18 983l408 -913q14 -31 14 -45q0 -12 -12 -39q-47 -104 -98 -168t-90 -97q-47 -41 -95.5 -63.5t-85.5 -32.5l27 -84q16 4 66.5 22.5t113.5 65.5q49 35 91 83t84 115t85 156l95 205l348 795h-109l-274 -649q-25 -59 -45 -114l-37 -101h-4q-14 47 -36 103.5t-44 103.5 l-293 657h-109z" />
<glyph unicode="z" horiz-adv-x="901" d="M33 0h844v82h-713v4l59 68l58 67l587 692l2 70h-794v-82h672v-4l-66 -72l-61 -71l-588 -693v-61z" />
<glyph unicode="{" horiz-adv-x="552" d="M45 553q59 2 95 -13.5t55.5 -40t25.5 -53t6 -53.5q0 -41 -5 -82t-15 -82l-15.5 -82t-7.5 -81q0 -82 23.5 -138.5t65.5 -91.5t99.5 -50t123.5 -15h26v77h-39q-207 0 -207 209q0 41 6.5 82t14.5 82t14 81t6 81q0 72 -35.5 130t-95.5 77v4q59 18 95 73.5t36 129.5 q0 41 -6 81t-14 80.5t-14.5 80.5t-6.5 81q0 100 45.5 153.5t161.5 53.5h39v78h-26q-135 0 -223.5 -65.5t-88.5 -206.5q0 -43 6.5 -86t16.5 -86q8 -43 14 -86.5t6 -88.5q0 -31 -6 -60.5t-25.5 -52t-55.5 -35.5t-95 -11v-74z" />
<glyph unicode="|" horiz-adv-x="448" d="M180 -512h88v2048h-88v-2048z" />
<glyph unicode="}" horiz-adv-x="552" d="M31 -152v-77h26q66 0 123.5 15t99.5 50t65.5 91.5t23.5 138.5q0 41 -6.5 81.5t-14.5 81.5q-10 41 -16 82t-6 82q0 25 6 53.5t25.5 53t55.5 40t95 13.5v74q-59 -2 -95 11t-55.5 35.5t-25.5 52.5t-6 60q0 45 6 88.5t16 86.5q8 43 14.5 86t6.5 86q0 141 -88 206.5t-224 65.5 h-26v-78h39q117 0 161.5 -53t44.5 -154q0 -41 -6 -81t-14 -80.5t-14 -80.5t-6 -81q0 -74 35.5 -129.5t95.5 -73.5v-4q-59 -18 -95 -76.5t-36 -130.5q0 -41 6 -81t14 -81t14 -82t6 -82q0 -209 -206 -209h-39z" />
<glyph unicode="~" horiz-adv-x="1220" d="M86 446h80q0 92 38 138.5t109 46.5q70 0 138 -30l147 -64q66 -29 113 -46.5t83.5 -27.5t64.5 -14.5t54 -4.5q41 0 82 14.5t74 47.5t51.5 85t14.5 128h-78q0 -90 -34 -137t-103 -47q-74 0 -147 28l-157 64l-107 45q-44 18 -77 29.5t-60.5 15.5t-58.5 4q-47 0 -89 -18.5 t-74.5 -54.5t-50 -87.5t-13.5 -114.5z" />
<glyph unicode="&#xa2;" d="M123 662q0 -104 33.5 -189.5t87.5 -142.5q61 -66 139 -104t199 -48v-219h86v221q49 2 93 11.5t78.5 20.5t60.5 22.5t38 19.5l-29 74q-39 -20 -108.5 -44t-182.5 -24q-84 0 -156.5 28.5t-125.5 83t-85 130.5t-32 172q0 92 32 169t87 133t132 88t167 32q104 0 168.5 -22.5 t99.5 -45.5l39 82q-35 20 -106.5 43t-169.5 23v221h-86v-221q-98 -12 -182.5 -53.5t-145.5 -107t-96 -155t-35 -198.5z" />
<glyph unicode="&#xa3;" d="M141 0h858v86h-700v4q61 49 106.5 113.5t65.5 154.5q16 68 12 136.5t-10 138.5h322v80h-332q-10 53 -17.5 112.5t-7.5 137.5q0 143 64.5 226t202.5 83q78 0 129 -15.5t79 -31.5l33 78q-35 20 -90 36.5t-141 16.5q-82 0 -150.5 -29t-118 -81t-77 -123.5t-27.5 -157.5 q0 -68 8 -132.5t19 -119.5h-224v-80h232q8 -55 10 -95t2 -81q0 -117 -54 -216.5t-194 -177.5v-63z" />
<glyph unicode="&#xa5;" d="M55 1331l385 -655h-299v-76h338v-156h-338v-75h338v-369h96v369h338v75h-338v156h338v76h-295l412 655h-106l-301 -497q-27 -43 -48.5 -83t-33.5 -75h-9q-18 41 -36 73l-45 78l-287 504h-109z" />
<glyph unicode="&#xa9;" horiz-adv-x="1386" d="M82 696q0 -133 47 -248.5t130 -201.5t195.5 -135.5t241.5 -49.5t241 49.5t192.5 135.5t128 201.5t47.5 248.5q0 131 -47.5 246t-128 201t-192.5 135t-241 49t-241.5 -49t-195.5 -135t-130 -201t-47 -246zM166 688q0 123 41 227.5t111.5 181.5t168 121t211.5 44 q111 0 207 -43t167 -120t112 -180.5t41 -222.5q0 -123 -41 -227t-112 -180t-167 -119t-207 -43q-115 0 -212 43t-167.5 119t-111.5 178t-41 221zM358 684q0 -78 26 -145.5t73 -117.5t116.5 -79t157.5 -29q63 0 131 13.5t121 52.5l-20 59q-37 -27 -92.5 -42t-118.5 -15 q-78 0 -136.5 24.5t-97.5 66.5t-57.5 98.5t-18.5 119.5t18.5 118.5t55.5 97.5t94.5 66.5t137.5 24.5q78 0 129 -18t73 -33l21 64q-23 18 -82.5 36.5t-143.5 18.5q-78 0 -147.5 -26.5t-122.5 -77t-85 -121t-32 -156.5z" />
<glyph unicode="&#xad;" horiz-adv-x="614" d="M61 535h492v88h-492v-88z" />
<glyph unicode="&#xae;" horiz-adv-x="1044" d="M72 938q0 -98 35.5 -183t97 -146.5t143.5 -97.5t176 -36t176 36t143.5 97.5t96.5 146.5t35 183q0 96 -35 180t-96.5 145.5t-143.5 97.5t-176 36t-176 -36t-143.5 -97.5t-97 -145.5t-35.5 -180zM147 938q0 82 30 155.5t81 128t119.5 86t148.5 31.5t148.5 -31.5t119 -86 t80 -128t29.5 -157.5t-29.5 -157.5t-80 -128t-119 -86.5t-146.5 -32q-80 0 -149.5 32t-120.5 87.5t-81 129t-30 157.5zM369 670h65v227h62q53 0 80.5 -21.5t37.5 -74.5q18 -104 39 -131h70q-8 12 -16.5 39.5t-18.5 87.5q-18 113 -88 125v4q41 12 70.5 42.5t29.5 84.5 q0 70 -47 104q-23 16 -60.5 27.5t-90.5 11.5q-39 0 -69 -4t-64 -8v-514zM434 946v193q10 2 24.5 3t35.5 1q78 0 107.5 -32t29.5 -69q0 -53 -40 -74.5t-93 -21.5h-64z" />
<glyph unicode="&#xb4;" horiz-adv-x="614" d="M242 1110h77l261 287h-152z" />
<glyph unicode="&#x2000;" horiz-adv-x="768" />
<glyph unicode="&#x2001;" horiz-adv-x="1536" />
<glyph unicode="&#x2002;" horiz-adv-x="768" />
<glyph unicode="&#x2003;" horiz-adv-x="1536" />
<glyph unicode="&#x2004;" horiz-adv-x="512" />
<glyph unicode="&#x2005;" horiz-adv-x="382" />
<glyph unicode="&#x2006;" horiz-adv-x="256" />
<glyph unicode="&#x2007;" horiz-adv-x="256" />
<glyph unicode="&#x2008;" horiz-adv-x="190" />
<glyph unicode="&#x2009;" horiz-adv-x="307" />
<glyph unicode="&#x200a;" horiz-adv-x="83" />
<glyph unicode="&#x2010;" horiz-adv-x="614" d="M61 535h492v88h-492v-88z" />
<glyph unicode="&#x2011;" horiz-adv-x="614" d="M61 535h492v88h-492v-88z" />
<glyph unicode="&#x2012;" horiz-adv-x="614" d="M61 535h492v88h-492v-88z" />
<glyph unicode="&#x2013;" horiz-adv-x="1024" d="M61 475h902v82h-902v-82z" />
<glyph unicode="&#x2014;" horiz-adv-x="2048" d="M61 475h1926v82h-1926v-82z" />
<glyph unicode="&#x2018;" horiz-adv-x="358" d="M88 969l121 20q6 47 19.5 108.5t28.5 123t30.5 116t27.5 86.5l-69 -10q-12 -23 -34 -73t-44.5 -113.5t-44 -132t-35.5 -125.5z" />
<glyph unicode="&#x2019;" horiz-adv-x="358" d="M88 969l70 10q12 20 32 72l44 114q24 63 45.5 132t35.5 126l-120 -20q-6 -47 -19.5 -109.5t-29 -124t-31 -114.5t-27.5 -86z" />
<glyph unicode="&#x201c;" horiz-adv-x="602" d="M88 969l121 20q6 47 19.5 108.5t28.5 123t30.5 116t27.5 86.5l-69 -10q-12 -23 -34 -73t-44.5 -113.5t-44 -132t-35.5 -125.5zM332 969l121 20q6 47 19 108.5t28.5 123t31 116t27.5 86.5l-70 -10q-12 -23 -33.5 -73t-44 -113.5t-44 -132t-35.5 -125.5z" />
<glyph unicode="&#x201d;" horiz-adv-x="602" d="M88 969l70 10q12 20 32 72l44 114q24 63 45.5 132t35.5 126l-120 -20q-6 -47 -19.5 -109.5t-29 -124t-31 -114.5t-27.5 -86zM332 969l69 10q12 20 33 72l44 114q24 63 45.5 132t35.5 126l-121 -20q-6 -47 -19 -109.5t-28.5 -124t-31 -114.5t-27.5 -86z" />
<glyph unicode="&#x2022;" horiz-adv-x="481" d="M82 707q0 -68 47 -114t113 -46q68 0 114.5 47t46.5 113t-47 112.5t-114 46.5q-33 0 -62.5 -12t-51.5 -33.5t-34 -51t-12 -62.5z" />
<glyph unicode="&#x2026;" horiz-adv-x="2048" d="M256 70q0 -37 23.5 -66t62.5 -29q41 0 64.5 29t23.5 66q0 41 -23.5 68.5t-62.5 27.5t-62.5 -27.5t-25.5 -68.5zM936 70q0 -37 23.5 -66t62.5 -29q41 0 64.5 29t23.5 66q0 41 -23.5 68.5t-62.5 27.5t-62.5 -27.5t-25.5 -68.5zM1616 70q0 -37 23.5 -66t62.5 -29 q41 0 64.5 29t23.5 66q0 41 -23.5 68.5t-62.5 27.5t-62.5 -27.5t-25.5 -68.5z" />
<glyph unicode="&#x202f;" horiz-adv-x="307" />
<glyph unicode="&#x205f;" horiz-adv-x="382" />
<glyph unicode="&#x20ac;" horiz-adv-x="1374" d="M41 440h174q37 -119 107.5 -206t163 -144t201 -86t222.5 -29q150 0 261.5 26t170.5 54l-30 80q-72 -35 -167 -54.5t-198 -19.5q-123 0 -223 28t-178 78t-133.5 119.5t-85.5 153.5h772v82h-797q-16 78 -16 154q0 84 14 153h799v82h-776q61 184 225 297t424 113 q98 0 185 -19.5t149 -50.5l32 84q-35 16 -125 43t-247 27q-154 0 -277 -39t-217 -106.5t-157.5 -157.5t-96.5 -191h-176v-82h154q-8 -35 -11.5 -71.5t-3.5 -73.5q0 -90 15 -162h-154v-82z" />
<glyph unicode="&#x2122;" horiz-adv-x="1622" d="M20 1311h285v-746h78v746h285v69h-648v-69zM680 565h80l41 553q4 49 3 94t1 95h6q12 -47 28.5 -100.5t32.5 -92.5l209 -539h66l207 523q18 47 36 103l33 106h7q2 -47 -0.5 -99.5t2.5 -89.5l45 -553h82l-72 815h-101l-206 -522q-16 -39 -29.5 -88l-28.5 -108h-4l-29 107 q-13 48 -30 87l-211 524h-98z" />
<glyph unicode="&#xe000;" horiz-adv-x="985" d="M0 985h985v-985h-985v985z" />
<glyph unicode="&#xfb01;" horiz-adv-x="1044" d="M731 1294q0 -35 23 -61.5t59 -26.5q39 0 61.5 27t22.5 61q0 35 -23.5 61.5t-58.5 26.5t-59.5 -26.5t-24.5 -61.5zM764 0h101v983h-101v-983zM10 903h170v-1077q0 -43 -9 -86t-21.5 -77t-21.5 -54l-9 -21l100 -20l9 21q9 22 21.5 59t22 84t9.5 96v1075h268l20 80h-288v49 q0 74 10 142.5t36.5 120t74 82t122.5 30.5q49 0 82 -9t56 -22l32 78q-33 20 -100 33q-14 2 -29.5 3t-32.5 1q-139 0 -233 -88q-63 -59 -91 -152.5t-28 -220.5v-47h-149z" />
<glyph unicode="&#xfb02;" horiz-adv-x="1105" d="M764 494q0 -129 15.5 -232.5t85.5 -177.5q29 -31 66.5 -51.5t74.5 -31.5t67.5 -16t49.5 -5l10 90q-37 0 -93.5 20.5t-93.5 59.5q-23 23 -38 52t-24 75.5t-14 116t-5 173.5v899h-101v-972zM10 903h170v-1077q0 -43 -9 -86t-21.5 -77t-21.5 -54l-9 -21l100 -20l9 21 q9 22 21.5 59t22 84t9.5 96v1075h268l20 80h-288v49q0 74 10 142.5t36.5 120t74 82t122.5 30.5q49 0 82 -9t56 -22l32 78q-33 20 -100 33q-14 2 -29.5 3t-32.5 1q-139 0 -233 -88q-63 -59 -91 -152.5t-28 -220.5v-47h-149z" />
<glyph unicode="&#xfb03;" horiz-adv-x="1628" d="M1314 1294q0 -35 23 -61.5t59 -26.5q39 0 61.5 27t22.5 61q0 35 -23.5 61.5t-58.5 26.5t-59.5 -26.5t-24.5 -61.5zM1347 0h101v983h-101v-983zM594 903h170v-1077q0 -43 -9 -86t-21.5 -77t-21.5 -54l-9 -21l100 -20l9 21q9 22 21.5 59t22 84t9.5 96v1075h268l20 80h-288 v49q0 74 10 142.5t36.5 120t74 82t122.5 30.5q49 0 82 -9t56 -22l32 78q-33 20 -100 33q-14 2 -29.5 3t-32.5 1q-139 0 -233 -88q-63 -59 -91 -152.5t-28 -220.5v-47h-149zM10 903h170v-1077q0 -43 -9 -86t-21.5 -77t-21.5 -54l-9 -21l100 -20l9 21q9 22 21.5 59t22 84 t9.5 96v1075h268l20 80h-288v49q0 74 10 142.5t36.5 120t74 82t122.5 30.5q49 0 82 -9t56 -22l32 78q-33 20 -100 33q-14 2 -29.5 3t-32.5 1q-139 0 -233 -88q-63 -59 -91 -152.5t-28 -220.5v-47h-149z" />
<glyph unicode="&#xfb04;" horiz-adv-x="1689" d="M1347 494q0 -129 15.5 -232.5t85.5 -177.5q29 -31 66.5 -51.5t74.5 -31.5t67.5 -16t49.5 -5l10 90q-37 0 -93.5 20.5t-93.5 59.5q-23 23 -38 52t-24 75.5t-14 116t-5 173.5v899h-101v-972zM594 903h170v-1077q0 -43 -9 -86t-21.5 -77t-21.5 -54l-9 -21l100 -20l9 21 q9 22 21.5 59t22 84t9.5 96v1075h268l20 80h-288v49q0 74 10 142.5t36.5 120t74 82t122.5 30.5q49 0 82 -9t56 -22l32 78q-33 20 -100 33q-14 2 -29.5 3t-32.5 1q-139 0 -233 -88q-63 -59 -91 -152.5t-28 -220.5v-47h-149zM10 903h170v-1077q0 -43 -9 -86t-21.5 -77 t-21.5 -54l-9 -21l100 -20l9 21q9 22 21.5 59t22 84t9.5 96v1075h268l20 80h-288v49q0 74 10 142.5t36.5 120t74 82t122.5 30.5q49 0 82 -9t56 -22l32 78q-33 20 -100 33q-14 2 -29.5 3t-32.5 1q-139 0 -233 -88q-63 -59 -91 -152.5t-28 -220.5v-47h-149z" />
</font>
</defs>
</svg>
