<?xml version="1.0" standalone="no"?><!-- Generator: Adobe Fireworks CS6, Export SVG Extension by Aaron Beall (http://fireworks.abeall.com) . Version: 0.6.1  --><!DOCTYPE svg PUBLIC "-//W3C//DTD SVG 1.1//EN" "http://www.w3.org/Graphics/SVG/1.1/DTD/svg11.dtd"><svg id="mejs_images.fw-Page%201" viewBox="0 0 261 112" style="background-color:#ffffff00" version="1.1"	xmlns="http://www.w3.org/2000/svg" xmlns:xlink="http://www.w3.org/1999/xlink" xml:space="preserve"	x="0px" y="0px" width="261px" height="112px">	<g id="Layer%201">		<image visibility="hidden" x="0" y="0" width="261" height="112" xlink:href="mejs_images.svg.images/image1.png"/>		<g>			<path d="M 1.1094 12.9688 C 1.1875 13 1.2813 13 1.4063 12.9375 L 11.0469 7.5781 C 11.1406 7.5156 11.2031 7.4531 11.2031 7.3594 C 11.2031 7.2656 11.1406 7.1875 11.0469 7.125 L 1.4063 1.7813 C 1.2813 1.7188 1.1875 1.7188 1.1094 1.7656 C 1.0313 1.8125 1 1.8906 1 2.0156 L 1 12.7031 C 1 12.8281 1.0313 12.9063 1.1094 12.9688 L 1.1094 12.9688 Z" fill="#b9b9b9"/>		</g>		<g>			<path d="M 1.1094 29.9688 C 1.1875 30 1.2813 30 1.4063 29.9375 L 11.0469 24.5781 C 11.1406 24.5156 11.2031 24.4531 11.2031 24.3594 C 11.2031 24.2656 11.1406 24.1875 11.0469 24.125 L 1.4063 18.7813 C 1.2813 18.7188 1.1875 18.7188 1.1094 18.7656 C 1.0313 18.8125 1 18.8906 1 19.0156 L 1 29.7031 C 1 29.8281 1.0313 29.9063 1.1094 29.9688 L 1.1094 29.9688 Z" fill="#ffffff"/>		</g>		<g>			<path d="M 16.1875 25.7969 C 16.3125 25.9375 16.4531 26 16.6406 26 L 19.2813 26 L 22.625 29.5 C 22.75 29.6406 22.8906 29.9063 23.0625 29.9063 C 23.2344 29.9063 23.6719 29.8438 23.7969 29.7031 C 23.9219 29.5781 24 29.4219 24 29.2344 L 24 17.7656 C 24 17.5938 23.9219 17.4375 23.7969 17.2969 C 23.6719 17.1719 23.2344 17.0938 23.0625 17.0938 C 22.8906 17.0938 22.75 17.375 22.625 17.5 L 19.2813 21 L 16.6406 21 C 16.4531 21 16.3125 21.0781 16.1875 21.2031 C 16.0625 21.3438 16 21.2969 16 21.4844 L 16 25.5156 C 16 25.7031 16.0625 25.875 16.1875 26 L 16.1875 25.7969 ZM 25.1563 25.8438 C 25.25 25.9688 25.375 26.0313 25.5313 26.0313 C 25.5938 26.0313 25.6719 26.0156 25.7344 25.9844 C 26.1094 25.7969 26.4063 25.4688 26.6406 25 C 26.875 24.5313 27 24.0313 27 23.5 C 27 22.9688 26.875 22.4844 26.6406 22.0156 C 26.4063 21.5469 26.1094 21.2188 25.7344 21.0156 C 25.6719 20.9844 25.5938 20.9688 25.5313 20.9688 C 25.375 20.9688 25.25 21.0469 25.1563 21.1719 C 25.0469 21.2969 25 21.4531 25 21.6406 C 25 21.7969 25.0313 21.9219 25.0938 22.0156 C 25.1563 22.125 25.25 22.2188 25.3438 22.2813 C 25.4375 22.3594 25.5469 22.4375 25.6406 22.5313 C 25.7344 22.625 25.8281 22.75 25.8906 22.9063 C 25.9531 23.0625 26 23.2656 26 23.5 C 26 23.75 25.9531 23.9531 25.8906 24.1094 C 25.8281 24.2656 25.7344 24.3906 25.6406 24.4844 C 25.5469 24.5781 25.4375 24.6563 25.3438 24.7188 C 25.25 24.7969 25.1563 24.8906 25.0938 24.9844 C 25.0313 25.0938 25 25.2188 25 25.3594 C 25 25.5469 25.0469 25.7188 25.1563 25.8438 L 25.1563 25.8438 ZM 26.1875 28.3125 C 26.3125 28.4531 26.4688 28.5156 26.6563 28.5156 C 26.7188 28.5156 26.8125 28.5 26.9063 28.4688 C 27.8281 28.0625 28.5781 27.3906 29.1406 26.4844 C 29.7031 25.5781 30 24.5781 30 23.5 C 30 22.4375 29.7031 21.4375 29.1406 20.5313 C 28.5781 19.625 27.8281 18.9531 26.9063 18.5313 C 26.8125 18.5 26.7188 18.4844 26.6406 18.4844 C 26.4531 18.4844 26.3125 18.5625 26.1875 18.6875 C 26.0625 18.8281 26 18.9844 26 19.1563 C 26 19.4375 26.1406 19.6406 26.4375 19.7813 C 26.8438 20 27.1094 20.1563 27.2656 20.25 C 27.7969 20.625 28.2188 21.1094 28.5313 21.6719 C 28.8438 22.25 29 22.8594 29 23.5 C 29 24.1563 28.8438 24.7656 28.5313 25.3281 C 28.2188 25.9063 27.7969 26.375 27.2656 26.75 C 27.1094 26.8594 26.8438 27.0156 26.4375 27.2188 C 26.1406 27.375 26 27.5781 26 27.8438 C 26 28.0313 26.0625 28.1875 26.1875 28.3125 L 26.1875 28.3125 ZM 27.1719 30.7969 C 27.2813 30.9219 27.4219 31 27.5781 31 C 27.6406 31 27.7188 30.9844 27.8125 30.9531 C 29.0781 30.2969 30.0938 29.3125 30.8594 27.9531 C 31.6094 26.6094 32 25.125 32 23.5 C 32 21.8906 31.6094 20.4063 30.8594 19.0469 C 30.0938 17.7031 29.0781 16.7031 27.8125 16.0469 C 27.7188 16.0156 27.6406 16 27.5781 16 C 27.4219 16 27.2813 16.0781 27.1719 16.2031 C 27.0469 16.3438 27 16.5 27 16.6719 C 27 16.9375 27.1094 17.1406 27.3594 17.2969 C 27.4063 17.3281 27.4844 17.375 27.5781 17.4219 C 27.6719 17.4688 27.7344 17.5 27.7813 17.5156 C 28.0625 17.7031 28.3281 17.875 28.5625 18.0625 C 29.3125 18.7031 29.9063 19.5 30.3438 20.4531 C 30.7813 21.4219 31 22.4375 31 23.5 C 31 24.5781 30.7813 25.5938 30.3438 26.5469 C 29.9063 27.5156 29.3125 28.3125 28.5625 28.9375 C 28.3281 29.125 28.0625 29.3125 27.7813 29.4844 C 27.7344 29.5156 27.6719 29.5469 27.5781 29.5938 C 27.4844 29.6406 27.4063 29.6719 27.3594 29.7031 C 27.1094 29.8594 27 30.0625 27 30.3281 C 27 30.5 27.0469 30.6563 27.1719 30.7969 L 27.1719 30.7969 Z" fill="#cccccc"/>		</g>		<path d="M 16.1875 10.7969 C 16.3125 10.9375 16.4531 11 16.6406 11 L 19.2813 11 L 22.625 14.5 C 22.75 14.6406 22.8906 14.9063 23.0625 14.9063 C 23.2344 14.9063 23.6719 14.8438 23.7969 14.7031 C 23.9219 14.5781 24 14.4219 24 14.2344 L 24 2.7656 C 24 2.5938 23.9219 2.4375 23.7969 2.2969 C 23.6719 2.1719 23.2344 2.0938 23.0625 2.0938 C 22.8906 2.0938 22.75 2.375 22.625 2.5 L 19.2813 6 L 16.6406 6 C 16.4531 6 16.3125 6.0781 16.1875 6.2031 C 16.0625 6.3438 16 6.2969 16 6.4844 L 16 10.5156 C 16 10.7031 16.0625 10.875 16.1875 11 L 16.1875 10.7969 Z" fill="#cccccc"/>	</g></svg>