<svg xmlns="http://www.w3.org/2000/svg" viewBox="0 0 512 512"><path d="M256 4.877c-138.69 0-251.123 112.425-251.123 251.123 0 138.681 112.433 251.123 251.123 251.123 138.689 0 251.123-112.442 251.123-251.123 0-138.698-112.434-251.123-251.123-251.123zm219.104 235.397h-90.914c-1.372-38.104-7.671-73.74-17.78-104.747 17.366-8.537 33.598-18.99 48.419-31.13 34.295 35.912 56.543 83.35 60.275 135.877zm-203.409-201.739c30.363 8.645 57.262 41.89 75.004 88.669-23.343 9.794-48.58 15.925-75.004 17.672v-106.341zm39.407 4.721c34.9 9.058 66.459 26.486 92.393 50.013-13.066 10.53-27.259 19.727-42.396 27.314-12.706-33.031-29.903-59.823-49.997-77.327zm-70.797-4.721v106.341c-26.424-1.747-51.661-7.848-74.997-17.641 17.734-46.78 44.626-80.04 74.997-88.7zm-89.382 82.033c-15.136-7.603-29.374-16.738-42.449-27.283 25.95-23.543 57.539-40.986 92.47-50.028-20.102 17.488-37.314 44.28-50.021 77.311zm89.382 40.05v79.656h-96.77c1.357-35.499 7.25-68.958 16.562-98.126 24.953 10.346 51.952 16.722 80.208 18.47zm0 111.047v85.327c-27.635 1.701-54.044 7.878-78.537 17.81-10.269-30.333-16.799-65.6-18.232-103.137h96.769zm0 101.068v100.654c-29.291-8.353-55.348-39.59-73.081-83.794 22.807-9.319 47.385-15.159 73.081-16.86zm-39.254 96.041c-33.475-8.661-63.854-25.061-89.175-47.132 12.668-9.84 26.348-18.439 40.878-25.566 12.531 30.946 29.107 56.037 48.297 72.698zm70.644 4.629v-100.67c25.704 1.701 50.289 7.51 73.096 16.845-17.733 44.219-43.798 75.471-73.096 83.825zm87.55-77.296c14.531 7.142 28.241 15.68 40.901 25.52-25.32 22.071-55.684 38.472-89.159 47.132 19.167-16.646 35.735-41.737 48.258-72.652zm-87.55-39.115v-85.327h96.777c-1.441 37.537-7.962 72.805-18.224 103.122-24.494-9.948-50.917-16.078-78.553-17.795zm0-116.718v-79.656c28.263-1.763 55.247-8.169 80.208-18.516 9.311 29.183 15.212 62.658 16.569 98.172h-96.777zm-174.548-135.861c14.837 12.139 31.084 22.592 48.45 31.13-10.101 31.007-16.408 66.628-17.78 104.732h-90.922c3.732-52.512 25.98-99.951 60.252-135.862zm-60.259 167.252h90.929c1.441 40.096 8.369 77.449 19.42 109.575-16.822 8.108-32.586 18.024-47.071 29.505-36.019-36.28-59.446-85.006-63.278-139.08zm374.929 139.095c-14.469-11.48-30.241-21.382-47.047-29.49 11.051-32.141 17.972-69.494 19.42-109.606h90.922c-3.832 54.075-27.267 102.816-63.295 139.096z"/></svg>