<svg xmlns="http://www.w3.org/2000/svg" viewBox="0 0 512 512"><path d="M445.097 106.188c-6.131-6.127-16.062-6.127-22.194 0-6.131 6.127-6.131 16.067 0 22.195 70.376 70.383 70.376 184.893 0 255.261-6.131 6.131-6.131 16.071 0 22.194 3.065 3.066 7.081 4.599 11.097 4.599 4.016 0 8.031-1.533 11.096-4.599 82.616-82.606 82.616-217.035.001-299.65zm-44.395 44.392c-6.131-6.131-16.063-6.131-22.194 0-6.131 6.127-6.131 16.066 0 22.19 45.898 45.905 45.898 120.588.008 166.486-6.131 6.131-6.131 16.062 0 22.194 3.065 3.065 7.081 4.598 11.096 4.598 4.016 0 8.032-1.533 11.097-4.598 58.137-58.136 58.129-152.737-.007-210.87zm-44.396 44.392c-6.131-6.123-16.063-6.123-22.195.008-6.131 6.131-6.131 16.063 0 22.194 21.42 21.412 21.42 56.267.008 77.694-6.131 6.131-6.131 16.063 0 22.194 3.066 3.066 7.082 4.599 11.097 4.599 4.016 0 8.031-1.533 11.097-4.599 33.659-33.659 33.652-88.431-.007-122.09zm-54.956-188.871c-1.954-.82-4.016-1.222-6.061-1.222-4.031 0-8.008 1.551-11.005 4.49l-139.419 136.767h-92.838c-26.002 0-47.086 21.083-47.086 47.082v125.562c0 26.01 21.083 47.086 47.086 47.086h95.673l136.467 136.659c3.004 3.004 7.02 4.598 11.104 4.598 2.023 0 4.062-.383 6.001-1.188 5.87-2.429 9.694-8.154 9.694-14.507v-470.854c.002-6.323-3.792-12.024-9.616-14.473zm-186.542 171.421v156.952h-31.39v-156.952h31.39zm-78.476 141.257v-125.562c0-8.645 7.043-15.695 15.695-15.695h15.695v156.952h-15.695c-8.652 0-15.695-7.035-15.695-15.695zm243.245 134.727l-109.667-109.82c-5.886-5.901-13.878-9.212-22.209-9.212h-17.197v-156.952h14.362c8.223 0 16.117-3.219 21.98-8.982l112.731-110.582v395.548z"/></svg>