<svg xmlns="http://www.w3.org/2000/svg" viewBox="0 0 512 512"><path d="M256 4.877c-138.698 0-251.123 112.433-251.123 251.123 0 138.689 112.425 251.123 251.123 251.123 138.697 0 251.123-112.434 251.123-251.123 0-138.69-112.426-251.123-251.123-251.123zm0 470.856c-121.163 0-219.733-98.571-219.733-219.733 0-121.163 98.57-219.733 219.733-219.733 121.162 0 219.733 98.57 219.733 219.733 0 121.162-98.571 219.733-219.733 219.733zm.015-392.38c4.337 0 7.848-3.518 7.848-7.848s-3.51-7.848-7.848-7.848c-103.858.001-188.342 84.493-188.342 188.343 0 4.33 3.51 7.848 7.848 7.848 4.337 0 7.848-3.518 7.848-7.848-.001-95.198 77.447-172.647 172.646-172.647zm180.495 164.799c-4.337 0-7.848 3.517-7.848 7.848 0 95.198-77.449 172.647-172.647 172.647-4.337 0-7.848 3.517-7.848 7.848 0 4.329 3.51 7.848 7.848 7.848 103.843 0 188.342-84.492 188.342-188.342 0-4.331-3.51-7.849-7.847-7.849zm-180.495-133.409c4.337 0 7.848-3.518 7.848-7.848s-3.51-7.848-7.848-7.848c-86.554 0-156.952 70.406-156.952 156.952 0 4.33 3.51 7.848 7.848 7.848 4.337 0 7.848-3.518 7.848-7.848-.001-77.885 63.362-141.256 141.256-141.256zm0 282.514c-4.337 0-7.848 3.517-7.848 7.848 0 4.33 3.51 7.848 7.848 7.848 86.538 0 156.952-70.406 156.952-156.952 0-4.33-3.51-7.848-7.848-7.848-4.337 0-7.848 3.517-7.848 7.848.001 77.885-63.378 141.256-141.256 141.256zm0-251.123c4.337 0 7.848-3.518 7.848-7.848s-3.51-7.848-7.848-7.848c-69.234 0-125.562 56.328-125.562 125.562 0 4.33 3.51 7.848 7.848 7.848 4.337 0 7.848-3.518 7.848-7.848 0-60.582 49.293-109.866 109.866-109.866zm0 219.732c-4.337 0-7.848 3.517-7.848 7.848 0 4.33 3.51 7.848 7.848 7.848 69.234 0 125.562-56.329 125.562-125.562 0-4.33-3.51-7.848-7.848-7.848s-7.848 3.517-7.848 7.848c0 60.581-49.292 109.866-109.866 109.866zm0-188.342c4.337 0 7.848-3.518 7.848-7.848s-3.51-7.848-7.848-7.848c-51.929 0-94.171 42.25-94.171 94.171 0 4.33 3.51 7.848 7.848 7.848s7.848-3.518 7.848-7.848c-.001-43.276 35.206-78.475 78.475-78.475zm0 156.952c-4.337 0-7.848 3.517-7.848 7.848 0 4.329 3.51 7.848 7.848 7.848 51.929 0 94.171-42.25 94.171-94.171 0-4.33-3.51-7.848-7.848-7.848s-7.848 3.517-7.848 7.848c.001 43.275-35.206 78.475-78.475 78.475zm62.766-78.476c0-34.671-28.095-62.781-62.781-62.781-34.671 0-62.781 28.11-62.781 62.781 0 34.678 28.11 62.781 62.781 62.781 34.686 0 62.781-28.103 62.781-62.781zm-94.171 0c0-17.313 14.086-31.39 31.39-31.39 17.32 0 31.39 14.078 31.39 31.39s-14.071 31.39-31.39 31.39c-17.305 0-31.39-14.078-31.39-31.39zm39.253 0c0-4.33-3.51-7.848-7.848-7.848-4.337 0-7.848 3.517-7.848 7.848 0 4.33 3.51 7.848 7.848 7.848 4.337 0 7.848-3.518 7.848-7.848z"/></svg>