<svg xmlns="http://www.w3.org/2000/svg" viewBox="0 0 512 512"><path d="M256.015 153.97c-56.343 0-102.019 45.675-102.019 102.019s45.675 102.019 102.019 102.019 102.019-45.675 102.019-102.019-45.675-102.019-102.019-102.019zm0 172.647c-38.947 0-70.628-31.682-70.628-70.628 0-38.939 31.682-70.628 70.628-70.628 38.947 0 70.628 31.689 70.628 70.628.001 38.946-31.681 70.628-70.628 70.628zm-16.553-123.086c-17.519 5.449-31.098 19.198-36.318 36.778-1.234 4.154 1.134 8.522 5.296 9.748.743.23 1.495.337 2.23.337 3.387 0 6.514-2.208 7.526-5.625 3.724-12.545 13.412-22.363 25.926-26.248 4.138-1.288 6.453-5.686 5.165-9.825-1.288-4.13-5.664-6.452-9.825-5.165zm264.902 43.598c-4.353-6.368-108.303-155.933-248.349-155.933-140.077 0-244.027 149.571-248.38 155.933-3.655 5.349-3.655 12.384 0 17.733 4.353 6.361 108.303 155.94 248.38 155.94 140.046 0 243.996-149.579 248.349-155.948 3.656-5.34 3.656-12.383 0-17.725zm-248.349 142.284c-105.168 0-191.937-102.279-215.909-133.416 23.972-31.13 110.741-133.409 215.909-133.409 105.153 0 191.937 102.302 215.886 133.416-23.911 31.129-110.503 133.409-215.886 133.409z"/></svg>