<svg xmlns="http://www.w3.org/2000/svg" viewBox="0 0 512 512"><path d="M83.383 224.521c43.345 0 78.476-35.138 78.476-78.476s-35.131-78.468-78.476-78.468c-43.346 0-78.476 35.131-78.476 78.468 0 43.338 35.13 78.476 78.476 78.476zm0-125.554c25.965 0 47.086 21.121 47.086 47.078 0 25.958-21.121 47.086-47.086 47.086s-47.086-21.128-47.086-47.086c.001-25.957 21.122-47.078 47.086-47.078zm219.703 125.631c60.673 0 109.866-49.186 109.866-109.859 0-60.674-49.194-109.866-109.866-109.866-60.682 0-109.866 49.193-109.866 109.866-.001 60.673 49.184 109.859 109.866 109.859zm0-188.335c43.268 0 78.476 35.207 78.476 78.476s-35.208 78.468-78.476 78.468c-43.269 0-78.476-35.199-78.476-78.468s35.206-78.476 78.476-78.476zm172.647 251.131c-6.905 0-13.236 2.292-18.416 6.077v-.108l-60.06 44.373v-34.646c0-26.003-21.083-47.086-47.086-47.086h-298.209c-26.003 0-47.086 21.083-47.086 47.086v156.952c0 26.002 21.082 47.086 47.086 47.086h298.209c26.002 0 47.086-21.083 47.086-47.086v-35.23l60.819 45.476c5.027 3.433 11.104 5.449 17.657 5.449 17.335 0 31.39-14.048 31.39-31.39v-125.562c0-17.343-14.055-31.391-31.39-31.391zm-109.867 50.343v122.304c0 8.652-7.043 15.695-15.695 15.695h-298.209c-8.653 0-15.695-7.043-15.695-15.695v-156.951c0-8.653 7.042-15.695 15.695-15.695h298.209c8.652 0 15.695 7.042 15.695 15.695v34.647zm50.19 61.938l-24.754-18.5 84.431-62.383.045 125.531-59.722-44.648z"/></svg>