<svg xmlns="http://www.w3.org/2000/svg" viewBox="0 0 512 512"><path d="M400.64 239.753c24.884-18.73 43.453-51.852 43.453-89.711 0-58.52-41.499-105.958-90.262-105.958-37.935 0-71.357 28.77-84.37 69.065-16.584-40.709-52.32-69.003-92.209-69.003-54.864 0-101.965 51.315-101.965 117.147 0 42.594 21.305 81.924 49.316 103-69.31 22.254-119.493 87.212-119.508 163.91.015 21.933 17.802 39.714 39.736 39.714h264.887c21.933 0 39.721-17.78 39.736-39.714 0-2.498-.199-4.95-.307-7.434h122.435c19.496 0 35.306-15.802 35.321-35.299-.013-68.192-44.639-125.93-106.263-145.717zm-105.176-98.586c.137-1.456.33-2.897.536-4.337.261-1.732.567-3.448.935-5.15.184-.905.352-1.839.574-2.729 3.641-14.622 11.059-27.758 20.569-37.567 10.062-9.932 22.539-15.91 35.751-15.91 13.158 0 25.604 5.948 35.651 15.803 9.565 9.825 17.044 23.007 20.707 37.705.207.859.368 1.748.552 2.621.368 1.732.682 3.495.95 5.257.207 1.426.399 2.851.537 4.292.176 1.839.283 3.678.337 5.533.031.95.108 1.869.115 2.82-.008.95-.084 1.886-.115 2.836-.053 1.854-.161 3.694-.337 5.518-.138 1.456-.33 2.882-.537 4.307-.268 1.763-.582 3.51-.95 5.257-.184.874-.345 1.748-.552 2.621-3.663 14.684-11.143 27.865-20.707 37.69-10.047 9.871-22.493 15.802-35.651 15.802-13.212 0-25.689-5.978-35.751-15.909-9.51-9.795-16.929-22.93-20.569-37.552-.222-.904-.391-1.824-.574-2.728-.368-1.701-.675-3.433-.935-5.165-.206-1.426-.399-2.867-.536-4.338-.177-1.808-.284-3.648-.337-5.502-.031-.935-.108-1.87-.115-2.836.007-.95.084-1.885.115-2.835.053-1.84.161-3.679.337-5.504zm-21.121 57.141c7.817 16.967 19.259 31.36 32.685 41.46-21.19 6.805-40.334 18.148-56.351 32.846-6.713-3.173-13.61-6.039-20.768-8.338 19.987-15.036 36.556-38.363 44.434-65.968zm-166.946-25.413v-.046c-.475-3.832-.72-7.68-.72-11.542v-.046c.008-26.516 11.665-51.592 28.272-68.222 11.993-10.99 26.753-17.503 42.303-17.503 19.305 0 37.437 10.514 50.519 27.282 9.986 13.703 17.205 30.961 19.412 48.909l.008.046c.468 3.832.713 7.695.713 11.541v.062c-.008 26.501-11.664 51.577-28.248 68.207-12.001 10.99-26.761 17.504-42.326 17.504-19.305 0-37.437-10.514-50.519-27.283-9.987-13.687-17.206-30.961-19.414-48.909zm202.322 263.631h-264.887c-4.599 0-8.346-3.74-8.346-8.323.015-61.401 39.276-115.262 97.712-134.022l3.87-1.241c21.006-6.744 56.696-8.338 78.445.015l3.809 1.227c58.45 18.746 97.727 72.605 97.743 134.007 0 4.597-3.748 8.337-8.346 8.337zm161.864-47.148h-126.627c-9.411-40.74-33.237-75.947-65.885-99.919 11.02-8.568 23.658-15.343 37.552-19.803l9.786-3.142c7.817-2.621 34.655-6.882 54.642-.077l9.994 3.203c50.511 16.216 84.454 62.766 84.468 115.798.001 2.178-1.761 3.94-3.93 3.94z"/></svg>