<svg xmlns="http://www.w3.org/2000/svg" viewBox="0 0 416 512"><path d="M270.382 265.777c33.169-24.98 55.301-69.146 55.301-119.615 0-78.012-52.695-141.257-117.714-141.257-65.003 0-117.714 63.245-117.714 141.257 0 50.48 22.133 94.65 55.332 119.63-82.139 26.371-141.609 103.341-141.625 194.236.016 25.995 21.09 47.067 47.086 47.067h313.904c25.995 0 47.071-21.072 47.086-47.067-.015-90.911-59.501-167.892-141.656-194.251zm15.389-166.892c-56.221-2.686-101.605-19.205-124.366-45.086 13.442-11.024 29.414-17.503 46.565-17.503 34.286 0 63.884 25.643 77.801 62.589zm-164.125 47.277c0-25.957 7.143-49.799 19.021-68.621 30.578 32.218 85.251 51.439 152.645 52.987.582 5.123.981 10.315.981 15.634 0 60.581-38.717 109.866-86.324 109.866-47.591.001-86.323-49.285-86.323-109.866zm243.306 329.542h-313.904c-8.645 0-15.68-7.039-15.695-15.669.015-95.182 77.464-172.616 172.647-172.616s172.632 77.434 172.647 172.59c0 8.656-7.035 15.695-15.695 15.695z"/></svg>