<svg xmlns="http://www.w3.org/2000/svg" viewBox="0 0 512 512"><path d="M193.234 378.818v26.225c0 8.675 7.028 15.695 15.695 15.695s15.695-7.02 15.695-15.695v-26.225c18.27-6.468 31.39-23.865 31.39-44.342 0-25.995-21.09-47.086-47.093-47.086-25.995 0-47.078 21.09-47.078 47.086.001 20.492 13.121 37.874 31.391 44.342zm15.688-60.037c8.66 0 15.703 7.035 15.703 15.695 0 8.645-7.043 15.695-15.703 15.695-8.652 0-15.687-7.05-15.687-15.695-.001-8.66 7.035-15.695 15.687-15.695zm-141.249-141.257h-15.695c-26.003 0-47.086 21.075-47.086 47.086v235.428c0 26.01 21.083 47.086 47.086 47.086h313.904c26.002 0 47.086-21.076 47.086-47.086v-235.428c0-24.8-19.19-45.077-43.515-46.902l-301.78-.184zm298.209 31.39c8.652 0 15.695 7.035 15.695 15.695v235.428c0 8.66-7.043 15.695-15.695 15.695h-313.904c-8.653 0-15.695-7.035-15.695-15.695v-235.427c0-8.66 7.042-15.695 15.695-15.695h313.904zm15.664-204.037c-69.348 0-125.562 56.205-125.562 125.562v47.086h.031v.184l62.505-.046v-12.829h.215v-34.364c0-34.64 28.179-62.811 62.811-62.811s62.811 28.171 62.811 62.811v39.269h-.031v7.786h-.246v.046h.246v15.71l62.781-15.756v-47.086c.001-69.357-56.212-125.562-125.561-125.562zm0 47.085c-43.361 0-78.507 35.145-78.507 78.507v47.055h-15.665v-47.086c0-51.929 42.242-94.171 94.171-94.171s94.171 42.242 94.171 94.171v23.604l-15.665 3.433v-27.007c.002-43.36-35.144-78.506-78.505-78.506z"/></svg>