<svg xmlns="http://www.w3.org/2000/svg" viewBox="0 0 512 512"><path d="M271.665 40.765v-16.239c0-8.668-7.028-15.695-15.695-15.695s-15.695 7.028-15.695 15.695v16.239c-131.165 8.155-235.398 117.401-235.398 250.584 0 6.767.322 9.453.973 17.159.698 8.124 7.487 14.362 15.642 14.362h1.103c8.668 0 15.687-7.288 15.687-15.956 0-23.52 20.156-39.319 43.675-39.319 23.512 0 41.621 15.657 41.637 39.165l-.008.28c0 8.668 7.028 15.695 15.695 15.695h.024c8.667 0 15.695-7.028 15.695-15.695l-.016-.33c.038-23.486 19.159-38.904 42.656-38.904 23.351 0 42.365 15.231 42.634 38.467v149.81c0 25.965 21.121 47.086 47.086 47.086s47.086-21.121 47.086-47.086c0-8.668-7.028-15.695-15.695-15.695-8.668 0-15.695 7.028-15.695 15.695 0 8.656-7.043 15.695-15.695 15.695-8.653 0-15.695-7.039-15.695-15.695v-148.583l.046-.456-.008-.33c.031-23.486 19.152-38.908 42.649-38.908 23.504 0 42.626 15.419 42.663 38.908l-.015.33c0 8.668 7.028 15.695 15.695 15.695h.023c5.418 0 10.147-2.878 12.967-7.127l.122-.207c.452-.698.851-1.425 1.188-2.192.137-.31.253-.633.375-.954.207-.578.399-1.157.544-1.759.107-.433.176-.87.246-1.311.046-.31.145-.605.177-.92l.031-.399c.023-.356.038-.713.038-1.073v-.011c0-23.524 19.129-38.981 42.649-38.981 23.528 0 42.663 15.457 42.671 38.426l-.015.812c0 8.668 7.028 15.695 15.695 15.695h1.103c8.154 0 14.944-6.238 15.641-14.362.652-7.706.974-10.262.974-17.029-.002-133.204-104.267-242.462-235.46-250.582zm159.388 196.455c-23.673 0-44.778 11.166-58.344 28.509-13.565-17.342-34.686-28.509-58.359-28.509-23.673 0-44.786 11.166-58.351 28.509-13.565-17.342-34.686-28.509-58.359-28.509s-44.786 11.166-58.351 28.509c-13.565-17.342-34.678-28.509-58.351-28.509-15.006 0-28.984 4.487-40.656 12.201 19.62-101.18 108.886-177.805 215.718-177.805 106.824 0 196.082 76.621 215.717 177.793-11.679-7.702-25.658-12.189-40.664-12.189z"/></svg>