<svg xmlns="http://www.w3.org/2000/svg" viewBox="0 0 512 512"><path d="M503.383 154.341l-95.604-95.52c-8.576-9.028-20.669-14.684-34.095-14.684h-40.817c-7.265 35.82-38.931 62.781-76.897 62.781s-69.632-26.96-76.898-62.781h-40.816c-13.412 0-25.49 5.641-34.066 14.638h-.007l-95.566 95.566c-5.035 5.027-5.027 13.197 0 18.224l82.554 82.553v14.147h-.031v175.055c0 12.997 10.537 23.543 23.543 23.543h282.514c13.005 0 23.543-10.546 23.543-23.543v-75.763h.031v-113.377l82.614-82.614c5.026-5.028 5.034-13.197-.002-18.225zm-82.614 56.436v-33.214h-.031v-23.559c0-8.66-7.028-15.695-15.695-15.695-8.668 0-15.695 7.035-15.695 15.695v26.486l.031.307v88.469h-.031v167.206h-266.818v-67.915h.031v-214.553c0-8.66-7.028-15.695-15.695-15.695s-15.695 7.035-15.695 15.695v56.712l-47.278-47.27 83.029-83.012c.177-.184.352-.368.537-.536l.629-.629.023.092c2.744-2.345 6.261-3.832 10.147-3.832h18.446c17.864 37.537 56.252 62.781 99.268 62.781s81.403-25.244 99.267-62.781h18.447c4.031 0 7.679 1.579 10.461 4.093l.023-.108 6.783 6.775.007.016 77.151 77.142-47.342 47.33z"/></svg>