<svg xmlns="http://www.w3.org/2000/svg" viewBox="0 0 512 512"><path d="M161.829 287.423c-17.32 0-31.39 14.051-31.39 31.39s14.07 31.39 31.39 31.39c17.335 0 31.39-14.052 31.39-31.39 0-17.339-14.056-31.39-31.39-31.39zm188.311 0c-17.32 0-31.39 14.051-31.39 31.39s14.071 31.39 31.39 31.39c17.335 0 31.39-14.052 31.39-31.39 0-17.339-14.055-31.39-31.39-31.39zm125.593-282.518h-439.466c-17.335 0-31.39 14.051-31.39 31.39v329.599c0 17.339 14.055 31.39 31.39 31.39h43.207c5.273 5.859 11.971 10.376 19.573 13.009v34.019c0 34.67 28.11 62.781 62.781 62.781 34.67 0 62.781-28.111 62.781-62.781v-31.394h62.749v31.394c0 34.67 28.111 62.781 62.781 62.781 34.671 0 62.781-28.111 62.781-62.781v-34.23c7.373-2.659 13.871-7.089 19.006-12.798h43.806c17.335 0 31.39-14.051 31.39-31.39v-329.598c.001-17.339-14.055-31.391-31.389-31.391zm-63.088 360.929c0 8.652-7.035 15.695-15.695 15.695h-282.514c-8.645 0-15.695-7.043-15.695-15.695v-235.424c0-8.657 7.05-15.695 15.695-15.695h282.514c8.66 0 15.695 7.039 15.695 15.695v235.424zm-219.426 78.48c0 17.308-14.086 31.39-31.39 31.39-17.305 0-31.39-14.083-31.39-31.39v-31.394h62.781v31.394zm156.921 31.39c-17.304 0-31.39-14.083-31.39-31.39v-31.394h62.781v31.394c-.001 17.308-14.086 31.39-31.391 31.39zm125.593-109.809h-31.697v-235.485c0-26.007-21.076-47.086-47.086-47.086h-282.514c-25.995 0-47.086 21.079-47.086 47.086v235.485h-31.083v-329.599h439.466v329.599zm-109.867-219.668h-219.732c-8.661 0-15.695 7.028-15.695 15.695v109.805h251.123v-109.804c0-8.668-7.021-15.696-15.696-15.696zm0 109.806h-219.732v-94.11h219.733v94.11z"/></svg>