<svg xmlns="http://www.w3.org/2000/svg" viewBox="0 0 512 512"><path d="M68.233 507.223c-16.768 0-32.532-6.53-44.396-18.385-11.856-11.857-18.385-27.628-18.385-44.396 0-16.769 6.529-32.532 18.385-44.388l194.013-194.013c-20.286-54.267-7.235-116.4 34.073-157.704 28.087-28.09 65.455-43.56 105.214-43.56 21.55 0 43.247 4.763 62.742 13.772 4.66 2.149 7.971 6.441 8.867 11.495.905 5.05-.72 10.223-4.353 13.848l-65.869 65.866 7.403 36.993 36.985 7.403 65.302-65.302c3.648-3.666 8.852-5.284 13.987-4.33 5.088.954 9.38 4.353 11.472 9.093 25.045 56.78 12.92 121.783-30.885 165.589-28.102 28.102-65.486 43.583-105.253 43.583-17.274 0-34.118-2.912-50.205-8.66l-194.71 194.703c-11.855 11.863-27.62 18.393-44.387 18.393zm288.904-471.055c-31.375 0-60.857 12.204-83.021 34.364-34.67 34.67-44.112 87.96-23.497 132.604 2.758 5.963 1.502 13.029-3.15 17.673l-201.438 201.438c-5.924 5.932-9.189 13.81-9.189 22.195 0 8.384 3.265 16.27 9.189 22.194 5.931 5.931 13.817 9.197 22.202 9.197 8.384 0 16.262-3.265 22.194-9.197l202.007-202c4.575-4.575 11.472-5.886 17.427-3.265 15.082 6.652 31.122 10.025 47.676 10.025 31.383 0 60.88-12.216 83.059-34.387 28.823-28.831 40.265-69.302 31.804-107.95l-53.232 53.228c-3.717 3.713-9.02 5.33-14.177 4.296l-55.485-11.105c-6.207-1.241-11.067-6.096-12.308-12.311l-11.097-55.489c-1.034-5.146.583-10.465 4.292-14.174l54.113-54.117c-8.961-2.124-18.18-3.219-27.369-3.219z"/></svg>