<svg xmlns="http://www.w3.org/2000/svg" viewBox="0 0 512 512"><path d="M420.784 138.317c-17.335 0-31.383 31.635-31.383 70.628 0 39.008 14.047 70.628 31.383 70.628 17.335 0 31.398-31.62 31.398-70.628.001-38.993-14.062-70.628-31.398-70.628zm0 125.469c-4.629-2.208-15.687-21.183-15.687-54.841 0-33.659 11.059-52.619 15.687-54.841 4.629 2.208 15.703 21.182 15.703 54.841 0 33.674-11.073 52.634-15.703 54.841zm86.324-54.841c0-99.613-38.587-180.372-86.232-180.495h-329.936l-.384.031c-47.376.751-85.664 81.235-85.664 180.464v258.91c0 6.346 3.824 12.063 9.687 14.499 1.947.797 3.985 1.196 6.008 1.196 4.085 0 8.093-1.595 11.097-4.599l35.988-35.988 35.989 35.988c6.131 6.131 16.062 6.131 22.194 0l35.988-35.988 35.973 35.973c6.131 6.131 16.063 6.131 22.194 0l35.973-35.973 35.989 35.988c6.131 6.131 16.062 6.131 22.194 0l47.086-47.086c2.943-2.943 4.598-6.943 4.598-11.097v-31.328h55.425l.46-.046c47.246-1.073 85.373-81.419 85.373-180.449zm-204.038 236.715l-35.988-35.988c-6.131-6.131-16.063-6.131-22.194 0l-35.973 35.973-35.973-35.973c-6.131-6.131-16.063-6.131-22.194 0l-35.989 35.988-35.989-35.988c-6.131-6.131-16.063-6.131-22.194 0l-20.294 20.293v-213.172h.185c-.054-2.621-.185-5.165-.185-7.848 0-92.071 35.238-148.553 54.658-149.059v-.046h281.195c-22.745 32.494-37.675 87.152-37.675 149.104v31.39h-54.91c-4.338 0-7.848 3.51-7.848 7.848 0 4.337 3.509 7.848 7.848 7.848h54.91v158.24l-31.39 31.39zm117.738-87.611h-54.957v-141.256h.184c-.054-2.621-.184-5.165-.184-7.848 0-92.5 35.568-149.104 54.933-149.104 19.366 0 54.933 56.604 54.933 149.104 0 92.47-35.544 149.058-54.909 149.104zm-306.049-117.714h-54.934c-4.337 0-7.848 3.51-7.848 7.848 0 4.337 3.51 7.848 7.848 7.848h54.933c4.338 0 7.848-3.51 7.848-7.848 0-4.337-3.509-7.848-7.847-7.848zm109.835 0h-54.933c-4.337 0-7.848 3.51-7.848 7.848 0 4.337 3.51 7.848 7.848 7.848h54.933c4.338 0 7.848-3.51 7.848-7.848 0-4.337-3.51-7.848-7.848-7.848z"/></svg>