<svg xmlns="http://www.w3.org/2000/svg" viewBox="0 0 512 512"><path d="M240.709 193.623c-3.057-3.061-7.074-4.594-11.097-4.594-4.016 0-8.031 1.533-11.096 4.594l-133.18 133.18c-6.131 6.134-6.131 16.066 0 22.19l77.686 77.694c3.065 3.065 7.081 4.598 11.097 4.598 4.016 0 8.031-1.533 11.097-4.598l133.179-133.179c6.131-6.127 6.131-16.063 0-22.198l-77.686-77.687zm-66.589 221.967l-77.687-77.687 133.164-133.179h.015l77.687 77.687-133.179 133.179zm325.997-403.73c-9.182-9.181-24.118-9.181-33.299 0l-92.914 92.915-20.746-20.75c-.429-.379-.881-.797-1.402-1.318-9.587-9.587-22.171-11.148-28.095-11.159h-55.271c-11.771.011-22.224 5.64-27.681 11.097l-221.917 221.922c-18.393 18.385-18.393 48.2 0 66.585l122.074 122.083c9.189 9.192 21.244 13.791 33.299 13.791 12.048 0 24.094-4.599 33.291-13.791l221.925-221.921c10.415-10.419 11.112-22.049 11.12-29.762v-53.193c-.008-15.056-5.472-22.466-11.104-28.091l-22.195-22.195 92.915-92.922c9.181-9.177 9.181-24.11 0-33.291zm-91.006 176.499v53.163c-.008 5.445-.598 6.265-1.923 7.598l-221.925 221.916c-4.001 4.001-8.676 4.599-11.097 4.599-2.437 0-7.104-.598-11.104-4.599l-122.076-122.085c-4.001-3.997-4.598-8.664-4.598-11.093 0-2.425.597-7.093 4.598-11.096l221.787-221.787c.789-.69 3.341-2.031 5.617-2.035h55.209c1.311.004 4.483.487 5.963 1.966.713.713 1.364 1.333 1.977 1.893l20.171 20.171-22.239 22.24-.115.145c-1.801-.245-3.602-.517-5.41-.517-10.039 0-20.079 3.836-27.743 11.496-15.32 15.323-15.327 40.165 0 55.489 7.664 7.663 17.703 11.491 27.75 11.491 10.039 0 20.087-3.828 27.743-11.491 15.319-15.324 15.319-40.166 0-55.489-1.909-1.905-3.962-3.575-6.131-5.008l17.251-17.251 44.395 44.396c1.647 1.645 1.9 1.898 1.9 5.888zm-79.641-5.852c4.92 4.92 11.457 7.017 17.902 6.641-.253 5.668-2.46 11.262-6.775 15.577-4.445 4.445-10.361 6.893-16.646 6.893-6.291 0-12.208-2.448-16.653-6.893s-6.897-10.361-6.897-16.646c0-6.292 2.452-12.201 6.897-16.653 4.146-4.146 9.594-6.468 15.403-6.774-.32 6.429 1.871 12.958 6.769 17.855zm159.55-148.452l-92.914 92.922-11.097-11.105 92.914-92.914c3.058-3.058 8.032-3.061 11.097 0 3.058 3.061 3.058 8.038 0 11.097z"/></svg>