<svg xmlns="http://www.w3.org/2000/svg" viewBox="0 0 480 512"><path d="M240 71.612c-95.337 0-172.647 77.296-172.647 172.647 0 95.336 77.311 172.632 172.647 172.632 95.351 0 172.647-77.296 172.647-172.632 0-95.351-77.296-172.647-172.647-172.647zm0 313.888c-77.886 0-141.257-63.363-141.257-141.241 0-77.894 63.371-141.257 141.257-141.257s141.257 63.363 141.257 141.257c0 77.878-63.371 141.241-141.257 141.241zm.007-251.107c-60.673 0-109.873 49.185-109.873 109.866 0 60.665 49.201 109.851 109.873 109.851 60.674 0 109.859-49.186 109.859-109.851 0-60.681-49.185-109.866-109.859-109.866zm0 188.327c-43.276 0-78.483-35.192-78.483-78.46 0-43.269 35.207-78.476 78.483-78.476 43.269 0 78.469 35.207 78.469 78.476 0 43.268-35.2 78.46-78.469 78.46zm0-125.546c-26.002 0-47.093 21.075-47.093 47.086 0 25.995 21.09 47.086 47.093 47.086 26.003 0 47.079-21.09 47.079-47.086 0-26.012-21.076-47.086-47.079-47.086zm0 62.78c-8.66 0-15.702-7.051-15.702-15.695 0-8.661 7.042-15.695 15.702-15.695 8.653 0 15.688 7.035 15.688 15.695 0 8.644-7.035 15.695-15.688 15.695zm148.583 166.884c52.979-43.162 86.838-108.916 86.838-182.579 0-130.022-105.407-235.428-235.428-235.428-130.022 0-235.428 105.406-235.428 235.428 0 73.663 33.85 139.402 86.821 182.563l-36.808 51.53c-5.043 7.051-3.411 16.845 3.648 21.888 2.758 1.978 5.947 2.928 9.104 2.928 4.897 0 9.726-2.284 12.783-6.576l36.863-51.592c35.805 21.98 77.924 34.686 123.017 34.686 45.085 0 87.197-12.691 123.002-34.671l36.847 51.577c3.058 4.291 7.886 6.576 12.783 6.576 3.158 0 6.346-.95 9.105-2.928 7.058-5.043 8.69-14.837 3.648-21.888l-36.795-51.514zm-352.628-182.579c0-112.503 91.534-204.038 204.038-204.038 112.502 0 204.038 91.534 204.038 204.038 0 112.502-91.535 204.038-204.038 204.038-112.503 0-204.038-91.535-204.038-204.038z"/></svg>