<svg xmlns="http://www.w3.org/2000/svg" viewBox="0 0 384 512"><path d="M333.241 4.877h-282.482c-26.003 0-47.086 21.083-47.086 47.086v408.075c0 26.002 21.083 47.086 47.086 47.086h282.483c26.003 0 47.086-21.083 47.086-47.086v-408.076c-.001-26.003-21.083-47.085-47.087-47.085zm-282.482 31.39h282.483c8.652 0 15.695 7.042 15.695 15.695v15.756h-313.874v-15.756c0-8.652 7.044-15.695 15.696-15.695zm298.178 47.147v313.85h-313.874v-313.85h313.874zm-15.696 392.319h-282.482c-8.652 0-15.695-7.043-15.695-15.695v-47.079h313.873v47.079c0 8.652-7.044 15.695-15.696 15.695zm-141.241-47.147c-8.675 0-15.695 7.028-15.695 15.695s7.02 15.702 15.695 15.702c8.668 0 15.695-7.035 15.695-15.702s-7.028-15.695-15.695-15.695z"/></svg>