<svg xmlns="http://www.w3.org/2000/svg" viewBox="0 0 512 512"><path d="M491.397 240.305h-102.992c-2.95-25.076-12.844-47.975-27.711-66.812l72.859-72.851c6.131-6.131 6.131-16.063 0-22.194s-16.063-6.131-22.195 0l-72.866 72.866c-18.837-14.867-41.737-24.754-66.796-27.697v-103.014c0-8.676-7.027-15.695-15.695-15.695s-15.695 7.02-15.695 15.695v103.015c-25.061 2.943-47.96 12.829-66.796 27.697l-72.867-72.866c-6.131-6.131-16.063-6.131-22.194 0s-6.131 16.062 0 22.194l72.858 72.851c-14.867 18.837-24.761 41.736-27.711 66.812h-102.993c-8.668 0-15.695 7.02-15.695 15.695 0 8.66 7.028 15.695 15.695 15.695h102.984c2.943 25.075 12.829 47.974 27.697 66.827l-72.835 72.835c-6.131 6.116-6.131 16.063 0 22.195 3.065 3.065 7.081 4.598 11.097 4.598 4.016 0 8.032-1.533 11.097-4.598l72.828-72.836c18.844 14.883 41.752 24.769 66.835 27.712v102.968c0 8.661 7.028 15.695 15.695 15.695 8.668 0 15.695-7.035 15.695-15.695v-102.968c25.083-2.943 47.99-12.829 66.835-27.712l72.827 72.836c3.066 3.065 7.082 4.598 11.097 4.598s8.031-1.533 11.097-4.598c6.131-6.131 6.131-16.079 0-22.195l-72.836-72.835c14.868-18.853 24.754-41.752 27.697-66.827h102.985c8.668 0 15.695-7.035 15.695-15.695 0-8.676-7.028-15.696-15.696-15.696zm-235.397 117.745c-56.252 0-102.019-45.768-102.019-102.019 0-56.252 45.767-102.019 102.019-102.019 56.251 0 102.019 45.767 102.019 102.019 0 56.251-45.768 102.019-102.019 102.019z"/></svg>