<svg xmlns="http://www.w3.org/2000/svg" viewBox="0 0 512 512"><path d="M401.503 495.6c-2.637 0-5.273-.659-7.664-2l-137.839-77.158-137.839 77.158c-5.334 2.989-11.932 2.613-16.89-.997-4.951-3.594-7.357-9.755-6.17-15.756l30.785-154.936-115.974-107.247c-4.491-4.161-6.162-10.553-4.269-16.377s6.997-10.016 13.082-10.736l156.86-18.6 66.161-143.434c2.567-5.556 8.131-9.12 14.254-9.12s11.687 3.564 14.254 9.12l66.16 143.434 156.86 18.6c6.085.72 11.189 4.912 13.082 10.736 1.893 5.824.222 12.216-4.268 16.377l-115.974 107.246 30.356 152.783c.575 1.632.881 3.388.881 5.212 0 8.668-7.02 15.695-15.695 15.695h-.153zm-145.503-112.84c2.644 0 5.288.666 7.663 2l115.813 64.827-25.865-130.175c-1.065-5.349.736-10.874 4.737-14.576l97.444-90.117-131.8-15.626c-5.418-.644-10.116-4.062-12.407-9.013l-55.585-120.52-55.585 120.519c-2.292 4.951-6.99 8.369-12.408 9.013l-131.8 15.626 97.444 90.117c4 3.702 5.801 9.227 4.736 14.576l-25.865 130.175 115.813-64.827c2.377-1.333 5.022-1.999 7.665-1.999z"/></svg>