<svg xmlns="http://www.w3.org/2000/svg" viewBox="0 0 512 512"><path d="M256 4.877c-138.689 0-251.123 112.426-251.123 251.123s112.434 251.123 251.123 251.123c138.69 0 251.123-112.426 251.123-251.123s-112.433-251.123-251.123-251.123zm0 470.856c-121.162 0-219.733-98.571-219.733-219.733 0-121.163 98.57-219.733 219.733-219.733 121.163 0 219.733 98.57 219.733 219.733 0 121.162-98.57 219.733-219.733 219.733zm156.921-235.428c-8.668 0-15.695 7.035-15.695 15.695 0 77.894-63.371 141.257-141.257 141.257s-141.256-63.363-141.256-141.257c0-8.66-7.028-15.695-15.695-15.695s-15.696 7.035-15.696 15.695c0 95.198 77.45 172.647 172.647 172.647 95.199 0 172.647-77.449 172.647-172.647.001-8.66-7.027-15.695-15.695-15.695zm-227.564-7.51c17.342 0 31.39-21.076 31.39-47.086 0-26.011-14.048-47.086-31.39-47.086-17.343 0-31.39 21.075-31.39 47.086-.001 26.01 14.046 47.086 31.39 47.086zm141.287 0c17.342 0 31.39-21.076 31.39-47.086 0-26.011-14.048-47.086-31.39-47.086-17.343 0-31.39 21.075-31.39 47.086 0 26.01 14.047 47.086 31.39 47.086z"/></svg>