<svg xmlns="http://www.w3.org/2000/svg" viewBox="0 0 512 512"><path d="M507.108 212.869l-23.482-62.613v-39.406l-22.018-54.933c-3.717-9.274-15.151-22.654-31.275-23.543h-346.965c-17.036 0-29.49 14.914-32.939 23.512l-21.964 54.964v39.238h-.03l-23.574 62.781h.031v16.967c0 17.626 9.472 33.015 23.573 41.46v161.244c0 26.011 21.083 47.086 47.086 47.086h360.99c26.003 0 47.086-21.075 47.086-47.086v-161.274c14.071-8.461 23.512-23.819 23.512-41.43v-16.967h-.031zm-423.41-149.104h344.987c1.127.475 3.181 2.559 3.786 3.831l14.293 35.652h-381.452l14.116-35.329c.851-1.502 3.066-3.649 4.27-4.154zm-23.842 86.261v-31.084h392.38v31.146l-392.38-.062zm-39.269 65.617l18.722-49.86h433.381l10.63 28.355v57.018c-5.993 6.882-14.714 11.342-24.532 11.342h-.498c-10.944 0-21.106-5.456-27.199-14.592-2.911-4.368-7.809-6.989-13.058-6.989-5.25 0-10.147 2.621-13.059 6.989-6.092 9.135-16.255 14.592-27.198 14.592h-.49c-10.943 0-21.113-5.456-27.206-14.607-2.912-4.353-7.809-6.974-13.059-6.974h-.007c-5.25 0-10.147 2.621-13.059 6.989-6.077 9.135-16.239 14.592-27.183 14.592h-.498c-10.944 0-21.106-5.456-27.199-14.592-2.912-4.368-7.809-6.989-13.058-6.989-5.25 0-10.155 2.621-13.059 6.989-6.085 9.135-16.247 14.592-27.19 14.592h-.498c-10.943 0-21.106-5.456-27.198-14.592-2.912-4.368-7.809-6.989-13.059-6.989-5.249 0-10.154 2.621-13.059 6.989-6.084 9.135-16.247 14.592-27.19 14.592h-.505c-10.936 0-21.106-5.456-27.206-14.592-2.905-4.368-7.802-6.989-13.051-6.989h-.012c-5.25 0-10.147 2.621-13.059 6.989-6.077 9.135-16.239 14.592-27.183 14.592h-.498c-18.009 0-32.662-14.653-32.662-32.663v-14.192zm235.398 41.016l.031-.046c8.668 12.997 23.458 21.581 40.257 21.581h.498c16.806 0 31.59-8.584 40.25-21.581 8.676 12.997 23.467 21.581 40.265 21.581h.49c10.154 0 19.542-3.173 27.314-8.522v107.997h-149.105v-121.01zm-149.074 97.467h86.324v62.719h-86.324v-62.719zm86.324-15.695h-86.324v-68.774c7.778 5.349 17.181 8.537 27.344 8.537h.505c16.806 0 31.59-8.584 40.25-21.581 4.567 6.851 10.86 12.415 18.225 16.201v65.617zm243.306 109.804h-360.99c-8.653 0-15.695-7.035-15.695-15.695v-154.744c12.645-1.594 23.712-8.093 31.36-17.504v156.553c0 8.676 7.027 15.695 15.695 15.695h86.324c8.668 0 15.695-7.02 15.695-15.695v-139.08c2.076.275 4.184.429 6.338.429h.498c8.974 0 17.327-2.514 24.524-6.759v106.234c0 8.675 7.028 15.695 15.695 15.695h149.104c8.668 0 15.695-7.02 15.695-15.695v-117.423c7.663 9.441 18.775 15.971 31.452 17.565v154.729c0 8.661-7.043 15.695-15.695 15.695zm54.902-218.399c0 8.016-3.012 15.266-7.817 20.952v-55.837l7.817 20.845v14.04z"/></svg>