<svg xmlns="http://www.w3.org/2000/svg" viewBox="0 0 448 512"><path d="M383.88 36.234c-76.637 0-153.358-29.919-154.125-30.226-3.878-1.533-8.2-1.456-12.016.199-.69.291-70.245 30.026-153.618 30.026-32.992 0-59.838 26.846-59.838 59.838v49.048c0 325.629 215.211 361.48 217.388 361.802.766.115 1.54.169 2.314.169.827 0 1.655-.061 2.467-.191 2.177-.345 217.266-38.387 217.266-361.779v-49.048c-.001-32.992-26.846-59.838-59.838-59.838zm28.447 108.885c0 280.46-164.891 325.346-188.358 330.304-21.803-4.659-188.296-49.569-188.296-330.304v-49.047c0-15.68 12.76-28.448 28.448-28.448 76.238 0 140.514-22.547 160.086-30.172 20.393 7.41 88.853 30.172 159.673 30.172 15.687 0 28.448 12.767 28.448 28.448v49.047zm-183.744-72.253c-2.062-1.471-4.72-1.854-7.111-1.026-33.345 11.495-85.872 25.52-146.76 27.053-4.253.1-7.648 3.586-7.648 7.84v38.387c0 231.765 118.166 286.146 154.384 297.289.683.214 1.441.314 2.2.314 1.058 0 2.131-.191 3.058-.529 3.104-1.118 5.172-4.069 5.172-7.372v-355.564c0-2.53-1.226-4.913-3.295-6.392zm-12.4 351.042c-41.253-16.507-133.424-76.192-133.424-278.789v-30.792c53.684-2.254 100.54-13.641 133.424-24.187v333.768z"/></svg>