<svg xmlns="http://www.w3.org/2000/svg" viewBox="0 0 512 512"><path d="M462.038 188.85h-15.78c-5.05-.031-9.702-1.701-11.419-2.82-.766-1.962-1.563-3.893-2.391-5.824-.13-.506-.283-.981-.459-1.471.536-2.131 2.659-6.453 6.1-9.917l11.074-11.067c17.558-17.564 17.558-46.166-.007-63.746l-31.176-31.191c-8.522-8.507-19.841-13.197-31.881-13.197-12.048 0-23.366 4.691-31.897 13.212l-11.182 11.189c-3.594 3.525-8.07 5.625-10.039 6.054-2.322-1.027-4.667-2.008-7.043-2.927-1.119-1.748-2.767-6.376-2.805-11.297v-15.894c0-24.861-20.233-45.077-45.093-45.077h-44.082c-24.861 0-45.093 20.216-45.093 45.077v15.618c0 5.089-1.686 9.825-2.828 11.573-2.383.935-4.736 1.916-7.058 2.943-2.015-.445-6.445-2.545-9.94-5.978l-11.25-11.25c-8.514-8.522-19.833-13.212-31.881-13.212-12.04 0-23.358 4.691-31.873 13.212l-31.175 31.16c-8.514 8.522-13.204 19.834-13.204 31.881 0 12.048 4.691 23.375 13.204 31.881l11.051 11.051c3.587 3.602 5.733 8.124 6.162 10.178-1.019 2.314-1.993 4.66-2.92 7.02-1.716 1.118-6.36 2.789-11.296 2.82h-15.895c-24.861 0-45.085 20.233-45.085 45.093v44.082c0 24.861 20.224 45.093 45.085 45.093h15.61c5.104 0 9.833 1.686 11.58 2.835.928 2.361 1.901 4.691 2.92 7.02-.421 2.007-2.529 6.468-6.008 10.009l-11.242 11.235c-17.557 17.58-17.557 46.182.007 63.746l31.176 31.176c8.515 8.522 19.841 13.212 31.889 13.212 12.039 0 23.366-4.691 31.881-13.212l11.051-11.051c3.617-3.602 8.161-5.748 10.177-6.177 2.322 1.026 4.668 2.007 7.035 2.927 1.142 1.748 2.828 6.484 2.828 11.588v15.603c0 24.86 20.232 45.093 45.093 45.093h44.082c24.861 0 45.093-20.233 45.093-45.093v-15.772c.038-5.043 1.701-9.687 2.82-11.419 2.322-.904 4.621-1.854 6.897-2.85l.123-.046c2.031.414 6.606 2.56 10.231 6.193l11.02 11.02c8.514 8.522 19.833 13.227 31.888 13.227 12.048 0 23.367-4.691 31.881-13.212l31.176-31.176c17.58-17.58 17.58-46.181 0-63.762l-11.173-11.158c-3.541-3.602-5.649-8.093-6.062-10.086l.046-.138c.996-2.284 1.954-4.582 2.866-6.897 1.732-1.15 6.468-2.835 11.58-2.835h15.611c24.86 0 45.085-20.232 45.085-45.093v-44.082c0-24.861-20.225-45.094-45.085-45.094zm13.695 89.175c0 7.556-6.146 13.703-13.695 13.703h-15.611c-14.991 0-33.337 6.315-39.69 20.125-.268.521-.514 1.073-.728 1.624-1.027 2.697-2.138 5.365-3.318 7.986-.299.674-.552 1.364-.752 2.054-4.881 14.009 3.396 31.099 13.772 41.66l11.266 11.25c5.341 5.349 5.341 14.039 0 19.373l-31.184 31.176c-5.165 5.165-14.177 5.18-19.358 0l-11.043-11.051c-7.127-7.127-20.033-15.45-32.931-15.45-3.173 0-6.185.506-8.989 1.487-.69.199-1.372.444-2.038.751-2.613 1.165-5.258 2.268-7.955 3.295-.49.184-.973.399-1.441.629-13.772 6.223-20.186 24.493-20.293 39.513v15.88c0 7.556-6.146 13.703-13.703 13.703h-44.082c-7.556 0-13.703-6.146-13.703-13.703v-15.603c0-15.082-6.376-33.536-20.331-39.79-.453-.23-.912-.445-1.395-.629-2.361-.904-4.698-1.854-7.005-2.882-.827-.429-1.701-.782-2.605-1.057-2.904-1.074-6.054-1.625-9.372-1.625-12.883 0-25.781 8.323-32.908 15.45l-11.059 11.051c-5.18 5.18-14.193 5.165-19.373 0l-31.178-31.175c-5.341-5.334-5.334-14.024-.007-19.358l11.311-11.312c10.415-10.561 18.768-27.865 13.603-41.966-.177-.567-.391-1.15-.644-1.701-1.172-2.621-2.284-5.273-3.318-7.971-.184-.475-.383-.935-.606-1.379-6.261-13.979-24.723-20.355-39.798-20.355h-15.61c-7.549 0-13.695-6.146-13.695-13.703v-44.082c0-7.556 6.146-13.703 13.695-13.703h16.001c14.914-.092 33.177-6.499 39.392-20.293.23-.46.436-.935.621-1.41 1.034-2.697 2.123-5.318 3.295-7.939.191-.429.36-.859.513-1.303 5.541-14.285-2.988-31.911-13.656-42.626l-11.074-11.082c-2.59-2.59-4.009-6.024-4.009-9.687 0-3.648 1.418-7.081 4.009-9.671l31.175-31.175c5.165-5.181 14.201-5.165 19.366 0l11.327 11.326c7.449 7.342 19.925 15.174 32.624 15.174 3.541 0 6.874-.613 9.94-1.839.375-.137.751-.275 1.119-.444 2.598-1.165 5.241-2.269 7.924-3.295.476-.184.942-.383 1.388-.613 13.963-6.254 20.339-24.723 20.339-39.79v-15.619c0-7.556 6.146-13.687 13.703-13.687h44.082c7.557 0 13.703 6.131 13.703 13.687v16.002c.107 15.005 6.598 33.398 20.546 39.499.376.184.759.352 1.15.505 2.69 1.027 5.342 2.131 7.955 3.311.567.246 1.142.476 1.724.659 2.897 1.058 6.024 1.594 9.327 1.594 12.645 0 25.106-7.786 32.67-15.205l11.288-11.296c5.158-5.165 14.209-5.181 19.382 0l31.167 31.16c5.342 5.349 5.342 14.039.008 19.373l-11.082 11.082c-10.575 10.607-19.067 28.049-13.795 42.273.169.552.376 1.088.613 1.625 1.172 2.621 2.284 5.272 3.311 7.986.214.552.46 1.103.736 1.624 6.299 13.656 24.462 20.002 39.406 20.094h15.887c7.549 0 13.695 6.146 13.695 13.703v44.082zm-219.733-100.501c-43.269 0-78.476 35.191-78.476 78.476 0 43.269 35.207 78.476 78.476 78.476s78.476-35.207 78.476-78.476c0-43.285-35.207-78.476-78.476-78.476zm0 125.562c-25.965 0-47.086-21.121-47.086-47.086s21.121-47.086 47.086-47.086 47.086 21.121 47.086 47.086-21.121 47.086-47.086 47.086z"/></svg>