<svg xmlns="http://www.w3.org/2000/svg" viewBox="0 0 512 512"><path d="M507.108 252.785c0-8.668-7.028-15.695-15.695-15.695h-239.314l164.815-164.815c6.131-6.127 6.131-16.067 0-22.199-2.613-2.617-5.924-4.042-9.342-4.425-55.5-15.622-117.53-1.882-161.205 41.794-40.656 40.659-55.485 97.24-44.741 149.644h-55.577c9.871-13.124 15.795-29.39 15.795-47.078 0-43.342-35.138-78.476-78.476-78.476s-78.476 35.134-78.476 78.476 35.138 78.476 78.476 78.476l.153-.008h92.792l-70.045 70.054-.085.072c-30.647 30.643-30.647 80.331 0 110.978 15.32 15.324 35.406 22.987 55.493 22.987s40.173-7.663 55.493-22.987c30.639-30.643 30.647-80.33 0-110.978-12.508-12.507-28.195-19.821-44.457-22.121l47.569-47.572c29.053 46.783 80.691 78.047 139.808 78.047 61.769 0 115.339-34.138 143.54-84.435 2.146-2.685 3.479-6.037 3.479-9.739zm-238.548-143.146c28.724-28.724 67.364-41.422 104.992-38.399l-143.387 143.396c-3.027-37.629 9.672-76.27 38.395-104.997zm-232.277 80.373c0-25.965 21.121-47.086 47.086-47.086s47.086 21.121 47.086 47.086c0 25.91-21.045 46.994-46.933 47.078h-.153l-.054.008c-25.942-.031-47.032-21.137-47.032-47.086zm125.392 156.998c12.576 0 24.401 4.898 33.299 13.795 18.354 18.354 18.354 48.227 0 66.581-8.898 8.898-20.723 13.794-33.299 13.794s-24.401-4.897-33.299-13.794c-8.89-8.89-13.787-20.715-13.787-33.291 0-12.56 4.889-24.366 13.749-33.253l.046-.035.115-.115c8.883-8.823 20.654-13.682 33.176-13.682zm198.413-31.44c-40.618 0-76.928-18.343-101.39-47.09h202.78c-24.463 28.747-60.773 47.09-101.39 47.09z"/></svg>