<svg xmlns="http://www.w3.org/2000/svg" viewBox="0 0 512 512"><path d="M460.038 20.599h-408.076c-26.01 0-47.086 21.079-47.086 47.086v329.599c0 26.002 21.076 47.086 47.086 47.086h15.695v15.641c0 17.335 14.055 31.39 31.39 31.39h31.39c17.335 0 31.39-14.055 31.39-31.39v-15.641h188.312v15.641c0 17.335 14.055 31.39 31.39 31.39h31.39c17.335 0 31.39-14.055 31.39-31.39v-15.641h15.726c25.995 0 47.086-21.083 47.086-47.086v-329.599c.002-26.007-21.088-47.086-47.083-47.086zm-313.904 439.412c0 8.653-7.05 15.695-15.695 15.695h-31.39c-8.66 0-15.695-7.042-15.695-15.695v-15.641h62.781v15.641zm282.483 0c0 8.653-7.05 15.695-15.695 15.695h-31.39c-8.66 0-15.695-7.042-15.695-15.695v-15.641h62.781v15.641zm47.116-62.727c0 8.652-7.05 15.695-15.695 15.695h-408.076c-8.66 0-15.695-7.043-15.695-15.695v-329.599c0-8.653 7.035-15.695 15.695-15.695h408.075c8.645 0 15.695 7.042 15.695 15.695v329.599zm-219.764-251.123c-47.684 0-86.324 38.648-86.324 86.324s38.64 86.324 86.324 86.324c47.668 0 86.324-38.648 86.324-86.324s-38.656-86.324-86.324-86.324zm0 156.952c-38.947 0-70.628-31.682-70.628-70.628s31.682-70.628 70.628-70.628 70.628 31.682 70.628 70.628-31.681 70.628-70.628 70.628zm0-109.867c-21.673 0-39.238 17.565-39.238 39.238s17.565 39.238 39.238 39.238 39.238-17.565 39.238-39.238-17.565-39.238-39.238-39.238zm0 62.781c-12.982 0-23.543-10.561-23.543-23.543s10.561-23.543 23.543-23.543 23.543 10.561 23.543 23.543-10.56 23.543-23.543 23.543zm164.831-125.558v-31.394c0-8.668-7.035-15.695-15.695-15.695h-298.209c-8.676 0-15.695 7.028-15.695 15.695v266.818c0 8.668 7.02 15.695 15.695 15.695h298.209c8.66 0 15.695-7.028 15.695-15.695v-31.39c8.645-.016 15.665-7.035 15.665-15.688v-62.788c0-8.653-7.02-15.672-15.665-15.688v-15.702c8.645-.016 15.665-7.035 15.665-15.695v-62.781c-.001-8.657-7.02-15.677-15.665-15.692zm-.031 78.472h-31.39v-62.781h31.39v62.781zm-298.178 141.257v-235.428h266.818v15.695h-.031c-8.676 0-15.695 7.028-15.695 15.695v62.781c0 8.668 7.02 15.695 15.695 15.695h.031v15.695h-.031c-8.676 0-15.695 7.035-15.695 15.695v62.788c0 8.661 7.02 15.695 15.695 15.695h.031v15.688h-266.818zm298.178-31.383h-31.39v-62.788h31.39v62.788z"/></svg>