<svg xmlns="http://www.w3.org/2000/svg" viewBox="0 0 512 512"><path d="M507.077 20.717c-.031-8.629-7.013-15.618-15.642-15.649h-2.376c-67.402 0-139.954 10.178-213.778 83.994l-46.902 46.902c-75.334 3.035-165.681 55.807-169.597 58.121-4.184 2.468-6.99 6.729-7.603 11.541-.605 4.813 1.042 9.641 4.475 13.074l103.706 103.706c-12.308-7.082-26.279-10.929-40.863-10.929-21.956 0-42.587 8.552-58.068 24.033-2.138 2.131-4.253 4.522-6.123 6.913-38.294 45.446-47.804 130.758-49.322 147.388-.421 4.644 1.241 9.227 4.537 12.522 2.959 2.959 6.951 4.599 11.097 4.599.475 0 .95-.031 1.433-.062 8.369-.766 82.829-8.353 131.946-39.176 8.483-4.062 16.086-9.427 22.607-15.941 26.808-26.823 31.092-67.67 13.029-99.076l103.812 103.828c2.951 2.943 6.951 4.583 11.097 4.583.367 0 .743 0 1.118-.031 4.537-.323 8.714-2.606 11.443-6.254 2.36-3.142 56.45-76.637 58.987-170.946l46.993-46.994c74.185-74.184 84.208-147.724 83.994-216.146zm-352.667 408.842c-4.146 4.138-9.058 7.541-14.584 10.101-.636.291-1.249.629-1.832 1.012-30.225 19.251-74.176 28.462-99.314 32.402 4.338-28.922 15.274-81.526 39.951-110.817 1.218-1.548 2.498-3.065 3.961-4.522 9.587-9.594 22.34-14.867 35.904-14.867 13.565 0 26.318 5.273 35.912 14.867 19.798 19.803 19.798 52.021.002 71.824zm36.954-256.58l-68.52 68.512-30.134-30.117c21.742-11.204 60.198-29.214 98.654-38.395zm110.595 247.644l-31.314-31.313 70.422-70.429c-8.139 44.863-27.268 82.001-39.108 101.742zm47.599-154.622l-.023.015-101.084 101.099-40.61-40.617 82.944-82.937c6.131-6.131 6.131-16.063 0-22.194s-16.062-6.131-22.194 0l-82.944 82.936-40.61-40.602 101.091-101.099.008-.016 51.339-51.331c60.895-60.88 121.3-73.157 178.073-74.628-1.219 53.753-11.564 114.955-74.66 178.042l-51.33 51.332zm70.007-173.429c-6.123-6.116-14.155-9.181-22.194-9.181-8.032 0-16.063 3.065-22.195 9.181-12.262 12.262-12.262 32.141 0 44.403 6.131 6.116 14.163 9.181 22.195 9.181 8.039 0 16.07-3.065 22.194-9.181 12.255-12.261 12.262-32.141 0-44.403zm-11.104 33.291c-2.959 2.973-6.897 4.598-11.089 4.598s-8.132-1.624-11.097-4.598c-2.966-2.959-4.598-6.897-4.598-11.097 0-4.184 1.632-8.124 4.598-11.082 2.966-2.973 6.905-4.598 11.097-4.598 4.192 0 8.131 1.624 11.097 4.582 2.966 2.973 4.599 6.913 4.599 11.097-.009 4.201-1.633 8.14-4.607 11.098z"/></svg>