<svg xmlns="http://www.w3.org/2000/svg" viewBox="0 0 448 512"><path d="M396.647 255.973c-21.673 0-39.238 17.565-39.238 39.238 0 73.556-59.845 133.409-133.401 133.409-73.563 0-133.417-59.853-133.417-133.409 0-67.723 51.707-124.611 117.683-132.474v61.907c0 6.239 3.702 11.887 9.419 14.385 2.023.881 4.154 1.31 6.276 1.31 3.885 0 7.717-1.448 10.684-4.199l109.897-102.042c3.196-2.973 5.011-7.135 5.011-11.504 0-4.368-1.816-8.537-5.019-11.503l-109.897-101.995c-4.575-4.246-11.228-5.38-16.952-2.881-5.717 2.498-9.419 8.139-9.419 14.385v63.31c-109.161 8.138-196.159 100.608-196.159 211.301 0 116.826 95.053 211.885 211.893 211.885 116.833 0 211.877-95.06 211.877-211.885 0-21.673-17.564-39.238-39.238-39.238zm-156.982-199.393l71.135 66.015-71.135 66.053v-132.068zm-15.657 419.126c-99.528 0-180.503-80.974-180.503-180.495 0-93.588 73.005-171.85 164.769-179.789v15.887c-83.242 8.024-149.074 79.004-149.074 163.902 0 90.868 73.931 164.8 164.807 164.8 90.868 0 164.792-73.931 164.792-164.8 0-4.33 3.518-7.848 7.848-7.848s7.848 3.518 7.848 7.848c0 99.521-80.966 180.495-180.487 180.495z"/></svg>