<svg xmlns="http://www.w3.org/2000/svg" viewBox="0 0 384 512"><path d="M239.454 83.383c21.665 0 39.238-17.581 39.238-39.238 0-21.673-17.573-39.238-39.238-39.238-21.666 0-39.238 17.565-39.238 39.238 0 21.657 17.572 39.238 39.238 39.238zm0-62.78c12.982 0 23.543 10.561 23.543 23.543s-10.561 23.543-23.543 23.543-23.543-10.561-23.543-23.543 10.56-23.543 23.543-23.543zm-86.348 86.231c17.32 0 31.383-14.056 31.383-31.39 0-17.335-14.063-31.375-31.383-31.375-17.335 0-31.397 14.04-31.397 31.375s14.063 31.39 31.397 31.39zm0-47.07c8.653 0 15.688 7.02 15.688 15.68 0 8.644-7.035 15.695-15.688 15.695-8.66 0-15.702-7.051-15.702-15.695 0-8.661 7.043-15.68 15.702-15.68zm220.355 396.319l-126.19-157.688v-144.414h.031c8.668 0 15.695-7.02 15.695-15.695 0-8.66-7.028-15.695-15.695-15.695h-109.898c-8.668 0-15.695 7.035-15.695 15.695 0 8.675 7.028 15.695 15.695 15.695v143.571l-126.864 158.531c-7.542 9.426-9.013 22.332-3.786 33.214 5.227 10.867 16.224 17.795 28.295 17.795h313.904c12.07 0 23.068-6.928 28.295-17.795 5.225-10.882 3.754-23.788-3.787-33.214zm-204.666-147.51v-154.592h47.086v155.434l45.2 56.482h-138.161l45.875-57.324zm-133.747 167.129l62.75-78.415h188.404l62.75 78.415h-313.904z"/></svg>