<svg xmlns="http://www.w3.org/2000/svg" viewBox="0 0 512 512"><path d="M460.038 113.236h-111.737c-8.683-43.047-46.702-75.465-92.301-75.465s-83.619 32.418-92.301 75.465h-111.737c-26.003 0-47.086 21.083-47.086 47.086v266.822c0 25.995 21.083 47.086 47.086 47.086h408.075c26.002 0 47.086-21.09 47.086-47.086v-266.822c0-26.003-21.083-47.086-47.085-47.086zm-204.038-44.074c28.102 0 51.952 18.566 59.93 44.074h-119.86c7.978-25.509 31.827-44.074 59.93-44.074zm219.733 357.981c0 8.645-7.043 15.695-15.695 15.695h-408.076c-8.653 0-15.695-7.05-15.695-15.695v-150.161l169.053 36.793c3.28.766 6.828 1.486 10.461 2.184v10.192c0 12.998 10.537 23.543 23.543 23.543h31.39c13.005 0 23.543-10.545 23.543-23.543v-9.656c1.448-.291 2.858-.49 4.33-.835l177.146-38.664v150.147zm-244.257-100.991v-47.086c0-4.33 3.517-7.848 7.848-7.848h31.39c4.329 0 7.848 3.517 7.848 7.848v47.086c0 4.322-3.518 7.848-7.848 7.848h-31.39c-4.33-.001-7.848-3.526-7.848-7.848zm244.257-81.297l-181.476 39.622v-5.411c0-13.005-10.538-23.543-23.543-23.543h-31.39c-13.006 0-23.543 10.538-23.543 23.543v4.844c-1.172-.261-2.422-.49-3.564-.751l-175.95-38.303v-84.534c0-8.653 7.042-15.695 15.695-15.695h408.075c8.652 0 15.695 7.042 15.695 15.695v84.533z"/></svg>