<svg xmlns="http://www.w3.org/2000/svg" viewBox="0 0 384 512"><path d="M192 4.908c-99.682 0-180.495 80.805-180.495 180.495 0 40.602 14.79 77.556 36.05 108.241l130.834 205.57c1.954 3.388 5.15 6.009 9.073 7.204 1.503.444 3.028.674 4.537.674.92 0 1.832-.092 2.72-.245.629-.108 1.249-.261 1.87-.444 3.794-1.15 6.905-3.663 8.859-6.898l133.618-209.525-.046.092.069-.122.016-.015c20.999-29.505 33.391-65.555 33.391-104.532-.001-99.69-80.815-180.495-180.496-180.495zm129.891 253.682h-.038l-129.822 203.594-118.672-186.427c-13.894-20.048-30.463-52.005-30.463-90.354 0-82.216 66.888-149.104 149.104-149.104 82.215 0 149.104 66.888 149.104 149.104 0 25.902-6.599 50.916-19.213 73.187zm-129.845-151.357c-43.269 0-78.476 35.207-78.476 78.476s35.207 78.476 78.476 78.476 78.476-35.207 78.476-78.476-35.207-78.476-78.476-78.476zm0 125.331c-25.88 0-46.856-20.983-46.856-46.856 0-25.888 20.976-46.856 46.856-46.856 25.881 0 46.856 20.968 46.856 46.856-.001 25.873-20.976 46.856-46.856 46.856z"/></svg>