<svg xmlns="http://www.w3.org/2000/svg" viewBox="0 0 512 512"><path d="M466.866 45.141c-26.049-26.056-60.182-39.084-94.324-39.084v31.39c27.245 0 52.857 10.622 72.13 29.888 39.775 39.774 39.775 104.502 0 144.276l-105.436 105.438-116.527-116.534 72.138-72.146c3.065-3.065 3.065-8.031 0-11.097-3.065-3.065-8.031-3.065-11.097 0l-72.138 72.146-16.653-16.661 105.437-105.421c19.266-19.267 44.886-29.888 72.137-29.888l.008-31.39h-.008c-34.141.015-68.283 13.028-94.332 39.084l-233.067 233.052c-52.098 52.098-52.098 136.582 0 188.68 26.049 26.041 60.19 39.069 94.332 39.069s68.291-13.029 94.34-39.069l233.06-233.068c52.098-52.098 52.098-136.567 0-188.665zm-255.254 399.523c-19.274 19.282-44.894 29.888-72.146 29.888-27.252 0-52.872-10.607-72.138-29.873-39.774-39.79-39.774-104.502 0-144.291l105.437-105.436 16.653 16.66-38.855 38.855c-3.065 3.065-3.065 8.031 0 11.097 1.533 1.533 3.541 2.299 5.548 2.299 2.008 0 4.016-.766 5.548-2.299l38.855-38.855 116.526 116.534-105.428 105.421zm160.93-438.607zm-288.561 310.992c-23.321 23.313-29.551 59.056-15.504 88.945 1.341 2.835 4.162 4.506 7.112 4.506 1.118 0 2.253-.246 3.334-.751 3.924-1.839 5.602-6.514 3.763-10.438-11.25-23.911-6.269-52.511 12.392-71.165 3.065-3.065 3.065-8.031 0-11.097-3.065-3.066-8.031-3.066-11.097 0zm233.06-233.068c-3.065 3.066-3.065 8.032 0 11.097 1.533 1.533 3.541 2.299 5.549 2.299 2.007 0 4.016-.767 5.548-2.299 18.661-18.669 47.269-23.635 71.172-12.4 3.932 1.855 8.599.154 10.446-3.755 1.839-3.924.161-8.599-3.763-10.438-29.872-14.07-65.631-7.832-88.952 15.496z"/></svg>