<svg xmlns="http://www.w3.org/2000/svg" viewBox="0 0 512 512"><path d="M460.038 4.877h-408.076c-25.995 0-47.086 21.083-47.086 47.086v408.075c0 26.002 21.09 47.086 47.086 47.086h408.075c26.01 0 47.086-21.083 47.086-47.086v-408.076c0-26.003-21.075-47.085-47.085-47.085zm-408.076 31.39h408.075c8.66 0 15.695 7.042 15.695 15.695v321.744h-52.696l-55.606-116.112c-2.33-4.874-7.005-8.208-12.385-8.821-5.318-.583-10.667 1.594-14.039 5.817l-35.866 44.993-84.883-138.192c-2.989-4.858-8.476-7.664-14.117-7.457-5.717.268-10.836 3.633-13.35 8.775l-103.384 210.997h-53.139v-321.744c0-8.652 7.05-15.695 15.695-15.695zm72.437 337.378l84.04-171.528 81.665 132.956c2.667 4.361 7.311 7.135 12.415 7.45 5.196.314 10.039-1.894 13.227-5.879l34.196-42.901 38.272 79.902h-263.815zm335.639 102.088h-408.076c-8.645 0-15.695-7.043-15.695-15.695v-54.941h439.466v54.941c0 8.652-7.036 15.695-15.695 15.695zm-94.141-266.819c34.67 0 62.781-28.111 62.781-62.781 0-34.671-28.111-62.781-62.781-62.781-34.671 0-62.781 28.11-62.781 62.781s28.11 62.781 62.781 62.781zm0-94.171c17.304 0 31.39 14.078 31.39 31.39s-14.086 31.39-31.39 31.39c-17.32 0-31.39-14.079-31.39-31.39 0-17.312 14.07-31.39 31.39-31.39z"/></svg>