<svg xmlns="http://www.w3.org/2000/svg" viewBox="0 0 320 512"><path d="M262.004 4.877h-204.008c-26.003 0-47.086 21.083-47.086 47.086v408.075c0 26.002 21.083 47.086 47.086 47.086h204.007c26.003 0 47.086-21.083 47.086-47.086v-408.076c0-26.003-21.083-47.085-47.085-47.085zm-204.008 31.39h204.007c8.653 0 15.695 7.042 15.695 15.695v31.394h-235.397v-31.394c0-8.652 7.043-15.695 15.695-15.695zm219.703 62.784v282.518h-235.398v-282.518h235.398zm-15.695 376.682h-204.008c-8.652 0-15.695-7.043-15.695-15.695v-62.774h235.397v62.774c.001 8.652-7.042 15.695-15.694 15.695zm-117.699-408.075h31.39c4.337 0 7.848-3.514 7.848-7.848s-3.51-7.848-7.848-7.848h-31.39c-4.338 0-7.848 3.513-7.848 7.848.001 4.333 3.51 7.848 7.848 7.848zm15.71 345.232c-13.013 0-23.543 10.538-23.543 23.543 0 13.006 10.53 23.551 23.543 23.551 13.005 0 23.543-10.545 23.543-23.551 0-13.005-10.538-23.543-23.543-23.543zm0 31.398c-4.33 0-7.848-3.525-7.848-7.855s3.518-7.848 7.848-7.848 7.848 3.518 7.848 7.848-3.517 7.855-7.848 7.855z"/></svg>