<svg xmlns="http://www.w3.org/2000/svg" viewBox="0 0 512 512"><path d="M493.276 85.32l-66.59-66.598c-18.385-18.378-48.205-18.378-66.589 0l-306.662 306.654c-9.533 9.549-15.68 21.658-17.818 35.054l-30.257 127.293c-1.256 5.303.323 10.882 4.177 14.73 3.855 3.862 9.426 5.441 14.729 4.184l127.294-30.272c13.412-2.131 25.52-8.277 35.062-17.81l306.654-306.655c18.384-18.377 18.384-48.203 0-66.58zm-346.659 360.054l-1.165.184-1.15.261-102.509 24.385 24.639-103.659.184-1.18c.698-4.353 2.245-8.292 4.445-11.879l87.435 87.443c-3.572 2.192-7.511 3.755-11.879 4.445zm34.755-25.965l-88.784-88.791 234.171-234.156 22.195 22.194-234.126 234.126 11.097 11.096 234.125-234.124 22.194 22.194-234.124 234.125 11.096 11.096 234.133-234.125 22.194 22.194-234.171 234.171zm289.702-289.702l-33.337 33.337-88.783-88.776 33.337-33.337c6.116-6.131 16.078-6.131 22.194 0l66.59 66.582c6.122 6.116 6.122 16.079-.001 22.194z"/></svg>