<svg xmlns="http://www.w3.org/2000/svg" viewBox="0 0 512 512"><path d="M500.144 23.254c-4.966-3.319-11.381-3.533-16.561-.556l-470.826 271.233c-5.464 3.142-8.514 9.242-7.748 15.496.767 6.261 5.196 11.45 11.258 13.182l137.494 39.43 64.85 121.07c2.59 4.851 7.533 7.978 13.021 8.269.268.016.544.016.812.016 5.188 0 10.062-2.568 12.997-6.897l47.124-69.563.414.253 4.568-7.602 2.705-3.985 135.371 38.456c4.392 1.256 9.097.536 12.913-1.978 3.809-2.506 6.346-6.545 6.936-11.066l51.5-390.664c.782-5.921-1.862-11.776-6.828-15.094zm-266.129 422.142l-51.799-96.716 154.431-127.638c6.683-5.525 7.618-15.412 2.1-22.094-5.526-6.691-15.428-7.618-22.102-2.1l-160.999 133.08-95.136-27.283 403.101-232.221-192.45 320.131-37.146 54.841zm192.711-38.502l-109.981-31.252 146.146-243.111-36.165 274.363z"/></svg>