<svg xmlns="http://www.w3.org/2000/svg" viewBox="0 0 416 512"><path d="M129.493 169.654c0 4.337 3.509 7.848 7.848 7.848h141.257c4.337 0 7.848-3.51 7.848-7.848 0-4.322-3.51-7.848-7.848-7.848h-141.257c-4.338 0-7.848 3.525-7.848 7.848zm149.105 39.238h-141.257c-4.338 0-7.848 3.525-7.848 7.848 0 4.337 3.509 7.848 7.848 7.848h141.257c4.337 0 7.848-3.51 7.848-7.848-.001-4.323-3.511-7.848-7.848-7.848zm0 47.085h-141.257c-4.338 0-7.848 3.525-7.848 7.848 0 4.337 3.509 7.848 7.848 7.848h141.257c4.337 0 7.848-3.51 7.848-7.848-.001-4.323-3.511-7.848-7.848-7.848zm-70.629 47.086h-70.628c-4.338 0-7.848 3.525-7.848 7.848 0 4.337 3.509 7.848 7.848 7.848h70.628c4.337 0 7.848-3.51 7.848-7.848 0-4.323-3.51-7.848-7.848-7.848zm-.245-235.336c8.668 0 15.695-7.02 15.695-15.695 0-8.66-7.028-15.695-15.695-15.695s-15.695 7.035-15.695 15.695c0 8.675 7.027 15.695 15.695 15.695zm157.228-31.529h-106.809l-3.311-5.027h-.068c-9.664-15.711-26.969-26.225-46.764-26.225-19.796 0-37.1 10.514-46.764 26.225h-.077l-3.311 5.027h-106.8c-26.003 0-47.086 21.076-47.086 47.086v376.685c0 25.995 21.083 47.086 47.086 47.086h313.904c26.002 0 47.086-21.09 47.086-47.086v-376.685c0-26.01-21.084-47.086-47.086-47.086zm-194.941 10.668l4.591-7.465c7.227-11.741 19.711-18.76 33.399-18.76 13.687 0 26.171 7.02 33.398 18.76l4.66 7.465h.322l34.456 52.251h-145.719l34.486-52.251h.407zm139.977 67.946l-10.346-15.68h18.194c8.652 0 15.695 7.035 15.695 15.695v298.209c0 8.645-7.043 15.695-15.695 15.695h-219.787c-8.652 0-15.695-7.05-15.695-15.695v-298.209c0-8.66 7.043-15.695 15.695-15.695h18.263l-10.361 15.68h204.037zm70.659 345.157c0 8.645-7.043 15.695-15.695 15.695h-313.904c-8.653 0-15.695-7.05-15.695-15.695v-376.685c0-8.66 7.042-15.695 15.695-15.695h86.078l-10.461 15.848h-28.616c-17.335 0-31.39 14.04-31.39 31.39v298.209c0 17.335 14.055 31.39 31.39 31.39h219.787c17.335 0 31.39-14.055 31.39-31.39v-298.209c0-17.35-14.056-31.39-31.39-31.39h-28.54l-10.453-15.848h86.109c8.652 0 15.695 7.035 15.695 15.695v376.685z"/></svg>