<svg xmlns="http://www.w3.org/2000/svg" viewBox="0 0 512 512"><path d="M475.702 350.145v-235.375c0-26.003-21.083-47.086-47.086-47.086h-345.294c-26.003 0-47.086 21.083-47.086 47.086v235.375h-31.359v47.086c0 25.995 21.083 47.086 47.086 47.086h408.075c26.003 0 47.086-21.09 47.086-47.086v-47.086h-31.422zm-408.075-235.314v-.061c0-8.656 7.043-15.695 15.695-15.695h345.294c8.653 0 15.695 7.039 15.695 15.695v235.374h-15.695v-203.984c0-8.668-7.028-15.695-15.695-15.695h-313.904c-8.668 0-15.695 7.028-15.695 15.695v203.984h-15.695v-235.313zm345.294 31.329v203.984h-313.904v-203.984h313.904zm62.812 251.07c0 8.652-7.042 15.695-15.695 15.695h-408.076c-8.652 0-15.695-7.043-15.695-15.695v-15.695h439.466v15.695zm-219.733-274.47c4.338 0 7.848-3.514 7.848-7.848s-3.509-7.848-7.848-7.848c-4.337 0-7.848 3.513-7.848 7.848 0 4.333 3.511 7.848 7.848 7.848z"/></svg>