<svg xmlns="http://www.w3.org/2000/svg" viewBox="0 0 448 512"><path d="M396.632 399.525v-119.952c0-34.617-28.164-62.781-62.781-62.781h-94.171v-104.325c22.677-6.759 39.238-27.75 39.238-52.626 0-30.344-24.608-54.937-54.933-54.937-30.34 0-54.933 24.593-54.933 54.937 0 24.88 16.554 45.875 39.238 52.63v104.322h-94.171c-34.617 0-62.781 28.163-62.781 62.781v119.955c-22.669 6.767-39.207 27.751-39.207 52.627 0 30.336 24.593 54.933 54.933 54.933 30.325 0 54.933-24.597 54.933-54.933 0-24.896-16.576-45.894-39.268-52.638v-119.945c0-17.305 14.079-31.39 31.39-31.39h94.171v151.346c-22.684 6.76-39.238 27.751-39.238 52.635 0 30.336 24.593 54.933 54.933 54.933 30.325 0 54.933-24.597 54.933-54.933 0-24.884-16.561-45.875-39.238-52.631v-151.35h94.171c17.312 0 31.39 14.086 31.39 31.39v119.947c-22.684 6.76-39.238 27.751-39.238 52.635 0 30.336 24.593 54.933 54.933 54.933 30.325 0 54.933-24.597 54.933-54.933.001-24.883-16.56-45.874-39.237-52.63zm-196.19-339.684c0-12.982 10.56-23.547 23.543-23.547 12.982 0 23.543 10.564 23.543 23.547s-10.561 23.543-23.543 23.543c-12.983-.001-23.543-10.561-23.543-23.543zm-109.836 392.314c0 12.982-10.561 23.543-23.543 23.543s-23.543-10.56-23.543-23.543c0-12.982 10.561-23.547 23.543-23.547s23.543 10.565 23.543 23.547zm156.922.008c0 12.982-10.561 23.543-23.543 23.543s-23.543-10.561-23.543-23.543c0-12.986 10.56-23.547 23.543-23.547 12.982.001 23.543 10.561 23.543 23.547zm133.409 23.535c-12.982 0-23.543-10.561-23.543-23.543s10.56-23.547 23.543-23.547c12.982 0 23.543 10.564 23.543 23.547s-10.561 23.543-23.543 23.543z"/></svg>