<svg xmlns="http://www.w3.org/2000/svg" viewBox="0 0 384 512"><path d="M249.677 62.113c-21.597-15.634-42.013-30.409-42.013-41.422 0-8.668-7.02-15.695-15.695-15.695-8.66 0-15.695 7.028-15.695 15.695v351.249c-18.331-13.527-43.162-21.888-70.566-21.888-56.359 0-102.019 35.131-102.019 78.476s45.66 78.476 102.019 78.476c56.343 0 102.019-35.131 102.019-78.476 0-1.065-.154-2.1-.215-3.157.046-.506.153-.997.153-1.518v-199.179c32.648 1.074 110.817 10.116 143.127 70.261 2.79 5.18 8.154 8.276 13.825 8.276 1.273 0 2.56-.153 3.832-.475 6.974-1.763 11.863-8.031 11.863-15.22-.001-130.849-78.614-187.744-130.635-225.403zm-143.97 413.501c-38.288 0-70.628-21.566-70.628-47.086s32.341-47.086 70.628-47.086 70.628 21.565 70.628 47.086c.001 25.52-32.34 47.086-70.628 47.086zm101.957-282.391v-123.362c7.143 5.74 15.113 11.526 23.605 17.68 41.889 30.318 96.838 70.092 112.993 150.737-45.262-37.821-107.184-44.274-136.598-45.055z"/></svg>