<svg xmlns="http://www.w3.org/2000/svg" viewBox="0 0 512 512"><path d="M496.831 154.98l-235.428-86.34c-3.494-1.272-7.311-1.272-10.805 0l-235.428 86.34c-6.185 2.269-10.293 8.154-10.293 14.73 0 6.59 4.108 12.476 10.293 14.745l13.25 4.858v194.381c-4.675 2.729-7.848 7.725-7.848 13.519v31.405c0 8.661 7.028 15.695 15.695 15.695s15.695-7.035 15.695-15.695v-31.405c0-5.794-3.173-10.79-7.848-13.519v-188.633l47.055 17.258v122.128c0 60.682 49.186 109.866 109.866 109.866h109.866c60.681 0 109.866-49.185 109.866-109.866v-122.112l76.062-27.88c6.185-2.269 10.292-8.154 10.292-14.745.002-6.576-4.105-12.462-10.29-14.73zm-107.452 179.467c0 43.269-35.207 78.476-78.476 78.476h-109.867c-43.269 0-78.476-35.207-78.476-78.476v-110.617l128.038 46.933c1.747.643 3.571.966 5.402.966s3.655-.323 5.403-.966l127.976-46.917v110.601zm-133.379-95.136l-189.837-69.601 189.837-69.617 189.837 69.617-189.837 69.601z"/></svg>