<svg xmlns="http://www.w3.org/2000/svg" viewBox="0 0 512 512"><path d="M460.038 20.572h-408.076c-26.003 0-47.086 21.075-47.086 47.086v298.209c0 25.995 21.083 47.086 47.086 47.086h149.074v47.086h-39.238c-8.668 0-15.695 7.02-15.695 15.695 0 8.66 7.028 15.695 15.695 15.695h188.342c8.668 0 15.695-7.035 15.695-15.695 0-8.676-7.028-15.695-15.695-15.695h-39.238v-47.086h149.135c26.002 0 47.086-21.09 47.086-47.086v-298.209c0-26.011-21.083-47.086-47.085-47.086zm-408.076 31.39h408.075c8.652 0 15.695 7.035 15.695 15.695v.061l-439.465-.061c0-8.659 7.043-15.695 15.695-15.695zm423.771 31.452v235.428h-439.466v-235.428h439.466zm-196.221 376.624h-47.086v-47.086h47.086v47.086zm180.526-78.476h-408.076c-8.653 0-15.695-7.035-15.695-15.695v-31.329h439.466v31.329c0 8.659-7.043 15.695-15.695 15.695z"/></svg>