<svg xmlns="http://www.w3.org/2000/svg" viewBox="0 0 512 512"><path d="M460.038 21.758h-408.076c-26.003 0-47.086 21.079-47.086 47.086v374.313c0 26.003 21.083 47.086 47.086 47.086h408.075c26.002 0 47.086-21.083 47.086-47.086v-374.314c0-26.006-21.083-47.085-47.085-47.085zm-423.771 405.711v-31.329h439.466v31.329h-439.466zm0-47.024v-31.39h439.466v31.39h-439.466zm0-47.086v-31.39h439.466v31.39h-439.466zm0-47.085v-16.124c4.92 1.74 10.185 2.736 15.695 2.736h408.075c5.51 0 10.775-.996 15.695-2.736v16.124h-439.465zm423.771 172.578h-408.076c-8.653 0-15.695-7.035-15.695-15.687h439.466c0 8.651-7.043 15.687-15.695 15.687zm15.695-233.053c0 8.653-7.043 15.695-15.695 15.695h-408.076c-8.653 0-15.695-7.042-15.695-15.695v-156.956c0-8.656 7.042-15.695 15.695-15.695h408.075c8.652 0 15.695 7.039 15.695 15.695v156.956zm-219.764-159.266c-43.338 0-78.476 35.138-78.476 78.472 0 43.342 35.138 78.48 78.476 78.48 43.346 0 78.476-35.138 78.476-78.48 0-43.334-35.13-78.472-78.476-78.472zm0 141.257c-34.617 0-62.781-28.164-62.781-62.785 0-34.613 28.163-62.777 62.781-62.777 34.617 0 62.781 28.164 62.781 62.777 0 34.621-28.164 62.785-62.781 62.785zm-117.683-7.84h-62.781c-4.338 0-7.848 3.51-7.848 7.848 0 4.33 3.509 7.848 7.848 7.848h62.781c4.337 0 7.848-3.518 7.848-7.848 0-4.338-3.511-7.848-7.848-7.848zm0-125.569h-62.781c-4.338 0-7.848 3.514-7.848 7.848s3.509 7.848 7.848 7.848h62.781c4.337 0 7.848-3.513 7.848-7.848 0-4.334-3.511-7.848-7.848-7.848zm298.178 125.569h-62.781c-4.338 0-7.848 3.51-7.848 7.848 0 4.33 3.509 7.848 7.848 7.848h62.781c4.337 0 7.848-3.518 7.848-7.848 0-4.338-3.51-7.848-7.848-7.848zm0-125.569h-62.781c-4.338 0-7.848 3.514-7.848 7.848s3.509 7.848 7.848 7.848h62.781c4.337 0 7.848-3.513 7.848-7.848 0-4.334-3.51-7.848-7.848-7.848zm-192.335 54.259c1.977-9.791 17.787-7.717 24.754-3.295 5.648 4.142 12.423-4.047 6.023-9.223-3.073-2.364-6.981-3.954-11.166-4.809l.077-.368v-5.169c0-4.333-3.51-7.848-7.848-7.848s-7.848 3.514-7.848 7.848v5.169c0 .249.122.46.137.701-8.238 2.089-15.051 7.354-16.086 16.052-2.912 26.73 36.242 18.354 37.461 32.283-1.41 13.366-21.267 9.411-28.984 4.143-3.203-2.637-5.931-1.79-8.376.658-1.694 2.541-1.793 6.683 1.318 9.223 3.579 2.959 8.821 5.016 14.53 6.005v4.238c0 4.33 3.509 7.848 7.848 7.848 4.337 0 7.848-3.517 7.848-7.848v-4.46c9.71-2.104 17.741-8.147 18.055-19.523.659-25.039-40.287-16.191-37.743-31.625z"/></svg>