<svg xmlns="http://www.w3.org/2000/svg" viewBox="0 0 320 512"><path d="M160 350.167c52.006 0 94.171-42.162 94.171-94.171v-156.952c0-52.01-42.165-94.171-94.171-94.171-52.005 0-94.171 42.161-94.171 94.171v156.952c0 52.009 42.166 94.171 94.171 94.171zm-62.781-251.123c0-34.617 28.164-62.781 62.781-62.781s62.781 28.163 62.781 62.781v156.952c0 34.617-28.163 62.781-62.781 62.781-34.617 0-62.781-28.164-62.781-62.781v-156.952zm204.038 109.874c-8.668 0-15.695 7.028-15.695 15.695v31.383c0 69.233-56.328 125.562-125.562 125.562-69.233 0-125.562-56.328-125.562-125.562v-31.383c0-8.668-7.028-15.695-15.695-15.695s-15.695 7.028-15.695 15.695v31.383c0 81.246 62.053 148.258 141.257 156.159v63.582h-78.445c-8.667 0-15.695 7.028-15.695 15.695s7.028 15.695 15.695 15.695h188.342c8.668 0 15.695-7.028 15.695-15.695 0-8.668-7.028-15.695-15.695-15.695h-78.507v-63.582c79.204-7.901 141.257-74.912 141.257-156.159v-31.383c0-8.667-7.028-15.695-15.695-15.695z"/></svg>