<svg xmlns="http://www.w3.org/2000/svg" viewBox="0 0 512 512"><path d="M467.21 8.831h-422.421c-22.041 0-39.912 17.872-39.912 39.913v296.799c0 22.041 17.871 39.912 39.912 39.912h55.454l113.116 113.116c3.004 3.004 7.012 4.598 11.096 4.598 2.024 0 4.062-.399 6.009-1.195 5.862-2.437 9.686-8.154 9.686-14.5v-102.019h227.06c22.041 0 39.913-17.871 39.913-39.912v-296.799c0-22.041-17.872-39.913-39.913-39.913zm8.523 336.712c0 4.69-3.824 8.522-8.522 8.522h-227.06c-17.335 0-31.39 14.055-31.39 31.39v64.122l-86.324-86.316c-5.886-5.894-13.871-9.197-22.194-9.197h-55.454c-4.698 0-8.522-3.832-8.522-8.522v-296.798c0-4.705 3.824-8.522 8.522-8.522h422.421c4.698 0 8.522 3.817 8.522 8.522v296.799zm-109.897-242.541h-219.702c-8.668 0-15.695 7.02-15.695 15.695 0 8.66 7.027 15.695 15.695 15.695h219.702c8.668 0 15.695-7.035 15.695-15.695 0-8.674-7.028-15.695-15.695-15.695zm0 78.476h-219.702c-8.668 0-15.695 7.02-15.695 15.695 0 8.66 7.027 15.695 15.695 15.695h219.702c8.668 0 15.695-7.035 15.695-15.695 0-8.674-7.028-15.695-15.695-15.695zm-94.171 78.476h-125.531c-8.668 0-15.695 7.028-15.695 15.695 0 8.668 7.027 15.695 15.695 15.695h125.531c8.668 0 15.695-7.028 15.695-15.695s-7.028-15.695-15.695-15.695z"/></svg>