<svg xmlns="http://www.w3.org/2000/svg" viewBox="0 0 512 512"><path d="M494.026 10.828c-5.418-3.897-11.848-5.92-18.354-5.92-3.334 0-6.691.533-9.933 1.613l-131.823 43.974-147.426-44.262c-2.943-.885-5.985-1.325-9.027-1.325-3.357 0-6.714.54-9.933 1.613l-141.134 47.085c-12.814 4.277-21.458 16.27-21.458 29.777v392.319c0 10.089 4.851 19.569 13.043 25.47 5.41 3.897 11.848 5.92 18.347 5.92 3.342 0 6.69-.533 9.932-1.613l131.708-43.939 147.456 44.231c2.943.881 5.985 1.322 9.021 1.322 3.356 0 6.706-.541 9.932-1.613l141.226-47.086c12.814-4.268 21.458-16.266 21.458-29.777v-392.319c.001-10.09-4.85-19.57-13.035-25.47zm-301.114 30.11l125.592 37.705v392.277l-125.592-37.671v-392.311zm-156.584 434.764v-392.319l125.194-41.767v392.319l-125.194 41.767zm439.344-47.085l-125.777 41.935v-392.299l125.777-41.955v392.319z"/></svg>