<svg xmlns="http://www.w3.org/2000/svg" viewBox="0 0 512 512"><path d="M460.038 75.505h-408.076c-26.003 0-47.086 21.083-47.086 47.086v266.818c0 26.002 21.082 47.086 47.086 47.086h408.075c26.002 0 47.086-21.083 47.086-47.086v-266.818c0-26.003-21.083-47.086-47.085-47.086zm11.908 324.001l-128.703-128.708 132.49-132.489v251.1c0 3.862-1.457 7.357-3.787 10.097zm-435.679-10.097v-251.039l131.493 131.497-128.581 128.581c-1.824-2.56-2.912-5.667-2.912-9.039zm153.688-97.352l39.138 39.138c7.173 7.181 16.722 11.135 26.876 11.135s19.703-3.954 26.876-11.135l38.203-38.204 112.104 112.112h-356.237l113.04-113.046zm270.083-185.161c.843 0 1.663.122 2.467.249l-201.854 201.857c-1.686 1.69-3.655 1.938-4.682 1.938-1.027 0-2.997-.249-4.683-1.938l-201.845-201.854c.827-.13 1.655-.253 2.522-.253h408.075z"/></svg>