<svg xmlns="http://www.w3.org/2000/svg" viewBox="0 0 384 512"><path d="M239.086 114.713v203.643c0 25.965-21.121 47.086-47.086 47.086s-47.086-21.121-47.086-47.086v-203.643h-141.256v204.042c0 104.026 84.324 188.342 188.342 188.342 104.019 0 188.342-84.316 188.342-188.342v-204.042h-141.256zm109.866 31.39v47.151h-78.476v-47.151h78.476zm-235.428 0v47.151h-78.476v-47.151h78.476zm78.476 329.603c-86.546 0-156.952-70.398-156.952-156.952v-94.11h78.476v93.711c0 43.269 35.207 78.476 78.476 78.476s78.476-35.207 78.476-78.476v-93.711h78.476v94.11c0 86.554-70.406 156.952-156.952 156.952zm136.613-403.424l-62.781-62.781c-2.966-2.966-6.904-4.598-11.096-4.598s-8.132 1.632-11.097 4.598l-51.669 51.665-51.669-51.665c-2.966-2.966-6.904-4.598-11.097-4.598-4.192 0-8.132 1.632-11.097 4.598l-62.781 62.781c-6.123 6.12-6.123 16.075 0 22.198 2.966 2.959 6.905 4.599 11.097 4.599 4.192 0 8.131-1.64 11.097-4.599l51.684-51.684 51.669 51.669c2.966 2.958 6.904 4.598 11.096 4.598s8.132-1.64 11.097-4.598l51.669-51.669 51.684 51.684c2.966 2.959 6.905 4.599 11.097 4.599s8.131-1.64 11.096-4.599c6.124-6.123 6.124-16.078.001-22.198z"/></svg>