<svg xmlns="http://www.w3.org/2000/svg" viewBox="0 0 512 512"><path d="M465.663 75.044c-26.73-26.723-62.282-41.446-100.087-41.446-37.813 0-73.357 14.722-100.095 41.449l-9.48 9.48-9.48-9.484c-26.738-26.723-62.282-41.446-100.095-41.446-37.805 0-73.356 14.722-100.087 41.449-55.194 55.194-55.194 144.996 0 200.183l198.566 198.573c2.943 2.943 6.935 4.598 11.097 4.598s8.154-1.655 11.097-4.598l198.565-198.573c55.193-55.185 55.193-144.988-.001-200.185zm-22.194 177.992l-187.469 187.469-187.469-187.469c-42.947-42.955-42.947-112.84 0-155.791 20.807-20.799 48.465-32.257 77.894-32.257s57.094 11.457 77.902 32.253l20.577 20.584c5.886 5.886 16.308 5.886 22.194 0l20.576-20.58c20.807-20.799 48.473-32.257 77.902-32.257s57.087 11.457 77.894 32.253c42.946 42.955 42.946 112.84-.001 155.795zm5.878-98.01c-3.686-15.565-11.633-29.789-22.975-41.143-16.362-16.347-38.112-25.352-61.248-25.352-4.337 0-7.848 3.514-7.848 7.848s3.51 7.848 7.848 7.848c18.944 0 36.755 7.373 50.151 20.758 9.281 9.288 15.787 20.929 18.807 33.658.851 3.61 4.07 6.04 7.626 6.04.597 0 1.211-.069 1.816-.211 4.213-1.001 6.827-5.231 5.823-9.446zm-303.374-66.495c-4.337 0-7.848 3.514-7.848 7.848s3.51 7.848 7.848 7.848c18.952 0 36.763 7.373 50.151 20.758 1.533 1.533 3.541 2.299 5.549 2.299 2.007 0 4.016-.766 5.548-2.299 3.065-3.066 3.065-8.032 0-11.097-16.347-16.351-38.104-25.357-61.248-25.357z"/></svg>