<svg xmlns="http://www.w3.org/2000/svg" viewBox="0 0 512 512"><path d="M495.558 440.073l-130.764-130.772c20.546-31.007 32.532-68.176 32.532-108.165 0-108.349-87.841-196.19-196.19-196.19s-196.19 87.841-196.19 196.19 87.841 196.19 196.19 196.19c39.989 0 77.158-11.994 108.172-32.533l130.765 130.773c7.656 7.656 17.703 11.488 27.743 11.488s20.087-3.832 27.742-11.488c15.328-15.319 15.328-40.166 0-55.493zm-294.422-74.138c-90.868 0-164.8-73.931-164.8-164.8s73.931-164.8 164.8-164.8 164.8 73.931 164.8 164.8c-.001 90.869-73.932 164.8-164.8 164.8zm272.221 107.445c-1.893 1.885-4.054 2.284-5.54 2.284-1.479 0-3.648-.399-5.549-2.291l-128.09-128.091c3.847-3.548 7.549-7.257 11.096-11.097l128.091 128.09c1.901 1.893 2.299 4.062 2.299 5.541 0 1.486-.399 3.648-2.307 5.564zm-319.054-405.554c-39.721 13.94-70.928 44.58-85.619 84.048-1.51 4.062.56 8.584 4.621 10.086.904.337 1.824.505 2.736.505 3.181 0 6.177-1.962 7.357-5.119 13.059-35.084 40.794-62.321 76.101-74.713 4.093-1.434 6.246-5.909 4.805-10.001-1.433-4.093-5.924-6.239-10.001-4.806z"/></svg>