<svg xmlns="http://www.w3.org/2000/svg" viewBox="0 0 448 512"><path d="M223.992 287.398c-25.995 0-47.078 21.076-47.078 47.071 0 20.492 13.12 37.889 31.39 44.357v26.225c0 8.66 7.028 15.695 15.695 15.695 8.668 0 15.695-7.035 15.695-15.695v-26.225c18.27-6.484 31.39-23.865 31.39-44.357.002-25.996-21.089-47.071-47.092-47.071zm0 62.766c-8.652 0-15.687-7.035-15.687-15.695 0-8.645 7.035-15.68 15.687-15.68 8.66 0 15.703 7.035 15.703 15.68 0 8.659-7.043 15.695-15.703 15.695zm172.655-172.633h-47.116v-47.101c0-69.341-56.213-125.562-125.562-125.562s-125.562 56.22-125.562 125.562v47.101h-47.054c-26.003 0-47.086 21.076-47.086 47.086v235.428c0 25.995 21.083 47.086 47.086 47.086h345.294c26.002 0 47.086-21.09 47.086-47.086v-235.428c0-26.01-21.084-47.086-47.086-47.086zm-266.849-47.1c0-51.914 42.242-94.171 94.171-94.171s94.171 42.257 94.171 94.171v47.101h-15.665v-47.055c0-43.361-35.145-78.507-78.507-78.507-43.361 0-78.507 35.145-78.507 78.507v47.055h-15.665v-47.101zm156.983 47.1h-125.623v-47.055c0-34.639 28.179-62.811 62.811-62.811 34.631 0 62.811 28.172 62.811 62.811v47.055zm125.561 282.514c0 8.645-7.043 15.695-15.695 15.695h-345.294c-8.653 0-15.695-7.05-15.695-15.695v-235.428c0-8.66 7.042-15.695 15.695-15.695h345.294c8.652 0 15.695 7.035 15.695 15.695v235.428z"/></svg>