<svg xmlns="http://www.w3.org/2000/svg" viewBox="0 0 448 512"><path d="M418.135 57.994l-19.428-19.42c-18.523-18.531-43.162-28.739-69.356-28.739-26.201 0-50.841 10.207-69.363 28.739l-116.534 116.534c-18.194 18.193-28.394 42.38-28.732 68.099-.023 2.177.391 4.246 1.172 6.146l-85.977 85.987c-18.531 18.515-28.732 43.162-28.739 69.355 0 26.195 10.208 50.841 28.739 69.356l19.42 19.435c19.129 19.113 44.242 28.677 69.364 28.677 25.121 0 50.243-9.565 69.363-28.677l116.527-116.534c19.711-19.711 30.133-46.963 28.593-74.798l-.069-.414 85.021-85.021c38.248-38.255 38.248-100.484-.001-138.725zm-22.194 116.533l-116.533 116.534c-26.011 25.995-68.33 25.995-94.34 0l-19.42-19.42c-6.131-6.131-16.063-6.131-22.194 0-6.131 6.116-6.131 16.063 0 22.194l19.42 19.42c19.121 19.114 44.242 28.677 69.363 28.677 21.489 0 42.948-7.05 60.682-21.044-2.889 5.012-6.361 9.702-10.523 13.871l-116.526 116.534c-26.011 25.995-68.329 25.995-94.34 0l-19.42-19.435c-12.599-12.599-19.542-29.352-19.542-47.163 0-17.81 6.943-34.563 19.542-47.162l116.526-116.533c26.011-26.011 68.33-25.995 94.34 0l19.42 19.42c6.131 6.131 16.063 6.131 22.195 0 6.131-6.131 6.131-16.063 0-22.194l-19.42-19.435c-35.513-35.498-91.687-37.982-130.152-7.541 2.896-5.043 6.422-9.748 10.629-13.948l116.534-116.534c12.599-12.599 29.352-19.542 47.17-19.542 17.811 0 34.563 6.943 47.163 19.542l19.428 19.42c26.001 26.01 26.001 68.329-.002 94.339z"/></svg>