<svg xmlns="http://www.w3.org/2000/svg" viewBox="0 0 512 512"><path d="M507.108 244.259c0-25.965-21.122-47.086-47.086-47.086h-123.155c2.375-18.392 5.472-48.258 5.472-78.476 0-59.317-32.571-86.324-62.811-86.324-39.238 0-39.238 41.553-39.238 94.171 0 37.89-58.98 96.21-89.481 122.328-6.177-2.973-13.059-4.675-20.354-4.675h-78.477c-26.011 0-47.086 21.076-47.086 47.086l15.695 141.257c2.988 24.746 21.075 47.086 47.086 47.086h62.781c20.277 0 37.506-12.844 44.127-30.815l25.428 13.327c2.238 1.18 4.752 1.793 7.281 1.793h209.555c23.803 0 43.177-19.358 43.177-43.162 0-6.667-1.564-12.952-4.277-18.592 11.986-7.679 19.972-21.09 19.972-36.341 0-7.181-1.794-13.933-4.905-19.894 12.415-8.492 20.6-22.754 20.6-38.901 0-8.399-2.238-16.285-6.116-23.121 13.09-8.377 21.812-23 21.812-39.661zm-376.654 203.977h-62.781c-8.814 0-14.791-10.039-15.895-19.159l-15.45-139.073c.659-8.054 7.418-14.415 15.65-14.415h78.476c8.644 0 15.695 7.035 15.695 15.695v130.436c-.292 1.732-.292 3.449 0 5.135v5.686c0 8.644-7.051 15.695-15.695 15.695zm286.391-15.696h-205.693l-33.613-17.626v-123.63c0-7.188-1.656-13.978-4.537-20.071 27.712-23.919 98.678-90.439 98.678-144.667 0-32.294 0-62.781 7.848-62.781 15.603 0 31.421 18.868 31.421 54.933 0 45.154-7.587 91.122-7.664 91.581-.767 4.552.521 9.212 3.495 12.737 2.989 3.517 7.373 5.548 11.986 5.548h141.257c8.644 0 15.695 7.035 15.695 15.695 0 8.653-7.051 15.695-15.695 15.695h-17.443c-8.676 0-15.695 7.02-15.695 15.695 0 8.66 7.02 15.695 15.695 15.695h1.748c8.644 0 15.695 7.043 15.695 15.695 0 8.66-7.051 15.695-15.695 15.695h-10.576c-.399-.015-.797-.061-1.211-.061l-.598.061h-5.043c-8.675 0-15.695 7.028-15.695 15.695 0 8.668 7.02 15.695 15.695 15.695h6.254c6.207.322 11.174 5.426 11.174 11.71 0 6.484-5.288 11.771-11.787 11.771h-15.235l-.153.016-.307-.016c-8.66 0-15.695 7.028-15.695 15.695s7.035 15.695 15.695 15.695c6.499 0 11.787 5.281 11.787 11.771-.001 6.487-5.29 11.774-11.788 11.774z"/></svg>