<svg xmlns="http://www.w3.org/2000/svg" viewBox="0 0 384 512"><path d="M140.967 507.123c-2.038 0-4.1-.399-6.069-1.227-6.744-2.835-10.637-9.948-9.388-17.151l28.578-164.447-129.555 10.292c-6.069.483-11.971-2.644-14.959-8.016-2.981-5.372-2.568-11.986 1.081-16.937l219.702-298.373c4.315-5.863 12.101-7.986 18.806-5.123 6.699 2.862 10.546 9.959 9.288 17.136l-28.601 163.371 128.842-16.676c6.154-.797 12.285 2.149 15.488 7.518 3.211 5.368 2.92 12.128-.728 17.204l-219.732 305.891c-3.019 4.208-7.817 6.538-12.753 6.538zm32.05-215.771c4.399 0 8.614 1.847 11.603 5.128 3.265 3.586 4.69 8.475 3.863 13.258l-20.324 116.948 158.707-220.944-114.136 14.775c-4.982.643-9.909-1.111-13.358-4.721-3.448-3.602-4.981-8.629-4.115-13.55l20.753-118.557-159.703 216.882 115.468-9.165c.415-.039.828-.054 1.242-.054z"/></svg>