<svg xmlns="http://www.w3.org/2000/svg" viewBox="0 0 512 512"><path d="M502.525 9.482c-3.426-3.433-8.216-5.073-13.059-4.475-11.833 1.487-291.334 37.69-411.8 145.748-3.188 2.805-6.323 5.686-9.388 8.752-74.613 74.612-78.116 193.767-10.622 272.642l-48.181 48.174c-6.131 6.131-6.131 16.062 0 22.194 3.066 3.065 7.082 4.598 11.097 4.598s8.031-1.533 11.097-4.598l48.173-48.174c36.356 31.176 82.124 48.235 130.535 48.235h.016c53.668 0 104.134-20.907 142.1-58.857 3.057-3.065 5.963-6.207 8.668-9.288 108.134-120.566 144.353-400.059 145.84-411.908.605-4.797-1.05-9.625-4.476-13.043zm-164.838 404.106c-2.376 2.697-4.821 5.364-7.396 7.939-32.027 32.018-74.606 49.66-119.898 49.66h-.008c-40.028 0-77.902-13.825-108.273-39.116l58.305-58.305h158.333c8.668 0 15.695-7.035 15.695-15.695 0-8.675-7.028-15.695-15.695-15.695h-126.941l86.324-86.324 95.551-.015c8.668 0 15.695-7.02 15.695-15.695 0-8.66-7.028-15.695-15.695-15.695l-64.16.015 98.785-98.785c6.131-6.131 6.131-16.062 0-22.194-6.131-6.131-16.063-6.131-22.194 0l-98.754 98.754v-64.099c0-8.66-7.028-15.695-15.695-15.695-8.668 0-15.695 7.035-15.695 15.695v95.49l-86.293 86.293v-126.849c0-8.66-7.027-15.695-15.695-15.695s-15.695 7.035-15.695 15.695v158.24l-58.351 58.351c-55.293-66.566-51.822-165.795 10.522-228.147 2.59-2.59 5.265-5.043 8.062-7.511 95.227-85.404 307.495-124.55 374.322-135.049-10.506 66.827-49.66 279.111-135.156 374.432z"/></svg>