<svg xmlns="http://www.w3.org/2000/svg" viewBox="0 0 320 512"><path d="M316.952 162.013c0-86.68-70.268-156.952-156.952-156.952s-156.952 70.272-156.952 156.952c0 28.693 7.824 55.505 21.274 78.649l-.268-.169 62.099 114.522.016-.061c3.218 6.717 8.039 12.476 13.878 16.974-6.452 5.024-10.675 12.78-10.675 21.593 0 7.699 3.188 14.634 8.284 19.619-5.096 4.986-8.284 11.921-8.284 19.619 0 10.902 6.407 20.24 15.61 24.673 2.721 27.793 26.149 49.507 54.658 49.507 28.363 0 51.699-21.5 54.618-49.093 9.626-4.265 16.37-13.871 16.37-25.087 0-7.698-3.188-14.633-8.285-19.619 5.096-4.985 8.285-11.921 8.285-19.619 0-8.813-4.223-16.569-10.684-21.593 5.863-4.517 10.699-10.3 13.918-17.051l.038.138 62.098-114.522-.352.222c13.465-23.156 21.306-49.986 21.306-78.702zm-157.312 329.231c-18.815 0-34.548-13.323-38.342-31.018h76.683c-3.794 17.695-19.527 31.018-38.341 31.018zm55.293-58.485c0 6.492-5.281 11.771-11.771 11.771h-86.324c-6.492 0-11.771-5.28-11.771-11.771 0-6.491 5.28-11.771 11.771-11.771h86.324c6.491 0 11.771 5.28 11.771 11.771zm-11.771-51.009c6.491 0 11.771 5.281 11.771 11.771 0 6.492-5.281 11.771-11.771 11.771h-86.324c-6.492 0-11.771-5.28-11.771-11.771 0-6.491 5.28-11.771 11.771-11.771h86.324zm65.348-156.814c-.766 1.322-1.433 2.682-1.993 4.069l-58.964 108.751c-.751 1.15-1.425 2.357-2.03 3.618-2.008 4.215-6.63 8.621-13.527 8.89l7.188-93.47c.33-4.322-2.904-8.093-7.219-8.427-4.384-.326-8.1 2.904-8.43 7.223l-7.288 94.769h-32.524l-7.289-94.769c-.33-4.319-4.077-7.549-8.43-7.223-4.315.334-7.549 4.104-7.219 8.427l7.188 93.462c-6.867-.279-11.488-4.667-13.496-8.867-.468-.973-.981-1.916-1.533-2.82l-59.668-110.039c-.521-1.238-1.127-2.456-1.817-3.64-11.135-19.163-17.021-40.905-17.021-62.877 0-69.233 56.328-125.562 125.562-125.562 69.233 0 125.562 56.329 125.562 125.562 0 21.979-5.894 43.74-17.052 62.923zm-133.149-161.945c-30.149 7.483-54.941 27.991-68.015 56.267-1.816 3.932-.1 8.595 3.832 10.415 1.066.494 2.192.724 3.288.724 2.966 0 5.809-1.686 7.134-4.556 10.898-23.577 32.41-41.38 57.546-47.614 4.208-1.046 6.767-5.299 5.725-9.507-1.05-4.208-5.334-6.768-9.51-5.729z"/></svg>