<svg xmlns="http://www.w3.org/2000/svg" viewBox="0 0 512 512"><path d="M454.512 210.67c6.131-6.131 6.131-16.063 0-22.194l-155.373-155.374c-5.886-5.886-16.308-5.886-22.194 0l-44.235 44.22c-16.293 16.301-18.424 41.759-5.059 60.543l-198.074 198.09c-33.659 33.643-33.643 88.409 0 122.083 16.308 16.3 37.981 25.275 61.018 25.275h.015c23.052 0 44.726-8.982 61.018-25.283l198.106-198.083c8.047 5.733 17.473 8.752 27.298 8.752 12.537 0 24.339-4.897 33.245-13.795l44.235-44.234zm-325.077 225.166c-10.377 10.376-24.156 16.086-38.839 16.086-14.653 0-28.448-5.71-38.824-16.078-21.412-21.428-21.412-56.282 0-77.694l86.661-86.661h155.357l-164.355 164.347zm238.509-201.455l-10.821-7.709c-6.239-4.438-14.791-3.725-20.201 1.694l-11.726 11.733h-155.373l89.419-89.419c5.426-5.411 6.146-13.963 1.686-20.202l-7.695-10.805c-4.445-6.254-3.755-14.73 1.671-20.148l33.137-33.13 133.179 133.179-33.137 33.13c-5.302 5.302-13.993 6.045-20.139 1.677zm134.819 114.84c-9.534-25.926-30.655-50.757-46.688-67.019-5.901-5.978-16.461-5.978-22.363.008-16.062 16.301-37.215 41.147-46.748 66.935-9.901 23.642-4.614 50.603 13.488 68.697 11.848 11.856 27.604 18.385 44.388 18.385 16.768 0 32.54-6.529 44.403-18.393 18.072-18.071 23.391-45.001 13.52-68.613zm-35.713 46.419c-5.932 5.932-13.825 9.197-22.21 9.197s-16.263-3.265-22.194-9.189c-9.044-9.051-11.68-22.539-6.714-34.372.122-.307.368-.935.49-1.257 5.748-15.572 17.887-31.658 28.478-43.744 10.561 12.078 22.654 28.179 28.463 43.967.092.261.322.835.429 1.096 4.938 11.801 2.286 25.266-6.742 34.302z"/></svg>