<svg xmlns="http://www.w3.org/2000/svg" viewBox="0 0 512 512"><path d="M461.095 50.901c-30.655-30.647-70.827-45.967-110.985-45.967-40.173 0-80.346 15.319-110.985 45.959-45.492 45.507-57.141 111.967-35.085 168.279l-180.725 180.717c-24.508 24.516-24.508 64.267 0 88.784 12.262 12.262 28.325 18.392 44.388 18.392 16.078 0 32.141-6.131 44.403-18.392l13.013-13.013h36.739c17.335 0 31.39-14.056 31.39-31.39v-31.345h31.345c17.335 0 31.39-14.055 31.39-31.39v-36.739l36.847-36.832c18.408 7.204 37.904 10.806 57.386 10.806 40.126 0 80.239-15.282 110.878-45.905 61.295-61.295 61.295-160.67.001-221.964zm-22.194 199.761c-23.68 23.68-55.178 36.717-88.683 36.717-15.818 0-31.284-2.912-45.952-8.653-3.71-1.448-7.587-2.153-11.434-2.153-8.17 0-16.201 3.188-22.195 9.189l-36.847 36.839c-5.886 5.886-9.196 13.871-9.196 22.195v36.739h-31.344c-17.335 0-31.39 14.048-31.39 31.39v31.345h-36.74c-8.323 0-16.309 3.303-22.195 9.196l-13.013 13.006c-5.931 5.931-13.809 9.204-22.209 9.204-8.369 0-16.263-3.265-22.195-9.197-5.916-5.931-9.181-13.809-9.181-22.194 0-8.384 3.265-16.27 9.181-22.202l180.725-180.717c8.814-8.814 11.572-22.026 7.035-33.636-18.224-46.527-7.203-99.375 28.049-134.636 23.712-23.712 55.24-36.77 88.792-36.77 33.536 0 65.064 13.058 88.791 36.77 23.712 23.719 36.771 55.247 36.771 88.792 0 33.536-13.059 65.065-36.77 88.776zm-79.319-166.048c-6.131-6.123-14.163-9.189-22.194-9.189-8.047 0-16.078 3.065-22.209 9.189l-11.097 11.096c-12.247 12.262-12.247 32.141 0 44.403l66.597 66.582c6.131 6.131 14.163 9.197 22.194 9.197s16.063-3.065 22.194-9.197l11.097-11.097c12.262-12.262 12.262-32.134 0-44.388l-66.582-66.596zm55.485 99.888l-11.096 11.097c-2.959 2.966-6.897 4.598-11.097 4.598-4.199 0-8.139-1.632-11.097-4.598l-66.597-66.582c-6.116-6.123-6.116-16.086 0-22.202l11.097-11.097c2.973-2.966 6.912-4.598 11.112-4.598 4.184 0 8.124 1.632 11.097 4.598l66.581 66.59c6.116 6.116 6.116 16.078 0 22.194z"/></svg>