<svg xmlns="http://www.w3.org/2000/svg" viewBox="0 0 512 512"><path d="M389.409 271.695l-.268.016v-.016h-117.461v-15.964c0-17.159 13.963-31.122 31.13-31.122h101.283v-.122h8.713c34.701 0 62.934-28.11 62.934-62.919 0-34.478-28.049-62.52-62.52-62.52h-204.566c-17.167 0-31.13-13.963-31.13-31.13v-47.346c0-8.675-7.028-15.695-15.695-15.695-8.668 0-15.695 7.02-15.695 15.695v47.346c0 34.471 28.049 62.52 62.52 62.52h204.566c17.167 0 31.13 13.963 31.13 31.39 0 17.244-14.147 31.268-31.543 31.268h-72.1v.122h-37.897c-34.471 0-62.52 28.042-62.52 62.512v15.964h-116.412l-1.287-.061c-65.011 0-117.714 52.711-117.714 117.714s52.703 117.715 117.714 117.715c38.441 0 72.475-18.516 93.956-47.024h78.86c21.481 28.539 55.538 47.086 94.003 47.086 65.01 0 117.714-52.711 117.714-117.714s-52.705-117.715-117.715-117.715zm0 204.038c-27.267 0-52.389-12.599-68.92-34.571-5.931-7.878-15.22-12.515-25.083-12.515h-78.86c-9.855 0-19.136 4.629-25.068 12.508-16.531 21.933-41.645 34.517-68.889 34.517-47.6 0-86.324-38.725-86.324-86.324 0-47.338 38.303-85.902 85.542-86.324.621.038 1.279.061 2.069.061l265.263.016.759-.016c47.377.268 85.833 38.893 85.833 86.324.002 47.599-38.723 86.324-86.322 86.324zm-7.878-101.858c0 8.668-7.027 15.695-15.695 15.695s-15.695-7.027-15.695-15.695 7.027-15.695 15.695-15.695 15.695 7.027 15.695 15.695zm-15.695 30.999c-8.668 0-15.695 7.035-15.695 15.695 0 8.676 7.028 15.695 15.695 15.695 8.668 0 15.695-7.02 15.695-15.695 0-8.659-7.028-15.695-15.695-15.695zm62.78-46.694c0 8.668-7.027 15.695-15.695 15.695s-15.695-7.027-15.695-15.695 7.027-15.695 15.695-15.695 15.695 7.027 15.695 15.695zm0 46.694c0 8.668-7.027 15.695-15.695 15.695s-15.695-7.027-15.695-15.695 7.027-15.695 15.695-15.695 15.695 7.027 15.695 15.695zm-146.675-21.082l-15.848 15.848c-3.065 3.066-3.065 8.032 0 11.097 1.533 1.533 3.541 2.299 5.548 2.299 2.008 0 4.016-.767 5.549-2.299l15.848-15.848c3.065-3.066 3.065-8.032 0-11.097s-8.031-3.065-11.097 0zm-46.978 0l-15.848 15.848c-3.066 3.066-3.066 8.032 0 11.097 1.533 1.533 3.54 2.299 5.548 2.299s4.016-.767 5.548-2.299l15.849-15.848c3.065-3.066 3.065-8.032 0-11.097-3.066-3.065-8.032-3.065-11.097 0zm-81.012-10.109h-15.665v-15.665c0-8.675-7.028-15.695-15.695-15.695-8.668 0-15.695 7.02-15.695 15.695v15.665h-15.665c-8.668 0-15.695 7.02-15.695 15.695 0 8.66 7.028 15.695 15.695 15.695h15.665v15.665c0 8.668 7.027 15.695 15.695 15.695s15.695-7.028 15.695-15.695v-15.665h15.665c8.668 0 15.695-7.035 15.695-15.695 0-8.675-7.028-15.695-15.695-15.695z"/></svg>