<svg xmlns="http://www.w3.org/2000/svg" viewBox="0 0 512 512"><path d="M507.092 286.792v-35.314h-.092c.268-9.303-4.008-22.761-15.626-42.503-18.462-31.36-62.781-109.928-62.781-109.928-15.695-23.482-31.39-47.086-70.628-47.086h-203.984c-39.238 0-54.933 23.604-70.628 47.086 0 0-44.319 78.568-62.781 109.928-11.235 19.083-15.657 32.341-15.687 41.599h-.008v162.378c0 26.01 21.082 47.086 47.086 47.086h408.075c26.003 0 47.086-21.076 47.086-47.086v-125.562l-.032-.598zm-459.467-61.891c17.458-29.673 56.964-99.613 62.482-109.392 15.304-22.853 22.608-32.156 43.874-32.156h203.984c21.266 0 28.57 9.303 43.875 32.156 5.517 9.779 45.024 79.718 62.482 109.392 3.84 6.514 6.392 11.603 8.078 15.481h-1.716c-1.801 0-3.579-.016-5.303-.031-1.839-.031-3.617-.046-5.334-.046h-117.723c-8.882 0-14.002 3.004-15.757 7.909l-23.543 62.781c-4.46 9.15-9.855 15.695-23.512 15.695h-47.086c-16.423 0-20.515-7.848-23.573-15.695l-23.543-62.781c-3.311-7.909-12.323-7.909-15.665-7.909h-117.683c-1.732 0-3.533.015-5.395.046-1.724.015-3.502.031-5.303.031h-1.716c1.685-3.879 4.237-8.967 8.077-15.481zm428.108 62.489v125.562c0 8.66-7.043 15.695-15.695 15.695h-408.076c-8.652 0-15.695-7.035-15.695-15.695v-141.196h15.128c.191-.015.375-.061.567-.061h108.625l19.021 50.703c9.227 23.681 26.992 35.682 52.818 35.682h47.086c23.551 0 40.955-11.22 51.73-33.337l.651-1.334.521-1.395 18.876-50.32h124.44200000000001v15.696zm-313.904-141.195h188.311c8.668 0 15.695-7.02 15.695-15.695 0-8.66-7.028-15.695-15.695-15.695h-188.311c-8.668 0-15.695 7.035-15.695 15.695 0 8.675 7.027 15.695 15.695 15.695zm-31.391 62.781h251.092c8.668 0 15.695-7.02 15.695-15.695 0-8.66-7.028-15.695-15.695-15.695h-251.092c-8.668 0-15.695 7.035-15.695 15.695 0 8.675 7.028 15.695 15.695 15.695z"/></svg>