<svg xmlns="http://www.w3.org/2000/svg" viewBox="0 0 480 512"><path d="M474.252 296.706c-2.238-8.369-10.806-13.332-19.228-11.093l-90.247 24.21-93.375-53.868 93.244-53.799 90.339 24.233c1.364.368 2.736.541 4.077.541 6.928 0 13.273-4.621 15.151-11.634 2.245-8.372-2.721-16.978-11.089-19.224l-60.029-16.101 48.771-28.138c7.51-4.333 10.086-13.933 5.755-21.439-4.329-7.51-13.948-10.089-21.435-5.752l-49.063 28.306 16.078-59.918c2.246-8.369-2.72-16.979-11.089-19.224-8.407-2.238-16.983 2.724-19.228 11.093l-24.21 90.236-92.999 53.657v-107.336l66.161-66.16c6.131-6.127 6.131-16.067 0-22.195-6.131-6.131-16.063-6.131-22.194 0l-43.967 43.963v-56.377c0-8.668-7.028-15.695-15.695-15.695-8.668 0-15.695 7.028-15.695 15.695v55.841l-43.836-43.84c-6.131-6.131-16.063-6.131-22.194 0-6.131 6.127-6.131 16.063 0 22.194l66.03 66.038v107.846l-92.96-53.634-24.209-90.236c-2.238-8.369-10.822-13.331-19.228-11.093-8.369 2.245-13.335 10.856-11.089 19.224l16.07 59.918-49.055-28.306c-7.502-4.337-17.105-1.759-21.435 5.752-4.33 7.506-1.755 17.105 5.755 21.439l48.771 28.138-60.029 16.102c-8.369 2.246-13.335 10.852-11.089 19.224 1.878 7.013 8.223 11.634 15.151 11.634 1.341 0 2.713-.177 4.077-.541l90.34-24.233 93.244 53.799-93.367 53.868-90.254-24.21c-8.392-2.238-16.983 2.725-19.228 11.093-2.246 8.373 2.72 16.978 11.089 19.224l59.938 16.078-48.633 28.061c-7.511 4.333-10.086 13.933-5.755 21.439 2.904 5.039 8.184 7.855 13.611 7.855 2.659 0 5.357-.678 7.824-2.104l49.033-28.29-16.097 60.005c-2.245 8.369 2.721 16.978 11.089 19.224 1.364.363 2.736.54 4.077.54 6.928 0 13.273-4.621 15.151-11.633l24.233-90.32 92.975-53.645v107.368l-66.03 66.03c-6.131 6.127-6.131 16.066 0 22.194 6.13 6.131 16.062 6.131 22.194 0l43.836-43.833v56.416c0 8.668 7.027 15.695 15.695 15.695s15.695-7.028 15.695-15.695v-56.14l43.967 43.97c3.065 3.066 7.081 4.599 11.096 4.599 4.016 0 8.032-1.533 11.097-4.599 6.131-6.127 6.131-16.062 0-22.194l-66.161-66.168v-107.667l93.014 53.669 24.232 90.32c1.878 7.012 8.223 11.633 15.151 11.633 1.341 0 2.713-.177 4.077-.54 8.369-2.246 13.335-10.856 11.089-19.224l-16.101-60.003 49.04 28.29c2.467 1.426 5.165 2.104 7.825 2.104 5.426 0 10.706-2.816 13.61-7.855 4.33-7.506 1.756-17.105-5.755-21.439l-48.633-28.061 59.938-16.078c8.37-2.246 13.336-10.852 11.091-19.224z"/></svg>