<svg xmlns="http://www.w3.org/2000/svg" viewBox="0 0 448 512"><path d="M224 4.9c-121.362 0-219.733 45.675-219.733 102.018v297.765h.031l-.031.399c0 56.343 98.371 102.018 219.733 102.018 121.347 0 219.733-45.675 219.733-102.019l-.031-.399h.031v-297.764c0-56.343-98.386-102.018-219.733-102.018zm0 31.39c114.97 0 188.342 41.828 188.342 70.628h-.314v2.054c-3.288 28.693-75.71 68.575-188.029 68.575-114.97 0-188.342-41.828-188.342-70.628s73.373-70.629 188.343-70.629zm188.342 290.331c-29.604 29.705-98.861 54.903-188.342 54.903-89.788 0-159.228-25.367-188.656-55.209v-72.913c38.371 29.766 108.486 49.706 188.656 49.706 79.94 0 149.894-19.818 188.342-49.461v72.974zm0-94.11c-29.604 29.72-98.861 54.903-188.342 54.903-89.788 0-159.228-25.367-188.656-55.209v-72.975c38.371 29.766 108.486 49.707 188.656 49.707 79.94 0 149.894-19.818 188.342-49.461v73.035zm0 172.571c0 28.784-73.372 70.628-188.342 70.628-114.894 0-188.235-41.783-188.335-70.583h-.322v-57.615c38.372 29.766 108.487 49.706 188.657 49.706 79.94 0 149.894-19.818 188.342-49.461v4.767l-.314-.261v52.42h.253c.016.122.061.261.061.399z"/></svg>