<svg xmlns="http://www.w3.org/2000/svg" viewBox="0 0 512 512"><path d="M506.878 139.236c0-1.656.092-2.744.245-3.51v-5.288c0-69.341-56.213-125.562-125.562-125.562h-11.265c-.506.031-.958.061-1.595.061-22.446 0-40.05 11.694-53.147 23.267-5.725-1.502-11.549-2.728-17.427-3.786-5.71-2.467-12.001-3.847-18.615-3.847h-47.086c-6.614 0-12.905 1.38-18.615 3.847-4 .72-7.97 1.548-11.902 2.468-12.936-11.128-30.041-21.949-51.63-21.949-.636 0-1.096-.031-1.594-.061h-18.247c-69.348.001-125.561 56.222-125.561 125.562v14.898c1.939 20.294 13.227 36.25 24.087 48.282-1.824 6.637-3.349 13.412-4.59 20.278-2.437 5.686-3.801 11.955-3.801 18.531v22.363l-.031 1.211.031 1.211v22.301c0 6.576 1.349 12.814 3.778 18.5.522 2.882 1.081 5.763 1.709 8.614-9.886 11.603-19.42 26.47-21.182 44.939v29.996c0 69.356 56.213 125.562 125.562 125.562h18.132c.529-.031 1.027-.061 1.709-.061 21.597 0 38.702-10.821 51.63-21.933 4.001.935 8.032 1.763 12.109 2.498 5.656 2.407 11.871 3.74 18.408 3.74h21.121c.812.015 1.61.061 2.422.061s1.61-.046 2.422-.061h21.121c6.537 0 12.752-1.333 18.408-3.74 5.955-1.073 11.84-2.314 17.627-3.816 13.097 11.572 30.701 23.252 53.155 23.252.682 0 1.18.031 1.709.061h11.151c69.349 0 125.562-56.205 125.562-125.562v-20.386c-.153-.766-.245-1.854-.245-3.509 0-21.045-10.277-37.813-21.09-50.611.658-3.005 1.249-6.009 1.8-9.044 2.43-5.686 3.779-11.924 3.779-18.5v-22.301l.031-1.211-.031-1.211v-22.363c0-6.576-1.357-12.844-3.801-18.531-1.264-7.005-2.827-13.902-4.698-20.677 11.807-13.181 24.007-31.053 24.007-53.983zm-138.176-118.603c.706 0 1.265-.031 1.978-.061h10.882c60.581 0 109.866 49.292 109.866 109.866v4.138c-.169 1.38-.245 2.897-.245 4.66 0 14.071-6.292 26.133-13.948 36.173-24.094-66.138-77.012-118.373-143.54-141.641 9.824-7.264 21.473-13.135 35.007-13.135zm-110.311 439.343h-4.844c-10.001-.108-19.833-.92-29.444-2.437-4.414-2.789-7.372-7.663-7.372-13.258v-31.39c0-8.645 7.043-15.695 15.695-15.695h47.086c8.652 0 15.695 7.05 15.695 15.695v31.39c0 5.595-2.959 10.469-7.373 13.258-9.61 1.518-19.442 2.33-29.443 2.437zm-2.422-408.014c10.898 0 21.596.889 32.034 2.544 4.323 2.79 7.204 7.633 7.204 13.151v31.39c0 8.66-7.043 15.695-15.695 15.695h-47.086c-8.652 0-15.695-7.035-15.695-15.695v-31.39c0-5.518 2.882-10.361 7.204-13.151 10.438-1.654 21.136-2.544 32.034-2.544zm201.524 235.949c-2.79 4.368-7.648 7.296-13.212 7.296h-31.39c-8.652 0-15.695-7.035-15.695-15.695v-47.086c0-8.645 7.043-15.695 15.695-15.695h31.39c5.548 0 10.407 2.912 13.197 7.28 1.595 10.039 2.437 20.309 2.499 30.777v2.422c-.062 10.439-.905 20.693-2.484 30.701zm-154.269 84.346c-6.974-4.077-15.052-6.452-23.712-6.452h-47.086c-8.66 0-16.737 2.375-23.712 6.452-31.283-12.767-56.267-37.767-69.019-69.049 4.062-6.974 6.437-15.052 6.437-23.696v-47.086c0-8.629-2.368-16.707-6.422-23.665 12.76-31.299 37.767-56.282 69.065-69.035 6.958 4.046 15.021 6.407 23.65 6.407h47.086c8.629 0 16.691-2.361 23.65-6.407 31.298 12.752 56.305 37.736 69.064 69.035-4.054 6.958-6.422 15.036-6.422 23.665v47.086c0 8.644 2.368 16.722 6.437 23.696-12.75 31.283-37.733 56.282-69.016 69.049zm-248.779-84.346c-1.579-10.009-2.422-20.262-2.483-30.701v-2.422c.061-10.469.904-20.738 2.499-30.777 2.789-4.368 7.648-7.28 13.197-7.28h31.39c8.652 0 15.695 7.05 15.695 15.695v47.086c0 8.66-7.043 15.695-15.695 15.695h-31.39c-5.564 0-10.423-2.928-13.213-7.296zm389.836-102.57h-31.39c-5.472 0-10.706.981-15.595 2.697-15.435-31.988-41.391-57.937-73.41-73.356 1.724-4.89 2.713-10.147 2.713-15.634v-31.39c0-1.058-.092-2.1-.161-3.142 55.898 20.646 100.356 65.095 121.001 120.994-1.043-.077-2.093-.169-3.158-.169zm-256.219-70.644c-32.035 15.404-58.022 41.338-73.465 73.326-4.873-1.701-10.093-2.682-15.549-2.682h-31.39c-1.065 0-2.108.092-3.157.169 20.645-55.9 65.102-100.348 121.001-120.995-.069 1.042-.161 2.084-.161 3.142v31.39c0 5.504.989 10.745 2.721 15.65zm-120.404 211.901h31.39c5.464 0 10.691-.981 15.573-2.682 15.419 32.034 41.406 57.953 73.417 73.403-1.716 4.874-2.697 10.101-2.697 15.573v31.39c0 1.088.092 2.146.161 3.203-55.922-20.647-100.394-65.126-121.032-121.04 1.057.061 2.115.153 3.188.153zm256.273 70.781c32.057-15.419 58.037-41.384 73.472-73.433 4.858 1.686 10.054 2.652 15.488 2.652h31.39c1.073 0 2.131-.092 3.188-.153-20.638 55.914-65.11 100.394-121.032 121.04.069-1.058.161-2.115.161-3.203v-31.39c0-5.443-.966-10.639-2.667-15.513zm-303.359-252.839v-14.101c0-60.574 49.285-109.866 109.866-109.866h17.864c.597.031 1.203.061 1.977.061 12.522 0 23.42 5.027 32.762 11.511-68.911 22.438-123.874 75.762-148.475 143.678-6.828-8.875-12.676-19.313-13.994-31.283zm129.707 346.827c-.782 0-1.402.031-2.107.061h-17.734c-60.581 0-109.866-49.277-109.866-109.866v-29.184c1.088-9.871 5.273-18.699 10.53-26.455 22.6 72.775 79.579 130.375 151.925 153.933-9.335 6.484-20.217 11.511-32.748 11.511zm340.904-133.701c0 1.763.076 3.28.245 4.675v19.22c0 60.589-49.285 109.866-109.866 109.866h-10.752c-.637-.031-1.28-.061-2.108-.061-13.549 0-25.206-5.855-35.015-13.135 69.916-24.448 124.796-80.898 146.997-151.833 5.992 8.998 10.499 19.42 10.499 31.268z"/></svg>