<svg xmlns="http://www.w3.org/2000/svg" viewBox="0 0 512 512"><path d="M412.967 193.511v-4.752c0-71.088-57.83-128.918-128.919-128.918h-56.067c-71.088 0-128.918 57.83-128.918 128.918v4.752c-52.373 2.728-94.171 46.058-94.171 99.091v60.19c0 54.78 44.572 99.367 99.359 99.367h10.507c8.668 0 15.695-7.035 15.695-15.695v-211.823c19.251 0 30.18-10.101 31.268-28.325h.092v-1.272c.015-.567.122-1.088.122-1.671h-.122v-4.614c0-36.464 29.665-66.137 66.137-66.137h56.067c36.472 0 66.138 29.673 66.138 66.137v4.982h.031c.138 19.88 11.25 30.854 31.36 30.884v211.839c0 8.661 7.028 15.695 15.695 15.695h10.506c54.788 0 99.36-44.587 99.36-99.367v-60.19c.001-53.018-41.781-96.348-94.14-99.091zm-313.904 227.058c-35.062-2.667-62.781-32.049-62.781-67.777v-60.19c0-35.728 27.719-65.111 62.781-67.777v195.744zm266.788-227.196v-4.614c0-45.124-36.71-81.832-81.833-81.832h-56.067c-45.124 0-81.833 36.709-81.833 81.832v6.944c-.606 9.548-5.012 13.243-15.665 13.243v-20.186c0-53.875 43.667-97.528 97.528-97.528h56.067c53.86 0 97.528 43.652 97.528 97.528v19.88l-.031.307c-11.433-.033-15.694-4.263-15.694-15.574zm109.866 159.419c0 35.729-27.72 65.111-62.781 67.777v-195.745c35.061 2.667 62.781 32.05 62.781 67.777v60.191z"/></svg>