<svg xmlns="http://www.w3.org/2000/svg" viewBox="0 0 512 512"><path d="M503.131 490.642v-242.463c0-26.011-21.083-47.086-47.086-47.086s-47.086 21.075-47.086 47.086v227.519h-39.207v-423.709c0-26.003-21.083-47.086-47.086-47.086s-47.086 21.083-47.086 47.086v423.709h-39.269v-156.891c0-26.003-21.083-47.086-47.086-47.086s-47.086 21.083-47.086 47.086v156.891h-39.177v-290.3c0-26.003-21.083-47.086-47.086-47.086s-47.086 21.083-47.086 47.086v305.995h.023c0 8.675 7.028 15.695 15.695 15.695h462.998c8.668 0 15.695-7.02 15.695-15.695.006-.26-.055-.498-.07-.751zm-462.947-14.944v-290.3c0-8.645 7.043-15.695 15.695-15.695 8.652 0 15.695 7.05 15.695 15.695v290.3h-31.39zm133.348 0v-156.891c0-8.645 7.042-15.695 15.695-15.695 8.652 0 15.695 7.05 15.695 15.695v156.891h-31.39zm133.439 0v-423.709c0-8.645 7.042-15.695 15.695-15.695 8.652 0 15.695 7.05 15.695 15.695v423.709h-31.39zm133.379-227.519c0-8.66 7.042-15.695 15.695-15.695 8.652 0 15.695 7.035 15.695 15.695v227.519h-31.39v-227.519z"/></svg>