<svg xmlns="http://www.w3.org/2000/svg" viewBox="0 0 448 512"><path d="M284.084 450.719l-.039.854.069-.636-.03-.218zm-60.115-6.435c8.668 0 15.695-7.028 15.695-15.695v-219.675c0-8.668-7.028-15.695-15.695-15.695s-15.695 7.028-15.695 15.695v219.675c0 8.668 7.028 15.695 15.695 15.695zm78.476 0c8.668 0 15.695-7.028 15.695-15.695v-219.675c0-8.668-7.028-15.695-15.695-15.695-8.668 0-15.695 7.028-15.695 15.695v219.675c0 8.668 7.028 15.695 15.695 15.695zm-156.952 0c8.668 0 15.695-7.028 15.695-15.695v-219.675c0-8.668-7.028-15.695-15.695-15.695-8.668 0-15.695 7.028-15.695 15.695v219.675c0 8.668 7.028 15.695 15.695 15.695zm251.154-360.927h-31.39v-47.09c0-17.339-14.055-31.39-31.39-31.39h-219.733c-17.335 0-31.39 14.051-31.39 31.39v47.09h-31.39c-26.002 0-47.086 21.083-47.086 47.086v31.39h47.055v298.205c0 26.002 21.083 47.086 47.086 47.086h251.123c26.003 0 47.086-21.083 47.086-47.086v-298.205h47.116v-31.39c-.001-26.004-21.084-47.086-47.087-47.086zm-282.513-47.09h219.733v47.017h-219.733v-47.017zm251.092 423.771c0 8.652-7.042 15.695-15.695 15.695h-251.123c-8.652 0-15.695-7.043-15.695-15.695v-298.205h282.514v298.205zm47.086-329.596v15.695h-376.685v-15.695h.031c0-8.657 7.043-15.695 15.695-15.695h345.294c8.653 0 15.695 7.039 15.695 15.695h-.03z"/></svg>