<svg xmlns="http://www.w3.org/2000/svg" viewBox="0 0 352 512"><path d="M301.562 4.877h-251.124c-26.003 0-47.086 21.083-47.086 47.086v408.075c0 26.003 21.083 47.086 47.086 47.086h251.123c26.002 0 47.086-21.083 47.086-47.086v-408.076c0-26.003-21.083-47.085-47.085-47.085zm15.695 455.161c0 8.652-7.043 15.695-15.695 15.695h-251.124c-8.653 0-15.695-7.043-15.695-15.695v-408.076c0-8.653 7.042-15.695 15.695-15.695h251.123c8.652 0 15.695 7.042 15.695 15.695v408.076zm-243.245-172.644h204.038c4.337 0 7.848-3.514 7.848-7.848v-204.037c0-4.334-3.51-7.848-7.848-7.848h-204.038c-4.338 0-7.848 3.513-7.848 7.848v204.038c0 4.333 3.51 7.847 7.848 7.847zm7.847-204.037h188.342v188.342h-188.342v-188.342zm31.36 298.209h15.695c8.668 0 15.695-7.028 15.695-15.695 0-8.668-7.028-15.695-15.695-15.695h-15.695v-15.691c0-8.668-7.028-15.695-15.695-15.695s-15.695 7.028-15.695 15.695v15.691h-15.695c-8.668 0-15.695 7.028-15.695 15.695 0 8.668 7.028 15.695 15.695 15.695h15.695v15.695c0 8.668 7.028 15.695 15.695 15.695s15.695-7.028 15.695-15.695v-15.695zm156.952-78.476c-17.335 0-31.39 14.055-31.39 31.39s14.055 31.39 31.39 31.39 31.39-14.055 31.39-31.39-14.054-31.39-31.39-31.39zm0 47.085c-8.653 0-15.695-7.039-15.695-15.695 0-8.657 7.042-15.695 15.695-15.695 8.652 0 15.695 7.039 15.695 15.695s-7.043 15.695-15.695 15.695zm-55.056 0c-17.335 0-31.39 14.055-31.39 31.39s14.056 31.39 31.39 31.39c17.335 0 31.39-14.055 31.39-31.39s-14.055-31.39-31.39-31.39zm0 47.086c-8.652 0-15.695-7.039-15.695-15.695 0-8.657 7.043-15.695 15.695-15.695 8.653 0 15.695 7.039 15.695 15.695 0 8.655-7.042 15.695-15.695 15.695zm-70.505 31.325h-15.695c-8.668 0-15.695 7.028-15.695 15.695s7.028 15.695 15.695 15.695h15.695c8.668 0 15.695-7.028 15.695-15.695s-7.028-15.695-15.695-15.695zm62.78 0h-15.695c-8.668 0-15.695 7.028-15.695 15.695s7.028 15.695 15.695 15.695h15.695c8.668 0 15.695-7.028 15.695-15.695s-7.027-15.695-15.695-15.695z"/></svg>