<svg xmlns="http://www.w3.org/2000/svg" viewBox="0 0 512 512"><path d="M473.514 160.277l-155.373-155.37-66.375 66.375c-3.901 3.901-8.392 6.79-13.105 9.036l-9.135-9.135c-18.385-18.389-48.197-18.389-66.59 0l-68.49 68.494-12.661 11.883-9.61-9.614c-7.656-7.664-17.703-11.496-27.742-11.496s-20.087 3.832-27.743 11.496c-15.327 15.319-15.327 40.166 0 55.493l298.162 298.162c7.656 7.66 17.703 11.492 27.743 11.492s20.087-3.832 27.743-11.492c15.327-15.323 15.327-40.169 0-55.493l-100.585-100.589 11.181-11.174 53.324-51.144 17.35-17.346c3.901-3.905 8.385-6.798 13.098-9.044l9.135 9.135c18.393 18.389 48.205 18.389 66.59 0l66.375-66.375-33.292-33.294zm-123.071 307.578c0 1.478-.399 3.648-2.306 5.556-1.893 1.893-4.054 2.292-5.541 2.292-1.479 0-3.648-.399-5.548-2.292l-298.163-298.174c-1.901-1.901-2.299-4.058-2.299-5.549 0-1.479.398-3.644 2.307-5.556 1.893-1.893 4.054-2.292 5.541-2.292 1.478 0 3.648.399 5.548 2.303l298.162 298.167c1.9 1.896 2.299 4.065 2.299 5.545zm-21.029-230.198l-17.358 17.35-53.324 51.14-11.097 11.097-144.276-144.272 11.097-11.1 70.683-68.487c6.023-6.032 15.756-6.097 21.903-.242l134.551 134.548c-4.316 2.854-8.393 6.176-12.179 9.966zm89.036-.119l-.214.215c-6.024 6.024-15.756 6.089-21.903.234l-134.551-134.548c4.299-2.854 8.384-6.173 12.177-9.966l-12.177 9.963 12.392-10.174 43.966-43.967 144.277 144.276-43.967 43.967z"/></svg>