<svg xmlns="http://www.w3.org/2000/svg" viewBox="0 0 416 512"><path d="M388.464 106.896l-78.476-78.476c-22.516-22.517-47.085-23.543-70.598-23.543h-188.342c-26.003 0-47.086 21.083-47.086 47.086v408.075c0 26.002 21.083 47.086 47.086 47.086h313.904c26.002 0 47.086-21.083 47.086-47.086v-282.51c0-23.547-2.713-49.772-23.574-70.632zm-22.194 22.193c4.951 4.95 8.201 10.656 10.385 17.044h-98.057c-4.33 0-7.848-3.522-7.848-7.848v-98.54c6.054 2.104 11.603 5.426 17.043 10.867l78.477 78.477zm14.377 330.949c0 8.652-7.043 15.695-15.695 15.695h-313.904c-8.653 0-15.695-7.043-15.695-15.695v-408.076c0-8.653 7.042-15.695 15.695-15.695h188.312v86.32h-117.714c-8.668 0-15.695 7.028-15.695 15.695s7.028 15.695 15.695 15.695h121.04c6.069 13.833 19.864 23.547 35.912 23.547h102.049v282.514zm-86.354-258.971h-172.647c-8.668 0-15.695 7.028-15.695 15.695 0 8.668 7.028 15.695 15.695 15.695h172.647c8.667 0 15.695-7.028 15.695-15.695 0-8.668-7.028-15.695-15.695-15.695zm0 78.476h-172.647c-8.668 0-15.695 7.028-15.695 15.695 0 8.668 7.028 15.695 15.695 15.695h172.647c8.667 0 15.695-7.028 15.695-15.695 0-8.668-7.028-15.695-15.695-15.695zm0 78.479h-172.647c-8.668 0-15.695 7.028-15.695 15.695 0 8.668 7.028 15.695 15.695 15.695h172.647c8.667 0 15.695-7.028 15.695-15.695s-7.028-15.695-15.695-15.695z"/></svg>