<svg xmlns="http://www.w3.org/2000/svg" viewBox="0 0 512 512"><path d="M20.587 153.981c8.668 0 15.695-7.035 15.695-15.695v-40.587l43.837 43.836c3.065 3.065 7.081 4.599 11.097 4.599s8.032-1.533 11.097-4.599c6.13-6.131 6.13-16.078 0-22.194l-43.836-43.836h40.586c8.668 0 15.695-7.035 15.695-15.695 0-8.676-7.028-15.695-15.695-15.695h-78.476c-1.026 0-2.054.107-3.073.306-.467.092-.904.276-1.356.399-.529.153-1.058.276-1.571.49-.537.214-1.027.521-1.533.812-.391.215-.797.383-1.165.629-1.724 1.15-3.203 2.621-4.353 4.353-.261.383-.436.796-.651 1.195-.275.506-.574.981-.789 1.502-.215.521-.337 1.058-.498 1.579-.13.46-.307.889-.399 1.349-.199 1.012-.307 2.038-.307 3.081v78.476c0 8.66 7.028 15.695 15.695 15.695zm78.476 282.514h-40.586l43.836-43.837c6.13-6.131 6.13-16.063 0-22.194-6.131-6.131-16.063-6.131-22.194 0l-43.837 43.836v-40.586c0-8.676-7.028-15.695-15.695-15.695s-15.695 7.02-15.695 15.695v78.476c0 1.026.108 2.054.307 3.065.092.475.268.904.399 1.349.161.536.283 1.073.498 1.594.214.521.513.996.789 1.502.215.399.391.812.651 1.195 1.15 1.717 2.629 3.203 4.353 4.353.368.246.775.414 1.165.629.505.276.996.582 1.533.812.513.199 1.042.322 1.571.476.452.137.889.322 1.356.414 1.012.199 2.047.307 3.073.307h78.476c8.668 0 15.695-7.035 15.695-15.695 0-8.677-7.027-15.696-15.695-15.696zm407.739-379.766c-.093-.46-.268-.889-.399-1.349-.161-.521-.284-1.058-.498-1.579-.214-.521-.513-.996-.789-1.502-.214-.399-.391-.812-.651-1.195-1.15-1.732-2.629-3.203-4.353-4.353-.368-.246-.774-.414-1.164-.629-.506-.291-.997-.598-1.533-.812-.514-.214-1.042-.337-1.571-.49-.452-.122-.889-.307-1.357-.399-1.012-.199-2.046-.306-3.073-.306h-78.476c-8.668 0-15.695 7.02-15.695 15.695 0 8.66 7.027 15.695 15.695 15.695h40.587l-43.836 43.836c-6.131 6.116-6.131 16.063 0 22.194 3.065 3.065 7.081 4.599 11.096 4.599 4.016 0 8.032-1.533 11.097-4.599l43.836-43.836v40.587c0 8.66 7.027 15.695 15.695 15.695s15.695-7.035 15.695-15.695v-78.476c0-1.043-.107-2.069-.306-3.081zm-15.389 301.29c-8.668 0-15.695 7.02-15.695 15.695v40.586l-43.836-43.836c-6.131-6.131-16.063-6.131-22.194 0s-6.131 16.063 0 22.194l43.836 43.837h-40.587c-8.668 0-15.695 7.02-15.695 15.695 0 8.66 7.027 15.695 15.695 15.695h78.476c1.027 0 2.061-.108 3.073-.307.468-.092.905-.276 1.357-.414.529-.154 1.057-.276 1.571-.476.536-.23 1.026-.536 1.533-.812.391-.214.796-.383 1.164-.629 1.724-1.15 3.203-2.636 4.353-4.353.261-.383.437-.797.651-1.195.276-.506.575-.981.789-1.502.214-.521.337-1.058.498-1.594.13-.445.306-.874.399-1.349.199-1.012.306-2.039.306-3.065v-78.476c.001-8.675-7.027-15.694-15.694-15.694zm-78.476-31.391v-141.256c0-26.011-21.083-47.086-47.086-47.086h-219.733c-26.003 0-47.086 21.075-47.086 47.086v141.257c0 25.995 21.082 47.086 47.086 47.086h219.733c26.003-.001 47.086-21.091 47.086-47.087zm-31.391 0c0 8.644-7.043 15.695-15.695 15.695h-219.733c-8.652 0-15.695-7.051-15.695-15.695v-141.256c0-8.661 7.043-15.695 15.695-15.695h219.733c8.653 0 15.695 7.035 15.695 15.695v141.256z"/></svg>