<svg xmlns="http://www.w3.org/2000/svg" viewBox="0 0 384 512"><path d="M336.444 218.364l-130.834-205.578c-1.954-3.388-5.15-6.016-9.073-7.204-1.502-.452-3.027-.667-4.537-.667-.92 0-1.832.077-2.721.23-.629.115-1.249.261-1.87.453-3.794 1.157-6.905 3.655-8.859 6.889l-133.616 209.525.046-.077-.069.108-.031.046.016-.016c-20.999 29.497-33.391 65.548-33.391 104.517 0 99.689 80.813 180.495 180.495 180.495 99.681 0 180.495-80.806 180.495-180.495 0-40.602-14.791-77.541-36.051-108.226zm-144.444 257.331c-82.216 0-149.104-66.889-149.104-149.104 0-25.903 6.598-50.918 19.212-73.188h.038l129.823-203.579 118.671 186.411c13.894 20.063 30.464 52.021 30.464 90.355 0 82.216-66.889 149.105-149.104 149.105zm113.583-117.193c-4.1-1.457-8.576.69-10.017 4.774-10.966 30.961-36.004 55.983-66.972 66.927-4.093 1.449-6.231 5.932-4.782 10.024 1.134 3.219 4.162 5.227 7.396 5.227.866 0 1.747-.138 2.613-.445 35.927-12.706 63.823-40.587 76.537-76.491 1.448-4.085-.69-8.575-4.775-10.016z"/></svg>