<svg xmlns="http://www.w3.org/2000/svg" viewBox="0 0 480 512"><path d="M424.249 46.372c-5.97-1.866-12.139-2.817-18.354-2.817-8.66 0-16.898 1.877-24.424 5.188v-43.836h-282.513v44.027c-7.641-3.433-16.033-5.38-24.853-5.38-6.215 0-12.384.95-18.355 2.817-32.325 10.12-50.404 44.653-40.303 76.979l18.224 58.206c8.078 25.78 31.636 43.1 58.62 43.1 5.701 0 11.35-.896 16.852-2.467 18.983 47.354 62.789 82.032 115.377 87.856v95.038h-23.543c-48.618 0-88.899 36.44-93.696 84.767l-1.716 17.244h269.301l-1.717-17.244c-4.797-48.327-45.077-84.767-93.696-84.767h-23.543v-95.038c52.557-5.817 96.34-40.449 115.346-87.764 5.38 1.502 10.89 2.375 16.454 2.375 26.984 0 50.542-17.32 58.619-43.1l18.224-58.206c10.101-32.326-7.978-66.859-40.304-76.978zm-331.958 146.893c-13.189 0-24.716-8.475-28.67-21.09l-18.217-58.195c-4.936-15.806 3.908-32.705 19.718-37.655 2.928-.912 5.948-1.38 8.982-1.38 10.215 0 19.381 5.119 24.853 13.258v81.504c0 7.595.766 14.998 1.923 22.263-2.803.843-5.693 1.295-8.589 1.295zm187.162 243.207c26.301 0 48.948 15.993 58.251 39.23h-194.979c9.304-23.237 31.95-39.23 58.252-39.23h78.476zm70.628-266.765c0 60.581-49.285 109.866-109.866 109.866-60.582 0-109.866-49.285-109.866-109.866v-133.409h219.733v133.409zm84.515-55.727l-18.217 58.194c-3.954 12.615-15.48 21.09-28.67 21.09-2.759 0-5.503-.436-8.177-1.195 1.165-7.304 1.939-14.737 1.939-22.363v-82.215c5.518-7.74 14.499-12.545 24.424-12.545 3.035 0 6.055.468 8.982 1.38 15.811 4.95 24.654 21.849 19.719 37.654zm-162.953 135.452c1.049 0 2.123-.215 3.149-.667 31.383-13.81 51.654-44.84 51.654-79.05 0-4.334-3.51-7.848-7.848-7.848s-7.848 3.513-7.848 7.848c0 27.995-16.592 53.381-42.273 64.681-3.969 1.747-5.77 6.376-4.023 10.345 1.296 2.94 4.17 4.691 7.189 4.691z"/></svg>