<svg xmlns="http://www.w3.org/2000/svg" viewBox="0 0 480 512"><path d="M451.885 106.93l-78.476-78.476c-22.515-22.516-47.085-23.543-70.598-23.543h-156.952c-26.002 0-47.086 21.083-47.086 47.086v15.687h-47.146c-26.002 0-47.086 21.083-47.086 47.086v345.233c0 26.003 21.083 47.086 47.086 47.086h282.514c26.003 0 47.086-21.083 47.086-47.086v-15.687h47.147c26.003 0 47.086-21.083 47.086-47.086v-219.664c-.001-23.55-2.714-49.775-23.575-70.636zm-22.194 22.194c.429.437.767.912 1.173 1.356h-73.15c-4.329 0-7.848-3.525-7.848-7.848v-73.172c.445.414.905.744 1.349 1.188l78.476 78.476zm-79.855 330.879c0 8.66-7.042 15.695-15.695 15.695h-282.514c-8.652 0-15.695-7.035-15.695-15.695v-345.233c0-8.652 7.043-15.695 15.695-15.695h47.147v298.155c0 26.002 21.083 47.086 47.086 47.086h203.976v15.687zm94.232-62.773c0 8.652-7.042 15.695-15.695 15.695h-282.514c-8.652 0-15.695-7.043-15.695-15.695v-345.233c0-8.653 7.043-15.695 15.695-15.695h156.952c5.725 0 10.883.1 15.665.467v85.864c0 21.627 17.604 39.238 39.238 39.238h85.634c.506 4.92.72 10.132.72 15.695v219.664zm-78.476-188.274h-62.781v-62.781c0-8.675-7.028-15.695-15.695-15.695s-15.695 7.02-15.695 15.695v62.781h-62.781c-8.667 0-15.695 7.02-15.695 15.695 0 8.661 7.028 15.695 15.695 15.695h62.781v62.781c0 8.661 7.028 15.695 15.695 15.695 8.668 0 15.695-7.035 15.695-15.695v-62.781h62.781c8.668 0 15.695-7.035 15.695-15.695 0-8.675-7.027-15.695-15.695-15.695z"/></svg>