<svg xmlns="http://www.w3.org/2000/svg" viewBox="0 0 512 512"><path d="M130.454 287.436v-235.474c0-26.003-21.083-47.086-47.086-47.086s-47.085 21.083-47.085 47.086v235.474c-19.029 14.323-31.39 37.023-31.39 62.674 0 25.65 12.362 48.358 31.39 62.673v47.254c0 26.003 21.083 47.086 47.086 47.086s47.086-21.083 47.086-47.086v-47.254c19.029-14.316 31.39-37.023 31.39-62.673-.001-25.651-12.362-48.351-31.391-62.674zm-62.781-235.474c0-8.653 7.042-15.695 15.695-15.695 8.652 0 15.695 7.042 15.695 15.695v221.25c-5.073-1.034-10.316-1.578-15.695-1.578-5.38 0-10.622.544-15.695 1.578v-221.25zm31.39 408.076c0 8.652-7.043 15.695-15.695 15.695-8.653 0-15.695-7.043-15.695-15.695v-33.031c5.073 1.034 10.315 1.579 15.695 1.579s10.622-.545 15.695-1.579v33.031zm-15.695-62.842c-25.965 0-47.086-21.121-47.086-47.086s21.121-47.086 47.086-47.086 47.086 21.121 47.086 47.086-21.121 47.086-47.086 47.086zm423.74-78.476c0-25.651-12.362-48.351-31.39-62.674v-204.084c0-26.003-21.083-47.086-47.086-47.086s-47.086 21.083-47.086 47.086v204.083c-19.029 14.323-31.39 37.023-31.39 62.674 0 25.65 12.362 48.358 31.39 62.673v78.645c0 26.003 21.083 47.086 47.086 47.086s47.086-21.083 47.086-47.086v-78.645c19.028-14.315 31.39-37.023 31.39-62.672zm-94.171-266.758c0-8.653 7.042-15.695 15.695-15.695 8.652 0 15.695 7.042 15.695 15.695v189.859c-5.073-1.034-10.316-1.578-15.695-1.578-5.38 0-10.622.544-15.695 1.578v-189.859zm31.39 408.076c0 8.652-7.043 15.695-15.695 15.695-8.653 0-15.695-7.043-15.695-15.695v-64.421c5.073 1.034 10.315 1.579 15.695 1.579s10.622-.545 15.695-1.579v64.421zm-15.695-94.233c-25.965 0-47.086-21.121-47.086-47.086s21.121-47.086 47.086-47.086 47.086 21.121 47.086 47.086-21.122 47.086-47.086 47.086zm-125.562-266.642v-47.2c0-26.003-21.083-47.086-47.086-47.086s-47.086 21.083-47.086 47.086v47.2c-19.029 14.316-31.39 37.019-31.39 62.666 0 25.654 12.362 48.358 31.39 62.677v235.532c0 26.003 21.083 47.086 47.086 47.086s47.086-21.083 47.086-47.086v-235.532c19.029-14.32 31.39-37.023 31.39-62.677.001-25.647-12.361-48.351-31.39-62.666zm-62.78-47.201c0-8.653 7.042-15.695 15.695-15.695 8.652 0 15.695 7.042 15.695 15.695v32.969c-5.073-1.027-10.316-1.579-15.695-1.579-5.38 0-10.622.552-15.695 1.579v-32.969zm31.39 408.076c0 8.652-7.043 15.695-15.695 15.695-8.653 0-15.695-7.043-15.695-15.695v-221.304c5.073 1.026 10.315 1.571 15.695 1.571s10.622-.545 15.695-1.571v221.304zm-15.695-251.124c-25.965 0-47.086-21.121-47.086-47.086 0-25.957 21.121-47.086 47.086-47.086s47.086 21.129 47.086 47.086c-.001 25.965-21.122 47.086-47.086 47.086z"/></svg>