<svg xmlns="http://www.w3.org/2000/svg" viewBox="0 0 480 512"><path d="M295.355 42.873v-6.605c0-17.335-14.055-31.39-31.39-31.39h-47.086c-17.335 0-31.39 14.055-31.39 31.39v6.407c-103.729 24.599-180.917 117.774-180.917 229.02 0 130.021 105.398 235.428 235.428 235.428 130.029 0 235.428-105.407 235.428-235.428 0-110.955-76.768-203.915-180.073-228.822zm-94.172-6.606c0-8.661 7.042-15.695 15.695-15.695h47.086c8.652 0 15.695 7.035 15.695 15.695v3.387c-12.898-2.192-26.133-3.387-39.659-3.387-13.228 0-26.18 1.134-38.817 3.234v-3.234zm38.817 439.466c-112.503 0-204.038-91.535-204.038-204.038s91.534-204.038 204.038-204.038c112.502 0 204.038 91.534 204.038 204.038 0 112.503-91.536 204.038-204.038 204.038zm-67.449-354.721c3.962-1.763 5.741-6.407 3.985-10.361-1.762-3.954-6.383-5.763-10.361-3.985-49.223 21.872-85.848 64.083-100.478 115.813-1.18 4.169 1.241 8.507 5.411 9.686.713.199 1.433.292 2.146.292 3.418 0 6.568-2.254 7.542-5.718 13.356-47.222 46.8-85.756 91.755-105.727zm181.001 26.884c-13.948 5.15-137.019 50.979-161.252 73.969-24.386 23.145-70.881 149.12-76.108 163.405-1.065 2.912-.314 6.177 1.916 8.338 1.495 1.441 3.457 2.208 5.456 2.208.989 0 1.993-.184 2.943-.583 14.37-5.809 140.966-57.324 162.585-75.242 22.317-18.5 69.279-147.434 74.56-162.071 1.034-2.882.314-6.085-1.854-8.246-2.161-2.146-5.372-2.851-8.246-1.778zm-74.475 160.002c-14.684 12.186-96.256 47.163-141.885 66.015 17.151-45.124 49.798-125.377 65.915-140.659 16.285-15.45 95.727-47.745 139.893-64.62-20.103 53.906-50.941 128.52-63.923 139.264zm-39.077-59.746c12.982 0 23.543 10.561 23.543 23.543s-10.561 23.543-23.543 23.543-23.543-10.561-23.543-23.543 10.561-23.543 23.543-23.543z"/></svg>