<svg xmlns="http://www.w3.org/2000/svg" viewBox="0 0 512 512"><path d="M460.022 4.913h-282.513c-26.003 0-47.086 21.083-47.086 47.086v31.386h-78.445c-26.003 0-47.086 21.083-47.086 47.086v219.733c0 26.002 21.083 47.086 47.086 47.086h15.695v94.102c0 6.353 3.824 12.077 9.687 14.499 1.946.813 3.985 1.196 6.008 1.196 4.085 0 8.093-1.594 11.097-4.599l90.883-90.875.008-.008c11.68-11.68 23.543-14.316 39.238-14.316h109.897c15.359 0 28.954-7.388 37.552-18.761l45.492 45.492c3.004 3.004 7.012 4.599 11.096 4.599 2.023 0 4.062-.391 6.008-1.196 5.863-2.43 9.687-8.147 9.687-14.499v-94.104h15.695c26.003 0 47.086-21.09 47.086-47.086v-219.735c.001-26.003-21.082-47.086-47.085-47.086zm-109.836 345.291c0 8.652-7.042 15.695-15.695 15.695l-103.421-.008h-22.171c-24.608 0-53.554 31.329-53.554 31.329l-.468.069h.399l-56.213 56.213v-71.917c0-8.668-7.028-15.695-15.695-15.695l-31.39.008c-8.652 0-15.695-7.043-15.695-15.695v-219.732c0-8.657 7.043-15.695 15.695-15.695h282.514c8.653 0 15.695 7.039 15.695 15.695v219.733zm125.532-78.469c0 8.653-7.043 15.695-15.695 15.695l-31.39-.015c-8.668 0-15.695 7.035-15.695 15.695v71.916l-31.36-31.36v-213.195c0-26.003-21.083-47.086-47.086-47.086h-172.678v-31.386c0-8.657 7.043-15.695 15.695-15.695h282.514c8.653 0 15.695 7.039 15.695 15.695v219.736z"/></svg>