<svg xmlns="http://www.w3.org/2000/svg" viewBox="0 0 448 512"><path d="M90.458 169.708v18.622c-5.786-1.624-11.81-2.605-18.04-2.605-8.951 0-17.71 1.763-26.034 5.212-16.776 6.958-29.842 20.033-36.786 36.816-6.944 16.783-6.928 35.268.031 52.036l18.439 44.465c10.568 25.474 35.23 41.951 62.827 41.951 1.126 0 2.245-.153 3.364-.214 12.829 49.4 57.669 86.032 111.024 86.032h123.492c63.317 0 114.825-51.516 114.825-114.832v-167.483h-353.142zm0 165.075c-14.684-.184-27.758-8.982-33.391-22.562l-18.446-44.465c-3.748-9.028-3.748-18.975-.016-28.003 3.74-9.028 10.775-16.079 19.81-19.818 4.491-1.87 9.204-2.82 14.002-2.82 6.529 0 12.645 1.901 18.04 5.012v112.656zm321.751 2.407c0 46.013-37.429 83.442-83.434 83.442h-123.492c-46.005 0-83.435-37.429-83.435-83.442v-136.091h290.361v136.091zm15.695 138.513h-321.751c-8.668 0-15.695 7.02-15.695 15.695 0 8.66 7.028 15.695 15.695 15.695h321.752c8.668 0 15.695-7.035 15.695-15.695 0-8.675-7.028-15.695-15.696-15.695zm-209.371-344.968c-4.191 7.594-1.433 17.136 6.162 21.327 2.399 1.318 5.004 1.955 7.564 1.955 5.533 0 10.897-2.936 13.756-8.116 16.768-30.395 7.502-54.508.061-73.882-7.066-18.392-10.323-28.654-1.134-42.92 4.69-7.288 2.59-17.002-4.698-21.696-7.28-4.682-16.99-2.59-21.695 4.698-18.239 28.321-9.112 52.082-1.77 71.176 6.659 17.331 11.464 29.854 1.754 47.458zm70.322-.499c-4.461 7.434-2.054 17.075 5.372 21.535 2.529 1.518 5.319 2.246 8.07 2.246 5.326 0 10.522-2.721 13.473-7.618 16.285-27.114 6.751-45.974.444-58.447-5.503-10.886-8.016-15.856-.889-28.026 4.384-7.48 1.87-17.094-5.609-21.473-7.465-4.376-17.098-1.878-21.474 5.609-15.779 26.935-6.307 45.66-.038 58.057 5.502 10.889 8.015 15.855.651 28.117zm76.521 250.591c1.479 0 2.974-.414 4.3-1.287 16.975-11.128 27.106-29.858 27.106-50.105v-81.266c0-4.322-3.51-7.848-7.848-7.848-4.337 0-7.848 3.525-7.848 7.848v81.266c0 14.944-7.487 28.769-20.025 36.985-3.625 2.375-4.629 7.25-2.253 10.867 1.503 2.298 4.009 3.54 6.568 3.54z"/></svg>