<svg xmlns="http://www.w3.org/2000/svg" viewBox="0 0 512 512"><path d="M434.341 205.542c-3.25-70.628-61.838-127.094-133.394-127.094-46.58 0-88.615 23.512-112.917 62.275-7.257-2.299-14.837-3.48-22.469-3.48-41.147 0-74.621 33.414-74.621 74.491 0 .766.015 1.533.038 2.299-49.423 11.573-86.101 56.268-86.101 108.242 0 61.356 49.998 111.277 111.46 111.277h271.999c.306 0 .613-.015.919-.031 65.072-.506 117.868-53.523 117.868-118.618 0-48.465-28.8-91.044-72.782-109.361zm-46.005 196.589c-.284 0-.575.016-.859.031h-271.14c-44.151 0-80.07-35.835-80.07-79.886 0-41.338 32.371-76.268 73.702-79.518 4.659-.368 8.905-2.774 11.595-6.59 2.698-3.817 3.549-8.645 2.33-13.151-1.035-3.832-1.563-7.633-1.563-11.281 0-23.773 19.396-43.101 43.231-43.101 7.61 0 14.837 1.931 21.496 5.748 3.779 2.161 8.261 2.667 12.446 1.38 4.153-1.288 7.594-4.246 9.487-8.169 17.213-35.621 52.45-57.754 91.957-57.754 56.321 0 102.141 45.706 102.141 101.896 0 .643-.053 1.272-.1 1.901l-.13 2.222c-.306 7.142 4.253 13.595 11.097 15.68 36.946 11.281 61.777 44.786 61.777 83.366 0 48.095-39.208 87.226-87.397 87.226zm-86.561-268.75c-7.487 0-14.891 1.027-21.995 3.081-4.161 1.211-6.568 5.548-5.365 9.718 1.204 4.154 5.511 6.56 9.718 5.365 5.686-1.64 11.626-2.468 17.642-2.468 25.735 0 49.308 16.078 58.658 40.02 1.211 3.096 4.177 4.997 7.311 4.997.95 0 1.916-.184 2.859-.552 4.031-1.579 6.031-6.116 4.453-10.162-11.68-29.904-41.132-49.999-73.281-49.999z"/></svg>