<svg xmlns="http://www.w3.org/2000/svg" viewBox="0 0 512 512"><path d="M256 4.877c-138.69 0-251.123 112.433-251.123 251.123 0 138.689 112.433 251.123 251.123 251.123 138.689 0 251.123-112.434 251.123-251.123 0-138.69-112.434-251.123-251.123-251.123zm0 470.856c-121.163 0-219.733-98.574-219.733-219.733s98.57-219.733 219.733-219.733c121.162 0 219.733 98.574 219.733 219.733 0 121.158-98.571 219.733-219.733 219.733zm0-423.767c-30.333 0-59.156 6.656-85.052 18.589-52.618 24.228-93.236 70.21-110.257 126.35-5.671 18.715-8.729 38.556-8.729 59.095 0 112.502 91.534 204.034 204.038 204.034 112.502 0 204.038-91.531 204.038-204.034 0-112.503-91.536-204.034-204.038-204.034zm0 392.372c-103.851 0-188.342-84.488-188.342-188.338 0-18.558 2.713-36.905 8.054-54.538 15.626-51.538 52.726-94.057 101.805-116.653 24.692-11.377 51.1-17.148 78.483-17.148 103.85 0 188.342 84.489 188.342 188.339s-84.492 188.338-188.342 188.338zm15.695-194.841v-150.446c0-8.667-7.028-15.695-15.695-15.695-8.668 0-15.695 7.028-15.695 15.695v156.949c0 4.161 1.655 8.154 4.598 11.096l86.324 86.324c3.065 3.065 7.082 4.599 11.097 4.599 4.016 0 8.031-1.533 11.096-4.599 6.131-6.127 6.131-16.066 0-22.194l-81.725-81.729z"/></svg>