<svg xmlns="http://www.w3.org/2000/svg" viewBox="0 0 480 512"><path d="M285.193 166.415c6.131-6.131 6.131-16.07 0-22.202-6.131-6.123-16.063-6.123-22.195 0l-167.267 167.268c-30.594 30.601-30.594 80.385 0 110.985 30.593 30.593 80.384 30.593 110.985 0l138.728-138.728.023-.031 91.535-91.534c42.84-42.832 42.84-112.534 0-155.374-42.84-42.839-112.541-42.839-155.373 0l-229.458 229.451c-55.071 55.079-55.071 144.698 0 199.777 55.079 55.07 144.698 55.07 199.769 0l171.98-171.981c6.131-6.131 6.131-16.07 0-22.202-6.131-6.131-16.063-6.131-22.194 0l-171.98 171.981c-42.84 42.839-112.541 42.839-155.373 0-42.84-42.833-42.84-112.542 0-155.374l222.515-222.514.015-.023 6.921-6.92c30.601-30.594 80.384-30.594 110.985 0 30.593 30.601 30.593 80.392 0 110.985l-91.543 91.543-.023.023-138.72 138.72c-18.362 18.362-48.235 18.362-66.597 0-18.355-18.355-18.355-48.227 0-66.59l167.267-167.26z"/></svg>