<svg xmlns="http://www.w3.org/2000/svg" viewBox="0 0 512 512"><path d="M460.038 4.877h-408.076c-26.003 0-47.086 21.09-47.086 47.086v408.075c0 26.01 21.083 47.086 47.086 47.086h408.075c26.003 0 47.086-21.076 47.086-47.086v-408.076c0-25.995-21.082-47.085-47.085-47.085zm15.695 47.085v47.086h-33.367l.659-.276-27.336-62.505h44.349c8.652 0 15.695 7.05 15.695 15.695zm-433.426-12.277c28.324 9.212 48.871 35.79 48.871 67.134 0 33.536-23.52 61.616-54.91 68.789v-123.646c-.001-4.996 2.39-9.396 6.039-12.277zm298.492 59.363l.666-.291-27.343-62.49h68.107l-.667.291 27.336 62.49h-68.099zm-33.468 0h-68.099l.667-.291-27.352-62.49h68.123l-.675.306 27.336 62.475zm-101.566 0h-83.504c-1.839-24.31-12.216-46.212-28.126-62.781h84.952l-.674.306 27.352 62.475zm-83.504 15.695h86.86l-29.421 62.781h-85.74c15.97-16.554 26.424-38.441 28.301-62.781zm121.523 0h66.912l-29.436 62.781h-66.904l29.428-62.781zm101.574 0h66.69l-29.214 62.781h-66.904l29.428-62.781zm101.314 0h29.061v62.781h-58.275l29.214-62.781zm13.366 360.99h-408.076c-8.652 0-15.695-7.035-15.695-15.695v-251.124h439.466v251.123c0 8.66-7.043 15.696-15.695 15.696zm-385.506-364.96c0 6.501-5.27 11.771-11.771 11.771s-11.771-5.27-11.771-11.771c0-6.501 5.27-11.771 11.771-11.771 6.501 0 11.771 5.27 11.771 11.771zm346.268 145.227h-337.417c-8.668 0-15.695 7.035-15.695 15.695 0 8.675 7.028 15.695 15.695 15.695h337.417c8.668 0 15.695-7.02 15.695-15.695 0-8.66-7.028-15.695-15.695-15.695zm-109.867 62.796h-227.55c-8.668 0-15.695 7.02-15.695 15.695 0 8.66 7.028 15.695 15.695 15.695h227.55c8.668 0 15.695-7.035 15.695-15.695 0-8.675-7.027-15.695-15.695-15.695zm0 62.781h-227.55c-8.668 0-15.695 7.02-15.695 15.695 0 8.66 7.028 15.695 15.695 15.695h227.55c8.668 0 15.695-7.035 15.695-15.695 0-8.675-7.027-15.695-15.695-15.695z"/></svg>