<svg xmlns="http://www.w3.org/2000/svg" viewBox="0 0 512 512"><path d="M201.479 457.547c-15.435 0-29.935-6.008-40.848-16.921l-138.82-138.835c-10.912-10.898-16.921-25.398-16.921-40.833s6.008-29.934 16.921-40.847l39.659-39.667c10.914-10.914 25.421-16.922 40.848-16.922s29.935 6.008 40.847 16.922l58.313 58.32 167.389-167.39c10.906-10.913 25.413-16.921 40.84-16.921 15.428 0 29.935 6.008 40.848 16.921l39.667 39.667c22.516 22.516 22.516 59.164 0 81.679l-247.896 247.906c-10.913 10.913-25.42 16.921-40.847 16.921zm-99.161-262.634c-7.042 0-13.672 2.744-18.653 7.74l-39.659 39.652c-4.982 4.981-7.725 11.603-7.725 18.653 0 7.035 2.743 13.657 7.725 18.638l138.819 138.835c9.955 9.948 27.336 9.963 37.307-.015l247.897-247.889c10.276-10.285 10.276-27.007 0-37.292l-39.667-39.666c-9.963-9.948-27.336-9.978-37.299 0l-178.487 178.486c-6.131 6.131-16.063 6.131-22.194 0l-69.41-69.418c-4.982-4.981-11.61-7.724-18.654-7.724z"/></svg>