<svg xmlns="http://www.w3.org/2000/svg" viewBox="0 0 512 512"><path d="M256 4.877c-138.69 0-251.123 112.433-251.123 251.123 0 138.689 112.433 251.123 251.123 251.123s251.123-112.434 251.123-251.123c0-138.69-112.433-251.123-251.123-251.123zm219.733 251.123c0 18.217-2.269 35.911-6.468 52.856l-143.656-41.353c.621-3.755 1.019-7.572 1.019-11.503 0-39.008-31.62-70.628-70.628-70.628-2.552 0-5.058.145-7.541.414l-34.28-145.48c13.55-2.621 27.52-4.038 41.821-4.038 121.163-.001 219.733 98.577 219.733 219.732zm-163.597 42.74c3.748-4.92 6.889-10.3 9.258-16.11l143.54 41.307c-9.855 30.226-26.064 57.6-47.093 80.507l-105.705-105.704zm-98.876-98.877l-105.705-105.697c25.612-23.512 56.803-41.016 91.336-50.32l34.249 145.38c-7.236 2.475-13.918 6.092-19.88 10.637zm42.74 16.899c21.634 0 39.238 17.603 39.238 39.238 0 21.634-17.604 39.23-39.238 39.23s-39.238-17.596-39.238-39.23c0-21.635 17.604-39.238 39.238-39.238zm-219.733 39.238c0-58.344 22.899-111.407 60.137-150.799l105.467 105.468c-10.292 12.262-16.5 28.065-16.5 45.331 0 39.008 31.62 70.621 70.628 70.621 17.266 0 33.061-6.207 45.338-16.493l105.46 105.468c-39.383 37.23-92.447 60.137-150.798 60.137-121.162 0-219.732-98.579-219.732-219.733z"/></svg>