<svg xmlns="http://www.w3.org/2000/svg" viewBox="0 0 512 512"><path d="M460.038 99.048h-408.076c-26.002 0-47.086 21.09-47.086 47.086v219.733c0 26.01 21.083 47.086 47.086 47.086h408.075c26.003 0 47.086-21.076 47.086-47.086v-219.733c0-25.996-21.082-47.086-47.085-47.086zm15.695 266.818c0 8.66-7.042 15.695-15.695 15.695h-408.076c-8.652 0-15.695-7.035-15.695-15.695v-219.732c0-8.645 7.043-15.695 15.695-15.695h408.075c8.653 0 15.695 7.05 15.695 15.695v219.732zm-322.119-62.796l.092.016h203.547l.153-.031.613.031c30.34 0 54.933-24.586 54.933-54.933 0-30.333-24.593-54.933-54.933-54.933l-.613.031-.153-.031h-203.547l-.092.015c-30.172.199-54.566 24.707-54.566 54.918 0 30.224 24.393 54.718 54.566 54.917zm227.948-54.918c0 12.982-10.56 23.543-23.543 23.543-12.982 0-23.543-10.561-23.543-23.543s10.56-23.543 23.543-23.543c12.982.001 23.543 10.561 23.543 23.543zm-61.953-39.238c-10.185 9.977-16.523 23.865-16.523 39.238 0 15.388 6.338 29.275 16.523 39.238h-127.217c10.185-9.963 16.522-23.85 16.522-39.238 0-15.373-6.338-29.261-16.522-39.238h127.217zm-165.628 15.696c12.982 0 23.543 10.561 23.543 23.543s-10.56 23.543-23.543 23.543c-12.982 0-23.543-10.561-23.543-23.543 0-12.983 10.561-23.543 23.543-23.543zm298.178-62.781h-392.349c-4.329 0-7.84 3.509-7.848 7.832l-.275 188.342c0 2.084.82 4.093 2.292 5.564 1.471 1.471 3.471 2.299 5.556 2.299h76.79c1.717 0 3.388-.567 4.76-1.61l39.061-29.781h151.457l39.997 29.842c1.356.996 2.996 1.548 4.691 1.548h75.87c4.338 0 7.848-3.51 7.848-7.848v-188.341c-.002-4.338-3.511-7.847-7.85-7.847zm-7.847 188.342h-65.417l-39.997-29.827c-1.356-1.012-2.996-1.563-4.691-1.563h-156.714c-1.716 0-3.387.567-4.759 1.609l-39.062 29.782h-66.275l.253-172.647h376.661v172.646z"/></svg>