<svg xmlns="http://www.w3.org/2000/svg" viewBox="0 0 512 512"><path d="M416.265 306.366c14.002-14.002 78.637-108.456 81.388-112.472 11.495-16.814 12.492-38.904 2.598-57.646-9.686-18.363-27.635-29.322-47.998-29.322h-329.568v-47.088c0-1.088-.107-2.146-.322-3.17-1.617-15.802-14.845-28.218-31.069-28.218h-54.933c-17.312 0-31.39 14.083-31.39 31.39v15.695c0 17.313 14.079 31.39 31.39 31.39h54.933v219.668c0 34.617 28.164 62.781 62.781 62.781h290.361c8.668 0 15.695-7.028 15.695-15.695s-7.028-15.695-15.695-15.695h-290.361c-17.289 0-31.344-14.043-31.383-31.325h243.422c27.719 0 38.272-8.41 50.151-20.293zm35.988-168.049c12.27 0 18.24 8.798 20.233 12.577 3.487 6.602 5.111 16.707-.751 25.283-31.529 46.12-70.192 100.524-77.664 107.996-8.078 8.074-11.097 11.097-27.957 11.097h-243.429v-156.953h329.568zm-415.892-62.781v-15.695h54.933v15.695h-54.933zm149.067 313.843c-25.958 0-47.079 21.121-47.079 47.086s21.121 47.086 47.079 47.086c25.965 0 47.093-21.121 47.093-47.086s-21.129-47.086-47.093-47.086zm0 62.78c-8.653 0-15.688-7.039-15.688-15.695 0-8.652 7.035-15.695 15.688-15.695 8.66 0 15.702 7.043 15.702 15.695 0 8.657-7.043 15.695-15.702 15.695zm204.007-62.78c-25.958 0-47.079 21.121-47.079 47.086s21.121 47.086 47.079 47.086c25.964 0 47.093-21.121 47.093-47.086s-21.13-47.086-47.093-47.086zm0 62.78c-8.653 0-15.688-7.039-15.688-15.695 0-8.652 7.035-15.695 15.688-15.695 8.66 0 15.702 7.043 15.702 15.695 0 8.657-7.043 15.695-15.702 15.695z"/></svg>