<svg xmlns="http://www.w3.org/2000/svg" viewBox="0 0 512 512"><path d="M334.476 173.6c-60.666 0-109.866 49.186-109.866 109.866 0 60.674 49.2 109.866 109.866 109.866 60.658 0 109.866-49.193 109.866-109.866 0-60.68-49.208-109.866-109.866-109.866zm0 188.343c-43.269 0-78.476-35.207-78.476-78.476s35.207-78.476 78.476-78.476c43.268 0 78.476 35.207 78.476 78.476s-35.208 78.476-78.476 78.476zm18.301-130.275c-4.108-1.448-8.576.698-10.017 4.782-1.448 4.085.69 8.568 4.775 10.017 13.442 4.751 23.252 16.423 25.604 30.448.644 3.839 3.97 6.552 7.733 6.552.429 0 .866-.031 1.303-.108 4.276-.72 7.158-4.767 6.445-9.035-3.296-19.649-17.029-35.996-35.843-42.656zm107.261-120.849h-290.362v-23.542c0-17.335-14.055-31.39-31.39-31.39h-31.39c-17.335 0-31.39 14.055-31.39 31.39v23.543h-23.544c-26.003 0-47.086 21.076-47.086 47.086v251.123c0 26.011 21.082 47.086 47.086 47.086h408.075c26.002 0 47.086-21.075 47.086-47.086v-251.124c0-26.01-21.083-47.086-47.085-47.086zm-353.142-23.542h31.39v23.543h-31.39v-23.543zm368.837 321.751c0 8.66-7.043 15.695-15.695 15.695h-408.076c-8.653 0-15.695-7.035-15.695-15.695v-251.123c0-8.66 7.042-15.695 15.695-15.695h408.075c8.652 0 15.695 7.035 15.695 15.695v251.123zm-321.752-235.428h-62.781c-13.006 0-23.543 10.538-23.543 23.543v94.171c0 12.998 10.537 23.543 23.543 23.543h62.781c13.005 0 23.543-10.545 23.543-23.543v-94.171c0-13.005-10.538-23.543-23.543-23.543zm-7.847 109.867h-47.086v-78.476h47.086v78.476z"/></svg>