<svg xmlns="http://www.w3.org/2000/svg" viewBox="0 0 512 512"><path d="M396.958 287.359c-42.196 0-78.79 23.803-97.19 58.704-60.198-25.474-108.38-73.771-133.739-134.022 34.985-18.378 58.88-55.01 58.88-97.267 0-60.682-49.186-109.866-109.866-109.866s-109.867 49.185-109.867 109.866c.031 216.268 175.046 391.629 391.185 392.287l.597.031.199-.015.399.015v-.031c60.405-.337 109.268-49.369 109.268-109.836 0-60.68-49.185-109.866-109.866-109.866zm.429 188.312h-.935c-198.412-.597-359.856-162.5-359.886-360.897 0-43.269 35.207-78.476 78.476-78.476s78.476 35.207 78.476 78.476c0 29.213-16.124 55.837-42.089 69.479-14.43 7.571-20.653 24.937-14.331 39.958 28.34 67.348 83.166 122.297 150.438 150.759 3.977 1.686 8.131 2.499 12.216 2.499 11.327 0 22.194-6.162 27.781-16.769 13.649-25.872 40.25-41.951 69.425-41.951 43.269 0 78.476 35.207 78.476 78.476 0 43.025-35.008 78.216-78.047 78.446zm-280.084-238.508c-1.763-3.97-6.384-5.763-10.353-4.001-3.962 1.747-5.755 6.376-4.009 10.346 11.665 26.378 26.876 51.162 45.223 73.663 1.556 1.901 3.809 2.897 6.093 2.897 1.74 0 3.494-.582 4.95-1.778 3.357-2.728 3.863-7.679 1.127-11.035-17.457-21.413-31.941-45.002-43.031-70.092z"/></svg>