<svg xmlns="http://www.w3.org/2000/svg" viewBox="0 0 512 512"><path d="M460.038 51.962h-78.668v-31.39c0-8.668-7.028-15.695-15.695-15.695-8.668 0-15.695 7.028-15.695 15.695v31.39h-188.312v-31.39c0-8.668-7.027-15.695-15.695-15.695s-15.695 7.028-15.695 15.695v31.39h-78.316c-26.003 0-47.086 21.079-47.086 47.086v360.99c0 26.002 21.082 47.086 47.086 47.086h408.075c26.002 0 47.086-21.083 47.086-47.086v-360.99c0-26.007-21.083-47.086-47.085-47.086zm-408.076 31.391h78.315v15.698c0 8.668 7.028 15.695 15.695 15.695 8.668 0 15.695-7.028 15.695-15.695v-15.698h188.313v15.698c0 8.668 7.028 15.695 15.695 15.695s15.695-7.028 15.695-15.695v-15.698h78.668c8.652 0 15.695 7.042 15.695 15.695v78.483h-439.466v-78.483c0-8.653 7.043-15.695 15.695-15.695zm408.076 392.38h-408.076c-8.653 0-15.695-7.043-15.695-15.695v-251.117h439.466v251.116c0 8.653-7.044 15.696-15.695 15.696zm-204.23-235.428h-31.39c-8.668 0-15.695 7.028-15.695 15.695 0 8.668 7.028 15.695 15.695 15.695h15.695v149.05c0 8.66 7.028 15.695 15.695 15.695 8.667 0 15.695-7.035 15.695-15.695v-164.745c.001-8.668-7.028-15.695-15.695-15.695z"/></svg>