<svg xmlns="http://www.w3.org/2000/svg" viewBox="0 0 384 512"><path d="M333.257 4.875h-282.514c-26.002 0-47.086 21.083-47.086 47.086v408.079c0 25.995 21.083 47.086 47.086 47.086h282.514c26.003 0 47.086-21.09 47.086-47.086v-408.08c-.001-26.003-21.083-47.085-47.086-47.085zm15.695 455.165c0 8.644-7.042 15.695-15.695 15.695h-282.514c-8.652 0-15.695-7.051-15.695-15.695v-408.08c0-8.653 7.043-15.695 15.695-15.695h282.514c8.653 0 15.695 7.042 15.695 15.695v408.08zm-47.116-376.689h-219.733c-8.668 0-15.695 7.028-15.695 15.695v62.785c0 8.66 7.028 15.695 15.695 15.695h219.733c8.668 0 15.695-7.035 15.695-15.695v-62.785c0-8.668-7.028-15.695-15.695-15.695zm0 78.48h-219.733v-62.785h219.733v62.785zm-141.249 70.628h-15.695v-15.695c0-8.676-7.028-15.695-15.695-15.695s-15.695 7.02-15.695 15.695v15.695h-15.703c-8.668 0-15.695 7.02-15.695 15.695 0 8.66 7.028 15.695 15.695 15.695h15.703v15.695c0 8.675 7.028 15.695 15.695 15.695s15.695-7.02 15.695-15.695v-15.694h15.695c8.668 0 15.695-7.035 15.695-15.695 0-8.676-7.027-15.696-15.695-15.696zm9.748 100.011c-6.131-6.131-16.063-6.131-22.194 0l-18.945 18.945-18.952-18.96c-6.131-6.131-16.063-6.131-22.195 0-6.131 6.131-6.131 16.078 0 22.194l18.953 18.96-18.953 18.945c-6.131 6.131-6.131 16.062 0 22.194 3.066 3.065 7.082 4.598 11.097 4.598 4.016 0 8.031-1.533 11.097-4.598l18.952-18.945 18.945 18.945c3.065 3.065 7.081 4.598 11.097 4.598 4.016 0 8.032-1.533 11.097-4.598 6.131-6.131 6.131-16.063 0-22.194l-18.945-18.945 18.945-18.945c6.132-6.131 6.132-16.063.001-22.194zm115.806-100.011h-62.789c-8.667 0-15.695 7.02-15.695 15.695 0 8.66 7.028 15.695 15.695 15.695h62.789c8.668 0 15.695-7.035 15.695-15.695 0-8.675-7.028-15.695-15.695-15.695zm10.79 98.922c-6.131-6.131-16.063-6.131-22.194 0l-62.612 62.613c-6.131 6.131-6.131 16.062 0 22.194 3.065 3.065 7.081 4.598 11.096 4.598 4.016 0 8.032-1.533 11.097-4.598l62.612-62.612c6.132-6.131 6.132-16.063.001-22.195zm-57.876 10.929c0 8.66-7.02 15.68-15.68 15.68s-15.68-7.02-15.68-15.68 7.02-15.68 15.68-15.68 15.68 7.02 15.68 15.68zm62.773 62.781c0 8.66-7.02 15.68-15.68 15.68s-15.68-7.02-15.68-15.68 7.02-15.68 15.68-15.68 15.68 7.02 15.68 15.68z"/></svg>