<svg xmlns="http://www.w3.org/2000/svg" viewBox="0 0 512 512"><path d="M492.774 152.403l-133.179-133.18c-18.385-18.393-48.197-18.393-66.582 0l-182.174 182.166c-18.385 18.392-18.385 48.204 0 66.597l27.75 27.743-117.07 117.055c-21.451 21.458-21.451 56.236 0 77.694 21.458 21.458 56.236 21.458 77.694 0l117.063-117.07 27.742 27.758c18.385 18.378 48.205 18.378 66.59 0l182.166-182.166c18.393-18.393 18.393-48.205 0-66.597zm-155.374-110.986l11.082 11.082-82.292 82.292c-3.065 3.066-3.065 8.032 0 11.097s8.031 3.065 11.097 0l82.292-82.292 22.217 22.224-60.091 60.084c-3.065 3.065-3.065 8.031 0 11.096 3.066 3.065 8.032 3.065 11.097 0l60.091-60.083 22.171 22.163-104.479 104.487c-3.065 3.066-3.065 8.032 0 11.097 3.066 3.065 8.04 3.065 11.105 0l104.471-104.487 22.202 22.209-82.285 82.277c-3.065 3.065-3.065 8.031 0 11.097 3.066 3.065 8.032 3.065 11.097 0l82.284-82.277 11.12 11.112c6.116 6.116 6.116 16.078 0 22.194l-110.027 110.036-155.381-155.373 110.035-110.035c6.116-6.115 16.079-6.115 22.194 0zm.951 287.602l-22.194 22.195-155.373-155.374 22.194-22.194 155.373 155.373zm-72.131 49.953l-27.75-27.758c-13.021-13.013-30.509-13.887-44.396 0l-117.055 117.07c-9.181 9.182-24.117 9.182-33.298 0-9.181-9.181-9.181-24.125 0-33.291l117.063-117.07c14.147-14.148 14.469-29.919 0-44.388l-27.743-27.742c-6.123-6.131-6.123-16.079 0-22.209l16.646-16.646 155.373 155.372-16.646 16.646c-6.123 6.131-16.078 6.131-22.194.016z"/></svg>