<svg xmlns="http://www.w3.org/2000/svg" viewBox="0 0 512 512"><path d="M263.848 216.76h-188.312c-4.338 0-7.848 3.518-7.848 7.848 0 4.338 3.509 7.848 7.848 7.848h188.312c4.337 0 7.848-3.509 7.848-7.848-.001-4.33-3.511-7.848-7.848-7.848zm0 125.562h-188.312c-4.338 0-7.848 3.518-7.848 7.848 0 4.338 3.509 7.848 7.848 7.848h188.312c4.337 0 7.848-3.509 7.848-7.848-.001-4.33-3.511-7.848-7.848-7.848zm0 31.398h-188.312c-4.338 0-7.848 3.518-7.848 7.848s3.509 7.848 7.848 7.848h188.312c4.337 0 7.848-3.517 7.848-7.848-.001-4.33-3.511-7.848-7.848-7.848zm-188.312-109.874h141.226c4.337 0 7.848-3.509 7.848-7.848 0-4.33-3.51-7.848-7.848-7.848h-141.226c-4.338 0-7.848 3.518-7.848 7.848 0 4.338 3.51 7.848 7.848 7.848zm0 31.398h86.324c4.337 0 7.848-3.517 7.848-7.848 0-4.329-3.51-7.848-7.848-7.848h-86.324c-4.338 0-7.848 3.518-7.848 7.848 0 4.331 3.51 7.848 7.848 7.848zm227.55 94.171h141.257v-172.655h-141.257v172.655zm15.695-156.96h109.866v141.265h-109.866v-141.265zm141.257-172.643h-408.076c-26.003 0-47.086 21.083-47.086 47.086v298.205c0 26.011 21.082 47.086 47.086 47.086h408.075c26.003 0 47.086-21.075 47.086-47.086v-298.205c0-26.003-21.083-47.086-47.085-47.086zm-408.076 31.39h408.075c8.652 0 15.695 7.043 15.695 15.695v47.086h-439.465v-47.086c0-8.651 7.043-15.695 15.695-15.695zm408.076 329.596h-408.076c-8.653 0-15.695-7.035-15.695-15.695v-219.733h439.466v219.733c0 8.66-7.044 15.695-15.695 15.695zm-368.807-302.125c0 6.501-5.27 11.771-11.771 11.771s-11.771-5.27-11.771-11.771c0-6.501 5.27-11.771 11.771-11.771 6.501 0 11.771 5.27 11.771 11.771zm39.238 0c0 6.501-5.27 11.771-11.771 11.771s-11.771-5.27-11.771-11.771c0-6.501 5.27-11.771 11.771-11.771 6.501 0 11.771 5.27 11.771 11.771zm39.238 0c0 6.501-5.27 11.771-11.771 11.771s-11.771-5.27-11.771-11.771c0-6.501 5.27-11.771 11.771-11.771 6.501 0 11.771 5.27 11.771 11.771z"/></svg>