<svg xmlns="http://www.w3.org/2000/svg" viewBox="0 0 416 512"><path d="M404.159 114.774c0-8.668-7.028-15.695-15.695-15.695h-313.873c-17.305 0-31.39-14.086-31.39-31.39s14.086-31.39 31.39-31.39h313.873c8.668 0 15.695-7.028 15.695-15.695s-7.028-15.695-15.695-15.695h-313.873c-34.671 0-62.781 28.111-62.781 62.781v392.319c0 26.011 21.082 47.086 47.086 47.086h298.209c26.002 0 47.086-21.075 47.086-47.086v-345.235h-.032zm-360.959 345.233v-338.006c9.242 5.357 19.941 8.468 31.39 8.468h15.449v345.233h-31.145c-8.651 0-15.694-7.035-15.694-15.695zm329.6 0c0 8.66-7.043 15.695-15.695 15.695h-251.37v-345.233h267.065v329.538zm15.664-408.014h-313.873c-8.668 0-15.695 7.028-15.695 15.695s7.027 15.695 15.695 15.695h313.873c8.668 0 15.695-7.028 15.695-15.695s-7.027-15.695-15.695-15.695z"/></svg>