<svg xmlns="http://www.w3.org/2000/svg" viewBox="0 0 512 512"><path d="M412.952 212.838c-11.02 0-21.55 1.993-31.375 5.471l-22.148-50.818-13.043-33.129h42.993c5.15 0 9.182 1.582 12.001 4.705 2.468 2.751 3.893 6.702 3.893 10.848 0 5.882-3.341 15.837-15.895 15.837-4.337 0-7.848 3.513-7.848 7.848 0 4.333 3.51 7.848 7.848 7.848 12.139 0 19.558-5.456 23.635-10.036 5.135-5.748 7.954-13.381 7.954-21.497 0-15.53-10.852-31.248-31.59-31.248h-70.628c-4.337 0-7.848 3.513-7.848 7.848 0 4.333 3.51 7.848 7.848 7.848h10.76l11.189 28.409h-142.191l-16.446-36.257h26.822c4.338 0 7.848-3.514 7.848-7.848s-3.509-7.848-7.848-7.848h-78.445c-4.338 0-7.848 3.513-7.848 7.848 0 4.333 3.509 7.848 7.848 7.848h34.394l19.098 42.069-38.763 56.362c-13.641-7.679-29.351-12.108-46.12-12.108-52.006 0-94.171 42.165-94.171 94.171 0 52.013 42.165 94.171 94.171 94.171 49.201 0 89.527-37.729 93.757-85.826h32.892c3.495 13.519 15.68 23.543 30.271 23.543 17.335 0 31.39-14.055 31.39-31.39 0-8.292-3.28-15.771-8.522-21.382l71.701-99.727 16.707 38.303c-28.892 16.086-48.465 46.894-48.465 82.308 0 52.013 42.165 94.171 94.171 94.171 52.021 0 94.171-42.158 94.171-94.171.003-52.006-42.147-94.171-94.168-94.171zm-76.024-34.372l-71.411 99.29c-3.019-.973-6.192-1.64-9.549-1.64-1.962 0-3.878.23-5.748.583l-44.587-98.233h131.295zm-145.426 6.813l44.541 98.164c-4.997 4.139-8.676 9.748-10.346 16.216h-32.846c-2.054-26.6-15.113-50.097-34.686-65.915l33.337-48.465zm-30.133 114.38h-48.526l27.42-39.889c11.449 10.001 19.236 24.033 21.106 39.889zm-62.321 70.131c-34.609 0-62.781-28.164-62.781-62.781s28.171-62.781 62.781-62.781c10.146 0 19.711 2.475 28.202 6.774l-35.805 52.059c-1.64 2.399-1.824 5.518-.475 8.093 1.364 2.591 4.03 4.199 6.943 4.199h63.302c-4.107 30.672-30.379 54.437-62.167 54.437zm156.921-46.588c-8.644 0-15.695-7.035-15.695-15.695s7.051-15.695 15.695-15.695c8.661 0 15.695 7.035 15.695 15.695 0 8.661-7.035 15.695-15.695 15.695zm156.983 46.588c-34.609 0-62.781-28.164-62.781-62.781 0-22.478 11.924-42.174 29.72-53.278l24.815 56.911c1.287 2.95 4.169 4.712 7.203 4.712 1.043 0 2.1-.206 3.127-.658 3.969-1.732 5.794-6.346 4.062-10.324l-24.969-57.255c5.947-1.877 12.278-2.889 18.822-2.889 34.624 0 62.781 28.163 62.781 62.781.001 34.617-28.156 62.781-62.78 62.781z"/></svg>