<svg xmlns="http://www.w3.org/2000/svg" viewBox="0 0 448 512"><path d="M413.638 341.476c-20.171-15.143-48.396-30.409-48.396-69.916v-31.39c0-52.22-28.417-97.711-70.552-122.159v-42.647c0-39.001-31.62-70.628-70.628-70.628-39 0-70.628 31.627-70.628 70.628v42.556c-42.226 24.416-70.705 69.962-70.705 122.251v31.39c0 39.66-28.448 54.888-48.634 70.092-3.586 2.268-6.828 5.004-9.671 8.131l-.268.246.038.007c-7.48 8.338-12.063 19.313-12.063 31.39v62.72c0 8.66 7.028 15.695 15.695 15.695h140.406c3.671 26.77 26.577 47.423 54.374 47.423 27.773 0 50.672-20.653 54.343-47.423h143.227c8.668 0 15.695-7.035 15.695-15.695v-63.325c-.216-16.623-9.06-31.138-22.233-39.346zm-228.815-266.112c0-21.635 17.604-39.238 39.238-39.238 21.635 0 39.238 17.603 39.238 39.238v29.206c-12.492-3.617-25.658-5.656-39.314-5.656-13.603 0-26.716 2.031-39.162 5.618v-29.168zm37.782 416.206c-19.067 0-34.977-13.68-38.495-31.728h76.959c-3.518 18.048-19.404 31.728-38.464 31.728zm181.874-63.119h-360.958v-47.024c0-4.858 2.153-8.315 3.985-10.368l.138-.154c.973-1.065 2.062-1.985 3.249-2.736l1.074-.682 1.012-.759c2.168-1.64 4.445-3.272 6.767-4.935 20.339-14.622 54.374-39.1 54.374-90.232v-31.39c0-60.581 49.285-109.866 109.866-109.866s109.866 49.285 109.866 109.866v31.39c0 51.14 34.034 75.61 54.374 90.232 2.253 1.617 4.453 3.203 6.568 4.782l1.088.82 1.15.72c4.552 2.835 7.334 7.671 7.449 12.959v47.377zm-154.591-270.634c-4.147-1.318-8.537.981-9.848 5.119-1.303 4.139.996 8.537 5.127 9.841 21.994 6.935 39.261 24.201 46.196 46.196 1.058 3.349 4.154 5.487 7.487 5.487.782 0 1.579-.115 2.361-.368 4.131-1.303 6.43-5.701 5.127-9.84-8.483-26.869-29.581-47.975-56.45-56.435z"/></svg>