<svg xmlns="http://www.w3.org/2000/svg" viewBox="0 0 512 512"><path d="M475.733 177.524h-31.39v-31.39c0-26.01-21.083-47.086-47.086-47.086h-345.295c-26.003 0-47.086 21.076-47.086 47.086v219.733c0 26.003 21.082 47.086 47.086 47.086h345.294c26.002 0 47.086-21.083 47.086-47.086v-31.39h31.39c17.335 0 31.39-14.055 31.39-31.39v-94.171c.001-17.337-14.054-31.392-31.389-31.392zm-62.781 188.342c0 8.645-7.043 15.695-15.695 15.695h-345.295c-8.653 0-15.695-7.05-15.695-15.695v-219.732c0-8.66 7.042-15.695 15.695-15.695h345.294c8.652 0 15.695 7.035 15.695 15.695v219.732zm62.781-62.78h-31.39v-94.171h31.39v94.171zm-290.331-109.867c-9.833-9.832-24.47-15.695-39.238-15.695h-47.27c-8.668 0-15.695 7.028-15.695 15.695v125.562c0 8.668 7.028 15.695 15.695 15.695h164.954c39.812 0 34.387-28.425 23.543-39.269l-101.989-101.988zm-70.813 109.867v-94.171h31.575c6.407 0 13.089 2.552 17.044 6.499l87.664 87.673h-136.283z"/></svg>