<svg xmlns="http://www.w3.org/2000/svg" viewBox="0 0 416 512"><path d="M317.836 114.743c0-60.582-49.284-109.866-109.866-109.866-60.581 0-109.866 49.284-109.866 109.866h-94.142v345.294c0 26.002 21.083 47.086 47.086 47.086h313.904c26.003 0 47.086-21.083 47.086-47.086v-345.294h-94.202zm-109.867-78.476c43.269 0 78.476 35.199 78.476 78.476h-156.952c0-43.277 35.208-78.476 78.476-78.476zm172.678 423.771c0 8.652-7.042 15.695-15.695 15.695h-313.904c-8.652 0-15.695-7.043-15.695-15.695v-313.904h62.75v39.245c0 8.661 7.028 15.695 15.695 15.695 8.668 0 15.695-7.035 15.695-15.695v-39.245h156.952v39.245c0 8.661 7.028 15.695 15.695 15.695s15.695-7.035 15.695-15.695v-39.245h62.811v313.904z"/></svg>