<svg xmlns="http://www.w3.org/2000/svg" viewBox="0 0 512 512"><path d="M256 4.877c-138.681 0-251.123 112.425-251.123 251.123 0 138.681 112.442 251.123 251.123 251.123 138.69 0 251.123-112.442 251.123-251.123 0-138.698-112.433-251.123-251.123-251.123zm0 470.856c-121.162 0-219.733-98.571-219.733-219.733 0-121.163 98.571-219.733 219.733-219.733 121.163 0 219.733 98.57 219.733 219.733 0 121.162-98.57 219.733-219.733 219.733zm1.449-141.257h22.14c8.231 0 15.067-6.361 15.657-14.577l15.695-219.733c.307-4.337-1.203-8.614-4.169-11.802-2.974-3.188-7.127-5.011-11.488-5.011h-78.476c-4.361 0-8.515 1.824-11.488 5.011-2.966 3.188-4.475 7.465-4.169 11.802l15.695 219.733c.59 8.216 7.426 14.577 15.657 14.577h22.676c-29.758.613-53.798 24.968-53.798 54.871 0 30.303 24.646 54.949 54.933 54.949 30.286 0 54.933-24.646 54.933-54.949.001-29.903-24.04-54.258-53.798-54.871zm-23.781-219.733h44.756l-13.45 188.342h-17.856l-13.45-188.342zm22.647 298.163c-12.982 0-23.543-10.576-23.543-23.559 0-12.982 10.561-23.527 23.543-23.527s23.543 10.545 23.543 23.527c-.001 12.982-10.561 23.559-23.543 23.559z"/></svg>