<svg xmlns="http://www.w3.org/2000/svg" viewBox="0 0 448 512"><path d="M224.365 216.762c-21.665 0-39.245 17.565-39.245 39.238s17.58 39.238 39.245 39.238c21.658 0 39.231-17.565 39.231-39.238s-17.573-39.238-39.231-39.238zm0 62.781c-12.989 0-23.55-10.56-23.55-23.543 0-12.982 10.561-23.543 23.55-23.543 12.975 0 23.536 10.561 23.536 23.543s-10.561 23.543-23.536 23.543zm162.08-23.666c48.22-51.101 69.953-101.206 51.308-131.493-10.882-17.688-33.965-26.148-64.689-26.148-19.397.015-41.867 3.433-66.214 10.008-18.539-62.643-48.549-103.367-82.485-103.367-33.957 0-63.937 40.832-82.476 103.505-24.631-6.682-47.354-10.146-66.958-10.146-30.716 0-53.798 8.461-64.681 26.148-18.646 30.287 3.126 80.361 51.323 131.462-48.395 51.194-70.237 101.422-51.552 131.785 10.882 17.673 33.949 26.118 64.666 26.118 19.627 0 42.426-3.54 67.103-10.269 18.53 62.781 48.58 103.644 82.575 103.644 33.928 0 63.892-40.786 82.423-103.398 24.463 6.606 47.039 10.024 66.528 10.024 30.716 0 53.791-8.445 64.666-26.118 18.677-30.364-3.157-80.561-51.537-131.755zm-13.366-126.251c19.152 0 33.69 4.291 37.943 11.204 5.518 8.967.421 32.54-23.398 64.973-15.61 21.259-36.678 42.824-61.485 63.532.1-4.43.238-8.844.238-13.335 0-42.38-4.277-82.277-11.802-117.3 21.512-5.856 41.437-9.059 58.504-9.074zm-185.974 186.518c-11.22-6.897-21.834-14.163-32.18-21.535-.774-12.292-1.195-25.167-1.195-38.609 0-13.703.483-26.716 1.287-39.192 9.94-7.004 20.547-14.009 31.85-20.967 12.339-7.587 24.838-14.423 37.337-20.876 12.369 6.392 24.731 13.365 36.932 20.876 11.649 7.173 22.47 14.392 32.655 21.611.775 12.262 1.196 25.121 1.196 38.548 0 13.35-.445 26.087-1.219 38.272-10.546 7.511-21.458 14.852-32.87 21.872-12.216 7.526-24.601 14.423-36.977 20.83-12.331-6.391-24.654-13.35-36.816-20.83zm37.26-279.877c19.052 0 52.412 49.032 65.302 140.536-3.985-2.59-7.978-5.165-12.077-7.695-36.065-22.194-72.238-39.422-105.981-51.377 15.741-53.307 38.341-81.464 52.756-81.464zm-187.384 104.563c4.253-6.913 18.799-11.204 37.95-11.204 31.03 0 71.434 10.437 113.883 28.615-6.131 3.48-12.262 7.097-18.401 10.867-32.777 20.171-61.968 42.273-86.446 64.712-8.782-9.335-16.745-18.715-23.588-28.018-23.819-32.432-28.916-56.005-23.398-64.972zm37.705 241.528c-19.151 0-33.69-4.291-37.935-11.188-10.001-16.248 14.392-70.552 85.864-129.624-.114 4.797-.275 9.58-.275 14.454 0 42.273 4.26 82.093 11.748 117.055-21.857 6.008-42.097 9.303-59.402 9.303zm149.679 93.375c-19.029 0-52.335-48.925-65.271-140.215 3.816 2.467 7.633 4.95 11.556 7.357 36.234 22.301 72.59 39.606 106.472 51.561-15.741 53.248-38.341 81.297-52.757 81.297zm186.887-104.563c-4.246 6.897-18.784 11.188-37.935 11.188-31.107 0-71.632-10.484-114.189-28.739 6.07-3.464 12.147-7.005 18.224-10.744 32.961-20.278 62.313-42.518 86.867-65.095 41.285 43.928 54.934 80.545 47.033 93.39z"/></svg>