<svg xmlns="http://www.w3.org/2000/svg" viewBox="0 0 512 512"><path d="M460.122 134.295v-109.728c0-5.602-2.989-10.79-7.848-13.587-4.859-2.806-10.837-2.806-15.695 0l-186.403 107.613h-198.214c-26.002 0-47.086 21.083-47.086 47.086v125.561c0 26.002 21.083 47.086 47.086 47.086h36.418l42.027 117.714c8.936 23.481 28.931 47.086 54.933 47.086h39.238c26.003 0 39.392-23.605 31.39-47.086l-42.027-117.714h36.096l186.543 107.705c2.43 1.395 5.135 2.099 7.848 2.099s5.418-.705 7.848-2.099c4.858-2.806 7.848-7.986 7.848-13.596v-109.805c25.965-.046 47.001-21.106 47.001-47.086v-94.171c-.002-25.972-21.038-47.032-47.003-47.078zm-233.811 332.021c1.019 3.127.407 4.982.376 5.12-.008.007-.59.299-2.108.299h-39.238c-8.568 0-19.726-11.657-25.489-26.585l-38.135-106.824h58.903l45.691 127.99zm-1.732-159.381h-172.617c-8.652 0-15.695-7.043-15.695-15.695v-125.562c0-8.653 7.043-15.695 15.695-15.695h172.617v156.952zm204.153 98.309l-172.763-99.743v-154.009l172.763-99.742v353.494zm47.001-129.699c0 8.629-6.997 15.641-15.61 15.695v-125.547c8.614.046 15.61 7.058 15.61 15.68v94.172z"/></svg>