<svg xmlns="http://www.w3.org/2000/svg" viewBox="0 0 512 512"><path d="M483.565 256.033c0-21.995-3.181-43.223-8.997-63.332 20.079-19.926 32.54-47.488 32.54-77.936 0-60.577-49.293-109.859-109.874-109.859-30.432 0-57.937 12.496-77.839 32.563-20.133-5.832-41.392-9.02-63.41-9.02-21.98 0-43.2 3.177-63.302 8.989-19.918-20.071-47.484-32.532-77.932-32.532-60.574-.001-109.859 49.281-109.859 109.858 0 30.432 12.476 57.949 32.532 77.859-5.832 20.14-9.02 41.399-9.02 63.409 0 73.678 35.046 139.141 89.336 180.725l-27.336 46.718c-4.384 7.48-1.87 17.09 5.609 21.473 2.499 1.457 5.227 2.146 7.917 2.146 5.395 0 10.637-2.775 13.557-7.771l26.471-45.216c33.084 18.746 71.288 29.505 112.028 29.505 39.544 0 76.721-10.101 109.122-27.835l25.498 43.545c2.919 4.997 8.162 7.771 13.557 7.771 2.69 0 5.426-.69 7.917-2.146 7.48-4.384 9.993-13.994 5.609-21.473l-26.14-44.649c55.828-41.474 92.016-107.904 92.016-182.792zm-86.331-219.737c43.276 0 78.484 35.199 78.484 78.468 0 16.431-5.181 31.612-13.871 44.212-22.531-47.706-61.141-86.308-108.847-108.832 12.605-8.675 27.802-13.848 44.234-13.848zm-360.951 78.468c0-43.269 35.199-78.468 78.468-78.468 16.423 0 31.605 5.18 44.204 13.856-47.737 22.539-86.355 61.171-108.878 108.916-8.676-12.615-13.794-27.866-13.794-44.304zm219.702 337.459c-108.181 0-196.19-88.01-196.19-196.19 0-108.185 88.009-196.194 196.19-196.194 108.18 0 196.19 88.009 196.19 196.194 0 108.18-88.01 196.19-196.19 196.19zm0-360.994c-8.668 0-15.695 7.028-15.695 15.695v142.61l-81.726 81.725c-6.131 6.131-6.131 16.063 0 22.194 3.065 3.066 7.082 4.599 11.097 4.599 4.016 0 8.031-1.533 11.096-4.599l86.324-86.324c2.943-2.943 4.599-6.943 4.599-11.096v-149.109c0-8.667-7.028-15.695-15.695-15.695z"/></svg>