<svg xmlns="http://www.w3.org/2000/svg" viewBox="0 0 512 512"><path d="M144 244.8l-16-91.2h-64v192h44.8v-107.2l20.8 107.2h30.4l20.8-107.2v107.2h43.2v-192h-67.2zm-144-91.2h48v192h-48v-192zm465.6 30.4c-12.8 0-27.2 8-32 12.8v-43.2h-49.6v192h40s3.2-11.2 6.4-9.6 20.8 8 32 8 16 0 22.4-3.2c6.4-4.8 11.2-11.2 11.2-19.2v-112c1.6-16-16-25.6-30.4-25.6zm-17.6 128c0 4.8-1.6 8-6.4 8s-6.4-3.2-6.4-8v-97.6c0-4.8 1.6-6.4 6.4-6.4s6.4 1.6 6.4 6.4v97.6zm-94.4-148.8c-9.6-6.4-19.2-9.6-54.4-9.6h-59.2v192h59.2c33.6 0 44.8-3.2 54.4-9.6s14.4-16 14.4-27.2v-116.8c0-14.4-4.8-22.4-14.4-28.8zm-44.8 142.4c0 9.6-11.2 8-20.8 8v-128c9.6 0 20.8-1.6 20.8 8v112z"/></svg>