<svg xmlns="http://www.w3.org/2000/svg" viewBox="0 0 512 512"><path d="M256-6.4c-140.8 0-256 115.2-256 256s115.2 256 256 256 256-115.2 256-256-115.2-256-256-256zm-142.4 336h-33.6v-160h33.6v160zm124.8 0h-30.4v-89.6l-14.4 89.6h-22.4l-14.4-89.6v89.6h-32v-160h44.8l11.2 76.8 9.6-76.8h48v160zm102.4-30.4c0 9.6-3.2 17.6-9.6 22.4s-14.4 8-38.4 8h-41.6v-160h41.6c25.6 0 32 3.2 38.4 8s9.6 12.8 9.6 24v97.6zm91.2 11.2c0 6.4-3.2 12.8-8 16s-8 3.2-16 3.2-20.8-4.8-22.4-6.4c-1.6-3.2-4.8 6.4-4.8 6.4h-28.8v-160h35.2v35.2c3.2-3.2 14.4-11.2 22.4-11.2 9.6 0 22.4 8 22.4 20.8v96zm-38.4-96c-4.8 0-6.4 1.6-6.4 4.8v81.6c0 3.2 1.6 6.4 6.4 6.4s6.4-3.2 6.4-6.4v-81.6c0-3.2-1.6-4.8-6.4-4.8zm-105.6-17.6v107.2c8 0 16 1.6 16-6.4v-92.8c0-9.6-8-8-16-8z"/></svg>