<svg xmlns="http://www.w3.org/2000/svg" viewBox="0 0 512 512"><path d="M276.8 196.8v105.6c6.4 0 16 1.6 16-6.4v-92.8c-1.6-8-9.6-6.4-16-6.4zm168-203.2h-377.6c-36.8 0-67.2 30.4-67.2 67.2v376c0 38.4 30.4 68.8 67.2 68.8h376c36.8 0 67.2-30.4 67.2-67.2v-377.6c1.6-36.8-28.8-67.2-65.6-67.2zm-356.8 336h-40v-160h40v160zm136 0h-32v-88l-16 88h-22.4l-16-88v88h-33.6v-160h48l12.8 75.2 9.6-75.2h49.6v160zm112-30.4c0 9.6-3.2 17.6-11.2 22.4-6.4 4.8-16 8-40 8h-44.8v-160h44.8c27.2 0 33.6 3.2 40 8 8 4.8 11.2 11.2 11.2 24v97.6zm112 9.6c0 6.4-4.8 11.2-9.6 16-4.8 3.2-9.6 3.2-19.2 3.2s-24-4.8-27.2-6.4l-6.4 8h-33.6v-160h43.2v35.2c4.8-3.2 16-11.2 27.2-11.2 12.8 0 27.2 8 25.6 20.8v94.4zm-46.4-91.2c-4.8 0-4.8 1.6-4.8 4.8v78.4c0 3.2 1.6 6.4 4.8 6.4 4.8 0 4.8-3.2 4.8-6.4v-78.4c0-3.2-1.6-4.8-4.8-4.8z"/></svg>