<svg xmlns="http://www.w3.org/2000/svg" viewBox="0 0 512 512"><path d="M452.8-6.4h-393.6c-33.6 0-59.2 25.6-59.2 59.2v393.6c0 32 40 59.2 59.2 59.2h393.6c32 0 59.2-27.2 59.2-59.2v-393.6c-1.6-33.6-27.2-59.2-59.2-59.2zm-100.8 83.2c0-11.2 8-19.2 19.2-19.2h57.6c11.2 0 19.2 8 19.2 19.2v57.6c0 11.2-8 19.2-19.2 19.2h-57.6c-11.2 0-19.2-8-19.2-19.2v-57.6zm-192 172.8c0-52.8 43.2-96 96-96s96 43.2 96 96-43.2 96-96 96-96-43.2-96-96zm289.6 172.8c0 11.2-9.6 19.2-19.2 19.2h-347.2c-11.2 0-19.2-8-19.2-19.2v-212.8h36.8c-3.2 12.8-4.8 25.6-4.8 40 0 88 72 160 160 160s160-72 160-160c0-14.4-1.6-27.2-4.8-40h38.4v212.8z"/></svg>