<svg xmlns="http://www.w3.org/2000/svg" viewBox="0 0 512 512"><path d="M256 297.6c27.2 0 48-20.8 48-48s-20.8-48-48-48-48 20.8-48 48 20.8 48 48 48zm80-48c0 44.8-35.2 80-80 80s-80-35.2-80-80c0-8 0-12.8 3.2-19.2h-19.2v107.2c0 4.8 3.2 9.6 9.6 9.6h174.4c4.8 0 9.6-3.2 9.6-9.6v-107.2h-19.2c1.6 6.4 1.6 11.2 1.6 19.2zm-22.4-48h28.8c4.8 0 9.6-3.2 9.6-9.6v-28.8c0-4.8-3.2-9.6-9.6-9.6h-28.8c-4.8 0-9.6 3.2-9.6 9.6v28.8c0 6.4 3.2 9.6 9.6 9.6zm-57.6-208c-140.8 0-256 115.2-256 256s115.2 256 256 256 256-115.2 256-256-115.2-256-256-256zm128 355.2c0 16-12.8 28.8-28.8 28.8h-198.4c-9.6 0-28.8-12.8-28.8-28.8v-198.4c0-16 12.8-28.8 28.8-28.8h196.8c16 0 28.8 12.8 28.8 28.8v198.4z"/></svg>