<svg xmlns="http://www.w3.org/2000/svg" viewBox="0 0 512 512"><path d="M328 188.8h35.2c6.4 0 12.8-4.8 12.8-12.8v-35.2c0-6.4-4.8-12.8-12.8-12.8h-35.2c-6.4 0-12.8 4.8-12.8 12.8v35.2c1.6 8 6.4 12.8 12.8 12.8zm-72 121.6c33.6 0 60.8-27.2 60.8-60.8s-27.2-60.8-60.8-60.8-60.8 27.2-60.8 60.8 27.2 60.8 60.8 60.8zm99.2-60.8c0 54.4-44.8 99.2-99.2 99.2s-99.2-44.8-99.2-99.2c0-9.6 1.6-17.6 3.2-25.6h-24v132.8c0 6.4 4.8 12.8 12.8 12.8h217.6c6.4 0 12.8-4.8 12.8-12.8v-132.8h-24v25.6zm89.6-256h-377.6c-36.8 0-67.2 30.4-67.2 67.2v376c0 38.4 30.4 68.8 67.2 68.8h376c36.8 0 67.2-30.4 67.2-67.2v-377.6c1.6-36.8-28.8-67.2-65.6-67.2zm-28.8 379.2c0 19.2-17.6 36.8-36.8 36.8h-246.4c-11.2 0-36.8-17.6-36.8-36.8v-246.4c0-20.8 16-36.8 36.8-36.8h246.4c19.2 0 35.2 16 36.8 36.8v246.4z"/></svg>