<svg xmlns="http://www.w3.org/2000/svg" viewBox="0 0 512 512"><path d="M512 192c-1.6-3.2-4.8-6.4-9.6-6.4l-164.8-14.4-72-155.2c-1.6-3.2-4.8-6.4-9.6-6.4s-8 3.2-9.6 6.4l-73.6 152-163.2 17.6c-4.8 0-8 3.2-9.6 6.4 0 4.8 0 9.6 3.2 11.2l120 108.8-28.8 164.8c-1.6 4.8 0 8 4.8 11.2 1.6 0 3.2 1.6 6.4 1.6 1.6 0 3.2 0 4.8-1.6l147.2-83.2 145.6 84.8c3.2 1.6 8 1.6 11.2-1.6 3.2-1.6 4.8-6.4 4.8-11.2l-20.8-115.2c6.4-3.2 20.8-16 30.4-27.2-14.4 6.4-20.8 6.4-35.2 9.6-97.6 19.2-246.4 3.2-251.2 1.6l161.6-112c-56-9.6-182.4-17.6-190.4-17.6 6.4-1.6 174.4-25.6 272 1.6l-160 110.4s121.6 11.2 168 6.4l-3.2-22.4 120-108.8c1.6-1.6 1.6-6.4 1.6-11.2z"/></svg>