<svg xmlns="http://www.w3.org/2000/svg" viewBox="0 0 512 512"><path d="M256-6.4c-140.8 0-256 115.2-256 256s115.2 256 256 256 256-115.2 256-256-115.2-256-256-256zm158.4 227.2l-75.2 67.2 1.6 14.4c-28.8 3.2-105.6-3.2-105.6-3.2l99.2-68.8c-60.8-17.6-166.4-1.6-169.6-1.6 4.8 0 83.2 4.8 118.4 11.2l-100.8 70.4c3.2 1.6 96 11.2 156.8-1.6 9.6-1.6 12.8-1.6 22.4-6.4-6.4 6.4-14.4 14.4-19.2 17.6l12.8 72c0 3.2-1.6 6.4-3.2 6.4-1.6 1.6-4.8 1.6-6.4 1.6l-88-54.4-92.8 51.2c-1.6 1.6-1.6 1.6-3.2 1.6l-3.2-1.6c-3.2-1.6-3.2-3.2-3.2-6.4l17.6-102.4-75.2-67.2c-1.6-1.6-1.6-4.8-1.6-8 1.6-1.6 3.2-3.2 6.4-3.2l102.4-11.2 46.4-94.4c1.6-1.6 3.2-3.2 6.4-3.2s4.8 1.6 6.4 3.2l44.8 97.6 102.4 9.6c3.2 0 4.8 1.6 6.4 3.2l-3.2 6.4z"/></svg>