<svg xmlns="http://www.w3.org/2000/svg" viewBox="0 0 512 512"><path d="M444.8-6.4h-377.6c-36.8 0-67.2 30.4-67.2 67.2v376c0 38.4 30.4 68.8 67.2 68.8h376c36.8 0 67.2-30.4 67.2-67.2v-377.6c1.6-36.8-28.8-67.2-65.6-67.2zm1.6 220.8l-89.6 81.6 3.2 17.6c-35.2 3.2-126.4-4.8-126.4-4.8l120-83.2c-73.6-20.8-200-3.2-204.8-1.6 6.4 0 100.8 6.4 142.4 12.8l-121.6 84.8c3.2 1.6 115.2 12.8 188.8-1.6 11.2-3.2 16-3.2 27.2-8-8 8-17.6 17.6-22.4 20.8l16 86.4c0 3.2-1.6 8-3.2 8-3.2 3.2-6.4 3.2-8 1.6l-108.8-64-110.4 62.4c-1.6 1.6-3.2 1.6-3.2 1.6-3.2 0-3.2-1.6-4.8-1.6-3.2-3.2-4.8-4.8-3.2-8l22.4-123.2-89.6-81.6c-6.4-1.6-6.4-4.8-6.4-8 1.6-3.2 3.2-4.8 6.4-4.8l123.2-12.8 54.4-115.2c1.6-3.2 3.2-4.8 8-4.8s6.4 3.2 8 4.8l54.4 116.8 123.2 11.2c3.2 0 6.4 3.2 8 4.8-1.6 3.2-1.6 6.4-3.2 8z"/></svg>