<svg xmlns="http://www.w3.org/2000/svg" viewBox="0 0 512 512"><path d="M444.8-6.4h-377.6c-36.8 0-67.2 30.4-67.2 67.2v376c0 38.4 30.4 68.8 67.2 68.8h376c36.8 0 67.2-30.4 67.2-67.2v-377.6c1.6-36.8-28.8-67.2-65.6-67.2zm-348.8 254.4c0-80 60.8-145.6 140.8-160v102.4c0 72-41.6 134.4-100.8 161.6-25.6-27.2-40-64-40-104zm160 161.6c-28.8 0-54.4-6.4-76.8-20.8 38.4-24 67.2-59.2 76.8-100.8 9.6 41.6 41.6 76.8 76.8 100.8-22.4 14.4-48 20.8-76.8 20.8zm120-57.6c-59.2-27.2-100.8-89.6-100.8-161.6v-100.8c78.4 12.8 140.8 78.4 140.8 160 0 38.4-14.4 75.2-40 102.4z"/></svg>