<svg xmlns="http://www.w3.org/2000/svg" viewBox="0 0 512 512"><path d="M456 305.6c41.6 38.4 49.6 56 51.2 59.2 17.6 28.8-19.2 30.4-19.2 30.4h-68.8s-14.4 3.2-33.6-9.6c-25.6-17.6-49.6-62.4-68.8-57.6-19.2 6.4-19.2 51.2-19.2 51.2s0 6.4-4.8 11.2c-4.8 4.8-14.4 3.2-14.4 3.2h-30.4s-67.2 1.6-126.4-59.2c-62.4-68.8-120-195.2-120-195.2s-3.2-8 0-12.8c4.8-4.8 14.4-4.8 14.4-4.8h73.6s6.4 1.6 11.2 4.8l6.4 8s11.2 25.6 27.2 52.8c30.4 52.8 44.8 64 54.4 59.2 14.4-8 11.2-75.2 11.2-75.2s0-22.4-8-33.6c-6.4-8-17.6-11.2-22.4-11.2s3.2-9.6 11.2-14.4c14.4-6.4 38.4-6.4 65.6-6.4 20.8 0 32 1.6 40 3.2 25.6 6.4 16 27.2 16 84.8 0 17.6-3.2 43.2 9.6 51.2 6.4 3.2 14.4 0 48-57.6 16-27.2 28.8-56 28.8-56s3.2-6.4 6.4-8c6.4-1.6 12.8-1.6 12.8-1.6h76.8s22.4-3.2 27.2 8c3.2 11.2-8 32-40 73.6-52.8 68.8-57.6 62.4-16 102.4z"/></svg>