<svg xmlns="http://www.w3.org/2000/svg" viewBox="0 0 512 512"><path d="M256-6.4c-140.8 0-256 115.2-256 256s115.2 256 256 256 256-115.2 256-256-115.2-256-256-256zm124.8 292.8c25.6 25.6 30.4 36.8 32 40 11.2 19.2-12.8 20.8-12.8 20.8h-43.2s-9.6 1.6-20.8-6.4c-16-11.2-30.4-41.6-43.2-38.4-12.8 4.8-12.8 33.6-12.8 33.6s0 4.8-3.2 8-9.6 1.6-9.6 1.6h-19.2s-41.6 1.6-78.4-40c-36.8-44.8-73.6-129.6-73.6-129.6s-1.6-4.8 0-8c3.2-3.2 9.6-3.2 9.6-3.2h46.4s4.8 1.6 6.4 3.2c3.2 1.6 4.8 4.8 4.8 4.8s6.4 17.6 17.6 35.2c19.2 35.2 28.8 43.2 33.6 40 9.6-4.8 6.4-49.6 6.4-49.6s0-14.4-4.8-22.4c-4.8-4.8-11.2-8-14.4-8s1.6-6.4 6.4-9.6c9.6-4.8 24-4.8 41.6-4.8 12.8 0 20.8 1.6 25.6 1.6 16 4.8 9.6 17.6 9.6 56 0 11.2-1.6 28.8 6.4 33.6 4.8 1.6 9.6 0 30.4-38.4 9.6-17.6 17.6-36.8 17.6-36.8s1.6-4.8 4.8-4.8c4.8-1.6 8-1.6 8-1.6h48s14.4-1.6 17.6 4.8c1.6 8-4.8 20.8-25.6 49.6-33.6 46.4-36.8 43.2-11.2 68.8z"/></svg>