<svg xmlns="http://www.w3.org/2000/svg" viewBox="0 0 512 512"><path d="M444.8-6.4h-377.6c-36.8 0-67.2 30.4-67.2 67.2v376c0 38.4 30.4 68.8 67.2 68.8h376c36.8 0 67.2-30.4 67.2-67.2v-377.6c1.6-36.8-28.8-67.2-65.6-67.2zm-51.2 292.8c28.8 25.6 33.6 38.4 35.2 40 12.8 19.2-12.8 20.8-12.8 20.8h-48s-9.6 1.6-22.4-6.4c-17.6-11.2-33.6-41.6-48-38.4-12.8 4.8-12.8 35.2-12.8 35.2s0 4.8-3.2 8-9.6 1.6-9.6 1.6h-20.8s-46.4 1.6-86.4-40c-43.2-46.4-83.2-131.2-83.2-131.2s-1.6-4.8 0-8c3.2-3.2 9.6-3.2 9.6-3.2h51.2s4.8 1.6 8 3.2l4.8 4.8s8 17.6 19.2 35.2c20.8 35.2 30.4 43.2 36.8 40 9.6-4.8 8-51.2 8-51.2s0-14.4-4.8-22.4c-4.8-4.8-12.8-8-16-8s1.6-6.4 8-9.6c9.6-4.8 25.6-4.8 44.8-4.8 14.4 0 22.4 1.6 27.2 1.6 17.6 4.8 11.2 17.6 11.2 57.6 0 11.2-1.6 28.8 6.4 35.2 4.8 1.6 9.6 0 33.6-38.4 11.2-17.6 19.2-38.4 19.2-38.4s1.6-4.8 4.8-4.8c4.8-1.6 8-1.6 8-1.6h52.8s16-1.6 19.2 4.8c1.6 8-4.8 22.4-27.2 49.6-38.4 46.4-41.6 41.6-12.8 68.8z"/></svg>