<svg xmlns="http://www.w3.org/2000/svg" viewBox="0 0 512 512"><path d="M353.6 161.6h3.2c-17.6-70.4-92.8-120-177.6-120-99.2 0-179.2 67.2-179.2 153.6 0 49.6 27.2 91.2 72 121.6l-17.6 54.4 62.4-32c22.4 4.8 40 9.6 62.4 9.6h12.8c-4.8-12.8-6.4-25.6-6.4-40 0-81.6 75.2-147.2 168-147.2zm-137.6-40c12.8 0 24 11.2 24 24s-11.2 24-24 24-24-11.2-24-24 11.2-24 24-24zm-97.6 48c-12.8 0-24-11.2-24-24s11.2-24 24-24 24 11.2 24 24-11.2 24-24 24zm393.6 142.4c0-70.4-72-128-153.6-128-86.4 0-153.6 57.6-153.6 128s67.2 129.6 153.6 129.6c17.6 0 36.8-6.4 54.4-9.6l49.6 27.2-14.4-44.8c36.8-27.2 64-62.4 64-102.4zm-200-9.6c-12.8 0-24-9.6-24-24s11.2-24 24-24 24 11.2 24 24-11.2 24-24 24zm96 0c-12.8 0-24-9.6-24-24s11.2-24 24-24 24 9.6 24 24-9.6 24-24 24z"/></svg>