<svg xmlns="http://www.w3.org/2000/svg" viewBox="0 0 512 512"><path d="M294.4 252.8c-8 0-16 6.4-16 16s8 16 16 16 16-8 16-16-6.4-16-16-16zm-65.6-59.2c8 0 16-8 16-16s-8-16-16-16-16 8-16 16 6.4 16 16 16zm-67.2-32c-9.6 0-16 8-16 16s8 16 16 16 16-8 16-16-8-16-16-16zm198.4 91.2c-8 0-16 6.4-16 16s8 16 16 16c9.6 0 16-6.4 16-16s-6.4-16-16-16zm-104-259.2c-140.8 0-256 115.2-256 256s115.2 256 256 256 256-115.2 256-256-115.2-256-256-256zm-52.8 323.2c-16 0-27.2-3.2-43.2-6.4l-43.2 22.4 12.8-36.8c-30.4-22.4-49.6-49.6-49.6-84.8 0-59.2 54.4-105.6 123.2-105.6 57.6 0 110.4 33.6 121.6 83.2h-1.6c-64 0-115.2 44.8-115.2 100.8 0 9.6 1.6 19.2 4.8 27.2h-9.6zm184 44.8l9.6 30.4-33.6-19.2c-12.8 1.6-25.6 6.4-36.8 6.4-59.2 0-105.6-40-105.6-89.6 0-48 46.4-88 105.6-88 56 0 105.6 40 105.6 88 0 30.4-19.2 54.4-44.8 72z"/></svg>