<svg xmlns="http://www.w3.org/2000/svg" viewBox="0 0 512 512"><path d="M297.6 252.8c-9.6 0-17.6 8-17.6 17.6 0 11.2 8 17.6 17.6 17.6s17.6-8 17.6-17.6-8-17.6-17.6-17.6zm-72-65.6c9.6 0 17.6-8 17.6-17.6s-8-17.6-17.6-17.6-17.6 8-17.6 17.6 8 17.6 17.6 17.6zm-72-35.2c-9.6 0-17.6 8-17.6 17.6s8 17.6 17.6 17.6c9.6 0 17.6-8 17.6-17.6s-8-17.6-17.6-17.6zm291.2-158.4h-377.6c-36.8 0-67.2 30.4-67.2 67.2v376c0 38.4 30.4 68.8 67.2 68.8h376c36.8 0 67.2-30.4 67.2-67.2v-377.6c1.6-36.8-28.8-67.2-65.6-67.2zm-246.4 331.2c-16 0-30.4-3.2-46.4-8l-46.4 24 12.8-41.6c-33.6-22.4-54.4-54.4-54.4-91.2 0-67.2 60.8-118.4 134.4-118.4 64 0 120 38.4 132.8 91.2h-1.6c-68.8 0-124.8 49.6-124.8 112 0 11.2 1.6 20.8 4.8 30.4h-11.2zm201.6 49.6l11.2 33.6-36.8-20.8c-12.8 3.2-27.2 8-40 8-64 0-115.2-44.8-115.2-99.2s49.6-97.6 115.2-97.6c60.8 0 115.2 43.2 115.2 97.6-1.6 30.4-22.4 57.6-49.6 78.4zm-30.4-121.6c-9.6 0-17.6 8-17.6 17.6 0 11.2 8 17.6 17.6 17.6 11.2 0 17.6-8 17.6-17.6 0-11.2-8-17.6-17.6-17.6z"/></svg>