<svg xmlns="http://www.w3.org/2000/svg" viewBox="0 0 512 512"><path d="M384 241.6c-8-1.6-12.8-3.2-8-12.8 8-20.8 9.6-38.4 0-51.2-16-24-62.4-22.4-113.6 0 0 0-16 6.4-12.8-6.4 8-25.6 6.4-48-6.4-59.2-28.8-28.8-104 1.6-168 65.6-48 48-76.8 99.2-76.8 144 1.6 83.2 110.4 136 216 136 139.2 0 232-81.6 232-145.6 0-38.4-32-60.8-62.4-70.4zm-169.6 185.6c-84.8 8-158.4-30.4-163.2-84.8-4.8-56 59.2-107.2 144-115.2s158.4 30.4 163.2 84.8c6.4 54.4-59.2 105.6-144 115.2zm262.4-340.8c-33.6-36.8-83.2-51.2-129.6-41.6-11.2 1.6-17.6 12.8-14.4 24 1.6 11.2 12.8 17.6 24 14.4 32-6.4 67.2 3.2 91.2 30.4s30.4 62.4 20.8 94.4c-4.8 9.6 1.6 20.8 11.2 24s20.8-1.6 24-12.8c16-44.8 6.4-94.4-27.2-132.8zm-59.2 123.2c9.6 3.2 17.6-1.6 20.8-11.2 6.4-22.4 3.2-46.4-14.4-64-16-17.6-40-25.6-62.4-20.8-9.6 1.6-14.4 11.2-12.8 20.8s11.2 14.4 20.8 12.8c11.2-1.6 22.4 1.6 30.4 9.6 8 9.6 9.6 20.8 6.4 32-1.6 8 3.2 17.6 11.2 20.8zm-193.6 57.6c-40-11.2-86.4 9.6-104 44.8-17.6 36.8 0 76.8 40 89.6 41.6 14.4 91.2-8 108.8-46.4 17.6-36.8-3.2-76.8-44.8-88zm-32 92.8c-8 12.8-25.6 19.2-38.4 12.8s-17.6-20.8-8-33.6c8-12.8 25.6-17.6 38.4-12.8 12.8 6.4 17.6 20.8 8 33.6z"/></svg>