<svg xmlns="http://www.w3.org/2000/svg" viewBox="0 0 512 512"><path d="M208 302.4c-8-3.2-20.8 0-25.6 8-6.4 8-3.2 19.2 4.8 22.4 8 4.8 20.8 0 25.6-8 6.4-8 3.2-17.6-4.8-22.4zm236.8-308.8h-377.6c-36.8 0-67.2 30.4-67.2 67.2v376c0 38.4 30.4 68.8 67.2 68.8h376c36.8 0 67.2-30.4 67.2-67.2v-377.6c1.6-36.8-28.8-67.2-65.6-67.2zm-216 398.4c-72 0-147.2-36.8-148.8-92.8 0-30.4 19.2-65.6 52.8-99.2 43.2-43.2 96-64 115.2-44.8 8 8 9.6 22.4 4.8 40-1.6 8 8 4.8 8 4.8 35.2-16 67.2-16 78.4 0 6.4 8 4.8 20.8 0 35.2-3.2 6.4 0 8 4.8 8 20.8 6.4 43.2 22.4 43.2 48 0 44.8-64 100.8-158.4 100.8zm126.4-206.4c-4.8-4.8-12.8-8-20.8-6.4-6.4 1.6-12.8-1.6-14.4-8s1.6-12.8 8-14.4c16-3.2 32 1.6 43.2 14.4 12.8 12.8 14.4 28.8 9.6 43.2-1.6 6.4-8 9.6-14.4 8-4.8-1.6-8-8-8-14.4 3.2-8 3.2-16-3.2-22.4zm72 43.2c-1.6 8-9.6 11.2-16 8-6.4-1.6-11.2-9.6-8-16 6.4-22.4 1.6-46.4-14.4-64s-40-25.6-62.4-20.8c-8 1.6-16-1.6-16-9.6-1.6-8 1.6-16 9.6-16 32-6.4 65.6 3.2 89.6 28.8 22.4 24 28.8 59.2 17.6 89.6zm-212.8 4.8c-57.6 4.8-102.4 40-99.2 78.4 3.2 36.8 54.4 64 112 57.6s102.4-41.6 99.2-78.4c-3.2-36.8-52.8-62.4-112-57.6zm51.2 88c-12.8 25.6-46.4 41.6-75.2 32-27.2-8-40-36.8-27.2-60.8s43.2-38.4 72-30.4c28.8 6.4 41.6 33.6 30.4 59.2z"/></svg>