<svg xmlns="http://www.w3.org/2000/svg" viewBox="0 0 512 512"><path d="M512 243.2c0 137.6-112 249.6-251.2 249.6-44.8 0-84.8-11.2-121.6-30.4l-139.2 43.2 44.8-134.4c-22.4-36.8-36.8-81.6-36.8-128 1.6-137.6 113.6-249.6 252.8-249.6s251.2 112 251.2 249.6zm-251.2-209.6c-116.8 0-211.2 94.4-211.2 209.6 0 46.4 14.4 88 40 123.2l-27.2 78.4 81.6-27.2c33.6 22.4 73.6 35.2 116.8 35.2 116.8 0 211.2-94.4 211.2-209.6s-94.4-209.6-211.2-209.6zm126.4 267.2c-1.6-3.2-6.4-4.8-11.2-6.4-6.4-3.2-36.8-17.6-41.6-19.2-6.4-1.6-9.6-3.2-14.4 3.2s-16 19.2-19.2 24c-3.2 4.8-6.4 4.8-12.8 1.6s-25.6-9.6-49.6-30.4c-17.6-16-30.4-36.8-33.6-41.6-3.2-6.4 0-9.6 3.2-12.8s6.4-6.4 9.6-11.2c3.2-3.2 4.8-6.4 6.4-9.6 1.6-4.8 1.6-8 0-11.2l-19.2-44.8c-4.8-12.8-9.6-9.6-14.4-9.6h-11.2s-11.2 1.6-16 8c-6.4 6.4-20.8 20.8-20.8 51.2s22.4 59.2 25.6 64c3.2 4.8 43.2 67.2 105.6 92.8 62.4 24 62.4 16 73.6 16 11.2-1.6 36.8-14.4 41.6-28.8 0-20.8 0-33.6-1.6-35.2z"/></svg>