<svg xmlns="http://www.w3.org/2000/svg" viewBox="0 0 512 512"><path d="M259.2 115.2c-73.6 0-131.2 59.2-131.2 131.2 0 28.8 9.6 54.4 25.6 76.8l-17.6 49.6 51.2-17.6c20.8 14.4 46.4 22.4 73.6 22.4 73.6 0 131.2-59.2 131.2-131.2s-59.2-131.2-132.8-131.2zm54.4 206.4c-6.4 0-6.4 4.8-46.4-9.6-38.4-16-64-54.4-65.6-57.6s-16-20.8-16-40 9.6-28.8 12.8-32c3.2-3.2 8-4.8 9.6-4.8h6.4c3.2 0 6.4-1.6 9.6 6.4 3.2 6.4 11.2 25.6 12.8 28.8s1.6 3.2 0 6.4c-1.6 1.6-1.6 3.2-3.2 6.4s-3.2 4.8-6.4 6.4-3.2 3.2-1.6 8c1.6 3.2 9.6 16 20.8 25.6 14.4 12.8 27.2 17.6 30.4 19.2s6.4 1.6 8-1.6 9.6-11.2 12.8-14.4 4.8-3.2 9.6-1.6c3.2 1.6 22.4 9.6 25.6 12.8 3.2 1.6 6.4 1.6 6.4 3.2 1.6 1.6 1.6 9.6 1.6 22.4-4.8 6.4-20.8 14.4-27.2 16zm-57.6-328c-140.8 0-256 115.2-256 256s115.2 256 256 256 256-115.2 256-256-115.2-256-256-256zm3.2 408c-28.8 0-52.8-6.4-76.8-19.2l-86.4 27.2 28.8-83.2c-14.4-22.4-22.4-51.2-22.4-80 0-86.4 70.4-156.8 156.8-156.8s156.8 70.4 156.8 156.8-70.4 155.2-156.8 155.2z"/></svg>