<svg xmlns="http://www.w3.org/2000/svg" viewBox="0 0 512 512"><path d="M259.2 88c-88 0-158.4 70.4-158.4 156.8 0 35.2 11.2 65.6 30.4 92.8l-20.8 59.2 60.8-20.8c25.6 16 56 27.2 88 27.2 88 0 158.4-70.4 158.4-156.8 0-88-70.4-158.4-158.4-158.4zm65.6 248c-8 0-8 6.4-56-12.8-46.4-19.2-76.8-65.6-80-70.4-3.2-3.2-19.2-25.6-19.2-48s11.2-33.6 16-38.4c3.2-4.8 9.6-6.4 12.8-6.4h8c3.2 0 8-3.2 11.2 6.4 3.2 8 12.8 32 14.4 33.6s1.6 4.8 0 8l-4.8 8c-3.2 3.2-4.8 6.4-8 8s-4.8 4.8-3.2 9.6c3.2 3.2 12.8 19.2 25.6 32 17.6 16 32 20.8 36.8 22.4 4.8 3.2 8 3.2 9.6-1.6 3.2-3.2 11.2-12.8 14.4-17.6s6.4-3.2 11.2-1.6c3.2 1.6 27.2 12.8 32 14.4 3.2 1.6 8 3.2 8 4.8 1.6 1.6 1.6 11.2 1.6 25.6-3.2 12.8-22.4 22.4-30.4 24zm120-342.4h-377.6c-36.8 0-67.2 30.4-67.2 67.2v376c0 38.4 30.4 68.8 67.2 68.8h376c36.8 0 67.2-30.4 67.2-67.2v-377.6c1.6-36.8-28.8-67.2-65.6-67.2zm-185.6 438.4c-33.6 0-64-8-91.2-22.4l-104 32 33.6-100.8c-16-27.2-27.2-60.8-27.2-96 1.6-104 84.8-187.2 188.8-187.2 105.6 0 188.8 83.2 188.8 187.2s-83.2 187.2-188.8 187.2z"/></svg>