<svg xmlns="http://www.w3.org/2000/svg" viewBox="0 0 512 512"><path d="M192.171 345.91c-88.341 0-160.214-71.84-160.214-160.16 0-88.341 71.872-160.214 160.214-160.214s160.202 71.872 160.202 160.214c0 88.32-71.862 160.16-160.202 160.16zm0-309.696c-82.454 0-149.547 67.082-149.547 149.546 0 82.432 67.082 149.494 149.547 149.494 82.454 0 149.536-67.062 149.536-149.494 0-82.464-67.082-149.546-149.536-149.546zm253.706 410.037c-1.365 0-2.72-.522-3.765-1.558l-143.67-143.168c-2.091-2.08-2.091-5.462-.022-7.541 2.08-2.101 5.462-2.08 7.541-.022l143.669 143.168c2.091 2.08 2.091 5.462.022 7.541-1.034 1.056-2.411 1.579-3.776 1.579z"/></svg>