<svg xmlns="http://www.w3.org/2000/svg" viewBox="0 0 512 512"><path d="M421.462 441.643h-330.688c-20.587 0-37.334-16.747-37.334-37.334v-245.408c0-20.587 16.746-37.334 37.334-37.334h101.142v-26.624c0-20.587 16.746-37.334 37.334-37.334h53.376c20.587 0 37.334 16.746 37.334 37.334v26.624h101.504c20.587 0 37.334 16.747 37.334 37.334v245.408c0 20.587-16.757 37.334-37.334 37.334zm-330.689-309.408c-14.698 0-26.666 11.968-26.666 26.666v245.408c0 14.709 11.968 26.666 26.666 26.666h330.678c14.709 0 26.666-11.957 26.666-26.666v-245.408c0-14.698-11.957-26.667-26.666-26.667h-106.827c-2.944 0-5.334-2.389-5.334-5.333v-31.957c0-14.698-11.957-26.667-26.666-26.667h-53.376c-14.698 0-26.667 11.968-26.667 26.667v31.957c0 2.944-2.389 5.333-5.333 5.333h-106.475zm191.958-.213h-53.355c-2.944 0-5.333-2.389-5.333-5.334v-21.098c0-8.822 7.178-16 16-16h32.022c8.822 0 16 7.178 16 16v21.098c0 2.944-2.389 5.334-5.334 5.334zm-48.033-10.667h42.688v-15.766c0-2.944-2.4-5.334-5.334-5.334h-32.022c-2.944 0-5.333 2.389-5.333 5.334v15.766zm91.052 10.943h-132.661c-2.944 0-5.333-2.389-5.333-5.333s2.389-5.334 5.333-5.334h132.661c2.944 0 5.334 2.389 5.334 5.334s-2.389 5.333-5.334 5.333zm84.938 213.324h-309.291c-26.464 0-48-21.536-48-48 0-2.944 2.389-5.334 5.334-5.334s5.334 2.389 5.334 5.334c0 20.587 16.746 37.334 37.334 37.334h309.291c20.587 0 37.334-16.747 37.334-37.334 0-2.944 2.389-5.334 5.334-5.334s5.334 2.389 5.334 5.334c0 26.464-21.536 48-48 48zm-154.699 32.138c-17.643 0-31.989-14.315-31.989-31.904 0-2.944 2.389-5.334 5.333-5.334s5.333 2.389 5.333 5.334c0 11.712 9.568 21.238 21.322 21.238s21.322-9.536 21.322-21.238c0-2.944 2.389-5.334 5.334-5.334s5.334 2.389 5.334 5.334c-.01 17.589-14.358 31.904-31.989 31.904z"/></svg>