<svg xmlns="http://www.w3.org/2000/svg" viewBox="0 0 512 512"><path d="M410.646 452.128h-309.238c-38.23 0-69.334-31.104-69.334-69.334v-191.829c0-38.23 31.104-69.334 69.334-69.334h58.624l25.355-30.186c1.013-1.205 2.506-1.898 4.085-1.898h132.886c1.568 0 3.062.693 4.075 1.888l25.546 30.197h58.666c38.23 0 69.334 31.104 69.334 69.334v191.829c0 38.229-31.104 69.334-69.334 69.334zm-309.238-319.83c-32.352 0-58.666 26.315-58.666 58.667v191.829c0 32.341 26.314 58.666 58.666 58.666h309.238c32.341 0 58.666-26.325 58.666-58.666v-191.829c0-32.352-26.325-58.667-58.666-58.667h-61.13c-1.568 0-3.062-.693-4.075-1.888l-25.558-30.197h-127.925l-25.355 30.186c-1.013 1.206-2.506 1.899-4.085 1.899h-61.109zm154.614 245.441c-53.046 0-96.202-43.082-96.202-96.043 0-52.971 43.157-96.053 96.202-96.053 53.056 0 96.214 43.093 96.214 96.053-.01 52.96-43.158 96.043-96.214 96.043zm0-181.441c-47.168 0-85.536 38.304-85.536 85.387 0 47.072 38.368 85.376 85.536 85.376s85.546-38.304 85.546-85.376c-.01-47.072-38.379-85.387-85.546-85.387z"/></svg>