<svg xmlns="http://www.w3.org/2000/svg" viewBox="0 0 512 512"><path d="M410.774 452.128h-309.483c-2.944 0-5.334-2.389-5.334-5.334v-295.253c0-1.312.48-2.571 1.355-3.552l88.416-99.125c1.013-1.13 2.453-1.781 3.978-1.781h221.067c2.944 0 5.334 2.389 5.334 5.334v394.378c0 2.954-2.389 5.334-5.334 5.334zm-304.15-10.666h298.816v-383.702h-213.333l-85.472 95.818v287.883zm240.171-223.712h-181.322c-2.944 0-5.333-2.389-5.333-5.334s2.389-5.334 5.333-5.334h181.322c2.944 0 5.334 2.389 5.334 5.334s-2.389 5.334-5.334 5.334zm0-64.172h-85.205c-2.944 0-5.334-2.389-5.334-5.333s2.389-5.333 5.334-5.333h85.206c2.944 0 5.334 2.389 5.334 5.333s-2.389 5.333-5.334 5.333zm0 128.076h-181.322c-2.944 0-5.333-2.389-5.333-5.334s2.389-5.334 5.333-5.334h181.322c2.944 0 5.334 2.389 5.334 5.334s-2.389 5.334-5.334 5.334zm0 63.978h-181.322c-2.944 0-5.333-2.389-5.333-5.334s2.389-5.334 5.333-5.334h181.322c2.944 0 5.334 2.389 5.334 5.334s-2.389 5.334-5.334 5.334zm-160.16-191.99h-81.078c-2.944 0-5.334-2.389-5.334-5.334s2.389-5.333 5.334-5.333h75.744v-86.57c0-2.944 2.389-5.334 5.333-5.334s5.333 2.389 5.333 5.334v91.904c0 2.944-2.389 5.334-5.333 5.334z"/></svg>