<svg xmlns="http://www.w3.org/2000/svg" viewBox="0 0 512 512"><path d="M445.984 250.704c-9.04 0-17.68 1.76-25.536 4.928-5.248-57.184-55.152-102.032-116-102.032-14.896 0-29.344 2.816-42.16 7.584-4.976 1.856-6.288 3.76-6.288 7.456v201.36c0 3.888 3.12 7.12 7.056 7.504.176.016 181.76.112 182.944.112 36.448 0 66-28.416 66-63.44s-29.568-63.456-66.016-63.456zm-245.984 126.896h16l8-112.112-8-111.888h-16l-8 111.888zm-48 0h-16l-8-81.376 8-78.624h16l8 80zm-80 0h16l8-64-8-64h-16l-8 64zm-64-32h16l8-32-8-32h-16l-8 32z"/></svg>