<svg xmlns="http://www.w3.org/2000/svg" viewBox="0 0 512 512"><path d="M444-6.4h-376c-37.555 0-68 30.445-68 68v376c0 37.555 30.445 68 68 68h376c37.555 0 68-30.445 68-68v-376c0-37.555-30.445-68-68-68zm-362.019 296.02h-11.984l-5.992-23.969 5.992-23.969h11.984l5.992 23.969-5.992 23.969zm47.936 23.968h-11.984l-5.992-47.937 5.992-47.937h11.984l5.992 47.937-5.992 47.937zm47.938 0h-11.984l-5.992-60.952 5.992-58.891h11.984l5.992 59.921-5.992 59.921zm47.937 0h-11.984l-5.992-83.974 5.992-83.806h11.984l5.992 83.806-5.992 83.974zm172.273.012c-.887 0-136.896-.072-137.028-.084-2.948-.288-5.285-2.709-5.285-5.62v-150.822c0-2.768.982-4.195 4.71-5.584 9.599-3.572 20.421-5.68 31.579-5.68 45.576 0 82.955 33.592 86.885 76.424 5.885-2.373 12.356-3.691 19.127-3.691v.012c27.3 0 49.447 21.296 49.447 47.53s-22.135 47.517-49.435 47.517z"/></svg>