<svg xmlns="http://www.w3.org/2000/svg" viewBox="0 0 512 512"><path d="M256-6.4c-141.385 0-256 114.615-256 256s114.615 256 256 256 256-114.615 256-256-114.615-256-256-256zm-173.871 297.089h-12.008l-6.004-22.899 6.004-22.9h12.008l6.004 22.9-6.004 22.899zm48.032 22.9h-12.008l-6.004-45.8 6.004-45.8h12.008l6.004 45.8-6.004 45.8zm48.031 0h-12.008l-6.004-58.234 6.004-56.264h12.008l6.004 57.249-6.004 57.249zm48.032 0h-12.008l-6.004-80.229 6.004-80.069h12.008l6.004 80.069-6.004 80.229zm172.615.011c-.889 0-137.197-.068-137.329-.08-2.954-.275-5.296-2.587-5.296-5.37v-144.096c0-2.645.985-4.007 4.719-5.335 9.618-3.412 20.491-5.427 31.671-5.427 45.666 0 83.12 32.094 87.058 73.015 5.896-2.267 12.38-3.526 19.165-3.526v.012c27.354 0 49.545 20.346 49.545 45.41s-22.179 45.399-49.533 45.399z"/></svg>