<svg xmlns="http://www.w3.org/2000/svg" viewBox="0 0 512 512"><path d="M256-6.4c-141.385 0-256 114.615-256 256s114.615 256 256 256 256-114.615 256-256-114.615-256-256-256zm146.24 258.654c-31.365 127.03-241.727 180.909-338.503 49.042 37.069 35.371 101.619 38.47 142.554-3.819-24.006 3.51-41.47-20.021-11.978-32.755-26.523 2.923-41.27-11.201-47.317-23.174 6.218-6.511 13.079-9.531 26.344-10.407-29.04-6.851-39.751-21.057-43.046-38.284 8.066-1.921 18.149-3.578 23.656-2.836-25.431-13.295-34.274-33.291-32.875-48.326 45.438 16.866 74.396 30.414 98.613 43.411 8.626 4.591 18.252 12.888 29.107 23.393 13.835-36.534 30.915-74.19 60.169-92.874-.493 4.236-2.758 8.179-5.764 11.406 8.298-7.535 19.072-12.719 30.027-14.216-1.257 8.22-13.105 12.847-20.249 15.539 5.414-1.688 34.209-14.531 37.348-7.216 3.705 8.328-19.867 12.147-23.872 13.593-2.985 1.004-5.992 2.105-8.936 3.299 36.492-3.634 71.317 26.456 81.489 63.809.719 2.687 1.44 5.672 2.1 8.801 13.341 4.978 37.521-.231 45.313-5.023-5.63 13.315-20.268 23.121-41.865 24.912 10.407 4.324 30.018 6.691 43.544 4.396-8.563 9.193-22.379 17.527-45.859 17.329z"/></svg>