<svg xmlns="http://www.w3.org/2000/svg" viewBox="0 0 512 512"><path d="M256-6.4c-141.385 0-256 114.615-256 256s114.615 256 256 256 256-114.615 256-256-114.615-256-256-256zm-90.203 384.325c-20.801 0-37.663-16.861-37.663-37.663 0-20.801 16.862-37.663 37.663-37.663 20.8 0 37.663 16.862 37.663 37.663-.001 20.802-16.863 37.663-37.663 37.663zm97.299-.324c0-36.053-14.04-69.944-39.531-95.438-25.493-25.49-59.387-39.531-95.438-39.531l-.195.003v-54.029l.195-.001c104.38 0 188.998 84.616 188.998 188.997h-54.029zm98.873-.001c0-31.594-6.174-62.213-18.353-91.007-11.776-27.839-28.645-52.853-50.138-74.345-21.493-21.494-46.507-38.363-74.347-50.138-28.795-12.18-59.414-18.355-91.006-18.355l-.195.001v-54.029h.195c158.99 0 287.875 128.886 287.875 287.873h-54.031z"/></svg>