<svg xmlns="http://www.w3.org/2000/svg" viewBox="0 0 512 512"><path d="M202.48 284.307v-14.152l-56.999-.098v13.924l17.791.053v95.84h17.835l-.013-95.567h21.386zm24.889 65.266c0 7.385.448 11.076-.017 12.377-1.446 3.965-7.964 8.156-10.513.43-.427-1.353-.049-5.44-.049-12.447l-.07-51.394h-17.734l.053 50.578c.022 7.752-.172 13.537.061 16.164.44 4.644.286 10.049 4.584 13.133 8.026 5.793 23.391-.861 27.24-9.123l-.04 10.547 14.319.019v-81.318h-17.835v51.035zm46.259-47.854l.062-31.592-17.809.035-.089 109.006 14.645-.219 1.335-6.785c18.715 17.166 30.485 5.404 30.458-15.174l-.035-42.49c-.017-16.183-12.129-25.887-28.567-12.781zm15.364 58.35c0 3.524-3.515 6.39-7.805 6.39s-7.797-2.867-7.797-6.39v-47.695c0-3.526 3.507-6.408 7.797-6.408 4.289 0 7.805 2.883 7.805 6.408v47.695zm-36.294-164.046c4.343 0 7.876-3.912 7.876-8.698v-44.983c0-4.778-3.532-8.684-7.876-8.684-4.338 0-7.903 3.906-7.903 8.684v44.984c0 4.786 3.565 8.698 7.903 8.698zm3.302-202.423c-141.385 0-256 114.615-256 256s114.615 256 256 256 256-114.615 256-256-114.615-256-256-256zm31.394 129.297h16.34v65.764c0 3.564 2.935 6.473 6.505 6.473 3.586 0 6.512-2.909 6.512-6.473v-65.764h15.649v84.5h-19.866l.334-6.996c-1.354 2.844-3.024 4.971-5.001 6.399-1.988 1.433-4.255 2.127-6.83 2.127-2.928 0-5.381-.681-7.297-2.026-1.933-1.366-3.366-3.178-4.29-5.418-.915-2.26-1.476-4.602-1.705-7.037-.219-2.457-.351-7.295-.351-14.556v-56.991zm-48.83.883c3.511-2.769 8.003-4.158 13.471-4.158 4.592 0 8.539.901 11.826 2.673 3.305 1.771 5.854 4.083 7.631 6.931 1.801 2.856 3.022 5.793 3.673 8.799.66 3.046.994 7.643.994 13.836v21.369c0 7.84-.317 13.606-.923 17.267-.599 3.67-1.908 7.072-3.912 10.272-1.988 3.156-4.544 5.52-7.647 7.028-3.137 1.516-6.733 2.259-10.786 2.259-4.531 0-8.341-.619-11.488-1.933-3.156-1.292-5.59-3.261-7.331-5.858-1.754-2.594-2.985-5.772-3.727-9.468-.756-3.7-1.113-9.26-1.113-16.666v-22.371c0-8.113.685-14.446 2.026-19.012 1.345-4.549 3.78-8.211 7.305-10.966zm-52.06-34.18l11.946 41.353 11.77-41.239h20.512l-22.16 55.523-.023 64.81h-18.736l-.031-64.788-23.566-55.659h20.287zm197.528 280.428c0 21.764-18.882 39.572-41.947 39.572h-172.476c-23.078 0-41.951-17.808-41.951-39.572v-90.733c0-21.755 18.873-39.573 41.951-39.573h172.476c23.065 0 41.947 17.819 41.947 39.573v90.733zm-39.38-18.602l-.034 1.803v7.453c0 4-3.297 7.244-7.298 7.244h-2.619c-4.015 0-7.313-3.244-7.313-7.244v-19.61h30.617v-11.515c0-8.42-.229-16.832-.924-21.651-2.188-15.224-23.549-17.64-34.353-9.853-3.384 2.435-5.978 5.695-7.478 10.074-1.522 4.377-2.269 10.363-2.269 17.967v25.317c0 42.113 51.14 36.162 45.041-.053l-13.37.068zm-16.947-34.244c0-4.361 3.586-7.922 7.964-7.922h1.063c4.394 0 7.981 3.56 7.981 7.922l-.192 9.81h-16.887l.072-9.81z"/></svg>