<svg xmlns="http://www.w3.org/2000/svg" viewBox="0 0 512 512"><path d="M256-6.4c-141.385 0-256 114.615-256 256s114.615 256 256 256 256-114.615 256-256-114.615-256-256-256zm68.18 200.337c-6.66 2.114-71.151 64.321-75.159 77.886-.784 4.125-.121 28.596.644 41.785l38.807.721v31.154h-.935l-.012.258c-1.313-.121-106.983.238-115.786-.06l.402-2.693v-29.381h33.073l.403-41.369s-51.611-73.906-65.569-86.735h-43.451v-31.904h127.552v1.366c.102 0 0 3.369 0 3.369v26.704h-35.188c16.298 27.907 35.504 49.844 45.468 66.024l53.74-59.314h-29.022l-3.094-26.322h107.622l-.791 1.402.384.026-13.18 24.894h-19.616c-2.536.663-4.769 1.833-6.291 2.188zm36.48 158.788l-10.455-3.368-9.672-3.272 5.651-25.195 12.142 4.658 11.103 3.217-8.771 23.96zm13.018-46.13l-19.068-5.897 22.087-111.114c4.243 1.992 37.81 12.983 41.56 13.911l-44.578 103.1z"/></svg>