<svg xmlns="http://www.w3.org/2000/svg" viewBox="0 0 512 512"><path d="M256-6.4c-141.385 0-256 114.615-256 256s114.615 256 256 256 256-114.615 256-256-114.615-256-256-256zm86.805 406.527c-6.286 6.302-13.841 9.463-22.637 9.463h-64.317c-26.425 0-49.017-9.37-67.758-28.197-18.735-18.767-28.094-41.381-28.094-67.863v-159.763c0-9.079 3.119-16.703 9.358-22.888 6.225-6.17 13.873-9.279 22.86-9.279 8.739 0 16.26 3.168 22.482 9.463 6.25 6.295 9.393 13.844 9.393 22.671v46.631h97.823c8.185 0 15.224 2.909 21.065 8.753 5.851 5.844 8.779 15.358 8.779 23.551 0 8.142-2.927 18.67-8.76 24.536-5.827 5.81-12.848 8.746-20.998 8.746h-97.906v47.549c0 8.861 3.06 16.358 9.245 22.553 6.169 6.195 13.66 9.296 22.471 9.296h64.334c8.802 0 16.375 3.16 22.661 9.447 6.288 6.31 9.43 13.86 9.43 22.678 0 8.81-3.142 16.385-9.43 22.654z"/></svg>