<svg xmlns="http://www.w3.org/2000/svg" viewBox="0 0 512 512"><path d="M256-6.4c-141.385 0-256 114.615-256 256s114.615 256 256 256 256-114.615 256-256-114.615-256-256-256zm89.067 396.562c-19.192 16.539-59.182 19.626-71.627 19.626-14.163 0-22.516-1.825-33.381-5.514-10.886-3.731-20.16-9.031-27.845-15.815-7.676-6.877-12.994-14.163-15.969-21.871-2.965-7.697-4.456-18.899-4.456-33.585v-103.958h-39.059v-51.666c36.882 0 58.001-49 58.001-88.14h57.491v80.091h57.654v59.715h-57.654v73.753c0 18.592-.236 21.414 1.668 26.704 3.815 6.437 11.747 20.038 35.294 20.038 17.94 0 32.258-9.442 39.883-20.038v60.659z"/></svg>