<svg xmlns="http://www.w3.org/2000/svg" viewBox="0 0 512 512"><path d="M256-6.4c-141.385 0-256 114.615-256 256s114.615 256 256 256 256-114.615 256-256-114.615-256-256-256zm127.693 306.728c0 24.995-20.339 45.33-45.339 45.33h-4.171c-25.115 0-46.331-20.759-46.331-45.33v-50.083c0-7.852-6.077-14.239-13.548-14.239h-58.304c-9.357 0-14.252 5.571-14.252 11.073 0 7.335 6.714 13.877 14.661 14.284l9.048.479c24.801 1.284 44.338 19.224 43.55 42.452-.762 23.083-21.489 40.865-46.202 40.865h-95.178v-31.453h95.178c7.812 0 14.576-4.244 14.77-10.451.215-6.098-6.099-9.592-13.787-10.003l-9.016-.479c-24.519-1.265-44.469-21.764-44.469-45.694 0-23.652 19.917-42.18 45.343-42.18h58.314c25.005 0 45.348 20.343 45.348 45.347v50.083c0 7.392 6.952 13.877 14.877 13.877h4.171c7.656 0 13.884-6.226 13.884-13.877v-179.23l31.455.051v179.179z"/></svg>