<svg xmlns="http://www.w3.org/2000/svg" viewBox="0 0 512 512"><path d="M303.596 247.164c-5.167-3.403-11.422-6.276-18.743-8.649-7.336-2.361-15.505-4.529-24.496-6.469-7.185-1.691-12.351-2.963-15.45-3.846-3.095-.856-6.15-2.054-9.153-3.6-3.011-1.522-5.351-3.33-7.039-5.417-1.649-2.066-2.469-4.471-2.477-7.345.008-4.564 2.413-8.463 7.438-11.822 5.005-3.313 11.631-5.004 19.896-5.004 8.955-.024 15.387 1.554 19.28 4.577 4.003 3.079 7.457 7.39 10.322 12.914 2.276 3.951 4.384 6.796 6.385 8.584 2.05 1.837 5.012 2.708 8.79 2.708 4.188.02 7.774-1.493 10.581-4.452 2.81-2.95 4.246-6.316 4.246-10.029 0-3.99-1.122-8.091-3.334-12.284-2.219-4.177-5.721-8.16-10.5-11.934-4.803-3.785-10.783-6.796-17.983-9.084-7.217-2.268-15.74-3.414-25.587-3.414-12.322 0-23.082 1.719-32.226 5.149-9.156 3.435-16.187 8.351-21.047 14.792-4.863 6.416-7.288 13.786-7.288 22.031 0 8.648 2.292 15.949 6.909 21.821 4.609 5.812 10.811 10.424 18.621 13.786 7.781 3.358 17.41 6.28 28.904 8.79 8.565 1.801 15.409 3.519 20.494 5.134 5.077 1.59 9.161 3.89 12.325 6.892 3.124 2.963 4.657 6.781 4.657 11.583 0 6.014-2.84 10.986-8.741 15.07-5.876 4.052-13.544 6.111-23.056 6.111-6.929 0-12.475-1.017-16.643-3.026-4.221-2.01-7.475-4.594-9.779-7.668-2.329-3.124-4.512-7.031-6.531-11.704-1.682-4.035-3.728-7.096-6.178-9.194-2.466-2.108-5.493-3.172-9.024-3.172-4.298 0-7.947 1.356-10.784 4.051-2.804 2.664-4.245 5.957-4.245 9.735 0 6.401 2.329 12.955 6.921 19.663 4.589 6.699 10.541 12.058 17.875 16.062 10.344 5.603 23.444 8.371 39.272 8.371 13.198 0 24.625-2.034 34.303-6.118 9.654-4.052 17.031-9.718 22.068-16.959 5.037-7.215 7.563-15.385 7.563-24.464 0-7.538-1.454-13.94-4.367-19.188s-6.981-9.58-12.18-12.982zm-47.596-253.564c-141.385 0-256 114.615-256 256s114.615 256 256 256 256-114.615 256-256-114.615-256-256-256zm56.41 384.254c-13.844 0-26.759-3.924-37.719-10.695-6.047.953-12.254 1.445-18.557 1.445-65.637 0-118.862-53.209-118.862-118.863 0-6.323.517-12.487 1.448-18.548-6.768-10.97-10.69-23.88-10.69-37.726 0-39.68 32.156-71.837 71.837-71.837 13.846 0 26.774 3.915 37.714 10.691 6.049-.94 12.252-1.465 18.552-1.465 65.661 0 118.878 53.231 118.878 118.886 0 6.313-.5 12.502-1.453 18.549 6.781 10.96 10.695 23.875 10.695 37.719 0 39.671-32.165 71.844-71.844 71.844z"/></svg>