<svg xmlns="http://www.w3.org/2000/svg" viewBox="0 0 512 512"><path d="M256-6.4c-141.385 0-256 114.615-256 256s114.615 256 256 256 256-114.615 256-256-114.615-256-256-256zm25.508 327.119c-20.463 0-39.703-10.759-46.285-22.973 0 0-11.014 42.454-13.332 50.654-8.206 28.956-32.336 57.931-34.204 60.3-1.31 1.665-4.206 1.132-4.509-1.046-.518-3.692-6.671-40.229.567-70.031 3.638-14.973 24.374-100.423 24.374-100.423s-6.043-11.758-6.043-29.166c0-27.301 16.275-47.695 36.541-47.695 17.236 0 25.559 12.585 25.559 27.661 0 16.856-11.034 42.045-16.726 65.388-4.754 19.568 10.085 35.51 29.901 35.51 35.895 0 60.076-44.851 60.076-97.988 0-40.37-27.955-70.62-78.837-70.62-57.474 0-93.302 41.693-93.302 88.276 0 16.037 4.881 27.376 12.511 36.129 3.501 4.032 4 5.65 2.728 10.264-.929 3.396-2.993 11.566-3.874 14.802-1.261 4.669-5.144 6.335-9.488 4.613-26.458-10.512-38.802-38.716-38.802-70.411 0-52.337 45.394-115.119 135.43-115.119 72.351 0 119.955 50.911 119.955 105.569 0 72.294-41.325 126.306-102.241 126.306z"/></svg>