<svg xmlns="http://www.w3.org/2000/svg" viewBox="0 0 512 512"><path d="M256-6.4c-141.385 0-256 114.615-256 256s114.615 256 256 256 256-114.615 256-256-114.615-256-256-256zm150.793 254.116c-24.147 50.999-90.719 79.197-147.158 62.345 4.615 33.433-7.203 84.139-43.779 96.547-17.455 5.918-36.511 3.25-53.063-3.922-18.061-7.815-8.376-38.51-9.886-54.007 11.011 2.326 18.048 13.481 29.986 8.205 3.858-1.703 6.228-5.848 7.48-10.906 4.042-16.33 1.891-153.724 1.891-153.724 0-5.256.302-4.474 5.142-5.316 12.954-2.221 30.589-1.526 43.645-.507 3.716.301 7.407.657 11.109 1.113 4.686.582 4.143-.481 4.143 5.177v60.516c0 7.052 11.448 6.832 18.01 8.367 3.844.913 7.776 1.574 11.728 1.974 7.082.702 14.274.491 21.276-.752 29.894 0 48.803-38.906 42.259-65.151-14.917-50.607-76.608-66.075-125.812-54.219-52.842 12.759-95.085 69.981-55.225 116.165-11.928 10.172-22.206 22.298-36.124 30.142-3.37 1.906-6.901 3.551-10.558 4.844-2.051-2.127-3.957-4.363-5.728-6.721-3.651-4.794-6.721-9.99-9.284-15.408-11.471-24.284-13.292-52.647-8.502-78.668 7.82-42.346 35.808-73.778 77.003-90.103 68.612-27.154 167.012-16.065 215.505 41.76 25.883 30.865 33.135 65.954 15.942 102.246z"/></svg>