<svg xmlns="http://www.w3.org/2000/svg" viewBox="0 0 512 512"><path d="M256-6.4c-141.385 0-256 114.615-256 256s114.615 256 256 256 256-114.615 256-256-114.615-256-256-256zm-96.612 95.448c19.722 0 31.845 13.952 32.215 32.284 0 17.943-12.492 32.311-32.592 32.311h-.389c-19.308 0-31.842-14.368-31.842-32.311 0-18.332 12.897-32.284 32.609-32.284zm32.685 288.552h-64.073v-192h64.073v192zm223.927-.089h-63.77v-97.087c0-27.506-11.119-46.257-34.797-46.257-18.092 0-22.348 12.656-27.075 24.868-1.724 4.382-2.165 10.468-2.165 16.583v101.892h-64.193s.881-173.01 0-192.221h57.693v.31h6.469v19.407c9.562-12.087 25.015-24.527 52.495-24.527 43.069 0 75.344 29.25 75.344 92.077v104.954z"/></svg>