<svg xmlns="http://www.w3.org/2000/svg" viewBox="0 0 512 512"><path d="M256-6.4c-141.385 0-256 114.615-256 256s114.615 256 256 256 256-114.615 256-256-114.615-256-256-256zm96.323 350.828c-33.336-.137-51.106-16.563-63.45-45.488l-3.522-7.897-30.462-69.875c-10.084-24.742-35.139-41.451-63.415-41.451-38.244 0-69.274 31.24-69.274 69.781 0 38.524 31.03 69.774 69.274 69.774 26.683 0 49.898-15.19 61.465-37.462l12.325 28.594c-17.488 21.449-44.06 35.12-73.791 35.12-52.679 0-95.38-42.961-95.38-96.027 0-53.036 42.701-96.062 95.38-96.062 39.768 0 71.861 21.375 88.166 59.258 1.252 2.929 17.248 40.631 31.223 72.712 8.647 19.856 16.012 33.024 39.933 33.84 23.498.805 39.631-13.59 39.631-31.79 0-17.788-12.298-22.062-33.062-29.017-37.315-12.38-56.596-24.815-56.596-54.618 0-29.063 19.645-48.444 51.553-48.444 20.808 0 35.805 9.315 46.2 27.881l-20.394 10.496c-7.688-10.834-16.16-15.108-26.94-15.108-14.988 0-25.668 10.487-25.668 24.441 0 19.802 17.588 22.803 42.212 30.929 33.106 10.862 48.507 23.261 48.507 54.244 0 32.531-27.717 56.221-63.917 56.167z"/></svg>