<svg xmlns="http://www.w3.org/2000/svg" viewBox="0 0 512 512"><path d="M205.849 140.778c-20.751-.603-34.656 19.464-31.078 45.686 3.59 26.207 23.305 47.942 44.048 48.537 20.738.613 34.656-20.168 31.079-46.377-3.579-26.223-23.302-47.25-44.049-47.846zm3.119 152.113c-21.312 1.313-37.396 7.996-48.006 19.904-1.109 2.083-1.983 4.24-2.573 6.456-.084.301-.151.608-.226.911-.377 1.637-.606 3.305-.672 4.997l-.001.029-.014.726c.122 21.019 22.403 38.491 53.223 38.491 43.178 0 58.395-16.281 58.586-37.197-.012-2.676-.349-5.297-.974-7.841l-.032-.115v-.001c-2.688-9.942-10.606-15.99-21.918-23.49-6.101-1.285-20.95-3.882-37.392-2.87zm47.032-299.291c-141.385 0-256 114.615-256 256s114.615 256 256 256 256-114.615 256-256-114.615-256-256-256zm21.05 190.059c0 16.639-9.306 28.938-22.469 39.106-12.835 9.926-15.275 14.081-15.275 22.522 0 7.188 13.749 19.446 20.953 24.469 19.996 14.015 27.119 27.058 27.759 47.94l.026.906c.01.376.012.762.014 1.144l.012.848v.329c0 28.428-27.813 56.688-78.189 56.688-44.185 0-81.469-17.785-81.469-46.215l.011-.56-.011-.471c0-4.868 1.117-9.707 3.2-14.367 4.175-10.01 12.255-19.246 23.095-26.442 13.313-10.993 31.09-17.341 52.644-18.62 3.237-.192 6.403-.254 9.468-.231-4.248-5.072-7.249-11.022-7.249-17.978 0-5.214 1.68-10.363 4.033-14.817-2.403.169-4.846 0-7.379 0-36.284 0-60.609-25.992-60.609-57.632 0-30.971 33.581-58.594 69.252-58.594h79.564l-17.8 18.511h-25.23c16.727 0 25.645 23.66 25.645 43.464zm107.046 19.951v67.49h-18.01v-67.49h-70.745v-18.01h70.745v-63.941h18.01v63.941h70.743v18.01h-70.743z"/></svg>