<svg xmlns="http://www.w3.org/2000/svg" viewBox="0 0 512 512"><path d="M257.197 103.407c-10.982 0-22.797 5.462-29.553 13.868-7.165 8.831-9.277 20.157-9.277 31.086 0 28.134 16.46 74.767 52.752 74.767 10.551 0 21.963-5.038 28.724-11.751 9.699-9.678 10.56-23.104 10.56-30.679 0-30.237-18.166-77.29-53.207-77.29zm20.684 187.364c-3.797 0-26.589.831-44.332 6.736-9.278 3.358-36.298 13.416-36.298 43.256 0 29.822 29.137 51.238 74.296 51.238 40.533 0 62.09-19.322 62.09-45.351 0-21.416-13.933-32.784-46.037-55.473-3.39-.406-5.494-.406-9.719-.406zm-21.881-297.171c-141.385 0-256 114.615-256 256s114.615 256 256 256 256-114.615 256-256-114.615-256-256-256zm91.541 167.789c0 31.086-17.731 45.789-35.461 59.644-5.474 5.457-11.801 11.353-11.801 20.594 0 9.246 6.326 14.264 10.949 18.068l15.209 11.746c18.565 15.547 35.449 29.849 35.449 58.803 0 39.517-38.412 79.426-111.03 79.426-61.21 0-90.778-29.001-90.778-60.094 0-15.124 7.619-36.531 32.523-51.267 26.186-15.943 61.655-18.039 80.631-19.294-5.91-7.574-12.662-15.539-12.662-28.566 0-7.152 2.135-11.355 4.244-16.375-4.685.402-9.303.831-13.523.831-44.74 0-70.075-33.207-70.075-65.964 0-19.335 8.846-40.742 27.02-56.294 24.052-19.727 52.752-23.086 75.553-23.086h86.953l-26.985 15.109h-26.205c9.709 7.977 29.986 24.779 29.986 56.719z"/></svg>