<svg xmlns="http://www.w3.org/2000/svg" viewBox="0 0 512 512"><path d="M256-6.4c-141.385 0-256 114.615-256 256s114.615 256 256 256 256-114.615 256-256-114.615-256-256-256zm59.599 114.537l95.658 54.656-60.346 45.746-95.603-56.628 60.291-43.776zm-120.485-2.093l60.101 46.339-95.305 54.065-60.166-45.745 95.371-54.657zm162.454 237.939l-103.048 65.861-101.925-65.861v-30.536l41.395 23.892 60.53-43.621 59.657 43.621 43.391-24.532v31.177zm-43.832-33.663l-58.184-46.986-58.446 46.986-101.294-55.148 64.114-47.936 95.63 55.623 95.159-54.341 63.831 46.655-100.81 55.148z"/></svg>