<svg xmlns="http://www.w3.org/2000/svg" viewBox="0 0 512 512"><path d="M287.16 249.236h-31.925v31.5h31.925v-31.5zm-223.223 31.909h31.925v-31.5h-31.925v31.5zm319.298-.409h31.926v-31.5h-31.926v31.5zm-127.235-287.136c-141.385 0-256 114.615-256 256s114.615 256 256 256 256-114.615 256-256-114.615-256-256-256zm-128.632 319.392h-95.368v-95.857h63.862v-63.899h31.507v159.756zm63.437 0h-31.506v-95.847h31.506v95.847zm0-127.847h-31.506v-31.909h31.506v31.909zm127.861 192.51h-95.367v-32.51h63.861v-31.899h-63.862v-95.857h95.367v160.266zm32.633 0v-32.51h63.861v-31.899h-63.861v-95.857h95.367v160.266h-95.367z"/></svg>