<svg xmlns="http://www.w3.org/2000/svg" viewBox="0 0 512 512"><path d="M144.923 298.251l49.041-14.877-21.952-50.585c-41.274 30.208-27.089 65.462-27.089 65.462zm111.077-304.651c-141.385 0-256 114.615-256 256s114.615 256 256 256 256-114.615 256-256-114.615-256-256-256zm16.495 306.16l-29.939-68.739c16.417-3.09 28.712-2.233 42.239.591l10.308 20.988 49.947-15.177s-60.604-48.046-133.197-24.549l40.45 92.476-147.198 47.693s-42.754-105.782 53.719-150.634l-18.643-42.955 45.744-5.855 15.428 35.289c.942-.171 1.752-.43 2.691-.593 159.003-30.482 212.293 63.79 212.293 63.79l-143.842 47.674z"/></svg>