<svg xmlns="http://www.w3.org/2000/svg" viewBox="0 0 512 512"><path d="M215.328 217.4h45.02c8.584 0 15.556-7.038 15.556-15.483 0-8.478-6.973-15.451-15.557-15.451h-45.019c-8.595 0-15.536 6.973-15.536 15.451 0 8.445 6.941 15.483 15.536 15.483zm86.436 65.2h-91.462c-8.595 0-15.536 6.918-15.536 15.394 0 8.375 6.941 15.411 15.536 15.411h91.462c8.543 0 15.468-7.036 15.468-15.411 0-8.476-6.925-15.394-15.468-15.394zm-45.764-289c-141.385 0-256 114.615-256 256s114.615 256 256 256 256-114.615 256-256-114.615-256-256-256zm127.771 303.094c-.25 44.419-36.524 80.799-81.186 80.799h-93.279c-44.671 0-81.183-36.38-81.183-80.799v-94.423c0-44.493 36.513-80.929 81.183-80.929h56.76c20.969 2.476 51.483 20.345 62.719 44.131 3.099 6.704 4.717 7.74 7.281 27.496 1.385 10.201 2.096 17.732 6.665 21.898 6.423 5.849 30.303 1.893 35.012 5.591l3.632 2.799 2.144 4.482.752 3.559-.502 65.398z"/></svg>