<svg xmlns="http://www.w3.org/2000/svg" viewBox="0 0 512 512"><path d="M366.741 239.214c-5.613-4.405-12.644-6.619-21.022-6.619-9.118 0-16.163 2.363-21.159 7.006-5.048 4.644-8.183 10.956-9.463 18.933h61.131c-.662-8.492-3.813-14.928-9.488-19.32zm-174.557-53.614h-64.184v39.823h64.59c14.975 0 19.155-11.139 19.155-20.343 0-7.771-4.989-19.481-19.56-19.481zm0 88.177h-64.184v39.823h64.59c14.975 0 19.155-11.139 19.155-20.343 0-7.769-4.989-19.481-19.56-19.481zm63.816-280.177c-141.385 0-256 114.615-256 256s114.615 256 256 256 256-114.615 256-256-114.615-256-256-256zm-13.185 328.276c-9.025 14.712-24.479 19.401-32.042 21.195-7.583 1.794-27.294 2.699-36.139 2.699h-78.597v-191.613h95.787c21.248.396 36.309 3.936 45.202 17.76 5.331 8.476 7.983 18.655 7.983 30.483 0 12.2-2.683 21.97-8.071 29.383-2.999 4.165-7.428 7.94-13.285 11.359 8.88 3.724 15.614 9.575 20.12 17.637 4.541 8.037 6.803 17.789 6.803 29.238 0 11.848-2.554 22.463-7.763 31.856zm63.118-156.196h79.563v19.92h-79.563v-19.92zm44.12 150.473c20.342 0 25.897-9.834 28.07-13.674h37.695c-.99 7.829-5.522 15.774-13.671 23.849-12.644 12.836-30.367 19.272-53.131 19.272-18.792 0-37.333-5.43-51.718-16.25-14.339-10.848-21.531-28.454-21.531-52.87 0-22.908 6.463-40.425 19.435-52.622 13.014-12.227 29.813-18.303 50.519-18.303 12.274 0 23.34 2.046 33.217 6.164 9.835 4.136 17.969 10.629 24.376 19.549 5.797 7.865 9.522 16.94 11.255 27.304.966 6.033 1.397 15.404 1.215 26.829h-99.998c0 18.68 12.284 30.751 34.267 30.751z"/></svg>