<svg xmlns="http://www.w3.org/2000/svg" viewBox="0 0 512 512"><path d="M256-6.4c-141.385 0-256 114.615-256 256s114.615 256 256 256 256-114.615 256-256-114.615-256-256-256zm29.099 381.465h-25.197c-55.608 0-100.826-45.243-100.826-100.817v-126.017c0-13.937 11.281-25.207 25.207-25.207 13.91 0 25.206 11.269 25.206 25.207v126.017c0 27.782 22.614 50.406 50.413 50.406h25.197c27.79 0 50.412-19.782 50.412-44.099 0-24.859-13.567-44.107-25.204-44.107h-42.904c-13.941 0-25.207-11.306-25.207-25.207 0-13.926 11.266-25.206 25.207-25.206h42.904c41.695 0 75.617 42.381 75.617 94.519 0 52.108-45.244 94.512-100.825 94.512z"/></svg>