<svg xmlns="http://www.w3.org/2000/svg" viewBox="0 0 512 512"><path d="M256-6.4c-141.385 0-256 114.615-256 256s114.615 256 256 256 256-114.615 256-256-114.615-256-256-256zm11.916 104.603c12.156-12.002 32.705-20.914 49.664-21.512 2.156 16.654-5.81 33.344-17.57 45.365-11.781 12.002-31.067 21.349-50.008 20.095-2.564-16.305 6.978-33.293 17.913-43.948zm96.447 254.532c-14.069 19.19-28.616 38.303-51.594 38.678-22.605.401-29.858-19.106-55.654-19.106-25.819 0-33.916 18.731-55.259 19.507-22.176.776-39.042-20.742-53.222-39.858-28.972-39.096-51.087-110.587-21.343-158.805 14.719-23.963 41.118-39.107 69.712-39.514 21.781-.369 42.36 13.714 55.655 13.714 13.336 0 38.31-16.906 64.565-14.433 10.996.426 41.841 4.138 61.647 31.207-1.555.967-36.815 20.108-36.387 60.02.418 47.689 44.74 63.526 45.248 63.734-.406 1.135-7.091 22.616-23.366 44.856z"/></svg>