<svg xmlns="http://www.w3.org/2000/svg" viewBox="0 0 512 512"><path d="M271.683 195.481c-8.424 0-16.84.607-24.119 2.448-13.477 4.33-24.147 13.559-24.147 33.25 0 15.4 7.298 25.864 19.649 25.864 1.7 0 3.363-.628 4.498-.628 7.28-1.843 13.996-7.408 17.968-15.989 6.688-12.303 6.151-23.374 6.151-37.538v-7.407zm-15.683-201.881c-141.385 0-256 114.615-256 256s114.615 256 256 256 256-114.615 256-256-114.615-256-256-256zm11.769 142.788c-3.955-6.152-11.243-9.249-17.968-9.249h-2.237c-11.214 1.255-21.32 8.014-24.147 21.552-.554 3.096-2.218 6.152-5.589 6.78l-31.417-4.311c-2.236-.627-5.617-2.469-4.508-7.386 6.744-38.814 37.043-52.333 65.661-54.174h6.726c15.733 0 35.925 4.897 48.822 17.848 15.685 16.008 14.024 37.541 14.024 60.954v55.409c0 16.613 6.17 24 12.341 32.601 1.663 3.096 2.236 6.779-.572 9.249-6.171 6.171-17.94 17.221-24.683 23.433-2.274 1.822-5.044 1.822-7.853.567-10.642-9.835-12.36-14.166-18.512-23.375-10.66 12.284-19.639 19.044-30.291 22.808-6.734 1.822-14.023 3.035-23.011 3.035-26.938 0-48.249-18.474-48.249-54.782 0-28.939 14.032-48.629 34.798-57.878 10.643-5.525 23.538-8.014 36.461-9.835 8.417-1.234 16.823-1.862 24.12-2.489v-4.917c0-8.601.537-18.456-3.915-25.842zm108.046 198.01c-4.091 3.44-8.465 6.522-12.82 9.334-32.82 21.833-75.293 33.264-112.154 33.264-59.386 0-112.493-24.247-152.8-64.81-3.427-3.106-.606-7.613 3.437-5.202 43.441 28.063 97.154 45.055 152.781 45.055 35.014 0 72.754-7.238 108.736-22.885 2.479-1.006 5.302-2.453 7.783-3.483 5.624-2.726 10.642 4.195 5.036 8.726zm40.367-27.936c0 26.486-10.233 52.478-27.966 62.856-3.917 3.113-7.755 1.329-6.111-3.06 5.64-14.098 13.567-44.229 7.536-51.677-4.308-5.719-16.026-7.695-31.092-6.417-6.894.983-13.315 2.244-18.041 3.12-4.308.452-5.745-4.399-1.437-7.485 5.588-3.937 11.647-6.996 18.541-9.177 21.411-7.256 52.979-3.086 56.897 1.728.81 1.305 1.671 3.912 1.671 7.448v2.661z"/></svg>