<svg xmlns="http://www.w3.org/2000/svg" viewBox="0 0 512 512"><path d="M256-6.4c-141.385 0-256 114.615-256 256s114.615 256 256 256 256-114.615 256-256-114.615-256-256-256zm42.91 96.222c24.865 0 45.976 20.35 45.976 45.453 0 25.098-21.111 45.443-45.976 45.443-24.885 0-45.691-20.344-45.691-45.443 0-25.103 20.805-45.453 45.691-45.453zm76.307 285.034c-18.176 14.719-20.535 16.568-41.889 34.522-20.593-39.603-45.495-61.422-79.57-70.166-20.002 25.767-52.566 55.874-103.478 69.775-11.351-24.019-14.441-30.822-22.102-48.942 40.719-9.421 55.559-22.32 75.499-60.492-1.431-46.359 10.481-91.927 40.202-110.168 15.453 5.07 41.017 20.317 48.282 22.617-1.022 4.701 2.361 10.054 14.831 12.786 9.478 2.076 31.741 5.338 53.224-14.153 13.177 20.253 23.603 39.835 23.603 39.835s-41.127 40.85-89.818 28.027c-.317 6.346-.576 8.372-.874 16.457 33.137 16.113 67.927 45.699 82.088 79.902z"/></svg>