<svg xmlns="http://www.w3.org/2000/svg" viewBox="0 0 512 512"><path d="M356.631 205.847c-7.008 0-13.74 1.495-20.224 4.432-6.478 2.938-12.591 6.663-18.378 11.169-5.783 4.505-11.291 9.453-16.535 14.821-5.251 5.369-9.986 10.317-14.185 14.823 4.563 5.2 9.464 10.306 14.707 15.327 5.254 5.032 10.846 9.539 16.802 13.505 5.955 4.002 12.167 7.214 18.642 9.634 6.486 2.43 13.399 3.642 20.746 3.642 12.952 0 22.917-4.159 29.933-12.474 6.998-8.317 10.507-18.55 10.507-30.688 0-12.116-3.774-22.517-11.293-31.181-7.527-8.662-17.769-13.011-30.721-13.011zm-147.045 30.422c-5.594-5.368-11.464-10.316-17.589-14.821s-12.516-8.231-19.161-11.169c-6.653-2.937-13.309-4.432-19.954-4.432-12.256 0-21.976 4.612-29.148 13.79-7.177 9.179-10.773 19.495-10.773 30.929 0 12.485 3.684 22.695 11.038 30.675 7.352 7.979 17.496 11.959 30.45 11.959 6.64 0 13.297-1.295 19.959-3.906 6.657-2.601 12.952-5.896 18.907-9.885 5.944-3.969 11.548-8.474 16.801-13.495 5.254-5.033 9.975-9.98 14.187-14.823-4.212-4.505-9.125-9.452-14.719-14.822zm46.414-242.669c-141.385 0-256 114.615-256 256s114.615 256 256 256 256-114.615 256-256-114.615-256-256-256zm167.846 323.768c-7.708 8.834-17.249 15.771-28.626 20.792-11.378 5.032-24.065 7.537-38.07 7.537-10.858 0-21.001-1.642-30.455-4.926-9.454-3.296-18.302-7.633-26.522-13.001-8.229-5.38-16.014-11.611-23.361-18.718-7.361-7.103-14.356-14.464-21.012-22.085-7.348 7.621-14.528 14.981-21.545 22.085-6.986 7.108-14.42 13.338-22.31 18.718-7.869 5.368-16.439 9.705-25.724 13.001-9.282 3.284-19.682 4.926-31.248 4.926-14.35 0-27.132-2.505-38.329-7.537-11.203-5.022-20.832-11.769-28.886-20.274-8.056-8.496-14.181-18.635-18.371-30.404-4.215-11.79-6.304-24.433-6.304-37.949s1.999-26.087 6.04-37.685c4.013-11.623 9.879-21.666 17.582-30.172 7.699-8.485 17.158-15.242 28.361-20.263 11.198-5.022 23.803-7.548 37.815-7.548 11.548 0 22.144 1.747 31.768 5.2 9.623 3.473 18.556 8.064 26.777 13.779 8.22 5.716 15.939 12.306 23.107 19.76 7.167 7.452 14.261 15.338 21.268 23.654 6.656-7.968 13.577-15.768 20.735-23.401 7.169-7.621 14.887-14.296 23.118-20.012 8.221-5.715 17.154-10.306 26.776-13.779 9.623-3.453 20.044-5.2 31.252-5.2 13.997 0 26.596 2.431 37.805 7.284 11.209 4.863 20.651 11.527 28.36 20.012 7.688 8.505 13.654 18.453 17.866 29.885 4.188 11.453 6.295 23.917 6.295 37.433 0 13.527-2.106 26.169-6.295 37.95-4.213 11.789-10.178 22.096-17.866 30.938z"/></svg>