<svg xmlns="http://www.w3.org/2000/svg" viewBox="0 0 512 512"><path d="M393.642 216.634l-.009-.038c-1.879-4.094-4.823-7.184-8.385-9.291-3.552-2.119-7.703-3.199-11.873-3.199-3.776 0-7.534.894-10.863 2.669 10.594 9.731 19.882 21.416 25.894 35.182 1.924-1.779 3.579-3.956 4.813-6.384 1.603-3.166 2.514-6.726 2.514-10.242 0-2.957-.644-5.911-2.058-8.67l-.035-.028zm-243.765-9.721c-3.449-1.699-7.019-2.916-10.541-2.897-.594 0-1.19.043-1.78.109h-.085l-.085.01c-5.059.147-10.174 2.485-14.003 6.228-3.838 3.729-6.38 8.77-6.573 14.317v.056l-.009.037c-.04.454-.049.904-.049 1.326 0 3.427.993 6.739 2.68 9.754 1.243 2.233 2.877 4.288 4.719 6.059 5.928-13.702 15.161-25.326 25.724-34.999zm157.877-7.232l-.144-.056c-4.169-1.354-8.375-2.552-12.616-3.573-12.688-3.048-25.688-4.582-38.68-4.582-17.448 0-34.882 2.74-51.593 8.183-21.702 7.288-42.631 20.109-56.048 39.958v.028c-6.809 9.92-10.786 22.226-10.786 34.492 0 4.506.537 9.021 1.66 13.423h.018c2.438 9.863 7.216 18.656 13.403 26.322 6.174 7.676 13.761 14.226 21.734 19.583 1.762 1.135 3.534 2.253 5.351 3.332 23.166 13.677 49.844 19.658 76.314 19.658 4.483 0 8.993-.151 13.44-.491 26.673-2.327 53.453-10.666 75.097-27.676l.009-.019c6.889-5.377 13.279-11.918 18.324-19.329 5.073-7.421 8.779-15.713 10.433-24.742v-.019h.01c.678-3.38 1.003-6.787 1.003-10.223 0-12.201-4.162-24.488-10.909-34.36-13.447-19.802-34.313-32.707-56.019-39.91zm-132.076 56.815c0-11.067 8.971-20.037 20.037-20.037s20.037 8.97 20.037 20.037c0 11.067-8.971 20.038-20.037 20.038s-20.037-8.971-20.037-20.038zm140.68 57.84v.017c-.474 1.724-1.303 3.18-2.358 4.367-1.037 1.188-2.251 2.108-3.493 2.885-2.509 1.563-5.18 2.635-7.19 3.813l-.072.045-.081.053c-15.219 7.146-32.297 11.085-49.286 11.085-18.846.017-37.613-4.851-53.552-15.603-1.621-.867-2.858-2.19-3.667-3.663-.848-1.581-1.26-3.313-1.26-5.055 0-1.928.5-3.849 1.518-5.519.983-1.608 2.501-2.966 4.445-3.698h-.01l.196-.08c1.228-.553 2.488-.831 3.685-.831 1.443 0 2.786.366 3.997.884 1.232.5 2.345 1.19 3.407 1.877 2.09 1.385 4.006 2.849 5.685 3.537l.053.017.058.035c11.152 5.476 23.455 8.093 35.84 8.093 16.51 0 33.132-4.627 47.254-13.077 1.501-.981 3.18-1.438 4.797-1.438 2.001 0 3.904.642 5.538 1.697 1.616 1.063 3.001 2.555 3.858 4.349.58 1.206.928 2.537.928 3.966 0 .741-.098 1.483-.295 2.242zm-.275-37.802c-11.067 0-20.037-8.971-20.037-20.038s8.971-20.037 20.037-20.037 20.038 8.97 20.038 20.037c0 11.067-8.971 20.038-20.038 20.038zm-60.083-282.934c-141.385 0-256 114.615-256 256s114.615 256 256 256 256-114.615 256-256-114.615-256-256-256zm153.783 254.595c-3.892 6.294-9.251 11.547-15.427 15.126.404 3.274.627 6.568.627 9.863 0 17.738-5.781 35.163-15.856 49.134h-.017c-18.603 26.172-47.163 41.611-76.01 49.401h-.009l-.019.019c-15.389 3.947-31.246 5.963-47.101 5.963-23.639 0-47.266-4.514-69.299-13.848l-.01-.019h-.018c-22.848-9.967-44.622-25.802-57.976-49.012-7.181-12.381-11.132-26.899-11.132-41.495 0-3.322.215-6.616.631-9.89-6.017-3.568-11.229-8.653-15.085-14.729-4.134-6.522-6.751-14.142-7.087-22.215v-.128c.009-11.302 4.648-22.002 11.86-29.892 7.207-7.884 17.053-13.043 27.617-13.043h.447c1.101-.08 2.224-.128 3.338-.128 5.305 0 10.625.909 15.68 2.963l.027.019.027.01c4.304 1.912 8.59 4.236 12.411 7.444 1.244-.686 2.586-1.462 4.107-2.068 23.138-14.5 50.039-20.091 76.256-21.7.228-13.743 1.826-28.125 8.16-40.709 5.27-10.459 14.424-18.6 25.331-21.415l.036-.019.063-.014c4.151-.852 8.329-1.245 12.5-1.245 6.923 0 14.046-.383 20.916.392 6.443-10.407 17.962-17.358 31.076-17.358 20.142 0 36.529 16.387 36.529 36.53s-16.387 36.53-36.529 36.53c-19.776 0-35.921-15.801-36.502-35.44-5.147-.587-10.401-.451-15.438-.445-1.305 0-2.603.07-3.901.208h-.01c-6.736.687-12.992 5.178-16.024 11.633v.029c-4.608 9.479-5.529 20.563-5.674 31.567 25.815 1.788 51.781 8.329 74.543 22.181h.027l.331.194c.43.28 1.226.739 1.951 1.151 1.563-1.344 3.229-2.726 5.108-3.913 6.907-4.865 15.077-7.28 23.254-7.28 3.642 0 7.276.492 10.801 1.444h.019l.134.037.142.029v.01c8.33 2.239 15.865 7.307 21.537 14.127 5.672 6.838 9.494 15.49 10.236 24.87v.057c.045.733.063 1.471.063 2.205 0 8.244-2.505 16.162-6.666 22.873zm-63.932-106.199c8.749 0 15.866-7.118 15.866-15.866s-7.117-15.866-15.866-15.866c-8.748 0-15.865 7.117-15.865 15.866s7.117 15.866 15.865 15.866z"/></svg>