<svg xmlns="http://www.w3.org/2000/svg" viewBox="0 0 512 512"><path d="M255.962-6.389c-141.136 0-255.962 114.825-255.962 255.962 0 141.144 114.825 255.963 255.962 255.963 141.144 0 255.962-114.818 255.962-255.963 0-141.136-114.818-255.962-255.963-255.962zm-226.963 258.671c0-32.873 7.073-64.069 19.639-92.288l108.159 296.342c-75.624-36.711-127.799-114.313-127.799-204.054zm226.752 226.759c-22.257 0-43.755-3.241-64.067-9.204l68.06-197.685 69.695 190.947c.435 1.108.997 2.12 1.586 3.074-23.533 8.308-48.889 12.867-75.273 12.867zm31.225-333.052c13.68-.737 25.961-2.168 25.961-2.168 12.208-1.445 10.762-19.38-1.433-18.706 0 0-36.753 2.911-60.453 2.911-22.278 0-59.704-2.911-59.704-2.911-12.222-.674-13.639 17.997-1.446 18.706 0 0 11.584 1.431 23.807 2.168l35.285 96.792-49.593 148.779-82.591-245.571c13.668-.737 25.974-2.168 25.974-2.168 12.23-1.445 10.735-19.38-1.452-18.706 0 0-36.717 2.912-60.454 2.912-4.252 0-9.248-.119-14.58-.267 40.555-61.569 110.258-102.23 189.452-102.23 59.038 0 112.784 22.579 153.1 59.563-.969-.084-1.938-.197-2.906-.197-22.326 0-38.085 19.393-38.085 40.219 0 18.706 10.764 34.514 22.256 53.185 8.601 15.093 18.707 34.5 18.707 62.546 0 19.408-5.769 43.84-17.262 73.308l-22.62 75.539-81.967-243.704zm167.721-2.498c17.695 32.311 27.772 69.358 27.772 108.791 0 83.665-45.328 156.693-112.713 195.97l69.265-200.229c12.912-32.347 17.248-58.216 17.248-81.21 0-8.349-.548-16.088-1.572-23.322z"/></svg>