<svg xmlns="http://www.w3.org/2000/svg" viewBox="0 0 512 512"><path d="M68.468 368.828c-37.538 0-67.968 30.43-67.968 67.968s30.43 67.968 67.968 67.968 67.968-30.43 67.968-67.968-30.43-67.968-67.968-67.968zm-67.968-375.564l-.348.002v96l.348-.002c56.135 0 110.539 10.972 161.702 32.612 49.466 20.922 93.911 50.895 132.101 89.085s68.162 82.635 89.084 132.101c21.641 51.163 32.613 105.567 32.613 161.702h96c0-282.494-229.006-511.5-511.5-511.5zm0 175.684l-.348.004.001 96 .347-.004c64.057 0 124.28 24.945 169.575 70.24 45.296 45.296 70.241 105.519 70.241 169.576h96c.001-185.467-150.35-335.816-335.816-335.816z"/></svg>