<svg xmlns="http://www.w3.org/2000/svg" viewBox="0 0 512 512"><path d="M146.112 194.063h31.18l.036-107.855 36.879-92.4h-34.136l-19.588 68.63-19.881-68.82h-33.762l39.219 92.627zm257.78 157.717c0-7.255-5.968-13.18-13.282-13.18h-1.769c-7.285 0-13.253 5.925-13.253 13.18l-.118 16.326h28.103l.32-16.326zm-192.18-214.16c0 12.324.594 21.577 1.851 27.736 1.236 6.151 3.284 11.439 6.202 15.755 2.897 4.323 6.948 7.599 12.2 9.75 5.237 2.187 11.578 3.218 19.119 3.218 6.744 0 12.727-1.236 17.95-3.76 5.164-2.508 9.42-6.443 12.726-11.695 3.335-5.325 5.514-10.986 6.51-17.094 1.009-6.093 1.536-15.688 1.536-28.738v-35.562c0-10.306-.557-17.956-1.654-23.025-1.082-5.002-3.115-9.889-6.113-14.643-2.956-4.74-7.198-8.587-12.698-11.534-5.471-2.948-12.04-4.448-19.682-4.448-9.099 0-16.574 2.312-22.418 6.92-5.865 4.587-9.918 10.679-12.156 18.25-2.231 7.599-3.373 18.138-3.373 31.64v37.23zm25.9-56.232c0-7.951 5.932-14.453 13.151-14.453 7.227 0 13.107 6.502 13.107 14.453v74.861c0 7.965-5.88 14.475-13.107 14.475-7.219 0-13.151-6.51-13.151-14.475v-74.861zm60.562 251.726c-7.139 0-12.976 4.798-12.976 10.664v79.374c0 5.866 5.836 10.635 12.976 10.635 7.137 0 12.99-4.769 12.99-10.635v-79.374c0-5.866-5.851-10.664-12.99-10.664zm13.75-153.306c1.536 3.73 3.921 6.743 7.139 9.018 3.188 2.238 7.269 3.372 12.142 3.372 4.286 0 8.06-1.156 11.366-3.54 3.291-2.377 6.072-5.917 8.323-10.649l-.557 11.644h33.06v-140.623h-26.039v109.443c0 5.931-4.871 10.773-10.839 10.773-5.94 0-10.825-4.842-10.825-10.773v-109.443h-27.193v94.844c0 12.083.219 20.135.584 24.224.381 4.053 1.317 7.951 2.838 11.711zm87.595 43.066h-287.031c-38.406 0-69.814 29.652-69.814 65.857v150.994c0 36.221 31.407 65.858 69.814 65.858h287.031c38.385 0 69.808-29.637 69.808-65.858v-150.994c0-36.205-31.422-65.857-69.808-65.857zm-297.577 233.236v-159.494l-29.609-.087v-23.172l94.857.161v23.551h-35.591l.023 159.041h-29.68zm136.35-.029l-23.829-.031.066-17.553c-6.407 13.751-31.977 24.824-45.333 15.185-7.154-5.135-6.898-14.13-7.63-21.856-.387-4.373-.065-13.999-.101-26.902l-.088-84.17h29.512l.117 85.531c0 11.659-.629 18.461.081 20.714 4.243 12.858 15.09 5.881 17.496-.717.775-2.164.029-8.308.029-20.596v-84.932h29.681v135.327zm44.215-12.801l-2.223 11.294-24.372.365.147-181.406 29.636-.06-.103 52.575c27.356-21.81 47.512-5.661 47.542 21.269l.06 70.714c.043 34.244-19.544 53.817-50.688 25.248zm68.578-34.537v-42.129c0-12.656 1.242-22.617 3.774-29.901 2.5-7.285 6.817-12.713 12.447-16.764 17.978-12.96 53.526-8.938 57.169 16.399 1.156 8.017 1.536 22.015 1.536 36.031v19.163h-50.952v32.635c0 6.656 5.486 12.053 12.173 12.053h4.358c6.657 0 12.144-5.397 12.144-12.053v-12.404c.014-1.098.043-2.106.058-2.999l22.25-.117c10.151 60.269-74.956 70.173-74.956.088z"/></svg>