<svg xmlns="http://www.w3.org/2000/svg" viewBox="0 0 512 512"><path d="M211.871 211.458c7.339 11.87 20.685 20.165 29.751 18.474 9.025-1.724 16.314-14.544 16.218-28.493l-1.168-177.687c-.146-13.94-10.906-25.376-31.502-29.322-20.588-3.963-70.611 1.851-96.632 22.17-32.484 25.375-17.816 30.618-10.533 42.512l93.866 152.344zm33.628 132.669c-9.48-.87-24.521 7.167-33.497 17.815l-65.924 78.517c-8.976 10.663-4.517 35.726 8.571 40.461l68.932 23.789c13.119 4.737 36.238-9.294 36.496-23.242l2.142-110.394c.26-13.996-7.249-26.076-16.72-26.945zm-27.343-51.621c1.281-11.211-8.296-24.514-21.278-29.62l-99.826-39.315c-12.99-5.106-27.983 6.99-31.94 26.785 0 0-2.376 68.937 0 83.205 2.408 14.272 19.088 25.563 32.256 20.907l94.499-33.212c13.168-4.637 24.966-17.54 26.288-28.75zm184.473-132.46c-13.978-12.079-29.969-10.565-38.986.041l-53.274 63.033c-9.017 10.597-11.433 27.429-5.417 37.302 6.017 9.906 22.055 15.495 35.678 12.468l92.131-16.978c16.624-3.961 17.224-24.465 13.445-36.448-3.731-11.999-29.582-47.369-43.577-59.417zm23.434 192.747l-82.661-23.611c-13.396-3.817-28.606-3.464-33.748.869-5.156 4.284-3.876 17.813 2.871 30.038l52.156 94.82c6.746 12.209 33.716 10.115 41.159-1.74 0 0 31.43-46.063 37.219-63.331 5.79-17.313-3.599-33.228-16.995-37.045z"/></svg>