<svg xmlns="http://www.w3.org/2000/svg" viewBox="0 0 512 512"><path d="M468.57 145.444c.11-.042.339-.071.463-.071l14.287-21.709-.723-.043 1.488-2.357h-200.056l7.702 32.107h54.596l-101.094 99.846c-18.744-27.237-54.874-84.736-85.532-131.711h64.314v-24.384s.19-5.67 0-5.67v-2.3h-223.958v33.135h67.631c26.256 21.595 123.344 166.577 123.344 166.577l-.756 88.399h-62.219v29.017l-.754 4.532c16.56.501 64.293-1.029 91.291-1.549h114.483c8.591.094 14.837.231 17.307.433l.022-.433h1.758v-32h-78.269c-1.442-22.201-2.685-82.156-1.212-89.096 7.539-22.839 128.858-127.555 141.387-131.112 2.863-.599 7.063-2.57 11.833-3.685h36.903l5.767-7.927zm-20.132 203.844l29.339 2.853 34.123-159.07c-5.699-.235-57.529-6.124-64.259-7.721l.797 163.938zm-5.761 23.532l.165 35.377 15.553 1.416 16.755 1.299 4.907-34.678-17.668-.899-19.712-2.514z"/></svg>