<svg xmlns="http://www.w3.org/2000/svg" viewBox="0 0 512 512"><path d="M437.099 25.384c-71.18-2.343-119.324 37.946-144.526 120.952 12.974-5.404 25.591-8.123 37.903-8.123 25.943 0 37.442 14.724 34.378 44.205-1.524 17.871-13.007 43.845-34.378 77.962-21.474 34.149-37.512 51.198-48.163 51.198-13.82 0-26.411-26.387-37.901-79.089-3.861-15.545-10.754-55.065-20.636-118.713-9.246-58.946-33.701-86.478-73.456-82.596-16.816 1.557-42.024 17.101-75.648 46.531-24.538 22.504-49.391 45.009-74.65 67.495l24.073 31.397c22.971-16.314 36.41-24.402 40.145-24.402 17.603 0 34.065 27.891 49.374 83.707 13.726 51.234 27.553 102.4 41.347 153.599 20.55 55.849 45.86 83.757 75.639 83.757 48.172 0 107.156-45.726 176.709-137.247 67.299-87.625 102.033-156.677 104.37-207.14 3.082-67.428-21.762-101.971-74.581-103.493z"/></svg>