<svg xmlns="http://www.w3.org/2000/svg" viewBox="0 0 512 512"><path d="M384.149 377.627h-128.85c-17.554 0-32.478-6.178-44.77-18.522-12.325-12.341-18.421-27.281-18.421-44.935v-32.969h164.53c16.24 0 30.23-5.846 41.839-17.423 11.624-11.692 17.454-32.665 17.454-48.888 0-16.322-5.83-35.28-17.488-46.922-11.64-11.642-25.665-17.438-41.971-17.438h-164.363v-92.905c0-17.589-6.262-32.629-18.714-45.17-12.399-12.542-27.381-18.854-44.795-18.854-17.904 0-33.144 6.196-45.544 18.488-12.433 12.325-18.646 27.514-18.646 45.603v256.545c0 52.764 18.646 97.819 55.971 135.209 37.341 37.509 82.353 56.179 135.001 56.179h128.814c17.524 0 32.578-6.296 45.103-18.853 12.526-12.491 18.788-27.582 18.788-45.137 0-17.572-6.262-32.611-18.788-45.187-12.524-12.524-27.615-18.822-45.151-18.822z"/></svg>