<svg xmlns="http://www.w3.org/2000/svg" viewBox="0 0 512 512"><path d="M290.702 377.264c-3.176-8.445-2.783-12.952-2.783-42.639v-117.774h96.137v-95.357h-96.137v-127.894h-95.863c0 62.5-35.215 140.748-96.716 140.748v82.503h65.13v166.005c0 23.451 2.487 41.341 7.43 53.632 4.959 12.306 13.829 23.944 26.627 34.925 12.816 10.835 28.281 19.297 46.431 25.253 18.118 5.892 32.046 8.805 55.663 8.805 20.751 0 87.435-4.93 119.435-31.34v-96.867c-12.714 16.924-36.589 32-66.502 32-39.264 0-52.494-21.721-58.853-32z"/></svg>