<svg xmlns="http://www.w3.org/2000/svg" viewBox="0 0 512 512"><path d="M455.156 25.217v360.401c0 16.971-13.793 30.748-30.762 30.748h-14.34c-16.955 0-32.75-13.777-32.75-30.748v-105.149c0-48.348-39.332-87.681-87.68-87.681h-116.61c-48.34 0-87.672 34.307-87.672 81.349 0 46.247 38.637 85.927 86.084 88.375l18.029.96c16.979.909 30.897 13.264 30.409 27.091-.439 13.995-15.374 25.803-32.535 25.803h-187.327v56.899h187.327c47.802 0 87.921-36.272 89.392-80.819 1.522-44.82-36.29-83.312-84.248-85.792l-18.088-.959c-17.4-.894-32.162-15.333-32.162-31.558 0-15.68 14.539-25.145 31.5-25.145h116.593c16.973 0 30.089 14.507 30.089 31.477v105.149c0 48.346 41.3 87.647 89.649 87.647h14.34c48.315 0 87.664-39.3 87.664-87.647v-360.308l-56.901-.093z"/></svg>