<svg xmlns="http://www.w3.org/2000/svg" viewBox="0 0 512 512"><path d="M127.031 16.108c-65.85 26.096-110.589 76.34-123.088 144.03-7.657 41.593-4.747 86.93 13.59 125.75 4.097 8.658 9.004 16.965 14.841 24.629 2.83 3.769 5.877 7.342 9.156 10.743 5.845-2.07 11.489-4.699 16.877-7.745 22.249-12.54 38.678-31.924 57.744-48.183-63.717-73.823 3.808-165.292 88.275-185.687 78.653-18.953 185.257 13.766 209.102 94.659 9.863 33.52 3.399 70.568-23.926 94.829-14.286 12.698-32.454 21.101-51.617 24.5-11.192 1.988-22.69 2.324-34.01 1.201-6.317-.639-12.603-1.697-18.746-3.157-10.488-2.454-28.787-2.103-28.787-13.374v-132.7c0-9.044.866-7.344-6.624-8.275-5.916-.728-11.817-1.299-17.757-1.779-20.87-1.628-42.663-2.742-63.372.81-7.738 1.346-8.219.096-8.219 8.498 0 0 2.639 232.408-3.821 258.513-2.001 8.085-5.792 14.708-11.958 17.43-19.082 8.433-35.927-9.396-53.526-13.115 2.412 24.772-13.069 73.836 15.802 86.329 26.459 11.464 56.918 15.73 84.821 6.271 58.464-19.835 77.356-84.904 69.979-138.344 90.215 26.937 196.631-18.137 235.228-99.656 27.483-58.013 15.89-130.088-25.481-179.425-77.516-92.431-234.807-110.156-344.481-66.752z"/></svg>