<svg xmlns="http://www.w3.org/2000/svg" viewBox="0 0 512 512"><path d="M434.365 231.326c-39.367-12.99-67.486-17.788-67.486-49.446 0-22.31 17.073-39.075 41.037-39.075 17.233 0 30.779 6.832 43.067 24.154l32.608-16.78c-16.617-29.683-40.594-44.575-73.863-44.575-51.012 0-82.421 30.985-82.421 77.448 0 47.648 30.823 67.528 90.481 87.322 33.195 11.118 52.856 17.951 52.856 46.391 0 29.098-25.792 52.108-63.36 50.823-38.241-1.303-50.017-22.356-63.842-54.099-22.342-51.291-47.914-111.565-49.916-116.247-26.07-60.565-77.375-94.739-140.955-94.739-84.221 0-152.488 68.787-152.488 153.578 0 84.838 68.267 153.522 152.488 153.522 47.531 0 90.014-21.856 117.972-56.147l-19.706-45.717c-18.492 35.608-55.607 59.892-98.266 59.892-61.142 0-110.751-49.96-110.751-111.55 0-61.618 49.608-111.563 110.751-111.563 45.205 0 85.26 26.713 101.383 66.269l48.701 111.711 5.63 12.625c19.738 46.243 48.147 72.504 101.442 72.723 57.875.088 102.186-37.786 102.186-89.796 0-49.534-24.621-69.358-77.551-86.723z"/></svg>