<svg xmlns="http://www.w3.org/2000/svg" viewBox="0 0 512 512"><path d="M431.474-6.4h-139.076c-36.469 0-82.376 5.372-120.846 36.925-29.069 24.875-43.219 59.114-43.219 90.04 0 52.392 40.522 105.507 112.082 105.507 6.749 0 14.135-.686 21.632-1.328-3.378 8.029-6.793 14.751-6.793 26.189 0 20.838 10.801 33.575 20.253 45.692-30.35 2.007-87.08 5.358-128.964 30.86-39.833 23.57-52.019 57.808-52.019 81.997 0 49.736 47.292 96.121 145.196 96.121 116.149 0 177.591-63.83 177.591-127.039 0-46.312-27.009-69.188-56.7-94.055l-24.327-18.787c-7.394-6.081-17.512-14.11-17.512-28.898 0-14.78 10.119-24.211 18.875-32.941 28.358-22.159 56.716-45.677 56.716-95.397 0-51.086-32.433-77.961-47.959-90.719h41.914l43.158-24.166zm-59.352 411.202c0 41.633-34.476 72.537-99.31 72.537-72.228 0-118.831-34.254-118.831-81.953 0-47.728 43.218-63.815 58.056-69.187 28.38-9.445 64.834-10.774 70.908-10.774 6.756 0 10.119 0 15.542.649 51.351 36.29 73.635 54.474 73.635 88.726zm-54.048-216.363c-10.815 10.737-29.07 18.795-45.945 18.795-58.048 0-84.376-74.589-84.376-119.587 0-17.481 3.378-35.597 14.838-49.72 10.808-13.445 29.706-22.182 47.27-22.182 56.049 0 85.102 75.26 85.102 123.623 0 12.116-1.378 33.59-16.889 49.072z"/></svg>