<svg xmlns="http://www.w3.org/2000/svg" viewBox="0 0 512 512"><path d="M257.376-4.627c-150.08-19.783-197.801 155.315-88.452 225.514-28.156 14.577-26.307 88.809 3.852 99.382-71.051 8.139-84.23 108.272-46.135 149.074 46.345 49.673 188.912 46.383 230.706 0 29.183-32.385 33.231-99.127 7.659-129.94-23.285-28.121-140.22-32.344-138.393-76.469 1.26-30.814 43.549-25.957 69.207-38.218 48.276-23.081 76.658-92.152 57.683-145.254 10.762-2.031 19.981-5.621 30.756-7.645v-76.446c-45.741 28.578-92.894 4.463-126.883 0zm46.15 401.363c4.979 54.958-106.335 57.39-119.209 19.12-10.835-32.256 2.651-41.387 34.594-49.688 36.165-9.421 81.266-6.203 84.615 30.567zm-30.757-240.813c-18.48 13.689-54.827 15.036-73.067 0-56.269-122.579 129.365-113.791 73.067 0z"/></svg>