<svg xmlns="http://www.w3.org/2000/svg" viewBox="0 0 512 512"><path d="M256.014-6.371c-141.381.014-255.979 114.614-255.979 256.007 0 141.351 114.599 255.964 255.979 255.964 141.356 0 255.971-114.613 255.986-255.964-.014-141.393-114.629-255.993-255.986-256.007zm0 56.289c47.124 0 90.317 16.469 124.517 43.889-26.167 31.345-60.728 54.043-98.058 70.071-26.24-50.729-51.59-87.009-68.918-109.21 13.723-3.029 27.888-4.75 42.459-4.75zm-88.226 20.808c13.865 16.369 41.636 52.394 71.274 108.626-60.285 17.947-120.992 22.173-157.727 22.144-1.038 0-2.084 0-3.1-.015h-.037c-6.185 0-11.504-.099-15.948-.241 14.335-57.315 53.622-104.815 105.538-130.514zm-111.498 178.91c0-.939.035-1.892.092-2.873 5.703.199 13.021.383 21.815.383h.043c40.15-.27 110.242-3.612 181.28-26.04 3.868 8.463 7.707 17.28 11.505 26.438-47.436 15.871-84.803 41.144-112.439 66.302-26.594 24.235-44.577 48.228-55.072 64.254-29.388-34.801-47.209-79.499-47.224-128.465zm199.724 199.715c-44.458 0-85.409-14.688-118.647-39.363 7.062-11.635 22.209-33.962 46.322-57.046 24.817-23.779 59.056-48.238 103.777-62.817 15.201 42.608 28.955 91.318 39.438 146.143-22.073 8.407-45.924 13.083-70.889 13.083zm113.027-35.467c-10.14-49.578-22.883-94.292-36.861-134.198 12.971-1.863 26.608-2.901 40.957-2.901h.583c23.822 0 49.992 2.958 78.378 9.401-9.828 52.805-40.406 98.286-83.056 127.699zm4.75-182.751v-.029h-.198c-20.479 0-39.721 1.877-57.84 5.077-4.423-10.794-8.876-21.162-13.37-31.088 40.365-17.706 79.103-42.922 110.476-78.733 24.974 31.715 40.617 70.981 42.579 113.874-28.899-6.143-56.188-9.101-81.647-9.101z"/></svg>