<svg xmlns="http://www.w3.org/2000/svg" viewBox="0 0 512 512"><path d="M399.139 37.325c-20.424-13.788-42.958-24.738-67.024-32.214-24.067-7.485-49.637-11.54-76.109-11.511-35.289-.029-69.031 7.16-99.668 20.123-45.944 19.444-85.016 51.886-112.629 92.729-13.788 20.424-24.723 42.957-32.199 67.039-7.499 24.052-11.525 49.645-11.511 76.115-.015 35.29 7.16 69.001 20.122 99.659 19.443 45.938 51.886 85.002 92.728 112.594 20.425 13.803 42.958 24.731 67.04 32.207 24.052 7.507 49.645 11.517 76.115 11.517 35.26 0 69.001-7.154 99.644-20.115 45.967-19.437 85.017-51.865 112.623-92.728 13.774-20.424 24.746-42.958 32.192-67.039 7.492-24.053 11.517-49.623 11.517-76.094.014-35.303-7.154-69.031-20.13-99.667-19.422-45.959-51.88-85.001-92.714-112.615zm60.847 298.432c-16.781 39.7-44.889 73.514-80.253 97.404-17.651 11.96-37.117 21.397-57.897 27.842-20.808 6.46-42.883 9.954-65.829 9.969h-.03v-221.13h-221.344v-.236c0-30.622 6.178-59.702 17.379-86.174 16.782-39.698 44.889-73.55 80.223-97.425 17.667-11.938 37.139-21.361 57.926-27.827 20.786-6.474 42.876-9.947 65.844-9.947v221.373h221.365c0 30.585-6.208 59.668-17.387 86.151z"/></svg>