<svg xmlns="http://www.w3.org/2000/svg" viewBox="0 0 512 512"><path d="M506.226 197.312l-7.26-5.595c-9.409-7.39-57.147.517-69.985-11.174-9.135-8.327-10.558-23.382-13.324-43.773-5.126-39.489-8.36-41.558-14.553-54.963-22.461-47.542-83.454-83.261-125.369-88.21h-113.459c-89.292 0-162.277 72.832-162.277 161.768v188.74c0 88.791 72.985 161.509 162.277 161.509h186.452c89.276 0 161.784-72.718 162.286-161.509l1.001-130.721-1.503-7.115-4.286-8.958zm-341.903-73.538h89.987c17.157 0 31.094 13.938 31.094 30.885 0 16.882-13.937 30.95-31.094 30.95h-89.988c-17.181 0-31.055-14.069-31.055-30.95 0-16.947 13.874-30.885 31.055-30.885zm182.821 250.744h-182.821c-17.181 0-31.055-14.068-31.055-30.805 0-16.945 13.874-30.774 31.055-30.774h182.821c17.076 0 30.918 13.828 30.918 30.774 0 16.738-13.842 30.805-30.918 30.805z"/></svg>