<svg xmlns="http://www.w3.org/2000/svg" viewBox="0 0 512 512"><path d="M208.154 238.256c10.474-5.469 18.397-11.508 23.761-18.17 9.636-11.857 14.434-27.486 14.434-47.002 0-18.92-4.743-35.203-14.279-48.761-15.906-22.114-42.844-33.374-80.846-34.008h-150.748v319.303h140.572c15.82 0 30.508-1.448 44.067-4.318 13.528-2.87 25.286-8.206 35.228-16.029 8.834-6.746 16.172-15.139 22.081-25.073 9.314-15.026 13.883-32.007 13.883-50.958 0-18.315-4.047-33.914-12.167-46.767-8.058-12.899-20.104-22.259-35.986-28.216zm-60.047 107.155h-84.922v-63.701h84.274c23.308 0 31.288 18.731 31.288 31.161 0 14.724-6.685 32.54-30.641 32.54zm0-127.376h-84.922v-63.701h84.274c23.308 0 31.288 18.732 31.288 31.161 0 14.724-6.685 32.54-30.641 32.54zm188.124-96.435h127.269v31.864h-127.269v-31.864zm173.772 148.807c-2.772-16.578-8.731-31.095-18.004-43.676-10.249-14.268-23.26-24.656-38.992-31.27-15.796-6.589-33.499-9.861-53.133-9.861-33.121 0-59.993 9.72-80.808 29.278-20.75 19.51-31.088 47.532-31.088 84.174 0 39.057 11.504 67.219 34.44 84.572 23.008 17.305 52.668 25.994 82.728 25.994 36.41 0 64.762-10.296 84.986-30.826 13.036-12.919 20.287-25.631 21.869-38.151h-60.297c-3.474 6.142-12.361 21.871-44.901 21.871-35.164 0-54.813-19.31-54.813-49.188h159.957c.291-18.279-.399-33.267-1.943-42.917zm-159.116-.062c2.049-12.759 7.063-22.857 15.137-30.285 7.99-7.427 19.262-11.206 33.846-11.206 13.402 0 24.647 3.541 33.628 10.588 9.075 7.026 14.113 17.319 15.174 30.903h-97.785z"/></svg>