<svg xmlns="http://www.w3.org/2000/svg" viewBox="0 0 512 512"><path d="M332.807 121.594h-102.399c-28.322 0-51.207 22.916-51.207 51.207 0 28.237 22.886 51.207 51.207 51.207h102.399c23.639 0 51.2 39.102 51.2 89.604 0 49.401-45.957 89.587-102.414 89.587h-51.185c-56.472 0-102.414-45.957-102.414-102.399v-256.006c0-28.314-22.948-51.207-51.207-51.207-28.291 0-51.208 22.894-51.208 51.207v256.006c0 112.899 91.86 204.813 204.828 204.813h51.185c112.914 0 204.828-86.144 204.828-192.001 0-105.921-68.913-192.018-153.615-192.018z"/></svg>