<svg xmlns="http://www.w3.org/2000/svg" viewBox="0 0 512 512"><path d="M282.512 28.819c19.76-19.511 53.164-34 80.731-34.971 3.505 27.074-9.445 54.204-28.56 73.744-19.151 19.511-50.502 34.707-81.291 32.667-4.168-26.506 11.344-54.122 29.12-71.44zm156.782 413.76c-22.87 31.194-46.519 62.264-83.872 62.878-36.744.649-48.535-31.06-90.471-31.06-41.971 0-55.133 30.447-89.827 31.709-36.049 1.261-63.467-33.718-86.519-64.79-47.096-63.555-83.046-179.768-34.694-258.152 23.927-38.954 66.841-63.572 113.323-64.235 35.405-.601 68.859 22.293 90.471 22.293 21.678 0 62.276-27.482 104.956-23.463 17.875.692 68.014 6.728 100.211 50.731-2.529 1.57-59.844 32.686-59.151 97.567.678 77.522 72.726 103.264 73.553 103.603-.662 1.848-11.527 36.767-37.983 72.918z"/></svg>