<svg xmlns="http://www.w3.org/2000/svg" viewBox="0 0 512 512"><path d="M418.229 351.387c-11.034 3.466-20.733 8.327-29.678 14.583-6.897 4.904-4.596 12.611 2.3 11.892 7.567-1.392 17.844-3.397 28.879-4.96 24.118-2.029 42.875 1.111 49.77 10.197 9.654 11.834-3.034 59.715-12.063 82.116-2.634 6.974 3.512 9.807 9.781 4.861 28.385-16.49 44.767-57.793 44.767-99.88v-4.228c0-5.62-1.378-9.764-2.676-11.836-6.269-7.651-56.803-14.279-91.079-2.747zm-137.551-202.562c-11.682.997-25.137 1.994-38.611 3.956-20.686 2.894-41.329 6.849-58.365 15.629-33.241 14.696-55.703 45.984-55.703 91.969 0 57.69 34.114 87.049 77.234 87.049 14.387 0 26.055-1.93 36.834-4.823 17.051-5.983 31.425-16.723 48.49-36.243 9.848 14.633 12.599 21.514 29.633 37.142 4.496 1.994 8.931 1.994 12.57-.899 10.794-9.873 29.634-27.432 39.512-37.238 4.494-3.924 3.578-9.776.916-14.697-9.879-13.667-19.755-25.404-19.755-51.805v-88.047c0-37.205 2.66-71.42-22.447-96.857-20.644-20.58-52.968-28.363-78.153-28.363h-10.766c-45.81 2.926-94.313 24.407-105.108 86.084-1.774 7.814 3.637 10.74 7.216 11.738l50.291 6.849c5.397-.997 8.059-5.853 8.946-10.773 4.525-21.512 20.703-32.253 38.654-34.247h3.58c10.764 0 22.431 4.921 28.762 14.697 7.126 11.736 6.269 27.397 6.269 41.064v7.814zm-9.847 116.441c-6.358 13.634-17.111 22.478-28.762 25.404-1.817 0-4.48.997-7.2.997-19.771 0-31.453-16.626-31.453-41.097 0-31.289 17.079-45.953 38.654-52.835 11.653-2.926 25.126-3.89 38.611-3.89v11.769c0 22.51.858 40.1-9.848 59.651zm168.472 135.457c-3.971 1.635-8.488 3.933-12.459 5.534-57.596 24.863-118.009 36.363-174.058 36.363-89.045 0-175.029-26.998-244.566-71.592-6.472-3.833-10.989 3.332-5.502 8.267 64.521 64.456 149.534 102.984 244.595 102.984 59.006 0 126.996-18.164 179.53-52.858 6.971-4.466 13.974-9.365 20.522-14.832 8.973-7.2.94-18.197-8.063-13.865z"/></svg>