<svg xmlns="http://www.w3.org/2000/svg" viewBox="0 0 512 512"><path d="M460.621 250.994s-16.69-31.349-37.783-63.77c-34.392 31.202-70.032 25.98-85.205 22.656-19.964-4.374-25.378-12.943-23.741-20.469-11.632-3.682-52.555-28.092-77.292-36.207-47.58 29.2-66.65 102.148-64.359 176.361-31.922 61.108-55.678 81.757-120.862 96.839 12.264 29.007 17.211 39.897 35.382 78.349 81.501-22.254 133.632-70.45 165.651-111.699 54.547 13.998 94.412 48.925 127.378 112.324 34.183-28.74 37.96-31.699 67.057-55.262-22.67-54.755-78.363-102.118-131.409-127.911.476-12.942.892-16.185 1.399-26.344 77.947 20.527 143.784-44.865 143.784-44.865zm-135.929-111.662c39.807 0 73.601-32.569 73.601-72.746 0-40.187-33.795-72.763-73.601-72.763-39.838 0-73.142 32.577-73.142 72.763 0 40.178 33.305 72.746 73.142 72.746z"/></svg>