<svg xmlns="http://www.w3.org/2000/svg" viewBox="0 0 512 512"><path d="M479.402 157.551c-10.238-11.382-22.777-20.321-37.661-26.844-14.885-6.51-31.617-9.772-50.202-9.772-14.883 0-28.723 2.344-41.501 6.976-12.779 4.659-24.642 10.817-35.558 18.485-10.93 7.668-21.18 16.621-30.7 26.845-9.505 10.238-18.697 20.701-27.536 31.39-9.305-11.155-18.726-21.732-28.242-31.73-9.518-9.998-19.769-18.838-30.685-26.506-10.917-7.667-22.779-13.825-35.558-18.485-12.78-4.632-26.852-6.975-42.187-6.975-18.605 0-35.345 3.388-50.216 10.125-14.876 6.737-27.438 15.801-37.661 27.183-10.23 11.41-18.018 24.882-23.349 40.473-5.367 15.56-8.021 32.421-8.021 50.554 0 18.131 2.775 35.09 8.373 50.906 5.564 15.788 13.698 29.387 24.396 40.783 10.696 11.41 23.483 20.461 38.359 27.197 14.87 6.75 31.844 10.111 50.9 10.111 15.357 0 29.167-2.202 41.495-6.608 12.329-4.421 23.71-10.238 34.161-17.44 10.476-7.217 20.349-15.575 29.625-25.108 9.32-9.531 18.853-19.402 28.611-29.627 8.839 10.224 18.13 20.096 27.904 29.627 9.757 9.533 20.094 17.892 31.024 25.108 10.915 7.201 22.665 13.019 35.218 17.44 12.555 4.406 26.026 6.608 40.443 6.608 18.599 0 35.445-3.361 50.555-10.111 15.108-6.736 27.776-16.042 38.014-27.89 10.209-11.861 18.132-25.687 23.724-41.502 5.563-15.803 8.36-32.762 8.36-50.907 0-18.131-2.796-34.851-8.36-50.214-5.592-15.335-13.514-28.68-23.724-40.09zm-283.823 113.689c-6.976 6.736-14.418 12.781-22.31 18.103-7.908 5.351-16.267 9.772-25.109 13.26-8.847 3.501-17.687 5.238-26.505 5.238-17.2 0-30.671-5.337-40.436-16.042-9.766-10.704-14.658-24.401-14.658-41.148 0-15.337 4.773-29.176 14.305-41.489 9.524-12.313 22.432-18.498 38.707-18.498 8.825 0 17.665 2.006 26.498 5.946 8.825 3.94 17.313 8.938 25.447 14.982s15.928 12.68 23.356 19.881c7.428 7.203 13.953 13.84 19.546 19.884-5.593 6.496-11.863 13.133-18.839 19.883zm236.404 19.871c-9.319 11.154-22.55 16.731-39.752 16.731-9.756 0-18.938-1.624-27.549-4.885-8.599-3.248-16.848-7.555-24.756-12.922-7.907-5.323-15.336-11.367-22.31-18.117-6.963-6.736-13.471-13.585-19.531-20.561 5.578-6.044 11.863-12.68 18.838-19.884 6.963-7.2 14.277-13.838 21.958-19.881 7.683-6.044 15.802-11.042 24.402-14.983 8.615-3.939 17.552-5.945 26.858-5.945 17.199 0 30.8 5.832 40.796 17.452 9.983 11.623 14.997 25.574 14.997 41.828 0 16.282-4.66 30.009-13.952 41.165z"/></svg>