<svg xmlns="http://www.w3.org/2000/svg" viewBox="0 0 512 512"><path d="M444-6.4h-376c-37.555 0-68 30.445-68 68v376c0 37.555 30.445 68 68 68h376c37.555 0 68-30.445 68-68v-376c0-37.555-30.445-68-68-68zm-273.5 111.2c17.394-12.656 50.835-16.277 64.599-13.809 13.768 2.457 20.962 9.581 21.06 18.264l.781 110.677c.063 8.688-4.809 16.674-10.843 17.746-6.06 1.054-14.982-4.113-19.888-11.507l-62.75-94.892c-4.869-7.408-14.675-10.674 7.042-26.48zm-42.401 197.426c-1.588-8.887 0-51.824 0-51.824 2.645-12.331 12.668-19.866 21.352-16.686l66.734 24.489c8.678 3.18 15.081 11.467 14.224 18.45-.884 6.983-8.77 15.019-17.574 17.907l-63.173 20.688c-8.803 2.897-19.953-4.135-21.564-13.024zm130.336 92.128c-.173 8.69-15.628 17.428-24.398 14.478l-46.082-14.817c-8.75-2.95-11.731-18.56-5.73-25.202l44.071-48.907c6-6.632 16.056-11.637 22.393-11.096 6.332.541 11.351 8.065 11.178 16.783l-1.432 68.762zm122.325-57.073c-3.871 10.756-24.882 39.447-24.882 39.447-4.976 7.385-23.006 8.688-27.514 1.083l-34.866-59.062c-4.51-7.615-5.367-16.04-1.92-18.708 3.438-2.699 13.606-2.92 22.56-.544l55.26 14.708c8.956 2.378 15.233 12.291 11.363 23.075zm-6.885-83.419l-61.59 10.574c-9.108 1.887-19.829-1.596-23.853-7.767-4.022-6.149-2.406-16.634 3.622-23.234l35.615-39.262c6.027-6.606 16.718-7.55 26.063-.025 9.356 7.505 26.639 29.535 29.132 37.01 2.526 7.464 2.125 20.235-8.988 22.703z"/></svg>