<svg xmlns="http://www.w3.org/2000/svg" viewBox="0 0 512 512"><path d="M351.791 244.102c0-17.582-6.335-29.748-11.728-39.209-7.204-11.705-13.952-21.615-13.952-33.342 0-13.055 9.879-25.213 23.875-25.213.606 0 1.215.071 1.822.123-25.274-23.185-58.967-37.34-95.978-37.34-49.648 0-93.344 25.49-118.767 64.088 3.343.093 6.475.167 9.14.167 14.881 0 37.899-1.825 37.899-1.825 7.64-.423 8.577 10.821.911 11.726 0 0-7.715.897-16.284 1.359l51.776 153.948 31.089-93.269-22.12-60.679c-7.662-.462-14.924-1.359-14.924-1.359-7.644-.444-6.756-12.149.906-11.726 0 0 23.463 1.825 37.429 1.825 14.858 0 37.898-1.825 37.898-1.825 7.644-.423 8.551 10.821.897 11.726 0 0-7.698.897-16.274 1.359l51.385 152.778 14.18-47.356c7.205-18.474 10.822-33.79 10.822-45.957zm-93.458 19.626l-42.666 123.928c12.734 3.738 26.211 5.771 40.163 5.771 16.539 0 32.435-2.858 47.188-8.067-.369-.599-.721-1.233-.994-1.928l-43.692-119.704zm-144.654-12.456c0 56.258 32.708 104.907 80.117 127.921l-67.805-185.776c-7.878 17.691-12.312 37.247-12.312 57.855zm213.62 122.853c42.243-24.622 70.66-70.404 70.66-122.853 0-24.721-6.317-47.946-17.41-68.201.642 4.535.986 9.387.986 14.62 0 14.414-2.718 30.632-10.813 50.91l-43.423 125.523zm116.701-380.525h-376c-37.555 0-68 30.445-68 68v376c0 37.555 30.445 68 68 68h376c37.555 0 68-30.445 68-68v-376c0-37.555-30.445-68-68-68zm-188.038 416.436c-88.478 0-160.462-71.979-160.462-160.463 0-88.478 71.983-160.462 160.462-160.462 88.483 0 160.462 71.984 160.462 160.462 0 88.483-71.98 160.463-160.463 160.463z"/></svg>