<svg xmlns="http://www.w3.org/2000/svg" viewBox="0 0 512 512"><path d="M444-6.4h-376c-37.555 0-68 30.445-68 68v376c0 37.555 30.445 68 68 68h376c37.555 0 68-30.445 68-68v-376c0-37.555-30.445-68-68-68zm-59.925 211.621c-1.171 25.218-18.558 59.727-52.248 103.516-34.817 45.736-64.344 68.588-88.459 68.588-14.908 0-27.577-13.947-37.865-41.856-6.905-25.587-13.827-51.156-20.698-76.76-7.663-27.894-15.904-41.832-24.716-41.832-1.869 0-8.596 4.042-20.096 12.194l-12.05-15.69c12.643-11.238 25.085-22.484 37.369-33.73 16.832-14.707 29.451-22.476 37.87-23.254 19.9-1.94 32.142 11.819 36.771 41.276 4.947 31.808 8.398 51.557 10.33 59.325 5.751 26.339 12.056 39.524 18.972 39.524 5.332 0 13.361-8.521 24.111-25.586 10.698-17.05 16.447-30.031 17.211-38.961 1.532-14.732-4.224-22.09-17.211-22.09-6.163 0-12.479 1.359-18.973 4.059 12.615-41.481 36.715-61.615 72.349-60.445 26.44.761 38.878 18.024 37.335 51.72z"/></svg>