<svg xmlns="http://www.w3.org/2000/svg" viewBox="0 0 512 512"><path d="M444-6.4h-376c-37.555 0-68 30.445-68 68v376c0 37.555 30.445 68 68 68h376c37.555 0 68-30.445 68-68v-376c0-37.555-30.445-68-68-68zm-101.195 406.527c-6.286 6.302-13.841 9.463-22.637 9.463h-64.317c-26.425 0-49.017-9.37-67.758-28.197-18.735-18.767-28.094-41.381-28.094-67.863v-159.765c0-9.078 3.119-16.702 9.358-22.888 6.225-6.17 13.873-9.279 22.86-9.279 8.739 0 16.26 3.168 22.482 9.464 6.25 6.295 9.393 13.844 9.393 22.67v31.832h97.823c8.185 0 15.224 2.909 21.065 8.753 5.851 5.843 8.779 15.358 8.779 23.551 0 8.142-2.927 17.071-8.76 22.937-5.827 5.81-12.848 8.746-20.998 8.746h-97.906v63.949c0 8.861 3.06 16.358 9.245 22.553 6.169 6.195 13.66 9.296 22.471 9.296h64.334c8.802 0 16.375 3.16 22.661 9.447 6.288 6.31 9.43 13.86 9.43 22.678 0 8.81-3.142 16.385-9.43 22.654z"/></svg>