<svg xmlns="http://www.w3.org/2000/svg" viewBox="0 0 512 512"><path d="M444-6.4h-376c-37.555 0-68 30.445-68 68v376c0 37.555 30.445 68 68 68h376c37.555 0 68-30.445 68-68v-376c0-37.555-30.445-68-68-68zm-41.733 263.6c-31.342 122.024-241.534 173.781-338.231 47.108 37.04 33.978 101.537 36.954 142.439-3.669-23.987 3.373-41.436-19.233-11.968-31.465-26.501 2.808-41.236-10.76-47.279-22.26 6.213-6.255 13.068-9.157 26.322-9.998-29.017-6.581-39.719-20.227-43.011-36.776 8.059-1.844 18.135-3.436 23.637-2.724-25.411-12.772-34.247-31.98-32.848-46.422 45.402 16.202 74.336 29.216 98.534 41.7 8.619 4.41 18.237 12.38 29.084 22.471 13.825-35.095 30.888-71.268 60.12-89.215-.493 4.07-2.757 7.856-5.76 10.956 8.291-7.239 19.06-12.218 30.004-13.656-1.255 7.896-13.094 12.341-20.233 14.927 5.41-1.621 34.18-13.957 37.317-6.932 3.702 8-19.851 11.669-23.853 13.058-2.983.965-5.986 2.023-8.928 3.17 36.463-3.49 71.26 25.413 81.423 61.295.721 2.581 1.44 5.448 2.099 8.454 13.331 4.782 37.492-.222 45.279-4.825-5.626 12.792-20.253 22.21-41.833 23.93 10.399 4.154 29.994 6.427 43.51 4.222-8.558 8.83-22.363 16.836-45.823 16.648z"/></svg>