<svg xmlns="http://www.w3.org/2000/svg" viewBox="0 0 512 512"><path d="M444-6.4h-376c-37.555 0-68 30.445-68 68v376c0 37.555 30.445 68 68 68h376c37.555 0 68-30.445 68-68v-376c0-37.555-30.445-68-68-68zm-104.132 396.562c-19.192 16.539-53.983 19.626-66.428 19.626-14.163 0-22.516-1.825-33.381-5.514-10.886-3.731-20.16-9.031-27.845-15.815-7.676-6.877-12.994-14.163-15.969-21.871-2.965-7.697-4.456-18.899-4.456-33.585v-115.758h-31.79v-51.665c36.882 0 50.731-49 50.731-88.14h45.093v76.091h64.233v63.715h-64.233v85.552c0 39.134 11.851 56.742 44.161 56.742 17.94 0 32.258-3.442 39.883-14.038v44.659z"/></svg>