<svg xmlns="http://www.w3.org/2000/svg" viewBox="0 0 512 512"><path d="M444-6.4h-376c-37.555 0-68 30.445-68 68v376c0 37.555 30.445 68 68 68h376c37.555 0 68-30.445 68-68v-376c0-37.555-30.445-68-68-68zm-60.307 306.728c0 24.995-20.339 45.33-45.339 45.33h-4.171c-25.115 0-46.331-20.759-46.331-45.33v-68.482c0-7.852-6.077-14.239-13.548-14.239h-58.304c-8.895 0-13.759 5.034-14.217 10.259-.024.271-.036 7.139-.036 7.411 0 7.335 6.714 13.877 14.661 14.284l9.048.479c24.801 1.284 43.55 21.383 43.55 46.053 0 29.264-21.489 49.065-46.202 49.065h-95.178v-31.453h95.178c7.812 0 14.77-7.99 14.77-14.2 0-12.323-6.099-17.644-13.787-18.055l-9.016-.479c-24.519-1.265-44.469-21.764-44.469-45.694 0-.274.002-7.143.008-7.415.454-23.261 20.203-41.362 45.334-41.362h58.314c25.005 0 45.348 20.343 45.348 45.347v68.482c0 7.392 6.952 13.877 14.877 13.877h4.171c7.656 0 13.884-6.226 13.884-13.877v-178.029l31.455.051v177.978z"/></svg>