<svg xmlns="http://www.w3.org/2000/svg" viewBox="0 0 512 512"><path d="M315.448 246.52c-6.457-4.253-14.274-7.844-23.425-10.809-9.168-2.95-19.377-5.659-30.615-8.085-8.98-2.113-15.435-3.703-19.309-4.807-3.868-1.069-7.686-2.567-11.439-4.499-3.762-1.902-6.688-4.161-8.798-6.769-2.061-2.582-3.086-5.589-3.095-9.179.01-5.704 3.016-10.577 9.296-14.774 6.255-4.141 14.536-6.254 24.865-6.254 11.193-.031 19.23 1.942 24.095 5.719 5.003 3.849 9.32 9.237 12.901 16.14 2.844 4.938 5.478 8.494 7.979 10.729 2.562 2.295 6.264 3.385 10.986 3.385 5.236.025 9.716-1.867 13.224-5.564 3.512-3.687 5.307-7.893 5.307-12.535 0-4.987-1.402-10.112-4.167-15.353-2.774-5.22-7.151-10.198-13.123-14.915-6.002-4.731-13.476-8.493-22.474-11.353-9.019-2.834-19.672-4.267-31.978-4.267-15.399 0-28.846 2.149-40.276 6.435-11.444 4.293-20.231 10.437-26.303 18.487-6.077 8.019-9.109 17.229-9.109 27.534 0 10.808 2.864 19.933 8.635 27.272 5.761 7.263 13.512 13.028 23.273 17.228 9.724 4.197 21.759 7.849 36.124 10.987 10.704 2.25 19.258 4.397 25.614 6.416 6.346 1.986 11.449 4.863 15.404 8.615 3.904 3.703 5.822 8.474 5.822 14.476 0 7.517-3.55 13.729-10.925 18.834-7.344 5.063-16.927 7.637-28.816 7.637-8.66 0-15.591-1.271-20.8-3.782-5.276-2.512-9.342-5.741-12.22-9.584-2.911-3.904-5.64-8.786-8.162-14.627-2.102-5.043-4.659-8.868-7.721-11.49-3.082-2.635-6.864-3.964-11.278-3.964-5.371 0-9.931 1.695-13.477 5.063-3.506 3.329-5.306 7.445-5.306 12.166 0 8 2.911 16.192 8.649 24.574 5.736 8.373 13.175 15.072 22.34 20.073 12.927 7.002 29.3 10.463 49.082 10.463 16.494 0 30.776-2.543 42.872-7.647 12.065-5.065 21.285-12.146 27.58-21.195 6.296-9.017 9.453-19.228 9.453-30.574 0-9.421-1.817-17.423-5.458-23.981-3.642-6.558-8.726-11.973-15.223-16.225zm128.552-252.92h-376c-37.555 0-68 30.445-68 68v376c0 37.555 30.445 68 68 68h376c37.555 0 68-30.445 68-68v-376c0-37.555-30.445-68-68-68zm-117.535 416.254c-17.302 0-33.442-4.904-47.141-13.365-7.557 1.19-15.315 1.805-23.192 1.805-82.032 0-148.552-66.499-148.552-148.552 0-7.904.645-15.606 1.811-23.181-8.459-13.709-13.361-29.844-13.361-47.149 0-49.592 40.189-89.781 89.781-89.781 17.305 0 33.461 4.892 47.135 13.361 7.56-1.175 15.312-1.831 23.186-1.831 82.063 0 148.572 66.528 148.572 148.581 0 7.89-.625 15.625-1.815 23.182 8.474 13.698 13.365 29.839 13.365 47.14 0 49.58-40.199 89.789-89.789 89.789z"/></svg>