<svg xmlns="http://www.w3.org/2000/svg" viewBox="0 0 512 512"><path d="M444-6.4h-376c-37.555 0-68 30.445-68 68v376c0 37.555 30.445 68 68 68h376c37.555 0 68-30.445 68-68v-376c0-37.555-30.445-68-68-68zm-277.62 384c-21.126 0-38.252-17.127-38.252-38.252 0-21.128 17.126-38.254 38.252-38.254s38.252 17.126 38.252 38.254c0 21.125-17.126 38.252-38.252 38.252zm96.716 0c0-36.052-14.04-69.945-39.531-95.438-25.493-25.49-59.386-39.531-95.438-39.531l-.195.003v-54.029l.195-.002c104.38 0 188.998 84.616 188.998 188.997h-54.029zm145.785 0h-46.911c0-31.594-6.174-62.213-18.353-91.007-11.776-27.839-28.644-52.853-50.137-74.345-21.493-21.493-46.507-38.363-74.346-50.137-28.795-12.18-59.415-18.355-91.007-18.355l-.195.001v-54.029h.195c156.459 0 283.764 124.82 287.774 280.312-2.276 2.576-4.616 5.098-7.021 7.56z"/></svg>