<svg xmlns="http://www.w3.org/2000/svg" viewBox="0 0 512 512"><path d="M444-6.4h-376c-37.555 0-68 30.445-68 68v376c0 37.555 30.445 68 68 68h376c37.555 0 68-30.445 68-68v-376c0-37.555-30.445-68-68-68zm-72.454 382.683c-40-.165-61.323-19.873-76.135-54.58l-4.226-9.476-36.551-83.844c-12.101-29.688-42.164-49.737-76.092-49.737-45.889 0-83.123 37.484-83.123 83.732 0 46.224 37.233 83.721 83.123 83.721 32.017 0 59.874-18.228 73.753-44.951l14.789 34.312c-20.983 25.736-52.868 42.14-88.542 42.14-63.21 0-114.448-51.55-114.448-115.222 0-63.639 51.237-115.266 114.448-115.266 47.719 0 86.225 25.649 105.791 71.104 1.502 3.515 20.697 48.753 37.465 87.247 10.375 23.825 19.214 39.625 47.915 40.604 28.195.966 47.553-16.307 47.553-38.144 0-21.344-14.757-26.471-39.671-34.818-44.776-14.854-67.91-29.776-67.91-65.537 0-34.873 23.573-58.129 61.861-58.129 24.968 0 42.963 11.178 55.435 33.455l-24.471 12.595c-9.224-13-19.39-18.128-32.324-18.128-17.986 0-30.8 12.584-30.8 29.327 0 23.76 21.104 27.362 50.651 37.112 39.724 13.033 58.204 27.911 58.204 65.088 0 39.034-33.258 67.461-76.695 67.395z"/></svg>