<svg xmlns="http://www.w3.org/2000/svg" viewBox="0 0 512 512"><path d="M444-6.4h-376c-37.555 0-68 30.445-68 68v376c0 37.555 30.445 68 68 68h376c37.555 0 68-30.445 68-68v-376c0-37.555-30.445-68-68-68zm-283.887 319.744c-35.204 0-63.743-28.539-63.743-63.744s28.539-63.744 63.743-63.744c35.206 0 63.745 28.539 63.745 63.744s-28.539 63.744-63.745 63.744zm191.772 0c-35.204 0-63.743-28.539-63.743-63.744s28.539-63.744 63.743-63.744c35.206 0 63.745 28.539 63.745 63.744s-28.539 63.744-63.745 63.744z"/></svg>