<svg xmlns="http://www.w3.org/2000/svg" viewBox="0 0 512 512"><path d="M444-6.4h-376c-37.555 0-68 30.445-68 68v376c0 37.555 30.445 68 68 68h376c37.555 0 68-30.445 68-68v-376c0-37.555-30.445-68-68-68zm-222.059 162.598l-77.6 172.722c-36.677-77.879-11.952-135.821 77.6-172.722zm129.6-.987c-2.214 90.644-14.642 165.567-53.836 199.274-35.545 28.801-91.011 28.758-122.762 6.672-4.845-3.394-9.156-7.279-12.746-11.661 35.725-77.065 86.157-145.656 144.74-209.516 15.461-20.899 44.087-25.928 44.965-6.865-.058 7.47-.18 14.824-.361 22.095z"/></svg>