<svg xmlns="http://www.w3.org/2000/svg" viewBox="0 0 512 512"><path d="M195.013 289.832c17.303-15.751 40.7-31.576 70.401-41.513-2.378-5.735-4.782-11.255-7.204-16.553-44.478 14.042-88.365 16.135-113.504 16.304h-.027c-5.506 0-10.088-.115-13.659-.239-.036.614-.058 1.21-.058 1.799.01 30.659 11.167 58.645 29.569 80.436 6.571-10.035 17.831-25.058 34.482-40.233zm138.966-137.773c-21.414-17.168-48.458-27.48-77.964-27.48-9.123 0-17.993 1.077-26.585 2.974 10.85 13.901 26.722 36.616 43.152 68.379 23.373-10.035 45.012-24.247 61.397-43.873zm-123.248 162.251c-15.098 14.454-24.582 28.433-29.004 35.719 20.811 15.449 46.452 24.645 74.288 24.645 15.63 0 30.564-2.927 44.385-8.19-6.563-34.328-15.176-64.826-24.693-91.505-28 9.128-49.439 24.444-64.977 39.331zm-66.029-94.834c.637.01 1.291.01 1.941.01 23.001.018 61.011-2.629 98.758-13.865-18.557-35.208-35.945-57.764-44.627-68.014-32.506 16.091-57.105 45.832-66.08 81.719 2.782.089 6.113.151 9.985.151h.024zm299.298-225.876h-376c-37.555 0-68 30.445-68 68v376c0 37.555 30.445 68 68 68h376c37.555 0 68-30.445 68-68v-376c0-37.555-30.445-68-68-68zm-187.984 416.294c-88.522 0-160.276-71.764-160.276-160.266 0-88.531 71.754-160.284 160.276-160.293 88.507.01 160.27 71.762 160.279 160.293-.009 88.502-71.772 160.266-160.279 160.266zm73.333-143.267c-8.985 0-17.522.651-25.644 1.817 8.753 24.986 16.731 52.983 23.08 84.024 26.704-18.415 45.849-46.892 52.004-79.955-17.774-4.033-34.16-5.885-49.075-5.885h-.365zm-44.3-44.889c2.813 6.216 5.601 12.707 8.371 19.465 11.344-2.003 23.392-3.178 36.214-3.178h.125v.018c15.94 0 33.026 1.852 51.12 5.698-1.228-26.857-11.022-51.443-26.658-71.3-19.644 22.422-43.899 38.21-69.172 49.297z"/></svg>