<svg xmlns="http://www.w3.org/2000/svg" viewBox="0 0 512 512"><path d="M144.923 316.567l49.041-16.572-21.952-56.345c-41.274 33.648-27.089 72.917-27.089 72.917zm299.077-322.967h-376c-37.555 0-68 30.445-68 68v376c0 37.555 30.445 68 68 68h376c37.555 0 68-30.445 68-68v-376c0-37.555-30.445-68-68-68zm-169.305 323.448l-29.939-76.567c16.417-3.442 26.511-1.286 40.038 1.859l10.308 23.378 49.947-16.906s-60.605-53.517-133.197-27.345l40.45 103.008-147.198 53.125s-42.754-117.829 53.719-167.788l-18.643-47.846 45.636-8.365 15.536 41.151c.942-.19 1.752-.478 2.691-.66 159.003-33.952 212.293 71.055 212.293 71.055l-141.642 51.901z"/></svg>