<svg xmlns="http://www.w3.org/2000/svg" viewBox="0 0 512 512"><path d="M298.764 281.6h-91.462c-8.595 0-15.536 7.142-15.536 15.894 0 8.647 6.941 15.911 15.536 15.911h91.462c8.543 0 15.468-7.264 15.468-15.911 0-8.751-6.925-15.894-15.468-15.894zm-91.436-64.2h45.019c8.584 0 15.556-7.145 15.556-15.72 0-8.608-6.973-15.687-15.556-15.687h-45.019c-8.595 0-15.536 7.079-15.536 15.687 0 8.575 6.941 15.72 15.536 15.72zm236.672-223.8h-376c-37.555 0-68 30.445-68 68v376c0 37.555 30.445 68 68 68h376c37.555 0 68-30.445 68-68v-376c0-37.555-30.445-68-68-68zm-60.229 303.094c-.25 44.419-36.524 80.799-81.186 80.799h-93.279c-44.671 0-81.183-36.38-81.183-80.799v-94.423c0-44.493 36.513-80.929 81.183-80.929h56.76c20.969 2.476 51.483 20.345 62.719 44.131 3.099 6.704 4.717 7.74 7.281 27.496 1.385 10.201 2.096 17.732 6.665 21.898 6.423 5.849 30.303 1.893 35.012 5.591l3.632 2.799 2.144 4.482.752 3.559-.502 65.398z"/></svg>