<svg xmlns="http://www.w3.org/2000/svg" viewBox="0 0 512 512"><path d="M195.728 185.6h-66.55v39.823h66.971c15.527 0 19.861-11.139 19.861-20.343 0-7.771-5.173-19.481-20.281-19.481zm175.301 53.614c-5.123-4.405-11.539-6.619-19.185-6.619-8.322 0-14.752 2.363-19.312 7.006-4.606 4.644-7.468 10.956-8.635 18.933h55.791c-.603-8.492-3.481-14.928-8.658-19.32zm-175.301 34.563h-66.55v39.823h66.971c15.527 0 19.861-11.139 19.861-20.343 0-7.769-5.173-19.481-20.281-19.481zm248.272-280.177h-376c-37.555 0-68 30.445-68 68v376c0 37.555 30.445 68 68 68h376c37.555 0 68-30.445 68-68v-376c0-37.555-30.445-68-68-68zm-124 172.08h64v19.92h-64v-19.92zm-71.775 156.196c-9.358 14.712-25.381 19.401-33.223 21.195-7.862 1.794-28.3 2.699-37.471 2.699h-81.493v-191.613h99.318c22.031.396 37.647 3.936 46.868 17.76 5.528 8.476 8.278 18.655 8.278 30.483 0 12.2-2.781 21.97-8.368 29.383-3.109 4.165-7.702 7.94-13.774 11.359 9.207 3.724 16.19 9.575 20.862 17.637 4.708 8.037 7.054 17.789 7.054 29.238 0 11.848-2.649 22.463-8.049 31.856zm107.573-5.723c18.565 0 23.635-9.834 25.618-13.674h34.404c-.904 7.829-5.04 15.774-12.478 23.849-11.539 12.836-27.715 19.272-48.49 19.272-17.151 0-34.072-5.43-47.201-16.25-13.086-10.848-19.651-28.454-19.651-52.87 0-22.908 5.899-40.425 17.738-52.622 11.878-12.227 27.209-18.303 46.106-18.303 11.202 0 21.301 2.046 30.315 6.164 8.976 4.136 16.399 10.629 22.247 19.549 5.29 7.865 8.69 16.94 10.272 27.304.882 6.033 1.274 15.404 1.11 26.829h-91.264c0 18.68 11.211 30.751 31.274 30.751z"/></svg>