<svg xmlns="http://www.w3.org/2000/svg" viewBox="0 0 512 512"><path d="M444-6.4h-376c-37.555 0-68 30.445-68 68v376c0 37.555 30.445 68 68 68h376c37.555 0 68-30.445 68-68v-376c0-37.555-30.445-68-68-68zm-169.238 98c12.716-12.553 34.209-21.875 51.945-22.5 2.253 17.419-6.077 34.875-18.377 47.448-12.322 12.553-32.494 22.329-52.304 21.018-2.681-17.055 7.298-34.822 18.736-45.966zm87.524 249.337c-13.178 17.994-26.803 35.916-48.325 36.269-21.175.375-27.969-17.915-52.13-17.915-24.184 0-31.768 17.563-51.76 18.29-20.771.729-36.569-19.449-49.851-37.374-27.137-36.659-47.851-103.695-19.99-148.91 13.787-22.469 38.513-36.67 65.296-37.052 20.401-.346 39.677 12.859 52.13 12.859 12.492 0 35.884-15.852 60.474-13.534 10.3.399 39.192 3.881 57.741 29.262-1.456.906-34.483 18.856-34.082 56.281.392 44.718 41.904 59.568 42.382 59.762-.379 1.065-6.642 21.208-21.885 42.062z"/></svg>