<svg xmlns="http://www.w3.org/2000/svg" viewBox="0 0 512 512"><path d="M444-6.4h-376c-37.555 0-68 30.445-68 68v376c0 37.555 30.445 68 68 68h376c37.555 0 68-30.445 68-68v-376c0-37.555-30.445-68-68-68zm-174.229 147.748c-4.752-6.803-13.508-10.229-21.588-10.229h-2.688c-13.472 1.387-24.018 4.844-27.415 19.818-.666 3.425-2.663 6.804-6.714 7.498l-37.746-4.767c-2.686-.694-6.748-2.731-5.417-8.17 8.102-42.928 42.909-53.861 77.291-55.898h8.081c18.903 0 43.163 5.416 58.657 19.74 18.844 17.704 16.849 41.519 16.849 67.414v61.284c0 18.375 7.412 26.545 14.826 36.057 1.998 3.425 2.687 7.496-.687 10.228-7.414 6.825-21.555 19.048-29.656 25.918-2.731 2.014-6.06 2.014-9.435.628-12.784-10.88-14.849-15.669-22.24-25.853-12.808 13.585-23.596 21.062-36.394 25.224-8.09 2.014-16.847 3.358-27.646 3.358-32.364 0-57.969-20.433-57.969-60.589 0-32.006 16.859-53.783 41.808-64.012 12.786-6.111 28.28-8.863 43.806-10.877 10.113-1.366 20.212-2.06 28.978-2.755v-5.438c0-9.513.647-20.413-4.703-28.582zm129.812 217.477c-4.915 4.099-10.171 7.774-15.402 11.126-39.43 26.024-90.461 39.649-134.747 39.649-71.349 0-135.155-28.902-183.583-77.251-4.118-3.703-.728-9.075 4.13-6.201 52.191 33.451 116.727 53.704 183.56 53.704 42.067 0 87.41-8.627 130.64-27.279 2.979-1.198 6.371-2.924 9.351-4.151 6.757-3.249 12.785 4.999 6.051 10.401zm48.499-33.299c0 31.57-12.294 62.552-33.599 74.922-4.706 3.71-9.317 1.585-7.341-3.647 6.777-16.803 16.301-52.719 9.053-61.596-5.175-6.817-19.254-9.173-37.354-7.649-8.282 1.172-15.998 2.676-21.677 3.719-5.174.539-6.901-5.243-1.726-8.921 6.714-4.692 13.994-8.34 22.276-10.938 25.724-8.649 63.654-3.678 68.361 2.06.974 1.555 2.007 4.663 2.007 8.879v3.172zm-173.608-118.823c-10.12 0-20.233.672-28.978 2.708-16.192 4.788-29.012 14.996-29.012 36.774 0 17.033 8.768 28.604 23.608 28.604 2.042 0 4.041-.693 5.405-.693 8.745-2.038 16.816-8.194 21.588-17.683 8.036-13.608 7.389-25.852 7.389-41.519v-8.191z"/></svg>