<svg xmlns="http://www.w3.org/2000/svg" viewBox="0 0 512 512"><path d="M421.188 212.636l-.01-.046c-2.254-5.006-5.785-8.785-10.057-11.361-4.26-2.591-9.24-3.912-14.242-3.912-4.527 0-9.036 1.094-13.026 3.264 12.705 11.899 23.846 26.187 31.058 43.02 2.308-2.174 4.292-4.837 5.774-7.806 1.922-3.871 3.015-8.224 3.015-12.524 0-3.615-.774-7.228-2.469-10.601l-.042-.034zm-292.373-11.886c-4.137-2.077-8.419-3.566-12.642-3.542-.713 0-1.427.052-2.135.134h-.102l-.103.011c-6.069.18-12.201 3.038-16.795 7.615-4.603 4.561-7.652 10.724-7.883 17.507v.069l-.01.047c-.048.555-.058 1.105-.058 1.621 0 4.19 1.192 8.239 3.214 11.927 1.492 2.731 3.451 5.243 5.661 7.409 7.111-16.756 18.185-30.969 30.854-42.797zm189.358-8.842l-.173-.07c-5-1.655-10.045-3.119-15.131-4.369-15.219-3.728-30.81-5.603-46.394-5.603-20.927 0-41.838 3.351-61.88 10.006-26.029 8.912-51.131 24.59-67.224 48.861v.034c-8.166 12.13-12.937 27.177-12.937 42.177 0 5.51.644 11.031 1.992 16.413h.022c2.924 12.06 8.654 22.812 16.075 32.187 7.405 9.387 16.505 17.396 26.067 23.947 2.114 1.389 4.239 2.755 6.417 4.074 27.786 16.724 59.782 24.038 91.531 24.038 5.376 0 10.787-.183 16.12-.601 31.991-2.846 64.113-13.042 90.072-33.842l.01-.022c8.262-6.576 15.926-14.573 21.978-23.635 6.085-9.073 10.529-19.214 12.514-30.254v-.024h.01c.815-4.133 1.203-8.299 1.203-12.5 0-14.92-4.992-29.944-13.085-42.015-16.127-24.213-41.154-39.994-67.19-48.802zm-158.412 69.473c0-13.532 10.76-24.502 24.033-24.502s24.033 10.969 24.033 24.502-10.761 24.502-24.033 24.502c-13.274 0-24.033-10.969-24.033-24.502zm168.731 70.725v.022c-.568 2.108-1.565 3.887-2.828 5.34-1.244 1.453-2.699 2.577-4.19 3.527-3.009 1.913-6.212 3.223-8.623 4.664l-.085.055-.098.065c-18.255 8.738-38.738 13.555-59.113 13.555-22.605.022-45.113-5.933-64.23-19.08-1.944-1.06-3.428-2.678-4.397-4.478-1.018-1.935-1.511-4.052-1.511-6.183 0-2.358.601-4.707 1.821-6.75 1.179-1.965 3-3.626 5.331-4.522h-.011l.235-.098c1.474-.677 2.984-1.015 4.419-1.015 1.731 0 3.343.448 4.794 1.081 1.478.611 2.812 1.454 4.087 2.295 2.507 1.693 4.804 3.483 6.819 4.325l.065.022.07.043c13.375 6.695 28.132 9.896 42.986 9.896 19.802 0 39.739-5.658 56.677-15.991 1.8-1.2 3.813-1.758 5.753-1.758 2.401 0 4.68.786 6.642 2.076 1.938 1.301 3.599 3.124 4.627 5.319.697 1.476 1.115 3.103 1.115 4.849 0 .906-.117 1.813-.353 2.741zm-.33-46.224c-13.274 0-24.032-10.969-24.032-24.502s10.759-24.502 24.032-24.502 24.034 10.969 24.034 24.502-10.76 24.502-24.034 24.502zm35.703-164.512c10.495 0 19.031-8.704 19.031-19.402s-8.536-19.401-19.031-19.401c-10.492 0-19.029 8.704-19.029 19.401s8.536 19.402 19.029 19.402zm80.135-127.77h-376c-37.555 0-68 30.445-68 68v376c0 37.555 30.445 68 68 68h376c37.555 0 68-30.445 68-68v-376c0-37.555-30.445-68-68-68zm-3.453 257.631c-4.669 7.697-11.094 14.119-18.502 18.496.485 4.004.752 8.031.752 12.06 0 21.69-6.933 42.997-19.017 60.08h-.019c-22.313 32.003-56.569 50.881-91.166 60.407h-.01l-.022.022c-18.459 4.827-37.476 7.292-56.493 7.292-28.353 0-56.69-5.521-83.117-16.933l-.011-.024h-.021c-27.404-12.188-53.52-31.551-69.536-59.931-8.614-15.139-13.351-32.892-13.351-50.74 0-4.063.258-8.091.757-12.094-7.218-4.365-13.468-10.58-18.094-18.01-4.958-7.975-8.097-17.293-8.499-27.165v-.156c.01-13.82 5.576-26.905 14.225-36.552 8.645-9.64 20.454-15.948 33.123-15.948h.536c1.32-.099 2.667-.156 4.003-.156 6.364 0 12.745 1.111 18.807 3.622l.032.024.032.011c5.162 2.339 10.302 5.18 14.886 9.103 1.492-.839 3.101-1.788 4.926-2.529 27.752-17.731 60.017-24.567 91.462-26.534.274-16.805 2.19-34.392 9.787-49.779 6.321-12.79 17.301-22.744 30.382-26.187l.044-.024.075-.017c4.978-1.042 9.99-1.522 14.992-1.522 8.303 0 16.846-.468 25.086.479 7.728-12.725 21.545-21.225 37.272-21.225 24.161 0 43.815 20.038 43.815 44.668s-19.654 44.669-43.815 44.669c-23.719 0-43.082-19.322-43.779-43.335-6.173-.719-12.476-.552-18.515-.544-1.567 0-3.122.087-4.678.254h-.012c-8.081.84-15.584 6.332-19.221 14.225v.034c-5.526 11.592-6.632 25.143-6.805 38.6 30.963 2.187 62.108 10.185 89.408 27.124h.032l.397.236c.515.342 1.469.904 2.34 1.407 1.876-1.643 3.874-3.333 6.127-4.786 8.284-5.949 18.084-8.901 27.892-8.901 4.368 0 8.726.601 12.954 1.765h.022l.16.046.172.035v.012c9.991 2.737 19.026 8.935 25.83 17.274 6.803 8.362 11.387 18.941 12.279 30.411v.07c.053.897.075 1.8.075 2.697 0 10.081-3.004 19.763-7.996 27.969z"/></svg>