<?xml version="1.0" encoding="UTF-8" standalone="no"?>
<svg width="244px" height="165px" viewBox="0 0 244 165" version="1.1" xmlns="http://www.w3.org/2000/svg" xmlns:xlink="http://www.w3.org/1999/xlink" xmlns:sketch="http://www.bohemiancoding.com/sketch/ns">
    <!-- Generator: Sketch 3.5.2 (25235) - http://www.bohemiancoding.com/sketch -->
    <title>Layer_3</title>
    <desc>Created with Sketch.</desc>
    <defs></defs>
    <g id="Page-1" stroke="none" stroke-width="1" fill="none" fill-rule="evenodd" sketch:type="MSPage">
        <g id="style2" sketch:type="MSLayerGroup" transform="translate(-19.000000, -12.000000)">
            <g id="Layer_3" transform="translate(19.000000, 12.000000)" sketch:type="MSShapeGroup">
                <g id="Group">
                    <path d="M34.1,22.7 C35.6,22.7 36.8,21.4 36.8,19.8 C36.8,18.2 35.6,16.9 34.1,16.9 C32.6,16.9 31.3,18.1 31.3,19.8 C31.3,21.5 32.6,22.7 34.1,22.7 L34.1,22.7 Z" id="Shape"></path>
                    <path d="M55.6,22.7 C57.1,22.7 58.3,21.4 58.3,19.8 C58.3,18.2 57.1,16.9 55.6,16.9 C54.1,16.9 52.8,18.1 52.8,19.8 C52.8,21.5 54.1,22.7 55.6,22.7 L55.6,22.7 Z" id="Shape"></path>
                    <path d="M2,6 L2,37 L242,37 L242,6 C242,3.8 240.4,2 238.2,2 L5.8,2 C3.6,2 2,3.8 2,6 L2,6 Z M218,32 L209,32 L209,23 L218,23 L218,32 L218,32 Z M214,12 L214,11 L218,11 L218,12 L218,13 L214,13 L214,12 L214,12 Z M205,12 L205,11 L210,11 L210,12 L210,13 L205,13 L205,12 L205,12 Z M196,12 L196,11 L201,11 L201,12 L201,13 L196,13 L196,12 L196,12 Z M183,12 L183,11 L191,11 L191,12 L191,13 L183,13 L183,12 L183,12 Z M177,27 L177,26 L193,26 L193,27 L193,28 L177,28 L177,27 L177,27 Z M151,27 L151,26 L168,26 L168,27 L168,28 L151,28 L151,27 L151,27 Z M128,27 L128,26 L142,26 L142,27 L142,28 L128,28 L128,27 L128,27 Z M105,12 L105,11 L121,11 L121,12 L121,13 L105,13 L105,12 L105,12 Z M104,27 L104,26 L118,26 L118,27 L118,28 L104,28 L104,27 L104,27 Z M93,12 L93,11 L101,11 L101,12 L101,13 L93,13 L93,12 L93,12 Z M73,12 L73,11 L89,11 L89,12 L89,13 L73,13 L73,12 L73,12 Z M55.5,14.8 C58.5,14.8 60.8,16.9 60.8,19.8 C60.8,22.7 58.5,24.8 55.5,24.8 C52.5,24.8 50.2,22.6 50.2,19.8 C50.3,16.9 52.5,14.8 55.5,14.8 L55.5,14.8 Z M45.3,14.8 C46.8,14.8 48.3,15.4 49.3,16.3 L47.9,18 C47.2,17.3 46.2,16.9 45.3,16.9 C43.7,16.9 42.5,18.2 42.5,19.8 C42.5,21.5 43.7,22.7 45.4,22.7 C45.9,22.7 46.1,22.5 47.1,22.2 L47.1,20 L49.1,20 L49.1,23.5 C48.1,24.2 46.5,24.8 45.1,24.8 C42.1,24.8 39.9,22.6 39.9,19.8 C39.8,16.9 42.2,14.8 45.3,14.8 L45.3,14.8 Z M34,14.8 C37,14.8 39.3,16.9 39.3,19.8 C39.3,22.7 37,24.8 34,24.8 C31,24.8 28.7,22.6 28.7,19.8 C28.8,16.9 31,14.8 34,14.8 L34,14.8 Z M22,15 L24,15 L24,23 L28,23 L28,25 L22,25 L22,15 L22,15 Z" id="Shape"></path>
                    <path d="M2,159 C2,161.2 3.6,163 5.8,163 L238.2,163 C240.4,163 242,161.2 242,159 L242,38 L2,38 L2,159 L2,159 Z" id="Shape"></path>
                    <path d="M243,159 C243,161.8 241,164 238.2,164 L5.8,164 C3,164 1,161.8 1,159 L1,38 L0,38 L0,159 C0,162.3 2.7,165 6,165 L238,165 C241.3,165 244,162.3 244,159 L244,38 L243,38 L243,159 L243,159 Z" id="Shape" fill="#000000"></path>
                    <path d="M5.8,1 L5.8,1 L5.8,1 L238.2,1 C241.2,1 244,3 244,6 C244,2.7 241.3,0 238,0 L6,0 C2.7,0 0,2.7 0,6 C0,3 2.8,1 5.8,1 L5.8,1 Z" id="Shape" fill="#000000"></path>
                    <path d="M242,159 C242,161.2 240.4,163 238.2,163 L5.8,163 C3.6,163 2,161.2 2,159 L2,38 L1,38 L1,159 C1,161.8 3.1,164 5.8,164 L238.2,164 C241,164 243,161.8 243,159 L243,38 L242,38 L242,159 L242,159 Z" id="Shape" fill="#000000"></path>
                    <path d="M2,6 C2,3.8 3.6,2 5.8,2 C3.3,2 1,3.5 1,6 L1,37 L2,37 L2,6 L2,6 Z" id="Shape" fill="#000000"></path>
                    <path d="M238.2,2 C240.4,2 242,3.8 242,6 L242,37 L243,37 L243,6 C243,3.5 240.7,2 238.2,2 L238.2,2 Z" id="Shape" fill="#000000"></path>
                    <rect id="Rectangle-path" fill="#000000" x="2" y="37" width="240" height="1"></rect>
                    <path d="M238.2,1 C241,1 243,3.2 243,6 L243,37 L243,38 L244,38 L244,6 C244,3 241.2,1 238.2,1 L238.2,1 Z" id="Shape" fill="#000000"></path>
                    <path d="M1,37 L1,6 C1,3.2 3.1,1 5.8,1 C2.8,1 0,3 0,6 L0,38 L1,38 L1,37 L1,37 Z" id="Shape" fill="#000000"></path>
                    <rect id="Rectangle-path" fill="#000000" x="242" y="37" width="1" height="1"></rect>
                    <path d="M5.8,1 C3,1 1,3.2 1,6 C1,3.5 3.4,2 5.8,2 L238.2,2 C240.7,2 243,3.5 243,6 C243,3.2 241,1 238.2,1 L5.8,1 L5.8,1 L5.8,1 Z" id="Shape" fill="#000000"></path>
                    <rect id="Rectangle-path" fill="#000000" x="1" y="37" width="1" height="1"></rect>
                    <path d="M28,23 L24,23 L24,15 L22,15 L22,25 L28,25 L28,23 Z" id="Shape" fill="#000000"></path>
                    <path d="M34,24.8 C37,24.8 39.3,22.6 39.3,19.8 C39.3,17 37,14.8 34,14.8 C31,14.8 28.7,16.9 28.7,19.8 C28.8,22.6 31,24.8 34,24.8 L34,24.8 Z M34.1,16.8 C35.6,16.8 36.8,18 36.8,19.7 C36.8,21.4 35.6,22.6 34.1,22.6 C32.6,22.6 31.3,21.3 31.3,19.7 C31.3,18.1 32.6,16.8 34.1,16.8 L34.1,16.8 Z" id="Shape" fill="#000000"></path>
                    <path d="M45,24.8 C46.4,24.8 48,24.3 49,23.5 L49,20 L47,20 L47,22.2 C46,22.5 45.8,22.7 45.3,22.7 C43.7,22.7 42.4,21.4 42.4,19.8 C42.4,18.2 43.6,16.9 45.2,16.9 C46.1,16.9 47.1,17.3 47.8,18 L49.2,16.3 C48.2,15.4 46.7,14.8 45.2,14.8 C42.1,14.8 39.8,16.9 39.8,19.8 C39.8,22.6 42,24.8 45,24.8 L45,24.8 Z" id="Shape" fill="#000000"></path>
                    <path d="M55.5,24.8 C58.5,24.8 60.8,22.6 60.8,19.8 C60.8,17 58.5,14.8 55.5,14.8 C52.5,14.8 50.2,16.9 50.2,19.8 C50.3,22.6 52.5,24.8 55.5,24.8 L55.5,24.8 Z M55.6,16.8 C57.1,16.8 58.3,18 58.3,19.7 C58.3,21.4 57.1,22.6 55.6,22.6 C54.1,22.6 52.8,21.3 52.8,19.7 C52.8,18.1 54.1,16.8 55.6,16.8 L55.6,16.8 Z" id="Shape" fill="#000000"></path>
                    <rect id="Rectangle-path" fill="#000000" x="128" y="27" width="14" height="1"></rect>
                    <rect id="Rectangle-path" fill="#000000" x="128" y="26" width="14" height="1"></rect>
                    <rect id="Rectangle-path" fill="#000000" x="104" y="26" width="14" height="1"></rect>
                    <rect id="Rectangle-path" fill="#000000" x="104" y="27" width="14" height="1"></rect>
                    <rect id="Rectangle-path" fill="#000000" x="151" y="26" width="17" height="1"></rect>
                    <rect id="Rectangle-path" fill="#000000" x="151" y="27" width="17" height="1"></rect>
                    <rect id="Rectangle-path" fill="#000000" x="177" y="26" width="16" height="1"></rect>
                    <rect id="Rectangle-path" fill="#000000" x="177" y="27" width="16" height="1"></rect>
                    <rect id="Rectangle-path" fill="#000000" x="209" y="23" width="9" height="9"></rect>
                    <rect id="Rectangle-path" fill="#000000" x="205" y="11" width="5" height="1"></rect>
                    <rect id="Rectangle-path" fill="#000000" x="205" y="12" width="5" height="1"></rect>
                    <rect id="Rectangle-path" fill="#000000" x="196" y="11" width="5" height="1"></rect>
                    <rect id="Rectangle-path" fill="#000000" x="196" y="12" width="5" height="1"></rect>
                    <rect id="Rectangle-path" fill="#000000" x="183" y="11" width="8" height="1"></rect>
                    <rect id="Rectangle-path" fill="#000000" x="183" y="12" width="8" height="1"></rect>
                    <rect id="Rectangle-path" fill="#000000" x="93" y="11" width="8" height="1"></rect>
                    <rect id="Rectangle-path" fill="#000000" x="93" y="12" width="8" height="1"></rect>
                    <rect id="Rectangle-path" fill="#000000" x="214" y="11" width="4" height="1"></rect>
                    <rect id="Rectangle-path" fill="#000000" x="214" y="12" width="4" height="1"></rect>
                    <rect id="Rectangle-path" fill="#000000" x="73" y="12" width="16" height="1"></rect>
                    <rect id="Rectangle-path" fill="#000000" x="73" y="11" width="16" height="1"></rect>
                    <rect id="Rectangle-path" fill="#000000" x="105" y="12" width="16" height="1"></rect>
                    <rect id="Rectangle-path" fill="#000000" x="105" y="11" width="16" height="1"></rect>
                </g>
            </g>
        </g>
    </g>
</svg>