<?xml version="1.0" encoding="UTF-8" standalone="no"?>
<svg width="244px" height="165px" viewBox="0 0 244 165" version="1.1" xmlns="http://www.w3.org/2000/svg" xmlns:xlink="http://www.w3.org/1999/xlink" xmlns:sketch="http://www.bohemiancoding.com/sketch/ns">
    <!-- Generator: Sketch 3.5.2 (25235) - http://www.bohemiancoding.com/sketch -->
    <title>Layer_11</title>
    <desc>Created with Sketch.</desc>
    <defs></defs>
    <g id="Page-1" stroke="none" stroke-width="1" fill="none" fill-rule="evenodd" sketch:type="MSPage">
        <g id="style10" sketch:type="MSLayerGroup" transform="translate(-21.000000, -16.000000)" fill="#000000">
            <g id="Layer_11" transform="translate(21.000000, 16.000000)" sketch:type="MSShapeGroup">
                <g id="Group">
                    <path d="M244,6 C244,2.7 241.3,0 238,0 L6,0 C2.7,0 0,2.7 0,6 L0,159 C0,162.3 2.7,165 6,165 L238,165 C241.3,165 244,162.3 244,159 L244,6 L244,6 Z M2,6 C2,3.8 3.6,2 5.8,2 L238.2,2 C240.4,2 242,3.8 242,6 L242,50 L2,50 L2,6 L2,6 Z M238.2,163 L5.8,163 C3.6,163 2,161.2 2,159 L2,51 L242,51 L242,159 C242,161.2 240.4,163 238.2,163 L238.2,163 Z" id="Shape"></path>
                    <path d="M29,28 L24,28 L24,21 L22,21 L22,31 L29,31 L29,28 Z" id="Shape"></path>
                    <path d="M34.5,20.6 C31.5,20.6 29.2,22.7 29.2,25.6 C29.2,28.5 31.5,30.6 34.5,30.6 C37.5,30.6 39.8,28.4 39.8,25.6 C39.8,22.7 37.5,20.6 34.5,20.6 L34.5,20.6 Z M34.5,28.5 C33,28.5 31.7,27.2 31.7,25.6 C31.7,24 33,22.7 34.5,22.7 C36,22.7 37.2,23.9 37.2,25.6 C37.2,27.3 36,28.5 34.5,28.5 L34.5,28.5 Z" id="Shape"></path>
                    <path d="M50,29.3 L50,26 L47,26 L47,28 C47,28.3 46,28.5 45.5,28.5 C43.9,28.5 42.7,27.2 42.7,25.6 C42.7,24 44,22.7 45.6,22.7 C46.5,22.7 47.5,23.1 48.2,23.8 L49.6,22.1 C48.6,21.2 47.1,20.6 45.6,20.6 C42.5,20.6 40.2,22.7 40.2,25.6 C40.2,28.5 42.7,30.6 45.6,30.6 C47.1,30.6 49,30.1 50,29.3 L50,29.3 Z" id="Shape"></path>
                    <path d="M56,20.6 C53,20.6 50.7,22.7 50.7,25.6 C50.7,28.5 53,30.6 56,30.6 C59,30.6 61.3,28.4 61.3,25.6 C61.3,22.7 59,20.6 56,20.6 L56,20.6 Z M56,28.5 C54.5,28.5 53.2,27.2 53.2,25.6 C53.2,24 54.5,22.7 56,22.7 C57.5,22.7 58.7,23.9 58.7,25.6 C58.7,27.3 57.5,28.5 56,28.5 L56,28.5 Z" id="Shape"></path>
                    <rect id="Rectangle-path" x="21" y="39" width="14" height="2"></rect>
                    <rect id="Rectangle-path" x="44" y="39" width="17" height="2"></rect>
                    <rect id="Rectangle-path" x="70" y="39" width="16" height="2"></rect>
                    <rect id="Rectangle-path" x="96" y="39" width="16" height="2"></rect>
                    <rect id="Rectangle-path" x="190" y="11" width="5" height="2"></rect>
                    <rect id="Rectangle-path" x="200" y="11" width="5" height="2"></rect>
                    <rect id="Rectangle-path" x="210" y="11" width="5" height="2"></rect>
                    <rect id="Rectangle-path" x="210" y="28" width="5" height="2"></rect>
                    <rect id="Rectangle-path" x="103" y="26" width="54" height="1"></rect>
                    <path d="M180,33 L203,33 L203,25 L180,25 L180,33 L180,33 Z M181,26 L202,26 L202,32 L181,32 L181,26 L181,26 Z" id="Shape"></path>
                    <rect id="Rectangle-path" x="23" y="11" width="5" height="2"></rect>
                    <rect id="Rectangle-path" x="33" y="11" width="5" height="2"></rect>
                    <rect id="Rectangle-path" x="44" y="11" width="5" height="2"></rect>
                </g>
            </g>
        </g>
    </g>
</svg>