<?xml version="1.0" encoding="UTF-8" standalone="no"?>
<svg width="244px" height="165px" viewBox="0 0 244 165" version="1.1" xmlns="http://www.w3.org/2000/svg" xmlns:xlink="http://www.w3.org/1999/xlink" xmlns:sketch="http://www.bohemiancoding.com/sketch/ns">
    <!-- Generator: Sketch 3.5.2 (25235) - http://www.bohemiancoding.com/sketch -->
    <title>Layer_7</title>
    <desc>Created with Sketch.</desc>
    <defs></defs>
    <g id="Page-1" stroke="none" stroke-width="1" fill="none" fill-rule="evenodd" sketch:type="MSPage">
        <g id="style6" sketch:type="MSLayerGroup" transform="translate(-21.000000, -16.000000)" fill="#000000">
            <g id="Layer_7" transform="translate(21.000000, 16.000000)" sketch:type="MSShapeGroup">
                <g id="Group">
                    <path d="M244,6 C244,2.7 241.3,0 238,0 L6,0 C2.7,0 0,2.7 0,6 L0,159 C0,162.3 2.7,165 6,165 L238,165 C241.3,165 244,162.3 244,159 L244,6 L244,6 Z M242,159 C242,161.2 240.2,163 238,163 L6,163 C3.8,163 2,161.2 2,159 L2,6 C2,3.8 3.8,2 6,2 L238,2 C240.2,2 242,3.8 242,6 L242,159 L242,159 Z" id="Shape"></path>
                    <path d="M24,17 L22,17 L22,27 L28,27 L28,25 L24,25 L24,17 Z" id="Shape"></path>
                    <path d="M34,16.8 C31,16.8 28.7,18.9 28.7,21.8 C28.7,24.7 31,26.8 34,26.8 C37,26.8 39.3,24.6 39.3,21.8 C39.4,18.9 37.1,16.8 34,16.8 L34,16.8 Z M34.1,24.7 C32.6,24.7 31.3,23.4 31.3,21.8 C31.3,20.2 32.6,18.9 34.1,18.9 C35.6,18.9 36.8,20.1 36.8,21.8 C36.8,23.5 35.6,24.7 34.1,24.7 L34.1,24.7 Z" id="Shape"></path>
                    <path d="M45.2,18.8 C46.1,18.8 47.1,19.2 47.8,19.9 L49.2,18.2 C48.2,17.3 46.7,16.7 45.2,16.7 C42.1,16.7 39.8,18.8 39.8,21.7 C39.8,24.6 42,26.7 45,26.7 C46.4,26.7 48,26.2 49,25.4 L49,22 L47,22 L47,24.2 C46,24.5 45.8,24.7 45.3,24.7 C43.7,24.7 42.4,23.4 42.4,21.8 C42.4,20.1 43.6,18.8 45.2,18.8 L45.2,18.8 Z" id="Shape"></path>
                    <path d="M55.5,16.8 C52.5,16.8 50.2,18.9 50.2,21.8 C50.2,24.7 52.5,26.8 55.5,26.8 C58.5,26.8 60.8,24.6 60.8,21.8 C60.9,18.9 58.6,16.8 55.5,16.8 L55.5,16.8 Z M55.6,24.7 C54.1,24.7 52.8,23.4 52.8,21.8 C52.8,20.2 54.1,18.9 55.6,18.9 C57.1,18.9 58.3,20.1 58.3,21.8 C58.3,23.5 57.1,24.7 55.6,24.7 L55.6,24.7 Z" id="Shape"></path>
                    <rect id="Rectangle-path" x="128" y="28" width="14" height="2"></rect>
                    <rect id="Rectangle-path" x="104" y="28" width="14" height="2"></rect>
                    <rect id="Rectangle-path" x="151" y="28" width="17" height="2"></rect>
                    <rect id="Rectangle-path" x="177" y="28" width="16" height="2"></rect>
                    <rect id="Rectangle-path" x="208" y="25" width="9" height="8"></rect>
                    <rect id="Rectangle-path" x="204" y="14" width="5" height="2"></rect>
                    <rect id="Rectangle-path" x="195" y="14" width="5" height="2"></rect>
                    <rect id="Rectangle-path" x="161" y="14" width="8" height="2"></rect>
                    <rect id="Rectangle-path" x="148" y="14" width="8" height="2"></rect>
                    <rect id="Rectangle-path" x="213" y="14" width="4" height="2"></rect>
                    <rect id="Rectangle-path" x="127" y="14" width="16" height="2"></rect>
                    <rect id="Rectangle-path" x="174" y="14" width="16" height="2"></rect>
                </g>
            </g>
        </g>
    </g>
</svg>