<?xml version="1.0" encoding="UTF-8" standalone="no"?>
<svg width="244px" height="165px" viewBox="0 0 244 165" version="1.1" xmlns="http://www.w3.org/2000/svg" xmlns:xlink="http://www.w3.org/1999/xlink" xmlns:sketch="http://www.bohemiancoding.com/sketch/ns">
    <!-- Generator: Sketch 3.5.2 (25235) - http://www.bohemiancoding.com/sketch -->
    <title>Layer_10</title>
    <desc>Created with Sketch.</desc>
    <defs></defs>
    <g id="Page-1" stroke="none" stroke-width="1" fill="none" fill-rule="evenodd" sketch:type="MSPage">
        <g id="style9" sketch:type="MSLayerGroup" transform="translate(-21.000000, -16.000000)" fill="#000000">
            <g id="Layer_10" transform="translate(21.000000, 16.000000)" sketch:type="MSShapeGroup">
                <g id="Group">
                    <path d="M244,6 C244,2.7 241.3,0 238,0 L6,0 C2.7,0 0,2.7 0,6 L0,159 C0,162.3 2.7,165 6,165 L238,165 C241.3,165 244,162.3 244,159 L244,6 L244,6 Z M2,6 C2,3.8 3.6,2 5.8,2 L238.2,2 C240.4,2 242,3.8 242,6 L242,50 L2,50 L2,6 L2,6 Z M238.2,163 L5.8,163 C3.6,163 2,161.2 2,159 L2,51 L242,51 L242,159 C242,161.2 240.4,163 238.2,163 L238.2,163 Z" id="Shape"></path>
                    <path d="M107,22 L107,32 L113,32 L113,29 L109,29 L109,22 L107,22 Z" id="Shape"></path>
                    <path d="M124.4,26.6 C124.4,23.8 122.1,21.6 119.1,21.6 C116.1,21.6 113.8,23.7 113.8,26.6 C113.8,29.5 116.1,31.6 119.1,31.6 C122.1,31.6 124.4,29.4 124.4,26.6 L124.4,26.6 Z M116.3,26.6 C116.3,24.9 117.6,23.7 119.1,23.7 C120.6,23.7 121.8,24.9 121.8,26.6 C121.8,28.3 120.6,29.5 119.1,29.5 C117.6,29.5 116.3,28.3 116.3,26.6 L116.3,26.6 Z" id="Shape"></path>
                    <path d="M130.2,23.7 C131.1,23.7 132.1,24.1 132.8,24.8 L134.2,23.1 C133.2,22.2 131.7,21.6 130.2,21.6 C127.1,21.6 124.8,23.7 124.8,26.6 C124.8,29.5 127,31.6 130,31.6 C131.4,31.6 133,31.1 134,30.3 L134,27 L132,27 L132,29 C131,29.3 130.8,29.5 130.3,29.5 C128.7,29.5 127.4,28.2 127.4,26.6 C127.4,25 128.6,23.7 130.2,23.7 L130.2,23.7 Z" id="Shape"></path>
                    <path d="M145.9,26.6 C145.9,23.8 143.6,21.6 140.6,21.6 C137.6,21.6 135.3,23.7 135.3,26.6 C135.3,29.5 137.6,31.6 140.6,31.6 C143.6,31.6 145.9,29.4 145.9,26.6 L145.9,26.6 Z M137.8,26.6 C137.8,24.9 139.1,23.7 140.6,23.7 C142.1,23.7 143.3,24.9 143.3,26.6 C143.3,28.3 142.1,29.5 140.6,29.5 C139.1,29.5 137.8,28.3 137.8,26.6 L137.8,26.6 Z" id="Shape"></path>
                    <rect id="Rectangle-path" x="83" y="41" width="14" height="2"></rect>
                    <rect id="Rectangle-path" x="106" y="41" width="17" height="2"></rect>
                    <rect id="Rectangle-path" x="132" y="41" width="16" height="2"></rect>
                    <rect id="Rectangle-path" x="156" y="41" width="16" height="2"></rect>
                    <rect id="Rectangle-path" x="23" y="11" width="5" height="2"></rect>
                    <rect id="Rectangle-path" x="33" y="11" width="5" height="2"></rect>
                    <rect id="Rectangle-path" x="44" y="11" width="5" height="2"></rect>
                    <rect id="Rectangle-path" x="22" y="34" width="198" height="1"></rect>
                    <rect id="Rectangle-path" x="22" y="17" width="198" height="1"></rect>
                    <path d="M22,23 L22,31 L66,31 L66,23 L22,23 L22,23 Z M65,30 L23,30 L23,24 L65,24 L65,30 L65,30 Z" id="Shape"></path>
                    <rect id="Rectangle-path" x="203" y="11" width="6" height="2"></rect>
                    <rect id="Rectangle-path" x="215" y="11" width="5" height="2"></rect>
                    <rect id="Rectangle-path" x="212" y="25" width="5" height="2"></rect>
                    <rect id="Rectangle-path" x="211" y="38" width="8" height="8"></rect>
                </g>
            </g>
        </g>
    </g>
</svg>