<?xml version="1.0" encoding="UTF-8" standalone="no"?>
<svg width="244px" height="165px" viewBox="0 0 244 165" version="1.1" xmlns="http://www.w3.org/2000/svg" xmlns:xlink="http://www.w3.org/1999/xlink" xmlns:sketch="http://www.bohemiancoding.com/sketch/ns">
    <!-- Generator: Sketch 3.5.2 (25235) - http://www.bohemiancoding.com/sketch -->
    <title>Layer_6</title>
    <desc>Created with Sketch.</desc>
    <defs></defs>
    <g id="Page-1" stroke="none" stroke-width="1" fill="none" fill-rule="evenodd" sketch:type="MSPage">
        <g id="style5" sketch:type="MSLayerGroup" transform="translate(-21.000000, -16.000000)" fill="#000000">
            <g id="Layer_6" transform="translate(21.000000, 16.000000)" sketch:type="MSShapeGroup">
                <g id="Group">
                    <path d="M244,6 C244,2.7 241.3,0 238,0 L6,0 C2.7,0 0,2.7 0,6 L0,159 C0,162.3 2.7,165 6,165 L238,165 C241.3,165 244,162.3 244,159 L244,6 L244,6 Z M2,6 C2,3.8 3.6,2 5.8,2 L238.2,2 C240.4,2 242,3.8 242,6 L242,37 L2,37 L2,6 L2,6 Z M238.2,163 L5.8,163 C3.6,163 2,161.2 2,159 L2,38 L242,38 L242,159 C242,161.2 240.4,163 238.2,163 L238.2,163 Z" id="Shape"></path>
                    <path d="M24,15 L22,15 L22,25 L28,25 L28,23 L24,23 L24,15 Z" id="Shape"></path>
                    <path d="M34,14.8 C31,14.8 28.7,16.9 28.7,19.8 C28.7,22.7 31,24.8 34,24.8 C37,24.8 39.3,22.6 39.3,19.8 C39.4,16.9 37.1,14.8 34,14.8 L34,14.8 Z M34.1,22.7 C32.6,22.7 31.3,21.4 31.3,19.8 C31.3,18.2 32.6,16.9 34.1,16.9 C35.6,16.9 36.8,18.1 36.8,19.8 C36.8,21.5 35.6,22.7 34.1,22.7 L34.1,22.7 Z" id="Shape"></path>
                    <path d="M45.2,16.8 C46.1,16.8 47.1,17.2 47.8,17.9 L49.2,16.2 C48.2,15.3 46.7,14.7 45.2,14.7 C42.1,14.7 39.8,16.8 39.8,19.7 C39.8,22.6 42,24.7 45,24.7 C46.4,24.7 48,24.2 49,23.4 L49,20 L47,20 L47,22.2 C46,22.5 45.8,22.7 45.3,22.7 C43.7,22.7 42.4,21.4 42.4,19.8 C42.4,18.1 43.6,16.8 45.2,16.8 L45.2,16.8 Z" id="Shape"></path>
                    <path d="M55.5,14.8 C52.5,14.8 50.2,16.9 50.2,19.8 C50.2,22.7 52.5,24.8 55.5,24.8 C58.5,24.8 60.8,22.6 60.8,19.8 C60.9,16.9 58.6,14.8 55.5,14.8 L55.5,14.8 Z M55.6,22.7 C54.1,22.7 52.8,21.4 52.8,19.8 C52.8,18.2 54.1,16.9 55.6,16.9 C57.1,16.9 58.3,18.1 58.3,19.8 C58.3,21.5 57.1,22.7 55.6,22.7 L55.6,22.7 Z" id="Shape"></path>
                    <rect id="Rectangle-path" x="128" y="26" width="14" height="2"></rect>
                    <rect id="Rectangle-path" x="104" y="26" width="14" height="2"></rect>
                    <rect id="Rectangle-path" x="151" y="26" width="17" height="2"></rect>
                    <rect id="Rectangle-path" x="178" y="26" width="16" height="2"></rect>
                    <rect id="Rectangle-path" x="176" y="12" width="5" height="2"></rect>
                    <rect id="Rectangle-path" x="165" y="12" width="5" height="2"></rect>
                    <rect id="Rectangle-path" x="186" y="12" width="5" height="2"></rect>
                    <rect id="Rectangle-path" x="210" y="12" width="8" height="2"></rect>
                    <rect id="Rectangle-path" x="197" y="12" width="8" height="2"></rect>
                    <rect id="Rectangle-path" x="210" y="23" width="8" height="8"></rect>
                </g>
            </g>
        </g>
    </g>
</svg>