<?xml version="1.0" encoding="UTF-8" standalone="no"?>
<svg width="244px" height="165px" viewBox="0 0 244 165" version="1.1" xmlns="http://www.w3.org/2000/svg" xmlns:xlink="http://www.w3.org/1999/xlink" xmlns:sketch="http://www.bohemiancoding.com/sketch/ns">
    <!-- Generator: Sketch 3.5.2 (25235) - http://www.bohemiancoding.com/sketch -->
    <title>Layer_8</title>
    <desc>Created with Sketch.</desc>
    <defs></defs>
    <g id="Page-1" stroke="none" stroke-width="1" fill="none" fill-rule="evenodd" sketch:type="MSPage">
        <g id="style7" sketch:type="MSLayerGroup" transform="translate(-21.000000, -16.000000)">
            <g id="Layer_8" transform="translate(21.000000, 16.000000)" sketch:type="MSShapeGroup">
                <g id="Group">
                    <path d="M55.6,32.1 C54.1,32.1 52.8,33.3 52.8,35 C52.8,36.7 54.1,37.9 55.6,37.9 C57.1,37.9 58.3,36.6 58.3,35 C58.3,33.4 57.1,32.1 55.6,32.1 L55.6,32.1 Z" id="Shape"></path>
                    <path d="M242,6 C242,3.8 240.2,2 238,2 L6,2 C3.8,2 2,3.8 2,6 L2,159 C2,161.2 3.8,163 6,163 L238,163 C240.2,163 242,161.2 242,159 L242,6 L242,6 Z M215,15 L215,14 L220,14 L220,15 L220,16 L215,16 L215,15 L215,15 Z M205,15 L205,14 L210,14 L210,15 L210,16 L205,16 L205,15 L205,15 Z M192,15 L192,14 L200,14 L200,15 L200,16 L192,16 L192,15 L192,15 Z M40,15 L40,14 L44,14 L44,15 L44,16 L40,16 L40,15 L40,15 Z M31,15 L31,14 L36,14 L36,15 L36,16 L31,16 L31,15 L31,15 Z M22,15 L22,14 L27,14 L27,15 L27,16 L22,16 L22,15 L22,15 Z M22,24 L220,24 L220,25 L22,25 L22,24 L22,24 Z M28,40 L22,40 L22,30 L24,30 L24,38 L28,38 L28,40 L28,40 Z M34,40 C31,40 28.7,37.8 28.7,35 C28.7,32.1 31,30 34,30 C37,30 39.3,32.1 39.3,35 C39.4,37.9 37.1,40 34,40 L34,40 Z M45.3,37.9 C45.8,37.9 46,37.7 47,37.4 L47,35 L49,35 L49,38.7 C48,39.4 46.4,40 45,40 C42,40 39.8,37.8 39.8,35 C39.8,32.2 42.1,30 45.2,30 C46.7,30 48.2,30.6 49.2,31.5 L47.8,33.2 C47.1,32.5 46.1,32.1 45.2,32.1 C43.6,32.1 42.4,33.4 42.4,35 C42.4,36.7 43.6,37.9 45.3,37.9 L45.3,37.9 Z M55.5,40 C52.5,40 50.2,37.8 50.2,35 C50.2,32.1 52.5,30 55.5,30 C58.5,30 60.8,32.1 60.8,35 C60.9,37.9 58.6,40 55.5,40 L55.5,40 Z M88,34 L88,35 L72,35 L72,34 L72,33 L88,33 L88,34 L88,34 Z M109,34 L109,35 L95,35 L95,34 L95,33 L109,33 L109,34 L109,34 Z M135,34 L135,35 L118,35 L118,34 L118,33 L135,33 L135,34 L135,34 Z M158,34 L158,35 L142,35 L142,34 L142,33 L158,33 L158,34 L158,34 Z M200,34 L200,35 L192,35 L192,34 L192,33 L200,33 L200,34 L200,34 Z M220,38 L211,38 L211,30 L220,30 L220,38 L220,38 Z" id="Shape"></path>
                    <path d="M34.1,32.1 C32.6,32.1 31.3,33.3 31.3,35 C31.3,36.7 32.6,37.9 34.1,37.9 C35.6,37.9 36.8,36.6 36.8,35 C36.8,33.4 35.6,32.1 34.1,32.1 L34.1,32.1 Z" id="Shape"></path>
                    <path d="M244,6 C244,2.7 241.3,0 238,0 L6,0 C2.7,0 0,2.7 0,6 L0,159 C0,162.3 2.7,165 6,165 L238,165 C241.3,165 244,162.3 244,159 L244,6 L244,6 Z M242,159 C242,161.2 240.2,163 238,163 L6,163 C3.8,163 2,161.2 2,159 L2,6 C2,3.8 3.8,2 6,2 L238,2 C240.2,2 242,3.8 242,6 L242,159 L242,159 Z" id="Shape" fill="#000000"></path>
                    <path d="M24,30 L22,30 L22,40 L28,40 L28,38 L24,38 L24,30 Z" id="Shape" fill="#000000"></path>
                    <path d="M34,30 C31,30 28.7,32.1 28.7,35 C28.7,37.9 31,40 34,40 C37,40 39.3,37.8 39.3,35 C39.4,32.1 37.1,30 34,30 L34,30 Z M34.1,37.9 C32.6,37.9 31.3,36.6 31.3,35 C31.3,33.4 32.6,32.1 34.1,32.1 C35.6,32.1 36.8,33.3 36.8,35 C36.8,36.7 35.6,37.9 34.1,37.9 L34.1,37.9 Z" id="Shape" fill="#000000"></path>
                    <path d="M45.2,32.1 C46.1,32.1 47.1,32.5 47.8,33.2 L49.2,31.5 C48.2,30.6 46.7,30 45.2,30 C42.1,30 39.8,32.1 39.8,35 C39.8,37.9 42,40 45,40 C46.4,40 48,39.5 49,38.7 L49,35 L47,35 L47,37.5 C46,37.8 45.8,38 45.3,38 C43.7,38 42.4,36.7 42.4,35.1 C42.4,33.4 43.6,32.1 45.2,32.1 L45.2,32.1 Z" id="Shape" fill="#000000"></path>
                    <path d="M55.5,30 C52.5,30 50.2,32.1 50.2,35 C50.2,37.9 52.5,40 55.5,40 C58.5,40 60.8,37.8 60.8,35 C60.9,32.1 58.6,30 55.5,30 L55.5,30 Z M55.6,37.9 C54.1,37.9 52.8,36.6 52.8,35 C52.8,33.4 54.1,32.1 55.6,32.1 C57.1,32.1 58.3,33.3 58.3,35 C58.3,36.7 57.1,37.9 55.6,37.9 L55.6,37.9 Z" id="Shape" fill="#000000"></path>
                    <rect id="Rectangle-path" fill="#000000" x="22" y="24" width="198" height="1"></rect>
                    <rect id="Rectangle-path" fill="#000000" x="95" y="34" width="14" height="1"></rect>
                    <rect id="Rectangle-path" fill="#000000" x="95" y="33" width="14" height="1"></rect>
                    <rect id="Rectangle-path" fill="#000000" x="118" y="33" width="17" height="1"></rect>
                    <rect id="Rectangle-path" fill="#000000" x="118" y="34" width="17" height="1"></rect>
                    <rect id="Rectangle-path" fill="#000000" x="142" y="34" width="16" height="1"></rect>
                    <rect id="Rectangle-path" fill="#000000" x="142" y="33" width="16" height="1"></rect>
                    <rect id="Rectangle-path" fill="#000000" x="205" y="14" width="5" height="1"></rect>
                    <rect id="Rectangle-path" fill="#000000" x="205" y="15" width="5" height="1"></rect>
                    <rect id="Rectangle-path" fill="#000000" x="215" y="15" width="5" height="1"></rect>
                    <rect id="Rectangle-path" fill="#000000" x="215" y="14" width="5" height="1"></rect>
                    <rect id="Rectangle-path" fill="#000000" x="31" y="14" width="5" height="1"></rect>
                    <rect id="Rectangle-path" fill="#000000" x="31" y="15" width="5" height="1"></rect>
                    <rect id="Rectangle-path" fill="#000000" x="22" y="15" width="5" height="1"></rect>
                    <rect id="Rectangle-path" fill="#000000" x="22" y="14" width="5" height="1"></rect>
                    <rect id="Rectangle-path" fill="#000000" x="40" y="14" width="4" height="1"></rect>
                    <rect id="Rectangle-path" fill="#000000" x="40" y="15" width="4" height="1"></rect>
                    <rect id="Rectangle-path" fill="#000000" x="192" y="15" width="8" height="1"></rect>
                    <rect id="Rectangle-path" fill="#000000" x="192" y="14" width="8" height="1"></rect>
                    <rect id="Rectangle-path" fill="#000000" x="192" y="33" width="8" height="1"></rect>
                    <rect id="Rectangle-path" fill="#000000" x="192" y="34" width="8" height="1"></rect>
                    <rect id="Rectangle-path" fill="#000000" x="211" y="30" width="9" height="8"></rect>
                    <rect id="Rectangle-path" fill="#000000" x="72" y="33" width="16" height="1"></rect>
                    <rect id="Rectangle-path" fill="#000000" x="72" y="34" width="16" height="1"></rect>
                </g>
            </g>
        </g>
    </g>
</svg>