<?xml version="1.0" encoding="UTF-8" standalone="no"?>
<svg width="244px" height="165px" viewBox="0 0 244 165" version="1.1" xmlns="http://www.w3.org/2000/svg" xmlns:xlink="http://www.w3.org/1999/xlink" xmlns:sketch="http://www.bohemiancoding.com/sketch/ns">
    <!-- Generator: Sketch 3.5.2 (25235) - http://www.bohemiancoding.com/sketch -->
    <title>Layer_9</title>
    <desc>Created with Sketch.</desc>
    <defs></defs>
    <g id="Page-1" stroke="none" stroke-width="1" fill="none" fill-rule="evenodd" sketch:type="MSPage">
        <g id="style8" sketch:type="MSLayerGroup" transform="translate(-21.000000, -16.000000)">
            <g id="Layer_9" transform="translate(21.000000, 16.000000)" sketch:type="MSShapeGroup">
                <g id="Group">
                    <path d="M55.6,21.8 C57.1,21.8 58.3,20.5 58.3,18.9 C58.3,17.2 57.1,16 55.6,16 C54.1,16 52.8,17.2 52.8,18.9 C52.8,20.6 54.1,21.8 55.6,21.8 L55.6,21.8 Z" id="Shape"></path>
                    <path d="M34.1,16 C32.6,16 31.3,17.2 31.3,18.9 C31.3,20.6 32.6,21.8 34.1,21.8 C35.6,21.8 36.8,20.5 36.8,18.9 C36.8,17.3 35.6,16 34.1,16 L34.1,16 Z" id="Shape"></path>
                    <path d="M242,6 C242,3.8 240.4,2 238.2,2 L5.8,2 C3.6,2 2,3.8 2,6 L2,42 L242,42 L242,6 L242,6 Z M215,23 L215,22 L220,22 L220,23 L220,24 L215,24 L215,23 L215,23 Z M207,16 L207,15 L214,15 L214,16 L214,17 L207,17 L207,16 L207,16 Z M198,16 L198,15 L205,15 L205,16 L205,17 L198,17 L198,16 L198,16 Z M55.5,13.9 C58.5,13.9 60.8,16 60.8,18.9 C60.8,21.8 58.5,23.9 55.5,23.9 C52.5,23.9 50.2,21.7 50.2,18.9 C50.3,16 52.5,13.9 55.5,13.9 L55.5,13.9 Z M22,14 L24,14 L24,22 L28,22 L28,24 L22,24 L22,14 L22,14 Z M35,35 L35,36 L21,36 L21,35 L21,34 L35,34 L35,35 L35,35 Z M34,23.9 C31,23.9 28.7,21.7 28.7,18.9 C28.7,16 31,13.9 34,13.9 C37,13.9 39.3,16 39.3,18.9 C39.4,21.8 37.1,23.9 34,23.9 L34,23.9 Z M39.8,18.9 C39.8,16.1 42.1,13.9 45.2,13.9 C46.7,13.9 48.2,14.5 49.2,15.4 L47.8,17.1 C47.1,16.4 46.1,16 45.2,16 C43.6,16 42.4,17.3 42.4,18.9 C42.4,20.6 43.6,21.8 45.3,21.8 C45.8,21.8 46,21.6 47,21.3 L47,19 L49,19 L49,22.6 C48,23.3 46.4,23.9 45,23.9 C42,23.9 39.8,21.8 39.8,18.9 L39.8,18.9 Z M61,35 L61,36 L44,36 L44,35 L44,34 L61,34 L61,35 L61,35 Z M86,35 L86,36 L70,36 L70,35 L70,34 L86,34 L86,35 L86,35 Z M110,35 L110,36 L94,36 L94,35 L94,34 L110,34 L110,35 L110,35 Z M126,24 L83,24 L83,14 L126,14 L126,24 L126,24 Z M205,34 L205,35 L195,35 L195,34 L195,33 L205,33 L205,34 L205,34 Z M209,23 L209,24 L204,24 L204,23 L204,22 L209,22 L209,23 L209,23 Z M222,38 L213,38 L213,30 L222,30 L222,38 L222,38 Z M222,16 L222,17 L218,17 L218,16 L218,15 L222,15 L222,16 L222,16 Z" id="Shape"></path>
                    <rect id="Rectangle-path" x="84" y="15" width="41" height="8"></rect>
                    <path d="M2,159 C2,161.2 3.6,163 5.8,163 L238.2,163 C240.4,163 242,161.2 242,159 L242,43 L2,43 L2,159 L2,159 Z" id="Shape"></path>
                    <path d="M5.8,2 L238.2,2 C240.4,2 242,3.8 242,6 L242,42 L243,42 L243,5.5 C243,3 240.7,1 238.2,1 L5.8,1 C3.3,1 1,3 1,5.5 L1,42 L2,42 L2,6 C2,3.8 3.6,2 5.8,2 L5.8,2 Z" id="Shape" fill="#000000"></path>
                    <path d="M244,6 C244,2.7 241.3,0 238,0 L6,0 C2.7,0 0,2.7 0,6 L0,159 C0,162.3 2.7,165 6,165 L238,165 C241.3,165 244,162.3 244,159 L244,6 L244,6 Z M244,43 L242,43 L242,159 C242,161.2 240.4,163 238.2,163 L5.8,163 C3.6,163 2,161.2 2,159 L2,43 L0,43 L0,5.5 C0,2.5 2.8,0 5.8,0 L238.2,0 C241.2,0 244,2.5 244,5.5 L244,43 L244,43 Z" id="Shape" fill="#000000"></path>
                    <path d="M28,22 L24,22 L24,14 L22,14 L22,24 L28,24 L28,22 Z" id="Shape" fill="#000000"></path>
                    <path d="M34,13.9 C31,13.9 28.7,16 28.7,18.9 C28.7,21.8 31,23.9 34,23.9 C37,23.9 39.3,21.7 39.3,18.9 C39.4,16.1 37.1,13.9 34,13.9 L34,13.9 Z M34.1,21.8 C32.6,21.8 31.3,20.5 31.3,18.9 C31.3,17.2 32.6,16 34.1,16 C35.6,16 36.8,17.2 36.8,18.9 C36.8,20.6 35.6,21.8 34.1,21.8 L34.1,21.8 Z" id="Shape" fill="#000000"></path>
                    <path d="M49,22.6 L49,19 L47,19 L47,21.4 C46,21.7 45.8,21.9 45.3,21.9 C43.7,21.9 42.4,20.6 42.4,19 C42.4,17.4 43.6,16.1 45.2,16.1 C46.1,16.1 47.1,16.5 47.8,17.2 L49.2,15.5 C48.2,14.6 46.7,14 45.2,14 C42.1,14 39.8,16.1 39.8,19 C39.8,21.9 42,24 45,24 C46.4,23.9 48,23.4 49,22.6 L49,22.6 Z" id="Shape" fill="#000000"></path>
                    <path d="M55.5,23.9 C58.5,23.9 60.8,21.7 60.8,18.9 C60.8,16.1 58.5,13.9 55.5,13.9 C52.5,13.9 50.2,16 50.2,18.9 C50.3,21.8 52.5,23.9 55.5,23.9 L55.5,23.9 Z M55.6,16 C57.1,16 58.3,17.2 58.3,18.9 C58.3,20.6 57.1,21.8 55.6,21.8 C54.1,21.8 52.8,20.5 52.8,18.9 C52.8,17.3 54.1,16 55.6,16 L55.6,16 Z" id="Shape" fill="#000000"></path>
                    <rect id="Rectangle-path" fill="#000000" x="21" y="34" width="14" height="1"></rect>
                    <rect id="Rectangle-path" fill="#000000" x="21" y="35" width="14" height="1"></rect>
                    <rect id="Rectangle-path" fill="#000000" x="44" y="34" width="17" height="1"></rect>
                    <rect id="Rectangle-path" fill="#000000" x="44" y="35" width="17" height="1"></rect>
                    <rect id="Rectangle-path" fill="#000000" x="70" y="34" width="16" height="1"></rect>
                    <rect id="Rectangle-path" fill="#000000" x="70" y="35" width="16" height="1"></rect>
                    <rect id="Rectangle-path" fill="#000000" x="94" y="34" width="16" height="1"></rect>
                    <rect id="Rectangle-path" fill="#000000" x="94" y="35" width="16" height="1"></rect>
                    <rect id="Rectangle-path" fill="#000000" x="204" y="23" width="5" height="1"></rect>
                    <rect id="Rectangle-path" fill="#000000" x="204" y="22" width="5" height="1"></rect>
                    <rect id="Rectangle-path" fill="#000000" x="215" y="22" width="5" height="1"></rect>
                    <rect id="Rectangle-path" fill="#000000" x="215" y="23" width="5" height="1"></rect>
                    <rect id="Rectangle-path" fill="#000000" x="195" y="33" width="10" height="1"></rect>
                    <rect id="Rectangle-path" fill="#000000" x="195" y="34" width="10" height="1"></rect>
                    <path d="M83,24 L126,24 L126,14 L83,14 L83,24 L83,24 Z M84,15 L125,15 L125,23 L84,23 L84,15 L84,15 Z" id="Shape" fill="#000000"></path>
                    <rect id="Rectangle-path" fill="#000000" x="213" y="30" width="9" height="8"></rect>
                    <rect id="Rectangle-path" fill="#000000" x="207" y="15" width="7" height="1"></rect>
                    <rect id="Rectangle-path" fill="#000000" x="207" y="16" width="7" height="1"></rect>
                    <rect id="Rectangle-path" fill="#000000" x="198" y="16" width="7" height="1"></rect>
                    <rect id="Rectangle-path" fill="#000000" x="198" y="15" width="7" height="1"></rect>
                    <rect id="Rectangle-path" fill="#000000" x="218" y="15" width="4" height="1"></rect>
                    <rect id="Rectangle-path" fill="#000000" x="218" y="16" width="4" height="1"></rect>
                    <rect id="Rectangle-path" fill="#000000" x="2" y="42" width="240" height="1"></rect>
                    <path d="M238.2,0 L5.8,0 C2.8,0 0,2.5 0,5.5 L0,43 L2,43 L2,42 L1,42 L1,5.5 C1,3 3.3,1 5.8,1 L238.2,1 C240.7,1 243,3 243,5.5 L243,42 L242,42 L242,43 L244,43 L244,5.5 C244,2.5 241.2,0 238.2,0 L238.2,0 Z" id="Shape" fill="#000000"></path>
                </g>
            </g>
        </g>
    </g>
</svg>