<svg xmlns="http://www.w3.org/2000/svg" xmlns:xlink="http://www.w3.org/1999/xlink" version="1.1" id="Layer_1" x="0px" y="0px" width="16px" height="16px" viewBox="0 0 24 24" enable-background="new 0 0 24 24" xml:space="preserve">
<path class="path" d="M5.597 1.999C6.4 2 8 2 8.1 5.51C8.017 6.1 7.8 6.3 7.5 6.658C7.12 7.1 6.4 7.9 6.4 9.2 c0 1.5 1 3.1 3.1 5.198c1.143 1.2 3.3 3.1 4.8 3.123c1.222 0 1.856-0.836 2.128-1.192 c0.18-0.236 0.284-0.373 0.862-0.468h0.055c3.91 0 4.6 0.8 4.6 2.476c0 0.358-0.151 1.891-0.893 2.8 c-0.297 0.382-1.161 0.789-2.695 0.789c-3.012 0-7.658-1.598-11.249-5.162C2.085 11.7 2 4.7 2 4.6 C2.021 2.2 4.8 2 5.6 2 M5.598-0.001c-0.385 0-5.578 0.084-5.578 4.624c0 0-0.041 7.8 5.8 13.6 c3.825 3.8 8.9 5.7 12.7 5.747c1.914 0 3.46-0.515 4.273-1.56c1.314-1.688 1.314-4.07 1.314-4.07 c0-4.618-4.734-4.47-6.801-4.476c-2.345 0.324-2.198 1.66-2.843 1.66c-0.187 0-1.32-0.393-3.409-2.523 c-2.106-2.085-2.527-3.234-2.527-3.797c0-1.265 1.396-1.328 1.662-3.602c-0.004-1.028-0.011-5.563-4.482-5.632 C5.621-0.001 5.613-0.001 5.598-0.001L5.598-0.001z"/>
</svg>
