<svg xmlns="http://www.w3.org/2000/svg" xmlns:xlink="http://www.w3.org/1999/xlink" version="1.1" id="Layer_1" x="0px" y="0px" width="16px" height="16px" viewBox="0 0 24 24" enable-background="new 0 0 24 24" xml:space="preserve">
<g>
	<path class="path" d="M14.415 0H6v10h1h11V3.585L14.415 0z M16 8H8V2h5.586L16 4.413V8z"/>
	<path class="path" d="M15.001 14.001H8.999C7.343 14 6 15.3 6 17v7h1c0.469 0 0.9 0 2 0h6.002c1.104 0 1.6 0 2 0h1v-7 C18 15.3 16.7 14 15 14.001z M16 22c-0.264 0-0.586 0-0.999 0H8.999c-0.417 0-0.737 0-1 0v-5 c0.001-0.552 0.449-0.998 1-1h6.002c0.55 0 1 0.4 1 1V22z"/>
</g>
<g>
	<path class="path" d="M7 18H3.001c-0.917-0.029-0.844-0.142-0.855-0.146C2.067 17.8 2 17.1 2 16v-6c0.029-1.481 0.922-1.894 3.001-2H7V6 H5.001C2.66 6 0 7.1 0 10v6c0.02 1.111-0.047 1.9 0.4 2.803c0.499 0.9 1.6 1.2 2.6 1.197H7V18z"/>
	<path class="path" d="M19.001 6H17v2h1.999c2.078 0.1 3 0.5 3 2v6c0.02 1.098-0.067 1.78-0.146 1.9 c-0.011 0 0.1 0.116-0.855 0.146H17v2h3.999c1.046 0 2.117-0.255 2.616-1.197C24.048 17.9 24 17.1 24 16v-6 C23.995 7.1 21.3 6 19 6z"/>
</g>
<polygon class="path" fill-rule="evenodd" clip-rule="evenodd" points="18,4.4 13.6,4.4 13.6,0 13.6,0 18,4.4 18,4.4"/>
<path class="path" d="M20.499 17c-0.275 0-0.5-0.224-0.5-0.5v-0.999c0-0.276 0.225-0.5 0.5-0.5c0.277 0 0.5 0.2 0.5 0.5V16.5 C21.001 16.8 20.8 17 20.5 17L20.499 17z M4 11C3.292 11 3 10.7 3 10C3 9.2 3.3 9 4 8.999c0.77 0 1 0.2 1 1 C5 10.7 4.8 11 4 11L4 11z"/>
</svg>
