<svg xmlns="http://www.w3.org/2000/svg" xmlns:xlink="http://www.w3.org/1999/xlink" version="1.1" id="Layer_1" x="0px" y="0px" width="16px" height="16px" viewBox="0 0 24 24" enable-background="new 0 0 24 24" xml:space="preserve">
<path class="path" fill-rule="evenodd" clip-rule="evenodd" d="M18 24c1.657 0 2.999-1.341 3-2.999V2.999C20.999 1.3 19.7 0 18 0H6.001 C4.343 0 3 1.3 3 2.999v18.002C3.001 22.7 4.3 24 6 24H18z M6.001 22.001c-0.553 0-1-0.448-1.001-1V2.999 C5.001 2.4 5.4 2 6 2h9C15.552 2 16 2.4 16 2.999v18.002c-0.002 0.552-0.448 1-0.999 1H6.001z M19 21 c-0.001 0.552-0.447 1-1 1h-0.184c0.111-0.314 0.184-0.647 0.184-1V2.999C18 2.6 17.9 2.3 17.8 2H18 c0.553 0 1 0.4 1 0.999V21.001z"/>
<circle class="circle" fill-rule="evenodd" clip-rule="evenodd" cx="10.5" cy="19.5" r="1.5"/>
<path class="path" fill-rule="evenodd" clip-rule="evenodd" d="M12 2.999H8.999C8.447 3 8 3.4 8 4c0 0.6 0.4 1 1 1H12 c0.552 0 1-0.448 1-1C13 3.4 12.6 3 12 2.999z"/>
</svg>
