<svg xmlns="http://www.w3.org/2000/svg" xmlns:xlink="http://www.w3.org/1999/xlink" version="1.1" id="Layer_1" x="0px" y="0px" width="16px" height="16px" viewBox="0 0 24 24" enable-background="new 0 0 24 24" xml:space="preserve">
<path class="path" d="M8.174 15.926l-6.799 5.438c-0.431 0.346-0.501 0.975-0.156 1.406s0.974 0.5 1.4 0.156l7.211-5.769L8.174 15.926z"/>
<path class="path" d="M15.838 15.936l-1.685 1.214l7.222 5.777c0.433 0.3 1.1 0.3 1.406-0.156c0.345-0.432 0.274-1.061-0.157-1.406 L15.838 15.936z"/>
<polygon class="path" points="1,10.2 1.6,10.9 12,2.6 22,10.6 22,22 2,22 2,10.2 1,10.2 1.6,10.9 1,10.2 0,10.2 0,24 24,24 24,9.7 12,0 0,9.7 0,10.2 1,10.2 1,10.2"/>
<polygon class="path" points="23.6,11.7 12.6,19.7 11.4,19.7 0.4,11.7 0.4,11.7 0.4,11.7 1.6,10.1 12,17.6 22.4,10.1"/>
</svg>
