<svg xmlns="http://www.w3.org/2000/svg" xmlns:xlink="http://www.w3.org/1999/xlink" enable-background="new 0 0 32 32" height="16px" id="Layer_1" version="1.1" viewBox="0 0 32 32" width="16px" xml:space="preserve">
  <g id="location">
    <path class="path" clip-rule="evenodd" d="M16.002 17.746c3.309 0 6-2.692 6-6s-2.691-6-6-6 c-3.309 0-6 2.691-6 6S12.693 17.7 16 17.746z M16.002 6.746c2.758 0 5 2.2 5 5s-2.242 5-5 5c-2.758 0-5-2.242-5-5 S13.244 6.7 16 6.746z" fill="#333333" fill-rule="evenodd"/>
    <path class="path" clip-rule="evenodd" d="M16 0C9.382 0 4 5.3 4 12.001c0 7 6 14.2 10.4 19.2 C14.392 31.2 15.1 32 16 32c0.002 0 0.1 0 0.1 0c0.867 0 1.57-0.785 1.586-0.805 c4.377-5.033 10.377-12.193 10.377-19.194C28.002 5.3 22.6 0 16 0z M16.117 29.883c-0.021 0.02-0.082 0.064-0.135 0.1 c-0.01-0.027-0.084-0.086-0.129-0.133C12.188 25.6 6 18.5 6 12.001C6 6.5 10.5 2 16 2c5.516 0 10 4.5 10 10 C26.002 18.5 19.8 25.6 16.1 29.883z" fill="#333333" fill-rule="evenodd"/>
  </g>
</svg>
