<svg xmlns="http://www.w3.org/2000/svg" xmlns:xlink="http://www.w3.org/1999/xlink" version="1.1" id="Layer_1" x="0px" y="0px" width="16px" height="16px" viewBox="0 0 24 24" enable-background="new 0 0 24 24" xml:space="preserve">
<path class="path" d="M14 7.001H2.999C1.342 7 0 8.3 0 10v11c0 1.7 1.3 3 3 3H14c1.656 0 3-1.342 3-3V10 C17 8.3 15.7 7 14 7.001z M14.998 21c0 0.551-0.447 1-0.998 1.002H2.999C2.448 22 2 21.6 2 21V10 c0.001-0.551 0.449-0.999 1-0.999H14c0.551 0 1 0.4 1 0.999V21z"/>
<path class="path" d="M14.266 0.293c-0.395-0.391-1.034-0.391-1.429 0c-0.395 0.39-0.395 1 0 1.415L13.132 2H3.869l0.295-0.292 c0.395-0.391 0.395-1.025 0-1.415c-0.394-0.391-1.034-0.391-1.428 0L0 3l2.736 2.707c0.394 0.4 1 0.4 1.4 0 c0.395-0.391 0.395-1.023 0-1.414L3.869 4.001h9.263l-0.295 0.292c-0.395 0.392-0.395 1 0 1.414s1.034 0.4 1.4 0L17 3 L14.266 0.293z"/>
<path class="path" d="M18.293 9.734c-0.391 0.395-0.391 1 0 1.429s1.023 0.4 1.4 0L20 10.868v9.263l-0.292-0.295 c-0.392-0.395-1.024-0.395-1.415 0s-0.391 1 0 1.428L21 24l2.707-2.736c0.391-0.394 0.391-1.033 0-1.428s-1.023-0.395-1.414 0 l-0.292 0.295v-9.263l0.292 0.295c0.392 0.4 1 0.4 1.4 0s0.391-1.034 0-1.429L21 7L18.293 9.734z"/>
</svg>
