<svg xmlns="http://www.w3.org/2000/svg" xmlns:xlink="http://www.w3.org/1999/xlink" version="1.1" id="Layer_1" x="0px" y="0px" width="16px" height="16px" viewBox="0 0 24 24" enable-background="new 0 0 24 24" xml:space="preserve">
<circle class="circle" cx="5" cy="8.3" r="2.2"/>
<path class="path" d="M0 22.999C0 23.6 0.4 24 1 24S2 23.6 2 22.999V18H2h20h0.001v4.999c0 0.6 0.4 1 1 1 C23.552 24 24 23.6 24 22.999V10C24 9.4 23.6 9 23 9C22.447 9 22 9.4 22 10v1H22h-0.999V10.5 C20.999 8 20 6 17.5 6H11C9.769 6.1 8.2 6.3 8 8v3H2H2V9C2 8.4 1.6 8 1 8S0 8.4 0 9V22.999z M10.021 8.2 C10.19 8.1 10.6 8 11 8h5.5c1.382 0 2.496-0.214 2.5 2.501v0.499h-9L10.021 8.174z M22 16H2v-2.999h20V16z"/>
</svg>
