<svg xmlns="http://www.w3.org/2000/svg" xmlns:xlink="http://www.w3.org/1999/xlink" version="1.1" id="Layer_1" x="0px" y="0px" width="16px" height="16px" viewBox="0 0 24 24" enable-background="new 0 0 24 24" xml:space="preserve">
<path class="path" d="M23.001 12h-1.513C21.805 11.6 22 11.1 22 10.5C22 9.1 20.9 8 19.5 8S17 9.1 17 10.5 c0 0.6 0.2 1.1 0.5 1.5H2.999c0-0.001 0-0.002 0-0.002V2.983V2.98c0.084-0.169-0.083-0.979 1-0.981h0.006 C4.008 2 4.3 2 4.5 2.104L4.292 2.292c-0.39 0.392-0.39 1 0 1.415c0.391 0.4 1 0.4 1.4 0l2-1.999 c0.39-0.391 0.39-1.025 0-1.415c-0.391-0.391-1.023-0.391-1.415 0L5.866 0.72C5.775 0.6 5.7 0.5 5.5 0.4 C4.776 0 4.1 0 4 0H3.984v0.001C1.195 0 1 2.7 1 2.98v0.019v0.032v8.967c0 0 0 0 0 0.002H0.999 C0.447 12 0 12.4 0 12.999S0.447 14 1 14H1v2.001c0.001 2.6 1.7 4.8 4 5.649V23c0 0.6 0.4 1 1 1s1-0.447 1-1v-1h10v1 c0 0.6 0.4 1 1 1s1-0.447 1-1v-1.102c2.745-0.533 3.996-3.222 4-5.897V14h0.001C23.554 14 24 13.6 24 13 S23.554 12 23 12z M21.001 16.001c-0.091 2.539-0.927 3.97-3.001 3.997H7c-2.208-0.004-3.996-1.79-4-3.997V14h15.173 c-0.379 0.484-0.813 0.934-1.174 1.003c-0.54 0.104-0.999 0.446-0.999 1c0 0.6 0.4 1 1 1 c2.159-0.188 3.188-2.006 3.639-2.999h0.363V16.001z"/>
<rect class="rect" x="6.6" y="4.1" transform="matrix(-0.7071 0.7071 -0.7071 -0.7071 15.6319 3.2336)" width="1" height="1.4"/>
<rect class="rect" x="9.4" y="2.4" transform="matrix(0.7066 0.7076 -0.7076 0.7066 4.9969 -6.342)" width="1.4" height="1"/>
<rect class="rect" x="9.4" y="6.4" transform="matrix(0.7071 0.7071 -0.7071 0.7071 7.8179 -5.167)" width="1.4" height="1"/>
<rect class="rect" x="12.4" y="4.4" transform="matrix(0.7069 0.7073 -0.7073 0.7069 7.2858 -7.8754)" width="1.4" height="1"/>
<rect class="rect" x="13.4" y="7.4" transform="matrix(-0.7064 -0.7078 0.7078 -0.7064 18.5823 23.4137)" width="1.4" height="1"/>
</svg>
