<?xml version="1.0" encoding="utf-8"?>
<!-- Generator: Adobe Illustrator 16.0.0, SVG Export Plug-In . SVG Version: 6.00 Build 0)  -->
<!DOCTYPE svg PUBLIC "-//W3C//DTD SVG 1.1//EN" "http://www.w3.org/Graphics/SVG/1.1/DTD/svg11.dtd">
<svg version="1.1" id="Layer_1" xmlns="http://www.w3.org/2000/svg" xmlns:xlink="http://www.w3.org/1999/xlink" x="0px" y="0px"
	 width="100px" height="100px" viewBox="0 0 100 100" enable-background="new 0 0 100 100" xml:space="preserve">
<g>
	<defs>
		<rect id="SVGID_1_" width="100" height="100"/>
	</defs>
	<clipPath id="SVGID_2_">
		<use xlink:href="#SVGID_1_"  overflow="visible"/>
	</clipPath>
	<path clip-path="url(#SVGID_2_)" d="M100,50c0,1.524-2.489,2.922-2.624,4.411c-0.138,1.515,2.054,3.344,1.781,4.815
		c-0.276,1.493-2.979,2.409-3.386,3.853c-0.413,1.459,1.404,3.662,0.863,5.062c-0.545,1.412-3.368,1.811-4.037,3.155
		c-0.673,1.355,0.708,3.858-0.082,5.137c-0.794,1.285-3.642,1.154-4.547,2.355c-0.908,1.205-0.007,3.921-1.019,5.035
		c-1.014,1.115-3.789,0.463-4.899,1.479c-1.109,1.018-0.718,3.853-1.918,4.764c-1.197,0.908-3.807-0.241-5.086,0.556
		c-1.273,0.794-1.407,3.653-2.755,4.328c-1.34,0.672-3.695-0.941-5.102-0.394c-1.395,0.542-2.052,3.328-3.505,3.743
		c-1.436,0.41-3.452-1.612-4.939-1.335c-1.466,0.273-2.624,2.891-4.133,3.028c-1.483,0.136-3.096-2.223-4.613-2.223
		c-1.518,0-3.131,2.358-4.614,2.223c-1.509-0.139-2.666-2.755-4.132-3.028c-1.488-0.277-3.504,1.744-4.941,1.335
		c-1.454-0.415-2.11-3.201-3.504-3.744c-1.407-0.548-3.762,1.065-5.102,0.395c-1.348-0.676-1.481-3.535-2.755-4.329
		c-1.28-0.797-3.89,0.353-5.086-0.556c-1.2-0.911-0.809-3.746-1.918-4.764c-1.111-1.017-3.886-0.364-4.899-1.479
		c-1.012-1.115-0.112-3.83-1.019-5.035c-0.905-1.202-3.753-1.071-4.547-2.355c-0.79-1.278,0.591-3.782-0.082-5.137
		c-0.668-1.345-3.492-1.743-4.037-3.155c-0.54-1.4,1.277-3.604,0.865-5.062c-0.408-1.443-3.11-2.358-3.386-3.853
		c-0.273-1.472,1.919-3.3,1.781-4.815C2.489,52.921,0,51.524,0,50c0-1.525,2.489-2.922,2.624-4.411
		c0.138-1.515-2.054-3.344-1.781-4.816c0.276-1.494,2.978-2.409,3.386-3.852c0.413-1.459-1.405-3.662-0.865-5.063
		c0.546-1.413,3.369-1.81,4.038-3.155c0.673-1.355-0.708-3.858,0.082-5.137c0.794-1.285,3.642-1.154,4.547-2.356
		c0.908-1.204,0.007-3.92,1.019-5.034c1.013-1.115,3.789-0.464,4.899-1.48c1.11-1.017,0.718-3.852,1.918-4.763
		c1.197-0.909,3.807,0.241,5.086-0.556c1.274-0.794,1.407-3.653,2.756-4.329c1.34-0.671,3.694,0.942,5.101,0.394
		c1.394-0.543,2.05-3.329,3.504-3.743c1.436-0.41,3.453,1.613,4.94,1.335c1.466-0.273,2.624-2.89,4.133-3.028
		C46.87-0.13,48.482,2.229,50,2.229c1.518,0,3.131-2.359,4.613-2.223c1.509,0.138,2.667,2.755,4.133,3.028
		c1.488,0.278,3.504-1.744,4.94-1.335c1.454,0.415,2.11,3.201,3.506,3.744c1.405,0.547,3.761-1.065,5.101-0.394
		c1.348,0.676,1.481,3.535,2.755,4.329c1.28,0.797,3.891-0.353,5.086,0.556c1.2,0.911,0.809,3.746,1.918,4.763
		c1.111,1.017,3.887,0.365,4.899,1.48c1.012,1.115,0.11,3.83,1.019,5.035c0.905,1.202,3.753,1.071,4.547,2.355
		c0.79,1.279-0.591,3.783,0.082,5.137c0.668,1.345,3.492,1.743,4.037,3.155c0.54,1.401-1.276,3.604-0.864,5.063
		c0.407,1.443,3.109,2.358,3.386,3.852c0.272,1.472-1.919,3.3-1.781,4.816C97.511,47.079,100,48.476,100,50"/>
</g>
</svg>
