<?xml version="1.0" standalone="no"?>
<!DOCTYPE svg PUBLIC "-//W3C//DTD SVG 1.1//EN" "http://www.w3.org/Graphics/SVG/1.1/DTD/svg11.dtd" >
<svg xmlns="http://www.w3.org/2000/svg">
<metadata>
This is a custom SVG webfont generated by Font Squirrel.
Copyright   : GM
</metadata>
<defs>
<font id="webfontgqmFJPev" horiz-adv-x="1075" >
<font-face units-per-em="2048" ascent="1638" descent="-410" />
<missing-glyph horiz-adv-x="724" />
<glyph unicode=" "  horiz-adv-x="724" />
<glyph unicode="&#x09;" horiz-adv-x="724" />
<glyph unicode="&#xa0;" horiz-adv-x="724" />
<glyph unicode="!" horiz-adv-x="397" d="M143 45q0 10 2 21l27 124q12 63 80 64q57 0 57 -45q0 -8 -2 -19l-26 -124q-14 -66 -82 -66q-56 0 -56 45zM203 332l225 1057h135l-225 -1057h-135z" />
<glyph unicode="&#x22;" horiz-adv-x="598" d="M362 1176l31 147q12 53 78 53q70 0 57 -53l-30 -147q-12 -55 -82 -56q-66 1 -54 56zM598 1176l31 147q12 53 80 53t55 -53l-31 -147q-12 -55 -80 -56q-67 1 -55 56z" />
<glyph unicode="#" horiz-adv-x="1087" d="M205 471l53 119h182l54 108h-187l64 119h180l67 141h140l-68 -141h150l65 141h137l-65 -141h182l-55 -119h-184l-52 -108h181l-54 -119h-182l-70 -141h-139l70 141h-150l-69 -141h-140l70 141h-180zM580 590h149l51 108h-147z" />
<glyph unicode="$" horiz-adv-x="1314" d="M111 338q2 53 14 115l14 63h135l-12 -55q-10 -49 -10 -92q0 -190 203 -252l123 577q-293 78 -289 285q0 31 6 65q63 293 434 367l29 131h135l-25 -117q35 2 72 2q49 0 94 -2l25 117h135l-29 -137q281 -70 281 -338q0 -59 -12 -127h-134q6 43 7 82q0 197 -170 254 l-113 -539q152 -41 221 -90q102 -74 103 -203q0 -41 -11 -88q-33 -152 -180 -256q-125 -88 -295 -120l-26 -123h-136l23 106q-29 -2 -55 -2q-57 0 -109 6l-24 -110h-136l29 129q-317 82 -317 352zM426 1004q2 -121 180 -177l96 451q-233 -57 -272 -234q-4 -20 -4 -40z M586 92q51 -4 110 -4h54l116 547l-159 31zM735 797l158 -31l115 532q-45 4 -95 5q-39 0 -71 -3zM889 109q272 59 315 253q20 98 -10 138q-43 55 -199 104z" />
<glyph unicode="%" horiz-adv-x="1536" d="M182 -2l1338 1391h163l-1335 -1391h-166zM260 827q0 59 16 138q82 383 402 383q258 0 256 -246q0 -61 -16 -137q-80 -375 -404 -375q-252 -1 -254 237zM401 864q0 -152 142 -151q184 0 237 252q12 59 13 104q0 154 -144 154q-180 0 -235 -258q-13 -58 -13 -101zM883 203 q0 59 16 135q82 385 404 385q254 0 253 -244q0 -63 -16 -141q-80 -377 -401 -377q-256 0 -256 242zM1024 238q0 -152 143 -152q182 0 236 252q12 59 12 106q0 154 -141 154q-182 0 -238 -260q-12 -57 -12 -100z" />
<glyph unicode="&#x26;" horiz-adv-x="1234" d="M111 260q0 33 8 68q53 250 497 454q-156 100 -155 252q0 33 8 70q29 137 156 215q115 70 262 70q125 0 207 -50q102 -59 102 -174q0 -31 -8 -65q-43 -201 -486 -408q-217 -100 -290 -155q-162 -119 -162 -248q0 -100 108 -154q86 -43 197 -43q256 0 420 209 q96 121 131 291h135l-133 -631h-135l45 209q-215 -203 -477 -203q-162 0 -283 66q-147 80 -147 227zM598 1057q0 -129 168 -209q291 143 291 287q0 55 -41 88q-55 41 -152 41q-90 0 -159 -37q-84 -45 -103 -125q-4 -22 -4 -45z" />
<glyph unicode="'" horiz-adv-x="358" d="M362 1176l31 147q12 53 78 53q70 0 57 -53l-30 -147q-12 -55 -82 -56q-66 1 -54 56z" />
<glyph unicode="(" horiz-adv-x="477" d="M182 217q0 172 41 363q111 514 469 923h154q-381 -428 -488 -923q-37 -172 -36 -334q0 -309 131 -590h-154q-117 260 -117 561z" />
<glyph unicode=")" horiz-adv-x="477" d="M-133 -344q393 428 498 924q35 166 34 323q0 315 -139 600h154q127 -258 127 -565q0 -172 -41 -358q-111 -518 -480 -924h-153z" />
<glyph unicode="*" horiz-adv-x="696" d="M279 1053q8 33 63 57q14 6 84 33q-25 10 -71 31.5t-38 56.5q2 14 17 31q27 25 59 24q20 0 131 -51l19 82q12 59 80 59t55 -59l-19 -82l115 45q14 6 33 6q35 0 53 -24q6 -16 4 -33q-8 -35 -51 -51l-92 -37q25 -10 69 -33t35 -55q-10 -55 -73 -56q-25 0 -131 52l-19 -82 q-12 -59 -80 -60q-68 0 -55 60l18 82q-129 -51 -153 -52q-63 1 -53 56z" />
<glyph unicode="+" horiz-adv-x="1146" d="M211 455l27 120h391l65 312h135l-65 -312h393l-27 -120h-393l-67 -318h-135l67 318h-391z" />
<glyph unicode="," horiz-adv-x="536" d="M129 -133q2 8 8 20l139 248q23 41 72 41q70 0 60 -53q-2 -8 -7 -19l-139 -247q-23 -41 -78 -41q-65 0 -55 51z" />
<glyph unicode="-" horiz-adv-x="716" d="M170 520l8 41h619l-9 -41h-618z" />
<glyph unicode="." horiz-adv-x="428" d="M156 43l18 84q10 47 78 47t57 -47l-18 -84q-8 -47 -76 -47q-67 0 -59 47z" />
<glyph unicode="/" horiz-adv-x="716" d="M-70 0l1033 1421h145l-1032 -1421h-146z" />
<glyph unicode="0" horiz-adv-x="1196" d="M145 375q0 61 17 133l69 332q51 242 232.5 388t429.5 146q199 0 317 -98q127 -104 127 -297q0 -66 -16 -139l-70 -332q-51 -238 -227 -385q-121 -100 -217 -129q-63 -18 -213 -19q-199 0 -320 101q-129 104 -129 299zM285 403q-2 -147 94 -227q88 -76 239 -76 q190 0 323.5 111t174.5 297l70 332q12 57 12 106q2 147 -94 228q-88 76 -240 75q-190 0 -323 -110.5t-174 -298.5l-70 -332q-12 -56 -12 -105z" />
<glyph unicode="1" horiz-adv-x="845" d="M281 934l575 389h107l-281 -1323h-135l239 1130l-294 -196h-211z" />
<glyph unicode="2" horiz-adv-x="1196" d="M72 0q90 403 565 645l324 160q211 106 210 242q0 174 -290 174q-205 0 -316.5 -93.5t-154.5 -296.5h-136q111 514 621 515q168 0 272 -52q141 -70 142 -219q0 -37 -11 -80q-37 -180 -424 -366q-190 -92 -274 -137q-285 -180 -356 -367h934l-27 -125h-1079z" />
<glyph unicode="3" horiz-adv-x="1196" d="M121 330q0 51 12 110l12 64h136l-19 -90q-8 -35 -8 -66q0 -133 125 -196q98 -49 244 -50q166 0 292 60q156 74 187 217q8 35 8 65q-2 201 -334 201h-139l27 125h141q352 0 401 231q4 20 4 41q0 100 -118 146q-84 33 -205 33q-209 0 -324 -82q-125 -88 -166 -285h-135 q104 492 645 492q172 0 287 -52q156 -70 156 -219q0 -35 -9 -74q-45 -207 -247 -290q152 -74 153 -238q0 -45 -12 -94q-43 -203 -246 -311q-168 -90 -385 -91q-203 0 -328 74q-155 93 -155 279z" />
<glyph unicode="4" horiz-adv-x="1196" d="M84 430l664 895h147l-571 -770h565l164 772l133 -6l-162 -766h264l-26 -125h-265l-92 -430h-135l92 430h-778z" />
<glyph unicode="5" horiz-adv-x="1196" d="M119 328q0 72 18 155h135q-14 -68 -14 -123q0 -258 356 -258q182 0 312 84q139 92 176 265q8 43 8 79q0 141 -117 211q-96 59 -248 60q-246 0 -413 -191h-127l184 713h971l-27 -125h-835l-99 -383q162 111 381 111q193 0 322 -84q147 -98 147 -283q0 -49 -12 -106 q-47 -225 -238 -355q-176 -121 -413 -121q-467 1 -467 351z" />
<glyph unicode="6" horiz-adv-x="1196" d="M160 322q0 49 12 102l4 22l6 15l94 442q43 209 224 326q166 109 389 108q184 0 297 -82q127 -90 127 -266q0 -63 -17 -137h-133q14 61 15 111q0 131 -95 198q-84 57 -223 58q-166 0 -285 -80q-131 -86 -163 -242l-33 -154q162 121 401 121q178 0 295 -78 q135 -92 135 -260q0 -49 -12 -102q-45 -209 -221 -328q-164 -109 -387 -108q-180 0 -295 75q-135 91 -135 259zM297 346q0 -125 100 -188q86 -53 219 -54q166 0 285 78q131 86 164 242q8 41 8 76q0 127 -100 190q-86 55 -221 55q-166 0 -285 -79q-129 -84 -162 -242 q-8 -41 -8 -78z" />
<glyph unicode="7" horiz-adv-x="1196" d="M317 0l881 1198h-854l27 125h1063l-971 -1323h-146z" />
<glyph unicode="8" horiz-adv-x="1230" d="M115 299q0 43 10 92q51 246 321 338q-131 74 -131 199q0 27 7 57q41 193 219 285q145 76 362 76q172 0 287 -54q152 -74 151 -227q0 -37 -10 -80q-35 -166 -235 -256q188 -76 188 -254q0 -41 -10 -88q-45 -215 -250 -321q-170 -88 -412 -89q-199 0 -327 62 q-170 84 -170 260zM252 330q0 -227 387 -228q440 0 500 287q8 31 8 57q0 211 -389 211q-442 0 -500 -268q-6 -30 -6 -59zM453 954q0 -92 129 -137q92 -35 202 -35q131 0 244 43q147 57 168 162q6 27 6 51q0 182 -325 183q-369 0 -420 -238q-4 -15 -4 -29z" />
<glyph unicode="9" horiz-adv-x="1196" d="M162 313q0 63 16 138h133q-14 -63 -14 -115q0 -250 315 -250q164 0 285 80q131 88 164 242l41 192q-160 -121 -400 -121q-180 0 -294 76q-133 90 -134 260q0 47 11 103q45 209 221 327q164 111 387 111q176 0 295 -78q135 -92 135 -260q0 -47 -12 -100l-4 -25l-4 -10 l-103 -480q-45 -209 -225 -325q-168 -109 -389 -109q-186 0 -297 78q-127 90 -127 266zM410 838q0 -125 100 -189q86 -53 219 -53q168 0 287 80q129 84 162 242q8 39 8 73q0 127 -101 193q-86 55 -219 55q-168 0 -286 -78q-127 -86 -162 -243q-8 -43 -8 -80z" />
<glyph unicode=":" horiz-adv-x="499" d="M195 41q0 8 2 18l26 121q12 63 80 64q66 0 53 -62l-24 -123q-12 -63 -80 -63q-57 0 -57 45zM346 750q0 8 2 18l25 121q14 63 82 63q63 0 51 -61l-23 -123q-12 -63 -82 -63q-55 0 -55 45z" />
<glyph unicode=";" horiz-adv-x="514" d="M117 -143q0 16 8 39l151 292q23 47 72 48q70 0 58 -60q-2 -10 -7 -20l-147 -293q-25 -49 -76 -49q-59 0 -59 43zM385 745q0 8 2 19l27 123q14 66 82 65q55 0 55 -45q0 -10 -2 -20l-27 -123q-12 -63 -80 -64q-57 0 -57 45z" />
<glyph unicode="&#x3c;" horiz-adv-x="1095" d="M147 442l21 101l1051 360l-27 -127l-825 -284l702 -285l-27 -127z" />
<glyph unicode="=" horiz-adv-x="1290" d="M129 342l23 104h1177l-22 -104h-1178zM172 537l23 104h1177l-22 -104h-1178z" />
<glyph unicode="&#x3e;" horiz-adv-x="1095" d="M70 80l26 127l824 285l-701 284l27 127l895 -360l-21 -101z" />
<glyph unicode="?" d="M248 1008q145 414 598 413q156 0 264 -59q135 -74 135 -217q0 -35 -8 -72q-39 -182 -293 -352q-231 -154 -262 -299l-20 -90h-138l19 80q43 207 297 376q121 82 159 119q84 78 103 166q6 25 6 45q0 96 -104 144q-76 35 -187 34q-188 0 -293.5 -87t-165.5 -271zM467 45 q0 8 2 21l27 124q12 63 77 64q59 0 60 -45q0 -8 -2 -19l-27 -124q-14 -66 -84 -66q-53 0 -53 45z" />
<glyph unicode="@" horiz-adv-x="1720" d="M209 549q0 74 16 158q70 324 357 526q272 190 614 190q252 0 428 -112q205 -131 205 -371q0 -61 -14 -129q-43 -201 -220 -375q-63 -63 -147 -108q-96 -51 -172 -52q-90 0 -90 78q0 12 4 29q-170 -135 -385 -135q-219 -2 -297 145q-35 63 -35 144q0 43 10 92 q51 238 225.5 387t413.5 151q221 2 297 -125l43 125h131l-268 -766q-8 0 -12 5h4q39 0 104 45q57 37 92 75q176 199 177 385q0 190 -168 297q-143 92 -344 92q-291 0 -516 -159q-238 -166 -297 -445q-14 -70 -15 -133q0 -184 129 -307q160 -156 441 -156q182 0 360 76 q186 80 299 215h156q-150 -193 -370 -303.5t-460 -110.5q-342 0 -538 191q-158 154 -158 381zM604 559q0 -195 230 -192q156 2 286.5 101t184.5 249q29 74 28 145q0 188 -248 187q-174 -2 -305 -121t-168 -293q-8 -41 -8 -76z" />
<glyph unicode="A" horiz-adv-x="1302" d="M-61 0l962 1389h115l348 -1389h-150l-108 428h-723l-293 -428h-151zM471 553h604l-160 637z" />
<glyph unicode="B" horiz-adv-x="1314" d="M55 0l295 1389h707q166 0 274 -60q135 -76 135 -229q0 -39 -10 -84q-39 -184 -258 -285q182 -70 182 -248q0 -41 -10 -90q-43 -205 -242 -307q-164 -86 -393 -86h-680zM217 125h569q162 0 277 55q143 70 174 211q6 31 6 58t-6 51q-43 160 -346 159h-561zM356 784h566 q143 0 247 52q127 66 154 190q6 27 6 51q0 102 -106 150q-78 37 -197 37h-567z" />
<glyph unicode="C" horiz-adv-x="1472" d="M184 506q0 84 21 178q72 336 323 528q246 190 594 191q408 0 551 -279l-131 -71q-111 225 -446 225q-285 0 -488 -154q-209 -158 -266 -432q-18 -80 -18 -151q0 -215 145 -328q131 -102 354 -102q324 0 551 229l99 -72q-281 -283 -672 -282q-342 0 -504 190 q-113 131 -113 330z" />
<glyph unicode="D" horiz-adv-x="1392" d="M72 0l295 1389h573q266 0 416 -115q166 -125 166 -379q0 -92 -23 -203q-72 -338 -332 -520q-244 -172 -600 -172h-495zM233 125h367q301 0 496 137q207 145 268 430q20 98 20 178q0 152 -73.5 250.5t-167.5 124.5q-61 18 -232 19h-436z" />
<glyph unicode="E" horiz-adv-x="1155" d="M72 0l295 1389h1087l-27 -125h-954l-102 -480h846l-25 -122h-846l-115 -537h965l-27 -125h-1097z" />
<glyph unicode="F" horiz-adv-x="1034" d="M72 0l295 1389h1013l-26 -125h-881l-102 -480h753l-24 -122h-754l-141 -662h-133z" />
<glyph unicode="G" horiz-adv-x="1552" d="M150 506q0 86 22 184q70 336 322 527q244 186 591 186q584 0 588 -508h-139q-6 211 -137 303q-115 80 -336 80q-291 0 -490 -152q-205 -156 -264 -434q-18 -84 -18 -155q0 -221 162 -332q139 -94 372 -94q227 0 408 108q203 123 248 330l4 20h-596l26 125h723 q-6 -82 -16 -123q-63 -297 -334 -456q-219 -129 -487 -129q-283 0 -453 118q-196 136 -196 402z" />
<glyph unicode="H" horiz-adv-x="1392" d="M72 0l295 1389h135l-129 -605h981l129 605h135l-295 -1389h-135l141 662h-981l-141 -662h-135z" />
<glyph unicode="I" horiz-adv-x="274" d="M72 0l295 1389h135l-295 -1389h-135z" />
<glyph unicode="J" horiz-adv-x="995" d="M63 303q0 31 5 64h137q-4 -29 -4 -56q0 -117 80 -164q61 -37 190 -36q182 0 272.5 67.5t126.5 241.5l205 969h135l-209 -981q-88 -422 -546 -422q-390 0 -392 317z" />
<glyph unicode="K" horiz-adv-x="1372" d="M72 0l295 1389h135l-156 -730l1155 730h219l-956 -603l682 -786h-191l-618 711l-324 -209l-106 -502h-135z" />
<glyph unicode="L" horiz-adv-x="1034" d="M72 0l295 1389h135l-269 -1264h877l-27 -125h-1011z" />
<glyph unicode="M" horiz-adv-x="1677" d="M72 0l295 1389h143l367 -1203l880 1203h144l-295 -1389h-136l238 1118l-817 -1118h-105l-342 1118l-237 -1118h-135z" />
<glyph unicode="N" horiz-adv-x="1392" d="M72 0l295 1389h131q129 -219 368 -592l367 -582l250 1174h135l-295 -1389h-133l-733 1178l-250 -1178h-135z" />
<glyph unicode="O" horiz-adv-x="1550" d="M154 504q0 88 20 190q72 332 315 514q236 174 580 174q276 0 440 -114q188 -133 189 -394q0 -84 -21 -180q-70 -328 -313 -518q-166 -131 -299 -166q-88 -25 -291 -24q-276 0 -440 120q-180 136 -180 398zM291 535q2 -215 151 -326q133 -98 357 -98q289 0 486.5 152.5 t256.5 430.5q18 84 19 156q-2 160 -92.5 261t-188.5 128q-66 18 -236 18q-287 0 -477 -141q-199 -147 -258 -422q-18 -85 -18 -159z" />
<glyph unicode="P" horiz-adv-x="1271" d="M72 0l295 1389h659q449 0 449 -299q0 -50 -13 -105q-43 -201 -237 -305q-166 -88 -391 -88h-502l-125 -592h-135zM358 717h539q150 0 264 61q135 72 164 205q8 39 8 72q0 209 -321 209h-537z" />
<glyph unicode="Q" horiz-adv-x="1550" d="M152 500q0 88 22 190q70 332 315 516q236 176 580 176q276 0 440 -116q188 -133 189 -396q0 -82 -21 -180q-53 -246 -213.5 -423t-400.5 -247q47 -31 121 -30h235l-26 -125h-236q-176 0 -256 123q-61 -8 -129 -8q-276 0 -438 120q-182 138 -182 400zM291 537 q0 -137 63 -236q59 82 156.5 130t202.5 48q119 0 202 -61q92 -68 93 -182q0 -16 -6.5 -52.5t-4.5 -56.5q213 49 355.5 198.5t189.5 364.5q16 84 17 154q0 164 -90.5 266t-188.5 129q-66 18 -236 18q-287 0 -479 -143q-199 -147 -256 -424q-18 -81 -18 -153zM438 211 q133 -106 361 -107q33 0 65 2q0 18 5 53.5t5 51.5q0 70 -61 111q-51 35 -127 34q-78 0 -145 -37q-74 -40 -103 -108z" />
<glyph unicode="R" horiz-adv-x="1314" d="M72 0l295 1389h684q436 0 436 -279q0 -43 -12 -94q-49 -240 -285 -338q135 -72 135 -225q0 -43 -10 -93l-76 -360h-135l76 354q6 33 6 62q0 193 -320 192h-530l-129 -608h-135zM362 735h521q168 0 282 58q143 72 174 219q6 33 7 61q0 190 -318 191h-553z" />
<glyph unicode="S" horiz-adv-x="1314" d="M113 346q0 51 12 109l14 63h135l-12 -55q-10 -45 -10 -84q0 -268 448 -268q178 0 304 47q170 66 200 209q6 29 6 54q0 58 -32 93q-35 39 -136 70q-63 18 -278 65q-250 53 -336 103q-141 78 -141 219q0 33 8 69q78 362 641 363q508 0 508 -350q0 -53 -12 -117h-134 q6 47 7 88q0 160 -125 217q-82 37 -271 37q-428 0 -479 -238q-4 -23 -4 -43q0 -102 129 -155q57 -23 213 -51q274 -49 362 -84q217 -88 218 -261q0 -41 -11 -86q-41 -199 -270 -299q-172 -76 -393 -75q-227 0 -369 67q-192 92 -192 293z" />
<glyph unicode="T" horiz-adv-x="1116" d="M227 1264l27 125h1198l-27 -125h-530l-268 -1264h-135l268 1264h-533z" />
<glyph unicode="U" horiz-adv-x="1359" d="M184 526l183 863h135l-183 -861q-14 -63 -14 -118v-3q0 -296 397 -296q473 0 562 409l184 869h135l-184 -867q-113 -537 -721 -536q-512 0 -512 380q0 74 18 160z" />
<glyph unicode="V" horiz-adv-x="1286" d="M250 1389h145l299 -1192l789 1192h143l-919 -1389h-109z" />
<glyph unicode="W" horiz-adv-x="1986" d="M258 1389h143l279 -1188l428 669l-119 519h144l278 -1188l764 1188h143l-897 -1389h-108l-166 707l-457 -707h-108z" />
<glyph unicode="X" horiz-adv-x="1236" d="M-94 0l780 713l-457 676h179l387 -578l637 578h176l-744 -676l469 -713h-174l-405 614l-676 -614h-172z" />
<glyph unicode="Y" horiz-adv-x="1282" d="M193 1389h176l440 -603l696 603h174l-827 -723l-141 -666h-136l142 666z" />
<glyph unicode="Z" horiz-adv-x="1282" d="M31 0l22 111l1264 1153h-959l27 125h1149l-23 -109l-1267 -1155h1038l-27 -125h-1224z" />
<glyph unicode="[" horiz-adv-x="477" d="M88 -344l393 1847h334l-27 -127h-198l-340 -1593h199l-27 -127h-334z" />
<glyph unicode="\" horiz-adv-x="716" d="M213 1421h145l433 -1421h-146z" />
<glyph unicode="]" horiz-adv-x="477" d="M-92 -344l26 127h199l14 49l326 1544h-199l27 127h336l-397 -1847h-332z" />
<glyph unicode="^" horiz-adv-x="610" d="M266 1047l266 276h95l166 -276h-160l-80 139l-137 -139h-150z" />
<glyph unicode="_" d="M-98 -244l20 99h1170l-21 -99h-1169z" />
<glyph unicode="`" horiz-adv-x="395" d="M293 1327q4 23 39 37q23 14 43 14q27 0 47 -20l121 -107q90 -88 84 -118q-6 -23 -39 -39q-45 -20 -86 6q-86 74 -174 160q-41 38 -35 67z" />
<glyph unicode="a" horiz-adv-x="1155" d="M104 358q0 66 17 140q49 240 222 383t415 143q252 0 360 -160l33 156h135l-217 -1022h-135l31 145q-178 -166 -437 -166q-246 0 -356 152q-68 94 -68 229zM242 387q0 -139 83 -213t226 -74q180 0 315 111t174 287q12 61 13 114q0 109 -54.5 181.5t-119.5 93.5 q-41 14 -156 14q-180 0 -306 -111.5t-163 -291.5q-12 -60 -12 -111z" />
<glyph unicode="b" horiz-adv-x="1155" d="M74 -2l295 1391h135l-107 -504q174 162 426 162q195 0 310.5 -100.5t115.5 -289.5q0 -70 -16 -149q-51 -242 -222 -385t-417 -143q-242 0 -354 167l-31 -149h-135zM305 403q0 -141 90 -220t238 -79q180 0 307 115q121 109 160 291q14 66 14 121q0 141 -83 216t-226 75 q-399 0 -490 -418q-10 -54 -10 -101z" />
<glyph unicode="c" d="M111 356q0 59 14 127q53 250 236.5 395.5t439.5 145.5q373 0 389 -326l-135 -59q-8 141 -75 201.5t-208 60.5q-199 0 -335 -111.5t-177 -306.5q-10 -55 -10 -102q0 -141 94 -215q88 -66 236 -66q311 0 428 285l116 -53q-162 -354 -567 -355q-197 0 -315 91 q-131 100 -131 288z" />
<glyph unicode="d" horiz-adv-x="1155" d="M106 367q0 68 17 143q51 242 223 389.5t418 147.5q252 0 358 -162l107 504h135l-295 -1391h-135l31 147q-178 -168 -437 -168q-248 0 -354 156q-68 97 -68 234zM242 393q0 -139 83 -215t228 -76q180 0 315.5 115t173.5 293q12 63 13 117q0 109 -53.5 184.5t-116.5 95.5 q-43 14 -158 15q-182 0 -311 -119q-121 -111 -160 -293q-14 -62 -14 -117z" />
<glyph unicode="e" d="M96 346q0 70 19 152q49 236 227 381t418 145q193 0 311 -86q133 -98 133 -281q0 -57 -14 -122l-16 -84l-936 -2q-6 -39 -7 -74q0 -274 326 -275q287 0 430 236h139q-190 -358 -598 -359q-199 0 -309 86q-123 95 -123 283zM266 571h785q4 27 4 54q0 135 -92 209 q-86 68 -228 67q-166 0 -290 -87t-179 -243z" />
<glyph unicode="f" horiz-adv-x="546" d="M164 -2l168 797h-148l29 127h147l11 49q84 393 635 393l-27 -123q-190 0 -297 -47q-143 -63 -176 -223l-10 -49h227l-29 -127h-227l-168 -797h-135z" />
<glyph unicode="g" horiz-adv-x="1116" d="M70 -72q0 41 8 88h135q-4 -29 -4 -53q0 -121 86 -168q66 -37 201 -37q367 0 430 297l18 88q-180 -152 -420 -151q-188 0 -299 96q-117 102 -116 285q0 61 14 131q51 238 222 379t413 141q233 0 340 -154l28 131h136l-201 -948q-90 -420 -594 -420q-397 0 -397 295z M246 395q0 -135 84 -209q78 -70 217 -69q180 0 308 103.5t165 279.5q10 52 10 106q0 100 -52 176q-54 80 -112 103q-39 14 -139 14q-176 0 -303 -109.5t-164 -283.5q-14 -60 -14 -111z" />
<glyph unicode="h" d="M74 0l295 1389h135l-101 -474q154 131 381 132q152 0 252 -62q117 -76 117 -219q0 -39 -8 -84l-146 -682h-135l142 664q8 37 8 69q0 188 -254 189q-164 0 -279.5 -95.5t-150.5 -255.5l-121 -571h-135z" />
<glyph unicode="i" horiz-adv-x="278" d="M74 0l217 1024h135l-217 -1024h-135zM330 1208l32 148q35 51 74 51q33 0 62 -45l-33 -160q-47 -45 -82 -45q-43 0 -53 51z" />
<glyph unicode="j" horiz-adv-x="278" d="M-428 -367l27 125q199 0 307 58q137 72 174 245l205 959h135l-205 -961q-90 -426 -643 -426zM330 1206l30 148q35 53 76 53q33 0 62 -47l-33 -160q-47 -45 -82 -45q-43 0 -53 51z" />
<glyph unicode="k" horiz-adv-x="1089" d="M74 0l295 1389h135l-178 -840l782 477l238 -6l-687 -404l469 -616h-184l-409 541l-242 -148l-84 -393h-135z" />
<glyph unicode="l" horiz-adv-x="278" d="M74 0l295 1389h135l-295 -1389h-135z" />
<glyph unicode="m" horiz-adv-x="1673" d="M74 0l213 1001h135l-21 -100q143 123 349 123q223 0 290 -158q141 158 385 158q328 0 328 -252q0 -47 -12 -104l-142 -668h-135l138 649q10 41 10 81q0 171 -207 171q-139 0 -239.5 -72.5t-127.5 -205.5l-133 -623h-135l137 649q10 41 11 81q0 171 -213 171 q-145 0 -250 -100q-96 -94 -127 -242l-119 -559h-135z" />
<glyph unicode="n" d="M74 0l213 1001h135l-23 -106q152 129 379 129q154 0 252 -59q121 -74 121 -215q0 -39 -10 -82l-142 -668h-135l137 649q8 35 9 66q0 186 -254 186q-164 0 -280 -92t-148 -250l-119 -559h-135z" />
<glyph unicode="o" horiz-adv-x="1116" d="M106 369q0 61 15 131q51 240 231 382t426 142q199 0 320 -96q129 -104 129 -297q0 -61 -15 -131q-49 -231 -229 -377q-123 -100 -219 -127q-66 -18 -211 -19q-199 0 -317 97q-130 102 -130 295zM244 397q0 -145 96 -223q90 -74 240 -74q188 0 323 108.5t174 291.5 q12 57 13 106q0 111 -58.5 185.5t-124.5 95.5q-43 14 -155 14q-190 0 -323.5 -108.5t-172.5 -292.5q-12 -56 -12 -103z" />
<glyph unicode="p" horiz-adv-x="1155" d="M0 -344l287 1345h135l-31 -139q176 162 424 162q197 0 309 -96q121 -100 121 -289q0 -68 -16 -145q-51 -244 -221 -390.5t-416 -146.5q-250 0 -359 162l-98 -463h-135zM299 360q0 -279 328 -278q180 0 309 117q121 111 160 293q12 61 12 114q0 141 -82 217t-225 76 q-182 0 -315.5 -110.5t-170.5 -290.5q-16 -77 -16 -138z" />
<glyph unicode="q" horiz-adv-x="1155" d="M102 352q0 66 17 142q51 236 224 383t411 147q254 0 360 -162l31 139h135l-287 -1345h-135l96 455q-166 -154 -434 -154q-240 0 -348 158q-70 100 -70 237zM242 375q0 -139 80.5 -216t224.5 -77q195 0 322.5 107.5t168.5 302.5q12 55 13 104q0 90 -41 160 q-82 143 -293 143q-182 0 -307 -115q-117 -111 -156 -292q-12 -62 -12 -117z" />
<glyph unicode="r" horiz-adv-x="651" d="M74 0l213 1001h135l-29 -137q176 160 469 160l-24 -123q-436 0 -543 -495l-86 -406h-135z" />
<glyph unicode="s" horiz-adv-x="995" d="M109 270q0 59 16 131h139q-12 -57 -12 -102q0 -199 280 -199q119 0 207 39q119 51 119 154q0 92 -162 129q-4 0 -198 31q-268 41 -269 217q0 27 7 57q33 147 174 227q123 72 282 72q389 0 389 -278q0 -47 -12 -105h-141q8 45 8 82q0 174 -260 174q-106 0 -193 -43 q-111 -55 -110 -151q0 -86 159 -117q41 -8 209 -37q260 -45 260 -221q0 -29 -6 -60q-33 -158 -186 -233q-127 -63 -305 -64q-391 0 -395 297z" />
<glyph unicode="t" horiz-adv-x="538" d="M174 840l27 125h205l63 292h135l-63 -292h207l-27 -125h-207l-178 -840h-131l174 840h-205z" />
<glyph unicode="u" d="M139 260q0 43 11 94l137 645h135l-137 -643q-8 -39 -9 -71q0 -184 256 -185q172 0 283 95.5t148 263.5l114 540h135l-213 -1001h-135l23 108q-156 -129 -379 -129q-158 0 -254 62q-115 74 -115 221z" />
<glyph unicode="v" horiz-adv-x="964" d="M160 999h153l226 -819l544 819h148l-672 -999h-113z" />
<glyph unicode="w" horiz-adv-x="1579" d="M199 999h153l203 -813l313 484l-90 329h156l201 -813l524 813h147l-649 -999h-117l-131 510l-334 -510h-114z" />
<glyph unicode="x" horiz-adv-x="956" d="M-94 0l596 516l-340 483h176l268 -389l445 389h172l-545 -483l373 -516h-177l-307 422l-485 -422h-176z" />
<glyph unicode="y" d="M20 -72q0 41 9 88h135q-4 -29 -4 -53q0 -121 86 -168q66 -37 200 -37q367 0 431 297l6 33q-158 -133 -381 -133q-158 0 -254 63q-113 74 -113 224q0 45 10 98l142 659h135l-141 -657q-8 -41 -9 -76q2 -186 256 -186q174 0 285 98t148 271l116 550h135l-200 -946 q-90 -420 -596 -420q-396 0 -396 295z" />
<glyph unicode="z" horiz-adv-x="968" d="M12 0l23 104l880 773h-657l27 122h852l-23 -102l-883 -774h754l-27 -123h-946z" />
<glyph unicode="{" horiz-adv-x="716" d="M250 535l20 92q121 45 142 63q35 33 57 137l94 447q49 229 254 229h70l-27 -127h-67q-51 0 -72 -39q-14 -25 -33 -112l-86 -402q-37 -182 -151 -243q63 -41 63 -131q0 -49 -14 -113l-86 -399q-18 -90 -15 -115q4 -39 54 -39h67l-26 -127h-70q-164 0 -164 149q0 35 8 80 l94 447q23 104 3 137q-13 19 -115 66z" />
<glyph unicode="|" horiz-adv-x="477" d="M158 -66l321 1512h135l-321 -1512h-135z" />
<glyph unicode="}" horiz-adv-x="716" d="M63 -344l27 127h66q55 0 80 53q10 23 26 101l86 399q31 141 90 203q20 20 60 41q-57 43 -58 141q0 45 11 102l86 402q18 84 14 112q-6 39 -55 39h-66l27 127h67q168 0 168 -149q0 -37 -10 -80l-94 -447q-23 -106 -2 -137q10 -18 114 -63l-20 -92q-123 -47 -141 -66 q-35 -31 -58 -137l-94 -447q-49 -229 -256 -229h-68z" />
<glyph unicode="~" horiz-adv-x="1122" d="M215 717q88 215 332 215q61 0 223 -58q139 -49 184 -49q100 0 148 109h158q-47 -117 -136.5 -166t-191.5 -49q-68 0 -230 55q-141 49 -184 49q-98 0 -145 -106h-158z" />
<glyph unicode="&#xa0;" />
<glyph unicode="&#xa1;" horiz-adv-x="397" d="M90 -195l223 1057h136l-224 -1057h-135zM344 985q0 8 2 19l27 124q14 66 82 66q55 0 55 -45q0 -10 -2 -21l-27 -124q-12 -63 -80 -64q-57 0 -57 45z" />
<glyph unicode="&#xa2;" d="M111 358q0 57 14 127q55 252 237.5 399.5t440.5 147.5q68 0 127 -14l80 110h145l-113 -153q135 -76 152 -273l-137 -59q-10 164 -96 219l-537 -739q66 -25 156 -25q311 0 428 287l116 -53q-162 -358 -569 -359q-123 0 -215 37l-64 -84h-147l109 146q-127 106 -127 286z M250 381q0 -121 72 -195l524 717q-35 4 -74 4q-199 0 -334 -112.5t-178 -309.5q-10 -55 -10 -104z" />
<glyph unicode="&#xa3;" horiz-adv-x="1196" d="M125 483l47 125h139l25 119h-115l55 125h86q55 238 235.5 380t424.5 142t387 -182l-117 -86q-115 143 -299 143q-188 0 -321 -107.5t-174 -289.5h612l-55 -125h-584l-25 -119h558l-48 -125h-536q-8 -43 -8 -84q0 -145 96 -225q90 -74 240 -74q186 0 360 142l84 -82 q-225 -184 -469 -185q-197 0 -317 101q-131 106 -132 297q0 53 11 110h-160z" />
<glyph unicode="&#xa4;" horiz-adv-x="1196" d="M166 465l250 172q-29 47 -29 102q0 119 98 215l-178 172l117 78l176 -170q96 49 205 49q111 0 186 -49l250 170l84 -78l-252 -172q33 -51 33 -110q0 -115 -96 -209l174 -170l-117 -78l-172 168q-98 -51 -211 -51t-188 51l-246 -168zM524 762q0 -70 62 -107 q51 -33 125 -32q86 0 159 43q82 47 99 127q4 18 4 34q0 68 -64 107q-53 31 -127 31q-88 0 -157 -43q-80 -47 -99 -127q-2 -19 -2 -33z" />
<glyph unicode="&#xa5;" horiz-adv-x="1320" d="M213 1389h176l440 -603l697 603h174l-828 -723l-10 -50h434l-26 -124h-434l-25 -119h434l-26 -125h-435l-53 -248h-135l53 248h-434l27 125h434l24 119h-434l27 124h434l10 50z" />
<glyph unicode="&#xa6;" horiz-adv-x="477" d="M162 -47l147 696h135l-147 -696h-135zM328 729l147 696h135l-147 -696h-135z" />
<glyph unicode="&#xa7;" horiz-adv-x="1196" d="M184 55q0 51 13 111h135q-10 -47 -10 -86q0 -176 260 -176q268 0 307 180q2 14 2 29q0 82 -123 108l-305 64q-82 25 -137.5 85t-55.5 138q0 33 11 67q49 166 219 236q-98 59 -99 164q0 25 7 53q31 147 170 232q125 74 284 73q385 0 385 -280q0 -49 -12 -109h-135 q10 47 10 86q0 178 -262 178q-106 0 -186 -39q-100 -47 -119 -141q-4 -14 -4 -27q0 -61 73 -92q63 -27 246 -57q117 -20 176 -49q131 -63 131 -187q0 -27 -6 -57q-39 -184 -229 -260q100 -59 100 -162q0 -27 -6 -53q-31 -145 -174 -231q-125 -74 -285 -74q-381 0 -381 276z M416 547q0 -88 104 -133q76 -33 178 -33q283 0 322 172q-6 178 -289 178q-233 0 -305 -127l-6 -24q-4 -19 -4 -33z" />
<glyph unicode="&#xa8;" horiz-adv-x="438" d="M283 1167l14 66q10 45 78 45t57 -45l-14 -66q-10 -47 -78 -47q-67 0 -57 47zM520 1167l15 66q10 45 75 45q70 0 60 -45l-15 -66q-10 -47 -80 -47q-65 0 -55 47z" />
<glyph unicode="&#xa9;" horiz-adv-x="1146" d="M229 834q0 45 11 94q43 203 237 329q178 119 395 119q178 0 310 -88q147 -98 147 -268q0 -43 -10 -90q-43 -203 -236 -330q-180 -117 -397 -117q-182 0 -309 82q-148 95 -148 269zM373 864q0 -125 108 -196q94 -61 228 -62q162 0 292 82q147 90 179 240q8 33 8 63 q0 125 -111 197q-96 63 -227 63q-162 0 -293 -82q-145 -90 -178 -239q-6 -35 -6 -66zM444 854q0 33 9 70q29 139 143 217q106 72 254 71q260 0 250 -260h-139q-2 74 -34 104.5t-106 30.5q-195 0 -229 -163q-4 -23 -4 -41q0 -131 172 -131q113 0 190 143h148 q-143 -268 -365 -268q-121 0 -198 53q-91 59 -91 174z" />
<glyph unicode="&#xaa;" horiz-adv-x="774" d="M252 942q0 39 8 82q33 150 145.5 237t268.5 87q123 0 194 -56l13 54h139l-135 -633h-140l11 45q-98 -57 -224 -58q-125 0 -198 60q-82 63 -82 182zM393 958q0 -137 164 -137q94 0 165 55.5t89 147.5q6 31 6 57q0 55 -27.5 92t-62.5 48q-23 6 -84 6q-201 0 -244 -203 q-6 -37 -6 -66z" />
<glyph unicode="&#xab;" horiz-adv-x="800" d="M211 522l16 76l449 244l-29 -137l-260 -144l199 -145l-27 -131zM449 522l16 76l448 244l-28 -137l-260 -144l198 -145l-26 -131z" />
<glyph unicode="&#xac;" horiz-adv-x="1232" d="M164 510l22 108h1098l-74 -344h-135l51 236h-962z" />
<glyph unicode="&#xad;" horiz-adv-x="1212" d="M158 473l8 39h1069l-8 -39h-1069z" />
<glyph unicode="&#x2212;" horiz-adv-x="1212" d="M158 473l8 39h1069l-8 -39h-1069z" />
<glyph unicode="&#xae;" horiz-adv-x="1112" d="M209 836q0 43 10 92q43 203 238 329q178 119 395 119q178 0 307 -86q147 -98 148 -268q0 -45 -11 -92q-43 -207 -235 -332q-176 -115 -397 -115q-180 0 -308 84q-147 97 -147 269zM352 864q0 -127 109 -196q94 -61 227 -62q162 0 293 82q145 90 176 240q8 35 8 65 q0 100 -73 170q-66 59 -127 78q-39 10 -138 10q-164 0 -292 -82q-143 -88 -177 -239q-6 -35 -6 -66zM473 643l119 563h278q186 0 189 -125q0 -100 -76 -166q20 -29 21 -67q0 -18 -5 -39l-34 -166h-142l35 164q10 47 -67 47h-134l-45 -211h-139zM684 981h129q90 0 100 53 q10 45 -69 45h-139z" />
<glyph unicode="&#xaf;" horiz-adv-x="641" d="M287 1223l8 39h592l-8 -39h-592z" />
<glyph unicode="&#x2c9;" horiz-adv-x="641" d="M287 1223l8 39h592l-8 -39h-592z" />
<glyph unicode="&#xb0;" horiz-adv-x="860" d="M299 1014q0 156 158 254q117 74 256 73q117 0 200 -51q102 -61 103 -170q0 -162 -168 -262q-117 -70 -250 -70q-115 0 -201 54q-98 63 -98 172zM434 1036q0 -66 64 -102q53 -31 125 -31q86 0 155 39q84 45 101 123q2 16 2 33q0 66 -66 100q-51 29 -125 29q-92 0 -168 -47 q-88 -56 -88 -144z" />
<glyph unicode="&#xb1;" horiz-adv-x="1290" d="M186 -6l27 123h920l-27 -123h-920zM281 446l26 123h391l68 318h135l-67 -318h393l-27 -123h-393l-68 -323h-135l68 323h-391z" />
<glyph unicode="&#xb2;" horiz-adv-x="802" d="M139 524q57 266 391 428l213 101q43 20 62 37q33 25 33 57q0 84 -170 84q-123 0 -183.5 -52.5t-87.5 -172.5h-141q76 350 430 350q295 0 295 -176q0 -25 -6 -54q-23 -111 -205 -194l-199 -92q-197 -92 -254 -193h596l-26 -123h-748z" />
<glyph unicode="&#xb3;" horiz-adv-x="872" d="M211 745q0 31 8 64l14 63h144l-19 -79q-2 -14 -2 -29q0 -123 219 -123q248 0 275 133q4 14 4 27q0 102 -197 102h-118l24 123h121q203 0 225 104q23 100 -190 101q-127 0 -191 -45q-70 -49 -94 -168h-141q72 338 450 338q117 0 199 -35q115 -47 115 -147q0 -20 -6 -44 q-23 -109 -125 -165q72 -49 71 -138q0 -25 -6 -53q-27 -131 -168 -201q-117 -57 -266 -57q-137 0 -227 45q-119 59 -119 184z" />
<glyph unicode="&#xb4;" horiz-adv-x="434" d="M272 1135q4 23 29 39l270 186q27 18 56 18q25 0 45 -14t16 -39q-6 -20 -33 -39l-270 -186q-23 -16 -55 -17q-23 0 -43.5 14.5t-14.5 37.5z" />
<glyph unicode="&#xb5;" d="M0 -350l287 1349h135l-117 -550q-14 -61 -14 -115q0 -254 284 -254q305 0 361 262l141 657h135l-141 -659q-49 -236 -262 -332q-18 -8 -21 -22q-12 -53 154 -54l-27 -129q-295 0 -280 158q-41 -4 -84 -4q-225 0 -324 129l-92 -436h-135z" />
<glyph unicode="&#xb6;" horiz-adv-x="1015" d="M268 834q0 47 13 98q43 209 237 338q180 121 402 121q8 0 18 -2h293l-352 -1661h-136l326 1536h-84l-326 -1536h-135l158 745q-170 2 -287 94q-127 101 -127 267z" />
<glyph unicode="&#xb7;" horiz-adv-x="428" d="M309 623l17 82q10 47 77 47q68 0 58 -47l-17 -82q-10 -49 -77 -50q-68 1 -58 50z" />
<glyph unicode="&#x2219;" horiz-adv-x="428" d="M309 623l17 82q10 47 77 47q68 0 58 -47l-17 -82q-10 -49 -77 -50q-68 1 -58 50z" />
<glyph unicode="&#xb8;" horiz-adv-x="530" d="M-68 -315l86 100q113 -31 175 -31q121 0 131 43q4 18 -76 25q-51 4 -127 -25l14 72l51 149h131l-22 -88q174 -6 174 -108q0 -16 -4 -33q-31 -145 -289 -145q-80 0 -244 41z" />
<glyph unicode="&#xb9;" horiz-adv-x="587" d="M135 1063l518 274h107l-172 -805h-146l133 627l-188 -96h-252z" />
<glyph unicode="&#xba;" horiz-adv-x="845" d="M260 958q0 35 8 72q31 150 164 236q119 78 279 77q131 0 217 -55q100 -66 100 -188q0 -33 -8 -70q-31 -145 -158 -229q-86 -57 -151 -74q-43 -10 -140 -10q-129 0 -213 55q-98 65 -98 186zM393 981q0 -152 205 -152q106 0 184 48q86 55 107 153q4 25 4 45q0 61 -40 100 t-79 50q-25 6 -90 6q-104 0 -180 -49q-84 -53 -105 -152q-6 -26 -6 -49z" />
<glyph unicode="&#xbb;" horiz-adv-x="780" d="M162 285l26 131l258 145l-196 144l29 137l346 -244l-17 -76zM399 285l27 131l258 145l-197 144l29 137l346 -244l-16 -76z" />
<glyph unicode="&#xbc;" horiz-adv-x="1671" d="M197 1063l497 276h103l-176 -833h-136l140 661l-195 -104h-233zM338 0l1030 1421h145l-1030 -1421h-145zM754 262l491 590h150l-389 -469h350l100 471l131 -6l-98 -465h188l-26 -121h-189l-55 -262h-133l55 262h-575z" />
<glyph unicode="&#xbd;" horiz-adv-x="1644" d="M174 1063l498 276h102l-176 -833h-135l139 659l-192 -102h-236zM315 0l1033 1421h145l-1032 -1421h-146zM850 0q66 281 381 432l201 96q111 53 120 101q4 12 4 22q0 90 -174 90q-123 0 -186 -57t-92 -180h-131q80 356 426 356q289 0 289 -178q0 -27 -7 -57 q-25 -111 -190 -191l-207 -102q-209 -104 -266 -213h596l-25 -119h-739z" />
<glyph unicode="&#xbe;" horiz-adv-x="1855" d="M236 711q0 37 8 77l12 62h131l-16 -78q-4 -16 -4 -31q0 -72 82 -106q61 -27 143 -27q94 0 170 29q98 39 115 117q4 16 4 30q0 109 -203 109h-113l25 119h115q236 0 235 135q0 90 -199 90q-127 0 -195.5 -50t-96.5 -173h-132q80 342 449 342q117 0 197 -35 q111 -47 110 -150q0 -20 -4 -45q-25 -115 -137 -174q82 -53 82 -145q0 -27 -6 -53q-29 -133 -168 -205q-117 -59 -267 -60q-339 1 -337 222zM524 0l1032 1421h146l-1032 -1421h-146zM940 262l494 590h151l-391 -469h348l100 471l132 -6l-99 -465h189l-27 -121h-188l-56 -262 h-133l56 262h-576z" />
<glyph unicode="&#xbf;" d="M61 82q0 180 170 321l240 189q133 106 158 215l18 90h137l-16 -82q-45 -203 -303 -377q-119 -80 -160 -116q-82 -78 -100 -166q-4 -25 -4 -47q0 -98 102 -146q76 -33 189 -33q186 0 296 93q100 84 158 270l113 -76q-147 -412 -596 -412q-158 0 -266 58q-136 74 -136 219z M676 1016q0 10 4 20l27 125q12 66 77 66q57 0 60 -45q0 -8 -2 -21l-27 -125q-14 -63 -84 -63q-55 0 -55 43z" />
<glyph unicode="&#xc0;" horiz-adv-x="1384" d="M-20 0l966 1407h115l344 -1407h-150l-106 434h-721l-295 -434h-153zM514 559h604l-157 647zM870 1696q6 29 37 47q23 16 45 16q27 0 45 -24l183 -238q16 -20 10 -47q-12 -59 -80 -59q-29 0 -49 20l-180 240q-15 20 -11 45z" />
<glyph unicode="&#xc1;" horiz-adv-x="1384" d="M-20 0l966 1407h115l344 -1407h-150l-106 434h-721l-295 -434h-153zM514 559h604l-157 647zM819 1456q6 25 31 45l283 238q31 25 57 24q27 0 43 -19.5t10 -43.5q-4 -25 -29 -45l-282 -240q-27 -23 -55 -22q-27 0 -45.5 19t-12.5 44z" />
<glyph unicode="&#xc2;" horiz-adv-x="1384" d="M-20 0l966 1407h115l344 -1407h-150l-106 434h-721l-295 -434h-153zM514 559h604l-157 645zM678 1382l342 353h88l197 -353h-164l-111 197l-196 -197h-156z" />
<glyph unicode="&#xc3;" horiz-adv-x="1384" d="M-20 0l966 1403h115l344 -1403h-150l-106 432h-721l-295 -432h-153zM514 557h604l-157 645zM694 1450q18 82 83 136t147 54q45 0 147 -57q90 -49 105 -49q55 0 92 139l110 -69q-27 -94 -92 -144.5t-137 -50.5q-47 0 -152 57q-88 49 -104 50q-53 0 -90 -144z" />
<glyph unicode="&#xc4;" horiz-adv-x="1384" d="M-20 0l966 1403h115l344 -1403h-150l-106 432h-721l-295 -432h-153zM514 557h604l-157 645zM821 1444q0 10 2 20l23 107q14 66 82 65q55 0 55 -45q0 -10 -2 -20l-23 -107q-14 -66 -81 -65q-56 0 -56 45zM1059 1444q0 8 2 20l22 107q14 66 80 65q57 0 58 -45q0 -10 -2 -20 l-23 -107q-14 -66 -84 -65q-53 0 -53 45z" />
<glyph unicode="&#xc5;" horiz-adv-x="1384" d="M-20 0l966 1409h115l344 -1409h-150l-106 434h-721l-295 -434h-153zM514 559h604l-157 647zM825 1561q0 106 95 176q72 51 155 51q70 0 120 -39t50 -107q0 -109 -94 -176q-72 -51 -156 -51q-70 0 -120 39t-50 107zM969 1602q-12 -57 53 -58q70 0 82 58q12 57 -57 57 q-66 0 -78 -57z" />
<glyph unicode="&#xc6;" horiz-adv-x="2205" d="M-131 0l1601 1389h973l-26 -125h-848l-101 -478h95l-2 -2h645l-25 -122h-739l-115 -537h858l-26 -125h-996l142 662h-498l-762 -662h-176zM952 786h379l86 402z" />
<glyph unicode="&#xc7;" horiz-adv-x="1472" d="M182 492q0 86 21 184q72 338 321.5 532.5t597.5 194.5q408 0 549 -283l-129 -71q-113 227 -448 227q-285 0 -490 -157.5t-264 -434.5q-18 -84 -18 -158q0 -215 143 -327q133 -104 356 -105q324 0 551 232l96 -72q-281 -285 -671 -285q-342 0 -502 191q-113 133 -113 332z M444 -307l93 114q115 -37 174 -36q119 0 131 53q6 27 -74 35q-49 4 -127 -31l18 84l56 176h131l-27 -104q170 -6 170 -125q0 -20 -4 -43q-37 -172 -295 -172q-84 0 -231 45z" />
<glyph unicode="&#xc8;" horiz-adv-x="1155" d="M72 0l299 1407h1087l-26 -127h-955l-104 -485h846l-25 -125h-846l-117 -545h965l-27 -125h-1097zM748 1677q6 29 38 47q20 14 43 15q29 0 45 -23l183 -239q16 -20 12 -43q-14 -63 -84 -64q-29 0 -45 23l-182 237q-16 20 -10 47z" />
<glyph unicode="&#xc9;" horiz-adv-x="1155" d="M72 0l299 1407h1087l-26 -127h-955l-104 -485h846l-25 -125h-846l-117 -545h965l-27 -125h-1097zM696 1434q4 25 29 45l285 237q27 23 53 23q29 0 46 -18.5t11 -45.5q-6 -25 -30 -45l-281 -237q-29 -23 -57 -23q-27 0 -44.5 19.5t-11.5 44.5z" />
<glyph unicode="&#xca;" horiz-adv-x="1155" d="M72 0l299 1407h1087l-26 -125h-955l-104 -487h846l-25 -125h-846l-117 -543h965l-27 -127h-1097zM563 1403l340 352h88l201 -352h-166l-113 196l-194 -196h-156z" />
<glyph unicode="&#xcb;" horiz-adv-x="1155" d="M72 0l299 1403h1087l-26 -125h-955l-104 -485h846l-27 -125h-846l-115 -543h965l-27 -125h-1097zM705 1460q0 8 4 21l22 106q14 66 80 66q57 0 57 -45q0 -10 -2 -21l-22 -106q-14 -66 -84 -66q-55 0 -55 45zM942 1460q0 10 2 21l23 106q14 66 82 66q55 0 55 -45 q0 -10 -2 -21l-23 -106q-14 -66 -82 -66q-55 0 -55 45z" />
<glyph unicode="&#xcc;" horiz-adv-x="274" d="M72 0l299 1407h135l-299 -1407h-135zM313 1706q6 25 32 44t52 19q29 0 45 -22l181 -240q16 -20 12 -43q-14 -63 -84 -63q-29 0 -45 22l-182 238q-15 20 -11 45z" />
<glyph unicode="&#xcd;" horiz-adv-x="274" d="M72 0l299 1407h135l-299 -1407h-135zM260 1456q4 23 31 43l280 240q31 25 58 24q29 0 45 -18.5t10 -44.5q-4 -25 -29 -45l-282 -240q-27 -23 -56 -22q-27 0 -45 19t-12 44z" />
<glyph unicode="&#xce;" horiz-adv-x="274" d="M72 0l299 1407h135l-299 -1407h-135zM121 1395l340 352h88l201 -352h-164l-113 196l-197 -196h-155z" />
<glyph unicode="&#xcf;" horiz-adv-x="274" d="M72 0l299 1403h135l-299 -1403h-135zM264 1477q0 8 2 20l23 107q14 63 86 63q63 0 53 -61l-22 -109q-12 -68 -82 -67q-60 0 -60 47zM506 1475q0 10 2 22l22 107q14 63 80 63t56 -61l-23 -109q-12 -68 -84 -67q-53 0 -53 45z" />
<glyph unicode="&#xd0;" horiz-adv-x="1392" d="M72 0l135 633h-78l27 127h77l134 629h573q266 0 416 -115q166 -125 166 -379q0 -92 -23 -203q-72 -338 -332 -520q-244 -172 -600 -172h-495zM233 125h367q301 0 496 137q207 145 268 430q20 98 20 178q0 152 -73.5 250.5t-167.5 124.5q-61 18 -232 19h-436l-106 -504 h405l-26 -127h-406z" />
<glyph unicode="&#xd1;" horiz-adv-x="1392" d="M72 0l299 1403h131q121 -209 365 -598l368 -588l252 1186h135l-299 -1403h-133l-731 1190l-252 -1190h-135zM678 1438q16 80 81.5 135t145.5 55q45 0 150 -57q88 -49 104 -49q55 0 90 135l115 -62q-29 -96 -94.5 -147t-136.5 -51q-47 0 -152 57q-88 49 -104 49 q-53 0 -91 -143z" />
<glyph unicode="&#xd2;" horiz-adv-x="1550" d="M154 510q0 88 22 192q72 336 313 521q236 178 584 178q276 0 440 -117q186 -133 187 -395q0 -86 -21 -187q-72 -332 -315 -524q-166 -133 -299 -168q-88 -25 -291 -24q-279 0 -440 123q-180 137 -180 401zM293 543q0 -217 147 -330q133 -100 361 -100q289 0 486.5 154.5 t256.5 434.5q18 84 19 158q0 162 -91.5 265.5t-187.5 131.5q-66 18 -237 19q-287 0 -481.5 -147.5t-254.5 -426.5q-18 -85 -18 -159zM950 1706q12 57 84 57q31 0 47 -20l181 -240q16 -20 10 -45q-4 -25 -29.5 -43t-50.5 -18q-29 0 -47 22l-184 240q-17 20 -11 47z" />
<glyph unicode="&#xd3;" horiz-adv-x="1550" d="M154 510q0 88 22 192q72 336 313 521q236 178 584 178q276 0 440 -117q186 -133 187 -395q0 -86 -21 -187q-72 -332 -315 -524q-166 -133 -299 -168q-88 -25 -291 -24q-279 0 -440 123q-180 137 -180 401zM293 543q0 -217 147 -330q133 -100 361 -100q289 0 486.5 154.5 t256.5 434.5q18 86 19 158q0 164 -91.5 266.5t-187.5 130.5q-66 18 -237 19q-287 0 -481.5 -147.5t-254.5 -426.5q-18 -85 -18 -159zM899 1448q0 37 33 63l282 240q27 25 54 25q29 0 46 -18.5t13 -45.5q-6 -27 -31 -47l-286 -240q-29 -20 -54 -20q-57 0 -57 43z" />
<glyph unicode="&#xd4;" horiz-adv-x="1550" d="M154 510q0 88 22 192q72 336 313 521q236 178 584 178q276 0 440 -117q186 -133 187 -395q0 -86 -21 -187q-72 -332 -315 -524q-166 -133 -299 -168q-88 -25 -291 -24q-279 0 -440 123q-180 137 -180 401zM293 543q0 -217 147 -330q133 -100 361 -100q289 0 486.5 154.5 t256.5 434.5q18 86 19 158q0 164 -91.5 266.5t-187.5 130.5q-66 18 -237 19q-287 0 -481.5 -147.5t-254.5 -426.5q-18 -85 -18 -159zM764 1419l340 350h88l199 -350h-164l-113 195l-194 -195h-156z" />
<glyph unicode="&#xd5;" horiz-adv-x="1550" d="M154 512q0 86 22 190q72 334 316 519q236 178 581 178q274 0 440 -119q186 -133 187 -395q0 -84 -21 -183q-72 -332 -315 -524q-166 -133 -299 -168q-88 -25 -291 -24q-279 0 -440 123q-180 137 -180 403zM293 543q0 -217 147 -330q133 -102 359 -102q289 0 487.5 155.5 t257.5 435.5q18 82 19 154q0 164 -91.5 266.5t-189.5 130.5q-66 18 -235 19q-287 0 -480 -144q-197 -150 -256 -426q-18 -85 -18 -159zM772 1483q16 78 82 133t143 55q47 0 150 -57q90 -49 102 -49q57 0 94 139l113 -70q-33 -96 -97.5 -145t-135.5 -49q-45 0 -150 57 q-88 49 -104 49q-39 0 -66 -57q-8 -14 -31 -88z" />
<glyph unicode="&#xd6;" horiz-adv-x="1550" d="M154 502q0 92 22 198q70 334 313 519q238 178 584 178q274 0 438 -117q188 -133 189 -393q0 -86 -21 -187q-72 -330 -315 -522q-166 -133 -299 -168q-88 -25 -291 -24q-276 0 -438 120q-180 134 -182 396zM293 547q-2 -219 145 -334q133 -102 361 -102q289 0 487.5 155.5 t257.5 433.5q16 82 17 154q2 166 -89.5 268.5t-189.5 130.5q-66 18 -235 19q-289 0 -480 -146q-197 -147 -256 -426q-18 -81 -18 -153zM907 1475q0 10 2 22l23 107q14 63 80 63t55 -61l-23 -109q-12 -68 -83 -67q-54 0 -54 45zM1143 1475q0 10 2 22l22 107q14 63 82 63 q63 0 54 -61l-23 -109q-12 -68 -82 -67q-55 0 -55 45z" />
<glyph unicode="&#xd7;" horiz-adv-x="1003" d="M188 301l322 215l-229 211l118 80l230 -213l321 213l82 -80l-317 -211l231 -219l-119 -78l-233 215l-324 -211z" />
<glyph unicode="&#xd8;" horiz-adv-x="1550" d="M154 518q0 82 20 176q72 332 315 516q236 176 582 176q147 0 260 -32l66 88h145l-96 -133q252 -137 252 -432q0 -84 -21 -183q-70 -330 -313 -520q-168 -131 -299 -166q-90 -25 -293 -24q-150 0 -264 34l-57 -77h-146l92 127q-119 66 -182 190q-61 117 -61 260zM293 543 q0 -154 82 -264q43 -57 106 -95l768 1055q-90 23 -205 23q-287 0 -477 -144q-199 -147 -258 -424q-16 -79 -16 -151zM592 135q90 -27 207 -26q289 0 486.5 152.5t256.5 432.5q16 82 19 152q2 244 -199 350z" />
<glyph unicode="&#xd9;" horiz-adv-x="1359" d="M166 373q0 74 18 162l187 872h135l-184 -870q-16 -72 -15 -129q2 -295 398 -295q473 0 561 415l186 879h135l-186 -877q-115 -545 -723 -544q-512 0 -512 387zM852 1686q14 63 84 63q29 0 45 -23l182 -237q14 -20 11 -45q-6 -25 -31 -44.5t-51 -19.5q-25 0 -48 21 l-182 241q-14 21 -10 44z" />
<glyph unicode="&#xda;" horiz-adv-x="1359" d="M166 373q0 74 18 162l187 872h135l-184 -870q-16 -72 -15 -129q2 -295 398 -295q473 0 561 415l186 879h135l-186 -877q-115 -545 -723 -544q-512 0 -512 387zM801 1448q6 25 30 45l283 238q29 25 55 24q29 0 45.5 -18.5t12.5 -44.5q-6 -25 -31 -45l-283 -240 q-29 -20 -57 -21q-27 0 -43 18.5t-12 43.5z" />
<glyph unicode="&#xdb;" horiz-adv-x="1359" d="M166 373q0 74 18 162l187 872h135l-184 -870q-16 -72 -15 -129q2 -295 398 -295q473 0 561 415l186 879h135l-186 -877q-115 -545 -723 -544q-512 0 -512 387zM664 1399l342 352h88l198 -352h-164l-112 196l-197 -196h-155z" />
<glyph unicode="&#xdc;" horiz-adv-x="1359" d="M166 371q0 74 18 161l187 871h135l-187 -868q-14 -68 -14 -125q0 -299 397 -299q473 0 564 415l186 877h135l-186 -875q-115 -543 -723 -542q-512 0 -512 385zM811 1475q0 10 2 22l23 107q14 63 79 63q59 0 58 -45q0 -8 -2 -18l-23 -107q-14 -68 -84 -67q-53 0 -53 45z M1047 1475q0 10 2 22l22 107q14 63 82 63q57 0 57 -45q0 -8 -4 -18l-22 -107q-14 -68 -82 -67q-55 0 -55 45z" />
<glyph unicode="&#xdd;" horiz-adv-x="1345" d="M229 1407h177l438 -610l698 610h174l-829 -731l-144 -676h-135l144 676zM797 1456q6 25 30 45l283 238q31 25 57 24q27 0 44.5 -18.5t11.5 -44.5q-4 -25 -29 -45l-285 -240q-27 -23 -55 -22q-27 0 -45 19t-12 44z" />
<glyph unicode="&#xde;" horiz-adv-x="870" d="M74 0l295 1389h135l-62 -295h275q254 0 256 -244q0 -63 -17 -141q-80 -373 -403 -373h-272l-72 -336h-135zM305 457l277 2q184 2 237 250q12 59 12 106q0 154 -143 154h-272z" />
<glyph unicode="&#xdf;" horiz-adv-x="1034" d="M74 -4l166 786h-72l27 127h71q14 63 45 178q86 326 475 326q395 0 396 -231q0 -37 -11 -82q-47 -195 -229 -262q59 -37 107 -103q74 -102 73 -221q0 -45 -10 -90q-102 -485 -735 -485l26 124q231 0 365 70q166 86 209 291q8 41 8 78q0 156 -145 227q-111 53 -285 53 l27 125q231 0 313 29q117 41 141 156q6 31 6 55q0 96 -104 127q-53 14 -182 14q-272 0 -326 -252l-221 -1040h-135z" />
<glyph unicode="&#xe0;" horiz-adv-x="1130" d="M106 367q0 66 17 141q51 244 222 391.5t419 147.5q252 0 358 -164l33 159h135l-221 -1044h-135l31 147q-178 -168 -437 -168q-248 0 -354 156q-68 99 -68 234zM242 393q0 -139 83 -215t228 -76q178 0 314.5 115t174.5 291q12 63 13 119q0 109 -53.5 184.5t-116.5 95.5 q-43 14 -158 15q-180 0 -311 -119q-123 -115 -160 -295q-14 -62 -14 -115zM610 1317q6 29 39 47q20 14 43 14q29 0 47 -24l183 -236q16 -20 10 -45q-12 -59 -80 -59q-31 0 -47 20l-182 236q-19 22 -13 47z" />
<glyph unicode="&#xe1;" horiz-adv-x="1130" d="M131 367q0 68 16 143q51 242 223.5 389.5t417.5 147.5q252 0 359 -164l33 159h135l-221 -1044h-136l31 147q-178 -168 -436 -168q-248 0 -354 156q-68 97 -68 234zM266 393q0 -139 83 -215t229 -76q180 0 315 115t174 293q12 63 12 117q0 109 -53 184.5t-117 95.5 q-43 14 -157 15q-180 0 -306.5 -116t-164.5 -296q-15 -62 -15 -117zM584 1073q6 25 30 45l281 236q31 25 59 24q27 0 43.5 -17.5t12.5 -43.5q-6 -25 -29 -47l-289 -238q-29 -18 -53 -18q-67 0 -55 59z" />
<glyph unicode="&#xe2;" horiz-adv-x="1130" d="M131 367q0 68 16 143q51 242 223.5 389.5t417.5 147.5q252 0 359 -164l33 159h135l-221 -1044h-136l31 147q-178 -168 -436 -168q-248 0 -354 156q-68 97 -68 234zM266 393q0 -139 83 -215t229 -76q180 0 315 115t174 293q12 63 12 117q0 109 -53 184.5t-117 95.5 q-43 14 -157 15q-182 0 -312 -119q-121 -111 -159 -293q-15 -62 -15 -117zM449 1034l337 346h88l201 -346h-164l-112 193l-195 -193h-155z" />
<glyph unicode="&#xe3;" horiz-adv-x="1130" d="M131 367q0 66 16 141q51 242 223.5 388t415.5 146q252 0 359 -161l35 157h135l-221 -1040h-136l31 147q-178 -168 -436 -168q-248 0 -354 156q-68 99 -68 234zM266 393q0 -139 83 -215t229 -76q180 0 315 114t174 292q12 63 12 117q0 109 -54 183.5t-118 94.5 q-43 14 -157 15q-180 0 -306.5 -115t-162.5 -295q-15 -62 -15 -115zM455 1096q16 78 81.5 132t143.5 54q43 0 149 -57q88 -47 103 -47q57 0 92 137l113 -70q-33 -94 -96.5 -143t-135.5 -49q-47 0 -151 57q-88 49 -103 49q-39 0 -67 -57q-6 -14 -29 -86z" />
<glyph unicode="&#xe4;" horiz-adv-x="1130" d="M131 367q0 66 16 139q51 244 222.5 389t416.5 145q252 0 359 -161l35 159h135l-221 -1040h-136l31 147q-178 -168 -436 -168q-248 0 -354 156q-68 99 -68 234zM266 393q0 -139 83 -215t229 -76q180 0 315 113t174 291q12 63 12 117q0 145 -92 223q-86 72 -237 72 q-178 0 -310 -119q-123 -113 -159 -293q-15 -62 -15 -113zM616 1087q0 10 2 23l23 104q14 63 80 64q57 0 57 -45q0 -8 -2 -19l-22 -104q-14 -68 -84 -68q-54 0 -54 45zM852 1087q0 10 2 23l23 104q14 63 81 64q55 0 56 -45q0 -8 -2 -19l-23 -104q-14 -68 -82 -68 q-55 0 -55 45z" />
<glyph unicode="&#xe5;" horiz-adv-x="1130" d="M131 367q0 68 16 143q51 244 223.5 391.5t417.5 147.5q252 0 359 -162l33 157h135l-221 -1046h-136l31 149q-178 -170 -436 -170q-248 0 -354 156q-68 99 -68 234zM268 395q0 -139 83 -216t227 -77q180 0 315 115t174 293q14 63 14 119q0 109 -54 184.5t-118 95.5 q-43 14 -157 15q-180 0 -306.5 -117t-164.5 -297q-13 -62 -13 -115zM606 1208q0 106 94 174q74 51 158 52q70 0 120 -38t50 -106q0 -106 -94 -174q-70 -51 -154 -51q-72 0 -118 37q-56 40 -56 106zM752 1249q-12 -55 55 -55q68 0 80 55q10 55 -58 56q-67 -1 -77 -56z" />
<glyph unicode="&#xe6;" horiz-adv-x="2015" d="M104 358q0 66 17 140q49 240 222 383t415 143q252 0 360 -160l33 156h135l-35 -162q188 166 432 166q193 0 312 -86q133 -98 133 -281q0 -57 -14 -122l-17 -84l-932 -2l-2 -5q-10 -53 -10 -100q0 -244 330 -244q287 0 430 236h141q-197 -358 -600 -359q-254 0 -360 140 l-25 -119h-135l31 145q-178 -166 -437 -166q-246 0 -356 152q-68 94 -68 229zM242 387q0 -139 83 -213t226 -74q180 0 315 111t174 287q12 61 13 114q0 109 -54.5 181.5t-119.5 93.5q-41 14 -156 14q-180 0 -306 -111.5t-163 -291.5q-12 -60 -12 -111zM1188 559 q16 12 786 12q4 27 4 54q0 135 -92 209q-86 68 -227 67q-164 0 -297 -92q-141 -96 -174 -250z" />
<glyph unicode="&#xe7;" d="M109 340q0 61 14 131q53 254 236.5 403.5t441.5 149.5q221 0 323 -129q59 -74 66 -203l-137 -61q-6 143 -73 205.5t-210 62.5q-201 0 -336 -114.5t-176 -313.5q-12 -57 -12 -106q2 -143 96 -218q86 -68 233 -67q309 0 429 291l118 -54q-164 -360 -569 -360 q-197 0 -315 94q-129 101 -129 289zM256 -309l86 114q117 -37 174 -36q121 0 133 53q4 27 -76 33q-51 4 -127 -29l19 84l57 172h131l-26 -102q168 -6 168 -123q0 -20 -4 -43q-37 -170 -295 -170q-80 0 -240 47z" />
<glyph unicode="&#xe8;" d="M98 350q0 72 19 158q51 240 228 389.5t421 149.5q193 0 311 -91q131 -98 131 -284q0 -57 -14 -125l-18 -86l-936 -2q-6 -43 -7 -82q0 -274 326 -275q287 0 430 242h139q-195 -367 -600 -367q-430 0 -430 373zM270 584h785q2 29 2 55q0 139 -87 211t-231 72 q-168 0 -292 -90t-177 -248zM629 1317q12 57 84 57q31 0 45 -20l184 -236q16 -20 10 -45q-6 -31 -41 -49q-53 -29 -86 10l-186 236q-16 24 -10 47z" />
<glyph unicode="&#xe9;" d="M98 350q0 72 19 158q51 240 228 389.5t421 149.5q193 0 311 -91q131 -98 131 -284q0 -57 -14 -125l-18 -86l-936 -2q-6 -43 -7 -82q0 -274 326 -275q287 0 430 242h139q-195 -367 -600 -367q-430 0 -430 373zM270 584h785q2 29 2 55q0 139 -87 211t-231 72 q-168 0 -292 -90t-177 -248zM582 1077q4 25 28 45l283 236q27 23 53 22q23 0 45 -12q20 -23 15 -49q-4 -18 -27 -43l-289 -240q-29 -18 -53 -18q-67 0 -55 59z" />
<glyph unicode="&#xea;" d="M98 352q0 72 19 158q51 240 228 388.5t421 148.5q193 0 311 -91q131 -98 131 -284q0 -57 -14 -125l-18 -86l-936 -2q-6 -43 -7 -82q0 -274 326 -275q287 0 430 242h139q-195 -367 -600 -367q-199 0 -309 89q-121 98 -121 286zM270 584h785q2 29 2 55q0 139 -87 211 t-231 72q-168 0 -292 -90t-177 -248zM442 1034l342 346h88l199 -346h-164l-112 193l-195 -193h-158z" />
<glyph unicode="&#xeb;" d="M98 350q0 72 19 156q49 240 227 387t420 147q193 0 311 -88q131 -100 131 -282q0 -59 -12 -125l-18 -86l-938 -2q-6 -43 -7 -82q0 -272 328 -273q287 0 428 240h139q-193 -365 -598 -365q-430 0 -430 373zM268 582h785q4 29 4 55q0 137 -92 213q-84 68 -228 68 q-166 0 -290 -89t-179 -247zM588 1087q0 10 2 23l22 104q14 63 82 64q55 0 56 -45q0 -8 -2 -19l-23 -104q-14 -68 -82 -68q-55 0 -55 45zM825 1087q0 10 2 23l23 104q14 63 80 64q57 0 57 -45q0 -8 -2 -19l-22 -104q-14 -68 -84 -68q-54 0 -54 45z" />
<glyph unicode="&#xec;" horiz-adv-x="278" d="M74 0l217 1024h135l-217 -1024h-135zM231 1315q6 25 32 44t50 19q27 0 45 -24l185 -236q16 -20 10 -45q-4 -25 -29.5 -43t-52.5 -18t-45 22l-182 236q-17 20 -13 45z" />
<glyph unicode="&#xed;" horiz-adv-x="278" d="M74 0l217 1024h135l-217 -1024h-135zM180 1067q4 23 29 43l285 238q27 23 55 22q27 0 43 -19.5t12 -43.5q-6 -23 -31 -43l-280 -236q-27 -23 -57 -22q-25 0 -43.5 18t-12.5 43z" />
<glyph unicode="&#xee;" horiz-adv-x="278" d="M61 1034l326 346h92l185 -346h-164l-99 191l-186 -191h-154zM74 0l217 1024h135l-217 -1024h-135z" />
<glyph unicode="&#xef;" horiz-adv-x="278" d="M74 0l217 1018h135l-217 -1018h-135zM193 1090q0 8 2 20l22 104q14 63 84 64q55 0 55 -45q0 -8 -2 -19l-22 -104q-14 -68 -82 -68q-57 1 -57 48zM432 1087q0 10 2 23l23 104q14 63 80 64q57 0 57 -45q0 -8 -2 -19l-23 -104q-14 -68 -84 -68q-53 0 -53 45z" />
<glyph unicode="&#xf0;" horiz-adv-x="1155" d="M106 367q0 68 17 143q51 242 223 389.5t418 147.5q252 0 358 -162l52 239h-680l26 125h680l29 140h135l-295 -1391h-135l31 147q-178 -168 -437 -168q-248 0 -354 156q-68 97 -68 234zM242 393q0 -139 83 -215t228 -76q180 0 315.5 115t173.5 293q12 63 13 117 q0 109 -53.5 184.5t-116.5 95.5q-43 14 -158 15q-182 0 -311 -119q-121 -111 -160 -293q-14 -62 -14 -117z" />
<glyph unicode="&#xf1;" d="M74 0l217 1020h135l-23 -109q152 131 379 131q154 0 252 -61q119 -76 119 -217q0 -41 -8 -84l-146 -680h-135l142 662q6 37 6 67q0 188 -254 189q-162 0 -277.5 -94.5t-150.5 -254.5l-121 -569h-135zM455 1096q16 76 81.5 131t143.5 55q43 0 149 -57q88 -47 105 -47 q55 0 90 137l113 -70q-29 -94 -93.5 -143t-136.5 -49q-47 0 -151 57q-88 49 -105 49q-53 0 -88 -141z" />
<glyph unicode="&#xf2;" horiz-adv-x="1116" d="M106 375q0 63 17 135q51 244 231.5 390.5t429.5 146.5q199 0 318 -101q127 -106 127 -299q0 -66 -15 -137q-51 -236 -229 -383q-125 -102 -221 -131q-66 -18 -211 -19q-252 0 -369 152q-78 103 -78 246zM246 403q0 -147 92 -224t244 -77q188 0 323 112t174 296 q12 59 13 111q0 113 -57.5 189.5t-123.5 96.5q-43 14 -155 15q-190 0 -324.5 -112t-173.5 -300q-12 -58 -12 -107zM651 1317q6 29 39 47q20 14 43 14q29 0 47 -24l183 -236q16 -20 10 -45q-12 -59 -80 -59q-31 0 -47 20l-182 236q-19 22 -13 47z" />
<glyph unicode="&#xf3;" horiz-adv-x="1116" d="M106 375q0 63 17 135q51 244 231.5 390.5t429.5 146.5q199 0 318 -101q127 -106 127 -299q0 -66 -15 -137q-51 -236 -229 -383q-125 -102 -221 -131q-66 -18 -211 -19q-252 0 -369 152q-78 103 -78 246zM246 403q0 -147 92 -224t244 -77q188 0 323 112t174 296 q12 59 13 111q0 113 -57.5 189.5t-123.5 96.5q-43 14 -155 15q-190 0 -324.5 -112t-173.5 -300q-12 -58 -12 -107zM598 1069q4 20 29 41l284 238q27 23 56 22q29 0 45 -18.5t12 -44.5q-6 -23 -31 -43l-284 -238q-23 -20 -54 -20q-27 0 -45 18t-12 45z" />
<glyph unicode="&#xf4;" horiz-adv-x="1116" d="M106 375q0 63 17 135q51 244 231.5 390.5t429.5 146.5q199 0 318 -101q127 -106 127 -299q0 -66 -15 -137q-51 -236 -229 -383q-125 -102 -221 -131q-66 -18 -211 -19q-252 0 -369 152q-78 103 -78 246zM246 406q0 -147 92 -225.5t244 -78.5q186 0 322 112t175 296 q12 59 13 111q0 113 -57.5 189.5t-123.5 96.5q-43 14 -155 15q-190 0 -324.5 -112t-173.5 -300q-12 -55 -12 -104zM463 1034l342 346h88l201 -346h-164l-113 193l-196 -193h-158z" />
<glyph unicode="&#xf5;" horiz-adv-x="1116" d="M106 375q0 61 17 133q51 242 231.5 388t427.5 146q252 0 367 -149q80 -104 80 -250q0 -63 -15 -135q-51 -236 -231 -383q-123 -102 -219 -129q-66 -18 -211 -19q-252 0 -367 150q-80 103 -80 248zM246 403q0 -147 92 -224t244 -77q186 0 322 111t175 295q12 59 13 110 q0 111 -58.5 188t-122.5 97q-43 14 -157 15q-190 0 -323.5 -111t-172.5 -299q-12 -56 -12 -105zM469 1094q18 96 86 142t141 46q41 0 148 -57q88 -47 104 -47q51 0 101 135l102 -68q-33 -94 -95.5 -143t-133.5 -49q-47 0 -152 57q-90 49 -102 49q-41 0 -66 -55 q-8 -16 -27 -88z" />
<glyph unicode="&#xf6;" horiz-adv-x="1116" d="M106 373q0 63 17 135q51 242 231.5 387t427.5 145q199 0 320 -98q127 -106 127 -299q0 -63 -15 -135q-51 -236 -231 -383q-123 -102 -219 -129q-66 -18 -211 -19q-201 0 -320 99q-127 104 -127 297zM246 403q0 -147 92 -224t244 -77q186 0 322 111t175 295q12 59 13 110 q0 111 -58.5 188t-122.5 97q-43 14 -157 15q-190 0 -323.5 -111t-172.5 -299q-12 -56 -12 -105zM608 1087q0 10 2 23l23 104q14 63 80 64q57 0 57 -45q0 -8 -2 -19l-23 -104q-14 -68 -83 -68q-54 0 -54 45zM844 1087q0 10 2 23l22 104q14 63 82 64q55 0 56 -45q0 -8 -2 -19 l-23 -104q-14 -68 -82 -68q-55 0 -55 45z" />
<glyph unicode="&#xf7;" horiz-adv-x="1212" d="M150 432l24 119h1069l-24 -119h-1069zM584 195q0 8 2 18l24 117q14 61 80 61q57 0 58 -43q0 -8 -3 -18l-24 -117q-12 -61 -82 -61q-55 0 -55 43zM674 621q0 8 2 18l24 117q14 59 80 59q70 0 56 -59l-25 -117q-12 -61 -82 -61q-55 0 -55 43z" />
<glyph unicode="&#xf8;" horiz-adv-x="1116" d="M104 367q2 63 17 135q51 240 232.5 385t426.5 145q96 0 176 -24l84 116h146l-123 -168q166 -111 166 -319q0 -63 -17 -135q-49 -236 -229 -383q-125 -102 -221 -129q-63 -18 -211 -19q-106 0 -189 29l-69 -96h-146l111 149q-154 109 -154 314zM244 395q0 -139 96 -225 l530 725q-53 12 -118 12q-188 0 -322.5 -109.5t-173.5 -295.5q-12 -58 -12 -107zM444 115q59 -18 136 -19q188 0 323 110.5t174 295.5q12 53 10 102q-2 156 -110 238z" />
<glyph unicode="&#xf9;" d="M139 264q0 45 13 98l139 660h135l-139 -657q-8 -41 -8 -76q0 -186 256 -187q172 0 282.5 98.5t147.5 270.5l116 551h136l-218 -1024h-135l23 111q-156 -131 -379 -132q-160 0 -256 64q-113 73 -113 223zM631 1309q4 23 29.5 42t48.5 19q29 0 49 -24l182 -236 q16 -20 12 -45q-8 -31 -43 -49q-49 -27 -88 10l-180 238q-16 20 -10 45z" />
<glyph unicode="&#xfa;" d="M139 264q0 45 13 98l139 662h135l-139 -659q-8 -41 -8 -76q0 -186 256 -187q172 0 282.5 98.5t147.5 270.5l116 553h136l-218 -1026h-135l23 111q-156 -131 -379 -132q-160 0 -256 64q-113 73 -113 223zM582 1075q4 23 28 43l281 236q31 25 57 24q27 0 45.5 -18.5 t12.5 -44.5q-4 -23 -31 -45l-283 -236q-27 -23 -55 -22q-27 0 -44 19t-11 44z" />
<glyph unicode="&#xfb;" d="M139 264q0 45 13 98l139 662h135l-139 -659q-8 -41 -8 -76q0 -186 256 -187q172 0 282.5 98.5t147.5 270.5l116 553h136l-218 -1026h-135l23 111q-156 -131 -379 -132q-160 0 -256 64q-113 73 -113 223zM442 1034l342 346h88l199 -346h-164l-112 193l-195 -193h-158z" />
<glyph unicode="&#xfc;" d="M139 262q0 47 11 98l141 658h135l-139 -656q-10 -41 -11 -73q0 -186 259 -187q352 0 430 367l116 549h136l-218 -1020h-135l23 111q-156 -131 -379 -132q-158 0 -254 64q-115 74 -115 221zM586 1087q0 10 2 23l22 104q14 63 82 64q55 0 56 -45q0 -8 -3 -19l-22 -104 q-14 -68 -82 -68q-55 0 -55 45zM823 1087q0 10 2 23l23 104q14 63 80 64q57 0 57 -45q0 -8 -2 -19l-22 -104q-14 -68 -84 -68q-54 0 -54 45z" />
<glyph unicode="&#xfd;" horiz-adv-x="1036" d="M23 -68q0 41 6 91h135q-2 -29 -2 -56q0 -121 84 -170q66 -39 200 -39q367 0 431 303l8 33q-158 -135 -381 -135q-160 0 -256 66q-111 76 -111 223q0 47 10 102l144 668h135l-141 -666q-10 -43 -11 -78q2 -188 256 -188q352 0 433 373l118 559h136l-205 -959 q-90 -426 -596 -426q-393 0 -393 299zM561 1075q4 25 29 45l284 238q27 23 54 22q23 0 45 -12q18 -25 14 -49q-4 -18 -26 -43l-291 -244q-29 -18 -54 -18t-43 18t-12 43z" />
<glyph unicode="&#xfe;" horiz-adv-x="1155" d="M0 -344l369 1733h135l-109 -510q176 164 424 163q197 0 309 -96q121 -102 121 -293q0 -70 -18 -149q-51 -246 -219 -391q-172 -152 -420 -152q-250 0 -356 164l-101 -469h-135zM301 360q4 -274 326 -274q184 0 311 121q121 113 160 297q14 61 14 117q0 141 -82 219 t-225 78q-184 0 -316.5 -114t-171.5 -296q-18 -82 -16 -148z" />
<glyph unicode="&#xff;" horiz-adv-x="1044" d="M20 -70q0 41 9 90h135q-4 -29 -4 -55q0 -121 86 -170q66 -37 200 -37q367 0 431 301l8 33q-158 -133 -381 -133q-160 0 -256 64q-111 74 -111 225q0 47 10 100l142 666h135l-141 -664q-8 -43 -9 -78q0 -188 256 -188q172 0 287 102q106 98 144 271l118 557h135l-202 -957 q-90 -424 -596 -424q-396 0 -396 297zM571 1085q0 10 2 23l23 106q14 63 82 64q63 0 51 -61l-20 -109q-12 -68 -82 -68q-56 0 -56 45zM809 1085q0 10 2 23l23 106q14 63 79 64q66 0 54 -61l-21 -109q-12 -68 -84 -68q-53 0 -53 45z" />
<glyph unicode="&#x152;" horiz-adv-x="2068" d="M160 506q0 86 20 184q70 334 313.5 521.5t587.5 187.5q70 0 136 -10h1103l-26 -125h-772q182 -145 182 -394q0 -43 -6 -86h430l-25 -122h-426q-88 -352 -385 -539h772l-26 -123h-1071q-90 -16 -187 -16q-346 0 -508 190q-112 133 -112 332zM297 532q0 -215 149 -327 q133 -98 361 -99q70 0 135 11l244 1147q-61 10 -131 10q-287 0 -482 -152q-201 -154 -258 -432q-18 -84 -18 -158zM1083 152q113 41 209 116q188 150 250 394h-350zM1217 784h346q4 29 4 58q0 289 -254 389z" />
<glyph unicode="&#x153;" horiz-adv-x="2154" d="M156 369q0 61 14 131q51 240 231.5 382t425.5 142q344 0 426 -260q203 260 523 260q193 0 311 -86q133 -98 133 -281q0 -57 -14 -122l-17 -84l-934 -2q-6 -39 -6 -74q0 -274 326 -275q287 0 430 236h141q-197 -358 -600 -359q-346 0 -416 248q-199 -248 -528 -248 q-199 0 -317 97q-129 102 -129 295zM293 397q0 -145 96 -223q90 -74 240 -74q188 0 323 108.5t174 291.5q12 57 13 106q0 111 -58.5 185.5t-124.5 95.5q-43 14 -155 14q-190 0 -323.5 -108.5t-172.5 -292.5q-12 -56 -12 -103zM1282 571h784q4 27 5 54q0 135 -93 209 q-86 68 -227 67q-162 0 -288 -89t-181 -241z" />
<glyph unicode="&#x178;" horiz-adv-x="1357" d="M233 1403h179l436 -608l700 608h174l-829 -729l-143 -674h-136l144 674zM819 1475q0 10 2 22l23 107q14 63 82 63q63 0 53 -61l-23 -109q-12 -68 -82 -67q-55 0 -55 45zM1057 1475q0 10 2 22l22 107q14 63 80 63t56 -61l-23 -109q-12 -68 -84 -67q-53 0 -53 45z" />
<glyph unicode="&#x2c6;" horiz-adv-x="530" d="M182 1106l328 274h88l223 -274h-170l-123 149l-184 -149h-162z" />
<glyph unicode="&#x2dc;" horiz-adv-x="749" d="M297 1153q12 63 82 100q61 33 131 33q47 0 154 -37q94 -33 106 -32q41 0 59 28q12 18 25 62l119 -45q-31 -72 -91.5 -104t-129.5 -32q-43 0 -174 43q-74 25 -89 25q-39 0 -57 -31q-10 -14 -24 -61z" />
<glyph unicode="&#x2000;" horiz-adv-x="894" />
<glyph unicode="&#x2001;" horiz-adv-x="1789" />
<glyph unicode="&#x2002;" horiz-adv-x="894" />
<glyph unicode="&#x2003;" horiz-adv-x="1789" />
<glyph unicode="&#x2004;" horiz-adv-x="595" />
<glyph unicode="&#x2005;" horiz-adv-x="446" />
<glyph unicode="&#x2006;" horiz-adv-x="296" />
<glyph unicode="&#x2007;" horiz-adv-x="296" />
<glyph unicode="&#x2008;" horiz-adv-x="223" />
<glyph unicode="&#x2009;" horiz-adv-x="356" />
<glyph unicode="&#x200a;" horiz-adv-x="98" />
<glyph unicode="&#x2010;" horiz-adv-x="716" d="M170 520l8 41h619l-9 -41h-618z" />
<glyph unicode="&#x2011;" horiz-adv-x="716" d="M170 520l8 41h619l-9 -41h-618z" />
<glyph unicode="&#x2012;" horiz-adv-x="716" d="M170 520l8 41h619l-9 -41h-618z" />
<glyph unicode="&#x2013;" horiz-adv-x="1013" d="M63 520l9 41h1104l-9 -41h-1104z" />
<glyph unicode="&#x2014;" horiz-adv-x="1830" d="M63 520l9 41h1921l-8 -41h-1922z" />
<glyph unicode="&#x2018;" horiz-adv-x="358" d="M303 1079q2 8 6 19l140 248q23 41 73 40q70 0 58 -53q0 -8 -7 -18l-139 -248q-25 -41 -76 -41q-67 0 -55 53z" />
<glyph unicode="&#x2019;" horiz-adv-x="358" d="M303 1077q2 10 6 21l142 248q23 41 71 40q70 0 58 -53q0 -8 -7 -18l-137 -248q-23 -41 -78 -41q-67 0 -55 51z" />
<glyph unicode="&#x201a;" horiz-adv-x="598" d="M123 -133q2 8 8 20l139 248q23 41 72 41q70 0 59 -53q-2 -8 -6 -19l-139 -247q-23 -41 -78 -41q-65 0 -55 51z" />
<glyph unicode="&#x201c;" horiz-adv-x="546" d="M303 1079q2 8 6 19l140 248q23 41 73 40q70 0 58 -53q0 -8 -7 -18l-139 -248q-25 -41 -76 -41q-67 0 -55 53zM518 1079q2 8 6 19l140 248q23 41 73 40q70 0 58 -53q0 -8 -7 -18l-139 -248q-25 -41 -76 -41q-67 0 -55 53z" />
<glyph unicode="&#x201d;" horiz-adv-x="565" d="M303 1077q2 10 6 21l142 248q23 41 71 40q70 0 58 -53q0 -8 -7 -18l-137 -248q-23 -41 -78 -41q-67 0 -55 51zM518 1077q2 10 6 21l142 248q23 41 71 40q70 0 58 -53q0 -8 -7 -18l-137 -248q-23 -41 -78 -41q-67 0 -55 51z" />
<glyph unicode="&#x201e;" horiz-adv-x="718" d="M123 -133q2 8 8 20l139 248q23 41 72 41q70 0 59 -53q-2 -8 -6 -19l-139 -247q-23 -41 -78 -41q-65 0 -55 51zM338 -133q2 8 8 20l139 248q23 41 72 41q70 0 59 -53q-2 -8 -6 -19l-139 -247q-23 -41 -78 -41q-65 0 -55 51z" />
<glyph unicode="&#x2022;" horiz-adv-x="598" d="M188 567l41 197q6 27 88 43q59 12 105 12q41 0 96 -12q80 -16 74 -43l-41 -197q-6 -27 -88 -43q-61 -12 -107 -12q-41 0 -96 12q-78 16 -72 43z" />
<glyph unicode="&#x2026;" horiz-adv-x="1306" d="M240 43l18 84q10 47 78 47t57 -47l-18 -84q-8 -47 -76 -47q-67 0 -59 47zM627 43l18 84q10 47 78 47t57 -47l-18 -84q-8 -47 -76 -47q-67 0 -59 47zM1014 43l18 84q10 47 78 47t57 -47l-18 -84q-8 -47 -76 -47q-67 0 -59 47z" />
<glyph unicode="&#x202f;" horiz-adv-x="356" />
<glyph unicode="&#x2039;" horiz-adv-x="602" d="M211 522l16 76l449 244l-29 -137l-260 -144l199 -145l-27 -131z" />
<glyph unicode="&#x203a;" horiz-adv-x="602" d="M162 285l26 131l258 145l-196 144l29 137l346 -244l-17 -76z" />
<glyph unicode="&#x205f;" horiz-adv-x="446" />
<glyph unicode="&#x2122;" horiz-adv-x="1615" d="M336 1278l24 123h746l194 -506l404 506h149l-145 -690h-145l90 430l-338 -430h-103l-168 440l-90 -440h-143l121 567h-150l-120 -567h-144l121 567h-303z" />
<glyph unicode="&#xe000;" horiz-adv-x="1000" d="M0 1000h1000v-1000h-1000v1000z" />
<glyph unicode="&#xfb01;" horiz-adv-x="825" d="M621 0l217 1024h135l-217 -1024h-135zM877 1208l32 148q35 51 74 51q33 0 62 -45l-33 -160q-47 -45 -82 -45q-43 0 -53 51zM164 -2l168 797h-148l29 127h147l11 49q84 393 635 393l-27 -123q-190 0 -297 -47q-143 -63 -176 -223l-10 -49h227l-29 -127h-227l-168 -797 h-135z" />
<glyph unicode="&#xfb02;" horiz-adv-x="825" d="M621 0l295 1389h135l-295 -1389h-135zM164 -2l168 797h-148l29 127h147l11 49q84 393 635 393l-27 -123q-190 0 -297 -47q-143 -63 -176 -223l-10 -49h227l-29 -127h-227l-168 -797h-135z" />
<glyph unicode="&#xfb03;" horiz-adv-x="1372" d="M1168 0l217 1024h135l-217 -1024h-135zM1424 1208l32 148q35 51 74 51q33 0 62 -45l-33 -160q-47 -45 -82 -45q-43 0 -53 51zM711 -2l168 797h-148l29 127h147l11 49q84 393 635 393l-27 -123q-190 0 -297 -47q-143 -63 -176 -223l-10 -49h227l-29 -127h-227l-168 -797 h-135zM164 -2l168 797h-148l29 127h147l11 49q84 393 635 393l-27 -123q-190 0 -297 -47q-143 -63 -176 -223l-10 -49h227l-29 -127h-227l-168 -797h-135z" />
<glyph unicode="&#xfb04;" horiz-adv-x="1372" d="M1168 0l295 1389h135l-295 -1389h-135zM711 -2l168 797h-148l29 127h147l11 49q84 393 635 393l-27 -123q-190 0 -297 -47q-143 -63 -176 -223l-10 -49h227l-29 -127h-227l-168 -797h-135zM164 -2l168 797h-148l29 127h147l11 49q84 393 635 393l-27 -123 q-190 0 -297 -47q-143 -63 -176 -223l-10 -49h227l-29 -127h-227l-168 -797h-135z" />
</font>
</defs>
</svg>
