<?xml version="1.0" encoding="UTF-8" standalone="no"?>
<!DOCTYPE svg PUBLIC "-//W3C//DTD SVG 1.1//EN"
 "http://www.w3.org/Graphics/SVG/1.1/DTD/svg11.dtd">
<!-- Generated by graphviz version 2.26.3 (20100126.1600)
 -->
<!-- Title: G Pages: 1 -->
<svg width="461pt" height="3266pt"
 viewBox="0.00 0.00 461.00 3266.00" xmlns="http://www.w3.org/2000/svg" xmlns:xlink="http://www.w3.org/1999/xlink">
<g id="graph1" class="graph" transform="scale(1 1) rotate(0) translate(4 3262)">
<title>G</title>
<polygon fill="white" stroke="white" points="-4,5 -4,-3262 458,-3262 458,5 -4,5"/>
<g id="graph2" class="cluster"><title>cluster_global</title>
<polyline fill="none" stroke="gray" points="20,-98 433,-98 "/>
<path fill="none" stroke="gray" d="M433,-98C439,-98 445,-104 445,-110"/>
<polyline fill="none" stroke="gray" points="445,-110 445,-3238 "/>
<path fill="none" stroke="gray" d="M445,-3238C445,-3244 439,-3250 433,-3250"/>
<polyline fill="none" stroke="gray" points="433,-3250 20,-3250 "/>
<path fill="none" stroke="gray" d="M20,-3250C14,-3250 8,-3244 8,-3238"/>
<polyline fill="none" stroke="gray" points="8,-3238 8,-110 "/>
<path fill="none" stroke="gray" d="M8,-110C8,-104 14,-98 20,-98"/>
<text text-anchor="middle" x="226.5" y="-3236.1" font-family="Times Roman,serif" font-size="11.00" fill="gray">global</text>
</g>
<!-- \\WPV_Gallery -->
<g id="node2" class="node"><title>\\WPV_Gallery</title>
<a xlink:href="vamtam.shortcodes.gallery.html" xlink:title="WPV_Gallery" target="_parent">
<polygon fill="none" stroke="black" points="382,-3220 292,-3220 292,-3184 382,-3184 382,-3220"/>
<text text-anchor="middle" x="337" y="-3199.1" font-family="Courier,monospace" font-size="11.00">WPV_Gallery</text>
</a>
</g>
<!-- \\WpvShortcodeMapTrigger -->
<g id="node3" class="node"><title>\\WpvShortcodeMapTrigger</title>
<a xlink:href="vamtam.shortcodes.map-trigger.html" xlink:title="WpvShortcodeMapTrigger" target="_parent">
<polygon fill="none" stroke="black" points="419,-3166 255,-3166 255,-3130 419,-3130 419,-3166"/>
<text text-anchor="middle" x="337" y="-3145.1" font-family="Courier,monospace" font-size="11.00">WpvShortcodeMapTrigger</text>
</a>
</g>
<!-- \\WPV_Widget_Import -->
<g id="node4" class="node"><title>\\WPV_Widget_Import</title>
<a xlink:href="vamtam.importers.widget-importer.importer.html" xlink:title="WPV_Widget_Import" target="_parent">
<polygon fill="none" stroke="black" points="402,-2788 272,-2788 272,-2752 402,-2752 402,-2788"/>
<text text-anchor="middle" x="337" y="-2767.1" font-family="Courier,monospace" font-size="11.00">WPV_Widget_Import</text>
</a>
</g>
<!-- \\WP_Importer -->
<g id="node63" class="node"><title>\\WP_Importer</title>
<ellipse fill="none" stroke="black" cx="85" cy="-72" rx="79.9031" ry="18.3848"/>
<text text-anchor="middle" x="85" y="-68.4" font-family="Times Roman,serif" font-size="14.00" fill="gray">\WP_Importer</text>
</g>
<!-- \\WPV_Widget_Import&#45;&gt;\\WP_Importer -->
<g id="edge3" class="edge"><title>\\WPV_Widget_Import&#45;&gt;\\WP_Importer</title>
<path fill="none" stroke="black" d="M271.265,-2764.81C258.028,-2760.65 245.567,-2753.88 237,-2743 54.819,-2511.69 346.642,-325.737 165,-94 163.328,-91.8672 161.47,-89.9291 159.462,-88.1686"/>
<polygon fill="none" stroke="black" points="161.237,-85.1371 151.051,-82.2222 157.196,-90.853 161.237,-85.1371"/>
</g>
<!-- \\WPV_WXR_Parser -->
<g id="node5" class="node"><title>\\WPV_WXR_Parser</title>
<a xlink:href="vamtam.importers.importer.parsers.html" xlink:title="WPV_WXR_Parser" target="_parent">
<polygon fill="none" stroke="black" points="392,-3058 282,-3058 282,-3022 392,-3022 392,-3058"/>
<text text-anchor="middle" x="337" y="-3037.1" font-family="Courier,monospace" font-size="11.00">WPV_WXR_Parser</text>
</a>
</g>
<!-- \\WPV_WXR_Parser_Regex -->
<g id="node6" class="node"><title>\\WPV_WXR_Parser_Regex</title>
<a xlink:href="vamtam.importers.importer.parsers.html" xlink:title="WPV_WXR_Parser_Regex" target="_parent">
<polygon fill="none" stroke="black" points="413,-3004 261,-3004 261,-2968 413,-2968 413,-3004"/>
<text text-anchor="middle" x="337" y="-2983.1" font-family="Courier,monospace" font-size="11.00">WPV_WXR_Parser_Regex</text>
</a>
</g>
<!-- \\WPV_Import -->
<g id="node7" class="node"><title>\\WPV_Import</title>
<a xlink:href="vamtam.importers.importer.importer.html" xlink:title="WPV_Import" target="_parent">
<polygon fill="none" stroke="black" points="379,-2734 295,-2734 295,-2698 379,-2698 379,-2734"/>
<text text-anchor="middle" x="337" y="-2713.1" font-family="Courier,monospace" font-size="11.00">WPV_Import</text>
</a>
</g>
<!-- \\WPV_Import&#45;&gt;\\WP_Importer -->
<g id="edge5" class="edge"><title>\\WPV_Import&#45;&gt;\\WP_Importer</title>
<path fill="none" stroke="black" d="M294.903,-2715.75C274.119,-2713.23 250.635,-2706.3 237,-2689 58.466,-2462.45 343.006,-320.967 165,-94 163.328,-91.8677 161.469,-89.93 159.461,-88.1698"/>
<polygon fill="none" stroke="black" points="161.235,-85.1378 151.048,-82.2244 157.195,-90.8542 161.235,-85.1378"/>
</g>
<!-- \\wpv_authors -->
<g id="node8" class="node"><title>\\wpv_authors</title>
<a xlink:href="vamtam.widgets.authors.html" xlink:title="wpv_authors" target="_parent">
<polygon fill="none" stroke="black" points="382,-2464 292,-2464 292,-2428 382,-2428 382,-2464"/>
<text text-anchor="middle" x="337" y="-2443.1" font-family="Courier,monospace" font-size="11.00">wpv_authors</text>
</a>
</g>
<!-- \\WP_Widget -->
<g id="node66" class="node"><title>\\WP_Widget</title>
<ellipse fill="none" stroke="black" cx="85" cy="-18" rx="72.1249" ry="18.3848"/>
<text text-anchor="middle" x="85" y="-14.4" font-family="Times Roman,serif" font-size="14.00" fill="gray">\WP_Widget</text>
</g>
<!-- \\wpv_authors&#45;&gt;\\WP_Widget -->
<g id="edge7" class="edge"><title>\\wpv_authors&#45;&gt;\\WP_Widget</title>
<path fill="none" stroke="black" d="M291.335,-2445.26C271.49,-2442.38 249.877,-2435.3 237,-2419 73.391,-2211.94 322.135,-257.017 165,-45 161.618,-40.4365 157.427,-36.6359 152.749,-33.4719"/>
<polygon fill="none" stroke="black" points="154.297,-30.3265 143.873,-28.4366 150.844,-36.4151 154.297,-30.3265"/>
</g>
<!-- \\wpv_icon_link -->
<g id="node9" class="node"><title>\\wpv_icon_link</title>
<a xlink:href="vamtam.widgets.icon-link.html" xlink:title="wpv_icon_link" target="_parent">
<polygon fill="none" stroke="black" points="389,-2410 285,-2410 285,-2374 389,-2374 389,-2410"/>
<text text-anchor="middle" x="337" y="-2389.1" font-family="Courier,monospace" font-size="11.00">wpv_icon_link</text>
</a>
</g>
<!-- \\wpv_icon_link&#45;&gt;\\WP_Widget -->
<g id="edge9" class="edge"><title>\\wpv_icon_link&#45;&gt;\\WP_Widget</title>
<path fill="none" stroke="black" d="M284.848,-2390.16C266.92,-2386.74 248.488,-2379.53 237,-2365 77.0377,-2162.7 318.637,-252.145 165,-45 161.616,-40.4377 157.424,-36.638 152.745,-33.4744"/>
<polygon fill="none" stroke="black" points="154.293,-30.3287 143.868,-28.4399 150.84,-36.4177 154.293,-30.3287"/>
</g>
<!-- \\wpv_gmap_widget -->
<g id="node10" class="node"><title>\\wpv_gmap_widget</title>
<a xlink:href="vamtam.widgets.gmap.html" xlink:title="wpv_gmap_widget" target="_parent">
<polygon fill="none" stroke="black" points="396,-1816 278,-1816 278,-1780 396,-1780 396,-1816"/>
<text text-anchor="middle" x="337" y="-1795.1" font-family="Courier,monospace" font-size="11.00">wpv_gmap_widget</text>
</a>
</g>
<!-- \\wpv_gmap_widget&#45;&gt;\\WP_Widget -->
<g id="edge11" class="edge"><title>\\wpv_gmap_widget&#45;&gt;\\WP_Widget</title>
<path fill="none" stroke="black" d="M277.875,-1794.55C262.295,-1790.65 247.05,-1783.57 237,-1771 117.146,-1621.07 280.166,-198.556 165,-45 161.592,-40.4558 157.383,-36.6687 152.693,-33.5136"/>
<polygon fill="none" stroke="black" points="154.229,-30.3618 143.801,-28.4898 150.786,-36.4563 154.229,-30.3618"/>
</g>
<!-- \\WPV_Widget_Footer_Map -->
<g id="node11" class="node"><title>\\WPV_Widget_Footer_Map</title>
<a xlink:href="vamtam.widgets.footer-map.html" xlink:title="WPV_Widget_Footer_Map" target="_parent">
<polygon fill="none" stroke="black" points="416,-1762 258,-1762 258,-1726 416,-1726 416,-1762"/>
<text text-anchor="middle" x="337" y="-1741.1" font-family="Courier,monospace" font-size="11.00">WPV_Widget_Footer_Map</text>
</a>
</g>
<!-- \\WPV_Widget_Footer_Map&#45;&gt;\\WP_Widget -->
<g id="edge13" class="edge"><title>\\WPV_Widget_Footer_Map&#45;&gt;\\WP_Widget</title>
<path fill="none" stroke="black" d="M257.869,-1733.32C249.858,-1729.33 242.619,-1724.02 237,-1717 120.792,-1571.83 276.669,-193.686 165,-45 161.589,-40.4581 157.377,-36.6726 152.686,-33.5185"/>
<polygon fill="none" stroke="black" points="154.221,-30.366 143.793,-28.4962 150.779,-36.4612 154.221,-30.366"/>
</g>
<!-- \\WPV_Flickr_Widget -->
<g id="node12" class="node"><title>\\WPV_Flickr_Widget</title>
<a xlink:href="vamtam.widgets.flickr.html" xlink:title="WPV_Flickr_Widget" target="_parent">
<polygon fill="none" stroke="black" points="402,-1708 272,-1708 272,-1672 402,-1672 402,-1708"/>
<text text-anchor="middle" x="337" y="-1687.1" font-family="Courier,monospace" font-size="11.00">WPV_Flickr_Widget</text>
</a>
</g>
<!-- \\WPV_Flickr_Widget&#45;&gt;\\WP_Widget -->
<g id="edge15" class="edge"><title>\\WPV_Flickr_Widget&#45;&gt;\\WP_Widget</title>
<path fill="none" stroke="black" d="M271.402,-1684.7C258.159,-1680.55 245.661,-1673.8 237,-1663 124.437,-1522.59 273.173,-188.815 165,-45 161.586,-40.4606 157.372,-36.6767 152.679,-33.5238"/>
<polygon fill="none" stroke="black" points="154.213,-30.3704 143.784,-28.5029 150.772,-36.4664 154.213,-30.3704"/>
</g>
<!-- \\wpv_subpages -->
<g id="node13" class="node"><title>\\wpv_subpages</title>
<a xlink:href="vamtam.widgets.subpages.html" xlink:title="wpv_subpages" target="_parent">
<polygon fill="none" stroke="black" points="386,-1654 288,-1654 288,-1618 386,-1618 386,-1654"/>
<text text-anchor="middle" x="337" y="-1633.1" font-family="Courier,monospace" font-size="11.00">wpv_subpages</text>
</a>
</g>
<!-- \\wpv_subpages&#45;&gt;\\WP_Widget -->
<g id="edge17" class="edge"><title>\\wpv_subpages&#45;&gt;\\WP_Widget</title>
<path fill="none" stroke="black" d="M287.829,-1634.59C269.04,-1631.38 249.216,-1624.21 237,-1609 128.082,-1473.35 269.676,-183.945 165,-45 161.582,-40.4632 157.366,-36.6812 152.672,-33.5295"/>
<polygon fill="none" stroke="black" points="154.204,-30.3752 143.774,-28.5101 150.764,-36.472 154.204,-30.3752"/>
</g>
<!-- \\wpv_posts -->
<g id="node14" class="node"><title>\\wpv_posts</title>
<a xlink:href="vamtam.widgets.posts.html" xlink:title="wpv_posts" target="_parent">
<polygon fill="none" stroke="black" points="375,-2680 299,-2680 299,-2644 375,-2644 375,-2680"/>
<text text-anchor="middle" x="337" y="-2659.1" font-family="Courier,monospace" font-size="11.00">wpv_posts</text>
</a>
</g>
<!-- \\wpv_posts&#45;&gt;\\WP_Widget -->
<g id="edge19" class="edge"><title>\\wpv_posts&#45;&gt;\\WP_Widget</title>
<path fill="none" stroke="black" d="M298.438,-2662.14C276.835,-2659.99 251.415,-2653.29 237,-2635 58.8036,-2408.89 336.127,-276.507 165,-45 161.624,-40.4322 157.436,-36.6287 152.761,-33.4626"/>
<polygon fill="none" stroke="black" points="154.313,-30.3188 143.888,-28.4249 150.856,-36.406 154.313,-30.3188"/>
</g>
<!-- \\wpv_contactinfo -->
<g id="node15" class="node"><title>\\wpv_contactinfo</title>
<a xlink:href="vamtam.widgets.contactinfo.html" xlink:title="wpv_contactinfo" target="_parent">
<polygon fill="none" stroke="black" points="396,-2626 278,-2626 278,-2590 396,-2590 396,-2626"/>
<text text-anchor="middle" x="337" y="-2605.1" font-family="Courier,monospace" font-size="11.00">wpv_contactinfo</text>
</a>
</g>
<!-- \\wpv_contactinfo&#45;&gt;\\WP_Widget -->
<g id="edge21" class="edge"><title>\\wpv_contactinfo&#45;&gt;\\WP_Widget</title>
<path fill="none" stroke="black" d="M277.769,-2604.63C262.186,-2600.74 246.966,-2593.64 237,-2581 62.4506,-2359.65 332.629,-271.634 165,-45 161.622,-40.4332 157.434,-36.6304 152.758,-33.4648"/>
<polygon fill="none" stroke="black" points="154.309,-30.3206 143.885,-28.4276 150.853,-36.4081 154.309,-30.3206"/>
</g>
<!-- \\WPV_Widget_Post_Formats -->
<g id="node16" class="node"><title>\\WPV_Widget_Post_Formats</title>
<a xlink:href="vamtam.widgets.post-formats.html" xlink:title="WPV_Widget_Post_Formats" target="_parent">
<polygon fill="none" stroke="black" points="423,-2572 251,-2572 251,-2536 423,-2536 423,-2572"/>
<text text-anchor="middle" x="337" y="-2551.1" font-family="Courier,monospace" font-size="11.00">WPV_Widget_Post_Formats</text>
</a>
</g>
<!-- \\WPV_Widget_Post_Formats&#45;&gt;\\WP_Widget -->
<g id="edge23" class="edge"><title>\\WPV_Widget_Post_Formats&#45;&gt;\\WP_Widget</title>
<path fill="none" stroke="black" d="M250.813,-2539.42C245.601,-2536.04 240.899,-2531.94 237,-2527 66.0974,-2310.41 329.131,-266.762 165,-45 161.621,-40.4343 157.432,-36.6322 152.755,-33.467"/>
<polygon fill="none" stroke="black" points="154.305,-30.3225 143.881,-28.4305 150.85,-36.4104 154.305,-30.3225"/>
</g>
<!-- \\wpv_advertisement -->
<g id="node17" class="node"><title>\\wpv_advertisement</title>
<a xlink:href="vamtam.widgets.advertisement.html" xlink:title="wpv_advertisement" target="_parent">
<polygon fill="none" stroke="black" points="402,-2518 272,-2518 272,-2482 402,-2482 402,-2518"/>
<text text-anchor="middle" x="337" y="-2497.1" font-family="Courier,monospace" font-size="11.00">wpv_advertisement</text>
</a>
</g>
<!-- \\wpv_advertisement&#45;&gt;\\WP_Widget -->
<g id="edge25" class="edge"><title>\\wpv_advertisement&#45;&gt;\\WP_Widget</title>
<path fill="none" stroke="black" d="M271.284,-2494.8C258.047,-2490.64 245.581,-2483.87 237,-2473 69.7443,-2261.18 325.633,-261.889 165,-45 161.619,-40.4354 157.429,-36.634 152.752,-33.4694"/>
<polygon fill="none" stroke="black" points="154.302,-30.3245 143.877,-28.4335 150.847,-36.4127 154.302,-30.3245"/>
</g>
<!-- \\WpvLess -->
<g id="node18" class="node"><title>\\WpvLess</title>
<a xlink:href="vamtam.classes.less.html" xlink:title="WpvLess" target="_parent">
<polygon fill="none" stroke="black" points="369,-2356 305,-2356 305,-2320 369,-2320 369,-2356"/>
<text text-anchor="middle" x="337" y="-2335.1" font-family="Courier,monospace" font-size="11.00">WpvLess</text>
</a>
</g>
<!-- \\WpvSidebars -->
<g id="node19" class="node"><title>\\WpvSidebars</title>
<a xlink:href="vamtam.classes.sidebars.html" xlink:title="WpvSidebars" target="_parent">
<polygon fill="none" stroke="black" points="382,-2302 292,-2302 292,-2266 382,-2266 382,-2302"/>
<text text-anchor="middle" x="337" y="-2281.1" font-family="Courier,monospace" font-size="11.00">WpvSidebars</text>
</a>
</g>
<!-- \\WpvFramework -->
<g id="node20" class="node"><title>\\WpvFramework</title>
<a xlink:href="vamtam.classes.framework.html" xlink:title="WpvFramework" target="_parent">
<polygon fill="none" stroke="black" points="386,-2248 288,-2248 288,-2212 386,-2212 386,-2248"/>
<text text-anchor="middle" x="337" y="-2227.1" font-family="Courier,monospace" font-size="11.00">WpvFramework</text>
</a>
</g>
<!-- \\WpvFormatFilter -->
<g id="node21" class="node"><title>\\WpvFormatFilter</title>
<a xlink:href="vamtam.classes.format-filter.html" xlink:title="WpvFormatFilter" target="_parent">
<polygon fill="none" stroke="black" points="396,-2194 278,-2194 278,-2158 396,-2158 396,-2194"/>
<text text-anchor="middle" x="337" y="-2173.1" font-family="Courier,monospace" font-size="11.00">WpvFormatFilter</text>
</a>
</g>
<!-- \\WpvEnqueues -->
<g id="node22" class="node"><title>\\WpvEnqueues</title>
<a xlink:href="vamtam.classes.enqueues.html" xlink:title="WpvEnqueues" target="_parent">
<polygon fill="none" stroke="black" points="382,-2140 292,-2140 292,-2104 382,-2104 382,-2140"/>
<text text-anchor="middle" x="337" y="-2119.1" font-family="Courier,monospace" font-size="11.00">WpvEnqueues</text>
</a>
</g>
<!-- \\WpvTemplates -->
<g id="node23" class="node"><title>\\WpvTemplates</title>
<a xlink:href="vamtam.classes.templates.html" xlink:title="WpvTemplates" target="_parent">
<polygon fill="none" stroke="black" points="386,-2086 288,-2086 288,-2050 386,-2050 386,-2086"/>
<text text-anchor="middle" x="337" y="-2065.1" font-family="Courier,monospace" font-size="11.00">WpvTemplates</text>
</a>
</g>
<!-- \\WpvShortcodeOverrides -->
<g id="node24" class="node"><title>\\WpvShortcodeOverrides</title>
<a xlink:href="vamtam.classes.shortcode-overrides.html" xlink:title="WpvShortcodeOverrides" target="_parent">
<polygon fill="none" stroke="black" points="416,-2032 258,-2032 258,-1996 416,-1996 416,-2032"/>
<text text-anchor="middle" x="337" y="-2011.1" font-family="Courier,monospace" font-size="11.00">WpvShortcodeOverrides</text>
</a>
</g>
<!-- \\WpvFancyPortfolio -->
<g id="node25" class="node"><title>\\WpvFancyPortfolio</title>
<a xlink:href="vamtam.classes.fancy-portfolio.html" xlink:title="WpvFancyPortfolio" target="_parent">
<polygon fill="none" stroke="black" points="402,-1978 272,-1978 272,-1942 402,-1942 402,-1978"/>
<text text-anchor="middle" x="337" y="-1957.1" font-family="Courier,monospace" font-size="11.00">WpvFancyPortfolio</text>
</a>
</g>
<!-- \\WpvPostFormats -->
<g id="node26" class="node"><title>\\WpvPostFormats</title>
<a xlink:href="vamtam.classes.post-formats.html" xlink:title="WpvPostFormats" target="_parent">
<polygon fill="none" stroke="black" points="392,-1924 282,-1924 282,-1888 392,-1888 392,-1924"/>
<text text-anchor="middle" x="337" y="-1903.1" font-family="Courier,monospace" font-size="11.00">WpvPostFormats</text>
</a>
</g>
<!-- \\Version_Checker -->
<g id="node27" class="node"><title>\\Version_Checker</title>
<a xlink:href="vamtam.admin.helpers.updates.version-checker.html" xlink:title="Version_Checker" target="_parent">
<polygon fill="none" stroke="black" points="396,-1870 278,-1870 278,-1834 396,-1834 396,-1870"/>
<text text-anchor="middle" x="337" y="-1849.1" font-family="Courier,monospace" font-size="11.00">Version_Checker</text>
</a>
</g>
<!-- \\WpvConfigGenerator -->
<g id="node28" class="node"><title>\\WpvConfigGenerator</title>
<a xlink:href="vamtam.admin.classes.config-generator.html" xlink:title="WpvConfigGenerator" target="_parent">
<polygon fill="none" stroke="black" points="154,-2869 16,-2869 16,-2833 154,-2833 154,-2869"/>
<text text-anchor="middle" x="85" y="-2848.1" font-family="Courier,monospace" font-size="11.00">WpvConfigGenerator</text>
</a>
</g>
<!-- \\WpvIconsHelper -->
<g id="node29" class="node"><title>\\WpvIconsHelper</title>
<a xlink:href="vamtam.admin.classes.icons-helper.html" xlink:title="WpvIconsHelper" target="_parent">
<polygon fill="none" stroke="black" points="392,-3112 282,-3112 282,-3076 392,-3076 392,-3112"/>
<text text-anchor="middle" x="337" y="-3091.1" font-family="Courier,monospace" font-size="11.00">WpvIconsHelper</text>
</a>
</g>
<!-- \\WpvAjax -->
<g id="node33" class="node"><title>\\WpvAjax</title>
<a xlink:href="vamtam.admin.classes.ajax.html" xlink:title="WpvAjax" target="_parent">
<polygon fill="none" stroke="black" points="117,-3031 53,-3031 53,-2995 117,-2995 117,-3031"/>
<text text-anchor="middle" x="85" y="-3010.1" font-family="Courier,monospace" font-size="11.00">WpvAjax</text>
</a>
</g>
<!-- \\WpvIconsHelper&#45;&gt;\\WpvAjax -->
<g id="edge27" class="edge"><title>\\WpvIconsHelper&#45;&gt;\\WpvAjax</title>
<path fill="none" stroke="black" d="M281.239,-3079.77C266.769,-3075.85 251.248,-3071.45 237,-3067 199.249,-3055.22 156.894,-3040 126.502,-3028.73"/>
<polygon fill="none" stroke="black" points="127.669,-3025.43 117.076,-3025.21 125.224,-3031.99 127.669,-3025.43"/>
</g>
<!-- \\WpvMetaboxesGenerator -->
<g id="node30" class="node"><title>\\WpvMetaboxesGenerator</title>
<a xlink:href="vamtam.admin.classes.metaboxes-generator.html" xlink:title="WpvMetaboxesGenerator" target="_parent">
<polygon fill="none" stroke="black" points="416,-2896 258,-2896 258,-2860 416,-2860 416,-2896"/>
<text text-anchor="middle" x="337" y="-2875.1" font-family="Courier,monospace" font-size="11.00">WpvMetaboxesGenerator</text>
</a>
</g>
<!-- \\WpvMetaboxesGenerator&#45;&gt;\\WpvConfigGenerator -->
<g id="edge29" class="edge"><title>\\WpvMetaboxesGenerator&#45;&gt;\\WpvConfigGenerator</title>
<path fill="none" stroke="black" d="M257.957,-2869.53C228.13,-2866.34 194.206,-2862.7 164.351,-2859.5"/>
<polygon fill="none" stroke="black" points="164.71,-2856.02 154.394,-2858.44 163.964,-2862.98 164.71,-2856.02"/>
</g>
<!-- \\WpvSkinManagement -->
<g id="node31" class="node"><title>\\WpvSkinManagement</title>
<a xlink:href="vamtam.admin.classes.skin-management.html" xlink:title="WpvSkinManagement" target="_parent">
<polygon fill="none" stroke="black" points="402,-2950 272,-2950 272,-2914 402,-2914 402,-2950"/>
<text text-anchor="middle" x="337" y="-2929.1" font-family="Courier,monospace" font-size="11.00">WpvSkinManagement</text>
</a>
</g>
<!-- \\WpvSkinManagement&#45;&gt;\\WpvAjax -->
<g id="edge31" class="edge"><title>\\WpvSkinManagement&#45;&gt;\\WpvAjax</title>
<path fill="none" stroke="black" d="M271.432,-2948.92C259.913,-2952.12 248.072,-2955.54 237,-2959 199.249,-2970.78 156.894,-2986 126.502,-2997.27"/>
<polygon fill="none" stroke="black" points="125.224,-2994.01 117.076,-3000.79 127.669,-3000.57 125.224,-2994.01"/>
</g>
<!-- \\WpvShortcodesGenerator -->
<g id="node32" class="node"><title>\\WpvShortcodesGenerator</title>
<a xlink:href="vamtam.admin.classes.shortcodes-generator.html" xlink:title="WpvShortcodesGenerator" target="_parent">
<polygon fill="none" stroke="black" points="419,-2842 255,-2842 255,-2806 419,-2806 419,-2842"/>
<text text-anchor="middle" x="337" y="-2821.1" font-family="Courier,monospace" font-size="11.00">WpvShortcodesGenerator</text>
</a>
</g>
<!-- \\WpvShortcodesGenerator&#45;&gt;\\WpvConfigGenerator -->
<g id="edge33" class="edge"><title>\\WpvShortcodesGenerator&#45;&gt;\\WpvConfigGenerator</title>
<path fill="none" stroke="black" d="M254.486,-2832.84C225.467,-2835.95 192.94,-2839.44 164.2,-2842.51"/>
<polygon fill="none" stroke="black" points="163.774,-2839.04 154.204,-2843.59 164.52,-2846 163.774,-2839.04"/>
</g>
<!-- \\WpvAdmin -->
<g id="node34" class="node"><title>\\WpvAdmin</title>
<a xlink:href="vamtam.admin.classes.admin.html" xlink:title="WpvAdmin" target="_parent">
<polygon fill="none" stroke="black" points="372,-1600 302,-1600 302,-1564 372,-1564 372,-1600"/>
<text text-anchor="middle" x="337" y="-1579.1" font-family="Courier,monospace" font-size="11.00">WpvAdmin</text>
</a>
</g>
<!-- \\WpvSidebarInterface -->
<g id="node35" class="node"><title>\\WpvSidebarInterface</title>
<a xlink:href="vamtam.admin.classes.sidebar-interface.html" xlink:title="WpvSidebarInterface" target="_parent">
<polygon fill="none" stroke="black" points="409,-1546 265,-1546 265,-1510 409,-1510 409,-1546"/>
<text text-anchor="middle" x="337" y="-1525.1" font-family="Courier,monospace" font-size="11.00">WpvSidebarInterface</text>
</a>
</g>
<!-- \\A -->
<g id="node36" class="node"><title>\\A</title>
<a xlink:href="node_modules.grunt-phpdocumentor.test.fixtures.directory_target.A.html" xlink:title="A" target="_parent">
<polygon fill="none" stroke="black" points="364,-1492 310,-1492 310,-1456 364,-1456 364,-1492"/>
<text text-anchor="middle" x="337" y="-1471.1" font-family="Courier,monospace" font-size="11.00">A</text>
</a>
</g>
<!-- \\WPV_Editor_Shortcode_Config -->
<g id="node37" class="node"><title>\\WPV_Editor_Shortcode_Config</title>
<a xlink:href="vamtam-editor.config-generator.html" xlink:title="WPV_Editor_Shortcode_Config" target="_parent">
<polygon fill="none" stroke="black" points="436,-1438 238,-1438 238,-1402 436,-1402 436,-1438"/>
<text text-anchor="middle" x="337" y="-1417.1" font-family="Courier,monospace" font-size="11.00">WPV_Editor_Shortcode_Config</text>
</a>
</g>
<!-- \\WPV_Text_Divider -->
<g id="node38" class="node"><title>\\WPV_Text_Divider</title>
<a xlink:href="vamtam-editor.shortcodes.handlers.text_divider.html" xlink:title="WPV_Text_Divider" target="_parent">
<polygon fill="none" stroke="black" points="399,-1384 275,-1384 275,-1348 399,-1348 399,-1384"/>
<text text-anchor="middle" x="337" y="-1363.1" font-family="Courier,monospace" font-size="11.00">WPV_Text_Divider</text>
</a>
</g>
<!-- \\WPV_Expandable -->
<g id="node39" class="node"><title>\\WPV_Expandable</title>
<a xlink:href="vamtam-editor.shortcodes.handlers.services_expandable.html" xlink:title="WPV_Expandable" target="_parent">
<polygon fill="none" stroke="black" points="392,-1330 282,-1330 282,-1294 392,-1294 392,-1330"/>
<text text-anchor="middle" x="337" y="-1309.1" font-family="Courier,monospace" font-size="11.00">WPV_Expandable</text>
</a>
</g>
<!-- \\WPV_Accordion -->
<g id="node40" class="node"><title>\\WPV_Accordion</title>
<a xlink:href="vamtam-editor.shortcodes.handlers.accordion.html" xlink:title="WPV_Accordion" target="_parent">
<polygon fill="none" stroke="black" points="389,-1276 285,-1276 285,-1240 389,-1240 389,-1276"/>
<text text-anchor="middle" x="337" y="-1255.1" font-family="Courier,monospace" font-size="11.00">WPV_Accordion</text>
</a>
</g>
<!-- \\WPV_Price -->
<g id="node41" class="node"><title>\\WPV_Price</title>
<a xlink:href="vamtam-editor.shortcodes.handlers.price.html" xlink:title="WPV_Price" target="_parent">
<polygon fill="none" stroke="black" points="375,-1222 299,-1222 299,-1186 375,-1186 375,-1222"/>
<text text-anchor="middle" x="337" y="-1201.1" font-family="Courier,monospace" font-size="11.00">WPV_Price</text>
</a>
</g>
<!-- \\WPV_Portfolio -->
<g id="node42" class="node"><title>\\WPV_Portfolio</title>
<a xlink:href="vamtam-editor.shortcodes.handlers.portfolio.html" xlink:title="WPV_Portfolio" target="_parent">
<polygon fill="none" stroke="black" points="389,-1168 285,-1168 285,-1132 389,-1132 389,-1168"/>
<text text-anchor="middle" x="337" y="-1147.1" font-family="Courier,monospace" font-size="11.00">WPV_Portfolio</text>
</a>
</g>
<!-- \\WPV_Team_Member -->
<g id="node43" class="node"><title>\\WPV_Team_Member</title>
<a xlink:href="vamtam-editor.shortcodes.handlers.team_member.html" xlink:title="WPV_Team_Member" target="_parent">
<polygon fill="none" stroke="black" points="396,-1114 278,-1114 278,-1078 396,-1078 396,-1114"/>
<text text-anchor="middle" x="337" y="-1093.1" font-family="Courier,monospace" font-size="11.00">WPV_Team_Member</text>
</a>
</g>
<!-- \\WPV_Divider -->
<g id="node44" class="node"><title>\\WPV_Divider</title>
<a xlink:href="vamtam-editor.shortcodes.handlers.divider.html" xlink:title="WPV_Divider" target="_parent">
<polygon fill="none" stroke="black" points="382,-1060 292,-1060 292,-1024 382,-1024 382,-1060"/>
<text text-anchor="middle" x="337" y="-1039.1" font-family="Courier,monospace" font-size="11.00">WPV_Divider</text>
</a>
</g>
<!-- \\WPV_Iframe -->
<g id="node45" class="node"><title>\\WPV_Iframe</title>
<a xlink:href="vamtam-editor.shortcodes.handlers.iframe.html" xlink:title="WPV_Iframe" target="_parent">
<polygon fill="none" stroke="black" points="379,-1006 295,-1006 295,-970 379,-970 379,-1006"/>
<text text-anchor="middle" x="337" y="-985.1" font-family="Courier,monospace" font-size="11.00">WPV_Iframe</text>
</a>
</g>
<!-- \\WPV_Linkarea -->
<g id="node46" class="node"><title>\\WPV_Linkarea</title>
<a xlink:href="vamtam-editor.shortcodes.handlers.linkarea.html" xlink:title="WPV_Linkarea" target="_parent">
<polygon fill="none" stroke="black" points="386,-952 288,-952 288,-916 386,-916 386,-952"/>
<text text-anchor="middle" x="337" y="-931.1" font-family="Courier,monospace" font-size="11.00">WPV_Linkarea</text>
</a>
</g>
<!-- \\WPV_Text -->
<g id="node47" class="node"><title>\\WPV_Text</title>
<a xlink:href="vamtam-editor.shortcodes.handlers.text.html" xlink:title="WPV_Text" target="_parent">
<polygon fill="none" stroke="black" points="372,-898 302,-898 302,-862 372,-862 372,-898"/>
<text text-anchor="middle" x="337" y="-877.1" font-family="Courier,monospace" font-size="11.00">WPV_Text</text>
</a>
</g>
<!-- \\WPV_Sitemap -->
<g id="node48" class="node"><title>\\WPV_Sitemap</title>
<a xlink:href="vamtam-editor.shortcodes.handlers.sitemap.html" xlink:title="WPV_Sitemap" target="_parent">
<polygon fill="none" stroke="black" points="382,-844 292,-844 292,-808 382,-808 382,-844"/>
<text text-anchor="middle" x="337" y="-823.1" font-family="Courier,monospace" font-size="11.00">WPV_Sitemap</text>
</a>
</g>
<!-- \\WPV_Gmap -->
<g id="node49" class="node"><title>\\WPV_Gmap</title>
<a xlink:href="vamtam-editor.shortcodes.handlers.gmap.html" xlink:title="WPV_Gmap" target="_parent">
<polygon fill="none" stroke="black" points="372,-790 302,-790 302,-754 372,-754 372,-790"/>
<text text-anchor="middle" x="337" y="-769.1" font-family="Courier,monospace" font-size="11.00">WPV_Gmap</text>
</a>
</g>
<!-- \\WPV_Blank -->
<g id="node50" class="node"><title>\\WPV_Blank</title>
<a xlink:href="vamtam-editor.shortcodes.handlers.blank.html" xlink:title="WPV_Blank" target="_parent">
<polygon fill="none" stroke="black" points="375,-736 299,-736 299,-700 375,-700 375,-736"/>
<text text-anchor="middle" x="337" y="-715.1" font-family="Courier,monospace" font-size="11.00">WPV_Blank</text>
</a>
</g>
<!-- \\WPV_Flickr -->
<g id="node51" class="node"><title>\\WPV_Flickr</title>
<a xlink:href="vamtam-editor.shortcodes.handlers.flickr.html" xlink:title="WPV_Flickr" target="_parent">
<polygon fill="none" stroke="black" points="379,-682 295,-682 295,-646 379,-646 379,-682"/>
<text text-anchor="middle" x="337" y="-661.1" font-family="Courier,monospace" font-size="11.00">WPV_Flickr</text>
</a>
</g>
<!-- \\WPV_Contact_Info -->
<g id="node52" class="node"><title>\\WPV_Contact_Info</title>
<a xlink:href="vamtam-editor.shortcodes.handlers.contact_info.html" xlink:title="WPV_Contact_Info" target="_parent">
<polygon fill="none" stroke="black" points="399,-628 275,-628 275,-592 399,-592 399,-628"/>
<text text-anchor="middle" x="337" y="-607.1" font-family="Courier,monospace" font-size="11.00">WPV_Contact_Info</text>
</a>
</g>
<!-- \\WPV_Columns -->
<g id="node53" class="node"><title>\\WPV_Columns</title>
<a xlink:href="vamtam-editor.shortcodes.handlers.column.html" xlink:title="WPV_Columns" target="_parent">
<polygon fill="none" stroke="black" points="382,-574 292,-574 292,-538 382,-538 382,-574"/>
<text text-anchor="middle" x="337" y="-553.1" font-family="Courier,monospace" font-size="11.00">WPV_Columns</text>
</a>
</g>
<!-- \\WPV_Slogan -->
<g id="node54" class="node"><title>\\WPV_Slogan</title>
<a xlink:href="vamtam-editor.shortcodes.handlers.slogan.html" xlink:title="WPV_Slogan" target="_parent">
<polygon fill="none" stroke="black" points="379,-520 295,-520 295,-484 379,-484 379,-520"/>
<text text-anchor="middle" x="337" y="-499.1" font-family="Courier,monospace" font-size="11.00">WPV_Slogan</text>
</a>
</g>
<!-- \\WPV_Tabs -->
<g id="node55" class="node"><title>\\WPV_Tabs</title>
<a xlink:href="vamtam-editor.shortcodes.handlers.tabs.html" xlink:title="WPV_Tabs" target="_parent">
<polygon fill="none" stroke="black" points="372,-466 302,-466 302,-430 372,-430 372,-466"/>
<text text-anchor="middle" x="337" y="-445.1" font-family="Courier,monospace" font-size="11.00">WPV_Tabs</text>
</a>
</g>
<!-- \\WPV_Blockquote -->
<g id="node56" class="node"><title>\\WPV_Blockquote</title>
<a xlink:href="vamtam-editor.shortcodes.handlers.blockquote.html" xlink:title="WPV_Blockquote" target="_parent">
<polygon fill="none" stroke="black" points="392,-412 282,-412 282,-376 392,-376 392,-412"/>
<text text-anchor="middle" x="337" y="-391.1" font-family="Courier,monospace" font-size="11.00">WPV_Blockquote</text>
</a>
</g>
<!-- \\WPV_Blog -->
<g id="node57" class="node"><title>\\WPV_Blog</title>
<a xlink:href="vamtam-editor.shortcodes.handlers.blog.html" xlink:title="WPV_Blog" target="_parent">
<polygon fill="none" stroke="black" points="372,-358 302,-358 302,-322 372,-322 372,-358"/>
<text text-anchor="middle" x="337" y="-337.1" font-family="Courier,monospace" font-size="11.00">WPV_Blog</text>
</a>
</g>
<!-- \\WPV_Services -->
<g id="node58" class="node"><title>\\WPV_Services</title>
<a xlink:href="vamtam-editor.shortcodes.handlers.services.html" xlink:title="WPV_Services" target="_parent">
<polygon fill="none" stroke="black" points="386,-304 288,-304 288,-268 386,-268 386,-304"/>
<text text-anchor="middle" x="337" y="-283.1" font-family="Courier,monospace" font-size="11.00">WPV_Services</text>
</a>
</g>
<!-- \\WPV_Editor_Parser -->
<g id="node59" class="node"><title>\\WPV_Editor_Parser</title>
<a xlink:href="vamtam-editor.parser.html" xlink:title="WPV_Editor_Parser" target="_parent">
<polygon fill="none" stroke="black" points="402,-250 272,-250 272,-214 402,-214 402,-250"/>
<text text-anchor="middle" x="337" y="-229.1" font-family="Courier,monospace" font-size="11.00">WPV_Editor_Parser</text>
</a>
</g>
<!-- \\WPV_Editor_AJAX -->
<g id="node60" class="node"><title>\\WPV_Editor_AJAX</title>
<a xlink:href="vamtam-editor.ajax.html" xlink:title="WPV_Editor_AJAX" target="_parent">
<polygon fill="none" stroke="black" points="396,-196 278,-196 278,-160 396,-160 396,-196"/>
<text text-anchor="middle" x="337" y="-175.1" font-family="Courier,monospace" font-size="11.00">WPV_Editor_AJAX</text>
</a>
</g>
<!-- \\WPV_Editor -->
<g id="node61" class="node"><title>\\WPV_Editor</title>
<a xlink:href="vamtam-editor.editor.html" xlink:title="WPV_Editor" target="_parent">
<polygon fill="none" stroke="black" points="379,-142 295,-142 295,-106 379,-106 379,-142"/>
<text text-anchor="middle" x="337" y="-121.1" font-family="Courier,monospace" font-size="11.00">WPV_Editor</text>
</a>
</g>
</g>
</svg>
