<?xml version="1.0" encoding="utf-8"?>
<!-- Generator: Adobe Illustrator 18.1.1, SVG Export Plug-In . SVG Version: 6.00 Build 0)  -->
<svg version="1.1" id="Layer_1" xmlns="http://www.w3.org/2000/svg" xmlns:xlink="http://www.w3.org/1999/xlink" x="0px" y="0px"
	 width="64px" height="64px" viewBox="0 0 64 64" enable-background="new 0 0 64 64" xml:space="preserve">
<g>
	<g>
		<path fill="#231F20" d="M32,63C14.9,63,1,49.1,1,32C1,14.9,14.9,1,32,1c17.1,0,31,13.9,31,31C63,49.1,49.1,63,32,63z"/>
	</g>
	<g>
		<path fill="#FFFFFF" d="M32,2c16.5,0,30,13.5,30,30S48.5,62,32,62S2,48.5,2,32S15.5,2,32,2 M32,0C14.3,0,0,14.3,0,32
			s14.3,32,32,32s32-14.3,32-32S49.7,0,32,0L32,0z"/>
	</g>
</g>
<g>
	<polygon fill="#FFFFFF" points="26.2,25.4 37.8,32 26.2,38.6 	"/>
	<path fill="#FFFFFF" d="M26.2,39.6c-0.2,0-0.3,0-0.5-0.1c-0.3-0.2-0.5-0.5-0.5-0.9V25.4c0-0.4,0.2-0.7,0.5-0.9s0.7-0.2,1,0
		l11.5,6.6c0.3,0.2,0.5,0.5,0.5,0.9s-0.2,0.7-0.5,0.9l-11.5,6.6C26.6,39.6,26.4,39.6,26.2,39.6z M27.2,27.1v9.8l8.5-4.9L27.2,27.1z"
		/>
</g>
</svg>
