<?xml version="1.0" encoding="utf-8"?>
<!-- Generator: Adobe Illustrator 16.0.0, SVG Export Plug-In . SVG Version: 6.00 Build 0)  -->
<!DOCTYPE svg PUBLIC "-//W3C//DTD SVG 1.1//EN" "http://www.w3.org/Graphics/SVG/1.1/DTD/svg11.dtd">
<svg version="1.1" id="Layer_1" xmlns="http://www.w3.org/2000/svg" xmlns:xlink="http://www.w3.org/1999/xlink" x="0px" y="0px"
	 width="19px" height="23.999px" viewBox="0 0 19 23.999" enable-background="new 0 0 19 23.999" xml:space="preserve">
<path fill="none" stroke="#252525" stroke-width="2" stroke-miterlimit="10" d="M17.017,6C17.51,6,18,6.4,18,6.894v15.211
	c0,0.493-0.4,0.895-0.895,0.895H1.895C1.401,22.999,1,22.598,1,22.104V6.894C1,6.4,1.507,6,2.001,6"/>
<line fill="none" stroke="#252525" stroke-width="2" stroke-miterlimit="10" x1="5.001" y1="14" x2="14.001" y2="14"/>
<line fill="none" stroke="#252525" stroke-width="2" stroke-miterlimit="10" x1="5.001" y1="18" x2="12.001" y2="18"/>
<polygon fill="#252525" points="12.963,9.936 9.546,8.265 6.165,10 6.777,6.387 4.001,3.858 7.795,3.297 9.461,0 11.194,3.266 
	15.001,3.756 12.277,6.336 "/>
</svg>
