<?xml version="1.0" ?><!DOCTYPE svg  PUBLIC '-//W3C//DTD SVG 1.1//EN'  'http://www.w3.org/Graphics/SVG/1.1/DTD/svg11.dtd'><svg enable-background="new 0 0 1000 600" height="600" id="Shape_1_1_" overflow="visible" version="1.1" viewBox="0 0 1000 600" width="1000" xml:space="preserve" xmlns="http://www.w3.org/2000/svg" xmlns:xlink="http://www.w3.org/1999/xlink"><g id="Shape_1"><g><path d="M267.07,381.235c-3.716,0-6.728,3.012-6.728,6.728s3.012,6.728,6.728,6.728    c3.715,0,6.728-3.012,6.728-6.728S270.785,381.235,267.07,381.235z M288.185,395.52c-0.249,0.692-0.528,1.371-0.841,2.03    l16.332,16.332c3.808-5.367,6.462-11.607,7.609-18.362H288.185z M274.627,409.08v23.097c6.754-1.146,12.993-3.804,18.36-7.61    l-16.332-16.332C275.995,408.547,275.32,408.832,274.627,409.08z M814.615,380.406h23.098c-1.146-6.755-3.803-12.994-7.609-18.361    l-16.332,16.332C814.084,379.036,814.367,379.713,814.615,380.406z M267.07,400.326c-1.575,0-2.852,1.277-2.852,2.852    c0,1.575,1.276,2.852,2.852,2.852c1.575,0,2.852-1.276,2.852-2.852C269.921,401.604,268.645,400.326,267.07,400.326z     M292.987,351.358c-5.367-3.807-11.606-6.463-18.36-7.609v23.097c0.693,0.248,1.369,0.531,2.029,0.844L292.987,351.358z     M267.07,314.522c-40.56,0-73.441,32.881-73.441,73.44c0,40.561,32.881,73.44,73.441,73.44s73.441-32.88,73.441-73.44    C340.511,347.403,307.63,314.522,267.07,314.522z M267.07,440.421c-28.972,0-52.458-23.486-52.458-52.458    s23.486-52.458,52.458-52.458s52.458,23.486,52.458,52.458S296.042,440.421,267.07,440.421z M819.416,351.358    c-5.366-3.807-11.605-6.463-18.36-7.609v23.097c0.693,0.248,1.369,0.531,2.029,0.844L819.416,351.358z M257.485,367.691    c0.66-0.313,1.335-0.598,2.028-0.846v-23.097c-6.754,1.146-12.993,3.804-18.36,7.61L257.485,367.691z M246.796,378.375    l-16.332-16.331c-3.808,5.367-6.463,11.607-7.609,18.362h23.1C246.203,379.713,246.483,379.035,246.796,378.375z M267.07,375.598    c1.575,0,2.852-1.277,2.852-2.852c0-1.575-1.277-2.852-2.852-2.852c-1.575,0-2.852,1.276-2.852,2.852    C264.218,374.32,265.495,375.598,267.07,375.598z M279.434,387.962c0,1.575,1.277,2.852,2.852,2.852    c1.575,0,2.852-1.276,2.852-2.852s-1.277-2.852-2.852-2.852C280.711,385.11,279.434,386.387,279.434,387.962z M245.953,395.52    h-23.098c1.146,6.755,3.803,12.994,7.61,18.361l16.332-16.332C246.484,396.889,246.201,396.213,245.953,395.52z M288.186,380.406    h23.098c-1.146-6.755-3.803-12.994-7.61-18.361l-16.332,16.332C287.655,379.036,287.938,379.713,288.186,380.406z     M241.152,424.567c5.367,3.807,11.607,6.464,18.361,7.609V409.08c-0.693-0.248-1.37-0.531-2.03-0.844L241.152,424.567z     M254.705,387.962c0-1.575-1.276-2.852-2.852-2.852c-1.575,0-2.852,1.276-2.852,2.852s1.277,2.852,2.852,2.852    C253.429,390.813,254.705,389.537,254.705,387.962z M467.042,138.435c-0.379-0.009-0.772-0.016-1.166-0.021    c0.202,0.007,0.409,0.014,0.613,0.021C466.676,138.435,466.854,138.435,467.042,138.435z M814.614,395.52    c-0.249,0.692-0.528,1.371-0.841,2.03l16.331,16.332c3.808-5.367,6.463-11.607,7.609-18.362H814.614z M793.499,314.522    c-40.561,0-73.441,32.881-73.441,73.44c0,40.561,32.881,73.44,73.441,73.44c40.56,0,73.44-32.88,73.44-73.44    C866.939,347.403,834.059,314.522,793.499,314.522z M793.499,440.421c-28.972,0-52.458-23.486-52.458-52.458    s23.486-52.458,52.458-52.458s52.457,23.486,52.457,52.458S822.471,440.421,793.499,440.421z M362.757,145.616    c0.166-0.046,0.334-0.088,0.5-0.135C362.771,145.563,362.619,145.606,362.757,145.616z M805.863,387.962    c0,1.575,1.276,2.852,2.852,2.852s2.852-1.276,2.852-2.852s-1.276-2.852-2.852-2.852S805.863,386.387,805.863,387.962z     M801.056,409.08v23.097c6.755-1.146,12.993-3.804,18.36-7.61l-16.332-16.332C802.424,408.547,801.749,408.832,801.056,409.08z     M465.876,138.413c-26.45-0.903-37.4-0.103-6.229,0.009C461.875,138.388,463.962,138.383,465.876,138.413z M940.716,360.866    c-2.651-1.613-11.406-3.261-16.306-3.374c-2.534-23.929-35.798-64.269-32.283-61.007    c-37.119-37.631-148.942-63.841-222.984-63.841c-7.122,0.75-14.245-1.849-21.366-1.1c-3.446-7.086-8.313-13.717-12.37-20.241    c-7.522-12.096-14.226-24.392-21.928-35.984c-3.496-5.262-14.722-14.485-19.639-17.181    c-25.398-13.919-90.752-18.431-127.351-19.704c-2.476-0.001-4.754-0.005-6.843-0.013c-32.409,0.499-94.921,7.328-96.89,7.194    c-13.08,3.607-26.646,4.618-39.42,8.874c-25.904,8.63-52.477,17.084-73.081,31.512c-20.734,14.519-38.436,32.108-58.476,47.23    c-6.847,5.166-12.275,12.818-19.117,17.992c-10.585,8.005-20.672,17.515-28.676,28.113c-2.935,3.887-7.753,6.801-10.683,10.683    c-3.264,4.326-11.612,15.316-15.743,17.992c-2.999,0.938-5.998,1.875-8.996,2.812c-5.518,2.395-20.088,10.947-20.804,17.431    c5.809,2.811,11.621,5.623,17.43,8.434c-2.437,8.62-4.874,17.244-7.31,25.864c-1.874,0-3.749,0-5.623,0    c-2.35,1.466-7.375,0.065-10.683,0.563c-5.318,0.799-12.238,1.141-17.993,1.124c-1.544,2.262-4.07,4.602-5.06,7.31    c-6.79,18.568,19.208,14.365,33.173,14.057c0,0.375,0,0.75,0,1.125c-2.517,3.4-2.049,8.833-3.936,12.932    c-0.631,1.369-9.957,10.113-11.246,10.683c-3.373,0-6.748,0-10.121,0c0,3.374,0,6.748,0,10.121    c44.347-0.185,128.12-0.555,128.12-0.555l2.248-0.009c-4.484-9.811-6.986-20.717-6.986-32.209    c0-42.837,34.726-77.563,77.563-77.563c42.836,0,77.562,34.726,77.562,77.563c0,11.275-2.408,21.987-6.734,31.653l1.36-0.006    h383.411c-4.325-9.664-6.733-20.374-6.733-31.647c0-42.837,34.727-77.563,77.563-77.563c42.836,0,77.563,34.726,77.563,77.563    c0,11.273-2.408,21.983-6.732,31.647c5.254,0,17.472,0,24.389,0c0.71-1.068,9.874-9.759,10.683-10.12    c3.929-1.757,9.109,0.56,12.37-1.125c1.46-0.754,11.102-12.371,11.808-14.057c0.75-3.186,1.499-6.372,2.249-9.558    c1.868-1.454,9.426-0.168,11.808-1.688C942.971,377.972,942.682,368.135,940.716,360.866z M438.614,240.78    c-3.069,2.232-7.813,1.395-7.813,1.395l-117.762,0.279c0,0-12.423-1.399-12.837-13.674c-0.187-5.522-0.525-9.981,2.847-13.686    c29.925-32.869,123.566-39.894,123.566-39.894s8.371,0.559,11.162,1.675c2.79,1.116,1.953,33.208,1.953,33.208    S441.684,238.547,438.614,240.78z M467.357,241.059c0,0-2.512,0.838-4.187-1.116c-1.674-1.953-1.396-4.465-1.396-4.465v-54.416    c0,0-0.325-4.646,1.675-6.139c11.35-8.478,104.925,4.465,104.925,4.465l10.046,60.555L467.357,241.059z M617.21,239.942    l-31.533-0.558l-10.046-58.881c0,0,16.464,5.022,20.371,7.813c3.906,2.79,27.627,38.23,28.464,45.765    C625.302,241.617,617.21,239.942,617.21,239.942z M892.127,296.485c0.461,0.468,0.92,0.936,1.358,1.407    C892.82,297.178,892.381,296.722,892.127,296.485z M793.499,381.235c-3.716,0-6.728,3.012-6.728,6.728s3.012,6.728,6.728,6.728    s6.728-3.012,6.728-6.728S797.215,381.235,793.499,381.235z M773.225,378.375l-16.331-16.331    c-3.808,5.367-6.463,11.607-7.609,18.362h23.1C772.632,379.713,772.912,379.035,773.225,378.375z M793.499,375.598    c1.574,0,2.852-1.277,2.852-2.852c0-1.575-1.277-2.852-2.852-2.852c-1.575,0-2.852,1.276-2.852,2.852    C790.647,374.32,791.924,375.598,793.499,375.598z M772.382,395.52h-23.098c1.146,6.755,3.803,12.994,7.609,18.361l16.332-16.332    C772.913,396.889,772.63,396.213,772.382,395.52z M783.914,367.691c0.66-0.313,1.335-0.598,2.028-0.846v-23.097    c-6.755,1.146-12.993,3.804-18.36,7.61L783.914,367.691z M793.499,400.326c-1.575,0-2.852,1.277-2.852,2.852    c0,1.575,1.276,2.852,2.852,2.852c1.574,0,2.852-1.276,2.852-2.852C796.351,401.604,795.073,400.326,793.499,400.326z     M767.581,424.567c5.366,3.807,11.606,6.464,18.361,7.609V409.08c-0.693-0.248-1.37-0.531-2.03-0.844L767.581,424.567z     M781.134,387.962c0-1.575-1.276-2.852-2.852-2.852c-1.574,0-2.852,1.276-2.852,2.852s1.277,2.852,2.852,2.852    C779.857,390.813,781.134,389.537,781.134,387.962z" fill="#323232"/></g></g></svg>