<?xml version="1.0" ?><!DOCTYPE svg  PUBLIC '-//W3C//DTD SVG 1.1//EN'  'http://www.w3.org/Graphics/SVG/1.1/DTD/svg11.dtd'><svg enable-background="new 0 0 1000 600" height="600" id="Shape_1_3_" overflow="visible" version="1.1" viewBox="0 0 1000 600" width="1000" xml:space="preserve" xmlns="http://www.w3.org/2000/svg" xmlns:xlink="http://www.w3.org/1999/xlink"><g id="Shape_1"><g><path d="M187.836,395.02c-4.079,0-7.386,3.307-7.386,7.386s3.307,7.386,7.386,7.386s7.386-3.307,7.386-7.386    S191.916,395.02,187.836,395.02z M177.314,380.15c0.724-0.343,1.466-0.655,2.227-0.928v-25.355    c-7.415,1.258-14.264,4.176-20.156,8.354L177.314,380.15z M187.836,415.978c-1.729,0-3.13,1.401-3.13,3.131    c0,1.729,1.401,3.13,3.13,3.13s3.13-1.401,3.13-3.13C190.967,417.379,189.565,415.978,187.836,415.978z M196.132,425.587v25.356    c7.415-1.259,14.264-4.177,20.156-8.355l-17.929-17.929C197.635,425.002,196.894,425.314,196.132,425.587z M211.017,410.7    c-0.273,0.761-0.58,1.506-0.923,2.229l17.928,17.929c4.18-5.892,7.095-12.743,8.354-20.158H211.017z M187.836,321.782    c-44.527,0-80.623,36.096-80.623,80.623c0,44.526,36.096,80.622,80.623,80.622s80.623-36.096,80.623-80.622    C268.459,357.878,232.363,321.782,187.836,321.782z M187.836,459.992c-31.805,0-57.587-25.782-57.587-57.587    s25.783-57.588,57.587-57.588s57.588,25.783,57.588,57.588S219.641,459.992,187.836,459.992z M201.41,402.404    c0,1.729,1.401,3.13,3.13,3.13s3.13-1.401,3.13-3.13c0-1.729-1.401-3.131-3.13-3.131S201.41,400.675,201.41,402.404z     M187.836,388.83c1.729,0,3.13-1.401,3.13-3.13c0-1.729-1.401-3.131-3.13-3.131s-3.13,1.401-3.13,3.131    C184.706,387.429,186.107,388.83,187.836,388.83z M216.289,362.221c-5.892-4.179-12.741-7.096-20.156-8.354v25.355    c0.761,0.272,1.503,0.584,2.228,0.927L216.289,362.221z M165.58,391.88l-17.928-17.929c-4.18,5.892-7.095,12.743-8.354,20.158    h25.359C164.929,393.349,165.236,392.604,165.58,391.88z M164.655,410.7h-25.357c1.258,7.415,4.175,14.266,8.354,20.157    l17.929-17.93C165.238,412.204,164.927,411.461,164.655,410.7z M159.384,442.589c5.892,4.18,12.742,7.096,20.157,8.354v-25.356    c-0.761-0.272-1.504-0.583-2.229-0.927L159.384,442.589z M174.263,402.404c0-1.729-1.401-3.131-3.13-3.131s-3.13,1.401-3.13,3.131    c0,1.729,1.401,3.13,3.13,3.13S174.263,404.133,174.263,402.404z M211.018,394.109h25.357c-1.259-7.415-4.175-14.266-8.354-20.157    l-17.929,17.93C210.435,392.605,210.746,393.348,211.018,394.109z M789.273,390.871c-4.078,0-7.385,3.308-7.385,7.386    c0,4.079,3.307,7.386,7.385,7.386c4.079,0,7.386-3.307,7.386-7.386C796.659,394.179,793.353,390.871,789.273,390.871z     M797.57,421.439v25.355c7.414-1.258,14.264-4.176,20.155-8.354l-17.93-17.93C799.072,420.854,798.331,421.167,797.57,421.439z     M789.273,411.83c-1.729,0-3.13,1.401-3.13,3.13c0,1.729,1.401,3.131,3.13,3.131c1.729,0,3.131-1.401,3.131-3.131    C792.404,413.231,791.003,411.83,789.273,411.83z M938.742,364.425c3.894-24.361-0.146-26.462-16.273-62.38    c-4.379-9.752-15.954-15.688-25.314-20.794c-48.921-26.685-171.067-43.229-179.005-43.395    c-24.868-24.765-65.578-71.341-120.214-108.598c-10.192-6.95-46.134-8.027-46.134-8.027s-294.928-11.301-365.243,5.425    c-6.066,1.442-10.282,0.939-15.369,3.616c-0.829,0.436-15.444,15.535-16.273,17.177c-0.81,1.604-5.596,6.829-7.232,9.041    c-10.851,14.667-24.152,29.147-33.451,45.203c-4.083,7.052-5.975,13.763-9.945,20.794c-3.821,6.768-17.723,11.975-19.889,24.409    c-1.04,5.966-7.825,3.736-8.137,12.657c3.099,0.957,3.473,2.089,7.232,2.712c-5.436,19.767-8.772,55.053-9.06,58.771    c0.007-0.002,0.013-0.005,0.02-0.007c-0.046,0.451-0.052,0.426-0.02,0.007c-17.009,5.34-15.43,35.902-17.019,30.364    c2.045,8.134,7.679,18.729,9.806,27.489c1.822,7.505-4.228,10.706-4.521,18.081c1.32,0.771,2.592,8.87,3.616,9.944    c4.3,11.836,37.949,22.548,37.949,22.548l3.334,0.004c-2.865-8.497-4.419-17.599-4.419-27.063    c0-46.754,37.901-84.655,84.655-84.655s84.655,37.901,84.655,84.655c0,9.538-1.579,18.708-4.487,27.263l442.863,0.551    c-4.024-9.863-6.248-20.651-6.248-31.962c0-46.753,37.901-84.654,84.654-84.654c46.754,0,84.655,37.901,84.655,84.654    c0,11.385-2.253,22.241-6.328,32.156l6.952,0.009c0,0,51.968,4.831,58.765-11.753c2.79-3.113,3.824-18.861,3.616-28.025    c0.1-9.427,2.004-7.608,4.521-13.562C943.899,371.298,937.841,367.068,938.742,364.425z M347.483,223.391    c-1.658,1.162-1.548,1.779-3.617,2.713c-6.585,4.99-70.862-1.809-158.211-1.809c1.486,2.12-10.225,0.291-0.904-19.89    c12.67-27.431,31.993-46.651,30.929-47.037c25.668-3.86,94.447-2.738,131.804-1.782    C346.726,177.284,347.035,189.036,347.483,223.391z M608.758,244.185c-1.347-1.919-5.584-4.361-6.328-6.328    c-0.86-2.274,1.414-6.767,0-9.945c-3.891-8.744-16.79-14.632-29.834-14.465c-3.108,3.6-7.803,5.202-9.945,9.944    c-0.593,1.313-2.878,13.747-2.712,14.466c0.447,1.942,1.554,2.306,1.835,3.306c2.324,0.093,1.197,0.357-0.027,1.214    c0.125-0.517,0.117-0.896,0.027-1.214c-6.519-0.261-40.229,0.829-175.416-6.019c-3.745-71.159-7.104-73.49,0.904-84.981    c79.107,0,162.732-0.904,162.732-0.904s59.5,72.629,77.749,95.831C624.519,246.634,614.02,244.417,608.758,244.185z     M665.714,236.952c-29.363-23.554-68.116-74.352-86.79-89.503c-6.332,0,14.816-0.36,26.218-2.712    c34.03,30.023,69.262,57.18,100.174,92.502C690.677,237.908,678.144,246.922,665.714,236.952z M789.273,317.635    c-44.526,0-80.622,36.096-80.622,80.622c0,44.527,36.096,80.623,80.622,80.623c44.527,0,80.623-36.096,80.623-80.623    C869.896,353.73,833.801,317.635,789.273,317.635z M789.273,455.845c-31.805,0-57.587-25.783-57.587-57.588    s25.782-57.587,57.587-57.587s57.588,25.782,57.588,57.587S821.078,455.845,789.273,455.845z M811.531,408.782l17.928,17.928    c4.18-5.892,7.095-12.742,8.354-20.157h-25.358C812.182,407.313,811.874,408.058,811.531,408.782z M812.455,389.961h25.357    c-1.259-7.415-4.176-14.265-8.354-20.156l-17.929,17.929C811.872,388.458,812.183,389.2,812.455,389.961z M778.752,376.003    c0.725-0.343,1.466-0.655,2.227-0.928v-25.356c-7.415,1.259-14.264,4.177-20.156,8.354L778.752,376.003z M775.7,398.256    c0-1.729-1.401-3.13-3.131-3.13c-1.729,0-3.13,1.401-3.13,3.13c0,1.729,1.401,3.131,3.13,3.131    C774.299,401.387,775.7,399.985,775.7,398.256z M789.273,384.683c1.729,0,3.131-1.401,3.131-3.131c0-1.729-1.401-3.13-3.131-3.13    c-1.729,0-3.13,1.401-3.13,3.13C786.144,383.281,787.545,384.683,789.273,384.683z M817.726,358.072    c-5.891-4.179-12.741-7.095-20.155-8.354v25.356c0.761,0.272,1.503,0.583,2.227,0.926L817.726,358.072z M802.848,398.256    c0,1.729,1.401,3.131,3.131,3.131c1.729,0,3.13-1.401,3.13-3.131c0-1.729-1.401-3.13-3.13-3.13    C804.249,395.126,802.848,396.527,802.848,398.256z M767.018,387.731l-17.929-17.928c-4.18,5.892-7.095,12.742-8.354,20.157    h25.358C766.367,389.2,766.674,388.456,767.018,387.731z M760.821,438.441c5.892,4.179,12.742,7.096,20.157,8.354v-25.355    c-0.762-0.272-1.504-0.584-2.229-0.927L760.821,438.441z M766.092,406.553h-25.356c1.259,7.415,4.175,14.265,8.354,20.156    l17.929-17.929C766.676,408.056,766.364,407.313,766.092,406.553z" fill="#323232"/></g></g></svg>