<svg xmlns="http://www.w3.org/2000/svg" xmlns:xlink="http://www.w3.org/1999/xlink" version="1.1" x="0px" y="0px" viewBox="0 0 90 50" enable-background="new 0 0 90 50" xml:space="preserve"><g><path fill="#323232" d="M66.289,37.75c0,3.695,3.002,6.693,6.697,6.693c3.701,0,6.705-2.998,6.705-6.693   c0-3.709-3.002-6.701-6.705-6.701C69.289,31.049,66.289,34.041,66.289,37.75z M69.496,37.75c0-1.936,1.562-3.502,3.49-3.502   c1.936,0,3.498,1.566,3.498,3.502c0,1.932-1.562,3.494-3.498,3.494C71.059,41.244,69.496,39.678,69.496,37.75z"></path><path fill="#323232" d="M11.106,37.75c0,3.695,3,6.693,6.701,6.693c3.701,0,6.701-2.998,6.701-6.693c0-3.709-3-6.701-6.701-6.701   C14.106,31.049,11.106,34.041,11.106,37.75z M14.315,37.75c0-1.936,1.56-3.502,3.492-3.502c1.934,0,3.496,1.566,3.496,3.502   c0,1.932-1.562,3.494-3.496,3.494C15.877,41.244,14.315,39.678,14.315,37.75z"></path><path fill="#323232" d="M2.456,24.771v9.86c0,0,2.371,4.289,7.758,4.289h0.028c-0.06-0.395-0.12-0.783-0.12-1.191   c0-4.262,3.453-7.713,7.715-7.713c4.26,0,7.713,3.453,7.713,7.713c0,0.408-0.062,0.797-0.122,1.191h39.951   c-0.061-0.395-0.119-0.783-0.119-1.191c0-4.262,3.453-7.713,7.717-7.713c4.258,0,7.713,3.453,7.713,7.713   c0,0.408-0.06,0.797-0.123,1.191h0.127h4.201c0,0,2.738-0.824,2.646-5.387c0,0-0.458-8.4-2.283-9.312c0,0-7.486-3.008-11.046-4.013   c0,0-12.142-10.957-29.122-12.508H7.479L3.646,18.198v5.111C3.646,23.309,2.548,23.402,2.456,24.771z M78.251,22.574l4.981,1.911   c2.302,0.672,2.592,3.279,2.592,3.279C80.198,27.139,78.251,22.574,78.251,22.574z M44.86,22.45   c0.011-0.207,0.222-0.36,0.473-0.347l2.303,0.111c0.253,0.012,0.45,0.187,0.438,0.394c-0.008,0.205-0.221,0.359-0.473,0.351   l-2.303-0.112C45.046,22.834,44.852,22.659,44.86,22.45z M43.717,11.534c0,0,15.518,1.098,20.174,8.674l-20.174-1.37V11.534z    M40.796,18.928l-18.989-1.004v-6.391h18.989V18.928z M13.509,20.999c0.011-0.205,0.193-0.364,0.409-0.351l25.233,1.213   c0.215,0.008,0.381,0.182,0.372,0.392c-0.008,0.205-0.192,0.363-0.409,0.351l-25.23-1.211   C13.667,21.381,13.498,21.208,13.509,20.999z M11.491,11.534h8.308v6.572l-8.308-0.547V11.534z"></path></g></svg>