<?xml version="1.0" ?><!DOCTYPE svg  PUBLIC '-//W3C//DTD SVG 1.1//EN'  'http://www.w3.org/Graphics/SVG/1.1/DTD/svg11.dtd'><svg enable-background="new 0 0 1000 600" height="600" id="Shape_1_8_" overflow="visible" version="1.1" viewBox="0 0 1000 600" width="1000" xml:space="preserve" xmlns="http://www.w3.org/2000/svg" xmlns:xlink="http://www.w3.org/1999/xlink"><g id="Shape_1"><g><path d="M269.468,298.774c-41.295,0-74.772,33.477-74.772,74.772c0,41.295,33.477,74.771,74.772,74.771    s74.772-33.477,74.772-74.771C344.24,332.251,310.764,298.774,269.468,298.774z M269.468,425.887    c-28.907,0-52.341-23.434-52.341-52.34c0-28.907,23.434-52.341,52.341-52.341c28.907,0,52.34,23.434,52.34,52.341    C321.809,402.453,298.375,425.887,269.468,425.887z M803.63,298.774c-41.296,0-74.772,33.477-74.772,74.772    c0,41.295,33.477,74.771,74.772,74.771s74.771-33.477,74.771-74.771C878.401,332.251,844.926,298.774,803.63,298.774z     M803.63,425.887c-28.907,0-52.341-23.434-52.341-52.34c0-28.907,23.434-52.341,52.341-52.341s52.341,23.434,52.341,52.341    C855.971,402.453,832.537,425.887,803.63,425.887z M935.96,342.638c-3.685-3.34-10.235-2.672-14.557-5.6    c4.683-3.686,3.359-13,3.359-21.274c0-6.345,0-12.691,0-19.036c-0.773-2.065-3.337-1.97-4.479-3.359    c-5.032-6.123-3.624-16.58-11.198-20.155c-10.987-9.517-38.753-10.566-55.987-13.438c-51.264-8.537-142.073-16.462-129.891-15.676    c-4.869-2.131-4.265-6.047-12.317-6.719c-1.672,1.864-0.812,1.139-2.239,1.12c-40.816-23.413-72.845-61.314-120.933-77.263    c-17.095-5.67-40.464-8.575-61.587-8.585c-21.795-0.01-81.113-4.838-87.34,11.943c-8.119,8.77-10.038,54.078-10.078,71.664    c-2.583,9.705-8.211,6.719-8.211,6.719H78.232c0,0-1.203,12.702-1.12,19.036c-9.473,13.925-1.372,62.622,0,78.382    c-6.123-0.244-12.436-0.367-15.676,2.24c-3.257,3.118-3.542,6.646-3.359,13.437c-3.45,8.927,7.838,35.086,7.838,35.086    l124.185,0.055c-0.06-1.255-0.093-2.518-0.093-3.788V372.87c0-43.289,35.093-78.382,78.383-78.382H271    c43.29,0,78.382,35.093,78.382,78.382v14.557c0,1.294-0.033,2.58-0.096,3.859l375.972,0.167c-0.057-1.211-0.088-2.429-0.088-3.653    v-15.303c0-43.083,34.926-78.009,78.009-78.009c43.084,0,78.01,34.926,78.01,78.009V387.8c0,1.248-0.032,2.489-0.09,3.723    l23.509,0.011c0,0,26.896-1.645,33.593-10.824C945.43,371.753,941.063,349.626,935.96,342.638z M648.185,250.817H495.899    l-7.839-79.502c0,0,107.916-19.389,160.124,47.029C641.523,225.276,648.185,250.817,648.185,250.817z M269.468,326.44    c-26.017,0-47.106,21.09-47.106,47.106c0,26.016,21.09,47.106,47.106,47.106c26.016,0,47.106-21.091,47.106-47.106    C316.574,347.53,295.484,326.44,269.468,326.44z M277.008,329.432c6.739,1.144,12.965,3.794,18.319,7.592l-16.295,16.295    c-0.658-0.312-1.333-0.594-2.024-0.842V329.432z M287.495,373.546c0,1.571-1.273,2.845-2.845,2.845    c-1.572,0-2.846-1.273-2.846-2.845s1.274-2.846,2.846-2.846C286.222,370.7,287.495,371.975,287.495,373.546z M269.468,355.519    c1.572,0,2.845,1.273,2.845,2.845s-1.273,2.846-2.845,2.846c-1.571,0-2.845-1.274-2.845-2.846S267.896,355.519,269.468,355.519z     M232.944,347.686l16.295,16.295c-0.312,0.658-0.591,1.335-0.839,2.026h-23.048C226.496,359.267,229.146,353.04,232.944,347.686z     M232.945,399.406c-3.798-5.354-6.449-11.581-7.593-18.32h23.046c0.248,0.691,0.53,1.366,0.842,2.024L232.945,399.406z     M261.929,417.662c-6.74-1.144-12.966-3.795-18.321-7.593l16.295-16.295c0.659,0.312,1.334,0.595,2.026,0.842V417.662z     M251.44,373.546c0-1.571,1.274-2.846,2.845-2.846c1.572,0,2.845,1.274,2.845,2.846s-1.273,2.845-2.845,2.845    C252.714,376.391,251.44,375.117,251.44,373.546z M261.929,352.477c-0.692,0.248-1.366,0.532-2.024,0.844l-16.295-16.296    c5.355-3.798,11.58-6.449,18.319-7.593V352.477z M269.468,391.573c-1.571,0-2.845-1.274-2.845-2.846s1.274-2.845,2.845-2.845    c1.572,0,2.845,1.273,2.845,2.845S271.04,391.573,269.468,391.573z M269.468,380.259c-3.708,0-6.713-3.005-6.713-6.712    c0-3.708,3.005-6.713,6.713-6.713c3.707,0,6.712,3.005,6.712,6.713C276.181,377.254,273.175,380.259,269.468,380.259z     M277.008,417.662v-23.046c0.691-0.247,1.365-0.531,2.023-0.844l16.295,16.296C289.972,413.866,283.748,416.519,277.008,417.662z     M305.992,399.407l-16.295-16.295c0.312-0.658,0.591-1.335,0.839-2.026h23.048C312.44,387.825,309.791,394.053,305.992,399.407z     M313.584,366.007h-23.047c-0.248-0.692-0.53-1.366-0.842-2.024l16.295-16.296C309.789,353.041,312.439,359.268,313.584,366.007z     M803.63,326.44c-26.017,0-47.106,21.09-47.106,47.106c0,26.016,21.09,47.106,47.106,47.106c26.016,0,47.106-21.091,47.106-47.106    C850.736,347.53,829.646,326.44,803.63,326.44z M811.17,329.432c6.739,1.144,12.965,3.794,18.319,7.592l-16.295,16.295    c-0.658-0.312-1.333-0.594-2.024-0.842V329.432z M821.657,373.546c0,1.571-1.274,2.845-2.846,2.845s-2.845-1.273-2.845-2.845    s1.273-2.846,2.845-2.846S821.657,371.975,821.657,373.546z M803.63,355.519c1.571,0,2.845,1.273,2.845,2.845    s-1.273,2.846-2.845,2.846s-2.846-1.274-2.846-2.846S802.059,355.519,803.63,355.519z M767.106,347.686l16.295,16.295    c-0.313,0.658-0.592,1.335-0.839,2.026h-23.049C760.658,359.267,763.308,353.04,767.106,347.686z M767.106,399.406    c-3.798-5.354-6.448-11.581-7.593-18.32h23.047c0.247,0.691,0.53,1.366,0.842,2.024L767.106,399.406z M796.09,417.662    c-6.739-1.144-12.965-3.795-18.32-7.593l16.295-16.295c0.659,0.312,1.334,0.595,2.025,0.842V417.662z M785.603,373.546    c0-1.571,1.273-2.846,2.845-2.846s2.846,1.274,2.846,2.846s-1.274,2.845-2.846,2.845S785.603,375.117,785.603,373.546z     M796.09,352.477c-0.691,0.248-1.365,0.532-2.023,0.844l-16.295-16.296c5.354-3.798,11.58-6.449,18.318-7.593V352.477z     M803.63,391.573c-1.571,0-2.846-1.274-2.846-2.846s1.274-2.845,2.846-2.845s2.845,1.273,2.845,2.845    S805.201,391.573,803.63,391.573z M803.63,380.259c-3.707,0-6.713-3.005-6.713-6.712c0-3.708,3.006-6.713,6.713-6.713    s6.713,3.005,6.713,6.713C810.343,377.254,807.337,380.259,803.63,380.259z M811.17,417.662v-23.046    c0.691-0.247,1.365-0.531,2.023-0.844l16.296,16.296C824.134,413.866,817.909,416.519,811.17,417.662z M840.153,399.407    l-16.294-16.295c0.312-0.658,0.591-1.335,0.839-2.026h23.048C846.602,387.825,843.953,394.053,840.153,399.407z M847.745,366.007    h-23.046c-0.248-0.692-0.53-1.366-0.842-2.024l16.295-16.296C843.951,353.041,846.602,359.268,847.745,366.007z" fill="#323232"/></g></g></svg>