<?xml version="1.0" ?><!DOCTYPE svg  PUBLIC '-//W3C//DTD SVG 1.1//EN'  'http://www.w3.org/Graphics/SVG/1.1/DTD/svg11.dtd'><svg enable-background="new 0 0 1000 600" height="600" id="Shape_1_7_" overflow="visible" version="1.1" viewBox="0 0 1000 600" width="1000" xml:space="preserve" xmlns="http://www.w3.org/2000/svg" xmlns:xlink="http://www.w3.org/1999/xlink"><g id="Shape_1"><g><path d="M245.773,380.676c-4.229,0-7.657,3.416-7.657,7.63c0,4.215,3.428,7.631,7.657,7.631    s7.657-3.416,7.657-7.631C253.43,384.092,250.002,380.676,245.773,380.676z M245.773,402.328c-1.792,0-3.246,1.448-3.246,3.234    s1.453,3.234,3.246,3.234s3.246-1.448,3.246-3.234S247.565,402.328,245.773,402.328z M254.374,412.256v26.197    c7.688-1.301,14.788-4.315,20.897-8.632l-18.588-18.523C255.932,411.652,255.163,411.975,254.374,412.256z M269.806,396.876    c-0.283,0.786-0.602,1.556-0.957,2.304l18.587,18.522c4.333-6.087,7.355-13.165,8.661-20.826H269.806z M234.864,365.313    c0.751-0.354,1.52-0.677,2.309-0.958v-26.196c-7.688,1.3-14.789,4.314-20.897,8.631L234.864,365.313z M245.773,305.011    c-46.164,0-83.587,37.293-83.587,83.295c0,46.003,37.423,83.295,83.587,83.295c46.164,0,83.587-37.292,83.587-83.295    C329.36,342.304,291.937,305.011,245.773,305.011z M245.773,447.803c-32.974,0-59.705-26.638-59.705-59.497    c0-32.858,26.73-59.496,59.705-59.496s59.705,26.638,59.705,59.496C305.478,421.165,278.747,447.803,245.773,447.803z     M216.274,429.822c6.108,4.317,13.21,7.33,20.898,8.631v-26.196c-0.79-0.282-1.56-0.604-2.311-0.958L216.274,429.822z     M231.7,388.305c0-1.786-1.453-3.234-3.246-3.234s-3.246,1.448-3.246,3.234s1.453,3.234,3.246,3.234S231.7,390.091,231.7,388.305z     M269.807,379.735h26.29c-1.305-7.661-4.329-14.738-8.662-20.825l-18.588,18.523C269.202,378.182,269.524,378.949,269.807,379.735    z M245.773,374.281c1.792,0,3.246-1.448,3.246-3.234s-1.453-3.234-3.246-3.234s-3.246,1.448-3.246,3.234    S243.98,374.281,245.773,374.281z M259.846,388.305c0,1.786,1.453,3.234,3.246,3.234s3.246-1.448,3.246-3.234    s-1.453-3.234-3.246-3.234S259.846,386.519,259.846,388.305z M222.698,377.432l-18.587-18.522    c-4.333,6.087-7.355,13.165-8.661,20.826h26.292C222.024,378.949,222.342,378.18,222.698,377.432z M804.771,375.802h26.289    c-1.305-7.661-4.329-14.738-8.662-20.825L803.81,373.5C804.165,374.248,804.487,375.016,804.771,375.802z M221.739,396.876H195.45    c1.305,7.661,4.328,14.738,8.661,20.825l18.588-18.523C222.344,398.43,222.021,397.662,221.739,396.876z M275.271,346.789    c-6.108-4.316-13.21-7.33-20.897-8.63v26.196c0.789,0.281,1.559,0.603,2.31,0.957L275.271,346.789z M789.337,408.322v26.197    c7.688-1.301,14.789-4.315,20.897-8.632l-18.589-18.523C790.895,407.719,790.126,408.041,789.337,408.322z M803.812,395.246    l18.588,18.522c4.333-6.087,7.355-13.165,8.66-20.826h-26.291C804.486,393.729,804.167,394.498,803.812,395.246z M780.736,376.742    c-4.229,0-7.657,3.416-7.657,7.63c0,4.215,3.429,7.631,7.657,7.631s7.657-3.416,7.657-7.631    C788.394,380.158,784.965,376.742,780.736,376.742z M780.736,398.395c-1.793,0-3.246,1.448-3.246,3.234s1.453,3.234,3.246,3.234    c1.792,0,3.245-1.448,3.245-3.234S782.528,398.395,780.736,398.395z M70.867,311.436c-0.022,0.005-0.032,0.003-0.056,0.009    C70.835,311.584,70.854,311.573,70.867,311.436z M941.987,332.575c1.476-52.841-33.835-74.252-32.12-72.974    c-8.865-6.607-20.691-9.007-32.965-12.397c21.246,5.869-30.112-5.286-143.693-17.75c-2.16-0.094-4.32-0.188-6.48-0.281    c-25.268-7.695-26.194-9.161-34.373-14.934c-7.901-5.575-15.815-11.103-23.667-16.623c-16.431-11.551-33.65-22.196-50.716-32.965    c-6.355-4.011-12.967-7.049-19.44-10.988c-6.073-3.695-18.995-9.243-20.005-9.58c-0.63-0.471-0.686-1.555-1.127-2.254    c-2.403-3.805-5.806-11.049-12.115-9.861c0,0.752,0,1.503,0,2.254c0.717,1.104,0.591,3.683,0.563,5.354    c-8.246-0.812-24.794-3.099-24.794-3.099s-28.024-3.834-62.808-5.042c-56.897-1.977-131.883-3.437-131.883-3.437    s-72.152,1.84-126.089,4.069c-32.192,1.331-57.895,3.538-57.895,3.538s-39.964,6.832-38.318,6.224    c-16.795,6.207-4.993,7.6-4.508,10.425c-9.25,9.972-25.809,17.2-47.053,80.018c-1.77,5.233-1.238,11.699-2.536,17.188    c0,22.552,1.117,59.737,0.901,61.977c3.723-0.819-22.681,14.576-9.917,58.612c1.274,4.397,7.411,17.749,10.153,14.138    c-12.241,16.121,33.907,24.601,90.521,29.028c-2.35-7.895-3.617-16.253-3.617-24.908c0-48.303,39.294-87.461,87.767-87.461    s87.767,39.158,87.767,87.461c0,10.371-1.815,20.317-5.14,29.548c1.244-0.013,1.904-0.021,1.904-0.021l369.514,0.467    c-4.41-10.433-6.85-21.896-6.85-33.927c0-48.303,39.295-87.461,87.768-87.461s87.768,39.158,87.768,87.461    c0,12.11-2.471,23.645-6.936,34.132l4.628,0.006c0,0,39.266,2.535,44.798-12.115c1.754-1.079,5.025-0.462,7.044-1.127    c6.262-2.064,16.019-14.87,12.397-12.679C937.522,388.3,941.39,353.968,941.987,332.575z M296.494,162.476l-46.489,65.601    c0,0,16.138,0.282-142.997-0.146c13.339-45.461,46.34-70.351,46.34-70.351l136.666-8.005c0,0,7.981-0.04,9.017,2.745    C301.264,155.048,296.494,162.476,296.494,162.476z M337.63,230.736c0,0-16.209-4.755-18.878-13.115    c-1.136-3.561-0.391-8.308,0.521-11.395c-0.005,0.007,0.008-0.039,0.044-0.157c-0.016,0.049-0.029,0.107-0.044,0.157    c0.127-0.175,13.628-41.085,24.274-50.31c13.686-7.696,101.431-1.69,101.431-1.69l0.037,76.365L337.63,230.736z M619.663,195.926    c0,0.094,0,0.188,0,0.282c-0.094,0-0.188,0-0.281,0c-11.544,14.993-0.563,38.317-0.563,38.317l-137.479-0.048    c0,0,0.265-75.625,0.265-69.545c0.839-3.864,0.624-7.521,2.536-10.143c1.871-2.565,5.308-2.26,8.734-3.381    c0.707,0.027,41.023-0.88,62.831,6.198C569.223,161.995,622.412,197.736,619.663,195.926z M780.736,301.077    c-46.164,0-83.587,37.293-83.587,83.295c0,46.003,37.423,83.295,83.587,83.295s83.587-37.292,83.587-83.295    C864.323,338.37,826.9,301.077,780.736,301.077z M780.736,443.869c-32.975,0-59.705-26.638-59.705-59.497    c0-32.858,26.73-59.496,59.705-59.496c32.974,0,59.705,26.638,59.705,59.496C840.441,417.231,813.71,443.869,780.736,443.869z     M794.809,384.371c0,1.786,1.453,3.234,3.246,3.234c1.792,0,3.245-1.448,3.245-3.234s-1.453-3.234-3.245-3.234    C796.262,381.137,794.809,382.585,794.809,384.371z M769.827,361.381c0.751-0.354,1.52-0.678,2.309-0.959v-26.196    c-7.688,1.3-14.788,4.314-20.896,8.631L769.827,361.381z M780.736,370.348c1.792,0,3.245-1.448,3.245-3.234    s-1.453-3.234-3.245-3.234c-1.793,0-3.246,1.448-3.246,3.234S778.943,370.348,780.736,370.348z M810.234,342.856    c-6.107-4.317-13.21-7.331-20.897-8.631v26.196c0.789,0.281,1.559,0.603,2.31,0.957L810.234,342.856z M757.661,373.498    l-18.588-18.522c-4.333,6.087-7.355,13.165-8.66,20.826h26.291C756.987,375.016,757.306,374.246,757.661,373.498z     M766.663,384.371c0-1.786-1.453-3.234-3.245-3.234c-1.793,0-3.246,1.448-3.246,3.234s1.453,3.234,3.246,3.234    C765.21,387.605,766.663,386.157,766.663,384.371z M751.237,425.889c6.108,4.317,13.211,7.33,20.898,8.631v-26.196    c-0.789-0.282-1.56-0.604-2.311-0.958L751.237,425.889z M756.702,392.942h-26.289c1.305,7.661,4.328,14.738,8.661,20.825    l18.589-18.523C757.307,394.496,756.984,393.729,756.702,392.942z" fill="#323232"/></g></g></svg>