<?xml version="1.0" encoding="utf-8"?>

<!-- The icon can be used freely in both personal and commercial projects with no attribution required, but always appreciated.
You may NOT sub-license, resell, rent, redistribute or otherwise transfer the icon without express written permission from iconmonstr.com -->

<!DOCTYPE svg PUBLIC "-//W3C//DTD SVG 1.1//EN" "http://www.w3.org/Graphics/SVG/1.1/DTD/svg11.dtd">
<svg version="1.1" xmlns="http://www.w3.org/2000/svg" xmlns:xlink="http://www.w3.org/1999/xlink" x="0px" y="0px"
	 width="512px" height="512px" viewBox="0 0 512 512" enable-background="new 0 0 512 512" xml:space="preserve">
<path id="shopping-cart-5-icon" d="M67.851,183.609l-17.682-40h289.744l-12.576,40H67.851z M82.271,218.277l17.461,39.498h205.084
	l12.42-39.498H82.271z M389.858,105.109l-59.18,188.166H115.231l17.627,40h227.068l59.178-188.166h29.98l12.746-40H389.858z
	 M289.925,353.109c-14.852,0-26.891,12.039-26.891,26.891s12.039,26.891,26.891,26.891s26.891-12.039,26.891-26.891
	S304.776,353.109,289.925,353.109z M201.042,353.109c-14.852,0-26.891,12.039-26.891,26.891s12.039,26.891,26.891,26.891
	s26.891-12.039,26.891-26.891S215.894,353.109,201.042,353.109z"/>
</svg>
