<?xml version="1.0" encoding="utf-8"?>

<!-- The icon can be used freely in both personal and commercial projects with no attribution required, but always appreciated. 
You may NOT sub-license, resell, rent, redistribute or otherwise transfer the icon without express written permission from iconmonstr.com -->

<!DOCTYPE svg PUBLIC "-//W3C//DTD SVG 1.1//EN" "http://www.w3.org/Graphics/SVG/1.1/DTD/svg11.dtd">
<svg version="1.1" xmlns="http://www.w3.org/2000/svg" xmlns:xlink="http://www.w3.org/1999/xlink" x="0px" y="0px"
	 width="512px" height="512px" viewBox="0 0 512 512" enable-background="new 0 0 512 512" xml:space="preserve">
<path id="basket-4-icon" d="M220.542,344.382c0,6.903-5.598,12.5-12.5,12.5c-6.904,0-12.5-5.597-12.5-12.5v-56.3
	c0-6.903,5.596-12.5,12.5-12.5c6.902,0,12.5,5.597,12.5,12.5V344.382z M269.542,344.382c0,6.903-5.598,12.5-12.5,12.5
	c-6.904,0-12.5-5.597-12.5-12.5v-56.3c0-6.903,5.596-12.5,12.5-12.5c6.902,0,12.5,5.597,12.5,12.5V344.382z M318.458,344.382
	c0,6.903-5.596,12.5-12.5,12.5c-6.902,0-12.5-5.597-12.5-12.5v-56.3c0-6.903,5.598-12.5,12.5-12.5c6.904,0,12.5,5.597,12.5,12.5
	V344.382z M126.752,189.145l92.123-92.123c6.834-6.834,17.916-6.834,24.75,0c6.834,6.835,6.834,17.915,0,24.749l-67.375,67.374
	H126.752z M335.75,189.145h49.498l-92.124-92.123c-6.834-6.834-17.914-6.834-24.748,0c-6.835,6.835-6.835,17.915,0,24.749
	L335.75,189.145z M391.489,253.812l-61.501,126.291H182.301l-61.754-126.291H391.489 M462,213.812H50v40h11.041
	c9.166,0,17.533,5.222,21.561,13.457l74.732,152.834H355l74.409-152.799c4.02-8.254,12.396-13.492,21.577-13.492H462V213.812z"/>
</svg>
