<?xml version="1.0" encoding="utf-8"?>

<!-- License Agreement at http://iconmonstr.com/license/ -->

<!DOCTYPE svg PUBLIC "-//W3C//DTD SVG 1.1//EN" "http://www.w3.org/Graphics/SVG/1.1/DTD/svg11.dtd">
<svg version="1.1" xmlns="http://www.w3.org/2000/svg" xmlns:xlink="http://www.w3.org/1999/xlink" x="0px" y="0px"
	 width="512px" height="512px" viewBox="0 0 512 512" enable-background="new 0 0 512 512" xml:space="preserve">
<path id="cut-4-icon" d="M301.11,212.177c-44.819,21.507-90.362,43.278-103,49.335c-23.85,11.429-45.699-18.575-45.699-18.575
	l106.575-51.081L301.11,212.177z M457.292,269.23c-12.466,25.841-45.701,35.727-74.085,22.039
	c-25.062-12.089-38.093-38.575-32.223-62.401c3.349-13.59-3.828-15.435-14.771-20.721l-183.025-88.275
	c0,0,21.926-29.949,45.743-18.463c14.629,7.057,73.382,35.314,124.007,59.798l12.715-6.094c10.958-5.259,18.14-7.088,14.823-20.685
	c-5.81-23.841,7.285-50.295,32.378-62.32c28.415-13.62,61.626-3.651,74.028,22.221s-0.87,57.519-29.049,71.625
	c-20.971,10.498-35.673,2.321-56.499,12.41c-2.089,1.011-4.265,2.065-6.507,3.149c2.461,1.198,4.845,2.357,7.122,3.468
	c20.804,10.143,35.526,2.002,56.469,12.55C456.563,211.71,469.756,243.388,457.292,269.23z M376.881,132.675
	c6.304,13.147,24.198,17.725,39.892,10.203s23.332-24.337,17.032-37.487c-6.304-13.15-24.197-17.726-39.893-10.204
	C378.218,102.706,370.578,119.521,376.881,132.675z M329.713,179.279c0-5.249-4.255-9.505-9.504-9.505
	c-5.25,0-9.505,4.256-9.505,9.505c0,5.25,4.255,9.504,9.505,9.504C325.458,188.783,329.713,184.528,329.713,179.279z
	 M417.303,220.582c-15.675-7.56-33.581-3.026-39.917,10.106c-6.336,13.136,1.263,29.97,16.94,37.532
	c15.674,7.558,33.578,3.027,39.917-10.108C440.573,244.977,432.975,228.145,417.303,220.582z M80.377,232.955H50v49.114h30.377
	V232.955z M145.554,151.027v30.348h64.804L145.554,151.027z M80.377,181.375h39.698v-30.377H50v56.479h30.377V181.375z
	 M80.377,382.143H50v63.846h70.075v-30.377H80.377V382.143z M80.377,307.548H50v49.116h30.377V307.548z M348.037,415.611h-32.378
	v30.377h62.755v-63.846h-30.377V415.611z M348.037,301.096v55.568h30.377V320.1C366.384,315.75,356.865,309.212,348.037,301.096z
	 M145.553,445.988h60.621v-30.377h-60.621V445.988z M231.652,445.988h58.528v-30.377h-58.528V445.988z"/>
</svg>
