<?xml version="1.0" encoding="utf-8"?>
<!-- Generator: Adobe Illustrator 16.0.0, SVG Export Plug-In . SVG Version: 6.00 Build 0)  -->
<!DOCTYPE svg PUBLIC "-//W3C//DTD SVG 1.1//EN" "http://www.w3.org/Graphics/SVG/1.1/DTD/svg11.dtd">
<svg version="1.1" id="Layer_1" xmlns="http://www.w3.org/2000/svg" xmlns:xlink="http://www.w3.org/1999/xlink" x="0px" y="0px"
	 width="512px" height="512px" viewBox="0 0 512 512" enable-background="new 0 0 512 512" xml:space="preserve">
<path id="menu-7-icon" fill="#FFFFFF" d="M153.415,256c0,28.559-23.15,51.708-51.707,51.708C73.15,307.708,50,284.559,50,256
	c0-28.558,23.149-51.708,51.708-51.708C130.265,204.292,153.415,227.442,153.415,256z M256,204.292
	c-28.559,0-51.708,23.15-51.708,51.708c0,28.559,23.149,51.708,51.708,51.708c28.558,0,51.708-23.149,51.708-51.708
	C307.708,227.442,284.558,204.292,256,204.292z M410.291,204.292c-28.557,0-51.706,23.15-51.706,51.708
	c0,28.559,23.149,51.708,51.706,51.708C438.85,307.708,462,284.559,462,256C462,227.442,438.85,204.292,410.291,204.292z"/>
</svg>
