<?xml version="1.0" encoding="utf-8"?>
<!-- Generator: Adobe Illustrator 18.0.0, SVG Export Plug-In . SVG Version: 6.00 Build 0)  -->
<!DOCTYPE svg PUBLIC "-//W3C//DTD SVG 1.1//EN" "http://www.w3.org/Graphics/SVG/1.1/DTD/svg11.dtd">
<svg version="1.1" xmlns="http://www.w3.org/2000/svg" xmlns:xlink="http://www.w3.org/1999/xlink" x="0px" y="0px" width="211px" height="351px"
	 viewBox="0 0 211 351" enable-background="new 0 0 211 351" xml:space="preserve">
<g id="Layer_1">
	<g>
		<path fill-rule="evenodd" clip-rule="evenodd" fill="#666666" d="M1.1,209.5v-3h208.5v3H1.1z"/>
		<path fill-rule="evenodd" clip-rule="evenodd" fill="#666666" d="M22.9,227.5h108v6h-108V227.5z"/>
		<path fill-rule="evenodd" clip-rule="evenodd" fill="#666666" d="M22.9,245.5h165v3h-165V245.5z"/>
		<path fill-rule="evenodd" clip-rule="evenodd" fill="#666666" d="M22.9,260.5h168v3h-168V260.5z"/>
		<path fill-rule="evenodd" clip-rule="evenodd" fill="#666666" d="M22.9,274.5h73v3h-73V274.5z"/>
		<path fill-rule="evenodd" clip-rule="evenodd" fill="#666666" d="M139.9,277.5h70v16h-70V277.5z"/>
		<path fill-rule="evenodd" clip-rule="evenodd" fill="#666666" d="M148.9,296.5h61v16h-61V296.5z"/>
		<path fill="#666666" d="M31,326c0-3.2-4.7-2.4-4.7-3.9c0-0.4,0.4-0.7,1-0.7c0.7,0,1.9,0.4,2.9,0.9l0.9-1.8c-0.8-0.5-1.8-0.9-2.9-1
			v-1.8h-1.7v1.9c-1.6,0.3-2.5,1.2-2.5,2.6c0,3.2,4.7,2.2,4.7,3.8c0,0.5-0.4,0.8-1.2,0.8c-0.9,0-2.3-0.5-3.2-1.3l-0.9,1.8
			c0.8,0.7,1.9,1.2,3.1,1.3v2h1.7v-1.9C29.8,328.5,31,327.6,31,326z"/>
		<path fill="#666666" d="M37.8,328.8c2.5,0,4.2-1.9,4.2-4.7c0-2.8-1.5-4.5-3.9-4.5c-2,0-3.4,1.2-3.4,3.1c0,1.7,1.1,2.9,2.9,2.9
			c1,0,1.7-0.4,2.1-1c0,1.5-0.7,2.4-2.1,2.4c-0.7,0-1.4-0.2-1.9-0.6l-0.9,1.6C35.7,328.5,36.8,328.8,37.8,328.8z M38.2,323.9
			c-0.8,0-1.3-0.4-1.3-1.2c0-0.8,0.5-1.3,1.3-1.3c0.9,0,1.3,0.6,1.3,1.3C39.6,323.4,39.1,323.9,38.2,323.9z"/>
		<path fill="#666666" d="M45.9,328.8c2.5,0,4.2-1.9,4.2-4.7c0-2.8-1.5-4.5-3.9-4.5c-2,0-3.4,1.2-3.4,3.1c0,1.7,1.1,2.9,2.9,2.9
			c1,0,1.7-0.4,2.1-1c0,1.5-0.7,2.4-2.1,2.4c-0.7,0-1.4-0.2-1.9-0.6L43,328C43.8,328.5,44.9,328.8,45.9,328.8z M46.3,323.9
			c-0.8,0-1.3-0.4-1.3-1.2c0-0.8,0.5-1.3,1.3-1.3c0.9,0,1.3,0.6,1.3,1.3C47.7,323.4,47.2,323.9,46.3,323.9z"/>
		<path fill="#666666" d="M151.1,322.8l-2.7-0.3c-0.2,0-0.3-0.1-0.4-0.3l-1-2.3c-0.2-0.4-0.7-0.4-0.8,0l-0.9,2.3
			c-0.1,0.2-0.2,0.3-0.4,0.3l-2.7,0.3c-0.4,0-0.6,0.5-0.3,0.8l2,1.8c0.1,0.1,0.2,0.3,0.1,0.4l-0.6,2.5c-0.1,0.4,0.3,0.7,0.7,0.5
			l2.2-1.3c0.1-0.1,0.3-0.1,0.5,0l2.2,1.3c0.3,0.2,0.8-0.1,0.7-0.5l-0.6-2.5c0-0.2,0-0.3,0.1-0.4l2-1.8
			C151.7,323.3,151.5,322.8,151.1,322.8z"/>
		<path fill="#666666" d="M160.7,322.8l-2.7-0.3c-0.2,0-0.3-0.1-0.4-0.3l-1-2.3c-0.2-0.4-0.7-0.4-0.8,0l-0.9,2.3
			c-0.1,0.2-0.2,0.3-0.4,0.3l-2.7,0.3c-0.4,0-0.6,0.5-0.3,0.8l2,1.8c0.1,0.1,0.2,0.3,0.1,0.4l-0.6,2.5c-0.1,0.4,0.3,0.7,0.7,0.5
			l2.2-1.3c0.1-0.1,0.3-0.1,0.5,0l2.2,1.3c0.3,0.2,0.8-0.1,0.7-0.5l-0.6-2.5c0-0.2,0-0.3,0.1-0.4l2-1.8
			C161.3,323.3,161.1,322.8,160.7,322.8z"/>
		<path fill="#666666" d="M170.3,322.8l-2.7-0.3c-0.2,0-0.3-0.1-0.4-0.3l-1-2.3c-0.2-0.4-0.7-0.4-0.8,0l-0.9,2.3
			c-0.1,0.2-0.2,0.3-0.4,0.3l-2.7,0.3c-0.4,0-0.6,0.5-0.3,0.8l2,1.8c0.1,0.1,0.2,0.3,0.1,0.4l-0.6,2.5c-0.1,0.4,0.3,0.7,0.7,0.5
			l2.2-1.3c0.1-0.1,0.3-0.1,0.5,0l2.2,1.3c0.3,0.2,0.8-0.1,0.7-0.5l-0.6-2.5c0-0.2,0-0.3,0.1-0.4l2-1.8
			C170.9,323.3,170.7,322.8,170.3,322.8z"/>
		<path fill="#666666" d="M180,322.8l-2.7-0.3c-0.2,0-0.3-0.1-0.4-0.3l-1-2.3c-0.2-0.4-0.7-0.4-0.8,0l-0.9,2.3
			c-0.1,0.2-0.2,0.3-0.4,0.3l-2.7,0.3c-0.4,0-0.6,0.5-0.3,0.8l2,1.8c0.1,0.1,0.2,0.3,0.1,0.4l-0.6,2.5c-0.1,0.4,0.3,0.7,0.7,0.5
			l2.2-1.3c0.1-0.1,0.3-0.1,0.5,0l2.2,1.3c0.3,0.2,0.8-0.1,0.7-0.5l-0.6-2.5c0-0.2,0-0.3,0.1-0.4l2-1.8
			C180.5,323.3,180.4,322.8,180,322.8z"/>
		<path fill="#666666" d="M189.6,322.8l-2.7-0.3c-0.2,0-0.3-0.1-0.4-0.3l-1-2.3c-0.2-0.4-0.7-0.4-0.8,0l-0.9,2.3
			c-0.1,0.2-0.2,0.3-0.4,0.3l-2.7,0.3c-0.4,0-0.6,0.5-0.3,0.8l2,1.8c0.1,0.1,0.2,0.3,0.1,0.4l-0.6,2.5c-0.1,0.4,0.3,0.7,0.7,0.5
			l2.2-1.3c0.1-0.1,0.3-0.1,0.5,0l2.2,1.3c0.3,0.2,0.8-0.1,0.7-0.5l-0.6-2.5c0-0.2,0-0.3,0.1-0.4l2-1.8
			C190.2,323.3,190,322.8,189.6,322.8z"/>
	</g>
	<g>
		<g>
			<path fill="#666666" d="M207,3.5c0.6,0,1,0.4,1,1v343c0,0.6-0.4,1-1,1H4c-0.6,0-1-0.4-1-1V4.5c0-0.6,0.4-1,1-1H207 M207,0.5H4
				c-2.2,0-4,1.8-4,4v343c0,2.2,1.8,4,4,4h203c2.2,0,4-1.8,4-4V4.5C211,2.3,209.2,0.5,207,0.5L207,0.5z"/>
		</g>
	</g>
	<g>
		<path fill="#E15151" d="M91.7,92.2l13.6,19.3H78.1L91.7,92.2z"/>
		<path fill="#E15151" d="M111.3,82.8l20.1,28.7H91.2L111.3,82.8z"/>
	</g>
</g>
<g id="Layer_2" display="none">
	<g display="inline">
		<path fill="#666666" d="M30.3,308.8c0-3.2-4.7-2.4-4.7-3.9c0-0.4,0.4-0.7,1-0.7c0.7,0,1.9,0.4,2.9,0.9l0.9-1.8
			c-0.8-0.5-1.8-0.9-2.9-1v-1.8h-1.7v1.9c-1.6,0.3-2.5,1.2-2.5,2.6c0,3.2,4.7,2.2,4.7,3.8c0,0.5-0.4,0.8-1.2,0.8
			c-0.9,0-2.3-0.5-3.2-1.3l-0.9,1.8c0.8,0.7,1.9,1.2,3.1,1.3v2h1.7v-1.9C29.1,311.3,30.3,310.3,30.3,308.8z"/>
		<path fill="#666666" d="M37.1,311.5c2.5,0,4.2-1.9,4.2-4.7c0-2.8-1.5-4.5-3.9-4.5c-2,0-3.4,1.2-3.4,3.1c0,1.7,1.1,2.9,2.9,2.9
			c1,0,1.7-0.4,2.1-1c0,1.5-0.7,2.4-2.1,2.4c-0.7,0-1.4-0.2-1.9-0.6l-0.9,1.6C35,311.2,36.1,311.5,37.1,311.5z M37.5,306.7
			c-0.8,0-1.3-0.4-1.3-1.2c0-0.8,0.5-1.3,1.3-1.3c0.9,0,1.3,0.6,1.3,1.3C38.9,306.1,38.4,306.7,37.5,306.7z"/>
		<path fill="#666666" d="M45.2,311.5c2.5,0,4.2-1.9,4.2-4.7c0-2.8-1.5-4.5-3.9-4.5c-2,0-3.4,1.2-3.4,3.1c0,1.7,1.1,2.9,2.9,2.9
			c1,0,1.7-0.4,2.1-1c0,1.5-0.7,2.4-2.1,2.4c-0.7,0-1.4-0.2-1.9-0.6l-0.9,1.6C43.1,311.2,44.2,311.5,45.2,311.5z M45.6,306.7
			c-0.8,0-1.3-0.4-1.3-1.2c0-0.8,0.5-1.3,1.3-1.3c0.9,0,1.3,0.6,1.3,1.3C47,306.1,46.5,306.7,45.6,306.7z"/>
		<path fill-rule="evenodd" clip-rule="evenodd" fill="#666666" d="M169.2,351.1h-0.8v-37.7h0.8V351.1z"/>
		<path fill="#666666" d="M150,337.9h-14.1c-0.1,0-0.3-0.1-0.4-0.2c-0.1-0.1-0.1-0.3-0.1-0.4l1-7.7l-1-8c0-0.1,0-0.3,0.1-0.4
			c0.1-0.1,0.2-0.2,0.4-0.2H150c0.1,0,0.3,0.1,0.4,0.2c0.1,0.1,0.1,0.3,0.1,0.4l-0.9,6.9c0,0.3-0.3,0.5-0.6,0.4
			c-0.3,0-0.5-0.3-0.4-0.6l0.8-6.4h-13l1,7.5c0,0,0,0.1,0,0.1l-1,7.2h13l0-0.1c0-0.3,0.2-0.5,0.4-0.6c0.3,0,0.5,0.2,0.6,0.4l0.1,0.7
			c0,0.1,0,0.3-0.1,0.4C150.3,337.8,150.2,337.9,150,337.9z"/>
		<path fill="#666666" d="M147.7,323.4c-0.3,0-0.5-0.2-0.5-0.5c0-3.2-1.9-5.8-4.3-5.8c-2.4,0-4.3,2.6-4.3,5.8c0,0.3-0.2,0.5-0.5,0.5
			c-0.3,0-0.5-0.2-0.5-0.5c0-3.8,2.4-6.8,5.3-6.8c2.9,0,5.3,3.1,5.3,6.8C148.2,323.2,148,323.4,147.7,323.4z"/>
		<path fill="#666666" d="M149.8,336.4c-2.1,0-3.8-1.7-3.8-3.8c0-2.1,1.7-3.8,3.8-3.8c2.1,0,3.8,1.7,3.8,3.8
			C153.6,334.7,151.9,336.4,149.8,336.4z M149.8,329.8c-1.5,0-2.8,1.2-2.8,2.8c0,1.5,1.2,2.8,2.8,2.8c1.5,0,2.8-1.2,2.8-2.8
			C152.6,331.1,151.3,329.8,149.8,329.8z"/>
		<path fill="#666666" d="M149.8,334.4c-0.3,0-0.5-0.2-0.5-0.5v-2.6c0-0.3,0.2-0.5,0.5-0.5c0.3,0,0.5,0.2,0.5,0.5v2.6
			C150.3,334.2,150.1,334.4,149.8,334.4z"/>
		<path fill="#666666" d="M151.1,333.1h-2.6c-0.3,0-0.5-0.2-0.5-0.5c0-0.3,0.2-0.5,0.5-0.5h2.6c0.3,0,0.5,0.2,0.5,0.5
			C151.6,332.9,151.4,333.1,151.1,333.1z"/>
		<path fill-rule="evenodd" clip-rule="evenodd" fill="#666666" d="M198.1,327.5c1.3,0,2.4,1.1,2.4,2.4c0,1.3-1.1,2.4-2.4,2.4
			s-2.4-1.1-2.4-2.4C195.7,328.5,196.7,327.5,198.1,327.5z"/>
		<path fill-rule="evenodd" clip-rule="evenodd" fill="#666666" d="M190.9,327.5c1.3,0,2.4,1.1,2.4,2.4c0,1.3-1.1,2.4-2.4,2.4
			c-1.3,0-2.4-1.1-2.4-2.4C188.4,328.5,189.5,327.5,190.9,327.5z"/>
		<path fill-rule="evenodd" clip-rule="evenodd" fill="#666666" d="M183.6,327.5c1.3,0,2.4,1.1,2.4,2.4c0,1.3-1.1,2.4-2.4,2.4
			s-2.4-1.1-2.4-2.4C181.2,328.5,182.3,327.5,183.6,327.5z"/>
		<path fill="#666666" d="M31.7,327.2l-2.7-0.3c-0.2,0-0.3-0.1-0.4-0.3l-1-2.3c-0.2-0.4-0.7-0.4-0.8,0l-0.9,2.3
			c-0.1,0.2-0.2,0.3-0.4,0.3l-2.7,0.3c-0.4,0-0.6,0.5-0.3,0.8l2,1.8c0.1,0.1,0.2,0.3,0.1,0.4l-0.6,2.5c-0.1,0.4,0.3,0.7,0.7,0.5
			l2.2-1.3c0.1-0.1,0.3-0.1,0.5,0l2.2,1.3c0.3,0.2,0.8-0.1,0.7-0.5l-0.6-2.5c0-0.2,0-0.3,0.1-0.4l2-1.8
			C32.3,327.7,32.1,327.2,31.7,327.2z"/>
		<path fill="#666666" d="M41.3,327.2l-2.7-0.3c-0.2,0-0.3-0.1-0.4-0.3l-1-2.3c-0.2-0.4-0.7-0.4-0.8,0l-0.9,2.3
			c-0.1,0.2-0.2,0.3-0.4,0.3l-2.7,0.3c-0.4,0-0.6,0.5-0.3,0.8l2,1.8c0.1,0.1,0.2,0.3,0.1,0.4l-0.6,2.5c-0.1,0.4,0.3,0.7,0.7,0.5
			l2.2-1.3c0.1-0.1,0.3-0.1,0.5,0l2.2,1.3c0.3,0.2,0.8-0.1,0.7-0.5l-0.6-2.5c0-0.2,0-0.3,0.1-0.4l2-1.8
			C41.9,327.7,41.7,327.2,41.3,327.2z"/>
		<path fill="#666666" d="M51,327.2l-2.7-0.3c-0.2,0-0.3-0.1-0.4-0.3l-1-2.3c-0.2-0.4-0.7-0.4-0.8,0l-0.9,2.3
			c-0.1,0.2-0.2,0.3-0.4,0.3l-2.7,0.3c-0.4,0-0.6,0.5-0.3,0.8l2,1.8c0.1,0.1,0.2,0.3,0.1,0.4l-0.6,2.5c-0.1,0.4,0.3,0.7,0.7,0.5
			l2.2-1.3c0.1-0.1,0.3-0.1,0.5,0l2.2,1.3c0.3,0.2,0.8-0.1,0.7-0.5l-0.6-2.5c0-0.2,0-0.3,0.1-0.4l2-1.8
			C51.5,327.7,51.3,327.2,51,327.2z"/>
		<path fill="#666666" d="M60.6,327.2l-2.7-0.3c-0.2,0-0.3-0.1-0.4-0.3l-1-2.3c-0.2-0.4-0.7-0.4-0.8,0l-0.9,2.3
			c-0.1,0.2-0.2,0.3-0.4,0.3l-2.7,0.3c-0.4,0-0.6,0.5-0.3,0.8l2,1.8c0.1,0.1,0.2,0.3,0.1,0.4l-0.6,2.5c-0.1,0.4,0.3,0.7,0.7,0.5
			l2.2-1.3c0.1-0.1,0.3-0.1,0.5,0l2.2,1.3c0.3,0.2,0.8-0.1,0.7-0.5l-0.6-2.5c0-0.2,0-0.3,0.1-0.4l2-1.8
			C61.1,327.7,61,327.2,60.6,327.2z"/>
		<path fill="#666666" d="M70.2,327.2l-2.7-0.3c-0.2,0-0.3-0.1-0.4-0.3l-1-2.3c-0.2-0.4-0.7-0.4-0.8,0l-0.9,2.3
			c-0.1,0.2-0.2,0.3-0.4,0.3l-2.7,0.3c-0.4,0-0.6,0.5-0.3,0.8l2,1.8c0.1,0.1,0.2,0.3,0.1,0.4l-0.6,2.5c-0.1,0.4,0.3,0.7,0.7,0.5
			l2.2-1.3c0.1-0.1,0.3-0.1,0.5,0l2.2,1.3c0.3,0.2,0.8-0.1,0.7-0.5l-0.6-2.5c0-0.2,0-0.3,0.1-0.4l2-1.8
			C70.8,327.7,70.6,327.2,70.2,327.2z"/>
	</g>
	<g display="inline">
		<path fill-rule="evenodd" clip-rule="evenodd" fill="#666666" d="M1.2,210v-3h208.5v3H1.2z"/>
		<path fill-rule="evenodd" clip-rule="evenodd" fill="#666666" d="M23,228h108v6H23V228z"/>
		<path fill-rule="evenodd" clip-rule="evenodd" fill="#666666" d="M23,246h165v3H23V246z"/>
		<path fill-rule="evenodd" clip-rule="evenodd" fill="#666666" d="M23,261h168v3H23V261z"/>
		<path fill-rule="evenodd" clip-rule="evenodd" fill="#666666" d="M23,275h73v3H23V275z"/>
	</g>
	<g display="inline">
		<g>
			<path fill="#666666" d="M207.1,4c0.6,0,1,0.4,1,1v343c0,0.6-0.4,1-1,1H4.2c-0.6,0-1-0.4-1-1V5c0-0.6,0.4-1,1-1H207.1 M207.1,1
				H4.2c-2.2,0-4,1.8-4,4v343c0,2.2,1.8,4,4,4h203c2.2,0,4-1.8,4-4V5C211.1,2.8,209.3,1,207.1,1L207.1,1z"/>
		</g>
	</g>
	<g display="inline">
		<path fill="#E15151" d="M91.8,92.7l13.6,19.3H78.3L91.8,92.7z"/>
		<path fill="#E15151" d="M111.5,83.3l20.1,28.7H91.4L111.5,83.3z"/>
	</g>
</g>
<g id="Layer_3" display="none">
	<g display="inline">
		<g>
			<path fill="#666666" d="M207.1,4c0.6,0,1,0.4,1,1v343c0,0.6-0.4,1-1,1H4.2c-0.6,0-1-0.4-1-1V5c0-0.6,0.4-1,1-1H207.1 M207.1,1
				H4.2c-2.2,0-4,1.8-4,4v343c0,2.2,1.8,4,4,4h203c2.2,0,4-1.8,4-4V5C211.1,2.8,209.3,1,207.1,1L207.1,1z"/>
		</g>
	</g>
</g>
</svg>
