<?xml version="1.0" standalone="no"?>
<!DOCTYPE svg PUBLIC "-//W3C//DTD SVG 1.1//EN" "http://www.w3.org/Graphics/SVG/1.1/DTD/svg11.dtd" >
<svg xmlns="http://www.w3.org/2000/svg">
<metadata>
This is a custom SVG webfont generated by Font Squirrel.
Copyright   : c Copyright 2002 Rogier van Dalen
Designer    : Rogier van Dalen
Foundry     : Rogier van Dalen
</metadata>
<defs>
<font id="webfontO7V7IKxP" horiz-adv-x="999" >
<font-face units-per-em="2048" ascent="1638" descent="-410" />
<missing-glyph horiz-adv-x="499" />
<glyph unicode=" "  horiz-adv-x="499" />
<glyph unicode="&#x09;" horiz-adv-x="499" />
<glyph unicode="&#xa0;" horiz-adv-x="499" />
<glyph unicode="!" horiz-adv-x="499" d="M152 70q0 41 29 69q31 31 69 31q41 0 72 -31q29 -29 28.5 -69.5t-28.5 -69.5q-31 -31 -72 -31q-39 0 -69 31q-29 29 -29 70zM225 299q0 487 -75 1001q0 100 100 100.5t100 -100.5q-76 -514 -76 -1001h-49z" />
<glyph unicode="&#x22;" horiz-adv-x="649" d="M375 1300q0 100 98 101q100 0 100 -100.5t-73 -450.5h-51q-74 350 -74 450zM76 1300q0 100 98 101q100 0 100 -100.5t-73 -450.5h-51q-74 350 -74 450z" />
<glyph unicode="#" horiz-adv-x="929" d="M76 299l18 152h152l80 399h-146l31 149h143l62 301h49l-59 -301h249l60 301h51l-61 -301h149l-29 -149h-149l-80 -399h149l-30 -152h-150l-59 -299h-51l59 299h-250l-59 -299h-49l59 299h-139zM295 451h250l80 399h-250z" />
<glyph unicode="$" d="M236 248v-197q43 0 104 -35q63 -37 199 -36q137 0 213 69q78 72 78 221q0 154 -260 215.5t-260 161.5q0 98 104 127q98 27 215 0q109 -25 131 -186h41v176q-39 0 -102 29q-59 27 -180 26q-160 0 -221.5 -61.5t-61.5 -206.5q0 -143 258 -204.5t258 -172.5t-110.5 -141.5 t-223.5 0.5q-114 31 -141 215h-41zM276.595 -176.445h58.7979v1071.93h-58.7979v-1071.93zM390.595 -176.445h58.7979v1071.93h-58.7979v-1071.93z" />
<glyph unicode="%" horiz-adv-x="1554" d="M250 -31h100l1069 1360h-100zM617.398 294.195q0 142.397 78.5977 244.796q76.1963 99.999 191.691 99.5986q115.496 -0.400391 191.692 -99.5986q78.5967 -101.599 78.5967 -244.396t-78.5967 -244.396q-76.1963 -99.999 -191.692 -99.999q-115.495 0 -191.691 99.999 q-78.5977 101.598 -78.5977 243.996zM708.595 294.195q0 -132.798 47.998 -220.797q49.1982 -90.3984 131.396 -90.3984q83.3965 0 132.594 90.3984q47.998 88.7988 47.998 220.797q0 134.397 -47.998 223.196q-49.1973 90.3984 -132.594 90.3984 q-82.1973 0 -131.396 -90.3984q-47.998 -88.7988 -47.998 -223.196zM72.3984 856.195q0 142.397 78.5977 244.796q76.1963 99.999 191.691 99.5986q115.496 -0.400391 191.692 -99.5986q78.5967 -101.599 78.5967 -244.396t-78.5967 -244.396 q-76.1963 -99.999 -191.692 -99.999q-115.495 0 -191.691 99.999q-78.5977 101.598 -78.5977 243.996zM163.595 856.195q0 -132.798 47.998 -220.797q49.1982 -90.3984 131.396 -90.3984q83.3965 0 132.594 90.3984q47.998 88.7988 47.998 220.797 q0 134.397 -47.998 223.196q-49.1973 90.3984 -132.594 90.3984q-82.1973 0 -131.396 -90.3984q-47.998 -88.7988 -47.998 -223.196z" />
<glyph unicode="&#x26;" horiz-adv-x="1648" d="M100 399q0 -201 125 -313q127 -115 326 -115q197 0 448 230q231 -231 351 -232q121 0 200 121l-20 31q-63 -51 -121 -51q-61 0 -309 229q240 250 280 401q20 70 170 70v31q-100 0 -149 -6.5t-101 0.5q-49 6 -149 6v-31q76 0 107.5 -17.5t21.5 -52.5q-41 -154 -205 -374 l-475 475q299 199 225 364q-74 164 -274 164q-203 0 -277 -164q-74 -166 177 -415q-351 -90 -351 -351zM250 414q0 209 225 311l500 -500q-174 -125 -375 -125q-203 0 -274 84q-76 89 -76 230zM399 1169q49 121 160 121t152 -155.5t-136 -309.5q-225 225 -176 344z" />
<glyph unicode="'" horiz-adv-x="348" d="M76 1300q0 100 98 101q100 0 100 -100.5t-73 -450.5h-51q-74 350 -74 450z" />
<glyph unicode="(" horiz-adv-x="499" d="M49 450.5q0 -497.5 402 -849.5h49q-319 350 -319.5 849.5t319.5 849.5h-49q-402 -352 -402 -849.5z" />
<glyph unicode=")" horiz-adv-x="499" d="M0 -399q319 350 319 849.5t-319 849.5h49q401 -352 401.5 -849.5t-401.5 -849.5h-49z" />
<glyph unicode="*" horiz-adv-x="747" d="M49 827l37 -59l274 182h-2l-18 -329h70l-21 329h-2l277 -182l34 59l-295 148l295 147l-34 62l-275 -183v-2l21 330h-70l18 -330l2 2l-274 183l-37 -62l295 -147h2z" />
<glyph unicode="+" horiz-adv-x="1198" d="M100 350h451v-450h98v450h451v101h-451v448h-98v-448h-451v-101z" />
<glyph unicode="," horiz-adv-x="438" d="M121 70q0 41 29 69q31 31 69 31q41 0 72 -31q29 -29 39 -69q10 -45 10 -70t-10 -76q-8 -41 -60 -102q-47 -55 -149 -103v31q94 66 119 105q20 33 30 75q4 20 -6 29.5t-35 9.5q-49 0 -79 31q-29 29 -29 70z" />
<glyph unicode="-" horiz-adv-x="698" d="M100 350h500v101h-500v-101z" />
<glyph unicode="." horiz-adv-x="438" d="M121 70q0 41 29 69q31 31 69 31q41 0 72 -31q29 -29 28.5 -69.5t-28.5 -69.5q-31 -31 -72 -31q-39 0 -69 31q-29 29 -29 70z" />
<glyph unicode="/" horiz-adv-x="778" d="M0 -299h100l680 1700h-100z" />
<glyph unicode="0" d="M49 399q0 178 131 306q127 125 319.5 124.5t319.5 -124.5q131 -127 131 -305.5t-131 -305.5q-127 -125 -319.5 -125t-319.5 125q-131 127 -131 305zM201 399q0 -166 80 -276q82 -113 219 -113q139 0 221 113q80 111 80 276q0 168 -80 279q-82 113 -221 113 q-137 0 -219 -113q-80 -111 -80 -279z" />
<glyph unicode="&#xf9;" d="M49 399q0 178 131 306q127 125 319.5 124.5t319.5 -124.5q131 -127 131 -305.5t-131 -305.5q-127 -125 -319.5 -125t-319.5 125q-131 127 -131 305zM201 399q0 -166 80 -276q82 -113 219 -113q139 0 221 113q80 111 80 276q0 168 -80 279q-82 113 -221 113 q-137 0 -219 -113q-80 -111 -80 -279z" />
<glyph unicode="1" horiz-adv-x="749" d="M100 0v31q199 0 199 69v600q0 70 -199 70v31q139 0 207 -6q70 -6 137.5 0t204.5 6v-31q-199 0 -198 -70v-600q0 -70 198 -69v-31q-160 0 -205 4q-68 6 -137 0q-45 -4 -207 -4z" />
<glyph unicode="2" d="M121 0v41q332 270 414 358q96 102 96 191q0 68 -41 115q-39 45 -111 45q-90 0 -162 -33q-74 -34 -116 -142h-31q31 126 111 191q78 63 198 63q127 0 215 -47q86 -46 86 -172q0 -131 -114 -221q-90 -70 -406 -278h420q98 0 115 49q16 51 55 121h31q-37 -76 -45 -142 l-17 -139h-698z" />
<glyph unicode="3" d="M100 -520q227 8 420 121q190 111 191 319q0 158 -97 270q-94 111 -305 -10l-18 49q260 150 309 246t4 184q-47 90 -164 91q-119 0 -260 -181l-30 11q90 250 356 249q131 0 195.5 -45t60.5 -135q-6 -176 -293 -358q158 39 281 -51q121 -90 120 -240q0 -252 -225 -406 q-225 -156 -545 -163v49z" />
<glyph unicode="4" d="M49 0v80q322 453 402 881h118q-211 -563 -479 -881h510v551h150v-551h200v-80h-200v-389h-150v389h-551z" />
<glyph unicode="5" d="M211 420l49 239h551v141h-582l-79 -481q264 0 391 -69q129 -70 129 -330q0 -209 -191 -320q-193 -113 -420 -120v-50q319 8 545 164q225 154 225 406q0 230 -159 325q-158 95 -459 95z" />
<glyph unicode="6" d="M500 -31q-190 0 -295 121q-104 119 -105 410q0 299 250 565q250 264 520 336v-51q-176 -68 -360 -226q-178 -152 -250 -475q119 100 260 101q180 0 281 -101q98 -98 98 -274q0 -178 -98 -289q-104 -117 -301 -117zM256 600q-6 -100 -6 -201q0 -197 76 -295 q74 -94 188.5 -94t175.5 94q59 92 60 295q0 201 -74 256.5t-156 55.5q-139 0 -264 -111z" />
<glyph unicode="7" d="M330 -580h-101l611 1239h-459q-137 0 -170 -4q-51 -6 -90 -131h-41q31 175 31 276h850z" />
<glyph unicode="8" d="M500 -31q200 0 301 86q98 84 98 264q0 213 -309 381q260 160 260 332q0 166 -100 234q-98 66 -244 65q-158 0 -256 -90q-100 -92 -100 -242q0 -197 210 -340q-260 -129 -260 -340q0 -178 101 -264q102 -86 299 -86zM250 350q0 201 149 281q350 -151 351 -332 q0 -162 -60 -223q-61 -66 -190 -66q-127 0 -189 70q-61 70 -61 270zM545 725q-274 164 -274.5 295t55 200.5t174.5 69.5q109 0 170 -55q59 -53 59 -215q0 -160 -184 -295z" />
<glyph unicode="9" d="M499 831q190 0 295 -121q104 -119 105 -410q0 -299 -250 -565q-250 -264 -520 -336v51q176 68 360 226q178 152 250 475q-119 -100 -260 -101q-180 0 -281 101q-98 98 -98 274q0 178 98 289q104 117 301 117zM743 200q6 100 6 201q0 197 -76 295q-74 94 -188.5 94 t-175.5 -94q-59 -92 -60 -295q0 -201 74 -256.5t156 -55.5q139 0 264 111z" />
<glyph unicode=":" horiz-adv-x="438" d="M121 70q0 41 29 69q31 31 69 31q41 0 72 -31q29 -29 28.5 -69.5t-28.5 -69.5q-31 -31 -72 -31q-39 0 -69 31q-29 29 -29 70zM121 729q0 41 29 69q31 31 69 31q41 0 72 -31q29 -29 28.5 -69.5t-28.5 -69.5q-31 -31 -72 -31q-39 0 -69 31q-29 29 -29 70z" />
<glyph unicode=";" horiz-adv-x="438" d="M121 729q0 41 29 69q31 31 69 31q41 0 72 -31q29 -29 28.5 -69.5t-28.5 -69.5q-31 -31 -72 -31q-39 0 -69 31q-29 29 -29 70zM121 70q0 41 29 69q31 31 69 31q41 0 72 -31q29 -29 39 -69q10 -45 10 -70t-10 -76q-8 -41 -60 -102q-47 -55 -149 -103v31q94 66 119 105 q20 33 30 75q4 20 -6 29.5t-35 9.5q-49 0 -79 31q-29 29 -29 70z" />
<glyph unicode="&#x3c;" horiz-adv-x="1198" d="M100 350l1000 -450v100l-899 399l899 402v98l-1000 -448v-101z" />
<glyph unicode="=" horiz-adv-x="1398" d="M100 150h1200v79h-1200v-79zM100 569h1200v80h-1200v-80z" />
<glyph unicode="&#x3e;" horiz-adv-x="1198" d="M100 0l899 399l-899 402v98l1000 -448v-101l-1000 -450v100z" />
<glyph unicode="?" horiz-adv-x="899" d="M201 70q0 41 29 69q31 31 69 31q41 0 72 -31q29 -29 28.5 -69.5t-28.5 -69.5q-31 -31 -72 -31q-39 0 -69 31q-29 29 -29 70zM274 299q-74 406 -55 426q23 25 80 25q199 0 291 51q90 49 90 180q0 168 -65.5 243.5t-182.5 75.5q-82 0 -133 -51q-49 -49 -125 -49 q-74 0 -74 100.5t199 100.5q471 0 471 -451q0 -350 -371 -350q-74 0 -73 -301h-52z" />
<glyph unicode="@" horiz-adv-x="0" />
<glyph unicode="A" horiz-adv-x="1339" d="M-80 0v31q201 0 227 69q92 200 375 1020q39 96 51 180l134 17l6 -17l438 -1200q20 -70 219 -69v-31q-162 0 -207 4q-34 3 -68.5 3t-68.5 -3q-45 -4 -207 -4v31q182 0 182 52q0 6 -2 11l-174 475h-460q-63 -172 -148 -469q-3 -9 -3 -16q0 -54 175 -53v-31q-137 0 -176 4 q-29 3 -58 3l-59 -3q-39 -4 -176 -4zM379 610h432l-215 611z" />
<glyph unicode="B" horiz-adv-x="1228" d="M49 0v31q201 0 201 69v1100q0 70 -201 70v30l221 5q90 5 170 5q610 0 611 -311q0 -274 -340 -299q440 -25 440 -350q0 -359 -645 -359q-74 0 -156 5zM399 41q600 0 600 317.5t-454 317.5h-146v-635zM399 725h142q358 0 358 272q0 268 -478 269h-22v-541z" />
<glyph unicode="C" horiz-adv-x="1308" d="M70 649q0 -248 170 -465q169 -215 510 -215q348 0 489 281l-8 20q-150 -260 -481 -260q-510 0 -510 639q0 641 510 641q299 0 409 -270h51l-41 229q-98 0 -174 41q-72 39 -245 39q-341 0 -510 -215q-170 -217 -170 -465z" />
<glyph unicode="D" horiz-adv-x="1429" d="M49 0v31q201 0 201 69v1100q0 70 -201 70v30q167 8 311 9q287 0 480 -33q510 -126 510 -627q0 -498 -510 -624q-193 -33 -480 -33q-144 0 -311 8zM399 41q801 0 801 608q0 610 -801 611v-1219z" />
<glyph unicode="E" horiz-adv-x="1280" d="M49 0v31q201 0 201 69v1100q0 70 -201 70v30q164 0 219 -6q28 -3 56.5 -3t56.5 3q55 6 170 6h539q0 -101 30 -245h-41q-39 125 -90 166q-47 39 -170 39h-420v-560h402q70 0 69 125h29q0 -88 -4 -112q-3 -18 -3 -38t3 -38q4 -25 4 -113h-29q0 125 -69 125h-402v-608h500 q123 0 170 53q51 57 90 180h41q-31 -176 -31 -274h-618q-133 0 -170 4q-28 3 -56.5 3t-56.5 -3q-37 -4 -219 -4zM649 1450z" />
<glyph unicode="F" horiz-adv-x="1118" d="M49 0v31q201 0 201 69v1100q0 70 -201 70v30q164 0 219 -6q28 -3 56.5 -3t56.5 3q55 6 170 6h539q0 -101 30 -245h-41q-39 125 -90 166q-47 39 -170 39h-420v-560h402q70 0 69 125h29q0 -88 -4 -112q-3 -18 -3 -38t3 -38q4 -25 4 -113h-29q0 125 -69 125h-402v-549 q0 -70 201 -69v-31q-162 0 -207 4q-34 3 -68.5 3t-68.5 -3q-45 -4 -207 -4zM649 1450z" />
<glyph unicode="G" horiz-adv-x="1429" d="M49 649q0 -248 170 -465q169 -215 510 -215q174 0 350 76q170 74 170 184v240q0 72 160 72v28q-160 0 -205 -4q-34 -3 -68.5 -3t-68.5 3q-45 4 -207 4v-28q240 0 240 -72v-178q0 -131 -101 -205q-104 -76 -270 -76q-510 0 -510 639q0 641 510 641q301 0 412 -270h49 l-39 229q-100 0 -176 41q-72 39 -246 39q-341 0 -510 -215q-170 -217 -170 -465z" />
<glyph unicode="H" horiz-adv-x="1548" d="M49 0v31q201 0 201 69v1100q0 70 -201 70v30q139 0 207 -6q34 -3 68.5 -3t68.5 3q68 6 207 6v-30q-201 0 -201 -70v-500h752v500q0 70 -201 70v30q139 0 207 -6q34 -3 69 -3t68 3q68 6 205 6v-30q-199 0 -199 -70v-1100q0 -70 199 -69v-31q-160 0 -205 4q-34 3 -68.5 3 t-68.5 -3q-45 -4 -207 -4v31q201 0 201 69v549h-752v-549q0 -70 201 -69v-31q-162 0 -207 4q-34 3 -68.5 3t-68.5 -3q-45 -4 -207 -4z" />
<glyph unicode="I" horiz-adv-x="649" d="M49 0v31q201 0 201 69v1100q0 70 -201 70v30q139 0 207 -6q34 -3 68.5 -3t68.5 3q68 6 207 6v-30q-201 0 -201 -70v-1100q0 -70 201 -69v-31q-162 0 -207 4q-34 3 -68.5 3t-68.5 -3q-45 -4 -207 -4z" />
<glyph unicode="J" horiz-adv-x="624" d="M-201 -416q0 86 65.5 86t100.5 -51q35 -49 111 -49t125 139q49 141 49 391v1100q0 70 -201 70v30q139 0 207 -6q34 -3 68.5 -3t68.5 3q68 6 207 6v-30q-201 0 -201 -70v-901q0 -451 -124.5 -625t-299.5 -174q-176 0 -176 84z" />
<glyph unicode="K" horiz-adv-x="1429" d="M49 0v31q201 0 201 69v1100q0 70 -201 70v30q139 0 207 -6q34 -3 68.5 -3t68.5 3q68 6 207 6v-30q-201 0 -201 -70v-1100q0 -70 201 -69v-31q-162 0 -207 4q-34 3 -68.5 3t-68.5 -3q-45 -4 -207 -4zM399 670l596 530q25 21 25 36q0 34 -139 34v30q109 0 163 -6 q28 -3 56 -3l55 3q55 6 166 6v-30q-172 0 -254 -70l-541 -485l682 -615q78 -70 222 -69v-31q-154 0 -199 4q-34 3 -66.5 3t-66.5 -3q-45 -4 -199 -4v31q143 0 144 35q0 14 -23 34z" />
<glyph unicode="L" horiz-adv-x="1249" d="M49 0v31q201 0 201 69v1100q0 70 -201 70v30q139 0 207 -6q34 -3 68.5 -3t68.5 3q68 6 207 6v-30q-201 0 -201 -70v-1159h500q123 0 170 53q51 57 90 180h41q-31 -176 -31 -274h-618q-133 0 -170 4q-28 3 -56.5 3t-56.5 -3q-37 -4 -219 -4z" />
<glyph unicode="M" horiz-adv-x="1828" d="M49 0v31q201 0 201 69q0 242 20 1100q0 70 -200 70v30h381l530 -1130l449 1130h350v-30q-201 0 -201 -70v-1100q0 -70 201 -69v-31q-162 0 -207 4q-34 3 -69 3t-68 -3q-45 -4 -205 -4v31q199 0 199 69v1100l-25 -51l-444 -1149h-80l-562 1200v-1100q0 -70 201 -69v-31 q-137 0 -176 4q-29 3 -58 3l-59 -3q-39 -4 -178 -4z" />
<glyph unicode="N" horiz-adv-x="1509" d="M49 0q150 0 178 4q22 3 43 3l43 -3q29 -4 176 -4v31q-199 0 -198 69v1000l999 -1100h21v1200q0 70 198 70v30q-133 0 -176 -6q-22 -3 -43 -3l-43 3q-43 6 -178 6v-30q201 0 201 -70v-901l-910 1001h-311v-51q201 0 201 -159v-990q0 -70 -201 -69v-31z" />
<glyph unicode="O" horiz-adv-x="1458" d="M80 649q0 299 176 492q174 188 473 188q301 0 475 -188q176 -193 176 -492q0 -297 -176 -489q-176 -190 -475 -190.5t-473 190.5q-176 192 -176 489zM250 647.5q0 -274.5 127 -451t352 -176.5q227 0 354 176.5t127 451t-127 452.5q-129 180 -354 180q-223 0 -352 -180 q-127 -178 -127 -452.5z" />
<glyph unicode="P" horiz-adv-x="1179" d="M49 0v31q201 0 201 69v1100q0 70 -201 70v30l250 5q80 5 152 4q649 0 649 -369q0 -374 -583 -374q-56 0 -118 3v-469q0 -70 201 -69v-31q-162 0 -207 4q-34 3 -68.5 3t-68.5 -3q-45 -4 -207 -4zM399 610q551 0 551 328t-551 328v-656z" />
<glyph unicode="Q" horiz-adv-x="1458" d="M80 649q0 299 176 492q174 188 473 188q301 0 475 -188q176 -193 176 -492q0 -297 -176 -489q-176 -190 -475 -191q-45 -39 -188 -98q236 -78 403 -100q34 -4 73 -5q144 0 343 64v-49q-289 -95 -491 -95q-100 0 -181 23q-246 72 -469 72v47q295 46 436 141 q-224 0 -399 191q-176 192 -176 489zM250 647.5q0 -274.5 127 -451t352 -176.5q227 0 354 176.5t127 451t-127 452.5q-129 180 -354 180q-223 0 -352 -180q-127 -178 -127 -452.5z" />
<glyph unicode="R" horiz-adv-x="1368" d="M49 0v31q201 0 201 69v1100q0 70 -201 70v30l250 5q82 5 156 4q645 0 645 -359q0 -299 -289 -360q156 -231 276 -389q115 -147 283 -170v-31q-160 -10 -219 -10q-74 0 -199 155q-127 160 -293 430q-193 0 -260 5v-480q0 -70 201 -69v-31q-162 0 -207 4q-34 3 -68.5 3 t-68.5 -3q-45 -4 -207 -4zM399 610q551 0 551 328q0 326 -551 332v-660z" />
<glyph unicode="S" horiz-adv-x="1089" d="M121 100q57 0 151.5 -65.5t282.5 -65.5q190 0 303 119t113 344t-373 324q-371 98 -371 272q0 176 150 232q75 28 151 27.5t154 -27.5q158 -55 188 -310h60v281q-61 0 -147.5 49t-258.5 49q-224 0 -313 -104q-90 -106 -90 -316q0 -211 368 -309q371 -98 371 -288.5 t-158 -258.5q-78 -34 -158 -34t-161 34q-163 68 -203 357h-59v-310z" />
<glyph unicode="T" horiz-adv-x="1308" d="M31 1055q29 135 28 245h1190q0 -101 31 -245h-41q-41 127 -88 166t-170 39h-252v-1160q0 -70 201 -69v-31q-162 0 -207 4q-34 3 -68.5 3t-68.5 -3q-45 -4 -205 -4v31q199 0 199 69v1160h-250q-123 0 -170 -39q-51 -41 -90 -166h-39z" />
<glyph unicode="U" horiz-adv-x="1419" d="M31 1270v30q137 0 205 -6q34 -3 68.5 -3t68.5 3q68 6 207 6v-30q-199 0 -199 -70v-801q0 -201 96 -284.5t272.5 -83.5t272.5 84q98 86 98 284v801q0 70 -200 70v30q117 0 176 -6q29 -3 59 -3t59 3q59 6 177 6v-30q-201 0 -201 -70v-801q-8 -219 -139 -323 q-131 -106 -330 -107q-201 0 -346.5 90.5t-145.5 339.5v801q1 70 -198 70z" />
<glyph unicode="V" horiz-adv-x="1269" d="M-49 1272v28q180 0 217 -4q28 -3 56.5 -3t56.5 3q37 4 219 4v-28q-180 0 -180 -55q0 -5 2 -11l389 -1011l215 536q53 145 145 469q3 8 3 15q0 57 -175 57v28q158 0 188 -4q23 -3 47.5 -3t47.5 3q31 4 188 4v-28q-203 0 -227 -72q-102 -223 -402 -1020l-75 -180h-33 l-463 1200q-18 72 -219 72z" />
<glyph unicode="W" horiz-adv-x="1738" d="M-49 1270q203 0 223 -70l459 -1200h33l75 180l150 377l211 -557h35l75 180q307 820 400 1020q25 70 227 70v30q-113 0 -168 -6q-28 -3 -56.5 -3t-55.5 3q-55 6 -168 6v-30q155 0 154 -53q0 -8 -3 -17q-88 -307 -147 -469l-215 -536l-211 555q84 256 174 450q25 70 168 70 v30q-86 0 -129 -6q-22 -3 -42.5 -3t-41.5 3q-43 6 -127 6v-30q104 0 104 -48q0 -10 -4 -22q-117 -381 -123 -397l-151 397q-3 11 -4 20q0 50 106 50v30q-100 0 -149 -6q-25 -3 -50.5 -3t-50.5 3q-49 6 -149 6v-30q125 0 145 -70l227 -600l-161 -405l-385 1005q-3 10 -4 19 q0 51 108 51v30q-119 0 -180 -6q-31 -3 -60.5 -3t-60.5 3q-61 6 -178 6v-30z" />
<glyph unicode="X" horiz-adv-x="1323" d="M31 0v31q201 0 239 69l334 539l-321 561q-51 70 -252 70v30q160 0 215 -6q28 -3 58.5 -3t66.5 3q72 6 229 6v-30q-158 0 -158 -44q0 -11 11 -26l239 -420l262 420q9 13 9 24q0 46 -162 46v30q137 0 180 -6q22 -3 45 -3t47 3q49 6 187 6v-30q-201 0 -246 -70l-291 -471 l360 -629q43 -70 242 -69v-31q-182 0 -229 4q-35 3 -66.5 3t-58.5 -3q-37 -4 -215 -4v31q165 0 165 47q0 10 -8 22l-278 488l-305 -488q-7 -12 -7 -21q0 -48 166 -48v-31q-154 0 -186 4q-25 3 -48 3t-44 -3q-28 -4 -180 -4z" />
<glyph unicode="Y" horiz-adv-x="1239" d="M-49 1270v30q143 0 213 -6q35 -3 71.5 -3t71.5 3q70 6 213 6v-30q-160 0 -160 -44q0 -11 11 -26l348 -506l315 506q9 13 9 24q0 46 -162 46v30q137 0 180 -6q22 -3 44.5 -3t47.5 3q49 6 186 6v-30q-201 0 -245 -70l-344 -551v-549q0 -70 200 -69v-31q-162 0 -207 4 q-34 3 -68.5 3t-68.5 -3q-45 -4 -207 -4v31q201 0 201 69v490l-399 610q-51 70 -250 70z" />
<glyph unicode="Z" horiz-adv-x="1249" d="M80 0h1061q0 98 49 274h-39q-47 -121 -107 -180q-53 -53 -174 -53h-600l899 1219v40h-909q-70 0 -70 101h-30q-10 -84 -27 -152q-18 -76 -53 -170h41q49 89 80 135q31 45 108 46h672l-901 -1219v-41z" />
<glyph unicode="[" horiz-adv-x="468" d="M100 -399h369v28q-250 0 -250 72v1499q-12 41 75 58q62 12 175 12v30h-369v-1699z" />
<glyph unicode="\" horiz-adv-x="778" d="M0 1401l680 -1700h100l-680 1700h-100z" />
<glyph unicode="]" horiz-adv-x="468" d="M0 -371q250 0 250 72v1499q12 41 -75 58q-62 12 -175 12v30h371v-1699h-371v28z" />
<glyph unicode="^" horiz-adv-x="899" d="M49 829l41 -28l361 448l360 -448l39 28l-399 500z" />
<glyph unicode="_" horiz-adv-x="1198" d="M0 -150v-79h1200v79h-1200z" />
<glyph unicode="`" horiz-adv-x="499" d="M51 1280l129 49l200 -330h-51zM280 999z" />
<glyph unicode="a" horiz-adv-x="819" d="M80 129q0 152 450 322v157q0 162 -131 162q-129 0 -174 -139q-45 -141 -96 -142q-49 0 -49 51.5t125 170t225 118.5q98 0 160 -63q59 -61 59 -152v-544q0 -24 17 -24q26 0 94 54l20 -20q-51 -100 -149 -100q-78 0 -101 90q-102 -90 -260 -90q-190 -1 -190 149zM211 160 q0 -119 108 -119q111 0 211 70v299q-319 -129 -319 -250zM399 999z" />
<glyph unicode="b" horiz-adv-x="989" d="M-20 1270v30q72 8 133 35q53 23 106 66h31v-672q100 100 274 100q176 0 287 -114q109 -111 109 -316q0 -203 -109 -313q-113 -117 -287 -117t-295 72q-25 -35 -69 -72h-31v1200q0 70 -47 86q-43 15 -102 15zM250 190q0 -57 76 -120q72 -59 188.5 -59.5t190.5 110.5 q76 113 75 250q0 197 -114 299q-102 91 -198 91q-9 0 -17 -1q-100 -8 -201 -70v-500z" />
<glyph unicode="c" horiz-adv-x="868" d="M70 410q0 193 125 305q127 115 266 114q172 0 244 -69q47 -45 47 -77q0 -19 -17 -34q-14 -12 -29 -12q-36 0 -81 63q-66 90 -146 91q-150 0 -215 -121q-63 -119 -63 -271q0 -150 84 -233q86 -86 184 -86q152 0 322 170l28 -21q-168 -260 -379 -260q-150 0 -260 125 q-110 128 -110 316z" />
<glyph unicode="d" horiz-adv-x="1028" d="M70 399q0 203 110 316q111 115 285 114.5t274 -100.5v440q0 70 -47 86q-43 14 -102 15v30q72 8 133 35q53 23 106 66h31v-1262q0 -80 150 -80v-28q-16 -2 -133 -21q-55 -8 -107 -41h-31v101q-100 -100 -274 -101q-172 0 -285 117q-110 113 -110 313zM211 430 q0 -199 115 -301q100 -89 196 -89q9 0 19 1q98 8 198 70v469q0 61 -73 135q-76 76 -191 76q-117 0 -190.5 -111t-73.5 -250z" />
<glyph unicode="e" horiz-adv-x="909" d="M80 399q0 201 131 315.5t258 114.5q172 0 266 -94t94 -235h-628q0 -223 84 -316q86 -94 184 -94q151 0 332 160l28 -21q-168 -260 -378 -260q-150 0 -261 125q-110 127 -110 305zM201 541h499q0 102 -63 174q-66 76 -148 76q-150 0 -219 -80q-69 -78 -69 -170zM479 999z " />
<glyph unicode="f" horiz-adv-x="518" d="M20 0v31q150 0 150 69v629h-150q0 53 80 62t80 79q0 211 119 369q121 162 246 162q126 0 166 -31q39 -31 39 -70q0 -41 -39 -61q-16 -8 -35 -8q-28 0 -62 18q-57 33 -139 41l-25 2q-68 0 -110 -43q-49 -49 -49 -219v-229h198v-72h-198v-629q0 -70 149 -69v-31 q-123 0 -157 4q-26 3 -53 3l-52 -3q-35 -4 -158 -4z" />
<glyph unicode="g" horiz-adv-x="919" d="M20 -260q0 109 230 219q-180 70 -180 156q0 82 249 104q-70 23 -139 100.5t-69 194.5q0 133 96 225q92 90 233 90q111 0 191 -55q60 -23 123 -23q57 0 116 19v-111q-113 0 -153 29q53 -76 53 -174q0 -129 -94 -221t-236 -92q-260 0 -260 -80t295 -80t371 -82 q74 -80 74 -194.5t-127 -198.5q-129 -86 -324 -86q-188 0 -322 76q-127 71 -127 184zM139 -260.5q0 -108.5 107 -165.5q100 -53 223 -53q121 0 246 63.5t125 179.5q0 113 -140 136q-131 20 -426 20q-135 -72 -135 -180.5zM229 514q0 -117 58 -197q55 -78 153 -77 q100 0 156 77q53 74 53 197q0 125 -53 199q-55 78 -156 78q-98 0 -153 -78q-58 -80 -58 -199z" />
<glyph unicode="h" horiz-adv-x="1009" d="M20 0v31q150 0 150 69v1069q0 70 -47 86q-43 14 -103 15v30q70 8 132 35q57 25 108 66h31v-762q131 190 278 190q102 0 186.5 -63.5t84.5 -214.5v-451q0 -70 149 -69v-31q-123 0 -158 4q-26 3 -52 3l-52 -3q-35 -4 -158 -4v31q152 0 152 69v351q0 180 -59.5 229 t-172.5 49q-98 0 -198 -139v-490q0 -70 149 -69v-31q-123 0 -157 4q-26 3 -53 3l-52 -3q-35 -4 -158 -4z" />
<glyph unicode="i" horiz-adv-x="479" d="M309 100q0 -70 152 -69v-31q-123 0 -158 4q-53 6 -106 0q-35 -4 -156 -4v31q150 0 149 69v490q0 39 -40 57q-35 16 -109 23v30q76 8 143 48q66 37 97 71h28v-719zM174 1261q25 25 61.5 25t61.5 -25q27 -27 26 -61q0 -37 -26 -64q-25 -25 -62 -24.5t-61 24.5 q-27 27 -27 64q0 34 27 61z" />
<glyph unicode="j" horiz-adv-x="434" d="M201 590q0 39 -41 57q-35 16 -111 23v30q80 8 146 48q66 37 96 71h28v-719q0 -401 -284 -600l-25 25q190 176 191 575v490zM185 1261q25 25 61.5 25t61.5 -25q27 -27 26 -61q0 -37 -26 -64q-25 -25 -62 -24.5t-61 24.5q-27 27 -27 64q0 34 27 61z" />
<glyph unicode="k" horiz-adv-x="1058" d="M20 0v31q150 0 150 69v1069q0 70 -47 86q-43 14 -103 15v30q70 8 132 35q57 25 108 66h31v-1002l385 301q37 27 37 44q0 26 -92 26v31q89 0 135 -6q23 -3 45 -3t45 3q46 6 135 6v-31q-152 0 -246 -70l-256 -200l357 -400q72 -70 225 -69v-31q-129 0 -166 4q-28 3 -55 3 l-56 -3q-37 -4 -163 -4v31q99 0 98 30q0 15 -25 39l-295 336l-108 -86v-250q0 -70 149 -69v-31q-123 0 -157 4q-26 3 -53 3l-52 -3q-35 -4 -158 -4z" />
<glyph unicode="l" horiz-adv-x="458" d="M20 0v31q150 0 150 69v1069q0 70 -47 86q-43 14 -103 15v30q70 8 132 35q57 25 108 66h31v-1301q0 -70 149 -69v-31q-123 0 -157 4q-26 3 -53 3l-52 -3q-35 -4 -158 -4z" />
<glyph unicode="m" horiz-adv-x="1589" d="M49 0v31q152 0 152 69v490q0 39 -41 57q-35 16 -111 23v30q80 8 146 48q66 37 96 71h28v-180q131 190 281 190q100 0 184 -63q59 -45 78 -135q137 199 289 198q100 0 184 -63.5t84 -214.5v-451q0 -70 152 -69v-31q-123 0 -158 4q-26 3 -53 3t-53 -3q-35 -4 -156 -4v31 q150 0 149 69v351q0 184 -59 231t-172 47q-102 0 -201 -141q2 -12 2 -37v-451q0 -70 150 -69v-31q-123 0 -158 4q-26 3 -52 3l-52 -3q-35 -4 -158 -4v31q150 0 150 69v351q0 184 -59.5 231t-170.5 47q-100 0 -201 -139v-490q0 -70 150 -69v-31q-121 0 -156 4q-26 3 -53 3 t-53 -3q-35 -4 -158 -4z" />
<glyph unicode="n" horiz-adv-x="1038" d="M49 0v31q152 0 152 69v490q0 39 -41 57q-35 16 -111 23v30q80 8 146 48q66 37 96 71h28v-180q131 190 281 190q100 0 184 -63q86 -65 86 -215v-451q0 -70 150 -69v-31q-123 0 -158 4q-26 3 -52 3l-52 -3q-35 -4 -158 -4v31q150 0 150 69v351q0 180 -59.5 229t-170.5 49 q-100 0 -201 -139v-490q0 -70 150 -69v-31q-121 0 -156 4q-26 3 -53 3t-53 -3q-35 -4 -158 -4z" />
<glyph unicode="o" horiz-adv-x="1038" d="M70 399.5q0 178.5 131 305.5q127 125 319.5 124.5t319.5 -124.5q131 -127 131 -305.5t-131 -305.5q-127 -125 -319.5 -125t-319.5 125q-131 127 -131 305.5zM205 399q0 -164 90 -276.5t225 -112.5t225.5 113t90.5 276q0 166 -90.5 279t-225.5 113t-225 -113t-90 -279z " />
<glyph unicode="p" horiz-adv-x="1038" d="M31 -500q150 0 149 70v1020q0 39 -41 57q-35 16 -108 23v30q76 8 143 48q66 37 96 71h29v-90q100 100 276 100q174 0 285 -114q111 -113 111 -316q0 -200 -111 -313q-113 -117 -285 -117q-174 0 -276 72v-471q0 -70 152 -70v-30q-106 0 -158 6q-26 3 -52 3l-53 -3 q-53 -6 -157 -6v30zM299 190q0 -57 76 -120q72 -59 190 -60q117 0 190.5 110.5t73.5 250.5q0 197 -114 299q-102 91 -197 91q-9 0 -18 -1q-100 -8 -201 -70v-500z" />
<glyph unicode="q" horiz-adv-x="958" d="M70 399q0 203 110 316q111 115 285 114q176 0 295 -69q20 31 69 69h31v-1259q0 -70 150 -70v-30q-104 0 -158 6q-26 3 -52 3l-52 -3q-51 -6 -158 -6v30q150 0 149 70v399v101q-100 -100 -274 -101q-172 0 -285 117q-110 113 -110 313zM211 430q0 -199 115 -301 q100 -89 196 -89q9 0 19 1q98 8 198 70v499q0 57 -73.5 119t-190.5 62t-190.5 -111t-73.5 -250z" />
<glyph unicode="r" horiz-adv-x="698" d="M41 0v31q150 0 149 69v490q0 39 -40 57q-35 16 -109 23v30q76 8 143 48q66 37 97 71h28v-229q80 240 215 239.5t135 -79.5q0 -78 -34 -95q-12 -5 -25 -5q-25 0 -55 20q-43 29 -105 35h-4q-58 0 -127 -164v-441q0 -70 152 -69v-31q-123 0 -158 4q-26 3 -53 3t-53 -3 q-35 -4 -156 -4z" />
<glyph unicode="s" horiz-adv-x="768" d="M100 31v229h39q23 -162 133 -211q63 -29 127 -29q41 0 78 15q92 34 92 147q0 115 -233 176q-236 61 -236 200.5t66 201.5q61 59 204.5 59t188.5 -28q49 -31 90 -31v-180h-39q-22 160 -129 190q-41 10 -106 10q-71 0 -86 -6q-88 -25 -88 -127t233 -164q236 -61 236 -213 q0 -150 -78 -221q-76 -70 -199 -69.5t-188 24.5q-70 27 -105 27z" />
<glyph unicode="t" horiz-adv-x="618" d="M20 729v51q98 0 164 74t97 197h38v-250h232v-72h-232v-575q0 -94 90.5 -94.5t165.5 75.5l25 -24q-90 -131 -201 -131q-109 0 -159 51q-49 49 -50 172v526h-170z" />
<glyph unicode="u" horiz-adv-x="989" d="M20 711v28q66 8 117 27q45 16 103 53h30v-469q0 -180 60 -229q61 -51 170 -51q98 0 200 141v399q0 68 -38.5 84.5t-92.5 16.5v28q68 8 119 27q45 16 103 53h28v-680q0 -80 152 -80v-28q-16 -2 -133 -21q-57 -8 -109 -41h-29v191q-131 -190 -280 -191q-96 0 -184 66 q-86 65 -86 215v360q0 70 -37 84q-40 17 -93 17z" />
<glyph unicode="v" horiz-adv-x="958" d="M-31 770v31q111 0 166 -6q28 -3 55 -3l56 3q55 6 164 6v-31q-125 0 -126 -49q0 -9 5 -21l248 -563l227 563q4 10 3 19q0 51 -128 51v31q90 0 133 -6q22 -3 43 -3l43 3q43 6 131 6v-31q-152 0 -176 -70l-293 -731h-51l-319 731q-27 70 -181 70z" />
<glyph unicode="w" horiz-adv-x="1409" d="M-31 770v31q96 0 146 -6q25 -3 48 -3t48 3q49 6 143 6v-31q-72 0 -72 -41q0 -12 7 -29l241 -579l154 387l-86 192q-27 70 -123 70v31q109 0 164 -6q28 -3 55 -3l56 3q55 6 165 6v-31q-179 0 -179 -54q0 -7 3 -16l248 -563l227 563q3 8 3 15q0 55 -183 55v31q101 0 154 -6 q26 -3 51 -3t49 3q49 6 152 6v-31q-152 0 -176 -70l-293 -731h-51l-209 475l-191 -475h-51l-319 731q-27 70 -181 70z" />
<glyph unicode="x" horiz-adv-x="983" d="M20 0v31q147 0 203 69l221 287l-221 313q-51 70 -203 70v31q109 0 164 -6q28 -3 56 -3l55 3q55 6 166 6v-31q-112 0 -112 -38q0 -13 13 -32l154 -219l166 219q16 20 16 34q0 36 -108 36v31q88 0 131 -6q22 -3 44 -3t44 3q43 6 131 6v-31q-150 0 -207 -70l-192 -251 l245 -349q49 -70 199 -69v-31q-129 0 -166 4q-28 3 -54.5 3t-53.5 -3q-37 -4 -166 -4v31q113 0 112 39q0 13 -12 30l-176 252l-195 -252q-15 -19 -14 -32q0 -37 111 -37v-31q-104 0 -133 4q-22 3 -43 3l-43 -3q-30 -4 -132 -4z" />
<glyph unicode="y" horiz-adv-x="958" d="M-31 770v31q111 0 166 -6q28 -3 55 -3l56 3q55 6 164 6v-31q-125 0 -126 -49q0 -9 5 -21l241 -579l234 579q4 10 3 19q0 51 -128 51v31q90 0 133 -6q22 -3 43 -3l43 3q43 6 131 6v-31q-152 0 -176 -70l-424 -1050q-45 -106 -94 -129q-47 -20 -94 -21q-41 0 -76 25 q-20 15 -20 42q0 19 10 44q16 40 60 40q21 0 50 -9q16 -5 32 -6q65 0 116 94l96 239l-319 731q-27 70 -181 70z" />
<glyph unicode="z" horiz-adv-x="878" d="M49 0v41l641 719h-540q-23 -63 -60 -129h-41q37 76 53.5 135t26.5 133h41q-1 -7 -1 -14q0 -84 112 -84h569v-41l-639 -719h420q98 0 119 39l61 110h39q-39 -80 -43 -110l-16 -111h-31q0 31 -90 31h-621z" />
<glyph unicode="{" horiz-adv-x="598" d="M49 430q330 -31 242 -405.5t309 -444.5v39q-249 40 -184 406q63 365 -266 426q330 61 266 423q-65 366 184 406v41q-399 -70 -309 -447q88 -375 -242 -405v-39z" />
<glyph unicode="|" horiz-adv-x="499" d="M201 -399h98v1949h-98v-1949z" />
<glyph unicode="}" horiz-adv-x="598" d="M0 -381q249 40 184 406q-63 365 267 426q-330 61 -267 423q65 366 -184 406v41q399 -70 309 -447q-88 -375 242 -405v-39q-330 -31 -242 -405.5t-309 -444.5v39z" />
<glyph unicode="~" horiz-adv-x="1398" d="M100 309l50 -24q152 145 239 145q102 0 260 -69.5t301 -69.5q190 0 350 198l-51 25q-150 -143 -239 -143q-102 0 -260 69.5t-299 69.5q-191 0 -351 -201z" />
<glyph unicode="&#xa2;" horiz-adv-x="634" />
<glyph unicode="&#xa3;" horiz-adv-x="634" />
<glyph unicode="&#xa5;" horiz-adv-x="634" />
<glyph unicode="&#xa9;" horiz-adv-x="712" />
<glyph unicode="&#xad;" horiz-adv-x="698" d="M100 350h500v101h-500v-101z" />
<glyph unicode="&#xae;" horiz-adv-x="745" />
<glyph unicode="&#xb4;" horiz-adv-x="499" d="M479 1280l-129 49l-200 -330h51zM250 999z" />
<glyph unicode="&#x131;" horiz-adv-x="479" d="M309 100q0 -70 152 -69v-31q-123 0 -158 4q-53 6 -106 0q-35 -4 -156 -4v31q150 0 149 69v490q0 39 -40 57q-35 16 -109 23v30q76 8 143 48q66 37 97 71h28v-719z" />
<glyph unicode="&#x300;" horiz-adv-x="0" d="M-479 1280l129 49l200 -330h-51zM-250 999z" />
<glyph unicode="&#x301;" horiz-adv-x="0" d="M-21 1280l-129 49l-200 -330h51zM-250 999z" />
<glyph unicode="&#x307;" horiz-adv-x="0" d="M-311 1212q25 25 61.5 25t61.5 -25q27 -27 26 -61q0 -37 -26 -64q-25 -25 -62 -24.5t-61 24.5q-27 27 -27 64q0 34 27 61z" />
<glyph unicode="&#x2000;" horiz-adv-x="774" />
<glyph unicode="&#x2001;" horiz-adv-x="1548" />
<glyph unicode="&#x2002;" horiz-adv-x="774" />
<glyph unicode="&#x2003;" horiz-adv-x="1548" />
<glyph unicode="&#x2004;" horiz-adv-x="514" />
<glyph unicode="&#x2005;" horiz-adv-x="385" />
<glyph unicode="&#x2006;" horiz-adv-x="256" />
<glyph unicode="&#x2007;" horiz-adv-x="256" />
<glyph unicode="&#x2008;" horiz-adv-x="192" />
<glyph unicode="&#x2009;" horiz-adv-x="309" />
<glyph unicode="&#x200a;" horiz-adv-x="83" />
<glyph unicode="&#x2010;" horiz-adv-x="698" d="M100 350h500v101h-500v-101z" />
<glyph unicode="&#x2011;" horiz-adv-x="698" d="M100 350h500v101h-500v-101z" />
<glyph unicode="&#x2012;" horiz-adv-x="698" d="M100 350h500v101h-500v-101z" />
<glyph unicode="&#x2013;" horiz-adv-x="1024" d="M0 350h1024v101h-1024v-101z" />
<glyph unicode="&#x2014;" horiz-adv-x="2048" d="M0 350h2048v101h-2048v-101z" />
<glyph unicode="&#x2018;" horiz-adv-x="235" />
<glyph unicode="&#x2019;" horiz-adv-x="239" />
<glyph unicode="&#x201c;" horiz-adv-x="348" />
<glyph unicode="&#x201d;" horiz-adv-x="348" />
<glyph unicode="&#x2022;" horiz-adv-x="385" />
<glyph unicode="&#x2026;" horiz-adv-x="790" />
<glyph unicode="&#x202f;" horiz-adv-x="309" />
<glyph unicode="&#x2044;" horiz-adv-x="368" d="M-399 -31h100l1069 1360h-100z" />
<glyph unicode="&#x205f;" horiz-adv-x="385" />
<glyph unicode="&#x2122;" horiz-adv-x="679" />
<glyph unicode="&#xe000;" horiz-adv-x="800" d="M0 800h800v-800h-800v800z" />
<glyph unicode="&#xfb01;" horiz-adv-x="978" d="M20 0v31q150 0 150 69v600h-150q0 49 80 59.5t80 90.5q0 229 129 389q131 162 250 162q120 0 191 -62q70 -61 69 -108q0 -51 -53 -71.5t-117 50.5q-61 72 -139 80t-150 -41q-70 -49 -69 -219v-270h250q78 0 143.5 12t95.5 47h31v-719q0 -70 150 -69v-31q-123 0 -158 4 q-52 6 -105 0q-35 -4 -157 -4v31q150 0 149 69v521q0 39 -41 57q-35 16 -108 22h-250v-600q0 -70 149 -69v-31q-123 0 -157 4q-52 6 -105 0q-35 -4 -158 -4z" />
<glyph unicode="&#xfb02;" horiz-adv-x="978" d="M20 0v31q150 0 150 69v629h-150q0 53 80 62t80 79q0 211 119 369q121 162 246 162q123 0 180 -41l55 41h31v-1301q0 -70 150 -69v-31q-123 0 -158 4q-52 6 -105 0q-35 -4 -157 -4v31q150 0 149 69v1110q-25 10 -76 39q-57 33 -139 41q-86 8 -135 -41t-49 -219v-229h198 v-72h-198v-629q0 -70 149 -69v-31q-123 0 -157 4q-52 6 -105 0q-35 -4 -158 -4z" />
<glyph unicode="&#xfb03;" horiz-adv-x="1519" d="M1349 100q0 -70 152 -69v-31q-123 0 -158 4q-53 6 -106 0q-35 -4 -156 -4v31q150 0 149 69v490q0 39 -40 57q-35 16 -109 23v30q76 8 143 48q66 37 97 71h28v-719zM1214 1261q25 25 61.5 25t61.5 -25q27 -27 26 -61q0 -37 -26 -64q-25 -25 -62 -24.5t-61 24.5 q-27 27 -27 64q0 34 27 61zM540 0v31q150 0 150 69v629h-150q0 53 80 62t80 79q0 211 119 369q121 162 246 162q126 0 166 -31q39 -31 39 -70q0 -41 -39 -61q-16 -8 -35 -8q-28 0 -62 18q-57 33 -139 41l-25 2q-68 0 -110 -43q-49 -49 -49 -219v-229h198v-72h-198v-629 q0 -70 149 -69v-31q-123 0 -157 4q-26 3 -53 3l-52 -3q-35 -4 -158 -4zM20 0v31q150 0 150 69v629h-150q0 53 80 62t80 79q0 211 119 369q121 162 246 162q126 0 166 -31q39 -31 39 -70q0 -41 -39 -61q-16 -8 -35 -8q-28 0 -62 18q-57 33 -139 41l-25 2q-68 0 -110 -43 q-49 -49 -49 -219v-229h198v-72h-198v-629q0 -70 149 -69v-31q-123 0 -157 4q-26 3 -53 3l-52 -3q-35 -4 -158 -4z" />
<glyph unicode="&#xfb04;" horiz-adv-x="1499" d="M1060 0v31q150 0 150 69v1069q0 70 -47 86q-43 14 -103 15v30q70 8 132 35q57 25 108 66h31v-1301q0 -70 149 -69v-31q-123 0 -157 4q-26 3 -53 3l-52 -3q-35 -4 -158 -4zM540 0v31q150 0 150 69v629h-150q0 53 80 62t80 79q0 211 119 369q121 162 246 162q126 0 166 -31 q39 -31 39 -70q0 -41 -39 -61q-16 -8 -35 -8q-28 0 -62 18q-57 33 -139 41l-25 2q-68 0 -110 -43q-49 -49 -49 -219v-229h198v-72h-198v-629q0 -70 149 -69v-31q-123 0 -157 4q-26 3 -53 3l-52 -3q-35 -4 -158 -4zM20 0v31q150 0 150 69v629h-150q0 53 80 62t80 79 q0 211 119 369q121 162 246 162q126 0 166 -31q39 -31 39 -70q0 -41 -39 -61q-16 -8 -35 -8q-28 0 -62 18q-57 33 -139 41l-25 2q-68 0 -110 -43q-49 -49 -49 -219v-229h198v-72h-198v-629q0 -70 149 -69v-31q-123 0 -157 4q-26 3 -53 3l-52 -3q-35 -4 -158 -4z" />
<glyph horiz-adv-x="899" d="M274 299q-74 406 -55 426q23 25 80 25q199 0 291 51q90 49 90 180q0 168 -65.5 243.5t-182.5 75.5q-82 0 -133 -51q-49 -49 -125 -49q-74 0 -74 100.5t199 100.5q471 0 471 -451q0 -350 -371 -350q-74 0 -73 -301h-52z" />
<glyph horiz-adv-x="499" d="M225 299q0 487 -75 1001q0 100 100 100.5t100 -100.5q-76 -514 -76 -1001h-49z" />
<glyph d="M211 920l49 239h551v141h-582l-79 -481q264 0 391 -69q129 -70 129 -330q0 -209 -191 -320q-193 -113 -420 -120v-50q319 8 545 164q225 154 225 406q0 230 -159 325q-158 95 -459 95z" />
<glyph d="M500 -31q-190 0 -295 121q-104 119 -105 410q0 299 250 565q250 264 520 336v-51q-176 -68 -360 -226q-178 -152 -250 -475q119 100 260 101q180 0 281 -101q98 -98 98 -274q0 -178 -98 -289q-104 -117 -301 -117zM256 600q-6 -100 -6 -201q0 -197 76 -295 q74 -94 188.5 -94t175.5 94q59 92 60 295q0 201 -74 256.5t-156 55.5q-139 0 -264 -111z" />
<glyph d="M330 -80h-101l611 1239h-459q-137 0 -170 -4q-51 -6 -90 -131h-41q31 175 31 276h850z" />
<glyph d="M500 -31q200 0 301 86q98 84 98 264q0 213 -309 381q260 160 260 332q0 166 -100 234q-98 66 -244 65q-158 0 -256 -90q-100 -92 -100 -242q0 -197 210 -340q-260 -129 -260 -340q0 -178 101 -264q102 -86 299 -86zM250 350q0 201 149 281q350 -151 351 -332 q0 -162 -60 -223q-61 -66 -190 -66q-127 0 -189 70q-61 70 -61 270zM545 725q-274 164 -274.5 295t55 200.5t174.5 69.5q109 0 170 -55q59 -53 59 -215q0 -160 -184 -295z" />
<glyph d="M499 1331q190 0 295 -121q104 -119 105 -410q0 -299 -250 -565q-250 -264 -520 -336v51q176 68 360 226q178 152 250 475q-119 -100 -260 -101q-180 0 -281 101q-98 98 -98 274q0 178 98 289q104 117 301 117zM743 700q6 100 6 201q0 197 -76 295q-74 94 -188.5 94 t-175.5 -94q-59 -92 -60 -295q0 -201 74 -256.5t156 -55.5q139 0 264 111z" />
<glyph horiz-adv-x="763" d="M86 248v-197q43 0 104 -35q63 -37 199 -36q137 0 213 69q78 72 78 221q0 154 -260 215.5t-260 161.5q0 98 104 127q98 27 215 0q109 -25 131 -186h41v176q-39 0 -102 29q-59 27 -180 26q-160 0 -221.5 -61.5t-61.5 -206.5q0 -143 258 -204.5t258 -172.5t-110.5 -141.5 t-223.5 0.5q-114 31 -141 215h-41z" />
<glyph horiz-adv-x="434" d="M201 590q0 39 -41 57q-35 16 -111 23v30q80 8 146 48q66 37 96 71h28v-719q0 -401 -284 -600l-25 25q190 176 191 575v490z" />
</font>
</defs>
</svg>
