<?xml version="1.0" encoding="UTF-8"?><!DOCTYPE svg PUBLIC "-//W3C//DTD SVG 1.1//EN" "http://www.w3.org/Graphics/SVG/1.1/DTD/svg11.dtd">

<!--
=========================================================
|  01. yes         |  16. star         |  31. man       |
|  02. no          |  17. docs         |  32. woman     |
|  03. restricted  |  18. search       |  33. import    |
|  04. warning     |  19. pin          |  34. export    |
|  05. locked      |  20. cog          |  35. external  |
|  06. unlocked    |  21. speech       |  36. _____     |
|  07. dl-desktop  |  22. tools        |  37. _____     |
|  08. dl-laptop   |  23. diamond      |  38. _____     |
|  09. refresh     |  24. info         |  39. _____     |
|  10. gift        |  25. key          |  40. _____     |
|  11. price-tag   |  26. arrow-right  |  41. _____     |
|  12. smile       |  27. tfs          |  42. _____     |
|  13. bullhorn    |  28. layout       |  43. _____     |
|  14. bell        |  29. video        |  44. _____     |
|  15. lightbulb   |  30. layers       |  45. _____     |
=========================================================
-->

<svg xmlns="http://www.w3.org/2000/svg">

  <symbol version="1.1" id="yes" xmlns="http://www.w3.org/2000/svg" xmlns:xlink="http://www.w3.org/1999/xlink" x="0px" y="0px" viewBox="0 0 50.1 50.1" style="enable-background:new 0 0 50.1 50.1;" xml:space="preserve">
    <path d="M42.2,7.2C37.5,2.6,31.4,0,24.8,0C18.2,0,12,2.6,7.4,7.2c-9.6,9.6-9.6,25.2,0,34.8c4.6,4.7,10.8,7.2,17.4,7.2c0,0,0,0,0,0c6.6,0,12.8-2.6,17.4-7.2C51.8,32.4,51.8,16.8,42.2,7.2z M40.8,40.6c-4.3,4.3-9.9,6.6-16,6.6h0c-6,0-11.7-2.4-16-6.6C0,31.8,0,17.4,8.8,8.6c4.3-4.3,10-6.6,16-6.6c6,0,11.7,2.4,16,6.6C49.6,17.4,49.6,31.8,40.8,40.6z"/>
    <path d="M35.1,17.3L20.7,32.7L14.4,26c-0.4-0.4-1-0.4-1.4,0c-0.4,0.4-0.4,1,0,1.4l7,7.5c0,0,0,0,0,0c0,0,0,0,0,0c0.1,0.1,0.1,0.1,0.2,0.1c0,0,0.1,0.1,0.1,0.1c0.1,0,0.2,0.1,0.4,0.1c0.1,0,0.3,0,0.4-0.1c0,0,0.1,0,0.1-0.1c0.1,0,0.1-0.1,0.2-0.1c0,0,0,0,0,0c0,0,0,0,0,0l15.2-16.2c0.4-0.4,0.4-1,0-1.4C36.2,16.9,35.5,16.9,35.1,17.3z"/>
  </symbol>

  <symbol version="1.1" id="no" xmlns="http://www.w3.org/2000/svg" xmlns:xlink="http://www.w3.org/1999/xlink" x="0px" y="0px" viewBox="0 0 50.1 50.1" style="enable-background:new 0 0 50.1 50.1;" xml:space="preserve">
    <path d="M42,7.2C37.4,2.6,31.2,0,24.6,0C18,0,11.8,2.6,7.2,7.2c-9.6,9.6-9.6,25.2,0,34.8c4.6,4.7,10.8,7.2,17.4,7.2c0,0,0,0,0,0c6.6,0,12.8-2.6,17.4-7.2C51.6,32.4,51.6,16.8,42,7.2z M40.6,40.6c-4.3,4.3-9.9,6.6-16,6.6h0c-6,0-11.7-2.4-16-6.6c-8.8-8.8-8.8-23.2,0-32c4.3-4.3,10-6.6,16-6.6c6,0,11.7,2.4,16,6.6C49.4,17.4,49.4,31.8,40.6,40.6z"/>
    <path d="M35.5,14.3c-0.4-0.4-1-0.4-1.4,0l-8.9,8.9l-8.9-8.9c-0.4-0.4-1-0.4-1.4,0c-0.4,0.4-0.4,1,0,1.4l8.9,8.9l-8.9,8.9c-0.4,0.4-0.4,1,0,1.4c0.2,0.2,0.5,0.3,0.7,0.3c0.3,0,0.5-0.1,0.7-0.3l8.9-8.9l8.9,8.9c0.2,0.2,0.5,0.3,0.7,0.3c0.3,0,0.5-0.1,0.7-0.3c0.4-0.4,0.4-1,0-1.4l-8.9-8.9l8.9-8.9C35.9,15.3,35.9,14.7,35.5,14.3z"/>
  </symbol>

  <symbol version="1.1" id="restricted" xmlns="http://www.w3.org/2000/svg" xmlns:xlink="http://www.w3.org/1999/xlink" x="0px" y="0px" viewBox="0 0 50.1 50.1" style="enable-background:new 0 0 50.1 50.1;" xml:space="preserve">
    <path d="M41.9,7.2C37.3,2.6,31.1,0,24.6,0C18,0,11.8,2.6,7.2,7.2C2.6,11.8,0,18,0,24.6c0,6.6,2.6,12.7,7.2,17.4c4.6,4.6,10.8,7.2,17.4,7.2c0,0,0,0,0,0c6.6,0,12.7-2.6,17.4-7.2c4.6-4.6,7.2-10.8,7.2-17.4C49.1,18,46.6,11.8,41.9,7.2z M8.6,8.6c4.3-4.3,9.9-6.6,16-6.6c5.7,0,11.1,2.1,15.2,5.9L7.9,39.8C4.1,35.6,2,30.3,2,24.6C2,18.5,4.3,12.9,8.6,8.6z M40.5,40.5c-4.3,4.3-9.9,6.6-16,6.6h0c-5.7,0-11.1-2.1-15.2-5.9L41.2,9.3c3.8,4.2,5.9,9.5,5.9,15.2C47.1,30.6,44.8,36.3,40.5,40.5z"/>
  </symbol>

  <symbol version="1.1" id="warning" xmlns="http://www.w3.org/2000/svg" xmlns:xlink="http://www.w3.org/1999/xlink" x="0px" y="0px" viewBox="0 0 50.1 50.1" style="enable-background:new 0 0 50.1 50.1;" xml:space="preserve">
    <path d="M48.2,38.2L29.7,5.6c-1.1-1.9-3.1-3.1-5.3-3.1c-2.2,0-4.2,1.2-5.3,3.1L0.7,38.2c-1.1,1.9-1.1,4.2,0,6.1c1.1,1.9,3.1,3,5.2,3h37c2.2,0,4.2-1.2,5.2-3C49.3,42.4,49.3,40,48.2,38.2z M46.5,43.2c-0.7,1.2-2.1,2-3.5,2H6c-1.4,0-2.8-0.8-3.5-2c-0.7-1.2-0.7-2.8,0-4.1L20.9,6.6c0.7-1.3,2.1-2.1,3.5-2.1c1.5,0,2.8,0.8,3.5,2.1l18.5,32.6C47.2,40.4,47.2,42,46.5,43.2z"/>
    <path d="M24.5,15.1c-0.6,0-1,0.4-1,1v14.8c0,0.6,0.4,1,1,1c0.6,0,1-0.4,1-1V16.1C25.5,15.6,25,15.1,24.5,15.1z"/>
    <path d="M24.5,36.4C24.5,36.4,24.5,36.4,24.5,36.4c-0.6,0-1,0.4-1,1l0,0.5c0,0.6,0.4,1,1,1c0,0,0,0,0,0c0.6,0,1-0.4,1-1l0-0.5C25.5,36.8,25,36.4,24.5,36.4z"/>
  </symbol>

  <symbol version="1.1" id="locked" xmlns="http://www.w3.org/2000/svg" xmlns:xlink="http://www.w3.org/1999/xlink" x="0px" y="0px" viewBox="0 0 50.1 50.1" style="enable-background:new 0 0 50.1 50.1;" xml:space="preserve">
    <path d="M38.3,18.3H35V10c0-5.4-4.4-9.8-9.8-9.8c-5.4,0-9.8,4.4-9.8,9.8v8.3H12c-3,0-5.4,2.4-5.4,5.5l1.9,20.1c0,3,2.4,5.4,5.4,5.4h22.4c3,0,5.4-2.4,5.4-5.3l1.9-20.3C43.7,20.7,41.2,18.3,38.3,18.3z M17.3,10c0-4.3,3.5-7.8,7.8-7.8c4.3,0,7.8,3.5,7.8,7.8v8.3H17.3V10z M39.7,43.9c0,1.9-1.5,3.4-3.4,3.4H13.9c-1.9,0-3.4-1.5-3.4-3.5L8.6,23.7c0-1.9,1.5-3.4,3.4-3.4h26.3c1.9,0,3.4,1.5,3.4,3.3L39.7,43.9z"/>
    <path d="M25.1,29.7c-2.3,0-4.1,1.9-4.1,4.1c0,0,0,0.1,0,0.1l0.9,7.3c0.1,0.5,0.5,0.9,1,0.9h4.6c0.5,0,0.9-0.4,1-0.9l0.9-7.3c0,0,0-0.1,0-0.1C29.3,31.6,27.4,29.7,25.1,29.7z M26.5,40.2h-2.8L23,33.8c0-1.2,1-2.1,2.1-2.1c1.2,0,2.1,0.9,2.1,2.1L26.5,40.2z"/>
  </symbol>

  <symbol version="1.1" id="unlocked" xmlns="http://www.w3.org/2000/svg" xmlns:xlink="http://www.w3.org/1999/xlink" x="0px" y="0px" viewBox="0 0 50.1 50.1" style="enable-background:new 0 0 50.1 50.1;" xml:space="preserve">
    <path d="M37.6,18.3h-3.3V10c0-5.4-4.4-9.8-9.8-9.8c-5.4,0-9.8,4.4-9.8,9.8c0,0.6,0.4,1,1,1c0.6,0,1-0.4,1-1c0-4.3,3.5-7.8,7.8-7.8c4.3,0,7.8,3.5,7.8,7.8v8.3h-21c-3,0-5.4,2.4-5.4,5.5l1.9,20.1c0,3,2.4,5.4,5.4,5.4h22.4c3,0,5.4-2.4,5.4-5.3L43,23.7C43,20.7,40.6,18.3,37.6,18.3z M39.1,43.9c0,1.9-1.5,3.4-3.4,3.4H13.3c-1.9,0-3.4-1.5-3.4-3.5L8,23.7c0-1.9,1.5-3.4,3.4-3.4h26.3c1.9,0,3.4,1.5,3.4,3.3L39.1,43.9z"/>
    <path d="M24.5,29.7c-2.3,0-4.1,1.9-4.1,4.1c0,0,0,0.1,0,0.1l0.9,7.3c0.1,0.5,0.5,0.9,1,0.9h4.6c0.5,0,0.9-0.4,1-0.9l0.9-7.3c0,0,0-0.1,0-0.1C28.6,31.6,26.8,29.7,24.5,29.7z M25.9,40.2h-2.8l-0.7-6.3c0-1.2,1-2.1,2.1-2.1c1.2,0,2.1,0.9,2.1,2.1L25.9,40.2z"/>
  </symbol>

  <symbol version="1.1" id="dl-desktop" xmlns="http://www.w3.org/2000/svg" xmlns:xlink="http://www.w3.org/1999/xlink" x="0px" y="0px" viewBox="0 0 50.1 50.1" style="enable-background:new 0 0 50.1 50.1;" xml:space="preserve">
    <path d="M18.3,18.2c-0.4-0.4-1-0.4-1.4,0s-0.4,1,0,1.4l6.9,6.9c0.1,0.1,0.2,0.2,0.3,0.2c0.1,0.1,0.3,0.1,0.4,0.1c0.1,0,0.3,0,0.4-0.1c0.1-0.1,0.2-0.1,0.3-0.2l6.9-6.9c0.4-0.4,0.4-1,0-1.4c-0.4-0.4-1-0.4-1.4,0l-5.2,5.2V1.2c0-0.6-0.4-1-1-1c-0.6,0-1,0.4-1,1v22.2L18.3,18.2z"/>
    <path d="M44.9,4.2H30.4c-0.6,0-1,0.4-1,1c0,0.6,0.4,1,1,1h14.5c1.3,0,2.4,1.1,2.4,2.4V33c0,1.3-1.1,2.4-2.4,2.4H4.1c-1.3,0-2.4-1.1-2.4-2.4V8.6c0-1.3,1.1-2.4,2.4-2.4h14.5c0.6,0,1-0.4,1-1c0-0.6-0.4-1-1-1H4.1c-2.4,0-4.4,2-4.4,4.4V33c0,2.4,2,4.4,4.4,4.4h40.8c2.4,0,4.4-2,4.4-4.4V8.6C49.3,6.2,47.3,4.2,44.9,4.2z"/>
    <path d="M35.5,47.2h-1.6l-1-6c-0.1-0.5-0.6-0.9-1.1-0.8c-0.5,0.1-0.9,0.6-0.8,1.1l0.9,5.7l-14.9,0l0.9-5.7c0.1-0.5-0.3-1.1-0.8-1.1c-0.5-0.1-1.1,0.3-1.1,0.8l-1,6h-1.6c-0.6,0-1,0.4-1,1c0,0.6,0.4,1,1,1H17h15h3.5c0.6,0,1-0.4,1-1C36.5,47.7,36.1,47.2,35.5,47.2z"/>
  </symbol>

  <symbol version="1.1" id="dl-laptop" xmlns="http://www.w3.org/2000/svg" xmlns:xlink="http://www.w3.org/1999/xlink" x="0px" y="0px" viewBox="0 0 50.1 50.1" style="enable-background:new 0 0 50.1 50.1;" xml:space="preserve">
    <path d="M49,39.5H27.6c-0.6,0-1,0.4-1,1v0.5h-3.2v-0.5c0-0.6-0.4-1-1-1H1.1c-0.6,0-1,0.4-1,1v3c0,1.5,1.2,2.7,2.7,2.7h44.6c1.5,0,2.7-1.2,2.7-2.7v-3C50,40,49.5,39.5,49,39.5z M48,43.6c0,0.4-0.3,0.7-0.7,0.7H2.7c-0.4,0-0.7-0.3-0.7-0.7v-2h19.4c0.2,0.9,0.9,1.5,1.9,1.5h3.4c0.9,0,1.7-0.7,1.9-1.5H48V43.6z"/>
    <path d="M19.5,22.7c-0.4-0.4-1-0.4-1.4,0s-0.4,1,0,1.4l6.3,6.3c0.1,0.1,0.2,0.2,0.3,0.2c0.1,0.1,0.3,0.1,0.4,0.1s0.3,0,0.4-0.1c0.1-0.1,0.2-0.1,0.3-0.2l6.3-6.3c0.4-0.4,0.4-1,0-1.4c-0.4-0.4-1-0.4-1.4,0l-4.6,4.6V3.6c0-0.6-0.4-1-1-1c-0.6,0-1,0.4-1,1v23.7L19.5,22.7z"/>
    <path d="M5,36.9c0.6,0,1-0.4,1-1V13.1c0-0.3,0.2-0.5,0.5-0.5h13.2c0.6,0,1-0.4,1-1c0-0.6-0.4-1-1-1H6.6c-1.4,0-2.5,1.1-2.5,2.5v22.9C4,36.5,4.5,36.9,5,36.9z"/>
    <path d="M30.5,12.5h13c0.3,0,0.5,0.2,0.5,0.5v22.9c0,0.6,0.4,1,1,1s1-0.4,1-1V13.1c0-1.4-1.1-2.5-2.5-2.5h-13c-0.6,0-1,0.4-1,1C29.5,12.1,29.9,12.5,30.5,12.5z"/>
  </symbol>

  <symbol version="1.1" id="refresh" xmlns="http://www.w3.org/2000/svg" xmlns:xlink="http://www.w3.org/1999/xlink" x="0px" y="0px" viewBox="0 0 50.1 50.1" style="enable-background:new 0 0 50.1 50.1;" xml:space="preserve">
    <path d="M48.6,8C48,7.8,47.4,8,47.2,8.6l-3,7.7c-3.4-7.8-11.1-13-19.7-13c-9.5,0-18,6.4-20.6,15.5C3.7,19.2,4,19.8,4.6,20c0.5,0.2,1.1-0.2,1.3-0.7c2.4-8.2,10.1-14,18.7-14c7.8,0,14.9,4.8,17.9,11.9l-7.8-3c-0.5-0.2-1.1,0.1-1.3,0.6c-0.2,0.5,0.1,1.1,0.6,1.3l9.7,3.8c0.2,0.1,0.4,0.2,0.6,0.2c0,0,0,0,0.1,0c0,0,0,0,0,0c0.1,0,0.3,0,0.4-0.1c0.2-0.1,0.4-0.3,0.5-0.6l3.9-10C49.3,8.8,49.1,8.2,48.6,8z"/>
    <path d="M44.6,29.5c-0.5-0.2-1.1,0.2-1.3,0.7c-2.4,8.2-10.1,14-18.7,14c-7.8,0-14.9-4.8-17.9-11.9l7.8,3c0.5,0.2,1.1-0.1,1.3-0.6c0.2-0.5-0.1-1.1-0.6-1.3l-9.8-3.8c-0.2-0.1-0.4-0.2-0.6-0.2c-0.4,0-0.9,0.2-1,0.6l-3.9,10c-0.2,0.5,0.1,1.1,0.6,1.3c0.1,0,0.2,0.1,0.4,0.1c0.4,0,0.8-0.2,1-0.7l3-7.7c3.4,7.8,11.1,13,19.7,13c9.5,0,18-6.4,20.6-15.5C45.5,30.2,45.2,29.6,44.6,29.5z"/>
  </symbol>

  <symbol version="1.1" id="gift" xmlns="http://www.w3.org/2000/svg" xmlns:xlink="http://www.w3.org/1999/xlink" x="0px" y="0px" viewBox="0 0 50.1 50.1" style="enable-background:new 0 0 50.1 50.1;" xml:space="preserve">
    <path d="M44.9,14.8H28.3h-0.7c3-1.4,9.1-4.6,9.5-8.1c0.1-1-0.1-2.4-2-3.6c-1-0.7-2.1-1.1-3.1-1.1c-4.6,0-6.6,7.8-7.2,11.1C24,8.8,21.4,0,16.4,0c-1.1,0-2.3,0.5-3.4,1.3c-1.8,1.4-2.6,3-2.3,4.8c0.6,3.7,6.1,6.9,9.9,8.7H5c-0.6,0-1,0.4-1,1v9.7c0,0.6,0.4,1,1,1h1.2v21.9c0,0.6,0.4,1,1,1h14.5h6.6h14.3c0.6,0,1-0.4,1-1V26.5h1.2c0.6,0,1-0.4,1-1v-9.7C45.9,15.2,45.5,14.8,44.9,14.8z M43.9,23.6c-0.1,0-0.2-0.1-0.3-0.1H29.3v-6.8h14.6V23.6z M32.2,3.9c0.6,0,1.2,0.2,1.9,0.7c1.2,0.9,1.2,1.5,1.1,1.8c-0.2,2.1-4.6,4.8-8.2,6.4C27.8,9.4,29.5,3.9,32.2,3.9z M12.7,5.8c-0.2-1,0.4-1.9,1.6-2.9C15,2.3,15.7,2,16.4,2c3,0,5.5,6.6,6.6,11.7C18.7,11.8,13.1,8.6,12.7,5.8z M20.8,16.8v6.8H6.1c-0.1,0-0.1,0-0.1,0v-6.8H20.8z M8.2,25.6h12.5v21.8H8.2V25.6z M22.8,47.4V16.8h4.6v30.6H22.8z M29.3,47.4V25.6h12.3v21.8H29.3z"/>
  </symbol>

  <symbol version="1.1" id="price-tag" xmlns="http://www.w3.org/2000/svg" xmlns:xlink="http://www.w3.org/1999/xlink" x="0px" y="0px" viewBox="0 0 50.1 50.1" style="enable-background:new 0 0 50.1 50.1;" xml:space="preserve">
    <path d="M48.4,24.8L24.2,0.9c-0.5-0.5-1.2-0.8-1.9-0.8L2.7,0.2c-0.2,0-0.5,0-0.7,0.1c-0.1,0-0.2,0.1-0.3,0.1c-0.1,0-0.1,0-0.2,0.1C1.3,0.6,1,0.8,0.8,1C0.3,1.5,0,2.2,0,2.9l0.1,19.6c0,0.7,0.3,1.4,0.8,1.9l24.1,23.9c0.2,0.2,0.5,0.4,0.8,0.5c0.1,0,0.2,0.1,0.2,0.1c0.3,0.1,0.5,0.1,0.8,0.2c0,0,0.1,0,0.1,0c0,0,0,0,0,0c0.2,0,0.5,0,0.7-0.1c0.1,0,0.2-0.1,0.2-0.1c0.1,0,0.1-0.1,0.2-0.1c0.3-0.1,0.6-0.3,0.8-0.6l19.5-19.6c0.5-0.5,0.8-1.2,0.8-2C49.2,26,48.9,25.3,48.4,24.8z M47,27.3L27.5,46.9c-0.1,0.1-0.1,0.1-0.3,0.2c0,0-0.1,0-0.1,0c0,0-0.1,0-0.1,0c-0.1,0-0.2,0-0.4-0.1c-0.1,0-0.2-0.1-0.2-0.1L2.3,23c-0.1-0.2-0.2-0.4-0.2-0.6L2,2.9c0-0.2,0.1-0.4,0.2-0.6c0,0,0.1-0.1,0.3-0.2c0,0,0.1,0,0.1,0c0.1,0,0.1,0,0.2,0l19.6-0.1c0.2,0,0.4,0.1,0.5,0.2L47,26.2c0.1,0.1,0.2,0.3,0.2,0.5C47.2,27,47.2,27.1,47,27.3z"/>
    <path d="M11.6,7C10.3,7,9,7.6,8.1,8.5c-1.9,1.9-1.9,5.1,0,7.1C9,16.5,10.3,17,11.6,17c1.3,0,2.6-0.5,3.5-1.5c0.9-0.9,1.5-2.2,1.5-3.5c0-1.3-0.5-2.6-1.5-3.5C14.2,7.6,12.9,7,11.6,7z M13.7,14.2c-1.1,1.1-3.1,1.1-4.3,0c-1.2-1.2-1.2-3.1,0-4.3C10,9.3,10.8,9,11.6,9c0.8,0,1.6,0.3,2.1,0.9c0.6,0.6,0.9,1.3,0.9,2.1C14.6,12.8,14.3,13.6,13.7,14.2z"/>
  </symbol>

  <symbol version="1.1" id="smile" xmlns="http://www.w3.org/2000/svg" xmlns:xlink="http://www.w3.org/1999/xlink" x="0px" y="0px" viewBox="0 0 50.1 50.1" style="enable-background:new 0 0 50.1 50.1;" xml:space="preserve">
    <path d="M24.7,0.2c-13.5,0-24.5,11-24.5,24.5s11,24.5,24.5,24.5c13.5,0,24.5-11,24.5-24.5S38.2,0.2,24.7,0.2z M24.7,47.2c-12.4,0-22.5-10.1-22.5-22.5c0-12.4,10.1-22.5,22.5-22.5c12.4,0,22.5,10.1,22.5,22.5C47.2,37.1,37.1,47.2,24.7,47.2z"/>
    <path d="M16.6,23.9c1.4,0,2.7-0.5,3.7-1.5c2-2,2-5.4,0-7.4c-1-1-2.3-1.5-3.7-1.5S13.9,14,12.9,15c-2,2-2,5.4,0,7.4C13.9,23.4,15.2,23.9,16.6,23.9z M14.3,16.4c0.6-0.6,1.4-0.9,2.3-0.9c0.9,0,1.7,0.3,2.3,0.9c1.3,1.3,1.3,3.3,0,4.6c-1.2,1.2-3.3,1.2-4.6,0C13,19.7,13,17.7,14.3,16.4z"/>
    <path d="M32.8,13.5c-1.4,0-2.7,0.5-3.7,1.5c-2,2-2,5.4,0,7.4c1,1,2.3,1.5,3.7,1.5s2.7-0.5,3.7-1.5c2-2,2-5.4,0-7.4C35.5,14,34.2,13.5,32.8,13.5z M35.1,21c-1.2,1.2-3.3,1.2-4.6,0c-1.3-1.3-1.3-3.3,0-4.6c0.6-0.6,1.4-0.9,2.3-0.9c0.9,0,1.7,0.3,2.3,0.9C36.3,17.7,36.3,19.7,35.1,21z"/>
    <path d="M35.9,31H13.4c-0.3,0-0.7,0.2-0.8,0.5c-0.2,0.3-0.2,0.7-0.1,1c2.2,4.7,7,7.7,12.1,7.7c5.2,0,9.9-3,12.1-7.7c0.1-0.3,0.1-0.7-0.1-1C36.6,31.1,36.2,31,35.9,31z M24.7,38.1c-3.9,0-7.4-2-9.5-5.2h19.1C32.1,36.2,28.5,38.1,24.7,38.1z"/>
  </symbol>

  <symbol version="1.1" id="bullhorn" xmlns="http://www.w3.org/2000/svg" xmlns:xlink="http://www.w3.org/1999/xlink" x="0px" y="0px" viewBox="0 0 50.1 50.1" style="enable-background:new 0 0 50.1 50.1;" xml:space="preserve">
    <path d="M24.3,5.1c-0.2-0.2-0.6-0.3-0.9-0.3c-0.3,0-0.6,0.2-0.8,0.5L9,31.5l-3,3L2,37.2c-0.3,0.2-0.4,0.4-0.5,0.7c0,0.3,0.1,0.6,0.3,0.8l6.4,6.4c0.2,0.2,0.5,0.3,0.7,0.3c0,0,0.1,0,0.1,0c0.3,0,0.6-0.2,0.7-0.5l2.3-3.5c0,0,0,0,0.1,0.1l10.4,7c0.4,0.3,0.9,0.5,1.4,0.5c0.6,0,1.1-0.2,1.5-0.6l1.3-1.3c0.4-0.4,0.6-0.9,0.6-1.5c0-0.6-0.2-1.1-0.6-1.5c0,0-0.1-0.1-0.2-0.1l-10.1-6.7l25.1-13.1c0.3-0.2,0.5-0.4,0.5-0.8c0-0.3-0.1-0.6-0.3-0.9L24.3,5.1z M9.9,33.6l3.6,3.6l-0.1,0.1c0,0,0,0,0,0L12,38.6c0,0,0,0,0,0l0,0L8.4,35L9.9,33.6z M8.8,42.9l-4.7-4.7l2.8-1.8l3.7,3.7L8.8,42.9z M24.1,47.1C24,47.1,24,47.1,24.1,47.1L24.1,47.1c-0.1,0-0.2-0.1-0.2-0.1L13.5,40l0,0l1.3-1.2c0,0,0.1,0.1,0.2,0.1l10.4,6.9L24.1,47.1z M15.1,35.9l-4-4L23.8,7.6l15.6,15.6L15.1,35.9z"/>
    <path d="M42.8,4.6C39.7,1.6,35.7,0,31.3,0.1c-0.6,0-1,0.5-1,1.1c0,0.6,0.5,1,1.1,1c3.8-0.1,7.3,1.3,10,3.9c2.6,2.6,4,6.2,3.9,10c0,0.6,0.4,1,1,1.1c0,0,0,0,0,0c0.5,0,1-0.4,1-1C47.4,11.8,45.8,7.7,42.8,4.6z"/>
    <path d="M40.1,15.9C40.1,15.9,40.2,15.9,40.1,15.9c0.6,0,1.1-0.4,1.1-1c0.2-2.4-0.7-4.7-2.4-6.4c-1.7-1.7-4-2.6-6.4-2.4c-0.6,0-1,0.5-1,1.1c0,0.6,0.5,1,1.1,1c1.8-0.1,3.5,0.5,4.8,1.8c1.3,1.3,1.9,3,1.8,4.8C39.1,15.4,39.6,15.9,40.1,15.9z"/>
  </symbol>

  <symbol version="1.1" id="bell" xmlns="http://www.w3.org/2000/svg" xmlns:xlink="http://www.w3.org/1999/xlink" x="0px" y="0px" viewBox="0 0 50.1 50.1" style="enable-background:new 0 0 50.1 50.1;" xml:space="preserve">
    <path d="M29,43.3c-0.6,0-1,0.4-1,1c0,1.6-1.4,2.9-3.2,2.9c-1.8,0-3.2-1.3-3.2-2.9c0-0.6-0.4-1-1-1c-0.6,0-1,0.4-1,1c0,2.7,2.3,4.9,5.2,4.9c2.9,0,5.2-2.2,5.2-4.9C30,43.8,29.6,43.3,29,43.3z"/>
    <path d="M38.8,30.7V17.5c0-5.4-3.5-10.2-8.7-12.1V5.1c0-2.7-2.3-4.9-5.2-4.9c-2.9,0-5.2,2.2-5.2,4.9v0.3c-5.3,2-8.7,6.8-8.7,12.1v13.1c-3.2,0.6-5.4,2.6-5.4,5v3.7c0,0.8,0.7,1.5,1.5,1.5h35.7c0.8,0,1.5-0.7,1.5-1.5v-3.7C44.2,33.3,42,31.3,38.8,30.7z M42.2,38.8H7.5v-3.2c0-1.5,1.9-2.8,4.6-3.1c0.5-0.1,0.9-0.5,0.9-1v-14c0-4.7,3.2-8.9,8-10.5c0.4-0.1,0.7-0.5,0.7-1v-1c0-1.6,1.4-2.9,3.2-2.9c1.8,0,3.2,1.3,3.2,2.9v1c0,0.4,0.3,0.8,0.7,1c4.8,1.5,8,5.7,8,10.5v14c0,0.5,0.4,0.9,0.9,1c2.6,0.3,4.6,1.6,4.6,3.1V38.8z"/>
  </symbol>

  <symbol version="1.1" id="lightbulb" xmlns="http://www.w3.org/2000/svg" xmlns:xlink="http://www.w3.org/1999/xlink" x="0px" y="0px" viewBox="0 0 50.1 50.1" style="enable-background:new 0 0 50.1 50.1;" xml:space="preserve">
    <path d="M24.2,0C15.8,0,9,6.6,9,14.7c0,4.2,1.8,8.8,4.9,12.3c0,0,0,0.1,0.1,0.1c0,0,3.3,4,3.8,7.3c-0.3,0.2-0.5,0.5-0.5,0.8V46c0,0.6,0.5,1,1,1h2l1.7,1.9c0.2,0.2,0.5,0.3,0.8,0.3h3c0.3,0,0.6-0.1,0.8-0.3l1.7-1.9h2c0.6,0,1-0.4,1-1V35.3c0-0.3-0.2-0.6-0.5-0.8c0.5-3.3,3.8-7.3,3.8-7.3c0.1-0.1,0.1-0.2,0.1-0.2c3-3.5,4.7-8,4.7-12.2C39.5,6.6,32.7,0,24.2,0z M29.2,45h-1.4c-0.3,0-0.6,0.1-0.8,0.3l-1.7,1.9h-2.1l-1.7-1.9C21.3,45.1,21,45,20.8,45h-1.4v-8.7h9.9V45z M33,25.8c-0.1,0.1-0.1,0.2-0.2,0.3c-0.8,1-3.6,4.8-4.1,8.2h-3.4v-11c0.3,0.1,0.6,0.1,0.9,0.1h0c1.3,0,2.7-0.7,3.8-1.8c1.9-1.9,2.2-4.4,0.8-5.7c-0.5-0.5-1.2-0.8-2.1-0.8c-1.3,0-2.7,0.7-3.8,1.8c-0.2,0.2-0.4,0.5-0.6,0.8c-0.2-0.3-0.4-0.5-0.6-0.8c-1.1-1.1-2.5-1.8-3.8-1.8c-0.8,0-1.5,0.3-2.1,0.8c-1.4,1.3-1.1,3.9,0.8,5.7c1.1,1.1,2.5,1.8,3.8,1.8c0.3,0,0.6-0.1,0.9-0.1v11h-3.4c-0.5-3.6-3.6-7.5-4.2-8.3c0-0.1-0.1-0.1-0.1-0.2c-2.8-3.1-4.5-7.4-4.5-11.1C11.1,7.7,17,2,24.2,2c7.3,0,13.2,5.7,13.2,12.7C37.4,18.4,35.7,22.7,33,25.8z M25.3,20.1c0.1-0.6,0.5-1.3,1-1.8c0.7-0.7,1.6-1.1,2.3-1.1c0.3,0,0.5,0.1,0.6,0.2c0.5,0.5,0.2,1.8-0.8,2.9c-0.7,0.7-1.6,1.1-2.3,1.1c-0.3,0-0.5-0.1-0.6-0.2C25.2,20.9,25.3,20.3,25.3,20.1z M23,21.2c-0.1,0.1-0.4,0.2-0.6,0.2c-0.7,0-1.6-0.4-2.3-1.1c-1.1-1.1-1.3-2.4-0.8-2.9c0.1-0.1,0.4-0.2,0.6-0.2c0.7,0,1.6,0.4,2.3,1.1c0.5,0.6,0.9,1.2,1,1.8C23.2,20.3,23.3,20.9,23,21.2z"/>
  </symbol>

  <symbol version="1.1" id="star" xmlns="http://www.w3.org/2000/svg" xmlns:xlink="http://www.w3.org/1999/xlink" x="0px" y="0px" viewBox="0 0 50.1 50.1" style="enable-background:new 0 0 50.1 50.1;" xml:space="preserve">
    <path d="M49.1,18.7c-0.3-1-1.2-1.7-2.2-1.7l-15-0.3L26.9,2.6c-0.3-1-1.3-1.6-2.3-1.6c-1,0-1.9,0.6-2.3,1.6l-4.9,14.1L2.4,17c-1,0-1.9,0.7-2.2,1.7c-0.3,1,0,2.1,0.8,2.7l12,9L8.6,44.6c-0.3,1,0.1,2.1,0.9,2.7c0.8,0.6,2,0.6,2.8,0l12.4-8.5L37,47.3c0.4,0.3,0.9,0.4,1.4,0.4c0.5,0,1-0.2,1.4-0.5c0.8-0.6,1.2-1.7,0.9-2.7l-4.3-14.3l12-9C49.1,20.7,49.4,19.7,49.1,18.7z M47.1,19.8l-12.5,9.4c-0.3,0.3-0.5,0.7-0.4,1.1l4.6,14.9c0.1,0.2,0,0.4-0.2,0.5c-0.1,0.1-0.3,0.1-0.5,0l-12.9-8.9c-0.2-0.1-0.4-0.2-0.6-0.2c-0.2,0-0.4,0.1-0.6,0.2l-12.9,8.9c-0.2,0.1-0.3,0.1-0.5,0c-0.1-0.1-0.2-0.3-0.2-0.5L15,30.3c0.1-0.4,0-0.8-0.4-1.1L2.2,19.8C2,19.7,1.9,19.5,2,19.3C2.1,19.1,2.2,19,2.4,19l15.7-0.3c0.4,0,0.8-0.3,0.9-0.7l5.2-14.7c0.1-0.3,0.7-0.3,0.8,0L30.2,18c0.1,0.4,0.5,0.7,0.9,0.7L46.8,19c0.2,0,0.3,0.1,0.4,0.3C47.3,19.5,47.2,19.7,47.1,19.8z"/>
  </symbol>

  <symbol version="1.1" id="docs" xmlns="http://www.w3.org/2000/svg" xmlns:xlink="http://www.w3.org/1999/xlink" x="0px" y="0px" viewBox="0 0 50.1 50.1" style="enable-background:new 0 0 50.1 50.1;" xml:space="preserve">
    <path d="M36.6,32.5H17.7c-0.6,0-1,0.4-1,1c0,0.6,0.4,1,1,1h18.9c0.6,0,1-0.4,1-1C37.6,33,37.1,32.5,36.6,32.5z"/>
    <path d="M36.6,26.3H17.7c-0.6,0-1,0.4-1,1c0,0.6,0.4,1,1,1h18.9c0.6,0,1-0.4,1-1C37.6,26.8,37.1,26.3,36.6,26.3z"/>
    <path d="M36.6,20.2H17.7c-0.6,0-1,0.4-1,1c0,0.6,0.4,1,1,1h18.9c0.6,0,1-0.4,1-1C37.6,20.6,37.1,20.2,36.6,20.2z"/>
    <path d="M17.7,16h8.5c0.6,0,1-0.4,1-1c0-0.6-0.4-1-1-1h-8.5c-0.6,0-1,0.4-1,1C16.7,15.5,17.1,16,17.7,16z"/>
    <path d="M44.5,6.8l-6.2-6.1C37.8,0.3,37.2,0,36.6,0c0,0,0,0,0,0H12.2c-1.4,0-2.5,1.1-2.5,2.5v39.3c0,1.4,1.1,2.5,2.5,2.5h30.5c1.4,0,2.5-1.1,2.5-2.5V8.5C45.2,7.9,44.9,7.2,44.5,6.8z M42.4,7.5h-4.8l0-4.7L42.4,7.5z M42.7,42.3H12.2c-0.3,0-0.5-0.2-0.5-0.5V2.5c0-0.3,0.2-0.5,0.5-0.5h23.4l0,6.5c0,0.6,0.4,1,1,1h6.6v32.2C43.2,42,43,42.3,42.7,42.3z"/>
    <path d="M39.1,45.8c-0.6,0-1,0.4-1,1c0,0.3-0.2,0.5-0.5,0.5H7.2c-0.3,0-0.5-0.2-0.5-0.5V7.3c0-0.3,0.2-0.5,0.5-0.5c0.6,0,1-0.4,1-1c0-0.6-0.4-1-1-1c-1.4,0-2.5,1.1-2.5,2.5v39.5c0,1.4,1.1,2.5,2.5,2.5h30.4c1.4,0,2.5-1.1,2.5-2.5C40.1,46.2,39.7,45.8,39.1,45.8z"/>
  </symbol>

  <symbol version="1.1" id="search" xmlns="http://www.w3.org/2000/svg" xmlns:xlink="http://www.w3.org/1999/xlink" x="0px" y="0px" viewBox="0 0 50.1 50.1" style="enable-background:new 0 0 50.1 50.1;" xml:space="preserve">
    <path d="M48.3,43.3L35.3,30.4c2.2-3.1,3.4-6.9,3.4-11C38.8,8.7,30.1,0,19.4,0S0,8.7,0,19.4s8.7,19.4,19.4,19.4c4.1,0,7.9-1.3,11-3.4l12.9,12.9c0.7,0.7,1.6,1,2.5,1c0.9,0,1.8-0.3,2.5-1C49.6,46.9,49.6,44.7,48.3,43.3z M19.4,36.8C9.8,36.8,2,29,2,19.4C2,9.8,9.8,2,19.4,2s17.4,7.8,17.4,17.4C36.8,29,29,36.8,19.4,36.8z M46.8,46.8c-0.6,0.6-1.6,0.6-2.1,0L32,34.1c0.8-0.7,1.5-1.4,2.1-2.1l12.7,12.7C47.4,45.3,47.4,46.3,46.8,46.8z"/>
    <path d="M20.6,5.7c-4-0.1-7.8,1.3-10.6,4.2c-2.8,2.8-4.3,6.6-4.2,10.6c0,0.5,0.5,1,1,1c0,0,0,0,0,0c0.6,0,1-0.5,1-1C7.8,17,9,13.7,11.5,11.3c2.4-2.4,5.6-3.7,9.1-3.6c0.5,0,1-0.4,1-1C21.6,6.2,21.2,5.7,20.6,5.7z"/>
  </symbol>

  <symbol version="1.1" id="pin" xmlns="http://www.w3.org/2000/svg" xmlns:xlink="http://www.w3.org/1999/xlink" x="0px" y="0px" viewBox="0 0 50.1 50.1" style="enable-background:new 0 0 50.1 50.1;" xml:space="preserve">
    <path d="M48.6,14.8L34.7,0.9c-0.5-0.5-1.2-0.7-1.9-0.6c-0.7,0.1-1.3,0.5-1.6,1.1c-1.2,2.2-1.5,4.8-0.9,7.6l-8.4,8.4c-2.3-1.1-4.8-1.6-7.2-1.6c-3.6,0-6.8,1.3-9.1,3.6c-0.4,0.4-0.6,1-0.6,1.6c0,0.6,0.2,1.2,0.6,1.6l10,10L0.5,47.5c-0.4,0.4-0.4,1,0,1.4c0.2,0.2,0.5,0.3,0.7,0.3c0.3,0,0.5-0.1,0.7-0.3l15.2-15.1l10,10c0.4,0.4,1,0.6,1.6,0.6c0,0,0,0,0,0c0.6,0,1.1-0.2,1.6-0.6c4-4,4.7-10.3,1.9-16.3l8.4-8.4c2.7,0.7,5.4,0.3,7.6-0.9c0.6-0.3,1-1,1.1-1.6C49.3,15.9,49,15.3,48.6,14.8z M47.1,16.5c-1.8,1-4.3,1.2-6.6,0.5L40,16.9L29.7,27.1l0.3,0.6c2.7,5.4,2.2,11.2-1.3,14.7c-0.1,0.1-0.2,0.1-0.3,0L7,20.9c0,0-0.1-0.1-0.1-0.2c0-0.1,0-0.1,0.1-0.2c1.9-1.9,4.7-3,7.7-3c2.3,0,4.7,0.6,7,1.7l0.6,0.3L32.5,9.5l-0.2-0.6c-0.7-2.4-0.5-4.7,0.5-6.6c0-0.1,0.1-0.1,0.2-0.1c0.1,0,0.1,0,0.2,0.1l13.9,13.9c0,0,0.1,0.1,0.1,0.2C47.2,16.4,47.2,16.5,47.1,16.5z"/>
  </symbol>

  <symbol version="1.1" id="cog" xmlns="http://www.w3.org/2000/svg" xmlns:xlink="http://www.w3.org/1999/xlink" x="0px" y="0px" viewBox="0 0 50.1 50.1" style="enable-background:new 0 0 50.1 50.1;" xml:space="preserve">
    <path d="M24.6,15c-5.3,0-9.6,4.3-9.6,9.6c0,5.3,4.3,9.6,9.6,9.6c5.3,0,9.6-4.3,9.6-9.6C34.2,19.3,29.9,15,24.6,15z M24.6,32.3c-4.2,0-7.6-3.4-7.6-7.6c0-4.2,3.4-7.6,7.6-7.6c4.2,0,7.6,3.4,7.6,7.6C32.2,28.8,28.8,32.3,24.6,32.3z"/>
    <path d="M48.7,21.3c-0.1-0.4-0.4-0.8-0.9-0.9l-5.7-0.7c-0.4-1.4-0.9-2.7-1.6-4l3.5-4.5c0.3-0.4,0.3-0.9,0-1.2c-1.4-1.8-3-3.4-4.8-4.8c-0.4-0.3-0.9-0.3-1.2,0l-4.5,3.5c-1.3-0.7-2.6-1.3-4-1.6l-0.7-5.7c-0.1-0.4-0.4-0.8-0.9-0.9c-2.3-0.3-4.5-0.3-6.7,0c-0.4,0.1-0.8,0.4-0.9,0.9L19.7,7c-1.4,0.4-2.7,0.9-4,1.6l-4.5-3.5c-0.4-0.3-0.9-0.3-1.2,0c-0.8,0.6-1.6,1.3-2.4,2L7.2,7.6c-0.7,0.7-1.4,1.5-2,2.3c-0.3,0.4-0.3,0.9,0,1.2l3.5,4.5c-0.7,1.3-1.3,2.6-1.7,4l-5.7,0.7c-0.4,0.1-0.8,0.4-0.9,0.9c-0.1,1-0.2,2-0.2,3V25c0,1,0.1,2,0.2,3c0.1,0.4,0.4,0.8,0.9,0.9L7,29.6c0.4,1.4,0.9,2.7,1.7,4l-3.5,4.5c-0.3,0.4-0.3,0.9,0,1.2c0.6,0.8,1.3,1.6,2,2.4L7.6,42c0.7,0.7,1.5,1.4,2.4,2c0.4,0.3,0.9,0.3,1.2,0l4.5-3.5c1.3,0.7,2.6,1.3,4,1.6l0.7,5.6c0.1,0.4,0.4,0.8,0.9,0.9c1.1,0.2,2.3,0.2,3.4,0.2c1.1,0,2.2-0.1,3.4-0.2c0.4-0.1,0.8-0.4,0.9-0.9l0.7-5.7c1.4-0.4,2.7-0.9,4-1.6l4.5,3.5c0.4,0.3,0.9,0.3,1.2,0c1.8-1.4,3.4-3,4.8-4.8c0.3-0.4,0.3-0.9,0-1.2l-3.5-4.5c0.7-1.3,1.3-2.6,1.6-4l5.7-0.7c0.4-0.1,0.8-0.4,0.9-0.9c0.2-1.1,0.2-2.3,0.2-3.4C48.9,23.5,48.9,22.4,48.7,21.3z M46.8,26.9l-5.6,0.7c-0.4,0.1-0.7,0.4-0.8,0.8c-0.4,1.6-1,3.2-1.9,4.7c-0.2,0.4-0.2,0.8,0.1,1.1l3.4,4.4c-1,1.2-2.1,2.3-3.3,3.3l-4.4-3.4c-0.3-0.3-0.8-0.3-1.1-0.1c-1.4,0.9-3,1.5-4.7,1.9c-0.4,0.1-0.7,0.4-0.8,0.8l-0.7,5.6c-1.6,0.2-3.1,0.2-4.7,0l-0.7-5.5c-0.1-0.4-0.4-0.7-0.8-0.8c-1.6-0.4-3.2-1-4.7-1.9c-0.4-0.2-0.8-0.2-1.1,0.1L10.5,42C10,41.5,9.5,41.1,9,40.6l-0.4-0.4c-0.5-0.5-1-1-1.4-1.6l3.4-4.4c0.3-0.3,0.3-0.8,0.1-1.1c-0.9-1.5-1.5-3-1.9-4.7c-0.1-0.4-0.4-0.7-0.8-0.8l-5.5-0.7c-0.1-0.7-0.1-1.3-0.1-2v-0.7c0-0.7,0-1.3,0.1-2l5.5-0.7c0.4-0.1,0.7-0.4,0.8-0.8c0.4-1.6,1-3.2,1.9-4.7c0.2-0.4,0.2-0.8-0.1-1.1l-3.4-4.4C7.7,10,8.1,9.5,8.6,9L9,8.7c0.5-0.5,1-1,1.6-1.4l4.4,3.4c0.3,0.3,0.8,0.3,1.1,0.1c1.5-0.9,3-1.5,4.7-1.9c0.4-0.1,0.7-0.4,0.8-0.8l0.7-5.5c1.6-0.2,3.1-0.2,4.7,0L27.7,8c0.1,0.4,0.4,0.7,0.8,0.8c1.6,0.4,3.2,1,4.7,1.9c0.4,0.2,0.8,0.2,1.1-0.1l4.4-3.4c1.2,1,2.3,2.1,3.3,3.3L38.5,15c-0.3,0.3-0.3,0.8-0.1,1.1c0.9,1.4,1.5,3,1.9,4.7c0.1,0.4,0.4,0.7,0.8,0.8l5.6,0.7c0.1,0.8,0.1,1.6,0.1,2.3S46.9,26.2,46.8,26.9z"/>
  </symbol>

  <symbol version="1.1" id="speech" xmlns="http://www.w3.org/2000/svg" xmlns:xlink="http://www.w3.org/1999/xlink" x="0px" y="0px" viewBox="0 0 50.1 50.1" style="enable-background:new 0 0 50.1 50.1;" xml:space="preserve">
    <path d="M32.4,0.7H16.8c-9.1,0-16.5,8.1-16.5,18c0,8.4,5.3,15.6,12.8,17.5v11.3c0,0.4,0.2,0.7,0.6,0.9c0.1,0.1,0.3,0.1,0.4,0.1c0.2,0,0.5-0.1,0.7-0.2l13.2-11.6h4.6c9.1,0,16.5-8.1,16.5-18C49,8.8,41.5,0.7,32.4,0.7z M32.4,34.6h-4.9c-0.2,0-0.5,0.1-0.7,0.2L15,45.3v-9.9c0-0.5-0.3-0.9-0.8-1c-6.9-1.3-12-7.9-12-15.7c0-8.8,6.5-16,14.5-16h15.7c8,0,14.5,7.2,14.5,16C47,27.5,40.4,34.6,32.4,34.6z"/>
    <path d="M14.3,14.7c-2.4,0-4.4,2-4.4,4.3c0,2.4,2,4.4,4.4,4.4c2.4,0,4.3-2,4.3-4.4C18.6,16.7,16.7,14.7,14.3,14.7z M14.3,21.4c-1.3,0-2.4-1.1-2.4-2.4c0-1.3,1.1-2.3,2.4-2.3c1.3,0,2.3,1.1,2.3,2.3C16.6,20.4,15.5,21.4,14.3,21.4z"/>
    <path d="M24.8,14.7c-2.4,0-4.4,2-4.4,4.3c0,2.4,2,4.4,4.4,4.4c2.4,0,4.4-2,4.4-4.4C29.1,16.7,27.2,14.7,24.8,14.7z M24.8,21.4c-1.3,0-2.4-1.1-2.4-2.4c0-1.3,1.1-2.3,2.4-2.3c1.3,0,2.4,1.1,2.4,2.3C27.1,20.4,26.1,21.4,24.8,21.4z"/>
    <path d="M35.3,14.7c-2.4,0-4.4,2-4.4,4.3c0,2.4,2,4.4,4.4,4.4c2.4,0,4.4-2,4.4-4.4C39.6,16.7,37.7,14.7,35.3,14.7z M35.3,21.4c-1.3,0-2.4-1.1-2.4-2.4c0-1.3,1.1-2.3,2.4-2.3s2.4,1.1,2.4,2.3C37.6,20.4,36.6,21.4,35.3,21.4z"/>
  </symbol>

  <symbol version="1.1" id="tools" xmlns="http://www.w3.org/2000/svg" xmlns:xlink="http://www.w3.org/1999/xlink" x="0px" y="0px" viewBox="0 0 50.1 50.1" style="enable-background:new 0 0 50.1 50.1;" xml:space="preserve">
    <path d="M23.3,0.6c-0.3-0.2-0.7-0.2-1-0.1c-0.3,0.2-0.5,0.5-0.5,0.9v6.8l-2.4,3.7l-5.2,0l-2.4-3.7V1.4c0-0.4-0.2-0.7-0.5-0.9c-0.3-0.2-0.7-0.2-1,0.1C7,2.8,5,6.5,5,10.4c0,4.7,4.5,8.2,6.6,9.6L10,42.4c0,3.7,3,6.8,6.8,6.8c3.7,0,6.8-3,6.8-6.8L22,20.1c2-1.4,6.6-5,6.6-9.6C28.6,6.5,26.6,2.8,23.3,0.6z M20.5,18.7c-0.3,0.2-0.5,0.5-0.5,0.9l1.6,22.8c0,2.6-2.2,4.8-4.8,4.8c-2.6,0-4.8-2.2-4.8-4.7l1.6-22.8c0-0.4-0.1-0.7-0.5-0.9C11.7,17.8,7,14.5,7,10.4c0-2.6,1-5.1,2.8-6.9v5C9.8,8.7,9.9,8.9,10,9l2.9,4.4c0.2,0.3,0.5,0.4,0.8,0.4l6.2,0c0.3,0,0.6-0.2,0.8-0.4L23.6,9c0.1-0.2,0.2-0.3,0.2-0.5v-5c1.8,1.8,2.8,4.3,2.8,6.9C26.6,14.5,21.9,17.8,20.5,18.7z"/>
    <path d="M16.8,40.8c-0.9,0-1.6,0.7-1.6,1.6c0,0.9,0.7,1.6,1.6,1.6c0.9,0,1.6-0.7,1.6-1.6c0,0,0,0,0,0C18.4,41.5,17.7,40.8,16.8,40.8z"/>
    <path d="M43.3,27.5c0.3-0.2,0.5-0.5,0.5-0.9v-4.3c0-0.5-0.4-1-1-1h-4V7.4h0c0.4,0,0.8-0.3,1-0.7l0.8-3c0-0.2,0-0.4,0-0.6l-0.8-2.3c-0.1-0.4-0.5-0.7-0.9-0.7h-2c-0.4,0-0.8,0.3-0.9,0.7l-0.8,2.3c-0.1,0.2-0.1,0.4,0,0.6l0.8,3c0.1,0.4,0.5,0.7,1,0.7h0v13.9h-4c-0.5,0-1,0.4-1,1v4.3c0,0.4,0.2,0.7,0.5,0.9c0.6,0.3,1,1,1,1.7c0,0.7-0.4,1.3-1,1.7c-0.3,0.2-0.5,0.5-0.5,0.9v11.7c0,3.3,2.7,6,6,6c3.3,0,6-2.7,6-6V31.6c0-0.4-0.2-0.7-0.5-0.9c-0.6-0.3-1-1-1-1.7C42.3,28.4,42.7,27.8,43.3,27.5z M37.5,2.1h0.6l0.4,1.3l-0.5,2h-0.5l-0.5-2L37.5,2.1z M41.8,26.1c-0.9,0.7-1.5,1.8-1.5,3c0,1.2,0.5,2.3,1.5,3v11.1c0,2.2-1.8,4-4,4s-4-1.8-4-4V32.1c0.9-0.7,1.5-1.8,1.5-3c0-1.2-0.5-2.3-1.5-3v-2.8h8V26.1z"/>
    <path d="M36.8,33.4v9.6c0,0.5,0.4,1,1,1c0.5,0,1-0.4,1-1v-9.6c0-0.5-0.4-1-1-1C37.3,32.4,36.8,32.9,36.8,33.4z"/>
  </symbol>

  <symbol version="1.1" id="diamond" xmlns="http://www.w3.org/2000/svg" xmlns:xlink="http://www.w3.org/1999/xlink" x="0px" y="0px" viewBox="0 0 50.1 50.1" style="enable-background:new 0 0 50.1 50.1;" xml:space="preserve">
    <path d="M49.3,16C49.3,16,49.3,15.9,49.3,16C49.3,15.9,49.3,15.9,49.3,16c0-0.2,0-0.3-0.1-0.4c0,0,0-0.1-0.1-0.1c0,0,0-0.1,0-0.1L40,1.9c0,0,0-0.1-0.1-0.1c0,0,0,0-0.1-0.1c-0.1-0.1-0.2-0.1-0.3-0.2c0,0,0,0,0,0c0,0,0,0,0,0c-0.1,0-0.2-0.1-0.3-0.1c0,0,0,0,0,0c0,0,0,0,0,0H10c0,0,0,0,0,0c0,0,0,0,0,0c-0.1,0-0.2,0-0.3,0.1c0,0,0,0,0,0c0,0,0,0,0,0c-0.1,0-0.2,0.1-0.3,0.2c0,0,0,0-0.1,0.1c0,0,0,0.1-0.1,0.1L0.1,15.4c0,0,0,0.1,0,0.1c0,0,0,0.1-0.1,0.1c0,0.1-0.1,0.2-0.1,0.3c0,0,0,0,0,0.1c0,0,0,0,0,0c0,0.1,0,0.2,0.1,0.3c0,0,0,0.1,0.1,0.1c0,0.1,0,0.1,0.1,0.2l23.7,30.9c0,0,0,0,0,0c0,0,0.1,0.1,0.1,0.1c0,0,0,0,0.1,0.1c0,0,0.1,0,0.1,0.1c0,0,0.1,0,0.1,0.1c0,0,0.1,0,0.1,0c0,0,0,0,0,0c0.1,0,0.2,0,0.3,0c0,0,0,0,0,0l0,0c0,0,0,0,0,0l0,0l0,0c0,0,0,0,0,0c0.1,0,0.2,0,0.3,0c0,0,0,0,0,0c0,0,0.1,0,0.1,0c0,0,0.1,0,0.1-0.1c0,0,0.1,0,0.1-0.1c0,0,0,0,0.1-0.1c0,0,0.1-0.1,0.1-0.1c0,0,0,0,0,0l23.7-30.9c0,0,0.1-0.1,0.1-0.2c0,0,0-0.1,0.1-0.1C49.2,16.2,49.3,16.1,49.3,16z M9.9,4.5l4.7,10.5H2.8L9.9,4.5z M31.7,16.9L24.6,43l-7.1-26.1H31.7z M18,14.9l6.6-10.6l6.6,10.6H18z M26.4,3.4h11.2l-4.7,10.4L26.4,3.4z M16.3,13.8L11.6,3.4h11.2L16.3,13.8z M15.4,16.9l6.9,25.2L3,16.9H15.4z M33.8,16.9h12.4L26.9,42.1L33.8,16.9z M34.6,14.9l4.7-10.5l7.1,10.5H34.6z"/>
  </symbol>

  <symbol version="1.1" id="info" xmlns="http://www.w3.org/2000/svg" xmlns:xlink="http://www.w3.org/1999/xlink" x="0px" y="0px" viewBox="0 0 50.1 50.1" style="enable-background:new 0 0 50.1 50.1;" xml:space="preserve">
    <path d="M25.3,19.5c3.4,0,6.2-2.8,6.2-6.2c0-3.4-2.8-6.2-6.2-6.2c-3.4,0-6.2,2.8-6.2,6.2C19,16.7,21.8,19.5,25.3,19.5z M25.3,9.1c2.3,0,4.2,1.9,4.2,4.2c0,2.3-1.9,4.2-4.2,4.2c-2.3,0-4.2-1.9-4.2-4.2C21,10.9,22.9,9.1,25.3,9.1z"/>
    <path d="M24.6,0.1C11.1,0.1,0,11.1,0,24.6c0,13.5,11,24.6,24.6,24.6s24.6-11,24.6-24.6C49.2,11.1,38.1,0.1,24.6,0.1z M24.6,47.2C12.2,47.2,2,37.1,2,24.6C2,12.2,12.2,2.1,24.6,2.1s22.6,10.1,22.6,22.6C47.2,37.1,37,47.2,24.6,47.2z"/>
    <path d="M31.2,35h-0.4V22.8c0-0.9-0.7-1.6-1.6-1.6h-10c-0.7,0-1.4,0.3-1.9,0.9c-0.5,0.5-0.7,1.2-0.7,2c0,0.8,0.3,1.5,0.7,2c0.5,0.5,1.2,0.8,1.9,0.8h0.4v8h-0.4c-0.7,0-1.4,0.3-1.9,0.9c-0.5,0.5-0.7,1.2-0.7,2c0,0.8,0.3,1.5,0.7,2c0.5,0.5,1.2,0.8,1.9,0.8h12c0.7,0,1.4-0.3,1.9-0.8c0.5-0.5,0.7-1.2,0.7-2c0-0.8-0.2-1.5-0.7-2C32.6,35.3,32,35,31.2,35z M31.7,38.5c-0.1,0.1-0.3,0.2-0.4,0.2h-12c-0.1,0-0.3-0.1-0.4-0.2c-0.1-0.1-0.2-0.3-0.2-0.6c0-0.3,0.1-0.5,0.2-0.7c0.1-0.2,0.3-0.2,0.4-0.2h1.4c0.6,0,1-0.4,1-1V26c0-0.6-0.4-1-1-1h-1.4c-0.1,0-0.3-0.1-0.4-0.2c-0.1-0.1-0.2-0.3-0.2-0.6c0-0.3,0.1-0.5,0.2-0.7c0.1-0.2,0.3-0.2,0.4-0.2h9.6V36c0,0.6,0.4,1,1,1h1.4c0.1,0,0.3,0.1,0.4,0.2c0.1,0.2,0.2,0.4,0.2,0.7C31.9,38.3,31.7,38.4,31.7,38.5z"/>
  </symbol>

  <symbol version="1.1" id="key" xmlns="http://www.w3.org/2000/svg" xmlns:xlink="http://www.w3.org/1999/xlink" x="0px" y="0px" viewBox="0 0 50.1 50.1" style="enable-background:new 0 0 50.1 50.1;" xml:space="preserve">
    <path d="M45.3,5.4c-2.4-2.4-5.6-3.8-9.1-3.8c-3.4,0-6.6,1.3-9.1,3.8c-3.4,3.4-4.6,8.3-3.2,12.9L0.4,41.8c-0.3,0.3-0.4,0.7-0.2,1.1L1.9,47c0.2,0.4,0.5,0.6,0.9,0.6c0,0,0,0,0,0l6.8-0.2c0.4,0,0.8-0.3,0.9-0.7l1.4-5.2l6.1-1.2c0.4-0.1,0.7-0.4,0.8-0.8l1.1-7.6l5.7,0.1c0.3,0,0.5-0.1,0.7-0.3l5.2-5.2c1.5,0.6,3.1,0.9,4.7,0.9c3.4,0,6.6-1.3,9.1-3.7C50.3,18.5,50.3,10.4,45.3,5.4z M43.9,22.1c-2,2-4.8,3.2-7.6,3.2c-1.5,0-3.1-0.3-4.5-1c-0.4-0.2-0.8-0.1-1.1,0.2l-5.4,5.4l-6.1-0.1c0,0,0,0,0,0c-0.5,0-0.9,0.4-1,0.9L17,38.4l-6,1.2c-0.4,0.1-0.7,0.4-0.8,0.7l-1.4,5.1l-5.4,0.2l-1.2-2.9l23.5-23.5c0.3-0.3,0.4-0.7,0.2-1c-1.4-3.9-0.5-8.4,2.5-11.4c2-2,4.8-3.2,7.7-3.2c2.9,0,5.6,1.1,7.7,3.2C48.1,11,48.1,17.9,43.9,22.1z"/>
    <path d="M36.9,8.4c-0.7,0.7-1.1,1.7-1.1,2.7c0,1,0.4,2,1.1,2.7c0.7,0.7,1.7,1.1,2.7,1.1c1,0,2-0.4,2.7-1.1c1.5-1.5,1.5-3.9,0-5.4C40.8,7,38.4,7,36.9,8.4z M40.9,12.3c-0.7,0.7-1.9,0.7-2.5,0c-0.3-0.3-0.5-0.8-0.5-1.3c0-0.5,0.2-0.9,0.5-1.3c0.3-0.3,0.8-0.5,1.3-0.5c0.5,0,0.9,0.2,1.3,0.5C41.6,10.5,41.6,11.6,40.9,12.3z"/>
  </symbol>

  <symbol version="1.1" id="arrow-right" xmlns="http://www.w3.org/2000/svg" xmlns:xlink="http://www.w3.org/1999/xlink" x="0px" y="0px" viewBox="0 0 50.1 50.1" style="enable-background:new 0 0 50.1 50.1;" xml:space="preserve">
    <path d="M47.9,22.1L29.9,7.4C29.3,7,28.7,6.8,28,6.8l-0.2,0c-0.2,0-0.4,0-0.6,0.1C27,7,26.8,7.1,26.6,7.2c-1.1,0.5-1.7,1.6-1.7,2.8l0,6.5L6,18.5c-3.3,0-6,2.8-6,6.1c0,3.3,2.7,6.1,6,6.1l18.8,2l0,6.5c0,0.3,0,0.5,0.1,0.7c0,0.1,0,0.1,0.1,0.3c0.1,0.2,0.1,0.4,0.3,0.6l0.1,0.1c0.1,0.2,0.2,0.3,0.4,0.5l0.1,0.1l0.1,0.1c0.2,0.2,0.4,0.3,0.7,0.5c0.4,0.2,0.9,0.3,1.4,0.3c0.7,0,1.3-0.2,1.9-0.6l18-14.6c0.8-0.6,1.3-1.6,1.3-2.6C49.2,23.6,48.7,22.6,47.9,22.1z M46.7,25.6l-18,14.6c-0.2,0.1-0.4,0.2-0.7,0.2c-0.2,0-0.4,0-0.5-0.1c-0.1-0.1-0.2-0.1-0.3-0.2l0,0c0,0-0.1-0.1-0.2-0.2c0-0.1-0.1-0.2-0.1-0.2l0-0.1c0-0.1,0-0.2,0-0.3l0-8.3L6.2,28.7l-0.1,0c-2.3,0-4.1-1.8-4.1-4.1c0-2.3,1.8-4.1,4.1-4.1l20.7-2.2l0-8.3c0-0.4,0.3-0.9,0.7-1.1c0.1,0,0.1-0.1,0.3-0.1c0.1,0,0.2,0,0.3,0c0.3,0,0.5,0.1,0.6,0.2l18.1,14.6c0.3,0.2,0.5,0.6,0.5,1C47.2,25,47,25.3,46.7,25.6z"/>
  </symbol>

  <symbol version="1.1" id="tfs" xmlns="http://www.w3.org/2000/svg" xmlns:xlink="http://www.w3.org/1999/xlink" x="0px" y="0px" viewBox="0 0 50.1 50.1" style="enable-background:new 0 0 50.1 50.1;" xml:space="preserve">
    <path d="M49,35.7l-5.4-20.2c-0.1-0.3-0.2-0.5-0.5-0.6c-0.2-0.1-0.5-0.2-0.8-0.1l-7.6,2L20.8,6.2c0.3-0.7,0.3-1.5,0.1-2.3c-0.4-1.6-1.9-2.7-3.5-2.7c-0.3,0-0.6,0-0.9,0.1c-2,0.5-3.1,2.5-2.6,4.5c0.2,0.8,0.7,1.4,1.3,1.9L8.4,23.8l-7.6,2C0.2,26-0.1,26.5,0,27.1l5.4,20.2C5.6,47.7,6,48,6.4,48c0.1,0,0.2,0,0.3,0l41.7-11.1C48.9,36.7,49.2,36.2,49,35.7z M17,3.2c0.1,0,0.3-0.1,0.4-0.1c0.8,0,1.4,0.5,1.6,1.2c0.1,0.4,0.1,0.9-0.2,1.3c-0.2,0.4-0.6,0.7-1,0.8c-0.9,0.2-1.8-0.3-2.1-1.2C15.6,4.4,16.1,3.5,17,3.2z M17,8.5c0.1,0,0.3,0,0.4,0c0.3,0,0.6,0,0.9-0.1c0.5-0.1,0.9-0.3,1.3-0.6l12.7,9.6l-21.5,5.8L17,8.5z M7.1,45.8L2.2,27.5L42,16.9l4.9,18.3L7.1,45.8z"/>
    <path d="M16.5,36.4l-2.7,0.7l1-1.4c1.2-1.8,1.7-2.8,1.3-4.2c-0.4-1.6-2.1-2.5-3.8-2C10.5,29.9,9.9,31,9.5,32c-0.1,0.2-0.1,0.4-0.1,0.6c0.1,0.5,0.7,0.8,1.1,0.7c0.3-0.1,0.5-0.3,0.6-0.5c0.4-0.9,0.7-1.3,1.4-1.5c0.7-0.2,1.3,0.1,1.5,0.8c0.2,0.6,0,1.1-1,2.6L11,37.9c-0.2,0.3-0.3,0.6-0.2,0.9c0.1,0.4,0.5,0.7,0.9,0.7c0.1,0,0.2,0,0.3,0l5-1.3c0.5-0.1,0.8-0.6,0.7-1.1C17.5,36.5,17,36.2,16.5,36.4z"/>
    <path d="M24.3,32.3l-0.5,0.1l-1.2-4.7c-0.1-0.5-0.7-0.8-1.2-0.7c-0.5,0.1-0.7,0.4-0.8,0.7l-2.9,6.4c-0.1,0.2-0.2,0.5-0.1,0.8c0.1,0.5,0.7,0.8,1.2,0.7l3.6-1l0.3,1.1c0.1,0.4,0.5,0.7,0.9,0.7c0.1,0,0.2,0,0.2,0c0.3-0.1,0.5-0.2,0.6-0.4c0.1-0.2,0.2-0.5,0.1-0.7l-0.3-1.1l0.5-0.1c0.2-0.1,0.4-0.2,0.6-0.4c0.1-0.2,0.1-0.4,0.1-0.7C25.3,32.4,24.8,32.1,24.3,32.3z M20,33.4l1.3-2.9l0.6,2.4L20,33.4z"/>
    <path d="M29.6,23.7c0,0-0.2,0-0.2,0c-0.3,0.1-0.6,0.3-0.7,0.7l-2.4,11.5c-0.1,0.2-0.1,0.3,0,0.5c0.1,0.4,0.5,0.6,0.8,0.6c0.1,0,0.2,0,0.2,0c0.3-0.1,0.6-0.3,0.6-0.7l2.4-11.6c0-0.1,0-0.2,0-0.4C30.3,24,30,23.7,29.6,23.7z"/>
    <path d="M36.6,23.1l-4.8,1.3c-0.2,0.1-0.4,0.2-0.6,0.4c-0.1,0.2-0.2,0.5-0.1,0.7c0.1,0.5,0.7,0.8,1.2,0.7l3.4-0.9l-1.5,6.9c0,0,0,0.3,0,0.5c0.1,0.4,0.5,0.7,0.9,0.7c0.1,0,0.2,0,0.3,0c0.4-0.1,0.6-0.4,0.7-0.8l1.6-8.1c0-0.2,0.1-0.4,0-0.7C37.7,23.2,37.2,22.9,36.6,23.1z"/>
  </symbol>

  <symbol version="1.1" id="layout" xmlns="http://www.w3.org/2000/svg" xmlns:xlink="http://www.w3.org/1999/xlink" x="0px" y="0px" viewBox="0 0 50.1 50.1" style="enable-background:new 0 0 50.1 50.1;" xml:space="preserve">
    <path d="M13.8,14.9h-7c-0.6,0-1,0.4-1,1v23.1c0,0.6,0.4,1,1,1h7c0.6,0,1-0.4,1-1V15.9C14.8,15.4,14.4,14.9,13.8,14.9z M12.8,38.1h-5V16.9h5V38.1z"/>
    <path d="M42.5,14.9H19c-0.6,0-1,0.4-1,1v23.1c0,0.6,0.4,1,1,1h23.5c0.6,0,1-0.4,1-1V15.9C43.5,15.4,43,14.9,42.5,14.9z M41.5,38.1H20V16.9h21.5V38.1z"/>
    <path d="M48.2,2.9H1c-0.6,0-1,0.4-1,1v0.5v4.8v36c0,0.6,0.4,1,1,1h47.2c0.6,0,1-0.4,1-1v-36V4.4V3.9C49.2,3.3,48.8,2.9,48.2,2.9z M47.2,5.4v2.8H2V5.4H47.2z M2,44.2v-34h45.2v34H2z"/>
  </symbol>

  <symbol version="1.1" id="video" xmlns="http://www.w3.org/2000/svg" xmlns:xlink="http://www.w3.org/1999/xlink" x="0px" y="0px" viewBox="0 0 50.1 50.1" style="enable-background:new 0 0 50.1 50.1;" xml:space="preserve">
    <path d="M48.2-0.1H1c-0.6,0-1,0.4-1,1v47.3c0,0.6,0.4,1,1,1h47.2c0.6,0,1-0.4,1-1V0.9C49.2,0.4,48.8-0.1,48.2-0.1z M2,10.6h45.2V38H2V10.6z M47.2,1.9v6.6H2V1.9H47.2z M2,47.2V40h45.2v7.3H2z"/>
    <path d="M6.7,6.8h1.4c0.6,0,1-0.4,1-1V4.4c0-0.6-0.4-1-1-1H6.7c-0.6,0-1,0.4-1,1v1.4C5.7,6.4,6.1,6.8,6.7,6.8z"/>
    <path d="M15.3,6.8h1.4c0.6,0,1-0.4,1-1V4.4c0-0.6-0.4-1-1-1h-1.4c-0.6,0-1,0.4-1,1v1.4C14.3,6.4,14.7,6.8,15.3,6.8z"/>
    <path d="M23.9,6.8h1.4c0.6,0,1-0.4,1-1V4.4c0-0.6-0.4-1-1-1h-1.4c-0.6,0-1,0.4-1,1v1.4C22.9,6.4,23.3,6.8,23.9,6.8z"/>
    <path d="M32.5,6.8h1.4c0.6,0,1-0.4,1-1V4.4c0-0.6-0.4-1-1-1h-1.4c-0.6,0-1,0.4-1,1v1.4C31.5,6.4,31.9,6.8,32.5,6.8z"/>
    <path d="M41.1,6.8h1.4c0.6,0,1-0.4,1-1V4.4c0-0.6-0.4-1-1-1h-1.4c-0.6,0-1,0.4-1,1v1.4C40.1,6.4,40.5,6.8,41.1,6.8z"/>
    <path d="M8.1,42H6.7c-0.6,0-1,0.4-1,1v1.4c0,0.6,0.4,1,1,1h1.4c0.6,0,1-0.4,1-1V43C9.1,42.4,8.6,42,8.1,42z"/>
    <path d="M16.7,42h-1.4c-0.6,0-1,0.4-1,1v1.4c0,0.6,0.4,1,1,1h1.4c0.6,0,1-0.4,1-1V43C17.7,42.4,17.2,42,16.7,42z"/>
    <path d="M25.3,42h-1.4c-0.6,0-1,0.4-1,1v1.4c0,0.6,0.4,1,1,1h1.4c0.6,0,1-0.4,1-1V43C26.3,42.4,25.8,42,25.3,42z"/>
    <path d="M33.9,42h-1.4c-0.6,0-1,0.4-1,1v1.4c0,0.6,0.4,1,1,1h1.4c0.6,0,1-0.4,1-1V43C34.9,42.4,34.4,42,33.9,42z"/>
    <path d="M42.5,42h-1.4c-0.6,0-1,0.4-1,1v1.4c0,0.6,0.4,1,1,1h1.4c0.6,0,1-0.4,1-1V43C43.5,42.4,43.1,42,42.5,42z"/>
    <path d="M32.2,22.6l-9.8-7.7c-0.3-0.2-0.7-0.5-1.3-0.5c-0.8,0-1.7,0.5-1.8,1.5c0,0.3,0,0.7,0,0.7l0,15.5c0,0.3,0.1,0.6,0.3,0.9c0.3,0.5,1,0.9,1.6,0.9h0h0c0.6,0,1.1-0.3,1.5-0.6l0.1-0.1c0,0,5.8-4.6,9.5-7.5c0.2-0.1,0.7-0.7,0.7-1.6C32.9,23.6,32.6,23,32.2,22.6z M30.8,24.2c-3.6,2.8-9.4,7.4-9.4,7.4c-0.1,0-0.1,0.1-0.2,0.1l0-15.2c0,0,0,0,0-0.1l9.5,7.5C30.8,24,30.9,24.1,30.8,24.2C30.9,24.2,30.8,24.3,30.8,24.2z"/>
  </symbol>

  <symbol version="1.1" id="layers" xmlns="http://www.w3.org/2000/svg" xmlns:xlink="http://www.w3.org/1999/xlink" x="0px" y="0px" viewBox="0 0 50.1 50.1" style="enable-background:new 0 0 50.1 50.1;" xml:space="preserve">
    <path d="M1.2,14.2l22.9,13.3c0.2,0.1,0.3,0.1,0.5,0.1c0.2,0,0.3,0,0.5-0.1L48,14.2c0.3-0.2,0.5-0.5,0.5-0.9c0-0.4-0.2-0.7-0.5-0.9L25.1,0.2c-0.3-0.2-0.7-0.2-0.9,0L1.2,12.5c-0.3,0.2-0.5,0.5-0.5,0.9C0.7,13.7,0.9,14,1.2,14.2z M24.6,2.2l20.9,11.2L24.6,25.5L3.7,13.4L24.6,2.2z"/>
    <path d="M48,23.1l-5.7-3.3c-0.5-0.3-1.1-0.1-1.4,0.4c-0.3,0.5-0.1,1.1,0.4,1.4l4.2,2.4L24.6,36.1L3.7,24l4.2-2.4c0.5-0.3,0.6-0.9,0.4-1.4c-0.3-0.5-0.9-0.6-1.4-0.4l-5.7,3.3c-0.3,0.2-0.5,0.5-0.5,0.9c0,0.4,0.2,0.7,0.5,0.9l22.9,13.3c0.2,0.1,0.3,0.1,0.5,0.1c0.2,0,0.3,0,0.5-0.1L48,24.8c0.3-0.2,0.5-0.5,0.5-0.9C48.5,23.6,48.3,23.3,48,23.1z"/>
    <path d="M48,34l-5.7-3.3c-0.5-0.3-1.1-0.1-1.4,0.4c-0.3,0.5-0.1,1.1,0.4,1.4l4.2,2.4L24.6,47L3.7,34.9l4.2-2.4c0.5-0.3,0.6-0.9,0.4-1.4c-0.3-0.5-0.9-0.6-1.4-0.4L1.2,34c-0.3,0.2-0.5,0.5-0.5,0.9c0,0.4,0.2,0.7,0.5,0.9l22.9,13.3c0.2,0.1,0.3,0.1,0.5,0.1c0.2,0,0.3,0,0.5-0.1L48,35.8c0.3-0.2,0.5-0.5,0.5-0.9C48.5,34.6,48.3,34.2,48,34z"/>
  </symbol>

  <symbol version="1.1" id="man" xmlns="http://www.w3.org/2000/svg" xmlns:xlink="http://www.w3.org/1999/xlink" x="0px" y="0px" viewBox="0 0 50.1 50.1" style="enable-background:new 0 0 50.1 50.1;" xml:space="preserve">
    <path d="M47.6,38c-13.3-5.1-15.7-7.3-16.1-8.1v-1.8c1.5-1.7,2.7-3.8,3.4-6.3c1.1-0.9,1.8-2.3,1.8-3.8c0-1-0.3-2-0.9-2.8v-5c0-6.5-4-10.3-11.1-10.3c-7,0-11.1,3.8-11.1,10.3v5C13,16.1,12.7,17,12.7,18c0,1.5,0.6,2.8,1.8,3.8c0.7,2.5,1.9,4.7,3.4,6.3v1.8c-0.4,0.8-2.9,3-16.1,8.1c-1,0.4-1.7,1.4-1.7,2.5v6c0,1.5,1.2,2.7,2.7,2.7h43.9c1.5,0,2.7-1.2,2.7-2.7v-6C49.3,39.4,48.6,38.4,47.6,38z M47.3,46.5c0,0.4-0.3,0.7-0.7,0.7H2.7c-0.4,0-0.7-0.3-0.7-0.7v-6c0-0.3,0.2-0.6,0.4-0.7c14.4-5.6,16.9-7.9,17.4-9.5c0-0.1,0-0.2,0-0.3v-2.4c0-0.3-0.1-0.5-0.3-0.7c-1.5-1.5-2.6-3.6-3.3-6.1c-0.1-0.2-0.2-0.4-0.4-0.5c-0.8-0.5-1.2-1.4-1.2-2.3c0-0.8,0.4-1.4,0.7-1.8c0.1-0.2,0.2-0.4,0.2-0.6v-5.3c0-5.3,3.2-8.3,9.1-8.3c6,0,9.1,2.9,9.1,8.3v5.3c0,0.2,0.1,0.5,0.2,0.6c0.3,0.4,0.7,1,0.7,1.8c0,0.9-0.4,1.8-1.2,2.3c-0.2,0.1-0.3,0.3-0.4,0.5c-0.7,2.5-1.8,4.6-3.3,6.1c-0.2,0.2-0.3,0.4-0.3,0.7v2.4c0,0.1,0,0.2,0,0.3c0.5,1.6,2.9,3.9,17.4,9.5c0.3,0.1,0.4,0.4,0.4,0.7V46.5z"/>
  </symbol>

  <symbol version="1.1" id="woman" xmlns="http://www.w3.org/2000/svg" xmlns:xlink="http://www.w3.org/1999/xlink" x="0px" y="0px" viewBox="0 0 50.1 50.1" style="enable-background:new 0 0 50.1 50.1;" xml:space="preserve">
    <path d="M47.5,38.1c-3.5-1.4-7.2-2.1-10.2-2.6c-2.3-0.4-5.4-1-5.8-1.7v-2.2c7.1-0.2,10-2.6,10.2-2.7c0.3-0.2,0.4-0.5,0.4-0.9c0-0.3-0.2-0.6-0.5-0.8c-1.9-1.1-3.3-8.5-3.6-13.4c0-3.9-1.6-7.7-4.4-10.3c-1.1-1.3-2.6-2.2-4.3-2.7c-3-1.1-6.2-1-9,0.1c-1.5,0.5-2.8,1.3-3.7,2.2c-3.1,2.6-4.9,6.5-4.9,10.6c-0.4,5-1.8,12.4-3.6,13.5c-0.3,0.2-0.5,0.5-0.5,0.8c0,0.3,0.1,0.6,0.4,0.9C8,29,10.9,31.4,18,31.6v2.2c-0.4,0.6-3.5,1.2-5.8,1.7c-3,0.6-6.7,1.3-10.2,2.6c-1,0.4-1.7,1.4-1.7,2.5v5.9c0,1.5,1.2,2.7,2.7,2.7h43.6c1.5,0,2.7-1.2,2.7-2.7v-5.9C49.2,39.5,48.5,38.5,47.5,38.1z M47.2,46.6c0,0.4-0.3,0.7-0.7,0.7H2.9c-0.4,0-0.7-0.3-0.7-0.7v-5.9c0-0.3,0.2-0.5,0.4-0.7c3.3-1.3,6.9-2,9.8-2.5c4.1-0.8,6.8-1.3,7.4-3.1c0-0.1,0-0.2,0-0.3v-3.4c0-0.5-0.4-1-1-1c-4.7,0-7.5-1-8.9-1.7c2.5-3.4,3.4-12.1,3.5-14.1c0-3.6,1.5-6.9,4.2-9.2c0.8-0.8,1.8-1.4,3-1.8c2.5-1,5-1,7.7-0.1C30,3.2,31.1,3.9,32,4.9C32,5,32,5,32.1,5c2.4,2.2,3.8,5.5,3.8,8.9c0.2,1.9,1,10.6,3.5,14c-1.4,0.7-4.2,1.7-8.9,1.7c-0.5,0-1,0.4-1,1V34c0,0.1,0,0.2,0,0.3c0.6,1.8,3.3,2.3,7.4,3.1c2.9,0.6,6.5,1.2,9.8,2.5c0.3,0.1,0.4,0.4,0.4,0.6V46.6z"/>
  </symbol>

  <symbol version="1.1" id="import" xmlns="http://www.w3.org/2000/svg" xmlns:xlink="http://www.w3.org/1999/xlink" x="0px" y="0px" viewBox="0 0 50.1 50.1" style="enable-background:new 0 0 50.1 50.1;" xml:space="preserve">
    <path d="M23.9,39.5c0.1,0.1,0.2,0.2,0.3,0.2c0.1,0.1,0.3,0.1,0.4,0.1c0.1,0,0.3,0,0.4-0.1c0.1-0.1,0.2-0.1,0.3-0.2l9.3-9.3c0.4-0.4,0.4-1,0-1.4c-0.4-0.4-1-0.4-1.4,0l-7.6,7.6V1.1c0-0.6-0.4-1-1-1c-0.6,0-1,0.4-1,1v35.2L16,28.8c-0.4-0.4-1-0.4-1.4,0c-0.4,0.4-0.4,1,0,1.4L23.9,39.5z"/>
    <path d="M47.2,33.1c-0.6,0-1,0.4-1,1v13H3v-13c0-0.6-0.4-1-1-1c-0.6,0-1,0.4-1,1v14c0,0.6,0.4,1,1,1h45.3c0.6,0,1-0.4,1-1v-14C48.2,33.6,47.8,33.1,47.2,33.1z"/>
  </symbol>

  <symbol version="1.1" id="export" xmlns="http://www.w3.org/2000/svg" xmlns:xlink="http://www.w3.org/1999/xlink" x="0px" y="0px" viewBox="0 0 50.1 50.1" style="enable-background:new 0 0 50.1 50.1;" xml:space="preserve">
    <path d="M25.3,0.4c-0.1-0.1-0.2-0.2-0.3-0.2c-0.1-0.1-0.3-0.1-0.4-0.1s-0.3,0-0.4,0.1c-0.1,0.1-0.2,0.1-0.3,0.2l-9.3,9.3c-0.4,0.4-0.4,1,0,1.4c0.4,0.4,1,0.4,1.4,0l7.6-7.6v35.2c0,0.6,0.4,1,1,1c0.6,0,1-0.4,1-1V3.5l7.6,7.6c0.4,0.4,1,0.4,1.4,0c0.4-0.4,0.4-1,0-1.4L25.3,0.4z"/>
    <path d="M47.2,33.1c-0.6,0-1,0.4-1,1v13H3v-13c0-0.6-0.4-1-1-1c-0.6,0-1,0.4-1,1v14c0,0.6,0.4,1,1,1h45.3c0.6,0,1-0.4,1-1v-14C48.2,33.6,47.8,33.1,47.2,33.1z"/>
  </symbol>

  <symbol version="1.1" id="external" xmlns="http://www.w3.org/2000/svg" xmlns:xlink="http://www.w3.org/1999/xlink" x="0px" y="0px" viewBox="0 0 50.1 50.1" style="enable-background:new 0 0 50.1 50.1;" xml:space="preserve">
    <path d="M48.8,22.1c0.1-0.1,0.1-0.3,0.1-0.4c0-0.1,0-0.3-0.1-0.4c-0.1-0.1-0.1-0.2-0.2-0.3l-6.9-6.9c-0.4-0.4-1-0.4-1.4,0c-0.4,0.4-0.4,1,0,1.4l5.2,5.2H23.1c-0.6,0-1,0.4-1,1c0,0.6,0.4,1,1,1h22.3L40.2,28c-0.4,0.4-0.4,1,0,1.4c0.2,0.2,0.5,0.3,0.7,0.3c0.3,0,0.5-0.1,0.7-0.3l6.9-6.9C48.6,22.4,48.7,22.3,48.8,22.1z"/>
    <path d="M33.1,26.4c-0.6,0-1,0.4-1,1v11H17.6V9.8c0-0.4-0.2-0.7-0.5-0.9L5.3,2.2h26.8v13.9c0,0.6,0.4,1,1,1c0.6,0,1-0.4,1-1V1.2c0-0.6-0.4-1-1-1H1.4c-0.6,0-1,0.4-1,1v38.1c0,0.5,0.3,0.8,0.8,0.9l15,8.5c0.2,0.1,0.3,0.1,0.5,0.1c0.2,0,0.3,0,0.5-0.1c0.3-0.2,0.5-0.5,0.5-0.9v-7.6h15.4c0.6,0,1-0.4,1-1v-12C34.1,26.8,33.6,26.4,33.1,26.4z M15.6,46.3L2.5,38.8V3l13.2,7.5V46.3z"/>
  </symbol>

  <!-- <symbol version="1.1" id="import" xmlns="http://www.w3.org/2000/svg" xmlns:xlink="http://www.w3.org/1999/xlink" x="0px" y="0px" viewBox="0 0 50.1 50.1" style="enable-background:new 0 0 50.1 50.1;" xml:space="preserve">
    <path d="M21.2,32.3c-0.4,0.4-0.4,1,0,1.4c0.2,0.2,0.4,0.3,0.7,0.3c0.2,0,0.5-0.1,0.7-0.3l6.6-6.6c0.1-0.1,0.2-0.2,0.2-0.3c0.1-0.2,0.1-0.5,0-0.7c0-0.1-0.1-0.2-0.2-0.3L22.6,19c-0.4-0.4-1-0.4-1.4,0c-0.4,0.4-0.4,1,0,1.4l5,5H1c-0.5,0-1,0.4-1,1c0,0.5,0.4,1,1,1h25.2L21.2,32.3z"/>
    <path d="M48.4,8l-6.7-6.6c-0.5-0.5-1.1-0.7-1.8-0.7h0H15.3c-1.4,0-2.6,1.1-2.6,2.6v17.6c0,0.5,0.4,1,1,1c0.5,0,1-0.4,1-1V3.2c0-0.4,0.3-0.6,0.6-0.6h23.7l0,7.2c0,0.5,0.4,1,1,1h7.3V46c0,0.4-0.3,0.6-0.6,0.6H15.3c-0.4,0-0.6-0.3-0.6-0.6V31.4c0-0.5-0.4-1-1-1c-0.5,0-1,0.4-1,1V46c0,1.4,1.1,2.6,2.6,2.6h31.3c1.4,0,2.6-1.1,2.6-2.6V9.8C49.2,9.2,48.9,8.5,48.4,8z M40.9,3.3l5.7,5.6h-5.7L40.9,3.3z"/>
  </symbol>

  <symbol version="1.1" id="export" xmlns="http://www.w3.org/2000/svg" xmlns:xlink="http://www.w3.org/1999/xlink" x="0px" y="0px" viewBox="0 0 50.1 50.1" style="enable-background:new 0 0 50.1 50.1;" xml:space="preserve">
    <path d="M3.5,27.4h25.9c0.5,0,1-0.4,1-1c0-0.5-0.4-1-1-1H3.5l5.1-5.1c0.4-0.4,0.4-1,0-1.4c-0.4-0.4-1-0.4-1.4,0l-6.8,6.8c-0.1,0.1-0.2,0.2-0.2,0.3c-0.1,0.2-0.1,0.5,0,0.8c0.1,0.1,0.1,0.2,0.2,0.3l6.8,6.8c0.2,0.2,0.4,0.3,0.7,0.3c0.3,0,0.5-0.1,0.7-0.3c0.4-0.4,0.4-1,0-1.4L3.5,27.4z"/>
    <path d="M48.3,7.6l-6.9-6.8c-0.5-0.5-1.1-0.8-1.8-0.8h0H14.3c-1.4,0-2.6,1.2-2.6,2.6v18.1c0,0.5,0.4,1,1,1c0.5,0,1-0.4,1-1V2.7c0-0.4,0.3-0.7,0.7-0.7h24.3l0,7.4c0,0.5,0.4,1,1,1h7.5v36.1c0,0.4-0.3,0.7-0.7,0.7H14.3c-0.4,0-0.7-0.3-0.7-0.7v-15c0-0.5-0.4-1-1-1c-0.5,0-1,0.4-1,1v15c0,1.4,1.2,2.6,2.6,2.6h32.1c1.4,0,2.6-1.2,2.6-2.6V9.5C49.1,8.8,48.8,8.1,48.3,7.6z M40.5,2.8l5.8,5.7h-5.8L40.5,2.8z"/>
  </symbol> -->

</svg>