<svg width="57" height="50" viewBox="0 0 57 50" xmlns="http://www.w3.org/2000/svg"><path d="M.718 39.853l8.945 8.574.594.556c.653.7 1.654.92 2.418.337.764-.584.896-1.67.315-2.43l-.173-.213-3.634-5.008c1.872.062 4.138.07 6.72-.09 3.592-.23 7.787-.79 12.138-2.053 4.34-1.256 8.846-3.268 12.68-6.248.482-.378.955-.787 1.43-1.176.47-.396.854-.79 1.285-1.188l.344-.326.3-.324.6-.65c.4-.43.8-.863 1.192-1.294.407-.417.76-.88 1.12-1.335.36-.45.72-.903 1.07-1.35.368-.437.69-.907.997-1.376l.94-1.386c2.4-3.725 4.05-7.548 4.976-10.934.95-3.387 1.273-6.3 1.355-8.33.076-2.027-.074-3.18-.074-3.18s.064 1.164-.17 3.17c-.23 2-.768 4.85-1.948 8.078-1.158 3.233-3.03 6.8-5.6 10.19-.33.415-.66.84-.993 1.263-.33.427-.657.86-1.042 1.25-.37.4-.725.824-1.1 1.225-.372.408-3.72 3.32-3.72 3.32-.445.35-.893.76-1.335 1.07-.445.307-.84.664-1.296.963-3.693 2.444-7.906 3.98-11.97 4.83-4.07.852-7.976 1.083-11.314 1.045-2.218-.03-4.175-.17-5.81-.344l4.815-3.61.22-.16c.77-.58.946-1.643.37-2.41-.58-.77-1.684-1.01-2.384-.356L2.14 35.7C1.045 36 .215 37 .198 38.195c-.01.66.235 1.27.63 1.742.04.053.076.11.122.158.015.017-.25-.26-.232-.243z" fill="#FFF" fill-rule="evenodd"/></svg>