<?xml version="1.0" encoding="UTF-8" standalone="no"?>
<svg width="17px" height="15px" viewBox="0 0 17 15" version="1.1" xmlns="http://www.w3.org/2000/svg" xmlns:xlink="http://www.w3.org/1999/xlink" xmlns:sketch="http://www.bohemiancoding.com/sketch/ns">
    <!-- Generator: Sketch 3.4.2 (15857) - http://www.bohemiancoding.com/sketch -->
    <desc>Created with Sketch.</desc>
    <defs></defs>
    <g id="Page-1" stroke="none" stroke-width="1" fill="none" fill-rule="evenodd" sketch:type="MSPage">
        <g id="Arrow-Right" sketch:type="MSLayerGroup" fill="#484848">
            <path d="M16.0731448,8.38670749 C16.086005,8.37157781 16.0983294,8.35482709 16.1090463,8.34023775 C16.2949838,8.08897695 16.3957223,7.80583573 16.3957223,7.49783862 C16.3957223,7.1898415 16.2949838,6.90886167 16.1256574,6.67867435 C16.0918993,6.63436599 16.0838617,6.62193804 16.0731448,6.60896974 C16.0501036,6.57979107 16.0249189,6.55007205 15.9959834,6.52251441 L9.92809798,0.403638329 C9.39386257,-0.13454611 8.52954791,-0.13454611 7.99584834,0.403638329 C7.46214878,0.941822767 7.46214878,1.81340058 7.99584834,2.35212536 L11.7322812,6 L1.36693537,6 C0.611396828,6.02823162 0,6.73811239 0,7.5 C0,8.25972622 0.611396794,8.87626081 1.36693534,9 L11.7322812,9 L7.99584834,12.6457133 C7.46214878,13.1838977 7.46214878,14.0581772 7.99584834,14.5963617 C8.52954791,15.1345461 9.39386257,15.1345461 9.92809798,14.5963617 L15.9981268,8.47532421 C16.0249189,8.4434438 16.0501036,8.41588617 16.0731448,8.38670749 Z" id="Fill-1-Copy-7" sketch:type="MSShapeGroup"></path>
        </g>
    </g>
</svg>