<svg width="21" height="23" viewBox="0 0 21 23" xmlns="http://www.w3.org/2000/svg"><g fill-rule="evenodd"><path d="M20.272 22.148H2.276V2.308h17.996v19.84zM3.2 21.225h16.15V3.23H3.2v17.995z"/><path d="M1.353 19.84H.43V.463h17.535v.922H1.353V19.84z"/><path d="M18.426 17.534H4.122V4.154h14.304v13.38zm-13.38-.923h12.457V5.08H5.045V16.61z"/><path d="M15.565 15.227H6.983c-.37 0-.692-.185-.83-.554-.14-.323-.093-.692.138-.97l1.665-1.89c.323-.37.97-.416 1.338-.047l.785.785 2.17-2.165c.368-.462 1.106-.415 1.43.046l2.583 3.323c.23.277.23.646.094.97-.14.322-.46.507-.784.507zm-6.92-2.815l-1.662 1.892h8.582l-2.584-3.322-2.164 2.17c-.324.413-.97.413-1.34.044l-.83-.784zm-.37-2.262c-1.015 0-1.846-.83-1.846-1.844 0-1.016.83-1.846 1.842-1.846 1.015 0 1.845.83 1.845 1.846 0 1.015-.83 1.845-1.846 1.845zm0-2.767c-.508 0-.923.415-.923.923 0 .507.415.922.923.922.507 0 .923-.415.923-.922 0-.508-.416-.923-.923-.923z"/></g></svg>