<svg width="24" height="24" viewBox="0 0 24 24" xmlns="http://www.w3.org/2000/svg"><g fill="#FFF" fill-rule="evenodd"><path d="M3.43 7.03c-.32 0-.582-.26-.582-.582V.62c0-.322.26-.583.583-.583.325 0 .586.26.586.583v5.828c0 .322-.26.583-.582.583zm0 16.933c-.32 0-.582-.26-.582-.583V12.133c0-.322.26-.583.583-.583.325 0 .586.26.586.583V23.38c0 .322-.26.583-.582.583z"/><path d="M3.43 12.72c-1.89 0-3.427-1.537-3.427-3.427 0-1.89 1.538-3.428 3.428-3.428s3.43 1.538 3.43 3.428-1.54 3.427-3.43 3.427zm0-5.69c-1.247 0-2.26 1.015-2.26 2.263s1.013 2.262 2.26 2.262c1.248 0 2.263-1.014 2.263-2.262S4.678 7.03 3.43 7.03zm17.14 16.933c-.322 0-.583-.26-.583-.583V9.342c0-.322.26-.583.583-.583.32 0 .583.26.583.58v14.04c0 .32-.262.58-.583.58zm0-19.733c-.322 0-.583-.26-.583-.583V.62c0-.322.26-.583.583-.583.32 0 .583.26.583.583v3.027c0 .323-.262.583-.583.583z"/><path d="M20.57 9.926c-1.89 0-3.428-1.538-3.428-3.428S18.68 3.07 20.57 3.07s3.428 1.537 3.428 3.428c0 1.89-1.538 3.428-3.428 3.428zm0-5.69c-1.248 0-2.262 1.014-2.262 2.26 0 1.25 1.015 2.264 2.262 2.264s2.262-1.015 2.262-2.263c0-1.247-1.015-2.262-2.262-2.262zM12 15.358c-.322 0-.583-.26-.583-.583V.62c0-.322.26-.583.583-.583.322 0 .583.26.583.583v14.155c0 .322-.26.583-.583.583zm0 8.605c-.322 0-.583-.26-.583-.583v-2.914c0-.32.26-.582.583-.582.322 0 .583.26.583.582v2.914c0 .322-.26.583-.583.583z"/><path d="M12 21.05c-1.89 0-3.428-1.54-3.428-3.43 0-1.89 1.538-3.426 3.428-3.426s3.428 1.537 3.428 3.427c0 1.89-1.537 3.43-3.428 3.43zm0-5.69c-1.247 0-2.262 1.014-2.262 2.26 0 1.25 1.015 2.263 2.262 2.263 1.248 0 2.262-1.015 2.262-2.262 0-1.243-1.014-2.26-2.262-2.26z"/></g></svg>