<?xml version="1.0" encoding="UTF-8" standalone="no"?>
<svg width="26px" height="26px" viewBox="0 0 26 26" version="1.1" xmlns="http://www.w3.org/2000/svg" xmlns:xlink="http://www.w3.org/1999/xlink" xmlns:sketch="http://www.bohemiancoding.com/sketch/ns">
    <!-- Generator: Sketch 3.4 (15588) - http://www.bohemiancoding.com/sketch -->
    <desc>Created with Sketch.</desc>
    <defs></defs>
    <g id="Page-1" stroke="none" stroke-width="1" fill="none" fill-rule="evenodd" sketch:type="MSPage">
        <g sketch:type="MSLayerGroup" fill="#000000">
            <path d="M24.0363259,7.17956337 L22.0803556,6.84914338 C21.9990815,7.23357433 21.8954667,7.61999098 21.7718222,8.00481907 L23.8498963,8.35549317 C24.4261333,8.4516009 24.8444444,8.95874793 24.8444444,9.56081127 L24.8444444,24.2347153 C24.8444444,24.3447229 24.8066963,24.4241508 24.7227259,24.4920617 C24.6607111,24.5417041 24.602163,24.5651353 24.5343704,24.5651353 C24.5089481,24.5651353 24.4804444,24.5619582 24.4515556,24.5544125 L17.9111111,22.9563236 L17.9111111,14.8538853 C17.8614222,14.9174276 17.8117333,14.9825585 17.7635852,15.0429237 L16.7555556,16.3213154 L16.7555556,22.9487779 L9.24444444,24.6628316 L9.24444444,8.45001234 L11.0890963,8.17678043 C10.9627556,7.79671802 10.851437,7.41069851 10.7624593,7.02110475 L8.71635556,7.32372498 L1.92592593,5.07432736 C1.47294815,4.92381153 0.989925926,5.00443083 0.606281481,5.29315118 C0.215318519,5.58782862 0,6.02388769 0,6.52309193 L0,20.8046222 C0,21.8085907 0.559674074,22.6664118 1.46254815,23.0417085 L8.45019259,25.9567118 C8.45288889,25.9583004 8.45751111,25.9583004 8.46059259,25.9598889 C8.48293333,25.9690231 8.5072,25.9753774 8.53108148,25.9813344 C8.54186667,25.9845116 8.55226667,25.9876887 8.56266667,25.9892772 C8.59733333,25.9956315 8.632,26 8.66666667,26 C8.70865185,26 8.74948148,25.9956315 8.79146667,25.9861001 L17.3287111,24.0377342 L24.1853926,25.7148539 C24.3013333,25.7426537 24.4199704,25.7581421 24.5359111,25.7581421 C24.8640889,25.7581421 25.1768593,25.6433688 25.4403259,25.4293107 C25.8012444,25.1346332 26,24.7108855 26,24.2363039 L26,9.56081127 C26,8.37257016 25.1737778,7.37019029 24.0363259,7.17956337 L24.0363259,7.17956337 Z M8.08888889,24.5218471 L1.89588148,21.9372638 C1.4325037,21.7434598 1.15555556,21.3197121 1.15555556,20.8046222 L1.15555556,6.52309193 C1.15555556,6.40831864 1.19754074,6.32452222 1.28651852,6.2578028 C1.34506667,6.21451461 1.404,6.19267194 1.46717037,6.19267194 C1.5002963,6.19267194 1.53611852,6.19902617 1.57232593,6.21133749 L8.08888889,8.36939304 L8.08888889,24.5218471 Z" id="Fill-1" sketch:type="MSShapeGroup"></path>
            <path d="M16.9999124,14 L16.9999124,14 C16.8150241,14 16.6411557,13.9206677 16.5248353,13.7834971 C14.3580104,11.2323582 9.71254015,4.92485485 13.3425535,1.45025681 C14.3200532,0.514682894 15.6191686,0 16.9999124,0 C18.3806561,0 19.6797716,0.514682894 20.6572712,1.45025681 C24.2876927,4.92641804 19.6418144,11.2339214 17.4749894,13.7834971 C17.358669,13.9206677 17.1848006,14 16.9999124,14 L16.9999124,14 Z M16.9999124,1.17239839 C15.9460902,1.17239839 14.952673,1.56476105 14.2082223,2.27914247 C11.4691826,4.90179768 15.1665393,10.1912684 16.9999124,12.4688477 C18.8332854,10.1912684 22.5306422,4.90336088 19.7916024,2.27914247 C19.0471517,1.56476105 18.0553671,1.17239839 16.9999124,1.17239839 L16.9999124,1.17239839 Z M16.9999124,7.56118803 C16.2570942,7.56118803 15.5603962,7.28489281 15.0359339,6.7827155 C13.9531337,5.74592452 13.9531337,4.05767084 15.0359339,3.02127066 C15.5603962,2.51870255 16.2570942,2.24240732 16.9999124,2.24240732 C17.7427305,2.24240732 18.4394286,2.51870255 18.9642989,3.02127066 C19.4887612,3.52344797 19.7773175,4.19210585 19.7773175,4.90179768 C19.7773175,5.6114895 19.4887612,6.28014739 18.9642989,6.7827155 C18.4394286,7.28489281 17.7427305,7.56118803 16.9999124,7.56118803 L16.9999124,7.56118803 Z M16.9999124,3.41363332 C16.5852403,3.41363332 16.1946486,3.56760831 15.9016027,3.84859312 C15.2955121,4.42853953 15.2955121,5.37192943 15.9016027,5.95226664 C16.1946486,6.23286065 16.5852403,6.38722644 16.9999124,6.38722644 C17.4145845,6.38722644 17.8051762,6.23286065 18.098222,5.95226664 C18.391676,5.67128182 18.552892,5.29728674 18.552892,4.90023448 C18.552892,4.50357302 18.391676,4.12957794 18.098222,3.84859312 C17.8051762,3.56917151 17.4145845,3.41363332 16.9999124,3.41363332 L16.9999124,3.41363332 Z" id="Fill-2" sketch:type="MSShapeGroup"></path>
        </g>
    </g>
</svg>