<?xml version="1.0" encoding="utf-8"?>
<!-- Generator: Adobe Illustrator 16.0.0, SVG Export Plug-In . SVG Version: 6.00 Build 0)  -->
<!DOCTYPE svg PUBLIC "-//W3C//DTD SVG 1.0//EN" "http://www.w3.org/TR/2001/REC-SVG-20010904/DTD/svg10.dtd">
<svg version="1.0" id="Layer_1" xmlns="http://www.w3.org/2000/svg" xmlns:xlink="http://www.w3.org/1999/xlink" x="0px" y="0px"
	 width="35.16px" height="7px" viewBox="0 0 35.16 7" enable-background="new 0 0 35.16 7" xml:space="preserve">
<g>
	<path fill-rule="evenodd" clip-rule="evenodd" fill="#aaa" d="M0,3.5C0,1.57,1.57,0,3.52,0c1.94,0,3.51,1.57,3.51,3.5
		S5.46,7,3.52,7C1.57,7,0,5.43,0,3.5z"/>
	<path fill-rule="evenodd" clip-rule="evenodd" fill="#aaa" d="M14.07,3.5c0-1.93,1.57-3.5,3.51-3.5s3.52,1.57,3.52,3.5
		S19.52,7,17.58,7S14.07,5.43,14.07,3.5z"/>
	<path fill-rule="evenodd" clip-rule="evenodd" fill="#aaa" d="M28.13,3.5c0-1.93,1.58-3.5,3.52-3.5s3.51,1.57,3.51,3.5
		S33.59,7,31.65,7S28.13,5.43,28.13,3.5z"/>
</g>
</svg>
