<?xml version="1.0" encoding="utf-8"?>
<!-- Generator: Adobe Illustrator 16.0.0, SVG Export Plug-In . SVG Version: 6.00 Build 0)  -->
<!DOCTYPE svg PUBLIC "-//W3C//DTD SVG 1.0//EN" "http://www.w3.org/TR/2001/REC-SVG-20010904/DTD/svg10.dtd">
<svg version="1.0" id="Layer_1" xmlns="http://www.w3.org/2000/svg" xmlns:xlink="http://www.w3.org/1999/xlink" x="0px" y="0px"
	 width="64px" height="7px" viewBox="0 0 64 7" enable-background="new 0 0 64 7" xml:space="preserve">
<g>
	<path fill-rule="evenodd" clip-rule="evenodd" fill="#aaa" d="M0,3.5C0,1.57,1.57,0,3.52,0c1.94,0,3.51,1.57,3.51,3.5
		S5.46,7,3.52,7C1.57,7,0,5.43,0,3.5z"/>
	<path fill-rule="evenodd" clip-rule="evenodd" fill="#aaa" d="M14.77,3.5c0-1.93,1.57-3.5,3.52-3.5c1.94,0,3.51,1.57,3.51,3.5
		S20.23,7,18.29,7C16.34,7,14.77,5.43,14.77,3.5z"/>
	<path fill-rule="evenodd" clip-rule="evenodd" fill="#aaa" d="M28.84,3.5c0-1.93,1.57-3.5,3.51-3.5s3.52,1.57,3.52,3.5
		S34.29,7,32.35,7S28.84,5.43,28.84,3.5z"/>
	<path fill-rule="evenodd" clip-rule="evenodd" fill="#aaa" d="M42.9,3.5c0-1.93,1.58-3.5,3.52-3.5s3.51,1.57,3.51,3.5
		S48.36,7,46.42,7S42.9,5.43,42.9,3.5z"/>
	<path fill-rule="evenodd" clip-rule="evenodd" fill="#aaa" d="M56.97,3.5c0-1.93,1.57-3.5,3.51-3.5C62.43,0,64,1.57,64,3.5
		S62.43,7,60.48,7C58.54,7,56.97,5.43,56.97,3.5z"/>
</g>
</svg>
