<?xml version="1.0" standalone="no"?>
<!DOCTYPE svg PUBLIC "-//W3C//DTD SVG 1.1//EN" "http://www.w3.org/Graphics/SVG/1.1/DTD/svg11.dtd" >
<svg xmlns="http://www.w3.org/2000/svg">
<metadata>
This is a custom SVG webfont generated by Font Squirrel.
Copyright   : Copyright c 2007 by Christopher Miller All rights reserved
</metadata>
<defs>
<font id="webfontq352S4kH" horiz-adv-x="702" >
<font-face units-per-em="2048" ascent="1638" descent="-410" />
<missing-glyph horiz-adv-x="530" />
<glyph unicode=" "  horiz-adv-x="530" />
<glyph unicode="&#x09;" horiz-adv-x="530" />
<glyph unicode="&#xa0;" horiz-adv-x="530" />
<glyph unicode="!" horiz-adv-x="606" d="M203 61v99q0 23 19.5 41t45.5 18h99q27 0 46 -18.5t19 -40.5v-99q0 -27 -18.5 -44t-46.5 -17h-99q-29 0 -47 17t-18 44zM203 1565h229q0 -229 -5 -436t-10 -322t-5 -123v-258h-185v258q0 8 -6 130t-12 329t-6 422z" />
<glyph unicode="&#x22;" horiz-adv-x="1011" d="M215 1565h205q0 -117 -5 -217.5t-11.5 -154.5t-6.5 -63v-141h-161v141q0 6 -5.5 61.5t-10.5 156t-5 217.5zM629 1565h205q0 -117 -5.5 -217.5t-10.5 -154.5t-5 -63v-141h-164v141q0 6 -5 61.5t-10 156t-5 217.5z" />
<glyph unicode="#" horiz-adv-x="1665" d="M96 618l33 166h354l64 279h-354l34 162h353l73 340h166l-74 -340h287l72 340h166l-74 -340h342l-33 -162h-342l-63 -279h342l-33 -166h-342l-76 -339h-164l76 339h-289l-71 -339h-168l74 339h-353zM649 784h285l63 279h-284z" />
<glyph unicode="$" horiz-adv-x="1116" d="M96 127l54 137q10 20 40 10q45 -37 145.5 -66.5t162.5 -29.5q125 0 199.5 52.5t74.5 150.5q0 70 -69.5 103.5t-169 51t-198.5 44t-169 104.5t-70 211q0 311 353 369q-14 201 -15 301h168q0 -115 -18 -289h10q74 0 192.5 -28.5t135.5 -78.5v-16l-48 -92q-16 -29 -61 -14 q-166 57 -278 57q-94 0 -161 -45t-67 -133q0 -90 68.5 -136.5t166 -61.5t196 -34.5t167 -80t68.5 -171.5q0 -193 -107.5 -300t-281.5 -130v-4q0 -4 5 -43t9 -109.5t4 -154.5h-168q0 84 4 154.5t7.5 109.5t3.5 43q-203 10 -345 82q-16 17 -8 37z" />
<glyph unicode="%" horiz-adv-x="1560" d="M90 1255q0 131 87 220.5t257 89.5q322 0 322 -310q0 -131 -86 -218t-250 -87q-104 0 -175 27t-101.5 75t-42 95t-11.5 108zM256 1255q0 -199 164 -198q84 0 124 47t40 151q0 209 -154 209q-88 0 -131 -59.5t-43 -149.5zM266 307l883 1258h164l-871 -1258h-176zM827 610 q0 133 85 220.5t255 87.5q166 0 243 -77t77 -231q0 -133 -83 -218t-249 -85q-104 0 -174 25.5t-101.5 74t-42 94.5t-10.5 109zM991 610q0 -201 164 -200q84 0 124 48t40 152q0 209 -156 209q-86 0 -129 -60.5t-43 -148.5z" />
<glyph unicode="&#x26;" horiz-adv-x="1267" d="M43 463q0 133 105.5 231.5t263.5 116.5q-266 127 -267 403q0 100 47.5 173t124 109t151.5 52.5t153 16.5q150 0 275.5 -51.5t168.5 -176.5l-139 -94q-27 78 -109 127t-196 49q-109 0 -190 -47t-81 -164q0 -131 97.5 -239.5t230.5 -108.5h379v-833l104 -197l-104 -55 l-191 225q-221 -25 -276 -25q-254 0 -400.5 111t-146.5 377zM248 438q0 -143 96 -233t250 -90q160 0 272 28v574h-217q-401 0 -401 -279z" />
<glyph unicode="'" horiz-adv-x="571" d="M203 1565h203q0 -117 -5.5 -217.5t-10.5 -154.5t-5 -63v-141h-162v141q0 6 -5 61.5t-10 156t-5 217.5z" />
<glyph unicode="(" horiz-adv-x="843" d="M92 688q0 330 70.5 523.5t209 273.5t367.5 80v-115q-242 0 -343 -181.5t-101 -580.5t101.5 -580.5t342.5 -181.5v-114q-229 0 -367.5 79.5t-209 273t-70.5 523.5z" />
<glyph unicode=")" horiz-adv-x="843" d="M92 -74q242 0 343.5 181.5t101.5 580.5t-101.5 580.5t-343.5 181.5v115q229 0 367.5 -80t209 -273.5t70.5 -523.5t-70.5 -523.5t-208.5 -273t-368 -79.5v114z" />
<glyph unicode="*" horiz-adv-x="933" d="M121 1151v162q61 -27 103 -34t126 -7q2 2 2 8q-47 47 -64.5 62.5t-50 35t-73.5 33.5l115 115q23 -63 47 -97t88 -94l8 4q0 84 -7 126t-38 100h166q-29 -57 -35 -98.5t-6 -127.5q2 -2 8 -2q59 59 83.5 94t47.5 95l117 -115q-61 -20 -95 -45t-96 -86q2 -2 2 -6q61 0 89 1 t64 10t77 28v-160q-57 29 -99.5 35t-130.5 6q0 -6 -2 -8q59 -61 94 -86t97 -45l-117 -117q-25 63 -49.5 99t-83.5 89l-6 -2q0 -61 2 -87.5t10 -61.5t29 -74h-166q31 55 38 97t7 126l-8 2q-61 -55 -88 -90t-50 -98l-114 117q61 20 94 43.5t98 87.5q-2 2 -2 8q-86 0 -129 -7 t-102 -36z" />
<glyph unicode="+" horiz-adv-x="1470" d="M90 530v166h541v527h166v-527h540v-166h-540v-526h-166v526h-541z" />
<glyph unicode="," horiz-adv-x="444" d="M35 -293q66 55 93.5 114.5t27.5 160.5v139q0 25 25.5 41t58.5 16h22q33 0 58.5 -16.5t25.5 -40.5v-139q0 -84 -82 -182.5t-176 -116.5z" />
<glyph unicode="-" d="M135 530v187h457v-187h-457z" />
<glyph unicode="." horiz-adv-x="372" d="M88 61v99q0 23 26.5 41t55.5 18h49q31 0 56.5 -18.5t25.5 -40.5v-99q0 -25 -25.5 -43t-56.5 -18h-49q-29 0 -55.5 18t-26.5 43z" />
<glyph unicode="/" horiz-adv-x="1263" d="M45 -248l991 1813h201l-991 -1813h-201z" />
<glyph unicode="0" horiz-adv-x="1251" d="M104 760q0 168 31 309t94.5 254t171 177.5t248.5 64.5q262 0 381 -194.5t119 -610.5q0 -221 -51 -392t-172 -282t-299 -111q-131 0 -228.5 49.5t-153 123t-88 183t-43 209t-10.5 220.5zM313 760q0 -74 4.5 -135.5t14.5 -137t31.5 -133t55.5 -107.5t87 -78t121 -28 q313 0 313 619q0 145 -11 248.5t-41 199t-92.5 143.5t-154.5 48q-160 0 -244 -180t-84 -459z" />
<glyph unicode="1" horiz-adv-x="833" d="M78 1319l407 246h109q20 0 35.5 -16.5t15.5 -37.5v-1456q0 -23 -15.5 -39t-35.5 -16h-105q-20 0 -34.5 16.5t-14.5 38.5v1272l-270 -158z" />
<glyph unicode="2" horiz-adv-x="1200" d="M80 0v27q0 150 57.5 290t143.5 240t186 197.5t186 170t143.5 151.5t57.5 145q0 178 -197 178q-68 0 -186.5 -43t-206.5 -109l-88 152q94 76 239.5 121t274.5 45q174 0 273.5 -81t99.5 -245q0 -90 -54.5 -186.5t-136.5 -176.5l-178 -173l-178 -172q-82 -81 -136 -177 t-54 -186h680q39 0 47 -33l20 -98q0 -37 -45 -37h-948z" />
<glyph unicode="3" horiz-adv-x="1239" d="M147 145q297 0 529.5 157t232.5 341q0 111 -96 163t-225 25l-199 -40l-31 159q483 102 484 346q0 102 -189 103q-76 0 -197.5 -36t-199.5 -87l-51 158q217 131 512 131q147 0 238.5 -57.5t91.5 -184.5q0 -117 -80 -224.5t-185 -142.5q158 0 246 -81.5t88 -239.5 q0 -115 -66.5 -229.5t-185.5 -212t-306 -158t-406 -60.5z" />
<glyph unicode="4" horiz-adv-x="1210" d="M88 600l676 965h205v-965h192l-57 -156h-135v-444h-205v444h-565zM299 600h465v692z" />
<glyph unicode="5" horiz-adv-x="1144" d="M152 -20v165q174 0 348 85t280.5 212t106.5 244q0 129 -55.5 173t-159.5 44q-158 0 -332 -110l-145 141l53 631h741v-166h-590l-39 -420q207 98 357 98q358 0 358 -364q0 -125 -73.5 -257t-195.5 -236.5t-296 -172t-358 -67.5z" />
<glyph unicode="6" horiz-adv-x="1280" d="M111 688q0 406 258 641.5t678 235.5v-166q-319 0 -521 -175t-207 -397q109 92 197 134.5t203 42.5q180 0 311 -127t131 -342q0 -240 -129 -397.5t-393 -157.5q-129 0 -227.5 48t-154.5 120.5t-90 172t-45 186.5t-11 181zM330 672q0 -66 5 -125.5t23.5 -139t50 -136 t92 -96.5t142.5 -40q156 0 237 101.5t81 287.5q0 141 -73 231.5t-192 90.5q-186 0 -366 -174z" />
<glyph unicode="7" horiz-adv-x="1251" d="M109 1399l20 166h1081l-305 -525q-119 -209 -266 -502.5t-240 -537.5h-249q254 612 765 1399h-806z" />
<glyph unicode="8" horiz-adv-x="1241" d="M141 389q0 281 361 440q-37 18 -89.5 55.5t-98.5 76t-78.5 104t-32.5 141.5q0 147 129 253t330 106q197 0 324.5 -96.5t127.5 -262.5q0 -121 -90 -217t-231 -160q164 -82 255 -178t91 -245q0 -199 -126 -315t-372 -116q-86 0 -166 18.5t-158.5 61.5t-127 129t-48.5 205z M360 393q0 -111 84 -182.5t195 -71.5q125 0 205 71t80 196q0 211 -273 337q-152 -55 -221.5 -153.5t-69.5 -196.5zM408 1206q-2 -80 65.5 -160.5t175.5 -140.5q102 45 181 121t79 180q0 86 -66.5 146.5t-176.5 60.5q-102 0 -179 -56.5t-79 -150.5z" />
<glyph unicode="9" horiz-adv-x="1280" d="M111 1010q0 240 129 397.5t395 157.5q129 0 225 -53.5t149.5 -131t86 -187.5t42 -199t9.5 -185q0 -401 -248 -615t-672 -214v165q315 0 499.5 145.5t193.5 344.5q-174 -94 -367 -94q-180 0 -311 128t-131 341zM311 1020q0 -139 74 -229.5t193 -90.5q209 0 346 103 q0 606 -293 606q-156 0 -238 -101.5t-82 -287.5z" />
<glyph unicode=":" horiz-adv-x="417" d="M88 61v99q0 23 26.5 41t55.5 18h49q31 0 56.5 -18.5t25.5 -40.5v-99q0 -25 -25.5 -43t-56.5 -18h-49q-29 0 -55.5 18t-26.5 43zM88 1001v99q0 23 26.5 41t55.5 18h49q31 0 56.5 -18.5t25.5 -40.5v-99q0 -25 -25.5 -43t-56.5 -18h-49q-29 0 -55.5 18t-26.5 43z" />
<glyph unicode=";" horiz-adv-x="514" d="M25 -272q63 55 91.5 115.5t28.5 158.5v139q0 25 26 41.5t58 16.5h23q33 0 58.5 -16.5t25.5 -41.5v-139q0 -84 -81 -183.5t-177 -117.5zM145 1001v99q0 23 27 41t57 18h47q31 0 56.5 -18.5t25.5 -40.5v-99q0 -25 -25.5 -43t-56.5 -18h-47q-31 0 -57.5 18t-26.5 43z" />
<glyph unicode="&#x3c;" horiz-adv-x="1536" d="M176 522v178l1198 426v-174l-952 -342l952 -340v-174z" />
<glyph unicode="=" horiz-adv-x="1398" d="M35 584v161h1313v-161h-1313z" />
<glyph unicode="&#x3e;" horiz-adv-x="1536" d="M176 96v174l952 340l-952 342v174l1198 -426v-178z" />
<glyph unicode="?" horiz-adv-x="1046" d="M104 1399l9 166h290q270 0 412.5 -82t142.5 -283t-140 -335t-382 -197v-271h-184v373q150 27 256 78t158.5 113.5t75 119t22.5 113.5q0 78 -58.5 127t-121 63.5t-121.5 14.5h-359zM209 61v113q0 25 26.5 43.5t57.5 18.5h72q31 0 55 -18.5t24 -43.5v-113q0 -25 -24.5 -43 t-54.5 -18h-72q-31 0 -57.5 18t-26.5 43z" />
<glyph unicode="@" horiz-adv-x="1808" d="M84 625q0 250 113.5 461.5t334 345t502.5 133.5q324 0 501 -171t177 -462q0 -156 -38 -281t-93 -197.5t-125 -121.5t-126 -66.5t-103 -17.5q-109 0 -176.5 52t-69.5 142q-45 -29 -148.5 -77t-136.5 -48q-123 0 -191.5 51.5t-68.5 149.5q0 35 4 55q4 55 75 106.5 t174.5 88.5t195.5 60.5t166 35.5q-4 12 -4 27q0 23 9 72t9 69q0 35 -18.5 53.5t-67.5 18.5q-125 0 -330 -115l-22 119q213 104 403 104q104 0 150.5 -28.5t46.5 -104.5q0 -23 -6 -55q-12 -84 -38 -220t-39.5 -222t-13.5 -131q0 -80 87 -80q145 0 246.5 144t101.5 407 q0 242 -137.5 387t-411.5 145q-342 0 -565.5 -240.5t-223.5 -570.5q0 -240 151.5 -394.5t397.5 -154.5l-18 -112q-301 0 -487.5 180t-186.5 463zM598 557q0 -53 32 -91t87 -38q31 0 133 47t149 76q-4 12 -4 27q0 8 4 28l17 111q4 31 20 53q-76 -8 -226.5 -59.5t-197.5 -92.5 q-14 -34 -14 -61z" />
<glyph unicode="A" horiz-adv-x="1327" d="M53 0l525 1550l247 15l473 -1565h-231l-125 459l-520 -13l-135 -446h-234zM461 600h450l-223 784z" />
<glyph unicode="B" horiz-adv-x="1310" d="M150 29v1431q328 104 526 105q225 0 347 -67.5t122 -248.5q0 -252 -264 -397q152 -2 246 -111.5t94 -277.5q0 -233 -174.5 -360.5t-421.5 -127.5q-61 0 -147.5 9.5t-187.5 25t-140 19.5zM356 180q168 -39 279 -39q168 0 271.5 89t103.5 243q0 115 -71 186.5t-162 90.5 q-43 9 -85 8q-47 0 -92 -10l-244 -56v-512zM356 854l275 61q129 29 215 112t86 214q0 47 -26.5 81t-70.5 49t-85 21.5t-84 6.5q-174 0 -310 -70v-475z" />
<glyph unicode="C" horiz-adv-x="1329" d="M129 752q0 383 200.5 598t518.5 215h362l-8 -166h-350q-147 0 -267 -97.5t-180.5 -240.5t-60.5 -297q0 -94 12.5 -179t45 -167t81.5 -142.5t127 -97.5t176 -37q104 0 240.5 41t212.5 99l25 -179q-57 -53 -212 -90t-251 -37q-352 0 -512 207.5t-160 569.5z" />
<glyph unicode="D" horiz-adv-x="1474" d="M160 0v1503q395 61 624 62q137 0 240.5 -42t168 -111t103.5 -171t54.5 -210.5t15.5 -242.5q0 -385 -198.5 -586.5t-577.5 -201.5h-430zM362 170h228q270 0 415.5 158.5t145.5 474.5q0 145 -23.5 252.5t-60.5 172t-92 104.5t-110.5 53.5t-125.5 13.5q-236 0 -377 -43 v-1186z" />
<glyph unicode="E" horiz-adv-x="1114" d="M158 0v1565h893v-146l-695 -16v-481h576v-138l-576 -14v-623l695 23v-170h-893z" />
<glyph unicode="F" horiz-adv-x="1144" d="M158 0v1565h893v-146l-695 -16v-481h576v-138l-576 -14v-770h-198z" />
<glyph unicode="G" horiz-adv-x="1503" d="M162 788q0 367 212 572t550 205h381v-166h-396q-111 0 -203 -38t-151 -99.5t-101 -140.5t-60.5 -159.5t-18.5 -158.5q0 -119 19.5 -225.5t66.5 -210t141 -165t227 -61.5q182 0 301 99v430l201 80l-2 -631q-203 -143 -547 -144q-137 0 -244.5 46.5t-177 122t-115.5 182 t-64.5 220t-18.5 242.5z" />
<glyph unicode="H" horiz-adv-x="1540" d="M217 0v1565h199v-643h721v643h198v-1565h-198v752h-721v-752h-199z" />
<glyph unicode="I" horiz-adv-x="583" d="M217 0v1565h199v-1565h-199z" />
<glyph unicode="J" horiz-adv-x="792" d="M49 0v168h221q109 0 164 54t55 145v1198h199v-1198q0 -158 -100.5 -262.5t-294.5 -104.5h-244z" />
<glyph unicode="K" horiz-adv-x="1280" d="M164 0v1565h198v-910l543 910h254l-473 -709l578 -856h-258l-433 676l-208 -332l-3 -344h-198z" />
<glyph unicode="L" horiz-adv-x="1144" d="M158 0v1565h198v-1418l695 23v-170h-893z" />
<glyph unicode="M" horiz-adv-x="1916" d="M188 0v1565h314q334 -741 456 -1041q123 299 457 1041h314v-1565h-199v1319l-479 -1051h-185l-479 1051v-1319h-199z" />
<glyph unicode="N" horiz-adv-x="1589" d="M219 0v1565h264l734 -1291v1291h198v-1565h-237l-760 1313v-1313h-199z" />
<glyph unicode="O" horiz-adv-x="1513" d="M129 799q0 215 69.5 386t216 275.5t353.5 104.5q147 0 259 -44t181.5 -116t111.5 -179.5t58.5 -222t16.5 -253.5q0 -121 -18.5 -227.5t-63.5 -209t-115 -175t-181.5 -118t-254.5 -45.5q-178 0 -306 69t-197 189.5t-99.5 260t-30.5 305.5zM342 739q0 -115 17.5 -210 t60.5 -187t131 -145.5t213 -53.5q418 0 418 664q0 592 -414 592q-426 -1 -426 -660z" />
<glyph unicode="P" horiz-adv-x="1277" d="M170 0v1176v323q39 4 134 22.5t194.5 31t197.5 12.5q80 0 141.5 -5.5t132 -24.5t117 -52t77 -92.5t30.5 -141.5q0 -131 -52 -234.5t-144.5 -170t-201 -106.5t-239.5 -58l-186 -27v-653h-201zM371 825q592 37 592 404q0 82 -75 124t-194 42q-72 0 -163 -15.5t-160 -31.5 v-523z" />
<glyph unicode="Q" horiz-adv-x="1517" d="M129 799q0 219 64.5 387t212 273.5t362.5 105.5q147 0 259 -44t181.5 -116t111.5 -179.5t58.5 -222t16.5 -253.5q0 -172 -52.5 -330t-162 -277.5t-258.5 -156.5q27 -8 195 -90q161 -78 250 -78h9l-22 -137q-104 2 -210 49t-193 94t-144 47q-66 0 -117 -67.5t-63 -127.5 l-150 74q18 86 69.5 136.5t151.5 99.5q-76 0 -151.5 24.5t-152.5 85t-134 150.5t-94 233.5t-37 319.5zM342 739q0 -111 19.5 -209t64.5 -189t130 -144.5t202 -53.5q424 0 424 664q0 592 -414 592q-426 -1 -426 -660z" />
<glyph unicode="R" horiz-adv-x="1280" d="M168 0v1176v323q41 4 156.5 22.5t217 31t171.5 12.5q100 0 174 -10.5t149.5 -41t115.5 -97t40 -167.5q0 -326 -318 -477q131 -367 336 -772h-256q-88 293 -262 711q-115 -31 -137 -33l-186 -27v-651h-201zM369 825q592 37 592 404q0 82 -67 124t-183 42q-88 0 -342 -47 v-523z" />
<glyph unicode="S" horiz-adv-x="1189" d="M131 115l62 190q76 -78 184 -121q104 -41 188 -41h8q123 2 223 84q95 79 95 195q0 85 -58 146q-56 58 -138.5 91t-177.5 77t-176 93.5t-135 142.5t-54 220q0 190 140 281.5t429 91.5h285v-166h-295q-150 0 -247 -54.5t-97 -136.5q0 -84 39.5 -143t103 -94t141.5 -64.5 t156 -63.5t141.5 -81t103.5 -130t40 -198q0 -221 -146.5 -340t-367.5 -119q-127 0 -230.5 30t-216.5 110z" />
<glyph unicode="T" horiz-adv-x="1294" d="M57 1399v166h1172v-166l-488 20v-1419h-198v1419z" />
<glyph unicode="U" horiz-adv-x="1445" d="M158 403l2 1162h198v-1102q0 -322 361 -322q362 0 362 322v1102h199l2 -1162q0 -215 -162 -321.5t-401.5 -106.5t-400 106.5t-160.5 321.5z" />
<glyph unicode="V" horiz-adv-x="1374" d="M72 1565h262q47 -260 178 -729l172 -623q260 825 393 1352h244l-533 -1545l-237 -40l-234 788q-16 53 -68 238l-92 313q-40 129 -85 246z" />
<glyph unicode="W" horiz-adv-x="2058" d="M137 1565h228l231 -1422l326 1422h286l281 -1422l287 1422h215l-361 -1565h-299l-272 1409l-320 -1409h-293z" />
<glyph unicode="X" horiz-adv-x="1208" d="M84 0l446 782l-446 783h254l297 -643l297 643h258l-457 -783l457 -782h-258l-297 631l-297 -631h-254z" />
<glyph unicode="Y" horiz-adv-x="1425" d="M55 1565h279q221 -459 385 -852q147 344 393 852h268q-256 -410 -559 -1016v-549h-203v549q-340 674 -563 1016z" />
<glyph unicode="Z" horiz-adv-x="1208" d="M0 0l840 1399h-754v166h1081l-817 -1397h754v-168h-1104z" />
<glyph unicode="[" horiz-adv-x="745" d="M158 -188v1636l483 117v-156l-283 -49v-1456l283 -47v-160z" />
<glyph unicode="\" horiz-adv-x="1263" d="M45 1565h201l991 -1813h-201z" />
<glyph unicode="]" horiz-adv-x="745" d="M158 -143l282 47v1456l-282 49v156l483 -117v-1636l-483 -115v160z" />
<glyph unicode="^" horiz-adv-x="1245" d="M190 1102l355 463h155l355 -463l-107 -92l-327 409l-326 -409z" />
<glyph unicode="_" horiz-adv-x="1316" d="M8 -172h1313v-164h-1313v164z" />
<glyph unicode="`" horiz-adv-x="921" d="M248 1436l76 129l426 -140l-52 -127z" />
<glyph unicode="a" horiz-adv-x="1157" d="M100 322q0 66 21 127q264 223 702 286v183q0 74 -23.5 96t-86.5 22q-55 0 -199.5 -44t-243.5 -83q-39 -14 -61.5 -8t-26.5 27l-16 80q-6 29 4 40t37 21q326 129 557 129q143 0 203.5 -51t60.5 -184v-691l109 -170q9 -14 9 -26q0 -21 -26 -37l-78 -51q-16 -10 -31 -11 q-27 0 -53 33l-100 142q-90 -70 -214 -123.5t-204 -53.5q-340 1 -340 347zM311 313q0 -76 44 -125t132 -49q45 0 165 53.5t184 98.5q-12 29 -13 88v133q0 57 13 82q-92 -12 -279.5 -85t-237.5 -126q-8 -21 -8 -70z" />
<glyph unicode="b" horiz-adv-x="1263" d="M160 53v1458q0 23 12 38.5t33 15.5h117q18 0 30.5 -15.5t12.5 -38.5v-391q0 -59 -13 -121q209 199 443 199q186 0 265 -129t79 -371q0 -80 -20.5 -169t-71 -184t-122 -171t-185 -125t-251.5 -49h-280q-20 0 -34.5 15t-14.5 38zM352 164h148q160 0 291 142.5t139 369.5 q1 28 1 54q0 307 -179 306q-86 0 -200 -62.5t-200 -146.5q12 -61 13 -118v-424q-1 -60 -13 -121z" />
<glyph unicode="c" horiz-adv-x="1144" d="M139 582q0 295 146.5 455.5t449.5 160.5h205q49 0 49 -37v-82q0 -43 -49 -43h-195q-199 0 -298 -109.5t-99 -342.5q0 -211 78 -328t215 -117q141 0 336 121q27 20 47 20.5t37 -30.5l26 -53q8 -16 9 -29q0 -27 -37 -51q-213 -141 -449 -142q-238 0 -354.5 166.5 t-116.5 440.5z" />
<glyph unicode="d" horiz-adv-x="1255" d="M109 520q0 320 172 498q174 180 456 180h160q-12 45 -12 123v190q0 53 49 54h110q45 0 46 -54v-1263l110 -139q16 -20 17 -39q0 -20 -19 -31l-86 -45q-20 -8 -31 -8q-31 0 -51 26l-119 146q-236 -182 -415 -183q-193 0 -289 143q-98 146 -98 402zM317 524 q0 -207 60.5 -296t148.5 -89q70 0 183.5 60.5t187.5 134.5q-12 35 -12 133v448q0 76 12 121h-170q-166 0 -288 -134t-122 -378z" />
<glyph unicode="e" horiz-adv-x="1196" d="M123 582q0 266 148.5 441t392.5 175q227 0 323 -139t96 -430q-287 -131 -696 -131q-31 0 -53 2q0 -164 83 -262.5t228 -98.5q111 0 189.5 30t171.5 93q29 20 47 21q16 0 37 -27l38 -51q8 -12 9 -23q0 -31 -47 -63q-117 -88 -221.5 -116t-247.5 -28q-498 1 -498 607z M328 649q381 0 555 86q0 129 -53.5 215t-180.5 86q-135 0 -228 -115.5t-93 -271.5z" />
<glyph unicode="f" horiz-adv-x="778" d="M31 1092l26 51q20 41 66 47l65 8v72q0 133 91.5 220t265.5 87h155q31 0 39 -10q5 -6 5 -15q0 -6 -3 -14l-18 -65q-12 -43 -59 -43h-89q-92 0 -140 -44.5t-48 -121.5v-66h264q48 0 48 -29q0 -9 -5 -22l-26 -64q-10 -25 -24.5 -34t-49.5 -9h-207v-987q0 -23 -14.5 -38 t-34.5 -15h-98q-20 0 -36 16.5t-16 36.5v987h-118q-47 0 -47 26q0 11 8 26z" />
<glyph unicode="g" horiz-adv-x="1230" d="M133 508q0 340 174 515t477 175h265q20 0 34.5 -15.5t14.5 -37.5v-1145q0 -102 -38 -179t-94.5 -120t-134 -68.5t-142 -34t-134.5 -8.5h-229q-31 0 -42.5 9.5t-11.5 35.5v78q0 41 54 41h188q68 0 114 3t100 17.5t87 39t55.5 70.5t22.5 110v151q-176 -170 -383 -170 q-195 0 -286 150t-91 383zM342 522q0 -193 55.5 -288t147.5 -95q82 0 199.5 71t160.5 124q-12 37 -12 133v446q0 53 12 123h-157q-72 0 -140.5 -27.5t-130 -85t-98.5 -161t-37 -240.5z" />
<glyph unicode="h" horiz-adv-x="1251" d="M152 53v1430q0 23 14 38t35 15h106q18 0 33.5 -15.5t15.5 -37.5v-539q270 254 498 254q182 0 244 -127v-1018q0 -20 -15.5 -36.5t-33.5 -16.5h-107q-18 0 -33.5 16.5t-15.5 36.5v869q0 66 -21.5 90t-68.5 24q-82 0 -216 -84t-231 -180v-719q0 -20 -15 -36.5t-34 -16.5 h-106q-20 0 -34.5 15t-14.5 38z" />
<glyph unicode="i" horiz-adv-x="559" d="M168 1427v93q0 31 14.5 44t50.5 13h93q37 0 51 -13.5t14 -43.5v-93q0 -33 -13 -45t-52 -12h-93q-39 0 -52 12t-13 45zM176 53v1092q0 23 15.5 38t35.5 15h105q20 0 34.5 -15.5t14.5 -37.5v-1092q0 -23 -14.5 -38t-34.5 -15h-105q-20 0 -35.5 16.5t-15.5 36.5z" />
<glyph unicode="j" horiz-adv-x="540" d="M-59 -233q0 59 65 59q162 0 162 227v1092q0 53 41 53h121q43 0 43 -53l-2 -1051q0 -410 -365 -409q-39 0 -52 12t-13 45v25zM158 1427v93q0 31 14 44t51 13h92q37 0 51.5 -13.5t14.5 -43.5v-93q0 -33 -12.5 -45t-53.5 -12h-92q-39 0 -52 12t-13 45z" />
<glyph unicode="k" horiz-adv-x="1120" d="M170 53v1428q0 55 43 55h121q41 0 41 -55v-785h86l330 455q20 29 34.5 36t55.5 7l104 -18q23 -4 28 -22.5t-18 -53.5l-360 -457l416 -565q23 -34 23 -53q0 -23 -34 -27l-112 -14q-5 0 -10 -1q-17 0 -30 6q-17 7 -23 14l-17 26l-375 516h-98v-492q0 -53 -41 -53h-121 q-18 0 -30.5 15t-12.5 38z" />
<glyph unicode="l" horiz-adv-x="559" d="M176 53v1428q0 23 15.5 39t35.5 16h105q20 0 34.5 -16.5t14.5 -38.5v-1428q0 -23 -14.5 -38t-34.5 -15h-105q-20 0 -35.5 16.5t-15.5 36.5z" />
<glyph unicode="m" horiz-adv-x="1886" d="M162 53v1067q0 23 14 38.5t35 15.5h104q20 0 36 -16.5t16 -37.5v-176q238 254 471 254q84 0 130 -24.5t81 -94.5v-135q264 254 471 254q84 0 130 -24.5t81 -94.5v-1026q0 -20 -18.5 -36.5t-39.5 -16.5h-98q-20 0 -34.5 15.5t-14.5 37.5v893q0 49 -18.5 69.5t-61.5 20.5 q-53 0 -170 -77.5t-227 -186.5v-719q0 -20 -15.5 -36.5t-36.5 -16.5h-104q-20 0 -34.5 15.5t-14.5 37.5v893q0 90 -76 90q-63 0 -188 -85t-213 -179v-719q0 -20 -15.5 -36.5t-36.5 -16.5h-104q-20 0 -34.5 15t-14.5 38z" />
<glyph unicode="n" horiz-adv-x="1263" d="M156 53v1092q0 23 14 38t35 15h104q20 0 35.5 -15.5t15.5 -37.5v-201q100 100 237.5 177t258.5 77q184 0 246 -127v-1018q0 -20 -18.5 -36.5t-36.5 -16.5h-101q-18 0 -33.5 16.5t-15.5 36.5v903q0 80 -90 80q-72 0 -208 -86t-239 -178v-719q0 -20 -15 -36.5t-36 -16.5 h-104q-20 0 -34.5 15t-14.5 38z" />
<glyph unicode="o" horiz-adv-x="1216" d="M92 586q0 268 136.5 440t398.5 172q266 0 389 -168t123 -444q0 -270 -138.5 -440.5t-408.5 -170.5q-131 0 -230.5 47.5t-157 132.5t-85 192.5t-27.5 238.5zM303 592v-22q0 -66 10 -131q12 -75 43 -144.5t91.5 -112.5t144.5 -43q324 0 336 434q1 16 0 31q0 92 -21 176 q-25 98 -96.5 177t-181.5 79q-310 0 -326 -444z" />
<glyph unicode="p" horiz-adv-x="1226" d="M139 -410v1555q0 23 15.5 38t33.5 15h107q18 0 33.5 -15.5t15.5 -37.5v-123q231 176 424 176q362 0 362 -500q0 -305 -169.5 -501.5t-479.5 -196.5h-149q12 -61 12 -121v-289q0 -23 -15.5 -38t-33.5 -15h-107q-18 0 -33.5 15t-15.5 38zM332 164h168q190 0 306 153.5 t116 376.5q0 199 -51.5 270.5t-147.5 71.5q-82 0 -192.5 -60.5t-198.5 -141.5q12 -61 12 -119v-430q0 -60 -12 -121z" />
<glyph unicode="q" horiz-adv-x="1236" d="M147 508q0 313 162 501.5t467 188.5h271q33 0 46 -15.5t13 -54.5l-6 -1460q0 -23 -15.5 -38t-33.5 -15h-107q-18 0 -33.5 15.5t-15.5 37.5l6 369q0 59 12 121q-219 -182 -399 -183q-106 0 -181 42t-114 120t-55.5 167t-16.5 204zM356 522q0 -383 191 -383q68 0 169 55.5 t197 139.5q-12 61 -12 119v462q0 55 12 121h-157q-164 0 -282 -144.5t-118 -369.5z" />
<glyph unicode="r" horiz-adv-x="901" d="M141 53v1092q0 23 15.5 38t33.5 15h107q18 0 33.5 -15.5t15.5 -37.5v-248q66 102 206 201.5t249 99.5q53 0 53 -49v-117q0 -20 -15.5 -34.5t-37.5 -14.5q-176 0 -455 -254v-676q0 -20 -15.5 -36.5t-33.5 -16.5h-107q-18 0 -33.5 16.5t-15.5 36.5z" />
<glyph unicode="s" horiz-adv-x="1028" d="M76 74l49 121q4 6 18.5 10t26.5 -2q61 -33 155.5 -56.5t151.5 -23.5q274 0 275 213q0 61 -50.5 94t-125 41t-162.5 25.5t-163 44t-125 98.5t-50 186q0 186 139 279.5t340 93.5q195 0 336 -82q23 -14 10 -37l-53 -96q-9 -18 -27 -18q-12 0 -28 10q-39 23 -121 39t-133 16 q-225 0 -252 -174q-2 -14 -2 -26q0 -64 53 -97q63 -39 163.5 -52t203 -34.5t175 -96.5t72.5 -210q0 -186 -134 -284.5t-337 -98.5q-231 0 -395 78q-13 13 -13 26q0 7 3 13z" />
<glyph unicode="t" horiz-adv-x="976" d="M29 1087l16 39q14 35 88 50l107 22v150q0 31 8 50t16 24t25 12l98 36q7 1 13 2q3 0 7 -1q9 -1 16 -5t11 -16t4 -33v-219h381q45 0 45 -27q0 -8 -4 -24l-24 -68q-16 -43 -74 -43h-324v-772q0 -63 19.5 -94t74.5 -31q57 0 136.5 35t142.5 86q35 29 58 29q19 0 28 -21 l29 -63q4 -7 3 -15q0 -23 -32 -51q-209 -164 -424 -164q-80 0 -149.5 46.5t-83.5 105.5v909h-166q-51 0 -51 29q0 9 6 22z" />
<glyph unicode="u" horiz-adv-x="1273" d="M162 102v1028q0 23 14 39.5t35 16.5l104 12q20 0 36 -15.5t16 -37.5v-893q0 -63 20.5 -88t67.5 -25q86 0 227 57.5t221 118.5v815q0 23 14.5 39.5t34.5 16.5l107 12q18 0 33.5 -15.5t15.5 -37.5v-907l106 -140q10 -13 10 -25q0 -20 -28 -38l-70 -43q-14 -11 -29 -11 q-26 0 -53 33l-106 142q-291 -180 -532 -181q-183 0 -244 127z" />
<glyph unicode="v" horiz-adv-x="1222" d="M63 1126q-3 7 -2 14q0 12 9 25q14 20 32 23l103 10q41 0 57.5 -14.5t26.5 -40.5l327 -993q141 276 240.5 586.5t99.5 406.5q0 25 22 41q19 15 44 14h6l102 -8q41 -4 41 -55q0 -139 -162.5 -533.5t-265.5 -538.5q-8 -10 -15 -22t-21.5 -21.5t-30.5 -11.5l-123 -12 q-6 -1 -12 -1q-52 0 -70 50z" />
<glyph unicode="w" horiz-adv-x="1816" d="M63 1126q-1 5 -1 11q0 15 10 29q12 19 30 22l103 10q68 0 84 -55l182 -981q72 182 165 495.5t124 466.5q0 23 16.5 42.5t36.5 21.5l154 10q6 1 11 1q11 0 19 -3l19 -6q6 -2 11 -14.5t5 -14.5t4 -18l238 -981q96 248 153.5 530.5t61.5 433.5q0 57 41 62l96 10q59 0 60 -51 q0 -221 -86.5 -529.5t-196.5 -537.5q-31 -66 -86 -70l-131 -12q-25 -2 -43.5 14.5t-22.5 32.5l-229 938q-16 -109 -120.5 -445.5t-158.5 -459.5q-27 -66 -88 -70l-145 -12h-5q-20 0 -37 14q-19 16 -24 33z" />
<glyph unicode="x" horiz-adv-x="1058" d="M78 49q0 18 14 39l332 504l-322 510q-10 25 -10 37q0 31 29 37l110 22q31 0 46.5 -13.5t39.5 -58.5l197 -372q4 -6 8 -17.5t7 -16.5t8 -5l20 39l205 372q25 45 40 58.5t48 13.5l102 -22q31 -6 31 -37q0 -16 -12 -37l-322 -510l334 -492q12 -29 12 -39q0 -29 -30 -34 l-99 -37q-31 0 -45 13t-41 58l-223 379q-4 8 -8 19l-6 15q-2 5 -6.5 5t-7.5 -6t-7 -16.5t-8 -16.5l-219 -379q-27 -45 -42 -58t-46 -13l-98 24q-31 6 -31 35z" />
<glyph unicode="y" horiz-adv-x="1183" d="M83 1150q9 28 36 32l96 16q35 0 54.5 -15.5t31.5 -60.5l303 -964q96 133 195 431q93 280 92 504v27q0 49 37 58l108 20q25 0 41.5 -17.5t16.5 -43.5q0 -270 -104.5 -577.5t-300 -576t-431.5 -393.5q-10 -6 -42 -6t-44 6l-59 33q-29 16 -25 52t35 49q82 31 207 125 t145 155l-391 1098q-5 11 -5 23t4 25z" />
<glyph unicode="z" horiz-adv-x="1071" d="M41 55q43 141 176 318.5t311.5 376t243.5 290.5l-590 -4q-37 0 -49 43l-22 82q-4 16 9 26.5t38 10.5h823q55 0 55 -41q0 -7 -2 -14q-14 -68 -115.5 -207t-218 -274.5l-231.5 -283t-147 -226.5l632 12q27 0 35 -10.5t15 -34.5l22 -82q4 -14 -9 -25.5t-36 -11.5h-885 q-33 0 -46 16q-10 13 -10 29q0 5 1 10z" />
<glyph unicode="{" horiz-adv-x="843" d="M43 649v80q84 10 137 39t77 77t31 92t7 112v112q0 74 6 121t32.5 106.5t77 94.5t144.5 58.5t227 23.5v-140q-102 0 -168.5 -20.5t-97.5 -61t-40 -82.5t-9 -106v-88q0 -78 -4 -119t-20.5 -97t-56.5 -94t-107 -67q68 -29 107.5 -66.5t56 -94t20.5 -98.5t4 -120v-86 q0 -63 9 -105t40 -83t97.5 -61.5t168.5 -20.5v-139q-133 0 -227 23.5t-144.5 58t-77 94t-32.5 106.5t-6 121v113q0 53 -4 90t-18.5 79t-41 69.5t-73.5 49t-115 29.5z" />
<glyph unicode="|" horiz-adv-x="563" d="M195 -250v1815h159v-1815h-159z" />
<glyph unicode="}" horiz-adv-x="843" d="M43 -45q102 0 169 20.5t97.5 61.5t39.5 83t9 105v86q0 78 4.5 120t20.5 98.5t56 94.5t108 66q-68 29 -108 67t-56 94t-20.5 97t-4.5 119v88q0 63 -9 105.5t-39.5 83t-97.5 61t-169 20.5v140q133 0 227.5 -23.5t144.5 -58.5t76.5 -94.5t32.5 -106.5t6 -121v-112 q0 -68 7.5 -112t31 -92t76.5 -77t137 -39v-80q-68 -8 -114.5 -29.5t-73.5 -49t-41 -69.5t-18.5 -79t-4.5 -90v-113q0 -74 -6 -121t-32.5 -106.5t-76.5 -94t-144.5 -58t-227.5 -23.5v139z" />
<glyph unicode="~" horiz-adv-x="1257" d="M31 717q111 283 354 282q72 0 146.5 -35.5t125 -78.5t103.5 -79t84 -36q76 0 139.5 60.5t95.5 168.5l129 -94q-109 -285 -364 -284q-63 0 -130 35.5t-115 78.5t-104.5 79t-101.5 36q-76 0 -137 -59.5t-96 -169.5z" />
<glyph unicode="&#xa2;" horiz-adv-x="1136" d="M147 961q0 186 132.5 294.5t349.5 120.5l30 189h132l-21 -179h160l-29 -141h-178q-383 0 -383 -301q0 -266 262 -303q74 -10 177.5 18.5t160.5 61.5l45 -115q-190 -94 -352 -100l-47 -236h-142l45 246q-190 45 -266 156t-76 289z" />
<glyph unicode="&#xa9;" horiz-adv-x="1509" d="M94 905.5q0 274.5 186.5 467t452.5 192.5q268 0 456.5 -192.5t188.5 -467t-188.5 -469t-456.5 -194.5q-266 0 -452.5 194.5t-186.5 469zM213 905q0 -233 154.5 -398t365.5 -165q213 0 372 166t159 397q0 229 -159 396t-372 167q-211 0 -365.5 -166t-154.5 -397zM371 922 q0 190 108.5 289.5t294.5 99.5h191v-113h-185q-264 0 -264 -278q0 -133 56.5 -225.5t168.5 -92.5q100 0 240 94l33 -108q-145 -96 -283 -96q-184 0 -272 118.5t-88 311.5z" />
<glyph unicode="&#xad;" d="M135 530v187h457v-187h-457z" />
<glyph unicode="&#xae;" horiz-adv-x="1114" d="M109 1106q0 176 128 303t306 127q180 0 307 -126t127 -304t-126 -302t-308 -124q-178 0 -306 124t-128 302zM190 1106q0 -147 104.5 -249.5t248 -102.5t251 102t107.5 250q0 150 -108.5 258.5t-249.5 108.5q-143 0 -248 -107.5t-105 -259.5zM354 872q4 43 4 91v272 q0 80 -4 100q106 29 215 29q182 0 183 -107q0 -100 -121 -147q35 -84 127 -238h-96q-43 106 -97 218l-57 -11l-72 -6v-110q0 -47 6 -91h-88zM436 1126q227 10 228 125q0 49 -97 49q-55 0 -131 -14v-160z" />
<glyph unicode="&#xb4;" horiz-adv-x="921" d="M252 1386l457 150l71 -160l-458 -98z" />
<glyph unicode="&#x2000;" horiz-adv-x="788" />
<glyph unicode="&#x2001;" horiz-adv-x="1576" />
<glyph unicode="&#x2002;" horiz-adv-x="788" />
<glyph unicode="&#x2003;" horiz-adv-x="1576" />
<glyph unicode="&#x2004;" horiz-adv-x="524" />
<glyph unicode="&#x2005;" horiz-adv-x="393" />
<glyph unicode="&#x2006;" horiz-adv-x="262" />
<glyph unicode="&#x2007;" horiz-adv-x="262" />
<glyph unicode="&#x2008;" horiz-adv-x="196" />
<glyph unicode="&#x2009;" horiz-adv-x="315" />
<glyph unicode="&#x200a;" horiz-adv-x="86" />
<glyph unicode="&#x2010;" d="M135 530v187h457v-187h-457z" />
<glyph unicode="&#x2011;" d="M135 530v187h457v-187h-457z" />
<glyph unicode="&#x2012;" d="M135 530v187h457v-187h-457z" />
<glyph unicode="&#x2013;" horiz-adv-x="1398" d="M35 573v158h1313v-158h-1313z" />
<glyph unicode="&#x2014;" horiz-adv-x="1904" d="M35 573v158h1831v-158h-1831z" />
<glyph unicode="&#x2018;" horiz-adv-x="514" d="M121 1372v137q0 23 26.5 39.5t57.5 16.5h24q31 0 56.5 -16.5t25.5 -39.5v-137q0 -98 29 -156.5t94 -111.5l-55 -27q-96 20 -177 115.5t-81 179.5z" />
<glyph unicode="&#x2019;" horiz-adv-x="514" d="M63 1104q66 53 93.5 111.5t27.5 156.5v137q0 23 27 39.5t57 16.5h25q31 0 56.5 -16.5t25.5 -39.5v-137q0 -84 -81 -179t-177 -116z" />
<glyph unicode="&#x201c;" horiz-adv-x="905" d="M139 1372v137q0 23 27 39.5t57 16.5h23q31 0 57.5 -16.5t26.5 -39.5v-137q0 -98 27.5 -156.5t93.5 -111.5l-54 -27q-96 20 -177 115.5t-81 179.5zM510 1372v137q0 23 25.5 39.5t56.5 16.5h24q31 0 57.5 -16.5t26.5 -39.5v-137q0 -98 28 -156.5t93 -111.5l-53 -27 q-96 20 -177 115.5t-81 179.5z" />
<glyph unicode="&#x201d;" horiz-adv-x="905" d="M98 1104q66 53 93.5 111.5t27.5 156.5v137q0 23 26.5 39.5t57.5 16.5h23q31 0 57.5 -16.5t26.5 -39.5v-137q0 -84 -81 -179t-177 -116zM467 1104q66 53 93.5 111.5t27.5 156.5v137q0 23 26.5 39.5t57.5 16.5h24q31 0 57.5 -16.5t26.5 -39.5v-137q0 -84 -82 -179 t-178 -116z" />
<glyph unicode="&#x2022;" horiz-adv-x="792" d="M147 584q0 94 70 158.5t170 64.5q98 0 169 -64.5t71 -158.5q0 -92 -71 -155.5t-169 -63.5q-100 0 -170 63.5t-70 155.5z" />
<glyph unicode="&#x2026;" horiz-adv-x="1118" d="M88 59v78q0 25 26.5 42.5t55.5 17.5h27q31 0 56.5 -17.5t25.5 -42.5v-78q0 -25 -26 -42t-56 -17h-27q-29 0 -55.5 17t-26.5 42zM459 59v78q0 25 27.5 42.5t58.5 17.5h24q31 0 56.5 -17.5t25.5 -42.5v-78q0 -25 -25.5 -42t-56.5 -17h-24q-31 0 -58.5 17t-27.5 42zM831 59 v78q0 25 28 42.5t59 17.5h22q31 0 57.5 -17.5t26.5 -42.5v-78q0 -25 -26.5 -42t-57.5 -17h-22q-31 0 -59 17t-28 42z" />
<glyph unicode="&#x202f;" horiz-adv-x="315" />
<glyph unicode="&#x205f;" horiz-adv-x="393" />
<glyph unicode="&#x20ac;" horiz-adv-x="1329" d="M113 549v145h90h805v-145h-545q0 -70 13 -132.5t46 -129t104.5 -106.5t174 -40t232.5 38t206 95l25 -172q-205 -127 -463 -127q-123 0 -216 28t-152.5 74t-100.5 121.5t-62.5 156.5t-36.5 194h-120zM113 854v145h120q0 106 33 198.5t99.5 170.5t181.5 123t266 45h365 l-9 -166h-352q-174 0 -264 -87t-90 -284h545v-145h-801h-94z" />
<glyph unicode="&#x2122;" horiz-adv-x="1536" d="M53 1446v90h785l225 -436l215 436h166v-686h-113v536l-217 -425h-102l-219 423v-534h-111v596h-283v-596h-110v596h-236z" />
<glyph unicode="&#xe000;" horiz-adv-x="1200" d="M0 1200h1200v-1200h-1200v1200z" />
<glyph unicode="&#xfb01;" horiz-adv-x="1337" d="M946 1427v93q0 31 14.5 44t50.5 13h93q37 0 51 -13.5t14 -43.5v-93q0 -33 -13 -45t-52 -12h-93q-39 0 -52 12t-13 45zM954 53v1092q0 23 15.5 38t35.5 15h105q20 0 34.5 -15.5t14.5 -37.5v-1092q0 -23 -14.5 -38t-34.5 -15h-105q-20 0 -35.5 16.5t-15.5 36.5zM31 1092 l26 51q20 41 66 47l65 8v72q0 133 91.5 220t265.5 87h155q31 0 39 -10q5 -6 5 -15q0 -6 -3 -14l-18 -65q-12 -43 -59 -43h-89q-92 0 -140 -44.5t-48 -121.5v-66h264q48 0 48 -29q0 -9 -5 -22l-26 -64q-10 -25 -24.5 -34t-49.5 -9h-207v-987q0 -23 -14.5 -38t-34.5 -15h-98 q-20 0 -36 16.5t-16 36.5v987h-118q-47 0 -47 26q0 11 8 26z" />
<glyph unicode="&#xfb02;" horiz-adv-x="1337" d="M954 53v1428q0 23 15.5 39t35.5 16h105q20 0 34.5 -16.5t14.5 -38.5v-1428q0 -23 -14.5 -38t-34.5 -15h-105q-20 0 -35.5 16.5t-15.5 36.5zM31 1092l26 51q20 41 66 47l65 8v72q0 133 91.5 220t265.5 87h155q31 0 39 -10q5 -6 5 -15q0 -6 -3 -14l-18 -65q-12 -43 -59 -43 h-89q-92 0 -140 -44.5t-48 -121.5v-66h264q48 0 48 -29q0 -9 -5 -22l-26 -64q-10 -25 -24.5 -34t-49.5 -9h-207v-987q0 -23 -14.5 -38t-34.5 -15h-98q-20 0 -36 16.5t-16 36.5v987h-118q-47 0 -47 26q0 11 8 26z" />
<glyph unicode="&#xfb03;" horiz-adv-x="2115" d="M1724 1427v93q0 31 14.5 44t50.5 13h93q37 0 51 -13.5t14 -43.5v-93q0 -33 -13 -45t-52 -12h-93q-39 0 -52 12t-13 45zM1732 53v1092q0 23 15.5 38t35.5 15h105q20 0 34.5 -15.5t14.5 -37.5v-1092q0 -23 -14.5 -38t-34.5 -15h-105q-20 0 -35.5 16.5t-15.5 36.5zM809 1092 l26 51q20 41 66 47l65 8v72q0 133 91.5 220t265.5 87h155q31 0 39 -10q5 -6 5 -15q0 -6 -3 -14l-18 -65q-12 -43 -59 -43h-89q-92 0 -140 -44.5t-48 -121.5v-66h264q48 0 48 -29q0 -9 -5 -22l-26 -64q-10 -25 -24.5 -34t-49.5 -9h-207v-987q0 -23 -14.5 -38t-34.5 -15h-98 q-20 0 -36 16.5t-16 36.5v987h-118q-47 0 -47 26q0 11 8 26zM31 1092l26 51q20 41 66 47l65 8v72q0 133 91.5 220t265.5 87h155q31 0 39 -10q5 -6 5 -15q0 -6 -3 -14l-18 -65q-12 -43 -59 -43h-89q-92 0 -140 -44.5t-48 -121.5v-66h264q48 0 48 -29q0 -9 -5 -22l-26 -64 q-10 -25 -24.5 -34t-49.5 -9h-207v-987q0 -23 -14.5 -38t-34.5 -15h-98q-20 0 -36 16.5t-16 36.5v987h-118q-47 0 -47 26q0 11 8 26z" />
<glyph unicode="&#xfb04;" horiz-adv-x="2115" d="M1732 53v1428q0 23 15.5 39t35.5 16h105q20 0 34.5 -16.5t14.5 -38.5v-1428q0 -23 -14.5 -38t-34.5 -15h-105q-20 0 -35.5 16.5t-15.5 36.5zM809 1092l26 51q20 41 66 47l65 8v72q0 133 91.5 220t265.5 87h155q31 0 39 -10q5 -6 5 -15q0 -6 -3 -14l-18 -65 q-12 -43 -59 -43h-89q-92 0 -140 -44.5t-48 -121.5v-66h264q48 0 48 -29q0 -9 -5 -22l-26 -64q-10 -25 -24.5 -34t-49.5 -9h-207v-987q0 -23 -14.5 -38t-34.5 -15h-98q-20 0 -36 16.5t-16 36.5v987h-118q-47 0 -47 26q0 11 8 26zM31 1092l26 51q20 41 66 47l65 8v72 q0 133 91.5 220t265.5 87h155q31 0 39 -10q5 -6 5 -15q0 -6 -3 -14l-18 -65q-12 -43 -59 -43h-89q-92 0 -140 -44.5t-48 -121.5v-66h264q48 0 48 -29q0 -9 -5 -22l-26 -64q-10 -25 -24.5 -34t-49.5 -9h-207v-987q0 -23 -14.5 -38t-34.5 -15h-98q-20 0 -36 16.5t-16 36.5v987 h-118q-47 0 -47 26q0 11 8 26z" />
</font>
</defs>
</svg>
