<?xml version="1.0" encoding="utf-8"?> <!-- Generator: IcoMoon.io --> <!DOCTYPE svg PUBLIC "-//W3C//DTD SVG 1.1//EN" "http://www.w3.org/Graphics/SVG/1.1/DTD/svg11.dtd"> <svg width="24" height="24" viewBox="0 0 24 24" xmlns="http://www.w3.org/2000/svg" xmlns:xlink="http://www.w3.org/1999/xlink" fill="#666666"><g><path d="M 22.5,6c 0.828,0, 1.5-0.672, 1.5-1.5L 24,1.5 l-3,0 L 21,0 L 1.5,0 C 0.675,0,0,0.675,0,1.5l0,21 c0,0.825, 0.675,1.5, 1.5,1.5l 19.5,0 L 21,18 l 1.5,0 c 0.828,0, 1.5-0.672, 1.5-1.5l0-3 l-3,0 l0-1.5 l 1.5,0 c 0.828,0, 1.5-0.672, 1.5-1.5l0-3 l-3,0 l0-1.5 L 22.5,6 z M 13.5,6.008 c 1.653,0, 2.992,1.34, 2.992,2.992s-1.34,2.992-2.992,2.992c-1.653,0-2.992-1.34-2.992-2.992 S 11.847,6.008, 13.5,6.008z M 6,22.5L 4.5,22.5 L 4.5,1.5 l 1.5,0 L 6,22.5 z M 18,18L 9,18 l0-1.5 c0-1.657, 1.343-3, 3-3l0,0 l 3,0 c 1.657,0, 3,1.343, 3,3 L 18,18 z"></path></g></svg>