<?xml version="1.0" encoding="utf-8"?> <!-- Generator: IcoMoon.io --> <!DOCTYPE svg PUBLIC "-//W3C//DTD SVG 1.1//EN" "http://www.w3.org/Graphics/SVG/1.1/DTD/svg11.dtd"> <svg width="24" height="24" viewBox="0 0 24 24" xmlns="http://www.w3.org/2000/svg" xmlns:xlink="http://www.w3.org/1999/xlink" fill="#666666"><g><path d="M 21,6l-4.5,0 L 16.5,3 c0-0.825-0.675-1.5-1.5-1.5L 9,1.5 c-0.825,0-1.5,0.675-1.5,1.5l0,3 L 3,6 c-1.65,0-3,1.35-3,3l0,12 c0,1.65, 1.35,3, 3,3l 18,0 c 1.65,0, 3-1.35, 3-3L 24,9 C 24,7.35, 22.65,6, 21,6z M 9,3l 6,0 l0,3 L 9,6 L 9,3 z M 18,16.5l-4.5,0 l0,4.5 l-3,0 l0-4.5 l-4.5,0 l0-3 l 4.5,0 l0-4.5 l 3,0 l0,4.5 l 4.5,0 L 18,16.5 z"></path></g></svg>