<?xml version="1.0" encoding="utf-8"?> <!-- Generator: IcoMoon.io --> <!DOCTYPE svg PUBLIC "-//W3C//DTD SVG 1.1//EN" "http://www.w3.org/Graphics/SVG/1.1/DTD/svg11.dtd"> <svg width="24" height="24" viewBox="0 0 24 24" xmlns="http://www.w3.org/2000/svg" xmlns:xlink="http://www.w3.org/1999/xlink" fill="#666666"><g><path d="M 12,3C 6.201,3, 1.5,7.701, 1.5,13.5s 4.701,10.5, 10.5,10.5s 10.5-4.701, 10.5-10.5S 17.799,3, 12,3z M 12,21.938 c-4.66,0-8.438-3.778-8.438-8.438c0-4.66, 3.778-8.438, 8.438-8.438c 4.66,0, 8.438,3.778, 8.438,8.438C 20.438,18.16, 16.66,21.938, 12,21.938z M 21.909,6.731C 22.285,6.073, 22.5,5.312, 22.5,4.5c0-2.485-2.015-4.5-4.5-4.5c-1.449,0-2.738,0.685-3.561,1.748 C 17.53,2.387, 20.186,4.214, 21.909,6.731z M 9.561,1.748C 8.738,0.685, 7.449,0, 6,0C 3.515,0, 1.5,2.015, 1.5,4.5 c0,0.812, 0.215,1.573, 0.591,2.231C 3.814,4.214, 6.47,2.387, 9.561,1.748z M 10.5,7.5l 1.5,0 l0,7.5 l-1.5,0 L 10.5,7.5 z M 12,13.5l 4.5,0 l0,1.5 l-4.5,0 L 12,13.5 z"></path></g></svg>