<?xml version="1.0" encoding="utf-8"?> <!-- Generator: IcoMoon.io --> <!DOCTYPE svg PUBLIC "-//W3C//DTD SVG 1.1//EN" "http://www.w3.org/Graphics/SVG/1.1/DTD/svg11.dtd"> <svg width="24" height="24" viewBox="0 0 24 24" xmlns="http://www.w3.org/2000/svg" xmlns:xlink="http://www.w3.org/1999/xlink" fill="#666666"><g><path d="M 13.5,12.879 L 16.061,15.439 L 13.939,17.561 L 10.5,14.121 L 10.5,9 L 13.5,9 ZM 19.5,1.5 C 21.985,1.5 24,3.515 24,6 C 24,7.523 23.243,8.869 22.085,9.683 C 20.993,6.8 18.7,4.507 15.817,3.415 C 16.631,2.257 17.977,1.5 19.5,1.5 ZM 8.183,3.415 C 5.3,4.507 3.007,6.8 1.915,9.683 C 0.757,8.869 0,7.523 0,6 C 0,3.515 2.015,1.5 4.5,1.5 C 6.023,1.5 7.369,2.257 8.183,3.415 ZM 12,4.5C 7.029,4.5, 3,8.529, 3,13.5c0,2.172, 0.77,4.164, 2.051,5.719L 4.5,24l 1.5,0 l 1.5-2.704l-0-0 C 8.824,22.061, 10.361,22.5, 12,22.5c 1.639,0, 3.176-0.439, 4.5-1.204L 16.5,21.296L 18,24l 1.5,0 l-0.551-4.78 C 20.23,17.665, 21,15.672, 21,13.5C 21,8.529, 16.971,4.5, 12,4.5z M 12,19.5c-3.314,0-6-2.686-6-6s 2.686-6, 6-6 s 6,2.686, 6,6S 15.314,19.5, 12,19.5z"></path></g></svg>