<?xml version="1.0" encoding="utf-8"?> <!-- Generator: IcoMoon.io --> <!DOCTYPE svg PUBLIC "-//W3C//DTD SVG 1.1//EN" "http://www.w3.org/Graphics/SVG/1.1/DTD/svg11.dtd"> <svg width="24" height="24.026578903198242" viewBox="0 0 24 24.026578903198242" xmlns="http://www.w3.org/2000/svg" xmlns:xlink="http://www.w3.org/1999/xlink" fill="#666666"><g><path d="M 20.25,7.5c-0.825,0-1.5,0.675-1.5,1.5l0,6 c0,0.825, 0.675,1.5, 1.5,1.5s 1.5-0.675, 1.5-1.5L 21.75,9 C 21.75,8.175, 21.075,7.5, 20.25,7.5zM 2.25,7.5c-0.825,0-1.5,0.675-1.5,1.5l0,6 c0,0.825, 0.675,1.5, 1.5,1.5s 1.5-0.675, 1.5-1.5L 3.75,9 C 3.75,8.175, 3.075,7.5, 2.25,7.5zM 4.5,17.25c0,1.243, 1.007,2.25, 2.25,2.25l 0.75,0 l0,3 c0,0.825, 0.675,1.5, 1.5,1.5s 1.5-0.675, 1.5-1.5l0-3 l 1.5,0 l0,3 c0,0.825, 0.675,1.5, 1.5,1.5s 1.5-0.675, 1.5-1.5 l0-3 l 0.75,0 c 1.243,0, 2.25-1.007, 2.25-2.25L 18,9 L 4.5,9 L 4.5,17.25 zM 14.030,2.098l 0.949-1.824c 0.048-0.091, 0.012-0.205-0.080-0.253s-0.205-0.012-0.253,0.080l-0.964,1.851 C 12.928,1.66, 12.108,1.5, 11.25,1.5c-0.858,0-1.678,0.16-2.433,0.452L 7.854,0.101c-0.048-0.091-0.161-0.127-0.253-0.080 s-0.127,0.161-0.080,0.253l 0.949,1.824c-2.124,0.961-3.662,2.99-3.929,5.402l 13.417,0 C 17.692,5.088, 16.154,3.059, 14.030,2.098z M 8.25,6.337c-0.601,0-1.087-0.487-1.087-1.087c0-0.601, 0.487-1.087, 1.087-1.087 s 1.087,0.487, 1.087,1.087C 9.337,5.851, 8.851,6.337, 8.25,6.337z M 14.25,6.337c-0.601,0-1.088-0.487-1.088-1.087 c0-0.601, 0.487-1.087, 1.088-1.087s 1.087,0.487, 1.087,1.087C 15.337,5.851, 14.851,6.337, 14.25,6.337z"></path></g></svg>