<?xml version="1.0" encoding="utf-8"?> <!-- Generator: IcoMoon.io --> <!DOCTYPE svg PUBLIC "-//W3C//DTD SVG 1.1//EN" "http://www.w3.org/Graphics/SVG/1.1/DTD/svg11.dtd"> <svg width="24" height="24" viewBox="0 0 24 24" xmlns="http://www.w3.org/2000/svg" xmlns:xlink="http://www.w3.org/1999/xlink" fill="#666666"><g><path d="M 12,24c 6.627,0, 12-5.373, 12-12S 18.627,0, 12,0S0,5.373,0,12S 5.373,24, 12,24z M 12,2.25 c 5.385,0, 9.75,4.365, 9.75,9.75s-4.365,9.75-9.75,9.75S 2.25,17.385, 2.25,12S 6.615,2.25, 12,2.25z M 16.502,18.299 C 15.584,16.772, 13.911,15.75, 12,15.75c-1.911,0-3.584,1.022-4.502,2.549l-1.93-1.158C 6.88,14.96, 9.269,13.5, 12,13.5 c 2.731,0, 5.12,1.46, 6.432,3.641L 16.502,18.299zM 17.978,6.568 C 18.078,6.97 17.834,7.377 17.432,7.478 C 17.019,7.582 16.529,7.762 16.097,7.978 C 16.347,8.246 16.5,8.605 16.5,9 C 16.5,9.828 15.828,10.5 15,10.5 C 14.172,10.5 13.5,9.828 13.5,9 C 13.5,8.973 13.501,8.945 13.502,8.918 C 13.55,7.806 14.562,7.068 15.415,6.642 C 16.229,6.235 17.034,6.031 17.068,6.022 C 17.47,5.922 17.877,6.166 17.978,6.568 ZM 6.022,6.568c 0.101-0.402, 0.508-0.646, 0.91-0.546c 0.034,0.008, 0.839,0.212, 1.653,0.619 c 0.853,0.426, 1.865,1.164, 1.912,2.277c 0.001,0.027, 0.002,0.054, 0.002,0.082c0,0.828-0.672,1.5-1.5,1.5s-1.5-0.672-1.5-1.5 c0-0.395, 0.153-0.754, 0.403-1.022c-0.432-0.216-0.921-0.396-1.334-0.5C 6.166,7.377, 5.922,6.97, 6.022,6.568z"></path></g></svg>