<?xml version="1.0" encoding="utf-8"?> <!-- Generator: IcoMoon.io --> <!DOCTYPE svg PUBLIC "-//W3C//DTD SVG 1.1//EN" "http://www.w3.org/Graphics/SVG/1.1/DTD/svg11.dtd"> <svg width="24" height="24.05699920654297" viewBox="0 0 24 24.05699920654297" xmlns="http://www.w3.org/2000/svg" xmlns:xlink="http://www.w3.org/1999/xlink" fill="#666666"><g><path d="M 18.551,12.752c-0.030-3.039, 2.479-4.497, 2.591-4.57c-1.41-2.063-3.606-2.346-4.388-2.378 c-1.869-0.189-3.647,1.1-4.595,1.1c-0.946,0-2.41-1.072-3.96-1.044c-2.037,0.030-3.915,1.184-4.964,3.009 c-2.117,3.673-0.542,9.113, 1.521,12.092c 1.008,1.458, 2.21,3.096, 3.788,3.037c 1.52-0.061, 2.094-0.983, 3.932-0.983 c 1.837,0, 2.354,0.983, 3.962,0.953c 1.635-0.030, 2.671-1.486, 3.672-2.948c 1.158-1.691, 1.634-3.329, 1.662-3.413 C 21.735,17.59, 18.582,16.383, 18.551,12.752zM 15.529,3.833C 16.366,2.816, 16.932,1.406, 16.778,0c-1.207,0.049-2.669,0.804-3.535,1.818 c-0.777,0.899-1.457,2.335-1.274,3.713C 13.315,5.636, 14.69,4.846, 15.529,3.833z"></path></g></svg>