<?xml version="1.0" encoding="utf-8"?> <!-- Generator: IcoMoon.io --> <!DOCTYPE svg PUBLIC "-//W3C//DTD SVG 1.1//EN" "http://www.w3.org/Graphics/SVG/1.1/DTD/svg11.dtd"> <svg width="24" height="24" viewBox="0 0 24 24" xmlns="http://www.w3.org/2000/svg" xmlns:xlink="http://www.w3.org/1999/xlink" fill="#666666"><g><path d="M 19.5,3c-0,0-0.001,0-0.001,0L 10.5,3 c-0.828,0-1.5,0.672-1.5,1.5s 0.672,1.5, 1.5,1.5l 5.379,0 L 3.439,18.439 c-0.586,0.586-0.586,1.536,0,2.121C 3.732,20.854, 4.116,21, 4.5,21s 0.768-0.146, 1.061-0.439L 18,8.121L 18,13.5 c0,0.828, 0.672,1.5, 1.5,1.5s 1.5-0.672, 1.5-1.5L 21,3 L 19.5,3 z"></path></g></svg>