<?xml version="1.0" encoding="utf-8"?> <!-- Generator: IcoMoon.io --> <!DOCTYPE svg PUBLIC "-//W3C//DTD SVG 1.1//EN" "http://www.w3.org/Graphics/SVG/1.1/DTD/svg11.dtd"> <svg width="24" height="24" viewBox="0 0 24 24" xmlns="http://www.w3.org/2000/svg" xmlns:xlink="http://www.w3.org/1999/xlink" fill="#666666"><g><path d="M 24,12C 24,5.373, 18.627,0, 12,0s -12,5.373, -12,12s 5.373,12, 12,12S 24,18.627, 24,12z M 2.25,12 c 0-5.385 4.365-9.75 9.75-9.75S 21.75,6.615, 21.75,12s -4.365,9.75, -9.75,9.75S 2.25,17.385, 2.25,12zM 13.061,19.061l 6-6c 0.586-0.586 0.586-1.535 0-2.121c -0.586-0.586 -1.536-0.586,-2.121,0L 13.5,14.379 L 13.5,6 c 0-0.828 -0.672-1.5 -1.5-1.5c-0.828,0, -1.5,0.672, -1.5,1.5l0,8.379 l -3.439-3.439c -0.586-0.586 -1.536-0.586,-2.121,0 C 4.646,11.232, 4.5,11.616, 4.5,12s 0.146,0.768, 0.439,1.061l 6,6C 11.525,19.646, 12.475,19.646, 13.061,19.061z"></path></g></svg>