<?xml version="1.0" encoding="utf-8"?> <!-- Generator: IcoMoon.io --> <!DOCTYPE svg PUBLIC "-//W3C//DTD SVG 1.1//EN" "http://www.w3.org/Graphics/SVG/1.1/DTD/svg11.dtd"> <svg width="24" height="24" viewBox="0 0 24 24" xmlns="http://www.w3.org/2000/svg" xmlns:xlink="http://www.w3.org/1999/xlink" fill="#666666"><g><path d="M 12,24C 18.627,24, 24,18.627, 24,12s -5.373-12, -12-12s -12,5.373, -12,12S 5.373,24, 12,24z M 12,2.25 c 5.385,0 9.75,4.365 9.75,9.75S 17.385,21.75, 12,21.75s -9.75-4.365, -9.75-9.75S 6.615,2.25, 12,2.25zM 15,18c 0.828,0 1.5-0.672 1.5-1.5s -0.672-1.5, -1.5-1.5l-3.879,0 L 17.561,8.561c 0.586-0.586 0.586-1.536,0-2.121 C 17.268,6.146, 16.884,6, 16.5,6s -0.768,0.146, -1.061,0.439L 9,12.879L 9,9 c0-0.828, -0.672-1.5, -1.5-1.5s -1.5,0.672, -1.5,1.5L 6,18 L 15,18 z"></path></g></svg>