<?xml version="1.0" encoding="utf-8"?> <!-- Generator: IcoMoon.io --> <!DOCTYPE svg PUBLIC "-//W3C//DTD SVG 1.1//EN" "http://www.w3.org/Graphics/SVG/1.1/DTD/svg11.dtd"> <svg width="24" height="24" viewBox="0 0 24 24" xmlns="http://www.w3.org/2000/svg" xmlns:xlink="http://www.w3.org/1999/xlink" fill="#666666"><g><path d="M 3.439,14.561l 7.5,7.5c 0.586,0.586, 1.536,0.586, 2.121,0l 7.5-7.5c 0.586-0.586, 0.586-1.536,0-2.121 c-0.586-0.586-1.536-0.586-2.121,0L 13.5,17.379L 13.5,3 c0-0.828-0.672-1.5-1.5-1.5s-1.5,0.672-1.5,1.5l0,14.379 L 5.561,12.439 C 5.268,12.146, 4.884,12, 4.5,12s-0.768,0.146-1.061,0.439C 2.854,13.025, 2.854,13.975, 3.439,14.561z"></path></g></svg>