<?xml version="1.0" encoding="utf-8"?> <!-- Generator: IcoMoon.io --> <!DOCTYPE svg PUBLIC "-//W3C//DTD SVG 1.1//EN" "http://www.w3.org/Graphics/SVG/1.1/DTD/svg11.dtd"> <svg width="24" height="24" viewBox="0 0 24 24" xmlns="http://www.w3.org/2000/svg" xmlns:xlink="http://www.w3.org/1999/xlink" fill="#666666"><g><path d="M 9.439,3.439l-7.5,7.5c-0.586,0.586-0.586,1.536,0,2.121l 7.5,7.5c 0.586,0.586, 1.536,0.586, 2.121,0 c 0.586-0.586, 0.586-1.536,0-2.121L 6.621,13.5L 21,13.5 c 0.828,0, 1.5-0.672, 1.5-1.5c0-0.828-0.672-1.5-1.5-1.5L 6.621,10.5 l 4.939-4.939 C 11.854,5.268, 12,4.884, 12,4.5s-0.146-0.768-0.439-1.061C 10.975,2.854, 10.025,2.854, 9.439,3.439z"></path></g></svg>