<?xml version="1.0" encoding="utf-8"?> <!-- Generator: IcoMoon.io --> <!DOCTYPE svg PUBLIC "-//W3C//DTD SVG 1.1//EN" "http://www.w3.org/Graphics/SVG/1.1/DTD/svg11.dtd"> <svg width="24" height="24" viewBox="0 0 24 24" xmlns="http://www.w3.org/2000/svg" xmlns:xlink="http://www.w3.org/1999/xlink" fill="#666666"><g><path d="M 12,0C 5.373,0,0,5.373,0,12s 5.373,12, 12,12s 12-5.373, 12-12S 18.627,0, 12,0z M 12,21.75 c-5.385,0-9.75-4.365-9.75-9.75S 6.615,2.25, 12,2.25s 9.75,4.365, 9.75,9.75S 17.385,21.75, 12,21.75zM 19.061,10.939l-6-6c-0.586-0.586-1.535-0.586-2.121,0c-0.586,0.586-0.586,1.536,0,2.121L 14.379,10.5 L 6,10.5 c-0.828,0-1.5,0.672-1.5,1.5c0,0.828, 0.672,1.5, 1.5,1.5l 8.379,0 l-3.439,3.439c-0.586,0.586-0.586,1.536,0,2.121 C 11.232,19.354, 11.616,19.5, 12,19.5s 0.768-0.146, 1.061-0.439l 6-6C 19.646,12.475, 19.646,11.525, 19.061,10.939z"></path></g></svg>