<?xml version="1.0" encoding="utf-8"?> <!-- Generator: IcoMoon.io --> <!DOCTYPE svg PUBLIC "-//W3C//DTD SVG 1.1//EN" "http://www.w3.org/Graphics/SVG/1.1/DTD/svg11.dtd"> <svg width="24" height="24" viewBox="0 0 24 24" xmlns="http://www.w3.org/2000/svg" xmlns:xlink="http://www.w3.org/1999/xlink" fill="#666666"><g><path d="M 20.561,9.439l-7.5-7.5c-0.586-0.586-1.535-0.586-2.121,0l-7.5,7.5c-0.586,0.586-0.586,1.536,0,2.121 c 0.586,0.586, 1.536,0.586, 2.121,0L 10.5,6.621L 10.5,21 c0,0.828, 0.672,1.5, 1.5,1.5c 0.828,0, 1.5-0.672, 1.5-1.5L 13.5,6.621 l 4.939,4.939 C 18.732,11.854, 19.116,12, 19.5,12s 0.768-0.146, 1.061-0.439C 21.146,10.975, 21.146,10.025, 20.561,9.439z"></path></g></svg>