<?xml version="1.0" encoding="utf-8"?> <!-- Generator: IcoMoon.io --> <!DOCTYPE svg PUBLIC "-//W3C//DTD SVG 1.1//EN" "http://www.w3.org/Graphics/SVG/1.1/DTD/svg11.dtd"> <svg width="24" height="24" viewBox="0 0 24 24" xmlns="http://www.w3.org/2000/svg" xmlns:xlink="http://www.w3.org/1999/xlink" fill="#666666"><g><path d="M 14.561,20.561l 7.5-7.5c 0.586-0.586, 0.586-1.536,0-2.121l-7.5-7.5c-0.586-0.586-1.536-0.586-2.121,0 c-0.586,0.586-0.586,1.536,0,2.121L 17.379,10.5L 3,10.5 c-0.828,0-1.5,0.672-1.5,1.5s 0.672,1.5, 1.5,1.5l 14.379,0 L 12.439,18.439 C 12.146,18.732, 12,19.116, 12,19.5s 0.146,0.768, 0.439,1.061C 13.025,21.146, 13.975,21.146, 14.561,20.561z"></path></g></svg>