<?xml version="1.0" encoding="utf-8"?> <!-- Generator: IcoMoon.io --> <!DOCTYPE svg PUBLIC "-//W3C//DTD SVG 1.1//EN" "http://www.w3.org/Graphics/SVG/1.1/DTD/svg11.dtd"> <svg width="24" height="25.258359909057617" viewBox="0 0 24 25.258359909057617" xmlns="http://www.w3.org/2000/svg" xmlns:xlink="http://www.w3.org/1999/xlink" fill="#666666"><g><path d="M 16.355,7.665l-1.522-1.522L 7.22,13.755c-1.261,1.261-1.261,3.306,0,4.567 c 1.261,1.261, 3.306,1.261, 4.567,0l 9.135-9.134c 2.103-2.101, 2.103-5.509,0-7.611 c-2.102-2.102-5.51-2.102-7.612,0L 3.719,11.166l 0.001,0.001c-0.007,0.007-0.014,0.013-0.021,0.020 c-2.932,2.932-2.932,7.684,0,10.615c 2.931,2.931, 7.684,2.931, 10.617,0c 0.006-0.006, 0.012-0.013, 0.019-0.021l 0.001,0.001 l 6.547-6.546l-1.523-1.522L 12.813,20.26l-0,0 c-0.007,0.006-0.013,0.013-0.020,0.020 c-2.088,2.087-5.484,2.087-7.572,0c-2.087-2.087-2.087-5.483,0-7.57c 0.007-0.007, 0.014-0.014, 0.021-0.020l-0.001-0.001 l 9.592-9.59c 1.259-1.259, 3.308-1.259, 4.568,0c 1.259,1.259, 1.259,3.308,0,4.567L 10.266,16.799 c-0.42,0.42-1.103,0.42-1.523,0c-0.419-0.419-0.419-1.102,0-1.522L 16.355,7.665z"></path></g></svg>