<?xml version="1.0" encoding="utf-8"?> <!-- Generator: IcoMoon.io --> <!DOCTYPE svg PUBLIC "-//W3C//DTD SVG 1.1//EN" "http://www.w3.org/Graphics/SVG/1.1/DTD/svg11.dtd"> <svg width="24" height="24" viewBox="0 0 24 24" xmlns="http://www.w3.org/2000/svg" xmlns:xlink="http://www.w3.org/1999/xlink" fill="#666666"><g><path d="M0,3L 3,3L 3,18L0,18zM 4.5,3L 6,3L 6,18L 4.5,18zM 7.5,3L 9,3L 9,18L 7.5,18zM 12,3L 13.5,3L 13.5,18L 12,18zM 18,3L 19.5,3L 19.5,18L 18,18zM 22.5,3L 24,3L 24,18L 22.5,18zM 15,3L 15.75,3L 15.75,18L 15,18zM 10.5,3L 11.25,3L 11.25,18L 10.5,18zM 20.25,3L 21,3L 21,18L 20.25,18zM0,19.5L 1.5,19.5L 1.5,21L0,21zM 4.5,19.5L 6,19.5L 6,21L 4.5,21zM 7.5,19.5L 9,19.5L 9,21L 7.5,21zM 15,19.5L 16.5,19.5L 16.5,21L 15,21zM 22.5,19.5L 24,19.5L 24,21L 22.5,21zM 18,19.5L 21,19.5L 21,21L 18,21zM 10.5,19.5L 13.5,19.5L 13.5,21L 10.5,21z"></path></g></svg>