<?xml version="1.0" encoding="utf-8"?> <!-- Generator: IcoMoon.io --> <!DOCTYPE svg PUBLIC "-//W3C//DTD SVG 1.1//EN" "http://www.w3.org/Graphics/SVG/1.1/DTD/svg11.dtd"> <svg width="24" height="24" viewBox="0 0 24 24" xmlns="http://www.w3.org/2000/svg" xmlns:xlink="http://www.w3.org/1999/xlink" fill="#666666"><g><path d="M 6.75,9L 2.25,9 c-0.413,0-0.75,0.338-0.75,0.75l0,13.5 c0,0.413, 0.338,0.75, 0.75,0.75l 4.5,0 c 0.413,0, 0.75-0.338, 0.75-0.75L 7.5,9.75 C 7.5,9.337, 7.163,9, 6.75,9z M 6.75,22.5 L 2.25,22.5 L 2.25,16.5 l 4.5,0 L 6.75,22.5 zM 14.25,6l-4.5,0 c-0.413,0-0.75,0.338-0.75,0.75l0,16.5 c0,0.413, 0.338,0.75, 0.75,0.75l 4.5,0 c 0.413,0, 0.75-0.338, 0.75-0.75L 15,6.75 C 15,6.337, 14.663,6, 14.25,6z M 14.25,22.5l-4.5,0 L 9.75,15 l 4.5,0 L 14.25,22.5 zM 21.75,3l-4.5,0 c-0.413,0-0.75,0.338-0.75,0.75l0,19.5 c0,0.413, 0.338,0.75, 0.75,0.75l 4.5,0 c 0.413,0, 0.75-0.338, 0.75-0.75L 22.5,3.75 C 22.5,3.338, 22.163,3, 21.75,3z M 21.75,22.5l-4.5,0 L 17.25,13.5 l 4.5,0 L 21.75,22.5 z"></path></g></svg>