<?xml version="1.0" encoding="utf-8"?> <!-- Generator: IcoMoon.io --> <!DOCTYPE svg PUBLIC "-//W3C//DTD SVG 1.1//EN" "http://www.w3.org/Graphics/SVG/1.1/DTD/svg11.dtd"> <svg width="24.03515625" height="24" viewBox="0 0 24.03515625 24" xmlns="http://www.w3.org/2000/svg" xmlns:xlink="http://www.w3.org/1999/xlink" fill="#666666"><g><path d="M 24.035,18.75c0-6.75-6-5.25-6-10.5c0-0.435-0.042-0.807-0.118-1.123c-0.394-2.649-2.16-4.775-4.448-5.423 c 0.020-0.093, 0.031-0.188, 0.031-0.286C 13.5,0.638, 12.825,0, 12,0c-0.825,0-1.5,0.638-1.5,1.418c0,0.098, 0.011,0.194, 0.031,0.286 c-2.566,0.727-4.475,3.312-4.529,6.409c-0.001,0.045-0.002,0.091-0.002,0.137C 6,13.5,0,12,0,18.75 c0,1.787, 3.998,3.281, 9.351,3.658C 9.855,23.355, 10.852,24, 12,24s 2.145-0.645, 2.649-1.592 C 20.002,22.031, 24,20.537, 24,18.75c0-0.005-0.001-0.011-0.001-0.016L 24.035,18.75z M 19.365,20.018 c-1.271,0.339-2.769,0.583-4.377,0.718C 14.854,19.203, 13.568,18, 12,18s-2.854,1.203-2.988,2.736 c-1.608-0.135-3.106-0.379-4.377-0.718C 2.886,19.551, 2.049,19.029, 1.743,18.75c 0.306-0.279, 1.142-0.801, 2.891-1.268 C 6.669,16.939, 9.284,16.641, 12,16.641s 5.331,0.299, 7.365,0.842c 1.749,0.467, 2.585,0.989, 2.891,1.268 C 21.951,19.029, 21.114,19.551, 19.365,20.018z"></path></g></svg>