<?xml version="1.0" encoding="utf-8"?> <!-- Generator: IcoMoon.io --> <!DOCTYPE svg PUBLIC "-//W3C//DTD SVG 1.1//EN" "http://www.w3.org/Graphics/SVG/1.1/DTD/svg11.dtd"> <svg width="24" height="24" viewBox="0 0 24 24" xmlns="http://www.w3.org/2000/svg" xmlns:xlink="http://www.w3.org/1999/xlink" fill="#666666"><g><path d="M 1.5,0L 10.5,0L 10.5,1.5L 1.5,1.5zM 13.5,0L 22.5,0L 22.5,1.5L 13.5,1.5zM 22.313,7.5l-1.313,0 L 21,1.5 L 15,1.5 l0,6 L 9,7.5 L 9,1.5 L 3,1.5 l0,6 L 1.688,7.5 c-0.928,0-1.688,0.759-1.688,1.688l0,13.125 c0,0.928, 0.759,1.688, 1.688,1.688l 7.125,0 c 0.928,0, 1.688-0.759, 1.688-1.688L 10.5,13.5 l 3,0 l0,8.813 c0,0.928, 0.759,1.688, 1.688,1.688l 7.125,0 c 0.928,0, 1.688-0.759, 1.688-1.688L 24,9.188 C 24,8.259, 23.241,7.5, 22.313,7.5z M 8.156,22.5L 2.344,22.5 c-0.464,0-0.844-0.338-0.844-0.75 s 0.38-0.75, 0.844-0.75l 5.813,0 c 0.464,0, 0.844,0.338, 0.844,0.75S 8.62,22.5, 8.156,22.5z M 12.75,12l-1.5,0 c-0.413,0-0.75-0.338-0.75-0.75s 0.338-0.75, 0.75-0.75l 1.5,0 c 0.413,0, 0.75,0.338, 0.75,0.75 S 13.163,12, 12.75,12z M 21.656,22.5L 15.844,22.5 c-0.464,0-0.844-0.338-0.844-0.75s 0.38-0.75, 0.844-0.75l 5.813,0 c 0.464,0, 0.844,0.338, 0.844,0.75S 22.12,22.5, 21.656,22.5z"></path></g></svg>