<?xml version="1.0" encoding="utf-8"?> <!-- Generator: IcoMoon.io --> <!DOCTYPE svg PUBLIC "-//W3C//DTD SVG 1.1//EN" "http://www.w3.org/Graphics/SVG/1.1/DTD/svg11.dtd"> <svg width="24" height="24" viewBox="0 0 24 24" xmlns="http://www.w3.org/2000/svg" xmlns:xlink="http://www.w3.org/1999/xlink" fill="#666666"><g><path d="M0,12c0,6.627, 5.373,12, 12,12c 6.627,0, 12-5.373, 12-12S 18.627,0, 12,0C 5.373,0,0,5.373,0,12z M 21,12 c0,1.716-0.481,3.321-1.315,4.685L 7.315,4.315C 8.679,3.481, 10.284,3, 12,3C 16.971,3, 21,7.029, 21,12z M 3,12 c0-1.716, 0.481-3.321, 1.315-4.685l 12.371,12.371C 15.321,20.519, 13.716,21, 12,21C 7.029,21, 3,16.971, 3,12z"></path></g></svg>