<?xml version="1.0" encoding="utf-8"?> <!-- Generator: IcoMoon.io --> <!DOCTYPE svg PUBLIC "-//W3C//DTD SVG 1.1//EN" "http://www.w3.org/Graphics/SVG/1.1/DTD/svg11.dtd"> <svg width="24" height="24" viewBox="0 0 24 24" xmlns="http://www.w3.org/2000/svg" xmlns:xlink="http://www.w3.org/1999/xlink" fill="#666666"><g><path d="M 9,4.5 C 14.799,4.5 19.5,9.201 19.5,15 L 17.25,15 C 17.25,12.796 16.392,10.725 14.834,9.166 C 13.275,7.608 11.204,6.75 9,6.75 L 9,4.5 ZM 9,0 C 17.284,0 24,6.716 24,15 L 21.75,15 C 21.75,13.278 21.413,11.608 20.749,10.038 C 20.107,8.52 19.187,7.156 18.016,5.984 C 16.844,4.813 15.48,3.893 13.962,3.251 C 12.392,2.587 10.722,2.25 9,2.25 L 9,0 ZM 13.462,10.538 C 14.488,11.563 15,12.907 14.999,14.251 C 13.5,16.501 13.5,19.5 13.5,19.5 C 7.5,19.5 3,24 3,24 L 2.672,23.672 L 2.13,23.13 L 8.776,16.483 C 8.849,16.494 8.924,16.5 9,16.5 C 9.828,16.5 10.5,15.828 10.5,15 C 10.5,14.172 9.828,13.5 9,13.5 C 8.172,13.5 7.5,14.172 7.5,15 C 7.5,15.076 7.506,15.151 7.517,15.224 L 0.87,21.87 L 0,21 C 0,21 4.5,16.5 4.5,10.5 C 4.5,10.5 7.5,10.5 9.75,9 C 11.094,9 12.437,9.513 13.462,10.538 Z"></path></g></svg>