<?xml version="1.0" encoding="utf-8"?> <!-- Generator: IcoMoon.io --> <!DOCTYPE svg PUBLIC "-//W3C//DTD SVG 1.1//EN" "http://www.w3.org/Graphics/SVG/1.1/DTD/svg11.dtd"> <svg width="24" height="24" viewBox="0 0 24 24" xmlns="http://www.w3.org/2000/svg" xmlns:xlink="http://www.w3.org/1999/xlink" fill="#666666"><g><path d="M 22.448,9l-1.317,0 l-0.028,0 c-0.824,0-1.547-0.697-1.603-1.5l0,0C 19.5,3.219, 16.049,0, 11.738,0l-3.933,0 C 3.496,0, 0.003,3.469,0,7.75l0,8.503 C0,20.534, 3.496,24, 7.804,24l 8.4,0 C 20.516,24, 24,20.534, 24,16.253L 24,10.76 C 24,9.904, 23.31,9, 22.448,9z M 7.5,6l 4.5,0 c 0.825,0, 1.5,0.675, 1.5,1.5s-0.675,1.5-1.5,1.5l-4.5,0 c-0.825,0-1.5-0.675-1.5-1.5S 6.675,6, 7.5,6 z M 16.5,18L 7.5,18 c-0.825,0-1.5-0.675-1.5-1.5s 0.675-1.5, 1.5-1.5l 9,0 c 0.825,0, 1.5,0.675, 1.5,1.5S 17.325,18, 16.5,18z"></path></g></svg>