<?xml version="1.0" encoding="utf-8"?> <!-- Generator: IcoMoon.io --> <!DOCTYPE svg PUBLIC "-//W3C//DTD SVG 1.1//EN" "http://www.w3.org/Graphics/SVG/1.1/DTD/svg11.dtd"> <svg width="24" height="24" viewBox="0 0 24 24" xmlns="http://www.w3.org/2000/svg" xmlns:xlink="http://www.w3.org/1999/xlink" fill="#666666"><g><path d="M 20,0L 4,0 C 1.791,0,0,1.791,0,4l0,15.999 C0,22.209, 1.791,24, 4,24l 16.001,0 c 2.209,0, 4-1.791, 4-4L 24,4C 24,1.791, 22.209,0, 20,0z M 21,15.19 C 21,18.401, 18.387,21, 15.154,21L 8.853,21 C 5.622,21, 3,18.401, 3,15.19L 3,8.813 c 0.002-3.211, 2.622-5.813, 5.853-5.813l 2.95,0 C 15.037,3, 17.625,5.414, 17.625,8.625c 0.042,0.602, 0.584,1.125, 1.202,1.125l 0.021,0 l 0.988,0 C 20.482,9.75, 21,10.428, 21,11.070L 21,15.19 zM 16.5,15c0,0.825-0.675,1.5-1.5,1.5L 9,16.5 c-0.825,0-1.5-0.675-1.5-1.5l0,0c0-0.825, 0.675-1.5, 1.5-1.5l 6,0 C 15.825,13.5, 16.5,14.175, 16.5,15 L 16.5,15zM 13.5,9c0,0.825-0.675,1.5-1.5,1.5l-3,0 c-0.825,0-1.5-0.675-1.5-1.5l0,0c0-0.825, 0.675-1.5, 1.5-1.5l 3,0 C 12.825,7.5, 13.5,8.175, 13.5,9L 13.5,9 z"></path></g></svg>