<?xml version="1.0" encoding="utf-8"?> <!-- Generator: IcoMoon.io --> <!DOCTYPE svg PUBLIC "-//W3C//DTD SVG 1.1//EN" "http://www.w3.org/Graphics/SVG/1.1/DTD/svg11.dtd"> <svg width="24" height="24" viewBox="0 0 24 24" xmlns="http://www.w3.org/2000/svg" xmlns:xlink="http://www.w3.org/1999/xlink" fill="#666666"><g><path d="M 16.591,11.359C 17.47,10.315, 18,8.968, 18,7.5c0-3.308-2.692-6-6-6l-3,0 l-3,0 L 4.5,1.5 l0,21 l 1.5,0 l 3,0 l 4.5,0 c 3.308,0, 6-2.692, 6-6C 19.5,14.321, 18.333,12.41, 16.591,11.359z M 9,4.5l 2.379,0 c 1.312,0, 2.379,1.346, 2.379,3 s-1.067,3-2.379,3L 9,10.5 L 9,4.5 z M 12.727,19.5L 9,19.5 L 9,13.5 l 3.727,0 c 1.37,0, 2.484,1.346, 2.484,3S 14.096,19.5, 12.727,19.5z"></path></g></svg>