<?xml version="1.0" encoding="utf-8"?> <!-- Generator: IcoMoon.io --> <!DOCTYPE svg PUBLIC "-//W3C//DTD SVG 1.1//EN" "http://www.w3.org/Graphics/SVG/1.1/DTD/svg11.dtd"> <svg width="24" height="24" viewBox="0 0 24 24" xmlns="http://www.w3.org/2000/svg" xmlns:xlink="http://www.w3.org/1999/xlink" fill="#666666"><g><path d="M 22.5,6L 16.5,6 L 16.5,4.5 c0-0.825-0.675-1.5-1.5-1.5L 9,3 c-0.825,0-1.5,0.675-1.5,1.5l0,1.5 L 1.5,6 c-0.825,0-1.5,0.675-1.5,1.5l0,13.5 c0,0.825, 0.675,1.5, 1.5,1.5l 21,0 c 0.825,0, 1.5-0.675, 1.5-1.5L 24,7.5 C 24,6.675, 23.325,6, 22.5,6z M 9,4.503 c 0.001-0.001, 0.002-0.002, 0.003-0.003l 5.995,0 c 0.001,0.001, 0.002,0.002, 0.003,0.003L 15,6 L 9,6 L 9,4.503 z M 22.5,12l-3,0 l0,2.25 c0,0.413-0.338,0.75-0.75,0.75l-1.5,0 c-0.413,0-0.75-0.337-0.75-0.75l0-2.25 L 7.5,12 l0,2.25 c0,0.413-0.338,0.75-0.75,0.75l-1.5,0 c-0.413,0-0.75-0.337-0.75-0.75l0-2.25 L 1.5,12 l0-1.5 l 21,0 L 22.5,12 z"></path></g></svg>