<?xml version="1.0" encoding="utf-8"?> <!-- Generator: IcoMoon.io --> <!DOCTYPE svg PUBLIC "-//W3C//DTD SVG 1.1//EN" "http://www.w3.org/Graphics/SVG/1.1/DTD/svg11.dtd"> <svg width="24" height="24" viewBox="0 0 24 24" xmlns="http://www.w3.org/2000/svg" xmlns:xlink="http://www.w3.org/1999/xlink" fill="#666666"><g><path d="M 12,6c-3.314,0-6,2.686-6,6s 2.686,6, 6,6s 6-2.686, 6-6S 15.314,6, 12,6z M 12,15.75L 12,8.25 c 2.068,0, 3.75,1.682, 3.75,3.75S 14.068,15.75, 12,15.75zM 12,19.5 C 12.828,19.5 13.5,20.172 13.5,21 L 13.5,22.5 C 13.5,23.328 12.828,24 12,24 C 11.172,24 10.5,23.328 10.5,22.5 L 10.5,21 C 10.5,20.172 11.172,19.5 12,19.5 ZM 12,4.5 C 11.172,4.5 10.5,3.828 10.5,3 L 10.5,1.5 C 10.5,0.672 11.172,0 12,0 C 12.828,0 13.5,0.672 13.5,1.5 L 13.5,3 C 13.5,3.828 12.828,4.5 12,4.5 ZM 22.5,10.5 C 23.328,10.5 24,11.172 24,12 C 24,12.828 23.328,13.5 22.5,13.5 L 21,13.5 C 20.172,13.5 19.5,12.828 19.5,12 C 19.5,11.172 20.172,10.5 21,10.5 L 22.5,10.5 ZM 4.5,12 C 4.5,12.828 3.828,13.5 3,13.5 L 1.5,13.5 C 0.672,13.5 0,12.828 0,12 C 0,11.172 0.672,10.5 1.5,10.5 L 3,10.5 C 3.828,10.5 4.5,11.172 4.5,12 ZM 19.425,17.303 L 20.485,18.364 C 21.071,18.95 21.071,19.9 20.485,20.485 C 19.9,21.071 18.95,21.071 18.364,20.485 L 17.303,19.425 C 16.718,18.839 16.718,17.889 17.303,17.303 C 17.889,16.718 18.839,16.718 19.425,17.303 ZM 4.575,6.697 L 3.515,5.636 C 2.929,5.050 2.929,4.1 3.515,3.515 C 4.1,2.929 5.050,2.929 5.636,3.515 L 6.697,4.575 C 7.283,5.161 7.283,6.111 6.697,6.697 C 6.111,7.283 5.161,7.283 4.575,6.697 ZM 19.425,6.697 C 18.839,7.282 17.889,7.282 17.303,6.697 C 16.718,6.111 16.718,5.161 17.303,4.575 L 18.364,3.515 C 18.95,2.929 19.9,2.929 20.485,3.515 C 21.071,4.101 21.071,5.050 20.485,5.636 L 19.425,6.697 ZM 4.575,17.303 C 5.161,16.718 6.111,16.718 6.697,17.303 C 7.282,17.889 7.282,18.839 6.697,19.425 L 5.636,20.485 C 5.050,21.071 4.1,21.071 3.515,20.485 C 2.929,19.9 2.929,18.95 3.515,18.364 L 4.575,17.303 Z"></path></g></svg>