<?xml version="1.0" encoding="utf-8"?> <!-- Generator: IcoMoon.io --> <!DOCTYPE svg PUBLIC "-//W3C//DTD SVG 1.1//EN" "http://www.w3.org/Graphics/SVG/1.1/DTD/svg11.dtd"> <svg width="24" height="24" viewBox="0 0 24 24" xmlns="http://www.w3.org/2000/svg" xmlns:xlink="http://www.w3.org/1999/xlink" fill="#666666"><g><path d="M 12,9.891 C 10.837,9.891 9.891,10.837 9.891,12 C 9.891,13.163 10.837,14.109 12,14.109 C 13.163,14.109 14.109,13.163 14.109,12 C 14.109,10.837 13.163,9.891 12,9.891 Z M 12,7.5 L 12,7.5 C 14.485,7.5 16.5,9.515 16.5,12 C 16.5,14.485 14.485,16.5 12,16.5 C 9.515,16.5 7.5,14.485 7.5,12 C 7.5,9.515 9.515,7.5 12,7.5 ZM 20.561,18.439 C 21.146,19.025 21.146,19.975 20.561,20.561 C 19.975,21.146 19.025,21.146 18.439,20.561 L 16.939,19.061 C 16.354,18.475 16.354,17.525 16.939,16.939 C 17.525,16.354 18.475,16.354 19.061,16.939 L 20.561,18.439 ZM 7.061,4.939 C 7.646,5.525 7.646,6.475 7.061,7.061 C 6.475,7.646 5.525,7.646 4.939,7.061 L 3.439,5.561 C 2.854,4.975 2.854,4.025 3.439,3.439 C 4.025,2.854 4.975,2.854 5.561,3.439 L 7.061,4.939 ZM 18.439,3.439 C 19.025,2.854 19.975,2.854 20.561,3.439 C 21.146,4.025 21.146,4.975 20.561,5.561 L 19.061,7.061 C 18.475,7.646 17.525,7.646 16.939,7.061 C 16.354,6.475 16.354,5.525 16.939,4.939 L 18.439,3.439 ZM 4.939,16.939 C 5.525,16.354 6.475,16.354 7.061,16.939 C 7.646,17.525 7.646,18.475 7.061,19.061 L 5.561,20.561 C 4.975,21.146 4.025,21.146 3.439,20.561 C 2.854,19.975 2.854,19.025 3.439,18.439 L 4.939,16.939 ZM 12,1.5 C 12.828,1.5 13.5,2.172 13.5,3 L 13.5,4.5 C 13.5,5.328 12.828,6 12,6 C 11.172,6 10.5,5.328 10.5,4.5 L 10.5,3 C 10.5,2.172 11.172,1.5 12,1.5 ZM 12,18 C 12.828,18 13.5,18.672 13.5,19.5 L 13.5,21 C 13.5,21.828 12.828,22.5 12,22.5 C 11.172,22.5 10.5,21.828 10.5,21 L 10.5,19.5 C 10.5,18.672 11.172,18 12,18 ZM 1.5,12 C 1.5,11.172 2.172,10.5 3,10.5 L 4.5,10.5 C 5.328,10.5 6,11.172 6,12 C 6,12.828 5.328,13.5 4.5,13.5 L 3,13.5 C 2.172,13.5 1.5,12.828 1.5,12 ZM 18,12 C 18,11.172 18.672,10.5 19.5,10.5 L 21,10.5 C 21.828,10.5 22.5,11.172 22.5,12 C 22.5,12.828 21.828,13.5 21,13.5 L 19.5,13.5 C 18.672,13.5 18,12.828 18,12 Z"></path></g></svg>