<?xml version="1.0" encoding="utf-8"?> <!-- Generator: IcoMoon.io --> <!DOCTYPE svg PUBLIC "-//W3C//DTD SVG 1.1//EN" "http://www.w3.org/Graphics/SVG/1.1/DTD/svg11.dtd"> <svg width="27" height="24" viewBox="0 0 27 24" xmlns="http://www.w3.org/2000/svg" xmlns:xlink="http://www.w3.org/1999/xlink" fill="#666666"><g><path d="M 11.25,0 L 11.25,0 C 17.463,0 22.5,4.076 22.5,9.104 C 22.5,14.132 17.463,18.209 11.25,18.209 C 10.653,18.209 10.068,18.171 9.496,18.098 C 7.080,20.505 4.289,20.937 1.5,21 L 1.5,20.411 C 3.006,19.676 4.219,18.337 4.219,16.808 C 4.219,16.594 4.202,16.385 4.171,16.18 C 1.627,14.511 0,11.961 0,9.104 C 0,4.076 5.037,0 11.25,0 ZM 23.344,20.407 C 23.344,21.718 24.195,22.865 25.5,23.495 L 25.5,24 C 23.083,23.946 20.864,23.576 18.77,21.513 C 18.275,21.575 17.767,21.607 17.25,21.607 C 15.012,21.607 12.951,21.004 11.306,19.989 C 14.697,19.977 17.898,18.891 20.325,16.927 C 21.549,15.936 22.514,14.774 23.195,13.473 C 23.916,12.093 24.281,10.624 24.281,9.104 C 24.281,8.859 24.271,8.616 24.252,8.374 C 25.953,9.778 27,11.693 27,13.804 C 27,16.253 25.59,18.438 23.385,19.868 C 23.358,20.044 23.344,20.224 23.344,20.407 Z"></path></g></svg>