<?xml version="1.0" encoding="utf-8"?> <!-- Generator: IcoMoon.io --> <!DOCTYPE svg PUBLIC "-//W3C//DTD SVG 1.1//EN" "http://www.w3.org/Graphics/SVG/1.1/DTD/svg11.dtd"> <svg width="27" height="24" viewBox="0 0 27 24" xmlns="http://www.w3.org/2000/svg" xmlns:xlink="http://www.w3.org/1999/xlink" fill="#666666"><g><path d="M 25.5,21.121 C 25.5,22.187 26.11,23.111 27,23.563 L 27,23.936 C 26.751,23.971 26.497,23.989 26.238,23.989 C 24.644,23.989 23.207,23.32 22.19,22.248 C 21.576,22.412 20.924,22.5 20.25,22.5 C 16.522,22.5 13.5,19.814 13.5,16.5 C 13.5,13.186 16.522,10.5 20.25,10.5 C 23.978,10.5 27,13.186 27,16.5 C 27,17.797 26.537,18.998 25.749,19.98 C 25.59,20.327 25.5,20.714 25.5,21.121 ZM 12,0 C 18.526,0 23.836,4.233 23.996,9.504 C 22.843,8.991 21.568,8.719 20.25,8.719 C 18.010,8.719 15.895,9.503 14.294,10.926 C 12.633,12.402 11.719,14.382 11.719,16.5 C 11.719,17.547 11.942,18.56 12.369,19.495 C 12.246,19.498 12.123,19.5 12,19.5 C 11.364,19.5 10.739,19.459 10.129,19.382 C 7.552,21.959 4.475,22.422 1.5,22.489 L 1.5,21.859 C 3.106,21.072 4.5,19.638 4.5,18 C 4.5,17.771 4.482,17.547 4.449,17.327 C 1.735,15.54 0,12.81 0,9.75 C 0,4.365 5.373,0 12,0 Z"></path></g></svg>