<?xml version="1.0" encoding="utf-8"?> <!-- Generator: IcoMoon.io --> <!DOCTYPE svg PUBLIC "-//W3C//DTD SVG 1.1//EN" "http://www.w3.org/Graphics/SVG/1.1/DTD/svg11.dtd"> <svg width="27" height="24" viewBox="0 0 27 24" xmlns="http://www.w3.org/2000/svg" xmlns:xlink="http://www.w3.org/1999/xlink" fill="#666666"><g><path d="M 11.25,3 C 10.063,3 8.916,3.186 7.843,3.554 C 6.836,3.898 5.941,4.384 5.182,4.999 C 3.775,6.137 3,7.596 3,9.104 C 3,9.948 3.236,10.767 3.701,11.539 C 4.186,12.344 4.918,13.081 5.817,13.671 C 6.53,14.139 7.011,14.889 7.138,15.733 C 7.159,15.873 7.176,16.014 7.189,16.155 C 7.253,16.096 7.316,16.035 7.379,15.972 C 7.945,15.409 8.708,15.098 9.496,15.098 C 9.621,15.098 9.747,15.106 9.873,15.122 C 10.327,15.179 10.79,15.208 11.25,15.208 C 12.437,15.208 13.584,15.022 14.657,14.655 C 15.664,14.31 16.559,13.824 17.318,13.21 C 18.725,12.071 19.5,10.613 19.5,9.104 C 19.5,7.596 18.725,6.137 17.318,4.999 C 16.559,4.384 15.664,3.898 14.657,3.554 C 13.584,3.186 12.437,3 11.25,3 Z M 11.25,0 L 11.25,0 C 17.463,0 22.5,4.076 22.5,9.104 C 22.5,14.132 17.463,18.209 11.25,18.209 C 10.653,18.209 10.068,18.171 9.496,18.098 C 7.080,20.505 4.289,20.937 1.5,21 L 1.5,20.411 C 3.006,19.676 4.219,18.337 4.219,16.808 C 4.219,16.594 4.202,16.385 4.171,16.18 C 1.627,14.511 0,11.961 0,9.104 C 0,4.076 5.037,0 11.25,0 ZM 23.344,20.407 C 23.344,21.718 24.195,22.865 25.5,23.495 L 25.5,24 C 23.083,23.946 20.864,23.576 18.77,21.513 C 18.275,21.575 17.767,21.607 17.25,21.607 C 15.012,21.607 12.951,21.004 11.306,19.989 C 14.697,19.977 17.898,18.891 20.325,16.927 C 21.549,15.936 22.514,14.774 23.195,13.473 C 23.916,12.093 24.281,10.624 24.281,9.104 C 24.281,8.859 24.271,8.616 24.252,8.374 C 25.953,9.778 27,11.693 27,13.804 C 27,16.253 25.59,18.438 23.385,19.868 C 23.358,20.044 23.344,20.224 23.344,20.407 Z"></path></g></svg>