<?xml version="1.0" encoding="utf-8"?> <!-- Generator: IcoMoon.io --> <!DOCTYPE svg PUBLIC "-//W3C//DTD SVG 1.1//EN" "http://www.w3.org/Graphics/SVG/1.1/DTD/svg11.dtd"> <svg width="24" height="24" viewBox="0 0 24 24" xmlns="http://www.w3.org/2000/svg" xmlns:xlink="http://www.w3.org/1999/xlink" fill="#666666"><g><path d="M 12,4.5 C 10.713,4.5 9.469,4.703 8.304,5.103 C 7.209,5.48 6.234,6.011 5.407,6.684 C 3.855,7.945 3,9.566 3,11.25 C 3,12.194 3.262,13.11 3.779,13.972 C 4.313,14.861 5.115,15.674 6.099,16.322 C 6.811,16.791 7.29,17.54 7.416,18.382 C 7.458,18.663 7.485,18.947 7.495,19.229 C 7.67,19.083 7.841,18.928 8.008,18.76 C 8.574,18.194 9.339,17.882 10.129,17.882 C 10.255,17.882 10.381,17.89 10.508,17.906 C 10.999,17.968 11.501,18 12,18 C 13.288,18 14.531,17.797 15.696,17.397 C 16.791,17.020 17.766,16.489 18.593,15.816 C 20.145,14.555 21,12.934 21,11.25 C 21,9.566 20.145,7.945 18.593,6.684 C 17.766,6.011 16.791,5.48 15.696,5.103 C 14.531,4.703 13.288,4.5 12,4.5 Z M 12,1.5 L 12,1.5 C 18.627,1.5 24,5.865 24,11.25 C 24,16.635 18.627,21 12,21 C 11.364,21 10.739,20.959 10.129,20.882 C 7.552,23.459 4.475,23.922 1.5,23.989 L 1.5,23.359 C 3.106,22.572 4.5,21.138 4.5,19.5 C 4.5,19.271 4.482,19.047 4.449,18.827 C 1.735,17.040 0,14.31 0,11.25 C 0,5.865 5.373,1.5 12,1.5 Z"></path></g></svg>