<?xml version="1.0" encoding="utf-8"?> <!-- Generator: IcoMoon.io --> <!DOCTYPE svg PUBLIC "-//W3C//DTD SVG 1.1//EN" "http://www.w3.org/Graphics/SVG/1.1/DTD/svg11.dtd"> <svg width="27" height="24" viewBox="0 0 27 24" xmlns="http://www.w3.org/2000/svg" xmlns:xlink="http://www.w3.org/1999/xlink" fill="#666666"><g><path d="M 25.5,21.121 C 25.5,22.187 26.11,23.111 27,23.563 L 27,23.936 C 26.751,23.971 26.497,23.989 26.238,23.989 C 24.644,23.989 23.207,23.32 22.19,22.248 C 21.576,22.412 20.924,22.5 20.25,22.5 C 16.522,22.5 13.5,19.814 13.5,16.5 C 13.5,13.186 16.522,10.5 20.25,10.5 C 23.978,10.5 27,13.186 27,16.5 C 27,17.797 26.537,18.998 25.749,19.98 C 25.59,20.327 25.5,20.714 25.5,21.121 ZM 5.407,5.184 C 3.855,6.445 3,8.066 3,9.75 C 3,10.694 3.262,11.61 3.779,12.472 C 4.313,13.361 5.115,14.174 6.099,14.822 C 6.811,15.29 7.29,16.039 7.416,16.882 C 7.458,17.163 7.485,17.447 7.495,17.729 C 7.67,17.583 7.841,17.428 8.008,17.26 C 8.574,16.694 9.339,16.382 10.129,16.382 C 10.255,16.382 10.381,16.39 10.508,16.406 C 10.999,16.468 11.5,16.5 11.998,16.5 L 11.998,19.5 C 11.362,19.5 10.738,19.459 10.129,19.382 C 7.552,21.959 4.475,22.422 1.5,22.489 L 1.5,21.859 C 3.106,21.072 4.5,19.638 4.5,18 C 4.5,17.771 4.482,17.547 4.449,17.327 C 1.735,15.54 0,12.81 0,9.75 C 0,4.365 5.373,0 12,0 C 18.526,0 23.836,4.233 23.996,9.504 C 23.033,9.075 21.984,8.815 20.896,8.741 C 20.626,7.427 19.832,6.19 18.593,5.184 C 17.766,4.511 16.791,3.98 15.696,3.603 C 14.531,3.203 13.288,3 12,3 C 10.713,3 9.469,3.203 8.304,3.603 C 7.209,3.98 6.234,4.511 5.407,5.184 Z"></path></g></svg>