<?xml version="1.0" encoding="utf-8"?> <!-- Generator: IcoMoon.io --> <!DOCTYPE svg PUBLIC "-//W3C//DTD SVG 1.1//EN" "http://www.w3.org/Graphics/SVG/1.1/DTD/svg11.dtd"> <svg width="24" height="24" viewBox="0 0 24 24" xmlns="http://www.w3.org/2000/svg" xmlns:xlink="http://www.w3.org/1999/xlink" fill="#666666"><g><path d="M 24,13.5l0-1.5 l-4.53,0 c-0.137-1.704-0.745-3.258-1.68-4.506l 3.796,0 l 1.642-6.568l-1.455-0.364l-1.358,5.432l-4.094,0 c-0.021-0.016-0.042-0.032-0.063-0.048c 0.157-0.457, 0.243-0.947, 0.243-1.458C 16.5,2.009, 14.485,0, 12,0s-4.5,2.009-4.5,4.488 c0,0.51, 0.086,1.001, 0.243,1.458c-0.021,0.016-0.042,0.032-0.063,0.048l-4.094,0 l-1.358-5.432l-1.455,0.364l 1.642,6.568l 3.796,0 C 5.275,8.742, 4.668,10.296, 4.53,12L0,12 l0,1.5 l 4.532,0 c 0.089,1.070, 0.363,2.082, 0.788,2.994L 2.414,16.494 l-1.642,6.568 l 1.455,0.364l 1.358-5.432l 2.633,0 C 7.595,19.823, 9.674,20.988, 12,20.988s 4.405-1.165, 5.781-2.994l 2.633,0 l 1.358,5.432 l 1.455-0.364l-1.642-6.568l-2.906,0 c 0.425-0.913, 0.699-1.924, 0.788-2.994L 24,13.5 z"></path></g></svg>