<?xml version="1.0" encoding="utf-8"?> <!-- Generator: IcoMoon.io --> <!DOCTYPE svg PUBLIC "-//W3C//DTD SVG 1.1//EN" "http://www.w3.org/Graphics/SVG/1.1/DTD/svg11.dtd"> <svg width="24" height="24" viewBox="0 0 24 24" xmlns="http://www.w3.org/2000/svg" xmlns:xlink="http://www.w3.org/1999/xlink" fill="#666666"><g><path d="M 24,10.061c0-4.709-1.378-8.53-3.082-8.56c 0.007-0, 0.014-0.001, 0.020-0.001l-1.944,0 c0,0-4.566,3.43-11.138,4.775c-0.201,1.062-0.329,2.327-0.329,3.785c0,1.458, 0.128,2.724, 0.329,3.785 c 6.573,1.346, 11.138,4.776, 11.138,4.776l 1.944,0 c-0.007,0-0.014-0.001-0.020-0.001C 22.622,18.59, 24,14.77, 24,10.061 z M 20.269,17.326c-0.22,0-0.458-0.228-0.58-0.364c-0.296-0.33-0.581-0.843-0.825-1.484 c-0.545-1.435-0.845-3.359-0.845-5.417c0-2.058, 0.3-3.982, 0.845-5.417c 0.244-0.641, 0.529-1.155, 0.825-1.484 c 0.122-0.136, 0.36-0.364, 0.58-0.364c 0.22,0, 0.458,0.228, 0.58,0.364c 0.296,0.33, 0.581,0.843, 0.825,1.484 c 0.545,1.435, 0.845,3.359, 0.845,5.417c0,2.058-0.3,3.982-0.845,5.417c-0.244,0.641-0.529,1.155-0.825,1.484 C 20.727,17.098, 20.489,17.326, 20.269,17.326z M 5.902,10.061c0-1.218, 0.089-2.401, 0.259-3.494 c-1.11,0.154-2.085,0.242-3.289,0.242c-1.572,0-1.572,0-1.572,0L0,9.027l0,2.066 l 1.3,2.219c0,0,0,0, 1.572,0 c 1.205,0, 2.179,0.088, 3.289,0.242C 5.991,12.461, 5.902,11.278, 5.902,10.061z M 8.629,15.051l-3-0.574 l 1.918,7.536c 0.099,0.39, 0.486,0.587, 0.86,0.437l 2.779-1.112c 0.374-0.149, 0.523-0.562, 0.333-0.916L 8.629,15.051zM 20.269,12.861c-0.085,0-0.176-0.088-0.224-0.14c-0.114-0.127-0.224-0.325-0.318-0.572 c-0.21-0.553-0.326-1.295-0.326-2.088c0-0.793, 0.116-1.535, 0.326-2.088c 0.094-0.247, 0.204-0.445, 0.318-0.572 c 0.047-0.053, 0.139-0.14, 0.224-0.14c 0.085,0, 0.176,0.088, 0.224,0.14c 0.114,0.127, 0.224,0.325, 0.318,0.572 c 0.21,0.553, 0.326,1.295, 0.326,2.088c0,0.793-0.116,1.535-0.326,2.088c-0.094,0.247-0.204,0.445-0.318,0.572 C 20.446,12.773, 20.354,12.861, 20.269,12.861z"></path></g></svg>