<?xml version="1.0" encoding="utf-8"?> <!-- Generator: IcoMoon.io --> <!DOCTYPE svg PUBLIC "-//W3C//DTD SVG 1.1//EN" "http://www.w3.org/Graphics/SVG/1.1/DTD/svg11.dtd"> <svg width="24" height="24" viewBox="0 0 24 24" xmlns="http://www.w3.org/2000/svg" xmlns:xlink="http://www.w3.org/1999/xlink" fill="#666666"><g><path d="M 16.5,0L 7.5,0 L 3,3l0,6 l 18,0 L 21,3 L 16.5,0z M 15,7.5l-1.5,0 l0-1 C 13.5,6.225, 13.275,6, 13,6l-2,0 c-0.275,0-0.5,0.225-0.5,0.5L 10.5,7.5 l-1.5,0 l0-2.5 C 9,4.725, 9.225,4.5, 9.5,4.5l 5,0 c 0.275,0, 0.5,0.225, 0.5,0.5 L 15,7.5 zM 3,16.5l 18,0 L 21,10.5 L 3,10.5 L 3,16.5 z M 9,12.5c0-0.275, 0.225-0.5, 0.5-0.5l 5,0 c 0.275,0, 0.5,0.225, 0.5,0.5L 15,15 l-1.5,0 l0-1 c0-0.275-0.225-0.5-0.5-0.5l-2,0 c-0.275,0-0.5,0.225-0.5,0.5L 10.5,15 l-1.5,0 L 9,12.5 zM 3,24l 18,0 L 21,18 L 3,18 L 3,24 z M 9,20c0-0.275, 0.225-0.5, 0.5-0.5l 5,0 c 0.275,0, 0.5,0.225, 0.5,0.5 L 15,22.5 l-1.5,0 l0-1 c0-0.275-0.225-0.5-0.5-0.5l-2,0 c-0.275,0-0.5,0.225-0.5,0.5L 10.5,22.5 l-1.5,0 L 9,20 z"></path></g></svg>