<?xml version="1.0" encoding="utf-8"?> <!-- Generator: IcoMoon.io --> <!DOCTYPE svg PUBLIC "-//W3C//DTD SVG 1.1//EN" "http://www.w3.org/Graphics/SVG/1.1/DTD/svg11.dtd"> <svg width="24" height="24" viewBox="0 0 24 24" xmlns="http://www.w3.org/2000/svg" xmlns:xlink="http://www.w3.org/1999/xlink" fill="#666666"><g><path d="M 9,1.5L 1.5,1.5 C 0.675,1.5,0,2.175,0,3l0,7.5 c0,0.825, 0.675,1.5, 1.5,1.5l 7.5,0 c 0.825,0, 1.5-0.675, 1.5-1.5L 10.5,3 C 10.5,2.175, 9.825,1.5, 9,1.5z M 9,7.5L 1.5,7.5 l0-1.5 l 7.5,0 L 9,7.5 z M 21,1.5L 13.5,1.5 c-0.825,0-1.5,0.675-1.5,1.5l0,19.5 c0,0.825, 0.675,1.5, 1.5,1.5l 7.5,0 c 0.825,0, 1.5-0.675, 1.5-1.5L 22.5,3 C 22.5,2.175, 21.825,1.5, 21,1.5z M 21,15L 13.5,15 l0-1.5 l 7.5,0 L 21,15 z M 21,10.5L 13.5,10.5 l0-1.5 l 7.5,0 L 21,10.5 z M 9,13.5L 1.5,13.5 c-0.825,0-1.5,0.675-1.5,1.5l0,7.5 c0,0.825, 0.675,1.5, 1.5,1.5l 7.5,0 c 0.825,0, 1.5-0.675, 1.5-1.5L 10.5,15 C 10.5,14.175, 9.825,13.5, 9,13.5z M 9,19.5l-3,0 l0,3 L 4.5,22.5 l0-3 L 1.5,19.5 l0-1.5 l 3,0 l0-3 l 1.5,0 l0,3 l 3,0 L 9,19.5 z"></path></g></svg>