<?xml version="1.0" encoding="utf-8"?> <!-- Generator: IcoMoon.io --> <!DOCTYPE svg PUBLIC "-//W3C//DTD SVG 1.1//EN" "http://www.w3.org/Graphics/SVG/1.1/DTD/svg11.dtd"> <svg width="24" height="24" viewBox="0 0 24 24" xmlns="http://www.w3.org/2000/svg" xmlns:xlink="http://www.w3.org/1999/xlink" fill="#666666"><g><path d="M 21,3l-2.25,0 l0,0.75 c0,0.827-0.673,1.5-1.5,1.5s-1.5-0.673-1.5-1.5L 15.75,3 L 8.25,3 l0,0.75 c0,0.827-0.673,1.5-1.5,1.5s-1.5-0.673-1.5-1.5L 5.25,3 L 3,3 c-0.825,0-1.5,0.675-1.5,1.5l0,16.5 c0,0.825, 0.675,1.5, 1.5,1.5l 18,0 c 0.825,0, 1.5-0.675, 1.5-1.5L 22.5,4.5 C 22.5,3.675, 21.825,3, 21,3z M 21,20.997 c-0.001,0.001-0.002,0.002-0.003,0.003L 3.003,21 c-0.001-0.001-0.002-0.002-0.003-0.003L 3,7.5 l 18,0 L 21,20.997 zM 6.75,4.5c 0.414,0, 0.75-0.336, 0.75-0.75L 7.5,0.75 c0-0.414-0.336-0.75-0.75-0.75s-0.75,0.336-0.75,0.75l0,3 C 6,4.164, 6.336,4.5, 6.75,4.5zM 17.25,4.5c 0.414,0, 0.75-0.336, 0.75-0.75L 18,0.75 c0-0.414-0.336-0.75-0.75-0.75s-0.75,0.336-0.75,0.75l0,3 C 16.5,4.164, 16.836,4.5, 17.25,4.5zM 13.5,9L 6,9L 6,10.5L 12,10.5L 12,13.5L 6,13.5L 6,15L 12,15L 12,18L 6,18L 6,19.5L 13.5,19.5 zM 16.5,19.5L 18,19.5L 18,9L 15,9L 15,10.5L 16.5,10.5 zM 20.438,23.063L 3.563,23.063 c-0.825,0-1.5-0.488-1.5-1.313l0,0.75 c0,0.825, 0.675,1.5, 1.5,1.5l 16.875,0 c 0.825,0, 1.5-0.675, 1.5-1.5l0-0.75 C 21.938,22.575, 21.263,23.063, 20.438,23.063z"></path></g></svg>