<?xml version="1.0" encoding="utf-8"?> <!-- Generator: IcoMoon.io --> <!DOCTYPE svg PUBLIC "-//W3C//DTD SVG 1.1//EN" "http://www.w3.org/Graphics/SVG/1.1/DTD/svg11.dtd"> <svg width="24" height="24" viewBox="0 0 24 24" xmlns="http://www.w3.org/2000/svg" xmlns:xlink="http://www.w3.org/1999/xlink" fill="#666666"><g><path d="M 7.5,9L 10.5,9L 10.5,12L 7.5,12zM 12,9L 15,9L 15,12L 12,12zM 16.5,9L 19.5,9L 19.5,12L 16.5,12zM 3,18L 6,18L 6,21L 3,21zM 7.5,18L 10.5,18L 10.5,21L 7.5,21zM 12,18L 15,18L 15,21L 12,21zM 7.5,13.5L 10.5,13.5L 10.5,16.5L 7.5,16.5zM 12,13.5L 15,13.5L 15,16.5L 12,16.5zM 16.5,13.5L 19.5,13.5L 19.5,16.5L 16.5,16.5zM 3,13.5L 6,13.5L 6,16.5L 3,16.5zM 19.5,0l0,1.5 l-3,0 L 16.5,0 L 6,0 l0,1.5 L 3,1.5 L 3,0 L0,0 l0,24 l 22.5,0 L 22.5,0 L 19.5,0 z M 21,22.5L 1.5,22.5 L 1.5,6 l 19.5,0 L 21,22.5 z"></path></g></svg>