<?xml version="1.0" encoding="utf-8"?> <!-- Generator: IcoMoon.io --> <!DOCTYPE svg PUBLIC "-//W3C//DTD SVG 1.1//EN" "http://www.w3.org/Graphics/SVG/1.1/DTD/svg11.dtd"> <svg width="24" height="24" viewBox="0 0 24 24" xmlns="http://www.w3.org/2000/svg" xmlns:xlink="http://www.w3.org/1999/xlink" fill="#666666"><g><path d="M 7.125,14.25c0,2.692, 2.183,4.875, 4.875,4.875s 4.875-2.183, 4.875-4.875s-2.183-4.875-4.875-4.875S 7.125,11.558, 7.125,14.25z M 22.5,6L 17.25,6 c-0.375-1.5-0.75-3-2.25-3L 9,3 c-1.5,0-1.875,1.5-2.25,3L 1.5,6 c-0.825,0-1.5,0.675-1.5,1.5l0,13.5 c0,0.825, 0.675,1.5, 1.5,1.5l 21,0 c 0.825,0, 1.5-0.675, 1.5-1.5L 24,7.5 C 24,6.675, 23.325,6, 22.5,6z M 12,20.906c-3.676,0-6.656-2.98-6.656-6.656c0-3.676, 2.98-6.656, 6.656-6.656c 3.676,0, 6.656,2.98, 6.656,6.656 C 18.656,17.926, 15.676,20.906, 12,20.906z M 22.5,10.5l-3,0 l0-1.5 l 3,0 L 22.5,10.5 z"></path></g></svg>