<?xml version="1.0" encoding="utf-8"?> <!-- Generator: IcoMoon.io --> <!DOCTYPE svg PUBLIC "-//W3C//DTD SVG 1.1//EN" "http://www.w3.org/Graphics/SVG/1.1/DTD/svg11.dtd"> <svg width="24" height="24" viewBox="0 0 24 24" xmlns="http://www.w3.org/2000/svg" xmlns:xlink="http://www.w3.org/1999/xlink" fill="#666666"><g><path d="M 9,6.75A3.75,3.75 10800 1 0 16.5,6.75A3.75,3.75 10800 1 0 9,6.75zM0,6.75A3.75,3.75 10800 1 0 7.5,6.75A3.75,3.75 10800 1 0 0,6.75zM 18,14.25l0-2.25 c0-0.825-0.675-1.5-1.5-1.5l-3.75,0 L 3.75,10.5 L 1.5,10.5 c-0.825,0-1.5,0.675-1.5,1.5l0,7.5 c0,0.825, 0.675,1.5, 1.5,1.5l 15,0 c 0.825,0, 1.5-0.675, 1.5-1.5 l0-2.25 l 6,3.75L 24,10.5 L 18,14.25z M 15,18L 3,18 l0-4.5 l 12,0 L 15,18 z"></path></g></svg>