<?xml version="1.0" encoding="utf-8"?> <!-- Generator: IcoMoon.io --> <!DOCTYPE svg PUBLIC "-//W3C//DTD SVG 1.1//EN" "http://www.w3.org/Graphics/SVG/1.1/DTD/svg11.dtd"> <svg width="24.169876098632812" height="24" viewBox="0 0 24.169876098632812 24" xmlns="http://www.w3.org/2000/svg" xmlns:xlink="http://www.w3.org/1999/xlink" fill="#666666"><g><path d="M 22.912,4.558c-0.796-0.228-1.627,0.234-1.854,1.030L 20.94,6L 6.949,6 l-0.211-1.686 C 6.645,3.563, 6.006,3, 5.25,3L 1.5,3 C 0.672,3,0,3.672,0,4.5s 0.672,1.5, 1.5,1.5l 2.426,0 l 1.336,10.686 C 5.355,17.437, 5.994,18, 6.75,18l 12.75,0 c 0.67,0, 1.258-0.444, 1.442-1.088l 3-10.5 C 24.17,5.616, 23.709,4.785, 22.912,4.558z M 12,12l0-1.5 l 3,0 l0,1.5 L 12,12 z M 15,13.5l0,1.5 L 12,15 l0-1.5 L 15,13.5 z M 12,9l0-1.5 l 3,0 l0,1.5 L 12,9 z M 7.137,7.5L 10.5,7.5 l0,1.5 l-3.176,0 L 7.137,7.5z M 7.512,10.5L 10.5,10.5 l0,1.5 l-2.801,0 L 7.512,10.5z M 7.887,13.5L 10.5,13.5 l0,1.5 l-2.426,0 L 7.887,13.5z M 18.369,15l-1.869,0 l0-1.5 l 2.297,0 L 18.369,15z M 19.226,12l-2.726,0 l0-1.5 l 3.154,0 L 19.226,12z M 20.083,9l-3.583,0 l0-1.5 l 4.012,0 L 20.083,9zM 6,21.75A2.25,2.25 2520 1 0 10.5,21.75A2.25,2.25 2520 1 0 6,21.75zM 15,21.75A2.25,2.25 2520 1 0 19.5,21.75A2.25,2.25 2520 1 0 15,21.75z"></path></g></svg>