<?xml version="1.0" encoding="utf-8"?> <!-- Generator: IcoMoon.io --> <!DOCTYPE svg PUBLIC "-//W3C//DTD SVG 1.1//EN" "http://www.w3.org/Graphics/SVG/1.1/DTD/svg11.dtd"> <svg width="24" height="24.000778198242188" viewBox="0 0 24 24.000778198242188" xmlns="http://www.w3.org/2000/svg" xmlns:xlink="http://www.w3.org/1999/xlink" fill="#666666"><g><path d="M 3,21.75A2.25,2.25 10800 1 0 7.5,21.75A2.25,2.25 10800 1 0 3,21.75zM 18,21.75A2.25,2.25 10800 1 0 22.5,21.75A2.25,2.25 10800 1 0 18,21.75zM 22.5,12L 22.5,3 L 3,3 C 3,1.343, 1.657,0,0,0l0,1.5 c 0.827,0, 1.5,0.673, 1.5,1.5l 1.127,9.658C 1.94,13.207, 1.5,14.052, 1.5,15 c0,1.657, 1.343,3, 3,3l 18,0 l0-1.5 L 4.5,16.5 c-0.828,0-1.5-0.672-1.5-1.5c0-0.005, 0-0.010, 0-0.015L 22.5,12z"></path></g></svg>