<?xml version="1.0" encoding="utf-8"?> <!-- Generator: IcoMoon.io --> <!DOCTYPE svg PUBLIC "-//W3C//DTD SVG 1.1//EN" "http://www.w3.org/Graphics/SVG/1.1/DTD/svg11.dtd"> <svg width="24.171234130859375" height="24" viewBox="0 0 24.171234130859375 24" xmlns="http://www.w3.org/2000/svg" xmlns:xlink="http://www.w3.org/1999/xlink" fill="#666666"><g><path d="M 19.857,13.5c 0.825,0, 1.685-0.649, 1.912-1.442l 2.176-7.615C 24.171,3.649, 23.682,3, 22.857,3L 7.5,3 c0-1.657-1.343-3-3-3L0,0 l0,3 l 4.5,0 l0,12.75 c0,1.243, 1.007,2.25, 2.25,2.25l 14.25,0 c 0.828,0, 1.5-0.672, 1.5-1.5s-0.672-1.5-1.5-1.5L 7.5,15 l0-1.5 L 19.857,13.5 z M 7.5,6l 13.566,0 l-1.286,4.5L 7.5,10.5 L 7.5,6 zM 9,22.125c0,1.031-0.844,1.875-1.875,1.875l-0.75,0 c-1.031,0-1.875-0.844-1.875-1.875l0-0.75 c0-1.031, 0.844-1.875, 1.875-1.875l 0.75,0 c 1.031,0, 1.875,0.844, 1.875,1.875L 9,22.125 zM 22.5,22.125c0,1.031-0.844,1.875-1.875,1.875l-0.75,0 c-1.031,0-1.875-0.844-1.875-1.875l0-0.75 c0-1.031, 0.844-1.875, 1.875-1.875l 0.75,0 c 1.031,0, 1.875,0.844, 1.875,1.875L 22.5,22.125 z"></path></g></svg>