<?xml version="1.0" encoding="utf-8"?> <!-- Generator: IcoMoon.io --> <!DOCTYPE svg PUBLIC "-//W3C//DTD SVG 1.1//EN" "http://www.w3.org/Graphics/SVG/1.1/DTD/svg11.dtd"> <svg width="24" height="24" viewBox="0 0 24 24" xmlns="http://www.w3.org/2000/svg" xmlns:xlink="http://www.w3.org/1999/xlink" fill="#666666"><g><path d="M 6.053,10.466 L 2.619,4.517 C 4.818,1.764 8.203,0 12,0 C 16.393,0 20.234,2.361 22.325,5.883 L 12.533,5.883 C 12.358,5.868 12.18,5.859 12,5.859 C 9.144,5.859 6.736,7.82 6.053,10.466 ZM 16.296,7.617 L 23.174,7.617 C 23.707,8.975 24,10.453 24,12 C 24,18.582 18.701,23.925 12.136,23.998 L 17.044,15.498 C 17.735,14.505 18.141,13.299 18.141,12 C 18.141,10.285 17.434,8.732 16.296,7.617 ZM 7.641,12 C 7.641,9.596 9.596,7.641 12,7.641 C 14.404,7.641 16.359,9.596 16.359,12 C 16.359,14.404 14.404,16.359 12,16.359 C 9.596,16.359 7.641,14.404 7.641,12 ZM 13.645,17.917 L 10.209,23.867 C 4.431,23.002 0,18.019 0,12 C 0,9.862 0.56,7.855 1.54,6.117 L 6.439,14.602 C 7.42,16.691 9.544,18.141 12,18.141 C 12.57,18.141 13.121,18.062 13.645,17.917 Z"></path></g></svg>