<?xml version="1.0" encoding="utf-8"?> <!-- Generator: IcoMoon.io --> <!DOCTYPE svg PUBLIC "-//W3C//DTD SVG 1.1//EN" "http://www.w3.org/Graphics/SVG/1.1/DTD/svg11.dtd"> <svg width="24" height="24" viewBox="0 0 24 24" xmlns="http://www.w3.org/2000/svg" xmlns:xlink="http://www.w3.org/1999/xlink" fill="#666666"><g><path d="M 15.439,17.561L 10.5,12.621L 10.5,6L 13.5,6L 13.5,11.379L 17.561,15.439 zM 12,0C 5.373,0,0,5.373,0,12s 5.373,12, 12,12s 12-5.373, 12-12S 18.627,0, 12,0z M 12,21 c-4.971,0-9-4.029-9-9c0-4.971, 4.029-9, 9-9c 4.971,0, 9,4.029, 9,9C 21,16.971, 16.971,21, 12,21z"></path></g></svg>