<?xml version="1.0" encoding="utf-8"?> <!-- Generator: IcoMoon.io --> <!DOCTYPE svg PUBLIC "-//W3C//DTD SVG 1.1//EN" "http://www.w3.org/Graphics/SVG/1.1/DTD/svg11.dtd"> <svg width="24.104063034057617" height="24.104015350341797" viewBox="0 0 24.104063034057617 24.104015350341797" xmlns="http://www.w3.org/2000/svg" xmlns:xlink="http://www.w3.org/1999/xlink" fill="#666666"><g><path d="M 23.781,19.281c-0-0-0-0-0-0L 16.5,12l 7.281-7.281c 0-0, 0-0, 0-0 c 0.078-0.078, 0.135-0.17, 0.171-0.268c 0.1-0.267, 0.043-0.578-0.172-0.793L 20.341,0.219c-0.214-0.214-0.526-0.271-0.793-0.172 c-0.098,0.036-0.189,0.093-0.268,0.171c0,0-0,0-0,0L 12,7.5L 4.719,0.219 c-0-0-0-0-0-0c-0.078-0.078-0.17-0.135-0.268-0.171c-0.267-0.1-0.578-0.043-0.793,0.172L 0.219,3.659 c-0.214,0.214-0.271,0.526-0.172,0.793c 0.036,0.098, 0.093,0.189, 0.171,0.268c 0,0, 0,0, 0,0L 7.5,12 L 0.219,19.281c-0,0-0,0-0,0c-0.078,0.078-0.135,0.17-0.171,0.268c-0.1,0.267-0.043,0.578, 0.172,0.793 l 3.439,3.439c 0.214,0.214, 0.526,0.271, 0.793,0.172c 0.098-0.036, 0.189-0.093, 0.268-0.171c 0-0, 0-0, 0-0 l 7.281-7.281l 7.281,7.281c 0,0, 0,0, 0,0c 0.078,0.078, 0.17,0.135, 0.268,0.171 c 0.267,0.1, 0.579,0.043, 0.793-0.172l 3.439-3.439c 0.214-0.214, 0.271-0.526, 0.172-0.793 C 23.916,19.451, 23.86,19.36, 23.781,19.281z"></path></g></svg>