<?xml version="1.0" encoding="utf-8"?> <!-- Generator: IcoMoon.io --> <!DOCTYPE svg PUBLIC "-//W3C//DTD SVG 1.1//EN" "http://www.w3.org/Graphics/SVG/1.1/DTD/svg11.dtd"> <svg width="24" height="24" viewBox="0 0 24 24" xmlns="http://www.w3.org/2000/svg" xmlns:xlink="http://www.w3.org/1999/xlink" fill="#666666"><g><path d="M 20.883,8.439C 20.807,5.423, 18.341,3, 15.308,3c-1.776,0-3.358,0.832-4.379,2.127 c-0.573-0.741-1.469-1.218-2.478-1.218c-1.73,0-3.132,1.403-3.132,3.134c0,0.151, 0.011,0.299, 0.032,0.444 c-0.263-0.047-0.534-0.074-0.81-0.074C 2.033,7.413,0,9.448,0,11.957C0,14.466, 2.033,16.5, 4.541,16.5l 2.338,0 L 12,21.621 L 17.121,16.5l 2.8,0 l0-0 C 22.175,16.495, 24,14.667, 24,12.411C 24,10.487, 22.672,8.874, 20.883,8.439z M 12,19.5l-4.5-4.5 l 3,0 l0-4.5 l 3,0 l0,4.5 l 3,0 L 12,19.5z"></path></g></svg>