<?xml version="1.0" encoding="utf-8"?> <!-- Generator: IcoMoon.io --> <!DOCTYPE svg PUBLIC "-//W3C//DTD SVG 1.1//EN" "http://www.w3.org/Graphics/SVG/1.1/DTD/svg11.dtd"> <svg width="24" height="24" viewBox="0 0 24 24" xmlns="http://www.w3.org/2000/svg" xmlns:xlink="http://www.w3.org/1999/xlink" fill="#666666"><g><path d="M 24,15.411c0-1.924-1.328-3.537-3.117-3.972C 20.807,8.423, 18.341,6, 15.308,6 c-1.776,0-3.358,0.832-4.379,2.127c-0.573-0.741-1.469-1.218-2.478-1.218c-1.73,0-3.132,1.403-3.132,3.134 c0,0.151, 0.011,0.299, 0.032,0.444c-0.263-0.047-0.534-0.074-0.81-0.074C 2.033,10.413,0,12.448,0,14.957 C0,17.466, 2.033,19.5, 4.541,19.5l 15.381,0 l0-0 C 22.175,19.495, 24,17.667, 24,15.411z"></path></g></svg>