<?xml version="1.0" encoding="utf-8"?> <!-- Generator: IcoMoon.io --> <!DOCTYPE svg PUBLIC "-//W3C//DTD SVG 1.1//EN" "http://www.w3.org/Graphics/SVG/1.1/DTD/svg11.dtd"> <svg width="24" height="24" viewBox="0 0 24 24" xmlns="http://www.w3.org/2000/svg" xmlns:xlink="http://www.w3.org/1999/xlink" fill="#666666"><g><path d="M 20.913,9.058C 20.97,8.798, 21,8.528, 21,8.25c0-2.071-1.679-3.75-3.75-3.75c-0.333,0-0.657,0.044-0.964,0.125 C 15.705,2.813, 14.006,1.5, 12,1.5c-2.047,0-3.775,1.367-4.32,3.238C 7.147,4.583, 6.583,4.5, 6,4.5C 2.686,4.5,0,7.186,0,10.5 c0,3.314, 2.686,6, 6,6l 3,0 l0,4.5 l 6,0 l0-4.5 l 5.25,0 c 2.071,0, 3.75-1.679, 3.75-3.75C 24,10.905, 22.667,9.371, 20.913,9.058z M 13.5,15l0,4.5 l-3,0 l0-4.5 l-3.75,0 l 5.25-5.25l 5.25,5.25L 13.5,15 z"></path></g></svg>