<?xml version="1.0" encoding="utf-8"?> <!-- Generator: IcoMoon.io --> <!DOCTYPE svg PUBLIC "-//W3C//DTD SVG 1.1//EN" "http://www.w3.org/Graphics/SVG/1.1/DTD/svg11.dtd"> <svg width="24" height="24" viewBox="0 0 24 24" xmlns="http://www.w3.org/2000/svg" xmlns:xlink="http://www.w3.org/1999/xlink" fill="#666666"><g><path d="M 18.441,9.206c-1.384,0-2.627,0.576-3.512,1.516c-0.375,0.398-1.026,0.87-1.73,1.285 c 0.331-1.263, 1.375-2.852, 2.101-3.55c 0.929-0.895, 1.5-2.152, 1.5-3.551C 16.8,2.213, 14.656,0.029, 12,0 c-2.656,0.029-4.8,2.213-4.8,4.906c0,1.399, 0.571,2.656, 1.5,3.551c 0.725,0.697, 1.77,2.287, 2.101,3.55 c-0.704-0.415-1.355-0.887-1.73-1.285c-0.885-0.94-2.129-1.516-3.512-1.516c-2.681,0-4.853,2.195-4.853,4.906 c0,2.71, 2.172,4.906, 4.853,4.906c 1.384,0, 2.627-0.594, 3.512-1.534c 0.394-0.419, 1.089-0.941, 1.835-1.374 c-0.070,3.462-1.723,6.004-3.406,7.006L 7.5,24 l 4.5,0 l 4.5,0 l0-0.885 c-1.683-1.002-3.336-3.544-3.406-7.006 c 0.747,0.433, 1.441,0.956, 1.835,1.374c 0.885,0.94, 2.128,1.534, 3.512,1.534c 2.681,0, 4.853-2.196, 4.853-4.906 C 23.295,11.401, 21.122,9.206, 18.441,9.206z"></path></g></svg>