<?xml version="1.0" encoding="utf-8"?> <!-- Generator: IcoMoon.io --> <!DOCTYPE svg PUBLIC "-//W3C//DTD SVG 1.1//EN" "http://www.w3.org/Graphics/SVG/1.1/DTD/svg11.dtd"> <svg width="24" height="24" viewBox="0 0 24 24" xmlns="http://www.w3.org/2000/svg" xmlns:xlink="http://www.w3.org/1999/xlink" fill="#666666"><g><path d="M 21.886,14.303c-1.259-2.181-0.502-4.976, 1.691-6.246l-2.358-4.085c-0.674,0.395-1.457,0.622-2.293,0.622 c-2.52,0-4.563-2.057-4.563-4.594L 9.645-0 c 0.006,0.783-0.189,1.577-0.608,2.303 c-1.259,2.181-4.058,2.923-6.255,1.658L 0.423,8.046c 0.679,0.386, 1.267,0.951, 1.685,1.675 c 1.257,2.178, 0.504,4.967-1.681,6.24l 2.358,4.085c 0.671-0.391, 1.451-0.615, 2.283-0.615 c 2.512,0, 4.55,2.044, 4.563,4.569l 4.717,0 c-0.002-0.775, 0.194-1.56, 0.609-2.279 c 1.257-2.177, 4.049-2.92, 6.244-1.664l 2.358-4.085C 22.885,15.586, 22.302,15.023, 21.886,14.303z M 12,16.859 c-2.684,0-4.859-2.176-4.859-4.859c0-2.684, 2.176-4.859, 4.859-4.859c 2.684,0, 4.859,2.176, 4.859,4.859 C 16.859,14.684, 14.684,16.859, 12,16.859z"></path></g></svg>