<?xml version="1.0" encoding="utf-8"?> <!-- Generator: IcoMoon.io --> <!DOCTYPE svg PUBLIC "-//W3C//DTD SVG 1.1//EN" "http://www.w3.org/Graphics/SVG/1.1/DTD/svg11.dtd"> <svg width="24" height="24" viewBox="0 0 24 24" xmlns="http://www.w3.org/2000/svg" xmlns:xlink="http://www.w3.org/1999/xlink" fill="#666666"><g><path d="M 24,14.252l0-4.504 l-3.44-0.573c-0.14-0.425-0.31-0.836-0.508-1.23l 2.026-2.837l-3.185-3.185l-2.832,2.023 c-0.396-0.2-0.809-0.372-1.237-0.513L 14.252,0l-4.504,0 l-0.572,3.432c-0.427,0.141-0.84,0.313-1.237,0.513 l-2.832-2.023l-3.185,3.185l 2.026,2.837c-0.199,0.394-0.369,0.805-0.508,1.23L0,9.748l0,4.504 l 3.448,0.575 c 0.14,0.421, 0.31,0.828, 0.507,1.219l-2.033,2.846l 3.185,3.185l 2.851-2.037c 0.389,0.196, 0.794,0.364, 1.213,0.502 L 9.748,24l 4.504,0 l 0.576-3.456c 0.419-0.138, 0.824-0.307, 1.213-0.502l 2.851,2.037l 3.185-3.185l-2.033-2.846 c 0.198-0.391, 0.367-0.798, 0.507-1.22L 24,14.252z M 12,15c-1.657,0-3-1.343-3-3c0-1.657, 1.343-3, 3-3 c 1.657,0, 3,1.343, 3,3C 15,13.657, 13.657,15, 12,15z"></path></g></svg>