<?xml version="1.0" encoding="utf-8"?> <!-- Generator: IcoMoon.io --> <!DOCTYPE svg PUBLIC "-//W3C//DTD SVG 1.1//EN" "http://www.w3.org/Graphics/SVG/1.1/DTD/svg11.dtd"> <svg width="24" height="24" viewBox="0 0 24 24" xmlns="http://www.w3.org/2000/svg" xmlns:xlink="http://www.w3.org/1999/xlink" fill="#666666"><g><path d="M 8.525,16.923l 0.968-1.355l-1.061-1.061l-1.355,0.968c-0.251-0.14-0.52-0.253-0.803-0.333L 6,13.5L 4.5,13.5 l-0.274,1.643c-0.283,0.080-0.552,0.192-0.803,0.333L 2.068,14.507L 1.007,15.568l 0.968,1.355 c-0.14,0.251-0.253,0.52-0.333,0.803L0,18l0,1.5 l 1.643,0.274c 0.080,0.283, 0.192,0.552, 0.333,0.803L 1.007,21.932l 1.061,1.061 l 1.355-0.968c 0.251,0.14, 0.52,0.253, 0.803,0.333L 4.5,24l 1.5,0 l 0.274-1.643c 0.283-0.080, 0.552-0.192, 0.803-0.333l 1.355,0.968 l 1.061-1.061l-0.968-1.355c 0.14-0.251, 0.253-0.52, 0.333-0.803L 10.5,19.5l0-1.5 l-1.643-0.274 C 8.777,17.444, 8.665,17.174, 8.525,16.923z M 5.25,20.25c-0.828,0-1.5-0.672-1.5-1.5s 0.672-1.5, 1.5-1.5s 1.5,0.672, 1.5,1.5 S 6.078,20.25, 5.25,20.25zM 24,9l0-1.5 l-1.579-0.287c-0.029-0.189-0.066-0.374-0.111-0.558l 1.349-0.87L 23.085,4.4l-1.569,0.339 c-0.099-0.162-0.205-0.319-0.316-0.472l 0.914-1.321l-1.061-1.061l-1.321,0.914c-0.153-0.112-0.31-0.217-0.472-0.316 l 0.339-1.569L 18.214,0.341l-0.87,1.349c-0.183-0.044-0.369-0.082-0.558-0.111L 16.5,0l-1.5,0 l-0.287,1.579 c-0.189,0.029-0.374,0.066-0.558,0.111L 13.286,0.341L 11.9,0.915l 0.339,1.569c-0.162,0.099-0.319,0.205-0.472,0.316 l-1.321-0.914l-1.061,1.061l 0.914,1.321c-0.112,0.153-0.217,0.31-0.316,0.472l-1.569-0.339l-0.574,1.386l 1.349,0.87 c-0.044,0.183-0.082,0.369-0.111,0.558L 7.5,7.5l0,1.5 l 1.579,0.287c 0.029,0.189, 0.066,0.374, 0.111,0.558l-1.349,0.87 l 0.574,1.386l 1.569-0.339c 0.099,0.162, 0.205,0.319, 0.316,0.472l-0.914,1.321l 1.061,1.061l 1.321-0.914 c 0.153,0.112, 0.31,0.217, 0.472,0.316l-0.339,1.569l 1.386,0.574l 0.87-1.349c 0.183,0.044, 0.369,0.082, 0.558,0.111L 15,16.5l 1.5,0 l 0.287-1.579c 0.189-0.029, 0.374-0.066, 0.558-0.111l 0.87,1.349l 1.386-0.574l-0.339-1.569 c 0.162-0.099, 0.319-0.205, 0.472-0.316l 1.321,0.914l 1.061-1.061l-0.914-1.321c 0.112-0.153, 0.217-0.31, 0.316-0.472 l 1.569,0.339l 0.574-1.386l-1.349-0.87c 0.044-0.183, 0.082-0.369, 0.111-0.558L 24,9z M 15.75,11.512 c-1.802,0-3.262-1.461-3.262-3.262c0-1.802, 1.461-3.262, 3.262-3.262s 3.262,1.461, 3.262,3.262C 19.013,10.052, 17.552,11.512, 15.75,11.512z"></path></g></svg>