<?xml version="1.0" encoding="utf-8"?> <!-- Generator: IcoMoon.io --> <!DOCTYPE svg PUBLIC "-//W3C//DTD SVG 1.1//EN" "http://www.w3.org/Graphics/SVG/1.1/DTD/svg11.dtd"> <svg width="24" height="24" viewBox="0 0 24 24" xmlns="http://www.w3.org/2000/svg" xmlns:xlink="http://www.w3.org/1999/xlink" fill="#666666"><g><path d="M 11.25,1.5C 5.037,1.5,0,6.537,0,12.75c0,6.213, 5.037,11.25, 11.25,11.25c 6.213,0, 11.25-5.037, 11.25-11.25 C 22.5,6.537, 17.463,1.5, 11.25,1.5z M 11.25,21.75c-4.971,0-9-4.029-9-9c0-4.971, 4.029-9, 9-9 c 4.971,0, 9,4.029, 9,9C 20.25,17.721, 16.221,21.75, 11.25,21.75zM 12,12l0-3 l 3,0 l0-1.5 l-3,0 l0-1.5 l-1.5,0 l0,1.5 l-3,0 l0,6 l 3,0 l0,3 l-3,0 l0,1.5 l 3,0 l0,1.5 l 1.5,0 l0-1.5 l 3,0 l 0,0 L 15,12L 12,12 z M 10.5,12l-1.5,0 l0-3 l 1.5,0 L 10.5,12 z M 13.5,16.5L 12,16.5 l0-3 l 1.5,0 L 13.5,16.5 z"></path></g></svg>