<?xml version="1.0" encoding="utf-8"?> <!-- Generator: IcoMoon.io --> <!DOCTYPE svg PUBLIC "-//W3C//DTD SVG 1.1//EN" "http://www.w3.org/Graphics/SVG/1.1/DTD/svg11.dtd"> <svg width="24" height="24" viewBox="0 0 24 24" xmlns="http://www.w3.org/2000/svg" xmlns:xlink="http://www.w3.org/1999/xlink" fill="#666666"><g><path d="M 12,0C 5.373,0,0,5.373,0,12s 5.372,12, 12,12c 6.627,0, 12-5.373, 12-12S 18.627,0, 12,0z M 16.5,6 c 0.828,0, 1.5,0.672, 1.5,1.5c0,0.828-0.672,1.5-1.5,1.5s-1.5-0.672-1.5-1.5C 15,6.672, 15.672,6, 16.5,6z M 7.5,6 c 0.828,0, 1.5,0.672, 1.5,1.5c0,0.828-0.672,1.5-1.5,1.5s-1.5-0.672-1.5-1.5C 6,6.672, 6.672,6, 7.5,6z M 16.102,18.997 c-1.943,0.707-4.099-0.298-4.807-2.241c-0.424-1.166-1.718-1.769-2.884-1.345c-1.068,0.389-1.663,1.507-1.429,2.588 l-1.52,0 c-0.217-1.699, 0.761-3.387, 2.436-3.998c 1.943-0.707, 4.099,0.298, 4.807,2.241 c 0.424,1.166, 1.718,1.769, 2.884,1.345c 1.068-0.389, 1.663-1.507, 1.429-2.588l 1.52,0 C 18.755,16.699, 17.778,18.387, 16.102,18.997z"></path></g></svg>