<?xml version="1.0" encoding="utf-8"?> <!-- Generator: IcoMoon.io --> <!DOCTYPE svg PUBLIC "-//W3C//DTD SVG 1.1//EN" "http://www.w3.org/Graphics/SVG/1.1/DTD/svg11.dtd"> <svg width="24" height="24" viewBox="0 0 24 24" xmlns="http://www.w3.org/2000/svg" xmlns:xlink="http://www.w3.org/1999/xlink" fill="#666666"><g><path d="M 12,24c 6.627,0, 12-5.373, 12-12S 18.627,0, 12,0S0,5.373,0,12S 5.373,24, 12,24z M 12,2.25 c 5.385,0, 9.75,4.365, 9.75,9.75s-4.365,9.75-9.75,9.75S 2.25,17.385, 2.25,12S 6.615,2.25, 12,2.25zM 6,7.5A1.5,1.5 2520 1 0 9,7.5A1.5,1.5 2520 1 0 6,7.5zM 15,7.5A1.5,1.5 2520 1 0 18,7.5A1.5,1.5 2520 1 0 15,7.5zM 17.018,15 L 18.538,15 C 18.755,16.699 17.778,18.387 16.102,18.997 C 14.159,19.705 12.003,18.699 11.295,16.756 C 10.871,15.591 9.577,14.987 8.411,15.412 C 7.343,15.801 6.748,16.919 6.982,18 L 5.462,18 C 5.245,16.3 6.222,14.613 7.898,14.002 C 9.841,13.295 11.998,14.3 12.705,16.243 C 13.129,17.409 14.423,18.012 15.589,17.588 C 16.657,17.199 17.252,16.081 17.018,15 Z"></path></g></svg>