<?xml version="1.0" encoding="utf-8"?> <!-- Generator: IcoMoon.io --> <!DOCTYPE svg PUBLIC "-//W3C//DTD SVG 1.1//EN" "http://www.w3.org/Graphics/SVG/1.1/DTD/svg11.dtd"> <svg width="29.698455810546875" height="24" viewBox="0 0 29.698455810546875 24" xmlns="http://www.w3.org/2000/svg" xmlns:xlink="http://www.w3.org/1999/xlink" fill="#666666"><g><path d="M 15,13.5 C 17.481,13.5 19.731,14.509 21.361,16.139 L 19.241,18.259 C 18.154,17.173 16.654,16.5 15,16.5 C 13.346,16.5 11.846,17.173 10.759,18.259 L 8.639,16.139 C 10.269,14.509 12.519,13.5 15,13.5 ZM 4.393,11.893 C 7.227,9.060 10.993,7.5 15,7.5 C 19.007,7.5 22.773,9.060 25.607,11.893 L 23.485,14.015 L 23.485,14.015 C 21.219,11.748 18.205,10.5 15,10.5 C 11.795,10.5 8.781,11.748 6.515,14.015 L 4.393,11.893 ZM 23.175,3.151 C 25.675,4.209 27.921,5.723 29.849,7.651 L 29.849,7.651 L 27.728,9.772 C 24.328,6.372 19.808,4.5 15,4.5 C 10.192,4.5 5.672,6.372 2.272,9.772 L 0.151,7.651 C 2.079,5.723 4.325,4.209 6.825,3.151 C 9.415,2.055 12.166,1.5 15,1.5 C 17.834,1.5 20.585,2.055 23.175,3.151 ZM 13.5,21A1.5,1.5 2520 1 0 16.5,21A1.5,1.5 2520 1 0 13.5,21z"></path></g></svg>