<?xml version="1.0" encoding="utf-8"?> <!-- Generator: IcoMoon.io --> <!DOCTYPE svg PUBLIC "-//W3C//DTD SVG 1.1//EN" "http://www.w3.org/Graphics/SVG/1.1/DTD/svg11.dtd"> <svg width="24" height="24" viewBox="0 0 24 24" xmlns="http://www.w3.org/2000/svg" xmlns:xlink="http://www.w3.org/1999/xlink" fill="#666666"><g><path d="M0,1.5l0,21 l 24,0 L 24,1.5 L0,1.5 z M 22.5,21L 1.5,21 L 1.5,3 l 21,0 L 22.5,21 zM 21,4.5L 3,4.5 l0,15 l 18,0 L 21,4.5 z M 10.5,12l-1.5,0 l0,1.5 l-1.5,0 l0,1.5 l-1.5,0 l0-1.5 l 1.5,0 l0-1.5 l 1.5,0 l0-1.5 l-1.5,0 l0-1.5 l-1.5,0 l0-1.5 l 1.5,0 l0,1.5 l 1.5,0 l0,1.5 l 1.5,0 L 10.5,12 z M 16.5,15l-4.5,0 l0-1.5 l 4.5,0 L 16.5,15 z"></path></g></svg>