<?xml version="1.0" encoding="utf-8"?> <!-- Generator: IcoMoon.io --> <!DOCTYPE svg PUBLIC "-//W3C//DTD SVG 1.1//EN" "http://www.w3.org/Graphics/SVG/1.1/DTD/svg11.dtd"> <svg width="24" height="24" viewBox="0 0 24 24" xmlns="http://www.w3.org/2000/svg" xmlns:xlink="http://www.w3.org/1999/xlink" fill="#666666"><g><path d="M 12,24c 6.627,0, 12-5.373, 12-12S 18.627,0, 12,0S0,5.373,0,12S 5.373,24, 12,24z M 12,2.25 c 5.385,0, 9.75,4.365, 9.75,9.75s-4.365,9.75-9.75,9.75S 2.25,17.385, 2.25,12S 6.615,2.25, 12,2.25zM 18.75,6 C 19.163,6 19.5,6.337 19.5,6.75 L 19.5,9 C 19.5,9.825 18.825,10.5 18,10.5 L 15,10.5 C 14.175,10.5 13.5,9.825 13.5,9 L 10.5,9 C 10.5,9.825 9.825,10.5 9,10.5 L 6,10.5 C 5.175,10.5 4.5,9.825 4.5,9 L 4.5,6.75 C 4.5,6.337 4.838,6 5.25,6 L 9.75,6 C 10.163,6 10.5,6.337 10.5,6.75 L 10.5,7.5 L 13.5,7.5 L 13.5,6.75 C 13.5,6.337 13.837,6 14.25,6 L 18.75,6 ZM 12,18 C 14.185,18 16.096,16.832 17.146,15.087 L 18.432,15.859 C 17.12,18.040 14.731,19.5 12,19.5 C 10.864,19.5 9.788,19.247 8.823,18.795 L 9.601,17.499 C 10.335,17.821 11.147,18 12,18 Z"></path></g></svg>