<?xml version="1.0" encoding="utf-8"?> <!-- Generator: IcoMoon.io --> <!DOCTYPE svg PUBLIC "-//W3C//DTD SVG 1.1//EN" "http://www.w3.org/Graphics/SVG/1.1/DTD/svg11.dtd"> <svg width="24" height="24" viewBox="0 0 24 24" xmlns="http://www.w3.org/2000/svg" xmlns:xlink="http://www.w3.org/1999/xlink" fill="#666666"><g><path d="M 12,0C 5.373,0,0,5.373,0,12s 5.372,12, 12,12c 6.627,0, 12-5.373, 12-12S 18.627,0, 12,0z M 12,19.5 c-1.136,0-2.212-0.253-3.177-0.705l 0.777-1.296C 10.335,17.821, 11.147,18, 12,18c 2.185,0, 4.096-1.168, 5.146-2.913 l 1.286,0.772C 17.12,18.040, 14.731,19.5, 12,19.5z M 19.5,9c0,0.825-0.675,1.5-1.5,1.5l-3,0 c-0.825,0-1.5-0.675-1.5-1.5l-3,0 c0,0.825-0.675,1.5-1.5,1.5l-3,0 c-0.825,0-1.5-0.675-1.5-1.5l0-2.25 c0-0.413, 0.338-0.75, 0.75-0.75l 4.5,0 c 0.413,0, 0.75,0.338, 0.75,0.75l0,0.75 l 3,0 l0-0.75 c0-0.413, 0.338-0.75, 0.75-0.75l 4.5,0 c 0.413,0, 0.75,0.338, 0.75,0.75L 19.5,9 z"></path></g></svg>