<?xml version="1.0" encoding="utf-8"?> <!-- Generator: IcoMoon.io --> <!DOCTYPE svg PUBLIC "-//W3C//DTD SVG 1.1//EN" "http://www.w3.org/Graphics/SVG/1.1/DTD/svg11.dtd"> <svg width="24" height="24" viewBox="0 0 24 24" xmlns="http://www.w3.org/2000/svg" xmlns:xlink="http://www.w3.org/1999/xlink" fill="#666666"><g><path d="M 19.5,6l-4.5,0 L 15,4.5 L 10.5,0L0,0 l0,18 l 9,0 l0,6 l 15,0 L 24,10.5 L 19.5,6z M 19.5,8.121L 21.879,10.5L 19.5,10.5 L 19.5,8.121 z M 10.5,2.121L 12.879,4.5L 10.5,4.5 L 10.5,2.121 z M 1.5,1.5l 7.5,0 l0,4.5 l 4.5,0 l0,10.5 L 1.5,16.5 L 1.5,1.5 z M 22.5,22.5L 10.5,22.5 l0-4.5 l 4.5,0 L 15,7.5 l 3,0 l0,4.5 l 4.5,0 L 22.5,22.5 z"></path></g></svg>