<?xml version="1.0" encoding="utf-8"?> <!-- Generator: IcoMoon.io --> <!DOCTYPE svg PUBLIC "-//W3C//DTD SVG 1.1//EN" "http://www.w3.org/Graphics/SVG/1.1/DTD/svg11.dtd"> <svg width="24" height="24" viewBox="0 0 24 24" xmlns="http://www.w3.org/2000/svg" xmlns:xlink="http://www.w3.org/1999/xlink" fill="#666666"><g><path d="M 15,6L 15,0 L 4.5,0 L0,4.5l0,13.5 l 9,0 l0,6 l 15,0 L 24,6 L 15,6 z M 4.5,2.121L 4.5,4.5 L 2.121,4.5 L 4.5,2.121z M 1.5,16.5L 1.5,6 l 4.5,0 L 6,1.5 l 7.5,0 l0,4.5 l-4.5,4.5l0,6 L 1.5,16.5 z M 13.5,8.121L 13.5,10.5 l-2.379,0 L 13.5,8.121z M 22.5,22.5L 10.5,22.5 L 10.5,12 l 4.5,0 l0-4.5 l 7.5,0 L 22.5,22.5 z"></path></g></svg>