<?xml version="1.0" encoding="utf-8"?> <!-- Generator: IcoMoon.io --> <!DOCTYPE svg PUBLIC "-//W3C//DTD SVG 1.1//EN" "http://www.w3.org/Graphics/SVG/1.1/DTD/svg11.dtd"> <svg width="24" height="24" viewBox="0 0 24 24" xmlns="http://www.w3.org/2000/svg" xmlns:xlink="http://www.w3.org/1999/xlink" fill="#666666"><g><path d="M 20.25,3l-1.5,0 l0,1.5 l 0.75,0 l0,12 L 13.5,16.5 l0,6 L 4.5,22.5 L 4.5,4.5 l 0.75,0 L 5.25,3 L 3.75,3 c-0.413,0-0.75,0.338-0.75,0.75l0,19.5 c0,0.413, 0.337,0.75, 0.75,0.75l 11.813,0 l 5.438-5.438L 21,3.75 C 21,3.338, 20.663,3, 20.25,3z M 15,22.5l0-4.5 l 4.5,0 L 15,22.5zM 18,3l-3,0 L 15,1.5 c0-0.825-0.675-1.5-1.5-1.5l-3,0 c-0.825,0-1.5,0.675-1.5,1.5l0,1.5 l-3,0 l0,3 l 12,0 L 18,3 z M 13.5,3l-3,0 L 10.5,1.503 c 0.001-0.001, 0.002-0.002, 0.003-0.003l 2.995,0 c 0.001,0.001, 0.002,0.002, 0.003,0.003L 13.5,3 z"></path></g></svg>