<?xml version="1.0" encoding="utf-8"?> <!-- Generator: IcoMoon.io --> <!DOCTYPE svg PUBLIC "-//W3C//DTD SVG 1.1//EN" "http://www.w3.org/Graphics/SVG/1.1/DTD/svg11.dtd"> <svg width="24" height="24" viewBox="0 0 24 24" xmlns="http://www.w3.org/2000/svg" xmlns:xlink="http://www.w3.org/1999/xlink" fill="#666666"><g><path d="M 21.75,3L 2.25,3 C 1.013,3,0,4.012,0,5.25l0,13.5 c0,1.237, 1.013,2.25, 2.25,2.25l 19.5,0 c 1.237,0, 2.25-1.013, 2.25-2.25L 24,5.25 C 24,4.012, 22.987,3, 21.75,3z M 2.25,4.5 l 19.5,0 c 0.407,0, 0.75,0.343, 0.75,0.75l0,2.25 L 1.5,7.5 l0-2.25 C 1.5,4.843, 1.843,4.5, 2.25,4.5z M 21.75,19.5L 2.25,19.5 c-0.407,0-0.75-0.343-0.75-0.75L 1.5,12 l 21,0 l0,6.75 C 22.5,19.157, 22.157,19.5, 21.75,19.5zM 3,15L 4.5,15L 4.5,18L 3,18zM 6,15L 7.5,15L 7.5,18L 6,18zM 9,15L 10.5,15L 10.5,18L 9,18z"></path></g></svg>