<?xml version="1.0" encoding="utf-8"?> <!-- Generator: IcoMoon.io --> <!DOCTYPE svg PUBLIC "-//W3C//DTD SVG 1.1//EN" "http://www.w3.org/Graphics/SVG/1.1/DTD/svg11.dtd"> <svg width="24" height="24" viewBox="0 0 24 24" xmlns="http://www.w3.org/2000/svg" xmlns:xlink="http://www.w3.org/1999/xlink" fill="#666666"><g><path d="M 20.001,0L 4,0 C 1.8,0,0,1.8,0,4.001l0,15.999 C0,22.201, 1.8,24, 4,24l 16.001,0 C 22.201,24, 24,22.201, 24,20L 24,4.001 C 24,1.8, 22.201,0, 20.001,0z M 22.5,20c0,0.664-0.261,1.291-0.735,1.765 C 21.291,22.239, 20.664,22.5, 20.001,22.5L 12,22.5 L 12,12 L 1.5,12 L 1.5,4.001 c0-0.663, 0.261-1.29, 0.736-1.765C 2.71,1.761, 3.337,1.5, 4,1.5 L 12,1.5 l0,10.5 l 10.5,0 L 22.5,20 z"></path></g></svg>