<?xml version="1.0" encoding="utf-8"?> <!-- Generator: IcoMoon.io --> <!DOCTYPE svg PUBLIC "-//W3C//DTD SVG 1.1//EN" "http://www.w3.org/Graphics/SVG/1.1/DTD/svg11.dtd"> <svg width="24.416484832763672" height="24" viewBox="0 0 24.416484832763672 24" xmlns="http://www.w3.org/2000/svg" xmlns:xlink="http://www.w3.org/1999/xlink" fill="#666666"><g><path d="M 13.168,9.539c-0.915-0.053-1.971,0.001-3.193,0.21l 2.82,5.083L 24,11.756 c-0.121-0.287-0.297-0.568-0.531-0.839c-1.16-1.342-3.674-2.54-6.413-3.080l 0-0.001 c-2.687-0.63-5.597-0.603-8.577-0.153c-0.107,0.016-0.214,0.033-0.321,0.051l-0.991-1.835 c-0.964,0.129-1.871,0.329-2.71,0.597l 0.944,1.973c-1.541,0.597-2.806,1.448-3.719,2.471 C 0.178,12.653-0.416,14.805, 0.306,16.901c 0.145,0.423, 0.342,0.824, 0.584,1.2l 11.205-3.077l-3.111-5.762 c 0.107-0.021, 0.216-0.041, 0.326-0.061c 5.032-0.898, 7.784,0.489, 9.291,1.965l-3.833,0.929L 13.168,9.539z M 4.095,14.681 c-0.346-1.579-0.071-3.34, 2.119-4.514l 1.714,3.585L 4.095,14.681z"></path></g></svg>