<?xml version="1.0" encoding="utf-8"?> <!-- Generator: IcoMoon.io --> <!DOCTYPE svg PUBLIC "-//W3C//DTD SVG 1.1//EN" "http://www.w3.org/Graphics/SVG/1.1/DTD/svg11.dtd"> <svg width="24" height="24" viewBox="0 0 24 24" xmlns="http://www.w3.org/2000/svg" xmlns:xlink="http://www.w3.org/1999/xlink" fill="#666666"><g><path d="M 19.969,0L 4.031,0 C 1.814,0,0,1.814,0,4.031l0,15.938 c0,2.217, 1.814,4.031, 4.031,4.031l 15.938,0 c 2.217,0, 4.031-1.814, 4.031-4.031L 24,4.031 C 24,1.814, 22.186,0, 19.969,0z M 22.5,18L 13.5,18 L 13.5,12.469 c0,0, 1.648,0.023, 2.531,0.938l0,1.594 l 3.619,0 c-0.277-0.888-0.869-1.76-1.714-2.5C 16.484,11.229, 14.111,10.594, 12,10.594l0,7.406 L 1.5,18 l0-2.25 c0-1.017, 0.343-2.028, 0.993-2.924c 0.576-0.795, 1.38-1.496, 2.387-2.084c 1.182-0.689, 2.591-1.188, 4.12-1.471L 9,6 l 3,0 l0,3 c 3.445,0, 5.194,0.619, 7.12,1.742c 1.008,0.588, 1.811,1.289, 2.387,2.084C 22.157,13.722, 22.5,14.733, 22.5,15.75L 22.5,18 zM 4.678,15 C 4.955,14.112 5.547,13.24 6.392,12.5 C 7.131,11.853 8.024,11.347 9,11.006 L 9,15 L 4.678,15 Z"></path></g></svg>