<?xml version="1.0" encoding="utf-8"?> <!-- Generator: IcoMoon.io --> <!DOCTYPE svg PUBLIC "-//W3C//DTD SVG 1.1//EN" "http://www.w3.org/Graphics/SVG/1.1/DTD/svg11.dtd"> <svg width="24" height="24" viewBox="0 0 24 24" xmlns="http://www.w3.org/2000/svg" xmlns:xlink="http://www.w3.org/1999/xlink" fill="#666666"><g><path d="M 20.25,4.5L 8.25,4.5 c-2.063,0-3.75,1.688-3.75,3.75l0,12 c0,2.063, 1.688,3.75, 3.75,3.75l 12,0 c 2.063,0, 3.75-1.688, 3.75-3.75L 24,8.25 C 24,6.188, 22.313,4.5, 20.25,4.5z M 9.75,21 c-1.243,0-2.25-1.007-2.25-2.25s 1.007-2.25, 2.25-2.25s 2.25,1.007, 2.25,2.25S 10.993,21, 9.75,21z M 9.75,12c-1.243,0-2.25-1.007-2.25-2.25s 1.007-2.25, 2.25-2.25 s 2.25,1.007, 2.25,2.25S 10.993,12, 9.75,12z M 14.25,16.5c-1.243,0-2.25-1.007-2.25-2.25s 1.007-2.25, 2.25-2.25s 2.25,1.007, 2.25,2.25S 15.493,16.5, 14.25,16.5z M 18.75,21 c-1.243,0-2.25-1.007-2.25-2.25s 1.007-2.25, 2.25-2.25s 2.25,1.007, 2.25,2.25S 19.993,21, 18.75,21z M 18.75,12c-1.243,0-2.25-1.007-2.25-2.25s 1.007-2.25, 2.25-2.25 s 2.25,1.007, 2.25,2.25S 19.993,12, 18.75,12z M 19.424,3C 19.074,1.294, 17.556,0, 15.75,0L 3.75,0 C 1.688,0,0,1.688,0,3.75l0,12 c0,1.806, 1.294,3.324, 3,3.674L 3,4.5 c0-0.825, 0.675-1.5, 1.5-1.5L 19.424,3 z"></path></g></svg>