<?xml version="1.0" encoding="utf-8"?> <!-- Generator: IcoMoon.io --> <!DOCTYPE svg PUBLIC "-//W3C//DTD SVG 1.1//EN" "http://www.w3.org/Graphics/SVG/1.1/DTD/svg11.dtd"> <svg width="24" height="24" viewBox="0 0 24 24" xmlns="http://www.w3.org/2000/svg" xmlns:xlink="http://www.w3.org/1999/xlink" fill="#666666"><g><path d="M 21.058,0 L 22.635,13.396 L 20.865,13.604 L 19.458,1.641 L 4.542,1.641 L 3.135,13.604 L 1.365,13.396 L 2.941,0 ZM 6,3L 18,3L 18,4.5L 6,4.5zM 6,6L 18,6L 18,7.5L 6,7.5zM 6,9L 18,9L 18,10.5L 6,10.5zM 6,12L 18,12L 18,13.5L 6,13.5zM 23.25,15L 0.75,15 c-0.413,0-0.643,0.32-0.513,0.712L 2.763,23.288C 2.893,23.68, 3.338,24, 3.75,24l 16.5,0 c 0.413,0, 0.857-0.32, 0.987-0.712l 2.526-7.577C 23.893,15.32, 23.663,15, 23.25,15z M 15,18L 9,18 l0-1.5 l 6,0 L 15,18 z"></path></g></svg>