<?xml version="1.0" encoding="utf-8"?> <!-- Generator: IcoMoon.io --> <!DOCTYPE svg PUBLIC "-//W3C//DTD SVG 1.1//EN" "http://www.w3.org/Graphics/SVG/1.1/DTD/svg11.dtd"> <svg width="24" height="24" viewBox="0 0 24 24" xmlns="http://www.w3.org/2000/svg" xmlns:xlink="http://www.w3.org/1999/xlink" fill="#666666"><g><path d="M 16.5,4.5L 7.5,4.5 L0,13.5l0,6 c0,0.828, 0.672,1.5, 1.5,1.5l 21,0 c 0.828,0, 1.5-0.672, 1.5-1.5L 24,13.5 L 16.5,4.5z M 15,16.5L 9,16.5 l-1.5-1.5l 9,0 L 15,16.5z M 1.953,13.5l 6.25-7.5l 7.595,0 l 6.25,7.5L 1.953,13.5 zM 6.679,9L 17.321,9L 16.071,7.5L 7.929,7.5 zM 4.179,12L 19.821,12L 18.571,10.5L 5.429,10.5 z"></path></g></svg>