<?xml version="1.0" encoding="utf-8"?> <!-- Generator: IcoMoon.io --> <!DOCTYPE svg PUBLIC "-//W3C//DTD SVG 1.1//EN" "http://www.w3.org/Graphics/SVG/1.1/DTD/svg11.dtd"> <svg width="24" height="24" viewBox="0 0 24 24" xmlns="http://www.w3.org/2000/svg" xmlns:xlink="http://www.w3.org/1999/xlink" fill="#666666"><g><path d="M 17.945,5.305 C 17.784,5.535 16.434,7.349 13.245,8.545 C 11.775,5.845 10.146,3.626 9.898,3.294 C 10.573,3.132 11.276,3.045 12,3.045 C 14.279,3.045 16.361,3.9 17.945,5.305 ZM 12.627,12.092 C 8.002,13.587 5.54,17.663 5.337,18.010 C 3.905,16.42 3.031,14.317 3.031,12.014 C 3.031,11.922 3.033,11.831 3.036,11.74 C 3.428,11.748 7.774,11.804 12.253,10.463 C 12.51,10.966 12.755,11.476 12.98,11.985 C 12.862,12.019 12.744,12.054 12.627,12.092 ZM 12,0C 5.373,0,0,5.373,0,12s 5.373,12, 12,12s 12-5.373, 12-12S 18.627,0, 12,0z M 12,22.5 C 6.21,22.5, 1.5,17.79, 1.5,12C 1.5,6.21, 6.21,1.5, 12,1.5C 17.79,1.5, 22.5,6.21, 22.5,12 C 22.5,17.79, 17.79,22.5, 12,22.5zM 14.529,11.177 C 14.343,10.74 14.143,10.306 13.934,9.878 C 17.25,8.524 18.753,6.598 18.942,6.342 C 20.191,7.868 20.948,9.812 20.968,11.929 C 20.672,11.866 17.707,11.265 14.723,11.64 C 14.66,11.487 14.595,11.332 14.529,11.177 ZM 11.512,9.084 C 7.317,10.198 3.622,10.182 3.221,10.177 C 3.802,7.394 5.678,5.081 8.187,3.897 C 8.423,4.222 10.026,6.442 11.512,9.084 ZM 13.531,13.488 C 13.551,13.481 13.57,13.475 13.59,13.468 C 14.849,16.74 15.37,19.483 15.503,20.27 C 14.427,20.728 13.242,20.982 12,20.982 C 9.927,20.982 8.016,20.275 6.495,19.089 C 6.656,18.759 8.472,15.251 13.531,13.488 ZM 15.269,13.054 C 18.079,12.604 20.548,13.341 20.855,13.437 C 20.455,15.933 19.023,18.088 17.011,19.448 C 16.919,18.903 16.442,16.277 15.269,13.054 Z"></path></g></svg>