<?xml version="1.0" encoding="utf-8"?> <!-- Generator: IcoMoon.io --> <!DOCTYPE svg PUBLIC "-//W3C//DTD SVG 1.1//EN" "http://www.w3.org/Graphics/SVG/1.1/DTD/svg11.dtd"> <svg width="24" height="24" viewBox="0 0 24 24" xmlns="http://www.w3.org/2000/svg" xmlns:xlink="http://www.w3.org/1999/xlink" fill="#666666"><g><path d="M 12,24C 5.383,24,0,18.617,0,12S 5.383,0, 12,0 C 18.617,0, 24,5.383, 24,12S 18.617,24, 12,24z M 22.12,13.643c-0.351-0.111-3.173-0.952-6.385-0.438 c 1.341,3.684, 1.886,6.685, 1.991,7.308C 20.026,18.958, 21.663,16.495, 22.12,13.643z M 16.004,21.451 c-0.152-0.899-0.748-4.033-2.187-7.773c-0.022,0.008-0.045,0.015-0.068,0.023c-5.781,2.015-7.857,6.024-8.041,6.401 c 1.738,1.355, 3.922,2.164, 6.291,2.164C 13.42,22.265, 14.773,21.975, 16.004,21.451z M 4.385,18.869 c 0.232-0.398, 3.045-5.055, 8.331-6.764c 0.134-0.043, 0.268-0.084, 0.404-0.122c-0.257-0.582-0.538-1.165-0.831-1.739 c-5.119,1.532-10.086,1.468-10.534,1.459c-0.003,0.104-0.005,0.208-0.005,0.313C 1.75,14.648, 2.748,17.052, 4.385,18.869z M 1.967,9.916c 0.458,0.006, 4.681,0.024, 9.476-1.249c-1.698-3.019-3.53-5.557-3.8-5.928 C 4.775,4.092, 2.631,6.736, 1.967,9.916z M 9.598,2.051c 0.283,0.379, 2.145,2.914, 3.825,6 c 3.645-1.366, 5.188-3.44, 5.372-3.703c-1.81-1.606-4.19-2.583-6.795-2.583C 11.173,1.766, 10.369,1.865, 9.598,2.051z M 19.934,5.534c-0.216,0.292-1.934,2.494-5.723,4.041c 0.239,0.488, 0.467,0.985, 0.68,1.485 c 0.075,0.177, 0.149,0.354, 0.221,0.529c 3.411-0.429, 6.799,0.258, 7.137,0.33C 22.226,9.5, 21.362,7.278, 19.934,5.534z"></path></g></svg>