<?xml version="1.0" encoding="utf-8"?> <!-- Generator: IcoMoon.io --> <!DOCTYPE svg PUBLIC "-//W3C//DTD SVG 1.1//EN" "http://www.w3.org/Graphics/SVG/1.1/DTD/svg11.dtd"> <svg width="24" height="24" viewBox="0 0 24 24" xmlns="http://www.w3.org/2000/svg" xmlns:xlink="http://www.w3.org/1999/xlink" fill="#666666"><g><path d="M 20.999,14.848c-0-0.017-0.001-0.033-0.001-0.049c-0.001-0.033-0.002-0.067-0.003-0.1C 20.76,7.3, 12,0, 12,0 S 3.24,7.3, 3.005,14.698c-0.001,0.034-0.002,0.067-0.003,0.1c-0,0.017-0.001,0.033-0.001,0.049 c-0.001,0.051-0.001,0.101-0.001,0.152c0,0.055, 0.001,0.111, 0.002,0.166c 0,0.005, 0,0.009, 0,0.014 C 3.098,20.067, 7.089,24, 12,24c 4.911,0, 8.902-3.933, 8.998-8.82c 0-0.005, 0-0.009, 0-0.014 c 0.001-0.055, 0.002-0.11, 0.002-0.166C 21,14.949, 20.999,14.898, 20.999,14.848z M 17.999,15.111l-0,0.010 c-0.031,1.577-0.669,3.055-1.796,4.161C 15.074,20.39, 13.582,21, 12,21c-0.292,0-0.581-0.021-0.865-0.062 c 3.259-1.942, 5.443-5.501, 5.443-9.57c0-0.456-0.028-0.905-0.081-1.347c 0.944,1.733, 1.455,3.347, 1.5,4.772 l 0,0.003c 0.001,0.022, 0.001,0.044, 0.002,0.067l 0.001,0.034C 18,14.932, 18,14.966, 18,15 C 18,15.037, 18,15.074, 17.999,15.111z"></path></g></svg>