<?xml version="1.0" encoding="utf-8"?> <!-- Generator: IcoMoon.io --> <!DOCTYPE svg PUBLIC "-//W3C//DTD SVG 1.1//EN" "http://www.w3.org/Graphics/SVG/1.1/DTD/svg11.dtd"> <svg width="24" height="24" viewBox="0 0 24 24" xmlns="http://www.w3.org/2000/svg" xmlns:xlink="http://www.w3.org/1999/xlink" fill="#666666"><g><path d="M 20.485,3.515 C 22.752,5.781 24,8.795 24,12 C 24,15.205 22.752,18.219 20.485,20.485 C 18.219,22.752 15.205,24 12,24 C 8.795,24 5.781,22.752 3.515,20.485 C 1.248,18.219 0,15.205 0,12 C 0,8.795 1.248,5.781 3.515,3.515 C 5.781,1.248 8.795,0 12,0 C 15.205,0 18.219,1.248 20.485,3.515 Z M 19.425,19.425 C 20.903,17.947 21.885,16.106 22.29,14.103 C 21.975,14.568 21.673,14.74 21.485,13.7 C 21.293,12.003 19.734,13.087 18.755,12.484 C 17.723,13.179 15.405,11.133 15.799,13.441 C 16.407,14.482 19.081,12.048 17.748,14.251 C 16.898,15.788 14.639,19.194 14.933,20.96 C 14.97,23.532 12.305,21.496 11.387,20.643 C 10.769,18.934 11.176,15.947 9.561,15.11 C 7.808,15.033 6.303,14.874 5.623,12.914 C 5.215,11.512 6.059,9.425 7.561,9.102 C 9.761,7.72 10.547,10.721 12.609,10.776 C 13.25,10.106 14.996,9.893 15.14,9.142 C 13.787,8.903 16.858,8.004 15.011,7.492 C 13.992,7.612 13.336,8.549 13.877,9.343 C 11.903,9.803 11.84,6.486 9.942,7.532 C 9.894,9.186 6.843,8.068 8.886,7.733 C 9.588,7.426 7.741,6.537 8.739,6.699 C 9.229,6.672 10.88,6.094 10.433,5.705 C 11.352,5.134 12.124,7.071 13.024,5.661 C 13.673,4.576 12.752,4.376 11.938,4.926 C 11.479,4.412 12.748,3.302 13.867,2.823 C 14.24,2.663 14.597,2.576 14.869,2.6 C 15.433,3.252 16.476,3.365 16.53,2.522 C 15.134,1.853 13.594,1.5 12,1.5 C 9.712,1.5 7.536,2.227 5.735,3.572 C 6.219,3.793 6.494,4.069 6.027,4.422 C 5.665,5.502 4.195,6.951 2.905,6.746 C 2.235,7.901 1.794,9.174 1.605,10.508 C 2.686,10.865 2.935,11.573 2.703,11.81 C 2.152,12.29 1.814,12.971 1.639,13.716 C 1.991,15.868 3.003,17.852 4.575,19.425 C 6.559,21.408 9.195,22.5 12,22.5 C 14.805,22.5 17.441,21.408 19.425,19.425 Z"></path></g></svg>