<?xml version="1.0" encoding="utf-8"?> <!-- Generator: IcoMoon.io --> <!DOCTYPE svg PUBLIC "-//W3C//DTD SVG 1.1//EN" "http://www.w3.org/Graphics/SVG/1.1/DTD/svg11.dtd"> <svg width="24" height="24" viewBox="0 0 24 24" xmlns="http://www.w3.org/2000/svg" xmlns:xlink="http://www.w3.org/1999/xlink" fill="#666666"><g><path d="M 21.75,3L 2.25,3 C 1.013,3,0,4.012,0,5.25l0,15 c0,1.237, 1.013,2.25, 2.25,2.25l 19.5,0 c 1.237,0, 2.25-1.013, 2.25-2.25L 24,5.25 C 24,4.012, 22.987,3, 21.75,3z M 9.345,12.899L 3,17.842L 3,6.085 L 9.345,12.899z M 4.134,6L 19.866,6 L 12,11.906L 4.134,6z M 9.593,13.165L 12,15.75l 2.407-2.585 L 19.342,19.5L 4.658,19.5 L 9.593,13.165z M 14.655,12.899L 21,6.085l0,11.757 L 14.655,12.899z"></path></g></svg>