<?xml version="1.0" encoding="utf-8"?> <!-- Generator: IcoMoon.io --> <!DOCTYPE svg PUBLIC "-//W3C//DTD SVG 1.1//EN" "http://www.w3.org/Graphics/SVG/1.1/DTD/svg11.dtd"> <svg width="24" height="24" viewBox="0 0 24 24" xmlns="http://www.w3.org/2000/svg" xmlns:xlink="http://www.w3.org/1999/xlink" fill="#666666"><g><path d="M 21,10.5l 0.375,0 c 0.619,0 1.125-0.506 1.125-1.125l0-3.75 c0-0.619-0.506-1.125-1.125-1.125l-0.375,0 L 21,0 l-3,0 l 0,4.5 l-0.375,0 c-0.619,0, -1.125,0.506, -1.125,1.125l 0,3.75 c 0,0.619, 0.506,1.125, 1.125,1.125l 0.375,0 l 0,13.5 L 21,24 L 21,10.5 z M 18,6L 21,6 l 0,3 l-3,0 L 18,6 zM 13.875,19.5c 0.619,0 1.125-0.506 1.125-1.125l0-3.75 c0-0.619-0.506-1.125-1.125-1.125l-0.375,0 L 13.5,0 l-3,0 l 0,13.5 l-0.375,0 c-0.619,0, -1.125,0.506, -1.125,1.125l 0,3.75 c 0,0.619, 0.506,1.125, 1.125,1.125l 0.375,0 l 0,4.5 l 3,0 l0-4.5 L 13.875,19.5 z M 10.5,15l 3,0 l 0,3 l-3,0 L 10.5,15 zM 6.375,10.5c 0.619,0 1.125-0.506 1.125-1.125l0-3.75 c0-0.619-0.506-1.125-1.125-1.125l-0.375,0 L 6,0 l-3,0 l 0,4.5 l-0.375,0 c-0.619,0, -1.125,0.506, -1.125,1.125l 0,3.75 c 0,0.619, 0.506,1.125, 1.125,1.125l 0.375,0 l 0,13.5 l 3,0 L 6,10.5 L 6.375,10.5 z M 3,6l 3,0 l 0,3 l-3,0 L 3,6 z"></path></g></svg>