<?xml version="1.0" encoding="utf-8"?> <!-- Generator: IcoMoon.io --> <!DOCTYPE svg PUBLIC "-//W3C//DTD SVG 1.1//EN" "http://www.w3.org/Graphics/SVG/1.1/DTD/svg11.dtd"> <svg width="24" height="25.5" viewBox="0 0 24 25.5" xmlns="http://www.w3.org/2000/svg" xmlns:xlink="http://www.w3.org/1999/xlink" fill="#666666"><g><path d="M 24,1.5c0-1.067-0.223-2.081-0.625-3c-0.787,1.801-2.26,3.233-4.090,3.965C 17.265,0.919, 14.74,0, 12,0 S 6.735,0.919, 4.714,2.465C 2.885,1.733, 1.412,0.301, 0.625-1.5C 0.223-0.581,0,0.433,0,1.5c0,1.724, 0.582,3.312, 1.561,4.579 C 0.568,7.826,0,9.847,0,12c0,6.627, 5.373,12, 12,12s 12-5.373, 12-12c0-2.153-0.568-4.174-1.561-5.921 C 23.418,4.812, 24,3.224, 24,1.5z M 13.502,8.918c 0.048-1.112, 1.060-1.85, 1.912-2.277 c 0.814-0.407, 1.62-0.611, 1.653-0.619c 0.402-0.101, 0.809,0.144, 0.91,0.546c 0.1,0.402-0.144,0.809-0.546,0.91 c-0.413,0.104-0.903,0.284-1.334,0.5c 0.25,0.268, 0.403,0.627, 0.403,1.022c0,0.828-0.672,1.5-1.5,1.5s-1.5-0.672-1.5-1.5 C 13.5,8.973, 13.501,8.945, 13.502,8.918z M 6.022,6.568c 0.101-0.402, 0.508-0.646, 0.91-0.546 c 0.034,0.008, 0.839,0.212, 1.653,0.619c 0.853,0.426, 1.865,1.164, 1.912,2.277c 0.001,0.027, 0.002,0.054, 0.002,0.082 c0,0.828-0.672,1.5-1.5,1.5s-1.5-0.672-1.5-1.5c0-0.395, 0.153-0.754, 0.403-1.022c-0.432-0.216-0.921-0.396-1.334-0.5 C 6.166,7.377, 5.922,6.97, 6.022,6.568z M 12,19.5c-2.731,0-5.12-1.46-6.432-3.641l 1.93-1.158 C 8.416,16.228, 10.089,17.25, 12,17.25c 1.911,0, 3.584-1.022, 4.502-2.549l 1.93,1.158C 17.12,18.040, 14.731,19.5, 12,19.5z"></path></g></svg>