<?xml version="1.0" encoding="utf-8"?> <!-- Generator: IcoMoon.io --> <!DOCTYPE svg PUBLIC "-//W3C//DTD SVG 1.1//EN" "http://www.w3.org/Graphics/SVG/1.1/DTD/svg11.dtd"> <svg width="24" height="25.5" viewBox="0 0 24 25.5" xmlns="http://www.w3.org/2000/svg" xmlns:xlink="http://www.w3.org/1999/xlink" fill="#666666"><g><path d="M 15,10.5 C 14.171,10.5 13.5,9.828 13.5,9 C 13.5,8.973 13.501,8.945 13.502,8.918 C 13.55,7.806 14.562,7.068 15.415,6.642 C 16.229,6.235 17.034,6.031 17.068,6.022 C 17.47,5.922 17.877,6.166 17.978,6.568 C 18.078,6.97 17.834,7.377 17.432,7.478 C 17.019,7.582 16.529,7.762 16.097,7.978 C 16.347,8.246 16.5,8.605 16.5,9 C 16.5,9.828 15.828,10.5 15,10.5 ZM 6.568,7.478 C 6.166,7.377 5.922,6.97 6.022,6.568 C 6.123,6.166 6.53,5.922 6.932,6.022 C 6.966,6.031 7.771,6.235 8.585,6.642 C 9.438,7.068 10.45,7.806 10.498,8.918 C 10.499,8.945 10.5,8.973 10.5,9 C 10.5,9.828 9.829,10.5 9,10.5 C 8.172,10.5 7.5,9.828 7.5,9 C 7.5,8.605 7.653,8.246 7.903,7.978 C 7.471,7.762 6.981,7.582 6.568,7.478 ZM 12,17.25 C 13.911,17.25 15.584,16.228 16.502,14.701 L 18.432,15.859 C 17.12,18.040 14.731,19.5 12,19.5 C 9.269,19.5 6.88,18.040 5.568,15.859 L 7.498,14.701 C 8.416,16.228 10.089,17.25 12,17.25 ZM 24,1.5c0-1.067-0.223-2.081-0.625-3c-0.787,1.801-2.26,3.233-4.090,3.965C 17.265,0.919, 14.74,0, 12,0 S 6.735,0.919, 4.714,2.465C 2.885,1.733, 1.412,0.301, 0.625-1.5C 0.223-0.581,0,0.433,0,1.5 c0,1.724, 0.582,3.312, 1.561,4.579C 0.568,7.826,0,9.847,0,12c0,6.627, 5.373,12, 12,12s 12-5.373, 12-12 c0-2.153-0.568-4.174-1.561-5.921C 23.418,4.812, 24,3.224, 24,1.5z M 12,21.75c-5.385,0-9.75-4.365-9.75-9.75 S 6.615,2.25, 12,2.25s 9.75,4.365, 9.75,9.75S 17.385,21.75, 12,21.75z"></path></g></svg>