<?xml version="1.0" encoding="utf-8"?> <!-- Generator: IcoMoon.io --> <!DOCTYPE svg PUBLIC "-//W3C//DTD SVG 1.1//EN" "http://www.w3.org/Graphics/SVG/1.1/DTD/svg11.dtd"> <svg width="24" height="24" viewBox="0 0 24 24" xmlns="http://www.w3.org/2000/svg" xmlns:xlink="http://www.w3.org/1999/xlink" fill="#666666"><g><path d="M 19.672,6.947 C 21.491,8.237 22.985,9.973 24,12 C 21.771,16.452 17.234,19.5 12,19.5 C 10.534,19.5 9.122,19.261 7.801,18.818 L 9.628,16.991 C 10.402,17.162 11.197,17.25 12,17.25 C 14.099,17.25 16.145,16.653 17.917,15.523 C 19.327,14.623 20.522,13.418 21.419,12 C 20.551,10.627 19.403,9.456 18.052,8.567 L 19.672,6.947 ZM 12,16.359 C 11.467,16.359 10.951,16.29 10.46,16.159 L 17.8,8.819 C 17.93,9.311 18,9.827 18,10.359 C 18,13.673 15.314,16.359 12,16.359 ZM 22.5,0l-1.259,0 L 16.093,5.147C 14.803,4.727, 13.427,4.5, 12,4.5C 6.766,4.5, 2.229,7.548,0,12 c 1,1.997, 2.464,3.71, 4.247,4.994L0,21.241L0,22.5 l 1.259,0 L 22.5,1.259L 22.5,0 z M 9.75,7.359c 1.126,0, 2.059,0.827, 2.224,1.907 l-2.567,2.567C 8.327,11.668, 7.5,10.735, 7.5,9.609C 7.5,8.367, 8.507,7.359, 9.75,7.359z M 2.581,12 c 0.897-1.419, 2.092-2.623, 3.502-3.523c 0.092-0.059, 0.185-0.115, 0.278-0.171C 6.128,8.947, 6,9.638, 6,10.359 c0,1.372, 0.461,2.635, 1.235,3.646l-1.372,1.372C 4.549,14.495, 3.431,13.344, 2.581,12z"></path></g></svg>