<?xml version="1.0" encoding="utf-8"?> <!-- Generator: IcoMoon.io --> <!DOCTYPE svg PUBLIC "-//W3C//DTD SVG 1.1//EN" "http://www.w3.org/Graphics/SVG/1.1/DTD/svg11.dtd"> <svg width="24" height="24" viewBox="0 0 24 24" xmlns="http://www.w3.org/2000/svg" xmlns:xlink="http://www.w3.org/1999/xlink" fill="#666666"><g><path d="M 12,4.5C 6.766,4.5, 2.229,7.548,0,12c 2.229,4.452, 6.766,7.5, 12,7.5c 5.234,0, 9.771-3.048, 12-7.5 C 21.771,7.548, 17.234,4.5, 12,4.5z M 17.917,8.477c 1.41,0.899, 2.605,2.104, 3.502,3.523 c-0.897,1.418-2.092,2.623-3.502,3.523C 16.145,16.653, 14.099,17.25, 12,17.25c-2.099,0-4.145-0.597-5.917-1.727 C 4.673,14.623, 3.478,13.419, 2.581,12c 0.897-1.419, 2.092-2.623, 3.502-3.523c 0.092-0.059, 0.185-0.115, 0.278-0.171 C 6.128,8.947, 6,9.638, 6,10.359c0,3.314, 2.686,6, 6,6s 6-2.686, 6-6c0-0.721-0.128-1.413-0.361-2.053 C 17.732,8.362, 17.825,8.419, 17.917,8.477z M 12,9.609c0,1.243-1.007,2.25-2.25,2.25s-2.25-1.007-2.25-2.25s 1.007-2.25, 2.25-2.25 S 12,8.367, 12,9.609z"></path></g></svg>