<?xml version="1.0" encoding="utf-8"?> <!-- Generator: IcoMoon.io --> <!DOCTYPE svg PUBLIC "-//W3C//DTD SVG 1.1//EN" "http://www.w3.org/Graphics/SVG/1.1/DTD/svg11.dtd"> <svg width="24" height="24" viewBox="0 0 24 24" xmlns="http://www.w3.org/2000/svg" xmlns:xlink="http://www.w3.org/1999/xlink" fill="#666666"><g><path d="M 12,7.5C 7.093,7.5, 2.736,9.857,0,13.5c 2.736,3.643, 7.093,6, 12,6c 4.907,0, 9.264-2.357, 12-6 C 21.264,9.857, 16.907,7.5, 12,7.5z M 10.5,10.5c 0.828,0, 1.5,0.672, 1.5,1.5s-0.672,1.5-1.5,1.5s-1.5-0.672-1.5-1.5S 9.672,10.5, 10.5,10.5z M 18.132,16.53c-0.929,0.475-1.914,0.841-2.926,1.087C 14.163,17.871, 13.084,18, 12,18 c-1.084,0-2.163-0.129-3.205-0.383c-1.012-0.247-1.997-0.612-2.926-1.087c-1.477-0.755-2.818-1.791-3.929-3.030 c 1.111-1.24, 2.452-2.276, 3.929-3.030c 0.758-0.387, 1.553-0.702, 2.369-0.938C 7.771,10.24, 7.5,11.088, 7.5,12 c0,2.485, 2.015,4.5, 4.5,4.5c 2.485,0, 4.5-2.015, 4.5-4.5c0-0.912-0.271-1.76-0.737-2.469c 0.817,0.237, 1.611,0.551, 2.369,0.938 c 1.477,0.755, 2.818,1.791, 3.929,3.030C 20.949,14.74, 19.609,15.776, 18.132,16.53z M 20.178,5.712 C 17.63,4.41, 14.878,3.75, 12,3.75c-2.878,0-5.63,0.66-8.178,1.962C 2.445,6.416, 1.157,7.304,0,8.339l0,2.56 c 1.297-1.373, 2.829-2.525, 4.505-3.382C 6.839,6.324, 9.361,5.719, 12,5.719s 5.161,0.605, 7.495,1.798 c 1.676,0.856, 3.208,2.009, 4.505,3.382L 24,8.339 C 22.843,7.304, 21.555,6.416, 20.178,5.712z"></path></g></svg>