<?xml version="1.0" encoding="utf-8"?> <!-- Generator: IcoMoon.io --> <!DOCTYPE svg PUBLIC "-//W3C//DTD SVG 1.1//EN" "http://www.w3.org/Graphics/SVG/1.1/DTD/svg11.dtd"> <svg width="24" height="24" viewBox="0 0 24 24" xmlns="http://www.w3.org/2000/svg" xmlns:xlink="http://www.w3.org/1999/xlink" fill="#666666"><g><path d="M 12,0 C 18.627,0 24,5.373 24,12 C 24,18.119 19.419,23.169 13.5,23.907 L 13.5,15 L 17.625,15 L 18,12 L 13.5,12 L 13.5,10.5 C 13.5,9.672 14.172,9 15,9 L 18,9 L 18,6 L 15,6 C 12.515,6 10.5,8.015 10.5,10.5 L 10.5,12 L 8.25,12 L 8.25,15 L 10.5,15 L 10.5,20.93 L 10.5,23.622 L 10.5,23.907 C 4.581,23.169 0,18.119 0,12 C 0,5.373 5.373,0 12,0 Z"></path></g></svg>