<?xml version="1.0" encoding="utf-8"?> <!-- Generator: IcoMoon.io --> <!DOCTYPE svg PUBLIC "-//W3C//DTD SVG 1.1//EN" "http://www.w3.org/Graphics/SVG/1.1/DTD/svg11.dtd"> <svg width="24" height="24" viewBox="0 0 24 24" xmlns="http://www.w3.org/2000/svg" xmlns:xlink="http://www.w3.org/1999/xlink" fill="#666666"><g><path d="M 20,0L 4,0 C 1.8,0,0,1.8,0,4l0,15.999 C0,22.201, 1.8,24, 4,24l 16-0 c 2.2,0, 4-1.799, 4-4L 24,4 C 24,1.8, 22.2,0, 20,0z M 20.404,12L 16.5,12 l0,10.5 l-4.5,0 L 12,12 l-2.169,0 l0-3.435 L 12,8.565 l0-2.231 C 12,3.303, 13.308,1.5, 16.872,1.5l 4.107,0 l0,3.716 l-3.355,0 c-0.996-0.002-1.119,0.519-1.119,1.489L 16.5,8.565l 4.5,0 L 20.404,12z"></path></g></svg>