<?xml version="1.0" encoding="utf-8"?> <!-- Generator: IcoMoon.io --> <!DOCTYPE svg PUBLIC "-//W3C//DTD SVG 1.1//EN" "http://www.w3.org/Graphics/SVG/1.1/DTD/svg11.dtd"> <svg width="24" height="24" viewBox="0 0 24 24" xmlns="http://www.w3.org/2000/svg" xmlns:xlink="http://www.w3.org/1999/xlink" fill="#666666"><g><path d="M 3.194,17.6c-1.762,0-3.194,1.438-3.194,3.189c0,1.761, 1.432,3.183, 3.194,3.183 c 1.769,0, 3.199-1.421, 3.199-3.183C 6.393,19.037, 4.963,17.6, 3.194,17.6zM 0.004,8.155l0,4.6 c 2.995,0, 5.812,1.171, 7.933,3.293c 2.118,2.117, 3.288,4.946, 3.288,7.952l 4.62,0 C 15.844,15.262, 8.736,8.155, 0.004,8.155zM 0.009,0l0,4.602 c 10.682,0, 19.377,8.703, 19.377,19.398L 24,24 C 24,10.77, 13.236,0, 0.009,0z"></path></g></svg>