<?xml version="1.0" encoding="utf-8"?> <!-- Generator: IcoMoon.io --> <!DOCTYPE svg PUBLIC "-//W3C//DTD SVG 1.1//EN" "http://www.w3.org/Graphics/SVG/1.1/DTD/svg11.dtd"> <svg width="24" height="24" viewBox="0 0 24 24" xmlns="http://www.w3.org/2000/svg" xmlns:xlink="http://www.w3.org/1999/xlink" fill="#666666"><g><path d="M 9,12A3,3 2520 1 0 15,12A3,3 2520 1 0 9,12zM 15.571,5.403 C 17.911,6.672 19.5,9.151 19.5,12 C 19.5,14.849 17.911,17.328 15.571,18.597 C 16.603,16.953 17.25,14.606 17.25,12 C 17.25,9.394 16.603,7.047 15.571,5.403 ZM 6.75,12 C 6.75,14.606 7.396,16.953 8.429,18.597 C 6.089,17.328 4.5,14.849 4.5,12 C 4.5,9.151 6.089,6.672 8.429,5.403 C 7.396,7.047 6.75,9.394 6.75,12 ZM 2.25,12 C 2.25,16.029 3.525,19.645 5.547,22.118 C 2.211,19.987 0,16.252 0,12 C 0,7.748 2.211,4.013 5.547,1.882 C 3.525,4.355 2.25,7.971 2.25,12 ZM 18.454,1.882 C 21.789,4.013 24,7.748 24,12 C 24,16.252 21.789,19.987 18.454,22.118 C 20.475,19.645 21.75,16.029 21.75,12 C 21.75,7.971 20.475,4.355 18.454,1.882 Z"></path></g></svg>