<?xml version="1.0" encoding="utf-8"?> <!-- Generator: IcoMoon.io --> <!DOCTYPE svg PUBLIC "-//W3C//DTD SVG 1.1//EN" "http://www.w3.org/Graphics/SVG/1.1/DTD/svg11.dtd"> <svg width="24" height="24" viewBox="0 0 24 24" xmlns="http://www.w3.org/2000/svg" xmlns:xlink="http://www.w3.org/1999/xlink" fill="#666666"><g><path d="M 12,0C 5.373,0,0,5.373,0,12s 5.373,12, 12,12s 12-5.373, 12-12S 18.627,0, 12,0z M 7.5,18 c-0.828,0-1.5-0.672-1.5-1.5s 0.672-1.5, 1.5-1.5s 1.5,0.672, 1.5,1.5S 8.328,18, 7.5,18z M 11.625,18c0-3.102-2.523-5.625-5.625-5.625l0-2.25 c 4.342,0, 7.875,3.533, 7.875,7.875L 11.625,18 z M 16.125,18c0-2.704-1.053-5.247-2.966-7.159C 11.247,8.928, 8.704,7.875, 6,7.875l0-2.25 c 3.305,0, 6.413,1.287, 8.75,3.625C 17.088,11.587, 18.375,14.695, 18.375,18L 16.125,18 z"></path></g></svg>