<?xml version="1.0" encoding="utf-8"?> <!-- Generator: IcoMoon.io --> <!DOCTYPE svg PUBLIC "-//W3C//DTD SVG 1.1//EN" "http://www.w3.org/Graphics/SVG/1.1/DTD/svg11.dtd"> <svg width="24" height="24" viewBox="0 0 24 24" xmlns="http://www.w3.org/2000/svg" xmlns:xlink="http://www.w3.org/1999/xlink" fill="#666666"><g><path d="M 20,0L 4,0 C 1.8,0,0,1.8,0,4l0,15.999 C0,22.201, 1.8,24, 4,24L 20,24 c 2.2,0, 4-1.799, 4-4L 24,4 C 24,1.8, 22.2,0, 20,0z M 6.538,19.482C 5.413,19.482, 4.5,18.576, 4.5,17.452 c0-1.118, 0.913-2.035, 2.038-2.035c 1.129,0, 2.040,0.917, 2.040,2.035C 8.578,18.576, 7.666,19.482, 6.538,19.482z M 11.659,19.5c0-1.917-0.746-3.722-2.097-5.073c-1.353-1.354-3.149-2.101-5.060-2.101L 4.502,9.392 c 5.57,0, 10.105,4.534, 10.105,10.108L 11.659,19.5L 11.659,19.5z M 16.866,19.5 c0-6.822-5.547-12.374-12.36-12.374L 4.506,4.191 c 8.438,0, 15.303,6.87, 15.303,15.309L 16.866,19.5L 16.866,19.5z"></path></g></svg>