<?xml version="1.0" encoding="utf-8"?> <!-- Generator: IcoMoon.io --> <!DOCTYPE svg PUBLIC "-//W3C//DTD SVG 1.1//EN" "http://www.w3.org/Graphics/SVG/1.1/DTD/svg11.dtd"> <svg width="24" height="24" viewBox="0 0 24 24" xmlns="http://www.w3.org/2000/svg" xmlns:xlink="http://www.w3.org/1999/xlink" fill="#666666"><g><path d="M 20.25,0L 2.25,0 C 1.013,0,0,1.013,0,2.25l0,19.5 c0,1.237, 1.013,2.25, 2.25,2.25l 18,0 c 1.237,0, 2.25-1.013, 2.25-2.25L 22.5,2.25 C 22.5,1.013, 21.487,0, 20.25,0z M 19.5,21L 3,21 L 3,3 l 16.5,0 L 19.5,21 zM 6,10.5L 16.5,10.5L 16.5,12L 6,12zM 6,13.5L 16.5,13.5L 16.5,15L 6,15zM 6,16.5L 16.5,16.5L 16.5,18L 6,18zM 6,7.5L 16.5,7.5L 16.5,9L 6,9z"></path></g></svg>