<?xml version="1.0" encoding="utf-8"?> <!-- Generator: IcoMoon.io --> <!DOCTYPE svg PUBLIC "-//W3C//DTD SVG 1.1//EN" "http://www.w3.org/Graphics/SVG/1.1/DTD/svg11.dtd"> <svg width="24" height="24" viewBox="0 0 24 24" xmlns="http://www.w3.org/2000/svg" xmlns:xlink="http://www.w3.org/1999/xlink" fill="#666666"><g><path d="M 19.735,13.816c-0.32-0.315-1.029-0.482-2.109-0.496c-0.731-0.008-1.61,0.056-2.535,0.186 c-0.414-0.239-0.841-0.499-1.176-0.812c-0.901-0.842-1.654-2.010-2.123-3.295c 0.031-0.12, 0.057-0.225, 0.081-0.333 c0,0, 0.508-2.884, 0.373-3.859c-0.019-0.134-0.030-0.173-0.066-0.276l-0.044-0.113c-0.138-0.319-0.409-0.656-0.834-0.638 l-0.249-0.008l-0.007-0c-0.473,0-0.859,0.242-0.961,0.604c-0.308,1.135, 0.010,2.833, 0.586,5.033l-0.147,0.358 c-0.412,1.005-0.929,2.017-1.385,2.91l-0.059,0.116c-0.48,0.938-0.915,1.735-1.309,2.41l-0.407,0.215 c-0.030,0.016-0.728,0.385-0.891,0.484c-1.389,0.829-2.309,1.77-2.462,2.518c-0.049,0.238-0.012,0.543, 0.235,0.685 l 0.394,0.198c 0.171,0.086, 0.351,0.129, 0.536,0.129c 0.989,0, 2.138-1.232, 3.719-3.993 c 1.826-0.595, 3.906-1.089, 5.728-1.361c 1.389,0.782, 3.097,1.325, 4.175,1.325c 0.191,0, 0.357-0.018, 0.491-0.054 c 0.207-0.055, 0.381-0.173, 0.487-0.333c 0.209-0.315, 0.252-0.748, 0.195-1.192C 19.954,14.090, 19.849,13.927, 19.735,13.816z M 4.96,19.079c 0.18-0.493, 0.894-1.468, 1.95-2.333c 0.066-0.054, 0.23-0.207, 0.38-0.349 C 6.186,18.157, 5.447,18.859, 4.96,19.079z M 11.213,4.68c 0.318,0, 0.499,0.801, 0.514,1.553 c 0.015,0.751-0.161,1.279-0.379,1.669c-0.181-0.578-0.268-1.488-0.268-2.084C 11.081,5.818, 11.067,4.68, 11.213,4.68z M 9.348,14.941c 0.221-0.396, 0.452-0.815, 0.687-1.258c 0.574-1.086, 0.937-1.935, 1.207-2.633 c 0.537,0.977, 1.206,1.808, 1.992,2.473c 0.098,0.083, 0.202,0.166, 0.311,0.25C 11.946,14.089, 10.565,14.474, 9.348,14.941z M 19.427,14.851c-0.097,0.061-0.376,0.096-0.556,0.096c-0.579,0-1.295-0.265-2.3-0.695 c 0.386-0.029, 0.74-0.043, 1.057-0.043c 0.581,0, 0.753-0.003, 1.321,0.142S 19.525,14.79, 19.427,14.851zM 21.174,4.674l-3.348-3.348C 17.097,0.597, 15.656,0, 14.625,0L 3.375,0 C 2.344,0, 1.5,0.844, 1.5,1.875l0,20.25 c0,1.031, 0.844,1.875, 1.875,1.875l 17.25,0 c 1.031,0, 1.875-0.844, 1.875-1.875L 22.5,7.875 C 22.5,6.844, 21.903,5.403, 21.174,4.674z M 20.114,5.735c 0.073,0.073, 0.146,0.163, 0.217,0.265L 16.5,6 L 16.5,2.169 c 0.102,0.071, 0.192,0.144, 0.265,0.217L 20.114,5.735z M 21,22.125c0,0.203-0.172,0.375-0.375,0.375L 3.375,22.5 c-0.203,0-0.375-0.172-0.375-0.375L 3,1.875 c0-0.203, 0.172-0.375, 0.375-0.375l 11.25,0 c 0.113,0, 0.24,0.014, 0.375,0.040L 15,7.5 l 5.96,0 c 0.026,0.135, 0.040,0.262, 0.040,0.375L 21,22.125 z"></path></g></svg>