<?xml version="1.0" encoding="utf-8"?> <!-- Generator: IcoMoon.io --> <!DOCTYPE svg PUBLIC "-//W3C//DTD SVG 1.1//EN" "http://www.w3.org/Graphics/SVG/1.1/DTD/svg11.dtd"> <svg width="24" height="24" viewBox="0 0 24 24" xmlns="http://www.w3.org/2000/svg" xmlns:xlink="http://www.w3.org/1999/xlink" fill="#666666"><g><path d="M 20.909,4.409l-2.818-2.818C 17.216,0.716, 15.487,0, 14.25,0L 3.75,0 C 2.513,0, 1.5,1.013, 1.5,2.25l0,19.5 c0,1.237, 1.013,2.25, 2.25,2.25l 16.5,0 c 1.237,0, 2.25-1.013, 2.25-2.25L 22.5,8.25 C 22.5,7.012, 21.784,5.284, 20.909,4.409z M 15,3.177c 0.051,0.019, 0.104,0.039, 0.158,0.062 c 0.423,0.175, 0.717,0.379, 0.811,0.473l 2.818,2.818c 0.094,0.094, 0.298,0.388, 0.473,0.811c 0.022,0.054, 0.043,0.107, 0.062,0.158 L 15,7.5 L 15,3.177 z M 19.5,21L 4.5,21 L 4.5,3 l 9,0 l0,6 l 6,0 L 19.5,21 z"></path></g></svg>