<?xml version="1.0" encoding="utf-8"?> <!-- Generator: IcoMoon.io --> <!DOCTYPE svg PUBLIC "-//W3C//DTD SVG 1.1//EN" "http://www.w3.org/Graphics/SVG/1.1/DTD/svg11.dtd"> <svg width="24" height="24" viewBox="0 0 24 24" xmlns="http://www.w3.org/2000/svg" xmlns:xlink="http://www.w3.org/1999/xlink" fill="#666666"><g><path d="M 16.177,11.055c-1.422-0.672-3.234-0.807-4.566,0.142c 1.62-0.155, 3.397,0.113, 4.573,1.339 c 1.125-1.291, 2.909-1.533, 4.522-1.4C 19.358,10.242, 17.584,10.362, 16.177,11.055zM 15.601,14.197c-1.603-0.037-3.151,0.543-4.479,1.409c-2.512-1.068-5.689-0.87-7.828,0.914 c 0.617-0.022, 1.219-0.175, 1.829-0.253c 2.231-0.222, 4.608,0.331, 6.293,1.871c 0.698-1.021, 1.679-1.834, 2.804-2.342 c 1.478-0.715, 3.144-0.789, 4.754-0.809C 17.998,14.315, 16.757,14.191, 15.601,14.197zM 21.174,4.674l-3.348-3.348C 17.097,0.597, 15.656,0, 14.625,0L 3.375,0 C 2.344,0, 1.5,0.844, 1.5,1.875l0,20.25 c0,1.031, 0.844,1.875, 1.875,1.875l 17.25,0 c 1.031,0, 1.875-0.844, 1.875-1.875L 22.5,7.875 C 22.5,6.844, 21.903,5.403, 21.174,4.674z M 20.114,5.735c 0.073,0.073, 0.146,0.163, 0.217,0.265L 16.5,6 L 16.5,2.169 c 0.102,0.071, 0.192,0.144, 0.265,0.217L 20.114,5.735z M 21,22.125c0,0.203-0.172,0.375-0.375,0.375L 3.375,22.5 c-0.203,0-0.375-0.172-0.375-0.375L 3,1.875 c0-0.203, 0.172-0.375, 0.375-0.375l 11.25,0 c 0.113,0, 0.24,0.014, 0.375,0.040L 15,7.5 l 5.96,0 c 0.026,0.135, 0.040,0.262, 0.040,0.375L 21,22.125 z"></path></g></svg>