<?xml version="1.0" encoding="utf-8"?> <!-- Generator: IcoMoon.io --> <!DOCTYPE svg PUBLIC "-//W3C//DTD SVG 1.1//EN" "http://www.w3.org/Graphics/SVG/1.1/DTD/svg11.dtd"> <svg width="24" height="24" viewBox="0 0 24 24" xmlns="http://www.w3.org/2000/svg" xmlns:xlink="http://www.w3.org/1999/xlink" fill="#666666"><g><path d="M0,3l0,18 l 24,0 L 24,3 L0,3 z M 4.5,19.5L 1.5,19.5 l0-3 l 3,0 L 4.5,19.5 z M 4.5,13.5L 1.5,13.5 l0-3 l 3,0 L 4.5,13.5 z M 4.5,7.5L 1.5,7.5 L 1.5,4.5 l 3,0 L 4.5,7.5 z M 18,19.5L 6,19.5 L 6,4.5 l 12,0 L 18,19.5 z M 22.5,19.5l-3,0 l0-3 l 3,0 L 22.5,19.5 z M 22.5,13.5l-3,0 l0-3 l 3,0 L 22.5,13.5 z M 22.5,7.5l-3,0 L 19.5,4.5 l 3,0 L 22.5,7.5 zM 9,7.5L 9,16.5L 15,12 z"></path></g></svg>