<?xml version="1.0" encoding="utf-8"?> <!-- Generator: IcoMoon.io --> <!DOCTYPE svg PUBLIC "-//W3C//DTD SVG 1.1//EN" "http://www.w3.org/Graphics/SVG/1.1/DTD/svg11.dtd"> <svg width="24" height="24" viewBox="0 0 24 24" xmlns="http://www.w3.org/2000/svg" xmlns:xlink="http://www.w3.org/1999/xlink" fill="#666666"><g><path d="M 12.023,18c-3.101,0-6.133-0.454-9.049-1.352l 0.475-1.424C 6.212,16.072, 9.085,16.5, 12.023,16.5 c 0.383,0, 0.765-0.008, 1.146-0.022C 13.268,14.66, 13.5,13.5, 13.5,13.5s-1.5,0-4.5,0c0-4.102, 1.402-7.736, 2.928-10.477L0,3.023 l0,17.953 l 13.27,0 c-0.109-1.071-0.148-2.083-0.144-2.996C 12.759,17.993, 12.392,18, 12.023,18z M 4.5,6l 1.5,0 l0,3 L 4.5,9 L 4.5,6 zM 24,3.023L 13.989,3.023 c-0.046,0.075-0.091,0.15-0.137,0.227c-0.9,1.513-1.616,3.065-2.126,4.611 c-0.427,1.292-0.71,2.584-0.848,3.858l 4.801,0 l-0.433,2.129c-0.007,0.038-0.191,1.004-0.286,2.506 c 1.919-0.19, 3.802-0.567, 5.637-1.13l 0.475,1.424c-2.005,0.618-4.066,1.025-6.165,1.22 c-0.001,0.103-0.001,0.206-0.001,0.311c 0.003,0.952, 0.055,1.888, 0.155,2.798L 24,20.977 L 24,3.023 z M 19.5,9l-1.5,0 l0-3 l 1.5,0 L 19.5,9 zM 13.764,24l 1.832,0 c-0.128-0.511-0.239-1.036-0.331-1.572c-0.082-0.475-0.15-0.959-0.204-1.451l-1.791,0 C 13.369,21.946, 13.526,22.964, 13.764,24zM 16.136,0l-2.259,0 c-0.604,0.817-1.287,1.837-1.948,3.023l 2.061,0 C 14.778,1.727, 15.563,0.694, 16.136,0z"></path></g></svg>