<?xml version="1.0" encoding="utf-8"?> <!-- Generator: IcoMoon.io --> <!DOCTYPE svg PUBLIC "-//W3C//DTD SVG 1.1//EN" "http://www.w3.org/Graphics/SVG/1.1/DTD/svg11.dtd"> <svg width="27.726842880249023" height="24" viewBox="0 0 27.726842880249023 24" xmlns="http://www.w3.org/2000/svg" xmlns:xlink="http://www.w3.org/1999/xlink" fill="#666666"><g><path d="M 7.524,24 C 5.924,20.672 6.776,18.765 8.005,16.968 C 9.352,15 9.698,13.052 9.698,13.052 C 9.698,13.052 10.757,14.428 10.333,16.58 C 12.203,14.498 12.556,11.182 12.274,9.913 C 16.5,12.866 18.306,19.261 15.872,24 C 28.818,16.675 19.092,5.715 17.399,4.48 C 17.963,5.715 18.070,7.805 16.93,8.819 C 15,1.5 10.228,0 10.228,0 C 10.792,3.774 8.182,7.902 5.664,10.986 C 5.576,9.481 5.482,8.442 4.691,7.002 C 4.513,9.736 2.423,11.965 1.858,14.704 C 1.091,18.414 2.432,21.13 7.524,24 Z"></path></g></svg>