<?xml version="1.0" encoding="utf-8"?> <!-- Generator: IcoMoon.io --> <!DOCTYPE svg PUBLIC "-//W3C//DTD SVG 1.1//EN" "http://www.w3.org/Graphics/SVG/1.1/DTD/svg11.dtd"> <svg width="25.048969268798828" height="24" viewBox="0 0 25.048969268798828 24" xmlns="http://www.w3.org/2000/svg" xmlns:xlink="http://www.w3.org/1999/xlink" fill="#666666"><g><path d="M 23.965,7.831l-0.278,1.783c0,0-0.397-3.301-0.884-4.535c-0.746-1.891-1.078-1.876-1.081-1.873 c 0.5,1.27, 0.409,1.953, 0.409,1.953s-0.886-2.414-3.228-3.182c-2.594-0.85-3.998-0.618-4.16-0.574 c-0.025-0-0.048-0-0.071-0c 0.019,0.001, 0.038,0.003, 0.057,0.005c-0.001,0-0.002,0.001-0.002,0.001 c 0.011,0.013, 2.867,0.499, 3.373,1.195c0,0-1.213,0-2.42,0.348c-0.055,0.016, 4.442,0.562, 5.361,5.055 c0,0-0.493-1.028-1.103-1.203c 0.401,1.22, 0.298,3.534-0.084,4.684c-0.049,0.148-0.099-0.639-0.851-0.979 c 0.241,1.726-0.014,4.464-1.212,5.218c-0.093,0.059, 0.751-2.703, 0.17-1.635c-3.345,5.128-7.299,2.367-9.076,1.151 c 0.911,0.198, 2.64-0.031, 3.406-0.6c 0.001-0.001, 0.002-0.001, 0.003-0.002c 0.831-0.568, 1.324-0.984, 1.766-0.885 c 0.442,0.099, 0.737-0.345, 0.393-0.739c-0.344-0.395-1.179-0.937-2.309-0.641c-0.797,0.209-1.784,1.090-3.292,0.198 c-1.157-0.686-1.266-1.255-1.276-1.649c 0.029-0.14, 0.065-0.27, 0.107-0.39c 0.133-0.372, 0.537-0.484, 0.762-0.573 c 0.381,0.065, 0.709,0.184, 1.054,0.361c 0.004-0.115, 0.006-0.267-0-0.44c 0.033-0.066, 0.013-0.264-0.040-0.506 c-0.031-0.242-0.080-0.492-0.158-0.719c 0-0, 0-0, 0.001-0c 0.001-0, 0.003-0.001, 0.004-0.002 c 0.002-0.001, 0.003-0.003, 0.005-0.004c 0-0, 0.001-0.001, 0.001-0.001c 0.002-0.003, 0.004-0.006, 0.005-0.011 c 0.024-0.108, 0.282-0.317, 0.603-0.541c 0.288-0.201, 0.626-0.415, 0.892-0.58c 0.236-0.146, 0.415-0.255, 0.453-0.284 c 0.014-0.011, 0.032-0.024, 0.051-0.038c 0.004-0.003, 0.007-0.005, 0.011-0.008c 0.002-0.002, 0.004-0.003, 0.007-0.005 c 0.127-0.101, 0.316-0.292, 0.356-0.693c 0-0.001, 0-0.002, 0-0.003c 0.001-0.012, 0.002-0.024, 0.003-0.036 c 0.001-0.008, 0.001-0.017, 0.002-0.026c 0-0.007, 0.001-0.013, 0.001-0.020c 0.001-0.016, 0.001-0.032, 0.001-0.048 c0-0.001, 0-0.002, 0-0.003c 0.001-0.039-0-0.079-0.002-0.122c-0.001-0.024-0.003-0.045-0.007-0.065 c-0-0.001-0-0.002-0.001-0.003c-0-0.002-0.001-0.004-0.001-0.006c-0.001-0.003-0.002-0.007-0.003-0.010 c-0-0-0-0.001-0-0.001c-0.001-0.004-0.003-0.007-0.004-0.011c-0-0-0-0-0-0 c-0.041-0.096-0.195-0.133-0.831-0.143c-0.001-0-0.001-0-0.002-0l0,0c-0.259-0.004-0.599-0.005-1.043-0.003 c-0.779,0.003-1.21-0.762-1.348-1.058c 0.188-1.042, 0.733-1.785, 1.628-2.288c 0.017-0.010, 0.014-0.017-0.006-0.023 c 0.175-0.106-2.115-0.003-3.168,1.337c-0.935-0.232-1.75-0.217-2.452-0.052c-0.135-0.004-0.303-0.021-0.502-0.062 c-0.467-0.423-1.135-1.205-1.171-2.138c0,0-0.002,0.002-0.006,0.005c-0-0.009-0.001-0.018-0.002-0.027 c0,0-1.423,1.094-1.21,4.075c-0.001,0.048-0.002,0.093-0.003,0.138c-0.385,0.522-0.576,0.961-0.59,1.058 C 0.628,7.649, 0.282,8.695,0,10.282c0,0, 0.197-0.625, 0.593-1.333c-0.291,0.891-0.519,2.277-0.385,4.356 c0,0, 0.035-0.461, 0.161-1.125c 0.098,1.289, 0.528,2.881, 1.614,4.753c 2.085,3.593, 5.289,5.408, 8.831,5.686 c 0.629,0.052, 1.267,0.053, 1.908,0.004c 0.059-0.004, 0.118-0.009, 0.177-0.013c 0.726-0.051, 1.456-0.161, 2.185-0.337 C 25.049,19.864, 23.965,7.831, 23.965,7.831z"></path></g></svg>