<?xml version="1.0" encoding="utf-8"?> <!-- Generator: IcoMoon.io --> <!DOCTYPE svg PUBLIC "-//W3C//DTD SVG 1.1//EN" "http://www.w3.org/Graphics/SVG/1.1/DTD/svg11.dtd"> <svg width="24" height="24" viewBox="0 0 24 24" xmlns="http://www.w3.org/2000/svg" xmlns:xlink="http://www.w3.org/1999/xlink" fill="#666666"><g><path d="M 19.5,4.038 C 21.292,4.038 22.901,3.063 24,2.325 L 24,16.286 C 22.901,17.024 21.292,18 19.5,18 C 17.708,18 16.099,17.469 15,16.731 C 13.901,15.993 12.292,15.462 10.5,15.462 C 8.708,15.462 7.099,16.374 6,17.111 L 6,3.15 C 7.099,2.412 8.708,1.5 10.5,1.5 C 12.292,1.5 13.901,2.031 15,2.769 C 16.099,3.507 17.708,4.038 19.5,4.038 ZM 3,0 C 3.828,0 4.5,0.672 4.5,1.5 L 4.5,24 L 1.5,24 L 1.5,1.5 C 1.5,0.672 2.172,0 3,0 Z"></path></g></svg>