<?xml version="1.0" encoding="utf-8"?> <!-- Generator: IcoMoon.io --> <!DOCTYPE svg PUBLIC "-//W3C//DTD SVG 1.1//EN" "http://www.w3.org/Graphics/SVG/1.1/DTD/svg11.dtd"> <svg width="24" height="24" viewBox="0 0 24 24" xmlns="http://www.w3.org/2000/svg" xmlns:xlink="http://www.w3.org/1999/xlink" fill="#666666"><g><path d="M 20.001,0L 4,0 C 1.8,0,0,1.8,0,4l0,15.999 C0,22.201, 1.8,24, 4,24l 16,0 C 22.201,24, 24,22.201, 24,19.999L 24,4 C 24,1.8, 22.201,0, 20.001,0z M 6.75,15.75c-2.071,0-3.75-1.679-3.75-3.75 c0-2.071, 1.679-3.75, 3.75-3.75s 3.75,1.679, 3.75,3.75C 10.5,14.071, 8.821,15.75, 6.75,15.75z M 17.25,15.75c-2.071,0-3.75-1.679-3.75-3.75 c0-2.071, 1.679-3.75, 3.75-3.75s 3.75,1.679, 3.75,3.75C 21,14.071, 19.321,15.75, 17.25,15.75z"></path></g></svg>