<?xml version="1.0" encoding="utf-8"?> <!-- Generator: IcoMoon.io --> <!DOCTYPE svg PUBLIC "-//W3C//DTD SVG 1.1//EN" "http://www.w3.org/Graphics/SVG/1.1/DTD/svg11.dtd"> <svg width="24" height="24.1640625" viewBox="0 0 24 24.1640625" xmlns="http://www.w3.org/2000/svg" xmlns:xlink="http://www.w3.org/1999/xlink" fill="#666666"><g><path d="M 12,0C 5.373,0,0,5.409,0,12.082S 5.373,24.164, 12,24.164s 12-5.409, 12-12.082S 18.627,0, 12,0z M 6.75,15.75 c-2.071,0-3.75-1.679-3.75-3.75c0-2.071, 1.679-3.75, 3.75-3.75s 3.75,1.679, 3.75,3.75C 10.5,14.071, 8.821,15.75, 6.75,15.75z M 17.25,15.75 c-2.071,0-3.75-1.679-3.75-3.75c0-2.071, 1.679-3.75, 3.75-3.75s 3.75,1.679, 3.75,3.75C 21,14.071, 19.321,15.75, 17.25,15.75z"></path></g></svg>