<?xml version="1.0" encoding="utf-8"?> <!-- Generator: IcoMoon.io --> <!DOCTYPE svg PUBLIC "-//W3C//DTD SVG 1.1//EN" "http://www.w3.org/Graphics/SVG/1.1/DTD/svg11.dtd"> <svg width="24" height="24" viewBox="0 0 24 24" xmlns="http://www.w3.org/2000/svg" xmlns:xlink="http://www.w3.org/1999/xlink" fill="#666666"><g><path d="M 18.75,9.75 C 17.096,9.75 15.75,11.096 15.75,12.75 C 15.75,14.404 17.096,15.75 18.75,15.75 C 20.404,15.75 21.75,14.404 21.75,12.75 C 21.75,11.096 20.404,9.75 18.75,9.75 Z M 18.75,7.5 L 18.75,7.5 C 21.649,7.5 24,9.851 24,12.75 C 24,15.649 21.649,18 18.75,18 C 15.851,18 13.5,15.649 13.5,12.75 C 13.5,9.851 15.851,7.5 18.75,7.5 ZM0,12.75A5.25,5.25 1080 1 0 10.5,12.75A5.25,5.25 1080 1 0 0,12.75z"></path></g></svg>