<?xml version="1.0" encoding="utf-8"?> <!-- Generator: IcoMoon.io --> <!DOCTYPE svg PUBLIC "-//W3C//DTD SVG 1.1//EN" "http://www.w3.org/Graphics/SVG/1.1/DTD/svg11.dtd"> <svg width="24" height="24" viewBox="0 0 24 24" xmlns="http://www.w3.org/2000/svg" xmlns:xlink="http://www.w3.org/1999/xlink" fill="#666666"><g><path d="M 18.741,0.38C 16.619,0.38, 15.257,0, 13.072,0C 6.011,0, 2.718,4.021, 2.718,8.106 c0,2.407, 1.14,3.198, 3.388,3.198c-0.158-0.348-0.443-0.728-0.443-2.438c0-4.781, 1.805-6.175, 4.116-6.27 c0,0-1.897,18.595-7.401,20.825L 2.378,24 l 3.954,0 l 3.466,0 l 2.532-12l 4.637,0 L 18,9L 12.963,9 l 1.217-5.77 c 1.393,0.285, 2.755,0.57, 3.927,0.57c 1.457,0, 2.787-0.443, 3.515-3.8C 20.735,0.285, 19.785,0.38, 18.741,0.38z"></path></g></svg>