<?xml version="1.0" encoding="utf-8"?> <!-- Generator: IcoMoon.io --> <!DOCTYPE svg PUBLIC "-//W3C//DTD SVG 1.1//EN" "http://www.w3.org/Graphics/SVG/1.1/DTD/svg11.dtd"> <svg width="24" height="24" viewBox="0 0 24 24" xmlns="http://www.w3.org/2000/svg" xmlns:xlink="http://www.w3.org/1999/xlink" fill="#666666"><g><path d="M 20.25,0c-2.071,0-3.75,1.679-3.75,3.75l0,11.25 l 3,0 l0,9 l 4.5,0 L 24,3.75 C 24,1.679, 22.321,0, 20.25,0zM 9.75,0c-0.414,0-0.75,0.336-0.75,0.75l0,5.25 c0,0.207-0.336,0.375-0.75,0.375c-0.414,0-0.75-0.168-0.75-0.375L 7.5,0.75 c0-0.414-0.336-0.75-0.75-0.75 c-0.414,0-0.75,0.336-0.75,0.75l0,5.25 c0,0.207-0.336,0.375-0.75,0.375c-0.414,0-0.75-0.168-0.75-0.375L 4.5,0.75 c0-0.414-0.336-0.75-0.75-0.75c-0.414,0-0.75,0.336-0.75,0.75l0,5.25 c0,0.207-0.336,0.375-0.75,0.375s-0.75-0.168-0.75-0.375L 1.5,0.75 c0-0.414-0.336-0.75-0.75-0.75S0,0.336,0,0.75l0,5.25 l0,1.5 c0,0.664, 0.587,1.034, 1.242,1.5 C 2.068,9.587, 3,10.327, 3,12l0,12 l 4.5,0 L 7.5,12 c0-1.673, 0.932-2.413, 1.758-3C 9.913,8.534, 10.5,8.164, 10.5,7.5l0-1.5 L 10.5,0.75 C 10.5,0.336, 10.164,0, 9.75,0z"></path></g></svg>