<?xml version="1.0" encoding="utf-8"?> <!-- Generator: IcoMoon.io --> <!DOCTYPE svg PUBLIC "-//W3C//DTD SVG 1.1//EN" "http://www.w3.org/Graphics/SVG/1.1/DTD/svg11.dtd"> <svg width="24" height="24" viewBox="0 0 24 24" xmlns="http://www.w3.org/2000/svg" xmlns:xlink="http://www.w3.org/1999/xlink" fill="#666666"><g><path d="M 10.5,13.5L 13.5,13.5L 13.5,19.5L 10.5,19.5zM 19.969,0L 4.031,0 C 1.814,0,0,1.814,0,4.031l0,15.938 c0,2.217, 1.814,4.031, 4.031,4.031l 15.938,0 c 2.217,0, 4.031-1.814, 4.031-4.031L 24,4.031 C 24,1.814, 22.186,0, 19.969,0z M 13.5,19.5l0,3 l-3,0 l0-3 L 4.5,19.5 L 12,3l 7.5,16.5L 13.5,19.5 z"></path></g></svg>