<?xml version="1.0" encoding="utf-8"?> <!-- Generator: IcoMoon.io --> <!DOCTYPE svg PUBLIC "-//W3C//DTD SVG 1.1//EN" "http://www.w3.org/Graphics/SVG/1.1/DTD/svg11.dtd"> <svg width="24" height="24" viewBox="0 0 24 24" xmlns="http://www.w3.org/2000/svg" xmlns:xlink="http://www.w3.org/1999/xlink" fill="#666666"><g><path d="M 23.993,0l-2.65,0 L 15.539,7.966l-2.298-2.298c-0.324-0.324-0.754-0.502-1.212-0.502 c-0.458,0-0.888,0.178-1.212,0.502l-1.043,1.043c-0.059-0.080-0.119-0.159-0.185-0.235 c-1.421-1.661-3.92-1.856-5.582-0.435c-1.661,1.421-1.856,3.92-0.434,5.581c 0.326,0.381, 0.709,0.684, 1.126,0.909 c 0.008,0.427, 0.175,0.853, 0.5,1.178L 10.817,19.328c 0.324,0.324, 0.754,0.502, 1.212,0.502c 0.458,0, 0.888-0.178, 1.212-0.502 l 5.618-5.618c 0.324-0.324, 0.502-0.754, 0.502-1.212s-0.178-0.888-0.502-1.212l-0.646-0.646l 5.78-4.877L 23.993,0 z M 11.613,6.464c 0.111-0.111, 0.259-0.173, 0.417-0.173c 0.157,0, 0.305,0.061, 0.416,0.172l 2.423,2.423l-2.633,3.615 c-0.26,0.29-0.489,0.137-0.58,0.030c-0.031-0.037-0.649-0.845-1.448-1.893c 0.397-0.908, 0.44-1.941, 0.114-2.883 L 11.613,6.464z M 18.064,12.082c 0.111,0.111, 0.173,0.259, 0.173,0.417s-0.061,0.305-0.173,0.417L 12.446,18.533 c-0.111,0.111-0.259,0.173-0.416,0.173c-0.157,0-0.305-0.061-0.417-0.173l-5.561-5.56c 0.647,0.087, 1.314,0.015, 1.937-0.222 l 3.731,3c0,0, 0.204,0.189, 0.429,0.006l 5.201-4.389L 18.064,12.082z"></path></g></svg>