<?xml version="1.0" encoding="utf-8"?> <!-- Generator: IcoMoon.io --> <!DOCTYPE svg PUBLIC "-//W3C//DTD SVG 1.1//EN" "http://www.w3.org/Graphics/SVG/1.1/DTD/svg11.dtd"> <svg width="24" height="24" viewBox="0 0 24 24" xmlns="http://www.w3.org/2000/svg" xmlns:xlink="http://www.w3.org/1999/xlink" fill="#666666"><g><path d="M 20,0L 4,0 C 1.8,0,0,1.8,0,4.001l0,15.999 C0,22.201, 1.8,24, 4,24l 16,0 C 22.2,24, 24,22.201, 24,19.999L 24,4.001 C 24,1.8, 22.2,0, 20,0z M 22.030,22.030 C 21.485,22.575, 20.764,22.875, 20,22.875L 4,22.875 c-0.764,0-1.485-0.3-2.030-0.845C 1.425,21.485, 1.125,20.764, 1.125,20 L 1.125,4.001 c0-0.764, 0.3-1.485, 0.846-2.030C 2.516,1.425, 3.237,1.125, 4,1.125l 16,0 c 0.166,0, 0.33,0.015, 0.491,0.043 l-4.952,6.798l-2.298-2.298c-0.324-0.324-0.754-0.502-1.212-0.502c-0.458,0-0.888,0.178-1.212,0.502l-1.043,1.043 c-0.059-0.080-0.119-0.159-0.185-0.235c-1.421-1.661-3.92-1.856-5.582-0.435c-1.661,1.421-1.856,3.92-0.434,5.581 c 0.326,0.381, 0.709,0.684, 1.126,0.909c 0.008,0.427, 0.175,0.853, 0.5,1.178L 10.817,19.328 c 0.324,0.324, 0.754,0.502, 1.212,0.502c 0.458,0, 0.888-0.178, 1.212-0.502l 5.618-5.618c 0.324-0.324, 0.502-0.754, 0.502-1.212 s-0.178-0.888-0.502-1.212l-0.646-0.646L 22.875,6.54l0,13.46 C 22.875,20.764, 22.575,21.485, 22.030,22.030z M 10.322,7.755 l 1.291-1.291c 0.111-0.111, 0.259-0.173, 0.417-0.173c 0.157,0, 0.305,0.061, 0.416,0.172l 2.423,2.423l-2.633,3.615 c-0.26,0.29-0.489,0.137-0.58,0.030c-0.031-0.037-0.649-0.845-1.448-1.893 C 10.605,9.73, 10.648,8.697, 10.322,7.755z M 11.72,15.751c0,0, 0.204,0.189, 0.429,0.006l 5.201-4.389l 0.714,0.714 c 0.111,0.111, 0.173,0.259, 0.173,0.417s-0.061,0.305-0.173,0.417L 12.446,18.533c-0.111,0.111-0.259,0.173-0.416,0.173 c-0.157,0-0.305-0.061-0.417-0.173l-5.561-5.56c 0.647,0.087, 1.314,0.015, 1.937-0.222L 11.72,15.751z"></path></g></svg>