<?xml version="1.0" encoding="utf-8"?> <!-- Generator: IcoMoon.io --> <!DOCTYPE svg PUBLIC "-//W3C//DTD SVG 1.1//EN" "http://www.w3.org/Graphics/SVG/1.1/DTD/svg11.dtd"> <svg width="24" height="24" viewBox="0 0 24 24" xmlns="http://www.w3.org/2000/svg" xmlns:xlink="http://www.w3.org/1999/xlink" fill="#666666"><g><path d="M 18.082,7.5c 0.425-0.302, 0.832-0.638, 1.206-1.011c 0.783-0.783, 1.307-1.746, 1.474-2.712 c 0.184-1.059-0.086-2.042-0.741-2.698c-0.523-0.523-1.231-0.799-2.048-0.799c-1.163,0-2.389,0.558-3.362,1.532 c-1.558,1.558-2.466,3.709-2.955,5.243c-0.362-1.542-1.083-3.624-2.485-5.026C 8.419,1.277, 7.458,0.891, 6.55,0.891 c-0.742,0-1.448,0.258-1.975,0.785c-1.172,1.172-1.013,3.229, 0.354,4.596c 0.487,0.487, 1.057,0.892, 1.657,1.228L 1.5,7.5 l0,6 l 1.5,0 l0,10.5 l 18,0 L 21,13.5 l 1.5,0 L 22.5,7.5 L 18.082,7.5 z M 15.805,3.005c 0.65-0.65, 1.461-1.038, 2.169-1.038c 0.251,0, 0.603,0.053, 0.854,0.305 c 0.61,0.61, 0.267,2.023-0.733,3.023c-1.030,1.030-2.415,1.738-3.619,2.205l-1.188,0 C 13.723,6.151, 14.508,4.302, 15.805,3.005z M 5.483,3.771c-0.016-0.214-0.001-0.615, 0.286-0.902 C 6.009,2.629, 6.326,2.578, 6.55,2.578l0,0 c 0.498,0, 1.019,0.235, 1.428,0.644c 0.794,0.794, 1.448,2.057, 1.891,3.653 c 0.012,0.043, 0.024,0.086, 0.035,0.129c-0.043-0.011-0.085-0.023-0.129-0.035c-1.596-0.443-2.859-1.097-3.653-1.891 C 5.751,4.707, 5.518,4.231, 5.483,3.771z M 10.5,22.5L 4.5,22.5 L 4.5,12.75 l 6,0 L 10.5,22.5 z M 10.5,12L 3,12 l0-3 l 7.5,0 L 10.5,12 z M 19.5,22.5L 13.5,22.5 L 13.5,12.75 l 6,0 L 19.5,22.5 z M 21,12L 13.5,12 l0-3 l 7.5,0 L 21,12 z"></path></g></svg>