<?xml version="1.0" encoding="utf-8"?> <!-- Generator: IcoMoon.io --> <!DOCTYPE svg PUBLIC "-//W3C//DTD SVG 1.1//EN" "http://www.w3.org/Graphics/SVG/1.1/DTD/svg11.dtd"> <svg width="24" height="24" viewBox="0 0 24 24" xmlns="http://www.w3.org/2000/svg" xmlns:xlink="http://www.w3.org/1999/xlink" fill="#666666"><g><path d="M 0,13.041 C 0,14.128 0.102,15.112 0.305,15.992 C 0.509,16.873 0.79,17.637 1.15,18.287 C 1.51,18.936 1.968,19.507 2.523,20 C 3.079,20.493 3.681,20.896 4.331,21.209 C 4.98,21.522 5.721,21.776 6.555,21.972 C 7.388,22.167 8.239,22.304 9.107,22.383 C 9.976,22.461 10.93,22.5 11.971,22.5 C 13.019,22.5 13.978,22.461 14.846,22.383 C 15.714,22.304 16.567,22.167 17.404,21.972 C 18.242,21.776 18.987,21.522 19.64,21.209 C 20.293,20.896 20.9,20.493 21.459,20 C 22.019,19.507 22.48,18.936 22.844,18.287 C 23.208,17.637 23.491,16.873 23.695,15.992 C 23.898,15.112 24,14.128 24,13.041 C 24,11.101 23.351,9.422 22.052,8.006 C 22.122,7.818 22.187,7.605 22.246,7.366 C 22.304,7.128 22.359,6.788 22.41,6.345 C 22.461,5.903 22.441,5.393 22.351,4.814 C 22.261,4.235 22.095,3.644 21.852,3.042 L 21.676,3.007 C 21.551,2.983 21.346,2.989 21.060,3.024 C 20.775,3.059 20.442,3.13 20.063,3.235 C 19.683,3.341 19.194,3.545 18.596,3.846 C 17.997,4.147 17.365,4.524 16.7,4.978 C 15.558,4.665 13.989,4.509 11.994,4.509 C 10.007,4.509 8.442,4.665 7.3,4.978 C 6.635,4.524 5.999,4.147 5.393,3.846 C 4.786,3.545 4.303,3.341 3.943,3.235 C 3.583,3.13 3.247,3.061 2.934,3.030 C 2.621,2.999 2.423,2.989 2.341,3.001 C 2.259,3.012 2.195,3.026 2.148,3.042 C 1.905,3.644 1.739,4.235 1.649,4.814 C 1.559,5.393 1.539,5.903 1.59,6.345 C 1.641,6.788 1.696,7.128 1.755,7.366 C 1.813,7.605 1.878,7.818 1.948,8.006 C 0.649,9.422 0,11.1 0,13.041 Z M 2.946,15.987 C 2.946,14.86 3.458,13.827 4.483,12.888 C 4.788,12.607 5.144,12.393 5.551,12.249 C 5.958,12.104 6.418,12.022 6.93,12.002 C 7.443,11.983 7.933,11.986 8.403,12.014 C 8.872,12.041 9.451,12.078 10.14,12.125 C 10.828,12.172 11.423,12.196 11.924,12.196 C 12.424,12.196 13.019,12.172 13.708,12.125 C 14.396,12.078 14.975,12.041 15.445,12.014 C 15.914,11.986 16.405,11.983 16.917,12.002 C 17.43,12.022 17.889,12.104 18.296,12.249 C 18.703,12.393 19.059,12.607 19.364,12.888 C 20.389,13.812 20.902,14.844 20.902,15.987 C 20.902,16.66 20.818,17.256 20.649,17.776 C 20.481,18.297 20.266,18.733 20.004,19.085 C 19.742,19.437 19.378,19.736 18.912,19.983 C 18.447,20.229 17.993,20.419 17.551,20.552 C 17.109,20.685 16.542,20.789 15.849,20.863 C 15.157,20.937 14.539,20.982 13.995,20.998 C 13.451,21.014 12.761,21.021 11.924,21.021 C 11.087,21.021 10.396,21.014 9.852,20.998 C 9.309,20.982 8.69,20.937 7.998,20.863 C 7.306,20.789 6.738,20.685 6.296,20.552 C 5.854,20.419 5.4,20.229 4.935,19.983 C 4.469,19.736 4.106,19.437 3.844,19.085 C 3.581,18.733 3.366,18.297 3.198,17.776 C 3.030,17.256 2.946,16.659 2.946,15.987 ZM 15,15.75A1.5,2.25 2520 1 0 18,15.75A1.5,2.25 2520 1 0 15,15.75zM 6,15.75A1.5,2.25 2520 1 0 9,15.75A1.5,2.25 2520 1 0 6,15.75z"></path></g></svg>