<?xml version="1.0" encoding="utf-8"?> <!-- Generator: IcoMoon.io --> <!DOCTYPE svg PUBLIC "-//W3C//DTD SVG 1.1//EN" "http://www.w3.org/Graphics/SVG/1.1/DTD/svg11.dtd"> <svg width="24" height="24" viewBox="0 0 24 24" xmlns="http://www.w3.org/2000/svg" xmlns:xlink="http://www.w3.org/1999/xlink" fill="#666666"><g><path d="M 5.514,5.829c-1.19,0-2.214,0.394-3.072,1.182c-0.893,0.84-1.339,1.89-1.339,3.151 c0,0.84, 0.243,1.628, 0.733,2.363c 0.438,0.683, 0.895,1.12, 1.495,1.313l0,0.053 c-0.6,0.245-0.866,0.858-0.866,1.838 c0,0.753, 0.267,1.313, 0.866,1.681l0,0.053 c-1.656,0.542-2.414,1.549-2.414,3.019c0,1.278, 0.557,2.215, 1.642,2.81 C 3.417,23.764, 4.518,24, 5.849,24c 3.238,0, 4.861-1.357, 4.861-4.070c0-1.698-1.25-2.739-3.753-3.125 c-0.578-0.087-1.015-0.298-1.312-0.63c-0.228-0.228-0.341-0.455-0.341-0.683c0-0.648, 0.351-1.024, 1.050-1.129 c 1.068-0.157, 1.939-0.652, 2.613-1.484c 0.674-0.832, 1.011-1.807, 1.011-2.928c0-0.35-0.106-0.726-0.246-1.129 c 0.455-0.105, 0.775-0.201, 1.015-0.289L 10.747,5.829 c-1.056,0.42-2.039,0.63-2.879,0.63 C 7.133,6.039, 6.372,5.829, 5.514,5.829z M 5.803,18.932c 1.471,0, 2.206,0.446, 2.206,1.339 c0,0.945-0.674,1.418-2.022,1.418c-1.54,0-2.311-0.455-2.311-1.365C 3.676,19.396, 4.385,18.932, 5.803,18.932z M 5.619,12c-1.103,0-1.654-0.604-1.654-1.812c0-1.295, 0.552-1.943, 1.654-1.943c 0.525,0, 0.937,0.201, 1.234,0.604 c 0.245,0.368, 0.368,0.805, 0.368,1.313C 7.221,11.387, 6.687,12, 5.619,12zM 13.603,0c-0.508,0-0.941,0.193-1.3,0.578c-0.359,0.385-0.538,0.849-0.538,1.392 c0,0.525, 0.179,0.98, 0.538,1.365c 0.359,0.385, 0.792,0.578, 1.3,0.578c 0.49,0, 0.915-0.192, 1.274-0.578 c 0.359-0.385, 0.538-0.84, 0.538-1.365c0-0.543-0.179-1.006-0.538-1.392C 14.517,0.193, 14.093,0, 13.603,0zM 15.073,6l-2.967,0 c 0.035,0.336-0.015,0.845-0.015,1.667l0,8.166 c0,0.84, 0.050,1.518, 0.015,1.782l 2.967,0 c-0.035-0.384-0.126-1.047-0.126-1.94L 14.947,7.615 C 14.947,6.845, 15.038,6.336, 15.073,6zM 21.617,15.098c-0.77,0-1.15-0.587-1.15-1.759l0-4.843 l 1.169,0 c 0.21,0, 0.399-0.012, 0.636,0.006 c 0.236,0.018, 0.332,0.006, 0.452,0.006l0-2.508 l-2.256,0 l0-1.116 c0-0.42, 0.066-0.804, 0.118-1.044l-3.046,0 c 0.053,0.24, 0.048,0.606, 0.048,1.097L 17.587,6 l-1.32,0 l0,2.508 c 0.36-0.053, 0.682-0.079, 0.909-0.079l 0.411,0.026l0,0.014 l0,0l0,4.739 c0,1.471, 0.187,2.547, 0.554,3.23c 0.49,0.91, 1.351,1.365, 2.628,1.365c 0.91,0, 1.714-0.175, 2.314-0.525l0-2.626 C 22.603,14.95, 22.16,15.098, 21.617,15.098z"></path></g></svg>