<?xml version="1.0" encoding="utf-8"?> <!-- Generator: IcoMoon.io --> <!DOCTYPE svg PUBLIC "-//W3C//DTD SVG 1.1//EN" "http://www.w3.org/Graphics/SVG/1.1/DTD/svg11.dtd"> <svg width="24" height="24" viewBox="0 0 24 24" xmlns="http://www.w3.org/2000/svg" xmlns:xlink="http://www.w3.org/1999/xlink" fill="#666666"><g><path d="M 12,19.497c-0.449,0-0.898-0.232-1.363-0.697c-0.183-0.183-0.183-0.48,0-0.663c 0.183-0.183, 0.48-0.183, 0.663,0 C 11.586,18.423, 11.815,18.563, 12,18.563c 0.185,0, 0.414-0.139, 0.7-0.425c 0.183-0.183, 0.48-0.183, 0.663,0 c 0.183,0.183, 0.183,0.48,0,0.663C 12.898,19.265, 12.449,19.497, 12,19.497zM 0,12.316 C 0,13.486 0.1,14.546 0.3,15.496 C 0.5,16.447 0.781,17.271 1.144,17.97 C 1.506,18.668 1.965,19.28 2.519,19.806 C 3.073,20.332 3.675,20.765 4.325,21.106 C 4.975,21.446 5.719,21.722 6.556,21.932 C 7.394,22.142 8.246,22.29 9.112,22.374 C 9.979,22.458 10.933,22.5 11.975,22.5 C 13.017,22.5 13.973,22.458 14.844,22.374 C 15.715,22.29 16.569,22.143 17.406,21.932 C 18.244,21.722 18.99,21.446 19.644,21.106 C 20.298,20.765 20.904,20.332 21.462,19.806 C 22.021,19.28 22.481,18.668 22.844,17.97 C 23.206,17.271 23.49,16.447 23.694,15.496 C 23.898,14.546 24,13.486 24,12.316 C 24,10.222 23.35,8.417 22.050,6.903 C 22.125,6.701 22.189,6.469 22.244,6.209 C 22.298,5.948 22.35,5.58 22.4,5.104 C 22.45,4.629 22.431,4.080 22.344,3.458 C 22.256,2.835 22.092,2.2 21.85,1.552 L 21.662,1.514 C 21.537,1.489 21.333,1.497 21.050,1.54 C 20.767,1.582 20.435,1.657 20.056,1.767 C 19.677,1.876 19.188,2.093 18.587,2.417 C 17.988,2.74 17.354,3.151 16.688,3.647 C 15.554,3.302 13.992,2.941 12,2.941 C 10.008,2.941 8.442,3.302 7.3,3.647 C 6.633,3.15 5.998,2.742 5.394,2.423 C 4.79,2.103 4.306,1.884 3.944,1.767 C 3.581,1.649 3.246,1.573 2.938,1.539 C 2.629,1.506 2.431,1.495 2.344,1.508 C 2.256,1.52 2.192,1.535 2.15,1.552 C 1.908,2.2 1.742,2.835 1.65,3.458 C 1.558,4.080 1.537,4.627 1.587,5.098 C 1.637,5.569 1.692,5.939 1.75,6.209 C 1.808,6.478 1.875,6.709 1.95,6.903 C 0.65,8.408 0,10.213 0,12.316 Z M 3.2,14.986 C 3.2,13.626 3.7,12.393 4.7,11.286 C 5,10.949 5.348,10.693 5.744,10.52 C 6.14,10.346 6.59,10.248 7.094,10.224 C 7.598,10.201 8.079,10.205 8.538,10.238 C 8.996,10.271 9.563,10.316 10.238,10.372 C 10.913,10.428 11.496,10.456 11.988,10.456 C 12.479,10.456 13.063,10.428 13.738,10.372 C 14.413,10.316 14.979,10.271 15.438,10.238 C 15.896,10.205 16.377,10.201 16.881,10.224 C 17.386,10.248 17.838,10.346 18.238,10.52 C 18.638,10.693 18.988,10.949 19.288,11.286 C 20.288,12.393 20.788,13.626 20.788,14.986 C 20.788,15.783 20.704,16.494 20.538,17.117 C 20.371,17.741 20.161,18.264 19.906,18.686 C 19.652,19.108 19.296,19.464 18.838,19.755 C 18.379,20.046 17.936,20.271 17.506,20.43 C 17.077,20.59 16.523,20.714 15.844,20.803 C 15.165,20.892 14.556,20.946 14.019,20.965 C 13.481,20.983 12.804,20.993 11.988,20.993 C 11.171,20.993 10.496,20.983 9.963,20.965 C 9.429,20.946 8.823,20.892 8.144,20.803 C 7.465,20.714 6.911,20.59 6.481,20.43 C 6.052,20.271 5.608,20.046 5.15,19.755 C 4.692,19.464 4.335,19.108 4.081,18.686 C 3.827,18.264 3.617,17.741 3.45,17.117 C 3.283,16.494 3.2,15.783 3.2,14.986 ZM 6,14.25A1.5,2.25 2520 1 0 9,14.25A1.5,2.25 2520 1 0 6,14.25zM 15,14.25A1.5,2.25 2520 1 0 18,14.25A1.5,2.25 2520 1 0 15,14.25z"></path></g></svg>