<?xml version="1.0" encoding="utf-8"?> <!-- Generator: IcoMoon.io --> <!DOCTYPE svg PUBLIC "-//W3C//DTD SVG 1.1//EN" "http://www.w3.org/Graphics/SVG/1.1/DTD/svg11.dtd"> <svg width="24" height="24" viewBox="0 0 24 24" xmlns="http://www.w3.org/2000/svg" xmlns:xlink="http://www.w3.org/1999/xlink" fill="#666666"><g><path d="M 6.175,17.798c0,0.634, 0.537,0.951, 1.609,0.951c 0.939,0, 1.408-0.329, 1.408-0.988 c0-0.622-0.512-0.933-1.536-0.933C 6.669,16.828, 6.175,17.151, 6.175,17.798zM 20,0L 4,0 C 1.8,0,0,1.8,0,4l0,15.999 C0,22.201, 1.8,24, 4,24l 16,0 C 22.2,24, 24,22.201, 24,20L 24,4 C 24,1.8, 22.2,0, 20,0z M 11.15,9.586 c-0.171,0.061-0.415,0.128-0.732,0.201c 0.098,0.28, 0.146,0.543, 0.146,0.786c0,0.78-0.235,1.46-0.704,2.039 c-0.469,0.579-1.076,0.924-1.82,1.033c-0.488,0.073-0.731,0.335-0.731,0.787c0,0.158, 0.079,0.317, 0.238,0.476 c 0.207,0.232, 0.512,0.378, 0.914,0.439c 1.744,0.268, 2.615,0.994, 2.615,2.176c0,1.89-1.128,2.835-3.383,2.835 c-0.927,0-1.689-0.165-2.286-0.494c-0.756-0.415-1.134-1.067-1.134-1.957c0-1.024, 0.567-1.725, 1.701-2.103l0-0.037 c-0.414-0.256-0.622-0.646-0.622-1.171c0-0.683, 0.195-1.11, 0.585-1.28l0-0.037 c-0.39-0.134-0.738-0.439-1.042-0.915 c-0.341-0.512-0.512-1.061-0.512-1.646c0-0.878, 0.311-1.609, 0.933-2.195c 0.598-0.549, 1.311-0.823, 2.14-0.823 c 0.598,0, 1.152,0.146, 1.664,0.439c 0.585,0, 1.262-0.146, 2.030-0.439L 11.15,9.586L 11.15,9.586z M 14.114,15.914 l-2.067,0 c 0.024-0.244, 0.037-0.658, 0.037-1.244L 12.083,8.982 c0-0.573-0.012-0.969-0.037-1.189l 2.067,0 c-0.024,0.232-0.037,0.616-0.037,1.152l0,5.615 C 14.077,15.182, 14.089,15.634, 14.114,15.914z M 13.976,5.964 c-0.25,0.268-0.546,0.402-0.887,0.402c-0.354,0-0.655-0.134-0.905-0.402c-0.25-0.268-0.375-0.585-0.375-0.951 c0-0.378, 0.125-0.701, 0.375-0.97c 0.25-0.268, 0.552-0.402, 0.905-0.402c 0.341,0, 0.637,0.134, 0.887,0.402 c 0.25,0.268, 0.375,0.591, 0.375,0.97C 14.351,5.379, 14.226,5.696, 13.976,5.964z M 19.727,15.676 c-0.451,0.244-0.994,0.366-1.628,0.366c-0.89,0-1.506-0.317-1.847-0.951c-0.256-0.476-0.384-1.225-0.384-2.25l0-3.274 l 0.018,0 l0-0.037 l-0.274-0.018c-0.159,0-0.366,0.018-0.622,0.055L 14.99,7.793 l 0.896,0 l0-0.713 c0-0.341-0.018-0.616-0.055-0.823l 2.122,0 c-0.036,0.232-0.055,0.494-0.055,0.786l0,0.75 l 1.591,0 l0,1.774 c-0.061,0-0.174-0.006-0.338-0.018 c-0.165-0.012-0.32-0.018-0.466-0.018l-0.786,0 l0,3.402 c0,0.817, 0.268,1.226, 0.805,1.226c 0.378,0, 0.719-0.104, 1.024-0.311 L 19.727,15.676 L 19.727,15.676zM 7.529,9.385c-0.768,0-1.152,0.451-1.152,1.353c0,0.841, 0.384,1.262, 1.152,1.262 c 0.744,0, 1.116-0.427, 1.116-1.28c0-0.354-0.085-0.658-0.256-0.915C 8.181,9.525, 7.894,9.385, 7.529,9.385z"></path></g></svg>