<?xml version="1.0" encoding="utf-8"?> <!-- Generator: IcoMoon.io --> <!DOCTYPE svg PUBLIC "-//W3C//DTD SVG 1.1//EN" "http://www.w3.org/Graphics/SVG/1.1/DTD/svg11.dtd"> <svg width="24" height="24" viewBox="0 0 24 24" xmlns="http://www.w3.org/2000/svg" xmlns:xlink="http://www.w3.org/1999/xlink" fill="#666666"><g><path d="M 14.25,9 C 13.5,9.75 13.5,9.75 13.5,10.5 L 13.5,21 L 16.5,21 C 17.328,21 18,21.672 18,22.5 L 6,22.5 C 6,21.672 6.672,21 7.5,21 L 10.5,21 L 10.5,10.5 C 10.5,9.75 10.5,9.75 9.75,9 L 3.311,2.561 C 2.727,1.977 2.925,1.5 3.75,1.5 L 20.25,1.5 C 21.075,1.5 21.273,1.977 20.689,2.561 L 14.25,9 C 14.25,9 14.25,9 14.25,9 Z"></path></g></svg>