<?xml version="1.0" encoding="utf-8"?> <!-- Generator: IcoMoon.io --> <!DOCTYPE svg PUBLIC "-//W3C//DTD SVG 1.1//EN" "http://www.w3.org/Graphics/SVG/1.1/DTD/svg11.dtd"> <svg width="24" height="24" viewBox="0 0 24 24" xmlns="http://www.w3.org/2000/svg" xmlns:xlink="http://www.w3.org/1999/xlink" fill="#666666"><g><path d="M 11.25,1.5C 5.037,1.5,0,6.537,0,12.75c0,6.213, 5.037,11.25, 11.25,11.25c 6.213,0, 11.25-5.037, 11.25-11.25 C 22.5,6.537, 17.463,1.5, 11.25,1.5z M 17.615,16.5c 0.201-0.948, 0.328-1.954, 0.369-3l 2.987,0 c-0.078,1.036-0.319,2.042-0.719,3 L 17.615,16.5 z M 4.885,9c-0.201,0.948-0.328,1.954-0.369,3L 1.528,12 c 0.078-1.036, 0.319-2.042, 0.719-3L 4.885,9 z M 16.079,9 c 0.225,0.96, 0.361,1.965, 0.405,3L 12,12 l0-3 L 16.079,9 z M 12,7.5L 12,3.109 c 0.342,0.1, 0.681,0.266, 1.013,0.501 c 0.623,0.439, 1.219,1.116, 1.724,1.957c 0.349,0.581, 0.65,1.228, 0.902,1.933L 12,7.5 z M 7.763,5.567 c 0.505-0.841, 1.101-1.518, 1.724-1.957c 0.332-0.234, 0.671-0.401, 1.013-0.501L 10.5,7.5 l-3.639,0 C 7.113,6.795, 7.414,6.148, 7.763,5.567z M 10.5,9l0,3 l-4.484,0 c 0.044-1.035, 0.18-2.040, 0.405-3L 10.5,9 z M 2.247,16.5 c-0.4-0.958-0.641-1.964-0.719-3l 2.987,0 c 0.041,1.045, 0.168,2.052, 0.369,3L 2.247,16.5 z M 6.016,13.5L 10.5,13.5 l0,3 l-4.079,0 C 6.196,15.54, 6.060,14.535, 6.016,13.5z M 10.5,18l0,4.391 c-0.342-0.1-0.681-0.267-1.013-0.501 c-0.623-0.439-1.219-1.116-1.724-1.957c-0.349-0.581-0.65-1.229-0.902-1.933L 10.5,18 z M 14.737,19.933 c-0.505,0.841-1.101,1.517-1.724,1.957c-0.332,0.234-0.671,0.401-1.013,0.501L 12,18 l 3.639,0 C 15.387,18.705, 15.086,19.352, 14.737,19.933z M 12,16.5l0-3 l 4.484,0 c-0.044,1.035-0.18,2.040-0.405,3L 12,16.5 z M 17.985,12 c-0.041-1.045-0.168-2.052-0.369-3l 2.637,0 c 0.4,0.958, 0.641,1.964, 0.719,3L 17.985,12 z M 19.469,7.5l-2.248,0 c-0.437-1.377-1.040-2.585-1.765-3.549c 0.997,0.477, 1.9,1.116, 2.689,1.905C 18.648,6.359, 19.090,6.909, 19.469,7.5 z M 4.356,5.856c 0.789-0.789, 1.692-1.428, 2.689-1.905c-0.725,0.964-1.328,2.172-1.765,3.549L 3.031,7.5 C 3.41,6.909, 3.852,6.359, 4.356,5.856z M 3.031,18l 2.248,0 c 0.437,1.377, 1.040,2.585, 1.765,3.549 c-0.997-0.477-1.9-1.116-2.689-1.905C 3.852,19.141, 3.41,18.591, 3.031,18z M 18.144,19.644 c-0.789,0.789-1.692,1.428-2.689,1.905c 0.725-0.964, 1.328-2.172, 1.765-3.549l 2.248,0 C 19.090,18.591, 18.648,19.141, 18.144,19.644z"></path></g></svg>