<?xml version="1.0" encoding="utf-8"?> <!-- Generator: IcoMoon.io --> <!DOCTYPE svg PUBLIC "-//W3C//DTD SVG 1.1//EN" "http://www.w3.org/Graphics/SVG/1.1/DTD/svg11.dtd"> <svg width="24" height="24" viewBox="0 0 24 24" xmlns="http://www.w3.org/2000/svg" xmlns:xlink="http://www.w3.org/1999/xlink" fill="#666666"><g><path d="M 13.103,1.5c0,0-4.71,0-6.28,0C 4.008,1.5, 1.358,3.633, 1.358,6.104c0,2.525, 1.919,4.562, 4.783,4.562 c 0.199,0, 0.393-0.004, 0.582-0.018c-0.186,0.356-0.319,0.757-0.319,1.173c0,0.702, 0.377,1.271, 0.855,1.735 c-0.361,0-0.709,0.011-1.089,0.011C 2.684,13.567,0,15.788,0,18.091c0,2.268, 2.942,3.687, 6.43,3.687 c 3.976,0, 6.171-2.256, 6.171-4.524c0-1.819-0.537-2.908-2.196-4.081c-0.568-0.402-1.653-1.379-1.653-1.953 c0-0.673, 0.192-1.005, 1.205-1.796c 1.039-0.812, 1.774-1.952, 1.774-3.279c0-1.58-0.704-3.119-2.024-3.627l 1.991,0 L 13.103,1.5z M 10.91,16.862c 0.050,0.21, 0.077,0.427, 0.077,0.648c0,1.833-1.181,3.265-4.57,3.265 c-2.41,0-4.151-1.526-4.151-3.359c0-1.796, 2.159-3.292, 4.569-3.266c 0.563,0.006, 1.087,0.096, 1.563,0.251 C 9.706,15.311, 10.645,15.825, 10.91,16.862z M 7.050,10.026c-1.618-0.048-3.156-1.81-3.435-3.934 c-0.279-2.125, 0.806-3.751, 2.423-3.703c 1.617,0.049, 3.156,1.753, 3.435,3.878 C 9.753,8.392, 8.668,10.074, 7.050,10.026zM 19.5,6L 19.5,1.5L 18,1.5L 18,6L 13.5,6L 13.5,7.5L 18,7.5L 18,12L 19.5,12L 19.5,7.5L 24,7.5L 24,6 z"></path></g></svg>