<?xml version="1.0" encoding="utf-8"?> <!-- Generator: IcoMoon.io --> <!DOCTYPE svg PUBLIC "-//W3C//DTD SVG 1.1//EN" "http://www.w3.org/Graphics/SVG/1.1/DTD/svg11.dtd"> <svg width="24" height="24" viewBox="0 0 24 24" xmlns="http://www.w3.org/2000/svg" xmlns:xlink="http://www.w3.org/1999/xlink" fill="#666666"><g><path d="M 10.242,19.176 C 10.242,20.935 9.155,22.325 6.076,22.438 C 4.272,21.411 2.76,19.931 1.695,18.152 C 2.251,16.781 3.985,15.737 5.969,15.758 C 6.532,15.764 7.056,15.855 7.533,16.009 C 8.843,16.92 9.9,17.489 10.165,18.527 C 10.215,18.738 10.242,18.954 10.242,19.176 ZM 12,0C 8.533,0, 5.409,1.471, 3.219,3.823c 0.866-0.479, 1.888-0.765, 2.974-0.765c 1.572,0, 6.010,0, 6.010,0 L 10.86,4.467L 9.283,4.467 c 1.113,0.638, 1.705,1.951, 1.705,3.399c0,1.329-0.736,2.4-1.776,3.212 c-1.014,0.792-1.207,1.124-1.207,1.798c0,0.575, 1.212,1.432, 1.77,1.85c 1.941,1.456, 2.334,2.372, 2.334,4.192 c0,1.845-1.616,3.682-4.356,4.306C 9.073,23.726, 10.504,24, 12,24c 6.627,0, 12-5.373, 12-12S 18.627,0, 12,0z M 18,9l0,3 l-1.5,0 l0-3 l-3,0 l0-1.5 l 3,0 L 16.5,4.5 l 1.5,0 l0,3 l 3,0 l0,1.5 L 18,9 zM 8.573,7.956 C 8.852,10.084 7.92,11.453 6.301,11.405 C 4.681,11.356 3.141,9.87 2.862,7.743 C 2.582,5.615 3.668,3.987 5.288,4.035 C 6.907,4.084 8.293,5.829 8.573,7.956 ZM 5.177,15.048 C 3.427,15.048 1.94,15.652 0.892,16.545 C 0.317,15.143 0,13.609 0,12 C 0,10.67 0.217,9.39 0.617,8.194 C 0.79,10.525 2.43,12.323 5.139,12.323 C 5.339,12.323 5.532,12.313 5.722,12.299 C 5.536,12.656 5.403,13.054 5.403,13.471 C 5.403,14.173 5.79,14.574 6.267,15.039 C 5.906,15.039 5.558,15.048 5.177,15.048 Z"></path></g></svg>