<?xml version="1.0" encoding="utf-8"?> <!-- Generator: IcoMoon.io --> <!DOCTYPE svg PUBLIC "-//W3C//DTD SVG 1.1//EN" "http://www.w3.org/Graphics/SVG/1.1/DTD/svg11.dtd"> <svg width="24" height="24" viewBox="0 0 24 24" xmlns="http://www.w3.org/2000/svg" xmlns:xlink="http://www.w3.org/1999/xlink" fill="#666666"><g><path d="M 20.004,0L 3.967,0 C 1.761,0,0,1.823,0,4.028l0,15.946 C0,22.234, 1.761,24, 3.967,24l 16.038,0 C 22.21,24, 24,22.234, 24,19.974L 24,4.028 C 24,1.823, 22.21,0, 20.004,0z M 16.5,0.75l0,3.75 l-3.75,0 L 12.75,0.75 L 16.5,0.75 z M 11.25,0.75l0,3.75 l-3.75,0 L 7.5,0.75 L 11.25,0.75 z M 0.75,4.5L 0.75,4.028 C 0.75,2.221, 2.193,0.75, 3.967,0.75L 6,0.75 l0,3.75 L 0.75,4.5 z M 18,15l-4.5,0 l0,4.5 l-3,0 l0-4.5 l-4.5,0 l0-3 l 4.5,0 l0-4.5 l 3,0 l0,4.5 l 4.5,0 L 18,15 z M 23.25,4.5L 18,4.5 L 18,0.75 l 2.004,0 C 21.794,0.75, 23.25,2.221, 23.25,4.028L 23.25,4.5 z"></path></g></svg>