<?xml version="1.0" encoding="utf-8"?> <!-- Generator: IcoMoon.io --> <!DOCTYPE svg PUBLIC "-//W3C//DTD SVG 1.1//EN" "http://www.w3.org/Graphics/SVG/1.1/DTD/svg11.dtd"> <svg width="24" height="24" viewBox="0 0 24 24" xmlns="http://www.w3.org/2000/svg" xmlns:xlink="http://www.w3.org/1999/xlink" fill="#666666"><g><path d="M 0.019,20.383c-0.006-0.059-0.011-0.119-0.014-0.179C 0.008,20.264, 0.013,20.323, 0.019,20.383zM 5.529,13.246c 2.156,0.064, 3.603-2.173, 3.231-4.997c-0.373-2.824-2.423-5.090-4.58-5.154 c-2.157-0.064-3.603,2.097-3.231,4.922C 1.322,10.84, 3.372,13.181, 5.529,13.246zM 24,6L 24,4.001 C 24,1.8, 22.2,0, 20,0L 4,0 C 1.838,0, 0.063,1.74, 0.003,3.889 c 1.368-1.204, 3.265-2.211, 5.224-2.211c 2.093,0, 8.373,0, 8.373,0l-1.874,1.585l-2.655,0 c 1.761,0.675, 2.699,2.722, 2.699,4.822c0,1.764-0.98,3.28-2.365,4.359c-1.351,1.052-1.607,1.493-1.607,2.388 c0,0.764, 1.447,2.063, 2.204,2.597c 2.212,1.559, 2.928,3.007, 2.928,5.425c0,0.385-0.048,0.769-0.142,1.147l 7.213,0 C 22.2,24, 24,22.201, 24,19.999L 24,7.5 l-4.5,0 L 19.5,12 l-1.5,0 l0-4.5 l-4.5,0 l0-1.5 L 18,6 L 18,1.5 l 1.5,0 l0,4.5 L 24,6 zM 4.357,17.952c 0.507,0, 0.971-0.014, 1.452-0.014c-0.636-0.617-1.14-1.373-1.14-2.306 c0-0.553, 0.177-1.086, 0.425-1.559c-0.253,0.018-0.511,0.023-0.776,0.023c-1.743,0-3.223-0.564-4.317-1.497l0,1.576 l 0,4.728C 1.253,18.309, 2.74,17.952, 4.357,17.952zM 0.080,20.795c-0.026-0.128-0.046-0.258-0.060-0.39C 0.034,20.537, 0.054,20.667, 0.080,20.795zM 10.675,22.332c-0.353-1.378-1.604-2.062-3.349-3.271c-0.634-0.205-1.333-0.325-2.083-0.333 c-2.1-0.023-4.057,0.819-5.161,2.071C 0.454,22.621, 2.074,24, 4,24l 6.714,0 c 0.043-0.261, 0.063-0.53, 0.063-0.807 C 10.777,22.899, 10.741,22.612, 10.675,22.332z"></path></g></svg>