<?xml version="1.0" encoding="utf-8"?> <!-- Generator: IcoMoon.io --> <!DOCTYPE svg PUBLIC "-//W3C//DTD SVG 1.1//EN" "http://www.w3.org/Graphics/SVG/1.1/DTD/svg11.dtd"> <svg width="24" height="24" viewBox="0 0 24 24" xmlns="http://www.w3.org/2000/svg" xmlns:xlink="http://www.w3.org/1999/xlink" fill="#666666"><g><path d="M 18.505,1.5c0,0-4.71,0-6.28,0c-2.815,0-5.465,2.133-5.465,4.604c0,2.525, 1.919,4.562, 4.783,4.562 c 0.199,0, 0.393-0.004, 0.582-0.018c-0.186,0.356-0.319,0.757-0.319,1.173c0,0.702, 0.377,1.271, 0.855,1.735 c-0.361,0-0.709,0.011-1.089,0.011c-3.487-0-6.171,2.221-6.171,4.524c0,2.268, 2.942,3.687, 6.43,3.687 c 3.976,0, 6.171-2.256, 6.171-4.524c0-1.819-0.537-2.908-2.196-4.081c-0.568-0.402-1.653-1.379-1.653-1.953 c0-0.673, 0.192-1.005, 1.205-1.796c 1.039-0.812, 1.774-1.952, 1.774-3.279c0-1.58-0.704-3.119-2.024-3.627l 1.991,0 L 18.505,1.5z M 16.311,16.862c 0.050,0.21, 0.077,0.427, 0.077,0.648c0,1.833-1.181,3.265-4.57,3.265 c-2.41,0-4.151-1.526-4.151-3.359c0-1.796, 2.159-3.292, 4.569-3.266c 0.563,0.006, 1.087,0.096, 1.563,0.251 C 15.108,15.311, 16.046,15.825, 16.311,16.862z M 12.452,10.026c-1.618-0.048-3.156-1.81-3.435-3.934 c-0.279-2.125, 0.806-3.751, 2.423-3.703C 13.058,2.438, 14.596,4.142, 14.875,6.267 C 15.154,8.392, 14.069,10.074, 12.452,10.026z"></path></g></svg>