<?xml version="1.0" encoding="utf-8"?> <!-- Generator: IcoMoon.io --> <!DOCTYPE svg PUBLIC "-//W3C//DTD SVG 1.1//EN" "http://www.w3.org/Graphics/SVG/1.1/DTD/svg11.dtd"> <svg width="24" height="24" viewBox="0 0 24 24" xmlns="http://www.w3.org/2000/svg" xmlns:xlink="http://www.w3.org/1999/xlink" fill="#666666"><g><path d="M 12,24c 6.627,0, 12-5.373, 12-12S 18.627,0, 12,0S0,5.373,0,12S 5.373,24, 12,24z M 12,2.25 c 5.385,0, 9.75,4.365, 9.75,9.75s-4.365,9.75-9.75,9.75S 2.25,17.385, 2.25,12S 6.615,2.25, 12,2.25zM 4.5,12l0,1.5 c0,3.3, 2.7,6, 6,6l 3,0 c 3.3,0, 6-2.7, 6-6l0-1.5 L 4.5,12 z M 9,17.742 c-0.622-0.222-1.194-0.582-1.677-1.065C 6.47,15.824, 6,14.695, 6,13.5l 3,0 L 9,17.742 z M 13.5,18l-3,0 l0-4.5 l 3,0 L 13.5,18 z M 16.677,16.677c-0.483,0.483-1.055,0.843-1.677,1.065L 15,13.5 l 3,0 C 18,14.695, 17.53,15.824, 16.677,16.677z M 5.282,9 C 5.282,9, 5.282,9, 5.282,9c 0.229,0, 0.424-0.165, 0.462-0.391C 5.888,7.749, 6.627,7.125, 7.5,7.125 s 1.612,0.624, 1.756,1.484c 0.038,0.226, 0.233,0.391, 0.462,0.391c 0.229,0, 0.424-0.165, 0.462-0.391 c 0.025-0.151, 0.038-0.303, 0.038-0.453c0-1.499-1.22-2.719-2.719-2.719s-2.719,1.22-2.719,2.719c0,0.149, 0.013,0.302, 0.038,0.453 C 4.857,8.835, 5.053,9, 5.282,9z M 14.282,9C 14.282,9, 14.282,9, 14.282,9c 0.229,0, 0.424-0.165, 0.462-0.391 C 14.888,7.749, 15.627,7.125, 16.5,7.125s 1.612,0.624, 1.756,1.484c 0.038,0.226, 0.233,0.391, 0.462,0.391s 0.424-0.165, 0.462-0.391 c 0.025-0.151, 0.038-0.303, 0.038-0.453c0-1.499-1.22-2.719-2.719-2.719s-2.719,1.22-2.719,2.719c0,0.149, 0.013,0.302, 0.038,0.453 C 13.857,8.835, 14.053,9, 14.282,9z"></path></g></svg>