<?xml version="1.0" encoding="utf-8"?> <!-- Generator: IcoMoon.io --> <!DOCTYPE svg PUBLIC "-//W3C//DTD SVG 1.1//EN" "http://www.w3.org/Graphics/SVG/1.1/DTD/svg11.dtd"> <svg width="24" height="24" viewBox="0 0 24 24" xmlns="http://www.w3.org/2000/svg" xmlns:xlink="http://www.w3.org/1999/xlink" fill="#666666"><g><path d="M 12,0C 5.373,0,0,5.373,0,12s 5.372,12, 12,12c 6.627,0, 12-5.373, 12-12S 18.627,0, 12,0z M 16.5,5.531 c 1.499,0, 2.719,1.22, 2.719,2.719c0,0.149-0.013,0.302-0.038,0.453c-0.038,0.226-0.233,0.391-0.462,0.391s-0.424-0.165-0.462-0.391 C 18.112,7.843, 17.373,7.453, 16.5,7.453s-1.612,0.39-1.756,1.249c-0.038,0.226-0.233,0.391-0.462,0.391c-0,0,0,0-0,0 c-0.229,0-0.424-0.165-0.462-0.391C 13.794,8.552, 13.781,8.399, 13.781,8.25C 13.781,6.751, 15.001,5.531, 16.5,5.531z M 7.5,5.531 c 1.499,0, 2.719,1.22, 2.719,2.719c0,0.149-0.013,0.302-0.038,0.453c-0.038,0.226-0.233,0.391-0.462,0.391c-0.229,0-0.424-0.165-0.462-0.391 C 9.112,7.843, 8.373,7.453, 7.5,7.453s-1.612,0.39-1.756,1.249c-0.038,0.226-0.233,0.391-0.462,0.391c0,0,0,0,0,0 c-0.229,0-0.424-0.165-0.462-0.391C 4.794,8.552, 4.781,8.399, 4.781,8.25C 4.781,6.751, 6.001,5.531, 7.5,5.531z M 4.5,13.5l 4.5,0 l0,5.809 C 6.42,18.638, 4.5,16.283, 4.5,13.5z M 10.5,19.5L 10.5,13.5 l 3,0 l0,6 L 10.5,19.5 z M 15,19.309L 15,13.5 l 4.5,0 C 19.5,16.283, 17.58,18.638, 15,19.309z"></path></g></svg>