<?xml version="1.0" encoding="utf-8"?> <!-- Generator: IcoMoon.io --> <!DOCTYPE svg PUBLIC "-//W3C//DTD SVG 1.1//EN" "http://www.w3.org/Graphics/SVG/1.1/DTD/svg11.dtd"> <svg width="24.205408096313477" height="24.20601463317871" viewBox="0 0 24.205408096313477 24.20601463317871" xmlns="http://www.w3.org/2000/svg" xmlns:xlink="http://www.w3.org/1999/xlink" fill="#666666"><g><path d="M 23.676,21.463L 10.817,9.757l 0.598-0.6c 0.49-0.491, 0.754-1.126, 0.795-1.772 c 0.023-0.011, 0.047-0.021, 0.069-0.034l 2.414-1.509c 0.327-0.384, 0.303-0.991-0.054-1.348L 10.442,0.284 c-0.356-0.357-0.961-0.381-1.344-0.054l-1.506,2.42c-0.012,0.023-0.023,0.046-0.034,0.070 c-0.645,0.041-1.277,0.306-1.767,0.797l-2.283,2.29c-0.49,0.491-0.754,1.126-0.795,1.772 c-0.024,0.011-0.047,0.021-0.069,0.034L 0.23,9.123c-0.327,0.384-0.303,0.991, 0.053,1.348l 4.198,4.209 c 0.356,0.357, 0.961,0.381, 1.344,0.054l 1.505-2.42c 0.012-0.022, 0.023-0.046, 0.034-0.070c 0.645-0.041, 1.277-0.306, 1.767-0.797 l 0.663-0.665l 11.675,12.893c 0.338,0.374, 0.86,0.434, 1.16,0.134l 1.18-1.183 C 24.109,22.326, 24.049,21.802, 23.676,21.463z"></path></g></svg>