<?xml version="1.0" encoding="utf-8"?> <!-- Generator: IcoMoon.io --> <!DOCTYPE svg PUBLIC "-//W3C//DTD SVG 1.1//EN" "http://www.w3.org/Graphics/SVG/1.1/DTD/svg11.dtd"> <svg width="24.109310150146484" height="24" viewBox="0 0 24.109310150146484 24" xmlns="http://www.w3.org/2000/svg" xmlns:xlink="http://www.w3.org/1999/xlink" fill="#666666"><g><path d="M 23.672,19.429L 16.604,12.362c-0.438-0.438-1.153-0.438-1.591,0l-0.53,0.53l-4.313-4.313L 17.25,1.5L 9.75,1.5 l-3.329,3.329 L 6.091,4.5L 4.5,4.5 l0,1.591 l 0.329,0.329L0,11.25l 3.75,3.75l 4.829-4.829l 4.313,4.313l-0.53,0.53c-0.438,0.438-0.438,1.153,0,1.591 l 7.067,7.067c 0.438,0.438, 1.153,0.438, 1.591,0l 2.652-2.652C 24.109,20.583, 24.109,19.867, 23.672,19.429z"></path></g></svg>