<?xml version="1.0" encoding="utf-8"?> <!-- Generator: IcoMoon.io --> <!DOCTYPE svg PUBLIC "-//W3C//DTD SVG 1.1//EN" "http://www.w3.org/Graphics/SVG/1.1/DTD/svg11.dtd"> <svg width="24" height="24" viewBox="0 0 24 24" xmlns="http://www.w3.org/2000/svg" xmlns:xlink="http://www.w3.org/1999/xlink" fill="#666666"><g><path d="M 12,0C 5.373,0,0,5.373,0,12s 5.373,12, 12,12s 12-5.373, 12-12S 18.627,0, 12,0z M 16.5,6 c 0.828,0, 1.5,1.007, 1.5,2.25s-0.672,2.25-1.5,2.25s-1.5-1.007-1.5-2.25S 15.672,6, 16.5,6z M 7.5,6c 0.828,0, 1.5,1.007, 1.5,2.25 s-0.672,2.25-1.5,2.25s-1.5-1.007-1.5-2.25S 6.672,6, 7.5,6z M 12,21c-3.911,0-7.158-3.278-7.5-7.46 c 2.198,1.268, 4.782,1.994, 7.5,1.994c 2.718,0, 5.302-0.722, 7.5-1.99C 19.158,17.725, 15.911,21, 12,21z"></path></g></svg>