<?xml version="1.0" encoding="utf-8"?> <!-- Generator: IcoMoon.io --> <!DOCTYPE svg PUBLIC "-//W3C//DTD SVG 1.1//EN" "http://www.w3.org/Graphics/SVG/1.1/DTD/svg11.dtd"> <svg width="24" height="24" viewBox="0 0 24 24" xmlns="http://www.w3.org/2000/svg" xmlns:xlink="http://www.w3.org/1999/xlink" fill="#666666"><g><path d="M 12,24c 6.627,0, 12-5.373, 12-12S 18.627,0, 12,0S0,5.373,0,12S 5.373,24, 12,24z M 12,2.25 c 5.385,0, 9.75,4.365, 9.75,9.75s-4.365,9.75-9.75,9.75S 2.25,17.385, 2.25,12S 6.615,2.25, 12,2.25zM 12,14.033 C 14.718,14.033 17.302,13.311 19.5,12.043 C 19.158,16.225 15.911,19.5 12,19.5 C 8.089,19.5 4.842,16.222 4.5,12.040 C 6.698,13.308 9.282,14.033 12,14.033 ZM 6,8.25A1.5,2.25 2520 1 0 9,8.25A1.5,2.25 2520 1 0 6,8.25zM 15,8.25A1.5,2.25 2520 1 0 18,8.25A1.5,2.25 2520 1 0 15,8.25z"></path></g></svg>