<?xml version="1.0" encoding="utf-8"?> <!-- Generator: IcoMoon.io --> <!DOCTYPE svg PUBLIC "-//W3C//DTD SVG 1.1//EN" "http://www.w3.org/Graphics/SVG/1.1/DTD/svg11.dtd"> <svg width="24" height="24.000045776367188" viewBox="0 0 24 24.000045776367188" xmlns="http://www.w3.org/2000/svg" xmlns:xlink="http://www.w3.org/1999/xlink" fill="#666666"><g><path d="M 4.5,13.554l0,10.393 c 0.245,0.035, 0.495,0.054, 0.75,0.054l 0.75,0 L 6,13.5 l-0.75,0 C 4.995,13.5, 4.745,13.519, 4.5,13.554zM 18,13.5l0,10.5 l 0.75,0 c 0.255,0, 0.505-0.019, 0.75-0.054L 19.5,13.554 c-0.245-0.035-0.495-0.054-0.75-0.054L 18,13.5 zM 24,12C 24,5.373, 18.627,0, 12,0S0,5.373,0,12c0,1.439, 0.254,2.82, 0.718,4.099C 0.262,16.877,0,17.783,0,18.75 c0,2.094, 1.226,3.902, 3,4.744L 3,14.005 c-0.472,0.224-0.904,0.517-1.286,0.865C 1.574,14.186, 1.5,13.476, 1.5,12.75 C 1.5,6.951, 6.201,2.25, 12,2.25s 10.5,4.701, 10.5,10.5c0,0.726-0.074,1.436-0.214,2.12c-0.382-0.348-0.814-0.641-1.286-0.865 l0,9.489 c 1.774-0.843, 3-2.65, 3-4.744c0-0.967-0.262-1.873-0.718-2.651C 23.746,14.82, 24,13.439, 24,12z"></path></g></svg>