<?xml version="1.0" encoding="utf-8"?> <!-- Generator: IcoMoon.io --> <!DOCTYPE svg PUBLIC "-//W3C//DTD SVG 1.1//EN" "http://www.w3.org/Graphics/SVG/1.1/DTD/svg11.dtd"> <svg width="24" height="24" viewBox="0 0 24 24" xmlns="http://www.w3.org/2000/svg" xmlns:xlink="http://www.w3.org/1999/xlink" fill="#666666"><g><path d="M 24,8.394 C 24,10.418 23.128,12.239 21.739,13.5 L 21.75,13.5 L 14.25,21 C 13.5,21.75 12.75,22.5 12,22.5 C 11.25,22.5 10.5,21.75 9.75,21 L 2.25,13.5 L 2.261,13.5 C 0.872,12.239 0,10.418 0,8.394 C 0,4.587 3.087,1.5 6.894,1.5 C 8.194,1.5 9.409,1.86 10.447,2.485 L 8.25,6 L 13.5,9 L 10.5,16.5 L 18.75,7.5 L 13.5,4.5 L 15.349,1.726 C 15.91,1.579 16.499,1.5 17.106,1.5 C 20.913,1.5 24,4.587 24,8.394 Z"></path></g></svg>