<?xml version="1.0" encoding="utf-8"?> <!-- Generator: IcoMoon.io --> <!DOCTYPE svg PUBLIC "-//W3C//DTD SVG 1.1//EN" "http://www.w3.org/Graphics/SVG/1.1/DTD/svg11.dtd"> <svg width="24" height="24" viewBox="0 0 24 24" xmlns="http://www.w3.org/2000/svg" xmlns:xlink="http://www.w3.org/1999/xlink" fill="#666666"><g><path d="M 24,8.394C 24,4.587, 20.913,1.5, 17.106,1.5C 15.082,1.5, 13.261,2.372, 12,3.761C 10.739,2.372, 8.918,1.5, 6.894,1.5 C 3.087,1.5,0,4.587,0,8.394C0,10.418, 0.872,12.239, 2.261,13.5L 2.25,13.5 l 7.5,7.5c 0.75,0.75, 1.5,1.5, 2.25,1.5s 1.5-0.75, 2.25-1.5l 7.5-7.5l-0.011,0 C 23.128,12.239, 24,10.418, 24,8.394z M 19.722,11.279L 12.129,18.879c-0.039,0.039-0.083,0.083-0.129,0.128 c-0.046-0.046-0.089-0.089-0.129-0.128L 4.278,11.279C 3.454,10.531, 3,9.506, 3,8.394C 3,6.247, 4.747,4.5, 6.894,4.5 c 1.112,0, 2.136,0.454, 2.885,1.278L 12,8.224l 2.221-2.446C 14.969,4.954, 15.994,4.5, 17.106,4.5 C 19.253,4.5, 21,6.247, 21,8.394C 21,9.506, 20.546,10.531, 19.722,11.279z"></path></g></svg>