<?xml version="1.0" encoding="utf-8"?> <!-- Generator: IcoMoon.io --> <!DOCTYPE svg PUBLIC "-//W3C//DTD SVG 1.1//EN" "http://www.w3.org/Graphics/SVG/1.1/DTD/svg11.dtd"> <svg width="24.75" height="24" viewBox="0 0 24.75 24" xmlns="http://www.w3.org/2000/svg" xmlns:xlink="http://www.w3.org/1999/xlink" fill="#666666"><g><path d="M 13.5,1.5 C 19.299,1.5 24,6.201 24,12 C 24,17.799 19.299,22.5 13.5,22.5 L 13.5,20.25 C 15.704,20.25 17.775,19.392 19.334,17.834 C 20.892,16.275 21.75,14.204 21.75,12 C 21.75,9.796 20.892,7.725 19.334,6.166 C 17.775,4.608 15.704,3.75 13.5,3.75 C 11.296,3.75 9.225,4.608 7.666,6.166 C 6.468,7.365 5.684,8.867 5.386,10.5 L 9.75,10.5 L 4.5,16.5 L -0.75,10.5 L 3.107,10.5 C 3.835,5.412 8.21,1.5 13.5,1.5 ZM 18,10.5 L 18,13.5 L 12,13.5 L 12,6 L 15,6 L 15,10.5 Z"></path></g></svg>