<?xml version="1.0" encoding="utf-8"?> <!-- Generator: IcoMoon.io --> <!DOCTYPE svg PUBLIC "-//W3C//DTD SVG 1.1//EN" "http://www.w3.org/Graphics/SVG/1.1/DTD/svg11.dtd"> <svg width="24" height="24" viewBox="0 0 24 24" xmlns="http://www.w3.org/2000/svg" xmlns:xlink="http://www.w3.org/1999/xlink" fill="#666666"><g><path d="M 1.419,0l 1.925,21.601L 11.987,24l 8.665-2.403L 22.581,0L 1.419,0 z M 19.002,20.222L 12.036,22.153l0,0.011 l-0.018-0.005l-0.018,0.005L 11.999,22.153 l-6.966-1.931L 3.387,1.766l 17.262,0 L 19.002,20.222zM 15.252,12.427L 14.946,15.861L 11.994,16.658L 11.988,16.66L 9.038,15.865L 8.849,13.75L 6.189,13.75L 6.56,17.911L 11.988,19.417L 11.99,19.417L 11.994,19.417L 11.999,19.415L 17.422,17.911L 18.149,9.778L 8.494,9.778L 8.252,7.065L 18.38,7.065L 18.39,7.065L 18.627,4.416L 5.356,4.416L 6.071,12.427 z"></path></g></svg>