<?xml version="1.0" encoding="utf-8"?> <!-- Generator: IcoMoon.io --> <!DOCTYPE svg PUBLIC "-//W3C//DTD SVG 1.1//EN" "http://www.w3.org/Graphics/SVG/1.1/DTD/svg11.dtd"> <svg width="24" height="24" viewBox="0 0 24 24" xmlns="http://www.w3.org/2000/svg" xmlns:xlink="http://www.w3.org/1999/xlink" fill="#666666"><g><path d="M 17.208,14.738l 5.532,0 c 0.043-0.384, 0.060-0.776, 0.060-1.176c0-1.88-0.505-3.644-1.386-5.162 c 0.911-2.421, 0.879-4.476-0.341-5.704c-1.16-1.155-4.272-0.968-7.791,0.591c-0.26-0.020-0.523-0.030-0.788-0.030 c-4.829,0-8.881,3.323-10.001,7.801C 4.008,9.117, 5.602,7.711, 7.731,6.687c-0.194,0.181-1.323,1.304-1.513,1.494 C 0.603,13.794-1.167,21.126, 0.738,23.031c 1.448,1.448, 4.072,1.203, 7.087-0.273 c 1.402,0.714, 2.988,1.116, 4.669,1.116c 4.527,0, 8.363-2.914, 9.752-6.971L 16.671,16.903 c-0.767,1.415-2.268,2.378-3.989,2.378c-1.722,0-3.222-0.963-3.989-2.378c-0.341-0.639-0.537-1.372-0.537-2.148l0-0.017 L 17.208,14.738 z M 8.163,12.019c 0.128-2.276, 2.020-4.092, 4.33-4.092c 2.31,0, 4.203,1.816, 4.33,4.092L 8.163,12.019 z M 21.023,3.839 c 0.786,0.794, 0.766,2.255, 0.094,4.079c-1.152-1.756-2.825-3.139-4.8-3.929 C 18.429,3.083, 20.147,2.963, 21.023,3.839z M 2.191,22.67c-1.003-1.003-0.7-3.108, 0.591-5.644 c 0.804,2.256, 2.371,4.151, 4.391,5.371C 4.936,23.412, 3.106,23.584, 2.191,22.67z"></path></g></svg>