<?xml version="1.0" encoding="utf-8"?> <!-- Generator: IcoMoon.io --> <!DOCTYPE svg PUBLIC "-//W3C//DTD SVG 1.1//EN" "http://www.w3.org/Graphics/SVG/1.1/DTD/svg11.dtd"> <svg width="24" height="24" viewBox="0 0 24 24" xmlns="http://www.w3.org/2000/svg" xmlns:xlink="http://www.w3.org/1999/xlink" fill="#666666"><g><path d="M 9,4.5L 12,4.5L 12,6L 9,6zM 13.5,4.5L 16.5,4.5L 16.5,6L 13.5,6zM 21,4.5 L 21,10.5 L 16.5,10.5 L 16.5,9 L 19.5,9 L 19.5,6 L 18,6 L 18,4.5 ZM 7.5,9L 10.5,9L 10.5,10.5L 7.5,10.5zM 12,9L 15,9L 15,10.5L 12,10.5zM 4.5,6 L 4.5,9 L 6,9 L 6,10.5 L 3,10.5 L 3,4.5 L 7.5,4.5 L 7.5,6 ZM 9,13.5L 12,13.5L 12,15L 9,15zM 13.5,13.5L 16.5,13.5L 16.5,15L 13.5,15zM 21,13.5 L 21,19.5 L 16.5,19.5 L 16.5,18 L 19.5,18 L 19.5,15 L 18,15 L 18,13.5 ZM 7.5,18L 10.5,18L 10.5,19.5L 7.5,19.5zM 12,18L 15,18L 15,19.5L 12,19.5zM 4.5,15 L 4.5,18 L 6,18 L 6,19.5 L 3,19.5 L 3,13.5 L 7.5,13.5 L 7.5,15 ZM 22.5,1.5 L 1.5,1.5 L 1.5,22.5 L 22.5,22.5 L 22.5,1.5 Z M 24,0 L 24,0 L 24,24 L 0,24 L 0,0 L 24,0 Z"></path></g></svg>