<?xml version="1.0" encoding="utf-8"?> <!-- Generator: IcoMoon.io --> <!DOCTYPE svg PUBLIC "-//W3C//DTD SVG 1.1//EN" "http://www.w3.org/Graphics/SVG/1.1/DTD/svg11.dtd"> <svg width="24" height="24" viewBox="0 0 24 24" xmlns="http://www.w3.org/2000/svg" xmlns:xlink="http://www.w3.org/1999/xlink" fill="#666666"><g><path d="M 20.016,0L 3.984,0 C 1.793,0,0,1.793,0,3.984l0,16.031 c0,2.191, 1.793,3.984, 3.984,3.984l 16.031,0 c 2.191,0, 3.984-1.793, 3.984-3.984L 24,3.984 C 24,1.793, 22.207,0, 20.016,0z M 7.683,10.5l 8.634,0 c 0.164,0.47, 0.253,0.975, 0.253,1.5c0,2.52-2.050,4.57-4.57,4.57c-2.52,0-4.57-2.050-4.57-4.57 C 7.43,11.475, 7.519,10.97, 7.683,10.5z M 21,10.501L 21,16.5 l0,3 c0,0.825-0.675,1.5-1.5,1.5L 4.5,21 c-0.825,0-1.5-0.675-1.5-1.5l0-3 L 3,10.501 L 3,10.5 l 2.346,0 c-0.109,0.483-0.167,0.985-0.167,1.5c0,3.761, 3.060,6.82, 6.82,6.82c 3.761,0, 6.82-3.060, 6.82-6.82 c0-0.515-0.058-1.017-0.167-1.5L 21,10.5 L 21,10.501 z M 21,5.25c0,0.413-0.338,0.75-0.75,0.75l-1.5,0 c-0.413,0-0.75-0.338-0.75-0.75L 18,3.75 c0-0.413, 0.338-0.75, 0.75-0.75l 1.5,0 c 0.413,0, 0.75,0.338, 0.75,0.75L 21,5.25 z"></path></g></svg>