<?xml version="1.0" encoding="utf-8"?> <!-- Generator: IcoMoon.io --> <!DOCTYPE svg PUBLIC "-//W3C//DTD SVG 1.1//EN" "http://www.w3.org/Graphics/SVG/1.1/DTD/svg11.dtd"> <svg width="24.000375747680664" height="24" viewBox="0 0 24.000375747680664 24" xmlns="http://www.w3.org/2000/svg" xmlns:xlink="http://www.w3.org/1999/xlink" fill="#666666"><g><path d="M 6.234,6.485c 0.77-0.77, 2.016-0.77, 2.784-0.001l 0.183,0.184l 2.37-2.371l-0.185-0.185 c-1.351-1.352-3.246-1.825-4.979-1.418C 6.161,1.167, 4.836,0.001, 3.241,0C 1.468,0, 0.031,1.44, 0.030,3.215 c0,1.531, 1.069,2.813, 2.5,3.137c-0.542,1.815-0.099,3.863, 1.332,5.296l 5.34,5.341l 2.367-2.372L 6.23,9.276 C 5.464,8.509, 5.463,7.257, 6.234,6.485zM 23.97,3.215C 23.97,1.439, 22.533,0, 20.759,0c-1.623,0-2.964,1.206-3.18,2.771 c-1.806-0.531-3.839-0.082-5.265,1.345l-5.34,5.341l 2.37,2.371l 5.338-5.34c 0.772-0.773, 2.015-0.771, 2.782-0.004 c 0.769,0.769, 0.769,2.018-0.001,2.788l-0.183,0.184l 2.367,2.373l 0.184-0.186c 1.417-1.42, 1.867-3.44, 1.35-5.242 C 22.756,6.195, 23.97,4.847, 23.97,3.215zM 21.241,17.603c 0.424-1.745-0.046-3.664-1.409-5.027L 14.5,7.232l-2.37,2.37l 5.333,5.344 c 0.772,0.773, 0.77,2.018, 0.004,2.785c-0.769,0.769-2.016,0.769-2.785-0.001l-0.182-0.183l-2.367,2.373l 0.181,0.181 c 1.442,1.444, 3.507,1.885, 5.329,1.324C 17.939,22.896, 19.235,24, 20.79,24C 22.562,24, 24,22.562, 24,20.786 C 24,19.164, 22.8,17.822, 21.241,17.603zM 14.352,12.391L 9.019,17.735c-0.767,0.768-2.016,0.769-2.788-0.003c-0.769-0.771-0.77-2.018-0.001-2.788 l 0.183-0.182l-2.369-2.37l-0.181,0.181c-1.377,1.378-1.841,3.324-1.393,5.086C 1.054,17.992,0,19.266,0,20.786 C-0,22.561, 1.437,24, 3.211,24c 1.526-0.001, 2.803-1.064, 3.13-2.493c 1.751,0.435, 3.68-0.031, 5.047-1.401 l 5.332-5.343L 14.352,12.391z"></path></g></svg>