<?xml version="1.0" encoding="utf-8"?> <!-- Generator: IcoMoon.io --> <!DOCTYPE svg PUBLIC "-//W3C//DTD SVG 1.1//EN" "http://www.w3.org/Graphics/SVG/1.1/DTD/svg11.dtd"> <svg width="24.17109489440918" height="24.17099952697754" viewBox="0 0 24.17109489440918 24.17099952697754" xmlns="http://www.w3.org/2000/svg" xmlns:xlink="http://www.w3.org/1999/xlink" fill="#666666"><g><path d="M 23.487,7.365l-2.37-2.37c-0.581-0.581-1.532-1.532-2.113-2.113l-2.37-2.37 c-0.581-0.581-1.616-0.684-2.3-0.228L 7.856,4.604c-0.684,0.456-0.943,1.43-0.575,2.165l 1.652,3.304 c 0.050,0.101, 0.109,0.209, 0.173,0.32L 0.75,18.75L0,24l 4.5,0 l0-1.5 l 3,0 l0-3 l 3,0 l0-3l 3,0 l0-1.668 c 0.15,0.089, 0.294,0.169, 0.426,0.235 l 3.304,1.652c 0.735,0.368, 1.71,0.109, 2.165-0.575l 4.319-6.479C 24.171,8.981, 24.069,7.946, 23.487,7.365z M 3.53,20.030l-1.061-1.061l 7.302-7.302l 1.061,1.061L 3.53,20.030z M 21.493,9.932l-1.061,1.061 c-0.292,0.292-0.769,0.292-1.061,0L 13.007,4.629c-0.292-0.292-0.292-0.769,0-1.061l 1.061-1.061 c 0.292-0.292, 0.769-0.292, 1.061,0L 21.493,8.871C 21.784,9.163, 21.784,9.64, 21.493,9.932z"></path></g></svg>