<?xml version="1.0" encoding="utf-8"?> <!-- Generator: IcoMoon.io --> <!DOCTYPE svg PUBLIC "-//W3C//DTD SVG 1.1//EN" "http://www.w3.org/Graphics/SVG/1.1/DTD/svg11.dtd"> <svg width="24" height="24" viewBox="0 0 24 24" xmlns="http://www.w3.org/2000/svg" xmlns:xlink="http://www.w3.org/1999/xlink" fill="#666666"><g><path d="M 16.5,0c-4.142,0-7.5,3.358-7.5,7.5c0,0.469, 0.044,0.928, 0.126,1.374L0,18l0,4.5 c0,0.828, 0.672,1.5, 1.5,1.5 l 1.5,0 l0-1.5 l 3,0 l0-3 l 3,0 l0-3 l 3,0 l 1.946-1.946C 14.743,14.842, 15.603,15, 16.5,15c 4.142,0, 7.5-3.358, 7.5-7.5S 20.642,0, 16.5,0z M 18.747,7.503c-1.243,0-2.25-1.007-2.25-2.25s 1.007-2.25, 2.25-2.25s 2.25,1.007, 2.25,2.25S 19.99,7.503, 18.747,7.503z"></path></g></svg>