<?xml version="1.0" encoding="utf-8"?> <!-- Generator: IcoMoon.io --> <!DOCTYPE svg PUBLIC "-//W3C//DTD SVG 1.1//EN" "http://www.w3.org/Graphics/SVG/1.1/DTD/svg11.dtd"> <svg width="27" height="24" viewBox="0 0 27 24" xmlns="http://www.w3.org/2000/svg" xmlns:xlink="http://www.w3.org/1999/xlink" fill="#666666"><g><path d="M 25.5,3L 1.5,3 C 0.675,3,0,3.675,0,4.5l0,15 c0,0.825, 0.675,1.5, 1.5,1.5l 24,0 c 0.825,0, 1.5-0.675, 1.5-1.5L 27,4.5 C 27,3.675, 26.325,3, 25.5,3z M 15,6 l 3,0 l0,3 l-3,0 L 15,6 z M 19.5,10.5l0,3 l-3,0 l0-3 L 19.5,10.5 z M 10.5,6l 3,0 l0,3 l-3,0 L 10.5,6 z M 15,10.5l0,3 l-3,0 l0-3 L 15,10.5 z M 6,6l 3,0 l0,3 l-3,0 L 6,6 z M 10.5,10.5l0,3 l-3,0 l0-3 L 10.5,10.5 z M 3,6l 1.5,0 l0,3 L 3,9 L 3,6 z M 3,10.5l 3,0 l0,3 L 3,13.5 L 3,10.5 z M 4.5,18L 3,18 l0-3 l 1.5,0 L 4.5,18 z M 18,18L 6,18 l0-3 l 12,0 L 18,18 z M 24,18l-4.5,0 l0-3 l 4.5,0 L 24,18 z M 24,13.5l-3,0 l0-3 l 3,0 L 24,13.5 z M 24,9l-4.5,0 l0-3 l 4.5,0 L 24,9 z"></path></g></svg>