<?xml version="1.0" encoding="utf-8"?> <!-- Generator: IcoMoon.io --> <!DOCTYPE svg PUBLIC "-//W3C//DTD SVG 1.1//EN" "http://www.w3.org/Graphics/SVG/1.1/DTD/svg11.dtd"> <svg width="24.221717834472656" height="24" viewBox="0 0 24.221717834472656 24" xmlns="http://www.w3.org/2000/svg" xmlns:xlink="http://www.w3.org/1999/xlink" fill="#666666"><g><path d="M 22.413,18.855L 15,6.503L 15,1.5 l 0.75,0 c 0.413,0, 0.75-0.338, 0.75-0.75s-0.338-0.75-0.75-0.75L 8.25,0 c-0.413,0-0.75,0.338-0.75,0.75s 0.338,0.75, 0.75,0.75l 0.75,0 l0,5.003 L 1.587,18.855C-0.111,21.685, 1.2,24, 4.5,24l 15,0 C 22.8,24, 24.111,21.685, 22.413,18.855z M 5.649,15L 10.5,6.916L 10.5,1.5 l 3,0 l0,5.416 L 18.351,15L 5.649,15 z"></path></g></svg>