<?xml version="1.0" encoding="utf-8"?> <!-- Generator: IcoMoon.io --> <!DOCTYPE svg PUBLIC "-//W3C//DTD SVG 1.1//EN" "http://www.w3.org/Graphics/SVG/1.1/DTD/svg11.dtd"> <svg width="24" height="24" viewBox="0 0 24 24" xmlns="http://www.w3.org/2000/svg" xmlns:xlink="http://www.w3.org/1999/xlink" fill="#666666"><g><path d="M 19.969,0L 4.031,0 C 1.814,0,0,1.814,0,4.031l0,15.938 c0,2.217, 1.814,4.031, 4.031,4.031l 15.938,0 c 2.217,0, 4.031-1.814, 4.031-4.031L 24,4.031 C 24,1.814, 22.186,0, 19.969,0z M 19.773,18.93c-2.656,0.875-7.844,2.578-8.813,2.82s-1.969,0.648-2.531-0.977c0,0-4.781-14.125-5.219-15.375S 2.347,3.395, 3.336,3 c 2.282-0.912, 4.656-2.074, 5.094-0.75c 0.391,1.185, 4.562,14.25, 4.562,14.25s 4.906-1.727, 6.25-2.102s 1.805-0.625, 2.156,1.219 S 22.43,18.055, 19.773,18.93z"></path></g></svg>