<?xml version="1.0" encoding="utf-8"?> <!-- Generator: IcoMoon.io --> <!DOCTYPE svg PUBLIC "-//W3C//DTD SVG 1.1//EN" "http://www.w3.org/Graphics/SVG/1.1/DTD/svg11.dtd"> <svg width="24" height="24" viewBox="0 0 24 24" xmlns="http://www.w3.org/2000/svg" xmlns:xlink="http://www.w3.org/1999/xlink" fill="#666666"><g><path d="M 21,16.5L 21,4.5 c0-0.825-0.675-1.5-1.5-1.5L 4.5,3 c-0.825,0-1.5,0.675-1.5,1.5l0,12 L0,16.5 l0,4.5 l 24,0 l0-4.5 L 21,16.5 z M 15,19.5L 9,19.5 l0-1.5 l 6,0 L 15,19.5 z M 19.5,16.5L 4.5,16.5 L 4.5,4.503 c 0.001-0.001, 0.002-0.002, 0.003-0.003l 14.995,0 c 0.001,0.001, 0.002,0.002, 0.003,0.003L 19.5,16.5 z"></path></g></svg>