<?xml version="1.0" encoding="utf-8"?> <!-- Generator: IcoMoon.io --> <!DOCTYPE svg PUBLIC "-//W3C//DTD SVG 1.1//EN" "http://www.w3.org/Graphics/SVG/1.1/DTD/svg11.dtd"> <svg width="24" height="24" viewBox="0 0 24 24" xmlns="http://www.w3.org/2000/svg" xmlns:xlink="http://www.w3.org/1999/xlink" fill="#666666"><g><path d="M 19.969,0L 4.031,0 C 1.814,0,0,1.814,0,4.031l0,15.938 c0,2.217, 1.814,4.031, 4.031,4.031l 15.938,0 c 2.217,0, 4.031-1.814, 4.031-4.031L 24,4.031 C 24,1.814, 22.186,0, 19.969,0z M 17.496,17.833c-4.162,0-5.605-1.876-6.374-4.209l-0.77-2.406c-0.577-1.756-1.251-3.127-3.368-3.127 c-1.468,0-2.959,1.058-2.959,4.017c0,2.309, 1.179,3.753, 2.839,3.753c 1.876,0, 3.127-1.395, 3.127-1.395l 0.77,2.093 c0,0-1.299,1.275-4.017,1.275c-3.368,0-5.244-1.972-5.244-5.629c0-3.801, 1.876-6.038, 5.412-6.038 c 3.199,0, 4.811,1.155, 5.821,4.282l 0.794,2.405c 0.577,1.756, 1.588,3.031, 4.017,3.031 c 1.636,0, 2.502-0.361, 2.502-1.251c0-0.698-0.409-1.203-1.636-1.492l-1.636-0.385c-1.996-0.481-2.79-1.515-2.79-3.151 c0-2.622, 2.117-3.44, 4.282-3.44c 2.454,0, 3.945,0.89, 4.137,3.055l-2.405,0.289 c-0.096-1.034-0.722-1.467-1.876-1.467c-1.059,0-1.708,0.481-1.708,1.299c0,0.722, 0.313,1.155, 1.371,1.395 l 1.539,0.337c 2.069,0.481, 3.176,1.492, 3.176,3.44C 22.5,16.919, 20.479,17.833, 17.496,17.833z"></path></g></svg>