<?xml version="1.0" encoding="utf-8"?> <!-- Generator: IcoMoon.io --> <!DOCTYPE svg PUBLIC "-//W3C//DTD SVG 1.1//EN" "http://www.w3.org/Graphics/SVG/1.1/DTD/svg11.dtd"> <svg width="24.000045776367188" height="24" viewBox="0 0 24.000045776367188 24" xmlns="http://www.w3.org/2000/svg" xmlns:xlink="http://www.w3.org/1999/xlink" fill="#666666"><g><path d="M 19.209,19.069c-2.5-0.010-3.832-1.232-4.758-3.387l-0.265-0.588l-2.282-5.203 c-0.757-1.842-2.635-3.086-4.754-3.086c-2.867,0-5.193,2.326-5.193,5.195c0,2.869, 2.326,5.195, 5.193,5.195 c 2,0, 3.739-1.131, 4.607-2.789l 0.923,2.129c-1.31,1.598-3.302,2.615-5.53,2.615C 3.201,19.151,0,15.952,0,12.001 c0-3.949, 3.201-7.152, 7.15-7.152c 2.98,0, 5.387,1.592, 6.609,4.412c 0.093,0.219, 1.293,3.025, 2.34,5.414 c 0.648,1.478, 1.201,2.459, 2.994,2.52c 1.762,0.061, 2.971-1.012, 2.971-2.367c0-1.324-0.922-1.643-2.479-2.16 c-2.798-0.922-4.242-1.848-4.242-4.066c0-2.164, 1.473-3.607, 3.865-3.607c 1.558,0, 2.684,0.693, 3.463,2.076 l-1.529,0.781c-0.576-0.807-1.212-1.125-2.020-1.125c-1.123,0-1.925,0.781-1.925,1.82c0,1.475, 1.319,1.697, 3.164,2.303 C 22.846,11.657, 24,12.581, 24,14.888C 24,17.31, 21.922,19.073, 19.209,19.069z"></path></g></svg>