<?xml version="1.0" encoding="utf-8"?> <!-- Generator: IcoMoon.io --> <!DOCTYPE svg PUBLIC "-//W3C//DTD SVG 1.1//EN" "http://www.w3.org/Graphics/SVG/1.1/DTD/svg11.dtd"> <svg width="24" height="25.54621696472168" viewBox="0 0 24 25.54621696472168" xmlns="http://www.w3.org/2000/svg" xmlns:xlink="http://www.w3.org/1999/xlink" fill="#666666"><g><path d="M 16.818,0c-3.955,6.539-7.085,3.323-11.662,8.026c-4.039,4.15-2.639,9.148, 0.762,10.869 c 3.357-1.715, 6.791-5.551, 9.339-11.103c0,0, 2.289,7.011-4.722,13.767c 3.405,3.988, 9.183,1.213, 10.798-5.131 C 23.087,9.53, 18.51,2.508, 16.818,0zM 2.274,22.646C 2.276,22.714, 2.354,24, 4.040,24c 1.227,0, 7.449-3.391, 10.647-12.192 C 9.849,20.367, 2.825,22.491, 2.274,22.646z"></path></g></svg>