<?xml version="1.0" encoding="utf-8"?> <!-- Generator: IcoMoon.io --> <!DOCTYPE svg PUBLIC "-//W3C//DTD SVG 1.1//EN" "http://www.w3.org/Graphics/SVG/1.1/DTD/svg11.dtd"> <svg width="24" height="24" viewBox="0 0 24 24" xmlns="http://www.w3.org/2000/svg" xmlns:xlink="http://www.w3.org/1999/xlink" fill="#666666"><g><path d="M 12,0L0,7.5l 24,0 L 12,0z M 18.75,9l 0.75,1.5l0,9 l 3,0 L 22.5,10.5 l 0.75-1.5L 18.75,9 z M 12.75,9l 0.75,1.5l0,9 l 3,0 L 16.5,10.5 l 0.75-1.5L 12.75,9 z M 6.75,9l 0.75,1.5l0,9 l 3,0 L 10.5,10.5 l 0.75-1.5L 6.75,9 z M 0.75,9l 0.75,1.5l0,9 l 3,0 L 4.5,10.5 l 0.75-1.5L 0.75,9 z M 0.75,21L0,24l 24,0 l-0.75-3L 0.75,21 z M 13.5,4.5c0,0.828-0.672,1.5-1.5,1.5 c-0.828,0-1.5-0.672-1.5-1.5s 0.672-1.5, 1.5-1.5C 12.828,3, 13.5,3.672, 13.5,4.5z"></path></g></svg>