<?xml version="1.0" encoding="utf-8"?> <!-- Generator: IcoMoon.io --> <!DOCTYPE svg PUBLIC "-//W3C//DTD SVG 1.1//EN" "http://www.w3.org/Graphics/SVG/1.1/DTD/svg11.dtd"> <svg width="24" height="24" viewBox="0 0 24 24" xmlns="http://www.w3.org/2000/svg" xmlns:xlink="http://www.w3.org/1999/xlink" fill="#666666"><g><path d="M 12.53,0.53C 12.239,0.239, 11.663,0, 11.25,0L 2.25,0 c-0.413,0-0.75,0.338-0.75,0.75l0,22.5 c0,0.413, 0.338,0.75, 0.75,0.75l 18,0 c 0.413,0, 0.75-0.338, 0.75-0.75L 21,9.75 c0-0.413-0.239-0.989-0.53-1.28L 12.53,0.53z M 19.5,22.5L 3,22.5 L 3,1.5 l 8.23,0 c 0.068,0.011, 0.197,0.065, 0.253,0.105l 7.911,7.911 c 0.040,0.056, 0.094,0.185, 0.105,0.253L 19.5,22.5 zM 20.25,0l-4.5,0 c-0.413,0-0.511,0.239-0.22,0.53l 4.939,4.939C 20.761,5.761, 21,5.662, 21,5.25L 21,0.75 C 21,0.338, 20.663,0, 20.25,0 z"></path></g></svg>