<?xml version="1.0" encoding="utf-8"?> <!-- Generator: IcoMoon.io --> <!DOCTYPE svg PUBLIC "-//W3C//DTD SVG 1.1//EN" "http://www.w3.org/Graphics/SVG/1.1/DTD/svg11.dtd"> <svg width="24" height="24" viewBox="0 0 24 24" xmlns="http://www.w3.org/2000/svg" xmlns:xlink="http://www.w3.org/1999/xlink" fill="#666666"><g><path d="M 19.969,0L 4.031,0 C 1.814,0,0,1.814,0,4.031l0,15.938 c0,2.217, 1.814,4.031, 4.031,4.031l 15.938,0 c 2.217,0, 4.031-1.814, 4.031-4.031L 24,4.031 C 24,1.814, 22.186,0, 19.969,0z M 9,19.5l-3,0 L 6,9 l 3,0 L 9,19.5 z M 7.5,7.5c-0.828,0-1.5-0.672-1.5-1.5s 0.672-1.5, 1.5-1.5s 1.5,0.672, 1.5,1.5S 8.328,7.5, 7.5,7.5z M 19.5,19.5l-3,0 L 16.5,13.5 c0-0.828-0.672-1.5-1.5-1.5s-1.5,0.672-1.5,1.5l0,6 l-3,0 L 10.5,9 l 3,0 l0,1.863 C 14.119,10.013, 15.064,9, 16.125,9c 1.864,0, 3.375,1.679, 3.375,3.75 L 19.5,19.5 z"></path></g></svg>