<?xml version="1.0" encoding="utf-8"?> <!-- Generator: IcoMoon.io --> <!DOCTYPE svg PUBLIC "-//W3C//DTD SVG 1.1//EN" "http://www.w3.org/Graphics/SVG/1.1/DTD/svg11.dtd"> <svg width="25.10310935974121" height="25.103065490722656" viewBox="0 0 25.10310935974121 25.103065490722656" xmlns="http://www.w3.org/2000/svg" xmlns:xlink="http://www.w3.org/1999/xlink" fill="#666666"><g><path d="M 22.345,1.749l-0.094-0.095c-2.207-2.206-5.817-2.206-8.023,0L 9.116,6.767 c-2.206,2.206-2.206,5.817,0,8.023l 0.094,0.094c 0.184,0.184, 0.378,0.35, 0.58,0.503l 1.871-1.871 c-0.218-0.129-0.425-0.283-0.612-0.47l-0.095-0.095c-1.198-1.198-1.198-3.147,0-4.345L 16.067,3.494 c 1.198-1.198, 3.147-1.198, 4.345,0l 0.095,0.094c 1.198,1.198, 1.198,3.147,0,4.345l-2.313,2.313 c 0.402,0.992, 0.592,2.048, 0.575,3.103l 3.577-3.577C 24.552,7.566, 24.552,3.956, 22.345,1.749zM 14.79,9.116c-0.184-0.184-0.378-0.35-0.58-0.503l-1.871,1.871c 0.218,0.129, 0.425,0.283, 0.612,0.47l 0.095,0.095 c 1.198,1.198, 1.198,3.147,0,4.345L 7.933,20.507c-1.198,1.198-3.147,1.198-4.345,0l-0.095-0.095 c-1.198-1.198-1.198-3.147,0-4.345l 2.313-2.313c-0.402-0.992-0.592-2.048-0.575-3.103l-3.577,3.577 c-2.206,2.206-2.206,5.817,0,8.023l 0.094,0.095c 2.207,2.206, 5.817,2.206, 8.023,0l 5.112-5.112 c 2.206-2.206, 2.206-5.817,0-8.023L 14.79,9.116z"></path></g></svg>