<?xml version="1.0" encoding="utf-8"?> <!-- Generator: IcoMoon.io --> <!DOCTYPE svg PUBLIC "-//W3C//DTD SVG 1.1//EN" "http://www.w3.org/Graphics/SVG/1.1/DTD/svg11.dtd"> <svg width="24" height="24" viewBox="0 0 24 24" xmlns="http://www.w3.org/2000/svg" xmlns:xlink="http://www.w3.org/1999/xlink" fill="#666666"><g><path d="M 9,1.5l 15,0 l0,3 L 9,4.5 L 9,1.5 z M 9,10.5l 15,0 l0,3 L 9,13.5 L 9,10.5 z M 9,19.5l 15,0 l0,3 L 9,22.5 L 9,19.5 zM0,3A3,3 2520 1 0 6,3A3,3 2520 1 0 0,3zM0,12A3,3 2520 1 0 6,12A3,3 2520 1 0 0,12zM0,21A3,3 2520 1 0 6,21A3,3 2520 1 0 0,21z"></path></g></svg>