<?xml version="1.0" encoding="utf-8"?> <!-- Generator: IcoMoon.io --> <!DOCTYPE svg PUBLIC "-//W3C//DTD SVG 1.1//EN" "http://www.w3.org/Graphics/SVG/1.1/DTD/svg11.dtd"> <svg width="24" height="24" viewBox="0 0 24 24" xmlns="http://www.w3.org/2000/svg" xmlns:xlink="http://www.w3.org/1999/xlink" fill="#666666"><g><path d="M 12,0C 7.858,0, 4.5,3.358, 4.5,7.5c0,7.5, 7.5,16.5, 7.5,16.5s 7.5-9, 7.5-16.5C 19.5,3.358, 16.142,0, 12,0z M 12,12.094 c-2.537,0-4.594-2.057-4.594-4.594s 2.057-4.594, 4.594-4.594s 4.594,2.057, 4.594,4.594S 14.537,12.094, 12,12.094zM 9.094,7.5A2.906,2.906 1080 1 0 14.906,7.5A2.906,2.906 1080 1 0 9.094,7.5z"></path></g></svg>