<?xml version="1.0" encoding="utf-8"?> <!-- Generator: IcoMoon.io --> <!DOCTYPE svg PUBLIC "-//W3C//DTD SVG 1.1//EN" "http://www.w3.org/Graphics/SVG/1.1/DTD/svg11.dtd"> <svg width="24" height="24" viewBox="0 0 24 24" xmlns="http://www.w3.org/2000/svg" xmlns:xlink="http://www.w3.org/1999/xlink" fill="#666666"><g><path d="M 19.5,10.5l-1.5,0 l0-4.5 C 18,2.686, 15.314,0, 12,0c-3.314,0-6,2.686-6,6l0,4.5 L 4.5,10.5 c-0.825,0-1.5,0.675-1.5,1.5l0,10.5 c0,0.825, 0.675,1.5, 1.5,1.5l 15,0 c 0.825,0, 1.5-0.675, 1.5-1.5L 21,12 C 21,11.175, 20.325,10.5, 19.5,10.5z M 12,19.5c-0.828,0-1.5-0.672-1.5-1.5 s 0.672-1.5, 1.5-1.5s 1.5,0.672, 1.5,1.5S 12.828,19.5, 12,19.5z M 15,10.5L 9,10.5 l0-4.5 c0-1.654, 1.346-3, 3-3s 3,1.346, 3,3L 15,10.5 z"></path></g></svg>