<?xml version="1.0" encoding="utf-8"?> <!-- Generator: IcoMoon.io --> <!DOCTYPE svg PUBLIC "-//W3C//DTD SVG 1.1//EN" "http://www.w3.org/Graphics/SVG/1.1/DTD/svg11.dtd"> <svg width="24" height="24" viewBox="0 0 24 24" xmlns="http://www.w3.org/2000/svg" xmlns:xlink="http://www.w3.org/1999/xlink" fill="#666666"><g><path d="M 13.875,10.5l-0.375,0 l0-4.5 c0-2.481-2.019-4.5-4.5-4.5l-3,0 c-2.481,0-4.5,2.019-4.5,4.5l0,4.5 l-0.375,0 c-0.619,0-1.125,0.506-1.125,1.125l0,11.25 c0,0.619, 0.506,1.125, 1.125,1.125l 12.75,0 c 0.619,0, 1.125-0.506, 1.125-1.125L 15,11.625 C 15,11.006, 14.494,10.5, 13.875,10.5z M 9,21l-3,0 l 0.652-3.262 C 6.259,17.467, 6,17.014, 6,16.5c0-0.828, 0.672-1.5, 1.5-1.5c 0.828,0, 1.5,0.672, 1.5,1.5c0,0.514-0.259,0.967-0.652,1.237L 9,21 z M 10.5,10.5L 4.5,10.5 l0-4.5 c0-0.827, 0.673-1.5, 1.5-1.5l 3,0 c 0.827,0, 1.5,0.673, 1.5,1.5L 10.5,10.5 z"></path></g></svg>