<?xml version="1.0" encoding="utf-8"?> <!-- Generator: IcoMoon.io --> <!DOCTYPE svg PUBLIC "-//W3C//DTD SVG 1.1//EN" "http://www.w3.org/Graphics/SVG/1.1/DTD/svg11.dtd"> <svg width="24" height="24" viewBox="0 0 24 24" xmlns="http://www.w3.org/2000/svg" xmlns:xlink="http://www.w3.org/1999/xlink" fill="#666666"><g><path d="M 20.485,3.515C 18.313,1.344, 15.314,0, 12,0C 6.856,0, 2.468,3.237, 0.762,7.786l 2.81,1.054 C 4.851,5.428, 8.142,3, 12,3c 2.485,0, 4.735,1.008, 6.363,2.637L 15,9l 9,0 L 24,0 L 20.485,3.515zM 12,21c-2.485,0-4.735-1.008-6.364-2.636L 9,15L0,15 l0,9 l 3.515-3.515C 5.687,22.656, 8.686,24, 12,24 c 5.144,0, 9.532-3.237, 11.238-7.786l-2.81-1.054C 19.149,18.572, 15.858,21, 12,21z"></path></g></svg>