<?xml version="1.0" encoding="utf-8"?> <!-- Generator: IcoMoon.io --> <!DOCTYPE svg PUBLIC "-//W3C//DTD SVG 1.1//EN" "http://www.w3.org/Graphics/SVG/1.1/DTD/svg11.dtd"> <svg width="24" height="24" viewBox="0 0 24 24" xmlns="http://www.w3.org/2000/svg" xmlns:xlink="http://www.w3.org/1999/xlink" fill="#666666"><g><path d="M 20.145,0.622L 20.037,0L 14.25,0 l 0.155,0.88c 0.524,2.979, 1.742,10.231, 1.742,13.229c0,2.3-1.86,4.172-4.147,4.172 c-2.286,0-4.147-1.871-4.147-4.172c0-2.998, 1.218-10.251, 1.742-13.229L 9.75,0L 3.963,0 l-0.108,0.622 C 3.221,4.288, 2.156,10.915, 2.156,14.109c0,5.454, 4.416,9.891, 9.844,9.891c 5.428,0, 9.844-4.437, 9.844-9.891 C 21.844,10.916, 20.779,4.288, 20.145,0.622z M 12,22.5c-4.601,0-8.344-3.764-8.344-8.391c0-1.893, 0.397-5.088, 0.848-8.109l 2.727,0 c-0.469,3.076-0.877,6.283-0.877,8.109c0,3.127, 2.533,5.672, 5.647,5.672c 3.114,0, 5.647-2.544, 5.647-5.672 c0-1.827-0.409-5.034-0.877-8.109l 2.727,0 C 19.947,9.022, 20.344,12.216, 20.344,14.109C 20.344,18.736, 16.601,22.5, 12,22.5z"></path></g></svg>