<?xml version="1.0" encoding="utf-8"?> <!-- Generator: IcoMoon.io --> <!DOCTYPE svg PUBLIC "-//W3C//DTD SVG 1.1//EN" "http://www.w3.org/Graphics/SVG/1.1/DTD/svg11.dtd"> <svg width="24" height="24" viewBox="0 0 24 24" xmlns="http://www.w3.org/2000/svg" xmlns:xlink="http://www.w3.org/1999/xlink" fill="#666666"><g><path d="M 20,0L 4,0 C 1.8,0,0,1.8,0,4.001l0,15.999 C0,22.201, 1.8,24, 4,24l 16,0 C 22.2,24, 24,22.201, 24,19.999L 24,4.001 C 24,1.8, 22.2,0, 20,0z M 20,3c 0.187,0, 0.364,0.055, 0.516,0.149 L 12,10.189L 3.484,3.149C 3.636,3.055, 3.813,3, 4,3L 20,3 z M 4,21c-0.045,0-0.090-0.003-0.133-0.010 l 5.288-7.335l-0.686-0.686L 3,18.439L 3,4.116 L 12,15L 21,4.116l0,14.323 L 15.53,12.97l-0.686,0.686l 5.288,7.335 c-0.044,0.006-0.088,0.010-0.133,0.010L 4,21 z"></path></g></svg>