<?xml version="1.0" encoding="utf-8"?> <!-- Generator: IcoMoon.io --> <!DOCTYPE svg PUBLIC "-//W3C//DTD SVG 1.1//EN" "http://www.w3.org/Graphics/SVG/1.1/DTD/svg11.dtd"> <svg width="24" height="24" viewBox="0 0 24 24" xmlns="http://www.w3.org/2000/svg" xmlns:xlink="http://www.w3.org/1999/xlink" fill="#666666"><g><path d="M 19.999,0L 4.001,0 C 1.8,0,0,1.8,0,4l0,16 C0,22.2, 1.8,24, 4.001,24l 15.999,0 C 22.201,24, 24,22.2, 24,20L 24,4 C 24,1.8, 22.201,0, 19.999,0z M 6,6l 12,0 c 0.214,0, 0.422,0.046, 0.613,0.133 L 12,13.848L 5.387,6.133C 5.578,6.046, 5.786,6, 6,6z M 4.5,16.5L 4.5,7.5 c0-0.031, 0.001-0.063, 0.003-0.094l 4.398,5.131 L 4.552,16.888C 4.518,16.763, 4.5,16.633, 4.5,16.5z M 18,18L 6,18 c-0.133,0-0.263-0.018-0.388-0.052l 4.268-4.268L 12,16.152 l 2.119-2.473l 4.268,4.268C 18.263,17.982, 18.133,18, 18,18z M 19.5,16.5c0,0.133-0.018,0.262-0.052,0.388l-4.35-4.35L 19.497,7.406 c 0.002,0.031, 0.003,0.062, 0.003,0.094L 19.5,16.5 z"></path></g></svg>