<?xml version="1.0" encoding="utf-8"?> <!-- Generator: IcoMoon.io --> <!DOCTYPE svg PUBLIC "-//W3C//DTD SVG 1.1//EN" "http://www.w3.org/Graphics/SVG/1.1/DTD/svg11.dtd"> <svg width="24" height="24" viewBox="0 0 24 24" xmlns="http://www.w3.org/2000/svg" xmlns:xlink="http://www.w3.org/1999/xlink" fill="#666666"><g><path d="M 20,0L 4,0 C 1.8,0,0,1.8,0,4.001l0,15.999 C0,22.201, 1.8,24, 4,24l 16,0 C 22.2,24, 24,22.201, 24,19.999L 24,4.001 C 24,1.8, 22.2,0, 20,0z M 4.28,20.78l-1.811-1.811l 6-6 l 0.686,0.686L 4.28,20.78z M 3.595,4.655l 0.686-0.686L 12,10.189L 19.72,3.97l 0.686,0.686L 12,14.561L 3.595,4.655z M 19.72,20.78l-4.875-7.125l 0.686-0.686l 6,6L 19.72,20.78z"></path></g></svg>