<?xml version="1.0" encoding="utf-8"?> <!-- Generator: IcoMoon.io --> <!DOCTYPE svg PUBLIC "-//W3C//DTD SVG 1.1//EN" "http://www.w3.org/Graphics/SVG/1.1/DTD/svg11.dtd"> <svg width="24" height="24" viewBox="0 0 24 24" xmlns="http://www.w3.org/2000/svg" xmlns:xlink="http://www.w3.org/1999/xlink" fill="#666666"><g><path d="M 12,0C 5.373,0,0,5.373,0,12s 5.373,12, 12,12s 12-5.373, 12-12S 18.627,0, 12,0z M 7.098,19.55 C 7.358,18.832, 7.5,18.058, 7.5,17.25c0-2.914-1.847-5.397-4.435-6.342c 0.239-1.99, 1.131-3.832, 2.571-5.272 C 7.336,3.936, 9.596,3, 12,3s 4.664,0.936, 6.364,2.636c 1.44,1.44, 2.331,3.281, 2.571,5.272 C 18.347,11.853, 16.5,14.336, 16.5,17.25c0,0.808, 0.142,1.583, 0.402,2.3C 15.456,20.494, 13.767,21, 12,21 C 10.233,21, 8.544,20.494, 7.098,19.55zM 12.932,15.023 C 13.257,15.105 13.5,15.4 13.5,15.75 L 13.5,17.25 C 13.5,17.663 13.163,18 12.75,18 L 11.25,18 C 10.837,18 10.5,17.663 10.5,17.25 L 10.5,15.75 C 10.5,15.4 10.743,15.105 11.068,15.023 L 11.625,4.5 L 12.375,4.5 L 12.932,15.023 Z"></path></g></svg>