<?xml version="1.0" encoding="utf-8"?> <!-- Generator: IcoMoon.io --> <!DOCTYPE svg PUBLIC "-//W3C//DTD SVG 1.1//EN" "http://www.w3.org/Graphics/SVG/1.1/DTD/svg11.dtd"> <svg width="24" height="24" viewBox="0 0 24 24" xmlns="http://www.w3.org/2000/svg" xmlns:xlink="http://www.w3.org/1999/xlink" fill="#666666"><g><path d="M 12,1.5 C 18.627,1.5 24,6.873 24,13.5 C 24,18.019 21.502,21.953 17.812,24 L 6.188,24 C 2.498,21.953 0,18.019 0,13.5 C 0,6.873 5.373,1.5 12,1.5 Z M 18.795,20.295 C 20.61,18.48 21.609,16.067 21.609,13.5 L 19.5,13.5 L 19.5,12 L 21.493,12 C 21.329,10.945 20.992,9.934 20.495,9 L 18,9 L 18,7.5 L 19.507,7.5 C 19.285,7.224 19.048,6.959 18.795,6.705 C 17.712,5.622 16.415,4.829 15,4.366 L 15,6 L 13.5,6 L 13.5,4.007 C 13.008,3.93 12.507,3.891 12,3.891 C 11.493,3.891 10.992,3.93 10.5,4.007 L 10.5,6 L 9,6 L 9,4.366 C 7.585,4.829 6.288,5.622 5.205,6.705 C 4.952,6.959 4.715,7.224 4.493,7.5 L 6,7.5 L 6,9 L 3.504,9 C 3.008,9.934 2.671,10.945 2.507,12 L 4.5,12 L 4.5,13.5 L 2.391,13.5 C 2.391,16.067 3.39,18.48 5.205,20.295 C 5.456,20.546 5.719,20.781 5.992,21 L 10.5,21 L 11.357,9 L 12.643,9 L 13.5,21 L 18.008,21 C 18.281,20.781 18.544,20.546 18.795,20.295 Z"></path></g></svg>