<?xml version="1.0" encoding="utf-8"?> <!-- Generator: IcoMoon.io --> <!DOCTYPE svg PUBLIC "-//W3C//DTD SVG 1.1//EN" "http://www.w3.org/Graphics/SVG/1.1/DTD/svg11.dtd"> <svg width="24" height="24" viewBox="0 0 24 24" xmlns="http://www.w3.org/2000/svg" xmlns:xlink="http://www.w3.org/1999/xlink" fill="#666666"><g><path d="M 17.25,0L 6.75,0 c-1.237,0-2.25,1.013-2.25,2.25l0,19.5 c0,1.237, 1.013,2.25, 2.25,2.25l 10.5,0 c 1.237,0, 2.25-1.013, 2.25-2.25L 19.5,2.25 C 19.5,1.013, 18.487,0, 17.25,0z M 9,1.125 l 6,0 l0,0.75 L 9,1.875 L 9,1.125 z M 12,22.5c-0.828,0-1.5-0.672-1.5-1.5s 0.672-1.5, 1.5-1.5s 1.5,0.672, 1.5,1.5S 12.828,22.5, 12,22.5z M 18,18L 6,18 L 6,3 l 12,0 L 18,18 z"></path></g></svg>