<?xml version="1.0" encoding="utf-8"?> <!-- Generator: IcoMoon.io --> <!DOCTYPE svg PUBLIC "-//W3C//DTD SVG 1.1//EN" "http://www.w3.org/Graphics/SVG/1.1/DTD/svg11.dtd"> <svg width="24" height="24" viewBox="0 0 24 24" xmlns="http://www.w3.org/2000/svg" xmlns:xlink="http://www.w3.org/1999/xlink" fill="#666666"><g><path d="M 18,0L 4.5,0 C 3.675,0, 3,0.675, 3,1.5l0,21 c0,0.825, 0.675,1.5, 1.5,1.5l 13.5,0 c 0.825,0, 1.5-0.675, 1.5-1.5L 19.5,1.5 C 19.5,0.675, 18.825,0, 18,0z M 11.25,22.917c-0.644,0-1.167-0.522-1.167-1.167s 0.522-1.167, 1.167-1.167s 1.167,0.522, 1.167,1.167 S 11.894,22.917, 11.25,22.917z M 18,19.5L 4.5,19.5 L 4.5,3 l 13.5,0 L 18,19.5 z"></path></g></svg>