<?xml version="1.0" encoding="utf-8"?> <!-- Generator: IcoMoon.io --> <!DOCTYPE svg PUBLIC "-//W3C//DTD SVG 1.1//EN" "http://www.w3.org/Graphics/SVG/1.1/DTD/svg11.dtd"> <svg width="24" height="24" viewBox="0 0 24 24" xmlns="http://www.w3.org/2000/svg" xmlns:xlink="http://www.w3.org/1999/xlink" fill="#666666"><g><path d="M 19.5,7.5l-1.5,0 l0-2.25 c0-2.071-4.029-3.75-9-3.75C 4.029,1.5,0,3.179,0,5.25l0,13.5 c0,2.071, 4.029,3.75, 9,3.75 c 4.971,0, 9-1.679, 9-3.75l0-2.25 l 1.5,0 c 2.475,0, 4.5-2.025, 4.5-4.5S 21.975,7.5, 19.5,7.5z M 4.126,4.444C 5.484,3.996, 7.215,3.75, 9,3.75 s 3.516,0.246, 4.874,0.694c 0.867,0.286, 1.392,0.592, 1.674,0.806c-0.281,0.214-0.807,0.52-1.674,0.806 C 12.516,6.504, 10.785,6.75, 9,6.75s-3.516-0.246-4.874-0.694C 3.259,5.771, 2.734,5.464, 2.453,5.25 C 2.734,5.036, 3.259,4.729, 4.126,4.444z M 21.196,13.321C 20.989,13.528, 20.542,13.875, 19.875,13.875l-1.875,0 l0-3.75 l 1.875,0 c 0.667,0, 1.114,0.347, 1.321,0.554S 21.75,11.333, 21.75,12S 21.403,13.114, 21.196,13.321z"></path></g></svg>