<?xml version="1.0" encoding="utf-8"?> <!-- Generator: IcoMoon.io --> <!DOCTYPE svg PUBLIC "-//W3C//DTD SVG 1.1//EN" "http://www.w3.org/Graphics/SVG/1.1/DTD/svg11.dtd"> <svg width="24" height="24" viewBox="0 0 24 24" xmlns="http://www.w3.org/2000/svg" xmlns:xlink="http://www.w3.org/1999/xlink" fill="#666666"><g><path d="M 7.5,4.5 L 24,0 L 24,1.5 L 24,4.5 L 24,17.25 C 24,19.321 21.649,21 18.75,21 C 15.851,21 13.5,19.321 13.5,17.25 C 13.5,15.179 15.851,13.5 18.75,13.5 C 19.555,13.5 20.318,13.63 21,13.861 L 21,6.136 L 10.5,9 L 10.5,20.25 C 10.5,22.321 8.149,24 5.25,24 C 2.35,24 0,22.321 0,20.25 C 0,18.179 2.35,16.5 5.25,16.5 C 6.055,16.5 6.818,16.63 7.5,16.861 L 7.5,9 L 7.5,4.5 Z"></path></g></svg>