<?xml version="1.0" encoding="utf-8"?> <!-- Generator: IcoMoon.io --> <!DOCTYPE svg PUBLIC "-//W3C//DTD SVG 1.1//EN" "http://www.w3.org/Graphics/SVG/1.1/DTD/svg11.dtd"> <svg width="24" height="24" viewBox="0 0 24 24" xmlns="http://www.w3.org/2000/svg" xmlns:xlink="http://www.w3.org/1999/xlink" fill="#666666"><g><path d="M 12,24c 6.627,0, 12-5.373, 12-12S 18.627,0, 12,0S0,5.373,0,12S 5.373,24, 12,24z M 12,2.25 c 5.385,0, 9.75,4.365, 9.75,9.75s-4.365,9.75-9.75,9.75S 2.25,17.385, 2.25,12S 6.615,2.25, 12,2.25zM 6,7.5c0,0.828, 0.672,1.5, 1.5,1.5s 1.5-0.672, 1.5-1.5s-0.672-1.5-1.5-1.5S 6,6.672, 6,7.5z M 15,7.5 c0,0.828, 0.672,1.5, 1.5,1.5s 1.5-0.672, 1.5-1.5s-0.672-1.5-1.5-1.5S 15,6.672, 15,7.5z M 9,16.5l 6,0 l0,1.5 L 9,18 L 9,16.5 z"></path></g></svg>