<?xml version="1.0" encoding="utf-8"?> <!-- Generator: IcoMoon.io --> <!DOCTYPE svg PUBLIC "-//W3C//DTD SVG 1.1//EN" "http://www.w3.org/Graphics/SVG/1.1/DTD/svg11.dtd"> <svg width="24" height="24" viewBox="0 0 24 24" xmlns="http://www.w3.org/2000/svg" xmlns:xlink="http://www.w3.org/1999/xlink" fill="#666666"><g><path d="M 21,6L 21,3 L0,3 l0,16.5 c0,0.828, 0.672,1.5, 1.5,1.5l 20.25,0 c 1.243,0, 2.25-1.007, 2.25-2.25L 24,6 L 21,6 z M 19.5,19.5L 1.5,19.5 L 1.5,4.5 l 18,0 L 19.5,19.5 zM 3,7.5L 18,7.5L 18,9L 3,9zM 12,10.5L 18,10.5L 18,12L 12,12zM 12,13.5L 18,13.5L 18,15L 12,15zM 12,16.5L 16.5,16.5L 16.5,18L 12,18zM 3,10.5L 10.5,10.5L 10.5,18L 3,18z"></path></g></svg>