<?xml version="1.0" encoding="utf-8"?> <!-- Generator: IcoMoon.io --> <!DOCTYPE svg PUBLIC "-//W3C//DTD SVG 1.1//EN" "http://www.w3.org/Graphics/SVG/1.1/DTD/svg11.dtd"> <svg width="24" height="24" viewBox="0 0 24 24" xmlns="http://www.w3.org/2000/svg" xmlns:xlink="http://www.w3.org/1999/xlink" fill="#666666"><g><path d="M 21.055,1.5L 3,1.5 l0,3 L 0.805,4.5 C 0.393,4.5,0,4.794,0,5.206l0,1.5 C0,7.119, 0.393,7.5, 0.805,7.5L 3,7.5 l0,1.5 L 0.805,9 C 0.393,9,0,9.294,0,9.706l0,1.5 C0,11.619, 0.393,12, 0.805,12L 3,12 l0,1.5 L 0.805,13.5 C 0.393,13.5,0,13.794,0,14.206l0,1.5 C0,16.119, 0.393,16.5, 0.805,16.5L 3,16.5 l0,1.5 L 0.805,18 C 0.393,18,0,18.294,0,18.706l0,1.5 C0,20.619, 0.393,21, 0.805,21L 3,21 l0,3 l 18.055,0 c 0.828,0, 1.445-0.715, 1.445-1.544l0-19.5 C 22.5,2.128, 21.884,1.5, 21.055,1.5z M 7.5,22.5L 4.5,22.5 l0-1.5 l 0.805,0 c 0.413,0, 0.695-0.381, 0.695-0.794 l0-1.5 c0-0.413-0.282-0.706-0.695-0.706L 4.5,18 l0-1.5 l 0.805,0 c 0.413,0, 0.695-0.381, 0.695-0.794l0-1.5 c0-0.413-0.282-0.706-0.695-0.706L 4.5,13.5 l0-1.5 l 0.805,0 c 0.413,0, 0.695-0.381, 0.695-0.794l0-1.5 c0-0.413-0.282-0.706-0.695-0.706L 4.5,9 l0-1.5 l 0.805,0 c 0.413,0, 0.695-0.381, 0.695-0.794l0-1.5 C 6,4.794, 5.718,4.5, 5.305,4.5L 4.5,4.5 L 4.5,3 l 3,0 L 7.5,22.5 z"></path></g></svg>