<?xml version="1.0" encoding="utf-8"?> <!-- Generator: IcoMoon.io --> <!DOCTYPE svg PUBLIC "-//W3C//DTD SVG 1.1//EN" "http://www.w3.org/Graphics/SVG/1.1/DTD/svg11.dtd"> <svg width="24" height="24" viewBox="0 0 24 24" xmlns="http://www.w3.org/2000/svg" xmlns:xlink="http://www.w3.org/1999/xlink" fill="#666666"><g><path d="M 9,19.5L 24,19.5L 24,22.5L 9,22.5zM 9,10.5L 24,10.5L 24,13.5L 9,13.5zM 9,1.5L 24,1.5L 24,4.5L 9,4.5zM 4.5,0 L 4.5,6 L 3,6 L 3,1.5 L 1.5,1.5 L 1.5,0 ZM 3,12.328 L 3,13.5 L 6,13.5 L 6,15 L 1.5,15 L 1.5,11.578 L 4.5,10.172 L 4.5,9 L 1.5,9 L 1.5,7.5 L 6,7.5 L 6,10.922 ZM 6,16.5 L 6,24 L 1.5,24 L 1.5,22.5 L 4.5,22.5 L 4.5,21 L 1.5,21 L 1.5,19.5 L 4.5,19.5 L 4.5,18 L 1.5,18 L 1.5,16.5 Z"></path></g></svg>