<?xml version="1.0" encoding="utf-8"?> <!-- Generator: IcoMoon.io --> <!DOCTYPE svg PUBLIC "-//W3C//DTD SVG 1.1//EN" "http://www.w3.org/Graphics/SVG/1.1/DTD/svg11.dtd"> <svg width="24" height="24" viewBox="0 0 24 24" xmlns="http://www.w3.org/2000/svg" xmlns:xlink="http://www.w3.org/1999/xlink" fill="#666666"><g><path d="M0,24l 12,0 L 12,0 L0,0 L0,24 z M 7.5,3l 3,0 l0,3 l-3,0 L 7.5,3 z M 7.5,9l 3,0 l0,3 l-3,0 L 7.5,9 z M 7.5,15l 3,0 l0,3 l-3,0 L 7.5,15 z M 1.5,3l 3,0 l0,3 L 1.5,6 L 1.5,3 z M 1.5,9 l 3,0 l0,3 L 1.5,12 L 1.5,9 z M 1.5,15l 3,0 l0,3 L 1.5,18 L 1.5,15 zM 13.5,7.5L 24,7.5L 24,9L 13.5,9zM 13.5,24L 16.5,24L 16.5,18L 21,18L 21,24L 24,24L 24,10.5L 13.5,10.5 z"></path></g></svg>