<?xml version="1.0" encoding="utf-8"?> <!-- Generator: IcoMoon.io --> <!DOCTYPE svg PUBLIC "-//W3C//DTD SVG 1.1//EN" "http://www.w3.org/Graphics/SVG/1.1/DTD/svg11.dtd"> <svg width="24" height="24" viewBox="0 0 24 24" xmlns="http://www.w3.org/2000/svg" xmlns:xlink="http://www.w3.org/1999/xlink" fill="#666666"><g><path d="M 16.5,21 L 22.5,21 L 24,18 L 24,24 L 15,24 L 15,18.979 C 18.073,17.656 20.25,14.358 20.25,10.5 C 20.25,5.474 16.556,1.541 12,1.541 C 7.444,1.541 3.75,5.474 3.75,10.5 C 3.75,14.358 5.927,17.656 9,18.979 L 9,24 L 0,24 L 0,18 L 1.5,21 L 7.5,21 L 7.5,20.236 C 3.102,18.679 0,14.906 0,10.5 C 0,4.701 5.373,0 12,0 C 18.627,0 24,4.701 24,10.5 C 24,14.906 20.898,18.679 16.5,20.236 L 16.5,21 Z"></path></g></svg>