<?xml version="1.0" encoding="utf-8"?> <!-- Generator: IcoMoon.io --> <!DOCTYPE svg PUBLIC "-//W3C//DTD SVG 1.1//EN" "http://www.w3.org/Graphics/SVG/1.1/DTD/svg11.dtd"> <svg width="24" height="24" viewBox="0 0 24 24" xmlns="http://www.w3.org/2000/svg" xmlns:xlink="http://www.w3.org/1999/xlink" fill="#666666"><g><path d="M 24,13.5L 24,4.5 l-4.5,0 L 19.5,3 c0-0.825-0.675-1.5-1.5-1.5L 1.5,1.5 C 0.675,1.5,0,2.175,0,3l0,4.5 c0,0.825, 0.675,1.5, 1.5,1.5l 16.5,0 c 0.825,0, 1.5-0.675, 1.5-1.5l0-1.5 l 3,0 l0,6 L 9,12 l0,3 l-0.75,0 c-0.414,0-0.75,0.336-0.75,0.75l0,7.5 c0,0.414, 0.336,0.75, 0.75,0.75l 3,0 c 0.414,0, 0.75-0.336, 0.75-0.75L 12,15.75 c0-0.414-0.336-0.75-0.75-0.75l-0.75,0 l0-1.5 L 24,13.5 z M 18,4.5L 1.5,4.5 L 1.5,3 l 16.5,0 L 18,4.5 z"></path></g></svg>