<?xml version="1.0" encoding="utf-8"?> <!-- Generator: IcoMoon.io --> <!DOCTYPE svg PUBLIC "-//W3C//DTD SVG 1.1//EN" "http://www.w3.org/Graphics/SVG/1.1/DTD/svg11.dtd"> <svg width="24" height="24" viewBox="0 0 24 24" xmlns="http://www.w3.org/2000/svg" xmlns:xlink="http://www.w3.org/1999/xlink" fill="#666666"><g><path d="M 19.5,7.5L 19.5,3.75 c0-0.413-0.338-0.75-0.75-0.75L 13.5,3 L 13.5,1.5 c0-0.825-0.675-1.5-1.5-1.5l-3,0 c-0.825,0-1.5,0.675-1.5,1.5l0,1.5 L 2.25,3 c-0.413,0-0.75,0.338-0.75,0.75l0,15 c0,0.413, 0.337,0.75, 0.75,0.75l 6.75,0 l0,4.5 l 10.5,0 l 4.5-4.5L 24,7.5 L 19.5,7.5 z M 9,1.503c 0.001-0.001, 0.002-0.002, 0.003-0.003l 2.995,0 c 0.001,0.001, 0.002,0.002, 0.003,0.003L 12,3 l-3,0 L 9,1.503 z M 4.5,6L 4.5,4.5 l 12,0 l0,1.5 L 4.5,6 z M 19.5,21.879L 19.5,19.5 l 2.379,0 L 19.5,21.879z M 22.5,18l-4.5,0 l0,4.5 L 10.5,22.5 L 10.5,9 l 12,0 L 22.5,18 z"></path></g></svg>