<?xml version="1.0" encoding="utf-8"?> <!-- Generator: IcoMoon.io --> <!DOCTYPE svg PUBLIC "-//W3C//DTD SVG 1.1//EN" "http://www.w3.org/Graphics/SVG/1.1/DTD/svg11.dtd"> <svg width="24" height="24" viewBox="0 0 24 24" xmlns="http://www.w3.org/2000/svg" xmlns:xlink="http://www.w3.org/1999/xlink" fill="#666666"><g><path d="M 17.25,14.905C 17.728,14.044, 18,13.054, 18,12c0-2.421-1.435-4.508-3.5-5.456 C 15.267,5.858, 15.75,4.86, 15.75,3.75c0-2.071-1.679-3.75-3.75-3.75c-2.071,0-3.75,1.679-3.75,3.75c0,1.11, 0.483,2.108, 1.25,2.794 C 7.435,7.492, 6,9.579, 6,12c0,1.054, 0.272,2.044, 0.75,2.905C 3.611,16.721, 1.5,20.114, 1.5,24l 21,0 C 22.5,20.114, 20.389,16.721, 17.25,14.905z"></path></g></svg>