<?xml version="1.0" encoding="utf-8"?> <!-- Generator: IcoMoon.io --> <!DOCTYPE svg PUBLIC "-//W3C//DTD SVG 1.1//EN" "http://www.w3.org/Graphics/SVG/1.1/DTD/svg11.dtd"> <svg width="24.596906661987305" height="24" viewBox="0 0 24.596906661987305 24" xmlns="http://www.w3.org/2000/svg" xmlns:xlink="http://www.w3.org/1999/xlink" fill="#666666"><g><path d="M 15.196,1.5c 0.664,0, 1.334,0.136, 1.937,0.393c 0.635,0.271, 1.156,0.654, 1.549,1.141 c 0.787,0.974, 1.009,2.3, 0.657,3.943c-0.382,1.79-1.275,3.28-2.582,4.309c-1.274,1.003-2.883,1.533-4.653,1.533 l-4.413,0 l-1.214,0 l-0.253,1.187L 4.966,19.915L 3.89,19.915 l-0.327,0 L 1.862,19.915 L 5.874,1.5L 15.196,1.5 M 6.698,11.719l 1.877,0 l 2.901,0 c 1.112,0, 2.238-0.426, 3.172-1.199c 0.91-0.754, 1.553-1.77, 1.814-2.864c 0.326-1.231, 0.109-2.465-0.598-3.388 c-0.684-0.894-1.755-1.407-2.938-1.407l-3.027,0 l-1.199,0 l-0.264,1.169l-1.324,5.858L 6.698,11.719 M 15.196,0L 4.666,0 L0,21.415l 3.563,0 L 3,24l 6.18,0 l 1.513-7.095l 4.413,0 c 4.225,0, 7.756-2.603, 8.701-7.030 c 0.79-3.696-0.956-5.905-3.167-6.81c 0.602,0.295, 1.127,0.715, 1.512,1.23c 0.809,1.085, 1.037,2.563, 0.676,4.394 c-0.365,1.852-1.182,3.416-2.371,4.548c-0.218,0.227-0.451,0.439-0.699,0.635c-1.274,1.003-2.883,1.533-4.653,1.533 l-0.284,0 L 9.479,15.405 L 7.966,22.5l-3.104,0 l 0.236-1.085l 1.081,0 l 1.513-7.095l 4.413,0 c 4.225,0, 7.756-2.603, 8.701-7.030 C 21.878,2.278, 18.285,0, 15.196,0L 15.196,0z M 8.575,10.219l 1.324-5.858l 3.027,0 c 1.514,0, 2.522,1.302, 2.081,2.929 c-0.378,1.627-1.954,2.929-3.531,2.929L 8.575,10.219 L 8.575,10.219z"></path></g></svg>