<?xml version="1.0" encoding="utf-8"?> <!-- Generator: IcoMoon.io --> <!DOCTYPE svg PUBLIC "-//W3C//DTD SVG 1.1//EN" "http://www.w3.org/Graphics/SVG/1.1/DTD/svg11.dtd"> <svg width="24.596906661987305" height="24" viewBox="0 0 24.596906661987305 24" xmlns="http://www.w3.org/2000/svg" xmlns:xlink="http://www.w3.org/1999/xlink" fill="#666666"><g><path d="M 20.64,3.065c 0.602,0.295, 1.127,0.715, 1.512,1.23c 0.809,1.085, 1.037,2.563, 0.676,4.394 c-0.365,1.852-1.182,3.416-2.371,4.548c-0.218,0.227-0.451,0.439-0.699,0.635c-1.274,1.003-2.883,1.533-4.653,1.533 l-0.284,0 L 9.479,15.405 L 7.966,22.5l-3.104,0 l 0.236-1.085l 1.081,0 l 1.513-7.095l 4.413,0 c 4.225,0, 7.756-2.603, 8.701-7.030 C 21.878,2.278, 18.285,0, 15.196,0L 4.666,0 L0,21.415l 3.563,0 L 3,24l 6.18,0 l 1.513-7.095l 4.413,0 c 4.225,0, 7.756-2.603, 8.701-7.030C 24.597,6.179, 22.85,3.97, 20.64,3.065z M 9.899,4.361l 3.027,0 c 1.514,0, 2.522,1.302, 2.081,2.929c-0.378,1.627-1.954,2.929-3.531,2.929l-2.901,0 L 9.899,4.361z"></path></g></svg>