<?xml version="1.0" encoding="utf-8"?> <!-- Generator: IcoMoon.io --> <!DOCTYPE svg PUBLIC "-//W3C//DTD SVG 1.1//EN" "http://www.w3.org/Graphics/SVG/1.1/DTD/svg11.dtd"> <svg width="24.00009536743164" height="24" viewBox="0 0 24.00009536743164 24" xmlns="http://www.w3.org/2000/svg" xmlns:xlink="http://www.w3.org/1999/xlink" fill="#666666"><g><path d="M 22.5,6.75L 17.25,1.5L 18.75,0L 24,5.25zM 21,8.25 L 20.25,16.5 C 13.5,16.5 3.75,24 3.75,24 L 2.505,22.755 L 8.919,16.341 C 9.176,16.443 9.456,16.5 9.75,16.5 C 10.993,16.5 12,15.493 12,14.25 C 12,13.007 10.993,12 9.75,12 C 8.507,12 7.5,13.007 7.5,14.25 C 7.5,14.544 7.557,14.824 7.659,15.081 L 1.245,21.495 L 0,20.25 C 0,20.25 7.5,10.5 7.5,3.75 L 15.75,3 L 21,8.25 Z"></path></g></svg>