<?xml version="1.0" encoding="utf-8"?> <!-- Generator: IcoMoon.io --> <!DOCTYPE svg PUBLIC "-//W3C//DTD SVG 1.1//EN" "http://www.w3.org/Graphics/SVG/1.1/DTD/svg11.dtd"> <svg width="24.30904769897461" height="24" viewBox="0 0 24.30904769897461 24" xmlns="http://www.w3.org/2000/svg" xmlns:xlink="http://www.w3.org/1999/xlink" fill="#666666"><g><path d="M 23.845,13.5 C 24.032,14.8 24.155,16.579 23.571,17.26 C 22.607,18.386 16.5,18.386 16.5,16.134 C 16.5,15 17.504,14.256 16.54,13.13 C 15.592,12.022 13.891,12.004 12,12.004 C 10.109,12.004 8.408,12.022 7.46,13.13 C 6.496,14.256 7.5,15 7.5,16.134 C 7.5,18.386 1.393,18.386 0.429,17.26 C -0.154,16.579 -0.032,14.8 0.155,13.5 C 0.3,12.632 0.664,11.695 1.832,10.5 C 1.832,10.5 1.832,10.5 1.832,10.5 C 3.584,8.865 6.235,7.53 11.906,7.501 L 11.906,7.5 C 11.938,7.5 11.969,7.5 12,7.5 C 12.031,7.5 12.062,7.5 12.094,7.5 L 12.094,7.501 C 17.765,7.529 20.416,8.865 22.168,10.5 C 22.168,10.5 22.168,10.5 22.168,10.5 C 23.336,11.695 23.7,12.632 23.845,13.5 Z"></path></g></svg>