<?xml version="1.0" encoding="utf-8"?> <!-- Generator: IcoMoon.io --> <!DOCTYPE svg PUBLIC "-//W3C//DTD SVG 1.1//EN" "http://www.w3.org/Graphics/SVG/1.1/DTD/svg11.dtd"> <svg width="24" height="24" viewBox="0 0 24 24" xmlns="http://www.w3.org/2000/svg" xmlns:xlink="http://www.w3.org/1999/xlink" fill="#666666"><g><path d="M 16.5,9.24 L 7.958,0.699 C 9.221,0.247 10.582,0 12,0 C 13.591,0 15.11,0.311 16.5,0.873 L 16.5,9.24 ZM 18,16.5 L 18,1.606 C 21.587,3.681 24,7.558 24,12 C 24,13.591 23.689,15.11 23.127,16.5 L 18,16.5 ZM 7.5,18 L 22.394,18 C 20.319,21.587 16.442,24 12,24 C 10.409,24 8.89,23.689 7.5,23.127 L 7.5,18 ZM 9.99,5.25 L 0.351,14.889 C 0.122,13.964 0,12.996 0,12 C 0,7.468 2.513,3.523 6.222,1.481 L 9.99,5.25 ZM 6,11.76 L 6,22.394 C 3.783,21.112 2.015,19.14 0.987,16.772 L 6,11.76 Z"></path></g></svg>