<?xml version="1.0" encoding="utf-8"?> <!-- Generator: IcoMoon.io --> <!DOCTYPE svg PUBLIC "-//W3C//DTD SVG 1.1//EN" "http://www.w3.org/Graphics/SVG/1.1/DTD/svg11.dtd"> <svg width="24" height="24" viewBox="0 0 24 24" xmlns="http://www.w3.org/2000/svg" xmlns:xlink="http://www.w3.org/1999/xlink" fill="#666666"><g><path d="M 20.001,0L 4,0 C 1.8,0,0,1.8,0,4l0,15.999 C0,22.201, 1.8,24, 4,24l 16,0 C 22.201,24, 24,22.201, 24,19.999L 24,4 C 24,1.8, 22.201,0, 20.001,0z M 12,1.5c 1.61,0, 3.136,0.363, 4.5,1.011L 16.5,9.24 L 9.151,1.891C 10.057,1.637, 11.013,1.5, 12,1.5z M 1.5,12c0-4.122, 2.376-7.689, 5.833-9.407L 9.99,5.25L 1.624,13.617 C 1.542,13.090, 1.5,12.55, 1.5,12z M 6,20.617c-1.75-1.221-3.112-2.961-3.859-4.998L 6,11.76L 6,20.617 z M 12,22.5 c-1.61,0-3.136-0.363-4.5-1.011L 7.5,18 l 13.117,0 C 18.72,20.72, 15.568,22.5, 12,22.5z M 21.489,16.5L 18,16.5 L 18,3.383 c 2.72,1.897, 4.5,5.049, 4.5,8.617C 22.5,13.61, 22.137,15.136, 21.489,16.5z"></path></g></svg>