<?xml version="1.0" encoding="utf-8"?> <!-- Generator: IcoMoon.io --> <!DOCTYPE svg PUBLIC "-//W3C//DTD SVG 1.1//EN" "http://www.w3.org/Graphics/SVG/1.1/DTD/svg11.dtd"> <svg width="24" height="24" viewBox="0 0 24 24" xmlns="http://www.w3.org/2000/svg" xmlns:xlink="http://www.w3.org/1999/xlink" fill="#666666"><g><path d="M 20,0L 4,0 C 1.791,0,0,1.791,0,4l0,15.999 C0,22.209, 1.791,24, 4,24l 16.001,0 C 22.209,24, 24,22.209, 24,20L 24,4 C 24,1.791, 22.209,0, 20,0z M 13.164,16.034 c-1.090-0.085-1.548-0.625-2.402-1.144c-0.47,2.465-1.044,4.829-2.745,6.063 c-0.525-3.726, 0.771-6.524, 1.373-9.495c-1.026-1.727, 0.124-5.204, 2.288-4.347 c 2.663,1.053-2.306,6.422, 1.030,7.093c 3.483,0.7, 4.905-6.044, 2.746-8.236 c-3.121-3.167-9.084-0.072-8.351,4.461c 0.178,1.108, 1.324,1.445, 0.458,2.974c-1.997-0.443-2.593-2.018-2.517-4.118 c 0.123-3.438, 3.089-5.844, 6.063-6.177c 3.761-0.421, 7.292,1.381, 7.779,4.919 C 19.432,12.020, 17.185,16.345, 13.164,16.034z"></path></g></svg>