<?xml version="1.0" encoding="utf-8"?> <!-- Generator: IcoMoon.io --> <!DOCTYPE svg PUBLIC "-//W3C//DTD SVG 1.1//EN" "http://www.w3.org/Graphics/SVG/1.1/DTD/svg11.dtd"> <svg width="24" height="24" viewBox="0 0 24 24" xmlns="http://www.w3.org/2000/svg" xmlns:xlink="http://www.w3.org/1999/xlink" fill="#666666"><g><path d="M 22.997,3.753C 19.63,3.269, 15.911,3, 12,3c-3.911,0-7.63,0.269-10.997,0.753 C 0.358,6.277,0,9.067,0,12c0,2.933, 0.358,5.723, 1.003,8.247C 4.37,20.731, 8.089,21, 12,21 c 3.911,0, 7.63-0.269, 10.997-0.753C 23.642,17.723, 24,14.933, 24,12C 24,9.067, 23.642,6.277, 22.997,3.753z M 9,16.5L 9,7.5 l 7.5,4.5L 9,16.5z"></path></g></svg>