<?xml version="1.0" encoding="utf-8"?> <!-- Generator: IcoMoon.io --> <!DOCTYPE svg PUBLIC "-//W3C//DTD SVG 1.1//EN" "http://www.w3.org/Graphics/SVG/1.1/DTD/svg11.dtd"> <svg width="24" height="24" viewBox="0 0 24 24" xmlns="http://www.w3.org/2000/svg" xmlns:xlink="http://www.w3.org/1999/xlink" fill="#666666"><g><path d="M 23.25,9L 15,9 L 15,0.75 c0-0.414-0.336-0.75-0.75-0.75l-4.5,0 c-0.414,0-0.75,0.336-0.75,0.75l0,8.25 L 0.75,9 c-0.414,0-0.75,0.336-0.75,0.75l0,4.5 c0,0.414, 0.336,0.75, 0.75,0.75l 8.25,0 l0,8.25 c0,0.414, 0.336,0.75, 0.75,0.75l 4.5,0 c 0.414,0, 0.75-0.336, 0.75-0.75L 15,15 l 8.25,0 c 0.414,0, 0.75-0.336, 0.75-0.75l0-4.5 C 24,9.336, 23.664,9, 23.25,9z"></path></g></svg>