<?xml version="1.0" encoding="utf-8"?> <!-- Generator: IcoMoon.io --> <!DOCTYPE svg PUBLIC "-//W3C//DTD SVG 1.1//EN" "http://www.w3.org/Graphics/SVG/1.1/DTD/svg11.dtd"> <svg width="24" height="24" viewBox="0 0 24 24" xmlns="http://www.w3.org/2000/svg" xmlns:xlink="http://www.w3.org/1999/xlink" fill="#666666"><g><path d="M 24,12C 24,5.373, 18.627,0, 12,0S0,5.373,0,12c0,5.158, 3.254,9.555, 7.821,11.252L 7.5,24l 9,0 l-0.321-0.748 C 20.746,21.555, 24,17.158, 24,12z M 11.409,14.879C 10.875,14.649, 10.5,14.119, 10.5,13.5c0-0.828, 0.672-1.5, 1.5-1.5 c 0.828,0, 1.5,0.672, 1.5,1.5c0,0.619-0.374,1.149-0.909,1.379L 12,13.5L 11.409,14.879z M 12.616,14.937 C 13.977,14.653, 15,13.446, 15,12c0-1.657-1.343-3-3-3c-1.657,0-3,1.343-3,3c0,1.446, 1.023,2.651, 2.385,2.935 l-1.749,4.081C 7.498,18.098, 6,15.974, 6,13.5c0-3.314, 2.686-6.281, 6-6.281s 6,2.968, 6,6.281 c0,2.474-1.498,4.598-3.636,5.516L 12.616,14.937z M 16.136,23.149l-1.733-4.043C 17.366,18.105, 19.5,15.302, 19.5,12 c0-4.142-3.358-7.5-7.5-7.5c-4.142,0-7.5,3.358-7.5,7.5c0,3.302, 2.134,6.105, 5.097,7.107l-1.733,4.043 C 4.124,21.544, 1.504,17.828, 1.504,13.5C 1.504,7.703, 6.203,2.723, 12,2.723c 5.797,0, 10.496,4.981, 10.496,10.777 C 22.496,17.828, 19.876,21.544, 16.136,23.149z"></path></g></svg>