<?xml version="1.0" encoding="utf-8"?> <!-- Generator: IcoMoon.io --> <!DOCTYPE svg PUBLIC "-//W3C//DTD SVG 1.1//EN" "http://www.w3.org/Graphics/SVG/1.1/DTD/svg11.dtd"> <svg width="24" height="24" viewBox="0 0 24 24" xmlns="http://www.w3.org/2000/svg" xmlns:xlink="http://www.w3.org/1999/xlink" fill="#666666"><g><path d="M 21,9L 12.848,9 C 13.375,7.104, 13.641,6.642, 13.641,4.641c0-1.732-1.409-3.141-3.141-3.141c-1.732,0-3.141,1.409-3.141,3.141 c0,2.437-0.908,3.561-2.697,4.821c-0.053,0.037-0.107,0.074-0.162,0.11L 4.5,7.5 L0,7.5 l0,15 l 4.5,0 l0-1.336 c 1.492,0.101, 1.901,0.52, 2.401,1.033c 0.386,0.396, 0.865,0.889, 1.735,1.249C 9.549,23.824, 10.737,24, 12.375,24l 1.125,0 l 0.398,0 c 1.452,0, 2.633-1.202, 2.633-2.679c0-0.245-0.033-0.489-0.098-0.724c 0.462-0.492, 0.726-1.148, 0.726-1.847 c0-0.245-0.033-0.489-0.098-0.724c 0.462-0.492, 0.726-1.149, 0.726-1.847c0-0.423-0.097-0.823-0.269-1.179L 21,15 c 1.657,0, 3-1.343, 3-3C 24,10.343, 22.657,9, 21,9z M 2.25,21c-0.414,0-0.75-0.336-0.75-0.75s 0.336-0.75, 0.75-0.75s 0.75,0.336, 0.75,0.75 S 2.664,21, 2.25,21z M 20.859,13.5L 15.012,13.5 L 14.859,13.5 l0,1.5 l 0.153,0 c 0.625,0, 1.133,0.529, 1.133,1.179c0,0.407-0.198,0.78-0.531,0.998 l-0.581,0.381l 0.335,0.608c 0.098,0.177, 0.149,0.379, 0.149,0.584c0,0.407-0.198,0.78-0.531,0.998l-0.581,0.381l 0.335,0.608 c 0.098,0.177, 0.149,0.379, 0.149,0.584c0,0.65-0.508,1.179-1.133,1.179L 13.359,22.5 l-1.125,0 c-2.966,0-3.565-0.895-4.198-1.546 c-0.647-0.664-1.371-1.406-3.536-1.564L 4.5,11.553 c 0.369-0.194, 0.72-0.405, 1.047-0.635C 7.806,9.328, 9,7.648, 9,4.641 c0-0.75, 0.704-1.359, 1.453-1.359s 1.406,0.61, 1.406,1.359c0,2.008-0.291,2.471-0.866,4.359c-0.144,0.533-0.279,1.061-0.372,1.484L 20.859,10.5 c 0.827,0, 1.5,0.673, 1.5,1.5C 22.359,12.827, 21.686,13.5, 20.859,13.5z"></path></g></svg>