<?xml version="1.0" encoding="utf-8"?> <!-- Generator: IcoMoon.io --> <!DOCTYPE svg PUBLIC "-//W3C//DTD SVG 1.1//EN" "http://www.w3.org/Graphics/SVG/1.1/DTD/svg11.dtd"> <svg width="24" height="24" viewBox="0 0 24 24" xmlns="http://www.w3.org/2000/svg" xmlns:xlink="http://www.w3.org/1999/xlink" fill="#666666"><g><path d="M 7.5,21L 7.5,12.848 C 5.604,13.375, 5.142,13.641, 3.141,13.641c -1.732,0 -3.141-1.409 -3.141-3.141c0-1.732 1.409-3.141 3.141-3.141 c 2.437,0 3.561-0.908 4.821-2.697c 0.037-0.053 0.074-0.107 0.11-0.162L 6,4.5 L 6,0 l 15,0 l 0,4.5 l -1.336,0 c 0.101,1.492, 0.52,1.901, 1.033,2.401c 0.396,0.386, 0.889,0.865, 1.249,1.735C 22.324,9.549, 22.5,10.737, 22.5,12.375l 0,1.125 l 0,0.398 c 0,1.452, -1.202,2.633, -2.679,2.633c -0.245,0 -0.489-0.033 -0.724-0.098c -0.492,0.462, -1.148,0.726, -1.847,0.726 c -0.245,0 -0.489-0.033 -0.724-0.098c -0.492,0.462, -1.149,0.726, -1.847,0.726c -0.423,0 -0.823-0.097 -1.179-0.269L 13.5,21 c 0,1.657, -1.343,3, -3,3C 8.843,24, 7.5,22.657, 7.5,21z M 19.5,2.25c0-0.414 -0.336-0.75 -0.75-0.75s -0.75,0.336, -0.75,0.75s 0.336,0.75, 0.75,0.75 S 19.5,2.664, 19.5,2.25z M 12,20.859L 12,15.012 L 12,14.859 l 1.5,0 l 0,0.153 c 0,0.625, 0.529,1.133, 1.179,1.133c 0.407,0 0.78-0.198 0.998-0.531 l 0.381-0.581l 0.608,0.335c 0.177,0.098, 0.379,0.149, 0.584,0.149c 0.407,0 0.78-0.198 0.998-0.531l 0.381-0.581l 0.608,0.335 c 0.177,0.098, 0.379,0.149, 0.584,0.149c 0.65,0 1.179-0.508 1.179-1.133L 21,13.359 l0-1.125 c0-2.966 -0.895-3.565 -1.546-4.198 c -0.664-0.647 -1.406-1.371 -1.564-3.536L 10.053,4.5 c -0.194,0.369, -0.405,0.72, -0.635,1.047C 7.828,7.806, 6.148,9, 3.141,9 c -0.75,0, -1.359,0.704, -1.359,1.453s 0.61,1.406, 1.359,1.406c 2.008,0 2.471-0.291 4.359-0.866c 0.533-0.144 1.061-0.279 1.484-0.372L 9,20.859 c 0,0.827, 0.673,1.5, 1.5,1.5C 11.327,22.359, 12,21.686, 12,20.859z"></path></g></svg>