<?xml version="1.0" encoding="utf-8"?> <!-- Generator: IcoMoon.io --> <!DOCTYPE svg PUBLIC "-//W3C//DTD SVG 1.1//EN" "http://www.w3.org/Graphics/SVG/1.1/DTD/svg11.dtd"> <svg width="24" height="24" viewBox="0 0 24 24" xmlns="http://www.w3.org/2000/svg" xmlns:xlink="http://www.w3.org/1999/xlink" fill="#666666"><g><path d="M 6,1.5L 18,1.5L 18,4.5L 6,4.5zM 22.5,6L 1.5,6 C 0.675,6,0,6.675,0,7.5l0,7.5 c0,0.825, 0.675,1.5, 1.5,1.5l 4.5,0 l0,6 l 12,0 L 18,16.5 l 4.5,0 c 0.825,0, 1.5-0.675, 1.5-1.5L 24,7.5 C 24,6.675, 23.325,6, 22.5,6z M 16.5,21L 7.5,21 L 7.5,13.5 l 9,0 L 16.5,21 z M 22.837,8.25c0,0.601-0.487,1.087-1.087,1.087 c-0.601,0-1.088-0.487-1.088-1.087s 0.487-1.087, 1.088-1.087C 22.351,7.163, 22.837,7.649, 22.837,8.25z"></path></g></svg>