<?xml version="1.0" encoding="utf-8"?> <!-- Generator: IcoMoon.io --> <!DOCTYPE svg PUBLIC "-//W3C//DTD SVG 1.1//EN" "http://www.w3.org/Graphics/SVG/1.1/DTD/svg11.dtd"> <svg width="24" height="24" viewBox="0 0 24 24" xmlns="http://www.w3.org/2000/svg" xmlns:xlink="http://www.w3.org/1999/xlink" fill="#666666"><g><path d="M 7.5,1.5 L 1.5,1.5 L 1.5,7.5 L 7.5,7.5 L 7.5,1.5 Z M 9,0 L 9,0 L 9,9 L 0,9 L 0,0 L 9,0 ZM 3,3L 6,3L 6,6L 3,6zM 22.5,1.5 L 16.5,1.5 L 16.5,7.5 L 22.5,7.5 L 22.5,1.5 Z M 24,0 L 24,0 L 24,9 L 15,9 L 15,0 L 24,0 ZM 18,3L 21,3L 21,6L 18,6zM 7.5,16.5 L 1.5,16.5 L 1.5,22.5 L 7.5,22.5 L 7.5,16.5 Z M 9,15 L 9,15 L 9,24 L 0,24 L 0,15 L 9,15 ZM 3,18L 6,18L 6,21L 3,21zM 10.5,0L 12,0L 12,1.5L 10.5,1.5zM 12,1.5L 13.5,1.5L 13.5,3L 12,3zM 10.5,3L 12,3L 12,4.5L 10.5,4.5zM 12,4.5L 13.5,4.5L 13.5,6L 12,6zM 10.5,6L 12,6L 12,7.5L 10.5,7.5zM 12,7.5L 13.5,7.5L 13.5,9L 12,9zM 10.5,9L 12,9L 12,10.5L 10.5,10.5zM 10.5,12L 12,12L 12,13.5L 10.5,13.5zM 12,13.5L 13.5,13.5L 13.5,15L 12,15zM 10.5,15L 12,15L 12,16.5L 10.5,16.5zM 12,16.5L 13.5,16.5L 13.5,18L 12,18zM 10.5,18L 12,18L 12,19.5L 10.5,19.5zM 12,19.5L 13.5,19.5L 13.5,21L 12,21zM 10.5,21L 12,21L 12,22.5L 10.5,22.5zM 12,22.5L 13.5,22.5L 13.5,24L 12,24zM 22.5,12L 24,12L 24,13.5L 22.5,13.5zM 1.5,12L 3,12L 3,13.5L 1.5,13.5zM 3,10.5L 4.5,10.5L 4.5,12L 3,12zM0,10.5L 1.5,10.5L 1.5,12L0,12zM 6,10.5L 7.5,10.5L 7.5,12L 6,12zM 7.5,12L 9,12L 9,13.5L 7.5,13.5zM 9,10.5L 10.5,10.5L 10.5,12L 9,12zM 13.5,12L 15,12L 15,13.5L 13.5,13.5zM 15,10.5L 16.5,10.5L 16.5,12L 15,12zM 16.5,12L 18,12L 18,13.5L 16.5,13.5zM 18,10.5L 19.5,10.5L 19.5,12L 18,12zM 19.5,12L 21,12L 21,13.5L 19.5,13.5zM 21,10.5L 22.5,10.5L 22.5,12L 21,12zM 22.5,15L 24,15L 24,16.5L 22.5,16.5zM 13.5,15L 15,15L 15,16.5L 13.5,16.5zM 15,13.5L 16.5,13.5L 16.5,15L 15,15zM 16.5,15L 18,15L 18,16.5L 16.5,16.5zM 19.5,15L 21,15L 21,16.5L 19.5,16.5zM 21,13.5L 22.5,13.5L 22.5,15L 21,15zM 22.5,18L 24,18L 24,19.5L 22.5,19.5zM 13.5,18L 15,18L 15,19.5L 13.5,19.5zM 15,16.5L 16.5,16.5L 16.5,18L 15,18zM 18,16.5L 19.5,16.5L 19.5,18L 18,18zM 19.5,18L 21,18L 21,19.5L 19.5,19.5zM 21,16.5L 22.5,16.5L 22.5,18L 21,18zM 22.5,21L 24,21L 24,22.5L 22.5,22.5zM 15,19.5L 16.5,19.5L 16.5,21L 15,21zM 16.5,21L 18,21L 18,22.5L 16.5,22.5zM 18,19.5L 19.5,19.5L 19.5,21L 18,21zM 19.5,21L 21,21L 21,22.5L 19.5,22.5zM 15,22.5L 16.5,22.5L 16.5,24L 15,24zM 18,22.5L 19.5,22.5L 19.5,24L 18,24zM 21,22.5L 22.5,22.5L 22.5,24L 21,24z"></path></g></svg>