<?xml version="1.0" encoding="utf-8"?> <!-- Generator: IcoMoon.io --> <!DOCTYPE svg PUBLIC "-//W3C//DTD SVG 1.1//EN" "http://www.w3.org/Graphics/SVG/1.1/DTD/svg11.dtd"> <svg width="24" height="24" viewBox="0 0 24 24" xmlns="http://www.w3.org/2000/svg" xmlns:xlink="http://www.w3.org/1999/xlink" fill="#666666"><g><path d="M 10.5,16.5L 13.5,16.5L 13.5,19.5L 10.5,19.5zM 16.5,6 C 17.328,6 18,6.672 18,7.5 L 18,12 L 13.5,15 L 10.5,15 L 10.5,13.5 L 15,10.5 L 15,9 L 7.5,9 L 7.5,6 L 16.5,6 ZM 12,2.25 C 9.396,2.25 6.947,3.264 5.106,5.106 C 3.264,6.947 2.25,9.396 2.25,12 C 2.25,14.604 3.264,17.053 5.106,18.894 C 6.947,20.736 9.396,21.75 12,21.75 C 14.604,21.75 17.053,20.736 18.894,18.894 C 20.736,17.053 21.75,14.604 21.75,12 C 21.75,9.396 20.736,6.947 18.894,5.106 C 17.053,3.264 14.604,2.25 12,2.25 Z M 12,0 L 12,0 C 18.627,0 24,5.373 24,12 C 24,18.627 18.627,24 12,24 C 5.373,24 0,18.627 0,12 C 0,5.373 5.373,0 12,0 Z"></path></g></svg>