<?xml version="1.0" encoding="utf-8"?> <!-- Generator: IcoMoon.io --> <!DOCTYPE svg PUBLIC "-//W3C//DTD SVG 1.1//EN" "http://www.w3.org/Graphics/SVG/1.1/DTD/svg11.dtd"> <svg width="24" height="24" viewBox="0 0 24 24" xmlns="http://www.w3.org/2000/svg" xmlns:xlink="http://www.w3.org/1999/xlink" fill="#666666"><g><path d="M 9,13.75c0,0, 4.78-2.868, 7.471-1.735c 0.558-0.85, 1.107-1.766, 1.645-2.701 C 15.484,8.669, 12,9.25, 12,9.25s 4.458-2.675, 7.187-1.838c 0.547-0.987, 1.079-1.96, 1.593-2.867 C 18.606,4.399, 16.5,4.75, 16.5,4.75s 2.793-1.675, 5.31-1.959C 22.603,1.505, 23.338,0.497, 24,0C 10.852,0, 3,15,0,24 l 1.5,0 l 4.5-7.5c0,0, 1.5,1.5, 6,0c 1.066-0.355, 2.132-1.342, 3.177-2.67C 12.538,13.16, 9,13.75, 9,13.75z"></path></g></svg>