<?xml version="1.0" encoding="utf-8"?> <!-- Generator: IcoMoon.io --> <!DOCTYPE svg PUBLIC "-//W3C//DTD SVG 1.1//EN" "http://www.w3.org/Graphics/SVG/1.1/DTD/svg11.dtd"> <svg width="24.0234375" height="24" viewBox="0 0 24.0234375 24" xmlns="http://www.w3.org/2000/svg" xmlns:xlink="http://www.w3.org/1999/xlink" fill="#666666"><g><path d="M 5.273,10.5 C 8.173,10.5 10.523,12.851 10.523,15.75 C 10.523,18.649 8.173,21 5.273,21 C 2.374,21 0.023,18.649 0.023,15.75 L 0,15 C 0,9.201 4.701,4.5 10.5,4.5 L 10.5,7.5 C 8.497,7.5 6.613,8.28 5.197,9.697 C 4.924,9.969 4.675,10.26 4.451,10.564 C 4.719,10.522 4.994,10.5 5.273,10.5 ZM 18.773,10.5 C 21.673,10.5 24.023,12.851 24.023,15.75 C 24.023,18.649 21.673,21 18.773,21 C 15.874,21 13.523,18.649 13.523,15.75 L 13.5,15 C 13.5,9.201 18.201,4.5 24,4.5 L 24,7.5 C 21.997,7.5 20.113,8.28 18.697,9.697 C 18.424,9.969 18.175,10.26 17.951,10.564 C 18.219,10.522 18.493,10.5 18.773,10.5 Z"></path></g></svg>