<?xml version="1.0" encoding="utf-8"?> <!-- Generator: IcoMoon.io --> <!DOCTYPE svg PUBLIC "-//W3C//DTD SVG 1.1//EN" "http://www.w3.org/Graphics/SVG/1.1/DTD/svg11.dtd"> <svg width="24" height="24" viewBox="0 0 24 24" xmlns="http://www.w3.org/2000/svg" xmlns:xlink="http://www.w3.org/1999/xlink" fill="#666666"><g><path d="M 6,15A1.5,1.5 2520 1 0 9,15A1.5,1.5 2520 1 0 6,15zM 15,15A1.5,1.5 2520 1 0 18,15A1.5,1.5 2520 1 0 15,15zM 15.073,18.206 C 15.459,17.901 16.019,17.968 16.324,18.354 C 16.628,18.741 16.562,19.3 16.175,19.605 C 15.1,20.452 13.461,21 12,21 C 10.539,21 8.9,20.452 7.825,19.605 C 7.438,19.3 7.372,18.741 7.676,18.354 C 7.981,17.968 8.541,17.901 8.927,18.206 C 9.546,18.694 10.772,19.219 12,19.219 C 13.228,19.219 14.454,18.694 15.073,18.206 ZM 24,12c0-1.657-1.343-3-3-3c-1.128,0-2.109,0.623-2.622,1.543c-1.542-0.844-3.421-1.389-5.468-1.514 l 1.79-4.020l 3.426,0.989C 18.436,6.873, 19.269,7.5, 20.25,7.5c 1.243,0, 2.25-1.007, 2.25-2.25s-1.007-2.25-2.25-2.25 c-0.857,0-1.602,0.479-1.982,1.184L 14.45,3.082c-0.427-0.123-0.88,0.087-1.061,0.493l-2.432,5.462 c-1.995,0.141-3.826,0.68-5.335,1.506C 5.11,9.622, 4.128,9, 3,9c-1.657,0-3,1.343-3,3 c0,1.226, 0.736,2.279, 1.79,2.745C 1.601,15.308, 1.5,15.895, 1.5,16.5c0,4.142, 4.701,7.5, 10.5,7.5 c 5.799,0, 10.5-3.358, 10.5-7.5c0-0.605-0.101-1.192-0.29-1.755C 23.264,14.28, 24,13.226, 24,12z M 20.25,4.406 c 0.466,0, 0.844,0.378, 0.844,0.844s-0.378,0.844-0.844,0.844s-0.844-0.378-0.844-0.844S 19.784,4.406, 20.25,4.406z M 1.5,12c0-0.827, 0.673-1.5, 1.5-1.5 c 0.598,0, 1.115,0.352, 1.356,0.859c-0.784,0.595-1.434,1.28-1.914,2.033C 1.89,13.17, 1.5,12.63, 1.5,12z M 12,22.219 c-4.815,0-8.719-2.56-8.719-5.719s 3.904-5.719, 8.719-5.719c 4.815,0, 8.719,2.56, 8.719,5.719S 16.815,22.219, 12,22.219z M 21.558,13.392 c-0.48-0.753-1.13-1.438-1.914-2.033C 19.885,10.852, 20.402,10.5, 21,10.5c 0.827,0, 1.5,0.673, 1.5,1.5 C 22.5,12.63, 22.11,13.17, 21.558,13.392z"></path></g></svg>