<?xml version="1.0" encoding="utf-8"?> <!-- Generator: IcoMoon.io --> <!DOCTYPE svg PUBLIC "-//W3C//DTD SVG 1.1//EN" "http://www.w3.org/Graphics/SVG/1.1/DTD/svg11.dtd"> <svg width="24" height="24" viewBox="0 0 24 24" xmlns="http://www.w3.org/2000/svg" xmlns:xlink="http://www.w3.org/1999/xlink" fill="#666666"><g><path d="M 18.75,3L 5.25,3 c-1.243,0-2.25,1.007-2.25,2.25l0,0.75 l 18,0 l0-0.75 C 21,4.007, 19.993,3, 18.75,3zM 14.82,1.5l 0.331,2.367L 8.849,3.867 l 0.331-2.367L 14.82,1.5 M 15,0L 9,0 c-0.619,0-1.195,0.501-1.281,1.114l-0.439,3.139 C 7.195,4.866, 7.631,5.367, 8.25,5.367l 7.5,0 c 0.619,0, 1.055-0.501, 0.969-1.114l-0.439-3.139C 16.195,0.501, 15.619,0, 15,0L 15,0z M 19.125,7.5L 4.875,7.5 c-0.825,0-1.439,0.672-1.364,1.494l 1.228,13.512C 4.814,23.328, 5.55,24, 6.375,24l 11.25,0 c 0.825,0, 1.561-0.672, 1.636-1.494l 1.228-13.512C 20.564,8.172, 19.95,7.5, 19.125,7.5z M 9,21l-2.25,0 l-0.75-10.5l 3,0 L 9,21 z M 13.5,21l-3,0 L 10.5,10.5 l 3,0 L 13.5,21 z M 17.25,21l-2.25,0 L 15,10.5 l 3,0 L 17.25,21z"></path></g></svg>