<?xml version="1.0" encoding="utf-8"?> <!-- Generator: IcoMoon.io --> <!DOCTYPE svg PUBLIC "-//W3C//DTD SVG 1.1//EN" "http://www.w3.org/Graphics/SVG/1.1/DTD/svg11.dtd"> <svg width="24" height="24" viewBox="0 0 24 24" xmlns="http://www.w3.org/2000/svg" xmlns:xlink="http://www.w3.org/1999/xlink" fill="#666666"><g><path d="M 12,1.5c-0.564,0-1.118,0.042-1.66,0.122c-0.007-0.018-0.015-0.036-0.023-0.054c 0.301-0.234, 0.458-0.559, 0.39-0.88 C 10.619,0.277, 10.182,0, 9.619,0c-0.121,0-0.245,0.013-0.367,0.039c-0.707,0.15-1.175,0.671-1.066,1.185 c 0.066,0.313, 0.335,0.547, 0.707,0.642c-0.001,0.023-0,0.046, 0.001,0.069C 4.191,3.283, 0.75,7.615, 0.75,12.75 c0,6.213, 5.037,11.25, 11.25,11.25c 6.213,0, 11.25-5.037, 11.25-11.25C 23.25,6.537, 18.213,1.5, 12,1.5z M 8.552,1.146 c-0.063-0.298, 0.292-0.637, 0.777-0.74C 9.426,0.385, 9.523,0.375, 9.619,0.375c 0.376,0, 0.673,0.161, 0.722,0.391 c 0.037,0.176-0.072,0.366-0.267,0.513c-0.165-0.116-0.375-0.167-0.588-0.122c-0.212,0.045-0.383,0.176-0.487,0.348 C 8.76,1.449, 8.588,1.316, 8.552,1.146z M 18.032,18.782c-1.030,1.030-2.278,1.764-3.64,2.16l-0.994-1.612 l-0.252,1.874C 12.77,21.255, 12.387,21.281, 12,21.281c-2.279,0-4.421-0.887-6.032-2.499 c-1.030-1.030-1.764-2.278-2.16-3.64l 1.612-0.994l-1.874-0.252C 3.495,13.52, 3.469,13.137, 3.469,12.75 c0-2.279, 0.887-4.421, 2.499-6.032c 1.030-1.030, 2.278-1.764, 3.64-2.16l 0.994,1.612l 0.252-1.874 C 11.23,4.245, 11.613,4.219, 12,4.219c 2.279,0, 4.421,0.887, 6.032,2.499c 1.030,1.030, 1.764,2.278, 2.16,3.64 l-1.612,0.994l 1.874,0.252C 20.505,11.98, 20.531,12.363, 20.531,12.75C 20.531,15.029, 19.644,17.171, 18.032,18.782zM 17.834,6.916l-4.617,3.509c-0.343-0.179-0.724-0.283-1.111-0.298l-1.197-2.512l-0.072,2.781 c-0.311,0.153-0.588,0.367-0.817,0.632l-1.479-0.524l 1.080,1.138c-0.148,0.317-0.231,0.657-0.245,1.004l-2.512,1.197 l 2.783,0.072c 0.009,0.018, 0.018,0.036, 0.027,0.053l-3.509,4.617l 4.617-3.509c 0.343,0.179, 0.724,0.283, 1.111,0.298l 1.197,2.512 l 0.072-2.781c 0.311-0.153, 0.588-0.367, 0.817-0.632l 1.479,0.524l-1.080-1.138c 0.149-0.317, 0.231-0.657, 0.245-1.004 l 2.511-1.197l-2.783-0.072c-0.009-0.018-0.018-0.036-0.027-0.053L 17.834,6.916z M 12.002,10.419l0,0.081 L 12.002,10.419 L 12.002,10.419z M 11.532,10.549c 0.158-0.034, 0.315-0.050, 0.47-0.050c 0.097,0, 0.193,0.006, 0.288,0.019l 0.002,0.001 l-0-0.001c 0.205,0.027, 0.403,0.082, 0.589,0.162l-1.677,1.274l-1.275,1.677c-0.056-0.131-0.1-0.269-0.131-0.414 C 9.541,12.002, 10.317,10.808, 11.532,10.549z M 13.175,14.669L 13.175,14.669L 13.175,14.669 c-0.212,0.13-0.45,0.227-0.707,0.282c-0.158,0.034-0.315,0.050-0.47,0.050c-0.097,0-0.194-0.006-0.288-0.019l-0.002-0.001 l 0,0c-0.205-0.027-0.403-0.082-0.589-0.162l 1.677-1.274l 1.275-1.677c 0.056,0.131, 0.1,0.269, 0.131,0.414 C 14.404,13.24, 13.965,14.185, 13.175,14.669z"></path></g></svg>