<?xml version="1.0" encoding="utf-8"?> <!-- Generator: IcoMoon.io --> <!DOCTYPE svg PUBLIC "-//W3C//DTD SVG 1.1//EN" "http://www.w3.org/Graphics/SVG/1.1/DTD/svg11.dtd"> <svg width="24" height="24" viewBox="0 0 24 24" xmlns="http://www.w3.org/2000/svg" xmlns:xlink="http://www.w3.org/1999/xlink" fill="#666666"><g><path d="M 20.878,16.621c-1.070-1.068-2.431-1.619-3.702-1.619l-0.682,0 l-1.498-1.5l 5.991-6.001 c 1.498-1.5, 1.498-4.501,0-6.001L 12,10.501L 3.013,1.5c-1.498,1.5-1.498,4.501,0,6.001l 5.991,6.001 l-1.498,1.5l-0.682,0 c-1.271,0-2.632,0.551-3.702,1.619c-1.913,1.909-2.171,4.746-0.577,6.336 C 3.248,23.658, 4.193,24, 5.194,24c 1.271,0, 2.632-0.551, 3.702-1.619c 1.256-1.253, 1.799-2.906, 1.572-4.344l 1.532-1.535 l 1.532,1.535c-0.226,1.438, 0.317,3.091, 1.572,4.344C 16.175,23.449, 17.536,24, 18.807,24 c 1.001,0, 1.946-0.342, 2.648-1.043C 23.049,21.367, 22.79,18.53, 20.878,16.621z M 8.274,19.817 c-0.18,0.419-0.446,0.805-0.788,1.147c-0.343,0.342-0.731,0.607-1.152,0.788c-0.378,0.162-0.772,0.248-1.141,0.248 c-0.355,0-0.858-0.080-1.239-0.46c-0.378-0.377-0.458-0.875-0.458-1.225c0-0.364, 0.085-0.755, 0.247-1.13 c 0.18-0.419, 0.446-0.805, 0.788-1.147c 0.343-0.342, 0.731-0.607, 1.152-0.788c 0.378-0.162, 0.772-0.248, 1.141-0.248 c 0.355,0, 0.858,0.080, 1.239,0.46c 0.378,0.377, 0.458,0.875, 0.458,1.225C 8.521,19.052, 8.435,19.442, 8.274,19.817z M 12,15.623c-1.17,0-2.118-0.95-2.118-2.122c0-1.172, 0.948-2.122, 2.118-2.122s 2.118,0.95, 2.118,2.122 C 14.118,14.673, 13.17,15.623, 12,15.623z M 20.045,21.54c-0.381,0.38-0.884,0.46-1.239,0.46 c-0.368,0-0.762-0.086-1.141-0.248c-0.421-0.181-0.809-0.446-1.152-0.788c-0.343-0.342-0.608-0.728-0.788-1.147 c-0.161-0.375-0.247-0.766-0.247-1.13c0-0.351, 0.079-0.848, 0.458-1.225c 0.381-0.38, 0.884-0.46, 1.239-0.46 c 0.368,0, 0.762,0.086, 1.14,0.248c 0.421,0.181, 0.809,0.446, 1.152,0.788c 0.342,0.342, 0.608,0.728, 0.788,1.147 c 0.161,0.375, 0.247,0.766, 0.247,1.13C 20.503,20.665, 20.424,21.163, 20.045,21.54z"></path></g></svg>