<?xml version="1.0" encoding="utf-8"?> <!-- Generator: IcoMoon.io --> <!DOCTYPE svg PUBLIC "-//W3C//DTD SVG 1.1//EN" "http://www.w3.org/Graphics/SVG/1.1/DTD/svg11.dtd"> <svg width="24" height="24" viewBox="0 0 24 24" xmlns="http://www.w3.org/2000/svg" xmlns:xlink="http://www.w3.org/1999/xlink" fill="#666666"><g><path d="M 10.5,3l0-0.375 c0-0.619-0.506-1.125-1.125-1.125l-3.75,0 c-0.619,0-1.125,0.506-1.125,1.125l0,0.375 L0,3 l0,3 l 4.5,0 l0,0.375 c0,0.619, 0.506,1.125, 1.125,1.125l 3.75,0 c 0.619,0, 1.125-0.506, 1.125-1.125l0-0.375 l 13.5,0 L 24,3 L 10.5,3 z M 6,6L 6,3 l 3,0 l0,3 L 6,6 zM 19.5,10.125c0-0.619-0.506-1.125-1.125-1.125l-3.75,0 c-0.619,0-1.125,0.506-1.125,1.125l0,0.375 L0,10.5 l0,3 l 13.5,0 l0,0.375 c0,0.619, 0.506,1.125, 1.125,1.125l 3.75,0 c 0.619,0, 1.125-0.506, 1.125-1.125l0-0.375 l 4.5,0 l0-3 l-4.5,0 L 19.5,10.125 z M 15,13.5l0-3 l 3,0 l0,3 L 15,13.5 zM 10.5,17.625c0-0.619-0.506-1.125-1.125-1.125l-3.75,0 c-0.619,0-1.125,0.506-1.125,1.125l0,0.375 L0,18 l0,3 l 4.5,0 l0,0.375 c0,0.619, 0.506,1.125, 1.125,1.125l 3.75,0 c 0.619,0, 1.125-0.506, 1.125-1.125l0-0.375 l 13.5,0 l0-3 L 10.5,18 L 10.5,17.625 z M 6,21l0-3 l 3,0 l0,3 L 6,21 z"></path></g></svg>