<?xml version="1.0" encoding="utf-8"?> <!-- Generator: IcoMoon.io --> <!DOCTYPE svg PUBLIC "-//W3C//DTD SVG 1.1//EN" "http://www.w3.org/Graphics/SVG/1.1/DTD/svg11.dtd"> <svg width="24" height="24" viewBox="0 0 24 24" xmlns="http://www.w3.org/2000/svg" xmlns:xlink="http://www.w3.org/1999/xlink" fill="#666666"><g><path d="M 20.25,16.5c-1.058,0-2.014,0.439-2.696,1.144L 7.453,12.594C 7.484,12.4, 7.5,12.202, 7.5,12 s-0.016-0.4-0.047-0.594l 10.102-5.051C 18.236,7.061, 19.192,7.5, 20.25,7.5c 2.071,0, 3.75-1.679, 3.75-3.75S 22.321,0, 20.25,0 s-3.75,1.679-3.75,3.75c0,0.202, 0.017,0.4, 0.047,0.594L 6.446,9.394C 5.764,8.689, 4.808,8.25, 3.75,8.25c-2.071,0-3.75,1.679-3.75,3.75 c0,2.071, 1.679,3.75, 3.75,3.75c 1.058,0, 2.014-0.439, 2.696-1.144l 10.102,5.051C 16.517,19.85, 16.5,20.048, 16.5,20.25 c0,2.071, 1.679,3.75, 3.75,3.75s 3.75-1.679, 3.75-3.75C 24,18.179, 22.321,16.5, 20.25,16.5z"></path></g></svg>