<?xml version="1.0" encoding="utf-8"?> <!-- Generator: IcoMoon.io --> <!DOCTYPE svg PUBLIC "-//W3C//DTD SVG 1.1//EN" "http://www.w3.org/Graphics/SVG/1.1/DTD/svg11.dtd"> <svg width="24" height="24" viewBox="0 0 24 24" xmlns="http://www.w3.org/2000/svg" xmlns:xlink="http://www.w3.org/1999/xlink" fill="#666666"><g><path d="M 12,0C 5.373,0,0,5.373,0,12s 5.373,12, 12,12s 12-5.373, 12-12S 18.627,0, 12,0z M 7.5,10.5 c-0.828,0-1.5-1.007-1.5-2.25s 0.672-2.25, 1.5-2.25s 1.5,1.007, 1.5,2.25S 8.328,10.5, 7.5,10.5z M 12,19.5c-1.657,0-3-1.343-3-3 s 1.343-3, 3-3c 1.657,0, 3,1.343, 3,3S 13.657,19.5, 12,19.5z M 16.5,10.5c-0.828,0-1.5-1.007-1.5-2.25s 0.672-2.25, 1.5-2.25 s 1.5,1.007, 1.5,2.25S 17.328,10.5, 16.5,10.5z"></path></g></svg>