<?xml version="1.0" encoding="utf-8"?> <!-- Generator: IcoMoon.io --> <!DOCTYPE svg PUBLIC "-//W3C//DTD SVG 1.1//EN" "http://www.w3.org/Graphics/SVG/1.1/DTD/svg11.dtd"> <svg width="24" height="24" viewBox="0 0 24 24" xmlns="http://www.w3.org/2000/svg" xmlns:xlink="http://www.w3.org/1999/xlink" fill="#666666"><g><path d="M 24,6L 18,0l0,4.5 c-3.065,0-5.408,0.731-7.164,2.236c-0.123,0.105-0.241,0.213-0.355,0.323 c 0.645,0.894, 1.142,1.817, 1.588,2.697C 13.202,8.388, 14.836,7.5, 18,7.5l0,4.5 l0,0 l0,4.5 c-5.073,0-6.214-2.282-7.658-5.171 c-0.804-1.608-1.635-3.271-3.178-4.593C 5.408,5.231, 3.065,4.5,0,4.5l0,3 c 5.073,0, 6.214,2.282, 7.658,5.171 c 0.804,1.608, 1.635,3.271, 3.178,4.593C 12.592,18.769, 14.935,19.5, 18,19.5l0,4.5 l 6-6L 18,12L 24,6zM0,16.5l0,3 c 3.065,0, 5.408-0.731, 7.164-2.236c 0.123-0.105, 0.241-0.213, 0.355-0.323 c-0.645-0.894-1.142-1.817-1.588-2.697C 4.798,15.612, 3.164,16.5,0,16.5z"></path></g></svg>