<?xml version="1.0" encoding="utf-8"?> <!-- Generator: IcoMoon.io --> <!DOCTYPE svg PUBLIC "-//W3C//DTD SVG 1.1//EN" "http://www.w3.org/Graphics/SVG/1.1/DTD/svg11.dtd"> <svg width="24" height="24" viewBox="0 0 24 24" xmlns="http://www.w3.org/2000/svg" xmlns:xlink="http://www.w3.org/1999/xlink" fill="#666666"><g><path d="M 10.5,18.621L 5.689,13.061L 7.061,11.689L 10.5,14.379L 16.939,8.689L 18.311,10.061 zM 19.495,3c 0.002,0.002, 0.004,0.004, 0.005,0.005l0,17.989 c-0.002,0.002-0.004,0.004-0.005,0.005L 4.505,21 c-0.002-0.002-0.004-0.004-0.005-0.005L 4.5,3.005 c 0.002-0.002, 0.004-0.004, 0.005-0.005L 1.5,3 l0,18 c0,1.65, 1.35,3, 3,3l 15,0 c 1.65,0, 3-1.35, 3-3L 22.5,3 L 19.495,3 z M 15,3L 15,1.5 c0-0.828-0.672-1.5-1.5-1.5l-3,0 c-0.828,0-1.5,0.672-1.5,1.5l0,1.5 l-3,0 l0,3 l 12,0 L 18,3 L 15,3 z M 13.5,3l-3,0 L 10.5,1.5 l 3,0 L 13.5,3 z"></path></g></svg>