<?xml version="1.0" encoding="utf-8"?> <!-- Generator: IcoMoon.io --> <!DOCTYPE svg PUBLIC "-//W3C//DTD SVG 1.1//EN" "http://www.w3.org/Graphics/SVG/1.1/DTD/svg11.dtd"> <svg width="24" height="24" viewBox="0 0 24 24" xmlns="http://www.w3.org/2000/svg" xmlns:xlink="http://www.w3.org/1999/xlink" fill="#666666"><g><path d="M 22.859,13.545c 0.066-0.488, 0.104-0.983, 0.104-1.488c0-6.054-4.935-10.963-11.020-10.963 c-0.605,0-1.198,0.050-1.775,0.144c-1.035-0.674-2.266-1.067-3.591-1.067C 2.942,0.172,0,3.116,0,6.749 c0,1.322, 0.389,2.55, 1.059,3.581c-0.090,0.563-0.136,1.14-0.136,1.728c0,6.055, 4.932,10.963, 11.020,10.963 c 0.687,0, 1.356-0.067, 2.006-0.184c 1.010,0.627, 2.2,0.991, 3.476,0.991C 21.057,23.828, 24,20.883, 24,17.251 C 24,15.877, 23.58,14.601, 22.859,13.545z M 12.972,20.137c-3.502,0.182-5.141-0.592-6.642-2.001 c-1.676-1.573-1.003-3.368, 0.363-3.459c 1.365-0.091, 2.185,1.547, 2.913,2.003c 0.728,0.454, 3.497,1.489, 4.959-0.183 c 1.593-1.82-1.059-2.762-3.003-3.047c-2.775-0.411-6.279-1.912-6.006-4.871c 0.273-2.957, 2.512-4.473, 4.868-4.686 c 3.004-0.273, 4.959,0.455, 6.506,1.775c 1.788,1.525, 0.821,3.229-0.319,3.367c-1.135,0.136-2.41-2.508-4.912-2.548 c-2.579-0.041-4.323,2.684-1.138,3.459c 3.186,0.774, 6.598,1.092, 7.826,4.004 C 19.617,16.862, 16.477,19.955, 12.972,20.137z"></path></g></svg>