<?xml version="1.0" encoding="utf-8"?> <!-- Generator: IcoMoon.io --> <!DOCTYPE svg PUBLIC "-//W3C//DTD SVG 1.1//EN" "http://www.w3.org/Graphics/SVG/1.1/DTD/svg11.dtd"> <svg width="24" height="24" viewBox="0 0 24 24" xmlns="http://www.w3.org/2000/svg" xmlns:xlink="http://www.w3.org/1999/xlink" fill="#666666"><g><path d="M 20.905,12.052c-0.424,0-0.828,0.083-1.197,0.231C 19.462,9.602, 17.124,7.5, 14.271,7.5 c-0.698,0-1.375,0.132-1.976,0.355c-0.233,0.087-0.295,0.176-0.295,0.35l0,9.439 c0,0.182, 0.146,0.334, 0.331,0.351 C 12.339,17.996, 20.851,18, 20.907,18C 22.615,18, 24,16.668, 24,15.026S 22.614,12.052, 20.905,12.052zM 9.375,18L 10.125,18L 10.5,12.745L 10.125,7.5L 9.375,7.5L 9,12.745 zM 7.125,18L 6.375,18L 6,14.186L 6.375,10.5L 7.125,10.5L 7.5,14.25 zM 3.375,18L 4.125,18L 4.5,15L 4.125,12L 3.375,12L 3,15 zM 0.375,16.5L 1.125,16.5L 1.5,15L 1.125,13.5L 0.375,13.5L0,15 z"></path></g></svg>