<?xml version="1.0" encoding="utf-8"?> <!-- Generator: IcoMoon.io --> <!DOCTYPE svg PUBLIC "-//W3C//DTD SVG 1.1//EN" "http://www.w3.org/Graphics/SVG/1.1/DTD/svg11.dtd"> <svg width="24" height="24" viewBox="0 0 24 24" xmlns="http://www.w3.org/2000/svg" xmlns:xlink="http://www.w3.org/1999/xlink" fill="#666666"><g><path d="M 20.001,0L 4,0 C 1.8,0, 0,1.8, 0,4l0,11 L 0.375,13.5l 0.75,0 l 0.375,1.5l-0.375,1.5L 0.375,16.5 l-0.375-1.5l0,4.999 C 0,22.201, 1.8,24, 4,24l 16,0 C 22.201,24, 24,22.201, 24,19.999L 24,15.026 C 24,16.668, 22.615,18, 20.907,18 c-0.055,0-8.568-0.004-8.576-0.005c-0.185-0.018-0.331-0.169-0.331-0.351L 12,8.205 c0-0.173, 0.061-0.263, 0.295-0.35 c 0.601-0.223, 1.278-0.355, 1.976-0.355c 2.853,0, 5.191,2.102, 5.437,4.783c 0.368-0.149, 0.773-0.231, 1.197-0.231 c 1.709,0, 3.095,1.332, 3.095,2.974L 24,4 C 24,1.8, 22.201,0, 20.001,0z M 4.125,18L 3.375,18 l-0.375-3l 0.375-3l 0.75,0 l 0.375,3L 4.125,18z M 7.125,18l-0.75,0 l-0.375-3.814L 6.375,10.5l 0.75,0 l 0.375,3.75L 7.125,18z M 10.125,18l-0.75,0 l-0.375-5.255L 9.375,7.5l 0.75,0 l 0.375,5.245L 10.125,18z"></path></g></svg>