<?xml version="1.0" encoding="utf-8"?> <!-- Generator: IcoMoon.io --> <!DOCTYPE svg PUBLIC "-//W3C//DTD SVG 1.1//EN" "http://www.w3.org/Graphics/SVG/1.1/DTD/svg11.dtd"> <svg width="24" height="24" viewBox="0 0 24 24" xmlns="http://www.w3.org/2000/svg" xmlns:xlink="http://www.w3.org/1999/xlink" fill="#666666"><g><path d="M 3,6l 3,0 l0,4.5 l 1.5,0 L 7.5,1.5 c0-0.825-0.675-1.5-1.5-1.5L 3,0 C 2.175,0, 1.5,0.675, 1.5,1.5l0,9 l 1.5,0 L 3,6 z M 3,1.5l 3,0 l0,3 L 3,4.5 L 3,1.5 z M 22.5,1.5L 22.5,0 l-4.5,0 c-0.825,0-1.5,0.675-1.5,1.5l0,7.5 c0,0.825, 0.675,1.5, 1.5,1.5l 4.5,0 l0-1.5 l-4.5,0 L 18,1.5 L 22.5,1.5 z M 15,3.75L 15,1.5 c0-0.825-0.675-1.5-1.5-1.5l-4.5,0 l0,10.5 l 4.5,0 c 0.825,0, 1.5-0.675, 1.5-1.5l0-2.25 c0-0.825-0.206-1.5-1.031-1.5C 14.794,5.25, 15,4.575, 15,3.75z M 13.5,9l-3,0 l0-3 l 3,0 L 13.5,9 z M 13.5,4.5l-3,0 L 10.5,1.5 l 3,0 L 13.5,4.5 zM 19.5,13.5 L 9.75,24 L 4.5,17.25 L 6.422,15.609 L 9.75,19.078 L 18,12 Z"></path></g></svg>