<?xml version="1.0" encoding="utf-8"?> <!-- Generator: IcoMoon.io --> <!DOCTYPE svg PUBLIC "-//W3C//DTD SVG 1.1//EN" "http://www.w3.org/Graphics/SVG/1.1/DTD/svg11.dtd"> <svg width="24" height="24" viewBox="0 0 24 24" xmlns="http://www.w3.org/2000/svg" xmlns:xlink="http://www.w3.org/1999/xlink" fill="#666666"><g><path d="M 24,12c-0.030-1.567-0.37-3.129-0.998-4.558c-0.626-1.43-1.534-2.725-2.649-3.795 c-1.115-1.071-2.436-1.918-3.867-2.476C 15.056,0.61, 13.519,0.343, 12,0.375c-1.519,0.030-3.031,0.36-4.414,0.969 c-1.384,0.607-2.638,1.488-3.673,2.568c-1.036,1.080-1.855,2.36-2.395,3.745C 0.976,9.042, 0.718,10.529, 0.75,12 c 0.030,1.471, 0.351,2.933, 0.941,4.27c 0.588,1.338, 1.441,2.551, 2.487,3.552c 1.046,1.002, 2.284,1.793, 3.624,2.314 C 9.14,22.659, 10.577,22.907, 12,22.875c 1.423-0.030, 2.835-0.341, 4.127-0.912c 1.293-0.569, 2.464-1.394, 3.43-2.406 c 0.968-1.011, 1.731-2.209, 2.233-3.502c 0.305-0.784, 0.513-1.603, 0.622-2.433c 0.029,0.002, 0.059,0.003, 0.088,0.003 c 0.828,0, 1.5-0.672, 1.5-1.5c0-0.042-0.002-0.084-0.006-0.125L 24,12 z M 21.617,15.983c-0.55,1.247-1.347,2.377-2.324,3.309 c-0.977,0.933-2.133,1.668-3.381,2.151C 14.664,21.928, 13.326,22.157, 12,22.125c-1.327-0.030-2.639-0.322-3.84-0.855 c-1.201-0.531-2.289-1.301-3.187-2.243c-0.899-0.942-1.606-2.057-2.070-3.259C 2.437,14.566, 2.218,13.278, 2.25,12 c 0.031-1.279, 0.312-2.541, 0.826-3.696c 0.512-1.155, 1.254-2.202, 2.162-3.066c 0.908-0.864, 1.981-1.544, 3.138-1.989 C 9.532,2.803, 10.77,2.593, 12,2.625c 1.23,0.031, 2.443,0.303, 3.552,0.798c 1.11,0.493, 2.115,1.207, 2.944,2.081 c 0.83,0.873, 1.481,1.905, 1.908,3.016C 20.832,9.63, 21.032,10.818, 21,12l 0.006,0 c-0.003,0.041-0.006,0.083-0.006,0.125 c0,0.774, 0.586,1.41, 1.338,1.491C 22.192,14.432, 21.951,15.229, 21.617,15.983z"></path></g></svg>