<?xml version="1.0" encoding="utf-8"?> <!-- Generator: IcoMoon.io --> <!DOCTYPE svg PUBLIC "-//W3C//DTD SVG 1.1//EN" "http://www.w3.org/Graphics/SVG/1.1/DTD/svg11.dtd"> <svg width="24" height="24" viewBox="0 0 24 24" xmlns="http://www.w3.org/2000/svg" xmlns:xlink="http://www.w3.org/1999/xlink" fill="#666666"><g><path d="M 12,0C 5.373,0,0,5.373,0,12s 5.373,12, 12,12s 12-5.373, 12-12S 18.627,0, 12,0z M 12,6 c 3.314,0, 6,2.686, 6,6s-2.686,6-6,6s-6-2.686-6-6S 8.686,6, 12,6z M 19.159,19.159 C 17.247,21.072, 14.704,22.125, 12,22.125c-2.704,0-5.247-1.053-7.159-2.966C 2.928,17.247, 1.875,14.705, 1.875,12 c0-2.704, 1.053-5.247, 2.966-7.159l 1.591,1.591c0,0,0,0,0,0c-3.070,3.070-3.070,8.066,0,11.137 C 7.919,19.056, 9.896,19.875, 12,19.875c 2.103,0, 4.081-0.819, 5.568-2.307c 3.070-3.070, 3.070-8.066,0-11.137l 1.591-1.591 C 21.072,6.753, 22.125,9.296, 22.125,12C 22.125,14.705, 21.072,17.247, 19.159,19.159z"></path></g></svg>