<?xml version="1.0" encoding="utf-8"?> <!-- Generator: IcoMoon.io --> <!DOCTYPE svg PUBLIC "-//W3C//DTD SVG 1.1//EN" "http://www.w3.org/Graphics/SVG/1.1/DTD/svg11.dtd"> <svg width="24" height="24" viewBox="0 0 24 24" xmlns="http://www.w3.org/2000/svg" xmlns:xlink="http://www.w3.org/1999/xlink" fill="#666666"><g><path d="M 4.5,12c0-0.285, 0.017-0.567, 0.048-0.844l-4.335-1.409C 0.073,10.477,0,11.23,0,12 c0,3.451, 1.457,6.561, 3.789,8.75l 2.679-3.687C 5.246,15.729, 4.5,13.952, 4.5,12zM 19.5,12c0,1.952-0.746,3.729-1.967,5.063l 2.679,3.687C 22.543,18.561, 24,15.451, 24,12 c0-0.77-0.073-1.523-0.212-2.253l-4.335,1.409C 19.483,11.433, 19.5,11.715, 19.5,12zM 13.5,4.65c 2.155,0.437, 3.974,1.799, 5.026,3.652l 4.335-1.409C 21.146,3.251, 17.653,0.611, 13.5,0.093L 13.5,4.65 zM 5.474,8.302c 1.052-1.854, 2.871-3.215, 5.026-3.652L 10.5,0.093 C 6.347,0.611, 2.854,3.251, 1.138,6.894 L 5.474,8.302zM 15.107,18.828C 14.16,19.259, 13.108,19.5, 12,19.5s-2.16-0.241-3.107-0.672l-2.679,3.687 C 7.93,23.461, 9.902,24, 12,24s 4.070-0.539, 5.786-1.485L 15.107,18.828z"></path></g></svg>