<?xml version="1.0" encoding="utf-8"?> <!-- Generator: IcoMoon.io --> <!DOCTYPE svg PUBLIC "-//W3C//DTD SVG 1.1//EN" "http://www.w3.org/Graphics/SVG/1.1/DTD/svg11.dtd"> <svg width="24" height="24" viewBox="0 0 24 24" xmlns="http://www.w3.org/2000/svg" xmlns:xlink="http://www.w3.org/1999/xlink" fill="#666666"><g><path d="M 9,3A3,3 12600 1 0 15,3A3,3 12600 1 0 9,3zM 15.364,5.636A3,3 12600 1 0 21.364,5.636A3,3 12600 1 0 15.364,5.636zM 19.5,12A1.5,1.5 12600 1 0 22.5,12A1.5,1.5 12600 1 0 19.5,12zM 16.864,18.364A1.5,1.5 12600 1 0 19.864,18.364A1.5,1.5 12600 1 0 16.864,18.364zM 10.5,21A1.5,1.5 12600 1 0 13.5,21A1.5,1.5 12600 1 0 10.5,21zM 4.136,18.364A1.5,1.5 12600 1 0 7.136,18.364A1.5,1.5 12600 1 0 4.136,18.364zM 3.386,5.636A2.25,2.25 12600 1 0 7.886,5.636A2.25,2.25 12600 1 0 3.386,5.636zM 1.313,12A1.688,1.688 12600 1 0 4.688,12A1.688,1.688 12600 1 0 1.313,12z"></path></g></svg>