<?xml version="1.0" encoding="utf-8"?> <!-- Generator: IcoMoon.io --> <!DOCTYPE svg PUBLIC "-//W3C//DTD SVG 1.1//EN" "http://www.w3.org/Graphics/SVG/1.1/DTD/svg11.dtd"> <svg width="24" height="24" viewBox="0 0 24 24" xmlns="http://www.w3.org/2000/svg" xmlns:xlink="http://www.w3.org/1999/xlink" fill="#666666"><g><path d="M 12,0 C 5.467,0 0.153,5.221 0.004,11.718 C 0.142,6.049 4.453,1.5 9.75,1.5 C 15.135,1.5 19.5,6.201 19.5,12 C 19.5,13.243 20.507,14.25 21.75,14.25 C 22.993,14.25 24,13.243 24,12 C 24,5.373 18.627,0 12,0 ZM 12,24 C 18.533,24 23.847,18.779 23.996,12.282 C 23.858,17.951 19.547,22.5 14.25,22.5 C 8.865,22.5 4.5,17.799 4.5,12 C 4.5,10.757 3.493,9.75 2.25,9.75 C 1.007,9.75 0,10.757 0,12 C 0,18.627 5.373,24 12,24 Z"></path></g></svg>