<?xml version="1.0" encoding="utf-8"?> <!-- Generator: IcoMoon.io --> <!DOCTYPE svg PUBLIC "-//W3C//DTD SVG 1.1//EN" "http://www.w3.org/Graphics/SVG/1.1/DTD/svg11.dtd"> <svg width="24" height="24" viewBox="0 0 24 24" xmlns="http://www.w3.org/2000/svg" xmlns:xlink="http://www.w3.org/1999/xlink" fill="#666666"><g><path d="M 24,9 L 15,9 L 18.364,5.636 C 16.664,3.936 14.404,3 12,3 C 9.596,3 7.336,3.936 5.636,5.636 C 3.936,7.336 3,9.596 3,12 C 3,14.404 3.936,16.664 5.636,18.364 C 7.336,20.064 9.596,21 12,21 C 14.404,21 16.664,20.064 18.364,18.364 C 18.506,18.222 18.642,18.076 18.773,17.926 L 21.031,19.902 C 18.831,22.413 15.601,24 12,24 C 5.373,24 0,18.627 0,12 C 0,5.373 5.373,0 12,0 C 15.314,0 18.313,1.344 20.485,3.515 L 24,0 L 24,9 Z"></path></g></svg>