<?xml version="1.0" encoding="utf-8"?> <!-- Generator: IcoMoon.io --> <!DOCTYPE svg PUBLIC "-//W3C//DTD SVG 1.1//EN" "http://www.w3.org/Graphics/SVG/1.1/DTD/svg11.dtd"> <svg width="24" height="24" viewBox="0 0 24 24" xmlns="http://www.w3.org/2000/svg" xmlns:xlink="http://www.w3.org/1999/xlink" fill="#666666"><g><path d="M 3,21 L 24,21 L 24,24 L 0,24 L 0,0 L 3,0 ZM 6.75,19.5 C 5.507,19.5 4.5,18.493 4.5,17.25 C 4.5,16.007 5.507,15 6.75,15 C 6.816,15 6.882,15.003 6.947,15.009 L 9.365,10.978 C 9.135,10.625 9,10.203 9,9.75 C 9,8.507 10.007,7.5 11.25,7.5 C 12.493,7.5 13.5,8.507 13.5,9.75 C 13.5,10.203 13.365,10.625 13.135,10.978 L 15.553,15.009 C 15.618,15.003 15.684,15 15.75,15 C 15.8,15 15.85,15.002 15.899,15.005 L 19.892,8.018 C 19.645,7.657 19.5,7.22 19.5,6.75 C 19.5,5.507 20.507,4.5 21.75,4.5 C 22.993,4.5 24,5.507 24,6.75 C 24,7.993 22.993,9 21.75,9 C 21.7,9 21.65,8.998 21.601,8.995 L 17.608,15.982 C 17.855,16.343 18,16.78 18,17.25 C 18,18.493 16.993,19.5 15.75,19.5 C 14.507,19.5 13.5,18.493 13.5,17.25 C 13.5,16.797 13.635,16.375 13.865,16.022 L 11.447,11.991 C 11.382,11.997 11.316,12 11.25,12 C 11.184,12 11.118,11.997 11.053,11.991 L 8.635,16.022 C 8.865,16.375 9,16.797 9,17.25 C 9,18.493 7.993,19.5 6.75,19.5 Z"></path></g></svg>