<?xml version="1.0" encoding="utf-8"?> <!-- Generator: IcoMoon.io --> <!DOCTYPE svg PUBLIC "-//W3C//DTD SVG 1.1//EN" "http://www.w3.org/Graphics/SVG/1.1/DTD/svg11.dtd"> <svg width="24.764577865600586" height="24" viewBox="0 0 24.764577865600586 24" xmlns="http://www.w3.org/2000/svg" xmlns:xlink="http://www.w3.org/1999/xlink" fill="#666666"><g><path d="M 16.5,6.75A2.25,2.25 1080 1 0 21,6.75A2.25,2.25 1080 1 0 16.5,6.75zM 22.462,3.038c-2.050-2.050-5.374-2.050-7.425,0c-0.834,0.834-1.329,1.878-1.484,2.962l0,0 L 8.756,13.271 c-0.645,0.033-1.284,0.197-1.874,0.493L 3.181,10.871c-0.857-0.67-2.094-0.518-2.764,0.339 c-0.67,0.857-0.518,2.094, 0.339,2.764l 3.655,2.857c-0.398,1.565, 0.016,3.294, 1.241,4.519 c 1.849,1.849, 4.848,1.849, 6.697,0c 1.136-1.136, 1.574-2.705, 1.314-4.176L 19.5,11.946l-0-0 c 1.084-0.156, 2.128-0.65, 2.962-1.484C 24.513,8.412, 24.513,5.088, 22.462,3.038z M 9,21.157 c-1.744,0-3.157-1.413-3.157-3.157c0-0.017, 0.001-0.033, 0.001-0.050l 1.568,1.226c 0.36,0.281, 0.787,0.418, 1.211,0.418 c 0.585,0, 1.164-0.26, 1.552-0.756c 0.67-0.857, 0.518-2.094-0.339-2.764l-1.488-1.163c 0.21-0.044, 0.428-0.068, 0.651-0.068 c 1.744,0, 3.157,1.413, 3.157,3.157S 10.744,21.157, 9,21.157z M 18.75,10.5c-2.071,0-3.75-1.679-3.75-3.75s 1.679-3.75, 3.75-3.75 s 3.75,1.679, 3.75,3.75S 20.821,10.5, 18.75,10.5z"></path></g></svg>