<?xml version="1.0" encoding="utf-8"?> <!-- Generator: IcoMoon.io --> <!DOCTYPE svg PUBLIC "-//W3C//DTD SVG 1.1//EN" "http://www.w3.org/Graphics/SVG/1.1/DTD/svg11.dtd"> <svg width="24" height="24" viewBox="0 0 24 24" xmlns="http://www.w3.org/2000/svg" xmlns:xlink="http://www.w3.org/1999/xlink" fill="#666666"><g><path d="M 7.123,19.594 C 7.759,19.594 8.384,19.286 8.763,18.717 C 9.366,17.812 9.122,16.59 8.217,15.987 L 6.668,14.954 C 6.934,14.882 7.212,14.843 7.5,14.843 C 9.244,14.843 10.657,16.256 10.657,18 C 10.657,19.744 9.244,21.157 7.5,21.157 C 5.803,21.157 4.419,19.818 4.346,18.139 L 6.033,19.263 C 6.369,19.487 6.748,19.594 7.123,19.594 ZM 20,0 C 22.2,0 24,1.8 24,4 L 24,20 C 24,22.201 22.2,24 20,24 L 4,24 C 1.8,24 0,22.201 0,20 L 0,15.241 L 2.844,17.137 C 2.571,18.618 3.006,20.203 4.152,21.348 C 6.001,23.198 8.999,23.198 10.848,21.348 C 11.984,20.213 12.422,18.643 12.163,17.173 L 18,11.946 L 18,11.946 C 19.084,11.791 20.129,11.296 20.962,10.462 C 23.013,8.412 23.013,5.088 20.962,3.038 C 18.912,0.987 15.588,0.987 13.538,3.038 C 12.704,3.872 12.209,4.916 12.054,6 L 12.054,6 L 7.256,13.271 C 6.51,13.309 5.771,13.523 5.106,13.913 L 0,10.509 L 0,4 C 0,1.8 1.8,0 4,0 L 20,0 ZM 21,6.75c0-2.071-1.679-3.75-3.75-3.75s-3.75,1.679-3.75,3.75s 1.679,3.75, 3.75,3.75S 21,8.821, 21,6.75z M 15,6.75 c0-1.243, 1.007-2.25, 2.25-2.25s 2.25,1.007, 2.25,2.25s-1.007,2.25-2.25,2.25S 15,7.993, 15,6.75z"></path></g></svg>