<?xml version="1.0" encoding="utf-8"?> <!-- Generator: IcoMoon.io --> <!DOCTYPE svg PUBLIC "-//W3C//DTD SVG 1.1//EN" "http://www.w3.org/Graphics/SVG/1.1/DTD/svg11.dtd"> <svg width="24" height="24" viewBox="0 0 24 24" xmlns="http://www.w3.org/2000/svg" xmlns:xlink="http://www.w3.org/1999/xlink" fill="#666666"><g><path d="M 12,4.528L 12,3 l 3,0 L 15,1.5 c0-0.828-0.672-1.5-1.5-1.5l-4.5,0 c-0.828,0-1.5,0.672-1.5,1.5l0,1.5 l 3,0 l0,1.528 c-5.034,0.383-9,4.589-9,9.722c0,5.385, 4.365,9.75, 9.75,9.75c 5.385,0, 9.75-4.365, 9.75-9.75 C 21,9.118, 17.034,4.911, 12,4.528z M 16.553,19.553C 15.137,20.97, 13.253,21.75, 11.25,21.75 s-3.887-0.78-5.303-2.197C 4.53,18.137, 3.75,16.253, 3.75,14.25s 0.78-3.887, 2.197-5.303 c 1.36-1.36, 3.151-2.133, 5.065-2.193l-0.508,7.36C 10.46,14.73, 10.796,15, 11.25,15 c 0.454,0, 0.79-0.27, 0.746-0.886L 11.488,6.754c 1.914,0.059, 3.705,0.832, 5.065,2.193 c 1.417,1.417, 2.197,3.3, 2.197,5.303S 17.97,18.137, 16.553,19.553z"></path></g></svg>