<?xml version="1.0" encoding="utf-8"?> <!-- Generator: IcoMoon.io --> <!DOCTYPE svg PUBLIC "-//W3C//DTD SVG 1.1//EN" "http://www.w3.org/Graphics/SVG/1.1/DTD/svg11.dtd"> <svg width="24" height="24" viewBox="0 0 24 24" xmlns="http://www.w3.org/2000/svg" xmlns:xlink="http://www.w3.org/1999/xlink" fill="#666666"><g><path d="M 24,12 L 24,13.5 L 18.504,13.5 C 19.148,14.403 19.5,15.438 19.5,16.5 C 19.5,18.161 18.641,19.758 17.143,20.882 C 15.751,21.925 13.925,22.5 12,22.5 C 10.075,22.5 8.249,21.925 6.857,20.882 C 5.359,19.758 4.5,18.161 4.5,16.5 L 7.5,16.5 C 7.5,18.126 9.561,19.5 12,19.5 C 14.439,19.5 16.5,18.126 16.5,16.5 C 16.5,14.874 14.439,13.5 12,13.5 L 0,13.5 L 0,12 L 7.020,12 C 6.965,11.961 6.911,11.922 6.857,11.882 C 5.359,10.758 4.5,9.161 4.5,7.5 C 4.5,5.839 5.359,4.242 6.857,3.118 C 8.249,2.075 10.075,1.5 12,1.5 C 13.925,1.5 15.751,2.075 17.143,3.118 C 18.641,4.242 19.5,5.839 19.5,7.5 L 16.5,7.5 C 16.5,5.874 14.439,4.5 12,4.5 C 9.561,4.5 7.5,5.874 7.5,7.5 C 7.5,9.126 9.561,10.5 12,10.5 C 13.851,10.5 15.611,11.032 16.98,12 L 24,12 Z"></path></g></svg>