<?xml version="1.0" encoding="utf-8"?> <!-- Generator: IcoMoon.io --> <!DOCTYPE svg PUBLIC "-//W3C//DTD SVG 1.1//EN" "http://www.w3.org/Graphics/SVG/1.1/DTD/svg11.dtd"> <svg width="24" height="24" viewBox="0 0 24 24" xmlns="http://www.w3.org/2000/svg" xmlns:xlink="http://www.w3.org/1999/xlink" fill="#666666"><g><path d="M 12,0C 5.373,0,0,5.373,0,12s 5.373,12, 12,12s 12-5.373, 12-12S 18.627,0, 12,0z M 12,6 c-0.827,0-1.5,0.673-1.5,1.5l0,6 c0,2.481-2.019,4.5-4.5,4.5s-4.5-2.019-4.5-4.5l0-3 l 3,0 l0,3 c0,0.827, 0.673,1.5, 1.5,1.5s 1.5-0.673, 1.5-1.5L 7.5,7.5 c0-2.481, 2.019-4.5, 4.5-4.5s 4.5,2.019, 4.5,4.172l0,1.453 l-1.922,0.563l-1.078-0.563l0-1.453 C 13.5,6.673, 12.827,6, 12,6z M 18,18 c-2.481,0-4.5-2.019-4.5-4.828l0-2.906 l 1.078,0.563l 1.922-0.563l0,2.906 c0,1.155, 0.673,1.828, 1.5,1.828s 1.5-0.673, 1.5-1.5l0-3 l 3,0 l0,3 C 22.5,15.981, 20.481,18, 18,18z"></path></g></svg>