<?xml version="1.0" encoding="utf-8"?> <!-- Generator: IcoMoon.io --> <!DOCTYPE svg PUBLIC "-//W3C//DTD SVG 1.1//EN" "http://www.w3.org/Graphics/SVG/1.1/DTD/svg11.dtd"> <svg width="24" height="24" viewBox="0 0 24 24" xmlns="http://www.w3.org/2000/svg" xmlns:xlink="http://www.w3.org/1999/xlink" fill="#666666"><g><path d="M 12,0C 5.373,0,0,5.373,0,12s 5.373,12, 12,12s 12-5.373, 12-12S 18.627,0, 12,0z M 7.5,12 c0-2.485, 2.015-4.5, 4.5-4.5s 4.5,2.015, 4.5,4.5s-2.015,4.5-4.5,4.5S 7.5,14.485, 7.5,12z M 21.703,16.019L 21.703,16.019l-4.158-1.722 C 17.838,13.589, 18,12.814, 18,12s-0.162-1.589-0.456-2.297l 2.862-1.186l 1.296-0.537C 22.216,9.219, 22.5,10.576, 22.5,12 C 22.5,13.424, 22.216,14.781, 21.703,16.019L 21.703,16.019z M 16.019,2.297L 16.019,2.297L 16.019,2.297l-1.722,4.158 C 13.589,6.162, 12.814,6, 12,6s-1.589,0.162-2.297,0.456l-0.808-1.95l-0.915-2.208C 9.219,1.784, 10.576,1.5, 12,1.5 C 13.424,1.5, 14.781,1.784, 16.019,2.297z M 2.297,7.981l 2.208,0.915l 1.95,0.808C 6.162,10.411, 6,11.186, 6,12 s 0.162,1.589, 0.456,2.297l-4.158,1.722C 1.784,14.781, 1.5,13.424, 1.5,12C 1.5,10.576, 1.784,9.219, 2.297,7.981z M 7.981,21.703l 0.537-1.296l 1.186-2.862C 10.411,17.838, 11.186,18, 12,18s 1.589-0.162, 2.297-0.456l 1.722,4.158l0,0l0,0 C 14.781,22.216, 13.424,22.5, 12,22.5C 10.576,22.5, 9.219,22.216, 7.981,21.703z"></path></g></svg>