<?xml version="1.0" encoding="utf-8"?> <!-- Generator: IcoMoon.io --> <!DOCTYPE svg PUBLIC "-//W3C//DTD SVG 1.1//EN" "http://www.w3.org/Graphics/SVG/1.1/DTD/svg11.dtd"> <svg width="24" height="24" viewBox="0 0 24 24" xmlns="http://www.w3.org/2000/svg" xmlns:xlink="http://www.w3.org/1999/xlink" fill="#666666"><g><path d="M 15,3.436l0,3.187 c 0.849,0.37, 1.629,0.9, 2.303,1.575C 18.72,9.613, 19.5,11.497, 19.5,13.5 s-0.78,3.887-2.197,5.303C 15.887,20.22, 14.003,21, 12,21s-3.887-0.78-5.303-2.197 C 5.28,17.387, 4.5,15.503, 4.5,13.5s 0.78-3.887, 2.197-5.303c 0.674-0.674, 1.455-1.204, 2.303-1.575L 9,3.436 C 4.663,4.727, 1.5,8.744, 1.5,13.5c0,5.799, 4.701,10.5, 10.5,10.5c 5.799,0, 10.5-4.701, 10.5-10.5 C 22.5,8.744, 19.337,4.727, 15,3.436zM 10.5,0L 13.5,0L 13.5,12L 10.5,12z"></path></g></svg>