<?xml version="1.0" encoding="utf-8"?> <!-- Generator: IcoMoon.io --> <!DOCTYPE svg PUBLIC "-//W3C//DTD SVG 1.1//EN" "http://www.w3.org/Graphics/SVG/1.1/DTD/svg11.dtd"> <svg width="24" height="24" viewBox="0 0 24 24" xmlns="http://www.w3.org/2000/svg" xmlns:xlink="http://www.w3.org/1999/xlink" fill="#666666"><g><path d="M 18.75,0L 3.75,0 C 2.513,0, 1.5,1.013, 1.5,2.25l0,19.5 c0,1.237, 1.013,2.25, 2.25,2.25l 15,0 c 1.237,0, 2.25-1.013, 2.25-2.25L 21,2.25 C 21,1.013, 19.987,0, 18.75,0z M 11.25,23.25 c-0.414,0-0.75-0.336-0.75-0.75s 0.336-0.75, 0.75-0.75s 0.75,0.336, 0.75,0.75S 11.664,23.25, 11.25,23.25z M 18,21L 4.5,21 L 4.5,3 l 13.5,0 L 18,21 z"></path></g></svg>