<?xml version="1.0" encoding="utf-8"?> <!-- Generator: IcoMoon.io --> <!DOCTYPE svg PUBLIC "-//W3C//DTD SVG 1.1//EN" "http://www.w3.org/Graphics/SVG/1.1/DTD/svg11.dtd"> <svg width="24" height="24" viewBox="0 0 24 24" xmlns="http://www.w3.org/2000/svg" xmlns:xlink="http://www.w3.org/1999/xlink" fill="#666666"><g><path d="M0,1.5l0,21 l 24,0 L 24,1.5 L0,1.5 z M 9,15l0-4.5 l 6,0 l0,4.5 L 9,15 z M 15,16.5l0,4.5 L 9,21 l0-4.5 L 15,16.5 z M 15,4.5l0,4.5 L 9,9 L 9,4.5 L 15,4.5 z M 7.5,4.5l0,4.5 L 1.5,9 L 1.5,4.5 L 7.5,4.5 z M 1.5,10.5l 6,0 l0,4.5 L 1.5,15 L 1.5,10.5 z M 16.5,10.5l 6,0 l0,4.5 L 16.5,15 L 16.5,10.5 z M 16.5,9L 16.5,4.5 l 6,0 l0,4.5 L 16.5,9 z M 1.5,16.5l 6,0 l0,4.5 L 1.5,21 L 1.5,16.5 z M 16.5,21l0-4.5 l 6,0 l0,4.5 L 16.5,21 z"></path></g></svg>