<?xml version="1.0" encoding="utf-8"?> <!-- Generator: IcoMoon.io --> <!DOCTYPE svg PUBLIC "-//W3C//DTD SVG 1.1//EN" "http://www.w3.org/Graphics/SVG/1.1/DTD/svg11.dtd"> <svg width="24" height="24" viewBox="0 0 24 24" xmlns="http://www.w3.org/2000/svg" xmlns:xlink="http://www.w3.org/1999/xlink" fill="#666666"><g><path d="M0,4.5l0,16.5 l 24,0 L 24,4.5 L0,4.5 z M 9,15l0-3 l 6,0 l0,3 L 9,15 z M 15,16.5l0,3 L 9,19.5 l0-3 L 15,16.5 z M 15,7.5l0,3 L 9,10.5 l0-3 L 15,7.5 z M 7.5,7.5l0,3 L 1.5,10.5 l0-3 L 7.5,7.5 z M 1.5,12l 6,0 l0,3 L 1.5,15 L 1.5,12 z M 16.5,12l 6,0 l0,3 L 16.5,15 L 16.5,12 z M 16.5,10.5l0-3 l 6,0 l0,3 L 16.5,10.5 z M 1.5,16.5l 6,0 l0,3 L 1.5,19.5 L 1.5,16.5 z M 16.5,19.5l0-3 l 6,0 l0,3 L 16.5,19.5 z"></path></g></svg>