<?xml version="1.0" encoding="utf-8"?> <!-- Generator: IcoMoon.io --> <!DOCTYPE svg PUBLIC "-//W3C//DTD SVG 1.1//EN" "http://www.w3.org/Graphics/SVG/1.1/DTD/svg11.dtd"> <svg width="24.219186782836914" height="24.219188690185547" viewBox="0 0 24.219186782836914 24.219188690185547" xmlns="http://www.w3.org/2000/svg" xmlns:xlink="http://www.w3.org/1999/xlink" fill="#666666"><g><path d="M 21.746,0L 14.982,0 c-1.24,0-2.972,0.717-3.849,1.594L 0.658,12.070c-0.877,0.877-0.877,2.311,0,3.188 l 8.084,8.084c 0.877,0.877, 2.311,0.877, 3.188,0l 10.476-10.476C 23.283,11.989, 24,10.257, 24,9.018L 24,2.254 C 24,1.014, 22.985,0, 21.746,0z M 18.75,7.5c-1.243,0-2.25-1.007-2.25-2.25s 1.007-2.25, 2.25-2.25s 2.25,1.007, 2.25,2.25S 19.993,7.5, 18.75,7.5z"></path></g></svg>