<?xml version="1.0" encoding="utf-8"?> <!-- Generator: IcoMoon.io --> <!DOCTYPE svg PUBLIC "-//W3C//DTD SVG 1.1//EN" "http://www.w3.org/Graphics/SVG/1.1/DTD/svg11.dtd"> <svg width="25.53403091430664" height="24" viewBox="0 0 25.53403091430664 24" xmlns="http://www.w3.org/2000/svg" xmlns:xlink="http://www.w3.org/1999/xlink" fill="#666666"><g><path d="M 23.25,1.5L 18,1.5 c-1.237,0-2.966,0.716-3.841,1.591L 5.341,11.909c-0.875,0.875-0.875,2.307,0,3.182l 6.568,6.568 c 0.875,0.875, 2.307,0.875, 3.182,0l 8.818-8.818C 24.784,11.966, 25.5,10.238, 25.5,9L 25.5,3.75 C 25.5,2.513, 24.487,1.5, 23.25,1.5z M 20.25,9 c-1.243,0-2.25-1.007-2.25-2.25s 1.007-2.25, 2.25-2.25s 2.25,1.007, 2.25,2.25S 21.493,9, 20.25,9zM 2.030,14.030 L 10.055,22.055 C 9.205,22.504 8.122,22.372 7.409,21.659 L 0.841,15.091 C -0.034,14.216 -0.034,12.784 0.841,11.909 L 9.659,3.091 C 10.534,2.216 12.263,1.5 13.5,1.5 L 2.030,12.97 C 1.739,13.261 1.739,13.739 2.030,14.030 Z"></path></g></svg>