<?xml version="1.0" encoding="utf-8"?> <!-- Generator: IcoMoon.io --> <!DOCTYPE svg PUBLIC "-//W3C//DTD SVG 1.1//EN" "http://www.w3.org/Graphics/SVG/1.1/DTD/svg11.dtd"> <svg width="24" height="24" viewBox="0 0 24 24" xmlns="http://www.w3.org/2000/svg" xmlns:xlink="http://www.w3.org/1999/xlink" fill="#666666"><g><path d="M 24,10.5l-2.365,0 C 20.987,6.322, 17.678,3.013, 13.5,2.365L 13.5,0 l-3,0 l0,2.365 C 6.322,3.013, 3.013,6.322, 2.365,10.5L0,10.5 l0,3 l 2.365,0 C 3.013,17.678, 6.322,20.987, 10.5,21.635L 10.5,24 l 3,0 l0-2.365 C 17.678,20.987, 20.987,17.678, 21.635,13.5L 24,13.5 L 24,10.5 z M 18.582,10.5 L 16.244,10.5 c-0.452-1.279-1.465-2.292-2.744-2.744l0-2.338 C 16.020,5.992, 18.008,7.98, 18.582,10.5z M 12,13.5 c-0.828,0-1.5-0.672-1.5-1.5c0-0.828, 0.672-1.5, 1.5-1.5c 0.828,0, 1.5,0.672, 1.5,1.5C 13.5,12.828, 12.828,13.5, 12,13.5z M 10.5,5.418 l0,2.338 c-1.279,0.452-2.292,1.465-2.744,2.744l-2.338,0 C 5.992,7.98, 7.98,5.992, 10.5,5.418z M 5.418,13.5l 2.338,0 c 0.452,1.279, 1.465,2.292, 2.744,2.744l0,2.338 C 7.98,18.008, 5.992,16.020, 5.418,13.5z M 13.5,18.582L 13.5,16.244 c 1.279-0.452, 2.292-1.465, 2.744-2.744l 2.338,0 C 18.008,16.020, 16.020,18.008, 13.5,18.582z"></path></g></svg>