<?xml version="1.0" encoding="utf-8"?> <!-- Generator: IcoMoon.io --> <!DOCTYPE svg PUBLIC "-//W3C//DTD SVG 1.1//EN" "http://www.w3.org/Graphics/SVG/1.1/DTD/svg11.dtd"> <svg width="24" height="24" viewBox="0 0 24 24" xmlns="http://www.w3.org/2000/svg" xmlns:xlink="http://www.w3.org/1999/xlink" fill="#666666"><g><path d="M 21.75,13.5 C 23.461,13.5 22.5,18 21,18 C 21.75,18 21,21.75 19.5,21.75 C 19.5,23.25 18,24 16.5,24 C 10.164,24 12.392,22.414 6,21.75 L 6,9.75 C 11.647,8.056 17.25,3.81 17.25,0 C 18.492,0 21.75,1.5 17.25,9 C 17.25,9 21,9 21.75,9 C 24,9 23.25,13.5 21.75,13.5 ZM 4.5,9.75 L 4.5,21.75 L 6,21.75 L 6,22.5 L 3,22.5 C 2.175,22.5 1.5,21.487 1.5,20.25 L 1.5,11.25 C 1.5,10.012 2.175,9 3,9 L 6,9 L 6,9.75 L 4.5,9.75 Z"></path></g></svg>