<?xml version="1.0" encoding="utf-8"?> <!-- Generator: IcoMoon.io --> <!DOCTYPE svg PUBLIC "-//W3C//DTD SVG 1.1//EN" "http://www.w3.org/Graphics/SVG/1.1/DTD/svg11.dtd"> <svg width="24" height="24" viewBox="0 0 24 24" xmlns="http://www.w3.org/2000/svg" xmlns:xlink="http://www.w3.org/1999/xlink" fill="#666666"><g><path d="M 2.25,10.5 C 0.539,10.5 1.5,6 3,6 C 2.25,6 3,2.25 4.5,2.25 C 4.5,0.75 6,0 7.5,0 C 13.836,0 11.608,1.586 18,2.25 L 18,14.25 C 12.353,15.944 6.75,20.19 6.75,24 C 5.508,24 2.25,22.5 6.75,15 C 6.75,15 3,15 2.25,15 C 0,15 0.75,10.5 2.25,10.5 ZM 19.5,14.25 L 19.5,2.25 L 18,2.25 L 18,1.5 L 21,1.5 C 21.825,1.5 22.5,2.513 22.5,3.75 L 22.5,12.75 C 22.5,13.987 21.825,15 21,15 L 18,15 L 18,14.25 L 19.5,14.25 Z"></path></g></svg>