<?xml version="1.0" encoding="utf-8"?> <!-- Generator: IcoMoon.io --> <!DOCTYPE svg PUBLIC "-//W3C//DTD SVG 1.1//EN" "http://www.w3.org/Graphics/SVG/1.1/DTD/svg11.dtd"> <svg width="24.351093292236328" height="24.351234436035156" viewBox="0 0 24.351093292236328 24.351234436035156" xmlns="http://www.w3.org/2000/svg" xmlns:xlink="http://www.w3.org/1999/xlink" fill="#666666"><g><path d="M 13.5,7.5L 16.5,10.5L 10.5,16.5L 7.5,13.5zM 23.473,6.973l-1.723-1.723l-0.75,0.75c-0.384,0.384-0.914,0.621-1.5,0.621 c-1.172,0-2.121-0.95-2.121-2.121c0-0.586, 0.238-1.117, 0.622-1.5l 0.75-0.75l-1.723-1.723 c-0.702-0.702-1.852-0.702-2.554,0L 0.527,14.473c-0.702,0.702-0.702,1.852,0,2.554l 1.723,1.723l 0.749-0.749 c 0.384-0.385, 0.915-0.622, 1.501-0.622c 1.172,0, 2.121,0.95, 2.121,2.121c0,0.586-0.238,1.117-0.622,1.501l-0.75,0.75 l 1.723,1.723c 0.702,0.702, 1.852,0.702, 2.554,0l 13.946-13.946C 24.176,8.825, 24.176,7.675, 23.473,6.973z M 10.5,19.5l-6-6l 9-9l 6,6L 10.5,19.5z"></path></g></svg>