<?xml version="1.0" encoding="utf-8"?> <!-- Generator: IcoMoon.io --> <!DOCTYPE svg PUBLIC "-//W3C//DTD SVG 1.1//EN" "http://www.w3.org/Graphics/SVG/1.1/DTD/svg11.dtd"> <svg width="24" height="24" viewBox="0 0 24 24" xmlns="http://www.w3.org/2000/svg" xmlns:xlink="http://www.w3.org/1999/xlink" fill="#666666"><g><path d="M 12,0C 5.373,0,0,5.373,0,12s 5.373,12, 12,12s 12-5.373, 12-12S 18.627,0, 12,0z M 7.5,6 c 0.828,0, 1.5,0.672, 1.5,1.5s-0.672,1.5-1.5,1.5s-1.5-0.672-1.5-1.5S 6.672,6, 7.5,6z M 18,15l-1.5,0 l0,2.25 c0,1.243-1.007,2.25-2.25,2.25 s-2.25-1.007-2.25-2.25l0-2.25 L 6,15 l0-1.5 l 12,0 L 18,15 z M 16.5,9c-0.828,0-1.5-0.672-1.5-1.5s 0.672-1.5, 1.5-1.5s 1.5,0.672, 1.5,1.5S 17.328,9, 16.5,9z"></path></g></svg>