<?xml version="1.0" encoding="utf-8"?> <!-- Generator: IcoMoon.io --> <!DOCTYPE svg PUBLIC "-//W3C//DTD SVG 1.1//EN" "http://www.w3.org/Graphics/SVG/1.1/DTD/svg11.dtd"> <svg width="24" height="24" viewBox="0 0 24 24" xmlns="http://www.w3.org/2000/svg" xmlns:xlink="http://www.w3.org/1999/xlink" fill="#666666"><g><path d="M 22.875,18l-0.375,0 L 22.5,13.125 c0-1.447-1.178-2.625-2.625-2.625L 13.5,10.5 l0-3 l 0.375,0 c 0.619,0, 1.125-0.506, 1.125-1.125L 15,2.625 c0-0.619-0.506-1.125-1.125-1.125l-3.75,0 c-0.619,0-1.125,0.506-1.125,1.125l0,3.75 c0,0.619, 0.506,1.125, 1.125,1.125l 0.375,0 l0,3 L 4.125,10.5 c-1.447,0-2.625,1.178-2.625,2.625l0,4.875 l-0.375,0 c-0.619,0-1.125,0.506-1.125,1.125l0,3.75 c0,0.619, 0.506,1.125, 1.125,1.125l 3.75,0 c 0.619,0, 1.125-0.506, 1.125-1.125l0-3.75 c0-0.619-0.506-1.125-1.125-1.125l-0.375,0 l0-4.5 l 6,0 l0,4.5 l-0.375,0 c-0.619,0-1.125,0.506-1.125,1.125l0,3.75 c0,0.619, 0.506,1.125, 1.125,1.125l 3.75,0 c 0.619,0, 1.125-0.506, 1.125-1.125l0-3.75 c0-0.619-0.506-1.125-1.125-1.125l-0.375,0 l0-4.5 l 6,0 l0,4.5 l-0.375,0 c-0.619,0-1.125,0.506-1.125,1.125l0,3.75 c0,0.619, 0.506,1.125, 1.125,1.125l 3.75,0 c 0.619,0, 1.125-0.506, 1.125-1.125l0-3.75 C 24,18.506, 23.494,18, 22.875,18z M 4.5,22.5L 1.5,22.5 l0-3 l 3,0 L 4.5,22.5 z M 13.5,22.5l-3,0 l0-3 l 3,0 L 13.5,22.5 z M 10.5,6L 10.5,3 l 3,0 l0,3 L 10.5,6 z M 22.5,22.5l-3,0 l0-3 l 3,0 L 22.5,22.5 z"></path></g></svg>