<?xml version="1.0" encoding="utf-8"?> <!-- Generator: IcoMoon.io --> <!DOCTYPE svg PUBLIC "-//W3C//DTD SVG 1.1//EN" "http://www.w3.org/Graphics/SVG/1.1/DTD/svg11.dtd"> <svg width="24" height="24" viewBox="0 0 24 24" xmlns="http://www.w3.org/2000/svg" xmlns:xlink="http://www.w3.org/1999/xlink" fill="#666666"><g><path d="M 24,13.5l-3-6l-4.5,0 L 16.5,4.5 c0-0.825-0.675-1.5-1.5-1.5L 1.5,3 C 0.675,3,0,3.675,0,4.5l0,12 l 1.5,1.5l 1.902,0 C 3.147,18.441, 3,18.953, 3,19.5 c0,1.657, 1.343,3, 3,3s 3-1.343, 3-3c0-0.547-0.147-1.059-0.402-1.5l 8.305,0 c-0.255,0.441-0.402,0.953-0.402,1.5 c0,1.657, 1.343,3, 3,3s 3-1.343, 3-3c0-0.547-0.147-1.059-0.402-1.5L 24,18 L 24,13.5 z M 16.5,13.5l0-3.75 l 3.109,0 l 1.875,3.75L 16.5,13.5 z"></path></g></svg>