<?xml version="1.0" encoding="utf-8"?> <!-- Generator: IcoMoon.io --> <!DOCTYPE svg PUBLIC "-//W3C//DTD SVG 1.1//EN" "http://www.w3.org/Graphics/SVG/1.1/DTD/svg11.dtd"> <svg width="24" height="24" viewBox="0 0 24 24" xmlns="http://www.w3.org/2000/svg" xmlns:xlink="http://www.w3.org/1999/xlink" fill="#666666"><g><path d="M 13.501,10.5 L 13.501,15.989 C 13.501,17.381 13.483,18.184 13.63,18.579 C 13.777,18.971 14.144,19.379 14.544,19.615 C 15.076,19.933 15.682,20.092 16.365,20.092 C 17.581,20.092 18.299,19.932 19.5,19.142 L 19.5,22.75 L 19.5,22.75 C 18.476,23.232 17.581,23.514 16.75,23.709 C 15.918,23.902 15.019,24 14.053,24 C 12.956,24 12.308,23.862 11.466,23.586 C 10.623,23.308 9.903,22.911 9.309,22.402 C 8.712,21.888 8.301,21.342 8.070,20.765 C 7.84,20.187 7.725,19.349 7.725,18.251 L 7.725,9.835 L 4.505,9.835 L 4.505,6.436 C 5.447,6.131 6.501,5.691 7.171,5.12 C 7.845,4.547 8.384,3.862 8.791,3.059 C 9.199,2.259 9.479,1.238 9.632,0 L 13.501,0 L 13.501,6 L 19.5,6 L 19.5,10.5 L 13.501,10.5 Z"></path></g></svg>