<?xml version="1.0" encoding="utf-8"?> <!-- Generator: IcoMoon.io --> <!DOCTYPE svg PUBLIC "-//W3C//DTD SVG 1.1//EN" "http://www.w3.org/Graphics/SVG/1.1/DTD/svg11.dtd"> <svg width="24" height="24" viewBox="0 0 24 24" xmlns="http://www.w3.org/2000/svg" xmlns:xlink="http://www.w3.org/1999/xlink" fill="#666666"><g><path d="M 20.001,0L 4,0 C 1.8,0, 0,1.8, 0,4l0,15.999 C 0,22.201, 1.8,24, 4,24L 20.001,24 C 22.201,24, 24,22.201, 24,20L 24,4 C 24,1.8, 22.201,0, 20.001,0z M 17.15,19.329 c-0.707,0.333-1.348,0.567-1.922,0.702c-0.574,0.133-1.194,0.201-1.861,0.201c-0.757,0-1.204-0.095-1.786-0.286 c-0.581-0.192-1.078-0.466-1.488-0.817c-0.412-0.355-0.696-0.731-0.855-1.13c-0.159-0.399-0.238-0.977-0.238-1.734L 9,10.456 l-2.25,0 l0-2.345 c 0.65-0.211, 1.405-0.514, 1.868-0.908c 0.465-0.395, 0.837-0.869, 1.118-1.422 c 0.281-0.552, 0.475-1.257, 0.58-2.111l 2.355,0 L 12.671,7.5 L 16.5,7.5 l0,2.956 l-3.829,0 l0,4.247 c0,0.961-0.012,1.515, 0.089,1.787 c 0.101,0.271, 0.355,0.552, 0.631,0.715c 0.367,0.22, 0.785,0.33, 1.257,0.33c 0.839,0, 1.673-0.272, 2.502-0.817L 17.15,19.329 L 17.15,19.329z"></path></g></svg>