<?xml version="1.0" encoding="utf-8"?> <!-- Generator: IcoMoon.io --> <!DOCTYPE svg PUBLIC "-//W3C//DTD SVG 1.1//EN" "http://www.w3.org/Graphics/SVG/1.1/DTD/svg11.dtd"> <svg width="24.975513458251953" height="24.852890014648438" viewBox="0 0 24.975513458251953 24.852890014648438" xmlns="http://www.w3.org/2000/svg" xmlns:xlink="http://www.w3.org/1999/xlink" fill="#666666"><g><path d="M 13.304,17.271c-1.921,0.893-3.707,0.884-4.906,0.797c-1.431-0.103-2.582-0.495-3.088-0.837 c-0.312-0.211-0.736-0.129-0.947,0.182c-0.211,0.312-0.129,0.736, 0.182,0.947c 0.813,0.55, 2.252,0.96, 3.754,1.068 c 0.255,0.018, 0.534,0.030, 0.835,0.030c 1.307,0, 2.968-0.125, 4.744-0.951c 0.341-0.159, 0.489-0.564, 0.331-0.906 C 14.051,17.261, 13.646,17.113, 13.304,17.271zM 20.882,16.261c 0.065-5.922, 0.674-17.114-10.663-16.21C-0.976,0.953, 1.993,12.777, 1.826,16.738 C 1.678,18.833, 0.982,21.394,0,24l 3.026,0 c 0.311-1.104, 0.54-2.197, 0.638-3.238c 0.182,0.127, 0.378,0.25, 0.586,0.368 c 0.339,0.2, 0.63,0.465, 0.938,0.746c 0.721,0.657, 1.537,1.401, 3.134,1.494c 0.107,0.006, 0.215,0.009, 0.321,0.009 c 1.615,0, 2.719-0.707, 3.607-1.275c 0.425-0.272, 0.793-0.507, 1.138-0.62c 0.982-0.307, 1.841-0.804, 2.482-1.436 c 0.1-0.099, 0.193-0.2, 0.28-0.303c 0.357,1.31, 0.847,2.783, 1.39,4.254L 24,24 C 22.449,21.604, 20.849,19.257, 20.882,16.261z M 2.909,13.040c0-0,0-0.001-0-0.001 c-0.111-1.933, 0.814-3.559, 2.065-3.631c 1.252-0.073, 2.357,1.435, 2.468,3.368c0,0, 0,0.001, 0,0.001 c 0.006,0.104, 0.009,0.207, 0.009,0.31c-0.397,0.1-0.754,0.245-1.075,0.413c-0.001-0.014-0.002-0.028-0.004-0.043 c0-0,0-0,0-0.001c-0.107-1.097-0.693-1.926-1.309-1.851c-0.616,0.075-1.028,1.025-0.921,2.122 c0,0, 0,0, 0,0.001c 0.047,0.478, 0.184,0.906, 0.376,1.229c-0.048,0.038-0.182,0.136-0.338,0.25 c-0.116,0.085-0.258,0.189-0.429,0.315C 3.285,14.91, 2.966,14.031, 2.909,13.040z M 15.592,17.817 c-0.045,1.022-1.381,1.983-2.615,2.368l-0.007,0.002c-0.513,0.166-0.971,0.459-1.456,0.769 c-0.814,0.521-1.656,1.060-2.872,1.060c-0.080,0-0.162-0.002-0.242-0.007c-1.114-0.065-1.635-0.54-2.294-1.141 c-0.348-0.317-0.708-0.645-1.171-0.917l-0.010-0.006c-1.001-0.565-1.622-1.268-1.662-1.88 c-0.020-0.304, 0.116-0.568, 0.403-0.783c 0.624-0.468, 1.042-0.774, 1.319-0.976c 0.307-0.225, 0.4-0.292, 0.469-0.358 c 0.049-0.047, 0.102-0.098, 0.159-0.154c 0.573-0.557, 1.532-1.49, 3.004-1.49c 0.9,0, 1.896,0.347, 2.957,1.029 c 0.5,0.325, 0.935,0.475, 1.485,0.666c 0.379,0.131, 0.808,0.279, 1.383,0.525l 0.009,0.004 C 14.988,16.75, 15.621,17.152, 15.592,17.817z M 15.296,15.417c-0.103-0.052-0.21-0.101-0.322-0.147 c-0.518-0.222-0.934-0.372-1.278-0.492c 0.19-0.373, 0.308-0.837, 0.319-1.342c0-0,0-0.001,0-0.001 c 0.026-1.228-0.593-2.224-1.383-2.226c-0.79-0.002-1.452,0.992-1.478,2.219c0,0,0,0,0,0.001 c-0.001,0.040-0.001,0.080-0,0.12c-0.487-0.224-0.965-0.386-1.434-0.487c-0.002-0.046-0.005-0.092-0.006-0.139 c0-0,0-0.001,0-0.001c-0.045-2.236, 1.327-4.087, 3.065-4.134c 1.738-0.047, 3.183,1.727, 3.229,3.964 c0,0,0,0.001,0,0.001C 16.029,13.764, 15.758,14.695, 15.296,15.417z"></path></g></svg>