<?xml version="1.0" encoding="utf-8"?> <!-- Generator: IcoMoon.io --> <!DOCTYPE svg PUBLIC "-//W3C//DTD SVG 1.1//EN" "http://www.w3.org/Graphics/SVG/1.1/DTD/svg11.dtd"> <svg width="24" height="24" viewBox="0 0 24 24" xmlns="http://www.w3.org/2000/svg" xmlns:xlink="http://www.w3.org/1999/xlink" fill="#666666"><g><path d="M 22.997,6.753c-2.081-0.299-4.298-0.516-6.611-0.638L 20.25,2.25l-1.5-1.5L 13.487,6.013 C 12.995,6.004, 12.499,6, 12,6l0,0L 6,0L 4.5,1.5l 4.551,4.551c-2.834,0.099-5.539,0.34-8.048,0.701 C 0.358,9.277,0,12.067,0,15s 0.358,5.723, 1.003,8.247C 4.37,23.731, 8.089,24, 12,24 c 3.911,0, 7.63-0.269, 10.997-0.753C 23.642,20.723, 24,17.933, 24,15S 23.642,9.277, 22.997,6.753z M 20.247,20.498 C 17.723,20.821, 14.933,21, 12,21c-2.933,0-5.723-0.179-8.247-0.502C 3.269,18.815, 3,16.955, 3,15 c0-1.955, 0.269-3.815, 0.753-5.498C 6.277,9.179, 9.067,9, 12,9c 2.933,0, 5.723,0.179, 8.247,0.502 C 20.731,11.185, 21,13.045, 21,15C 21,16.955, 20.731,18.815, 20.247,20.498z"></path></g></svg>