<?xml version="1.0" encoding="utf-8"?> <!-- Generator: IcoMoon.io --> <!DOCTYPE svg PUBLIC "-//W3C//DTD SVG 1.1//EN" "http://www.w3.org/Graphics/SVG/1.1/DTD/svg11.dtd"> <svg width="24" height="24" viewBox="0 0 24 24" xmlns="http://www.w3.org/2000/svg" xmlns:xlink="http://www.w3.org/1999/xlink" fill="#666666"><g><path d="M 20,0L 4,0 C 1.8,0,0,1.8,0,4.001l0,15.999 C0,22.201, 1.8,24, 4,24l 16,0 C 22.2,24, 24,22.201, 24,19.999L 24,4.001 C 24,1.8, 22.2,0, 20,0z M 19.642,8.012 c 0.008,0.172, 0.011,0.345, 0.011,0.519c0,5.302-3.966,11.416-11.219,11.416c-2.227,0-4.299-0.664-6.044-1.803 c 0.308,0.037, 0.622,0.056, 0.941,0.056c 1.847,0, 3.547-0.641, 4.897-1.718c-1.725-0.032-3.181-1.192-3.683-2.786 c 0.241,0.047, 0.488,0.072, 0.742,0.072c 0.36,0, 0.708-0.049, 1.039-0.141c-1.804-0.369-3.163-1.99-3.163-3.934 c0-0.017,0-0.034, 0-0.050c 0.532,0.3, 1.14,0.481, 1.786,0.502c-1.058-0.719-1.754-1.947-1.754-3.34 c0-0.735, 0.194-1.424, 0.534-2.017c 1.945,2.427, 4.85,4.025, 8.127,4.192c-0.067-0.294-0.102-0.6-0.102-0.914 c0-2.216, 1.765-4.012, 3.943-4.012c 1.134,0, 2.159,0.487, 2.878,1.267c 0.898-0.18, 1.742-0.514, 2.504-0.974 c-0.294,0.937-0.92,1.723-1.734,2.22c 0.797-0.097, 1.557-0.313, 2.265-0.632C 21.081,6.739, 20.412,7.446, 19.642,8.012 z"></path></g></svg>