<?xml version="1.0" encoding="utf-8"?> <!-- Generator: IcoMoon.io --> <!DOCTYPE svg PUBLIC "-//W3C//DTD SVG 1.1//EN" "http://www.w3.org/Graphics/SVG/1.1/DTD/svg11.dtd"> <svg width="24.000093460083008" height="24" viewBox="0 0 24.000093460083008 24" xmlns="http://www.w3.org/2000/svg" xmlns:xlink="http://www.w3.org/1999/xlink" fill="#666666"><g><path d="M 24,4.557c-0.883,0.392-1.832,0.656-2.828,0.775c 1.017-0.609, 1.797-1.574, 2.165-2.724 c-0.951,0.564-2.005,0.974-3.127,1.195c-0.898-0.957-2.178-1.555-3.594-1.555c-2.719,0-4.924,2.204-4.924,4.924 c0,0.386, 0.044,0.762, 0.128,1.122c-4.092-0.205-7.72-2.166-10.149-5.145c-0.424,0.727-0.667,1.573-0.667,2.475 c0,1.708, 0.869,3.215, 2.19,4.098c-0.807-0.026-1.566-0.247-2.23-0.616c-0,0.021-0,0.041-0,0.062 c0,2.386, 1.697,4.376, 3.95,4.828c-0.413,0.112-0.848,0.173-1.297,0.173c-0.317,0-0.626-0.031-0.926-0.088 c 0.627,1.956, 2.445,3.38, 4.6,3.419c-1.685,1.321-3.808,2.108-6.115,2.108c-0.397,0-0.789-0.023-1.175-0.069 c 2.179,1.397, 4.767,2.212, 7.548,2.212c 9.057,0, 14.009-7.503, 14.009-14.010c0-0.213-0.005-0.426-0.014-0.637 C 22.505,6.411, 23.34,5.544, 24,4.557z"></path></g></svg>