<?xml version="1.0" encoding="utf-8"?> <!-- Generator: IcoMoon.io --> <!DOCTYPE svg PUBLIC "-//W3C//DTD SVG 1.1//EN" "http://www.w3.org/Graphics/SVG/1.1/DTD/svg11.dtd"> <svg width="24" height="24" viewBox="0 0 24 24" xmlns="http://www.w3.org/2000/svg" xmlns:xlink="http://www.w3.org/1999/xlink" fill="#666666"><g><path d="M 12,0C 5.373,0,0,5.373,0,12s 5.373,12, 12,12s 12-5.373, 12-12S 18.627,0, 12,0z M 18.896,8.463 c 0.007,0.153, 0.010,0.306, 0.010,0.46c0,4.702-3.579,10.124-10.124,10.124c-2.009,0-3.88-0.589-5.455-1.599 c 0.278,0.033, 0.562,0.050, 0.849,0.050c 1.667,0, 3.201-0.569, 4.419-1.523c-1.557-0.029-2.871-1.058-3.324-2.471 c 0.217,0.041, 0.44,0.064, 0.67,0.064c 0.325,0, 0.639-0.044, 0.937-0.125c-1.628-0.327-2.854-1.765-2.854-3.489 c0-0.015,0-0.030, 0-0.045c 0.48,0.266, 1.028,0.427, 1.612,0.445c-0.955-0.638-1.583-1.727-1.583-2.962 c0-0.652, 0.176-1.263, 0.482-1.789c 1.755,2.153, 4.377,3.569, 7.334,3.718c-0.061-0.261-0.092-0.532-0.092-0.811 c0-1.965, 1.593-3.558, 3.558-3.558c 1.023,0, 1.948,0.432, 2.597,1.124c 0.81-0.16, 1.572-0.456, 2.26-0.863 c-0.266,0.831-0.83,1.528-1.564,1.969c 0.72-0.086, 1.405-0.277, 2.044-0.56 C 20.195,7.335, 19.592,7.961, 18.896,8.463z"></path></g></svg>