<?xml version="1.0" encoding="utf-8"?> <!-- Generator: IcoMoon.io --> <!DOCTYPE svg PUBLIC "-//W3C//DTD SVG 1.1//EN" "http://www.w3.org/Graphics/SVG/1.1/DTD/svg11.dtd"> <svg width="24" height="24" viewBox="0 0 24 24" xmlns="http://www.w3.org/2000/svg" xmlns:xlink="http://www.w3.org/1999/xlink" fill="#666666"><g><path d="M 16.5,1.5 L 19.5,1.5 L 19.5,11.25 C 19.5,14.978 16.142,18 12,18 C 7.858,18 4.5,14.978 4.5,11.25 L 4.5,1.5 L 7.5,1.5 L 7.5,11.25 C 7.5,12.191 7.927,13.095 8.704,13.793 C 9.568,14.571 10.739,15 12,15 C 13.261,15 14.432,14.571 15.296,13.793 C 16.073,13.095 16.5,12.191 16.5,11.25 L 16.5,1.5 ZM 4.5,19.5L 19.5,19.5L 19.5,22.5L 4.5,22.5z"></path></g></svg>