<?xml version="1.0" encoding="utf-8"?> <!-- Generator: IcoMoon.io --> <!DOCTYPE svg PUBLIC "-//W3C//DTD SVG 1.1//EN" "http://www.w3.org/Graphics/SVG/1.1/DTD/svg11.dtd"> <svg width="24" height="24" viewBox="0 0 24 24" xmlns="http://www.w3.org/2000/svg" xmlns:xlink="http://www.w3.org/1999/xlink" fill="#666666"><g><path d="M 22.875,24L 7.125,24 c-0.621,0-1.125-0.504-1.125-1.125c0-1.614, 0.681-3.567, 1.822-5.225c 0.954-1.386, 2.125-2.429, 3.391-3.038 c-0.558-0.507-1.038-1.126-1.418-1.831c-0.609-1.131-0.932-2.439-0.932-3.781c0-1.866, 0.614-3.629, 1.729-4.964 C 11.757,2.643, 13.322,1.875, 15,1.875s 3.243,0.768, 4.407,2.161c 1.115,1.335, 1.729,3.098, 1.729,4.964 c0,1.343-0.322,2.65-0.931,3.781c-0.38,0.705-0.86,1.324-1.418,1.831c 1.265,0.609, 2.437,1.652, 3.391,3.038 C 23.319,19.308, 24,21.261, 24,22.875C 24,23.496, 23.496,24, 22.875,24z M 8.392,21.75l 13.215,0 c-0.216-0.922-0.668-1.931-1.283-2.824c-0.972-1.412-2.184-2.335-3.413-2.6c-0.518-0.112-0.888-0.57-0.888-1.1 l0-0.804 c0-0.405, 0.217-0.778, 0.569-0.978c 1.394-0.793, 2.295-2.537, 2.295-4.444c0-2.688-1.743-4.875-3.886-4.875 s-3.886,2.187-3.886,4.875c0,1.907, 0.901,3.651, 2.295,4.444c 0.352,0.2, 0.569,0.573, 0.569,0.978l0,0.804 c0,0.53-0.37,0.988-0.888,1.1c-1.23,0.265-2.442,1.188-3.413,2.6C 9.061,19.819, 8.609,20.828, 8.392,21.75zM 4.62,20.25l-2.228,0 c 0.216-0.922, 0.668-1.931, 1.283-2.824c 0.972-1.412, 2.184-2.335, 3.413-2.6 c 0.518-0.112, 0.888-0.57, 0.888-1.1l0-0.804 c0-0.405-0.217-0.778-0.569-0.978c-1.394-0.793-2.295-2.537-2.295-4.444 c0-2.688, 1.743-4.875, 3.886-4.875c 0.147,0, 0.291,0.011, 0.434,0.031c 0.618-0.688, 1.318-1.246, 2.078-1.664 C 10.733,0.587, 9.882,0.375, 9,0.375c-1.678,0-3.243,0.768-4.407,2.161C 3.478,3.871, 2.864,5.634, 2.864,7.5 c0,1.343, 0.322,2.65, 0.932,3.781c 0.38,0.705, 0.86,1.324, 1.418,1.831c-1.265,0.609-2.437,1.652-3.391,3.038 C 0.681,17.808,0,19.761,0,21.375c0,0.621, 0.504,1.125, 1.125,1.125l 3.103,0 C 4.262,21.773, 4.396,21.014, 4.62,20.25z"></path></g></svg>