<?xml version="1.0" encoding="utf-8"?> <!-- Generator: IcoMoon.io --> <!DOCTYPE svg PUBLIC "-//W3C//DTD SVG 1.1//EN" "http://www.w3.org/Graphics/SVG/1.1/DTD/svg11.dtd"> <svg width="24" height="24" viewBox="0 0 24 24" xmlns="http://www.w3.org/2000/svg" xmlns:xlink="http://www.w3.org/1999/xlink" fill="#666666"><g><path d="M 14.597,16.47c-0.518-0.082-0.53-1.507-0.53-1.507s 1.523-1.507, 1.855-3.534 c 0.893,0, 1.444-2.155, 0.551-2.913C 16.511,7.717, 17.621,2.25, 12,2.25c-5.621,0-4.511,5.467-4.473,6.265 c-0.893,0.758-0.341,2.913, 0.551,2.913c 0.332,2.027, 1.855,3.534, 1.855,3.534s-0.012,1.425-0.53,1.507 C 7.733,16.736, 1.5,19.485, 1.5,22.5l 10.5,0 l 10.5,0 C 22.5,19.485, 16.267,16.736, 14.597,16.47z"></path></g></svg>