<?xml version="1.0" encoding="utf-8"?> <!-- Generator: IcoMoon.io --> <!DOCTYPE svg PUBLIC "-//W3C//DTD SVG 1.1//EN" "http://www.w3.org/Graphics/SVG/1.1/DTD/svg11.dtd"> <svg width="24" height="24" viewBox="0 0 24 24" xmlns="http://www.w3.org/2000/svg" xmlns:xlink="http://www.w3.org/1999/xlink" fill="#666666"><g><path d="M 17.226,18.876c-0.444-0.070-0.454-1.281-0.454-1.281s 1.305-1.281, 1.59-3.004 c 0.765,0, 1.238-1.831, 0.473-2.476c 0.032-0.678, 0.984-5.324-3.834-5.324c-4.818,0-3.866,4.646-3.834,5.324 c-0.765,0.644-0.293,2.476, 0.473,2.476c 0.284,1.723, 1.59,3.004, 1.59,3.004s-0.010,1.211-0.454,1.281 C 11.343,19.102, 6,21.438, 6,24l 9,0 l 9,0 C 24,21.438, 18.657,19.102, 17.226,18.876zM 8.064,19.285c 1.033-0.636, 2.288-1.226, 3.317-1.58c-0.369-0.526-0.78-1.241-1.039-2.087 c-0.361-0.295-0.655-0.716-0.844-1.233c-0.189-0.518-0.261-1.098-0.202-1.633c 0.042-0.384, 0.152-0.742, 0.32-1.057 c-0.102-1.092-0.174-3.235, 1.229-4.798c 0.544-0.606, 1.232-1.042, 2.055-1.305C 12.754,4.073, 11.983,2.291, 9,2.291 c-4.818,0-3.866,4.646-3.834,5.324c-0.765,0.644-0.293,2.476, 0.473,2.476c 0.284,1.723, 1.59,3.004, 1.59,3.004 s-0.010,1.211-0.454,1.281C 5.343,14.602,0,16.938,0,19.5l 7.725,0 C 7.835,19.428, 7.948,19.356, 8.064,19.285z"></path></g></svg>