<?xml version="1.0" encoding="utf-8"?> <!-- Generator: IcoMoon.io --> <!DOCTYPE svg PUBLIC "-//W3C//DTD SVG 1.1//EN" "http://www.w3.org/Graphics/SVG/1.1/DTD/svg11.dtd"> <svg width="25.220722198486328" height="24.42609405517578" viewBox="0 0 25.220722198486328 24.42609405517578" xmlns="http://www.w3.org/2000/svg" xmlns:xlink="http://www.w3.org/1999/xlink" fill="#666666"><g><path d="M0,7.227l 0.975,1.278c0,0, 2.010-1.585, 2.68-0.792c 0.67,0.792, 3.228,10.358, 4.082,12.123 c 0.745,1.548, 2.801,3.593, 5.056,2.132c 2.253-1.461, 9.746-7.858, 11.087-15.413 c 1.34-7.552-9.017-5.97-10.114,0.61c 2.742-1.646, 4.206,0.669, 2.802,3.29 c-1.401,2.619-2.68,4.326-3.35,4.326c-0.669,0-1.183-1.752-1.95-4.815c-0.792-3.166-0.787-8.87-4.081-8.224 C 4.082,2.353,0,7.227,0,7.227z"></path></g></svg>