<?xml version="1.0" encoding="utf-8"?> <!-- Generator: IcoMoon.io --> <!DOCTYPE svg PUBLIC "-//W3C//DTD SVG 1.1//EN" "http://www.w3.org/Graphics/SVG/1.1/DTD/svg11.dtd"> <svg width="24" height="24" viewBox="0 0 24 24" xmlns="http://www.w3.org/2000/svg" xmlns:xlink="http://www.w3.org/1999/xlink" fill="#666666"><g><path d="M 12,0C 5.373,0,0,5.373,0,12s 5.373,12, 12,12s 12-5.373, 12-12S 18.627,0, 12,0z M 19.052,10.269 c-0.796,4.483-5.243,8.28-6.581,9.148c-1.338,0.867-2.558-0.347-3.001-1.265 c-0.507-1.048-2.025-6.725-2.423-7.196c-0.398-0.47-1.591,0.471-1.591,0.471l-0.579-0.759 c0,0, 2.423-2.893, 4.267-3.255c 1.955-0.384, 1.952,3.002, 2.422,4.881c 0.455,1.818, 0.76,2.858, 1.157,2.858 c 0.398,0, 1.157-1.014, 1.989-2.568c 0.833-1.556-0.036-2.93-1.663-1.952C 13.7,6.725, 19.847,5.786, 19.052,10.269z"></path></g></svg>