<?xml version="1.0" encoding="utf-8"?> <!-- Generator: IcoMoon.io --> <!DOCTYPE svg PUBLIC "-//W3C//DTD SVG 1.1//EN" "http://www.w3.org/Graphics/SVG/1.1/DTD/svg11.dtd"> <svg width="24" height="24" viewBox="0 0 24 24" xmlns="http://www.w3.org/2000/svg" xmlns:xlink="http://www.w3.org/1999/xlink" fill="#666666"><g><path d="M 10.035,1.498 C 10.316,1.498 10.5,1.776 10.5,2.297 L 10.5,21.703 C 10.5,22.224 10.316,22.502 10.035,22.502 C 9.857,22.502 9.64,22.39 9.406,22.156 L 3.75,16.5 L 0,16.5 L 0,7.5 L 3.75,7.5 L 9.406,1.844 C 9.64,1.61 9.857,1.498 10.035,1.498 ZM 24,13.5 L 19.5,13.5 L 19.5,18 L 16.5,18 L 16.5,13.5 L 12,13.5 L 12,10.5 L 16.5,10.5 L 16.5,6 L 19.5,6 L 19.5,10.5 L 24,10.5 Z"></path></g></svg>