<?xml version="1.0" encoding="utf-8"?> <!-- Generator: IcoMoon.io --> <!DOCTYPE svg PUBLIC "-//W3C//DTD SVG 1.1//EN" "http://www.w3.org/Graphics/SVG/1.1/DTD/svg11.dtd"> <svg width="24" height="24" viewBox="0 0 24 24" xmlns="http://www.w3.org/2000/svg" xmlns:xlink="http://www.w3.org/1999/xlink" fill="#666666"><g><path d="M 9.406,1.844 C 10.008,1.242 10.5,1.446 10.5,2.297 L 10.5,21.703 C 10.5,22.554 10.008,22.758 9.406,22.156 L 3.75,16.5 L 0,16.5 L 0,7.5 L 3.75,7.5 L 9.406,1.844 ZM 22.5,14.511 L 22.5,16.5 L 20.511,16.5 L 18,13.989 L 15.489,16.5 L 13.5,16.5 L 13.5,14.511 L 16.011,12 L 13.5,9.489 L 13.5,7.5 L 15.489,7.5 L 18,10.011 L 20.511,7.5 L 22.5,7.5 L 22.5,9.489 L 19.989,12 Z"></path></g></svg>