<?xml version="1.0" encoding="utf-8"?> <!-- Generator: IcoMoon.io --> <!DOCTYPE svg PUBLIC "-//W3C//DTD SVG 1.1//EN" "http://www.w3.org/Graphics/SVG/1.1/DTD/svg11.dtd"> <svg width="24" height="24" viewBox="0 0 24 24" xmlns="http://www.w3.org/2000/svg" xmlns:xlink="http://www.w3.org/1999/xlink" fill="#666666"><g><path d="M 12.868,17.368c-0.288,0-0.576-0.11-0.796-0.329c-0.439-0.439-0.439-1.152,0-1.591 c 1.901-1.901, 1.901-4.994,0-6.894c-0.439-0.439-0.439-1.152,0-1.591c 0.439-0.439, 1.152-0.439, 1.591,0 c 2.778,2.778, 2.778,7.298,0,10.076C 13.443,17.258, 13.156,17.368, 12.868,17.368zM 9.406,1.844 C 10.008,1.242 10.5,1.446 10.5,2.297 L 10.5,21.703 C 10.5,22.554 10.008,22.758 9.406,22.156 L 3.75,16.5 L 0,16.5 L 0,7.5 L 3.75,7.5 L 9.406,1.844 Z"></path></g></svg>