<?xml version="1.0" encoding="utf-8"?> <!-- Generator: IcoMoon.io --> <!DOCTYPE svg PUBLIC "-//W3C//DTD SVG 1.1//EN" "http://www.w3.org/Graphics/SVG/1.1/DTD/svg11.dtd"> <svg width="24.109405517578125" height="24.109405517578125" viewBox="0 0 24.109405517578125 24.109405517578125" xmlns="http://www.w3.org/2000/svg" xmlns:xlink="http://www.w3.org/1999/xlink" fill="#666666"><g><path d="M 6,4.5L 3,1.5L 1.5,1.5L 1.5,3L 4.5,6 zM 7.5,0L 9,0L 9,3L 7.5,3zM 13.5,7.5L 16.5,7.5L 16.5,9L 13.5,9zM 15,3L 15,1.5L 13.5,1.5L 10.5,4.5L 12,6 zM0,7.5L 3,7.5L 3,9L0,9zM 7.5,13.5L 9,13.5L 9,16.5L 7.5,16.5zM 1.5,13.5L 1.5,15L 3,15L 6,12L 4.5,10.5 zM 23.672,20.672L 8.763,5.763c-0.438-0.438-1.153-0.438-1.591,0L 5.763,7.172c-0.438,0.438-0.438,1.153,0,1.591L 20.672,23.672 c 0.438,0.438, 1.153,0.438, 1.591,0L 23.672,22.263C 24.109,21.825, 24.109,21.109, 23.672,20.672z M 11.25,12.75l-4.5-4.5l 1.5-1.5l 4.5,4.5L 11.25,12.75z"></path></g></svg>