<?xml version="1.0" encoding="utf-8"?> <!-- Generator: IcoMoon.io --> <!DOCTYPE svg PUBLIC "-//W3C//DTD SVG 1.1//EN" "http://www.w3.org/Graphics/SVG/1.1/DTD/svg11.dtd"> <svg width="24.91148567199707" height="24" viewBox="0 0 24.91148567199707 24" xmlns="http://www.w3.org/2000/svg" xmlns:xlink="http://www.w3.org/1999/xlink" fill="#666666"><g><path d="M 12,3.72 L 3.918,21 L 20.082,21 L 12,3.72 Z M 12,0 L 12,0 C 12.517,0 13.035,0.349 13.427,1.046 L 23.671,21.463 C 24.456,22.858 23.788,24 22.187,24 L 1.813,24 C 0.212,24 -0.456,22.858 0.329,21.463 L 10.573,1.046 C 10.965,0.349 11.483,0 12,0 ZM 10.5,18A1.5,1.5 2520 1 0 13.5,18A1.5,1.5 2520 1 0 10.5,18zM 12,9 C 12.828,9 13.5,9.672 13.5,10.5 L 13.031,15 L 10.969,15 L 10.5,10.5 C 10.5,9.672 11.172,9 12,9 Z"></path></g></svg>