<?xml version="1.0" encoding="utf-8"?> <!-- Generator: IcoMoon.io --> <!DOCTYPE svg PUBLIC "-//W3C//DTD SVG 1.1//EN" "http://www.w3.org/Graphics/SVG/1.1/DTD/svg11.dtd"> <svg width="24" height="24" viewBox="0 0 24 24" xmlns="http://www.w3.org/2000/svg" xmlns:xlink="http://www.w3.org/1999/xlink" fill="#666666"><g><path d="M 9.662,11.998c-1.118-0.575-2.205-0.866-3.232-0.866c-0.14,0-0.28,0.004-0.421,0.017 c-1.31,0.108-2.506,0.454-3.275,0.723c-0.204,0.075-0.413,0.154-0.629,0.242L0,19.411 c 1.446-0.535, 2.726-0.795, 3.897-0.795c 1.895,0, 3.27,0.708, 4.406,1.437c 0.538-1.826, 1.829-6.236, 2.214-7.554 C 10.237,12.327, 9.953,12.156, 9.662,11.998zM 12.383,13.853l-2.12,7.363c 0.629,0.36, 2.744,1.501, 4.364,1.501c 1.308,0, 2.772-0.335, 4.473-1.026 l 2.024-7.078c-1.374,0.443-2.692,0.668-3.925,0.668C 14.951,15.282, 13.376,14.553, 12.383,13.853zM 6.863,8.644c 1.807,0.019, 3.144,0.708, 4.252,1.418l 2.174-7.438c-0.458-0.262-1.66-0.916-2.528-1.139 c-0.572-0.133-1.172-0.202-1.809-0.202c-1.214,0.023-2.54,0.327-4.052,0.933l-2.073,7.28 c 1.519-0.573, 2.828-0.852, 4.033-0.852C 6.861,8.644, 6.863,8.644, 6.863,8.644zM 24,4.644c-1.378,0.535-2.724,0.808-4.008,0.808c-2.149,0-3.733-0.745-4.76-1.462L 13.076,11.448 c 1.447,0.931, 3.007,1.403, 4.643,1.403c 1.335,0, 2.717-0.321, 4.112-0.954l-0.004-0.052l 0.088-0.021L 24,4.644z"></path></g></svg>