<?xml version="1.0" encoding="utf-8"?> <!-- Generator: IcoMoon.io --> <!DOCTYPE svg PUBLIC "-//W3C//DTD SVG 1.1//EN" "http://www.w3.org/Graphics/SVG/1.1/DTD/svg11.dtd"> <svg width="24" height="24" viewBox="0 0 24 24" xmlns="http://www.w3.org/2000/svg" xmlns:xlink="http://www.w3.org/1999/xlink" fill="#666666"><g><path d="M 12,24c 6.627,0, 12-5.373, 12-12S 18.627,0, 12,0S0,5.373,0,12S 5.373,24, 12,24z M 12,2.25 c 5.385,0, 9.75,4.365, 9.75,9.75s-4.365,9.75-9.75,9.75S 2.25,17.385, 2.25,12S 6.615,2.25, 12,2.25zM 12.72,16.665 C 16.008,16.015 18.559,14.519 19.481,12.526 C 18.974,16.462 15.696,19.5 11.727,19.5 C 8.932,19.5 6.48,17.993 5.097,15.728 C 6.747,17.018 9.656,17.27 12.72,16.665 ZM 15,8.25A1.5,2.25 2520 1 0 18,8.25A1.5,2.25 2520 1 0 15,8.25zM 8.25,8.707 C 7.27,8.707 6.437,9.074 6.129,9.586 C 6.046,9.448 6,8.832 6,8.678 C 6,7.95 7.007,7.359 8.25,7.359 C 9.493,7.359 10.5,7.95 10.5,8.678 C 10.5,8.832 10.454,9.448 10.371,9.586 C 10.063,9.074 9.23,8.707 8.25,8.707 Z"></path></g></svg>