<?xml version="1.0" encoding="utf-8"?> <!-- Generator: IcoMoon.io --> <!DOCTYPE svg PUBLIC "-//W3C//DTD SVG 1.1//EN" "http://www.w3.org/Graphics/SVG/1.1/DTD/svg11.dtd"> <svg width="24" height="24" viewBox="0 0 24 24" xmlns="http://www.w3.org/2000/svg" xmlns:xlink="http://www.w3.org/1999/xlink" fill="#666666"><g><path d="M 12,0C 5.373,0,0,5.373,0,12c0,6.627, 5.373,12, 12,12c 6.627,0, 12-5.373, 12-12 C 24,5.373, 18.627,0, 12,0z M 16.5,6c 0.828,0, 1.5,1.007, 1.5,2.25s-0.672,2.25-1.5,2.25s-1.5-1.007-1.5-2.25S 15.672,6, 16.5,6z M 8.25,7.314c 1.398,0, 2.391,0.523, 2.391,1.343c0,0.173, 0.089,1.008-0.004,1.162c-0.348-0.576-1.285-0.989-2.387-0.989 s-2.039,0.413-2.387,0.989c-0.093-0.155-0.004-0.989-0.004-1.162C 5.859,7.837, 6.852,7.314, 8.25,7.314z M 11.727,19.5 c-2.795,0-5.247-1.507-6.63-3.772c 1.65,1.29, 4.559,1.542, 7.624,0.937c 3.287-0.649, 5.839-2.146, 6.761-4.139 C 18.974,16.462, 15.696,19.5, 11.727,19.5z"></path></g></svg>