<?xml version="1.0" encoding="utf-8"?> <!-- Generator: IcoMoon.io --> <!DOCTYPE svg PUBLIC "-//W3C//DTD SVG 1.1//EN" "http://www.w3.org/Graphics/SVG/1.1/DTD/svg11.dtd"> <svg width="24" height="24" viewBox="0 0 24 24" xmlns="http://www.w3.org/2000/svg" xmlns:xlink="http://www.w3.org/1999/xlink" fill="#666666"><g><path d="M 12,24c 6.627,0, 12-5.373, 12-12S 18.627,0, 12,0S0,5.373,0,12S 5.373,24, 12,24z M 12,2.25 c 5.385,0, 9.75,4.365, 9.75,9.75s-4.365,9.75-9.75,9.75S 2.25,17.385, 2.25,12S 6.615,2.25, 12,2.25zM 17.478,14.1L 18.005,15.9L 7.763,18.9L 7.236,17.101zM 6,7.5 C 6,6.672 6.672,6 7.5,6 C 8.328,6 9,6.672 9,7.5 C 9,8.328 8.328,9 7.5,9 C 6.672,9 6,8.328 6,7.5 Z M 15,7.5 C 15,6.672 15.672,6 16.5,6 C 17.328,6 18,6.672 18,7.5 C 18,8.328 17.328,9 16.5,9 C 15.672,9 15,8.328 15,7.5 Z"></path></g></svg>