<?xml version="1.0" encoding="utf-8"?> <!-- Generator: IcoMoon.io --> <!DOCTYPE svg PUBLIC "-//W3C//DTD SVG 1.1//EN" "http://www.w3.org/Graphics/SVG/1.1/DTD/svg11.dtd"> <svg width="24" height="24" viewBox="0 0 24 24" xmlns="http://www.w3.org/2000/svg" xmlns:xlink="http://www.w3.org/1999/xlink" fill="#666666"><g><path d="M 12,0C 5.373,0,0,5.373,0,12s 5.373,12, 12,12s 12-5.373, 12-12S 18.627,0, 12,0z M 16.5,6 c 0.828,0, 1.5,0.672, 1.5,1.5s-0.672,1.5-1.5,1.5s-1.5-0.672-1.5-1.5S 15.672,6, 16.5,6z M 6,7.5c0-0.828, 0.672-1.5, 1.5-1.5 s 1.5,0.672, 1.5,1.5s-0.672,1.5-1.5,1.5S 6,8.328, 6,7.5z M 7.764,18.9l-0.527-1.799l 10.242-3l 0.527,1.799L 7.764,18.9z"></path></g></svg>