<?xml version="1.0" encoding="utf-8"?> <!-- Generator: IcoMoon.io --> <!DOCTYPE svg PUBLIC "-//W3C//DTD SVG 1.1//EN" "http://www.w3.org/Graphics/SVG/1.1/DTD/svg11.dtd"> <svg width="24" height="24" viewBox="0 0 24 24" xmlns="http://www.w3.org/2000/svg" xmlns:xlink="http://www.w3.org/1999/xlink" fill="#666666"><g><path d="M 12.158,12.766 L 14.924,20.148 C 14.943,20.191 14.965,20.231 14.989,20.269 C 14.053,20.589 13.048,20.766 12,20.766 C 11.117,20.766 10.264,20.64 9.457,20.408 L 12.158,12.766 ZM 21,12 C 21,15.234 19.201,18.057 16.525,19.576 L 19.274,11.835 C 19.787,10.585 19.958,9.585 19.958,8.696 C 19.958,8.373 19.936,8.074 19.898,7.795 C 20.6,9.043 21,10.476 21,12 ZM 3,12 C 3,10.729 3.28,9.523 3.779,8.432 L 8.073,19.888 C 5.070,18.468 3,15.469 3,12 ZM 4.48,7.185 C 6.090,4.806 8.856,3.234 12,3.234 C 14.343,3.234 16.477,4.107 18.078,5.536 C 18.039,5.534 18.001,5.529 17.961,5.529 C 17.077,5.529 16.45,6.279 16.45,7.084 C 16.45,7.807 16.878,8.418 17.334,9.14 C 17.676,9.724 18.076,10.474 18.076,11.558 C 18.076,12.308 17.779,13.178 17.391,14.391 L 16.493,17.312 L 13.24,7.89 C 13.782,7.862 14.27,7.807 14.27,7.807 C 14.755,7.751 14.698,7.057 14.213,7.084 C 14.213,7.084 12.755,7.196 11.814,7.196 C 10.93,7.196 9.444,7.084 9.444,7.084 C 8.958,7.057 8.902,7.779 9.387,7.807 C 9.387,7.807 9.846,7.862 10.331,7.89 L 11.733,11.632 L 9.763,17.385 L 6.486,7.89 C 7.028,7.862 7.516,7.807 7.516,7.807 C 8,7.751 7.943,7.057 7.458,7.084 C 7.458,7.084 6.001,7.196 5.060,7.196 C 4.891,7.196 4.692,7.192 4.48,7.185 ZM 19.969,0L 4.031,0 C 1.814,0,0,1.814,0,4.031l0,15.938 c0,2.217, 1.814,4.031, 4.031,4.031l 15.938,0 c 2.217,0, 4.031-1.814, 4.031-4.031L 24,4.031 C 24,1.814, 22.186,0, 19.969,0z M 22.5,12 c0,5.799-4.701,10.5-10.5,10.5S 1.5,17.799, 1.5,12S 6.201,1.5, 12,1.5S 22.5,6.201, 22.5,12z"></path></g></svg>