<?xml version="1.0" encoding="utf-8"?> <!-- Generator: IcoMoon.io --> <!DOCTYPE svg PUBLIC "-//W3C//DTD SVG 1.1//EN" "http://www.w3.org/Graphics/SVG/1.1/DTD/svg11.dtd"> <svg width="24" height="24" viewBox="0 0 24 24" xmlns="http://www.w3.org/2000/svg" xmlns:xlink="http://www.w3.org/1999/xlink" fill="#666666"><g><path d="M 3,12c0,3.469, 2.070,6.468, 5.073,7.889L 3.779,8.432C 3.28,9.523, 3,10.729, 3,12zM 18.076,11.558c0-1.084-0.4-1.834-0.742-2.417c-0.456-0.722-0.884-1.333-0.884-2.056 c0-0.806, 0.627-1.556, 1.511-1.556c 0.040,0, 0.078,0.005, 0.117,0.007C 16.477,4.107, 14.343,3.234, 12,3.234 c-3.144,0-5.911,1.571-7.52,3.951c 0.211,0.007, 0.41,0.011, 0.579,0.011c 0.941,0, 2.399-0.111, 2.399-0.111 c 0.485-0.028, 0.542,0.666, 0.058,0.722c0,0-0.488,0.055-1.030,0.083l 3.277,9.495l 1.97-5.753l-1.402-3.742 c-0.485-0.028-0.944-0.083-0.944-0.083c-0.485-0.028-0.428-0.75, 0.057-0.722c0,0, 1.486,0.111, 2.37,0.111 c 0.941,0, 2.399-0.111, 2.399-0.111c 0.485-0.028, 0.542,0.666, 0.057,0.722c0,0-0.488,0.056-1.030,0.083L 16.493,17.312 l 0.898-2.921C 17.779,13.178, 18.076,12.308, 18.076,11.558zM 12.158,12.766l-2.701,7.642c 0.807,0.231, 1.659,0.357, 2.543,0.357c 1.048,0, 2.053-0.176, 2.989-0.497 c-0.024-0.038-0.046-0.077-0.064-0.121L 12.158,12.766zM 19.898,7.795c 0.039,0.279, 0.061,0.579, 0.061,0.901c0,0.889-0.171,1.889-0.684,3.139l-2.749,7.741 C 19.201,18.057, 21,15.234, 21,12C 21,10.476, 20.6,9.043, 19.898,7.795zM 12,0C 5.373,0,0,5.373,0,12s 5.373,12, 12,12s 12-5.373, 12-12S 18.627,0, 12,0z M 12,22.5 C 6.201,22.5, 1.5,17.799, 1.5,12S 6.201,1.5, 12,1.5s 10.5,4.701, 10.5,10.5S 17.799,22.5, 12,22.5z"></path></g></svg>