<?xml version="1.0" encoding="utf-8"?> <!-- Generator: IcoMoon.io --> <!DOCTYPE svg PUBLIC "-//W3C//DTD SVG 1.1//EN" "http://www.w3.org/Graphics/SVG/1.1/DTD/svg11.dtd"> <svg width="24.16781234741211" height="24.16776466369629" viewBox="0 0 24.16781234741211 24.16776466369629" xmlns="http://www.w3.org/2000/svg" xmlns:xlink="http://www.w3.org/1999/xlink" fill="#666666"><g><path d="M 23.506,19.169l-10.794-9.252C 13.215,8.972, 13.5,7.895, 13.5,6.75C 13.5,3.022, 10.478,0, 6.75,0 c-0.682,0-1.34,0.102-1.96,0.29l 3.9,3.9c 0.583,0.583, 0.583,1.538,0,2.121l-2.379,2.379 c-0.583,0.583-1.538,0.583-2.121,0L 0.29,4.79C 0.102,5.41,0,6.068,0,6.75c0,3.728, 3.022,6.75, 6.75,6.75 c 1.145,0, 2.222-0.285, 3.167-0.788l 9.252,10.794c 0.537,0.626, 1.454,0.662, 2.037,0.078l 2.379-2.379 C 24.168,20.622, 24.133,19.706, 23.506,19.169z"></path></g></svg>