<?xml version="1.0" encoding="utf-8"?> <!-- Generator: IcoMoon.io --> <!DOCTYPE svg PUBLIC "-//W3C//DTD SVG 1.1//EN" "http://www.w3.org/Graphics/SVG/1.1/DTD/svg11.dtd"> <svg width="24" height="24" viewBox="0 0 24 24" xmlns="http://www.w3.org/2000/svg" xmlns:xlink="http://www.w3.org/1999/xlink" fill="#666666"><g><path d="M 12,0C 5.373,0,0,5.373,0,12s 5.373,12, 12,12s 12-5.373, 12-12S 18.627,0, 12,0z M 8.097,15.010l-2.169,0 c-0.131,0-0.228-0.058-0.284-0.147c-0.057-0.093-0.060-0.212,0-0.332l 2.304-4.056c 0.002-0.004, 0.002-0.007,0-0.012l-1.466-2.532 c-0.061-0.12-0.070-0.239-0.012-0.332c 0.055-0.089, 0.165-0.135, 0.296-0.135l 2.169,0 c 0.333,0, 0.496,0.214, 0.604,0.406 c0,0, 1.482,2.579, 1.491,2.594c-0.088,0.154-2.341,4.13-2.341,4.13C 8.578,14.791, 8.422,15.010, 8.097,15.010z M 18.353,4.972L 13.551,13.441c-0.003,0.005-0.003,0.010,0,0.014l 3.058,5.572c 0.061,0.12, 0.062,0.242, 0.005,0.334 c-0.055,0.089-0.157,0.138-0.288,0.138l-2.166,0 c-0.332,0-0.498-0.22-0.606-0.412c0,0-3.074-5.625-3.082-5.639 c 0.154-0.271, 4.826-8.537, 4.826-8.537c 0.116-0.209, 0.257-0.412, 0.581-0.412l 2.191,0 c 0.131,0, 0.233,0.049, 0.288,0.138 C 18.414,4.731, 18.413,4.853, 18.353,4.972z"></path></g></svg>