<?xml version="1.0" encoding="utf-8"?> <!-- Generator: IcoMoon.io --> <!DOCTYPE svg PUBLIC "-//W3C//DTD SVG 1.1//EN" "http://www.w3.org/Graphics/SVG/1.1/DTD/svg11.dtd"> <svg width="24" height="24" viewBox="0 0 24 24" xmlns="http://www.w3.org/2000/svg" xmlns:xlink="http://www.w3.org/1999/xlink" fill="#666666"><g><path d="M 20,0L 4,0 C 1.8,0,0,1.8,0,4.001l0,15.999 C0,22.201, 1.8,24, 4,24l 16,0 C 22.2,24, 24,22.201, 24,19.999L 24,4.001 C 24,1.8, 22.2,0, 20,0z M 7.307,15.628l-2.608,0 c-0.157,0-0.274-0.071-0.341-0.178c-0.069-0.112-0.072-0.256,0-0.4l 2.771-4.89c 0.003-0.005, 0.003-0.009,0-0.015l-1.763-3.052 c-0.073-0.145-0.084-0.289-0.015-0.4c 0.066-0.108, 0.199-0.163, 0.356-0.163l 2.608,0 c 0.4,0, 0.596,0.258, 0.726,0.489 c0,0, 1.782,3.109, 1.793,3.126c-0.106,0.186-2.815,4.979-2.815,4.979C 7.885,15.365, 7.697,15.628, 7.307,15.628z M 19.639,3.528L 13.865,13.737c-0.004,0.005-0.004,0.012,0,0.017l 3.676,6.717c 0.073,0.145, 0.075,0.292, 0.005,0.403 c-0.066,0.107-0.189,0.167-0.346,0.167l-2.605,0 c-0.399,0-0.599-0.265-0.728-0.497c0,0-3.696-6.78-3.705-6.798 c 0.185-0.327, 5.803-10.29, 5.803-10.29c 0.14-0.251, 0.309-0.497, 0.698-0.497l 2.635,0 c 0.157,0, 0.28,0.059, 0.347,0.167 C 19.713,3.237, 19.711,3.384, 19.639,3.528z"></path></g></svg>