<?xml version="1.0" encoding="utf-8"?> <!-- Generator: IcoMoon.io --> <!DOCTYPE svg PUBLIC "-//W3C//DTD SVG 1.1//EN" "http://www.w3.org/Graphics/SVG/1.1/DTD/svg11.dtd"> <svg width="24" height="24" viewBox="0 0 24 24" xmlns="http://www.w3.org/2000/svg" xmlns:xlink="http://www.w3.org/1999/xlink" fill="#666666"><g><path d="M 19.875,15l-0.348-9.75C 19.512,4.837, 19.837,4.5, 20.25,4.5l 3,0 c 0.413,0, 0.691,0.332, 0.618,0.738L 22.125,15M 22.5,18.188c0,0.722-0.591,1.313-1.313,1.313l-0.375,0 c-0.722,0-1.313-0.591-1.313-1.313l0-0.375 c0-0.722, 0.591-1.313, 1.313-1.313l 0.375,0 c 0.722,0, 1.313,0.591, 1.313,1.313L 22.5,18.188 zM 9,4.5C 4.029,4.5,0,7.858,0,12c0,4.142, 4.029,7.5, 9,7.5c 4.971,0, 9-3.358, 9-7.5 C 18,7.858, 13.971,4.5, 9,4.5z M 15,10.5l-1.741,0 L 10.5,13.26L 10.5,15 l 2.25,0 l0,1.5 L 6.75,16.5 l0-1.5 l 2.25,0 l0-1.74 L 4.74,9L 3.755,9 l0-1.5 l 4.491,0 l0,1.5 L 7.26,9 L 9.75,11.49l 0.75-0.75L 10.5,9 l 4.5,0 L 15,10.5 z"></path></g></svg>