<?xml version="1.0" encoding="utf-8"?> <!-- Generator: IcoMoon.io --> <!DOCTYPE svg PUBLIC "-//W3C//DTD SVG 1.1//EN" "http://www.w3.org/Graphics/SVG/1.1/DTD/svg11.dtd"> <svg width="24" height="24.225656509399414" viewBox="0 0 24 24.225656509399414" xmlns="http://www.w3.org/2000/svg" xmlns:xlink="http://www.w3.org/1999/xlink" fill="#666666"><g><path d="M 14.271,15.316c-0.405,0.408-0.063,1.151-0.063,1.151l 3.049,5.091c0,0, 0.501,0.671, 0.934,0.671 c 0.436,0, 0.866-0.358, 0.866-0.358l 2.41-3.446c0,0, 0.243-0.435, 0.248-0.815c 0.009-0.542-0.808-0.69-0.808-0.69 l-5.707-1.833C 15.202,15.088, 14.643,14.94, 14.271,15.316zM 13.981,12.75c 0.292,0.495, 1.098,0.351, 1.098,0.351l 5.694-1.664c0,0, 0.776-0.316, 0.887-0.736 c 0.109-0.421-0.128-0.929-0.128-0.929l-2.721-3.205c0,0-0.236-0.405-0.725-0.446c-0.539-0.046-0.871,0.607-0.871,0.607 l-3.217,5.063C 13.996,11.79, 13.712,12.294, 13.981,12.75zM 11.291,10.776c 0.67-0.165, 0.777-1.139, 0.777-1.139l-0.046-8.106c0,0-0.101-1-0.55-1.271 c-0.705-0.428-0.914-0.204-1.116-0.174L 5.629,1.841c0,0-0.463,0.153-0.704,0.539c-0.344,0.547, 0.35,1.349, 0.35,1.349 L 10.189,10.427C 10.189,10.427, 10.673,10.928, 11.291,10.776zM 10.124,14.056c 0.017-0.625-0.751-1.001-0.751-1.001L 4.292,10.489c0,0-0.753-0.31-1.118-0.094 c-0.28,0.165-0.528,0.465-0.552,0.73l-0.331,4.074c0,0-0.050,0.706, 0.133,1.027c 0.259,0.456, 1.112,0.138, 1.112,0.138 l 5.932-1.311C 9.697,14.897, 10.101,14.883, 10.124,14.056zM 11.599,16.255c-0.509-0.261-1.119,0.28-1.119,0.28l-3.972,4.373c0,0-0.496,0.669-0.37,1.079 c 0.119,0.385, 0.315,0.576, 0.593,0.711l 3.989,1.259c0,0, 0.484,0.1, 0.85-0.006c 0.52-0.151, 0.424-0.965, 0.424-0.965 l 0.090-5.92C 12.085,17.066, 12.065,16.496, 11.599,16.255z"></path></g></svg>