<?xml version="1.0" encoding="utf-8"?> <!-- Generator: IcoMoon.io --> <!DOCTYPE svg PUBLIC "-//W3C//DTD SVG 1.1//EN" "http://www.w3.org/Graphics/SVG/1.1/DTD/svg11.dtd"> <svg width="24" height="24" viewBox="0 0 24 24" xmlns="http://www.w3.org/2000/svg" xmlns:xlink="http://www.w3.org/1999/xlink" fill="#666666"><g><path d="M 19.5,3L 4.5,3 c-2.475,0-4.5,2.025-4.5,4.5l0,9 c0,2.475, 2.025,4.5, 4.5,4.5l 15,0 c 2.475,0, 4.5-2.025, 4.5-4.5L 24,7.5 C 24,5.025, 21.975,3, 19.5,3z M 22.5,16.5c0,0.796-0.313,1.548-0.883,2.117C 21.048,19.187, 20.296,19.5, 19.5,19.5L 4.5,19.5 c-0.796,0-1.548-0.313-2.117-0.883 C 1.813,18.048, 1.5,17.296, 1.5,16.5L 1.5,7.5 c0-0.796, 0.313-1.548, 0.883-2.117S 3.704,4.5, 4.5,4.5l 15,0 c 0.796,0, 1.548,0.313, 2.117,0.883C 22.187,5.952, 22.5,6.704, 22.5,7.5L 22.5,16.5 zM 9,18L 16.5,12L 9,6 z"></path></g></svg>