<?xml version="1.0" encoding="utf-8"?> <!-- Generator: IcoMoon.io --> <!DOCTYPE svg PUBLIC "-//W3C//DTD SVG 1.1//EN" "http://www.w3.org/Graphics/SVG/1.1/DTD/svg11.dtd"> <svg width="24.253456115722656" height="24.25345230102539" viewBox="0 0 24.253456115722656 24.25345230102539" xmlns="http://www.w3.org/2000/svg" xmlns:xlink="http://www.w3.org/1999/xlink" fill="#666666"><g><path d="M 23.256,20.423L 17.571,15.588c-0.588-0.529-1.216-0.772-1.724-0.748C 17.189,13.268, 18,11.229, 18,9 C 18,4.029, 13.971,0, 9,0C 4.029,0,0,4.029,0,9c0,4.971, 4.029,9, 9,9c 2.229,0, 4.268-0.811, 5.84-2.153 c-0.023,0.508, 0.219,1.136, 0.748,1.724l 4.835,5.685c 0.828,0.92, 2.18,0.997, 3.005,0.172S 24.176,21.251, 23.256,20.423 z M 9,15c-3.314,0-6-2.686-6-6S 5.686,3, 9,3s 6,2.686, 6,6S 12.314,15, 9,15zM 4.5,7.5L 13.5,7.5L 13.5,10.5L 4.5,10.5z"></path></g></svg>