<!-- Generator: Adobe Illustrator 20.1.0, SVG Export Plug-In  -->
<svg version="1.1"
	 xmlns="http://www.w3.org/2000/svg" xmlns:xlink="http://www.w3.org/1999/xlink" xmlns:a="http://ns.adobe.com/AdobeSVGViewerExtensions/3.0/"
	 x="0px" y="0px" width="762.9px" height="187.7px" viewBox="0 0 762.9 187.7" style="enable-background:new 0 0 762.9 187.7;"
	 xml:space="preserve">
<style type="text/css">
	.st0{fill:#D0D5D6;}
	.st1{fill:#F7F7F7;}
	.st2{fill:#23282D;}
	.st3{fill:#003948;}
</style>
<defs>
</defs>
<path class="st0" d="M761.3,147.4c0,14.7-5.1,28.1-13.6,38.8H534.3c-0.1-0.2-0.2-0.4-0.4-0.5h-24.4c-0.1,0.2-0.2,0.4-0.3,0.5h-216
	c-0.1-0.2-0.2-0.4-0.3-0.5h-17.2c-0.1,0.2-0.2,0.4-0.3,0.5H20.2c-3.4-8.8-5.4-18.4-5.4-28.4c0-43.1,34.9-78,78-78
	c13.7,0,26.6,3.6,37.8,9.8c15.8-21.8,41.5-35.9,70.5-35.9c11.8,0,23,2.3,33.3,6.6c9-16,26.1-26.8,45.8-26.8
	c12.2,0,23.3,4.1,32.3,11.1C334.7,21,366.3,6.3,401.3,6.3c37,0,70.2,16.5,92.7,42.5c8.3-5.5,18.3-8.7,29-8.7
	c20.5,0,38.3,11.8,46.9,29c8.8-3.4,18.4-5.4,28.4-5.4c26.7,0,50.2,13.4,64.3,33.9c10.3-7.6,23-12.1,36.7-12.1
	C733.6,85.4,761.3,113.2,761.3,147.4z M582.3,14.6c-7.7,0-13.9,6.2-13.9,13.9c0,7.7,6.2,13.9,13.9,13.9c7.7,0,13.9-6.2,13.9-13.9
	C596.2,20.8,590,14.6,582.3,14.6z M550.6,10.2c-4.7,0-8.4,3.8-8.4,8.4s3.8,8.4,8.4,8.4c4.7,0,8.4-3.8,8.4-8.4S555.2,10.2,550.6,10.2
	z M219.3,20.1c-4.7,0-8.4,3.8-8.4,8.4s3.8,8.4,8.4,8.4c4.7,0,8.4-3.8,8.4-8.4S223.9,20.1,219.3,20.1z M47.4,57.9
	c-5.9,0-10.6,4.8-10.6,10.6c0,5.9,4.8,10.6,10.6,10.6c5.9,0,10.6-4.8,10.6-10.6C58.1,62.7,53.3,57.9,47.4,57.9z M71,55.3
	c-2.8,0-5.1,2.3-5.1,5.1s2.3,5.1,5.1,5.1c2.8,0,5.1-2.3,5.1-5.1S73.9,55.3,71,55.3z"/>
<g>
	<g>
		<path class="st1" d="M89,112v69.4c0,2.7,2.2,4.9,4.9,4.9h5.1v-79.1h-5.1C91.1,107.1,89,109.3,89,112z"/>
		<path class="st2" d="M98.9,187.7h-5.1c-3.5,0-6.4-2.9-6.4-6.4V112c0-3.5,2.9-6.4,6.4-6.4h5.1c0.8,0,1.5,0.7,1.5,1.5v79.1
			C100.4,187,99.8,187.7,98.9,187.7z M93.8,108.6c-1.9,0-3.4,1.5-3.4,3.4v69.4c0,1.9,1.5,3.4,3.4,3.4h3.6v-76.1H93.8z"/>
	</g>
	<g>
		<path class="st1" d="M131.8,186.2c2.7,0,4.9-2.2,4.9-4.9V112c0-2.7-2.2-4.9-4.9-4.9h-23.7v79.1H131.8z"/>
		<path class="st2" d="M131.8,187.7h-23.7c-0.8,0-1.5-0.7-1.5-1.5v-79.1c0-0.8,0.7-1.5,1.5-1.5h23.7c3.5,0,6.4,2.9,6.4,6.4v69.4
			C138.2,184.9,135.3,187.7,131.8,187.7z M109.6,184.7h22.2c1.9,0,3.4-1.5,3.4-3.4V112c0-1.9-1.5-3.4-3.4-3.4h-22.2V184.7z"/>
	</g>
	<g>
		<rect x="98.9" y="107.1" class="st0" width="9.1" height="79.1"/>
		<path class="st2" d="M108.1,187.7h-9.1c-0.8,0-1.5-0.7-1.5-1.5v-79.1c0-0.8,0.7-1.5,1.5-1.5h9.1c0.8,0,1.5,0.7,1.5,1.5v79.1
			C109.6,187,108.9,187.7,108.1,187.7z M100.4,184.7h6.1v-76.1h-6.1V184.7z"/>
	</g>
	<g>
		<circle class="st0" cx="123.5" cy="122.4" r="7.6"/>
		<path class="st2" d="M123.5,131.5c-5,0-9.1-4.1-9.1-9.1c0-5,4.1-9.1,9.1-9.1c5,0,9.1,4.1,9.1,9.1
			C132.6,127.4,128.5,131.5,123.5,131.5z M123.5,116.3c-3.4,0-6.1,2.8-6.1,6.1c0,3.4,2.7,6.1,6.1,6.1c3.4,0,6.1-2.7,6.1-6.1
			C129.6,119,126.9,116.3,123.5,116.3z"/>
	</g>
	<rect x="114.9" y="172.1" class="st2" width="3" height="8.2"/>
	<rect x="114.9" y="160.5" class="st2" width="3" height="8.2"/>
	<rect x="114.9" y="148.9" class="st2" width="3" height="8.2"/>
	<rect x="114.9" y="137.4" class="st2" width="3" height="8.2"/>
	<rect x="122" y="153.2" class="st2" width="3" height="27.1"/>
	<rect x="127.5" y="169.3" class="st2" width="3" height="11.1"/>
</g>
<g>
	<g>
		<polygon class="st1" points="462.7,33.2 459,38.2 460.7,44.2 455.6,47.7 455.1,53.9 449.1,55.4 446.6,61.1 440.4,60.4 436.1,64.9 
			430.5,62.1 424.9,64.9 420.6,60.4 414.4,61.1 411.9,55.4 405.9,53.9 405.4,47.7 400.3,44.2 402,38.2 398.3,33.2 402,28.2 
			400.3,22.2 405.4,18.7 405.9,12.5 411.9,11 414.4,5.3 420.6,6 424.9,1.5 430.5,4.2 436.1,1.5 440.4,6 446.6,5.3 449.1,11 
			455.1,12.5 455.6,18.7 460.7,22.2 459,28.2 		"/>
		<path class="st2" d="M424.9,66.4c-0.4,0-0.8-0.2-1.1-0.5L420,62l-5.5,0.6c-0.6,0.1-1.3-0.3-1.5-0.9l-2.2-5l-5.3-1.3
			c-0.6-0.2-1.1-0.7-1.1-1.4l-0.4-5.5l-4.6-3.1c-0.5-0.4-0.8-1-0.6-1.7l1.5-5.3l-3.2-4.4c-0.4-0.5-0.4-1.2,0-1.8l3.2-4.4l-1.5-5.3
			c-0.2-0.6,0.1-1.3,0.6-1.7l4.6-3.1l0.4-5.5c0-0.6,0.5-1.2,1.1-1.3l5.3-1.3l2.2-5c0.3-0.6,0.9-0.9,1.5-0.9l5.5,0.6l3.8-3.9
			c0.5-0.5,1.2-0.6,1.7-0.3l4.9,2.4l4.9-2.4c0.6-0.3,1.3-0.2,1.7,0.3l3.8,3.9l5.5-0.6c0.6-0.1,1.3,0.3,1.5,0.9l2.2,5l5.3,1.3
			c0.6,0.2,1.1,0.7,1.1,1.4l0.4,5.5l4.5,3.1c0.5,0.4,0.8,1,0.6,1.7l-1.5,5.3l3.2,4.4c0.4,0.5,0.4,1.2,0,1.8l-3.2,4.4l1.5,5.3
			c0.2,0.6-0.1,1.3-0.6,1.7l-4.5,3.1l-0.4,5.5c0,0.6-0.5,1.2-1.1,1.4l-5.3,1.3l-2.2,5c-0.3,0.6-0.9,0.9-1.5,0.9L441,62l-3.8,3.9
			c-0.5,0.5-1.2,0.6-1.7,0.3l-4.9-2.4l-4.9,2.4C425.4,66.3,425.1,66.4,424.9,66.4z M430.5,60.6c0.2,0,0.5,0.1,0.7,0.2l4.6,2.3
			l3.6-3.7c0.3-0.3,0.8-0.5,1.2-0.5l5.1,0.5l2.1-4.7c0.2-0.4,0.6-0.7,1-0.8l5-1.2l0.4-5.1c0-0.5,0.3-0.9,0.7-1.1l4.3-2.9l-1.4-4.9
			c-0.1-0.4,0-0.9,0.2-1.3l3-4.1l-3-4.2c-0.3-0.4-0.4-0.9-0.2-1.3l1.4-4.9l-4.3-2.9c-0.4-0.3-0.6-0.7-0.7-1.1l-0.4-5.1l-5-1.2
			c-0.4-0.1-0.8-0.4-1-0.8l-2.1-4.7l-5.1,0.5c-0.5,0-0.9-0.1-1.2-0.5l-3.6-3.7l-4.6,2.3c-0.4,0.2-0.9,0.2-1.3,0l-4.6-2.3L421.7,7
			c-0.3,0.3-0.8,0.5-1.2,0.5l-5.1-0.5l-2.1,4.7c-0.2,0.4-0.6,0.7-1,0.8l-5,1.2l-0.4,5.1c0,0.5-0.3,0.9-0.7,1.1l-4.3,2.9l1.4,4.9
			c0.1,0.4,0,0.9-0.2,1.3l-3,4.2l3,4.1c0.3,0.4,0.4,0.9,0.2,1.3l-1.4,4.9l4.3,2.9c0.4,0.3,0.6,0.7,0.7,1.1l0.4,5.1l5,1.2
			c0.4,0.1,0.8,0.4,1,0.8l2.1,4.7l5.1-0.5c0.5,0,0.9,0.1,1.2,0.5l3.6,3.7l4.6-2.3C430,60.7,430.3,60.6,430.5,60.6z"/>
	</g>
	<g>
		<polygon class="st0" points="440.4,60.4 436.1,64.9 430.5,62.1 424.9,64.9 420.6,60.4 415.2,61 415.2,83.5 430.5,75.6 445.8,83.5 
			445.8,61 		"/>
		<path class="st2" d="M415.2,85c-0.3,0-0.5-0.1-0.8-0.2c-0.4-0.3-0.7-0.8-0.7-1.3V61c0-0.8,0.6-1.4,1.3-1.5l5.4-0.6
			c0.5,0,0.9,0.1,1.2,0.5l3.6,3.7l4.6-2.3c0.4-0.2,0.9-0.2,1.3,0l4.6,2.3l3.6-3.7c0.3-0.3,0.8-0.5,1.2-0.5l5.4,0.6
			c0.8,0.1,1.3,0.7,1.3,1.5v22.5c0,0.5-0.3,1-0.7,1.3c-0.4,0.3-1,0.3-1.5,0.1l-14.6-7.5l-14.6,7.5C415.7,84.9,415.4,85,415.2,85z
			 M416.7,62.3V81l13.1-6.7c0.4-0.2,0.9-0.2,1.4,0l13.1,6.7V62.3L441,62l-3.8,3.9c-0.5,0.5-1.2,0.6-1.7,0.3l-4.9-2.4l-4.9,2.4
			c-0.6,0.3-1.3,0.2-1.7-0.3L420,62L416.7,62.3z"/>
	</g>
	<path class="st2" d="M407.5,43.1c-1.4-3.2-2.1-6.5-2.1-10c0-13.8,11.2-25,25-25c7.1,0,13.9,3,18.6,8.3l-2.2,2
		c-4.2-4.6-10.1-7.3-16.4-7.3c-12.1,0-22,9.9-22,22c0,3,0.6,6,1.8,8.8L407.5,43.1z"/>
	<path class="st2" d="M413.7,51.7c-1.9-1.7-3.5-3.6-4.7-5.8l2.6-1.5c1.1,1.9,2.5,3.6,4.2,5.1L413.7,51.7z"/>
	<path class="st2" d="M430.5,58.2c-5,0-9.8-1.5-14-4.2l1.7-2.5c3.6,2.4,7.9,3.7,12.3,3.7c10.7,0,19.8-7.6,21.7-18.1l3,0.5
		C453,49.6,442.6,58.2,430.5,58.2z"/>
	<path class="st2" d="M451.8,27.4c-0.6-2.3-1.6-4.5-2.9-6.4l2.5-1.7c1.5,2.2,2.6,4.7,3.3,7.3L451.8,27.4z"/>
	<path class="st3" d="M416.6,26.4h2l3.2,8.9h0v-8.9h2.1v14.8h-2l-3.2-8.9h0v8.9h-2.1V26.4z"/>
	<path class="st3" d="M426.8,26.4h6.3v2h-4.2v4.3h3.7v2h-3.7v4.3h4.2v2.1h-6.3V26.4z"/>
	<path class="st3" d="M444,41.2h-2l-1.6-9.6h0l-1.6,9.6h-2l-2.2-14.8h2.2l1.1,9.4h0l1.7-9.4h1.6l1.7,9.6h0l1-9.6h2.2L444,41.2z"/>
</g>
<g>
	<g>
		<rect x="646.2" y="93.2" class="st0" width="74.7" height="63.5"/>
		<path class="st2" d="M720.9,158.1h-74.7c-0.8,0-1.5-0.7-1.5-1.5V93.2c0-0.8,0.7-1.5,1.5-1.5h74.7c0.8,0,1.5,0.7,1.5,1.5v63.5
			C722.4,157.5,721.7,158.1,720.9,158.1z M647.7,155.1h71.7V94.7h-71.7V155.1z"/>
	</g>
	<g>
		<path class="st0" d="M753.1,174.3c0,6.6-5.3,11.9-11.9,11.9c-6.6,0-11.9-5.3-11.9-11.9c0-6.6,5.3-11.9,11.9-11.9
			C747.7,162.3,753.1,167.7,753.1,174.3z M666.5,162.3c-6.6,0-11.9,5.3-11.9,11.9c0,6.6,5.3,11.9,11.9,11.9
			c6.6,0,11.9-5.3,11.9-11.9C678.4,167.7,673,162.3,666.5,162.3z"/>
		<path class="st2" d="M741.2,187.7c-7.4,0-13.4-6-13.4-13.4c0-7.4,6-13.4,13.4-13.4c7.4,0,13.4,6,13.4,13.4
			C754.6,181.6,748.5,187.7,741.2,187.7z M741.2,163.8c-5.7,0-10.4,4.7-10.4,10.4c0,5.7,4.7,10.4,10.4,10.4
			c5.7,0,10.4-4.7,10.4-10.4C751.6,168.5,746.9,163.8,741.2,163.8z M666.5,187.7c-7.4,0-13.4-6-13.4-13.4c0-7.4,6-13.4,13.4-13.4
			c7.4,0,13.4,6,13.4,13.4C679.9,181.6,673.9,187.7,666.5,187.7z M666.5,163.8c-5.7,0-10.4,4.7-10.4,10.4c0,5.7,4.7,10.4,10.4,10.4
			c5.7,0,10.4-4.7,10.4-10.4C676.9,168.5,672.2,163.8,666.5,163.8z"/>
	</g>
	<g>
		<path class="st1" d="M741.2,113.4h-20.3v43.2h-74.7v17.6h8.4c0-6.6,5.3-11.9,11.9-11.9c6.6,0,11.9,5.3,11.9,11.9h42.5h8.4
			c0-6.6,5.3-11.9,11.9-11.9c6.6,0,11.9,5.3,11.9,11.9h8.4v-40.5L741.2,113.4z"/>
		<path class="st2" d="M761.4,175.8h-8.4c-0.8,0-1.5-0.7-1.5-1.5c0-5.7-4.7-10.4-10.4-10.4c-5.7,0-10.4,4.7-10.4,10.4
			c0,0.8-0.7,1.5-1.5,1.5h-50.9c-0.8,0-1.5-0.7-1.5-1.5c0-5.7-4.7-10.4-10.4-10.4c-5.7,0-10.4,4.7-10.4,10.4c0,0.8-0.7,1.5-1.5,1.5
			h-8.4c-0.8,0-1.5-0.7-1.5-1.5v-17.6c0-0.8,0.7-1.5,1.5-1.5h73.2v-41.7c0-0.8,0.7-1.5,1.5-1.5h20.3c0.4,0,0.8,0.2,1.1,0.4
			l20.3,20.3c0.3,0.3,0.4,0.7,0.4,1.1v40.5C762.9,175.1,762.3,175.8,761.4,175.8z M754.5,172.8h5.4v-38.4l-19.4-19.4h-18.2v41.7
			c0,0.8-0.7,1.5-1.5,1.5h-73.2v14.6h5.5c0.7-6.7,6.4-11.9,13.3-11.9c6.9,0,12.6,5.2,13.3,11.9h48c0.7-6.7,6.4-11.9,13.3-11.9
			C748,160.8,753.7,166.1,754.5,172.8z"/>
	</g>
	<path class="st2" d="M754,149.1h-25.6c-0.8,0-1.5-0.7-1.5-1.5v-26.7c0-0.8,0.7-1.5,1.5-1.5h9.7c0.4,0,0.8,0.2,1.1,0.4l15.9,15.9
		c0.3,0.3,0.4,0.7,0.4,1.1v10.8C755.5,148.4,754.8,149.1,754,149.1z M729.9,146.1h22.6v-8.7l-15-15h-7.6V146.1z"/>
	<path class="st2" d="M741.2,179.1c-2.7,0-4.9-2.2-4.9-4.9c0-2.7,2.2-4.9,4.9-4.9c2.7,0,4.9,2.2,4.9,4.9
		C746,176.9,743.8,179.1,741.2,179.1z M741.2,172.4c-1,0-1.9,0.8-1.9,1.9c0,1,0.8,1.9,1.9,1.9c1,0,1.9-0.8,1.9-1.9
		C743,173.2,742.2,172.4,741.2,172.4z"/>
	<rect x="753.8" y="155.1" class="st2" width="7.6" height="3"/>
	<path class="st2" d="M666.5,179.1c-2.7,0-4.9-2.2-4.9-4.9c0-2.7,2.2-4.9,4.9-4.9c2.7,0,4.9,2.2,4.9,4.9
		C671.3,176.9,669.2,179.1,666.5,179.1z M666.5,172.4c-1,0-1.9,0.8-1.9,1.9c0,1,0.8,1.9,1.9,1.9c1,0,1.9-0.8,1.9-1.9
		C668.3,173.2,667.5,172.4,666.5,172.4z"/>
	<rect x="656.1" y="137.7" class="st2" width="20.3" height="3"/>
	<rect x="656.1" y="144.3" class="st2" width="14.1" height="3"/>
	<g>
		<polygon class="st1" points="707.7,117.7 688,101.9 688,109.8 646.2,109.8 646.2,125.6 688,125.6 688,133.4 		"/>
		<path class="st2" d="M688,134.9c-0.2,0-0.4,0-0.6-0.1c-0.5-0.2-0.9-0.8-0.9-1.4v-6.3h-40.3c-0.8,0-1.5-0.7-1.5-1.5v-15.8
			c0-0.8,0.7-1.5,1.5-1.5h40.3v-6.3c0-0.6,0.3-1.1,0.9-1.4c0.5-0.3,1.1-0.2,1.6,0.2l19.7,15.8c0.4,0.3,0.6,0.7,0.6,1.2
			c0,0.5-0.2,0.9-0.6,1.2l-19.7,15.8C688.7,134.8,688.3,134.9,688,134.9z M647.7,124.1H688c0.8,0,1.5,0.7,1.5,1.5v4.7l15.8-12.6
			L689.5,105v4.7c0,0.8-0.7,1.5-1.5,1.5h-40.3V124.1z"/>
	</g>
</g>
<g>
	<g>
		<path class="st1" d="M511.9,33.5c-0.6-1.1-2-1.9-3.2-1.9h-15c-1.2,0-2.7,0.9-3.2,1.9l-5.2,9.4c-0.6,1.1-1.1,2.9-1.1,4.1v27.5
			c0,1.2,1,2.2,2.2,2.2h29.6c1.2,0,2.2-1,2.2-2.2V47.1c0-1.2-0.5-3-1.1-4.1L511.9,33.5z"/>
		<path class="st2" d="M515.9,78.2h-29.6c-2,0-3.7-1.7-3.7-3.7V47.1c0-1.5,0.5-3.5,1.2-4.8l5.2-9.4c0.8-1.5,2.8-2.7,4.6-2.7h15
			c1.8,0,3.7,1.2,4.6,2.7l5.2,9.4c0.7,1.3,1.2,3.4,1.2,4.8v27.5C519.6,76.6,517.9,78.2,515.9,78.2z M493.6,33.1
			c-0.7,0-1.6,0.6-1.9,1.1l-5.2,9.4c-0.5,0.8-0.9,2.4-0.9,3.4v27.5c0,0.4,0.3,0.7,0.7,0.7h29.6c0.4,0,0.7-0.3,0.7-0.7V47.1
			c0-0.9-0.4-2.6-0.9-3.4l-5.2-9.4c-0.3-0.6-1.3-1.1-1.9-1.1H493.6z"/>
	</g>
	<g>
		<circle class="st0" cx="501.3" cy="59.4" r="11.1"/>
		<path class="st2" d="M501.3,72c-6.9,0-12.6-5.6-12.6-12.6c0-6.9,5.6-12.6,12.6-12.6c6.9,0,12.6,5.6,12.6,12.6
			C513.8,66.3,508.2,72,501.3,72z M501.3,49.8c-5.3,0-9.6,4.3-9.6,9.6c0,5.3,4.3,9.6,9.6,9.6c5.3,0,9.6-4.3,9.6-9.6
			C510.8,54.1,506.5,49.8,501.3,49.8z"/>
	</g>
	<rect x="499.6" y="18.2" class="st2" width="3" height="18.8"/>
	
		<rect x="494.8" y="57.9" transform="matrix(0.7071 -0.7071 0.7071 0.7071 104.7953 371.831)" class="st2" width="12.9" height="3"/>
	<circle class="st3" cx="497.8" cy="55.9" r="1.4"/>
	<circle class="st3" cx="504.7" cy="62.9" r="1.4"/>
</g>
<g>
	<g>
		<rect x="454.3" y="92" class="st1" width="66.7" height="94.2"/>
		<path class="st2" d="M521,187.7h-66.7c-0.8,0-1.5-0.7-1.5-1.5V92c0-0.8,0.7-1.5,1.5-1.5H521c0.8,0,1.5,0.7,1.5,1.5v94.2
			C522.5,187,521.8,187.7,521,187.7z M455.8,184.7h63.7V93.5h-63.7V184.7z"/>
	</g>
	<g>
		<rect x="521" y="92" class="st0" width="23.8" height="94.2"/>
		<path class="st2" d="M544.8,187.7H521c-0.8,0-1.5-0.7-1.5-1.5V92c0-0.8,0.7-1.5,1.5-1.5h23.8c0.8,0,1.5,0.7,1.5,1.5v94.2
			C546.3,187,545.6,187.7,544.8,187.7z M522.5,184.7h20.8V93.5h-20.8V184.7z"/>
	</g>
	<path class="st2" d="M544.8,187.7h-23.6c-0.6,0-1.2-0.4-1.4-0.9c-0.2-0.6-0.1-1.2,0.3-1.6l11.8-12c0.6-0.6,1.6-0.6,2.1,0l11.8,12
		c0.4,0.4,0.5,1.1,0.3,1.6C545.9,187.3,545.4,187.7,544.8,187.7z M524.7,184.7h16.5l-8.2-8.4L524.7,184.7z"/>
	<rect x="531.3" y="92" class="st2" width="3" height="82.2"/>
	<path class="st2" d="M486.6,143.1c-10.8,0-19.6-8.8-19.6-19.6v-20.1h3v20.1c0,9.2,7.5,16.6,16.6,16.6c9.2,0,16.6-7.5,16.6-16.6
		v-20.1h3v20.1C506.3,134.3,497.5,143.1,486.6,143.1z"/>
</g>
<g>
	<g>
		<path class="st1" d="M251.7,132.3c-4.2,0-7.7-3.3-7.9-7.5h0c-0.2,4.2-3.7,7.5-7.9,7.5c-4.2,0-7.7-3.3-7.9-7.5h0
			c-0.2,4.2-3.7,7.5-7.9,7.5c-4.2,0-7.7-3.3-7.9-7.5h0c-0.2,4.2-3.7,7.5-7.9,7.5c-4.2,0-7.7-3.3-7.9-7.5h0c-0.2,4.2-3.7,7.5-7.9,7.5
			c-4.2,0-7.7-3.3-7.9-7.5h0c-0.2,4.2-3.7,7.5-7.9,7.5c-4.2,0-7.7-3.3-7.9-7.5h0c-0.2,4.2-3.7,7.5-7.9,7.5c-4.2,0-7.7-3.3-7.9-7.5h0
			v61.3h110.6v-61.3h0C259.3,129,255.9,132.3,251.7,132.3z"/>
		<path class="st2" d="M259.6,187.7H148.9c-0.8,0-1.5-0.7-1.5-1.5v-61.3c0-0.8,0.7-1.5,1.5-1.5c0.8,0,1.5,0.6,1.5,1.4
			c0.2,3.4,3,6,6.4,6c3.4,0,6.2-2.7,6.4-6c0-0.8,0.7-1.4,1.5-1.4c0.8,0,1.5,0.6,1.5,1.4c0.2,3.4,3,6,6.4,6c3.4,0,6.2-2.7,6.4-6
			c0-0.8,0.7-1.4,1.5-1.4c0.8,0,1.5,0.6,1.5,1.4c0.2,3.4,3,6,6.4,6c3.4,0,6.2-2.7,6.4-6c0-0.8,0.7-1.4,1.5-1.4
			c0.8,0,1.5,0.6,1.5,1.4c0.2,3.4,3,6,6.4,6c3.4,0,6.2-2.7,6.4-6c0-0.8,0.7-1.4,1.5-1.4c0.8,0,1.5,0.6,1.5,1.4c0.2,3.4,3,6,6.4,6
			c3.4,0,6.2-2.7,6.4-6c0-0.8,0.7-1.4,1.5-1.4c0.8,0,1.5,0.6,1.5,1.4c0.2,3.4,3,6,6.4,6c3.4,0,6.2-2.7,6.4-6c0-0.8,0.7-1.4,1.5-1.4
			c0.8,0,1.5,0.6,1.5,1.4c0.2,3.4,3,6,6.4,6c3.4,0,6.2-2.7,6.4-6c0-0.8,0.7-1.4,1.5-1.4c0.8,0,1.5,0.7,1.5,1.5v61.3
			C261.1,187,260.4,187.7,259.6,187.7z M150.4,184.7h107.6v-53.4c-1.7,1.6-3.9,2.5-6.4,2.5c-3.3,0-6.2-1.7-7.9-4.3
			c-1.7,2.6-4.6,4.3-7.9,4.3c-3.3,0-6.2-1.7-7.9-4.3c-1.7,2.6-4.6,4.3-7.9,4.3c-3.3,0-6.2-1.7-7.9-4.3c-1.7,2.6-4.6,4.3-7.9,4.3
			c-3.3,0-6.2-1.7-7.9-4.3c-1.7,2.6-4.6,4.3-7.9,4.3c-3.3,0-6.2-1.7-7.9-4.3c-1.7,2.6-4.6,4.3-7.9,4.3c-3.3,0-6.2-1.7-7.9-4.3
			c-1.7,2.6-4.6,4.3-7.9,4.3c-2.5,0-4.7-1-6.4-2.5V184.7z"/>
	</g>
	<g>
		<rect x="148.9" y="96.3" class="st1" width="110.6" height="13.1"/>
		<path class="st2" d="M259.6,111H148.9c-0.8,0-1.5-0.7-1.5-1.5V96.3c0-0.8,0.7-1.5,1.5-1.5h110.6c0.8,0,1.5,0.7,1.5,1.5v13.1
			C261.1,110.3,260.4,111,259.6,111z M150.4,108h107.6V97.8H150.4V108z"/>
	</g>
	<g>
		<path class="st0" d="M148.9,109.5v14.9c0,4.4,3.5,7.9,7.9,7.9c4.4,0,7.9-3.5,7.9-7.9v-14.9H148.9z"/>
		<path class="st2" d="M156.8,133.8c-5.2,0-9.4-4.2-9.4-9.4v-14.9c0-0.8,0.7-1.5,1.5-1.5h15.8c0.8,0,1.5,0.7,1.5,1.5v14.9
			C166.2,129.6,162,133.8,156.8,133.8z M150.4,111v13.4c0,3.5,2.9,6.4,6.4,6.4c3.5,0,6.4-2.9,6.4-6.4V111H150.4z"/>
	</g>
	<g>
		<path class="st0" d="M164.7,109.5v14.9c0,4.4,3.5,7.9,7.9,7.9c4.4,0,7.9-3.5,7.9-7.9v-14.9H164.7z"/>
		<path class="st2" d="M172.6,133.8c-5.2,0-9.4-4.2-9.4-9.4v-14.9c0-0.8,0.7-1.5,1.5-1.5h15.8c0.8,0,1.5,0.7,1.5,1.5v14.9
			C182,129.6,177.8,133.8,172.6,133.8z M166.2,111v13.4c0,3.5,2.9,6.4,6.4,6.4c3.5,0,6.4-2.9,6.4-6.4V111H166.2z"/>
	</g>
	<g>
		<path class="st0" d="M180.5,109.5v14.9c0,4.4,3.5,7.9,7.9,7.9c4.4,0,7.9-3.5,7.9-7.9v-14.9H180.5z"/>
		<path class="st2" d="M188.5,133.8c-5.2,0-9.4-4.2-9.4-9.4v-14.9c0-0.8,0.7-1.5,1.5-1.5h15.8c0.8,0,1.5,0.7,1.5,1.5v14.9
			C197.8,129.6,193.6,133.8,188.5,133.8z M182,111v13.4c0,3.5,2.9,6.4,6.4,6.4c3.5,0,6.4-2.9,6.4-6.4V111H182z"/>
	</g>
	<g>
		<path class="st0" d="M196.3,109.5v14.9c0,4.4,3.5,7.9,7.9,7.9c4.4,0,7.9-3.5,7.9-7.9v-14.9H196.3z"/>
		<path class="st2" d="M204.3,133.8c-5.2,0-9.4-4.2-9.4-9.4v-14.9c0-0.8,0.7-1.5,1.5-1.5h15.8c0.8,0,1.5,0.7,1.5,1.5v14.9
			C213.6,129.6,209.4,133.8,204.3,133.8z M197.8,111v13.4c0,3.5,2.9,6.4,6.4,6.4c3.5,0,6.4-2.9,6.4-6.4V111H197.8z"/>
	</g>
	<g>
		<path class="st0" d="M212.1,109.5v14.9c0,4.4,3.5,7.9,7.9,7.9s7.9-3.5,7.9-7.9v-14.9H212.1z"/>
		<path class="st2" d="M220.1,133.8c-5.2,0-9.4-4.2-9.4-9.4v-14.9c0-0.8,0.7-1.5,1.5-1.5H228c0.8,0,1.5,0.7,1.5,1.5v14.9
			C229.5,129.6,225.2,133.8,220.1,133.8z M213.6,111v13.4c0,3.5,2.9,6.4,6.4,6.4c3.5,0,6.4-2.9,6.4-6.4V111H213.6z"/>
	</g>
	<g>
		<path class="st0" d="M228,109.5v14.9c0,4.4,3.5,7.9,7.9,7.9c4.4,0,7.9-3.5,7.9-7.9v-14.9H228z"/>
		<path class="st2" d="M235.9,133.8c-5.2,0-9.4-4.2-9.4-9.4v-14.9c0-0.8,0.7-1.5,1.5-1.5h15.8c0.8,0,1.5,0.7,1.5,1.5v14.9
			C245.3,129.6,241,133.8,235.9,133.8z M229.5,111v13.4c0,3.5,2.9,6.4,6.4,6.4s6.4-2.9,6.4-6.4V111H229.5z"/>
	</g>
	<g>
		<path class="st0" d="M243.8,109.5v14.9c0,4.4,3.5,7.9,7.9,7.9c4.4,0,7.9-3.5,7.9-7.9v-14.9H243.8z"/>
		<path class="st2" d="M251.7,133.8c-5.2,0-9.4-4.2-9.4-9.4v-14.9c0-0.8,0.7-1.5,1.5-1.5h15.8c0.8,0,1.5,0.7,1.5,1.5v14.9
			C261.1,129.6,256.8,133.8,251.7,133.8z M245.3,111v13.4c0,3.5,2.9,6.4,6.4,6.4c3.5,0,6.4-2.9,6.4-6.4V111H245.3z"/>
	</g>
	<g>
		<rect x="161.2" y="143.8" class="st0" width="31.6" height="31.6"/>
		<path class="st2" d="M192.8,176.9h-31.6c-0.8,0-1.5-0.7-1.5-1.5v-31.6c0-0.8,0.7-1.5,1.5-1.5h31.6c0.8,0,1.5,0.7,1.5,1.5v31.6
			C194.3,176.3,193.7,176.9,192.8,176.9z M162.7,173.9h28.6v-28.6h-28.6V173.9z"/>
	</g>
	<rect x="205.4" y="142.3" class="st2" width="21" height="3"/>
	<rect x="205.7" y="154" class="st2" width="43.3" height="3"/>
	<rect x="205.7" y="162" class="st2" width="43.3" height="3"/>
	<rect x="205.7" y="170" class="st2" width="33.4" height="3"/>
	<rect x="168" y="155.3" transform="matrix(0.7071 -0.7071 0.7071 0.7071 -60.0214 168.629)" class="st2" width="11.2" height="3"/>
	
		<rect x="166.6" y="159.6" transform="matrix(0.7071 -0.7071 0.7071 0.7071 -61.8166 173.0098)" class="st2" width="22.7" height="3"/>
	<rect x="155.1" y="100.8" class="st2" width="3.4" height="3"/>
	<rect x="162.5" y="100.8" class="st2" width="3.4" height="3"/>
	<rect x="169.8" y="100.8" class="st2" width="3.4" height="3"/>
	<rect x="208" y="100.8" class="st2" width="44.7" height="3"/>
</g>
<g>
	<g>
		<path class="st1" d="M5.7,148.9l5.8,34.3c0.3,1.6,1.8,3,3.5,3h51.3c1.7,0,3.2-1.3,3.5-3l5.8-34.3H5.7z M25.2,179.6
			c-1.5,0.2-3-0.8-3.2-2.4l-2.7-18.6c-0.2-1.5,0.8-3,2.4-3.2c1.5-0.2,3,0.8,3.2,2.4l2.7,18.6C27.8,178,26.7,179.4,25.2,179.6z
			 M43.5,176.9c0,1.6-1.3,2.8-2.8,2.8c-1.6,0-2.8-1.3-2.8-2.8v-18.8c0-1.6,1.3-2.8,2.8-2.8c1.6,0,2.8,1.3,2.8,2.8V176.9z
			 M61.4,158.6l-2.7,18.6c-0.2,1.5-1.7,2.6-3.2,2.4c-1.5-0.2-2.6-1.7-2.4-3.2l2.7-18.6c0.2-1.5,1.7-2.6,3.2-2.4
			C60.5,155.6,61.6,157.1,61.4,158.6z"/>
		<path class="st2" d="M66.3,187.7H15.1c-2.4,0-4.6-1.9-5-4.2l-5.8-34.3c-0.1-0.4,0-0.9,0.3-1.2c0.3-0.3,0.7-0.5,1.1-0.5h69.9
			c0.4,0,0.9,0.2,1.1,0.5c0.3,0.3,0.4,0.8,0.3,1.2l-5.8,34.3C70.9,185.8,68.7,187.7,66.3,187.7z M7.5,150.4l5.5,32.6
			c0.1,0.9,1.1,1.7,2,1.7h51.3c0.9,0,1.9-0.8,2-1.7l5.5-32.6H7.5z M40.7,181.3c-2.4,0-4.3-1.9-4.3-4.3v-18.8c0-2.4,1.9-4.3,4.3-4.3
			c2.4,0,4.3,1.9,4.3,4.3v18.8C45,179.3,43.1,181.3,40.7,181.3z M40.7,156.8c-0.7,0-1.3,0.6-1.3,1.3v18.8c0,0.7,0.6,1.3,1.3,1.3
			c0.7,0,1.3-0.6,1.3-1.3v-18.8C42,157.4,41.4,156.8,40.7,156.8z M55.8,181.2c-0.2,0-0.4,0-0.6,0c-2.4-0.3-4-2.5-3.7-4.9l2.7-18.6
			c0.3-2.3,2.5-4,4.9-3.7c2.4,0.3,4,2.6,3.7,4.9l-2.7,18.6C59.8,179.6,58,181.2,55.8,181.2z M58.6,156.9c-0.7,0-1.2,0.5-1.3,1.1
			l-2.7,18.6c-0.1,0.7,0.4,1.4,1.1,1.5c0.7,0.1,1.4-0.4,1.5-1.1l2.7-18.6c0.1-0.7-0.4-1.4-1.1-1.5C58.7,156.9,58.6,156.9,58.6,156.9
			z M24.8,181.2c-2.1,0-4-1.6-4.3-3.7l-2.7-18.6c-0.3-2.4,1.3-4.6,3.7-4.9c2.4-0.4,4.6,1.3,4.9,3.7l2.7,18.6
			c0.3,2.4-1.3,4.6-3.7,4.9C25.2,181.1,25,181.2,24.8,181.2z M22,156.9c-0.1,0-0.1,0-0.2,0c-0.7,0.1-1.2,0.8-1.1,1.5l2.7,18.6
			c0.1,0.7,0.8,1.2,1.5,1.1c0.7-0.1,1.2-0.8,1.1-1.5L23.4,158C23.3,157.4,22.7,156.9,22,156.9z"/>
	</g>
	<g>
		<path class="st0" d="M79.9,145.1c0,2.1-1.7,3.8-3.8,3.8H5.3c-2.1,0-3.8-1.7-3.8-3.8v-5.7c0-2.1,1.7-3.8,3.8-3.8h70.8
			c2.1,0,3.8,1.7,3.8,3.8V145.1z"/>
		<path class="st2" d="M76.1,150.4H5.3c-2.9,0-5.3-2.4-5.3-5.3v-5.7c0-2.9,2.4-5.3,5.3-5.3h70.8c2.9,0,5.3,2.4,5.3,5.3v5.7
			C81.4,148,79,150.4,76.1,150.4z M5.3,137.2c-1.3,0-2.3,1-2.3,2.3v5.7c0,1.3,1,2.3,2.3,2.3h70.8c1.3,0,2.3-1,2.3-2.3v-5.7
			c0-1.3-1-2.3-2.3-2.3H5.3z"/>
	</g>
	<path class="st2" d="M70.8,135.7h-3v-9c0-4.2-3.4-7.5-7.5-7.5h-2.8v-3h2.8c5.8,0,10.5,4.7,10.5,10.5V135.7z"/>
	<path class="st2" d="M13.6,135.7h-3v-9c0-5.8,4.7-10.5,10.5-10.5h2.8v3h-2.8c-4.2,0-7.5,3.4-7.5,7.5V135.7z"/>
	<g>
		<path class="st1" d="M57.5,119.6c0,0.8-0.7,1.5-1.5,1.5H25.4c-0.8,0-1.5-0.7-1.5-1.5v-4.1c0-0.8,0.7-1.5,1.5-1.5H56
			c0.8,0,1.5,0.7,1.5,1.5V119.6z"/>
		<path class="st2" d="M56,122.7H25.4c-1.7,0-3-1.4-3-3v-4.1c0-1.7,1.4-3,3-3H56c1.7,0,3,1.4,3,3v4.1C59,121.3,57.6,122.7,56,122.7z
			 M25.4,115.5l0,4.2l30.5,0c0,0,0,0,0,0v-4.1L25.4,115.5z"/>
	</g>
</g>
<g>
	<g>
		<rect x="425.9" y="104.6" class="st1" width="28.2" height="7.5"/>
		<path class="st2" d="M454.1,113.6h-28.2c-0.8,0-1.5-0.7-1.5-1.5v-7.5c0-0.8,0.7-1.5,1.5-1.5h28.2c0.8,0,1.5,0.7,1.5,1.5v7.5
			C455.6,113,455,113.6,454.1,113.6z M427.4,110.6h25.2v-4.5h-25.2V110.6z"/>
	</g>
	<g>
		<polygon class="st1" points="445.4,131.4 417.2,131.4 425.9,112.1 454.1,112.1 		"/>
		<path class="st2" d="M445.4,132.9h-28.2c-0.5,0-1-0.3-1.3-0.7c-0.3-0.4-0.3-1-0.1-1.4l8.7-19.2c0.2-0.5,0.8-0.9,1.4-0.9h28.2
			c0.5,0,1,0.3,1.3,0.7c0.3,0.4,0.3,1,0.1,1.4l-8.7,19.2C446.5,132.5,446,132.9,445.4,132.9z M419.5,129.9h24.9l7.4-16.2h-24.9
			L419.5,129.9z"/>
	</g>
	<g>
		<path class="st1" d="M417.2,131.4v20.2c7.8,0.5,14.5,6.3,15.9,14.3c1.6,9.4-4.7,18.4-14.1,20.1c-0.6,0.1-1.2,0.2-1.9,0.2v0h28.2
			v-54.8H417.2z"/>
		<path class="st2" d="M445.4,187.7h-28.2c-0.8,0-1.5-0.7-1.5-1.5c0-0.8,0.6-1.5,1.4-1.5c0.6,0,1.1-0.1,1.7-0.2
			c4.2-0.7,7.8-3,10.2-6.5c2.4-3.5,3.4-7.7,2.6-11.8c-1.3-7.2-7.2-12.6-14.6-13.1c-0.8-0.1-1.4-0.7-1.4-1.5v-20.2
			c0-0.8,0.7-1.5,1.5-1.5h28.2c0.8,0,1.5,0.7,1.5,1.5v54.8C446.9,187,446.2,187.7,445.4,187.7z M426.3,184.7h17.6v-51.8h-25.2v17.3
			c8.1,1.1,14.5,7.3,15.9,15.4c0.9,5-0.2,9.9-3.1,14.1C430,181.7,428.3,183.4,426.3,184.7z"/>
	</g>
	<g>
		<rect x="423.2" y="137.5" class="st0" width="16.2" height="11.1"/>
		<path class="st2" d="M439.4,150.1h-16.2c-0.8,0-1.5-0.7-1.5-1.5v-11.1c0-0.8,0.7-1.5,1.5-1.5h16.2c0.8,0,1.5,0.7,1.5,1.5v11.1
			C440.9,149.4,440.2,150.1,439.4,150.1z M424.7,147.1h13.2V139h-13.2V147.1z"/>
	</g>
	<g>
		<rect x="445.4" y="131.4" class="st0" width="17.5" height="54.8"/>
		<path class="st2" d="M462.9,187.7h-17.5c-0.8,0-1.5-0.7-1.5-1.5v-54.8c0-0.8,0.7-1.5,1.5-1.5h17.5c0.8,0,1.5,0.7,1.5,1.5v54.8
			C464.4,187,463.7,187.7,462.9,187.7z M446.9,184.7h14.5v-51.8h-14.5V184.7z"/>
	</g>
	<g>
		<polygon class="st0" points="454.1,112.1 445.4,131.4 462.9,131.4 		"/>
		<path class="st2" d="M462.9,132.9h-17.5c-0.5,0-1-0.3-1.3-0.7c-0.3-0.4-0.3-1-0.1-1.4l8.7-19.2c0.2-0.5,0.8-0.9,1.4-0.9
			s1.1,0.3,1.4,0.9l8.7,19.2c0.2,0.5,0.2,1-0.1,1.4C463.8,132.6,463.4,132.9,462.9,132.9z M447.7,129.9h12.8l-6.4-14.1L447.7,129.9z
			"/>
	</g>
	<g>
		
			<ellipse transform="matrix(0.9851 -0.1723 0.1723 0.9851 -22.8633 74.1905)" class="st0" cx="416" cy="168.8" rx="17.3" ry="17.3"/>
		<path class="st2" d="M416,187.7c-9.2,0-16.9-6.6-18.5-15.6c-0.9-5,0.2-9.9,3.1-14.1c2.9-4.1,7.2-6.9,12.2-7.7
			c1.1-0.2,2.2-0.3,3.3-0.3c9.2,0,16.9,6.6,18.5,15.6c0.9,5-0.2,9.9-3.1,14.1c-2.9,4.1-7.2,6.9-12.2,7.7
			C418.2,187.6,417.1,187.7,416,187.7z M416.1,153c-0.9,0-1.8,0.1-2.7,0.2c-4.2,0.7-7.8,3-10.2,6.5c-2.4,3.5-3.4,7.7-2.6,11.8
			c1.3,7.6,7.9,13.1,15.6,13.1c0.9,0,1.8-0.1,2.7-0.2c4.2-0.7,7.8-3,10.2-6.5c2.4-3.5,3.4-7.7,2.6-11.8
			C430.3,158.5,423.8,153,416.1,153z"/>
	</g>
	<g>
		<path class="st1" d="M405.5,150.3c-2.9-2.1-3.2-6.7-3.2-6.7s4.5-1.3,7.4,0.7c2.9,2.1,3.2,6.7,3.2,6.7S408.4,152.4,405.5,150.3z"/>
		<path class="st2" d="M409.7,153c-2,0-3.7-0.5-5.1-1.4c-3.5-2.5-3.8-7.7-3.8-7.9c0-0.7,0.4-1.3,1.1-1.5c0.1,0,1.7-0.5,3.6-0.5
			c2,0,3.7,0.5,5.1,1.4c3.5,2.5,3.8,7.7,3.8,7.9c0,0.7-0.4,1.3-1.1,1.5C413.2,152.5,411.7,153,409.7,153z M403.9,144.8
			c0.3,1.3,0.9,3.3,2.4,4.3c0.8,0.6,2,0.9,3.4,0.9c0.6,0,1.1,0,1.5-0.1c-0.3-1.3-0.9-3.3-2.4-4.3c-0.8-0.6-2-0.9-3.4-0.9
			C404.9,144.7,404.4,144.7,403.9,144.8z"/>
	</g>
</g>
<g>
	<path class="st1" d="M557.4,179c0,3.8,3.2,7,7,7h59.8c3.9,0,7-3.2,7-7v-13.2h-73.8V179z"/>
	<path class="st2" d="M624.2,187.5h-59.8c-4.7,0-8.5-3.8-8.5-8.5v-13.2c0-0.8,0.7-1.5,1.5-1.5h73.8c0.8,0,1.5,0.7,1.5,1.5V179
		C632.7,183.7,628.8,187.5,624.2,187.5z M558.9,167.3V179c0,3,2.5,5.5,5.5,5.5h59.8c3,0,5.5-2.5,5.5-5.5v-11.7H558.9z"/>
</g>
<g>
	<path class="st1" d="M631.1,60c0-3.8-3.2-7-7-7h-59.8c-3.8,0-7,3.2-7,7v10.9h73.8V60z"/>
	<path class="st2" d="M631.1,72.4h-73.8c-0.8,0-1.5-0.7-1.5-1.5V60c0-4.7,3.8-8.5,8.5-8.5h59.8c4.7,0,8.5,3.8,8.5,8.5v10.9
		C632.6,71.7,631.9,72.4,631.1,72.4z M558.8,69.4h70.8V60c0-3-2.5-5.5-5.5-5.5h-59.8c-3,0-5.5,2.5-5.5,5.5V69.4z"/>
</g>
<g>
	<rect x="557.3" y="70.9" class="st0" width="73.8" height="94.9"/>
	<path class="st2" d="M631.1,167.3h-73.8c-0.8,0-1.5-0.7-1.5-1.5V70.9c0-0.8,0.7-1.5,1.5-1.5h73.8c0.8,0,1.5,0.7,1.5,1.5v94.9
		C632.6,166.6,631.9,167.3,631.1,167.3z M558.8,164.3h70.8V72.4h-70.8V164.3z"/>
</g>
<rect x="586.8" y="174.5" class="st2" width="14.9" height="3"/>
<rect x="586" y="60.8" class="st2" width="4.8" height="3"/>
<rect x="593.4" y="60.8" class="st2" width="13" height="3"/>
<rect x="570.4" y="120.8" transform="matrix(0.7071 -0.7071 0.7071 0.7071 85.0868 450.0439)" class="st2" width="30.8" height="3"/>
<rect x="566.3" y="129.4" transform="matrix(0.7071 -0.7071 0.7071 0.7071 81.8586 459.4691)" class="st2" width="58.4" height="3"/>
<g>
	<path class="st1" d="M557.4,70.9v17.4c0,5.1,4.1,9.2,9.2,9.2c5.1,0,9.2-4.1,9.2-9.2V70.9H557.4z"/>
	<path class="st2" d="M566.6,99c-5.9,0-10.7-4.8-10.7-10.7V70.9c0-0.8,0.7-1.5,1.5-1.5h18.4c0.8,0,1.5,0.7,1.5,1.5v17.4
		C577.3,94.2,572.5,99,566.6,99z M558.9,72.4v15.9c0,4.3,3.5,7.7,7.7,7.7c4.3,0,7.7-3.5,7.7-7.7V72.4H558.9z"/>
</g>
<g>
	<path class="st1" d="M575.8,70.9v17.4c0,5.1,4.1,9.2,9.2,9.2c5.1,0,9.2-4.1,9.2-9.2V70.9H575.8z"/>
	<path class="st2" d="M585,99c-5.9,0-10.7-4.8-10.7-10.7V70.9c0-0.8,0.7-1.5,1.5-1.5h18.4c0.8,0,1.5,0.7,1.5,1.5v17.4
		C595.8,94.2,591,99,585,99z M577.3,72.4v15.9c0,4.3,3.5,7.7,7.7,7.7c4.3,0,7.7-3.5,7.7-7.7V72.4H577.3z"/>
</g>
<g>
	<path class="st1" d="M594.3,70.9v17.4c0,5.1,4.1,9.2,9.2,9.2c5.1,0,9.2-4.1,9.2-9.2V70.9H594.3z"/>
	<path class="st2" d="M603.5,99c-5.9,0-10.7-4.8-10.7-10.7V70.9c0-0.8,0.7-1.5,1.5-1.5h18.4c0.8,0,1.5,0.7,1.5,1.5v17.4
		C614.2,94.2,609.4,99,603.5,99z M595.8,72.4v15.9c0,4.3,3.5,7.7,7.7,7.7c4.3,0,7.7-3.5,7.7-7.7V72.4H595.8z"/>
</g>
<g>
	<path class="st1" d="M612.7,70.9v17.4c0,5.1,4.1,9.2,9.2,9.2s9.2-4.1,9.2-9.2V70.9H612.7z"/>
	<path class="st2" d="M621.9,99c-5.9,0-10.7-4.8-10.7-10.7V70.9c0-0.8,0.7-1.5,1.5-1.5h18.4c0.8,0,1.5,0.7,1.5,1.5v17.4
		C632.6,94.2,627.8,99,621.9,99z M614.2,72.4v15.9c0,4.3,3.5,7.7,7.7,7.7c4.3,0,7.7-3.5,7.7-7.7V72.4H614.2z"/>
</g>
<g>
	<g>
		<path class="st0" d="M258.8,111.9c8.6,0,15.5-6.9,15.5-15.5h-31C243.3,104.9,250.3,111.9,258.8,111.9z"/>
		<path class="st2" d="M258.8,113.4c-9.4,0-17-7.6-17-17c0-0.8,0.7-1.5,1.5-1.5h31c0.8,0,1.5,0.7,1.5,1.5
			C275.8,105.7,268.2,113.4,258.8,113.4z M244.9,97.9c0.8,7,6.7,12.5,13.9,12.5c7.2,0,13.2-5.5,13.9-12.5H244.9z"/>
	</g>
	<g>
		<g>
			<path class="st1" d="M382.7,111.9c-8.6,0-15.5-6.9-15.5-15.5c0,8.6-6.9,15.5-15.5,15.5c-8.6,0-15.5-6.9-15.5-15.5
				c0,8.6-6.9,15.5-15.5,15.5c-8.6,0-15.5-6.9-15.5-15.5c0,8.6-6.9,15.5-15.5,15.5c-8.6,0-15.5-6.9-15.5-15.5
				c0,8.6-6.9,15.5-15.5,15.5c-1.5,0-3-0.2-4.3-0.6v74.9h132.6v-74.9C385.7,111.6,384.2,111.9,382.7,111.9z"/>
			<path class="st2" d="M387.1,187.7H254.5c-0.8,0-1.5-0.7-1.5-1.5v-74.9c0-0.5,0.2-0.9,0.6-1.2c0.4-0.3,0.9-0.4,1.3-0.2
				c1.3,0.4,2.6,0.6,3.9,0.6c7.7,0,14-6.3,14-14c0-0.8,0.7-1.5,1.5-1.5s1.5,0.7,1.5,1.5c0,7.7,6.3,14,14,14c7.7,0,14-6.3,14-14
				c0-0.8,0.7-1.5,1.5-1.5s1.5,0.7,1.5,1.5c0,7.7,6.3,14,14,14c7.7,0,14-6.3,14-14c0-0.8,0.7-1.5,1.5-1.5c0.8,0,1.5,0.7,1.5,1.5
				c0,7.7,6.3,14,14,14c7.7,0,14-6.3,14-14c0-0.8,0.7-1.5,1.5-1.5c0.8,0,1.5,0.7,1.5,1.5c0,7.7,6.3,14,14,14c1.3,0,2.6-0.2,3.9-0.6
				c0.5-0.1,0.9,0,1.3,0.2c0.4,0.3,0.6,0.7,0.6,1.2v74.9C388.6,187,387.9,187.7,387.1,187.7z M256,184.7h129.6v-71.5
				c-0.9,0.2-1.9,0.2-2.8,0.2c-6.9,0-12.8-4.1-15.5-10c-2.7,5.9-8.6,10-15.5,10c-6.9,0-12.8-4.1-15.5-10c-2.7,5.9-8.6,10-15.5,10
				c-6.9,0-12.8-4.1-15.5-10c-2.7,5.9-8.6,10-15.5,10c-6.9,0-12.8-4.1-15.5-10c-2.7,5.9-8.6,10-15.5,10c-0.9,0-1.9-0.1-2.8-0.2
				V184.7z"/>
		</g>
		<g>
			<path class="st1" d="M289.8,111.9c8.6,0,15.5-6.9,15.5-15.5h-31C274.3,104.9,281.2,111.9,289.8,111.9z"/>
			<path class="st2" d="M289.8,113.4c-9.4,0-17-7.6-17-17c0-0.8,0.7-1.5,1.5-1.5h31c0.8,0,1.5,0.7,1.5,1.5
				C306.8,105.7,299.2,113.4,289.8,113.4z M275.9,97.9c0.8,7,6.7,12.5,13.9,12.5c7.2,0,13.2-5.5,13.9-12.5H275.9z"/>
		</g>
		<g>
			<path class="st0" d="M320.8,111.9c8.6,0,15.5-6.9,15.5-15.5h-31C305.3,104.9,312.2,111.9,320.8,111.9z"/>
			<path class="st2" d="M320.8,113.4c-9.4,0-17-7.6-17-17c0-0.8,0.7-1.5,1.5-1.5h31c0.8,0,1.5,0.7,1.5,1.5
				C337.8,105.7,330.1,113.4,320.8,113.4z M306.9,97.9c0.8,7,6.7,12.5,13.9,12.5c7.2,0,13.2-5.5,13.9-12.5H306.9z"/>
		</g>
		<g>
			<path class="st1" d="M351.8,111.9c8.6,0,15.5-6.9,15.5-15.5h-31C336.3,104.9,343.2,111.9,351.8,111.9z"/>
			<path class="st2" d="M351.8,113.4c-9.4,0-17-7.6-17-17c0-0.8,0.7-1.5,1.5-1.5h31c0.8,0,1.5,0.7,1.5,1.5
				C368.7,105.7,361.1,113.4,351.8,113.4z M337.8,97.9c0.8,7,6.7,12.5,13.9,12.5c7.2,0,13.2-5.5,13.9-12.5H337.8z"/>
		</g>
		<g>
			<path class="st0" d="M382.7,111.9c8.6,0,15.5-6.9,15.5-15.5h-31C367.2,104.9,374.2,111.9,382.7,111.9z"/>
			<path class="st2" d="M382.7,113.4c-9.4,0-17-7.6-17-17c0-0.8,0.7-1.5,1.5-1.5h31c0.8,0,1.5,0.7,1.5,1.5
				C399.7,105.7,392.1,113.4,382.7,113.4z M368.8,97.9c0.8,7,6.7,12.5,13.9,12.5s13.2-5.5,13.9-12.5H368.8z"/>
		</g>
		<g>
			<polygon class="st1" points="289.2,44.2 274.3,96.4 305.3,96.4 309.4,44.2 			"/>
			<path class="st2" d="M305.3,97.9h-31c-0.5,0-0.9-0.2-1.2-0.6c-0.3-0.4-0.4-0.9-0.2-1.3l14.9-52.2c0.2-0.6,0.8-1.1,1.4-1.1h20.1
				c0.4,0,0.8,0.2,1.1,0.5c0.3,0.3,0.4,0.7,0.4,1.1l-4.1,52.2C306.7,97.3,306.1,97.9,305.3,97.9z M276.3,94.9h27.6l3.8-49.2h-17.4
				L276.3,94.9z"/>
		</g>
		<g>
			<polygon class="st0" points="372.4,44.2 352.3,44.2 367.2,96.4 398.2,96.4 			"/>
			<path class="st2" d="M398.2,97.9h-31c-0.7,0-1.3-0.4-1.4-1.1l-14.9-52.2c-0.1-0.5,0-0.9,0.2-1.3c0.3-0.4,0.7-0.6,1.2-0.6h20.1
				c0.6,0,1.1,0.3,1.3,0.8l25.8,52.2c0.2,0.5,0.2,1-0.1,1.5C399.2,97.6,398.7,97.9,398.2,97.9z M368.4,94.9h27.4l-24.3-49.2h-17.2
				L368.4,94.9z"/>
		</g>
		<g>
			<polygon class="st0" points="269.1,44.2 243.3,96.4 274.3,96.4 289.2,44.2 			"/>
			<path class="st2" d="M274.3,97.9h-31c-0.5,0-1-0.3-1.3-0.7c-0.3-0.4-0.3-1-0.1-1.5l25.8-52.2c0.3-0.5,0.8-0.8,1.3-0.8h20.1
				c0.5,0,0.9,0.2,1.2,0.6c0.3,0.4,0.4,0.9,0.2,1.3l-14.9,52.2C275.6,97.4,275,97.9,274.3,97.9z M245.7,94.9h27.4l14.1-49.2h-17.2
				L245.7,94.9z"/>
		</g>
		<g>
			<polygon class="st0" points="309.4,44.2 305.3,96.4 336.3,96.4 332.2,44.2 			"/>
			<path class="st2" d="M336.3,97.9h-31c-0.4,0-0.8-0.2-1.1-0.5c-0.3-0.3-0.4-0.7-0.4-1.1l4.1-52.2c0.1-0.8,0.7-1.4,1.5-1.4h22.8
				c0.8,0,1.4,0.6,1.5,1.4l4.1,52.2c0,0.4-0.1,0.8-0.4,1.1C337.1,97.7,336.7,97.9,336.3,97.9z M306.9,94.9h27.7l-3.8-49.2h-20.1
				L306.9,94.9z"/>
		</g>
		<g>
			<polygon class="st1" points="332.2,44.2 336.3,96.4 367.2,96.4 352.3,44.2 			"/>
			<path class="st2" d="M367.2,97.9h-31c-0.8,0-1.4-0.6-1.5-1.4l-4.1-52.2c0-0.4,0.1-0.8,0.4-1.1c0.3-0.3,0.7-0.5,1.1-0.5h20.1
				c0.7,0,1.3,0.4,1.4,1.1L368.7,96c0.1,0.5,0,0.9-0.2,1.3C368.2,97.7,367.7,97.9,367.2,97.9z M337.6,94.9h27.6l-14.1-49.2h-17.4
				L337.6,94.9z"/>
		</g>
		<g>
			<rect x="275.4" y="128.4" class="st0" width="34.4" height="57.8"/>
			<path class="st2" d="M309.8,187.7h-34.4c-0.8,0-1.5-0.7-1.5-1.5v-57.8c0-0.8,0.7-1.5,1.5-1.5h34.4c0.8,0,1.5,0.7,1.5,1.5v57.8
				C311.3,187,310.6,187.7,309.8,187.7z M276.9,184.7h31.4v-54.8h-31.4V184.7z"/>
		</g>
		<g>
			<rect x="309.8" y="128.4" class="st0" width="56.4" height="38.1"/>
			<path class="st2" d="M366.2,168h-56.4c-0.8,0-1.5-0.7-1.5-1.5v-38.1c0-0.8,0.7-1.5,1.5-1.5h56.4c0.8,0,1.5,0.7,1.5,1.5v38.1
				C367.7,167.3,367,168,366.2,168z M311.3,165h53.4v-35.1h-53.4V165z"/>
		</g>
		<rect x="296" y="157" class="st2" width="7" height="3"/>
		
			<rect x="326.4" y="140.9" transform="matrix(0.7071 -0.7071 0.7071 0.7071 -2.7464 278.2019)" class="st2" width="16" height="3"/>
		
			<rect x="324.8" y="146.6" transform="matrix(0.7071 -0.7071 0.7071 0.7071 -5.3935 283.1375)" class="st2" width="28.5" height="3"/>
	</g>
</g>
</svg>
