<svg xmlns="http://www.w3.org/2000/svg" xmlns:xlink="http://www.w3.org/1999/xlink" preserveAspectRatio="xMidYMid" width="812" height="1629" viewBox="0 0 812 1629">
  <defs>
    <style>
      .cls-1, .cls-11, .cls-2, .cls-9 {
        fill: #fff;
      }

      .cls-1, .cls-4, .cls-6 {
        fill-rule: evenodd;
      }

      .cls-3 {
        fill: #dcdfe6;
      }

      .cls-4 {
        fill: #bcc0cc;
      }

      .cls-5 {
        fill: #343740;
      }

      .cls-6, .cls-7 {
        fill: #a1a5b3;
      }

      .cls-8, .cls-9 {
        font-size: 22px;
      }

      .cls-9 {
        font-family: "HelveticaNeue-Medium";
      }

      .cls-10, .cls-11 {
        font-size: 20px;
      }

      .cls-11 {
        font-family: "Helvetica Neue";
      }
    </style>
  </defs>
  <g>
    <g>
      <path d="M11.000,262.975 C10.833,262.983 10.669,263.000 10.500,263.000 C4.701,263.000 0.000,258.299 0.000,252.500 L0.000,207.500 C0.000,201.701 4.701,197.000 10.500,197.000 C10.669,197.000 10.833,197.017 11.000,197.025 L11.000,262.975 Z" class="cls-1"/>
      <path d="M11.000,427.966 L1.991,425.039 L1.991,323.841 L11.000,320.914 L11.000,427.966 Z" class="cls-1"/>
      <path d="M11.000,557.966 L1.991,555.040 L1.991,453.841 L11.000,450.914 L11.000,557.966 Z" class="cls-1"/>
      <path d="M803.000,422.967 L812.009,420.039 L812.009,318.841 L803.000,315.914 L803.000,422.967 Z" class="cls-1"/>
    </g>
    <rect x="6" width="802" height="1629" rx="100" ry="100" class="cls-2"/>
    <rect x="17" y="11" width="780" height="1607" rx="90" ry="90" class="cls-3"/>
    <path d="M407.500,1583.275 C378.906,1583.275 355.725,1560.095 355.725,1531.500 C355.725,1502.906 378.906,1479.725 407.500,1479.725 C436.094,1479.725 459.275,1502.906 459.275,1531.500 C459.275,1560.095 436.094,1583.275 407.500,1583.275 ZM407.500,1485.425 C382.054,1485.425 361.425,1506.054 361.425,1531.500 C361.425,1556.947 382.054,1577.575 407.500,1577.575 C432.946,1577.575 453.575,1556.947 453.575,1531.500 C453.575,1506.054 432.946,1485.425 407.500,1485.425 Z" class="cls-4"/>
    <rect x="50" y="190" width="714" height="1255" class="cls-5"/>
    <path d="M361.500,92.000 L453.500,92.000 C456.538,92.000 459.000,94.462 459.000,97.500 C459.000,100.538 456.538,103.000 453.500,103.000 L361.500,103.000 C358.462,103.000 356.000,100.538 356.000,97.500 C356.000,94.462 358.462,92.000 361.500,92.000 Z" class="cls-6"/>
    <circle cx="299.5" cy="97.5" r="10.5" class="cls-7"/>
    <circle cx="407.5" cy="48.5" r="7.344" class="cls-7"/>
    <g>
      <path d="M753.000,213.000 L752.000,213.000 L752.000,207.000 L753.000,207.000 C753.553,207.000 754.000,207.448 754.000,208.000 L754.000,212.001 C754.000,212.553 753.553,213.000 753.000,213.000 ZM751.001,205.000 L751.001,215.000 L751.001,216.000 L751.001,217.000 C751.001,218.105 750.105,219.000 749.000,219.000 L717.000,219.000 C715.896,219.000 715.000,218.105 715.000,217.000 L715.000,203.000 C715.000,201.896 715.896,201.000 717.000,201.000 L749.000,201.000 C750.105,201.000 751.001,201.896 751.001,203.000 L751.001,205.000 ZM750.000,203.000 C750.000,202.448 749.552,202.000 749.000,202.000 L717.000,202.000 C716.448,202.000 716.001,202.448 716.001,203.000 L716.001,217.000 C716.001,217.553 716.448,218.000 717.000,218.000 L749.000,218.000 C749.552,218.000 750.000,217.553 750.000,217.000 L750.000,203.000 ZM748.000,217.000 L718.001,217.000 C717.448,217.000 717.000,216.553 717.000,216.000 L717.000,204.000 C717.000,203.448 717.448,203.000 718.001,203.000 L748.000,203.000 C748.552,203.000 749.000,203.448 749.000,204.000 L749.000,216.000 C749.000,216.553 748.552,217.000 748.000,217.000 Z" class="cls-1"/>
      <path d="M134.634,213.865 C134.714,213.763 134.783,213.654 134.875,213.559 C136.322,212.064 138.678,212.064 140.126,213.560 C140.218,213.655 140.287,213.763 140.367,213.866 L137.501,216.828 L134.634,213.865 ZM132.892,211.510 C132.801,211.603 132.721,211.704 132.637,211.801 L130.492,209.586 C130.579,209.489 130.657,209.388 130.748,209.294 C134.471,205.446 140.530,205.446 144.253,209.294 C144.344,209.388 144.422,209.489 144.508,209.586 L142.365,211.801 C142.280,211.704 142.200,211.603 142.109,211.510 C139.568,208.883 135.433,208.883 132.892,211.510 ZM128.764,207.244 C128.673,207.338 128.596,207.440 128.509,207.536 L126.232,205.183 C126.320,205.087 126.396,204.985 126.488,204.891 C132.560,198.615 142.441,198.615 148.513,204.891 C148.604,204.985 148.681,205.087 148.769,205.183 L146.492,207.536 C146.404,207.440 146.327,207.338 146.237,207.244 C141.419,202.266 133.582,202.266 128.764,207.244 Z" class="cls-1"/>
      <g>
        <circle cx="64.297" cy="209.5" r="4.891" class="cls-2"/>
        <path d="M76.900,204.600 C79.607,204.600 81.801,206.794 81.801,209.500 C81.801,212.207 79.607,214.401 76.900,214.401 C74.194,214.401 72.000,212.207 72.000,209.500 C72.000,206.794 74.194,204.600 76.900,204.600 Z" class="cls-1"/>
        <circle cx="89.5" cy="209.5" r="4.906" class="cls-2"/>
        <circle cx="102.094" cy="209.5" r="4.906" class="cls-2"/>
        <circle cx="114.703" cy="209.5" r="4.891" class="cls-2"/>
      </g>
      <text x="380" y="217" class="cls-8"><tspan class="cls-9">21:00</tspan></text>
      <text x="657" y="217" class="cls-10"><tspan class="cls-11">100%</tspan></text>
    </g>
  </g>
</svg>
