<svg xmlns="http://www.w3.org/2000/svg" xmlns:xlink="http://www.w3.org/1999/xlink" preserveAspectRatio="xMidYMid" width="615" height="314" viewBox="0 0 615 314">
  <defs>
    <style>

      .cls-3 {
        fill: #000000;
        opacity: 0.04;
      }

      .cls-4 {
        stroke: #ffffff;
        stroke-linejoin: round;
        stroke-width: 2px;
      }

      .cls-5 {
        fill: #d4d7db;
      }

      .cls-6 {
        fill: #c1c3c8;
      }

      .cls-7 {
        fill: #979aa1;
      }

      .cls-8 {
        fill: #898989;
      }

      .cls-9 {
        fill: #a5adbd;
      }
    </style>
  </defs>
  <g id="macbook-air">
    <path d="M307.499,297.822 C477.329,297.822 615.003,301.220 615.003,305.410 C615.003,309.601 477.329,312.998 307.499,312.998 C137.670,312.998 -0.005,309.601 -0.005,305.410 C-0.005,301.220 137.670,297.822 307.499,297.822 Z" id="path-1" class="cls-3" fill-rule="evenodd"/>
    <g id="device" class="cls-4">
      <path d="M307.499,294.028 C307.499,294.028 85.413,294.028 85.413,294.028 C85.413,294.028 85.413,15.170 85.413,15.170 C85.413,6.789 92.212,-0.006 100.598,-0.006 C100.598,-0.006 307.499,-0.006 307.499,-0.006 C307.499,-0.006 514.400,-0.006 514.400,-0.006 C522.786,-0.006 529.585,6.789 529.585,15.170 C529.585,15.170 529.585,294.028 529.585,294.028 C529.585,294.028 307.499,294.028 307.499,294.028 Z" id="path-2" class="cls-5" fill-rule="evenodd"/>
      <path d="M558.058,305.410 C558.058,305.410 307.499,305.410 307.499,305.410 C307.499,305.410 56.941,305.410 56.941,305.410 C41.854,305.410 29.516,300.384 28.538,294.028 C28.538,294.028 307.499,294.028 307.499,294.028 C307.499,294.028 586.460,294.028 586.460,294.028 C585.482,300.384 573.144,305.410 558.058,305.410 Z" id="path-3" class="cls-6" fill-rule="evenodd"/>
      <path d="M346.738,294.028 C345.273,297.376 341.938,299.719 338.048,299.719 C338.048,299.719 307.677,299.719 307.677,299.719 C307.677,299.719 307.499,299.719 307.499,299.719 C307.499,299.719 277.128,299.719 277.128,299.719 C273.238,299.719 269.903,297.376 268.438,294.028 C268.438,294.028 346.738,294.028 346.738,294.028 Z" id="path-4" class="cls-7" fill-rule="evenodd"/>
      <path d="M104.395,18.964 C104.395,18.964 510.603,18.964 510.603,18.964 C510.603,18.964 510.603,275.058 510.603,275.058 C510.603,275.058 104.395,275.058 104.395,275.058 C104.395,275.058 104.395,18.964 104.395,18.964 Z" id="path-5" class="cls-8" fill-rule="evenodd"/>
      <circle id="circle-1" class="cls-9" cx="308" cy="11" r="4"/>
    </g>
  </g>
</svg>
