<?xml version="1.0" standalone="no"?>
<!DOCTYPE svg PUBLIC "-//W3C//DTD SVG 1.1//EN" "http://www.w3.org/Graphics/SVG/1.1/DTD/svg11.dtd" >
<svg xmlns="http://www.w3.org/2000/svg">
<metadata>
Created by FontPrep 20130207 at Mon Mar 30 08:43:13 2015
 By Amr Sadek
Copyright (c) 2010-2012 by Claus Eggers Srensen (es@forthehearts.net), with Reserved Font Name 'Playfair'.
</metadata>
<defs>
<font id="04b27ca05cc09e86c39c371295e381ad" horiz-adv-x='1024' >
  <font-face 
    font-family="PlayfairDisplay-Regular"
    font-weight="400"
    font-stretch="normal"
    units-per-em="2048"
    panose-1="0 0 5 0 0 0 0 0 0 0"
    ascent="1638"
    descent="-410"
    x-height="1055"
    cap-height="1450"
    bbox="-547 -399 2179 1964"
    underline-thickness="41"
    underline-position="-165"
    unicode-range="U+000D-FB02"
  />
<missing-glyph horiz-adv-x="748" 
d="M136 68h408v1229h-408v-1229zM68 0v1365h544v-1365h-544z" />
    <glyph glyph-name="uniFB01" unicode="fi" horiz-adv-x="1268" 
d="M829 1425q0 78 68 115q-47 31 -149 31q-204 0 -291 -158q-56 -101 -56 -360h330q232 0 340 24v-887q0 -84 35 -115.5t121 -31.5v-43q-188 8 -248 8t-248 -8v43q86 0 121 31.5t35 115.5v641q0 95 -34.5 138t-121.5 43h-330v-822q0 -83 44 -115t133 -32v-43q-224 8 -274 8
t-243 -8v43q86 0 121 31.5t35 115.5v822h-164v41h164q0 277 148 415q139 134 383 134q175 0 274 -62q70 -44 70 -106t-39 -101t-93 -39t-92.5 39t-38.5 92z" />
    <glyph glyph-name="uniFB02" unicode="fl" horiz-adv-x="1272" 
d="M53 1012v41h164q0 174 25 279.5t106 174.5q109 95 277 95q40 0 124.5 -12.5t162.5 -12.5t159 29v-1416q0 -84 35 -115.5t121 -31.5v-43q-188 8 -248 8t-248 -8v43q86 0 121 31.5t35 115.5v1141q0 178 -101 209t-151 31q-102 0 -162 -64q-43 -43 -57.5 -107t-14.5 -155
v-192h261v-41h-261v-822q0 -83 44 -115t133 -32v-43q-224 8 -274 8t-243 -8v43q86 0 121 31.5t35 115.5v822h-164z" />
    <glyph glyph-name=".notdef" horiz-adv-x="748" 
d="M136 68h408v1229h-408v-1229zM68 0v1365h544v-1365h-544z" />
    <glyph glyph-name="glyph1" horiz-adv-x="2048" 
 />
    <glyph glyph-name="glyph1" horiz-adv-x="2048" 
 />
    <glyph glyph-name="glyph2" horiz-adv-x="682" 
 />
    <glyph glyph-name="uni000D" unicode="&#xd;" horiz-adv-x="0" 
 />
    <glyph glyph-name="space" unicode=" " horiz-adv-x="510" 
 />
    <glyph glyph-name="exclam" unicode="!" horiz-adv-x="537" 
d="M268 1602q94 0 94 -126q0 -69 -37.5 -450t-37.5 -625h-37q0 244 -38 624.5t-38 450.5q0 126 94 126zM137 102q0 54 38.5 92.5t92.5 38.5t92.5 -38.5t38.5 -92.5t-38.5 -92.5t-92.5 -38.5t-92.5 38.5t-38.5 92.5z" />
    <glyph glyph-name="quotedbl" unicode="&#x22;" horiz-adv-x="610" 
d="M344 1390q0 52 21 77.5t53 26.5t52.5 -24.5t20.5 -77.5t-7 -107.5t-24 -150.5t-28 -176h-29q-11 75 -27.5 170t-24 152.5t-7.5 109.5zM121 1390q0 52 21 77.5t53 26.5t52.5 -24.5t20.5 -77.5t-7 -107.5t-24 -150.5t-28 -176h-29q-11 75 -27.5 170t-24 152.5t-7.5 109.5z
" />
    <glyph glyph-name="numbersign" unicode="#" horiz-adv-x="1305" 
d="M449 547h342l66 342h-342zM98 506l8 41h302l66 342h-300l6 41h302l59 303h41l-59 -303h342l59 303h41l-59 -303h300l-6 -41h-302l-66 -342h301l-9 -41h-300l-58 -299h-41l58 299h-342l-58 -299h-41l58 299h-302z" />
    <glyph glyph-name="dollar" unicode="$" horiz-adv-x="1071" 
d="M805 276q0 90 -40 153.5t-118 123.5v-522q72 27 115 91t43 154zM533 1434q-37 0 -58 -4v-521q21 -13 64.5 -40t66.5 -41v596q-36 10 -73 10zM542 12q34 0 64 7v563q-38 27 -131 83v-648q33 -5 67 -5zM274 1194q0 -82 40.5 -142t119.5 -115v483q-73 -24 -116.5 -84
t-43.5 -142zM203 76q-34 0 -45 -90h-47q8 112 8 491h47q26 -385 268 -452v665q-140 87 -203.5 156.5t-86.5 132.5t-23 139q0 152 87.5 241.5t225.5 108.5v252h41v-248l31 1q58 0 100 -9v256h41v-266q49 -16 101 -51t77 -35q34 0 45 90h48q-11 -113 -11 -418h-47
q-9 127 -61.5 228.5t-151.5 142.5v-608q216 -137 278 -232.5t62 -210.5q0 -162 -94 -260t-246 -122v-248h-41v243q-34 -2 -58 -2t-73 4v-245h-41v251q-82 17 -144 56t-87 39z" />
    <glyph glyph-name="percent" unicode="%" horiz-adv-x="1520" 
d="M977 307q0 -146 43.5 -222.5t122.5 -76.5q155 0 155 303q0 148 -42.5 224.5t-120.5 76.5q-158 0 -158 -305zM834 304q0 154 86 249.5t222 95.5t219 -89.5t83 -243.5t-86 -249.5t-222 -95.5t-219 89.5t-83 243.5zM215 1217q0 -146 44 -222.5t122 -76.5q156 0 156 303
q0 148 -43 224.5t-121 76.5q-158 0 -158 -305zM153 -86l1198 1774l39 -27l-1198 -1774zM72 1213q0 154 86 250t222 96t219 -89t83 -244t-86 -250t-222 -95t-219 89t-83 243z" />
    <glyph glyph-name="ampersand" unicode="&#x26;" horiz-adv-x="1714" 
d="M489 918q-206 90 -206 278q0 92 91.5 167t241.5 75t226 -62t76 -141q0 -49 -35 -79t-79 -30t-76 28t-32 74t30.5 77.5t78.5 35.5q-9 27 -52 46.5t-104 19.5q-107 0 -172 -64.5t-65 -190.5t104 -222q70 12 140 12t69 -47q-1 -39 -51 -39t-156 45q-266 -79 -266 -336
q0 -137 110.5 -289.5t438.5 -152.5q146 0 267.5 44t196 131t74.5 214t-71 192t-135 91q-173 -55 -247 -83q-168 -64 -169 -173q0 -74 60.5 -119t111.5 -45t92.5 12t46.5 33q-39 7 -67.5 31.5t-28.5 72.5t32 77.5t80 29.5t78.5 -30.5t30.5 -82.5t-57 -113t-187 -61
q-93 0 -173.5 58t-80.5 172t70.5 187t212.5 122q2 1 205.5 60t297.5 103q173 80 173 195q0 87 -70.5 147t-167.5 60q-52 0 -61 -18q57 -30 57 -83q0 -54 -34 -83t-80 -29t-77.5 26.5t-31.5 76.5t51 95.5t177 45.5q127 0 211.5 -75.5t84.5 -187.5q0 -204 -194 -301
q-75 -36 -304 -107q115 -48 169.5 -139t54.5 -197t-43 -193t-120.5 -156t-198 -110.5t-258.5 -41.5t-258 36t-211 100.5t-145 161.5t-54 197t40 196t143 164t195 92z" />
    <glyph glyph-name="quotesingle" unicode="'" horiz-adv-x="387" 
d="M121 1390q0 52 21 77.5t53 26.5t52.5 -24.5t20.5 -77.5t-7 -107.5t-24 -150.5t-28 -176h-29q-11 75 -27.5 170t-24 152.5t-7.5 109.5z" />
    <glyph glyph-name="parenleft" unicode="(" horiz-adv-x="602" 
d="M90 639q0 602 451 1012l28 -27q-167 -195 -237 -430.5t-70 -554.5t70 -554.5t237 -430.5l-28 -27q-451 410 -451 1012z" />
    <glyph glyph-name="parenright" unicode=")" horiz-adv-x="602" 
d="M340 639q0 319 -70 554.5t-237 430.5l28 27q451 -410 451 -1012t-451 -1012l-28 27q167 195 237 430.5t70 554.5z" />
    <glyph glyph-name="asterisk" unicode="*" horiz-adv-x="1008" 
d="M120 877q0 47 58 81t161.5 61t152.5 41q-45 13 -150.5 40.5t-162.5 60.5q-58 33 -58 82q0 18 10 35q17 32 53 32t72 -20t66.5 -47.5t87 -85t88.5 -88.5q-11 43 -40.5 152.5t-29.5 163.5t22 81t54 27t53 -26.5t21 -68.5t-6.5 -77.5t-14 -65t-23.5 -86.5t-26 -98
q35 33 114 112.5t121 103.5q41 24 79 24t57 -35q9 -16 9 -31q0 -73 -88.5 -102t-162.5 -48t-122 -33q45 -13 151 -41t163 -60q58 -33 58 -82q0 -19 -14 -43t-50 -24q-37 0 -69 18q-53 30 -66 44l-81 81q-67 67 -97 96q11 -44 40.5 -151.5t30.5 -162.5q0 -55 -22.5 -81.5
t-54.5 -26.5t-53 26.5t-21 72.5t8 84.5t29.5 117.5t32.5 121q-35 -33 -111.5 -111t-120.5 -103q-44 -26 -82 -26t-57 35q-9 16 -9 31z" />
    <glyph glyph-name="plus" unicode="+" horiz-adv-x="1202" 
d="M88 696v62h477v483h74v-483h475v-62h-475v-481h-74v481h-477z" />
    <glyph glyph-name="comma" unicode="," horiz-adv-x="535" 
d="M127 100q0 58 38 95.5t105 37.5q68 1 106 -59t38 -152t-52.5 -173.5t-158.5 -131.5l-19 37q64 27 110 84.5t46 116.5q0 25 -6 43q-36 -27 -84 -27t-85.5 35.5t-37.5 93.5z" />
    <glyph glyph-name="hyphen" unicode="-" horiz-adv-x="1022" 
d="M141 492v118h740v-118h-740z" />
    <glyph glyph-name="period" unicode="." horiz-adv-x="516" 
d="M127 102q0 54 38.5 92.5t92.5 38.5t92.5 -38.5t38.5 -92.5t-38.5 -92.5t-92.5 -38.5t-92.5 38.5t-38.5 92.5z" />
    <glyph glyph-name="slash" unicode="/" horiz-adv-x="762" 
d="M70 -29l557 1508h67l-557 -1508h-67z" />
    <glyph glyph-name="zero" unicode="0" horiz-adv-x="1229" 
d="M305 518q0 -382 125 -446t191 -64q134 0 217.5 142.5t83.5 388.5q0 380 -125 444t-191 64q-135 0 -218 -141.5t-83 -387.5zM106 512q0 162 63.5 291.5t182.5 204.5t273 75q218 0 356.5 -147.5t138.5 -393.5t-144.5 -408.5t-367.5 -162.5t-362.5 148.5t-139.5 392.5z" />
    <glyph glyph-name="one" unicode="1" horiz-adv-x="758" 
d="M96 928v45q150 3 247.5 26.5t174.5 77.5v-866q0 -96 44 -132t153 -36v-43q-224 8 -285 8t-313 -8v43q109 0 163 36.5t54 131.5v496q0 75 -10 117.5t-40.5 66t-71.5 30.5t-116 7z" />
    <glyph glyph-name="two" unicode="2" horiz-adv-x="981" 
d="M496 1083q148 0 229.5 -67.5t81.5 -203.5t-101 -243t-232.5 -225.5t-180.5 -185.5h416q80 0 104.5 21t32.5 83h35q0 -188 8 -272q-46 10 -305 10h-480v35q34 37 154 148t235 259t115 338q0 221 -205 221q-167 0 -274 -192l-33 18q54 112 153 184t247 72z" />
    <glyph glyph-name="three" unicode="3" horiz-adv-x="924" 
d="M575 814q-1 180 -179 179q-178 0 -271 -182l-35 16q118 256 375 256q130 0 212.5 -63t82.5 -173t-89 -200t-216 -135q151 -4 265 -80.5t114 -230.5q0 -91 -64 -206.5t-267 -209.5t-427 -94v37q218 4 342 93t172.5 179.5t48.5 205.5t-59 194.5t-158 86.5q-77 -30 -96 -30
q-33 0 -33 26q0 18 15 28.5t38 10.5l72 -8q157 120 157 300z" />
    <glyph glyph-name="four" unicode="4" horiz-adv-x="1012" 
d="M569 248v584l-413 -584h413zM35 111v43l665 929h33v-835h25q80 0 104.5 21t32.5 83h35q0 -172 8 -252q-31 8 -205 10v-399h-164v400h-534z" />
    <glyph glyph-name="five" unicode="5" horiz-adv-x="850" 
d="M406 535q178 0 270 -87t92 -229q0 -270 -237 -396t-439 -126v37q190 2 335.5 120.5t145.5 353.5q0 121 -67 193t-191 72q-80 0 -168 -35l-20 13l39 610q41 -8 110 -8h232q81 0 105 21t32 83h39q0 -208 8 -299q-44 10 -284 10h-218l-24 -395q120 62 240 62z" />
    <glyph glyph-name="six" unicode="6" horiz-adv-x="1059" 
d="M311 507q0 -105 21 -216.5t73 -195t149 -83.5t162.5 104t65.5 316t-61 309t-160 97q-72 0 -142.5 -42.5t-104.5 -134.5q-3 -49 -3 -154zM113 553q0 360 167.5 583t316 278t210.5 67l8 -41q-71 -23 -127 -50t-195 -142t-175 -519q47 87 129.5 127.5t159.5 40.5
q152 0 263 -117.5t111 -334.5t-129.5 -345.5t-323.5 -128.5t-304.5 153t-110.5 429z" />
    <glyph glyph-name="seven" unicode="7" horiz-adv-x="831" 
d="M372 -303q-91 -1 -91 139q0 74 21.5 176.5t51 184.5t81 184.5t90 169t102 171t94.5 159.5h-485q-81 0 -105 -20.5t-33 -84.5h-35q0 202 -8 287q46 -10 305 -10h455v-43q-28 -66 -116.5 -236.5t-164 -359.5t-73.5 -451l8 -162q0 -46 -26.5 -75t-70.5 -29z" />
    <glyph glyph-name="eight" unicode="8" horiz-adv-x="1065" 
d="M334 1242q0 -143 75 -229.5t187 -169.5q127 121 127 328q0 124 -51.5 197.5t-139.5 73.5t-143 -60t-55 -140zM287 346q0 -200 79 -269t176 -69t170.5 71.5t73.5 204.5t-93 238t-155.5 152t-65.5 49.5t-6 4.5q-179 -131 -179 -382zM887 1198q0 -203 -260 -378
q141 -103 195 -157q139 -139 139 -307t-125 -276.5t-306 -108.5t-302.5 87t-121.5 243q0 288 329 451q-118 96 -189.5 186t-71.5 226t107 225.5t260 89.5t249.5 -74t96.5 -207z" />
    <glyph glyph-name="nine" unicode="9" horiz-adv-x="1042" 
d="M274 622q0 -212 61.5 -308.5t160.5 -96.5q69 0 137 38.5t104 122.5q8 80 8 192t-21 215t-73 180t-148 77q-97 0 -163 -104t-66 -316zM76 608q0 108 36 200t130.5 183.5t287.5 91.5q192 0 303 -141.5t111 -398.5q0 -328 -168 -532t-316 -254t-210 -60l-8 41
q229 66 340.5 205t146.5 364q-49 -77 -128 -113t-154 -36t-141 30t-117.5 85t-82 141t-30.5 194z" />
    <glyph glyph-name="colon" unicode=":" horiz-adv-x="545" 
d="M141 950q0 54 38.5 92.5t92.5 38.5t92.5 -38.5t38.5 -92.5t-38.5 -92.5t-92.5 -38.5t-92.5 38.5t-38.5 92.5zM141 102q0 54 38.5 92.5t92.5 38.5t92.5 -38.5t38.5 -92.5t-38.5 -92.5t-92.5 -38.5t-92.5 38.5t-38.5 92.5z" />
    <glyph glyph-name="semicolon" unicode=";" horiz-adv-x="584" 
d="M164 950q0 54 38.5 92.5t92.5 38.5t92.5 -38.5t38.5 -92.5t-38.5 -92.5t-92.5 -38.5t-92.5 38.5t-38.5 92.5zM150 100q0 58 38 95.5t105 37.5q67 1 105 -59t39 -152q0 -92 -52.5 -173.5t-158.5 -131.5l-19 37q64 27 110 84.5t46 116.5q0 25 -6 43q-35 -27 -83 -27
t-86 35.5t-38 93.5z" />
    <glyph glyph-name="less" unicode="&#x3c;" horiz-adv-x="1245" 
d="M61 727l998 465l35 -74l-838 -391l838 -391l-35 -74z" />
    <glyph glyph-name="equal" unicode="=" horiz-adv-x="1325" 
d="M150 840v61h1026v-61h-1026zM150 553v61h1026v-61h-1026z" />
    <glyph glyph-name="greater" unicode="&#x3e;" horiz-adv-x="1245" 
d="M151 336l838 391l-838 391l35 74l998 -465l-998 -465z" />
    <glyph glyph-name="question" unicode="?" horiz-adv-x="940" 
d="M260 102q0 54 38.5 92.5t92.5 38.5t92.5 -38.5t38.5 -92.5t-38.5 -92.5t-92.5 -38.5t-92.5 38.5t-38.5 92.5zM201 1487q86 -18 86 -109q0 -46 -32.5 -76t-80.5 -30t-78 30.5t-30 77.5q0 82 102 152t284 70t300 -99.5t118 -268.5t-123 -285t-337 -171v-299h-41v318
q195 71 257 169.5t62 227.5q0 186 -76 276.5t-214 90.5t-197 -74z" />
    <glyph glyph-name="at" unicode="@" horiz-adv-x="1798" 
d="M666 313q0 -198 106 -198q80 0 159.5 119t130.5 322l51 249q-7 127 -126 127q-85 0 -160.5 -95t-118 -237.5t-42.5 -286.5zM100 293q0 204 78 400t209.5 344.5t316.5 239.5t386 91q347 0 493 -165t146 -398q0 -133 -51.5 -303.5t-214.5 -309.5t-319 -139q-157 0 -157 133
q0 48 15.5 100.5t15.5 53.5v2q-58 -149 -134 -219t-184 -70t-158 67.5t-50 199.5t72 291.5t187 263.5t234 104t142 -109l16 80q117 0 184 29l-172 -752q-13 -43 -13 -71q0 -52 60 -52q83 0 196 80.5t201.5 242.5t88.5 380q0 138 -47.5 241t-171.5 193t-377 90
q-185 0 -360 -84.5t-304.5 -224t-208 -330.5t-78.5 -370q0 -334 171 -474.5t425 -140.5q255 0 441 111l14 -27q-171 -121 -438 -121q-363 0 -508.5 183.5t-145.5 439.5z" />
    <glyph glyph-name="A" unicode="A" 
d="M337 590h464l-229 611zM1064 6q-156 0 -243 -6v41q78 3 111.5 19t33.5 54t-24 99l-126 336h-494l-84 -217q-41 -104 -41 -168t43.5 -92.5t134.5 -30.5v-41q-117 6 -223 6t-166 -6v41q102 23 161 178l482 1241h33l499 -1288q50 -127 142 -131v-41q-83 6 -239 6z" />
    <glyph glyph-name="B" unicode="B" horiz-adv-x="1276" 
d="M442 770h138q173 0 237 95t64 244t-68 224.5t-219 75.5q-93 0 -122.5 -34.5t-29.5 -141.5v-463zM979 406q0 329 -365 329h-172v-518q0 -107 29 -138.5t125 -31.5q383 0 383 359zM252 217v1016q0 77 -13.5 112t-46 48t-106.5 16v41q85 -6 250 -6l309 4q209 0 320.5 -88
t111.5 -220q0 -274 -311 -370v-4q324 -44 371 -173.5t47 -195.5q0 -177 -132.5 -287t-359.5 -110l-352 6q-168 0 -254 -6v41q74 3 106.5 16t46 48t13.5 112z" />
    <glyph glyph-name="C" unicode="C" horiz-adv-x="1409" 
d="M1179 121q-16 0 -42 -17q-93 -65 -176.5 -99t-202.5 -34q-296 0 -472.5 197.5t-176.5 544.5q0 226 83 400.5t231 270t337 95.5q205 -1 347 -111q52 -40 70 -40q42 0 52 122h47q-8 -133 -8 -471h-47q-22 134 -41 191.5t-62 111.5q-124 160 -362 160q-201 0 -322 -195
t-121 -527t129.5 -520t333.5 -188q102 0 199 39t151 117q42 56 60 121.5t35 202.5h47q0 -353 8 -492h-47q-9 121 -50 121z" />
    <glyph glyph-name="D" unicode="D" horiz-adv-x="1481" 
d="M442 213q0 -108 29.5 -142t132.5 -34t189 20t180 82.5t142 213.5t48 354q0 202 -29.5 326.5t-127.5 252t-412 127.5q-93 0 -122.5 -34.5t-29.5 -141.5v-1024zM252 217v1016q0 77 -13.5 112t-46 48t-106.5 16v41q110 -7 200 -7l50 1q282 6 309 6q362 0 542.5 -181
t180.5 -524t-196 -544t-545 -201l-287 6q-168 0 -254 -6v41q74 3 106.5 16t46 48t13.5 112z" />
    <glyph glyph-name="E" unicode="E" horiz-adv-x="1247" 
d="M442 709v-492q0 -110 30 -140t136 -30h150q97 0 156.5 17.5t96.5 63.5t54 109.5t29 172.5h47q-6 -56 -6 -160t14 -250q-139 6 -501 6t-562 -6v41q74 3 106.5 16t46 48t13.5 112v1016q0 77 -13.5 112t-46 48t-106.5 16v41q201 -6 548 -6t474 6q-14 -134 -14 -228t6 -141
h-47q-21 196 -64.5 249.5t-99.5 63t-111 9.5h-170q-106 0 -136 -30t-30 -140v-483h136q76 0 114.5 38.5t48.5 77t13.5 57.5t7.5 52t6 45h47q-7 -102 -7 -193l1 -98q0 -104 12 -291h-47q-14 115 -23 146q-35 125 -173 125h-136z" />
    <glyph glyph-name="F" unicode="F" horiz-adv-x="1165" 
d="M442 688v-471q0 -58 7.5 -90t32.5 -51.5t61.5 -26t105.5 -8.5v-41q-107 6 -292 6t-271 -6v41q74 3 106.5 16t46 48t13.5 112v1016q0 77 -13.5 112t-46 48t-106.5 16v41q201 -6 548 -6t474 6q-14 -146 -14 -256t6 -174h-47q-19 185 -37.5 229t-56 99t-222.5 55h-129
q-106 0 -136 -30t-30 -140v-504h150q76 0 114.5 38.5t48.5 77t13.5 57.5t7.5 52t6 45h47q-7 -100 -7 -193l1 -97q0 -108 13 -291h-48q-14 115 -23 147q-36 123 -173 123h-150z" />
    <glyph glyph-name="G" unicode="G" horiz-adv-x="1440" 
d="M111 700q0 176 49.5 323t137 246.5t209 154.5t256.5 55t215.5 -38t133.5 -77t68 -39q39 0 51 125h47q-8 -133 -8 -471h-47q-23 141 -65 246.5t-165 161t-227 55.5q-205 0 -328 -195t-123 -543t118.5 -520t369.5 -172q123 0 213 64q37 25 48 48t11 64v197q0 123 -38 157.5
t-169 39.5v41q101 -7 267 -7t235 7v-41q-48 -4 -68 -16.5t-28 -46.5t-8 -113v-406h-41q-2 42 -17.5 79.5t-37.5 37.5t-68 -35q-147 -111 -320 -111q-317 0 -494 193t-177 536z" />
    <glyph glyph-name="H" unicode="H" horiz-adv-x="1550" 
d="M252 217v1016q0 77 -13.5 112t-46 48t-106.5 16v41q84 -6 256 -6t266 6v-41q-74 -3 -106.5 -16t-46 -48t-13.5 -112v-483h666v483q0 77 -13.5 112t-46 48t-106.5 16v41q96 -6 266 -6t256 6v-41q-74 -3 -106.5 -16t-46 -48t-13.5 -112v-1016q0 -77 13.5 -112t46 -48
t106.5 -16v-41q-86 6 -256 6t-266 -6v41q74 3 106.5 16t46 48t13.5 112v492h-666v-492q0 -77 13.5 -112t46 -48t106.5 -16v-41q-94 6 -265 6t-257 -6v41q74 3 106.5 16t46 48t13.5 112z" />
    <glyph glyph-name="I" unicode="I" horiz-adv-x="694" 
d="M252 217v1016q0 77 -13.5 112t-46 48t-106.5 16v41q84 -6 256 -6t266 6v-41q-74 -3 -106.5 -16t-46 -48t-13.5 -112v-1016q0 -77 13.5 -112t46 -48t106.5 -16v-41q-94 6 -265 6t-257 -6v41q74 3 106.5 16t46 48t13.5 112z" />
    <glyph glyph-name="J" unicode="J" horiz-adv-x="668" 
d="M-86 -209q0 -87 -86 -104q32 -33 126 -33t159 46t89 119t31 168.5t7 309.5v936q0 77 -13.5 112t-46 48t-106.5 16v41q86 -6 256 -6t266 6v-41q-74 -3 -106.5 -16t-46 -48t-13.5 -112v-750q0 -389 -35 -535t-149 -239.5t-283 -93.5q-100 0 -172 37q-98 51 -98 141
q0 48 30.5 78.5t78.5 30.5t80 -30t32 -81z" />
    <glyph glyph-name="K" unicode="K" horiz-adv-x="1341" 
d="M252 217v1016q0 77 -13.5 112t-46 48t-106.5 16v41q84 -6 256 -6t266 6v-41q-74 -3 -106.5 -16t-46 -48t-13.5 -112v-459q148 5 234 115l196 250q105 133 105 196q0 71 -127 74v41q116 -6 232 -6t178 6v-41q-142 -20 -242 -149l-334 -428l475 -666q63 -97 180 -125v-41
q-97 6 -227 6t-229 -6v41q94 4 94 43q0 19 -21 49l-299 451q-60 91 -101 118t-114 31v-516q0 -77 13.5 -112t46 -48t106.5 -16v-41q-94 6 -265 6t-257 -6v41q74 3 106.5 16t46 48t13.5 112z" />
    <glyph glyph-name="L" unicode="L" horiz-adv-x="1204" 
d="M252 217v1016q0 77 -13.5 112t-46 48t-106.5 16v41q84 -6 256 -6t266 6v-41q-74 -3 -106.5 -16t-46 -48t-13.5 -112v-1016q0 -110 30 -140t136 -30h150q97 0 156.5 18.5t96.5 67.5t54 115.5t29 181.5h47q-6 -64 -6 -174t14 -256q-139 6 -501 6t-562 -6v41q74 3 106.5 16
t46 48t13.5 112z" />
    <glyph glyph-name="M" unicode="M" horiz-adv-x="1784" 
d="M252 238v995q0 77 -13.5 112t-46 48t-106.5 16v41q66 -6 182 -6t183 6l450 -1188l440 1182h97q164 0 260 6v-41q-74 -3 -106.5 -16t-46 -48t-13.5 -112v-1016q0 -77 13.5 -112t46 -48t106.5 -16v-41q-96 6 -266 6t-256 -6v41q56 2 85 8.5t49 26.5t25.5 51.5t5.5 89.5
v1096l-493 -1323h-33l-516 1329v-1081q0 -115 34.5 -154t151.5 -43v-41q-75 6 -203 6t-196 -6v41q103 4 134.5 43.5t31.5 153.5z" />
    <glyph glyph-name="N" unicode="N" horiz-adv-x="1446" 
d="M252 238v995q0 77 -13.5 112t-46 48t-106.5 16v41q67 -6 175 -6t175 6l723 -1114v876q0 113 -27 144.5t-62.5 41t-96.5 11.5v41q73 -6 202 -6t197 6v-41q-103 -4 -134.5 -43.5t-31.5 -153.5v-1222h-47l-860 1329v-1081q0 -115 34.5 -154t151.5 -43v-41q-75 6 -203 6
t-196 -6v41q103 4 134.5 43.5t31.5 153.5z" />
    <glyph glyph-name="O" unicode="O" horiz-adv-x="1518" 
d="M313 721q0 -320 129.5 -516.5t323.5 -196.5q131 0 231 91.5t153.5 255t53.5 374.5q0 320 -129.5 516.5t-322.5 196.5q-131 0 -231.5 -91.5t-154 -255t-53.5 -374.5zM109 713q0 226 83 400.5t231 270t337 95.5q296 0 472.5 -197.5t176.5 -544.5q0 -226 -83 -400.5
t-231 -270t-337 -95.5q-296 0 -472.5 197.5t-176.5 544.5z" />
    <glyph glyph-name="P" unicode="P" horiz-adv-x="1198" 
d="M442 627h138q237 0 295.5 128t58.5 267q0 198 -79 292.5t-261 94.5q-93 0 -122.5 -34.5t-29.5 -141.5v-606zM1139 1044q0 -136 -100 -297t-439 -161h-158v-369q0 -58 7.5 -90t32.5 -51.5t61.5 -26t105.5 -8.5v-41q-107 6 -292 6t-271 -6v41q74 3 106.5 16t46 48t13.5 112
v1016q0 77 -13.5 112t-46 48t-106.5 16v41q85 -6 250 -6l309 4q241 0 367.5 -110t126.5 -294z" />
    <glyph glyph-name="Q" unicode="Q" horiz-adv-x="1518" 
d="M313 721q0 -320 129.5 -516.5t323.5 -196.5q131 0 231 91.5t153.5 255t53.5 374.5q0 320 -129.5 516.5t-322.5 196.5q-131 0 -231.5 -91.5t-154 -255t-53.5 -374.5zM109 713q0 226 83 400.5t231 270t337 95.5q296 0 472.5 -197.5t176.5 -531.5t-162 -542.5t-424 -233.5
v-1q-70 -8 -167 -48.5t-136 -51.5q490 -98 642 -98t237.5 42.5t132.5 135.5l31 -12q-46 -157 -129 -234q-102 -92 -277 -92q-97 0 -196.5 32.5t-236 93.5t-186.5 77t-66.5 21t-22.5 7q-89 -30 -177 -30t-88 42t92 42t173 -17q55 15 133 50t98 42q-263 26 -417 220.5
t-154 517.5z" />
    <glyph glyph-name="R" unicode="R" horiz-adv-x="1327" 
d="M442 729h138q302 0 328 140t26 200q0 168 -80 254t-260 86q-93 0 -122.5 -34.5t-29.5 -141.5v-504zM1139 1092q0 -120 -62.5 -204.5t-144 -128.5t-191.5 -61l25 -4q134 -22 195.5 -81t91.5 -189l51 -209q20 -93 42 -130.5t60 -37.5t59.5 17.5t55.5 60.5l31 -23
q-48 -69 -95 -100t-127 -31t-134.5 49t-82.5 173l-45 204q-30 140 -58.5 192.5t-68.5 75.5t-104 23h-195v-471q0 -77 13.5 -112t46 -48t106.5 -16v-41q-94 6 -265 6t-257 -6v41q74 3 106.5 16t46 48t13.5 112v1016q0 77 -13.5 112t-46 48t-106.5 16v41q85 -6 250 -6l309 4
q238 0 366 -99.5t128 -256.5z" />
    <glyph glyph-name="S" unicode="S" horiz-adv-x="1106" 
d="M221 76q-34 0 -45 -90h-47q8 112 8 491h47q14 -198 98.5 -331.5t274.5 -133.5q110 0 188 69t78 196t-81.5 207.5t-189.5 145.5q-107 65 -143.5 88.5t-99 70.5t-116.5 130.5t-54 184.5q0 190 113.5 279.5t250.5 89.5t186 -26.5t90 -52.5t65 -26q34 0 45 90h47
q-10 -120 -10 -418h-47q-12 158 -92 276t-244 118q-110 0 -180 -66.5t-70 -171.5q0 -65 17.5 -99.5t30 -54.5t36 -41.5t40.5 -36.5t49.5 -36.5t52 -34t58.5 -36t77 -47.5t72 -46t77 -53.5t91.5 -79.5t80 -116.5t31.5 -174.5t-88 -237.5t-347 -131.5q-159 0 -275 73
q-51 32 -75 32z" />
    <glyph glyph-name="T" unicode="T" horiz-adv-x="1272" 
d="M636 1444q406 0 576 6q-14 -146 -14 -256t6 -174h-47q-24 239 -73.5 300.5t-113 72t-128.5 10.5h-111v-1165q0 -95 17.5 -128.5t52 -49t137.5 -19.5v-41q-108 6 -307 6t-297 -6v41q103 4 137.5 19.5t52 49t17.5 128.5v1165h-111q-133 0 -178 -29t-79 -72.5t-58 -281.5
h-47q6 64 6 176t-15 254q171 -6 577 -6z" />
    <glyph glyph-name="U" unicode="U" horiz-adv-x="1397" 
d="M312 1444q170 0 266 6v-41q-56 -2 -85.5 -8.5t-49.5 -26.5t-25.5 -51.5t-5.5 -89.5v-678q0 -263 53.5 -364t126 -124.5t164.5 -23.5t232 69.5t140 460.5v639q0 111 -40 151.5t-146 45.5v41q74 -6 203 -6t196 6v-41q-102 -4 -133.5 -43t-31.5 -154v-616q0 -291 -84 -434
q-52 -88 -151.5 -139.5t-223.5 -51.5q-225 0 -344 111q-90 84 -121 190t-31 318v643q0 58 -5.5 89.5t-25.5 51.5t-49.5 26.5t-85.5 8.5v41q87 -6 257 -6z" />
    <glyph glyph-name="V" unicode="V" 
d="M228 1444q156 0 241 6v-41q-78 -3 -111.5 -19t-33.5 -54t24 -99l371 -984l334 865q41 106 41 169t-44 91.5t-135 30.5v41q117 -6 223 -6t167 6v-41q-103 -23 -162 -178l-481 -1241h-33l-500 1288q-50 127 -141 131v41q84 -6 240 -6z" />
    <glyph glyph-name="W" unicode="W" horiz-adv-x="1853" 
d="M210 1444q142 0 216 6v-41q-54 -4 -77 -20t-23 -50t22 -102l300 -913l248 793l-54 161q-42 127 -121 131v41q74 -6 224 -6t237 6v-41q-115 -6 -127.5 -28.5t-12.5 -50.5t21 -93l294 -911l253 792q33 104 33 168t-41.5 92.5t-133.5 30.5v41q116 -6 222 -6t168 6v-41
q-114 -25 -162 -178l-387 -1241h-33l-356 1055l-326 -1055h-33l-434 1288q-44 126 -141 131v41q82 -6 224 -6z" />
    <glyph glyph-name="X" unicode="X" horiz-adv-x="1298" 
d="M262 1442q86 0 238 8v-43q-137 0 -137 -45q0 -16 18 -45l319 -488l201 301q89 132 89 186t-39.5 72.5t-119.5 20.5v41q117 -6 233 -6t177 6v-41q-116 -17 -231 -188l-287 -428l424 -648q38 -59 64.5 -79t72.5 -23v-43q-140 8 -192 8t-273 -8v43q80 0 113 7t33 26
q0 14 -15 37l-350 536l-221 -330q-78 -116 -78 -174t46.5 -80t135.5 -24v-41q-115 6 -252 6t-198 -6v41q115 16 231 188l309 461l-401 615q-38 59 -64.5 79t-72.5 23v43q141 -8 227 -8z" />
    <glyph glyph-name="Y" unicode="Y" horiz-adv-x="1210" 
d="M-6 1407v43q80 -6 230 -6t237 6v-43q-144 0 -144 -79q0 -30 21 -71l341 -653l261 520q56 114 56 174t-45 84.5t-136 26.5v41q117 -6 222 -6t167 6v-41q-80 -18 -164 -182l-321 -637v-373q0 -58 5.5 -89.5t25.5 -51.5t49.5 -26.5t85.5 -8.5v-41q-96 6 -266 6t-257 -6v41
q56 2 85.5 8.5t49.5 26.5t25.5 51.5t5.5 89.5v309l-415 766q-38 69 -65.5 92t-53.5 23z" />
    <glyph glyph-name="Z" unicode="Z" horiz-adv-x="1217" 
d="M510 1403q-97 0 -156.5 -18.5t-96.5 -67.5t-54 -115.5t-29 -181.5h-47q6 64 6 174t-14 256q151 -6 505 -6t502 6v-41l-847 -1362h432q97 0 156.5 18.5t96.5 67.5t54 115.5t29 181.5h47q-7 -74 -7 -174t15 -256q-152 6 -506 6t-510 -6v41l854 1362h-430z" />
    <glyph glyph-name="bracketleft" unicode="[" horiz-adv-x="606" 
d="M188 -371v1952h351v-39h-166v-1874h166v-39h-351z" />
    <glyph glyph-name="backslash" unicode="\" horiz-adv-x="762" 
d="M68 1479h67l557 -1508h-67z" />
    <glyph glyph-name="bracketright" unicode="]" horiz-adv-x="606" 
d="M67 -332h166v1874h-166v39h351v-1952h-351v39z" />
    <glyph glyph-name="asciicircum" unicode="^" horiz-adv-x="1098" 
d="M147 688q131 63 233 169t150 224h37q49 -118 151 -224t232 -169l-16 -29q-124 45 -240 112t-186 134q-58 -67 -151.5 -134t-192.5 -112z" />
    <glyph glyph-name="underscore" unicode="_" horiz-adv-x="1210" 
d="M141 -235h928v-82h-928v82z" />
    <glyph glyph-name="grave" unicode="`" horiz-adv-x="457" 
d="M42 1608q0 34 24 53t58 19t66 -42t96 -165.5t130 -227.5l-23 -18q-84 90 -188.5 181.5t-133.5 129.5q-29 36 -29 70z" />
    <glyph glyph-name="a" unicode="a" horiz-adv-x="1020" 
d="M260 232q0 -72 45 -118t119 -46q136 0 231 155v402q-15 -23 -50 -43t-112 -58t-104.5 -54.5t-61 -47t-50.5 -74.5t-17 -116zM655 168q-110 -182 -327 -182q-99 0 -173.5 58t-74.5 173t90.5 187.5t202 116.5t114.5 45l37 17q35 15 45.5 21.5t29.5 18t37.5 35t18.5 51.5
v127q0 119 -49.5 162.5t-140.5 43.5q-145 0 -203 -73q41 -10 68.5 -43.5t27.5 -83.5t-32 -79.5t-86 -29.5t-83.5 35t-29.5 92q0 80 96 146q118 77 288 77q260 0 294.5 -126t34.5 -238v-569q0 -51 14.5 -74t52.5 -23t88 43l23 -35q-36 -27 -73 -51t-125 -24q-165 0 -165 182z
" />
    <glyph glyph-name="b" unicode="b" horiz-adv-x="1153" 
d="M584 18q274 0 274 502t-250 502q-86 0 -158 -67t-102 -188v-647q99 -102 236 -102zM164 100v1258q0 95 -34.5 137.5t-121.5 42.5v43q65 -6 162 -6t178 29v-740q45 104 129.5 161.5t190.5 57.5q174 0 281.5 -143.5t107.5 -414.5t-133.5 -412.5t-309.5 -141.5t-284 120
l-146 -124l-34 15q14 50 14 118z" />
    <glyph glyph-name="c" unicode="c" horiz-adv-x="995" 
d="M571 1083q138 0 236 -65t98 -158q0 -54 -30.5 -84.5t-78.5 -30.5t-80 27.5t-32 73.5t24.5 75.5t61.5 39.5q-20 37 -73 61.5t-103 24.5t-114.5 -23.5t-125.5 -140t-61 -338.5q0 -370 116.5 -428t190.5 -58t154 51t131 160l39 -14q-33 -108 -126.5 -196.5t-250.5 -88.5
q-193 0 -323 146t-130 397q0 252 133.5 410.5t343.5 158.5z" />
    <glyph glyph-name="d" unicode="d" horiz-adv-x="1190" 
d="M297 532v-13q-2 -488 278 -486q80 0 144.5 62t87.5 174v609q-57 158 -229 158q-126 0 -204 -129t-77 -375zM98 533q0 269 136.5 409.5t317.5 140.5t255 -121v398q0 95 -34.5 137.5t-121.5 42.5v43q65 -6 162 -6t178 29v-1383q0 -95 34.5 -137.5t121.5 -42.5v-43
q-65 6 -162 6t-178 -29v182q-77 -188 -283 -188t-316.5 141t-109.5 414v7z" />
    <glyph glyph-name="e" unicode="e" horiz-adv-x="1036" 
d="M744 705q0 137 -48 238t-146 101t-167.5 -93.5t-85.5 -278.5h446q1 17 1 33zM94 517q0 254 125.5 410t323.5 156q397 0 397 -450h-640q-7 -55 -7 -131q0 -201 94 -323t219 -122q206 0 301 205l41 -16q-37 -113 -138.5 -194t-244.5 -81q-219 0 -345 146t-126 400z" />
    <glyph glyph-name="f" unicode="f" horiz-adv-x="680" 
d="M53 1012v41h164q0 180 22.5 278.5t72.5 156.5q96 114 253 114q105 0 173 -54t69 -129q0 -47 -30.5 -77.5t-78.5 -30.5t-80 30t-32 76q0 91 86 109q-6 19 -33 32t-68 13q-146 0 -158 -140t-12 -325v-53h220v-41h-220v-801q0 -95 54 -131.5t163 -36.5v-43q-252 8 -308 8
t-249 -8v43q86 0 121 31.5t35 115.5v822h-164z" />
    <glyph glyph-name="g" unicode="g" horiz-adv-x="1061" 
d="M342 760q0 -156 47 -221.5t139 -65.5t139.5 65t47.5 222t-47.5 222t-139.5 65t-139 -65.5t-47 -221.5zM207 -158q0 -62 67 -127t219 -65q151 0 236 52t119.5 109t34.5 123t-33 92.5t-123 26.5h-381q-65 -33 -102 -91t-37 -120zM993 1210q0 -44 -28 -72t-75 -28t-70 31.5
t-34 97.5q-30 -27 -50 -91t-26 -94q197 -73 197 -294q0 -162 -104.5 -243t-274.5 -81q-85 0 -151 19q-83 -44 -127.5 -81.5t-44.5 -80.5q0 -68 98 -68h481q107 0 173.5 -45t66.5 -155t-93.5 -222.5t-229 -150t-246.5 -37.5t-202.5 20.5t-152.5 64t-61 108.5t73.5 130
t183.5 115h-7q-137 0 -171 54t-34 113t58.5 122t197.5 126q-190 74 -190 292q0 109 73 216t305 107q79 0 145 -18q46 250 212 250q51 0 79.5 -30.5t28.5 -74.5z" />
    <glyph glyph-name="h" unicode="h" horiz-adv-x="1204" 
d="M729 1083q224 0 256.5 -121t32.5 -225v-547q0 -84 35 -115.5t121 -31.5v-43q-192 8 -248 8t-228 -8v43q76 0 106 31.5t30 115.5v592q0 177 -56.5 206.5t-109.5 29.5q-126 0 -206.5 -104t-80.5 -267v-457q0 -84 30 -115.5t105 -31.5v-43q-172 8 -230 8t-245 -8v43
q86 0 121 31.5t35 115.5v1168q0 95 -34.5 137.5t-121.5 42.5v43q65 -6 162 -6t178 29v-766q96 245 348 245z" />
    <glyph glyph-name="i" unicode="i" horiz-adv-x="600" 
d="M162 1436q0 54 38 92.5t92 38.5t93 -38.5t39 -92.5t-39 -92.5t-93 -38.5t-92 38.5t-38 92.5zM59 43q86 0 121 31.5t35 115.5v641q0 95 -34.5 138t-121.5 43v43q65 -6 161 -6t179 28v-887q0 -84 35 -115.5t121 -31.5v-43q-188 8 -248 8t-248 -8v43z" />
    <glyph glyph-name="j" unicode="j" horiz-adv-x="547" 
d="M141 1426q0 54 38.5 92t92.5 38t92.5 -38t38.5 -92t-38.5 -93t-92.5 -39t-92.5 39t-38.5 93zM39 -354q162 0 162 221v964q0 95 -34.5 138t-121.5 43v43q65 -6 161 -6t179 28v-841q0 -359 -103 -490t-253 -131q-72 1 -116 33t-44 86t29.5 83t76.5 29q107 0 107 -100
q0 -70 -78 -98q12 -2 35 -2z" />
    <glyph glyph-name="k" unicode="k" horiz-adv-x="1126" 
d="M41 43q86 0 121 31.5t35 115.5v1170q0 95 -34.5 137.5t-121.5 42.5v43q65 -6 162 -6t178 29v-1017q107 14 176 85l152 157q65 68 65 113q0 70 -151 70v41q143 -8 235 -8t174 8v-41q-100 -9 -184 -96l-249 -262l370 -506q38 -52 69 -76.5t74 -30.5v-43q-124 8 -172 8
t-221 -8v43q29 0 46 10.5t17 26.5t-12 33l-235 344q-37 52 -68 70t-86 20v-357q0 -84 30 -115.5t105 -31.5v-43q-172 8 -230 8t-245 -8v43z" />
    <glyph glyph-name="l" unicode="l" horiz-adv-x="586" 
d="M45 43q86 0 121 31.5t35 115.5v1170q0 95 -34.5 137.5t-121.5 42.5v43q63 -6 161 -6t179 29v-1416q0 -84 35 -115.5t121 -31.5v-43q-188 8 -248 8t-248 -8v43z" />
    <glyph glyph-name="m" unicode="m" horiz-adv-x="1819" 
d="M399 836q99 247 353 247q122 0 196 -77q51 -55 63 -165q35 89 113.5 165.5t222.5 76.5t218 -77q67 -74 67 -269v-547q0 -84 35 -115.5t121 -31.5v-43q-188 8 -246 8t-229 -8v43q75 0 105 31.5t30 115.5v592q0 146 -38 191t-118 45q-119 0 -197.5 -106.5t-78.5 -264.5
v-457q0 -84 34.5 -115.5t120.5 -31.5v-43q-187 8 -245 8t-230 -8v43q75 0 105 31.5t30 115.5v592q0 146 -38 191t-117 45q-119 0 -198 -107.5t-79 -265.5v-455q0 -84 30 -115.5t106 -31.5v-43q-172 8 -230 8t-246 -8v43q86 0 121 31.5t35 115.5v641q0 95 -34.5 138
t-121.5 43v43q65 -6 161 -6t179 28v-241z" />
    <glyph glyph-name="n" unicode="n" horiz-adv-x="1223" 
d="M748 1083q143 0 217 -77q38 -42 54.5 -103.5t16.5 -165.5v-547q0 -84 35 -115.5t121 -31.5v-43q-188 8 -246 8t-229 -8v43q75 0 105 31.5t30 115.5v592q0 140 -42 188t-124 48q-127 0 -207 -107t-80 -266v-455q0 -84 30 -115.5t106 -31.5v-43q-172 8 -230 8t-246 -8v43
q86 0 121 31.5t35 115.5v641q0 95 -34.5 138t-121.5 43v43q65 -6 161 -6t179 28v-241q97 247 349 247z" />
    <glyph glyph-name="o" unicode="o" horiz-adv-x="1122" 
d="M295 526q0 -264 71.5 -389t194.5 -125t194.5 125t71.5 389t-71.5 390t-194.5 126t-194.5 -126t-71.5 -390zM96 512q0 130 23.5 223t65 157.5t100.5 107.5t127.5 63t148.5 20t187 -31.5t192.5 -164t85.5 -361.5q0 -413 -182.5 -484t-282.5 -71t-182.5 32t-147 97.5
t-100 173.5t-35.5 238z" />
    <glyph glyph-name="p" unicode="p" horiz-adv-x="1190" 
d="M602 18q293 0 293 529q0 475 -238 475q-93 0 -166.5 -66.5t-105.5 -192.5v-613q66 -132 217 -132zM45 1012v43q65 -6 161 -6t179 28v-216q46 106 132.5 164t195.5 58q167 0 274 -134t107 -374q0 -304 -138.5 -454t-330.5 -150q-78 0 -141 30.5t-99 80.5v-262
q0 -83 49 -115.5t148 -32.5v-43q-270 9 -296 9t-220 -9v43q75 0 105 27.5t30 99.5v1032q0 95 -34.5 138t-121.5 43z" />
    <glyph glyph-name="q" unicode="q" horiz-adv-x="1153" 
d="M295 531q0 -250 72.5 -374t210.5 -124q75 0 137.5 61.5t89.5 175.5v629q-79 137 -254 137q-124 0 -190 -127.5t-66 -377.5zM989 954v-1155q0 -72 30 -99.5t105 -27.5v-43q-194 9 -220 9t-296 -9v43q99 0 148 32.5t49 115.5v353q-41 -97 -116.5 -149.5t-167.5 -52.5
q-185 0 -305 140t-120 414t124 416t315 142q104 0 173.5 -35.5t114.5 -113.5q112 119 146 153l35 -14q-15 -50 -15 -119z" />
    <glyph glyph-name="r" unicode="r" horiz-adv-x="911" 
d="M59 43q86 0 121 31.5t35 115.5v641q0 95 -34.5 138t-121.5 43v43q65 -6 161 -6t179 28v-256q37 102 118 182t171 80t142.5 -47.5t52.5 -107.5t-32 -97.5t-81 -37.5t-81 28.5t-32 86.5t70 102q-14 20 -59 20t-100.5 -38.5t-112 -131.5t-56.5 -215v-434q0 -95 54 -131.5
t163 -36.5v-43q-252 8 -310 8t-247 -8v43z" />
    <glyph glyph-name="s" unicode="s" horiz-adv-x="913" 
d="M121 395h47q29 -237 99.5 -310t185.5 -73q72 0 127 47.5t55 145.5t-70 155t-135 98t-76.5 48.5t-45 30t-45.5 32.5t-38 32t-36 36t-39 54t-29 128q0 130 86.5 197t216.5 67t223 -75q22 -17 36 -17q36 0 46 90h47q-8 -100 -8 -348h-47q-51 311 -279 311q-74 0 -121 -41.5
t-47 -105.5t22 -93.5t36.5 -45.5t43 -36.5t47 -33t56 -36.5t75.5 -48t103 -69t112.5 -115.5t47.5 -161.5t-73 -189t-277 -98q-91 0 -162 29q-40 20 -66 42t-37 21q-30 0 -42 -77h-47q8 117 8 409z" />
    <glyph glyph-name="t" unicode="t" horiz-adv-x="725" 
d="M389 219q1 -174 131 -174q64 0 109 51t76 168l40 -10q-50 -283 -266 -283q-207 0 -240.5 122t-33.5 233v686h-197v41h197v313q115 3 184 29v-342h303v-41h-303v-793z" />
    <glyph glyph-name="u" unicode="u" horiz-adv-x="1190" 
d="M805 217q-97 -246 -351 -246q-122 -1 -194 75t-72 271v514q0 95 -34 138t-121 43v43q64 -6 160 -6t180 28v-805q0 -146 37.5 -190.5t117.5 -44.5q119 0 198 106.5t79 264.5v423q0 95 -34.5 138t-121.5 43v43q65 -6 161 -6t179 28v-856q0 -95 34.5 -137.5t121.5 -42.5v-43
q-65 6 -162 6t-178 -29v242z" />
    <glyph glyph-name="v" unicode="v" horiz-adv-x="1001" 
d="M-4 1012v43q106 -8 222 -8t224 8v-43q-83 0 -98 -6.5t-31 -17t-16 -45.5t22 -91l252 -623l226 592q22 56 22 99q0 84 -151 94v41q106 -6 184 -6t143 6v-41q-41 -5 -73 -37t-60 -107l-336 -880h-34l-377 907q-48 115 -119 115z" />
    <glyph glyph-name="w" unicode="w" horiz-adv-x="1577" 
d="M0 1012v43q86 -13 178 -13t268 13v-43q-95 0 -119 -18t-24 -56q0 -39 21 -98l205 -589l294 812h47l314 -829l192 587q19 60 19 101q0 83 -152 92v41q107 -6 185 -6t143 6v-41q-90 -10 -133 -144l-297 -880h-35l-325 824l-292 -824h-34l-336 907q-44 115 -119 115z" />
    <glyph glyph-name="x" unicode="x" horiz-adv-x="1063" 
d="M208 1047q54 0 226 8v-43q-33 0 -56.5 -13t-23.5 -29t8 -28l219 -319l142 198q62 87 62 129q0 55 -117 64v41q106 -6 184 -6t143 6v-41q-83 -10 -180 -144l-207 -286l301 -439q36 -52 62 -73.5t65 -28.5v-43q-104 8 -160 8t-227 -8v43q33 0 57 12.5t24 28.5t-9 29
l-233 340l-150 -195q-57 -73 -57 -123q0 -84 151 -94v-41q-108 6 -216 6t-173 -6v41q79 10 180 143l236 311l-285 414q-41 59 -65.5 78.5t-61.5 24.5v43q107 -8 161 -8z" />
    <glyph glyph-name="y" unicode="y" horiz-adv-x="1032" 
d="M192 -154q107 0 107 -104q0 -54 -55 -84q4 -2 12 -2q113 0 174 160l73 187l-372 894q-57 115 -139 115v43q96 -13 192 -13t275 13v-43q-93 0 -118 -16.5t-25 -54.5q0 -37 26 -101l247 -612l226 593q22 60 22 101q0 82 -153 92v41q108 -6 186 -6t142 6v-41q-41 -5 -73 -37
t-60 -107l-406 -1058q-39 -101 -93 -149t-134 -48q-160 0 -160 123q0 49 29 78.5t77 29.5z" />
    <glyph glyph-name="z" unicode="z" horiz-adv-x="975" 
d="M444 1024q-137 0 -204 -76.5t-80 -253.5h-47q0 271 -9 369q161 -8 369 -8t426 10l-592 -1034h225q260 0 285 329h47q0 -267 8 -368q-160 8 -368 8t-426 -10l592 1034h-226z" />
    <glyph glyph-name="braceleft" unicode="{" horiz-adv-x="623" 
d="M55 594v37h11q74 4 107.5 65.5t40.5 187t7 276.5t33.5 252.5t107.5 145.5t207 44v-39q-69 -2 -95 -24t-36.5 -49.5t-21 -93t-10.5 -220.5t-23.5 -273.5t-94.5 -189t-175 -101.5q104 -31 156 -83t94.5 -139.5t42.5 -333.5t25.5 -316t63 -77.5t74.5 -8.5v-39
q-101 0 -165 22t-123.5 100.5t-59.5 361.5t-24.5 363.5t-53.5 104t-77 27.5h-11z" />
    <glyph glyph-name="bar" unicode="|" horiz-adv-x="455" 
d="M186 -399v2156h82v-2156h-82z" />
    <glyph glyph-name="braceright" unicode="}" horiz-adv-x="623" 
d="M217 98q0 106 23.5 223.5t94.5 188.5t175 102q-104 31 -156 82.5t-94.5 140t-42.5 330.5t-26 310.5t-63.5 77.5t-73.5 10v39q133 0 207 -44t107.5 -145.5t33.5 -252.5t7 -276.5t40.5 -187t107.5 -65.5h11v-37h-11q-48 -4 -77 -27.5t-53.5 -104t-24.5 -294.5
q0 -215 -17.5 -306.5t-59.5 -147t-106 -77.5t-165 -22v39q71 2 96.5 22.5t35.5 48t18 78.5t10.5 120t2.5 175z" />
    <glyph glyph-name="asciitilde" unicode="~" horiz-adv-x="1329" 
d="M1085.5 540q-82.5 -59 -201.5 -59t-258.5 79t-264.5 79t-175 -119l-34 10q12 99 94 158.5t201 59.5t258.5 -79t264.5 -79t175 119l35 -11q-12 -99 -94.5 -158z" />
    <glyph glyph-name="uni00A0" unicode="&#xa0;" horiz-adv-x="510" 
 />
    <glyph glyph-name="exclamdown" unicode="&#xa1;" horiz-adv-x="510" 
d="M160 -265q0 63 38 386.5t38 529.5h36q0 -206 38 -529.5t38 -387.5q0 -120 -94 -119q-41 0 -67.5 28.5t-26.5 91.5zM125 952q0 54 38.5 92.5t92.5 38.5t92.5 -38.5t38.5 -92.5t-38.5 -92.5t-92.5 -38.5t-92.5 38.5t-38.5 92.5z" />
    <glyph glyph-name="cent" unicode="&#xa2;" horiz-adv-x="971" 
d="M268 553q0 -229 62.5 -345t167.5 -141v971q-95 -26 -162.5 -141t-67.5 -344zM69 512q0 238 119 394t310 175v369h45v-367h3q138 0 236 -65t98 -158q0 -54 -30 -84.5t-78 -30.5t-80.5 27.5t-32.5 73.5t24.5 75.5t61.5 39.5q-20 37 -73 61.5t-111 24.5l-18 -1v-986l20 -1
q87 0 166.5 51t130.5 160l39 -14q-32 -105 -120 -191t-236 -94v-342h-45v343q-186 9 -307.5 155.5t-121.5 384.5z" />
    <glyph glyph-name="sterling" unicode="&#xa3;" horiz-adv-x="1233" 
d="M926 129q144 1 145 127q0 60 -47 105t-127 61l8 33q108 -17 185 -84t77 -166t-59 -166.5t-164 -67.5t-227 77t-176 97q-53 19 -111 19t-113 -21q-47 -81 -103 -126.5t-99 -45.5t-43 21q0 30 59 82t125 76q23 108 23 378v80h-158v41h158v164h-158v41h158v45q0 608 454 608
q121 0 187 -52q66 -51 67 -105q0 -54 -28.5 -82.5t-66.5 -28.5t-66.5 26t-28.5 66q0 71 67 96q-4 20 -43 35t-81 15t-74.5 -7t-57 -22.5t-44.5 -33t-34.5 -46.5t-25 -54t-23 -99t-12.5 -263v-98h297v-41h-297v-164h297v-41h-298q-4 -122 -35.5 -218t-96.5 -210q87 41 166 41
t214.5 -46t209.5 -46z" />
    <glyph glyph-name="yen" unicode="&#xa5;" horiz-adv-x="1325" 
d="M55 1407v43q79 -6 229 -6t238 6v-43q-144 0 -144 -79q0 -30 21 -71l340 -651h2l260 518q56 114 56 174t-45 84.5t-136 26.5v41q116 -6 222 -6t167 6v-41q-80 -18 -164 -182l-313 -621h279v-41h-287v-164h287v-41h-287v-143q0 -58 5.5 -89.5t25.5 -51.5t49.5 -26.5
t85.5 -8.5v-41q-96 6 -266 6t-257 -6v41q56 2 85.5 8.5t49.5 26.5t25.5 51.5t5.5 89.5v143h-286v41h286v125l-21 39h-265v41h243l-372 686q-38 69 -65.5 92t-53.5 23z" />
    <glyph glyph-name="section" unicode="&#xa7;" horiz-adv-x="1040" 
d="M345 970q-150 -84 -150 -222t118 -224.5t224 -159.5t159 -117q152 85 152 228q0 98 -82 176.5t-224 175.5q-143 98 -197 143zM868 -56q0 -151 -98.5 -240t-261.5 -89q-98 0 -177 33t-121 82.5t-42 99.5t29 82.5t78 32.5t81.5 -30.5t32.5 -78.5q0 -86 -88 -108
q17 -39 78 -56.5t123 -17.5q114 0 168.5 61t54.5 142q0 141 -139.5 241.5t-210.5 149.5q-141 95 -216 181.5t-75 209.5q0 224 235 354q-145 133 -145 282t98.5 238t262.5 89q91 0 173 -33t124 -83t42 -100t-29 -82t-77 -32t-81.5 30t-33.5 78q0 87 88 109q-19 39 -79 56.5
t-120 17.5q-121 0 -173 -63.5t-52 -128.5q0 -64 22.5 -112.5t95 -115t188.5 -144.5t165.5 -118.5t109.5 -110t60 -192.5q0 -219 -240 -350q150 -133 150 -284z" />
    <glyph glyph-name="dieresis" unicode="&#xa8;" horiz-adv-x="799" 
d="M498 1402q0 48 35 84t83 36t83.5 -36t35.5 -84t-35.5 -83t-83.5 -35t-83 35t-35 83zM63 1402q0 48 35.5 84t83.5 36t83.5 -36t35.5 -84t-35.5 -83t-83.5 -35t-83.5 35t-35.5 83z" />
    <glyph glyph-name="copyright" unicode="&#xa9;" horiz-adv-x="1831" 
d="M1061 1116q0 86 86 105q-20 37 -73 61.5t-111 24.5q-101 0 -177 -80q-116 -128 -116 -428q0 -362 116 -421t191 -59t154.5 51t130.5 160l38 -14q-33 -109 -126 -197t-248 -88q-197 0 -326 147.5t-129 397.5t133 408.5t346 158.5q151 0 246 -71q86 -60 86 -152
q0 -53 -30 -83.5t-78 -30.5t-80.5 30t-32.5 80zM182 786q0 -152 58 -290.5t156 -239t234 -160t286 -59.5t285.5 59.5t233.5 160t156 239t58 290.5t-58 291t-156.5 239.5t-233.5 160t-285 59.5t-286 -59.5t-234 -160t-156 -239.5t-58 -291zM100 786q0 166 64.5 317
t173.5 260.5t260 174t317 64.5t317 -64.5t260.5 -174t174 -260.5t64.5 -317t-64.5 -317t-174 -260t-260.5 -173.5t-317 -64.5t-317 64.5t-260 173.5t-173.5 260t-64.5 317z" />
    <glyph glyph-name="ordfeminine" unicode="&#xaa;" horiz-adv-x="948" 
d="M285 932q0 -54 30.5 -88.5t94.5 -34.5t137 65v297q-14 -29 -103 -70q-89 -40 -124 -77.5t-35 -91.5zM547 1272q0 168 -139 168q-85 0 -152 -43q30 -9 50 -34.5t20 -63.5t-27 -63.5t-67 -25.5t-67.5 25.5t-27.5 67.5q0 81 99 129t228 47q129 0 188 -61.5t59 -198.5v-334
q0 -43 11.5 -59.5t49.5 -16.5t74 35l22 -31q-80 -76 -168 -76t-119 24.5t-34 72.5q-100 -97 -240 -97q-77 0 -133.5 41t-56.5 127t81 131.5t149 70.5t106 41t66 37.5t28 49.5v37z" />
    <glyph glyph-name="guillemotleft" unicode="&#xab;" horiz-adv-x="1028" 
d="M424 526v2q158 88 270.5 223.5t200.5 331.5l35 -14q-72 -191 -155.5 -313.5t-196.5 -220.5q110 -96 194.5 -225t157.5 -324l-35 -15q-88 196 -200.5 332t-270.5 223zM66 526v2q158 88 270.5 223.5t200.5 331.5l34 -14q-71 -191 -155 -313.5t-197 -220.5
q110 -96 194.5 -225.5t157.5 -323.5l-34 -15q-88 196 -200.5 332t-270.5 223z" />
    <glyph glyph-name="logicalnot" unicode="&#xac;" horiz-adv-x="1343" 
d="M168 696v62h1026v-420h-74v358h-952z" />
    <glyph glyph-name="uni00AD" unicode="&#xad;" horiz-adv-x="1022" 
d="M141 492v118h740v-118h-740z" />
    <glyph glyph-name="registered" unicode="&#xae;" horiz-adv-x="1389" 
d="M823 1209q-1 145 -129 145q-64 0 -78 -13t-14 -55v-219h49q101 0 136.5 35t35.5 107zM485 827v449q0 48 -8.5 61.5t-38.5 16.5v30q25 -2 99 -2l176 2q115 0 176 -42t61 -119q0 -139 -198 -174q81 -9 116 -37t45 -82l25 -117q1 -5 3 -14.5t3 -14.5t3 -12.5t4.5 -11
t6.5 -9.5t18 -6t23 17l21 -14q-22 -43 -82 -43t-85 19.5t-36 63.5l-35 152q-12 58 -43 75t-137 19v-207q0 -46 8.5 -59t38.5 -16v-31l-104 2l-107 -2v31q30 3 38.5 16t8.5 59zM209 1030q0 -136 64.5 -252.5t176.5 -185t244 -68.5t244.5 68.5t177 185t64.5 252.5t-64.5 252.5
t-176.5 185t-245 68.5t-244.5 -68.5t-176 -185t-64.5 -252.5zM123 1030q0 155 76.5 287t208 208.5t286.5 76.5t287 -76.5t208.5 -208.5t76.5 -287t-76.5 -286.5t-208.5 -208t-287 -76.5t-286.5 76.5t-208 208t-76.5 286.5z" />
    <glyph glyph-name="macron" unicode="&#xaf;" horiz-adv-x="741" 
d="M51 1407v51h639v-51h-639z" />
    <glyph glyph-name="degree" unicode="&#xb0;" horiz-adv-x="682" 
d="M143 1430q0 -100 60 -154.5t137 -54.5t138 55.5t61 154.5t-61.5 156.5t-137.5 57.5t-136.5 -57.5t-60.5 -157.5zM92 1433q0 111 73 178.5t176 67.5t176 -67.5t73 -178.5t-73 -179t-176 -68t-176 68t-73 179z" />
    <glyph glyph-name="plusminus" unicode="&#xb1;" horiz-adv-x="1313" 
d="M150 0v62h1026v-62h-1026zM129 696v62h477v483h74v-483h475v-62h-475v-481h-74v481h-477z" />
    <glyph glyph-name="acute" unicode="&#xb4;" horiz-adv-x="457" 
d="M334 1680q34 0 58 -19t23 -53q0 -34 -29 -70q-29 -38 -133.5 -129.5t-189.5 -181.5l-22 18q66 104 130 227.5t96 165.5q33 42 67 42z" />
    <glyph glyph-name="paragraph" unicode="&#xb6;" horiz-adv-x="1321" 
d="M254 718q0 -4 133 -16t440 -12q4 -308 30.5 -450t33.5 -142v1245q-7 0 -33.5 -147.5t-30.5 -445.5q-297 0 -435 -14t-138 -18zM1079 1272v-1426q0 -77 13.5 -112t46 -48t106.5 -16v-41q-95 6 -279 6t-284 -6v41q126 4 166.5 44.5t40.5 152.5v106q-510 0 -663.5 244
t-153.5 520q0 210 85.5 370.5t253 252.5t394.5 92l309 -7q72 0 123 5v-39q-95 -4 -126.5 -35.5t-31.5 -103.5z" />
    <glyph glyph-name="periodcentered" unicode="&#xb7;" horiz-adv-x="541" 
d="M139 548q0 54 38.5 92.5t92.5 38.5t92.5 -38.5t38.5 -92.5t-38.5 -92.5t-92.5 -38.5t-92.5 38.5t-38.5 92.5z" />
    <glyph glyph-name="cedilla" unicode="&#xb8;" horiz-adv-x="467" 
d="M296 -133q126 -1 126 -101q0 -50 -53 -100.5t-169 -50.5q-115 0 -180 23l9 36q43 -6 97 -6t109.5 21.5t55.5 70.5q0 58 -86 58q-59 0 -101 -15l70 209h55l-53 -159q61 14 120 14z" />
    <glyph glyph-name="ordmasculine" unicode="&#xba;" horiz-adv-x="930" 
d="M272 1108q0 -169 54 -251.5t138 -82.5t138.5 82.5t54.5 251.5t-54.5 251.5t-138.5 82.5t-138 -82.5t-54 -251.5zM102 1140.5q0 174.5 125 256.5t228 82t183.5 -40.5t134.5 -127t54 -203.5t-79.5 -244t-270.5 -127t-283 114.5t-92 289z" />
    <glyph glyph-name="guillemotright" unicode="&#xbb;" horiz-adv-x="1026" 
d="M457 -16q71 190 154.5 312.5t197.5 221.5q-110 96 -194.5 225.5t-157.5 323.5l35 14q87 -196 199.5 -331.5t271.5 -223.5v-2q-159 -88 -271.5 -223.5t-199.5 -331.5zM98 -16q72 191 155.5 313t197.5 221q-110 96 -194.5 225t-158.5 324l35 14q88 -196 200.5 -331.5
t270.5 -223.5v-2q-158 -88 -270.5 -223.5t-200.5 -331.5z" />
    <glyph glyph-name="questiondown" unicode="&#xbf;" horiz-adv-x="928" 
d="M412 954q0 54 38.5 92.5t92.5 38.5t92.5 -38.5t38.5 -92.5t-38.5 -92.5t-92.5 -38.5t-92.5 38.5t-38.5 92.5zM647 -186q0 50 32.5 80t80.5 30t78 -30.5t30 -77.5q0 -85 -98 -143t-284 -58t-304.5 93.5t-118.5 254.5t124.5 273t336.5 161v258h41v-276
q-195 -67 -257 -160.5t-62 -216.5q0 -176 76 -261t214 -85t197 53q-86 17 -86 105z" />
    <glyph glyph-name="Agrave" unicode="&#xc0;" 
d="M337 590h464l-229 611zM290 1844q0 20 17 46t53 26t71 -23q36 -23 138.5 -116.5t200.5 -168.5l-14 -27q-112 57 -242 107.5t-177 80.5t-47 75zM1064 6q-156 0 -243 -6v41q78 3 111.5 19t33.5 54t-24 99l-126 336h-494l-84 -217q-41 -104 -41 -168t43.5 -92.5t134.5 -30.5
v-41q-117 6 -223 6t-166 -6v41q102 23 161 178l482 1241h33l499 -1288q50 -127 142 -131v-41q-83 6 -239 6z" />
    <glyph glyph-name="Aacute" unicode="&#xc1;" 
d="M918 1916q36 0 53 -26t17 -46q0 -45 -47 -75t-177 -80.5t-242 -107.5l-14 27q98 75 200.5 168.5t138.5 116.5q35 23 71 23zM337 590h464l-229 611zM1064 6q-156 0 -243 -6v41q78 3 111.5 19t33.5 54t-24 99l-126 336h-494l-84 -217q-41 -104 -41 -168t43.5 -92.5
t134.5 -30.5v-41q-117 6 -223 6t-166 -6v41q102 23 161 178l482 1241h33l499 -1288q50 -127 142 -131v-41q-83 6 -239 6z" />
    <glyph glyph-name="Acircumflex" unicode="&#xc2;" 
d="M337 590h464l-229 611zM1024 1577q-275 58 -432 143q-130 -85 -350 -143l-10 29q131 45 232.5 117.5t150.5 152.5h37q48 -80 149.5 -152.5t233.5 -117.5zM1064 6q-156 0 -243 -6v41q78 3 111.5 19t33.5 54t-24 99l-126 336h-494l-84 -217q-41 -104 -41 -168t43.5 -92.5
t134.5 -30.5v-41q-117 6 -223 6t-166 -6v41q102 23 161 178l482 1241h33l499 -1288q50 -127 142 -131v-41q-83 6 -239 6z" />
    <glyph glyph-name="Atilde" unicode="&#xc3;" 
d="M337 590h464l-229 611zM870 1690q90 0 122 114l30 -6q-9 -99 -73.5 -158t-146.5 -59t-145.5 39.5l-127 79t-131.5 39.5q-96 0 -127 -115l-31 6q9 99 74 158t156 59t200.5 -78.5t199.5 -78.5zM1064 6q-156 0 -243 -6v41q78 3 111.5 19t33.5 54t-24 99l-126 336h-494
l-84 -217q-41 -104 -41 -168t43.5 -92.5t134.5 -30.5v-41q-117 6 -223 6t-166 -6v41q102 23 161 178l482 1241h33l499 -1288q50 -127 142 -131v-41q-83 6 -239 6z" />
    <glyph glyph-name="Adieresis" unicode="&#xc4;" 
d="M731 1700q0 48 35.5 83.5t83.5 35.5t83.5 -36t35.5 -84t-35.5 -83t-83.5 -35t-83.5 35.5t-35.5 83.5zM337 590h464l-229 611zM297 1699q0 49 35 84.5t83 35.5t84 -36t36 -84t-35.5 -83t-84.5 -35t-83.5 34.5t-34.5 83.5zM1064 6q-156 0 -243 -6v41q78 3 111.5 19t33.5 54
t-24 99l-126 336h-494l-84 -217q-41 -104 -41 -168t43.5 -92.5t134.5 -30.5v-41q-117 6 -223 6t-166 -6v41q102 23 161 178l482 1241h33l499 -1288q50 -127 142 -131v-41q-83 6 -239 6z" />
    <glyph glyph-name="Aring" unicode="&#xc5;" 
d="M494 1706q0 -66 42.5 -104.5t97.5 -38.5t98 38.5t43 104.5t-43.5 105.5t-97.5 39.5t-97 -39.5t-43 -105.5zM437 1707q0 84 57.5 135.5t139.5 51.5t140 -51t58 -135t-58 -136t-140 -52t-139.5 51.5t-57.5 135.5zM337 590h464l-229 611zM1064 6q-156 0 -243 -6v41
q78 3 111.5 19t33.5 54t-24 99l-126 336h-494l-84 -217q-41 -104 -41 -168t43.5 -92.5t134.5 -30.5v-41q-117 6 -223 6t-166 -6v41q102 23 161 178l482 1241h33l499 -1288q50 -127 142 -131v-41q-83 6 -239 6z" />
    <glyph glyph-name="AE" unicode="&#xc6;" horiz-adv-x="1749" 
d="M856 750v483q0 38 -3 65l-330 -548h333zM1047 709v-492q0 -111 29.5 -140.5t135.5 -29.5h150q106 0 138 29t53.5 61.5t41.5 272.5h47q-6 -56 -6 -162t15 -248q-127 6 -439 6t-481 -6v41q57 3 81.5 16.5t34 48t9.5 111.5v492h-358l-299 -496q-38 -64 -38 -100t35 -52.5
t107 -19.5v-41q-61 6 -167 6t-156 -6v41q65 4 141 131l718 1184q-15 29 -48 39.5t-101 13.5v41q61 -2 203 -4l82 135h49l-82 -136q113 -1 333 -1t335 6q-15 -130 -15 -228t7 -141h-48q-13 152 -31 205.5t-52.5 85t-129.5 31.5h-129q-106 0 -135.5 -29.5t-29.5 -140.5v-483
h149q95 0 116 61t26.5 109.5t7.5 58.5h47q-8 -104 -8 -171l1 -79q0 -75 13 -250h-47l-3 24q-11 105 -33 144q-35 61 -120 62h-149z" />
    <glyph glyph-name="Ccedilla" unicode="&#xc7;" horiz-adv-x="1409" 
d="M855 -133q126 -1 126 -101q0 -50 -53 -100.5t-168 -50.5t-180 23l8 36q42 -6 97 -6t110 21.5t55 70.5q0 58 -86 58q-58 0 -100 -15l56 169q-280 13 -445.5 209t-165.5 532q0 226 83 400.5t231 270t337 95.5q205 -1 347 -111q52 -40 70 -40q42 0 52 122h47
q-8 -133 -8 -471h-47q-22 134 -41 191.5t-62 111.5q-124 160 -362 160q-201 0 -322 -195t-121 -527t129.5 -520t333.5 -188q102 0 199 39t151 117q42 56 60 121.5t35 202.5h47q0 -353 8 -492h-47q-9 121 -50 121q-16 0 -42 -17q-90 -63 -169.5 -96.5t-191.5 -36.5l-41 -118
q61 14 120 14z" />
    <glyph glyph-name="Egrave" unicode="&#xc8;" horiz-adv-x="1247" 
d="M284 1844q0 20 17 46t53 26t71 -23q36 -23 138.5 -116.5t200.5 -168.5l-14 -27q-112 57 -242 107.5t-177 80.5t-47 75zM442 709v-492q0 -110 30 -140t136 -30h150q97 0 156.5 17.5t96.5 63.5t54 109.5t29 172.5h47q-6 -56 -6 -160t14 -250q-139 6 -501 6t-562 -6v41
q74 3 106.5 16t46 48t13.5 112v1016q0 77 -13.5 112t-46 48t-106.5 16v41q201 -6 548 -6t474 6q-14 -134 -14 -228t6 -141h-47q-21 196 -64.5 249.5t-99.5 63t-111 9.5h-170q-106 0 -136 -30t-30 -140v-483h136q76 0 114.5 38.5t48.5 77t13.5 57.5t7.5 52t6 45h47
q-7 -102 -7 -193l1 -98q0 -104 12 -291h-47q-14 115 -23 146q-35 125 -173 125h-136z" />
    <glyph glyph-name="Eacute" unicode="&#xc9;" horiz-adv-x="1247" 
d="M912 1916q36 0 53 -26t17 -46q0 -45 -47 -75t-177 -80.5t-242 -107.5l-14 27q98 75 200.5 168.5t138.5 116.5q35 23 71 23zM442 709v-492q0 -110 30 -140t136 -30h150q97 0 156.5 17.5t96.5 63.5t54 109.5t29 172.5h47q-6 -56 -6 -160t14 -250q-139 6 -501 6t-562 -6v41
q74 3 106.5 16t46 48t13.5 112v1016q0 77 -13.5 112t-46 48t-106.5 16v41q201 -6 548 -6t474 6q-14 -134 -14 -228t6 -141h-47q-21 196 -64.5 249.5t-99.5 63t-111 9.5h-170q-106 0 -136 -30t-30 -140v-483h136q76 0 114.5 38.5t48.5 77t13.5 57.5t7.5 52t6 45h47
q-7 -102 -7 -193l1 -98q0 -104 12 -291h-47q-14 115 -23 146q-35 125 -173 125h-136z" />
    <glyph glyph-name="Ecircumflex" unicode="&#xca;" horiz-adv-x="1247" 
d="M1018 1577q-275 58 -432 143q-130 -85 -350 -143l-10 29q131 45 232.5 117.5t150.5 152.5h37q48 -80 149.5 -152.5t233.5 -117.5zM442 709v-492q0 -110 30 -140t136 -30h150q97 0 156.5 17.5t96.5 63.5t54 109.5t29 172.5h47q-6 -56 -6 -160t14 -250q-139 6 -501 6
t-562 -6v41q74 3 106.5 16t46 48t13.5 112v1016q0 77 -13.5 112t-46 48t-106.5 16v41q201 -6 548 -6t474 6q-14 -134 -14 -228t6 -141h-47q-21 196 -64.5 249.5t-99.5 63t-111 9.5h-170q-106 0 -136 -30t-30 -140v-483h136q76 0 114.5 38.5t48.5 77t13.5 57.5t7.5 52t6 45
h47q-7 -102 -7 -193l1 -98q0 -104 12 -291h-47q-14 115 -23 146q-35 125 -173 125h-136z" />
    <glyph glyph-name="Edieresis" unicode="&#xcb;" horiz-adv-x="1247" 
d="M725 1700q0 48 35.5 83.5t83.5 35.5t83.5 -36t35.5 -84t-35.5 -83t-83.5 -35t-83.5 35.5t-35.5 83.5zM291 1699q0 49 35 84.5t83 35.5t84 -36t36 -84t-35.5 -83t-84.5 -35t-83.5 34.5t-34.5 83.5zM442 709v-492q0 -110 30 -140t136 -30h150q97 0 156.5 17.5t96.5 63.5
t54 109.5t29 172.5h47q-6 -56 -6 -160t14 -250q-139 6 -501 6t-562 -6v41q74 3 106.5 16t46 48t13.5 112v1016q0 77 -13.5 112t-46 48t-106.5 16v41q201 -6 548 -6t474 6q-14 -134 -14 -228t6 -141h-47q-21 196 -64.5 249.5t-99.5 63t-111 9.5h-170q-106 0 -136 -30
t-30 -140v-483h136q76 0 114.5 38.5t48.5 77t13.5 57.5t7.5 52t6 45h47q-7 -102 -7 -193l1 -98q0 -104 12 -291h-47q-14 115 -23 146q-35 125 -173 125h-136z" />
    <glyph glyph-name="Igrave" unicode="&#xcc;" horiz-adv-x="694" 
d="M252 217v1016q0 77 -13.5 112t-46 48t-106.5 16v41q84 -6 256 -6t266 6v-41q-74 -3 -106.5 -16t-46 -48t-13.5 -112v-1016q0 -77 13.5 -112t46 -48t106.5 -16v-41q-94 6 -265 6t-257 -6v41q74 3 106.5 16t46 48t13.5 112zM5 1844q0 20 17 46q16 26 52 26t72 -23
t138.5 -116.5t200.5 -168.5l-14 -27q-112 57 -242 107.5t-177 80.5t-47 75z" />
    <glyph glyph-name="Iacute" unicode="&#xcd;" horiz-adv-x="694" 
d="M634 1916q36 0 52 -26q17 -26 17 -46q0 -45 -47 -75t-177 -80.5t-242 -107.5l-14 27q98 75 200.5 168.5t138.5 116.5t72 23zM252 217v1016q0 77 -13.5 112t-46 48t-106.5 16v41q84 -6 256 -6t266 6v-41q-74 -3 -106.5 -16t-46 -48t-13.5 -112v-1016q0 -77 13.5 -112
t46 -48t106.5 -16v-41q-94 6 -265 6t-257 -6v41q74 3 106.5 16t46 48t13.5 112z" />
    <glyph glyph-name="Icircumflex" unicode="&#xce;" horiz-adv-x="694" 
d="M252 217v1016q0 77 -13.5 112t-46 48t-106.5 16v41q84 -6 256 -6t266 6v-41q-74 -3 -106.5 -16t-46 -48t-13.5 -112v-1016q0 -77 13.5 -112t46 -48t106.5 -16v-41q-94 6 -265 6t-257 -6v41q74 3 106.5 16t46 48t13.5 112zM739 1577q-275 58 -432 143q-130 -85 -350 -143
l-10 29q131 45 232.5 117.5t150.5 152.5h37q48 -80 149.5 -152.5t233.5 -117.5z" />
    <glyph glyph-name="Idieresis" unicode="&#xcf;" horiz-adv-x="694" 
d="M446 1700q0 48 35.5 83.5t83.5 35.5t83.5 -36t35.5 -84t-36 -83t-84 -35t-83 35.5t-35 83.5zM252 217v1016q0 77 -13.5 112t-46 48t-106.5 16v41q84 -6 256 -6t266 6v-41q-74 -3 -106.5 -16t-46 -48t-13.5 -112v-1016q0 -77 13.5 -112t46 -48t106.5 -16v-41q-94 6 -265 6
t-257 -6v41q74 3 106.5 16t46 48t13.5 112zM12 1699q0 49 35 84.5t83 35.5t84 -36t36 -84t-36 -83t-84 -35t-83 34.5t-35 83.5z" />
    <glyph glyph-name="Eth" unicode="&#xd0;" horiz-adv-x="1483" 
d="M444 213q0 -108 29.5 -142t132.5 -34t189 20t180 82.5t142 213.5t48 354q0 202 -29.5 326.5t-127.5 252t-412 127.5q-93 0 -122.5 -34.5t-29.5 -141.5v-487h285v-41h-285v-496zM254 217v492h-166v41h166v483q0 77 -13.5 112t-46 48t-106.5 16v41q110 -7 200 -7l50 1
q282 6 309 6q362 0 542.5 -181t180.5 -524t-196 -544t-545 -201l-287 6q-168 0 -254 -6v41q74 3 106.5 16t46 48t13.5 112z" />
    <glyph glyph-name="Ntilde" unicode="&#xd1;" horiz-adv-x="1446" 
d="M1081.5 1640q-64.5 -59 -146.5 -59t-145.5 39.5l-127 79t-131.5 39.5q-96 0 -127 -115l-31 6q9 99 74 158t156 59t200 -78.5t200 -78.5q90 0 122 114l30 -6q-9 -99 -73.5 -158zM252 238v995q0 77 -13.5 112t-46 48t-106.5 16v41q67 -6 175 -6t175 6l723 -1114v876
q0 113 -27 144.5t-62.5 41t-96.5 11.5v41q73 -6 202 -6t197 6v-41q-103 -4 -134.5 -43.5t-31.5 -153.5v-1222h-47l-860 1329v-1081q0 -115 34.5 -154t151.5 -43v-41q-75 6 -203 6t-196 -6v41q103 4 134.5 43.5t31.5 153.5z" />
    <glyph glyph-name="Ograve" unicode="&#xd2;" horiz-adv-x="1518" 
d="M413 1844q0 20 17 46q16 26 52 26t72 -23t138.5 -116.5t200.5 -168.5l-14 -27q-112 57 -242 107.5t-177 80.5t-47 75zM313 721q0 -320 129.5 -516.5t323.5 -196.5q131 0 231 91.5t153.5 255t53.5 374.5q0 320 -129.5 516.5t-322.5 196.5q-131 0 -231.5 -91.5t-154 -255
t-53.5 -374.5zM109 713q0 226 83 400.5t231 270t337 95.5q296 0 472.5 -197.5t176.5 -544.5q0 -226 -83 -400.5t-231 -270t-337 -95.5q-296 0 -472.5 197.5t-176.5 544.5z" />
    <glyph glyph-name="Oacute" unicode="&#xd3;" horiz-adv-x="1518" 
d="M1042 1916q36 0 52 -26q17 -26 17 -46q0 -45 -47 -75t-177 -80.5t-242 -107.5l-14 27q98 75 200.5 168.5t138.5 116.5t72 23zM313 721q0 -320 129.5 -516.5t323.5 -196.5q131 0 231 91.5t153.5 255t53.5 374.5q0 320 -129.5 516.5t-322.5 196.5q-131 0 -231.5 -91.5
t-154 -255t-53.5 -374.5zM109 713q0 226 83 400.5t231 270t337 95.5q296 0 472.5 -197.5t176.5 -544.5q0 -226 -83 -400.5t-231 -270t-337 -95.5q-296 0 -472.5 197.5t-176.5 544.5z" />
    <glyph glyph-name="Ocircumflex" unicode="&#xd4;" horiz-adv-x="1518" 
d="M1147 1577q-275 58 -432 143q-130 -85 -350 -143l-10 29q131 45 232.5 117.5t150.5 152.5h37q48 -80 149.5 -152.5t233.5 -117.5zM313 721q0 -320 129.5 -516.5t323.5 -196.5q131 0 231 91.5t153.5 255t53.5 374.5q0 320 -129.5 516.5t-322.5 196.5q-131 0 -231.5 -91.5
t-154 -255t-53.5 -374.5zM109 713q0 226 83 400.5t231 270t337 95.5q296 0 472.5 -197.5t176.5 -544.5q0 -226 -83 -400.5t-231 -270t-337 -95.5q-296 0 -472.5 197.5t-176.5 544.5z" />
    <glyph glyph-name="Otilde" unicode="&#xd5;" horiz-adv-x="1518" 
d="M993 1690q90 0 122 114l30 -6q-9 -99 -73.5 -158t-146.5 -59t-145.5 39.5l-127 79t-131.5 39.5q-96 0 -127 -115l-31 6q9 99 74 158t156 59t200.5 -78.5t199.5 -78.5zM313 721q0 -320 129.5 -516.5t323.5 -196.5q131 0 231 91.5t153.5 255t53.5 374.5q0 320 -129.5 516.5
t-322.5 196.5q-131 0 -231.5 -91.5t-154 -255t-53.5 -374.5zM109 713q0 226 83 400.5t231 270t337 95.5q296 0 472.5 -197.5t176.5 -544.5q0 -226 -83 -400.5t-231 -270t-337 -95.5q-296 0 -472.5 197.5t-176.5 544.5z" />
    <glyph glyph-name="Odieresis" unicode="&#xd6;" horiz-adv-x="1518" 
d="M854 1700q0 48 35.5 83.5t83.5 35.5t83.5 -36t35.5 -84t-36 -83t-84 -35t-83 35.5t-35 83.5zM420 1699q0 49 35 84.5t83 35.5t84 -36t36 -84t-36 -83t-84 -35t-83 34.5t-35 83.5zM313 721q0 -320 129.5 -516.5t323.5 -196.5q131 0 231 91.5t153.5 255t53.5 374.5
q0 320 -129.5 516.5t-322.5 196.5q-131 0 -231.5 -91.5t-154 -255t-53.5 -374.5zM109 713q0 226 83 400.5t231 270t337 95.5q296 0 472.5 -197.5t176.5 -544.5q0 -226 -83 -400.5t-231 -270t-337 -95.5q-296 0 -472.5 197.5t-176.5 544.5z" />
    <glyph glyph-name="Oslash" unicode="&#xd8;" horiz-adv-x="1518" 
d="M1204 729q0 282 -103 472l-655 -1001q126 -192 320 -192q131 0 231 91.5t153.5 255t53.5 374.5zM313 721q0 -279 103 -472l657 999q-61 93 -144 143.5t-177 50.5q-131 0 -231.5 -91.5t-154 -255t-53.5 -374.5zM1409 737q0 -226 -83 -400.5t-231 -270t-337 -95.5
q-234 0 -398 127l-167 -248l-43 29l172 252q-213 200 -213 582q0 226 83 400.5t231 270t337 95.5q236 0 398 -127l159 231l39 -27l-161 -236q214 -199 214 -583z" />
    <glyph glyph-name="Ugrave" unicode="&#xd9;" horiz-adv-x="1397" 
d="M378 1844q0 20 17 46t53 26t71 -23q36 -23 138.5 -116.5t200.5 -168.5l-14 -27q-112 57 -242 107.5t-177 80.5t-47 75zM312 1444q170 0 266 6v-41q-56 -2 -85.5 -8.5t-49.5 -26.5t-25.5 -51.5t-5.5 -89.5v-678q0 -263 53.5 -364t126 -124.5t164.5 -23.5t232 69.5
t140 460.5v639q0 111 -40 151.5t-146 45.5v41q74 -6 203 -6t196 6v-41q-102 -4 -133.5 -43t-31.5 -154v-616q0 -291 -84 -434q-52 -88 -151.5 -139.5t-223.5 -51.5q-225 0 -344 111q-90 84 -121 190t-31 318v643q0 58 -5.5 89.5t-25.5 51.5t-49.5 26.5t-85.5 8.5v41
q87 -6 257 -6z" />
    <glyph glyph-name="Uacute" unicode="&#xda;" horiz-adv-x="1397" 
d="M1006 1916q36 0 53 -26t17 -46q0 -45 -47 -75t-177 -80.5t-242 -107.5l-14 27q98 75 200.5 168.5t138.5 116.5q35 23 71 23zM312 1444q170 0 266 6v-41q-56 -2 -85.5 -8.5t-49.5 -26.5t-25.5 -51.5t-5.5 -89.5v-678q0 -263 53.5 -364t126 -124.5t164.5 -23.5t232 69.5
t140 460.5v639q0 111 -40 151.5t-146 45.5v41q74 -6 203 -6t196 6v-41q-102 -4 -133.5 -43t-31.5 -154v-616q0 -291 -84 -434q-52 -88 -151.5 -139.5t-223.5 -51.5q-225 0 -344 111q-90 84 -121 190t-31 318v643q0 58 -5.5 89.5t-25.5 51.5t-49.5 26.5t-85.5 8.5v41
q87 -6 257 -6z" />
    <glyph glyph-name="Ucircumflex" unicode="&#xdb;" horiz-adv-x="1397" 
d="M1112 1577q-275 58 -432 143q-130 -85 -350 -143l-10 29q131 45 232.5 117.5t150.5 152.5h37q48 -80 149.5 -152.5t233.5 -117.5zM312 1444q170 0 266 6v-41q-56 -2 -85.5 -8.5t-49.5 -26.5t-25.5 -51.5t-5.5 -89.5v-678q0 -263 53.5 -364t126 -124.5t164.5 -23.5
t232 69.5t140 460.5v639q0 111 -40 151.5t-146 45.5v41q74 -6 203 -6t196 6v-41q-102 -4 -133.5 -43t-31.5 -154v-616q0 -291 -84 -434q-52 -88 -151.5 -139.5t-223.5 -51.5q-225 0 -344 111q-90 84 -121 190t-31 318v643q0 58 -5.5 89.5t-25.5 51.5t-49.5 26.5t-85.5 8.5
v41q87 -6 257 -6z" />
    <glyph glyph-name="Udieresis" unicode="&#xdc;" horiz-adv-x="1397" 
d="M819 1700q0 48 35.5 83.5t83.5 35.5t83.5 -36t35.5 -84t-35.5 -83t-83.5 -35t-83.5 35.5t-35.5 83.5zM385 1699q0 49 35 84.5t83 35.5t84 -36t36 -84t-35.5 -83t-84.5 -35t-83.5 34.5t-34.5 83.5zM312 1444q170 0 266 6v-41q-56 -2 -85.5 -8.5t-49.5 -26.5t-25.5 -51.5
t-5.5 -89.5v-678q0 -263 53.5 -364t126 -124.5t164.5 -23.5t232 69.5t140 460.5v639q0 111 -40 151.5t-146 45.5v41q74 -6 203 -6t196 6v-41q-102 -4 -133.5 -43t-31.5 -154v-616q0 -291 -84 -434q-52 -88 -151.5 -139.5t-223.5 -51.5q-225 0 -344 111q-90 84 -121 190
t-31 318v643q0 58 -5.5 89.5t-25.5 51.5t-49.5 26.5t-85.5 8.5v41q87 -6 257 -6z" />
    <glyph glyph-name="Yacute" unicode="&#xdd;" horiz-adv-x="1210" 
d="M908 1916q36 0 53 -26t17 -46q0 -45 -47 -75t-177 -80.5t-242 -107.5l-14 27q98 75 200.5 168.5t138.5 116.5q35 23 71 23zM-6 1407v43q80 -6 230 -6t237 6v-43q-144 0 -144 -79q0 -30 21 -71l341 -653l261 520q56 114 56 174t-45 84.5t-136 26.5v41q117 -6 222 -6t167 6
v-41q-80 -18 -164 -182l-321 -637v-373q0 -58 5.5 -89.5t25.5 -51.5t49.5 -26.5t85.5 -8.5v-41q-96 6 -266 6t-257 -6v41q56 2 85.5 8.5t49.5 26.5t25.5 51.5t5.5 89.5v309l-415 766q-38 69 -65.5 92t-53.5 23z" />
    <glyph glyph-name="Thorn" unicode="&#xde;" horiz-adv-x="1188" 
d="M442 324h123q238 0 296.5 131.5t58.5 298.5t-79.5 259.5t-260.5 92.5q-46 0 -138 -2v-780zM1124 745q0 -232 -149 -347t-389 -115h-144v-66q0 -77 13.5 -112t46 -48t106.5 -16v-41q-94 6 -265 6t-257 -6v41q74 3 106.5 16t46 48t13.5 112v1016q0 77 -13.5 112t-46 48
t-106.5 16v41q84 -6 256 -6t266 6v-41q-74 -3 -106.5 -16t-46 -48t-13.5 -112v-91l189 3q239 0 366 -111.5t127 -288.5z" />
    <glyph glyph-name="germandbls" unicode="&#xdf;" horiz-adv-x="1196" 
d="M43 43q87 0 121.5 42.5t34.5 137.5v879q0 262 107 381t289 119t276 -78t94 -215q0 -75 -38 -148.5t-122 -152t-189 -121.5q204 -47 349 -189t145 -328t-109 -292.5t-253 -106.5t-201.5 59.5t-57.5 113.5t28.5 84t76.5 30t79.5 -27t31.5 -73q0 -79 -89 -107q7 -19 38 -34
t89 -15t121.5 72.5t63.5 249.5t-61 290t-127.5 170.5t-151.5 83.5q-48 -30 -70 -30q-46 0 -47 34q0 39 47 39q31 0 74 -16q101 78 144.5 174t43.5 229t-51 203t-149 70q-143 0 -170 -110t-27 -183v-1301q-81 29 -178 29t-162 -6v43z" />
    <glyph glyph-name="agrave" unicode="&#xe0;" horiz-adv-x="1020" 
d="M260 232q0 -72 45 -118t119 -46q136 0 231 155v402q-15 -23 -50 -43t-112 -58t-104.5 -54.5t-61 -47t-50.5 -74.5t-17 -116zM224 1608q0 34 24 53t58 19t66 -42t96 -165.5t130 -227.5l-23 -18q-84 90 -188.5 181.5t-133.5 129.5q-29 36 -29 70zM655 168
q-110 -182 -327 -182q-99 0 -173.5 58t-74.5 173t90.5 187.5t202 116.5t114.5 45l37 17q35 15 45.5 21.5t29.5 18t37.5 35t18.5 51.5v127q0 119 -49.5 162.5t-140.5 43.5q-145 0 -203 -73q41 -10 68.5 -43.5t27.5 -83.5t-32 -79.5t-86 -29.5t-83.5 35t-29.5 92q0 80 96 146
q118 77 288 77q260 0 294.5 -126t34.5 -238v-569q0 -51 14.5 -74t52.5 -23t88 43l23 -35q-36 -27 -73 -51t-125 -24q-165 0 -165 182z" />
    <glyph glyph-name="aacute" unicode="&#xe1;" horiz-adv-x="1020" 
d="M670 1680q34 0 58 -19t23 -53q0 -34 -29 -70q-29 -38 -133.5 -129.5t-189.5 -181.5l-22 18q66 104 130 227.5t96 165.5q33 42 67 42zM260 232q0 -72 45 -118t119 -46q136 0 231 155v402q-15 -23 -50 -43t-112 -58t-104.5 -54.5t-61 -47t-50.5 -74.5t-17 -116zM655 168
q-110 -182 -327 -182q-99 0 -173.5 58t-74.5 173t90.5 187.5t202 116.5t114.5 45l37 17q35 15 45.5 21.5t29.5 18t37.5 35t18.5 51.5v127q0 119 -49.5 162.5t-140.5 43.5q-145 0 -203 -73q41 -10 68.5 -43.5t27.5 -83.5t-32 -79.5t-86 -29.5t-83.5 35t-29.5 92q0 80 96 146
q118 77 288 77q260 0 294.5 -126t34.5 -238v-569q0 -51 14.5 -74t52.5 -23t88 43l23 -35q-36 -27 -73 -51t-125 -24q-165 0 -165 182z" />
    <glyph glyph-name="acircumflex" unicode="&#xe2;" horiz-adv-x="1020" 
d="M260 232q0 -72 45 -118t119 -46q136 0 231 155v402q-15 -23 -50 -43t-112 -58t-104.5 -54.5t-61 -47t-50.5 -74.5t-17 -116zM848 1262q-245 84 -385 204q-114 -120 -303 -204l-17 28q117 58 208.5 153t133.5 199h37q42 -104 133.5 -199t208.5 -153zM655 168
q-110 -182 -327 -182q-99 0 -173.5 58t-74.5 173t90.5 187.5t202 116.5t114.5 45l37 17q35 15 45.5 21.5t29.5 18t37.5 35t18.5 51.5v127q0 119 -49.5 162.5t-140.5 43.5q-145 0 -203 -73q41 -10 68.5 -43.5t27.5 -83.5t-32 -79.5t-86 -29.5t-83.5 35t-29.5 92q0 80 96 146
q118 77 288 77q260 0 294.5 -126t34.5 -238v-569q0 -51 14.5 -74t52.5 -23t88 43l23 -35q-36 -27 -73 -51t-125 -24q-165 0 -165 182z" />
    <glyph glyph-name="atilde" unicode="&#xe3;" horiz-adv-x="1020" 
d="M260 232q0 -72 45 -118t119 -46q136 0 231 155v402q-15 -23 -50 -43t-112 -58t-104.5 -54.5t-61 -47t-50.5 -74.5t-17 -116zM662 1438q93 0 158 108l29 -14q-31 -108 -95.5 -159.5t-130.5 -51.5q-110 0 -183.5 68.5t-143.5 68.5q-91 0 -158 -110l-29 14
q31 108 95.5 159.5t143.5 51.5t124.5 -33.5t89 -67.5t100.5 -34zM655 168q-110 -182 -327 -182q-99 0 -173.5 58t-74.5 173t90.5 187.5t202 116.5t114.5 45l37 17q35 15 45.5 21.5t29.5 18t37.5 35t18.5 51.5v127q0 119 -49.5 162.5t-140.5 43.5q-145 0 -203 -73
q41 -10 68.5 -43.5t27.5 -83.5t-32 -79.5t-86 -29.5t-83.5 35t-29.5 92q0 80 96 146q118 77 288 77q260 0 294.5 -126t34.5 -238v-569q0 -51 14.5 -74t52.5 -23t88 43l23 -35q-36 -27 -73 -51t-125 -24q-165 0 -165 182z" />
    <glyph glyph-name="adieresis" unicode="&#xe4;" horiz-adv-x="1020" 
d="M605 1402q0 48 35 84t83 36t83.5 -36t35.5 -84t-36 -83t-84 -35t-82.5 35t-34.5 83zM260 232q0 -72 45 -118t119 -46q136 0 231 155v402q-15 -23 -50 -43t-112 -58t-104.5 -54.5t-61 -47t-50.5 -74.5t-17 -116zM170 1402q0 48 35.5 84t83.5 36t83.5 -36t35.5 -84t-36 -83
t-84 -35t-83 35t-35 83zM655 168q-110 -182 -327 -182q-99 0 -173.5 58t-74.5 173t90.5 187.5t202 116.5t114.5 45l37 17q35 15 45.5 21.5t29.5 18t37.5 35t18.5 51.5v127q0 119 -49.5 162.5t-140.5 43.5q-145 0 -203 -73q41 -10 68.5 -43.5t27.5 -83.5t-32 -79.5t-86 -29.5
t-83.5 35t-29.5 92q0 80 96 146q118 77 288 77q260 0 294.5 -126t34.5 -238v-569q0 -51 14.5 -74t52.5 -23t88 43l23 -35q-36 -27 -73 -51t-125 -24q-165 0 -165 182z" />
    <glyph glyph-name="aring" unicode="&#xe5;" horiz-adv-x="1020" 
d="M365 1431q0 -67 42.5 -105t97.5 -38t98 38t43 105t-43.5 106.5t-97.5 39.5t-97 -39.5t-43 -106.5zM308 1433q0 84 57.5 135.5t139.5 51.5t140 -51.5t58 -135.5t-58 -136t-140 -52t-139.5 52t-57.5 136zM260 232q0 -72 45 -118t119 -46q136 0 231 155v402q-15 -23 -50 -43
t-112 -58t-104.5 -54.5t-61 -47t-50.5 -74.5t-17 -116zM655 168q-110 -182 -327 -182q-99 0 -173.5 58t-74.5 173t90.5 187.5t202 116.5t114.5 45l37 17q35 15 45.5 21.5t29.5 18t37.5 35t18.5 51.5v127q0 119 -49.5 162.5t-140.5 43.5q-145 0 -203 -73q41 -10 68.5 -43.5
t27.5 -83.5t-32 -79.5t-86 -29.5t-83.5 35t-29.5 92q0 80 96 146q118 77 288 77q260 0 294.5 -126t34.5 -238v-569q0 -51 14.5 -74t52.5 -23t88 43l23 -35q-36 -27 -73 -51t-125 -24q-165 0 -165 182z" />
    <glyph glyph-name="ae" unicode="&#xe6;" horiz-adv-x="1520" 
d="M1060 1044q-88 0 -150.5 -93.5t-77.5 -278.5h403q5 159 -41 265.5t-134 106.5zM264 236q0 -99 46 -141t114 -42q142 0 225 170v402q-37 -41 -155 -99t-174 -124.5t-56 -165.5zM338 864q0 -50 -32 -80t-80 -30t-78.5 30.5t-30.5 77.5q-1 82 101 152t276 69q212 0 286 -130
q107 130 285 130t272.5 -111.5t94.5 -338.5h-596q-7 -55 -7 -131q0 -202 86 -323.5t203 -121.5q176 0 260 205l41 -16q-34 -114 -124 -194.5t-224 -80.5t-230.5 67.5t-143.5 194.5q-115 -262 -351 -262q-151 0 -206.5 74.5t-55.5 144.5q0 134 82.5 204t230.5 136
q149 65 178 82q74 43 74 97v127q0 206 -200 206q-139 0 -197 -73q86 -19 86 -105z" />
    <glyph glyph-name="ccedilla" unicode="&#xe7;" horiz-adv-x="995" 
d="M609 -133q126 -1 126 -101q0 -50 -53 -100.5t-169 -50.5q-115 0 -180 23l9 36q42 -6 96 -6t110 21.5t56 70.5q0 58 -86 58q-59 0 -101 -15l58 174q-169 27 -275 170t-106 381t133.5 396.5t343.5 158.5q138 0 236 -65t98 -158q0 -54 -30.5 -84.5t-78.5 -30.5t-80 27.5
t-32 73.5t24.5 75.5t61.5 39.5q-20 37 -73 61.5t-103 24.5t-114.5 -23.5t-125.5 -140t-61 -338.5q0 -370 116.5 -428t190.5 -58t154 51t131 160l39 -14q-33 -108 -126.5 -196.5t-250.5 -88.5h-19l-39 -118q61 14 120 14z" />
    <glyph glyph-name="egrave" unicode="&#xe8;" horiz-adv-x="1036" 
d="M550 1044q-98 0 -167.5 -93.5t-85.5 -278.5h446q6 159 -44.5 265.5t-148.5 106.5zM275 1608q-1 34 23 53t58 19t67 -42q32 -42 96 -165.5t130 -227.5l-23 -18q-84 90 -188.5 181.5t-133.5 129.5q-29 36 -29 70zM94 517q0 254 125.5 410t323.5 156q397 0 397 -450h-640
q-7 -55 -7 -131q0 -201 94 -323t219 -122q206 0 301 205l41 -16q-37 -113 -138.5 -194t-244.5 -81q-219 0 -345 146t-126 400z" />
    <glyph glyph-name="eacute" unicode="&#xe9;" horiz-adv-x="1036" 
d="M720 1680q34 0 58 -19t24 -53t-29 -70q-29 -38 -133.5 -129.5t-189.5 -181.5l-22 18q66 104 130 227.5t96 165.5t66 42zM550 1044q-98 0 -167.5 -93.5t-85.5 -278.5h446q6 159 -44.5 265.5t-148.5 106.5zM94 517q0 254 125.5 410t323.5 156q397 0 397 -450h-640
q-7 -55 -7 -131q0 -201 94 -323t219 -122q206 0 301 205l41 -16q-37 -113 -138.5 -194t-244.5 -81q-219 0 -345 146t-126 400z" />
    <glyph glyph-name="ecircumflex" unicode="&#xea;" horiz-adv-x="1036" 
d="M550 1044q-98 0 -167.5 -93.5t-85.5 -278.5h446q6 159 -44.5 265.5t-148.5 106.5zM899 1262q-245 84 -385 204q-114 -120 -303 -204l-17 28q117 58 208.5 153t133.5 199h37q42 -104 133.5 -199t208.5 -153zM94 517q0 254 125.5 410t323.5 156q397 0 397 -450h-640
q-7 -55 -7 -131q0 -201 94 -323t219 -122q206 0 301 205l41 -16q-37 -113 -138.5 -194t-244.5 -81q-219 0 -345 146t-126 400z" />
    <glyph glyph-name="edieresis" unicode="&#xeb;" horiz-adv-x="1036" 
d="M656 1402q0 48 35 84t83 36t83.5 -36t35.5 -84t-35.5 -83t-83.5 -35t-83 35t-35 83zM550 1044q-98 0 -167.5 -93.5t-85.5 -278.5h446q6 159 -44.5 265.5t-148.5 106.5zM221 1402q0 48 35.5 84t83.5 36t83.5 -36t35.5 -84t-35.5 -83t-83.5 -35t-83.5 35t-35.5 83zM94 517
q0 254 125.5 410t323.5 156q397 0 397 -450h-640q-7 -55 -7 -131q0 -201 94 -323t219 -122q206 0 301 205l41 -16q-37 -113 -138.5 -194t-244.5 -81q-219 0 -345 146t-126 400z" />
    <glyph glyph-name="igrave" unicode="&#xec;" horiz-adv-x="600" 
d="M59 43q86 0 121 31.5t35 115.5v641q0 95 -34.5 138t-121.5 43v43q65 -6 161 -6t179 28v-887q0 -84 35 -115.5t121 -31.5v-43q-188 8 -248 8t-248 -8v43zM9 1608q0 34 24 53t58 19t66 -42t96 -165.5t130 -227.5l-23 -18q-84 90 -188.5 181.5t-133.5 129.5q-29 36 -29 70z
" />
    <glyph glyph-name="iacute" unicode="&#xed;" horiz-adv-x="600" 
d="M454 1680q34 0 58 -19t24 -53t-29 -70q-29 -38 -133.5 -129.5t-189.5 -181.5l-22 18q66 104 130 227.5t96 165.5t66 42zM59 43q86 0 121 31.5t35 115.5v641q0 95 -34.5 138t-121.5 43v43q65 -6 161 -6t179 28v-887q0 -84 35 -115.5t121 -31.5v-43q-188 8 -248 8t-248 -8
v43z" />
    <glyph glyph-name="icircumflex" unicode="&#xee;" horiz-adv-x="600" 
d="M59 43q86 0 121 31.5t35 115.5v641q0 95 -34.5 138t-121.5 43v43q65 -6 161 -6t179 28v-887q0 -84 35 -115.5t121 -31.5v-43q-188 8 -248 8t-248 -8v43zM633 1262q-245 84 -385 204q-114 -120 -303 -204l-17 28q117 58 208.5 153t133.5 199h37q42 -104 133.5 -199
t208.5 -153z" />
    <glyph glyph-name="idieresis" unicode="&#xef;" horiz-adv-x="600" 
d="M390 1402q0 48 35 84t83 36t83.5 -36t35.5 -84t-35.5 -83t-83.5 -35t-83 35t-35 83zM59 43q86 0 121 31.5t35 115.5v641q0 95 -34.5 138t-121.5 43v43q65 -6 161 -6t179 28v-887q0 -84 35 -115.5t121 -31.5v-43q-188 8 -248 8t-248 -8v43zM-45 1402q0 48 35.5 84t83.5 36
t83.5 -36t35.5 -84t-35.5 -83t-83.5 -35t-83.5 35t-35.5 83z" />
    <glyph glyph-name="eth" unicode="&#xf0;" horiz-adv-x="1135" 
d="M564 1040q-271 0 -271 -518q0 -273 72.5 -391.5t183.5 -118.5t193.5 133.5t82.5 472.5q0 169 -27 239.5t-73 126.5t-161 56zM94 522q0 171 76 319.5t180.5 195t190.5 46.5q167 0 245 -106q-60 244 -218 396l-369 -181l-19 37l356 173q-100 85 -270 165l17 35
q188 -75 319 -168l289 141l18 -37l-270 -131q381 -289 381 -789q0 -159 -39 -285.5t-139 -244t-299 -117.5q-198 0 -323.5 142t-125.5 409z" />
    <glyph glyph-name="ntilde" unicode="&#xf1;" horiz-adv-x="1223" 
d="M785 1438q93 0 158 108l29 -14q-31 -108 -95.5 -159.5t-130.5 -51.5q-110 0 -183.5 68.5t-143.5 68.5q-91 0 -158 -110l-29 14q31 108 95.5 159.5t143.5 51.5t124.5 -33.5t89 -67.5t100.5 -34zM748 1083q143 0 217 -77q38 -42 54.5 -103.5t16.5 -165.5v-547
q0 -84 35 -115.5t121 -31.5v-43q-188 8 -246 8t-229 -8v43q75 0 105 31.5t30 115.5v592q0 140 -42 188t-124 48q-127 0 -207 -107t-80 -266v-455q0 -84 30 -115.5t106 -31.5v-43q-172 8 -230 8t-246 -8v43q86 0 121 31.5t35 115.5v641q0 95 -34.5 138t-121.5 43v43
q65 -6 161 -6t179 28v-241q97 247 349 247z" />
    <glyph glyph-name="ograve" unicode="&#xf2;" horiz-adv-x="1122" 
d="M295 526q0 -264 71.5 -389t194.5 -125t194.5 125t71.5 389t-71.5 390t-194.5 126t-194.5 -126t-71.5 -390zM287 1608q0 34 24 53t58 19t66 -42t96 -165.5t130 -227.5l-23 -18q-84 90 -188.5 181.5t-133.5 129.5q-29 36 -29 70zM96 512q0 130 23.5 223t65 157.5
t100.5 107.5t127.5 63t148.5 20t187 -31.5t192.5 -164t85.5 -361.5q0 -413 -182.5 -484t-282.5 -71t-182.5 32t-147 97.5t-100 173.5t-35.5 238z" />
    <glyph glyph-name="oacute" unicode="&#xf3;" horiz-adv-x="1122" 
d="M732 1680q34 0 58 -19t24 -53t-29 -70q-29 -38 -133.5 -129.5t-189.5 -181.5l-22 18q66 104 130 227.5t96 165.5t66 42zM295 526q0 -264 71.5 -389t194.5 -125t194.5 125t71.5 389t-71.5 390t-194.5 126t-194.5 -126t-71.5 -390zM96 512q0 130 23.5 223t65 157.5
t100.5 107.5t127.5 63t148.5 20t187 -31.5t192.5 -164t85.5 -361.5q0 -413 -182.5 -484t-282.5 -71t-182.5 32t-147 97.5t-100 173.5t-35.5 238z" />
    <glyph glyph-name="ocircumflex" unicode="&#xf4;" horiz-adv-x="1122" 
d="M295 526q0 -264 71.5 -389t194.5 -125t194.5 125t71.5 389t-71.5 390t-194.5 126t-194.5 -126t-71.5 -390zM911 1262q-245 84 -385 204q-114 -120 -303 -204l-17 28q117 58 208.5 153t133.5 199h37q42 -104 133.5 -199t208.5 -153zM96 512q0 130 23.5 223t65 157.5
t100.5 107.5t127.5 63t148.5 20t187 -31.5t192.5 -164t85.5 -361.5q0 -413 -182.5 -484t-282.5 -71t-182.5 32t-147 97.5t-100 173.5t-35.5 238z" />
    <glyph glyph-name="otilde" unicode="&#xf5;" horiz-adv-x="1122" 
d="M295 526q0 -264 71.5 -389t194.5 -125t194.5 125t71.5 389t-71.5 390t-194.5 126t-194.5 -126t-71.5 -390zM725 1438q93 0 158 108l29 -14q-31 -108 -95.5 -159.5t-130.5 -51.5q-110 0 -183.5 68.5t-143.5 68.5q-91 0 -158 -110l-29 14q31 108 95.5 159.5t143.5 51.5
t124.5 -33.5t89 -67.5t100.5 -34zM96 512q0 130 23.5 223t65 157.5t100.5 107.5t127.5 63t148.5 20t187 -31.5t192.5 -164t85.5 -361.5q0 -413 -182.5 -484t-282.5 -71t-182.5 32t-147 97.5t-100 173.5t-35.5 238z" />
    <glyph glyph-name="odieresis" unicode="&#xf6;" horiz-adv-x="1122" 
d="M668 1402q0 48 35 84t83 36t83.5 -36t35.5 -84t-35.5 -83t-83.5 -35t-83 35t-35 83zM295 526q0 -264 71.5 -389t194.5 -125t194.5 125t71.5 389t-71.5 390t-194.5 126t-194.5 -126t-71.5 -390zM233 1402q0 48 35.5 84t83.5 36t83.5 -36t35.5 -84t-35.5 -83t-83.5 -35
t-83.5 35t-35.5 83zM96 512q0 130 23.5 223t65 157.5t100.5 107.5t127.5 63t148.5 20t187 -31.5t192.5 -164t85.5 -361.5q0 -413 -182.5 -484t-282.5 -71t-182.5 32t-147 97.5t-100 173.5t-35.5 238z" />
    <glyph glyph-name="divide" unicode="&#xf7;" horiz-adv-x="1329" 
d="M551 1021q0 47 33.5 80.5t79.5 33.5t80 -33.5t34 -80.5t-33 -79.5t-81 -32.5t-80.5 32.5t-32.5 79.5zM551 432q0 46 33.5 79.5t79.5 33.5t80 -33t34 -80t-34 -81t-80 -34t-79.5 34.5t-33.5 80.5zM150 696v62h1026v-62h-1026z" />
    <glyph glyph-name="oslash" unicode="&#xf8;" horiz-adv-x="1120" 
d="M556 12q128 0 199.5 125.5t71.5 351.5t-39 348l-429 -684q69 -141 197 -141zM295 562q0 -228 41 -351l431 683q-69 148 -199 148t-201.5 -126t-71.5 -354zM96 526q0 336 151.5 446.5t319.5 110.5t283 -93l145 212l39 -26l-148 -219q140 -143 140 -431q0 -413 -182.5 -484
t-282.5 -71q-170 0 -285 89l-143 -210l-43 29l148 215q-142 145 -142 432z" />
    <glyph glyph-name="ugrave" unicode="&#xf9;" horiz-adv-x="1190" 
d="M293 1608q-1 34 23 53t58 19t67 -42q32 -42 96 -165.5t130 -227.5l-23 -18q-84 90 -188.5 181.5t-133.5 129.5q-29 36 -29 70zM805 217q-97 -246 -351 -246q-122 -1 -194 75t-72 271v514q0 95 -34 138t-121 43v43q64 -6 160 -6t180 28v-805q0 -146 37.5 -190.5
t117.5 -44.5q119 0 198 106.5t79 264.5v423q0 95 -34.5 138t-121.5 43v43q65 -6 161 -6t179 28v-856q0 -95 34.5 -137.5t121.5 -42.5v-43q-65 6 -162 6t-178 -29v242z" />
    <glyph glyph-name="uacute" unicode="&#xfa;" horiz-adv-x="1190" 
d="M738 1680q34 0 58 -19t24 -53t-29 -70q-29 -38 -133.5 -129.5t-189.5 -181.5l-22 18q66 104 130 227.5t96 165.5t66 42zM805 217q-97 -246 -351 -246q-122 -1 -194 75t-72 271v514q0 95 -34 138t-121 43v43q64 -6 160 -6t180 28v-805q0 -146 37.5 -190.5t117.5 -44.5
q119 0 198 106.5t79 264.5v423q0 95 -34.5 138t-121.5 43v43q65 -6 161 -6t179 28v-856q0 -95 34.5 -137.5t121.5 -42.5v-43q-65 6 -162 6t-178 -29v242z" />
    <glyph glyph-name="ucircumflex" unicode="&#xfb;" horiz-adv-x="1190" 
d="M917 1262q-245 84 -385 204q-114 -120 -303 -204l-17 28q117 58 208.5 153t133.5 199h37q42 -104 133.5 -199t208.5 -153zM805 217q-97 -246 -351 -246q-122 -1 -194 75t-72 271v514q0 95 -34 138t-121 43v43q64 -6 160 -6t180 28v-805q0 -146 37.5 -190.5t117.5 -44.5
q119 0 198 106.5t79 264.5v423q0 95 -34.5 138t-121.5 43v43q65 -6 161 -6t179 28v-856q0 -95 34.5 -137.5t121.5 -42.5v-43q-65 6 -162 6t-178 -29v242z" />
    <glyph glyph-name="udieresis" unicode="&#xfc;" horiz-adv-x="1190" 
d="M674 1402q0 48 35 84t83 36t83.5 -36t35.5 -84t-35.5 -83t-83.5 -35t-83 35t-35 83zM239 1402q0 48 35.5 84t83.5 36t83.5 -36t35.5 -84t-35.5 -83t-83.5 -35t-83.5 35t-35.5 83zM805 217q-97 -246 -351 -246q-122 -1 -194 75t-72 271v514q0 95 -34 138t-121 43v43
q64 -6 160 -6t180 28v-805q0 -146 37.5 -190.5t117.5 -44.5q119 0 198 106.5t79 264.5v423q0 95 -34.5 138t-121.5 43v43q65 -6 161 -6t179 28v-856q0 -95 34.5 -137.5t121.5 -42.5v-43q-65 6 -162 6t-178 -29v242z" />
    <glyph glyph-name="yacute" unicode="&#xfd;" horiz-adv-x="1032" 
d="M686 1680q34 0 58 -19t23 -53q0 -34 -29 -70q-29 -38 -133.5 -129.5t-189.5 -181.5l-22 18q66 104 130 227.5t96 165.5q33 42 67 42zM192 -154q107 0 107 -104q0 -54 -55 -84q4 -2 12 -2q113 0 174 160l73 187l-372 894q-57 115 -139 115v43q96 -13 192 -13t275 13v-43
q-93 0 -118 -16.5t-25 -54.5q0 -37 26 -101l247 -612l226 593q22 60 22 101q0 82 -153 92v41q108 -6 186 -6t142 6v-41q-41 -5 -73 -37t-60 -107l-406 -1058q-39 -101 -93 -149t-134 -48q-160 0 -160 123q0 49 29 78.5t77 29.5z" />
    <glyph glyph-name="thorn" unicode="&#xfe;" horiz-adv-x="1145" 
d="M557 18q293 0 293 529q0 475 -238 475q-93 0 -166.5 -66.5t-105.5 -192.5v-613q66 -132 217 -132zM0 1538v43q64 -6 162 -6t178 29v-743q46 106 132.5 164t195.5 58q167 0 274 -134t107 -374q0 -304 -138.5 -454t-330.5 -150q-78 0 -141 30.5t-99 80.5v-262
q0 -83 49 -115.5t148 -32.5v-43q-271 9 -297 9t-220 -9v43q75 0 105.5 27.5t30.5 99.5v1559q0 95 -34.5 137.5t-121.5 42.5z" />
    <glyph glyph-name="ydieresis" unicode="&#xff;" horiz-adv-x="1032" 
d="M621 1402q0 48 35 84t83 36t83.5 -36t35.5 -84t-36 -83t-84 -35t-82.5 35t-34.5 83zM186 1402q0 48 35.5 84t83.5 36t83.5 -36t35.5 -84t-36 -83t-84 -35t-83 35t-35 83zM192 -154q107 0 107 -104q0 -54 -55 -84q4 -2 12 -2q113 0 174 160l73 187l-372 894
q-57 115 -139 115v43q96 -13 192 -13t275 13v-43q-93 0 -118 -16.5t-25 -54.5q0 -37 26 -101l247 -612l226 593q22 60 22 101q0 82 -153 92v41q108 -6 186 -6t142 6v-41q-41 -5 -73 -37t-60 -107l-406 -1058q-39 -101 -93 -149t-134 -48q-160 0 -160 123q0 49 29 78.5
t77 29.5z" />
    <glyph glyph-name="Aogonek" unicode="&#x104;" 
d="M337 590h464l-229 611zM1155 -287q76 0 125 68l30 -27q-91 -139 -231 -139q-73 0 -117.5 36.5t-44.5 106.5t72.5 136.5t206.5 110.5q-36 1 -162 1t-213 -6v41q78 3 111.5 19t33.5 54t-24 99l-126 336h-494l-84 -217q-41 -104 -41 -168t43.5 -92.5t134.5 -30.5v-41
q-117 6 -223 6t-166 -6v41q102 23 161 178l482 1241h33l499 -1288q50 -127 142 -131v-41l-38 2q-105 -30 -151.5 -85t-46.5 -105q0 -99 88 -99z" />
    <glyph glyph-name="aogonek" unicode="&#x105;" horiz-adv-x="1020" 
d="M260 232q0 -72 45 -118t119 -46q136 0 231 155v402q-15 -23 -50 -43t-112 -58t-104.5 -54.5t-61 -47t-50.5 -74.5t-17 -116zM655 168q-110 -182 -327 -182q-99 0 -173.5 58t-74.5 173t90.5 187.5t202 116.5t114.5 45l37 17q35 15 45.5 21.5t29.5 18t37.5 35t18.5 51.5
v127q0 119 -49.5 162.5t-140.5 43.5q-145 0 -203 -73q41 -10 68.5 -43.5t27.5 -83.5t-32 -79.5t-86 -29.5t-83.5 35t-29.5 92q0 80 96 146q118 77 288 77q260 0 294.5 -126t34.5 -238v-569q0 -51 14.5 -74t52.5 -23t88 43l23 -35q-56 -43 -74 -51t-34 -14
q-178 -76 -178 -193q0 -41 23.5 -65.5t64.5 -24.5q76 0 125 68l30 -27q-91 -139 -231 -139q-73 0 -117.5 36.5t-44.5 96.5q0 145 229 239q-156 9 -156 181z" />
    <glyph glyph-name="Cacute" unicode="&#x106;" horiz-adv-x="1409" 
d="M1030 1916q36 0 53 -26t17 -46q0 -45 -47 -75t-177 -80.5t-242 -107.5l-14 27q98 75 200.5 168.5t138.5 116.5q35 23 71 23zM1179 121q-16 0 -42 -17q-93 -65 -176.5 -99t-202.5 -34q-296 0 -472.5 197.5t-176.5 544.5q0 226 83 400.5t231 270t337 95.5q205 -1 347 -111
q52 -40 70 -40q42 0 52 122h47q-8 -133 -8 -471h-47q-22 134 -41 191.5t-62 111.5q-124 160 -362 160q-201 0 -322 -195t-121 -527t129.5 -520t333.5 -188q102 0 199 39t151 117q42 56 60 121.5t35 202.5h47q0 -353 8 -492h-47q-9 121 -50 121z" />
    <glyph glyph-name="cacute" unicode="&#x107;" horiz-adv-x="995" 
d="M704 1680q34 0 58 -19t24 -53t-29 -70q-29 -38 -133.5 -129.5t-189.5 -181.5l-22 18q66 104 130 227.5t96 165.5t66 42zM571 1083q138 0 236 -65t98 -158q0 -54 -30.5 -84.5t-78.5 -30.5t-80 27.5t-32 73.5t24.5 75.5t61.5 39.5q-20 37 -73 61.5t-103 24.5t-114.5 -23.5
t-125.5 -140t-61 -338.5q0 -370 116.5 -428t190.5 -58t154 51t131 160l39 -14q-33 -108 -126.5 -196.5t-250.5 -88.5q-193 0 -323 146t-130 397q0 252 133.5 410.5t343.5 158.5z" />
    <glyph glyph-name="Eogonek" unicode="&#x118;" horiz-adv-x="1247" 
d="M1026 -287q76 0 125 68l30 -27q-91 -139 -231 -139q-73 0 -117.5 36.5t-44.5 106.5t71 135.5t203 109.5q-126 3 -450 3t-526 -6v41q74 3 106.5 16t46 48t13.5 112v1016q0 77 -13.5 112t-46 48t-106.5 16v41q201 -6 548 -6t474 6q-14 -134 -14 -228t6 -141h-47
q-21 196 -64.5 249.5t-99.5 63t-111 9.5h-170q-106 0 -136 -30t-30 -140v-483h136q76 0 114.5 38.5t48.5 77t13.5 57.5t7.5 52t6 45h47q-7 -102 -7 -193l1 -98q0 -104 12 -291h-47q-14 115 -23 146q-35 125 -173 125h-136v-492q0 -110 30 -140t136 -30h150q97 0 156.5 17.5
t96.5 63.5t54 109.5t29 172.5h47q-6 -55 -6 -156q0 -102 7 -176t7 -78l-18 1q-102 -31 -147.5 -85t-45.5 -104q0 -98 88 -99z" />
    <glyph glyph-name="eogonek" unicode="&#x119;" horiz-adv-x="1036" 
d="M550 1044q-98 0 -167.5 -93.5t-85.5 -278.5h446q6 159 -44.5 265.5t-148.5 106.5zM617 -287q76 0 125 68l30 -27q-91 -139 -231 -139q-73 0 -117.5 36.5t-44.5 96.5q0 133 193 223h-7q-219 0 -345 146t-126 400t125.5 410t323.5 156q397 0 397 -450h-640q-7 -55 -7 -131
q0 -201 94 -323t219 -122q206 0 301 205l41 -16q-25 -78 -85 -144.5t-144 -101.5l-7 -2l-9 -4q-174 -75 -174 -191q0 -41 23.5 -65.5t64.5 -24.5z" />
    <glyph glyph-name="dotlessi" unicode="&#x131;" horiz-adv-x="600" 
d="M59 43q86 0 121 31.5t35 115.5v641q0 95 -34.5 138t-121.5 43v43q65 -6 161 -6t179 28v-887q0 -84 35 -115.5t121 -31.5v-43q-188 8 -248 8t-248 -8v43z" />
    <glyph glyph-name="Lslash" unicode="&#x141;" horiz-adv-x="1204" 
d="M252 217v309l-166 -96v47l166 96v660q0 77 -13.5 112t-46 48t-106.5 16v41q84 -6 256 -6t266 6v-41q-74 -3 -106.5 -16t-46 -48t-13.5 -112v-570l527 306v-47l-527 -306v-399q0 -110 30 -140t136 -30h150q97 0 156.5 18.5t96.5 67.5t54 115.5t29 181.5h47q-6 -64 -6 -174
t14 -256q-139 6 -501 6t-562 -6v41q74 3 106.5 16t46 48t13.5 112z" />
    <glyph glyph-name="lslash" unicode="&#x142;" horiz-adv-x="586" 
d="M201 1360q0 95 -34.5 137.5t-121.5 42.5v43q63 -6 161 -6t179 29v-724l231 201v-61l-231 -202v-630q0 -84 35 -115.5t121 -31.5v-43q-188 8 -248 8t-248 -8v43q86 0 121 31.5t35 115.5v490l-232 -201v62l232 201v618z" />
    <glyph glyph-name="Nacute" unicode="&#x143;" horiz-adv-x="1446" 
d="M1052 1916q36 0 52 -26q17 -26 17 -46q0 -45 -47 -75t-177 -80.5t-242 -107.5l-14 27q98 75 200.5 168.5t138.5 116.5t72 23zM252 238v995q0 77 -13.5 112t-46 48t-106.5 16v41q67 -6 175 -6t175 6l723 -1114v876q0 113 -27 144.5t-62.5 41t-96.5 11.5v41q73 -6 202 -6
t197 6v-41q-103 -4 -134.5 -43.5t-31.5 -153.5v-1222h-47l-860 1329v-1081q0 -115 34.5 -154t151.5 -43v-41q-75 6 -203 6t-196 -6v41q103 4 134.5 43.5t31.5 153.5z" />
    <glyph glyph-name="nacute" unicode="&#x144;" horiz-adv-x="1223" 
d="M792 1680q34 0 58 -19t24 -53t-29 -70q-29 -38 -133.5 -129.5t-189.5 -181.5l-22 18q66 104 130 227.5t96 165.5t66 42zM748 1083q143 0 217 -77q38 -42 54.5 -103.5t16.5 -165.5v-547q0 -84 35 -115.5t121 -31.5v-43q-188 8 -246 8t-229 -8v43q75 0 105 31.5t30 115.5
v592q0 140 -42 188t-124 48q-127 0 -207 -107t-80 -266v-455q0 -84 30 -115.5t106 -31.5v-43q-172 8 -230 8t-246 -8v43q86 0 121 31.5t35 115.5v641q0 95 -34.5 138t-121.5 43v43q65 -6 161 -6t179 28v-241q97 247 349 247z" />
    <glyph glyph-name="OE" unicode="&#x152;" horiz-adv-x="1901" 
d="M313 721q0 -320 129.5 -516.5t323.5 -196.5q131 0 186.5 69.5t55.5 139.5v1016q0 106 -71.5 157.5t-193.5 51.5t-222.5 -91.5t-154 -255t-53.5 -374.5zM1286 709h-88v-492q0 -110 30 -140t136 -30h47q97 0 156.5 17.5t96.5 63.5t54 109.5t29 172.5h47q-6 -56 -6 -160
t14 -250q-127 6 -421 6t-455 -4q-84 -31 -168 -31q-296 0 -472.5 197.5t-176.5 544.5q0 226 83 400.5t231 270t337 95.5q95 0 180 -31q164 -4 436 -4t385 6q-14 -134 -14 -228t6 -141h-47q-21 198 -65 251t-99 62t-110 9h-68q-106 0 -136 -30t-30 -140v-483h88q137 0 158 76
t26 109t7 44h47q-7 -83 -7 -159l1 -91q0 -88 12 -250h-47q-6 39 -8.5 57t-7.5 41t-9.5 31.5t-12.5 26.5t-17.5 25.5t-33.5 28t-108 20.5z" />
    <glyph glyph-name="oe" unicode="&#x153;" horiz-adv-x="1710" 
d="M1238 1044q-92 0 -161.5 -93.5t-85.5 -278.5h426q5 159 -41 265.5t-138 106.5zM297 526q0 -264 65.5 -389t179.5 -125t180 125.5t66 388.5q0 389 -95 451.5t-150 62.5q-114 0 -180 -125t-66 -389zM98 526q0 414 175 484.5t281 70.5t197.5 -59.5t141.5 -181.5
q54 117 146 180t212 63q175 0 269 -111.5t94 -338.5h-620q-7 -55 -7 -131q0 -201 94 -323t219 -122q190 0 281 205l41 -16q-36 -113 -131 -194t-227 -81q-262 0 -374 233q-103 -233 -347 -233q-194 0 -319.5 133.5t-125.5 421.5z" />
    <glyph glyph-name="Sacute" unicode="&#x15a;" horiz-adv-x="1106" 
d="M848 1916q36 0 53 -26t17 -46q0 -45 -47 -75t-177 -80.5t-242 -107.5l-14 27q98 75 200.5 168.5t138.5 116.5q35 23 71 23zM221 76q-34 0 -45 -90h-47q8 112 8 491h47q14 -198 98.5 -331.5t274.5 -133.5q110 0 188 69t78 196t-81.5 207.5t-189.5 145.5
q-107 65 -143.5 88.5t-99 70.5t-116.5 130.5t-54 184.5q0 190 113.5 279.5t250.5 89.5t186 -26.5t90 -52.5t65 -26q34 0 45 90h47q-10 -120 -10 -418h-47q-12 158 -92 276t-244 118q-110 0 -180 -66.5t-70 -171.5q0 -65 17.5 -99.5t30 -54.5t36 -41.5t40.5 -36.5t49.5 -36.5
t52 -34t58.5 -36t77 -47.5t72 -46t77 -53.5t91.5 -79.5t80 -116.5t31.5 -174.5t-88 -237.5t-347 -131.5q-159 0 -275 73q-51 32 -75 32z" />
    <glyph glyph-name="sacute" unicode="&#x15b;" horiz-adv-x="913" 
d="M632 1680q34 0 58 -19t24 -53t-29 -70q-29 -38 -133.5 -129.5t-189.5 -181.5l-22 18q66 104 130 227.5t96 165.5t66 42zM121 395h47q29 -237 99.5 -310t185.5 -73q72 0 127 47.5t55 145.5t-70 155t-135 98t-76.5 48.5t-45 30t-45.5 32.5t-38 32t-36 36t-39 54t-29 128
q0 130 86.5 197t216.5 67t223 -75q22 -17 36 -17q36 0 46 90h47q-8 -100 -8 -348h-47q-51 311 -279 311q-74 0 -121 -41.5t-47 -105.5t22 -93.5t36.5 -45.5t43 -36.5t47 -33t56 -36.5t75.5 -48t103 -69t112.5 -115.5t47.5 -161.5t-73 -189t-277 -98q-91 0 -162 29
q-40 20 -66 42t-37 21q-30 0 -42 -77h-47q8 117 8 409z" />
    <glyph glyph-name="Ydieresis" unicode="&#x178;" horiz-adv-x="1210" 
d="M721 1700q0 48 35.5 83.5t83.5 35.5t83.5 -36t35.5 -84t-35.5 -83t-83.5 -35t-83.5 35.5t-35.5 83.5zM287 1699q0 49 35 84.5t83 35.5t84 -36t36 -84t-35.5 -83t-84.5 -35t-83.5 34.5t-34.5 83.5zM-6 1407v43q80 -6 230 -6t237 6v-43q-144 0 -144 -79q0 -30 21 -71
l341 -653l261 520q56 114 56 174t-45 84.5t-136 26.5v41q117 -6 222 -6t167 6v-41q-80 -18 -164 -182l-321 -637v-373q0 -58 5.5 -89.5t25.5 -51.5t49.5 -26.5t85.5 -8.5v-41q-96 6 -266 6t-257 -6v41q56 2 85.5 8.5t49.5 26.5t25.5 51.5t5.5 89.5v309l-415 766
q-38 69 -65.5 92t-53.5 23z" />
    <glyph glyph-name="Zacute" unicode="&#x179;" horiz-adv-x="1217" 
d="M890 1916q36 0 52 -26q17 -26 17 -46q0 -45 -47 -75t-177 -80.5t-242 -107.5l-14 27q98 75 200.5 168.5t138.5 116.5t72 23zM510 1403q-97 0 -156.5 -18.5t-96.5 -67.5t-54 -115.5t-29 -181.5h-47q6 64 6 174t-14 256q151 -6 505 -6t502 6v-41l-847 -1362h432
q97 0 156.5 18.5t96.5 67.5t54 115.5t29 181.5h47q-7 -74 -7 -174t15 -256q-152 6 -506 6t-510 -6v41l854 1362h-430z" />
    <glyph glyph-name="zacute" unicode="&#x17a;" horiz-adv-x="975" 
d="M686 1680q34 0 58 -19t23 -53q0 -34 -29 -70q-29 -38 -133.5 -129.5t-189.5 -181.5l-22 18q66 104 130 227.5t96 165.5q33 42 67 42zM444 1024q-137 0 -204 -76.5t-80 -253.5h-47q0 271 -9 369q161 -8 369 -8t426 10l-592 -1034h225q260 0 285 329h47q0 -267 8 -368
q-160 8 -368 8t-426 -10l592 1034h-226z" />
    <glyph glyph-name="Zdotaccent" unicode="&#x17b;" horiz-adv-x="1217" 
d="M473 1832q0 54 38.5 93t92.5 39t92.5 -39t38.5 -93t-38.5 -92t-92.5 -38t-92.5 38t-38.5 92zM510 1403q-97 0 -156.5 -18.5t-96.5 -67.5t-54 -115.5t-29 -181.5h-47q6 64 6 174t-14 256q151 -6 505 -6t502 6v-41l-847 -1362h432q97 0 156.5 18.5t96.5 67.5t54 115.5
t29 181.5h47q-7 -74 -7 -174t15 -256q-152 6 -506 6t-510 -6v41l854 1362h-430z" />
    <glyph glyph-name="zdotaccent" unicode="&#x17c;" horiz-adv-x="975" 
d="M389 1436q0 54 38.5 92.5t92.5 38.5t92.5 -38.5t38.5 -92.5t-38.5 -92.5t-92.5 -38.5t-92.5 38.5t-38.5 92.5zM444 1024q-137 0 -204 -76.5t-80 -253.5h-47q0 271 -9 369q161 -8 369 -8t426 10l-592 -1034h225q260 0 285 329h47q0 -267 8 -368q-160 8 -368 8t-426 -10
l592 1034h-226z" />
    <glyph glyph-name="florin" unicode="&#x192;" horiz-adv-x="940" 
d="M10 -278q0 44 26 71t68 27t68.5 -26t26.5 -70t-33 -78q77 9 110 49q43 47 43 172v1145h-245v41h245v2q0 180 22.5 277.5t72.5 155.5q96 114 254 114q107 0 174 -53t67 -130q0 -44 -28.5 -74t-76.5 -30t-79 27t-31 75q0 77 88 105q-6 19 -36.5 34t-71.5 15q-92 0 -133 -76
q-25 -43 -31 -129.5t-6 -310.5v-2h342v-41h-342v-776q0 -356 -101 -486q-105 -134 -214 -134.5t-144 31t-35 75.5z" />
    <glyph glyph-name="circumflex" unicode="&#x2c6;" horiz-adv-x="823" 
d="M756 1262q-245 84 -385 204q-114 -120 -303 -204l-17 28q117 58 208.5 153t133.5 199h37q42 -104 133.5 -199t208.5 -153z" />
    <glyph glyph-name="caron" unicode="&#x2c7;" horiz-adv-x="823" 
d="M51 1614l17 28q111 -38 216 -94t169 -110q114 120 303 204l16 -28q-117 -58 -208.5 -153t-133.5 -199h-37q-42 104 -133.5 199t-208.5 153z" />
    <glyph glyph-name="breve" unicode="&#x2d8;" horiz-adv-x="877" 
d="M439 1417q213 0 331 197l35 -19q-46 -113 -138 -206t-229 -93q-183 0 -263 121.5t-103 177.5l34 19q120 -197 333 -197z" />
    <glyph glyph-name="dotaccent" unicode="&#x2d9;" horiz-adv-x="406" 
d="M72 1436q0 54 38 92.5t92 38.5t93 -38.5t39 -92.5t-39 -92.5t-93 -38.5t-92 38.5t-38 92.5z" />
    <glyph glyph-name="ring" unicode="&#x2da;" horiz-adv-x="539" 
d="M129 1431q0 -67 42.5 -105t97.5 -38t98 38t43 105t-43.5 106.5t-97.5 39.5t-97 -39.5t-43 -106.5zM72 1433q0 84 57.5 135.5t139.5 51.5t140 -51.5t58 -135.5t-58 -136t-140 -52t-139.5 52t-57.5 136z" />
    <glyph glyph-name="ogonek" unicode="&#x2db;" horiz-adv-x="496" 
d="M287 -287q76 0 125 68l30 -27q-91 -139 -231 -139q-73 0 -117.5 36.5t-44.5 106.5t73.5 137t209.5 111h65q-5 -5 -20 -10q-178 -76 -178 -193q0 -41 23.5 -65.5t64.5 -24.5z" />
    <glyph glyph-name="tilde" unicode="&#x2dc;" horiz-adv-x="842" 
d="M604 1438q93 0 158 108l29 -14q-31 -108 -95.5 -159.5t-130.5 -51.5q-110 0 -183.5 68.5t-143.5 68.5q-91 0 -158 -110l-29 14q31 108 95.5 159.5t143.5 51.5t124.5 -33.5t89 -67.5t100.5 -34z" />
    <glyph glyph-name="hungarumlaut" unicode="&#x2dd;" horiz-adv-x="842" 
d="M708 1680q34 0 58 -19t24 -53q0 -56 -132 -172t-220 -209l-22 18q66 104 130 227.5t96 165.5t66 42zM344 1680q34 0 58 -19t23 -53q0 -34 -29 -70q-29 -38 -133.5 -129.5t-188.5 -181.5l-23 18q66 104 130 227.5t96 165.5q33 42 67 42z" />
    <glyph glyph-name="Omega" unicode="&#x3a9;" horiz-adv-x="1462" 
d="M307 6q-100 0 -160 -6q15 130 15 232t-6 157h47q17 -193 81 -267.5t214 -74.5h98q-72 136 -184.5 294t-191.5 292t-79 334q0 241 153.5 376.5t436.5 135.5t436.5 -135.5t153.5 -376.5q0 -199 -78.5 -333.5t-193 -295.5t-183.5 -291h99q150 0 214 74.5t81 267.5h47
q-7 -65 -7 -155t15 -234q-60 6 -160 6t-340 -6v33q301 452 301 893q0 253 -90 384.5t-294 131.5t-295 -131.5t-91 -384.5q0 -442 301 -893v-33q-240 6 -340 6z" />
    <glyph glyph-name="pi" unicode="&#x3c0;" horiz-adv-x="1235" 
d="M571 1053h590v-172h-358l-62 -537q-2 -24 -2 -34q0 -120 103 -120q83 0 138.5 62.5t94.5 206.5l39 -8q-45 -244 -129.5 -362t-177.5 -118q-129 0 -129 184q0 45 6 91l80 635h-223q-56 -551 -166 -830q-33 -80 -119 -80q-40 0 -62 21.5t-22 43.5t1 30t5 17.5t6.5 16.5
t9.5 18t11 17t13.5 18.5t14 18t16.5 21t31 39.5t108.5 153.5t116.5 495.5h-77q-129 0 -206.5 -52t-135.5 -229l-35 8q55 217 168.5 331t351.5 114z" />
    <glyph glyph-name="uni2000" unicode="&#x2000;" horiz-adv-x="982" 
 />
    <glyph glyph-name="uni2001" unicode="&#x2001;" horiz-adv-x="1964" 
 />
    <glyph glyph-name="uni2002" unicode="&#x2002;" horiz-adv-x="982" 
 />
    <glyph glyph-name="uni2003" unicode="&#x2003;" horiz-adv-x="1964" 
 />
    <glyph glyph-name="uni2004" unicode="&#x2004;" horiz-adv-x="654" 
 />
    <glyph glyph-name="uni2005" unicode="&#x2005;" horiz-adv-x="491" 
 />
    <glyph glyph-name="uni2006" unicode="&#x2006;" horiz-adv-x="327" 
 />
    <glyph glyph-name="uni2007" unicode="&#x2007;" horiz-adv-x="327" 
 />
    <glyph glyph-name="uni2008" unicode="&#x2008;" horiz-adv-x="245" 
 />
    <glyph glyph-name="uni2009" unicode="&#x2009;" horiz-adv-x="392" 
 />
    <glyph glyph-name="uni200A" unicode="&#x200a;" horiz-adv-x="109" 
 />
    <glyph glyph-name="uni2010" unicode="&#x2010;" horiz-adv-x="1022" 
d="M141 492v118h740v-118h-740z" />
    <glyph glyph-name="uni2011" unicode="&#x2011;" horiz-adv-x="1022" 
d="M141 492v118h740v-118h-740z" />
    <glyph glyph-name="figuredash" unicode="&#x2012;" horiz-adv-x="1022" 
d="M141 492v118h740v-118h-740z" />
    <glyph glyph-name="endash" unicode="&#x2013;" horiz-adv-x="1169" 
d="M121 510v82h928v-82h-928z" />
    <glyph glyph-name="emdash" unicode="&#x2014;" horiz-adv-x="1765" 
d="M121 510v82h1524v-82h-1524z" />
    <glyph glyph-name="quoteleft" unicode="&#x2018;" horiz-adv-x="508" 
d="M256 963q-68 -1 -106 59t-38 152t52.5 173.5t158.5 131.5l19 -37q-64 -27 -110 -84.5t-46 -116.5q0 -25 6 -43q36 27 84 27t85.5 -35.5t37.5 -93.5t-38 -95.5t-105 -37.5z" />
    <glyph glyph-name="quoteright" unicode="&#x2019;" horiz-adv-x="502" 
d="M111 1345q0 58 38 95.5t105 37.5q68 0 106 -60t38 -151q0 -92 -52.5 -173.5t-158.5 -131.5l-19 37q64 27 110 84.5t46 116.5q0 25 -6 43q-36 -27 -84 -27t-85.5 35.5t-37.5 93.5z" />
    <glyph glyph-name="quotesinglbase" unicode="&#x201a;" horiz-adv-x="535" 
d="M127 100q0 58 38 95.5t105 37.5q68 1 106 -59t38 -152t-52.5 -173.5t-158.5 -131.5l-19 37q64 27 110 84.5t46 116.5q0 25 -6 43q-36 -27 -84 -27t-85.5 35.5t-37.5 93.5z" />
    <glyph glyph-name="quotedblleft" unicode="&#x201c;" horiz-adv-x="856" 
d="M604 963q-68 -1 -106 59t-38 152t52.5 173.5t158.5 131.5l19 -37q-64 -27 -110 -84.5t-46 -116.5q0 -25 6 -43q36 27 84 27t85.5 -35.5t37.5 -93.5t-38 -95.5t-105 -37.5zM256 963q-66 -1 -106 59q-38 60 -38 152t52.5 173.5t158.5 131.5l19 -37q-64 -27 -110 -84.5
t-46 -116.5q0 -25 6 -43q34 27 82 27t86.5 -35.5t38.5 -93.5t-38.5 -95.5t-104.5 -37.5z" />
    <glyph glyph-name="quotedblright" unicode="&#x201d;" horiz-adv-x="850" 
d="M459 1345q0 58 38.5 95.5t104.5 37.5t106 -60q38 -60 38 -151q0 -92 -52.5 -173.5t-158.5 -131.5l-19 37q64 27 110 84.5t46 116.5q0 25 -6 43q-34 -27 -82 -27t-86.5 35.5t-38.5 93.5zM111 1345q0 58 38 95.5t105 37.5q68 0 106 -60t38 -151q0 -92 -52.5 -173.5
t-158.5 -131.5l-19 37q64 27 110 84.5t46 116.5q0 25 -6 43q-36 -27 -84 -27t-85.5 35.5t-37.5 93.5z" />
    <glyph glyph-name="quotedblbase" unicode="&#x201e;" horiz-adv-x="883" 
d="M475 100q0 58 38.5 95.5t104.5 37.5q66 1 106 -59q38 -60 38 -152t-52.5 -173.5t-158.5 -131.5l-19 37q64 27 110 84.5t46 116.5q0 25 -6 43q-34 -27 -82 -27t-86.5 35.5t-38.5 93.5zM127 100q0 58 38 95.5t105 37.5q68 1 106 -59t38 -152t-52.5 -173.5t-158.5 -131.5
l-19 37q64 27 110 84.5t46 116.5q0 25 -6 43q-36 -27 -84 -27t-85.5 35.5t-37.5 93.5z" />
    <glyph glyph-name="dagger" unicode="&#x2020;" horiz-adv-x="774" 
d="M326 1253q0 93 47.5 93t61.5 -29.5t14 -63.5q-19 0 -22.5 -66t-7.5 -139t-24 -85h-16q-20 12 -24 85t-7 139t-22 66zM311 788q25 16 34.5 54.5t12.5 48.5l29 12l29 -12q3 -9 7.5 -29t10 -39t29.5 -35q0 -293 -17.5 -662t-58.5 -445q-29 53 -52.5 354t-23.5 753zM70 932
l77 51l240 -51l240 51l78 -51l-78 -51l-240 49l-240 -49z" />
    <glyph glyph-name="daggerdbl" unicode="&#x2021;" horiz-adv-x="799" 
d="M338 1253q0 93 47.5 93t61.5 -29.5t14 -63.5q-19 0 -22 -66t-7 -139t-24 -85h-17q-20 12 -24 85t-7 139t-22 66zM338 -248q19 0 22 66t7 139.5t24 85.5h17q20 -12 24 -85.5t7 -139.5t22 -66q0 -34 -14 -63t-61.5 -29t-47.5 92zM324 217q0 32 10 291q-10 259 -10 280
q26 17 34.5 54.5t12.5 48.5l28 12l29 -12q3 -9 7.5 -29t10 -39t29.5 -35q0 -19 -10 -280q10 -259 10 -291q-24 -16 -29.5 -34.5t-10 -38.5t-7.5 -29l-29 -13l-28 13q-4 11 -12.5 48t-34.5 54zM82 932l78 51l239 -51l240 51l78 -51l-78 -51l-240 49l-239 -49zM82 74l78 51
l239 -51l240 51l78 -51l-78 -51l-240 49l-239 -49z" />
    <glyph glyph-name="bullet" unicode="&#x2022;" horiz-adv-x="903" 
d="M160 552q0 122 85 207t206 85t206.5 -86t85.5 -207t-85.5 -206t-206.5 -85t-206 85t-85 207z" />
    <glyph glyph-name="ellipsis" unicode="&#x2026;" horiz-adv-x="1665" 
d="M1276 102q0 54 38.5 92.5t92.5 38.5t92.5 -38.5t38.5 -92.5t-38.5 -92.5t-92.5 -38.5t-92.5 38.5t-38.5 92.5zM702 102q0 54 38.5 92.5t92.5 38.5t92.5 -38.5t38.5 -92.5t-38.5 -92.5t-92.5 -38.5t-92.5 38.5t-38.5 92.5zM127 102q0 54 38.5 92.5t92.5 38.5t92.5 -38.5
t38.5 -92.5t-38.5 -92.5t-92.5 -38.5t-92.5 38.5t-38.5 92.5z" />
    <glyph glyph-name="uni202F" unicode="&#x202f;" horiz-adv-x="392" 
 />
    <glyph glyph-name="perthousand" unicode="&#x2030;" horiz-adv-x="2241" 
d="M1712 307q0 -146 44 -222.5t122 -76.5q156 0 156 303q0 148 -43 224.5t-121 76.5q-158 0 -158 -305zM1569 304q0 154 85.5 249.5t221.5 95.5t219.5 -89.5t83.5 -243.5t-85.5 -249.5t-221.5 -95.5t-219.5 89.5t-83.5 243.5zM987 307q0 -146 44 -222.5t122 -76.5
q156 0 156 303q0 148 -43 224.5t-121 76.5q-158 0 -158 -305zM844 304q0 154 86 249.5t222 95.5t219 -89.5t83 -243.5t-86 -249.5t-222 -95.5t-219 89.5t-83 243.5zM225 1217q0 -146 44 -222.5t122 -76.5q156 0 156 303q0 148 -43 224.5t-121 76.5q-158 0 -158 -305z
M166 -86l1198 1774l39 -27l-1198 -1774zM82 1213q0 154 86 250t222 96t219 -89t83 -244t-86 -250t-222 -95t-219 89t-83 243z" />
    <glyph glyph-name="guilsinglleft" unicode="&#x2039;" horiz-adv-x="670" 
d="M66 526v2q158 88 270.5 223.5t200.5 331.5l34 -14q-71 -191 -155 -313.5t-197 -220.5q110 -96 194.5 -225.5t157.5 -323.5l-34 -15q-88 196 -200.5 332t-270.5 223z" />
    <glyph glyph-name="guilsinglright" unicode="&#x203a;" horiz-adv-x="670" 
d="M98 -14q72 191 155.5 313t197.5 221q-110 96 -194.5 225t-158.5 324l35 14q88 -196 200.5 -331.5t270.5 -223.5v-2q-158 -87 -270.5 -223t-200.5 -332z" />
    <glyph glyph-name="fraction" unicode="&#x2044;" horiz-adv-x="123" 
d="M-547 -86l1198 1774l39 -27l-1198 -1774z" />
    <glyph glyph-name="uni205F" unicode="&#x205f;" horiz-adv-x="491" 
 />
    <glyph glyph-name="Euro" unicode="&#x20ac;" horiz-adv-x="1196" 
d="M950 84q-86 18 -86 108q0 46 32 76.5t80 30.5t78.5 -30.5t30.5 -78.5q0 -75 -98 -147t-225 -72q-229 0 -375 168.5t-168 468.5h-151v41h148q-1 21 -1 71t4 93h-151v41h155q31 284 178.5 454.5t362.5 170.5q127 0 225 -71t98 -148q0 -48 -30.5 -78.5t-78.5 -30.5t-80 30.5
t-32 76.5q0 91 86 108q-15 31 -69.5 54.5t-112.5 23.5q-150 0 -239.5 -156t-106.5 -434h438l-22 -41h-418q-2 -61 -2 -101t1 -63h327l-25 -41h-300q14 -291 102.5 -446.5t242.5 -155.5q58 0 112.5 23.5t69.5 54.5z" />
    <glyph glyph-name="trademark" unicode="&#x2122;" horiz-adv-x="2138" 
d="M1108 770v524q0 73 -17.5 91.5t-86.5 23.5v41q44 -6 122 -6t146 6l248 -608l227 602h96q99 0 158 6v-41q-68 -5 -86.5 -24t-18.5 -91v-524q0 -72 18 -91t87 -24v-41q-79 7 -176 7t-162 -7v41q54 5 69 24t15 91v545l-268 -711h-33l-291 715v-549q0 -72 15 -91t69 -24v-41
q-51 7 -117 7t-118 -7v41q69 5 86.5 24t17.5 91zM515 1444q263 0 372 6q-15 -108 -15 -178t7 -109h-48q-9 132 -40 186t-91 54h-110v-612q0 -85 25 -108t120 -28v-41q-96 7 -225 7t-215 -7v41q94 5 119.5 28t25.5 108v612h-110q-60 0 -91 -54t-40 -186h-47q6 41 6 115
t-15 172q109 -6 372 -6z" />
    <glyph glyph-name="partialdiff" unicode="&#x2202;" horiz-adv-x="1075" 
d="M481 10q141 0 256 152.5t159 404.5q-20 353 -251 353q-85 0 -153.5 -45.5t-107.5 -111.5t-74.5 -176t-35.5 -261t58.5 -233.5t148.5 -82.5zM620 963q110 0 189.5 -64.5t101.5 -215.5q7 67 7 148q0 234 -82 362t-239 128t-335 -96l-16 22q106 116 198 174t198 58t209 -132
t103 -532q0 -250 -81 -475t-193.5 -297t-206.5 -72q-183 0 -288 104.5t-105 289.5t89.5 341.5t215 206.5t235.5 50z" />
    <glyph glyph-name="product" unicode="&#x220f;" horiz-adv-x="1534" 
d="M1290 1233v-1387q0 -77 13.5 -112t46 -48t106.5 -16v-41q-84 6 -256 6t-266 -6v41q74 3 106.5 16t46 48t13.5 112v1387q0 111 -30.5 143.5t-135.5 32.5h-334q-105 0 -135.5 -32.5t-30.5 -143.5v-1387q0 -77 13.5 -112t46 -48t106.5 -16v-41q-96 6 -266 6t-256 -6v41
q74 3 106.5 16t46 48t13.5 112v1387q0 77 -13.5 112t-46 48t-106.5 16v41q85 -6 262 -6l434 6l420 -6q176 0 262 6v-41q-74 -3 -106.5 -16t-46 -48t-13.5 -112z" />
    <glyph glyph-name="summation" unicode="&#x2211;" horiz-adv-x="1221" 
d="M579 1444q343 0 494 6q-14 -134 -14 -228t6 -141h-47q-21 198 -65 250.5t-99.5 62t-110.5 9.5h-399l455 -627l-668 -729h510q206 0 291 88.5t106 315.5h47q-6 -65 -6 -181t15 -270q-158 6 -516 6t-512 -6v41l563 614l-543 754v41q150 -6 493 -6z" />
    <glyph glyph-name="radical" unicode="&#x221a;" horiz-adv-x="1483" 
d="M1491 1729v-52q-197 0 -240 -7t-63.5 -26t-38.5 -73l-477 -1581h-33l-287 690q-35 85 -98 111t-217 34v43q79 -12 189 -12t298 12v-43q-24 0 -24 -27q0 -18 12 -50l197 -488l407 1346q11 36 11 54q0 26 -29 26v43q28 -3 111 -3l261 3h21z" />
    <glyph glyph-name="infinity" unicode="&#x221e;" horiz-adv-x="1724" 
d="M1295 526q118 0 188.5 53t70.5 117t-47 98.5t-135 34.5q-150 0 -438 -145q243 -158 361 -158zM172 756q0 -64 47 -98.5t135 -34.5q150 0 438 145q-241 158 -360 158t-189.5 -53t-70.5 -117zM125 723q0 106 83.5 175t211.5 69q83 0 183.5 -46t231.5 -131q215 109 318 147
t188 38q125 0 193 -70t68 -176t-83.5 -175t-211.5 -69q-82 0 -182.5 46t-233.5 131q-291 -147 -372 -166t-134 -19q-124 0 -192 70t-68 176z" />
    <glyph glyph-name="integral" unicode="&#x222b;" horiz-adv-x="829" 
d="M12 -176q0 44 27 71t69 27t67.5 -26.5t25.5 -69.5t-33 -78h4q83 10 116.5 63.5t33.5 157.5l2 1012q0 359 100 487q106 134 214.5 134t143.5 -31.5t35 -75.5t-26.5 -71t-68.5 -27t-67.5 26.5t-25.5 69.5t33 78h-9q-82 -11 -114.5 -63.5t-32.5 -161.5v-1008
q0 -356 -101 -486q-105 -134 -213.5 -134.5t-144 31t-35.5 75.5z" />
    <glyph glyph-name="approxequal" unicode="&#x2248;" horiz-adv-x="1278" 
d="M393 1010q127 0 279 -89.5t268 -89.5q115 0 174 130l35 -11q-58 -227 -250 -227q-126 0 -278 88t-268 88t-175 -127l-35 10q59 228 250 228zM393 737q125 0 279 -89t268 -89q115 0 174 129l35 -10q-58 -227 -250 -227q-126 0 -278 88t-268 88t-175 -127l-35 10
q58 227 250 227z" />
    <glyph glyph-name="notequal" unicode="&#x2260;" horiz-adv-x="1325" 
d="M144 553v61h417l131 226h-548v61h583l166 287l57 -33l-147 -254h367v-61h-402l-131 -226h533v-61h-568l-166 -287l-57 33l147 254h-382z" />
    <glyph glyph-name="lessequal" unicode="&#x2264;" horiz-adv-x="1307" 
d="M115 0v62h1026v-62h-1026zM84 727l998 465l35 -74l-838 -391l838 -391l-35 -74z" />
    <glyph glyph-name="greaterequal" unicode="&#x2265;" horiz-adv-x="1309" 
d="M151 336l838 391l-838 391l35 74l998 -465l-998 -465zM127 0v62h1026v-62h-1026z" />
    <glyph glyph-name="lozenge" unicode="&#x25ca;" horiz-adv-x="1022" 
d="M184 672l402 -807l248 557l-400 807zM63 504l431 956h32l430 -870l-430 -957h-32z" />
    <glyph glyph-name="uni25FC" unicode="&#x25fc;" horiz-adv-x="1055" 
d="M0 0v1055h1055v-1055h-1055z" />
    </font>
</defs>
</svg>
