<?xml version="1.0" standalone="no"?>
<!DOCTYPE svg PUBLIC "-//W3C//DTD SVG 1.1//EN" "http://www.w3.org/Graphics/SVG/1.1/DTD/svg11.dtd" >
<svg xmlns="http://www.w3.org/2000/svg" xmlns:xlink="http://www.w3.org/1999/xlink" version="1.1">
<metadata></metadata>
<defs>
<font id="brotherhood_scriptregular" horiz-adv-x="1325" >
<font-face units-per-em="2048" ascent="1536" descent="-512" />
<missing-glyph horiz-adv-x="403" />
<glyph horiz-adv-x="0" />
<glyph horiz-adv-x="682" />
<glyph unicode=" "  horiz-adv-x="403" />
<glyph unicode="&#x09;" horiz-adv-x="403" />
<glyph unicode="&#xa0;" horiz-adv-x="403" />
<glyph unicode="!" horiz-adv-x="851" d="M350.5 21.5q-2.5 13.5 6 25.5t20.5 21.5t22 7.5q8 -2 13.5 -16.5t3.5 -29t-13.5 -23.5t-31.5 -3q-18 4 -20.5 17.5zM424 231v21.5t2 23.5q0 6 3 32t11.5 65t20.5 84t28 88q68 184 129.5 315t112.5 219t88 138t55 75q33 37 54.5 40t32 -10t11.5 -36.5t-5 -40.5 q-2 10 -6 19q-4 6 -11.5 9t-19.5 -1q-10 -4 -44 -48t-81 -117t-102.5 -168t-108.5 -202q-59 -123 -109.5 -252t-60.5 -254z" />
<glyph unicode="&#x22;" horiz-adv-x="413" d="M-4 817q41 41 71.5 99.5t43.5 117.5q4 16 12.5 29.5t28.5 3.5q12 -6 9 -25.5t-14.5 -42t-24.5 -43t-20 -28.5q-41 -61 -106 -111zM137 817q43 43 72 98.5t45 118.5q4 14 10 28.5t29 4.5q12 -6 9 -25.5t-14.5 -42t-24.5 -43t-19 -28.5q-43 -66 -107 -111z" />
<glyph unicode="&#x26;" horiz-adv-x="2011" d="M328.5 175q-15.5 79 7 168t87 184.5t175.5 179.5q43 35 88 63.5t96 52.5v47q0 49 10.5 111.5t33 122t59.5 109t90 71.5q25 10 51.5 8t44.5 -24q25 -29 30 -65t-2 -72.5t-24.5 -71.5t-40.5 -64q-43 -53 -99 -90t-116 -71q12 -147 60.5 -292t132.5 -276q39 66 76.5 143.5 t35.5 161.5q-4 76 -59 119t-131 47q47 2 92 -13t76 -54q37 -45 41 -98.5t-11.5 -111t-44 -114.5t-55.5 -110q35 -51 82 -103q76 -76 174 -114.5t207 -16.5q92 20 162 80.5t117 138.5q6 2 -2.5 -11t-21.5 -30.5t-25.5 -34t-14.5 -18.5q-33 -39 -75 -69.5t-91 -49t-103.5 -25 t-109.5 6.5q-100 20 -182 78.5t-143 136.5q-35 -45 -81 -82t-94.5 -65.5t-91.5 -48t-69 -27.5q-92 -29 -164 -9.5t-117 71.5t-60.5 131zM373 232.5q-2 -80.5 23.5 -140t79.5 -89t134 -15.5q61 10 117.5 35.5t105 59.5t87 72t65.5 74q-45 57 -80 132t-60.5 155t-41 158 t-21.5 139q-33 -16 -63.5 -35.5t-59.5 -42.5q-96 -72 -158.5 -159t-94 -175t-33.5 -168.5zM818 988.5q-7 -66.5 1 -144.5q39 27 87 62.5t88 78.5t68 93t28 106q0 20 -5.5 39.5t-17.5 36.5q-16 23 -41 23.5t-47 -9.5q-47 -23 -79 -66t-50 -90q-25 -63 -32 -129.5z" />
<glyph unicode="'" horiz-adv-x="147" d="M94 817q45 47 74 102.5t41 114.5q4 16 13 30.5t28 2.5q12 -6 8 -26.5t-15.5 -43t-24.5 -42t-17 -27.5q-41 -62 -107 -111z" />
<glyph unicode="(" horiz-adv-x="864" d="M49 69.5q-10 92.5 6.5 186.5t46.5 174q57 150 153.5 272.5t217.5 221t257.5 172.5t273.5 129q-174 -92 -335 -201t-294 -256q-57 -61 -111.5 -142t-96.5 -173.5t-67.5 -188.5t-23.5 -188t35.5 -176t109.5 -148q-82 57 -122 141t-50 176.5z" />
<glyph unicode=")" horiz-adv-x="886" d="M0 -248q156 84 311.5 187.5t282.5 231.5t215 280.5t109 336.5q6 57 4 118t-17.5 119t-45.5 109.5t-77 90.5q82 -55 123 -138t50.5 -176.5t-7 -187.5t-47.5 -174q-57 -152 -153.5 -274.5t-216 -221t-257 -173.5t-274.5 -128z" />
<glyph unicode="," horiz-adv-x="233" d="M0 -139q45 47 73.5 103t41.5 114q4 16 12 30.5t29 4.5q16 -10 11 -25.5t-11 -30.5q-31 -59 -69 -110t-87 -86z" />
<glyph unicode="-" horiz-adv-x="837" d="M203 195q51 35 112.5 53t125 22t126 -3t117.5 -21q-61 -6 -123.5 -9.5t-126.5 -7.5q-59 -4 -116.5 -9t-114.5 -25z" />
<glyph unicode="." horiz-adv-x="624" d="M261 18.5q-1 10.5 5 19.5t15.5 16t17.5 5q6 -2 10 -12t2 -21.5t-10 -18.5t-25 -3q-14 4 -15 14.5z" />
<glyph unicode="/" horiz-adv-x="864" d="M213 -2q23 102 62.5 192.5t80.5 178.5q47 104 99.5 204.5t107.5 200.5q111 195 225.5 379t255.5 348q4 4 9.5 10.5t9.5 10.5q-55 -84 -107.5 -169t-103.5 -171q-57 -98 -113.5 -196.5t-111.5 -197.5q-92 -164 -172 -307t-152 -288q-23 -45 -45 -88.5t-39 -90.5 q-2 -4 -3 -8t-3 -8z" />
<glyph unicode="0" horiz-adv-x="1054" d="M-7 317.5q-1 71.5 9 133.5q18 141 70.5 270t126.5 248q37 61 94 133t126.5 141.5t151.5 131t168 102.5t175.5 56.5t175.5 -9.5q59 -16 106 -52t78 -83q-33 35 -70 63.5t-96 48.5q-80 25 -164 11.5t-167 -53.5t-160.5 -101.5t-146.5 -132t-126 -144t-96 -141.5 q-45 -74 -93.5 -170t-82 -201.5t-43 -211t25.5 -195.5q35 -94 112 -123t168 -14.5t182 61.5t155 102q88 80 171 196t145.5 248t100 271t37.5 264q0 41 -5 85t-21.5 83t-43 71t-69.5 48q63 -16 100 -64.5t53.5 -108.5t18.5 -127t-2 -120q-8 -96 -37.5 -203.5t-80 -216 t-119 -211t-152.5 -184.5t-183.5 -140.5t-209.5 -76.5q-45 -4 -91 -6t-91 8q-74 18 -116 66.5t-62.5 112t-21.5 135z" />
<glyph unicode="1" horiz-adv-x="835" d="M0 0q61 2 113.5 28.5t97.5 67.5t81 90.5t66 96.5q61 100 113.5 204.5t105 210t107.5 209t121 201.5q-63 -33 -131 -63.5t-138.5 -54t-143.5 -38t-144 -14.5q-43 0 -60.5 12.5t-15.5 27.5t22.5 28.5t55.5 15.5q-4 0 -15.5 -8t-11.5 -23q0 -23 18.5 -30t47.5 -7 q68 0 141.5 20.5t146 52.5t142 70t131.5 74q29 43 75 104.5t98 119t105.5 98.5t98.5 41q16 0 26.5 -8t10.5 -27q0 -55 -46.5 -110.5t-111 -103.5t-135 -88t-119.5 -64q-70 -119 -129 -244t-123 -248q-49 -96 -110.5 -209t-135 -210t-156.5 -162.5t-173 -65.5h-16.5t-8.5 2v4 zM889 1194q43 25 101.5 56.5t113.5 70.5t97 82t52 90q4 12 -2 21.5t-22 9.5q-39 0 -85 -33t-92 -83t-89 -107.5t-74 -106.5z" />
<glyph unicode="2" horiz-adv-x="1107" d="M-2 170q0 37 15.5 85t45 90t72.5 71.5t98 29.5q57 0 100.5 -32.5t88.5 -67.5q164 147 321.5 322.5t294.5 363.5q31 41 62.5 87t59.5 96.5t45.5 101.5t17.5 100q0 37 -17.5 63.5t-45.5 43t-62.5 23.5t-67.5 7q-57 0 -124.5 -24.5t-134.5 -66.5t-129.5 -99t-110.5 -120.5 t-76.5 -130t-28.5 -130.5q0 -41 15.5 -70.5t42 -48t60 -28t68.5 -9.5q29 0 63 7.5t62.5 19.5t48 29.5t19.5 40.5q0 14 -15.5 22t-29.5 10q8 2 25.5 4.5t33.5 0t28.5 -10.5t10.5 -26q0 -10 -20.5 -28.5t-55.5 -36t-83 -30t-105 -12.5q-35 0 -71 8.5t-63.5 30t-45 56 t-17.5 87.5q0 45 23.5 105.5t64.5 125t99.5 126t127 109.5t147.5 78t161 30q37 0 74.5 -8.5t68.5 -27.5t51.5 -50t22.5 -76q4 -66 -31 -154t-96.5 -188t-142 -204.5t-169.5 -204t-179.5 -186.5t-170.5 -150q43 -41 91.5 -91.5t102.5 -94.5t115.5 -74.5t133.5 -30.5 q51 0 101 22.5t96 59.5t87 84t76 94q2 2 8.5 11t12.5 18.5t12 17.5t8 10q-37 -57 -82 -120.5t-98 -118t-117.5 -89t-140.5 -34.5q-70 0 -129 32.5t-111.5 79.5t-99.5 102.5t-92 100.5q-18 -18 -60.5 -52t-94.5 -67.5t-106.5 -59.5t-99.5 -26q-25 0 -42 17.5t-17 54.5zM8 176 q0 -51 26.5 -60.5t63.5 3t74.5 36.5t60.5 42q82 55 162 129q-35 35 -78 66.5t-90 31.5q-45 0 -85 -21.5t-69.5 -57.5t-47 -80t-17.5 -89z" />
<glyph unicode="3" horiz-adv-x="1032" d="M3 266q3 86 29.5 170t75 157t109.5 116q90 59 172 78.5t145.5 15.5t102.5 -23.5t43 -36.5q2 -14 -7 -21t-22.5 -10t-26 -2t-16.5 3q16 0 23 12q8 12 -10.5 31.5t-61.5 31t-108.5 5t-153.5 -44.5q-117 -53 -186.5 -166t-77.5 -244q-4 -133 49 -219t194 -103 q100 -4 192.5 28t171.5 88t145.5 133t119.5 165q49 84 79 169t26 162t-50.5 138.5t-148.5 95.5q-33 -29 -74 -56.5t-86 -48t-93 -31.5t-95 -7q-14 2 -28.5 8t-23 17.5t-8.5 28t17 38.5q31 35 75 55.5t97 27.5t111.5 4t119.5 -15q4 0 14.5 9t12.5 11q29 29 57.5 54.5 t57.5 60.5q25 27 57.5 63.5t59 79.5t40 89.5t-1.5 89.5q-16 41 -58 59t-83 24q-90 14 -176 -15.5t-156 -86.5q-80 -66 -119 -133.5t-34.5 -114.5t48.5 -59t130 37q39 23 51 40t10 29.5t-13 16.5t-20 0q31 12 47.5 11t22.5 -7t5 -14.5t-3 -12.5q-16 -31 -49 -56.5t-72 -40.5 t-76.5 -17.5t-62.5 14t-29 55.5t25 105q14 35 43 70.5t65.5 67.5t77.5 57.5t82 43.5q57 25 111.5 34t101.5 6t83 -17.5t58 -36.5q25 -25 32 -56.5t2 -64.5t-19.5 -64.5t-32.5 -56.5q-27 -41 -73 -89t-91 -89q-53 -49 -110 -98q100 -35 149 -92.5t59.5 -130t-12 -153.5 t-65.5 -160t-100.5 -150.5t-114.5 -126.5q-47 -43 -100.5 -85t-114 -74t-127 -53.5t-136.5 -25.5q-100 -4 -160.5 38t-88 110.5t-24.5 154.5zM451 924q-8 -23 9 -32t50 -8t75 12t84 26.5t77.5 35t56.5 39.5q-41 8 -94.5 13.5t-104.5 -0.5t-93 -25.5t-60 -60.5z" />
<glyph unicode="4" horiz-adv-x="1042" d="M94 627q0 43 23.5 78.5t58.5 61.5t75 40t73 14q23 0 42 -6t42 -14q41 82 81.5 174t86 182t95.5 176t109 158q31 37 71 68.5t71 31.5q20 0 19 -19.5t-10 -42t-18.5 -37.5t-5.5 -5q16 45 -8.5 62.5t-58.5 -15.5q-70 -70 -120 -163t-93 -193.5t-85 -203t-93 -190.5 q76 -47 171 -76.5t187 -35.5q31 70 79 165t106.5 189t126 176t138.5 129q-78 -68 -132 -145.5t-99 -162.5t-84 -174t-82 -177q104 4 198.5 57t172.5 143q-10 -14 -44 -53t-85 -81t-116.5 -73.5t-139.5 -31.5q-14 -33 -39 -96.5t-60.5 -142.5t-83 -161.5t-104.5 -151.5 t-124.5 -115t-143.5 -50v8q63 4 117.5 39t101.5 91.5t86 128t74 149.5t64.5 155.5t56.5 145.5q-98 4 -184.5 44t-166.5 91q-23 -33 -49 -72t-59 -71.5t-73 -55t-87 -22.5q-41 0 -59.5 24.5t-18.5 55.5zM115 635q0 -23 14 -41.5t39 -18.5q39 0 73.5 21.5t63.5 53.5t52.5 69 t41.5 69q-20 10 -40.5 16.5t-41.5 6.5q-29 0 -63.5 -12.5t-65 -35t-52 -55t-21.5 -73.5z" />
<glyph unicode="5" horiz-adv-x="1009" d="M-3 214q-3 89 22.5 181t72.5 177t98 145q45 53 103.5 87t120 53.5t122 25.5t110.5 2t85 -15.5t45 -27.5q8 -14 -4 -22.5t-31 -12.5q-23 -6 -51 -8q10 4 16.5 7t10.5 7q12 14 8 24.5t-16.5 16.5t-28.5 9t-29 3q-96 8 -170.5 -4t-133 -38.5t-101.5 -65.5t-76 -86 q-39 -53 -71.5 -115.5t-49.5 -128.5q-12 -49 -14 -118.5t14.5 -134t58.5 -111t117 -46.5q70 -4 136.5 10.5t130.5 43.5q88 41 160.5 108.5t131 150.5t101.5 179t69 195q16 66 18.5 137t-30.5 131q-29 53 -80 90t-112.5 55.5t-127 19.5t-120.5 -18q-16 -43 -36 -85t-52 -77 q-8 -8 -20.5 -17t-27 -15t-27.5 -5t-22 15q-16 27 2.5 57.5t50 58t67.5 48t57 28.5q23 61 47 123t59 117q31 49 76 91t104 52q35 4 67 -2t60 -18q35 -14 72 -27.5t76 -20.5t77.5 -8t79.5 9q31 10 75 26.5t63 47.5q6 10 -6.5 20t-24.5 6q6 2 18.5 6t24.5 4t21.5 -4t7.5 -18 q-4 -16 -28 -34.5t-58.5 -34t-78.5 -26t-87 -12.5q-35 -2 -68 3.5t-66.5 13.5t-66.5 16t-66 12q-113 23 -202 -55q-57 -57 -97.5 -131t-68.5 -149q47 14 90 16q53 4 115.5 -6t121 -37t104.5 -71t66 -107q31 -96 14.5 -194.5t-61.5 -192.5t-110.5 -178t-132.5 -150 q-47 -47 -101.5 -90t-114 -78t-124 -57.5t-131.5 -24.5q-55 -4 -106.5 16.5t-86.5 73.5q-47 70 -50 159zM342 952q12 -10 33.5 9.5t45 50t43 61.5t25.5 43q-14 -6 -41.5 -25.5t-53 -44t-42 -50.5t-10.5 -44z" />
<glyph unicode="6" horiz-adv-x="1249" d="M2 488.5q6 33.5 44 84t111.5 113t194.5 123.5q129 225 316 403q94 94 208.5 176t249.5 134q29 10 63 19t67.5 12t65 -3.5t58.5 -29.5q31 -29 32 -64t-15.5 -71.5t-43 -71.5t-46.5 -62q-10 -12 -31 -32.5t-45.5 -41t-48 -35t-37.5 -12.5q-12 2 -12 13.5t6 24t14 23.5 t12 15q-4 -10 -4 -25.5t17 -15.5q14 2 25 8.5t22 14.5q37 31 68.5 63.5t58.5 73.5q14 25 27.5 55.5t14.5 60t-13.5 54.5t-53.5 37q-35 8 -67.5 5t-65.5 -11q-68 -23 -125 -51q-61 -31 -117.5 -69t-109.5 -81q-248 -195 -410 -475q117 59 244 97t258 40q63 0 128.5 -13 t115.5 -54q53 -43 67.5 -103.5t-0.5 -122.5q-12 -61 -36.5 -116.5t-58.5 -106.5t-73 -98t-80 -90q-102 -100 -213 -183q-55 -39 -115.5 -71.5t-125.5 -48.5q-158 -41 -249 38.5t-97 241.5q-2 135 42 273.5t103 254.5q-25 -12 -77 -43.5t-103 -72.5t-88 -85t-33 -77 q2 -12 12 -17.5t22.5 -5.5t26 4.5t19.5 8.5q-10 -8 -20.5 -18.5t-25 -18.5t-29.5 -12.5t-34 0.5q-16 4 -10 37.5zM257 339q-7 -71 2 -137.5t45 -115.5t110 -61q68 -14 136 2t130 41q63 25 118.5 60.5t108.5 80.5q100 88 171 202.5t108 243.5q37 131 -10.5 218.5 t-196.5 101.5q-137 10 -270 -32t-254 -103q-10 -6 -21.5 -11.5t-21.5 -11.5q-47 -84 -82 -171t-54 -181q-12 -55 -19 -126z" />
<glyph unicode="7" horiz-adv-x="827" d="M0 -8q63 0 116.5 24.5t98.5 65.5t81 90t64 98q72 113 130.5 230.5t119.5 234.5q57 109 119 212.5t131 203.5q37 49 74 96t78 94q-127 0 -262.5 -2t-266.5 -41q-78 -23 -149.5 -68.5t-114.5 -117.5q-10 -14 -18 -36.5t-9.5 -44t7 -39t30.5 -23.5q18 -4 52 3t66 21.5 t57.5 32.5t29.5 35q4 18 -16.5 31.5t-36.5 5.5q18 10 46 15t46 -7q16 -12 3 -32.5t-44 -42t-69.5 -40t-71.5 -26.5q-25 -8 -56.5 -8.5t-48.5 28.5q-12 25 -9 54.5t16.5 60t32 58.5t36.5 48q68 70 153 103.5t178 47t190.5 13.5t189.5 4h33.5t33.5 2q20 23 40 42.5t40 39.5 q8 8 26.5 24.5t40 31t43.5 21.5t38 -1q20 -14 10 -46t-45 -64.5t-89 -57.5t-120 -25q-57 -70 -107.5 -151.5t-97.5 -168.5t-92 -177t-92 -178q-66 -135 -144.5 -271.5t-195.5 -255.5q-59 -59 -132 -106t-163 -49v8zM1055 1378q55 0 115.5 35t91.5 82q6 14 3 24.5t-22 6.5 q-16 -4 -30.5 -11.5t-26.5 -17.5q-37 -25 -70 -55.5t-61 -63.5z" />
<glyph unicode="8" horiz-adv-x="968" d="M7.5 361.5q15.5 80.5 50 158.5t87 146.5t107.5 113.5q33 29 95.5 73t130 84t129 65.5t91.5 17.5q12 -4 10.5 -12.5t-11 -18.5t-20.5 -18t-15 -10q8 4 11 21t-14 17q-43 0 -99 -28.5t-114.5 -71.5t-115 -93t-94.5 -91q-45 -47 -85 -103.5t-66 -119t-31 -128t18 -133.5 q20 -57 59 -100t89 -68.5t109.5 -36t121.5 -1.5q119 16 213 74.5t154.5 145.5t85 196.5t5.5 230.5q-20 119 -80.5 220t-126.5 204q-37 57 -59 112.5t-20 107.5t33.5 98t103.5 87q33 16 78 27.5t92 12.5t88 -8t64.5 -31.5t23.5 -61.5t-37 -99q-53 -78 -134 -146.5 t-157 -127.5q14 12 30.5 24.5t33.5 28.5q37 31 74.5 69t70.5 79t53.5 84t20.5 86q0 35 -20.5 54t-50 28.5t-63.5 8.5t-63 -5q-61 -12 -120.5 -47t-86.5 -95q-18 -43 -13 -82.5t24.5 -78.5t49.5 -78t58 -78q57 -78 108.5 -164t69.5 -196q16 -92 -4 -189.5t-67 -186.5 t-119 -165t-156 -124t-178 -64.5t-188 14.5q-104 31 -158.5 88t-73 130t-3 153.5z" />
<glyph unicode="9" horiz-adv-x="1064" d="M-6 210q-2 77 19.5 153.5t61.5 148.5t85 125q27 27 58.5 57.5t64 54t60.5 36t46 3.5q14 -6 13 -19t-9 -27.5t-20.5 -28t-18.5 -19.5q12 8 13.5 33t-23.5 21q-37 -6 -74 -28t-68.5 -53.5t-59 -68.5t-48.5 -74q-35 -59 -57.5 -125.5t-20.5 -134.5q2 -74 33 -126t80 -82.5 t113.5 -43t136.5 -6.5q145 10 262 87t201 190q84 111 148.5 240.5t115.5 277.5q25 68 43 138.5t29 141.5q8 53 9 129t-15.5 146.5t-58.5 124t-122 63.5q-63 6 -128.5 -14.5t-124 -60t-105.5 -94t-74 -113.5q-29 -61 -37 -130t11.5 -124.5t71.5 -86t147 -14.5 q100 20 195 74.5t177 126.5q-43 -37 -94 -76t-107.5 -71.5t-118 -55t-124.5 -26.5q-84 -2 -131 38.5t-64.5 102t-8.5 133.5t42 131q31 57 89.5 116.5t131 101.5t151 57.5t152.5 -15.5q72 -33 110 -100.5t51.5 -153.5t6 -183t-26 -190.5t-44 -174t-47.5 -136.5 q-49 -111 -136.5 -230.5t-199 -217t-243.5 -155.5t-273 -46q-61 6 -115.5 32.5t-89.5 80.5q-39 63 -41 140z" />
<glyph unicode=":" horiz-adv-x="737" d="M316.5 139.5q-1.5 10.5 5 20.5t15.5 17t17 5q6 -2 10.5 -13t2.5 -22.5t-10.5 -18.5t-24.5 -3q-14 4 -15.5 14.5zM368 311.5q-1 10.5 5 20.5t15.5 17t17.5 5t11 -13t2 -22.5t-10.5 -18.5t-25.5 -3q-14 4 -15 14.5z" />
<glyph unicode=";" horiz-adv-x="266" d="M6 -139q45 45 72.5 100t44.5 117q4 16 10 28.5t29 6.5q16 -10 11 -25.5t-11 -30.5q-29 -55 -66 -106t-90 -90zM151 217q-1 10 5 20.5t15 17.5t17 5q6 -2 10.5 -13t2.5 -22.5t-10.5 -18.5t-24.5 -3q-14 4 -15 14z" />
<glyph unicode="?" horiz-adv-x="952" d="M338 18.5q-2 12.5 5 25.5t20.5 22.5t23.5 7.5t15.5 -16.5t2 -29t-14.5 -24.5t-32 -4q-18 6 -20 18.5zM432 285q8 76 59.5 148.5t124 141t157.5 135t161 129t133 123t76 115.5q25 80 3 143.5t-74 99.5t-126 39t-149.5 -35t-146 -123t-118.5 -226q-6 -20 -8 -47t4.5 -51.5 t21.5 -43t40 -24.5q29 -6 66.5 2t65.5 23.5t34 35t-29 35.5q27 14 48.5 13.5t31.5 -5.5q29 -16 16.5 -39.5t-47.5 -45t-83 -34t-90 -5t-69.5 39t-21.5 99.5q2 27 14.5 61.5t26.5 68.5t28.5 61.5t24.5 43.5q78 117 156 169t147.5 58.5t127 -25.5t94 -83t47 -113.5 t-12.5 -117.5q-31 -74 -93 -137.5t-138 -123t-158 -118t-152.5 -118.5t-120.5 -127t-65 -144q-2 0 -3 1t-3 1z" />
<glyph unicode="@" horiz-adv-x="1159" d="M180 127q8 102 50 206.5t111 196t160 160t195 98.5q51 14 102.5 12.5t98.5 -28.5q59 -35 88 -91t35 -124t-7.5 -138.5t-39.5 -133.5q-12 -29 -44 -77t-74 -93t-87 -78t-82 -33q-27 -2 -37 32t13 118l20 73q-23 -51 -63.5 -97t-87 -78t-89.5 -43t-67.5 6.5t-23.5 70.5 t40 152q16 41 45 80.5t62.5 74.5t70.5 61.5t70 39.5q31 12 74 7t65 -40q25 41 44.5 44t30.5 -12.5t14 -41t-5 -39.5q0 10 -4 18q-8 16 -22 4q-27 -23 -46.5 -59.5t-33 -76.5t-22.5 -80t-15 -68q-10 -51 -5 -72t20.5 -22t37 13.5t44 35t40.5 42t29 33.5q61 82 91 189.5 t-5 218.5q-29 92 -88.5 132t-130 41t-145.5 -32t-136 -86q-74 -68 -129 -154t-86 -182q-16 -47 -27.5 -101t-11.5 -109.5t13 -109t46 -96.5q45 -61 105.5 -81.5t128.5 -12.5t138.5 42t136 84t119.5 110.5t91 122.5q-70 -125 -181.5 -224.5t-254.5 -138.5 q-88 -27 -161.5 -15.5t-124 56.5t-76 120t-17.5 173zM418.5 83q23.5 -38 73 -24.5t112 77t109.5 179.5q45 100 22.5 142.5t-77 29t-121 -84t-111.5 -195.5q-31 -86 -7.5 -124z" />
<glyph unicode="A" horiz-adv-x="1499" d="M-3 -74v18q1 72 21 144q24 82 65.5 156.5t88.5 134.5q70 84 156 150.5t184 113.5q132 59 282 83q88 14 177 14q63 0 127 -7q55 80 108.5 162t111.5 163t122.5 156.5t142.5 141.5q27 27 72 65.5t95 75.5t101.5 67.5t92.5 43.5q35 10 45 -12.5t-2 -51.5q-10 -25 -24.5 -38 t-31.5 -25q14 14 16.5 30.5t-6 26.5t-28 12t-47.5 -12q-100 -49 -182 -144.5t-145.5 -212t-109 -241.5t-71.5 -235q34 -5 72 -7q6 0 12 -1q32 1 64 7q38 8 70 22.5t50 43.5q-20 -47 -53 -68.5t-72 -27.5q-23 -4 -47 -4l-31 2q-39 4 -69 10q-23 -123 -32 -251q-3 -46 -3 -93 q0 -84 10 -170q10 -94 39 -191.5t80 -181.5t126.5 -144.5t184.5 -78.5q38 -6 76 -6q71 0 139 20q104 30 201.5 87t186.5 129.5t169 142.5q-55 -53 -123.5 -112.5t-146.5 -114t-163 -96.5t-173 -62q-59 -13 -118 -13q-29 -1 -57 3q-87 10 -171 61q-80 51 -136.5 127t-93 167 t-55.5 193q-18 102 -23 206q-2 47 -2 94q0 56 3 110q6 100 20 186q-29 4 -73.5 10.5t-65.5 8.5q-25 -47 -48.5 -89t-49.5 -87q-41 -72 -91.5 -161t-111.5 -180.5t-132 -178.5t-153 -157.5t-172 -115.5t-190 -53q-7 -1 -15 -1q-43 0 -79 20q-43 24 -70 67q-41 69 -44 149z M61 -60v-13q1 -50 13 -92q14 -48 53 -79q47 -37 105 -37q10 -1 20 1q70 8 137.5 41.5t125.5 81.5t93 87q78 86 137.5 178.5t114.5 190.5q59 104 115.5 209.5t118.5 210.5q-64 6 -128 6q-80 1 -160 -9q-142 -18 -276 -83q-98 -47 -180 -117t-143 -160q-20 -29 -45 -76 t-46.5 -103t-37 -117.5t-17.5 -119.5zM1163 727q35 -4 66 -8t65 -10q20 96 51 191t74 187q47 92 106.5 177.5t135.5 154.5q-86 -68 -154.5 -149.5t-127 -170.5t-112 -183.5t-104.5 -188.5z" />
<glyph unicode="B" horiz-adv-x="2086" d="M0 -46v15q0 49 10 97q12 56 33 104q43 111 116.5 203t166.5 162q51 39 126.5 78.5t159.5 70.5q84 32 167 50q68 15 126 15q13 0 25 -1q43 -4 49 -20.5t-8.5 -35t-41 -35t-48.5 -22.5q8 4 16 14t12 21.5t2 21.5t-16 17q-23 8 -48.5 7t-47.5 -3q-16 -2 -47 -7.5t-71 -14.5 t-85 -24.5t-88 -37.5q-104 -51 -197.5 -127t-154.5 -174q-29 -47 -51.5 -102.5t-35 -114t-12.5 -118t19 -116.5q14 -47 45 -80t71 -52q38 -19 86 -23l28 -2q34 0 67 8q57 12 107 38.5t94 63.5t83 81t74 89q74 96 133.5 199.5t114.5 210.5q55 109 109.5 215t111.5 215 q-10 0 -32.5 -4.5t-46 -6.5t-44 2.5t-24.5 16.5q-8 25 20.5 46t69.5 39.5t80 31t51 16.5q74 133 154.5 262t189.5 248q-77 22 -150 22h-6q-53 0 -103 -1t-102 -11q-43 -8 -95 -23.5t-104 -37t-100.5 -50t-85.5 -61.5q-98 -87 -120 -159q-9 -28 -9 -52q0 -35 20 -59 q33 -38 110 -38h3q80 1 189 58q12 6 26.5 19.5t19.5 27t-3 24.5t-41 11q8 4 25.5 9.5t35 6.5t32 -4.5t18.5 -21.5q2 -16 -15.5 -34.5t-42 -35t-50.5 -30t-40 -19.5q-10 -4 -47 -16t-82 -16q-14 -1 -27 -2l-63 8q-45 10 -70 53q-14 25 -14 51.5t9 53t24.5 51t32.5 45.5 q53 70 133 121t166 85.5t167.5 53t139.5 22.5q37 3 74 3l176 -17q25 23 47 43q18 16 36.5 33.5t28.5 25.5q8 8 34 24.5t50.5 26t38.5 2t4 -50.5q-12 -43 -49 -78q8 8 9 21.5t-3 26t-15 19.5t-28 1q-41 -14 -72.5 -42t-64.5 -56q51 -14 100.5 -31.5t94.5 -46.5 q41 -27 75.5 -62.5t44.5 -85.5q4 -18 4 -35q0 -32 -14 -62q-22 -46 -57 -81t-78 -61.5t-90 -48.5q80 -12 155.5 -46t127.5 -100q53 -68 64 -152q5 -37 5 -73q0 -46 -8 -92q51 -10 106.5 -22.5t93.5 -22.5t52 -14t-17 4q-16 4 -55 11t-80 13q-49 8 -104 16 q-6 -33 -18.5 -69.5t-28 -72.5t-33.5 -68.5t-35 -57.5q-66 -98 -149.5 -181t-178.5 -151q-90 -61 -190 -112t-209 -68q-29 -5 -54 -5q-35 -1 -64 9q-50 16 -78.5 54t-34.5 94q-1 12 -1 24q0 45 17 97q43 131 117 222t168 150.5t202.5 92t217.5 51.5q71 10 145 15q28 2 57 2 q45 0 88 -5q11 47 11 99q0 48 -14 94q-14 48 -40 89.5t-71 71.5q-14 10 -42 25.5t-60.5 30t-62.5 22.5t-48 2q-47 -20 -105.5 -42.5t-118 -43t-112.5 -35t-88 -18.5q-55 -104 -103 -195q-41 -78 -78.5 -149.5t-54.5 -100.5q-59 -104 -125.5 -203.5t-142.5 -191.5 q-72 -90 -161 -170t-197 -121q-41 -16 -85 -25q-36 -7 -72 -7h-16q-44 2 -85 17t-74 48q-41 41 -58.5 94.5t-19.5 109.5zM1042 -37q-4 -23 -4 -46q0 -29 6 -58q16 -59 64 -79q40 -16 86 -16h22q58 4 117.5 25t96.5 41q104 53 197 128t171 163q78 92 131 196.5t92 219.5 q-44 3 -89 3q-70 0 -140 -8q-116 -12 -224 -47.5t-206 -94t-174 -144.5q-31 -35 -62.5 -81t-52.5 -97.5t-31 -104.5zM1067 850q10 -10 39 -10t60.5 6t39.5 6q14 27 28.5 54.5t31.5 56.5q-45 -12 -91 -28.5t-83 -45.5q-35 -29 -25 -39zM1272 862q92 23 183 55.5t175 79.5 q-28 3 -59 3h-15q-40 -1 -80 -4t-78 -8t-69 -9l-4 -8t-7 -14.5t-15.5 -32t-30.5 -62.5zM1335 993q82 17 166 23q52 4 105 3q32 0 65 -1q33 12 72 32.5t74.5 48t64.5 60.5t41 72q8 29 2 54.5t-21.5 47t-37 40t-41.5 32.5q-43 29 -91 50.5t-100 31.5q-2 -4 -6 -8l-8 -9 q-86 -113 -152.5 -233.5t-132.5 -243.5z" />
<glyph unicode="C" horiz-adv-x="1370" d="M0 57v17q0 78 16 156q18 87 47 171q35 102 88.5 196.5t116.5 184.5q-57 20 -101 60.5t-67 97.5q-16 45 -16 88q0 30 8 60q19 72 66 136t112.5 115.5t135.5 81.5q43 20 103 39t118.5 31t107.5 14h12q40 0 58 -12q27 -18 20.5 -36.5t-28 -34t-47 -27t-37.5 -13.5 q4 0 14 7.5t19.5 17.5t14.5 20.5t-3 18.5q-24 23 -86 25h-11q-59 -1 -129 -19q-78 -20 -159.5 -65.5t-141.5 -116.5q-33 -39 -58.5 -83t-35.5 -91q-7 -28 -7 -56q0 -56 28 -110q41 -80 129 -119l16 20q6 8 12.5 15.5t10.5 11.5q129 162 288.5 296t341.5 232q39 20 91.5 46 t109.5 44.5t115 25.5q19 2 37 2q36 0 69 -9q63 -23 80 -65q10 -25 10 -52q0 -20 -4 -40q-12 -50 -43.5 -99t-62.5 -84q-37 -41 -79 -74.5t-89 -64.5q-86 -57 -189.5 -111.5t-217 -93.5t-232.5 -55q-50 -7 -98 -7q-68 0 -134 13q-4 0 -45 -68q-29 -45 -61.5 -109.5t-63 -139 t-54 -154.5t-33.5 -158q-7 -53 -7 -102q0 -25 1 -47q5 -70 36 -125q27 -53 71 -81t95 -39q40 -9 83 -9q11 0 23 1q56 3 107 15q-41 98 -43 210v15q0 105 26 207q28 110 88 216t140 190t180.5 141t212.5 74q37 6 70 5q50 0 91 -12q67 -22 102.5 -72t37.5 -124v-8 q0 -71 -33 -156q-66 -145 -174 -264t-251 -221q-92 -63 -189.5 -114.5t-202.5 -84.5q59 -117 174 -176t250 -68q26 -1 51 -1q87 -1 173 15q111 20 215 56q205 72 386 184.5t345 253.5q-137 -137 -316.5 -253.5t-378.5 -196.5q-104 -41 -211.5 -70t-220.5 -33h-27 q-97 0 -193 25q-109 29 -195 106q-35 31 -58.5 67t-44.5 77q-59 -14 -125 -22q-19 -2 -38 -2q-48 0 -97 14q-55 14 -96 46.5t-67.5 78t-39 98.5t-12.5 110zM336 791q79 -20 156 -19q44 0 88 6q120 18 243 70q145 66 287.5 160t249.5 219q40 51 58 100q11 30 11 56 q-1 16 -5 30q-12 37 -53 57q-30 14 -79 13q-20 0 -43 -2q-55 -6 -108.5 -25.5t-104.5 -44.5q-213 -100 -387 -264t-313 -356zM476 -56q5 -72 28 -141q4 -12 8 -22t10 -23q35 10 68 23.5t69 30.5q100 47 215 127.5t214.5 185t167 226.5t71.5 249q1 7 1 14q0 47 -24 85 q-26 44 -79 67q-49 20 -103 21h-8q-51 0 -100 -12q-53 -13 -102.5 -36.5t-92.5 -52.5q-90 -59 -157.5 -143.5t-108.5 -182.5q-27 -61 -46.5 -129.5t-27.5 -141.5q-5 -45 -5 -90q0 -27 2 -55z" />
<glyph unicode="D" horiz-adv-x="1988" d="M-41 -219q2 27 19.5 44t42 28.5t53 15.5t55.5 8q45 5 89 5q54 0 106 -7q96 -12 168 -29q98 78 177 171.5t144.5 197.5t119.5 217t105 230q-158 -72 -336 -84q-20 -2 -40 -2q-31 0 -64 4q-55 6 -104.5 25.5t-87 54t-56.5 90.5q-10 33 -10 69q0 13 1 26q5 50 23.5 99t46 93 t56.5 81q68 86 158 149.5t188 106.5q169 76 355 110q92 17 187 17q98 0 201 -18q35 35 83.5 69.5t97.5 55.5q10 4 26.5 8t26.5 -8q10 -14 8 -31.5t-11 -34t-22.5 -32t-25.5 -23.5q8 6 14 20.5t5 26.5t-11 20.5t-31 1.5q-37 -10 -70.5 -31.5t-64.5 -45.5q102 -25 195.5 -72 t165.5 -125q82 -90 118 -194q33 -96 32 -197v-17q-3 -110 -38 -222.5t-92 -216t-132 -194.5t-159 -161q-166 -139 -368.5 -214t-419.5 -83q-29 -2 -57 -2q-42 0 -84 4q-70 6 -128 16q-68 10 -127 25q-47 -37 -106 -67.5t-123 -46.5q-64 -17 -128 -20h-18q-53 0 -100 15 q-23 8 -40 27.5t-13 46.5zM0 -219q10 -31 43 -44t78 -13t97 9t101.5 25.5t90.5 36t63 37.5q-20 4 -39.5 7t-42.5 7q-76 12 -164 20q-18 2 -36 1q-68 0 -130 -23q-10 -4 -21 -9t-21.5 -13t-16.5 -18.5t-2 -22.5zM378 828q5 -50 30.5 -89t68.5 -66.5t98 -41.5q67 -16 138 -16 q48 -1 98 7q123 18 233 60l33 66q43 92 92.5 188t107.5 189.5t123.5 181.5t141.5 161q-41 8 -95 12q-37 3 -80 4q-19 0 -39 -1q-66 -2 -139 -13.5t-149 -31.5q-102 -29 -201.5 -72t-185.5 -105.5t-153.5 -143.5t-106.5 -185q-16 -44 -16 -84q0 -10 1 -20zM512 -158 q94 -16 190 -26q47 -5 98 -6q54 0 113 6q215 18 410 107t352 237q76 72 139.5 154.5t110.5 174.5q45 88 76 193.5t34 213.5v18q0 98 -29 192q-32 102 -110 184q-66 72 -149.5 113t-181.5 63q-74 -63 -136.5 -155t-115.5 -194.5t-99.5 -207t-89.5 -194.5q2 0 45 17.5t93.5 45 t92.5 61t42 66.5q0 18 -23.5 25.5t-40.5 3.5q12 10 35 18.5t44.5 10.5t37.5 -4.5t16 -24.5q0 -27 -26.5 -53.5t-65.5 -53t-84 -50t-84 -41t-65.5 -30t-26.5 -14.5q-51 -117 -110.5 -232.5t-132 -223t-161.5 -208t-198 -186.5z" />
<glyph unicode="E" d="M0 20q0 98 30.5 195.5t80.5 187.5q53 96 126.5 178.5t159.5 150t182.5 119.5t198.5 93q-16 10 -31.5 26.5t-21.5 39.5h-12q-16 -1 -35 -1q-37 0 -82 5q-68 8 -126 33.5t-96 71.5q-33 40 -33 100q0 10 1 20q8 74 51 132.5t104.5 102.5t135.5 72.5t141 42.5q58 12 93 13 q5 0 9 -1q36 -2 50 -10q16 -10 13 -23.5t-17.5 -24.5t-33 -18t-30.5 -7q10 0 21.5 16t9.5 27q-4 23 -42 25h-9q-34 0 -77 -10q-48 -11 -96.5 -27.5t-74.5 -30.5q-47 -23 -88 -57t-70 -77q-31 -47 -44 -93q-8 -28 -8 -55q0 -17 3 -33q8 -42 38 -76.5t89 -59.5 q49 -20 101.5 -28.5t105.5 -8.5q-5 22 -5 43q0 20 4 40q9 42 25 79q20 41 48 73.5t63 61.5q53 45 126 92t153.5 83t164.5 54q55 12 105 13q27 0 53 -4q59 -8 82 -50q12 -22 12 -49q0 -25 -10 -53q-16 -49 -53 -90t-78 -74q-131 -104 -283.5 -164.5t-349.5 -70.5 q2 -4 9.5 -13.5t15.5 -17.5t17 -14t15 -4q35 14 71 24t73 23q59 16 121.5 27.5t124.5 13.5h20t28.5 -2t26 -7.5t11.5 -17.5q0 -31 -36 -53.5t-83 -37.5t-94 -23.5t-70 -10.5q-26 -2 -54 -2t-56 2q-58 4 -107 27l-6 3t-6 -1q-47 -16 -91.5 -42t-89.5 -54q-92 -55 -174 -126 t-149.5 -154t-118.5 -178t-78 -202q-12 -46 -20 -100q-5 -36 -5 -71q0 -18 1 -35q4 -52 23.5 -98t64.5 -79q45 -35 98 -47q49 -11 102 -11h8q58 1 116.5 14t111.5 30q-57 61 -83 140t-26 163q0 104 31 204.5t86 188.5t133 158.5t174 111.5q45 20 101 35t110 16h5 q51 0 98 -18q49 -18 84 -63q31 -39 38 -85q3 -22 4 -45q-1 -23 -5 -49q-8 -48 -24.5 -96.5t-35.5 -91.5q-47 -98 -114.5 -180t-147.5 -152q-84 -72 -177 -130t-194 -101q78 -77 184 -105q82 -21 164 -22l48 2q102 6 200.5 38t190.5 79t179 103t165 116q-76 -66 -158 -124 t-171 -105.5t-183 -80t-195 -46.5q-51 -6 -101 -6q-78 0 -154 15q-124 25 -216 117q-57 -20 -132 -38q-76 -19 -152 -20h-6q-73 0 -140 22q-70 24 -115 88q-35 45 -47 98t-12 106zM541 199q-6 -43 -6 -87q0 -63 12 -127q20 -110 94 -192q109 39 212 111.5t190 170t149.5 211 t87.5 234.5q7 30 7 60q0 15 -2 31q-5 46 -34 83q-35 42 -87 58q-46 15 -92 14h-11q-104 -4 -198.5 -59.5t-162.5 -133.5q-68 -80 -106.5 -175t-52.5 -199zM768 1030q152 0 298 63.5t273 161.5q41 33 81 69t69 81q24 38 24 75q1 8 -1 17q-6 45 -76 55q-25 4 -50 4 q-28 0 -58 -5q-54 -9 -108.5 -29.5t-105.5 -48t-96 -58.5q-37 -25 -86 -67.5t-89 -95.5q-39 -52 -63 -110q-16 -38 -16 -75q0 -18 4 -37zM850 954q35 -20 79 -27q38 -6 79 -6h11q46 1 91 10t84 21q12 4 40 17.5t45 29t13 28.5t-51 17q-96 0 -191.5 -26.5t-199.5 -63.5z" />
<glyph unicode="F" horiz-adv-x="1120" d="M0 -47v15q0 46 10 90q12 52 31 100q41 102 109.5 188t156.5 152q49 37 120 73.5t148.5 66.5t156.5 47q64 14 117 14q13 0 25 -1q41 -4 48.5 -18t-6 -31.5t-39 -33t-50.5 -21.5q2 0 11.5 8t15.5 19.5t5 22.5t-17 18q-23 8 -45.5 8t-44.5 -4q-14 -2 -47 -9.5t-76 -19.5 t-93.5 -30.5t-99.5 -43.5q-98 -47 -180 -125t-133 -174q-25 -45 -43 -98q-17 -54 -23 -110q-3 -28 -3 -56t3 -56q6 -56 31 -106q20 -41 55 -62.5t75 -29.5q25 -5 51 -5q16 0 33 2q44 5 87 17q100 33 181 105t146.5 164t121 195.5t104.5 201.5q53 102 105.5 202.5 t105.5 202.5q-93 -19 -187 -33q-82 -12 -164 -12h-24q-84 0 -168 20.5t-139 66t-69 115.5q-3 14 -2 29q0 62 46 142q39 63 96.5 112.5t125 86.5t142.5 60.5t148 39.5q136 29 280 36q26 1 53 1q117 0 233 -25l55 -12q33 33 70 63.5t82 65.5q18 14 38.5 21.5t34 3.5 t19.5 -19.5t-2 -44.5q-14 -39 -52 -65q4 2 7.5 17.5t3.5 25.5q0 31 -24.5 27.5t-57.5 -20.5t-62.5 -42t-42.5 -37q94 -25 180.5 -45t170.5 -32.5t172 -14.5h22q78 0 164 12q115 20 219.5 60.5t206.5 126.5q-55 -55 -121 -95q-88 -51 -186.5 -79.5t-200.5 -43.5 q-70 -8 -138 -8h-27q-81 2 -163 14.5t-163.5 31t-165.5 38.5q-4 0 -22.5 -21.5t-39 -51t-39 -57t-24.5 -36.5q-59 -94 -112.5 -192t-102.5 -199q41 12 82 27.5t81 32.5q4 2 5.5 8t1.5 10q4 16 7 30.5t11 30.5q23 55 67 103.5t97 77.5q14 8 33.5 15t39 9t38 -3t30.5 -21 q16 -20 12 -45t-16 -43q-51 -72 -133 -111t-164 -72q-4 -2 -10 -4t-6 -6q0 -37 11 -71.5t40 -63.5q35 -35 79 -49.5t91 -18.5h-13l-69 8q-41 10 -76 37q-35 29 -53 71t-18 87q-41 -16 -83 -28.5t-85 -22.5q-10 -4 -11 -6q-8 -18 -17 -37t-15 -31l-87.5 -175t-106.5 -201.5 t-125.5 -209t-142.5 -195.5t-159 -161t-174 -104q-37 -14 -79 -22q-38 -8 -75 -8h-9q-42 1 -80 16.5t-68 45.5q-39 39 -55.5 88.5t-18.5 102.5zM432 1034v-8q0 -33 14 -63q39 -68 124 -102q84 -34 184 -43q53 -5 106 -5q46 0 94 4q100 8 172 23q4 0 21 4q8 2 14 4 q78 150 168 298t213 277q-106 23 -212 29q-53 3 -106.5 3t-107.5 -3q-109 -8 -215 -28.5t-205 -67.5q-49 -23 -96 -53.5t-84 -71.5q-20 -25 -39.5 -56.5t-31 -67.5t-13.5 -73zM1399 928q23 10 71 35.5t97 58.5t86 68.5t37 66.5q0 23 -24 27t-38 0q-23 -4 -42.5 -14.5 t-37.5 -22.5q-53 -35 -95 -93.5t-54 -125.5z" />
<glyph unicode="G" horiz-adv-x="1282" d="M-10 -676q4 55 20.5 109.5t40.5 99.5q49 98 126 181t169 143q92 59 197.5 102t216.5 66q51 12 105 12q29 0 59 -4q25 63 51 127.5t59 140.5q-72 -51 -146.5 -95t-154.5 -79q-96 -41 -183 -48q-16 -1 -32 -1q-67 0 -122 24q-66 31 -106 105t-40 196v11q0 105 36 204 q38 105 89 199q-53 12 -95 60.5t-59 101.5q-7 27 -7 56q0 19 3 39q8 50 29.5 98.5t54.5 91.5t70 75q61 55 120.5 88t110.5 47.5t89 16.5t57 -4q16 -6 19 -19.5t-5 -27.5q-12 -23 -34.5 -36t-45.5 -22q4 2 11 12.5t13.5 20.5t6.5 20.5t-8 16.5q-18 10 -44 10t-50.5 -4 t-43 -10t-20.5 -8q-78 -29 -151.5 -90.5t-116.5 -143.5q-23 -43 -31 -96q-4 -24 -4 -46q0 -29 6 -56q14 -53 49 -92t82 -64q10 -6 12 -2q4 4 10.5 14t10.5 19q37 63 92 135q35 43 69.5 85t73.5 81q113 117 246 212t299 144q49 14 104 20q15 2 29 2q39 0 74 -12 q53 -20 63 -72q5 -21 5 -41q0 -30 -9 -59q-23 -72 -65.5 -135t-100 -117.5t-123 -100.5t-131.5 -83q-98 -55 -203.5 -95t-215.5 -54q-47 -4 -95 -5h-4q-47 0 -96 13q-6 2 -8 -5.5t-6 -13.5q-25 -51 -45.5 -104t-34.5 -109q-12 -41 -18 -88q-6 -41 -6 -83v-13q1 -49 11.5 -97 t32.5 -91q41 -78 115 -93q31 -7 64 -7q45 0 93 13q83 21 164.5 64t141.5 82q23 16 45 32.5t45 35.5q4 4 12 11t15 13q8 8 14 17q10 27 31.5 82t49 120.5t60.5 136t66 127.5q6 10 22.5 36t37 48.5t43 37t40.5 3.5q23 -12 27 -39.5t4 -50.5q-2 -27 -6 -53.5t-15 -50.5 q-16 -51 -43.5 -98.5t-60.5 -92.5q-33 -41 -68 -80.5t-73 -74.5q-6 -6 -19.5 -17.5t-27 -22.5t-23.5 -20l-10 -10q-27 -80 -59.5 -160t-67.5 -161q92 -14 176 -53.5t164 -82.5q49 -27 97 -50t99 -40.5t105 -23.5q20 -2 40 -2q35 0 72 6q96 16 179 66.5t157 109.5 q-41 -45 -96 -85t-117.5 -67.5t-130.5 -40.5q-46 -10 -93 -10q-21 0 -42 2q-55 4 -107.5 20.5t-102.5 40t-99 52.5t-101 57q-6 2 -37.5 18.5t-69.5 33t-68.5 26.5t-32.5 2q-23 -41 -42.5 -86t-41.5 -92q-45 -90 -111 -208t-148.5 -229.5t-180 -200.5t-208.5 -122 q-25 -7 -50 -7t-50 7q-49 14 -82 55q-35 41 -48 95q-10 40 -10 82q0 13 1 26zM47 -697.5q0 -58.5 16.5 -110.5t59.5 -81q33 -21 72 -21h8q43 3 85 20.5t80 45t66 53.5q82 74 146.5 164.5t117.5 186.5q61 111 112.5 225.5t104.5 230.5q-32 4 -64 4q-52 0 -103 -10 q-104 -23 -206 -64.5t-191 -105t-158.5 -146.5t-108.5 -186q-12 -37 -24.5 -92t-12.5 -113.5zM436 829q71 -22 143 -22q18 0 35 1q91 7 178 35.5t166.5 75t149.5 99.5q86 66 162 143.5t129 173.5q39 70 39 116t-29 70.5t-83 26.5h-11q-50 0 -111 -16q-119 -33 -232.5 -104.5 t-213 -168t-182 -208t-140.5 -222.5zM1118 408q45 43 86 89t76 97q33 47 59.5 95t46.5 99q10 27 18.5 53.5t12.5 55.5q0 10 -1 23.5t-11 21.5q-10 10 -26.5 2t-32 -23.5t-27.5 -32t-19 -24.5q-16 -25 -28.5 -49t-24.5 -51q-41 -86 -69.5 -175t-59.5 -181z" />
<glyph unicode="H" horiz-adv-x="1337" d="M8 24q16 82 55 161t84 132q117 143 278 246t353 164q51 16 102.5 29.5t104.5 23.5q4 2 5 2t3 4q88 178 194.5 344t242.5 328q-80 -18 -168 -36.5t-175.5 -47t-167 -69.5t-143.5 -105q-34 -35 -68 -85q-28 -42 -29 -86q0 -8 1 -15q6 -48 44 -62q26 -9 57 -10q14 0 28 2 q47 6 89 23.5t56 27.5q16 12 29.5 28.5t15.5 30t-10 20.5t-45 1q18 8 37.5 12.5t34 2t20.5 -11.5t-4 -27q-6 -10 -31.5 -32t-64.5 -42.5t-88 -33.5q-34 -9 -67 -9l-31 2q-18 2 -37 9t-31 24q-16 26 -16 57v8q2 36 17 71.5t38.5 69t48.5 60.5q72 76 163 118t202 74 q53 16 108 29.5t109 26.5q29 6 56.5 12t55.5 12q10 4 15 11q61 74 139 139q8 6 34.5 23.5t53.5 28.5t44 5t7 -45q-12 -45 -47 -77.5t-79 -57.5t-92 -42t-89 -30q-113 -170 -204 -327.5t-181 -337.5q61 12 125.5 20t128.5 23q27 55 69 119.5t92 131t102 128t99 110.5 q31 31 70 71t85 79t96 68.5t102 39.5q25 4 47 -4t28 -37q2 -12 3 -25q0 -21 -7 -43q-10 -36 -29.5 -72t-43 -68.5t-43.5 -61.5q-53 -72 -118 -137.5t-136 -118.5q-82 -59 -170 -104.5t-193 -73.5q-8 -4 -10 -7.5t-6 -13.5q-33 -66 -70 -150.5t-69.5 -181t-54.5 -196.5 q-23 -101 -24 -197v-7q0 -92 24 -176q24 -87 85 -153t149 -82q45 -8 92 -8q45 0 92 8q95 16 192.5 51t179.5 77t141 79t82 52q-170 -123 -363 -207q-98 -43 -208 -69q-56 -13 -113 -13q-54 0 -109 12q-123 29 -187.5 106.5t-86.5 183.5q-14 68 -15 143q1 42 5 86 q12 124 44 244t78 226.5t91 175.5q-61 -12 -123 -20t-127 -23q-53 -98 -101.5 -195.5t-103.5 -201.5q-78 -141 -166 -286.5t-221 -268.5q-35 -31 -80 -59.5t-94 -44.5q-43 -14 -89 -13h-12q-52 2 -96 33q-72 47 -89 122q-9 39 -9 80q1 37 8 76zM58 -91q8 -52 34.5 -94 t81.5 -61q34 -10 68 -10q30 0 60 8q62 18 119.5 61.5t109 106t94.5 130t77.5 133t61.5 114.5q59 117 113.5 233.5t107.5 237.5q-133 -27 -271.5 -77t-261 -129t-220 -189.5t-148.5 -255.5q-14 -43 -24 -99q-5 -32 -5 -62q0 -24 3 -47zM1372 854q137 39 250 115 q115 78 203 184.5t168 222.5q4 8 21.5 36t32.5 58.5t20.5 55t-15.5 26.5q-8 1 -17 1q-36 1 -77 -19q-51 -24 -101.5 -62t-94 -81t-74.5 -74q-92 -98 -170 -216t-146 -247zM1489 1516q29 8 69.5 21t80.5 33.5t71 47.5t39 61q6 25 -9.5 27t-37 -8t-43 -23.5t-29.5 -19.5 q-18 -12 -38.5 -31.5t-41 -40t-37 -38t-24.5 -29.5z" />
<glyph unicode="I" horiz-adv-x="1011" d="M1 40q3 83 30.5 166t68.5 150q57 90 139.5 161t180.5 114q74 33 158 51t172 23q8 0 29.5 1t45 -3.5t40 -12.5t12.5 -26q-6 -31 -42 -45.5t-63 -18.5q8 2 17.5 11.5t13.5 19.5t3 21.5t-13 17.5q-23 10 -46.5 11t-46.5 1q-29 -2 -71.5 -6t-124.5 -27q-55 -18 -106.5 -43.5 t-96.5 -62.5q-57 -47 -104 -110.5t-80 -138.5t-49 -157q-13 -66 -13 -132v-32q6 -98 46 -157q41 -60 101 -80q33 -11 69 -11q32 -1 67 7q76 18 154 75q88 66 153.5 155t118.5 185q96 168 174 342.5t170 344.5q82 147 175 284t200 266q-59 -14 -128 -28.5t-147 -36.5 q-104 -29 -210.5 -73t-188.5 -126q-35 -35 -69 -84q-28 -42 -28 -86q0 -8 1 -16q4 -48 42 -62q25 -9 54 -9q15 0 31 2q47 7 90 23.5t57 26.5q14 8 26.5 23.5t15.5 30t-9 22.5t-45 6q16 8 35.5 12.5t35 1.5t22.5 -12.5t-3 -27.5q-8 -12 -34.5 -34t-64.5 -42.5t-86 -32.5 q-32 -8 -65 -8q-16 0 -33 2q-46 4 -68 37q-16 24 -16 56q0 12 2 24q8 51 36 97t65 86t82 70.5t92 53.5q131 59 272.5 91t280.5 67q14 18 37.5 43.5t51.5 52.5t58.5 52.5t61.5 43.5q33 18 55.5 18.5t32.5 -12t5 -34t-26 -48.5q-31 -33 -62.5 -56t-68.5 -42.5t-80 -36 t-98 -33.5q-2 -4 -9 -13t-16.5 -21.5t-17.5 -23.5t-12 -17q-66 -92 -121 -188.5t-107 -196.5q-80 -160 -156.5 -320t-168.5 -313q-29 -49 -66 -110.5t-82 -126t-97 -126t-110.5 -110.5t-123 -81t-134.5 -34h-13q-38 -1 -75 9q-43 12 -77 40q-61 51 -86 127q-22 68 -22 141 v18zM1544 1442q53 16 104.5 38.5t102.5 59.5q14 12 31.5 33.5t23.5 40t-4 26t-51 -11.5q-57 -31 -107.5 -80t-99.5 -106z" />
<glyph unicode="J" horiz-adv-x="1042" d="M1 49q11 115 65 211q70 129 166 214t201.5 138.5t210 79t190.5 34.5q77 8 130 8h12q56 -1 64 -3q76 150 165 292t198 282q16 23 33.5 43t36.5 43q-131 -29 -263.5 -62t-259.5 -94q-37 -18 -83 -49t-88 -71t-69 -86q-23 -40 -23 -82q0 -7 1 -13q6 -49 44 -62 q26 -10 57 -10q14 0 28 2q47 6 90 23.5t56 27.5q12 10 24 22.5t14 29.5q0 23 -22.5 27.5t-26.5 2.5q12 8 29.5 12.5t33 2.5t25 -11.5t2.5 -27.5q-4 -12 -29.5 -33.5t-65.5 -42t-89 -33.5q-34 -10 -68 -10l-30 2q-20 2 -39 9t-31 24q-18 27 -18 60q0 9 2 19q6 44 30.5 88 t58.5 83t66 63q47 41 102.5 68.5t115.5 50.5q88 33 177 54.5t181 41.5q29 6 55.5 12.5t55.5 14.5q35 41 80.5 87t86.5 75q8 6 24.5 18t36 21.5t37 11.5t29.5 -12q12 -23 2 -48.5t-33.5 -51t-57 -49t-68.5 -44.5q-35 -20 -73 -31.5t-91 -25.5q-53 -68 -100.5 -138.5 t-90.5 -146.5q-29 -51 -54 -97t-47.5 -92.5t-46.5 -93.5t-48 -100q8 0 57 -6q37 -5 81 -5q14 0 30 1q61 2 121.5 18.5t93.5 59.5q-33 -45 -71 -69t-85 -32q-29 -5 -62 -5q-20 0 -43 2q-57 5 -130 18q-33 -66 -66 -129q-29 -53 -57.5 -110.5t-48.5 -92.5 q-53 -98 -113.5 -193.5t-128.5 -187.5q-39 -51 -92 -111.5t-117.5 -108.5t-137.5 -74q-40 -14 -82 -14q-33 0 -67 9q-53 12 -90 49t-59 86q-36 82 -36 172q0 22 2 45zM56 -92q12 -78 51.5 -130t108.5 -68q18 -3 37 -3q57 0 130 33q49 23 92 56.5t80 72.5q84 88 148.5 191.5 t120 213t105.5 221t103 220.5q-14 2 -57 3h-15q-38 0 -90 -4q-63 -5 -140 -19.5t-159 -44t-162.5 -79t-150.5 -120.5q-74 -78 -125 -177.5t-72 -205.5q-9 -48 -9 -94q0 -33 4 -66zM1534 1448q16 4 30.5 9t30.5 11q41 16 81 35.5t75 48.5q16 14 36.5 36t16.5 46 q-2 12 -13 13.5t-25.5 -3t-28 -12.5t-17.5 -10q-47 -29 -87 -67.5t-77 -79.5q-6 -6 -11 -12.5t-11 -14.5z" />
<glyph unicode="K" horiz-adv-x="1554" d="M8 -57q-8 46 -8 91q0 62 16 124q28 106 84 198q57 90 139.5 161t180.5 114q74 33 158 51t172 23q8 0 29.5 1t45 -3.5t40 -12.5t12.5 -26q-6 -31 -42 -45.5t-63 -18.5q8 2 18.5 10t16.5 17.5t3 20.5t-17 22q-20 12 -45 12h-48q-104 -6 -208.5 -37t-190.5 -102 q-82 -68 -136 -159t-83 -191q-14 -53 -22 -109q-6 -38 -6 -75q0 -18 1 -36q6 -98 46 -157q41 -60 101 -80q33 -11 69 -11q32 -1 67 7q76 18 154 75q109 82 193.5 207t156 266.5t135 286t131.5 267.5q82 147 175 284t200 266q-84 -27 -174 -45t-178.5 -44.5t-170 -66.5 t-151.5 -108q-35 -35 -69 -84q-28 -42 -28 -86q0 -8 1 -16q4 -48 43 -62q27 -9 57 -10q13 0 28 2q46 6 89 23.5t57 27.5l22.5 22.5t14.5 29.5q0 10 -7 16t-18 10q-10 4 -24 4q14 8 33.5 12.5t35 2.5t22.5 -12.5t-1 -28.5q-6 -12 -32.5 -34t-65.5 -41q-39 -18 -87 -32 q-34 -9 -68 -10q-15 0 -30 2q-46 4 -68 37q-16 24 -16 56q0 12 2 24q8 51 36 97t65 86t82 70.5t92 53.5q66 31 134.5 51.5t138 37.5t140 33.5t140.5 35.5q47 57 98 105t111 87q29 18 52 21.5t32 -19.5q6 -18 -1.5 -36.5t-19.5 -37t-27.5 -35t-29.5 -26.5 q-53 -41 -111.5 -63.5t-136.5 -47.5q0 -2 -8 -12t-17.5 -22.5t-17.5 -23.5t-12 -17q-66 -92 -121 -188.5t-107 -196.5q-4 -6 -5 -11.5t-5 -11.5h11q122 0 219 82q55 47 98 104.5t88 114.5q66 82 143.5 148.5t180.5 101.5q49 16 99 29.5t103 17.5q14 2 52 5t79 3t77 -4 t44 -18q8 -13 -14 -29q-17 -12 -46 -13q-8 0 -16 1q16 4 23.5 18.5t-4.5 24.5q-16 10 -57 13q-9 1 -22 1q-41 0 -116 -8q-96 -12 -186 -57q-96 -47 -175 -116t-151 -146q-39 -41 -76.5 -83t-78.5 -81q-37 -35 -80 -62.5t-92 -42.5q18 2 37 1q24 0 48 -2q44 -5 78 -32 q37 -29 49.5 -73.5t12.5 -89.5q0 -92 -22.5 -183.5t-43.5 -183.5q-12 -53 -22 -110.5t-14 -113.5q-2 -25 -3 -51q-1 -31 3 -63q6 -57 26 -110q31 -78 94.5 -140.5t145.5 -91.5q61 -22 123 -22q43 0 87 11q106 26 199 79q92 57 171 131t151 157q-8 -10 -16.5 -22t-18.5 -23 q-66 -78 -141.5 -147.5t-165.5 -120.5q-91 -53 -199 -73q-35 -6 -70 -6q-72 0 -143 28q-78 29 -141.5 86t-99.5 131q-50 102 -50 216v5q0 111 21 217q10 53 25.5 106.5t31 109t25.5 110.5t10 111q0 115 -115 143q-33 6 -66 6h-17q-42 -2 -89 -2q-8 0 -12 -6 q-76 -150 -148.5 -300.5t-158.5 -295.5q-29 -49 -66 -110.5t-82 -126t-97 -126t-110.5 -110.5t-123 -81t-134.5 -34h-13q-38 -1 -75 9q-43 12 -77 40q-43 35 -67 85t-34 104zM1544 1442q51 16 104.5 38.5t102.5 59.5q12 10 34.5 34.5t24.5 41.5q2 27 -18 24.5t-41 -12.5 q-20 -10 -38 -23.5t-34 -27.5q-37 -29 -70.5 -63.5t-64.5 -71.5z" />
<glyph unicode="L" horiz-adv-x="1107" d="M2 -77q4 54 37 110q25 43 59.5 80t77.5 64.5t91 46t100 22.5q13 1 27 1q41 1 81 -9q53 -12 103 -35q63 98 118.5 197.5t108.5 201.5q-49 -27 -113.5 -54.5t-135.5 -45.5q-70 -19 -140 -23q-11 -1 -22 -1q-57 0 -107 18q-51 16 -87 53t-48 90q-9 37 -9 73q0 40 11 80 q20 76 65 144t108.5 125t133.5 96q47 27 97 47.5t104 32.5q37 10 75.5 15t81.5 5h16q101 1 157 -23q60 -26 77 -44q14 -14 9 -29.5t-21 -21.5q-23 -10 -46.5 -12.5t-56.5 -0.5q10 2 21.5 8t21.5 13q27 16 11 41q-25 35 -71 45t-87 14q-16 1 -32 1q-78 0 -168 -24 q-108 -28 -204 -86.5t-167.5 -143.5t-90.5 -187q-8 -39 -8 -82q0 -13 1 -25q3 -56 38 -100q43 -60 117 -76q48 -11 99 -11q29 0 57 4q82 9 161.5 36t137.5 53q16 8 22 12q59 104 119.5 209t126.5 205q66 96 136.5 186.5t150.5 172.5q51 53 118.5 105t149.5 63q11 2 21 2 q42 0 65 -28q18 -21 18 -53q0 -18 -6 -40q-23 -78 -73 -145.5t-105 -129.5q-76 -84 -159 -157.5t-171 -145.5q-45 -35 -90 -68.5t-92 -64.5q-10 -8 -33.5 -23.5t-48.5 -31t-44 -27.5l-19 -12q-12 -16 -17.5 -25.5t-13.5 -21.5q-63 -98 -127 -195.5t-129 -195.5 q66 -31 123 -72t112 -84q88 -68 177.5 -139.5t185.5 -130t199.5 -96t220.5 -42.5q24 -1 47 -1q81 0 163 16q106 20 207 71q88 41 170 100.5t148 135.5q-90 -119 -233.5 -208t-297.5 -130q-104 -31 -212 -32h-6q-106 0 -212 40q-106 39 -197 103.5t-177 138.5 q-100 86 -200.5 172t-223.5 149q-23 -29 -40.5 -57.5t-39.5 -56.5q-31 -41 -62.5 -81t-68.5 -77t-79 -67.5t-91 -51.5q-48 -18 -84 -18q-17 -1 -32 3q-45 12 -67 50q-18 31 -19 74q0 9 1 17zM49 -70q-2 -13 -2 -24q-1 -42 23 -64q21 -20 58 -19q16 0 34 3q74 16 136.5 59.5 t115.5 100.5q45 47 84 100t73 107q-71 31 -143 35q-9 1 -17 1q-63 0 -126 -28q-82 -35 -150.5 -106.5t-85.5 -164.5zM889 657q98 57 188 129t172 150q80 76 156 158t143 170q14 20 38 48.5t44.5 61.5t33.5 66t9 61q-2 18 -18.5 26.5t-38 8.5t-43 -4t-33.5 -8 q-51 -16 -93 -51t-79 -74q-37 -41 -71.5 -84t-63.5 -90q-92 -135 -175 -277.5t-169 -290.5z" />
<glyph unicode="M" horiz-adv-x="1630" d="M3 66q17 110 63 213q45 96 109.5 181t148.5 150q31 25 66.5 46.5t76.5 37.5q84 33 162 42q54 6 99 6q20 0 38 -1q53 -4 77.5 -19t23.5 -32.5t-27.5 -33t-75.5 -19.5q8 0 18.5 7t16.5 17.5t5 21.5t-16 19q-30 16 -64 18q-19 1 -39 2q-16 0 -32 -1q-106 -4 -202.5 -48 t-171.5 -118q-80 -78 -131.5 -176t-77.5 -207q-12 -44 -20 -102q-6 -39 -6 -79q0 -19 1 -37q4 -58 25.5 -108.5t72.5 -78.5q39 -25 85 -27h11q39 0 81 12q46 14 89.5 39t77.5 53q86 72 150.5 163t120.5 188q84 145 154.5 296.5t156.5 317.5q51 102 105.5 201.5t119.5 191.5 q20 29 60.5 77t87.5 96t97 84t91 40q18 2 21.5 -6t-0.5 -20.5t-13.5 -24.5t-15.5 -16q12 18 11 27t-11 11.5t-24.5 -2t-28.5 -10.5q-29 -14 -53.5 -32.5t-47.5 -41.5q-117 -117 -176 -274q-41 -106 -58 -219t-32 -225q-16 -117 -34.5 -229.5t-51.5 -223.5q35 72 69 142.5 t70 142.5q53 100 111.5 198.5t124.5 190.5q129 178 299 323q168 143 369 244q45 23 95 44.5t101 31.5q14 4 31.5 4t15.5 -18q-2 -16 -17 -28.5t-30 -17.5q6 0 11.5 15.5t-1.5 19.5q-8 7 -24 7q-18 0 -44 -9q-50 -16 -114.5 -51t-133.5 -84t-124 -98q-172 -150 -285.5 -345.5 t-166.5 -416.5q-25 -98 -37 -212q-6 -57 -6 -114q0 -56 6 -112q12 -112 55 -216t129 -180q100 -80 220 -84q9 0 19 -1q111 1 227 45q126 48 252 136.5t240 192.5q-72 -70 -150.5 -134.5t-164.5 -117.5q-84 -53 -178 -92t-195 -43q-13 -1 -26 -1q-95 0 -179 39 q-96 44 -163 140q-63 90 -94 195.5t-42 212.5q-3 42 -3 84q-1 184 57 363q70 220 202 405q-20 -23 -39.5 -44.5t-37.5 -43.5q-94 -113 -174 -236t-150 -252t-131 -264t-121 -272q0 2 -7 4t-7 4q8 29 15 54.5t16 53.5q29 102 51 203t41 205q14 74 27.5 147.5t29.5 145.5 q25 111 56.5 220.5t80.5 211.5q-102 -164 -187 -339t-187 -370q-53 -100 -108.5 -197.5t-121.5 -191.5q-41 -59 -95 -124.5t-119.5 -118t-141.5 -80.5q-46 -17 -96 -16q-32 0 -66 7q-53 12 -90 48t-55 86q-27 70 -27 144q0 33 5 67z" />
<glyph unicode="N" horiz-adv-x="1337" d="M3 66q17 110 63 213q49 104 117.5 192t156.5 150.5t194 94.5q87 26 188 26q22 0 44 -1q51 -4 76.5 -19t23.5 -33.5t-27.5 -34t-74.5 -17.5q8 0 18.5 7t15.5 17.5t4 21.5t-14 19q-30 16 -64 18q-19 1 -39 2q-16 0 -32 -1q-98 -4 -198.5 -48t-175.5 -118 q-80 -78 -131.5 -176t-77.5 -207q-12 -44 -20 -102q-6 -39 -6 -79q0 -19 1 -37q4 -58 25.5 -108.5t72.5 -78.5q39 -25 85 -27h11q39 0 81 12q46 14 89.5 39t77.5 53q76 63 139.5 144.5t117 170.5t99.5 183t89 186q35 72 68.5 141.5t68.5 139.5q43 86 90 175t102.5 173 t124 159t154.5 136q12 8 31.5 20.5t38 20.5t33 8t18.5 -16q2 -16 -12.5 -30.5t-26.5 -22.5q4 4 8 16t-6 20q-12 8 -34.5 0t-46 -23t-44 -33.5t-31.5 -27.5q-117 -117 -176 -274q-41 -106 -58 -219t-32 -225q-33 -256 -104 -516q98 205 208.5 403.5t239.5 386.5 q96 139 207 267t248 227q70 49 146.5 87t158.5 59.5t167 21.5t171 -31q51 -18 94 -44t75 -55.5t54.5 -58t34.5 -53.5q8 -16 5 -29.5t-25 -19.5q-27 -6 -55.5 8t-47.5 31q12 -6 28.5 -7.5t29 5t17.5 18.5t-3 31q-10 18 -23.5 35.5t-29.5 33.5q-47 47 -106.5 76t-125.5 41 q-44 8 -90 8q-23 0 -46 -2q-69 -6 -134 -26q-90 -31 -167 -82t-149 -111q-117 -102 -219 -219t-194 -242q-131 -180 -243 -368.5t-212 -386.5q-31 -61 -59.5 -125t-63.5 -127q0 2 -7 4t-7 4q8 29 15 54.5t16 53.5q29 102 51 203t41 205q14 74 27.5 147.5t29.5 145.5 q25 111 56.5 220.5t80.5 211.5q-102 -164 -187 -339t-187 -370q-53 -100 -108.5 -197.5t-121.5 -191.5q-41 -59 -95 -124.5t-119.5 -118t-141.5 -80.5q-46 -17 -96 -16q-32 0 -66 7q-53 12 -90 48t-55 86q-27 70 -27 144q0 33 5 67z" />
<glyph unicode="O" horiz-adv-x="1292" d="M1 286q11 122 45 241.5t77 217.5q43 104 100.5 205t124.5 193q70 92 154 169t180 138q68 41 145.5 77t160.5 53q59 12 118 12l48 -2q83 -7 161 -50q78 -45 133 -123q-72 92 -178 133q-74 28 -156 28q-36 0 -74 -5q-111 -16 -214 -64.5t-194 -120t-168 -161.5t-134 -187 q-57 -96 -106.5 -201.5t-85.5 -219t-54 -230.5q-15 -96 -15 -191q0 -21 1 -42q2 -55 11 -112.5t30.5 -108t59.5 -90.5t95 -60q50 -15 104 -19q15 -1 29 -2q41 0 81 8q56 10 108.5 28t101.5 44q100 55 183 133t153 170t127 191.5t100 208.5q-55 -39 -113.5 -72t-119.5 -55 q-52 -20 -110 -30q-45 -8 -89 -9q-13 0 -25 1q-56 3 -111.5 21.5t-102.5 59.5q-41 35 -68 83t-39 101q-10 48 -10 96q0 67 19 133q32 114 89 214q55 98 131 181t173 140q84 51 188 71q36 7 71 8q67 0 132 -26q55 -25 89 -68.5t52 -97.5q19 -52 25 -110q5 -44 4 -86v-25 q-4 -117 -33 -229.5t-72 -222.5q45 35 84 74.5t76 82.5q27 31 62.5 80t68.5 104.5t55.5 112t22.5 101.5q0 35 -27.5 42t-54.5 -26q12 27 35.5 55.5t54.5 32.5q29 2 37 -15.5t5 -42t-12 -50t-14 -37.5q-45 -109 -110 -211q-53 -80 -116.5 -158t-151.5 -149q-8 -8 -25 -21 q-8 -23 -15.5 -40t-17.5 -38q-72 -154 -170 -297t-233 -262q-57 -51 -127 -97t-147.5 -79t-160.5 -47q-39 -7 -78 -7q-45 0 -91 9q-115 18 -185 111q-68 87 -88 199q-13 73 -13 149q0 42 4 85zM522 674q18 -104 93.5 -169t179.5 -81q26 -3 53 -4q40 0 81 8q68 12 131.5 36.5 t118 55.5t89.5 62q4 14 8 25l8 22q10 27 18.5 52.5t16.5 51.5q31 106 49 215q8 58 11 118q1 26 1 52q0 34 -2 68q-4 55 -17 111.5t-48 101.5q-33 41 -80 58.5t-98.5 17.5t-102.5 -15.5t-94 -36.5q-100 -49 -179 -129t-132 -176q-57 -98 -91 -214q-21 -73 -22 -145 q1 -43 8 -85z" />
<glyph unicode="P" horiz-adv-x="1167" d="M4 -14q2 56 16.5 110t34.5 101q94 203 277 331q96 68 209.5 111t238.5 68q29 6 56.5 10t56.5 2q41 -4 46 -19.5t-9.5 -34t-41 -34t-46.5 -19.5q10 2 18 11.5t11 20.5t0 20.5t-15 15.5q-20 8 -44 8t-46 -4q-14 -2 -40 -6t-58.5 -11.5t-68.5 -17.5t-71 -24 q-104 -41 -192 -107.5t-154 -157.5q-66 -86 -98 -192q-25 -81 -25 -161q0 -25 2 -50q10 -92 64.5 -151.5t157.5 -59.5q113 4 206 62.5t164 138.5q74 86 131.5 180t110.5 192q53 102 103.5 202t103.5 200q-2 0 -13.5 -1t-24.5 -3t-24 -2h-10q0 2 11.5 4t24.5 4t25.5 4t14.5 2 q4 8 8 15.5t8 15.5q51 98 103.5 195.5t111.5 191.5q53 86 105.5 160.5t126.5 144.5q-49 6 -100 6h-25q-64 -2 -127 -10q-111 -14 -217.5 -48t-204.5 -91q-47 -29 -85 -54.5t-77 -66.5q-18 -18 -37.5 -42t-36 -50.5t-25.5 -54t-9 -54.5q2 -66 38.5 -95.5t88.5 -35.5 q19 -2 38 -2q35 0 70 7q55 11 96 28q35 14 76 36.5t76 50.5t55.5 58.5t14.5 59.5q-2 8 -15.5 13t-34.5 -1q18 12 47 21.5t52 -5.5q27 -16 11.5 -50t-58.5 -72.5t-106.5 -76.5t-134.5 -60.5t-141 -23.5h-5q-68 0 -121 33q-46 30 -54 82q-2 15 -3 29q0 37 14 72q16 47 49 89 t74 79t88 68.5t94 56.5q129 72 276.5 104.5t307.5 32.5q16 0 46.5 -2t34.5 -2q20 20 40 40.5t49 43.5q8 6 22 18t29.5 21.5t31 12.5t25.5 -9q10 -10 10 -23.5t-4 -23.5q-10 -41 -47 -72q6 4 10 17.5t2 26.5t-11 22.5t-25 3.5q-33 -10 -62 -34t-55 -46q72 -10 140.5 -28.5 t131.5 -53.5q86 -45 124 -101q34 -49 33 -99v-13q-5 -58 -50 -114t-123 -105q-115 -70 -242 -117t-262 -80q-55 -14 -107.5 -22.5t-93.5 -16.5q-53 -113 -102 -207t-109 -192q-49 -82 -111.5 -177.5t-139 -183.5t-168 -155.5t-193.5 -94.5q-48 -13 -98 -13q-24 0 -50 3 q-76 10 -128 74q-36 43 -50 95q-12 45 -12 93v15zM1171 739q182 27 354.5 99t338.5 174q59 39 93 83t37 90v8q0 42 -28 84q-31 46 -100 87q-49 29 -99.5 45t-91.5 27q-49 10 -92 14q-53 -66 -102 -140.5t-109 -176.5q-53 -98 -102 -196.5t-99 -197.5z" />
<glyph unicode="Q" horiz-adv-x="1261" d="M0 122q0 56 4 109q10 111 40 219.5t73 213.5q43 102 97 197t120 183t147.5 162t173.5 133q92 57 194.5 97.5t213.5 40.5q53 0 103.5 -12.5t97.5 -39.5q37 -23 68.5 -52.5t58.5 -63.5q-72 86 -173 127q-68 28 -146 28q-37 0 -75 -6q-109 -16 -207 -64t-184 -114 q-88 -70 -159.5 -153t-129.5 -179q-55 -92 -102 -194.5t-82 -211t-53 -220.5q-15 -89 -15 -178q0 -24 1 -48q2 -53 11 -107.5t30.5 -102.5t57.5 -86t91 -58q60 -20 125 -20q39 0 81 8q107 20 200 69q55 29 104 67t94 81q-10 8 -20.5 15t-20.5 15q-61 45 -141 81 q-55 25 -112 25q-25 0 -50 -5q-25 -6 -30 -18.5t0.5 -27t17.5 -24.5t26 -10q-8 0 -25.5 3t-33.5 9t-27.5 16.5t-7.5 26.5q4 12 20.5 21.5t26.5 13.5q33 9 66 9q17 0 35 -2q51 -7 100 -27.5t95 -51t87 -63.5q63 63 119 137q135 178 217 383q-53 -37 -108.5 -67.5 t-114.5 -53.5t-121 -34q-37 -6 -73 -6q-27 0 -54 3q-100 16 -176 82t-98 172q-10 47 -10 94q0 64 18 127q31 109 84 205q53 92 127 172t166 136q39 23 84 41t94 27q37 7 74 7q12 0 25 -1q50 -3 98 -23q51 -23 83.5 -65t51 -93t24.5 -106q4 -42 4 -81v-26 q-4 -113 -31.5 -221.5t-68.5 -212.5q43 35 80 71.5t74 77.5q51 57 91 119t68 133q12 31 27 64q12 29 12 59v8q0 18 -10 27.5t-24.5 10.5t-26.5 -5t-17 -18q10 25 34 52.5t54 31.5q27 4 35.5 -12.5t5 -41t-12.5 -48t-13 -36.5q-23 -53 -49.5 -104t-57.5 -98 q-39 -59 -82 -115.5t-94 -106.5q-25 -27 -48 -46t-56 -48q-31 -72 -65 -140.5t-72 -129.5q-53 -86 -116 -165t-134 -148q70 -53 139.5 -109.5t143 -107t153.5 -88t170 -52.5q57 -9 114 -9q40 0 79 4q98 11 190 48q86 35 168 90.5t143 128.5q-61 -86 -162.5 -153.5 t-208.5 -106.5q-109 -41 -204 -46q-16 -1 -32 -1q-78 0 -153 21q-90 24 -177 76.5t-175 130.5q-47 41 -96 81.5t-98 85.5q-6 -6 -12.5 -11t-12.5 -11q-57 -51 -125 -95t-142.5 -74t-153.5 -42q-39 -6 -79 -6t-80 6q-113 18 -178 106q-35 43 -55.5 95.5t-29.5 108t-9 111.5z M502 596q18 -98 87.5 -162.5t172.5 -79.5q30 -4 59 -4q80 0 157 28q106 38 198 95q12 8 24 16.5t17 18.5q4 10 8 21.5t8 23.5q10 25 17 49.5t16 50.5q16 51 26.5 101.5t20.5 103.5q8 57 11 114q1 24 1 48q0 32 -2 65q-4 53 -16.5 107.5t-46.5 97.5q-33 39 -77 55.5 t-93.5 16.5t-98.5 -13.5t-90 -33.5q-98 -47 -173 -124t-128 -169q-53 -94 -86 -204q-20 -68 -20 -136q0 -43 8 -86z" />
<glyph unicode="R" horiz-adv-x="1857" d="M0 -14q2 56 16.5 110t36.5 101q45 100 115 184t160 147q96 66 209.5 110t238.5 69q29 6 56.5 10t56.5 2q14 -2 31.5 -8t15.5 -25q-2 -33 -36 -51.5t-60 -22.5q4 0 14 10.5t14 20.5q6 12 1 22.5t-15 14.5q-23 10 -46.5 9t-45.5 -5q-14 -2 -40 -6t-57.5 -11.5t-67.5 -17.5 t-71 -24q-104 -41 -193 -107.5t-155 -157.5q-63 -86 -97 -192q-26 -82 -26 -163q0 -24 2 -48q10 -92 65.5 -151.5t158.5 -59.5q111 4 204 62.5t164 138.5q74 86 132.5 180t111.5 192q61 119 121.5 240t126.5 242q-8 -2 -32 -5t-46.5 -2t-38.5 8t-10 25q6 20 28.5 37t51 29 t59.5 19.5t53 11.5l6 12q66 129 148 257t186 239q-68 20 -138 20h-22q-82 -4 -174 -16q-90 -16 -177 -48t-165 -79q-47 -29 -86 -54.5t-77 -66.5q-18 -18 -37 -42t-35.5 -50.5t-25.5 -54t-9 -54.5q2 -66 39 -95.5t89 -35.5q18 -2 37 -2q35 0 71 7q56 11 94 28q35 14 77 36.5 t76.5 50.5t55 58.5t14.5 59.5q-2 8 -15.5 13t-33.5 -1q16 12 45 21.5t51 -5.5q27 -16 11.5 -50t-57.5 -72.5t-105.5 -76.5t-134 -60.5t-141.5 -23.5h-4q-69 0 -122 33q-47 30 -54 82q-2 16 -2 31q0 36 11 70q18 47 50 89t74 77.5t88 67.5t93 59q92 47 191.5 79.5t214.5 42.5 q66 4 131 4q2 0 4 1q63 0 127 -15l50.5 50.5t57.5 54.5q8 6 21.5 17t30 20.5t32 12.5t25.5 -7q12 -12 11 -28.5t-8 -33t-19.5 -32t-22.5 -25.5q6 4 9 15.5t2 22.5t-9 20t-26 7q-16 -2 -29.5 -9t-26.5 -15q-18 -14 -43.5 -35.5t-42.5 -38.5q43 -8 102.5 -30.5t110.5 -58.5 t81 -85q19 -31 19 -68q0 -21 -6 -43q-12 -49 -47 -86.5t-82 -67.5t-100 -53.5t-102 -43.5q70 -18 130 -57.5t93 -104.5q23 -48 30 -98q4 -26 3 -52q-1 -24 -3 -49q-6 -51 -20 -101t-35 -96q-57 -129 -79 -229q-19 -88 -18 -156v-19q3 -75 26.5 -126t54.5 -86t63.5 -54.5 t57.5 -27.5q61 -22 123 -22q43 0 87 11q106 26 199 79q45 29 79 51t69 53t76 74t100 110q-66 -92 -150 -171.5t-192 -141.5q-93 -53 -201 -73q-35 -6 -70 -6q-72 0 -143 28q-35 14 -86 49t-88 101q-37 68 -46 170q-1 16 -1 34q0 92 39 215q20 63 52 141q33 78 51 159 q13 56 12 110q0 25 -2 49q-8 78 -66 141q-29 29 -70 53.5t-92 34.5q-59 -25 -152.5 -55.5t-191.5 -46.5q-53 -123 -115.5 -240.5t-134.5 -240.5q-59 -98 -122.5 -189.5t-139.5 -177.5q-43 -49 -97 -98t-117.5 -88t-132.5 -59q-46 -14 -95 -14q-24 0 -47 3q-41 4 -77 23.5 t-63 52.5q-35 43 -49 95q-12 46 -12 94v14zM1027 817q1 -6 13 -8q29 -4 53.5 -1t55.5 9q12 25 22.5 46.5t26.5 47.5q-37 -10 -76 -22t-69 -35q-6 -4 -12.5 -10t-10.5 -13.5t-3 -13.5zM1212 829q63 12 127 36t146 59q-53 8 -111 9h-9q-54 0 -105 -11q-12 -25 -25 -47.5 t-23 -45.5zM1266 934q56 7 112.5 7t112.5 -7q4 0 9 -1t9 1q6 4 11.5 5t11.5 5q59 25 115.5 56.5t111.5 74.5q31 25 59.5 58.5t28.5 74.5v5q-1 38 -29 72q-30 36 -75 64.5t-94.5 48t-85.5 27.5q-55 -63 -102.5 -137t-90.5 -155q-23 -39 -50.5 -92.5t-53.5 -106.5z" />
<glyph unicode="S" horiz-adv-x="1019" d="M0 -54.5q0 54.5 13.5 109t35.5 103.5q45 98 109.5 187t150.5 157q41 33 88 61.5t92.5 49t83 35t58.5 20.5q10 2 31.5 8t44 9t41 2t24.5 -13q6 -16 -1 -30.5t-21.5 -27t-31 -21.5t-26.5 -11q10 6 19.5 15t11.5 19.5t-5 19.5t-32 13q-31 4 -63.5 -4t-61.5 -18 q-98 -33 -187 -92.5t-158 -138.5t-114 -175t-53 -200q-2 -21 -2 -43q0 -32 4 -66q6 -56 35 -102q29 -48 78 -64q36 -12 74 -12q14 0 28 2q102 12 190.5 72.5t163 147.5t138 187.5t114.5 190.5q57 100 109.5 200.5t105.5 204.5q-54 -12 -112 -12q-27 0 -53 2q-86 8 -150 64 q-43 37 -61.5 85t-19.5 101v7q1 50 13 100q14 54 33 100q45 104 108.5 163.5t124 90.5t108.5 39t63 8q8 0 28.5 -1t40 -6t29.5 -16.5t-4 -31.5t-39 -31.5t-49 -16.5q16 6 26.5 21.5t12.5 26.5q4 23 -21.5 29.5t-48.5 6.5q-86 -4 -160.5 -47t-128.5 -110q-59 -72 -91 -163 q-22 -63 -21 -127q0 -29 4 -58q8 -53 33.5 -99.5t72.5 -74.5q41 -25 86 -36.5t93 -11.5q12 0 27.5 1t29.5 4q16 2 33 6q12 25 28.5 56.5t30.5 61.5q27 51 52.5 102.5t51.5 104.5q47 98 99.5 197.5t124.5 193.5q33 41 73.5 77t94.5 46q23 4 48.5 3t45.5 -17q43 -32 44 -91 q0 -4 -1 -10q-4 -66 -34 -138t-70 -137.5t-66 -98.5q-37 -49 -92.5 -102.5t-119 -102.5t-130 -88t-125.5 -57q-55 -111 -128 -245t-160 -265t-187.5 -250t-210.5 -199q-41 -29 -91 -53.5t-104 -35.5q-29 -6 -58 -6q-23 0 -46 4q-51 9 -92 50q-39 37 -55.5 87t-16.5 104.5z M1157 772q37 12 74 31q98 53 179 131t146 166q70 92 123 186q10 18 31 62.5t33 92.5q8 30 8 57q0 16 -3 31q-7 40 -52 50q-13 3 -26 3q-27 0 -53 -12q-38 -16 -71 -45.5t-59.5 -66.5t-46.5 -69q-29 -47 -55.5 -97.5t-49.5 -103.5q-45 -104 -88 -207.5t-90 -208.5z" />
<glyph unicode="T" horiz-adv-x="1075" d="M0 -37q0 53 12.5 106.5t30.5 100.5q43 102 111.5 188t156.5 152q96 70 212 116t243 70q2 0 28.5 4.5t56.5 5.5t53.5 -5.5t23.5 -24.5q-2 -33 -36 -51.5t-61 -22.5q29 16 33 39t-18 29q-23 6 -51 6h-14q-36 -2 -73.5 -9.5t-74.5 -18.5t-68 -19q-98 -35 -187 -92.5 t-157.5 -134t-113 -171t-50.5 -200.5q-1 -15 -1 -31q0 -28 4 -60q8 -48 29.5 -90.5t58 -71t94.5 -32.5q16 -1 32 -1q92 0 168 39q90 46 165 122t136.5 168t108.5 178q55 100 106.5 201.5t104.5 203.5q51 100 103.5 198.5t107.5 197.5q53 92 111.5 178t127.5 164 q-84 16 -164.5 35.5t-164.5 35.5q-110 18 -224 22h-21q-103 0 -202 -32q-82 -29 -136 -76q-55 -47 -81 -101q-26 -52 -25 -104q-1 -56 31 -94q30 -37 92 -51q24 -5 51 -6q44 0 99 14q51 12 102.5 38t91 54.5t60 57.5t12.5 51q-4 8 -14 12t-35 0q16 16 45 25.5t49 -6.5 q27 -20 12.5 -52t-52.5 -65t-87 -61.5t-92 -44.5q-107 -41 -182 -41q-8 0 -16 1q-80 5 -124 41t-52 94q-2 15 -3 29q-1 45 19 91q26 62 85.5 117t149.5 87q63 23 133 31q62 7 125 7h15q70 -1 140.5 -7t133.5 -14q113 -16 227 -37q8 -2 23.5 -5t19.5 -3q39 39 82 83t97 68 q37 16 49 6t7 -32.5t-20.5 -49t-31.5 -43.5q10 12 16 26.5t3 26t-16.5 15.5t-37.5 -4q-39 -12 -71 -41t-62 -57q55 -10 110.5 -20.5t112.5 -20.5q55 -10 111.5 -16.5t113.5 -8.5q22 -1 45 -1q82 -1 168 11q109 14 217 45q47 14 94.5 33t90.5 43q23 12 42 26.5t38 31.5 q2 2 9 10t9 17t-5 16.5t-34 7.5q35 23 57.5 22.5t30.5 -8.5q10 -10 -8 -31.5t-48 -45t-61.5 -43t-44.5 -25.5q-35 -20 -72.5 -36t-76.5 -28q-128 -39 -268 -59q-118 -17 -232 -18q-22 0 -45 1q-98 0 -189.5 12.5t-197.5 39.5q-45 -51 -82 -108.5t-70 -117.5 q-113 -195 -207 -396.5t-206 -395.5q-55 -98 -117.5 -192.5t-134.5 -180.5q-70 -84 -153 -157.5t-187 -110.5q-37 -14 -79 -22q-31 -6 -62 -7q-11 0 -21 1q-41 3 -78 17.5t-67 47.5q-39 39 -55.5 90t-16.5 104z" />
<glyph unicode="U" horiz-adv-x="1206" d="M5 840q11 64 61 151q47 84 118.5 162t159.5 139.5t187.5 98t203.5 41.5q10 1 21 1q29 -1 58 -5q40 -6 75 -19q43 -20 63.5 -52t23.5 -71q1 -8 0 -15q0 -32 -10 -65q-12 -41 -32 -80q-55 -98 -122 -186t-134.5 -172t-134 -168t-123.5 -172q-88 -135 -128 -237.5 t-46 -176.5q-1 -15 -1 -29q-1 -53 17 -89q22 -46 60 -68q35 -22 78 -22h4q46 1 85 22q94 49 170 126t138 167q61 92 114.5 188.5t100.5 194.5q88 184 197.5 350t260.5 317q78 78 163 146.5t182 124.5q94 55 196.5 94t212.5 49q42 3 80 4q63 0 118 -9q89 -13 157.5 -37.5 t115.5 -54t72 -54.5q10 -10 12 -23.5t-12 -24.5q-23 -16 -53.5 -10t-53.5 17q8 -2 22.5 0t27 8t17.5 16t-3 23q-20 29 -54 48t-69 34q-144 58 -295 58q-14 0 -29 -1q-111 -6 -213 -40t-197 -87t-181.5 -121.5t-161.5 -144.5q-106 -106 -203.5 -232.5t-169.5 -265.5 q-71 -138 -107 -288q-24 -99 -24 -201q0 -51 6 -103q12 -106 62.5 -203.5t150.5 -150.5q86 -45 180 -45q13 0 27 1q108 7 213.5 46t202 99.5t168.5 117.5q0 -6 -18.5 -21.5t-43 -33t-47.5 -32.5t-29 -19q-57 -39 -121.5 -75t-132.5 -60q-69 -26 -143 -36q-36 -5 -72 -5 q-38 0 -75 6q-127 18 -205 91.5t-118 173.5q-40 98 -45 212q-1 25 -1 49q0 87 14 168q-6 -12 -13 -24.5t-15 -24.5q-84 -139 -186.5 -269.5t-241.5 -226.5q-61 -44 -126 -58q-28 -6 -54 -6q-33 0 -61 10q-50 18 -79 66q-23 39 -23 100q0 16 2 32q8 82 57.5 199.5 t160.5 271.5t210 289.5t191 271.5q18 27 48 74q31 46 51 98q19 47 18 90v9q-2 48 -47 79q-68 43 -161 44h-6q-90 0 -173 -28q-49 -16 -100.5 -41.5t-99.5 -59.5t-91 -72t-76 -77q-104 -127 -138 -216q-24 -62 -24 -108q0 -19 4 -35q14 -55 66 -77q40 -18 90 -17q13 0 27 1 q70 4 124 29.5t81.5 54t23.5 53.5t-53 29q6 2 24.5 4t37 -1t32.5 -11.5t14 -24.5q-2 -29 -26.5 -56.5t-65.5 -50t-94 -37t-108 -14.5q-68 0 -115 21q-48 20 -66 63q-12 27 -11 62q0 21 4 45z" />
<glyph unicode="V" horiz-adv-x="956" d="M-1 962v8q0 74 50 167q49 86 127 169t173 148.5t202.5 106.5t214.5 45h17q40 0 80 -8q48 -10 86 -32q39 -22 61 -61q21 -36 20 -87v-9q-6 -86 -46 -186.5t-96.5 -208t-118.5 -215t-112 -207.5q-49 -100 -93 -206.5t-74 -217.5q-30 -110 -42 -224q-5 -46 -5 -92 q0 -68 10 -135q4 12 24.5 57.5t44 97.5t45 99t29.5 66q98 207 219 401q39 66 112.5 176.5t176 239.5t231.5 262t279.5 241.5t320 178.5t353.5 74h15q92 0 180 -24q95 -26 177 -67.5t148.5 -94t110.5 -102.5q43 -50 63 -92q12 -26 13 -44q0 -11 -5 -19q-8 -14 -24.5 -14 t-35 6t-35 17.5t-22.5 17.5q25 -10 42.5 -6t26.5 15t10 27.5t-11 33.5q-10 14 -61.5 68t-137.5 114.5t-204 106.5q-109 42 -244 42h-23q-113 -4 -219 -35.5t-204.5 -84t-188.5 -121t-170 -142.5q-82 -78 -155.5 -163.5t-143.5 -176.5q-72 -92 -139.5 -185t-132.5 -189 q-66 -96 -127.5 -191.5t-120.5 -195.5q-59 -98 -112.5 -196.5t-104.5 -201.5q-4 31 -10.5 62.5t-6.5 70.5q-1 26 -1 53q-1 91 15 177q20 112 56 223q35 111 80 215t96 209q49 104 102.5 206.5t102.5 207.5q23 51 44 102t36 104q9 36 9 65q0 48 -24 82q-38 52 -102 72 q-51 16 -111 16q-17 0 -35 -1q-80 -6 -147 -27q-104 -35 -202.5 -106.5t-172.5 -149.5q-116 -127 -148 -220q-22 -62 -21 -114q0 -26 5 -49q6 -27 28 -57.5t58 -55.5q36 -24 84 -40q39 -13 86 -14q11 0 23 1q76 2 134 30q58 27 88 59q26 27 26 51q0 4 -1 8q-5 27 -59 31 q8 2 29 5t41 1t35.5 -11.5t13.5 -29.5q-4 -29 -30.5 -58.5t-70.5 -54t-99.5 -40t-114.5 -15.5q-74 0 -140.5 27.5t-106.5 82.5t-43 131z" />
<glyph unicode="W" d="M-1 962v8q0 74 50 167q49 86 127 169t173 148.5t202.5 106.5t214.5 45h17q37 0 76 -6q48 -8 87 -31q38 -23 62 -62q22 -36 22 -89v-9q-4 -53 -20.5 -105.5t-36.5 -101.5q-45 -100 -103 -207q-53 -100 -107 -199.5t-106 -203.5q-47 -96 -88 -196.5t-71 -203.5 q-32 -104 -46 -212q-8 -61 -7 -121q0 -46 4 -92q4 14 8 26t8 27q10 25 20.5 49.5t20.5 48.5q47 102 100 193q53 96 111.5 187t122.5 183q53 74 107 146.5t112 144.5q37 82 73.5 171t78.5 175t90.5 164t109.5 141q8 8 21.5 19.5t30 19.5t32.5 10.5t29 -6.5q14 -10 18 -29.5 t1 -41t-11 -42t-16 -32.5q-88 -152 -200 -289t-226 -272q-2 -2 -9.5 -22.5t-16.5 -48t-19.5 -58.5t-16.5 -53q-68 -221 -123 -443q-14 -55 -25.5 -110.5t-21.5 -110.5q-8 -43 -12 -89t-6 -101q74 172 157.5 342t194.5 352q39 66 112.5 176.5t176 239.5t231.5 262 t279.5 241.5t319.5 178t353 73.5h14q94 -1 182 -25q96 -26 177.5 -68t148 -94t110.5 -102.5t64 -92.5q12 -26 11 -44q0 -11 -4 -18q-8 -14 -24.5 -14.5t-35 7t-34 18.5t-23.5 18q19 -7 34 -8q22 0 36 16q11 13 10 27q0 16 -12 34q-10 14 -61.5 69.5t-137.5 115.5 q-87 59 -205 105q-109 42 -243 42h-23q-170 -6 -321.5 -70.5t-286.5 -165t-253 -228.5t-220 -259q-137 -180 -267.5 -366.5t-252.5 -395.5q-57 -96 -109.5 -192.5t-101.5 -194.5v5t-1 12.5t-1 25.5v45q6 229 57 450.5t131 434.5q-98 -137 -195.5 -276.5t-189.5 -293.5 q-53 -86 -101.5 -175t-89.5 -187q-2 14 -3 19.5t-1 9.5q-6 37 -6 73q-1 26 -1 53q-1 91 15 177q20 112 56 223q35 111 80 215t96 209q49 104 102.5 206.5t102.5 207.5q23 51 44 102t36 104q10 40 10 72q0 15 -2 27q-6 42 -30.5 68t-65.5 40.5t-97 22.5q-29 3 -58 3 q-85 0 -167 -26q-104 -35 -202.5 -106.5t-172.5 -149.5q-116 -127 -148 -220q-22 -62 -21 -114q0 -26 5 -49q6 -27 28 -57.5t58 -55.5q36 -24 84 -40q39 -13 86 -14q11 0 23 1q76 2 134 30q58 27 88 59q26 27 26 51q0 4 -1 8q-5 27 -59 31q8 2 27.5 4t41 0t37 -10.5 t13.5 -28.5q-2 -29 -29.5 -58.5t-71.5 -54t-99.5 -40t-114.5 -15.5q-74 0 -140.5 27.5t-106.5 82.5t-43 131zM1118 844q119 141 192.5 240.5t112.5 165t52.5 102.5t11.5 54t-11.5 20t-15.5 1q-55 -23 -105 -92t-93 -156t-80 -178.5t-64 -156.5z" />
<glyph unicode="X" horiz-adv-x="1370" d="M0 -55q0 59 12.5 116.5t32.5 112.5q37 106 100 209q63 96 152.5 170t200.5 109q74 23 122 27.5t76 6.5q8 0 34 1t53.5 -3t48 -12t20.5 -27q-4 -33 -42 -46t-65 -13q14 0 24.5 10t10.5 24.5t-13 27t-44 16.5q-36 6 -73 6q-70 0 -136 -20q-102 -30 -188 -97 q-68 -53 -121 -121.5t-89 -148.5t-54 -167q-16 -78 -15 -155v-18q0 -25 2 -53.5t9.5 -57t19.5 -54.5t35 -42q29 -23 67 -23q10 -1 20 1q50 8 102 35.5t100.5 65.5t78.5 69q86 86 159 181t138 195q74 106 142.5 213t140.5 213q0 104 -3 215t-22 250q-4 23 -7 47.5t-9 48.5 q-25 88 -67 132.5t-93 52.5q-13 2 -27 2q-37 0 -79 -16q-56 -22 -106 -66.5t-89 -103t-57 -121.5q-20 -65 -20 -113q0 -18 2 -32q10 -56 40 -86q31 -28 78 -38q29 -6 59 -6q19 0 39 2q52 6 100 23.5t83 38.5q16 10 29.5 26.5t16.5 30.5t-6.5 21.5t-33.5 -0.5q18 10 47 15 t41 -13q10 -16 -7.5 -41t-53 -48.5t-85 -44t-101.5 -27.5q-26 -4 -52 -3.5t-52 3.5q-52 7 -96 38q-47 35 -57 94q-5 27 -5 53q0 31 7 60q23 96 69 168.5t102 120.5q56 49 118 67q37 11 72 10q24 0 48 -5q56 -13 101 -60.5t68 -130.5q16 -59 25 -119t18 -119q12 -121 18 -248 q82 119 168 231.5t184 219.5q78 86 166 162.5t191 134.5q51 29 105.5 50.5t111.5 31.5q50 8 101 8t103 -8q106 -16 195 -66q6 -4 19.5 -12t23.5 -18.5t11 -20.5t-15 -19q-14 -6 -37.5 -5t-40.5 10q8 -4 24.5 4t16.5 18q2 14 -19.5 30.5t-51 30t-59.5 22.5t-44 13 q-63 15 -123 15q-56 0 -112 -14q-112 -28 -214 -89t-190 -146t-162 -171q-78 -94 -150.5 -192.5t-141.5 -198.5q-14 -18 -35 -47t-21 -31q6 -76 9 -183.5t12 -216.5q6 -68 15 -147.5t26.5 -160.5t46 -155.5t74 -134t110 -97.5t152.5 -42q15 -1 30 -1q101 0 199 35 q112 40 215 93q92 47 178 103.5t172 117.5q-59 -43 -117.5 -86t-119.5 -80q-59 -37 -130 -74.5t-147 -66.5q-77 -29 -153 -44q-55 -11 -108 -11q-21 0 -42 2q-74 6 -141.5 39t-122.5 102q-74 92 -110 207t-56 229q-23 123 -32 246t-13 246q-113 -162 -225.5 -322.5 t-237.5 -314.5q-39 -47 -80 -90t-86 -84q-29 -27 -76 -60.5t-99 -55.5q-50 -21 -101 -20h-4q-54 1 -93 42t-51 99t-12 114z" />
<glyph unicode="Y" horiz-adv-x="989" d="M-2 48q14 114 61 212q49 100 129 176t176.5 129t205 85t214.5 42q92 6 183 6h51q33 55 61.5 113.5t59.5 118.5q-23 -23 -64 -61t-89 -69.5t-97 -47.5q-23 -8 -43 -8q-24 0 -45 10q-27 12 -32 38.5t-1 49.5q10 92 53 181t90 179q14 29 38 74t37 94q8 30 8 60q0 18 -3 36 q-8 47 -53 80q-29 20 -71 28q-27 4 -56 4q-16 0 -32 -1q-46 -4 -94 -17.5t-87 -31.5q-47 -20 -95 -51t-92 -70t-84 -81t-67 -83q-90 -137 -114 -229q-14 -50 -14 -88q0 -33 10 -56q20 -53 73 -70q30 -11 64 -11q26 0 53 6q68 12 120 42.5t76.5 62.5t17.5 56q-6 23 -50 23h-7 q8 4 27 7t38 2t33.5 -8t14.5 -24q0 -29 -22.5 -58.5t-60.5 -56t-88 -46t-105 -25.5q-23 -3 -44 -3q-41 0 -73 11q-49 15 -73 56q-19 33 -19 84q0 10 1 22q5 66 46 158q39 88 102.5 173t144.5 153.5t176 116.5t197 63q37 4 77 4t77 -11q47 -14 70.5 -44.5t29.5 -68.5 q3 -16 3 -33q0 -23 -5 -48q-8 -43 -24 -82t-37 -77t-41 -75q-41 -76 -87 -156.5t-61 -168.5q-4 -23 -1 -46.5t28 -33.5q23 -8 49.5 -4t52 13t51 23.5t44.5 28.5q41 29 76.5 61t64.5 70l29 40q28 40 71 95.5t91.5 115t89.5 98.5q78 76 170 138t196 97q109 35 217 35 q106 0 216 -37.5t196 -105.5q27 -23 29 -40.5t-11.5 -25.5t-38 -7t-49.5 15q10 -6 31.5 3t19.5 26q-2 14 -19 28.5t-40 30.5q-88 59 -193 85q-75 19 -150 19q-29 0 -58 -3q-111 -14 -207 -60.5t-182 -113.5q-86 -72 -157 -156t-130 -178q-53 -82 -98.5 -170t-94.5 -191 q57 -4 117 -10q19 -2 39 -2q40 0 80 8q72 12 133 64q-33 -45 -78 -65.5t-95 -26.5q-25 -2 -51 -2t-52 2q-54 6 -103 12q-80 -176 -177 -346t-218 -332q-63 -86 -141 -165t-183 -118q-41 -16 -85 -21q-15 -2 -29 -2q-29 0 -58 7q-53 12 -90 49t-59 86q-34 78 -34 163 q0 26 3 53zM46 -38v-7q0 -54 14 -103q16 -53 48.5 -92t92.5 -49q21 -3 42 -3q28 0 55 6q48 10 92 32.5t84 55t75 67.5q78 82 136 177t110 194q53 102 101 205.5t99 205.5q4 8 7.5 15.5t7.5 13.5q-55 5 -110 5q-133 0 -269 -30q-109 -27 -205 -76t-172 -128 q-74 -80 -126 -178.5t-73 -204.5q-8 -47 -9 -106z" />
<glyph unicode="Z" horiz-adv-x="1140" d="M2 -100q12 104 65.5 214.5t131 208t175 174t199.5 117.5q119 48 259 64q57 7 113 6q81 0 159 -14q4 33 4 64q0 35 -5 68q-9 62 -69 116q-72 -61 -160 -107.5t-186 -65.5q-46 -8 -78 -8q-22 -1 -36 3q-36 10 -43 32.5t13.5 54t57.5 61.5t85 54.5t99 32.5q59 10 119 10 t115 -24l15 -7.5t12 -5.5q41 35 82.5 74t78.5 80q41 47 79 98t67 107q12 25 21 51t12.5 54t-4 53.5t-27.5 47.5q-35 35 -85 48.5t-97 15.5q-13 1 -27 1l-91 -10q-59 -14 -112 -40q-109 -49 -190 -137q-18 -18 -44 -52t-44.5 -73t-24.5 -77q-2 -10 -2 -19q0 -27 14 -50 q18 -29 50 -33q9 -1 18 -1q24 0 49 8q35 10 67.5 28.5t51.5 34.5q14 12 24.5 26.5t13.5 27t-6.5 18.5t-33.5 2q6 2 19.5 7t26.5 7t24.5 -1t15.5 -15q6 -23 -18.5 -48.5t-62.5 -49t-78 -40t-62 -18.5q-11 -1 -21 -1q-36 0 -65 16q-37 22 -37 81q8 94 71.5 176t151.5 144 q96 67 214 103q61 18 122 19q56 0 112 -16q45 -12 81 -39.5t49 -72.5q7 -25 7 -50t-8 -51q-14 -50 -36 -94q-29 -53 -69 -98t-81 -86q-45 -43 -92 -83t-94 -79q41 -27 61.5 -59.5t28.5 -69.5t8 -74v-73q35 -4 72 -9q33 -4 75 -7q25 -2 52 -2q18 0 37 1q53 0 97 23.5t62 46.5 q-20 -41 -68 -62.5t-93 -29.5q-42 -7 -84 -7l-34 1q-59 4 -118 14q-12 -131 -63.5 -263t-120.5 -241q-37 -57 -85 -122.5t-106.5 -128t-125 -120t-140.5 -99.5q-74 -43 -150 -63q-55 -15 -112 -14q-22 0 -45 2q-57 6 -98 34t-66 71t-35 97q-6 34 -6 69q0 21 2 43zM54 -100 q-1 -17 -1 -33q-1 -45 11 -86q16 -55 57 -94t119 -47q18 -1 35 -1q101 0 202 39q113 43 201 122t156 177q98 141 170.5 311.5t95.5 346.5q2 10 -5.5 11t-17.5 3q-92 13 -183 13h-34q-108 -3 -221 -37q-100 -31 -190.5 -90.5t-164 -139.5t-128 -175t-80.5 -197 q-16 -59 -22 -123zM586 842q-14 -37 9 -49.5t58 -12.5t72 7.5t51 11.5q59 16 129 51t119 76q-71 45 -159 45h-8q-93 -2 -171 -39q-29 -14 -58.5 -36t-41.5 -54z" />
<glyph unicode="[" horiz-adv-x="14" d="M-2226 -577.5q0 26.5 9 53t24.5 51t31.5 45.5q47 63 114 109.5t146 80.5q154 66 320 91.5t346 25.5q123 0 261 -10t276.5 -27.5t271.5 -38t244.5 -40t198.5 -37t133 -25.5q131 -27 263 -57.5t266 -56t270.5 -44t275.5 -22.5q125 -4 294 17.5t377 107.5 q-117 -53 -237.5 -89t-249.5 -53q-131 -14 -262 -7t-264 26.5t-268.5 47.5t-272.5 54q-276 55 -551.5 101.5t-556.5 74.5q-135 16 -270 28.5t-273 8.5q-123 -4 -248.5 -11t-246.5 -42q-72 -25 -144.5 -56.5t-132.5 -86.5q-96 -88 -118.5 -160t11.5 -111t113.5 -38t188.5 59 q12 6 25.5 19.5t18.5 27.5t-3 24.5t-39 12.5q16 8 42.5 11t45.5 -3q20 -8 22 -21q2 -16 -15 -34.5t-41.5 -35t-50.5 -29.5t-40 -19q-10 -4 -48 -16.5t-83 -16.5t-90 6t-70 53q-14 25 -14 51.5z" />
<glyph unicode="\" horiz-adv-x="1173" d="M221 1327q-2 43 8 84q-4 -47 3.5 -92t17.5 -90q23 -100 55 -205q33 -111 71 -218.5t79 -213.5q35 -94 73.5 -185.5t81.5 -181.5q37 -78 78 -152.5t92 -144.5q-70 70 -123 152t-98 168q-53 100 -98 203.5t-84 210.5q-35 98 -65.5 196t-53.5 199q-10 47 -18.5 92t-12.5 92 q-4 43 -6 86z" />
<glyph unicode="]" horiz-adv-x="10" d="M-2124 -385l56 49q39 31 79.5 53.5t87.5 44.5q156 66 320 91.5t346 25.5q123 0 261 -10t276.5 -27.5t271.5 -38t244.5 -40t198.5 -37t133 -25.5q131 -27 263 -57.5t266 -56t270.5 -44t275.5 -22.5q125 -4 294 17.5t377 107.5q-117 -53 -237.5 -89t-249.5 -53 q-133 -14 -265 -7t-265 28q-135 20 -268.5 47t-268.5 53q-276 55 -551.5 101.5t-556.5 74.5q-135 16 -270 28.5t-273 8.5q-123 -4 -248.5 -11t-246.5 -42q-86 -29 -164 -66.5t-156 -103.5z" />
<glyph unicode="a" horiz-adv-x="436" d="M4 66q0 43 33 122q14 33 37.5 67t51.5 62.5t57.5 50t58.5 31.5t62.5 6t49.5 -34q20 33 37 36t26 -9.5t11 -32t-4 -31.5q0 10 -2 16q-4 14 -21 0q-23 -18 -39 -55t-28 -74t-19.5 -66.5t-9.5 -35.5q-12 -45 -4 -62.5t29 -11.5q23 6 49.5 30.5t53 56.5t49 63.5t34.5 54.5 l4 -12q-10 -16 -37.5 -55.5t-62.5 -80.5t-73 -72.5t-66 -31.5q-25 0 -32 26q-2 8 -2 21q0 28 11 76l18 61q-18 -43 -53 -81t-71.5 -63.5t-71.5 -34.5t-55.5 5.5t-20.5 57.5zM60 64q15 -23 41 -23q9 0 19 2q40 10 91 62.5t90 148.5q26 56 26 90q1 16 -5 27q-14 27 -45 27 q-9 0 -19 -2q-45 -10 -100.5 -68t-91.5 -162q-14 -40 -14 -68q-1 -21 8 -34z" />
<glyph unicode="b" horiz-adv-x="405" d="M45 61q-5 23 -5 52q0 43 10 97q18 92 69 208q37 84 89 190.5t110.5 213t119 202.5t113.5 158q49 55 84 83.5t58.5 33t33.5 -11t8 -46.5q-4 -94 -37.5 -186t-82 -179.5t-106.5 -165t-113.5 -140t-100.5 -108.5t-68 -69q-4 -4 -18 -18.5t-30.5 -30.5t-32 -30.5t-21.5 -18.5 q-10 -37 -20.5 -74t-10.5 -80q0 -57 12.5 -82.5t33 -26.5t48 19.5t60.5 54.5q-31 8 -42 33t-10 55.5t10 62.5t21 54q20 39 52 64.5t62 34t51.5 -1t25.5 -35.5v-7q0 -36 -37 -100q-41 -70 -98 -137q13 -2 26 -2q36 1 67 17q42 22 77 65q12 18 19 29.5t22 33.5q2 4 5 2t3 -8 q-8 -14 -17 -26q-6 -10 -13 -21.5t-11 -15.5q-12 -18 -33.5 -39t-49.5 -36t-58.5 -22.5t-61.5 -1.5q-16 -18 -46 -46t-62 -46q-23 -12 -46 -13q-9 0 -17 2q-30 7 -42 60zM133 322q100 94 186.5 189t155 195.5t117.5 209t76 229.5q8 39 8 67q0 8 -1 16q-3 32 -25.5 25.5 t-70 -58.5t-124.5 -169q-14 -23 -40 -72t-57.5 -114.5t-67.5 -142t-71 -154.5q-29 -63 -49 -119.5t-37 -101.5zM222 182q12 -32 30 -43l8 -4q4 -2 8 -2q25 29 45.5 60.5t36 61.5t23.5 54.5t6 40.5q-2 27 -19.5 36t-40 0t-47.5 -35.5t-39 -69.5q-15 -44 -15 -73q0 -15 4 -26z " />
<glyph unicode="c" horiz-adv-x="315" d="M31 88v14q0 31 7 64q9 41 23 72q25 57 81.5 107t127.5 61q8 2 21.5 2t26 -5.5t20.5 -14.5t6 -26q-4 -35 -31.5 -61.5t-50.5 -44.5q4 6 7 13t7 14q2 6 11.5 29.5t11.5 47t-11.5 35t-54.5 -7.5q-43 -18 -82.5 -70.5t-56.5 -111.5q-12 -43 -12 -74v-9q2 -34 12 -53.5 t28.5 -27.5t39.5 -4q37 6 71.5 32.5t65.5 59.5t54.5 65.5t35.5 55.5l-2 -23q-12 -16 -35.5 -53t-58.5 -76t-80 -68.5t-98 -29.5q-43 0 -62.5 25.5t-21.5 62.5z" />
<glyph unicode="d" horiz-adv-x="428" d="M-6 66q0 43 33 122q12 29 37.5 67t59.5 71.5t71.5 57.5t74.5 24q20 0 40 -7.5t32 -25.5q57 150 121.5 288t130 254.5t130.5 208t124 146.5q27 27 47 27.5t30.5 -10.5t13.5 -29.5t-3 -30.5q0 8 -2 14q-4 10 -21 2q-39 -23 -86 -78t-96 -128.5t-98 -158.5t-92 -165 t-77 -150.5t-52 -113.5q-8 -18 -23.5 -58.5t-34 -89.5t-35 -99t-24.5 -85q-8 -30 -8 -49q0 -29 19 -29q5 0 11 2q23 6 50.5 31.5t53 56.5t48.5 63.5t37 55.5l4 -12q-12 -20 -41 -60.5t-63.5 -80.5t-70.5 -69.5t-65 -29.5q-25 0 -31 22.5t-1.5 52t13.5 60.5t13 47 q-18 -43 -53 -81t-72 -63.5t-71.5 -34.5t-54 6.5t-19.5 58.5zM50 64q15 -23 41 -23q9 0 19 2q40 10 91 62.5t90 148.5q19 53 19 86q0 20 -6 34q-14 27 -41 27q-9 1 -21 -3q-43 -12 -96.5 -70t-90.5 -162q-14 -40 -14 -67q0 -21 9 -35z" />
<glyph unicode="e" horiz-adv-x="301" d="M17 130q3 44 32 108q23 51 70 98t104 63q22 6 42 6t39 -6q36 -11 36 -44q0 -38 -62 -95q-60 -55 -210 -129q0 -5 -1 -10q0 -37 14 -55q15 -20 32 -25q20 -8 45 -4q31 6 62.5 29.5t60 54.5t53 64.5t43.5 64.5l-2 -23q-6 -6 -28.5 -43t-59.5 -77.5t-84 -73.5t-101 -33h-10 q-18 2 -36 16t-30 42q-9 23 -10 54q0 9 1 18zM68 147q104 45 155 94.5t63.5 87.5t-6 57t-55.5 5q-53 -23 -84.5 -62.5t-47 -80.5t-20.5 -71z" />
<glyph unicode="f" horiz-adv-x="229" d="M-719 -786q6 94 45 185t105.5 174t154.5 153.5t193 123.5q31 16 81 41t97 48q18 74 45 149.5t57 161.5q14 39 44 107.5t69 151.5t86 175t97.5 180t100.5 165t97 130q49 55 84 84t58.5 34t33.5 -10.5t8 -45.5q-6 -94 -38.5 -186.5t-82 -179.5t-107.5 -166t-112.5 -142.5 t-99.5 -108.5t-68 -67q-18 -18 -34 -33q-14 -14 -28.5 -26.5t-19.5 -18.5q-2 -2 -15.5 -16.5t-29.5 -26.5q-29 -66 -44 -136.5t-38 -142.5q86 37 155 110t122 152v-18q-8 -12 -33.5 -47t-62.5 -76t-85 -79t-102 -58q-29 -86 -72.5 -186.5t-99 -196.5t-119 -183t-131.5 -147 q-51 -49 -108 -88t-104 -50q-14 -4 -27 -4q-28 0 -47 16q-25 21 -25 81v17zM-641 -813q2 -31 33 -32h2q30 0 70 19q42 21 90.5 60t85.5 86q2 4 41.5 54.5t90 132t101.5 188t78 225.5q-10 -4 -27 -12q-57 -25 -106 -53.5t-101 -63.5q-45 -31 -111.5 -90t-125 -139t-96.5 -176 q-28 -72 -28 -149q0 -25 3 -50zM109 274q106 98 196 196.5t162 202t123 214t78 235.5q10 41 10 70q0 7 -1 14q-3 33 -25.5 27t-69.5 -59.5t-125 -169.5q-12 -18 -35 -60.5t-49.5 -97.5t-57 -118.5t-59.5 -127.5q-68 -150 -147 -326z" />
<glyph unicode="g" horiz-adv-x="391" d="M-526 -815q6 94 54 200.5t124 207t173 185.5t202 138q33 16 82 41t96 49l5 16q5 17 12 39.5t15.5 49t14.5 45.5q-23 -39 -56.5 -74t-69.5 -56.5t-67.5 -27.5t-50 10.5t-16.5 59.5t33 118q14 33 37.5 67t51 61.5t57.5 49t56 33.5q27 10 56.5 6t52.5 -26q20 27 34.5 26.5 t21.5 -14.5t7 -36.5t-6 -37.5q-2 12 -6 21q-8 16 -22 0q-43 -66 -60.5 -150t-42.5 -161q45 27 90 67q35 35 64 73.5t47 67.5v-18q-20 -31 -41 -59.5t-47 -57.5q-23 -23 -52.5 -47t-64.5 -45q-25 -94 -68 -187t-92 -178t-101 -160t-96 -132.5t-76 -93t-40 -41.5 q-51 -49 -108.5 -87t-103.5 -51q-16 -4 -30 -4q-26 0 -45 16q-24 20 -24 80v17zM-451 -840q4 -31 34 -32h1q30 0 72 20q43 21 90 59.5t86 85.5q6 8 45 55.5t91 126.5t106.5 184t93.5 232q4 12 15.5 47t15.5 50q-57 -29 -114.5 -58.5t-119.5 -70.5q-31 -20 -75 -61.5 t-93 -95.5t-97 -119.5t-84 -136.5t-56 -144q-13 -51 -13 -101q0 -21 2 -41zM46 64q15 -31 51 -26t83 47t88 122q12 35 23.5 67.5t19.5 55.5v6q0 46 -27 56q-10 4 -20 4q-23 0 -51 -16q-41 -24 -86 -79t-74 -139q-14 -39 -14 -67q0 -18 7 -31z" />
<glyph unicode="h" horiz-adv-x="405" d="M-22 14.5q6 26.5 18 70.5t29.5 95t33.5 92q14 39 44 106.5t69 150.5t86 176.5t97.5 181.5t100.5 164.5t97 130.5q49 55 84 83.5t58.5 33t33.5 -11t8 -46.5q-6 -94 -38.5 -186t-82 -179.5t-107.5 -165t-112.5 -141t-99.5 -108.5l-68 -68l-34 -35q-14 -14 -28.5 -26.5 t-19.5 -18.5q16 14 46 39t63 45.5t63.5 30.5t49.5 -2q20 -12 6.5 -58t-38 -103.5t-48 -114t-23.5 -93.5q0 -35 29 -17.5t65.5 57.5t71.5 85t47 68v-19q-12 -23 -41.5 -62.5t-65.5 -78.5q-36 -38 -74 -66q-35 -26 -61 -26h-4q-14 4 -20 15.5t0 45.5q6 33 28.5 87.5t44 107.5 t32 94t-10.5 49q-10 4 -35.5 -10t-56.5 -35.5t-59.5 -46t-46.5 -43.5q-12 -16 -31 -55t-38.5 -82t-35.5 -80t-24 -47t-2 16.5zM109 297q104 98 195 195.5t163 201t123 215t78 236.5q10 41 10 69q0 7 -1 14q-3 32 -25.5 25.5t-69.5 -58.5t-125 -169q-12 -18 -35 -60 t-49.5 -97.5t-57 -119t-59.5 -126.5q-68 -150 -147 -326z" />
<glyph unicode="i" horiz-adv-x="198" d="M4 28q-2 9 -2 21q0 28 10 76q4 23 15 57q10 29 25.5 73t43.5 103q25 45 42.5 52.5t27.5 -4t13 -34t-3 -34.5q-2 8 -4 14q-4 4 -7 6t-11 -4q-23 -18 -39.5 -55t-28.5 -75t-19.5 -67.5t-7.5 -33.5q-8 -47 0.5 -58.5t28.5 -5.5q25 8 50.5 32t50 51.5t45 56t32.5 51.5v-19 q-16 -29 -44.5 -65.5t-63.5 -73.5q-74 -84 -125 -90q-23 -2 -29 26zM153 532.5q-1 12.5 6 24.5t18 20.5t22 6.5q8 -2 13 -14.5t3 -27t-12.5 -23.5t-30.5 -3q-18 4 -19 16.5z" />
<glyph unicode="j" horiz-adv-x="266" d="M-651 -815q6 94 54 199.5t124 206t174 185.5t203 138q31 16 80 42t96 48q2 0 6 14.5t10 36.5q10 35 22.5 77t28 85t32 83t32.5 71q-29 -16 -56.5 -45t-50.5 -58q-25 -35 -49 -71l-8 6q2 2 18.5 28.5t43 60.5t59.5 66.5t68 44.5q16 6 26 -2t14.5 -22t3.5 -31.5t-6 -30.5 q-4 10 -8 19q-4 6 -9 8t-11 -8q-45 -70 -63.5 -152t-43.5 -159q63 39 110.5 91t88.5 117v-18q-18 -29 -35.5 -54.5t-40 -50t-53.5 -50t-76 -54.5q-27 -92 -77 -198.5t-113.5 -213t-137 -206t-145.5 -174.5q-51 -49 -108.5 -88t-103.5 -50q-15 -4 -28 -4q-27 0 -46 16 q-25 20 -25 80v17zM-573 -842q2 -31 33 -32h1q30 0 71 20q42 20 89 59t86 86q127 156 218 327t149 368q-6 -4 -13.5 -6.5t-13.5 -6.5q-57 -25 -106.5 -53.5t-100.5 -62.5q-31 -20 -75 -61.5t-93 -95.5t-96 -119.5t-83 -136.5t-55 -144q-14 -49 -14 -98q0 -22 3 -44z M257 526.5q-1 12.5 6 24.5t18.5 21.5t21.5 7.5q8 -2 13.5 -15.5t3 -28t-13 -23.5t-30.5 -3q-18 4 -19 16.5z" />
<glyph unicode="k" horiz-adv-x="370" d="M-12 14.5q6 26.5 18 70.5t29.5 95t34.5 92q14 39 43.5 106.5t68.5 150.5t86 176.5t97.5 181.5t100.5 164.5t97 130.5q49 55 84 83.5t58.5 33t34 -11t8.5 -46.5q-6 -127 -63.5 -253t-133.5 -235.5t-154 -195.5t-127 -133q42 21 67 21q5 -1 9 -1q27 -4 33 -24.5t-7.5 -51 t-44 -62.5t-78.5 -58.5t-112 -34.5q0 -18 11.5 -49t30 -59.5t42 -46t47.5 -11.5q23 12 48.5 35.5t49 52.5t44 59.5t36.5 55.5l-6 -29q-37 -57 -80 -112.5t-100 -96.5q-23 -15 -42 -15q-14 0 -28 9q-30 21 -48.5 60.5t-28 81.5t-11.5 59q-2 0 -6 -1t-8 -1 q-14 -29 -28.5 -61.5t-29 -62.5t-24.5 -52.5t-16 -30.5q-8 -10 -2 16.5zM98 217q147 23 205 83q37 38 37 73q0 20 -12 39q-6 10 -30 8t-71 -41q-37 -29 -75.5 -71t-53.5 -91zM119 297q104 98 195.5 195.5t163 201t122.5 215t78 236.5q10 41 10 69q0 7 -1 14 q-3 32 -25.5 25.5t-69.5 -58.5t-125 -169q-12 -18 -34.5 -60t-49.5 -97.5t-57.5 -119t-59.5 -126.5q-68 -150 -147 -326z" />
<glyph unicode="l" horiz-adv-x="319" d="M35 131q4 35 19.5 90t62.5 158q37 82 90 193.5t113.5 224t125 215t121.5 170.5q49 55 84 83.5t58.5 33t34 -11t8.5 -46.5q-6 -94 -39 -186t-82 -179.5t-107.5 -165t-113 -141t-99.5 -108.5t-67 -68q-33 -31 -63.5 -61.5t-65.5 -61.5q-12 -35 -17.5 -61.5t-9.5 -44.5 q-4 -23 -2 -39q0 -39 20 -71q15 -23 44 -22q11 0 24 3q35 8 66.5 32.5t59.5 56.5t52.5 66.5t42.5 65.5v-18q-6 -8 -29.5 -45t-60.5 -79t-85 -76t-101 -34q-47 0 -69 40q-17 30 -17 63q0 12 2 24zM123 297q104 98 195.5 195.5t163 201t122.5 215t78 236.5q10 41 10 69 q0 7 -1 14q-3 32 -25.5 25.5t-69.5 -58.5t-125 -169q-12 -18 -34.5 -60t-49.5 -97.5t-57.5 -119t-59.5 -126.5q-68 -150 -147 -326z" />
<glyph unicode="m" horiz-adv-x="620" d="M-17 15.5q5 25.5 17 68.5t28.5 94t30.5 92q10 27 15.5 41.5t17.5 44.5q4 10 -1 13.5t-11 1.5q-8 -2 -19 -6q44 39 62 39t18 -20q0 -19 -11 -49t-19 -48q18 18 51 41.5t66.5 44t63.5 29t42 -4.5q12 -12 11 -41.5t-11 -66.5q18 18 49 41.5t63.5 43t60.5 28t40 -4.5 q14 -14 8 -47t-19.5 -75t-31 -89t-25.5 -88q-10 -45 -1 -57t27.5 -3t45.5 34.5t53.5 56.5t49 62.5t34.5 52.5l2 -17q-16 -25 -40.5 -58.5t-54.5 -67t-63.5 -61.5t-66.5 -40q-33 -8 -40 12.5t-1 50.5q6 33 24.5 82.5t34 96.5t20.5 83.5t-11 47.5q-10 2 -34 -8.5t-50.5 -29 t-49 -40t-32.5 -37.5t-27.5 -56t-36 -83t-34 -78t-19.5 -41q-6 -10 -4 7.5t10 50t21.5 77.5t29.5 92q24 71 24 104q0 35 -11 42q-12 4 -38 -7.5t-54.5 -32t-54.5 -44t-38 -43.5t-28.5 -58t-33 -78t-28.5 -72t-18 -38q-8 -10 -3 15.5z" />
<glyph unicode="n" horiz-adv-x="419" d="M-5 15.5q5 25.5 16.5 68.5t27.5 94t33 92q4 12 11 27.5t11 28.5q6 14 10 30q4 10 -1 14.5t-11 2.5q-8 -2 -18 -8q44 37 61 37h3q16 -2 15 -23t-12.5 -50.5t-19.5 -47.5q8 12 38.5 36.5t67.5 47t71 35t46 -0.5q14 -14 11 -44.5t-13 -69.5t-25.5 -83t-27.5 -87 q-7 -29 -7 -46q0 -11 3 -17q8 -14 26.5 -6.5t45 34t52 57.5t48 62.5t32.5 50.5l-2 -23q-14 -23 -38.5 -58.5t-55.5 -71.5t-63.5 -63.5t-61.5 -33.5q-31 -6 -41 13.5t-6 49.5q6 33 23.5 83.5t34 97.5t22.5 84t-12 45q-12 2 -40 -13.5t-57.5 -38t-54 -45t-31.5 -30.5 q-12 -20 -28.5 -58t-31.5 -78t-28.5 -72t-19.5 -38q-8 -10 -3 15.5z" />
<glyph unicode="o" horiz-adv-x="333" d="M-6 78q0 35 11 73.5t24 65.5q41 78 112 137q16 14 43 28.5t54.5 22t53 1t40.5 -32.5q12 -23 11 -53.5t-11 -63.5t-25.5 -62.5t-30.5 -52.5q23 6 39.5 14.5t31.5 20.5t31 32.5t34 51.5q4 6 8 2t0 -8q-14 -23 -27.5 -43.5t-30 -35.5t-40 -27.5t-56.5 -20.5q-35 -45 -80 -84 t-110 -43q-7 -1 -13 -1q-35 1 -51 21q-18 24 -18 58zM52 50q5 -36 42 -37q2 0 4 1q45 4 77 37t54 70q-41 0 -64.5 15.5t-34.5 42t-10 59t11 67.5q-16 -23 -37.5 -71t-33.5 -97q-9 -35 -9 -64q0 -12 1 -23zM140 247q-2 -12 -2 -23q0 -30 14 -56q18 -35 75 -35h9 q27 49 43 98.5t20 69.5q3 19 3 34q0 35 -16 47q-13 10 -30 10q-15 0 -33 -7q-29 -12 -52.5 -53t-30.5 -85z" />
<glyph unicode="p" horiz-adv-x="385" d="M-548 -857.5q-5 23.5 5 46.5q0 -14 4 -23q8 -20 35 -4q59 39 122 125t121 195.5t112.5 233.5t98.5 238t76.5 210t49.5 149q4 10 7 27.5t-3 28.5q-4 6 -14.5 4t-16.5 -6q35 35 52.5 41t23.5 -5.5t1 -37t-15 -56.5q12 16 42.5 41t66.5 41.5t71 16.5t57 -33q18 -28 18 -60 q0 -33 -14 -67q-12 -33 -30.5 -63.5t-36.5 -53.5h8q37 0 75 16q42 18 83 86q4 4 8 3.5t0 -9.5q-47 -78 -107 -98q-26 -9 -56 -9q-10 0 -20 1q-29 -39 -66.5 -72t-86.5 -45q-23 -4 -48.5 2t-27.5 31q-2 29 19.5 48t52.5 30.5t67 15.5q23 3 44 3q10 0 20 -1q2 0 4 2 q25 47 42 97.5t21 70.5q2 15 2 27q0 35 -13 50q-17 19 -46 12t-60.5 -31.5t-52.5 -55.5q-27 -35 -52 -89t-46 -107q-25 -61 -47 -129q-18 -47 -45 -116t-59.5 -147.5t-70.5 -162.5t-79 -161t-83 -142.5t-83 -106.5q-37 -37 -63.5 -42t-44 6t-22.5 34.5zM91 34.5 q11 -14.5 42 -12.5t68 37q25 20 47 64q-23 2 -43.5 2t-42.5 -8q-53 -20 -67.5 -44t-3.5 -38.5z" />
<glyph unicode="q" horiz-adv-x="436" d="M-190 -819q2 33 22.5 90t52 130t71.5 153.5t81 161.5t79 156t66 134q10 23 21 45l21.5 43t21.5 45q-37 -55 -92.5 -96t-98.5 -45h-7q-37 0 -50 38q-3 10 -3 24q0 44 34 128q14 33 37.5 67t51 62.5t57.5 50t58 31.5q29 10 60 7t53 -33q20 33 36.5 36t26 -9.5t11.5 -34 t-4 -33.5q-2 8 -4 14q-4 4 -7.5 7t-11.5 -3q-23 -18 -39 -55t-28.5 -75t-19.5 -68.5t-7 -34.5q-10 -47 -4 -62.5t27 -11.5q25 6 51 30.5t52 55.5t47.5 63t33.5 52l-2 -23q-14 -23 -41 -60.5t-59.5 -73.5t-66.5 -62.5t-65 -26.5q-20 -2 -28 18q-4 9 -4 25.5t4 40.5 q-37 -76 -80 -167t-87 -187.5t-84 -190.5t-67.5 -173t-41.5 -135q-9 -33 -9 -55q0 -15 4 -24q6 -16 14.5 -20t16.5 -2t16 10q-10 -23 -30.5 -32t-40 -5t-34 23.5t-11.5 56.5zM52 62q15 -23 40 -23q9 0 20 3q40 11 91 63.5t90 148.5q23 54 23 87q0 18 -6 30q-14 26 -41 26 q-10 0 -21 -3q-43 -13 -97.5 -70.5t-93.5 -159.5q-14 -40 -14 -67q0 -22 9 -35z" />
<glyph unicode="r" horiz-adv-x="301" d="M43 209l13 19q12 18 26 41.5t27.5 46t17.5 32.5q-49 25 -49 56.5t18 49.5q20 19 42 12q19 -6 19 -44q0 -7 -1 -14q-2 -16 -6.5 -32t-8.5 -22q14 -8 35 -15t37 -15q18 -8 24.5 -19.5t5.5 -24t-6.5 -23.5l-9.5 -19q-18 -35 -32.5 -73t-26.5 -79q-12 -55 6.5 -55t51 29.5 t72.5 78.5t69 94l4 -12q-16 -25 -45 -62.5t-62 -74.5t-66.5 -62.5t-60.5 -25.5q-16 0 -26.5 14.5t-1.5 48.5q10 45 28.5 87t42.5 90q8 18 13.5 41.5t-15.5 39.5q-4 4 -21.5 16.5t-19.5 10.5q-6 -14 -20.5 -37.5t-28.5 -46.5q-18 -27 -37 -57q-4 -4 -7 -1t-1 7zM108.5 381.5 q4.5 -17.5 22.5 -23.5q8 14 13.5 33t-1.5 35q-10 14 -20 8t-14.5 -20.5t0 -32z" />
<glyph unicode="s" horiz-adv-x="251" d="M41 201q12 14 25 35q10 16 22 37.5t27 43.5v5q-4 20 -4 38q0 31 11 57q17 42 40 58q16 12 20 -10q4 -29 -10 -57.5t-31 -63.5q2 -29 13.5 -53.5t25 -49t24.5 -50t13 -54.5q60 18 107 96q2 0 6 -4l2 -2q-27 -43 -54.5 -67.5t-62.5 -36.5q-8 -55 -35.5 -85t-57.5 -38 t-53.5 1t-19.5 32q4 31 33 57.5t88 38.5q0 18 -6 42t-14.5 48.5t-17.5 47t-13 36.5q-14 -23 -25.5 -41t-21.5 -35q-10 -18 -23 -32zM93.5 50q3.5 -9 19.5 -9q33 4 42 26.5t13 49.5q-27 -6 -44.5 -18.5t-25.5 -26t-4.5 -22.5zM141 369q10 18 18.5 37.5t10.5 42.5q2 20 -3 19 t-11 -15.5t-10.5 -37t-4.5 -46.5z" />
<glyph unicode="t" horiz-adv-x="200" d="M-379 532q14 4 26.5 9.5t24.5 9.5q281 86 570 117q35 74 77.5 156.5t93 164.5t108 157t120.5 134q27 27 46.5 28t30.5 -10.5t13 -30t-4 -30.5q0 8 -2 14q-4 12 -20 4q-59 -37 -119 -106.5t-113 -152.5t-99 -169t-81 -155q23 0 47.5 1t71.5 3q29 1 57 1q57 0 114 -3 q85 -4 172 -10q87 -4 174 -6q14 0 27 -1q73 0 148 7q94 6 180 43.5t158 99.5q-49 -63 -110.5 -100t-132.5 -56.5t-149 -24.5q-43 -3 -86 -3q-35 0 -71 2q-92 4 -185.5 12t-195.5 8h-115.5t-117.5 -2q-4 -10 -10.5 -18.5t-10.5 -18.5q-35 -68 -65.5 -136.5t-59.5 -139.5 q-6 -12 -18.5 -48t-25.5 -79t-21.5 -83t-3 -60.5t27 -15.5t68.5 56q35 35 64.5 76t49.5 74v-19q-16 -27 -45.5 -66.5t-64.5 -76.5q-31 -35 -62.5 -61.5t-53.5 -29.5q-20 -3 -28 23q-2 8 -3 19q0 28 12 78q29 135 83 264t117 260q-6 0 -12 -1t-12 -1q-145 -10 -286.5 -37 t-297.5 -70z" />
<glyph unicode="u" horiz-adv-x="423" d="M-13.5 41q1.5 35 15.5 78t34.5 85t31.5 64q10 23 25.5 51.5t17.5 38.5t-3.5 13.5t-11.5 1.5q-8 -2 -18 -6q44 37 63 37t20 -20q1 -19 -10.5 -49t-21.5 -50q-49 -98 -71 -163q-11 -32 -11 -53t12 -30q10 -10 41 14.5t66 62.5t67.5 77.5t47.5 60.5q10 23 19 48.5t24 53.5 q23 45 40 52.5t28 -5t14.5 -35t-3.5 -34.5q-2 8 -4 14q-4 4 -7 6t-11 -4q-23 -18 -39 -55t-28.5 -75t-19.5 -67.5t-9 -33.5q-6 -28 -7 -45q0 -31 20 -31q5 0 11 2q23 6 41.5 25.5t34.5 35.5q31 33 62.5 74t48.5 70l-2 -23q-16 -29 -45 -65.5t-64 -73.5q-35 -39 -68.5 -66.5 t-56.5 -23.5q-23 -2 -31 26q-3 9 -3 21q0 28 12 76l6 24q6 25 24 74q-23 -29 -55.5 -69.5t-66.5 -76.5q-35 -37 -70 -59q-28 -18 -50 -17q-6 0 -12 1q-29 8 -27.5 43z" />
<glyph unicode="v" horiz-adv-x="374" d="M13.5 58.5q0.5 27.5 6.5 56.5q4 18 16.5 54t25 77t20.5 76.5t4 54.5q-2 8 -14.5 5t-16.5 -7q12 23 38 37t38 4q8 -6 1 -40t-18.5 -72t-23.5 -72.5t-14 -45.5q-6 -25 -12.5 -50t-2.5 -52q2 -25 9.5 -39t7.5 -16q39 16 74.5 42.5t66.5 59.5q-29 12 -40 34.5t-11 50.5 t9 55.5t22 52.5q18 35 49 57t60.5 29.5t51.5 -0.5q25 -9 25 -39q0 -37 -35 -93q-37 -60 -98 -124q18 -6 39 -6q13 0 27 2q36 6 57 16q14 10 23.5 16t18.5 16.5t19.5 25.5t28.5 44q4 6 8 3t0 -9q-37 -72 -96 -108q-50 -28 -110 -28q-19 0 -40 3q-51 -53 -103 -90t-89 -41 q-6 0 -8 4q-14 29 -13.5 56.5zM187 224q6 -24 18 -42q14 -18 35 -26q48 57 72 108q22 47 22 79v5q-2 27 -19.5 36t-41 2t-46 -31.5t-34.5 -65.5q-8 -27 -8 -47q0 -10 2 -18z" />
<glyph unicode="w" horiz-adv-x="583" d="M21 56.5q2 29.5 8 58.5q20 84 49 174q4 12 9 31.5t6 36t-5 24.5t-22 -4q16 16 43 33q6 4 15 7t15 -3q8 -8 1 -40t-18 -70t-23.5 -72.5t-14.5 -47.5q-10 -38 -16 -78q-1 -8 -1 -16q0 -31 19 -61q27 2 53.5 24.5t50 56t43 73.5t33.5 77q0 2 9.5 26.5t15.5 50t2 41t-31 -2.5 q2 0 14.5 13t30.5 24q6 4 15.5 7t15.5 -3q12 -14 3 -40t-13 -42q-10 -31 -26 -69q-14 -38 -24 -78q-11 -44 -11 -84q0 -37 16 -72q37 16 73.5 42.5t67.5 59.5q-31 12 -42 36t-10 50.5t10 54t21 50.5q18 35 49 57t62 31q32 8 54 -2q25 -10 24 -39q0 -37 -35 -93 q-37 -60 -98 -124q26 -8 50 -8q38 0 71 20q53 32 88 104q4 4 8 1t0 -7q-16 -29 -32.5 -53.5t-39.5 -42.5q-53 -43 -126 -43q-21 0 -44 4q-8 -8 -37.5 -33.5t-63.5 -50.5t-63.5 -40t-38.5 -3q-17 23 -17 52q0 11 2 22q8 43 20 78q-18 -39 -52 -74t-73 -60q-4 -2 -15.5 -7 t-24 -10t-22.5 -6t-14 5q-16 25 -14 54.5zM393 226q6 -24 19 -42q14 -18 34 -26q49 55 73 106q22 47 22 81v5q-2 27 -20.5 35t-41 1t-46.5 -31.5t-34 -63.5q-8 -27 -8 -47q0 -10 2 -18z" />
<glyph unicode="x" horiz-adv-x="421" d="M-16 30.5q0 14.5 9 31t32 32.5q-4 -10 -4.5 -23.5t8.5 -23.5q18 -23 44.5 -5.5t53.5 49.5t48.5 65.5t27.5 46.5q-4 33 -8.5 63.5t-16.5 65.5q-6 18 -20.5 8t-31.5 -32.5t-34.5 -51.5t-30.5 -47l-4 12q23 37 43 72q16 29 35 56.5t29 37.5q23 25 36 12.5t21 -40t10 -60.5 t5 -45q10 14 15 23.5t7 11.5q14 20 33.5 45.5t44 47t53.5 33t60 1.5q-2 0 -18.5 -20.5t-22.5 -22.5q-6 -4 -14.5 -1t-16.5 3q-12 0 -29.5 -13.5t-37 -35t-38 -47t-34.5 -48.5q4 -35 8 -67.5t14 -71.5q8 -37 28.5 -42t45 9.5t51.5 42t50.5 57t41 55.5t23.5 36l4 -12 q-29 -49 -67 -92.5t-79 -88.5q-49 -53 -77.5 -55t-43 23.5t-20.5 70.5t-12 88q-16 -27 -41 -59.5t-52.5 -62t-55 -49t-48.5 -17.5q-10 0 -17 10t-7 24.5z" />
<glyph unicode="y" horiz-adv-x="393" d="M-528 -815q6 94 53 199.5t124 206t174 185.5t202 138q31 16 81 42t97 48q4 4 14 35t20.5 67.5t19.5 70.5t13 44q-23 -29 -57.5 -69.5t-72.5 -77.5t-71.5 -60.5t-52.5 -13.5q-27 8 -24.5 44t17 80t33.5 86t28 60q10 20 25.5 50t17.5 40t-3.5 13.5t-11.5 1.5q-8 -2 -18 -6 q43 36 61 36q1 0 1 -1q18 -1 18 -21.5t-10.5 -49t-18.5 -48.5q-43 -100 -67 -163q-13 -33 -13 -54q0 -18 10 -27q18 -4 49 21.5t65 61.5t63.5 74t44.5 58q10 29 21 55.5t24 50.5q18 35 33.5 38t24.5 -10t12 -35.5t-3 -37.5q-8 37 -22.5 22t-24.5 -44q-27 -66 -48 -134.5 t-40 -135.5q66 35 115 94t90 125l2 -17q-39 -57 -84 -118.5t-127 -102.5q-25 -94 -65.5 -185t-88 -174t-97.5 -156t-95 -129t-79 -95t-48 -53q-55 -51 -111.5 -90t-102.5 -50q-15 -4 -28 -4q-27 0 -45 16q-25 22 -25 81q0 9 1 18zM-453 -842q4 -31 34 -32h1q30 0 72 20 q43 20 90 59t84 86q6 8 46 55.5t91 126t106.5 184t92.5 232.5q2 6 7 20.5t9 29t9.5 28t7.5 19.5q-8 -4 -14.5 -6.5t-14.5 -6.5q-55 -25 -104.5 -53.5t-100.5 -62.5q-45 -31 -120.5 -105t-145.5 -171t-116 -207q-36 -88 -36 -172q0 -22 2 -44z" />
<glyph unicode="z" horiz-adv-x="417" d="M-500 -815q6 94 54.5 199.5t124 206t173 185.5t201.5 138q33 16 86.5 43t100.5 51q-2 6 -9 15q-4 6 -10 14t-14 14q-63 -51 -101 -59t-53.5 7t-9.5 44t30.5 51.5t65.5 27.5q6 1 12 1q37 0 85 -27q16 16 28 35q27 41 45.5 82t26.5 75t4 58.5t-23 32.5q-22 7 -41.5 7 t-37.5 -7q-36 -14 -68.5 -43t-61 -68t-53.5 -73l-8 6q55 84 105 134q49 49 91 71q38 20 70 20h5q34 -2 59 -20q24 -20 24 -59q-1 -17 -5 -39q-16 -68 -66 -140q-16 -25 -37 -45.5t-43 -40.5q20 -16 28.5 -36.5t8.5 -25.5q66 39 115 96.5t92 127.5l4 -13 q-37 -59 -90.5 -120.5t-118.5 -102.5q5 -22 5 -46q0 -50 -20 -106q-28 -84 -79.5 -170.5t-116 -169.5t-121.5 -149.5t-99 -107.5t-46 -45q-51 -49 -108 -88q-58 -38 -104 -50q-15 -4 -28 -4q-27 0 -47 16q-25 21 -25 80v17zM-424 -842q2 -32 32 -32q1 0 1 1q30 0 72 19 q43 20 91 59t87 86q8 10 44 51.5t84 102.5t100 136t92 149q41 75 61 145q12 39 11 73q0 26 -7 48q-8 -4 -23.5 -11.5t-21.5 -11.5q-57 -25 -106.5 -53.5t-100.5 -62.5q-45 -31 -119 -100.5t-142.5 -164t-115.5 -206.5q-40 -96 -40 -195q0 -16 1 -33zM50 46.5 q-1 -19.5 14.5 -29t47 0t78.5 50.5q-44 27 -74 27l-2 -1q-30 0 -46.5 -14t-17.5 -33.5z" />
<glyph unicode="|" horiz-adv-x="1046" d="M491.5 310.5q-8.5 176.5 10 357t57.5 352.5t92 313q-31 -166 -57.5 -337t-44 -343t-20.5 -342t14 -331q-43 154 -51.5 330.5z" />
<glyph unicode="&#xa1;" horiz-adv-x="946" d="M348 78q4 31 14.5 92t39 158.5t79.5 233.5t135 315q37 78 82 144t97 122q-82 -96 -140.5 -221t-105.5 -254q-39 -113 -68.5 -218.5t-48 -189.5t-27 -139t-4.5 -66q8 -23 27 -18q8 2 18 8q-8 -16 -25.5 -31.5t-34.5 -16.5t-29.5 15.5t-8.5 65.5zM879 1290.5 q-2 14.5 1 28.5t13 21.5t27 -1.5q18 -12 19 -26.5t-7 -25.5t-21.5 -17t-21.5 0t-10 20.5z" />
<glyph unicode="&#xad;" horiz-adv-x="837" d="M203 195q51 35 112.5 53t125 22t126 -3t117.5 -21q-61 -6 -123.5 -9.5t-126.5 -7.5q-59 -4 -116.5 -9t-114.5 -25z" />
<glyph unicode="&#xbf;" horiz-adv-x="1243" d="M381 262q4 47 23.5 86t48.5 76q72 90 149.5 170t161.5 158q37 37 73.5 75.5t67.5 81.5q35 47 59.5 97.5t45.5 105.5q2 0 3 -1t3 -1q-33 -94 -85 -177t-124 -161q-37 -41 -74 -83t-74 -85q-27 -33 -62.5 -74t-70 -85t-63.5 -90t-41 -87q-12 -53 0 -106t53 -90 q39 -37 85 -43t92 7t89 40.5t78 56.5q70 59 121 141t57 175q4 45 -14 87t-72 44q-18 0 -46.5 -10.5t-55.5 -26t-44 -32.5t-17 -34q0 -8 7 -12t16 -6t17.5 -1t10.5 1q-25 -16 -46.5 -19.5t-31.5 0.5q-29 12 -16.5 38t46 51.5t80 43t89.5 15.5q27 -2 46 -16.5t30.5 -36 t15.5 -46t4 -47.5q-4 -104 -60.5 -202.5t-144.5 -167.5q-35 -25 -75 -42.5t-85 -21.5q-53 -4 -103 11.5t-89 52.5q-41 35 -61.5 86t-16.5 104zM1014 1369q0 15 10 25.5t33 8.5q18 -4 21 -16.5t-3 -26.5t-17.5 -24.5t-21.5 -10.5q-10 2 -16 15.5t-6 28.5z" />
<glyph unicode="&#xc0;" horiz-adv-x="1472" d="M-3 -74.5q-3 80.5 20.5 162.5t65.5 156.5t89 134.5q70 84 156 150.5t184 113.5q133 59 282.5 83t303.5 7q55 80 108.5 162t111.5 163t122.5 156.5t142.5 141.5q27 27 72 65.5t95 75.5t101.5 67.5t92.5 43.5q35 10 45 -12.5t-2 -51.5q-10 -25 -24.5 -38t-31.5 -25 q14 14 16.5 30.5t-6 26.5t-28 12t-47.5 -12q-100 -49 -182 -144.5t-145.5 -212t-109 -241.5t-71.5 -235q33 -6 71.5 -7.5t76.5 6t70 22.5t50 44q-20 -47 -53 -68.5t-72 -27.5t-78 -2t-69 10q-23 -123 -32 -251t7 -263q10 -94 39 -191.5t80 -181.5t126.5 -144.5t184.5 -78.5 q111 -16 215.5 14.5t201.5 87t186 129t169 142.5q-55 -53 -123.5 -112.5t-146.5 -114t-163 -96.5t-173 -61.5t-175 -10t-171 60.5q-80 51 -136.5 127t-93 167t-55 193.5t-23.5 206t1 203.5t20 186q-29 4 -73.5 10.5t-65.5 8.5q-25 -47 -48.5 -89t-49.5 -87 q-41 -72 -91.5 -161t-111.5 -180.5t-132 -178.5t-153 -157.5t-172 -115.5t-190 -53q-51 -4 -94 19.5t-70 66.5q-41 68 -44 148.5zM61 -59.5q-2 -57.5 12.5 -105.5t53.5 -79q55 -43 125 -35.5t137.5 41t125.5 81.5t93 87q78 86 137.5 178.5t114.5 190.5q59 104 115.5 209.5 t118.5 210.5q-145 14 -287.5 -3.5t-276.5 -82.5q-98 -47 -180 -117t-143 -160q-20 -29 -45 -76t-46.5 -103t-37 -117.5t-17.5 -119zM1163 727q35 -4 66 -8t65 -10q20 96 51 191t74 187q47 92 106.5 177.5t135.5 154.5q-86 -68 -154.5 -149.5t-127 -170.5t-112 -183.5 t-104.5 -188.5zM1829 1833q8 14 20.5 11t25.5 -14t27.5 -25.5t26.5 -22.5q29 -18 58.5 -35t64.5 -27q-12 0 -52 10.5t-82 26t-71.5 34.5t-17.5 42z" />
<glyph unicode="&#xc1;" horiz-adv-x="1472" d="M-3 -74.5q-3 80.5 20.5 162.5t65.5 156.5t89 134.5q70 84 156 150.5t184 113.5q133 59 282.5 83t303.5 7q55 80 108.5 162t111.5 163t122.5 156.5t142.5 141.5q27 27 72 65.5t95 75.5t101.5 67.5t92.5 43.5q35 10 45 -12.5t-2 -51.5q-10 -25 -24.5 -38t-31.5 -25 q14 14 16.5 30.5t-6 26.5t-28 12t-47.5 -12q-100 -49 -182 -144.5t-145.5 -212t-109 -241.5t-71.5 -235q33 -6 71.5 -7.5t76.5 6t70 22.5t50 44q-20 -47 -53 -68.5t-72 -27.5t-78 -2t-69 10q-23 -123 -32 -251t7 -263q10 -94 39 -191.5t80 -181.5t126.5 -144.5t184.5 -78.5 q111 -16 215.5 14.5t201.5 87t186 129t169 142.5q-55 -53 -123.5 -112.5t-146.5 -114t-163 -96.5t-173 -61.5t-175 -10t-171 60.5q-80 51 -136.5 127t-93 167t-55 193.5t-23.5 206t1 203.5t20 186q-29 4 -73.5 10.5t-65.5 8.5q-25 -47 -48.5 -89t-49.5 -87 q-41 -72 -91.5 -161t-111.5 -180.5t-132 -178.5t-153 -157.5t-172 -115.5t-190 -53q-51 -4 -94 19.5t-70 66.5q-41 68 -44 148.5zM61 -59.5q-2 -57.5 12.5 -105.5t53.5 -79q55 -43 125 -35.5t137.5 41t125.5 81.5t93 87q78 86 137.5 178.5t114.5 190.5q59 104 115.5 209.5 t118.5 210.5q-145 14 -287.5 -3.5t-276.5 -82.5q-98 -47 -180 -117t-143 -160q-20 -29 -45 -76t-46.5 -103t-37 -117.5t-17.5 -119zM1163 727q35 -4 66 -8t65 -10q20 96 51 191t74 187q47 92 106.5 177.5t135.5 154.5q-86 -68 -154.5 -149.5t-127 -170.5t-112 -183.5 t-104.5 -188.5zM1901 1720q35 10 64.5 25.5t57.5 36.5q35 27 56 51q10 10 22.5 13t22.5 -11q8 -12 1.5 -22.5t-16.5 -16.5q-18 -12 -36.5 -21.5t-36.5 -19.5q-33 -14 -67 -23.5t-68 -11.5z" />
<glyph unicode="&#xc2;" horiz-adv-x="1472" d="M-3 -74.5q-3 80.5 20.5 162.5t65.5 156.5t89 134.5q70 84 156 150.5t184 113.5q133 59 282.5 83t303.5 7q55 80 108.5 162t111.5 163t122.5 156.5t142.5 141.5q27 27 72 65.5t95 75.5t101.5 67.5t92.5 43.5q35 10 45 -12.5t-2 -51.5q-10 -25 -24.5 -38t-31.5 -25 q14 14 16.5 30.5t-6 26.5t-28 12t-47.5 -12q-100 -49 -182 -144.5t-145.5 -212t-109 -241.5t-71.5 -235q33 -6 71.5 -7.5t76.5 6t70 22.5t50 44q-20 -47 -53 -68.5t-72 -27.5t-78 -2t-69 10q-23 -123 -32 -251t7 -263q10 -94 39 -191.5t80 -181.5t126.5 -144.5t184.5 -78.5 q111 -16 215.5 14.5t201.5 87t186 129t169 142.5q-55 -53 -123.5 -112.5t-146.5 -114t-163 -96.5t-173 -61.5t-175 -10t-171 60.5q-80 51 -136.5 127t-93 167t-55 193.5t-23.5 206t1 203.5t20 186q-29 4 -73.5 10.5t-65.5 8.5q-25 -47 -48.5 -89t-49.5 -87 q-41 -72 -91.5 -161t-111.5 -180.5t-132 -178.5t-153 -157.5t-172 -115.5t-190 -53q-51 -4 -94 19.5t-70 66.5q-41 68 -44 148.5zM61 -59.5q-2 -57.5 12.5 -105.5t53.5 -79q55 -43 125 -35.5t137.5 41t125.5 81.5t93 87q78 86 137.5 178.5t114.5 190.5q59 104 115.5 209.5 t118.5 210.5q-145 14 -287.5 -3.5t-276.5 -82.5q-98 -47 -180 -117t-143 -160q-20 -29 -45 -76t-46.5 -103t-37 -117.5t-17.5 -119zM1163 727q35 -4 66 -8t65 -10q20 96 51 191t74 187q47 92 106.5 177.5t135.5 154.5q-86 -68 -154.5 -149.5t-127 -170.5t-112 -183.5 t-104.5 -188.5zM1745 1737q66 4 124 23.5t128 47.5q18 8 27.5 -11t15.5 -32q16 -29 36.5 -56.5t49.5 -39.5q-39 8 -72 39t-55 64q-29 -12 -59.5 -19.5t-61.5 -11.5q-72 -10 -133 -4z" />
<glyph unicode="&#xc3;" horiz-adv-x="1472" d="M-3 -74.5q-3 80.5 20.5 162.5t65.5 156.5t89 134.5q70 84 156 150.5t184 113.5q133 59 282.5 83t303.5 7q55 80 108.5 162t111.5 163t122.5 156.5t142.5 141.5q27 27 72 65.5t95 75.5t101.5 67.5t92.5 43.5q35 10 45 -12.5t-2 -51.5q-10 -25 -24.5 -38t-31.5 -25 q14 14 16.5 30.5t-6 26.5t-28 12t-47.5 -12q-100 -49 -182 -144.5t-145.5 -212t-109 -241.5t-71.5 -235q33 -6 71.5 -7.5t76.5 6t70 22.5t50 44q-20 -47 -53 -68.5t-72 -27.5t-78 -2t-69 10q-23 -123 -32 -251t7 -263q10 -94 39 -191.5t80 -181.5t126.5 -144.5t184.5 -78.5 q111 -16 215.5 14.5t201.5 87t186 129t169 142.5q-55 -53 -123.5 -112.5t-146.5 -114t-163 -96.5t-173 -61.5t-175 -10t-171 60.5q-80 51 -136.5 127t-93 167t-55 193.5t-23.5 206t1 203.5t20 186q-29 4 -73.5 10.5t-65.5 8.5q-25 -47 -48.5 -89t-49.5 -87 q-41 -72 -91.5 -161t-111.5 -180.5t-132 -178.5t-153 -157.5t-172 -115.5t-190 -53q-51 -4 -94 19.5t-70 66.5q-41 68 -44 148.5zM61 -59.5q-2 -57.5 12.5 -105.5t53.5 -79q55 -43 125 -35.5t137.5 41t125.5 81.5t93 87q78 86 137.5 178.5t114.5 190.5q59 104 115.5 209.5 t118.5 210.5q-145 14 -287.5 -3.5t-276.5 -82.5q-98 -47 -180 -117t-143 -160q-20 -29 -45 -76t-46.5 -103t-37 -117.5t-17.5 -119zM1163 727q35 -4 66 -8t65 -10q20 96 51 191t74 187q47 92 106.5 177.5t135.5 154.5q-86 -68 -154.5 -149.5t-127 -170.5t-112 -183.5 t-104.5 -188.5zM1794 1706q35 35 75 52.5t89 -9.5q12 -6 23.5 -13t23.5 -12q33 -14 66.5 0.5t60.5 34.5q-18 -16 -36.5 -35.5t-41.5 -31.5q-29 -14 -50.5 -6t-40.5 23t-39.5 28.5t-47.5 9.5q-23 -4 -43.5 -15.5t-38.5 -25.5z" />
<glyph unicode="&#xc4;" horiz-adv-x="1472" d="M-3 -74.5q-3 80.5 20.5 162.5t65.5 156.5t89 134.5q70 84 156 150.5t184 113.5q133 59 282.5 83t303.5 7q55 80 108.5 162t111.5 163t122.5 156.5t142.5 141.5q27 27 72 65.5t95 75.5t101.5 67.5t92.5 43.5q35 10 45 -12.5t-2 -51.5q-10 -25 -24.5 -38t-31.5 -25 q14 14 16.5 30.5t-6 26.5t-28 12t-47.5 -12q-100 -49 -182 -144.5t-145.5 -212t-109 -241.5t-71.5 -235q33 -6 71.5 -7.5t76.5 6t70 22.5t50 44q-20 -47 -53 -68.5t-72 -27.5t-78 -2t-69 10q-23 -123 -32 -251t7 -263q10 -94 39 -191.5t80 -181.5t126.5 -144.5t184.5 -78.5 q111 -16 215.5 14.5t201.5 87t186 129t169 142.5q-55 -53 -123.5 -112.5t-146.5 -114t-163 -96.5t-173 -61.5t-175 -10t-171 60.5q-80 51 -136.5 127t-93 167t-55 193.5t-23.5 206t1 203.5t20 186q-29 4 -73.5 10.5t-65.5 8.5q-25 -47 -48.5 -89t-49.5 -87 q-41 -72 -91.5 -161t-111.5 -180.5t-132 -178.5t-153 -157.5t-172 -115.5t-190 -53q-51 -4 -94 19.5t-70 66.5q-41 68 -44 148.5zM61 -59.5q-2 -57.5 12.5 -105.5t53.5 -79q55 -43 125 -35.5t137.5 41t125.5 81.5t93 87q78 86 137.5 178.5t114.5 190.5q59 104 115.5 209.5 t118.5 210.5q-145 14 -287.5 -3.5t-276.5 -82.5q-98 -47 -180 -117t-143 -160q-20 -29 -45 -76t-46.5 -103t-37 -117.5t-17.5 -119zM1163 727q35 -4 66 -8t65 -10q20 96 51 191t74 187q47 92 106.5 177.5t135.5 154.5q-86 -68 -154.5 -149.5t-127 -170.5t-112 -183.5 t-104.5 -188.5zM1828 1725.5q-1 13.5 6 27.5t21.5 23.5t24.5 7.5t15.5 -17.5t3 -31t-14.5 -25.5t-35 -4q-20 6 -21 19.5zM2006.5 1725.5q-1.5 13.5 5.5 27.5t21.5 23.5t24.5 7.5t15.5 -17.5t2.5 -31t-14 -25.5t-34 -4q-20 6 -21.5 19.5z" />
<glyph unicode="&#xc5;" horiz-adv-x="1472" d="M-3 -74.5q-3 80.5 20.5 162.5t65.5 156.5t89 134.5q70 84 156 150.5t184 113.5q133 59 282.5 83t303.5 7q55 80 108.5 162t111.5 163t122.5 156.5t142.5 141.5q27 27 72 65.5t95 75.5t101.5 67.5t92.5 43.5q35 10 45 -12.5t-2 -51.5q-10 -25 -24.5 -38t-31.5 -25 q14 14 16.5 30.5t-6 26.5t-28 12t-47.5 -12q-100 -49 -182 -144.5t-145.5 -212t-109 -241.5t-71.5 -235q33 -6 71.5 -7.5t76.5 6t70 22.5t50 44q-20 -47 -53 -68.5t-72 -27.5t-78 -2t-69 10q-23 -123 -32 -251t7 -263q10 -94 39 -191.5t80 -181.5t126.5 -144.5t184.5 -78.5 q111 -16 215.5 14.5t201.5 87t186 129t169 142.5q-55 -53 -123.5 -112.5t-146.5 -114t-163 -96.5t-173 -61.5t-175 -10t-171 60.5q-80 51 -136.5 127t-93 167t-55 193.5t-23.5 206t1 203.5t20 186q-29 4 -73.5 10.5t-65.5 8.5q-25 -47 -48.5 -89t-49.5 -87 q-41 -72 -91.5 -161t-111.5 -180.5t-132 -178.5t-153 -157.5t-172 -115.5t-190 -53q-51 -4 -94 19.5t-70 66.5q-41 68 -44 148.5zM61 -59.5q-2 -57.5 12.5 -105.5t53.5 -79q55 -43 125 -35.5t137.5 41t125.5 81.5t93 87q78 86 137.5 178.5t114.5 190.5q59 104 115.5 209.5 t118.5 210.5q-145 14 -287.5 -3.5t-276.5 -82.5q-98 -47 -180 -117t-143 -160q-20 -29 -45 -76t-46.5 -103t-37 -117.5t-17.5 -119zM1163 727q35 -4 66 -8t65 -10q20 96 51 191t74 187q47 92 106.5 177.5t135.5 154.5q-86 -68 -154.5 -149.5t-127 -170.5t-112 -183.5 t-104.5 -188.5zM1824.5 1702q8.5 33 33 65.5t58.5 54t60 13.5q18 -6 21.5 -21.5t-0.5 -34t-14.5 -38t-18.5 -33.5q-8 -12 -22.5 -27.5t-31 -25.5t-35 -12t-36.5 10q-23 16 -14.5 49zM1868 1743q-12 -35 3 -60.5t38 -11.5q37 23 50 53.5t10 54t-18.5 35t-35.5 -3.5 q-35 -24 -47 -67z" />
<glyph unicode="&#xc6;" horiz-adv-x="2908" d="M2 -12q10 109 56 208t114 183t154 150.5t184 113.5q102 47 211.5 69.5t222.5 24.5q29 0 75 -1t77 -5q6 0 10 8q41 68 77 121t77 113q72 98 147.5 198.5t173.5 184.5q29 29 73 66.5t93 74.5t100 67.5t95 43.5q12 4 25 3t22 -14q14 -31 -9.5 -65.5t-50.5 -50.5 q4 4 8.5 20.5t6.5 22.5q2 33 -22 30.5t-56.5 -19.5t-65.5 -43t-47 -38q-162 -145 -256 -343t-139 -406q66 -14 139.5 4t126.5 61q-16 -23 -47 -41t-69 -30.5t-78.5 -17.5t-75.5 1q-10 -55 -18.5 -110.5t-12.5 -112.5q-6 -72 -5 -145.5t9 -145.5q12 -104 45 -205.5t88 -191.5 q49 -76 126 -131.5t173 -67.5q109 -16 213.5 16.5t198.5 85.5q6 4 13 8.5t16 8.5q-18 12 -35 28q-2 4 -6 9q-8 -4 -17.5 -7.5t-19.5 -7.5q-76 -25 -160 -40t-172 1q-115 20 -175.5 105.5t-60.5 202.5q0 98 31 196t80 187q53 98 127 179t160 148.5t182 120.5t199 94 q-16 10 -32.5 26.5t-21.5 37.5q-78 0 -156.5 8t-146.5 55q-41 29 -59.5 68t-18.5 82t16.5 85t47.5 79q41 51 93 86.5t104.5 60.5t97.5 38t72 19q66 14 102.5 12.5t48.5 -10.5q14 -10 9 -23t-18 -23.5t-31.5 -18.5t-26.5 -10q10 4 21 18t9 25q-4 23 -42 24.5t-86 -8.5 t-96 -27.5t-75 -29.5q-47 -25 -88 -57.5t-69 -77.5q-25 -37 -41.5 -83t-12.5 -94q6 -55 43 -88.5t87.5 -53t106.5 -27t101 -9.5q-10 41 -1 83t26 79q20 41 48 74t62 61q84 72 181.5 124t201.5 87q37 12 99.5 21.5t117 2.5t84 -40t2.5 -107q-18 -51 -54 -92t-77 -74 q-45 -35 -93 -63.5t-99 -50.5q-104 -47 -215 -78t-225 -43q6 -8 24.5 -29.5t32.5 -17.5q51 18 129 39.5t152.5 36t130 13.5t63.5 -28q-4 -31 -41 -54.5t-83 -38.5t-91 -23.5t-68 -10.5q-53 -4 -108 1t-109 28q-2 0 -26.5 -11.5t-56 -26.5t-63.5 -31.5t-46 -24.5 q-92 -57 -174 -128t-149.5 -154t-119 -177t-77.5 -201q-12 -47 -20.5 -101t-4.5 -106.5t23.5 -98.5t64.5 -79q47 -33 102.5 -45t108.5 -10q57 0 113.5 11t111.5 30q-57 63 -82.5 142t-25.5 161q0 104 30.5 205.5t86 189.5t133 159t174.5 112q45 18 100 33.5t109.5 15.5 t103.5 -17.5t84 -62.5q31 -41 38 -87t0 -95.5t-24.5 -96.5t-35.5 -90q-47 -96 -115 -178t-148 -152q-76 -70 -155.5 -137t-171.5 -133q76 -53 168 -73.5t184 -12.5q111 8 215 42t203 85q86 45 162.5 98.5t154.5 110.5q-152 -131 -329 -230.5t-377 -125.5q-109 -16 -219.5 0 t-200.5 82q-102 -66 -215 -105q-100 -31 -209 -31t-207 64q-92 57 -149.5 147t-92.5 189q-63 182 -66 365.5t19 375.5q2 4 -1 4t-7 2q-12 2 -33.5 5t-41 6.5t-35 6.5t-17.5 3q-78 -133 -155.5 -272.5t-186.5 -295.5q-27 -37 -80 -101t-122.5 -134t-148.5 -130.5t-157 -89 t-146.5 -14t-119.5 98.5q-29 47 -36 102t-1 109zM61 -51q-2 -49 10.5 -104.5t55.5 -88.5q53 -45 122.5 -36.5t138.5 43t127 82.5t93 85q76 86 139.5 181.5t120 197t111.5 204.5t115 206q-147 14 -289.5 -3.5t-274.5 -82.5q-98 -47 -181 -117t-144 -160q-59 -90 -99 -193.5 t-45 -213.5zM1161 725q31 -4 62.5 -9t70.5 -7q33 104 60.5 196t65.5 178t94.5 168t146.5 168q-86 -68 -154.5 -149.5t-129 -171.5t-113 -184.5t-103.5 -188.5zM2093 77q0 -54 9 -115.5t32 -118t64 -87.5q109 37 213 110t190 169t148.5 210.5t86.5 233.5q10 45 5 92t-33 84 q-35 41 -87 57.5t-104 12.5q-104 -4 -198.5 -59.5t-161.5 -133.5q-68 -78 -107 -174t-53 -200q-4 -27 -4 -81zM2206 -254q8 -10 16 -17.5t16 -13.5q68 41 130.5 90.5t121.5 102.5q-134 -101 -284 -162zM2317 1022.5q1 -14.5 5 -31.5q90 4 177 27q111 27 208 79t187 122 q41 33 81 68.5t68 80.5q14 20 24.5 46t0.5 52q-14 33 -53 43.5t-85 7t-90 -15.5t-69 -22q-53 -18 -102.5 -45t-96.5 -58t-88 -66.5t-76 -78.5q-29 -39 -55.5 -84t-34.5 -94q-2 -16 -1 -30.5zM2404 915q86 -27 172 -30.5t179 26.5q12 4 32.5 15.5t38 25t24.5 25.5t-7 20 q-31 16 -75 10t-83 -12q-143 -23 -281 -80z" />
<glyph unicode="&#xc7;" horiz-adv-x="1396" d="M0 57q-2 86 16.5 173t46.5 171q35 102 88.5 196.5t116.5 184.5q-57 20 -101 60.5t-67 97.5q-18 53 -13 106.5t28 102.5q20 41 50 78t62 69q78 74 179 125q23 10 44 17.5t44 17.5q23 8 63.5 19.5t86.5 18.5t90 8t71 -9q31 -10 24.5 -27.5t-28 -35t-49 -32t-39.5 -16.5 q4 0 13 7.5t18.5 16.5t14.5 20.5t-1 19.5q-23 29 -85.5 32t-140 -18.5t-159.5 -70t-142 -119.5q-33 -39 -58.5 -83t-35.5 -91q-12 -53 -3 -104.5t42 -92.5q20 -29 43 -44t66 -44l6 6t12 14.5t12.5 15.5t10.5 11q129 162 288.5 296t341.5 232q39 20 91.5 46t109.5 44.5 t114.5 25.5t106.5 -7q23 -8 43.5 -22.5t32.5 -36.5q18 -35 15 -72t-19 -74t-41 -71.5t-51 -63.5q-37 -41 -79 -74.5t-89 -64.5t-94 -59.5t-99 -53.5q-70 -35 -148.5 -67.5t-162.5 -54t-171 -29t-171 9.5q-4 0 -13 3t-14 -3q-29 -35 -51 -77t-47 -89q-61 -117 -107 -249 t-55 -273q-4 -53 2.5 -109.5t32.5 -105.5q27 -53 71 -81t95 -39t106.5 -8t106.5 15q-29 63 -36 129t-3 135q4 61 15.5 122t29.5 120q33 100 89.5 192.5t133 166t172 122.5t203.5 66q53 8 109.5 4t103.5 -33t71.5 -76t24.5 -100q-4 -94 -49 -184.5t-102 -165.5 q-66 -88 -145.5 -161t-169.5 -136q-92 -63 -189.5 -114.5t-202.5 -84.5q16 -33 43 -70q68 -88 170.5 -127.5t210.5 -46.5q113 -6 224 14.5t215 55.5q209 72 387 188.5t352 253.5q-137 -137 -322.5 -256.5t-380.5 -197.5q-104 -41 -211.5 -70t-220.5 -33q-111 -4 -220 25 t-195 106q-33 31 -56.5 62t-44.5 78h-4h-6q-27 -4 -51.5 -9.5t-53.5 -7.5q16 -43 -13.5 -91t-65.5 -93q31 4 61.5 -1t52.5 -24q39 -29 37 -74.5t-20 -84.5q-23 -41 -53.5 -74t-67.5 -62q-35 -27 -74 -47t-82 -30q76 45 135 100q29 29 56.5 61.5t44.5 71.5q16 39 10 75 t-53 48q-25 8 -50.5 12t-52.5 8q20 12 46 35t47.5 50.5t33 58.5t2.5 61q-41 0 -84 4t-82.5 17.5t-75.5 39t-63 70.5q-29 47 -40 102.5t-11 110.5zM336 791q12 -4 24.5 -7.5t26.5 -5.5q111 -23 222.5 2t213.5 68q102 47 195.5 106.5t181.5 124.5q43 33 84 70t76 78 q14 18 30.5 40.5t28 47t14.5 50.5t-6 50q-10 27 -30.5 41t-46 20.5t-52 6.5t-49.5 -2q-55 -6 -108.5 -25.5t-104.5 -44.5q-213 -100 -392 -264t-308 -356zM483.5 86.5q-14.5 -142.5 20.5 -283.5q4 -12 8 -22t10 -23q10 4 22.5 8.5t24.5 8.5q23 8 45.5 17t44.5 20 q199 92 355 245q78 78 143.5 166t112.5 187q20 45 37.5 93t19.5 97q4 57 -22 100q-35 59 -97.5 76t-133 7.5t-139.5 -38t-116 -59.5q-90 -59 -157.5 -143t-108.5 -183q-55 -131 -69.5 -273.5z" />
<glyph unicode="&#xc8;" horiz-adv-x="1337" d="M0 20q0 98 30.5 195.5t80.5 187.5q53 96 126.5 178.5t159.5 150t182.5 119.5t198.5 93q-16 10 -31.5 26.5t-21.5 39.5h-12q-49 -4 -117 4t-126 33.5t-96 71.5t-32 120q8 74 51 132.5t104.5 102.5t135.5 72.5t141 42.5q66 14 102.5 12t49.5 -10q16 -10 13 -23.5 t-17.5 -24.5t-33 -18t-30.5 -7q10 0 21.5 16t9.5 27q-4 23 -42 24.5t-86 -9.5t-96.5 -27.5t-74.5 -30.5q-47 -23 -88 -57t-70 -77q-31 -47 -44 -93t-5 -88t38 -76.5t89 -59.5q49 -20 101.5 -28.5t105.5 -8.5q-10 41 -1 83t25 79q20 41 48 73.5t63 61.5q53 45 126 92 t153.5 83t164.5 54.5t158 8.5q59 -8 82 -50t2 -102q-16 -49 -53 -90t-78 -74q-131 -104 -283.5 -164.5t-349.5 -70.5q2 -4 9.5 -13.5t15.5 -17.5t17 -14t15 -4q35 14 71 24t73 23q59 16 121.5 27.5t124.5 13.5h20t28.5 -2t26 -7.5t11.5 -17.5q0 -31 -36 -53.5t-83 -37.5 t-94 -23.5t-70 -10.5q-53 -4 -110.5 0t-106.5 27l-6 3t-6 -1q-47 -16 -91.5 -42t-89.5 -54q-92 -55 -174 -126t-149.5 -154t-118.5 -178t-78 -202q-12 -47 -20 -100.5t-4 -105.5t23.5 -98t64.5 -79q45 -35 98 -47t110.5 -11t116 14t111.5 30q-57 61 -83 140t-26 163 q0 104 31 204.5t86 188.5t133 158.5t174 111.5q45 20 100.5 35t110 16t103.5 -17.5t84 -63.5q31 -39 38 -85t-0.5 -94.5t-24.5 -96.5t-36 -91q-47 -98 -114.5 -180t-147.5 -152q-84 -72 -177 -130t-194 -101q78 -78 184 -105.5t212 -19.5q102 6 200.5 38t190.5 79t179 103 t165 116q-76 -66 -158 -124t-171 -105.5t-183 -80t-195 -46.5q-131 -16 -255 9t-216 117q-57 -20 -132 -38.5t-151.5 -19.5t-146.5 22.5t-115 87.5q-35 45 -47 98t-12 106zM541 199q-14 -104 6 -214t94 -192q109 39 212 111.5t190 170t149.5 211t87.5 234.5q10 45 5 91 t-34 83q-35 41 -87 57.5t-103 14.5q-104 -4 -198.5 -59.5t-162.5 -133.5q-68 -80 -106.5 -175t-52.5 -199zM768 1030q152 0 298 63.5t273 161.5q41 33 81 69t69 81q29 47 22.5 92t-75.5 55q-53 8 -107.5 -1t-109 -29.5t-105.5 -48t-96 -58.5q-37 -25 -86 -67.5t-89 -95 t-63.5 -110t-11.5 -112.5zM850 954q35 -20 79 -27t90 -6t91 10t84 21q12 4 40 17.5t45 29t13 28.5t-51 17q-96 0 -191.5 -26.5t-199.5 -63.5zM1174 1835q6 16 26 12q6 -2 10 -6t9 -8q33 -37 78.5 -66.5t99.5 -44.5q-65 2 -131 33q-6 2 -23.5 10.5t-36 19.5t-30 24.5 t-2.5 25.5z" />
<glyph unicode="&#xc9;" horiz-adv-x="1337" d="M0 20q0 98 30.5 195.5t80.5 187.5q53 96 126.5 178.5t159.5 150t182.5 119.5t198.5 93q-16 10 -31.5 26.5t-21.5 39.5h-12q-49 -4 -117 4t-126 33.5t-96 71.5t-32 120q8 74 51 132.5t104.5 102.5t135.5 72.5t141 42.5q66 14 102.5 12t49.5 -10q16 -10 13 -23.5 t-17.5 -24.5t-33 -18t-30.5 -7q10 0 21.5 16t9.5 27q-4 23 -42 24.5t-86 -9.5t-96.5 -27.5t-74.5 -30.5q-47 -23 -88 -57t-70 -77q-31 -47 -44 -93t-5 -88t38 -76.5t89 -59.5q49 -20 101.5 -28.5t105.5 -8.5q-10 41 -1 83t25 79q20 41 48 73.5t63 61.5q53 45 126 92 t153.5 83t164.5 54.5t158 8.5q59 -8 82 -50t2 -102q-16 -49 -53 -90t-78 -74q-131 -104 -283.5 -164.5t-349.5 -70.5q2 -4 9.5 -13.5t15.5 -17.5t17 -14t15 -4q35 14 71 24t73 23q59 16 121.5 27.5t124.5 13.5h20t28.5 -2t26 -7.5t11.5 -17.5q0 -31 -36 -53.5t-83 -37.5 t-94 -23.5t-70 -10.5q-53 -4 -110.5 0t-106.5 27l-6 3t-6 -1q-47 -16 -91.5 -42t-89.5 -54q-92 -55 -174 -126t-149.5 -154t-118.5 -178t-78 -202q-12 -47 -20 -100.5t-4 -105.5t23.5 -98t64.5 -79q45 -35 98 -47t110.5 -11t116 14t111.5 30q-57 61 -83 140t-26 163 q0 104 31 204.5t86 188.5t133 158.5t174 111.5q45 20 100.5 35t110 16t103.5 -17.5t84 -63.5q31 -39 38 -85t-0.5 -94.5t-24.5 -96.5t-36 -91q-47 -98 -114.5 -180t-147.5 -152q-84 -72 -177 -130t-194 -101q78 -78 184 -105.5t212 -19.5q102 6 200.5 38t190.5 79t179 103 t165 116q-76 -66 -158 -124t-171 -105.5t-183 -80t-195 -46.5q-131 -16 -255 9t-216 117q-57 -20 -132 -38.5t-151.5 -19.5t-146.5 22.5t-115 87.5q-35 45 -47 98t-12 106zM541 199q-14 -104 6 -214t94 -192q109 39 212 111.5t190 170t149.5 211t87.5 234.5q10 45 5 91 t-34 83q-35 41 -87 57.5t-103 14.5q-104 -4 -198.5 -59.5t-162.5 -133.5q-68 -80 -106.5 -175t-52.5 -199zM768 1030q152 0 298 63.5t273 161.5q41 33 81 69t69 81q29 47 22.5 92t-75.5 55q-53 8 -107.5 -1t-109 -29.5t-105.5 -48t-96 -58.5q-37 -25 -86 -67.5t-89 -95 t-63.5 -110t-11.5 -112.5zM850 954q35 -20 79 -27t90 -6t91 10t84 21q12 4 40 17.5t45 29t13 28.5t-51 17q-96 0 -191.5 -26.5t-199.5 -63.5zM1280 1722q49 12 94 41t86 70q10 10 21.5 14t21.5 -10q12 -20 -14.5 -40.5t-66.5 -36t-82 -26t-60 -12.5z" />
<glyph unicode="&#xca;" horiz-adv-x="1337" d="M0 20q0 98 30.5 195.5t80.5 187.5q53 96 126.5 178.5t159.5 150t182.5 119.5t198.5 93q-16 10 -31.5 26.5t-21.5 39.5h-12q-49 -4 -117 4t-126 33.5t-96 71.5t-32 120q8 74 51 132.5t104.5 102.5t135.5 72.5t141 42.5q66 14 102.5 12t49.5 -10q16 -10 13 -23.5 t-17.5 -24.5t-33 -18t-30.5 -7q10 0 21.5 16t9.5 27q-4 23 -42 24.5t-86 -9.5t-96.5 -27.5t-74.5 -30.5q-47 -23 -88 -57t-70 -77q-31 -47 -44 -93t-5 -88t38 -76.5t89 -59.5q49 -20 101.5 -28.5t105.5 -8.5q-10 41 -1 83t25 79q20 41 48 73.5t63 61.5q53 45 126 92 t153.5 83t164.5 54.5t158 8.5q59 -8 82 -50t2 -102q-16 -49 -53 -90t-78 -74q-131 -104 -283.5 -164.5t-349.5 -70.5q2 -4 9.5 -13.5t15.5 -17.5t17 -14t15 -4q35 14 71 24t73 23q59 16 121.5 27.5t124.5 13.5h20t28.5 -2t26 -7.5t11.5 -17.5q0 -31 -36 -53.5t-83 -37.5 t-94 -23.5t-70 -10.5q-53 -4 -110.5 0t-106.5 27l-6 3t-6 -1q-47 -16 -91.5 -42t-89.5 -54q-92 -55 -174 -126t-149.5 -154t-118.5 -178t-78 -202q-12 -47 -20 -100.5t-4 -105.5t23.5 -98t64.5 -79q45 -35 98 -47t110.5 -11t116 14t111.5 30q-57 61 -83 140t-26 163 q0 104 31 204.5t86 188.5t133 158.5t174 111.5q45 20 100.5 35t110 16t103.5 -17.5t84 -63.5q31 -39 38 -85t-0.5 -94.5t-24.5 -96.5t-36 -91q-47 -98 -114.5 -180t-147.5 -152q-84 -72 -177 -130t-194 -101q78 -78 184 -105.5t212 -19.5q102 6 200.5 38t190.5 79t179 103 t165 116q-76 -66 -158 -124t-171 -105.5t-183 -80t-195 -46.5q-131 -16 -255 9t-216 117q-57 -20 -132 -38.5t-151.5 -19.5t-146.5 22.5t-115 87.5q-35 45 -47 98t-12 106zM541 199q-14 -104 6 -214t94 -192q109 39 212 111.5t190 170t149.5 211t87.5 234.5q10 45 5 91 t-34 83q-35 41 -87 57.5t-103 14.5q-104 -4 -198.5 -59.5t-162.5 -133.5q-68 -80 -106.5 -175t-52.5 -199zM768 1030q152 0 298 63.5t273 161.5q41 33 81 69t69 81q29 47 22.5 92t-75.5 55q-53 8 -107.5 -1t-109 -29.5t-105.5 -48t-96 -58.5q-37 -25 -86 -67.5t-89 -95 t-63.5 -110t-11.5 -112.5zM850 954q35 -20 79 -27t90 -6t91 10t84 21q12 4 40 17.5t45 29t13 28.5t-51 17q-96 0 -191.5 -26.5t-199.5 -63.5zM1171 1739q49 0 97.5 12t95.5 33q16 6 29.5 13t29.5 13q18 6 28.5 -13t16.5 -32q14 -29 35 -56.5t49 -39.5q-23 4 -42 17.5 t-35 29.5q-14 14 -25.5 27.5t-24.5 28.5q-29 -10 -59 -17.5t-61 -11.5q-35 -4 -67 -6t-67 2z" />
<glyph unicode="&#xcb;" horiz-adv-x="1337" d="M0 20q0 98 30.5 195.5t80.5 187.5q53 96 126.5 178.5t159.5 150t182.5 119.5t198.5 93q-16 10 -31.5 26.5t-21.5 39.5h-12q-49 -4 -117 4t-126 33.5t-96 71.5t-32 120q8 74 51 132.5t104.5 102.5t135.5 72.5t141 42.5q66 14 102.5 12t49.5 -10q16 -10 13 -23.5 t-17.5 -24.5t-33 -18t-30.5 -7q10 0 21.5 16t9.5 27q-4 23 -42 24.5t-86 -9.5t-96.5 -27.5t-74.5 -30.5q-47 -23 -88 -57t-70 -77q-31 -47 -44 -93t-5 -88t38 -76.5t89 -59.5q49 -20 101.5 -28.5t105.5 -8.5q-10 41 -1 83t25 79q20 41 48 73.5t63 61.5q53 45 126 92 t153.5 83t164.5 54.5t158 8.5q59 -8 82 -50t2 -102q-16 -49 -53 -90t-78 -74q-131 -104 -283.5 -164.5t-349.5 -70.5q2 -4 9.5 -13.5t15.5 -17.5t17 -14t15 -4q35 14 71 24t73 23q59 16 121.5 27.5t124.5 13.5h20t28.5 -2t26 -7.5t11.5 -17.5q0 -31 -36 -53.5t-83 -37.5 t-94 -23.5t-70 -10.5q-53 -4 -110.5 0t-106.5 27l-6 3t-6 -1q-47 -16 -91.5 -42t-89.5 -54q-92 -55 -174 -126t-149.5 -154t-118.5 -178t-78 -202q-12 -47 -20 -100.5t-4 -105.5t23.5 -98t64.5 -79q45 -35 98 -47t110.5 -11t116 14t111.5 30q-57 61 -83 140t-26 163 q0 104 31 204.5t86 188.5t133 158.5t174 111.5q45 20 100.5 35t110 16t103.5 -17.5t84 -63.5q31 -39 38 -85t-0.5 -94.5t-24.5 -96.5t-36 -91q-47 -98 -114.5 -180t-147.5 -152q-84 -72 -177 -130t-194 -101q78 -78 184 -105.5t212 -19.5q102 6 200.5 38t190.5 79t179 103 t165 116q-76 -66 -158 -124t-171 -105.5t-183 -80t-195 -46.5q-131 -16 -255 9t-216 117q-57 -20 -132 -38.5t-151.5 -19.5t-146.5 22.5t-115 87.5q-35 45 -47 98t-12 106zM541 199q-14 -104 6 -214t94 -192q109 39 212 111.5t190 170t149.5 211t87.5 234.5q10 45 5 91 t-34 83q-35 41 -87 57.5t-103 14.5q-104 -4 -198.5 -59.5t-162.5 -133.5q-68 -80 -106.5 -175t-52.5 -199zM768 1030q152 0 298 63.5t273 161.5q41 33 81 69t69 81q29 47 22.5 92t-75.5 55q-53 8 -107.5 -1t-109 -29.5t-105.5 -48t-96 -58.5q-37 -25 -86 -67.5t-89 -95 t-63.5 -110t-11.5 -112.5zM850 954q35 -20 79 -27t90 -6t91 10t84 21q12 4 40 17.5t45 29t13 28.5t-51 17q-96 0 -191.5 -26.5t-199.5 -63.5zM1157.5 1727.5q-2.5 13.5 5.5 26.5t21.5 23.5t23.5 8.5t16.5 -17.5t3.5 -31t-14 -25.5t-36 -4q-18 6 -20.5 19.5zM1334.5 1727.5 q-1.5 13.5 7 26.5t21.5 23.5t23 8.5t16.5 -17.5t3.5 -31t-14 -25.5t-36 -4q-20 6 -21.5 19.5z" />
<glyph unicode="&#xcc;" horiz-adv-x="1032" d="M1 40q3 83 30.5 166t68.5 150q57 90 139.5 161t180.5 114q74 33 158 51t172 23q8 0 29.5 1t45 -3.5t40 -12.5t12.5 -26q-6 -31 -42 -45.5t-63 -18.5q8 2 17.5 11.5t13.5 19.5t3 21.5t-13 17.5q-23 10 -46.5 11t-46.5 1q-29 -2 -71.5 -6t-124.5 -27q-55 -18 -106.5 -43.5 t-96.5 -62.5q-57 -47 -104 -110.5t-80 -138.5t-49.5 -157t-12.5 -164q6 -98 46 -157.5t100.5 -80t136.5 -3t154 74.5q88 66 153.5 155t118.5 185q96 168 174 342.5t170 344.5q82 147 175 284t200 266q-59 -14 -128 -28.5t-147 -36.5q-104 -29 -210.5 -73t-188.5 -126 q-35 -35 -68.5 -84t-27.5 -102q4 -49 42 -62.5t85 -6.5t90 23.5t57 26.5q14 8 26.5 23.5t15.5 30t-9 22.5t-45 6q16 8 35.5 12.5t35 1.5t22.5 -12.5t-3 -27.5q-8 -12 -34.5 -34t-64.5 -42.5t-86.5 -32.5t-97.5 -6q-47 4 -68.5 37t-13.5 80q8 51 36 97t65 86t82 70.5t92 53.5 q131 59 272.5 91t280.5 67q14 18 37.5 43.5t51.5 52.5t58.5 52.5t61.5 43.5q33 18 55.5 18.5t32.5 -12t5 -34t-26 -48.5q-31 -33 -62.5 -56t-68.5 -42.5t-80 -36t-98 -33.5q-2 -4 -9 -13t-16.5 -21.5t-17.5 -23.5t-12 -17q-66 -92 -121 -188.5t-107 -196.5 q-80 -160 -156.5 -320t-168.5 -313q-29 -49 -66 -110.5t-82 -126t-97 -126t-110.5 -110.5t-123 -81t-134.5 -34q-45 -2 -88 9.5t-77 39.5q-61 51 -86 127t-22 159zM1544 1442q53 16 104.5 38.5t102.5 59.5q14 12 31.5 33.5t23.5 40t-4 26t-51 -11.5q-57 -31 -107.5 -80 t-99.5 -106zM1683 1835q16 27 46 -2q33 -37 78.5 -66.5t99.5 -44.5q-35 2 -66.5 10.5t-64.5 22.5q-6 2 -24.5 10.5t-36 18.5t-29 23.5t-3.5 27.5z" />
<glyph unicode="&#xcd;" horiz-adv-x="1032" d="M1 40q3 83 30.5 166t68.5 150q57 90 139.5 161t180.5 114q74 33 158 51t172 23q8 0 29.5 1t45 -3.5t40 -12.5t12.5 -26q-6 -31 -42 -45.5t-63 -18.5q8 2 17.5 11.5t13.5 19.5t3 21.5t-13 17.5q-23 10 -46.5 11t-46.5 1q-29 -2 -71.5 -6t-124.5 -27q-55 -18 -106.5 -43.5 t-96.5 -62.5q-57 -47 -104 -110.5t-80 -138.5t-49.5 -157t-12.5 -164q6 -98 46 -157.5t100.5 -80t136.5 -3t154 74.5q88 66 153.5 155t118.5 185q96 168 174 342.5t170 344.5q82 147 175 284t200 266q-59 -14 -128 -28.5t-147 -36.5q-104 -29 -210.5 -73t-188.5 -126 q-35 -35 -68.5 -84t-27.5 -102q4 -49 42 -62.5t85 -6.5t90 23.5t57 26.5q14 8 26.5 23.5t15.5 30t-9 22.5t-45 6q16 8 35.5 12.5t35 1.5t22.5 -12.5t-3 -27.5q-8 -12 -34.5 -34t-64.5 -42.5t-86.5 -32.5t-97.5 -6q-47 4 -68.5 37t-13.5 80q8 51 36 97t65 86t82 70.5t92 53.5 q131 59 272.5 91t280.5 67q14 18 37.5 43.5t51.5 52.5t58.5 52.5t61.5 43.5q33 18 55.5 18.5t32.5 -12t5 -34t-26 -48.5q-31 -33 -62.5 -56t-68.5 -42.5t-80 -36t-98 -33.5q-2 -4 -9 -13t-16.5 -21.5t-17.5 -23.5t-12 -17q-66 -92 -121 -188.5t-107 -196.5 q-80 -160 -156.5 -320t-168.5 -313q-29 -49 -66 -110.5t-82 -126t-97 -126t-110.5 -110.5t-123 -81t-134.5 -34q-45 -2 -88 9.5t-77 39.5q-61 51 -86 127t-22 159zM1544 1442q53 16 104.5 38.5t102.5 59.5q14 12 31.5 33.5t23.5 40t-4 26t-51 -11.5q-57 -31 -107.5 -80 t-99.5 -106zM1661 1722q49 12 94 41t86 70q10 10 21.5 14t21.5 -10q8 -12 2 -22.5t-16 -18.5q-45 -29 -97.5 -49.5t-111.5 -24.5z" />
<glyph unicode="&#xce;" horiz-adv-x="1032" d="M1 40q3 83 30.5 166t68.5 150q57 90 139.5 161t180.5 114q74 33 158 51t172 23q8 0 29.5 1t45 -3.5t40 -12.5t12.5 -26q-6 -31 -42 -45.5t-63 -18.5q8 2 17.5 11.5t13.5 19.5t3 21.5t-13 17.5q-23 10 -46.5 11t-46.5 1q-29 -2 -71.5 -6t-124.5 -27q-55 -18 -106.5 -43.5 t-96.5 -62.5q-57 -47 -104 -110.5t-80 -138.5t-49.5 -157t-12.5 -164q6 -98 46 -157.5t100.5 -80t136.5 -3t154 74.5q88 66 153.5 155t118.5 185q96 168 174 342.5t170 344.5q82 147 175 284t200 266q-59 -14 -128 -28.5t-147 -36.5q-104 -29 -210.5 -73t-188.5 -126 q-35 -35 -68.5 -84t-27.5 -102q4 -49 42 -62.5t85 -6.5t90 23.5t57 26.5q14 8 26.5 23.5t15.5 30t-9 22.5t-45 6q16 8 35.5 12.5t35 1.5t22.5 -12.5t-3 -27.5q-8 -12 -34.5 -34t-64.5 -42.5t-86.5 -32.5t-97.5 -6q-47 4 -68.5 37t-13.5 80q8 51 36 97t65 86t82 70.5t92 53.5 q131 59 272.5 91t280.5 67q14 18 37.5 43.5t51.5 52.5t58.5 52.5t61.5 43.5q33 18 55.5 18.5t32.5 -12t5 -34t-26 -48.5q-31 -33 -62.5 -56t-68.5 -42.5t-80 -36t-98 -33.5q-2 -4 -9 -13t-16.5 -21.5t-17.5 -23.5t-12 -17q-66 -92 -121 -188.5t-107 -196.5 q-80 -160 -156.5 -320t-168.5 -313q-29 -49 -66 -110.5t-82 -126t-97 -126t-110.5 -110.5t-123 -81t-134.5 -34q-45 -2 -88 9.5t-77 39.5q-61 51 -86 127t-22 159zM1544 1442q53 16 104.5 38.5t102.5 59.5q14 12 31.5 33.5t23.5 40t-4 26t-51 -11.5q-57 -31 -107.5 -80 t-99.5 -106zM1544 1739q98 0 195 45q14 6 27.5 13t29.5 13q18 6 28.5 -13.5t16.5 -31.5q14 -29 34.5 -56.5t51.5 -39.5q-23 4 -43 17.5t-37 29.5q-14 14 -25.5 27.5t-23.5 28.5q-29 -10 -59.5 -17.5t-61.5 -11.5q-35 -4 -66.5 -6t-66.5 2z" />
<glyph unicode="&#xcf;" horiz-adv-x="1032" d="M1 40q3 83 30.5 166t68.5 150q57 90 139.5 161t180.5 114q74 33 158 51t172 23q8 0 29.5 1t45 -3.5t40 -12.5t12.5 -26q-6 -31 -42 -45.5t-63 -18.5q8 2 17.5 11.5t13.5 19.5t3 21.5t-13 17.5q-23 10 -46.5 11t-46.5 1q-29 -2 -71.5 -6t-124.5 -27q-55 -18 -106.5 -43.5 t-96.5 -62.5q-57 -47 -104 -110.5t-80 -138.5t-49.5 -157t-12.5 -164q6 -98 46 -157.5t100.5 -80t136.5 -3t154 74.5q88 66 153.5 155t118.5 185q96 168 174 342.5t170 344.5q82 147 175 284t200 266q-59 -14 -128 -28.5t-147 -36.5q-104 -29 -210.5 -73t-188.5 -126 q-35 -35 -68.5 -84t-27.5 -102q4 -49 42 -62.5t85 -6.5t90 23.5t57 26.5q14 8 26.5 23.5t15.5 30t-9 22.5t-45 6q16 8 35.5 12.5t35 1.5t22.5 -12.5t-3 -27.5q-8 -12 -34.5 -34t-64.5 -42.5t-86.5 -32.5t-97.5 -6q-47 4 -68.5 37t-13.5 80q8 51 36 97t65 86t82 70.5t92 53.5 q131 59 272.5 91t280.5 67q14 18 37.5 43.5t51.5 52.5t58.5 52.5t61.5 43.5q33 18 55.5 18.5t32.5 -12t5 -34t-26 -48.5q-31 -33 -62.5 -56t-68.5 -42.5t-80 -36t-98 -33.5q-2 -4 -9 -13t-16.5 -21.5t-17.5 -23.5t-12 -17q-66 -92 -121 -188.5t-107 -196.5 q-80 -160 -156.5 -320t-168.5 -313q-29 -49 -66 -110.5t-82 -126t-97 -126t-110.5 -110.5t-123 -81t-134.5 -34q-45 -2 -88 9.5t-77 39.5q-61 51 -86 127t-22 159zM1544 1442q53 16 104.5 38.5t102.5 59.5q14 12 31.5 33.5t23.5 40t-4 26t-51 -11.5q-57 -31 -107.5 -80 t-99.5 -106zM1608 1727.5q-2 13.5 6 26.5t22.5 23.5t24.5 8.5t15 -17.5t2 -31t-14 -25.5t-36 -4q-18 6 -20 19.5zM1786 1727.5q-2 13.5 6 26.5t21.5 23.5t23.5 8.5t16.5 -17.5t3 -31t-14.5 -25.5t-36 -4q-18 6 -20 19.5z" />
<glyph unicode="&#xd1;" horiz-adv-x="1314" d="M3 65.5q17 110.5 63 213.5q49 104 117.5 192t156.5 150.5t194.5 94.5t231.5 25q51 -4 76.5 -19t23.5 -33.5t-27.5 -34t-74.5 -17.5q8 0 18.5 7t15.5 17.5t4 21.5t-14 19q-29 16 -63.5 18.5t-71.5 0.5q-98 -4 -198.5 -48t-175.5 -118q-80 -78 -131.5 -176t-77.5 -207 q-12 -45 -20.5 -102.5t-4.5 -115.5t25.5 -108.5t72.5 -78.5q39 -25 85 -27t92.5 12.5t89.5 39t77 52.5q76 63 139.5 144.5t117 170.5t99.5 183t89 186q35 72 68.5 141.5t68.5 139.5q43 86 90 175t102.5 173t124 159t154.5 136q12 8 31.5 20.5t38 20.5t33 8t18.5 -16 q2 -16 -12.5 -30.5t-26.5 -22.5q4 4 8 16t-6 20q-12 8 -34.5 0t-46 -23t-44 -33.5t-31.5 -27.5q-117 -117 -176 -274q-41 -106 -58 -219t-32 -225q-33 -256 -104 -516q98 205 208.5 403.5t239.5 386.5q96 139 207 267t248 227q70 49 146.5 87t158.5 59.5t167 21.5t171 -31 q51 -18 94 -44t75 -55.5t54.5 -58t34.5 -53.5q8 -16 5 -29.5t-25 -19.5q-27 -6 -55.5 8t-47.5 31q12 -6 28.5 -7.5t29 5t17.5 18.5t-3 31q-10 18 -23.5 35.5t-29.5 33.5q-47 47 -106.5 76t-126 41t-135.5 6t-134 -26q-90 -31 -167 -82t-149 -111q-117 -102 -219 -219 t-194 -242q-131 -180 -243 -368.5t-212 -386.5q-31 -61 -59.5 -125t-63.5 -127q0 2 -7 4t-7 4q8 29 15 54.5t16 53.5q29 102 51 203t41 205q14 74 27.5 147.5t29.5 145.5q25 111 56.5 220.5t80.5 211.5q-102 -164 -187 -339t-187 -370q-53 -100 -108.5 -197.5t-121.5 -191.5 q-41 -59 -95 -124.5t-119.5 -118t-141.5 -80t-162 -9.5q-53 12 -90 48t-55 86q-39 100 -22 210.5zM1884 1706q33 33 74 51.5t88 -8.5q51 -27 90 -26t86 36q-18 -16 -36.5 -35.5t-43.5 -31.5q-29 -14 -50 -6t-40.5 23t-40 28.5t-47.5 9.5q-23 -4 -42 -15.5t-38 -25.5z" />
<glyph unicode="&#xd2;" d="M1 286q11 122 45 241.5t77 217.5q43 104 100.5 205t124.5 193q70 92 154 169t180 138q68 41 145.5 77t160.5 53t166 10t161 -50q78 -45 133 -123q-72 92 -178.5 133t-229.5 23q-111 -16 -214 -64.5t-194 -120t-168 -161.5t-134 -187q-57 -96 -106.5 -201.5t-85.5 -219 t-54 -230.5t-14 -233q2 -55 11 -112.5t30.5 -108t59.5 -90.5t95 -60q49 -16 103.5 -19.5t110 6t108.5 28t102 44.5q100 55 183 133t153 170t127 191.5t100 208.5q-55 -39 -113.5 -72t-119.5 -55q-53 -20 -110.5 -30.5t-114 -7.5t-111.5 21.5t-102 59.5q-41 35 -68 83 t-39 101q-23 115 9 229.5t89 213.5q55 98 131 181t173 140q84 51 188 71.5t203 -18.5q55 -25 89 -68.5t52 -97t24.5 -111t4.5 -110.5q-4 -117 -33 -229.5t-72 -222.5q45 35 84 74.5t76 82.5q27 31 62.5 80t68.5 104.5t55.5 112t22.5 101.5q0 35 -27.5 42t-54.5 -26 q12 27 35.5 55.5t54.5 32.5q29 2 37 -15.5t5 -42t-12 -50t-14 -37.5q-45 -109 -110 -211q-53 -80 -116.5 -158t-151.5 -149q-8 -8 -25 -21q-8 -23 -15.5 -40t-17.5 -38q-72 -154 -170 -297t-233 -262q-57 -51 -127 -97t-147.5 -79t-160.5 -47t-169 2q-115 18 -185 111 q-68 86 -88 198.5t-9 234.5zM522 674q18 -104 93.5 -169t179.5 -81q66 -8 134 4t131.5 36.5t118 55.5t89.5 62q4 14 8 25l8 22q10 27 18.5 52.5t16.5 51.5q31 106 49 215q8 59 11 118.5t-1 119.5q-4 55 -17 111.5t-48 101.5q-33 41 -80 58.5t-98.5 17.5t-102.5 -15.5 t-94 -36.5q-100 -49 -179 -129t-132 -176q-57 -98 -91 -214t-14 -230zM1092 1847q6 16 28 13q14 -4 30.5 -23.5t45.5 -42.5t60.5 -39t66.5 -26q-67 5 -135 34q-6 2 -25.5 10.5t-38 19.5t-30 25.5t-2.5 28.5z" />
<glyph unicode="&#xd3;" d="M1 286q11 122 45 241.5t77 217.5q43 104 100.5 205t124.5 193q70 92 154 169t180 138q68 41 145.5 77t160.5 53t166 10t161 -50q78 -45 133 -123q-72 92 -178.5 133t-229.5 23q-111 -16 -214 -64.5t-194 -120t-168 -161.5t-134 -187q-57 -96 -106.5 -201.5t-85.5 -219 t-54 -230.5t-14 -233q2 -55 11 -112.5t30.5 -108t59.5 -90.5t95 -60q49 -16 103.5 -19.5t110 6t108.5 28t102 44.5q100 55 183 133t153 170t127 191.5t100 208.5q-55 -39 -113.5 -72t-119.5 -55q-53 -20 -110.5 -30.5t-114 -7.5t-111.5 21.5t-102 59.5q-41 35 -68 83 t-39 101q-23 115 9 229.5t89 213.5q55 98 131 181t173 140q84 51 188 71.5t203 -18.5q55 -25 89 -68.5t52 -97t24.5 -111t4.5 -110.5q-4 -117 -33 -229.5t-72 -222.5q45 35 84 74.5t76 82.5q27 31 62.5 80t68.5 104.5t55.5 112t22.5 101.5q0 35 -27.5 42t-54.5 -26 q12 27 35.5 55.5t54.5 32.5q29 2 37 -15.5t5 -42t-12 -50t-14 -37.5q-45 -109 -110 -211q-53 -80 -116.5 -158t-151.5 -149q-8 -8 -25 -21q-8 -23 -15.5 -40t-17.5 -38q-72 -154 -170 -297t-233 -262q-57 -51 -127 -97t-147.5 -79t-160.5 -47t-169 2q-115 18 -185 111 q-68 86 -88 198.5t-9 234.5zM522 674q18 -104 93.5 -169t179.5 -81q66 -8 134 4t131.5 36.5t118 55.5t89.5 62q4 14 8 25l8 22q10 27 18.5 52.5t16.5 51.5q31 106 49 215q8 59 11 118.5t-1 119.5q-4 55 -17 111.5t-48 101.5q-33 41 -80 58.5t-98.5 17.5t-102.5 -15.5 t-94 -36.5q-100 -49 -179 -129t-132 -176q-57 -98 -91 -214t-14 -230zM1059 1726q51 14 97 44t89 73q10 10 22.5 14.5t22.5 -12.5q8 -12 1 -22.5t-17 -18.5q-43 -31 -98.5 -51t-116.5 -27z" />
<glyph unicode="&#xd4;" d="M1 286q11 122 45 241.5t77 217.5q43 104 100.5 205t124.5 193q70 92 154 169t180 138q68 41 145.5 77t160.5 53t166 10t161 -50q78 -45 133 -123q-72 92 -178.5 133t-229.5 23q-111 -16 -214 -64.5t-194 -120t-168 -161.5t-134 -187q-57 -96 -106.5 -201.5t-85.5 -219 t-54 -230.5t-14 -233q2 -55 11 -112.5t30.5 -108t59.5 -90.5t95 -60q49 -16 103.5 -19.5t110 6t108.5 28t102 44.5q100 55 183 133t153 170t127 191.5t100 208.5q-55 -39 -113.5 -72t-119.5 -55q-53 -20 -110.5 -30.5t-114 -7.5t-111.5 21.5t-102 59.5q-41 35 -68 83 t-39 101q-23 115 9 229.5t89 213.5q55 98 131 181t173 140q84 51 188 71.5t203 -18.5q55 -25 89 -68.5t52 -97t24.5 -111t4.5 -110.5q-4 -117 -33 -229.5t-72 -222.5q45 35 84 74.5t76 82.5q27 31 62.5 80t68.5 104.5t55.5 112t22.5 101.5q0 35 -27.5 42t-54.5 -26 q12 27 35.5 55.5t54.5 32.5q29 2 37 -15.5t5 -42t-12 -50t-14 -37.5q-45 -109 -110 -211q-53 -80 -116.5 -158t-151.5 -149q-8 -8 -25 -21q-8 -23 -15.5 -40t-17.5 -38q-72 -154 -170 -297t-233 -262q-57 -51 -127 -97t-147.5 -79t-160.5 -47t-169 2q-115 18 -185 111 q-68 86 -88 198.5t-9 234.5zM522 674q18 -104 93.5 -169t179.5 -81q66 -8 134 4t131.5 36.5t118 55.5t89.5 62q4 14 8 25l8 22q10 27 18.5 52.5t16.5 51.5q31 106 49 215q8 59 11 118.5t-1 119.5q-4 55 -17 111.5t-48 101.5q-33 41 -80 58.5t-98.5 17.5t-102.5 -15.5 t-94 -36.5q-100 -49 -179 -129t-132 -176q-57 -98 -91 -214t-14 -230zM1012 1747q53 0 102 12.5t100 34.5q16 6 29.5 13.5t30.5 13.5q12 4 27.5 -14.5t33 -44t37 -51t39.5 -36.5q-41 6 -76 39t-57 68q-31 -12 -62.5 -19.5t-64.5 -11.5q-74 -12 -139 -4z" />
<glyph unicode="&#xd5;" d="M1 286q11 122 45 241.5t77 217.5q43 104 100.5 205t124.5 193q70 92 154 169t180 138q68 41 145.5 77t160.5 53t166 10t161 -50q78 -45 133 -123q-72 92 -178.5 133t-229.5 23q-111 -16 -214 -64.5t-194 -120t-168 -161.5t-134 -187q-57 -96 -106.5 -201.5t-85.5 -219 t-54 -230.5t-14 -233q2 -55 11 -112.5t30.5 -108t59.5 -90.5t95 -60q49 -16 103.5 -19.5t110 6t108.5 28t102 44.5q100 55 183 133t153 170t127 191.5t100 208.5q-55 -39 -113.5 -72t-119.5 -55q-53 -20 -110.5 -30.5t-114 -7.5t-111.5 21.5t-102 59.5q-41 35 -68 83 t-39 101q-23 115 9 229.5t89 213.5q55 98 131 181t173 140q84 51 188 71.5t203 -18.5q55 -25 89 -68.5t52 -97t24.5 -111t4.5 -110.5q-4 -117 -33 -229.5t-72 -222.5q45 35 84 74.5t76 82.5q27 31 62.5 80t68.5 104.5t55.5 112t22.5 101.5q0 35 -27.5 42t-54.5 -26 q12 27 35.5 55.5t54.5 32.5q29 2 37 -15.5t5 -42t-12 -50t-14 -37.5q-45 -109 -110 -211q-53 -80 -116.5 -158t-151.5 -149q-8 -8 -25 -21q-8 -23 -15.5 -40t-17.5 -38q-72 -154 -170 -297t-233 -262q-57 -51 -127 -97t-147.5 -79t-160.5 -47t-169 2q-115 18 -185 111 q-68 86 -88 198.5t-9 234.5zM522 674q18 -104 93.5 -169t179.5 -81q66 -8 134 4t131.5 36.5t118 55.5t89.5 62q4 14 8 25l8 22q10 27 18.5 52.5t16.5 51.5q31 106 49 215q8 59 11 118.5t-1 119.5q-4 55 -17 111.5t-48 101.5q-33 41 -80 58.5t-98.5 17.5t-102.5 -15.5 t-94 -36.5q-100 -49 -179 -129t-132 -176q-57 -98 -91 -214t-14 -230zM1083 1714q16 16 34 29.5t38 23.5q20 8 39.5 7.5t37 -9t35 -18.5t36.5 -16q35 -10 69.5 2t63.5 34q-20 -18 -38.5 -37.5t-43.5 -31.5q-31 -14 -53.5 -5t-43 24.5t-42 29.5t-48.5 8q-23 -4 -44 -16.5 t-40 -24.5z" />
<glyph unicode="&#xd6;" d="M1 286q11 122 45 241.5t77 217.5q43 104 100.5 205t124.5 193q70 92 154 169t180 138q68 41 145.5 77t160.5 53t166 10t161 -50q78 -45 133 -123q-72 92 -178.5 133t-229.5 23q-111 -16 -214 -64.5t-194 -120t-168 -161.5t-134 -187q-57 -96 -106.5 -201.5t-85.5 -219 t-54 -230.5t-14 -233q2 -55 11 -112.5t30.5 -108t59.5 -90.5t95 -60q49 -16 103.5 -19.5t110 6t108.5 28t102 44.5q100 55 183 133t153 170t127 191.5t100 208.5q-55 -39 -113.5 -72t-119.5 -55q-53 -20 -110.5 -30.5t-114 -7.5t-111.5 21.5t-102 59.5q-41 35 -68 83 t-39 101q-23 115 9 229.5t89 213.5q55 98 131 181t173 140q84 51 188 71.5t203 -18.5q55 -25 89 -68.5t52 -97t24.5 -111t4.5 -110.5q-4 -117 -33 -229.5t-72 -222.5q45 35 84 74.5t76 82.5q27 31 62.5 80t68.5 104.5t55.5 112t22.5 101.5q0 35 -27.5 42t-54.5 -26 q12 27 35.5 55.5t54.5 32.5q29 2 37 -15.5t5 -42t-12 -50t-14 -37.5q-45 -109 -110 -211q-53 -80 -116.5 -158t-151.5 -149q-8 -8 -25 -21q-8 -23 -15.5 -40t-17.5 -38q-72 -154 -170 -297t-233 -262q-57 -51 -127 -97t-147.5 -79t-160.5 -47t-169 2q-115 18 -185 111 q-68 86 -88 198.5t-9 234.5zM522 674q18 -104 93.5 -169t179.5 -81q66 -8 134 4t131.5 36.5t118 55.5t89.5 62q4 14 8 25l8 22q10 27 18.5 52.5t16.5 51.5q31 106 49 215q8 59 11 118.5t-1 119.5q-4 55 -17 111.5t-48 101.5q-33 41 -80 58.5t-98.5 17.5t-102.5 -15.5 t-94 -36.5q-100 -49 -179 -129t-132 -176q-57 -98 -91 -214t-14 -230zM1098 1732.5q-2 14.5 6 30t22.5 24.5t26.5 7q10 -2 16.5 -17.5t3 -31.5t-15.5 -27.5t-37 -5.5q-20 6 -22 20.5zM1283.5 1732.5q-1.5 14.5 6.5 30t22.5 24.5t24.5 7t16.5 -17.5t3.5 -31.5t-15 -27.5 t-37 -5.5q-20 6 -21.5 20.5z" />
<glyph unicode="&#xd8;" d="M-45 -393q4 45 19.5 87t33.5 81q14 29 29.5 56.5t32.5 55.5q-53 90 -65.5 198t-2.5 210q20 223 111.5 439t232.5 409q139 184 336 307q94 59 201.5 101t222.5 42q102 0 188 -44t154 -130q-72 88 -176.5 131t-233.5 25q-113 -16 -215 -66.5t-192 -119.5q-92 -72 -167 -159 t-136 -188q-119 -203 -187 -421q-35 -113 -56.5 -231t-16.5 -236q2 -53 9 -106.5t27 -102.5q70 104 146 203.5t156 195.5q35 41 68.5 79t68.5 79q-27 31 -43.5 67.5t-24.5 77.5q-25 115 7 230.5t89 214.5q55 96 132 179t174 142q70 43 149.5 63.5t154 10.5t136 -56.5 t94.5 -136.5q84 70 182.5 126.5t202.5 105.5q-100 -55 -193.5 -119t-185.5 -135q14 -47 18.5 -97.5t2.5 -97.5q-6 -117 -35 -229.5t-70 -222.5q45 35 84 74.5t76 82.5q53 59 94 124t74 138q12 33 26.5 68t14.5 70q0 16 -10.5 26.5t-24.5 11.5t-27.5 -4.5t-21.5 -19.5 q23 47 52.5 69.5t51 18.5t26.5 -39t-22 -104q-23 -55 -51 -108.5t-59 -102.5q-53 -86 -118.5 -162t-149.5 -147q-6 -4 -12.5 -10.5t-12.5 -10.5q-10 -18 -17.5 -36.5t-15.5 -39.5q-72 -154 -170 -298t-233 -263q-55 -51 -126 -97t-148.5 -79t-161.5 -47t-170 2 q-63 10 -112.5 45t-88.5 86q-39 -59 -76 -125.5t-49 -140.5zM115 -76q23 -47 59.5 -84t89.5 -55q100 -35 213 -14.5t211 73.5t182 130t155 169.5t127 195.5t99 208q-53 -39 -111.5 -72t-121.5 -55q-61 -23 -127 -35t-131 -2q-106 16 -193 92q-35 -39 -68.5 -77t-68.5 -76 q-84 -96 -164 -194.5t-151 -203.5zM520 676q16 -78 58 -135q119 129 243.5 249.5t255.5 237.5q139 121 291 236q-6 37 -19.5 71.5t-35.5 63.5q-35 43 -81 59.5t-97.5 16.5t-102.5 -14.5t-94 -35.5q-102 -49 -180 -128.5t-133 -178.5q-57 -98 -91 -212.5t-14 -229.5zM602 512 q41 -41 86 -60.5t105 -27.5q41 -6 103 2t130 28.5t131.5 52.5t108.5 75q2 2 8 19t10 30q10 25 17.5 50t15.5 52q35 115 51 239t4 265q-70 -55 -136.5 -113.5t-131.5 -117.5q-131 -117 -256 -241t-246 -253z" />
<glyph unicode="&#xd9;" horiz-adv-x="1228" d="M5 840.5q11 64.5 61 150.5q47 84 118.5 162t159.5 139.5t187.5 98t203.5 41.5q39 2 79 -3.5t75 -19.5q43 -20 63.5 -52t23.5 -71t-9.5 -80t-32.5 -80q-55 -98 -122 -186t-134.5 -172t-134 -168t-123.5 -172q-88 -135 -128 -237.5t-46 -176t16.5 -119t59 -68t82 -21.5 t85.5 22q94 49 170 126t138 167q61 92 114.5 188.5t100.5 194.5q88 184 197.5 350t260.5 317q78 78 163 146.5t182 124.5q94 55 196.5 94t212.5 49q109 8 198 -5t157.5 -37.5t115.5 -54t72 -54.5q10 -10 12 -23.5t-12 -24.5q-23 -16 -53.5 -10t-53.5 17q8 -2 22.5 0t27 8 t17.5 16t-3 23q-20 29 -54 48t-69 34q-158 63 -324 57q-111 -6 -213 -40t-197 -87t-181.5 -121.5t-161.5 -144.5q-106 -106 -203.5 -232.5t-169.5 -265.5t-107.5 -288.5t-17.5 -303.5q12 -106 62.5 -203.5t150.5 -150.5q98 -51 206.5 -44t214 46t202 99.5t168.5 117.5 q0 -6 -18.5 -21.5t-43 -33t-47.5 -32.5t-29 -19q-57 -39 -121.5 -75t-133 -60.5t-142.5 -35t-147 0.5q-127 18 -205 91.5t-118 173t-45 213t13 216.5q-6 -12 -13 -24.5t-15 -24.5q-84 -139 -186.5 -269.5t-241.5 -226.5q-61 -45 -126 -58.5t-115 4t-79 67t-21.5 132 t57.5 199.5t161 271t210 289.5t191 271.5q18 27 48 73.5t50.5 98t18.5 99.5t-47 79q-68 43 -161 44t-179 -28q-49 -16 -100.5 -41.5t-99.5 -59.5t-91 -72t-76 -77q-104 -127 -138 -216t-19.5 -143t65.5 -76.5t117 -16.5q70 4 124 29.5t81.5 54t23.5 53.5t-53 29q6 2 24.5 4 t37 -1t32.5 -11.5t14 -24.5q-2 -29 -26.5 -56.5t-65.5 -50t-94 -37t-108 -14.5q-68 0 -115 20.5t-65.5 63.5t-7.5 107.5zM1167 1530q6 12 20.5 11t22.5 -13q37 -37 81 -66.5t100 -46.5q-109 11 -203 72q-10 8 -20.5 17t-0.5 26z" />
<glyph unicode="&#xda;" horiz-adv-x="1228" d="M5 840.5q11 64.5 61 150.5q47 84 118.5 162t159.5 139.5t187.5 98t203.5 41.5q39 2 79 -3.5t75 -19.5q43 -20 63.5 -52t23.5 -71t-9.5 -80t-32.5 -80q-55 -98 -122 -186t-134.5 -172t-134 -168t-123.5 -172q-88 -135 -128 -237.5t-46 -176t16.5 -119t59 -68t82 -21.5 t85.5 22q94 49 170 126t138 167q61 92 114.5 188.5t100.5 194.5q88 184 197.5 350t260.5 317q78 78 163 146.5t182 124.5q94 55 196.5 94t212.5 49q109 8 198 -5t157.5 -37.5t115.5 -54t72 -54.5q10 -10 12 -23.5t-12 -24.5q-23 -16 -53.5 -10t-53.5 17q8 -2 22.5 0t27 8 t17.5 16t-3 23q-20 29 -54 48t-69 34q-158 63 -324 57q-111 -6 -213 -40t-197 -87t-181.5 -121.5t-161.5 -144.5q-106 -106 -203.5 -232.5t-169.5 -265.5t-107.5 -288.5t-17.5 -303.5q12 -106 62.5 -203.5t150.5 -150.5q98 -51 206.5 -44t214 46t202 99.5t168.5 117.5 q0 -6 -18.5 -21.5t-43 -33t-47.5 -32.5t-29 -19q-57 -39 -121.5 -75t-133 -60.5t-142.5 -35t-147 0.5q-127 18 -205 91.5t-118 173t-45 213t13 216.5q-6 -12 -13 -24.5t-15 -24.5q-84 -139 -186.5 -269.5t-241.5 -226.5q-61 -45 -126 -58.5t-115 4t-79 67t-21.5 132 t57.5 199.5t161 271t210 289.5t191 271.5q18 27 48 73.5t50.5 98t18.5 99.5t-47 79q-68 43 -161 44t-179 -28q-49 -16 -100.5 -41.5t-99.5 -59.5t-91 -72t-76 -77q-104 -127 -138 -216t-19.5 -143t65.5 -76.5t117 -16.5q70 4 124 29.5t81.5 54t23.5 53.5t-53 29q6 2 24.5 4 t37 -1t32.5 -11.5t14 -24.5q-2 -29 -26.5 -56.5t-65.5 -50t-94 -37t-108 -14.5q-68 0 -115 20.5t-65.5 63.5t-7.5 107.5zM1182 1415q49 14 96 43t82 70q10 10 22.5 14t22.5 -12q8 -12 0 -23.5t-22.5 -21.5t-33 -19.5t-32.5 -15.5q-68 -29 -135 -35z" />
<glyph unicode="&#xdb;" horiz-adv-x="1228" d="M5 840.5q11 64.5 61 150.5q47 84 118.5 162t159.5 139.5t187.5 98t203.5 41.5q39 2 79 -3.5t75 -19.5q43 -20 63.5 -52t23.5 -71t-9.5 -80t-32.5 -80q-55 -98 -122 -186t-134.5 -172t-134 -168t-123.5 -172q-88 -135 -128 -237.5t-46 -176t16.5 -119t59 -68t82 -21.5 t85.5 22q94 49 170 126t138 167q61 92 114.5 188.5t100.5 194.5q88 184 197.5 350t260.5 317q78 78 163 146.5t182 124.5q94 55 196.5 94t212.5 49q109 8 198 -5t157.5 -37.5t115.5 -54t72 -54.5q10 -10 12 -23.5t-12 -24.5q-23 -16 -53.5 -10t-53.5 17q8 -2 22.5 0t27 8 t17.5 16t-3 23q-20 29 -54 48t-69 34q-158 63 -324 57q-111 -6 -213 -40t-197 -87t-181.5 -121.5t-161.5 -144.5q-106 -106 -203.5 -232.5t-169.5 -265.5t-107.5 -288.5t-17.5 -303.5q12 -106 62.5 -203.5t150.5 -150.5q98 -51 206.5 -44t214 46t202 99.5t168.5 117.5 q0 -6 -18.5 -21.5t-43 -33t-47.5 -32.5t-29 -19q-57 -39 -121.5 -75t-133 -60.5t-142.5 -35t-147 0.5q-127 18 -205 91.5t-118 173t-45 213t13 216.5q-6 -12 -13 -24.5t-15 -24.5q-84 -139 -186.5 -269.5t-241.5 -226.5q-61 -45 -126 -58.5t-115 4t-79 67t-21.5 132 t57.5 199.5t161 271t210 289.5t191 271.5q18 27 48 73.5t50.5 98t18.5 99.5t-47 79q-68 43 -161 44t-179 -28q-49 -16 -100.5 -41.5t-99.5 -59.5t-91 -72t-76 -77q-104 -127 -138 -216t-19.5 -143t65.5 -76.5t117 -16.5q70 4 124 29.5t81.5 54t23.5 53.5t-53 29q6 2 24.5 4 t37 -1t32.5 -11.5t14 -24.5q-2 -29 -26.5 -56.5t-65.5 -50t-94 -37t-108 -14.5q-68 0 -115 20.5t-65.5 63.5t-7.5 107.5zM1061 1434q96 0 192 45q16 6 29.5 13t30.5 11q12 4 26.5 -13t30.5 -42t34.5 -50.5t37.5 -33.5q-41 8 -72 40t-55 62q-29 -12 -59.5 -19t-61.5 -11 q-35 -4 -66.5 -5t-66.5 3z" />
<glyph unicode="&#xdc;" horiz-adv-x="1228" d="M5 840.5q11 64.5 61 150.5q47 84 118.5 162t159.5 139.5t187.5 98t203.5 41.5q39 2 79 -3.5t75 -19.5q43 -20 63.5 -52t23.5 -71t-9.5 -80t-32.5 -80q-55 -98 -122 -186t-134.5 -172t-134 -168t-123.5 -172q-88 -135 -128 -237.5t-46 -176t16.5 -119t59 -68t82 -21.5 t85.5 22q94 49 170 126t138 167q61 92 114.5 188.5t100.5 194.5q88 184 197.5 350t260.5 317q78 78 163 146.5t182 124.5q94 55 196.5 94t212.5 49q109 8 198 -5t157.5 -37.5t115.5 -54t72 -54.5q10 -10 12 -23.5t-12 -24.5q-23 -16 -53.5 -10t-53.5 17q8 -2 22.5 0t27 8 t17.5 16t-3 23q-20 29 -54 48t-69 34q-158 63 -324 57q-111 -6 -213 -40t-197 -87t-181.5 -121.5t-161.5 -144.5q-106 -106 -203.5 -232.5t-169.5 -265.5t-107.5 -288.5t-17.5 -303.5q12 -106 62.5 -203.5t150.5 -150.5q98 -51 206.5 -44t214 46t202 99.5t168.5 117.5 q0 -6 -18.5 -21.5t-43 -33t-47.5 -32.5t-29 -19q-57 -39 -121.5 -75t-133 -60.5t-142.5 -35t-147 0.5q-127 18 -205 91.5t-118 173t-45 213t13 216.5q-6 -12 -13 -24.5t-15 -24.5q-84 -139 -186.5 -269.5t-241.5 -226.5q-61 -45 -126 -58.5t-115 4t-79 67t-21.5 132 t57.5 199.5t161 271t210 289.5t191 271.5q18 27 48 73.5t50.5 98t18.5 99.5t-47 79q-68 43 -161 44t-179 -28q-49 -16 -100.5 -41.5t-99.5 -59.5t-91 -72t-76 -77q-104 -127 -138 -216t-19.5 -143t65.5 -76.5t117 -16.5q70 4 124 29.5t81.5 54t23.5 53.5t-53 29q6 2 24.5 4 t37 -1t32.5 -11.5t14 -24.5q-2 -29 -26.5 -56.5t-65.5 -50t-94 -37t-108 -14.5q-68 0 -115 20.5t-65.5 63.5t-7.5 107.5zM1212.5 1420.5q-2.5 13.5 6 27.5t21.5 24.5t24 8.5q10 -4 16 -18.5t3 -31t-14 -26.5t-36 -4q-18 6 -20.5 19.5zM1390 1420.5q-1 13.5 7 27.5t21.5 24.5 t23.5 8.5q10 -4 16 -18.5t3 -31t-14 -26.5t-36 -4q-20 6 -21 19.5z" />
<glyph unicode="&#xe0;" horiz-adv-x="436" d="M4 66q0 43 33 122q14 33 37.5 67t51.5 62.5t57.5 50t58.5 31.5t62.5 6t49.5 -34q20 33 37 36t26 -9.5t11 -32t-4 -31.5q0 10 -2 16q-4 14 -21 0q-23 -18 -39 -55t-28 -74t-19.5 -66.5t-9.5 -35.5q-12 -45 -4 -62.5t29 -11.5q23 6 49.5 30.5t53 56.5t49 63.5t34.5 54.5 l4 -12q-10 -16 -37.5 -55.5t-62.5 -80.5t-73 -72.5t-66 -31.5q-25 0 -32 26.5t9 96.5l18 61q-18 -43 -53 -81t-71.5 -63.5t-71.5 -34.5t-55.5 5.5t-20.5 57.5zM60.5 63.5q19.5 -30.5 59.5 -20.5t91 62.5t90 148.5q39 82 20.5 117t-63.5 24.5t-100.5 -68t-91.5 -161.5 q-25 -72 -5.5 -102.5zM209 584q10 12 19.5 4t17.5 -15q35 -33 78 -58.5t96 -37.5q-62 6 -117 31q-4 2 -22.5 11t-37 20.5t-30.5 23.5t-4 21z" />
<glyph unicode="&#xe1;" horiz-adv-x="436" d="M4 66q0 43 33 122q14 33 37.5 67t51.5 62.5t57.5 50t58.5 31.5t62.5 6t49.5 -34q20 33 37 36t26 -9.5t11 -32t-4 -31.5q0 10 -2 16q-4 14 -21 0q-23 -18 -39 -55t-28 -74t-19.5 -66.5t-9.5 -35.5q-12 -45 -4 -62.5t29 -11.5q23 6 49.5 30.5t53 56.5t49 63.5t34.5 54.5 l4 -12q-10 -16 -37.5 -55.5t-62.5 -80.5t-73 -72.5t-66 -31.5q-25 0 -32 26.5t9 96.5l18 61q-18 -43 -53 -81t-71.5 -63.5t-71.5 -34.5t-55.5 5.5t-20.5 57.5zM60.5 63.5q19.5 -30.5 59.5 -20.5t91 62.5t90 148.5q39 82 20.5 117t-63.5 24.5t-100.5 -68t-91.5 -161.5 q-25 -72 -5.5 -102.5zM244 477q45 10 89 34t79 58q8 6 20.5 17.5t22.5 -0.5q12 -16 -13.5 -33.5t-64.5 -34t-79 -28t-54 -13.5z" />
<glyph unicode="&#xe2;" horiz-adv-x="436" d="M4 66q0 43 33 122q14 33 37.5 67t51.5 62.5t57.5 50t58.5 31.5t62.5 6t49.5 -34q20 33 37 36t26 -9.5t11 -32t-4 -31.5q0 10 -2 16q-4 14 -21 0q-23 -18 -39 -55t-28 -74t-19.5 -66.5t-9.5 -35.5q-12 -45 -4 -62.5t29 -11.5q23 6 49.5 30.5t53 56.5t49 63.5t34.5 54.5 l4 -12q-10 -16 -37.5 -55.5t-62.5 -80.5t-73 -72.5t-66 -31.5q-25 0 -32 26.5t9 96.5l18 61q-18 -43 -53 -81t-71.5 -63.5t-71.5 -34.5t-55.5 5.5t-20.5 57.5zM60.5 63.5q19.5 -30.5 59.5 -20.5t91 62.5t90 148.5q39 82 20.5 117t-63.5 24.5t-100.5 -68t-91.5 -161.5 q-25 -72 -5.5 -102.5zM156 477q55 12 97 42t89 65q10 6 23.5 -9.5t28 -36t30 -42t33.5 -27.5q-33 0 -60.5 28.5t-48.5 51.5q-41 -29 -91 -48.5t-101 -23.5z" />
<glyph unicode="&#xe3;" horiz-adv-x="436" d="M4 66q0 43 33 122q14 33 37.5 67t51.5 62.5t57.5 50t58.5 31.5t62.5 6t49.5 -34q20 33 37 36t26 -9.5t11 -32t-4 -31.5q0 10 -2 16q-4 14 -21 0q-23 -18 -39 -55t-28 -74t-19.5 -66.5t-9.5 -35.5q-12 -45 -4 -62.5t29 -11.5q23 6 49.5 30.5t53 56.5t49 63.5t34.5 54.5 l4 -12q-10 -16 -37.5 -55.5t-62.5 -80.5t-73 -72.5t-66 -31.5q-25 0 -32 26.5t9 96.5l18 61q-18 -43 -53 -81t-71.5 -63.5t-71.5 -34.5t-55.5 5.5t-20.5 57.5zM60.5 63.5q19.5 -30.5 59.5 -20.5t91 62.5t90 148.5q39 82 20.5 117t-63.5 24.5t-100.5 -68t-91.5 -161.5 q-25 -72 -5.5 -102.5zM174 510q16 16 31.5 28.5t38.5 22.5q20 8 37.5 7t34 -9t34 -17.5t35.5 -15.5q33 -10 65.5 2.5t61.5 32.5q-16 -16 -34.5 -32.5t-39 -28t-43 -12t-47.5 15.5t-43 28.5t-36.5 15.5t-40 -5t-54.5 -33z" />
<glyph unicode="&#xe4;" horiz-adv-x="436" d="M4 66q0 43 33 122q14 33 37.5 67t51.5 62.5t57.5 50t58.5 31.5t62.5 6t49.5 -34q20 33 37 36t26 -9.5t11 -32t-4 -31.5q0 10 -2 16q-4 14 -21 0q-23 -18 -39 -55t-28 -74t-19.5 -66.5t-9.5 -35.5q-12 -45 -4 -62.5t29 -11.5q23 6 49.5 30.5t53 56.5t49 63.5t34.5 54.5 l4 -12q-10 -16 -37.5 -55.5t-62.5 -80.5t-73 -72.5t-66 -31.5q-25 0 -32 26.5t9 96.5l18 61q-18 -43 -53 -81t-71.5 -63.5t-71.5 -34.5t-55.5 5.5t-20.5 57.5zM60.5 63.5q19.5 -30.5 59.5 -20.5t91 62.5t90 148.5q39 82 20.5 117t-63.5 24.5t-100.5 -68t-91.5 -161.5 q-25 -72 -5.5 -102.5zM239 499.5q-1 10.5 5 19.5t15 16.5t17 5.5t11.5 -12.5t2.5 -21.5t-10.5 -18.5t-25.5 -3.5q-14 4 -15 14.5zM368 499.5q-1 10.5 4 19.5t15 16.5t16 5.5q8 -2 12.5 -12.5t2.5 -21.5t-10.5 -18.5t-24.5 -3.5q-14 4 -15 14.5z" />
<glyph unicode="&#xe5;" horiz-adv-x="436" d="M4 66q0 43 33 122q14 33 37.5 67t51.5 62.5t57.5 50t58.5 31.5t62.5 6t49.5 -34q20 33 37 36t26 -9.5t11 -32t-4 -31.5q0 10 -2 16q-4 14 -21 0q-23 -18 -39 -55t-28 -74t-19.5 -66.5t-9.5 -35.5q-12 -45 -4 -62.5t29 -11.5q23 6 49.5 30.5t53 56.5t49 63.5t34.5 54.5 l4 -12q-10 -16 -37.5 -55.5t-62.5 -80.5t-73 -72.5t-66 -31.5q-25 0 -32 26.5t9 96.5l18 61q-18 -43 -53 -81t-71.5 -63.5t-71.5 -34.5t-55.5 5.5t-20.5 57.5zM60.5 63.5q19.5 -30.5 59.5 -20.5t91 62.5t90 148.5q39 82 20.5 117t-63.5 24.5t-100.5 -68t-91.5 -161.5 q-25 -72 -5.5 -102.5zM275 495.5q6 26.5 26.5 53t47 44t48.5 11.5q23 -8 18 -37.5t-24.5 -59.5t-49 -49t-54.5 -3q-18 14 -12 40.5zM305 498.5q0 -19.5 9.5 -29.5t27.5 2q31 18 42 43t8 44.5t-16.5 28.5t-29.5 -3q-20 -16 -30.5 -41t-10.5 -44.5z" />
<glyph unicode="&#xe6;" horiz-adv-x="548" d="M-1 59q-1 45 34 131q14 33 37.5 67t51.5 62.5t57.5 50t58.5 31.5q47 20 85.5 -2t36.5 -75q39 45 85.5 65.5t83 19.5t54 -21.5t-1 -56.5t-81 -86t-185.5 -112q0 -45 14.5 -65.5t30.5 -28.5q20 -8 46 -6q37 10 68.5 33.5t58 53.5t49.5 64.5t43 65.5l2 -17l-29 -43.5 t-61.5 -78.5t-85 -75t-99.5 -34h-10q-18 0 -35.5 13.5t-28 39t-10.5 65.5t19 95q-14 -45 -48 -88t-74 -75t-79 -47t-62.5 -3t-24.5 57zM56 63.5q20 -30.5 60 -19.5t91 63.5t90 148.5q31 82 13.5 117t-59.5 22.5t-95.5 -70t-94.5 -159.5q-25 -72 -5 -102.5zM317 147 q104 45 154.5 93.5t62 86.5t-8 57t-56.5 5q-70 -29 -107.5 -96.5t-44.5 -145.5z" />
<glyph unicode="&#xe7;" horiz-adv-x="315" d="M35 149.5q8 47.5 26 88.5q27 59 73 97t89 56q12 4 32.5 9.5t41 5.5t35 -9.5t12.5 -34.5q-4 -35 -31.5 -61.5t-50.5 -44.5q6 14 18.5 43t15.5 54.5t-9.5 39t-53.5 -5.5q-43 -18 -82.5 -70.5t-56.5 -111.5q-14 -49 -12 -83t13 -53.5t29.5 -27.5t39.5 -4q37 8 69.5 30.5 t60.5 53.5t52.5 64.5t42.5 64.5l-2 -23q-4 -6 -22.5 -35.5t-48 -64.5t-68.5 -69.5t-84 -49.5q12 -20 -5.5 -45.5t-29.5 -42.5q57 2 67.5 -24.5t-8 -61.5t-56.5 -68.5t-79 -44.5q27 16 57.5 43t46 54.5t5.5 51.5t-66 36q8 8 20.5 19.5t24 25.5t16.5 28.5t1 28.5 q-55 -16 -84 2.5t-38 55t-1 84z" />
<glyph unicode="&#xe8;" horiz-adv-x="301" d="M17 130q3 44 32 108q23 51 70 98t104 63q43 12 81 0t36 -48t-61.5 -91t-210.5 -129q-2 -45 13 -64.5t32 -25.5q20 -8 45 -4q31 6 62.5 29.5t60 54.5t53 64.5t43.5 64.5l-2 -23q-6 -6 -28.5 -43t-59.5 -77.5t-84 -73.5t-101 -33h-10q-18 2 -36.5 15.5t-30 42t-8.5 72.5z M68 147q104 45 155 94.5t63.5 87.5t-6 57t-55.5 5q-53 -23 -84.5 -62.5t-47 -80.5t-20.5 -71zM133 584q10 12 19.5 4t17.5 -15q37 -33 80 -59.5t94 -36.5q-62 6 -117 31q-4 2 -22.5 11t-36.5 20.5t-30.5 23.5t-4.5 21z" />
<glyph unicode="&#xe9;" horiz-adv-x="301" d="M17 130q3 44 32 108q23 51 70 98t104 63q43 12 81 0t36 -48t-61.5 -91t-210.5 -129q-2 -45 13 -64.5t32 -25.5q20 -8 45 -4q31 6 62.5 29.5t60 54.5t53 64.5t43.5 64.5l-2 -23q-6 -6 -28.5 -43t-59.5 -77.5t-84 -73.5t-101 -33h-10q-18 2 -36.5 15.5t-30 42t-8.5 72.5z M68 147q104 45 155 94.5t63.5 87.5t-6 57t-55.5 5q-53 -23 -84.5 -62.5t-47 -80.5t-20.5 -71zM123 477q47 10 89 34t81 58q8 6 19.5 17.5t21.5 -0.5q8 -10 -2 -21.5t-26.5 -22t-35 -19.5t-26.5 -13q-29 -12 -58.5 -20.5t-62.5 -12.5z" />
<glyph unicode="&#xea;" horiz-adv-x="301" d="M17 130q3 44 32 108q23 51 70 98t104 63q43 12 81 0t36 -48t-61.5 -91t-210.5 -129q-2 -45 13 -64.5t32 -25.5q20 -8 45 -4q31 6 62.5 29.5t60 54.5t53 64.5t43.5 64.5l-2 -23q-6 -6 -28.5 -43t-59.5 -77.5t-84 -73.5t-101 -33h-10q-18 2 -36.5 15.5t-30 42t-8.5 72.5z M63 477q55 12 96.5 42t88.5 65q12 6 24.5 -9.5t26.5 -36t29.5 -42t33.5 -27.5q-31 0 -57 26.5t-49 53.5q-41 -29 -92 -48.5t-101 -23.5zM68 147q104 45 155 94.5t63.5 87.5t-6 57t-55.5 5q-53 -23 -84.5 -62.5t-47 -80.5t-20.5 -71z" />
<glyph unicode="&#xeb;" horiz-adv-x="301" d="M17 130q3 44 32 108q23 51 70 98t104 63q43 12 81 0t36 -48t-61.5 -91t-210.5 -129q-2 -45 13 -64.5t32 -25.5q20 -8 45 -4q31 6 62.5 29.5t60 54.5t53 64.5t43.5 64.5l-2 -23q-6 -6 -28.5 -43t-59.5 -77.5t-84 -73.5t-101 -33h-10q-18 2 -36.5 15.5t-30 42t-8.5 72.5z M68 147q104 45 155 94.5t63.5 87.5t-6 57t-55.5 5q-53 -23 -84.5 -62.5t-47 -80.5t-20.5 -71zM144.5 499.5q-1.5 10.5 5 19.5t15.5 16.5t17 5.5t11.5 -12.5t2.5 -21.5t-10.5 -18.5t-25.5 -3.5q-14 4 -15.5 14.5zM271.5 499.5q-1.5 10.5 5 19.5t16.5 16.5t16 5.5 q8 -2 11.5 -12.5t2.5 -21.5t-10.5 -18.5t-25.5 -3.5q-14 4 -15.5 14.5z" />
<glyph unicode="&#xec;" horiz-adv-x="198" d="M4 28.5q-6 28.5 8 96.5q4 23 15 57q10 29 25.5 73t43.5 103q25 45 42.5 52.5t27.5 -4t13 -34t-3 -34.5q-2 8 -4 14q-4 4 -7 6t-11 -4q-23 -18 -39.5 -55t-28.5 -75t-19.5 -67.5t-7.5 -33.5q-8 -47 0.5 -58.5t28.5 -5.5q25 8 50.5 32t50 51.5t45 56t32.5 51.5v-19 q-16 -29 -44.5 -65.5t-63.5 -73.5q-74 -84 -125 -90q-23 -2 -29 26.5zM57 584q10 12 19.5 4t17.5 -15q37 -33 79 -58.5t95 -37.5q-61 6 -116 31q-4 2 -22.5 11t-37 20.5t-31 23.5t-4.5 21z" />
<glyph unicode="&#xed;" horiz-adv-x="198" d="M4 28.5q-6 28.5 8 96.5q4 23 15 57q10 29 25.5 73t43.5 103q25 45 42.5 52.5t27.5 -4t13 -34t-3 -34.5q-2 8 -4 14q-4 4 -7 6t-11 -4q-23 -18 -39.5 -55t-28.5 -75t-19.5 -67.5t-7.5 -33.5q-8 -47 0.5 -58.5t28.5 -5.5q25 8 50.5 32t50 51.5t45 56t32.5 51.5v-19 q-16 -29 -44.5 -65.5t-63.5 -73.5q-74 -84 -125 -90q-23 -2 -29 26.5zM70 477q47 10 89 34t81 58q8 6 19.5 17.5t21.5 -0.5q8 -10 -2.5 -21.5t-26.5 -22t-34.5 -19.5t-27.5 -13q-29 -12 -58.5 -20.5t-61.5 -12.5z" />
<glyph unicode="&#xee;" horiz-adv-x="198" d="M0 477q55 12 96 42t88 65q12 6 24.5 -9.5t27 -36t30 -42t33.5 -27.5q-31 0 -59.5 27.5t-46.5 52.5q-41 -29 -91.5 -48.5t-101.5 -23.5zM4 28.5q-6 28.5 8 96.5q4 23 15 57q10 29 25.5 73t43.5 103q25 45 42.5 52.5t27.5 -4t13 -34t-3 -34.5q-2 8 -4 14q-4 4 -7 6t-11 -4 q-23 -18 -39.5 -55t-28.5 -75t-19.5 -67.5t-7.5 -33.5q-8 -47 0.5 -58.5t28.5 -5.5q25 8 50.5 32t50 51.5t45 56t32.5 51.5v-19q-16 -29 -44.5 -65.5t-63.5 -73.5q-74 -84 -125 -90q-23 -2 -29 26.5z" />
<glyph unicode="&#xef;" horiz-adv-x="198" d="M4 28.5q-6 28.5 8 96.5q4 23 15 57q10 29 25.5 73t43.5 103q25 45 42.5 52.5t27.5 -4t13 -34t-3 -34.5q-2 8 -4 14q-4 4 -7 6t-11 -4q-23 -18 -39.5 -55t-28.5 -75t-19.5 -67.5t-7.5 -33.5q-8 -47 0.5 -58.5t28.5 -5.5q25 8 50.5 32t50 51.5t45 56t32.5 51.5v-19 q-16 -29 -44.5 -65.5t-63.5 -73.5q-74 -84 -125 -90q-23 -2 -29 26.5zM95.5 499.5q-1.5 10.5 4.5 19.5t15.5 16.5t17.5 5.5q6 -2 10 -12.5t2 -21.5t-10 -18.5t-24 -3.5q-14 4 -15.5 14.5zM222.5 499.5q-1.5 10.5 4.5 19.5t15.5 16.5t17.5 5.5t11 -12.5t2 -21.5t-10 -18.5 t-25 -3.5q-14 4 -15.5 14.5z" />
<glyph unicode="&#xf1;" horiz-adv-x="419" d="M-5 15.5q5 25.5 16.5 68.5t27.5 94t33 92q4 12 11 27.5t11 28.5q6 14 10 30q4 10 -1 14.5t-11 2.5q-8 -2 -18 -8q47 39 63.5 36.5t15.5 -23t-12.5 -50t-19.5 -47.5q8 12 38.5 36.5t67.5 47t71 35t46 -0.5q14 -14 11 -44.5t-13 -69.5t-25.5 -83t-27.5 -87 q-12 -49 -4 -63.5t26.5 -6.5t45 34.5t52 57.5t48 62.5t32.5 50.5l-2 -23q-14 -23 -38.5 -58.5t-55.5 -71.5t-63.5 -63.5t-61.5 -33.5q-31 -6 -41 13.5t-6 49.5q6 33 23.5 83.5t34 97.5t22.5 84t-12 45q-12 2 -40 -13.5t-57.5 -38t-54 -45t-31.5 -30.5q-12 -20 -28.5 -58 t-31.5 -78t-28.5 -72t-19.5 -38q-8 -10 -3 15.5zM147 510q33 33 73 51.5t89 -10.5q47 -25 88 -25t88 35q-18 -14 -36.5 -31.5t-38 -29t-41.5 -12t-47 15.5q-29 18 -47.5 30.5t-36 14.5t-38 -7.5t-53.5 -31.5z" />
<glyph unicode="&#xf2;" horiz-adv-x="333" d="M-6 78q0 35 11 73.5t24 65.5q41 78 112 137q16 14 43 28.5t54.5 22t53 1t40.5 -32.5q12 -23 11 -53.5t-11 -63.5t-25.5 -62.5t-30.5 -52.5q23 6 39.5 14.5t31.5 20.5t31 32.5t34 51.5q4 6 8 2t0 -8q-14 -23 -27.5 -43.5t-30 -35.5t-40 -27.5t-56.5 -20.5q-35 -45 -80 -84 t-110 -43q-45 -4 -63.5 19.5t-18.5 58.5zM52 50q5 -38 46 -36q45 4 77 37t54 70q-41 0 -64.5 15.5t-34.5 42t-10 59t11 67.5q-16 -23 -37.5 -71t-34 -97t-7.5 -87zM140 247q-7 -44 11.5 -79t75.5 -35h9q27 49 43 98.5t20 69.5q10 63 -13.5 81.5t-62.5 2.5q-29 -12 -52.5 -53 t-30.5 -85zM156 584q10 12 20 4t17 -15q35 -33 77.5 -58.5t96.5 -37.5q-62 6 -117 31q-4 2 -22.5 11t-37 20.5t-31 23.5t-3.5 21z" />
<glyph unicode="&#xf3;" horiz-adv-x="333" d="M-6 78q0 35 11 73.5t24 65.5q41 78 112 137q16 14 43 28.5t54.5 22t53 1t40.5 -32.5q12 -23 11 -53.5t-11 -63.5t-25.5 -62.5t-30.5 -52.5q23 6 39.5 14.5t31.5 20.5t31 32.5t34 51.5q4 6 8 2t0 -8q-14 -23 -27.5 -43.5t-30 -35.5t-40 -27.5t-56.5 -20.5q-35 -45 -80 -84 t-110 -43q-45 -4 -63.5 19.5t-18.5 58.5zM52 50q5 -38 46 -36q45 4 77 37t54 70q-41 0 -64.5 15.5t-34.5 42t-10 59t11 67.5q-16 -23 -37.5 -71t-34 -97t-7.5 -87zM140 247q-7 -44 11.5 -79t75.5 -35h9q27 49 43 98.5t20 69.5q10 63 -13.5 81.5t-62.5 2.5q-29 -12 -52.5 -53 t-30.5 -85zM199 477q47 10 89 34t81 58q8 6 19.5 17.5t21.5 -0.5q8 -10 -2.5 -21.5t-26.5 -22t-34.5 -19.5t-27.5 -13q-29 -12 -58.5 -20.5t-61.5 -12.5z" />
<glyph unicode="&#xf4;" horiz-adv-x="333" d="M-6 78q0 35 11 73.5t24 65.5q41 78 112 137q16 14 43 28.5t54.5 22t53 1t40.5 -32.5q12 -23 11 -53.5t-11 -63.5t-25.5 -62.5t-30.5 -52.5q23 6 39.5 14.5t31.5 20.5t31 32.5t34 51.5q4 6 8 2t0 -8q-14 -23 -27.5 -43.5t-30 -35.5t-40 -27.5t-56.5 -20.5q-35 -45 -80 -84 t-110 -43q-45 -4 -63.5 19.5t-18.5 58.5zM52 50q5 -38 46 -36q45 4 77 37t54 70q-41 0 -64.5 15.5t-34.5 42t-10 59t11 67.5q-16 -23 -37.5 -71t-34 -97t-7.5 -87zM129 477q55 12 97 42t89 65q8 6 21.5 -9.5t29 -36t32 -42t32.5 -27.5q-33 0 -60.5 28.5t-47.5 51.5 q-41 -29 -91.5 -48.5t-101.5 -23.5zM140 247q-7 -44 11.5 -79t75.5 -35h9q27 49 43 98.5t20 69.5q10 63 -13.5 81.5t-62.5 2.5q-29 -12 -52.5 -53t-30.5 -85z" />
<glyph unicode="&#xf5;" horiz-adv-x="333" d="M-6 78q0 35 11 73.5t24 65.5q41 78 112 137q16 14 43 28.5t54.5 22t53 1t40.5 -32.5q12 -23 11 -53.5t-11 -63.5t-25.5 -62.5t-30.5 -52.5q23 6 39.5 14.5t31.5 20.5t31 32.5t34 51.5q4 6 8 2t0 -8q-14 -23 -27.5 -43.5t-30 -35.5t-40 -27.5t-56.5 -20.5q-35 -45 -80 -84 t-110 -43q-45 -4 -63.5 19.5t-18.5 58.5zM52 50q5 -38 46 -36q45 4 77 37t54 70q-41 0 -64.5 15.5t-34.5 42t-10 59t11 67.5q-16 -23 -37.5 -71t-34 -97t-7.5 -87zM140 247q-7 -44 11.5 -79t75.5 -35h9q27 49 43 98.5t20 69.5q10 63 -13.5 81.5t-62.5 2.5q-29 -12 -52.5 -53 t-30.5 -85zM143 510q31 31 54.5 43t46 11t49 -12.5t61.5 -25.5q33 -10 66 2.5t61 32.5q-18 -16 -36.5 -35.5t-43.5 -29.5q-29 -16 -50 -8t-40.5 23t-40 29.5t-47.5 10.5q-23 -4 -42 -16.5t-38 -24.5z" />
<glyph unicode="&#xf6;" horiz-adv-x="333" d="M-6 78q0 35 11 73.5t24 65.5q41 78 112 137q16 14 43 28.5t54.5 22t53 1t40.5 -32.5q12 -23 11 -53.5t-11 -63.5t-25.5 -62.5t-30.5 -52.5q23 6 39.5 14.5t31.5 20.5t31 32.5t34 51.5q4 6 8 2t0 -8q-14 -23 -27.5 -43.5t-30 -35.5t-40 -27.5t-56.5 -20.5q-35 -45 -80 -84 t-110 -43q-45 -4 -63.5 19.5t-18.5 58.5zM52 50q5 -38 46 -36q45 4 77 37t54 70q-41 0 -64.5 15.5t-34.5 42t-10 59t11 67.5q-16 -23 -37.5 -71t-34 -97t-7.5 -87zM140 247q-7 -44 11.5 -79t75.5 -35h9q27 49 43 98.5t20 69.5q10 63 -13.5 81.5t-62.5 2.5q-29 -12 -52.5 -53 t-30.5 -85zM216 499.5q-1 10.5 4 19.5t15.5 16.5t16.5 5.5q8 -2 11 -12.5t2 -21.5t-9.5 -18.5t-24.5 -3.5q-14 4 -15 14.5zM343 499.5q-1 10.5 5 19.5t15.5 16.5t17.5 5.5t11 -12.5t2 -21.5t-10.5 -18.5t-25.5 -3.5q-14 4 -15 14.5z" />
<glyph unicode="&#xf8;" horiz-adv-x="333" d="M-23 0q12 27 29 51q-12 43 10 113q18 53 53 102t83 88q14 10 39.5 24.5t53 22t55.5 2t44 -33.5q8 2 21.5 7t29 6t28.5 -1t19 -12q-18 4 -45.5 1t-46.5 -20q8 -27 2 -57.5t-14 -54.5q-16 -47 -48 -91.5t-83 -95.5q-18 -16 -46 -31.5t-56.5 -19.5t-54 4t-42.5 39 q-12 -16 -26 -43q0 -2 -2 -2q-4 0 -3 2zM63 111q-8 -41 1.5 -70t46.5 -27q41 2 74.5 33t59 75t42 93t22.5 86q2 10 2 27q-70 -45 -131 -99.5t-117 -117.5zM70 135q33 47 78 90t94 84q31 25 67 43q-6 31 -25.5 37t-50.5 -4q-35 -12 -61.5 -41t-47 -63.5t-33.5 -73.5t-21 -72z " />
<glyph unicode="&#xf9;" horiz-adv-x="423" d="M-13.5 41q1.5 35 15.5 78t34.5 85t31.5 64q10 23 25.5 51.5t17.5 38.5t-3.5 13.5t-11.5 1.5q-8 -2 -18 -6q45 37 63.5 36.5t19.5 -19.5t-10.5 -49t-21.5 -50q-49 -98 -70.5 -163t0.5 -83q10 -10 41 14.5t66 62.5t67.5 77.5t47.5 60.5q10 23 19 48.5t24 53.5 q23 45 40 52.5t28 -5t14.5 -35t-3.5 -34.5q-2 8 -4 14q-4 4 -7 6t-11 -4q-23 -18 -39 -55t-28.5 -75t-19.5 -67.5t-9 -33.5q-20 -88 24 -74q23 6 41.5 25.5t34.5 35.5q31 33 62.5 74t48.5 70l-2 -23q-16 -29 -45 -65.5t-64 -73.5q-35 -39 -68.5 -66.5t-56.5 -23.5 q-23 -2 -31 25.5t9 97.5l6 24q6 25 24 74q-23 -29 -55.5 -69.5t-67 -76.5t-69.5 -58.5t-62 -16.5q-29 8 -27.5 43zM141 584q10 12 19.5 4t17.5 -15q35 -33 78 -58.5t96 -37.5q-61 6 -116 31q-4 2 -22.5 11t-37 20.5t-31 23.5t-4.5 21z" />
<glyph unicode="&#xfa;" horiz-adv-x="423" d="M-13.5 41q1.5 35 15.5 78t34.5 85t31.5 64q10 23 25.5 51.5t17.5 38.5t-3.5 13.5t-11.5 1.5q-8 -2 -18 -6q45 37 63.5 36.5t19.5 -19.5t-10.5 -49t-21.5 -50q-49 -98 -70.5 -163t0.5 -83q10 -10 41 14.5t66 62.5t67.5 77.5t47.5 60.5q10 23 19 48.5t24 53.5 q23 45 40 52.5t28 -5t14.5 -35t-3.5 -34.5q-2 8 -4 14q-4 4 -7 6t-11 -4q-23 -18 -39 -55t-28.5 -75t-19.5 -67.5t-9 -33.5q-20 -88 24 -74q23 6 41.5 25.5t34.5 35.5q31 33 62.5 74t48.5 70l-2 -23q-16 -29 -45 -65.5t-64 -73.5q-35 -39 -68.5 -66.5t-56.5 -23.5 q-23 -2 -31 25.5t9 97.5l6 24q6 25 24 74q-23 -29 -55.5 -69.5t-67 -76.5t-69.5 -58.5t-62 -16.5q-29 8 -27.5 43zM195 477q45 10 89 34t78 58q8 6 21 17.5t23 -0.5q8 -10 -2.5 -22.5t-28 -23t-35.5 -19.5t-25 -11q-63 -27 -120 -33z" />
<glyph unicode="&#xfb;" horiz-adv-x="423" d="M-13.5 41q1.5 35 15.5 78t34.5 85t31.5 64q10 23 25.5 51.5t17.5 38.5t-3.5 13.5t-11.5 1.5q-8 -2 -18 -6q45 37 63.5 36.5t19.5 -19.5t-10.5 -49t-21.5 -50q-49 -98 -70.5 -163t0.5 -83q10 -10 41 14.5t66 62.5t67.5 77.5t47.5 60.5q10 23 19 48.5t24 53.5 q23 45 40 52.5t28 -5t14.5 -35t-3.5 -34.5q-2 8 -4 14q-4 4 -7 6t-11 -4q-23 -18 -39 -55t-28.5 -75t-19.5 -67.5t-9 -33.5q-20 -88 24 -74q23 6 41.5 25.5t34.5 35.5q31 33 62.5 74t48.5 70l-2 -23q-16 -29 -45 -65.5t-64 -73.5q-35 -39 -68.5 -66.5t-56.5 -23.5 q-23 -2 -31 25.5t9 97.5l6 24q6 25 24 74q-23 -29 -55.5 -69.5t-67 -76.5t-69.5 -58.5t-62 -16.5q-29 8 -27.5 43zM104 477q55 12 96.5 42t88.5 65q10 6 23.5 -9.5t27.5 -36t29.5 -42t33.5 -27.5q-33 0 -60.5 28.5t-47.5 51.5q-41 -29 -91 -48.5t-100 -23.5z" />
<glyph unicode="&#xfc;" horiz-adv-x="423" d="M-13.5 41q1.5 35 15.5 78t34.5 85t31.5 64q10 23 25.5 51.5t17.5 38.5t-3.5 13.5t-11.5 1.5q-8 -2 -18 -6q45 37 63.5 36.5t19.5 -19.5t-10.5 -49t-21.5 -50q-49 -98 -70.5 -163t0.5 -83q10 -10 41 14.5t66 62.5t67.5 77.5t47.5 60.5q10 23 19 48.5t24 53.5 q23 45 40 52.5t28 -5t14.5 -35t-3.5 -34.5q-2 8 -4 14q-4 4 -7 6t-11 -4q-23 -18 -39 -55t-28.5 -75t-19.5 -67.5t-9 -33.5q-20 -88 24 -74q23 6 41.5 25.5t34.5 35.5q31 33 62.5 74t48.5 70l-2 -23q-16 -29 -45 -65.5t-64 -73.5q-35 -39 -68.5 -66.5t-56.5 -23.5 q-23 -2 -31 25.5t9 97.5l6 24q6 25 24 74q-23 -29 -55.5 -69.5t-67 -76.5t-69.5 -58.5t-62 -16.5q-29 8 -27.5 43zM202 499.5q-1 10.5 5 19.5t15 16.5t18 5.5q8 -2 11 -12.5t2 -21.5t-10.5 -18.5t-25.5 -3.5q-14 4 -15 14.5zM331 499.5q-1 10.5 5 19.5t15 16.5t18 5.5 q6 -2 10 -12.5t2 -21.5t-10.5 -18.5t-24.5 -3.5q-14 4 -15 14.5z" />
<glyph unicode="&#x152;" horiz-adv-x="2590" d="M177 292q11 122 45 240.5t75 215.5q88 209 224 392t337 312q96 59 203.5 101t222.5 40q102 0 188.5 -44t151.5 -130q-72 92 -178.5 133t-228.5 23q-115 -16 -217.5 -66.5t-192.5 -119.5q-90 -70 -165 -157t-134 -185.5t-106.5 -206t-84.5 -217.5q-25 -78 -44 -175.5 t-24 -197.5t9 -194.5t58 -163t125 -102.5t206 -15q109 14 203 63t176 123t153.5 165t135.5 191q16 35 33.5 71t42.5 73q10 23 19 44t20 44q-66 -47 -151 -90t-175 -63.5t-180 -8.5t-166 78q-68 57 -93.5 136t-20.5 165t35 170t71 156q39 70 92 136t118.5 121.5t142.5 92.5 t163 47q119 10 204.5 -42t122.5 -175q16 66 60.5 119t104 92t128 65.5t133.5 40.5q63 14 101.5 12t50.5 -10q16 -10 11 -22.5t-20.5 -22.5t-33 -18t-25.5 -10q10 0 21.5 16t9.5 27q-4 23 -42 24.5t-86 -9.5t-96 -27.5t-75 -30.5q-41 -20 -81 -52t-70.5 -72t-48 -87 t-11.5 -99q4 -39 25.5 -66.5t51.5 -47t65.5 -31.5t68.5 -21q14 27 28.5 63t14.5 77q0 18 -9 27.5t-21.5 10.5t-27 -4.5t-26.5 -17.5q12 27 36.5 55.5t55.5 32.5q29 4 37 -13.5t5 -43t-12 -51t-13 -37.5q-10 -27 -22.5 -51.5t-27.5 -51.5q29 -4 55.5 -6t53.5 -2q-10 41 -1 83 t26 79q35 74 118.5 146.5t188 127t213 83t192.5 16.5q57 -8 82 -50t2 -102q-18 -49 -54 -90t-77 -74q-131 -104 -296 -158.5t-337 -76.5q4 -10 23.5 -31.5t34.5 -17.5q90 35 187 59.5t202 28.5h20.5t28.5 -2t25.5 -7.5t11.5 -17.5q0 -27 -24.5 -43t-43.5 -27 q-45 -23 -99 -38t-112.5 -21t-115 1t-105.5 30l-6 3t-6 -1q-47 -23 -90 -43.5t-90 -52.5q-92 -55 -175 -126t-151 -154t-118 -178t-77 -202q-23 -86 -22.5 -166t30 -140.5t94 -97t173.5 -36.5q57 2 113.5 13t111.5 30q-66 72 -91.5 162t-18 184t42 189.5t92 179t132.5 149.5 t158 102q45 20 100.5 35t110 16t103.5 -17.5t84 -63.5q31 -39 38 -85t0 -95.5t-24.5 -97.5t-38.5 -89q-45 -98 -112.5 -180t-147.5 -152q-84 -72 -177 -130t-196 -101q78 -78 184.5 -105.5t213.5 -19.5q111 8 215 43t203 86q86 43 162.5 97.5t148.5 117.5q2 -2 3 -4t3 -4 q-76 -66 -158 -124t-171 -105.5t-183 -80t-195 -46.5q-131 -16 -249.5 11t-221.5 115q-59 -23 -134 -41t-150.5 -19t-144 23.5t-117.5 88.5q-29 39 -42.5 85t-15.5 95t6.5 100t20.5 101q-94 -129 -209 -232q-47 -41 -108.5 -83t-133 -74.5t-147.5 -54t-147.5 -19.5 t-137 29.5t-117.5 91.5q-68 86 -87 200.5t-8 236.5zM698 676q18 -100 92.5 -168t178.5 -82q37 -4 94 0t122.5 21.5t133 50t123.5 86.5q16 16 31.5 64t30 105.5t24.5 113t14 83.5q8 49 13.5 108.5t2 121t-18.5 119t-50 102.5q-35 41 -81 58.5t-97 17.5t-102.5 -15.5 t-94.5 -36.5q-90 -45 -173 -126.5t-143.5 -184t-89 -216.5t-10.5 -222zM1509 627q96 74 175.5 173t138.5 216q-59 10 -116.5 34.5t-92.5 77.5v-49q-4 -117 -34 -229.5t-71 -222.5zM1630 721q88 72 188.5 127t204.5 96q-16 10 -32.5 29t-20.5 37q-31 0 -59.5 -2t-69.5 4 q-47 -74 -95 -146.5t-116 -144.5zM1774 109.5q0 -78.5 24.5 -159.5t85.5 -157q115 47 219.5 120t190.5 167t146.5 205.5t84.5 234.5q12 55 1 101.5t-40.5 79t-76 50t-103.5 15.5q-53 -2 -103.5 -17.5t-96.5 -41t-86.5 -60.5t-73.5 -74q-18 -23 -48 -68.5t-58 -107 t-47 -135.5t-19 -152.5zM2008 1060q1 -16 5 -30q88 2 193.5 32t206 81t186.5 118.5t135 143.5q29 47 21.5 92t-74.5 55q-59 10 -129 -3t-140.5 -43.5t-137 -77t-122 -100.5t-93.5 -115.5t-50 -122.5q-2 -14 -1 -30zM2095 954q4 -2 7 -3t7 -3q74 -27 162 -24.5t168 28.5 q23 8 48.5 18.5t41.5 28.5q27 27 8.5 36t-53.5 9t-69.5 -5t-38.5 -5q-143 -25 -281 -80z" />
<glyph unicode="&#x153;" horiz-adv-x="550" d="M4 59q-12 39 10 105q41 111 136 190q16 14 41.5 27.5t53 20t53.5 1t42 -29.5q8 -12 10 -26.5t2 -31.5q39 47 87 70t85 23t56.5 -19.5t2 -56.5t-80 -88t-187.5 -113q0 -45 14.5 -64.5t30.5 -27.5q20 -8 46 -6q37 8 67.5 30.5t58 53t50.5 65.5t41 66l4 -15q-10 -18 -35 -57 t-60.5 -78t-82 -68.5t-97.5 -29.5q-43 0 -64.5 33t-25.5 80q-12 -16 -26.5 -30.5t-30.5 -31.5q-41 -37 -83 -47t-74 3t-44 52zM58.5 47q7.5 -35 47.5 -33q45 4 77 37t55 70q31 59 48 109.5t21 70.5q8 59 -9 77.5t-47 11.5t-61.5 -32.5t-50.5 -52.5q-18 -29 -41.5 -78 t-35 -97t-4 -83zM317 147q104 45 154.5 93.5t62 86.5t-8 56t-56.5 4q-53 -23 -83 -61.5t-46 -79.5q-18 -47 -23 -99z" />
<glyph unicode="&#x2000;" horiz-adv-x="930" />
<glyph unicode="&#x2001;" horiz-adv-x="1860" />
<glyph unicode="&#x2002;" horiz-adv-x="930" />
<glyph unicode="&#x2003;" horiz-adv-x="1860" />
<glyph unicode="&#x2004;" horiz-adv-x="620" />
<glyph unicode="&#x2005;" horiz-adv-x="465" />
<glyph unicode="&#x2006;" horiz-adv-x="310" />
<glyph unicode="&#x2007;" horiz-adv-x="310" />
<glyph unicode="&#x2008;" horiz-adv-x="232" />
<glyph unicode="&#x2009;" horiz-adv-x="372" />
<glyph unicode="&#x200a;" horiz-adv-x="103" />
<glyph unicode="&#x2010;" horiz-adv-x="837" d="M203 195q51 35 112.5 53t125 22t126 -3t117.5 -21q-61 -6 -123.5 -9.5t-126.5 -7.5q-59 -4 -116.5 -9t-114.5 -25z" />
<glyph unicode="&#x2011;" horiz-adv-x="837" d="M203 195q51 35 112.5 53t125 22t126 -3t117.5 -21q-61 -6 -123.5 -9.5t-126.5 -7.5q-59 -4 -116.5 -9t-114.5 -25z" />
<glyph unicode="&#x2012;" horiz-adv-x="837" d="M203 195q51 35 112.5 53t125 22t126 -3t117.5 -21q-61 -6 -123.5 -9.5t-126.5 -7.5q-59 -4 -116.5 -9t-114.5 -25z" />
<glyph unicode="&#x2013;" horiz-adv-x="1380" d="M203 195q109 35 239.5 53t266 22t268.5 -3t250 -21q-130 -6 -263 -9.5t-269 -7.5q-126 -4 -248.5 -9t-243.5 -25z" />
<glyph unicode="&#x2014;" horiz-adv-x="2404" d="M203 195q217 35 479 53t532.5 22t536.5 -3t500 -21q-260 -6 -526 -9.5t-538 -7.5q-252 -4 -496.5 -9t-487.5 -25z" />
<glyph unicode="&#x202f;" horiz-adv-x="372" />
<glyph unicode="&#x205f;" horiz-adv-x="465" />
<glyph unicode="&#x25fc;" horiz-adv-x="419" d="M0 0v420h420v-420h-420z" />
</font>
</defs>
</svg>
