<?xml version="1.0" standalone="no"?>
<!DOCTYPE svg PUBLIC "-//W3C//DTD SVG 1.1//EN" "http://www.w3.org/Graphics/SVG/1.1/DTD/svg11.dtd" >
<svg xmlns="http://www.w3.org/2000/svg">
<metadata>
This is a custom SVG webfont generated by Font Squirrel.
Copyright   : URW Software Copyright 1994 by URW
</metadata>
<defs>
<font id="AvantGarGotItcTEEDemRegular" horiz-adv-x="1024" >
<font-face units-per-em="2048" ascent="1592" descent="-456" />
<missing-glyph horiz-adv-x="512" />
<glyph unicode=" "  horiz-adv-x="512" />
<glyph unicode="&#x09;" horiz-adv-x="512" />
<glyph unicode="&#xa0;" horiz-adv-x="512" />
<glyph unicode="!" horiz-adv-x="532" d="M143 0v235h246v-235h-246zM143 348v1017h246v-1017h-246z" />
<glyph unicode="&#x22;" horiz-adv-x="495" d="M57 1365h155l-16 -425h-123zM282 1365h155l-16 -425h-122z" />
<glyph unicode="#" d="M51 434l23 163h176l24 171h-176l23 163h176l43 308h161l-43 -308h184l44 308h161l-44 -308h170l-23 -163h-170l-24 -171h170l-23 -163h-169l-44 -307h-161l44 307h-185l-43 -307h-161l43 307h-176zM411 597h185l24 171h-185z" />
<glyph unicode="$" d="M71 435q0 7 1 25h243q3 -52 26 -87q48 -71 138 -71q70 0 117 45t47 112q0 90 -69 132q-29 18 -134 47q-126 35 -209 107q-107 94 -107 259q0 125 67.5 216.5t185.5 123.5v237h232v-241q101 -33 164 -116.5t74 -198.5h-231q-34 112 -124 112q-51 0 -86.5 -37t-35.5 -89 q0 -70 61 -109q25 -17 46.5 -25t122.5 -39q289 -90 289 -377q0 -168 -114 -281q-70 -68 -166 -94v-244h-232v243q-101 28 -164 77q-65 51 -103.5 124.5t-38.5 148.5z" />
<glyph unicode="%" horiz-adv-x="1658" d="M70 1063q0 137 98 232t235 97q137 0 235 -97q97 -98 97 -236t-97 -236q-98 -97 -235 -97q-138 0 -235 97q-98 98 -98 240zM275 1062q0 -56 37 -94.5t91 -38.5q52 0 89.5 38.5t37.5 93.5t-37 93.5t-91 39.5q-52 0 -89.5 -39t-37.5 -93zM456 0l565 1365h177l-565 -1365 h-177zM922 311q0 137 98 232q98 96 236 98q137 0 235 -98q98 -97 98 -236t-98 -236q-98 -98 -235 -98q-138 0 -236 98q-98 97 -98 240zM1126 309q0 -58 37.5 -98t92.5 -40q53 0 90.5 40t37.5 96q0 57 -37 96t-92 40q-53 0 -91 -39.5t-38 -94.5z" />
<glyph unicode="&#x26;" horiz-adv-x="1260" d="M70 406q0 124 60.5 215t196.5 171q-72 83 -89 122q-27 64 -27 126q0 138 82 232q106 120 266 120q162 0 267 -115q85 -93 85 -221q0 -215 -216 -336l126 -141l133 227h273l-235 -413l241 -262l-179 -158l-187 205q-151 -206 -348 -206q-171 0 -304 116q-145 126 -145 318 zM316 394q0 -82 53 -132q53 -51 135 -51q57 0 101 35.5t90 117.5l-213 231q-166 -75 -166 -201zM446 1047q0 -39 27 -81q11 -16 38 -47q26 -30 30 -30q19 0 47 19.5t40 31.5t21 23q29 32 29 81q0 53 -32 84.5t-86 31.5q-48 0 -81 -32.5t-33 -80.5z" />
<glyph unicode="'" horiz-adv-x="270" d="M57 1365h155l-16 -425h-123z" />
<glyph unicode="(" horiz-adv-x="633" d="M70 510q0 289 125 537q74 146 160.5 233t223.5 154v-263q-87 -81 -145 -189q-112 -209 -112 -471t121 -484q61 -112 136 -174v-263q-90 35 -149 80.5t-124 129.5q-118 151 -181 348q-55 174 -55 362z" />
<glyph unicode=")" horiz-adv-x="633" d="M55 -147q87 81 145 189q112 209 112 471t-121 484q-61 112 -136 174v263q90 -35 149 -80.5t124 -129.5q118 -151 181 -348q55 -174 55 -362q0 -289 -125 -537q-74 -146 -160.5 -233t-223.5 -154v263z" />
<glyph unicode="*" horiz-adv-x="894" d="M96 1051l52 157l220 -80l-5 237h170l-8 -238l220 80l54 -157l-225 -70l141 -188l-133 -99l-138 195l-136 -194l-133 99l145 188z" />
<glyph unicode="+" d="M75 591v184h345v345h184v-345h345v-184h-345v-345h-184v345h-345z" />
<glyph unicode="," horiz-adv-x="478" d="M116 0v246h246v-260q0 -66 -18 -110t-60 -79q-66 -57 -154 -57q-3 0 -12 1v124q59 12 83 35.5t24 69.5q0 16 -1 30h-108z" />
<glyph unicode="-" horiz-adv-x="512" d="M0 423v205h512v-205h-512z" />
<glyph unicode="." horiz-adv-x="478" d="M116 0v246h246v-246h-246z" />
<glyph unicode="/" horiz-adv-x="846" d="M-46 -341l637 1706h174l-637 -1706h-174z" />
<glyph unicode="0" d="M57 442v491q0 227 155 353q130 106 300 106q197 0 332 -135q122 -123 122 -324v-502q0 -212 -140 -341q-127 -117 -309 -117q-124 0 -232 58q-228 121 -228 411zM303 449q0 -128 69 -188q64 -56 146 -56q90 0 149 64q57 61 57 172v494q0 103 -83 176q-56 49 -128 49 q-91 0 -154 -71q-56 -64 -56 -160v-480z" />
<glyph unicode="1" d="M264 1133v232h418v-1365h-246v1133h-172z" />
<glyph unicode="2" d="M58 942q0 175 120 307q130 143 329 143q195 0 326 -136q125 -131 125 -312q0 -173 -121 -315q-83 -96 -142 -149l-278 -248h541v-232h-884v232l487 454q80 74 115.5 138t35.5 132q0 103 -70 160q-55 44 -129 44q-126 0 -183 -116q-23 -45 -24 -148h-246q-2 33 -2 46z" />
<glyph unicode="3" d="M27 412h247q8 -78 58 -134q66 -73 161 -73q89 0 153.5 65.5t64.5 156.5q0 104 -73 165.5t-198 61.5h-40v232h43q73 0 119 32q52 37 52 114q0 56 -36 92t-93 36q-100 0 -113 -125h-247q7 86 27 137.5t65 99.5q113 120 271 120q151 0 259 -107q112 -110 112 -262 q0 -79 -28 -136t-91 -104q62 -26 96 -55t64 -82q57 -99 57 -217q0 -186 -126 -315q-139 -141 -343 -141q-189 0 -320 125t-141 314z" />
<glyph unicode="4" d="M4 205v200l627 960h207v-928h145v-232h-145v-205h-246v205h-588zM267 437h325v514z" />
<glyph unicode="5" d="M21 406h245q18 -95 75.5 -148t142.5 -53q102 0 168 71t66 172q0 102 -75 176q-65 64 -156 64q-104 0 -185 -97l-219 60l129 714h618v-232h-434l-44 -252q88 39 174 39q73 0 149.5 -29.5t131.5 -79.5q69 -62 111 -159q45 -101 45 -203q0 -184 -124 -322 q-138 -154 -350 -154q-221 0 -366 177q-96 117 -102 256z" />
<glyph unicode="6" d="M38 457q0 160 88 294l403 614h289l-304 -463q45 5 68 5q162 0 283 -128q121 -129 121 -315q0 -191 -118 -328q-60 -69 -142 -111q-101 -52 -212 -52q-89 0 -177.5 35t-151.5 95q-68 65 -107.5 160t-39.5 194zM284 447q0 -101 66 -171.5t161 -70.5t160 66q69 71 69 170 q0 94 -58 160q-68 79 -174 81q-96 0 -160 -70q-64 -68 -64 -165z" />
<glyph unicode="7" d="M120 1133v232h804v-232l-493 -1133h-273l510 1133h-548z" />
<glyph unicode="8" d="M56 425q0 134 81 239q46 60 122 96q-65 66 -93 125t-28 131q0 70 30.5 142.5t80.5 124.5q107 109 263 109q162 0 276 -117q103 -105 103 -256q0 -81 -29 -142t-94 -117q75 -42 112 -85q88 -101 88 -255q0 -180 -127 -309q-64 -65 -151 -101.5t-180 -36.5q-182 0 -311 120 q-59 55 -96 134q-47 97 -47 198zM301 417q0 -95 70 -158q60 -54 141 -54q94 0 157 70q54 60 54 140q0 93 -70 157q-56 51 -138 54q-96 0 -160 -70q-54 -59 -54 -139zM370 1014q0 -61 42.5 -103.5t102.5 -42.5t102.5 42.5t42.5 102.5q0 59 -41 101t-102 44q-66 0 -110 -48 q-37 -41 -37 -96z" />
<glyph unicode="9" d="M40 904q0 214 142 355q134 133 326 133q210 0 355 -154q122 -131 122 -319q0 -173 -119 -354l-372 -565h-288l301 459q-33 -2 -49 -2q-72 0 -148 29t-130 77q-66 59 -103 149t-37 192zM279 914q0 -105 77 -174q66 -60 156 -60q104 0 173 77q60 67 60 156q0 101 -77 172 q-62 57 -152 60q-107 0 -177 -77q-60 -66 -60 -154z" />
<glyph unicode=":" horiz-adv-x="478" d="M116 0v246h246v-246h-246zM116 778v246h246v-246h-246z" />
<glyph unicode=";" horiz-adv-x="478" d="M116 0v246h246v-260q0 -66 -18 -110t-60 -79q-66 -57 -154 -57q-3 0 -12 1v124q59 12 83 35.5t24 69.5q0 16 -1 30h-108zM116 778v246h246v-246h-246z" />
<glyph unicode="&#x3c;" d="M68 593v206l887 446v-243l-627 -307l627 -307v-242z" />
<glyph unicode="=" d="M75 435v171h874v-171h-874zM75 760v171h874v-171h-874z" />
<glyph unicode="&#x3e;" d="M68 145v244l627 306l-627 307v242l887 -446v-207z" />
<glyph unicode="?" horiz-adv-x="930" d="M27 966q13 171 89 266q55 70 144 113q97 47 192 47q170 0 292 -124q120 -123 120 -303q0 -89 -43 -164t-144 -164q-51 -44 -68.5 -66.5t-32.5 -60.5q-18 -47 -18 -102q0 -22 2 -63h-244q-3 38 -3 53q0 146 68 260q24 40 47.5 63.5t108.5 94.5q81 67 81 157q0 86 -52 132 q-48 42 -121 42q-92 0 -138 -66q-21 -30 -34 -115h-246zM316 0v246h246v-246h-246z" />
<glyph unicode="@" horiz-adv-x="1557" d="M93 672q0 205 109 383q104 171 282 261q152 76 332 76q265 0 445 -155q103 -88 157 -215q46 -110 46 -233q0 -184 -95 -322q-49 -72 -112.5 -112.5t-126.5 -40.5q-62 0 -104 33t-54 91q-44 -67 -111.5 -104t-147.5 -37q-121 0 -203 90q-84 93 -84 231q0 170 117 299 q101 111 240 111q144 0 208 -119l19 97h160l-76 -394q-14 -71 -14 -92q0 -76 57 -76q55 0 105 71q82 117 82 273q0 209 -146 338q-139 123 -355 123q-242 0 -405 -165q-169 -170 -169 -414q0 -240 158 -402q148 -152 413 -152q210 0 387 66l37 -144q-184 -66 -425 -66 q-315 0 -511 186q-103 99 -160 238q-55 134 -55 276zM610 626q0 -67 33 -110q42 -56 115 -56q90 0 148 91q43 68 43 147q0 73 -39 117.5t-104 45.5q-79 0 -137.5 -70t-58.5 -165z" />
<glyph unicode="A" horiz-adv-x="1334" d="M-3 0l569 1365h198l572 -1365h-279l-146 352h-484l-151 -352h-279zM519 588h292l-146 420z" />
<glyph unicode="B" horiz-adv-x="1075" d="M126 0v1365h270q155 0 232 -14.5t142 -55.5q73 -46 117 -124q45 -81 45 -165q0 -88 -37 -151.5t-114 -109.5q233 -84 233 -339q0 -213 -178 -329q-118 -77 -345 -77h-365zM379 236h128q124 0 187 44q67 47 67 134t-65.5 135.5t-183.5 48.5h-133v-362zM379 834h84 q105 0 154 29q28 16 45.5 49.5t17.5 68.5q0 71 -51 109.5t-145 38.5h-105v-295z" />
<glyph unicode="C" horiz-adv-x="1448" d="M64 688q0 294 217 504q207 200 489 200q253 0 450 -160q73 -59 115 -114.5t80 -142.5h-287q-157 181 -367 181q-122 0 -234 -75q-109 -72 -165 -193q-45 -98 -45 -203q0 -197 142 -340q135 -136 312 -136q98 0 177 39t166 132h293q-66 -154 -206 -261 q-191 -146 -425 -146q-274 0 -479 190q-102 94 -161 215q-72 147 -72 310z" />
<glyph unicode="D" horiz-adv-x="1285" d="M126 0v1365h310q307 0 481 -103q140 -82 223 -245q81 -161 81 -338q0 -245 -145 -435q-97 -128 -247.5 -186t-386.5 -58h-316zM379 236h54q120 0 194.5 15t137.5 52q100 60 155 166q49 95 49 207q0 160 -93 283q-69 91 -173 130.5t-276 39.5h-48v-893z" />
<glyph unicode="E" horiz-adv-x="942" d="M126 0v1365h735v-236h-482v-333h461v-236h-461v-324h482v-236h-735z" />
<glyph unicode="F" horiz-adv-x="871" d="M126 0v1365h695v-236h-442v-333h421v-236h-421v-560h-253z" />
<glyph unicode="G" horiz-adv-x="1583" d="M64 682q0 224 134 409q119 164 312 244q138 57 282 57q134 0 262 -48.5t226 -136.5q127 -115 173 -242h-302q-59 90 -156 140.5t-208 50.5q-205 0 -338 -141q-60 -64 -96 -155.5t-36 -179.5q0 -143 85 -269q76 -113 202 -165q90 -37 196 -37q129 0 237 67t166 183h-572 v236h890q1 -22 1 -30q0 -183 -99 -346q-99 -162 -272 -255q-169 -91 -353 -91q-190 0 -366 95q-172 92 -270 259t-98 355z" />
<glyph unicode="H" horiz-adv-x="1245" d="M126 0v1365h253v-555h488v555h253v-1365h-253v574h-488v-574h-253z" />
<glyph unicode="I" horiz-adv-x="504" d="M126 0v1365h253v-1365h-253z" />
<glyph unicode="J" horiz-adv-x="861" d="M0 321h252q25 -112 121 -112q58 0 90.5 43t32.5 120v993h253v-976q0 -95 -18 -158t-62 -120q-108 -138 -292 -138q-172 0 -289 124q-43 45 -62 93.5t-26 130.5z" />
<glyph unicode="K" horiz-adv-x="1094" d="M126 0v1365h253v-590l430 590h298l-515 -671l515 -694h-298l-430 599v-599h-253z" />
<glyph unicode="L" horiz-adv-x="829" d="M126 0v1365h253v-1129h416v-236h-669z" />
<glyph unicode="M" horiz-adv-x="1678" d="M126 0v1365h351l364 -1034l362 1034h350v-1365h-253v1024l-354 -1024h-214l-353 1024v-1024h-253z" />
<glyph unicode="N" horiz-adv-x="1360" d="M126 0v1365h288l568 -993v993h253v-1365h-283l-573 992v-992h-253z" />
<glyph unicode="O" horiz-adv-x="1555" d="M64 690q0 190 104 362q103 169 285 262q148 76 325 78q200 0 373 -105q172 -105 263 -283q77 -152 77 -322q0 -200 -105 -370q-105 -171 -284 -261q-153 -78 -322 -78q-203 0 -375 104q-171 104 -263 282q-78 152 -78 331zM317 687q0 -202 137 -341q135 -137 326 -137 q188 0 322 136q136 140 136 337q0 95 -36 184t-101 153q-135 134 -323 137q-190 0 -325 -138q-64 -65 -100 -153t-36 -178z" />
<glyph unicode="P" horiz-adv-x="1035" d="M126 0v1365h344q146 0 214.5 -13t130.5 -53q184 -119 184 -348q0 -131 -65 -239q-86 -145 -242 -178q-62 -13 -225 -13h-88v-521h-253zM379 757h81q114 0 170 20q51 19 84 67t33 105t-32 101t-86 63q-46 16 -159 16h-91v-372z" />
<glyph unicode="Q" horiz-adv-x="1581" d="M64 685q0 320 236 526q208 181 486 181q212 0 391 -111q188 -116 277 -309q62 -134 62 -284q0 -139 -36 -237.5t-127 -212.5q72 -37 147 -37q15 0 41 3v-231q-23 -1 -35 -1q-88 0 -161 25.5t-160 85.5q-73 -51 -178 -80.5t-213 -29.5q-275 0 -479 173q-251 213 -251 539z M316 688q0 -25 4 -71q85 25 196 25q119 0 220.5 -30t223.5 -101q127 -74 190 -135q62 73 88 143.5t26 162.5q0 189 -131 326q-141 148 -344 148q-191 0 -328 -135q-61 -61 -99 -141q-46 -97 -46 -192zM401 418q149 -209 390 -209q104 0 180 47q-245 180 -450 180 q-55 0 -120 -18z" />
<glyph unicode="R" horiz-adv-x="1104" d="M126 0v1365h418q122 0 203.5 -24.5t144.5 -79.5q145 -128 145 -318q0 -97 -38.5 -187.5t-104.5 -148.5q-78 -69 -214 -103l370 -504h-306l-365 522v-522h-253zM379 713h162q123 0 187 64q56 57 56 146q0 94 -65.5 150t-176.5 56h-163v-416z" />
<glyph unicode="S" horiz-adv-x="987" d="M34 392h265q2 -84 52.5 -133.5t134.5 -49.5q81 0 132.5 48.5t51.5 123.5q0 73 -41.5 118.5t-143.5 82.5q-147 53 -195.5 77.5t-91.5 67.5q-115 113 -115 277q0 153 108 264q120 124 293 124q90 0 173.5 -39.5t142.5 -108.5q81 -98 88 -240h-261q-6 71 -46 111.5 t-104 40.5q-65 0 -103.5 -37.5t-38.5 -100.5q0 -68 52 -110q41 -33 177 -80q159 -55 234 -126q124 -116 124 -287q0 -183 -125 -308q-135 -134 -318 -134q-103 0 -198.5 45t-156.5 123q-83 106 -90 251z" />
<glyph unicode="T" horiz-adv-x="796" d="M19 1129v236h758v-236h-252v-1129h-253v1129h-253z" />
<glyph unicode="U" horiz-adv-x="1200" d="M112 498v867h253v-867q0 -76 8.5 -116t33.5 -77q65 -97 192 -97q61 0 113 25.5t81 69.5q24 35 33 77.5t9 117.5v867h253v-867q0 -224 -93 -341q-66 -83 -163 -132q-106 -53 -230 -53q-157 0 -285 84q-108 71 -156.5 175t-48.5 267z" />
<glyph unicode="V" horiz-adv-x="1241" d="M-14 1365h266l367 -1038l369 1038h266l-529 -1365h-207z" />
<glyph unicode="W" horiz-adv-x="1697" d="M25 1365h259l238 -954l236 954h185l231 -954l239 954h260l-398 -1365h-201l-223 903l-227 -903h-200z" />
<glyph unicode="X" horiz-adv-x="1213" d="M-14 0l470 680l-470 685h300l319 -476l328 476h293l-473 -685l473 -680h-293l-328 472l-319 -472h-300z" />
<glyph unicode="Y" horiz-adv-x="1124" d="M-14 1365h278l297 -628l299 628h278l-450 -861v-504h-253v504z" />
<glyph unicode="Z" horiz-adv-x="935" d="M45 0v207l524 922h-495v236h789v-219l-518 -910h553v-236h-853z" />
<glyph unicode="[" horiz-adv-x="633" d="M109 212v659q0 222 100.5 362t302.5 201v-257q-52 -21 -79 -45.5t-42 -64.5q-35 -87 -36 -249v-650q0 -139 37 -215t120 -108v-255q-194 39 -311 219q-91 145 -92 403z" />
<glyph unicode="\" horiz-adv-x="846" d="M82 1365h174l637 -1706h-174z" />
<glyph unicode="]" horiz-adv-x="633" d="M121 -153q52 21 79 45.5t43 64.5q34 87 35 249v650q0 139 -37 215t-120 108v255q193 -39 311 -219q91 -145 92 -403v-659q0 -222 -100.5 -362t-302.5 -201v257z" />
<glyph unicode="^" d="M17 696l334 677h322l335 -677h-258l-238 481l-238 -481h-257z" />
<glyph unicode="_" d="M0 -101h1024v-221h-1024v221z" />
<glyph unicode="`" d="M209 1392l116 158l354 -295l-106 -135z" />
<glyph unicode="a" horiz-adv-x="1255" d="M61 517q0 224 143 379q149 162 369 162q141 0 265 -90q51 -38 79 -74v130h225v-1024h-225v126q-23 -27 -82 -68q-132 -92 -276 -92q-149 0 -272 84q-126 85 -184 235q-42 108 -42 232zM307 507q0 -120 73 -209q89 -108 231 -108q134 0 219 96q80 91 80 226q0 140 -80 226 q-88 93 -220 95q-138 0 -224 -101q-36 -43 -57.5 -104.5t-21.5 -120.5z" />
<glyph unicode="b" horiz-adv-x="1253" d="M112 1365h246v-435q124 128 320 128q143 0 272 -81q121 -77 185 -218q57 -123 57 -249q0 -96 -33 -192t-92 -169q-145 -183 -384 -183q-105 0 -187 37t-159 120v-123h-225v1365zM342 517q0 -158 111 -253q85 -73 199 -73q127 0 211 91q83 90 83 232q0 135 -80 222 q-88 95 -219 97q-128 0 -216 -91q-89 -92 -89 -225z" />
<glyph unicode="c" horiz-adv-x="1153" d="M61 516q0 239 179 400q157 142 365 142q215 0 374 -148q53 -50 83 -98.5t56 -127.5h-276q-46 80 -101.5 114.5t-136.5 34.5q-111 0 -194 -72q-103 -89 -103 -249q0 -141 93 -234q85 -87 215 -87q139 0 227 142h276q-57 -157 -169 -247q-69 -56 -160.5 -88t-182.5 -32 q-154 0 -296 90q-124 79 -189 209q-60 117 -60 251z" />
<glyph unicode="d" horiz-adv-x="1252" d="M61 510q0 233 155 391q73 75 174 117q95 40 186 40q85 0 172.5 -34.5t145.5 -90.5v432h246v-1365h-226v124q-57 -71 -154 -114.5t-196 -43.5q-93 0 -185 41t-163 114q-155 159 -155 389zM307 514q0 -145 104 -243q86 -80 199 -80q118 0 203 84q98 96 98 236 q0 130 -84 223q-87 96 -218 98q-132 0 -223 -107q-79 -93 -79 -211z" />
<glyph unicode="e" horiz-adv-x="1192" d="M61 511q0 174 99 320q81 119 207 180q111 54 233 54q247 0 404 -192q126 -155 126 -346q0 -49 -14 -124h-796q25 -91 103 -151.5t171 -60.5q148 0 228 133h271q-39 -129 -153 -229q-147 -129 -338 -129q-158 0 -291 84q-130 82 -196 223q-54 113 -54 238zM313 601h577 q-22 97 -92 165q-77 74 -195 74q-106 0 -185.5 -65.5t-104.5 -173.5z" />
<glyph unicode="f" horiz-adv-x="573" d="M63 799v225h87q14 159 83 246q45 57 112 89.5t140 32.5q29 0 68 -3v-239q-92 -2 -122 -26t-35 -100h144v-225h-144v-799h-246v799h-87z" />
<glyph unicode="g" horiz-adv-x="1264" d="M61 521q0 225 155 381q70 70 163 111q102 45 206 45q217 0 342 -160v126h225v-837q0 -252 -123 -402q-77 -94 -187 -147q-115 -55 -250 -55q-176 0 -314.5 91t-200.5 248h280q99 -115 250 -115q134 0 221.5 89.5t95.5 232.5q-136 -163 -338 -163q-143 0 -280 88 q-122 78 -187 213q-58 122 -58 254zM307 519q0 -125 71 -214q43 -53 106 -83.5t129 -30.5q117 0 201 88q93 97 93 229q0 146 -97 239q-87 85 -205 86q-119 0 -207 -88q-91 -90 -91 -226z" />
<glyph unicode="h" horiz-adv-x="1125" d="M112 0v1365h246v-412q113 105 265 105q90 0 179 -46t143 -120q41 -57 58 -128.5t17 -185.5v-578h-246v523q0 179 -59 248q-53 62 -150 62q-115 0 -170 -101q-37 -67 -37 -212v-520h-246z" />
<glyph unicode="i" horiz-adv-x="470" d="M112 0v1024h246v-1024h-246zM112 1140v225h246v-225h-246z" />
<glyph unicode="j" horiz-adv-x="470" d="M10 -102q61 8 78 29q15 20 19.5 43t4.5 80v974h246v-981q0 -171 -95.5 -276.5t-252.5 -107.5v239zM112 1143v222h246v-222h-246z" />
<glyph unicode="k" horiz-adv-x="1006" d="M112 0v1365h246v-823l329 482h284l-369 -501l416 -523h-309l-351 479v-479h-246z" />
<glyph unicode="l" horiz-adv-x="470" d="M112 0v1365h246v-1365h-246z" />
<glyph unicode="m" horiz-adv-x="1754" d="M112 1024h225v-87q49 62 115 91.5t158 29.5q91 0 167 -41.5t126 -118.5q114 160 331 160q227 0 342 -167q73 -105 73 -294v-597h-246v567q0 143 -50 202q-56 64 -143 64q-53 0 -99.5 -27t-72.5 -73q-36 -64 -36 -223v-510h-246v567q0 129 -51 194q-56 72 -152 72 q-57 0 -101 -28.5t-65 -79.5q-29 -69 -29 -215v-510h-246v1024z" />
<glyph unicode="n" horiz-adv-x="1128" d="M112 0v1024h228v-89q67 65 132.5 94t146.5 29q91 0 177 -41.5t139 -110.5q49 -63 68.5 -142t19.5 -210v-554h-246v505q0 189 -61 261q-25 30 -65.5 48.5t-80.5 18.5q-50 0 -98 -27t-74 -69q-23 -38 -31.5 -91.5t-8.5 -158.5v-487h-246z" />
<glyph unicode="o" horiz-adv-x="1212" d="M61 521q0 231 182 396q151 137 366 141q241 0 404 -181q138 -152 138 -364q0 -253 -187 -413q-156 -134 -361 -134q-130 0 -250 64q-131 69 -208 192q-84 134 -84 299zM307 516q0 -162 111 -255q83 -70 189 -70q137 0 223 105q75 91 75 213q0 152 -110 250 q-81 72 -187 74q-132 0 -227 -111q-74 -86 -74 -206z" />
<glyph unicode="p" horiz-adv-x="1247" d="M112 -341v1365h225v-120q129 154 336 154q219 0 364 -158q148 -161 148 -384q0 -209 -126 -364q-64 -79 -151 -126q-111 -60 -235 -60q-101 0 -168.5 28t-146.5 103v-438h-246zM343 515q0 -143 88 -232q90 -92 211 -92q130 0 222 107q76 87 76 213q0 144 -94 235 q-88 85 -201 87q-134 0 -225 -106q-77 -89 -77 -212z" />
<glyph unicode="q" horiz-adv-x="1248" d="M61 520q0 230 168 393q151 145 350 145q212 0 331 -165v131h226v-1365h-246v438q-120 -131 -313 -131q-91 0 -180 35t-156 97q-83 76 -132 191q-48 114 -48 231zM307 515q0 -136 83 -228q88 -96 218 -96q121 0 207 91q89 94 89 228q0 127 -79 219q-88 102 -219 104 q-131 0 -219 -100q-80 -91 -80 -218z" />
<glyph unicode="r" horiz-adv-x="597" d="M112 1024h225v-91q56 72 103.5 98.5t120.5 26.5h20v-239q-112 -4 -167.5 -64.5t-55.5 -179.5v-575h-246v1024z" />
<glyph unicode="s" horiz-adv-x="827" d="M29 322h251q17 -70 48.5 -100.5t85.5 -30.5q48 0 79.5 29.5t31.5 73.5q0 46 -36 73.5t-138 60.5q-86 29 -119 45.5t-73 51.5q-93 82 -93 217t100 226q102 91 242 91q158 0 259 -118q71 -83 76 -196h-241q-17 88 -96 88q-41 0 -68 -25t-27 -62q0 -48 49 -72 q24 -11 125 -43q130 -40 189 -89q97 -81 97 -218q0 -153 -113 -256q-112 -102 -262 -102q-88 0 -169 39t-129 105q-55 75 -69 212z" />
<glyph unicode="t" horiz-adv-x="567" d="M16 799v225h120v341h246v-341h147v-225h-147v-799h-246v799h-120z" />
<glyph unicode="u" horiz-adv-x="1129" d="M105 423v601h246v-524q0 -149 44 -218q59 -92 166 -92q103 0 156.5 79t53.5 231v524h246v-1024h-225v101q-61 -76 -119.5 -106t-146.5 -30q-171 0 -294 111q-69 64 -98 142.5t-29 204.5z" />
<glyph unicode="v" horiz-adv-x="1005" d="M-8 1024h267l249 -679l235 679h270l-414 -1024h-192z" />
<glyph unicode="w" horiz-adv-x="1449" d="M7 1024h263l188 -625l170 625h195l167 -625l191 625h261l-373 -1024h-152l-193 664l-197 -664h-150z" />
<glyph unicode="x" horiz-adv-x="992" d="M-15 0l364 528l-316 496h273l189 -308l186 308h275l-316 -496l367 -528h-293l-219 351l-217 -351h-293z" />
<glyph unicode="y" horiz-adv-x="1023" d="M-8 1024h281l232 -657l247 657h280l-589 -1365h-265l189 437z" />
<glyph unicode="z" horiz-adv-x="842" d="M35 0v222l452 577h-400v225h696v-222l-451 -577h483v-225h-780z" />
<glyph unicode="{" horiz-adv-x="633" d="M45 430v182q60 14 85 52t25 114v306q0 153 69.5 219t230.5 66l75 -3q11 -1 34 -1v-210h-19q-92 0 -121 -24q-19 -15 -24 -35.5t-6 -84.5v-251q0 -99 -27.5 -150t-106.5 -98q95 -100 114.5 -139t19.5 -132v-227q1 -68 7 -89.5t28 -36.5q31 -19 116 -19h19v-210l-110 -4 q-14 -1 -27 -1q-133 0 -199 64q-73 71 -73 226v302q0 88 -25 129.5t-85 54.5z" />
<glyph unicode="|" d="M389 -341v1706h246v-1706h-246z" />
<glyph unicode="}" horiz-adv-x="633" d="M69 1155v210l109 4q14 1 27 1q134 0 200 -65q73 -70 73 -225v-302q0 -88 24.5 -129t85.5 -55v-182q-60 -14 -85 -52t-25 -114v-306q0 -153 -69.5 -219t-230.5 -66l-75 3q-10 1 -34 1v210h19q91 0 121 24q19 15 24 35.5t6 84.5v251q0 99 27.5 150t106.5 98 q-95 100 -114.5 139t-19.5 132v227q-1 68 -7 89.5t-29 35.5q-30 20 -115 20h-19z" />
<glyph unicode="~" horiz-adv-x="1365" d="M185 1244q7 15 15 34q46 101 86 149q78 94 204 94q70 0 215 -56q90 -34 119.5 -42.5t62.5 -8.5q50 0 82 23t70 87l141 -81q-74 -154 -145 -206q-81 -60 -177 -60q-37 0 -86 15t-213 75q-46 17 -84 17q-51 0 -83 -26.5t-71 -102.5z" />
<glyph horiz-adv-x="796" d="M19 1129v236h758v-236h-252v-1129h-253v1129h-253zM29 1750h268l103 -118l92 118h267l-246 -255h-218z" />
<glyph horiz-adv-x="935" d="M45 0v207l524 922h-495v236h789v-219l-518 -910h553v-236h-853zM104 1750h268l103 -118l92 118h267l-246 -255h-218z" />
<glyph horiz-adv-x="935" d="M45 0v207l524 922h-495v236h789v-219l-518 -910h553v-236h-853zM308 1624l416 246l95 -186l-422 -223z" />
<glyph horiz-adv-x="713" d="M16 799v225h120v341h246v-341h147v-225h-147v-799h-246v799h-120zM491 1333v183h222v-195q0 -94 -70 -145q-60 -43 -137 -43h-13v104q55 8 76 23.5t21 48.5q0 9 -1 24h-98z" />
<glyph horiz-adv-x="842" d="M35 0v222l452 577h-400v225h696v-222l-451 -577h483v-225h-780zM93 1429h247l99 -132l103 132h247l-239 -268h-221z" />
<glyph unicode="&#xa1;" d="M164 1429h247l99 -132l103 132h247l-239 -268h-221z" />
<glyph unicode="&#xa2;" d="M172 1426h190q41 -97 150 -97q108 0 150 97h190q-18 -127 -106.5 -196.5t-233.5 -69.5q-174 0 -263 98q-64 69 -77 168z" />
<glyph unicode="&#xa3;" horiz-adv-x="829" d="M10 408v240l116 88v629h253v-501l246 168v-240l-246 -168v-388h416v-236h-669v495z" />
<glyph unicode="&#xa4;" horiz-adv-x="1213" d="M82 254l154 155q-91 124 -91 278q0 148 90 270l-148 149l96 97l150 -150q126 91 273 91q153 0 275 -91l154 154l97 -96l-155 -155q89 -124 89 -269q0 -147 -89 -278l150 -150l-97 -96l-149 149q-127 -90 -277 -90q-149 0 -272 90l-153 -154zM327 686q0 -126 87 -214 q80 -80 191 -80q120 0 202 89q79 85 79 203q0 121 -82 204q-83 84 -198 86q-112 0 -194 -84q-85 -86 -85 -204z" />
<glyph unicode="&#xa5;" horiz-adv-x="1334" d="M-3 0l569 1365h198l572 -1365q-130 -69 -130 -148q0 -35 26.5 -58t66.5 -23q47 0 90 18v-145q-69 -27 -133 -27q-99 0 -162 58q-55 51 -55 126q0 118 158 199h-140l-146 352h-484l-151 -352h-279zM519 588h292l-146 420z" />
<glyph unicode="&#xa6;" d="M389 314h246v-655h-246v655zM389 660v705h246v-705h-246z" />
<glyph unicode="&#xa7;" d="M60 641q0 164 150 270q-53 87 -53 173q0 139 99 220q108 88 270 88q169 0 267.5 -89t115.5 -257h-229q-12 64 -52 92.5t-118 28.5q-59 0 -92.5 -23.5t-33.5 -65.5q0 -69 119 -130l304 -155q84 -43 123 -117q35 -67 35 -139q0 -155 -143 -260q92 -94 92 -221 q0 -146 -106 -243q-113 -104 -292 -104q-183 0 -300 108.5t-123 283.5h244q0 -53 14 -81q20 -41 65.5 -65.5t102.5 -24.5q71 0 117 35q47 36 47 87q0 47 -42 84q-15 14 -90 53l-307 161q-184 97 -184 291zM275 656q0 -59 109 -115l284 -146q76 54 76 120q0 34 -23.5 58.5 t-86.5 57.5l-281 144q-33 -22 -55.5 -56.5t-22.5 -62.5z" />
<glyph unicode="&#xa8;" d="M208 1167v246h239v-246h-239zM577 1167v246h239v-246h-239z" />
<glyph unicode="&#xa9;" horiz-adv-x="1606" d="M93 690q0 178 90 339q95 169 270 269q159 91 350 94q215 0 398 -124q164 -111 246 -287q66 -141 66 -298q0 -274 -184 -476q-96 -105 -226 -166q-144 -68 -298 -68q-217 0 -400 124q-163 110 -246 287q-66 141 -66 306zM175 688q0 -242 155 -421q88 -103 210 -160 q126 -60 265 -60q191 0 353 113q145 101 217 261q56 124 56 260q0 174 -89 326q-90 153 -250 238q-131 71 -289 73q-262 0 -448 -192q-87 -90 -134 -209q-46 -115 -46 -229zM348 699q0 177 141 303q135 120 318 120q164 0 292 -96q85 -63 132 -164h-198q-101 107 -232 107 q-120 0 -205 -90q-73 -78 -73 -182q0 -113 89 -196q84 -78 195 -78q62 0 111.5 23t105.5 78h201q-45 -101 -138 -167q-124 -87 -276 -87q-178 0 -312 114q-151 129 -151 315z" />
<glyph unicode="&#xaa;" horiz-adv-x="987" d="M34 392h265q2 -84 53 -134t134 -50q80 0 132 48.5t52 123.5q0 73 -41.5 118.5t-143.5 82.5q-147 54 -195.5 78.5t-91.5 66.5q-115 113 -115 278q0 152 108 264q120 124 293 124q90 0 173.5 -39t142.5 -109q81 -98 88 -240h-261q-6 72 -46 112t-104 40q-65 0 -103.5 -37.5 t-38.5 -100.5q0 -68 52 -110q41 -33 177 -80q159 -55 234 -126q124 -116 124 -287q0 -240 -203 -371q-103 -66 -240 -70l-28 -79q35 13 58 13q79 0 133 -64q49 -56 49 -131q0 -81 -58.5 -139.5t-139.5 -58.5t-134 46.5t-63 125.5h113q21 -63 81 -63q35 0 58 26t23 64 q0 34 -21.5 56t-53.5 22q-47 0 -78 -48l-106 54l77 183q-155 32 -251 143.5t-104 267.5z" />
<glyph unicode="&#xab;" horiz-adv-x="788" d="M75 434v186l257 239v-227l-125 -105l125 -108v-227zM441 434v186l258 239v-227l-125 -105l125 -108v-227z" />
<glyph unicode="&#xac;" d="M68 317v229h887v-546h-246v317h-641z" />
<glyph unicode="&#xad;" horiz-adv-x="512" d="M0 423v205h512v-205h-512z" />
<glyph unicode="&#xae;" horiz-adv-x="1606" d="M93 690q0 178 90 339q95 169 270 269q159 91 350 94q215 0 398 -124q164 -111 246 -287q66 -141 66 -298q0 -274 -184 -476q-96 -105 -226 -166q-144 -68 -298 -68q-217 0 -400 124q-163 110 -246 287q-66 141 -66 306zM175 688q0 -242 155 -421q88 -103 210 -160 q126 -60 265 -60q191 0 353 113q145 101 217 261q56 124 56 260q0 174 -89 326q-90 153 -250 238q-131 71 -289 73q-262 0 -448 -192q-87 -90 -134 -209q-46 -115 -46 -229zM531 287v819h274q149 0 226 -63q96 -77 96 -193q0 -58 -25.5 -113.5t-68.5 -90.5q-49 -40 -129 -59 l239 -300h-214l-223 294v-294h-175zM706 721h97q70 0 109.5 31t39.5 86q0 53 -40 84t-108 31h-98v-232z" />
<glyph unicode="&#xaf;" horiz-adv-x="935" d="M45 0v207l524 922h-495v236h789v-219l-518 -910h553v-236h-853zM358 1508v246h246v-246h-246z" />
<glyph unicode="&#xb0;" horiz-adv-x="784" d="M96 1105q0 119 86 202q88 84 210 85q123 0 210 -85q87 -84 87 -205q0 -120 -86 -205q-87 -87 -210 -87q-124 0 -211 86q-86 85 -86 209zM229 1104q0 -69 47 -115q49 -48 117 -48q67 0 115 47.5t48 113.5t-47.5 112.5t-116.5 47.5q-67 0 -115 -46.5t-48 -111.5z" />
<glyph unicode="&#xb1;" d="M75 0v184h874v-184h-874zM75 591v184h345v345h184v-345h345v-184h-345v-345h-184v345h-345z" />
<glyph unicode="&#xb2;" d="M403 -197q0 116 159 197h129q-76 -54 -99.5 -82.5t-23.5 -67.5q0 -38 27 -62t70 -24q31 0 75 21v-136q-63 -25 -125 -25q-66 0 -116 24q-43 20 -69.5 62.5t-26.5 92.5z" />
<glyph unicode="&#xb3;" horiz-adv-x="470" d="M10 463v195l102 77v630h246v-492l103 77v-195l-103 -77v-678h-246v540z" />
<glyph unicode="&#xb4;" d="M345 1255l354 295l116 -158l-363 -272z" />
<glyph unicode="&#xb5;" d="M59 -353v1336h246v-526q0 -98 14.5 -148.5t52.5 -88.5q59 -58 143 -58q92 0 149 73q31 41 43 90.5t12 140.5v517h246v-983h-246v125q-32 -64 -66 -94q-60 -52 -144 -52q-126 0 -204 129v-461h-246z" />
<glyph unicode="&#xb6;" d="M41 1002q0 216 144 306q89 57 257 57h502v-157h-105v-1399h-166v1399h-142v-1399h-166v846q-17 -1 -22 -1q-122 0 -205 80q-97 93 -97 268z" />
<glyph unicode="&#xb7;" horiz-adv-x="478" d="M116 403v246h246v-246h-246z" />
<glyph unicode="&#xb8;" d="M376 -307h111q22 -56 74 -56q32 0 54 24.5t22 58.5q0 33 -21.5 55.5t-51.5 22.5q-38 0 -72 -43l-100 47l88 198h85l-46 -107q31 13 54 13q71 0 123 -55.5t52 -130.5q0 -76 -54 -130t-130 -54q-73 0 -125.5 44t-62.5 113z" />
<glyph unicode="&#xb9;" horiz-adv-x="1255" d="M61 517q0 224 143 379q149 162 369 162q141 0 265 -90q51 -38 79 -74v130h225v-1024q-77 -55 -100 -82.5t-23 -67.5q0 -38 27 -62t70 -24q31 0 75 21v-136q-63 -25 -125 -25q-66 0 -116 24q-43 20 -69.5 63t-26.5 92q0 117 159 197h-96v126q-23 -27 -82 -68 q-131 -92 -276 -92q-149 0 -272 84q-126 85 -184 235q-42 108 -42 232zM307 507q0 -120 73 -209q89 -108 231 -108q134 0 219 96q80 91 80 226q0 140 -80 226q-88 93 -220 95q-138 0 -224 -101q-36 -43 -57.5 -104.5t-21.5 -120.5z" />
<glyph unicode="&#xba;" horiz-adv-x="827" d="M29 322h251q17 -70 48.5 -100.5t85.5 -30.5q48 0 79.5 29.5t31.5 73.5q0 46 -35.5 73.5t-138.5 60.5q-86 28 -119.5 45t-72.5 52q-93 82 -93 217t100 226q102 91 242 91q158 0 259 -118q71 -83 76 -196h-241q-17 88 -96 88q-41 0 -68 -25t-27 -62q0 -48 49 -72 q24 -11 125 -43q130 -40 189 -89q97 -81 97 -218q0 -152 -108.5 -253t-273.5 -104l-31 -72q35 13 58 13q78 0 133 -64q49 -56 49 -131q0 -81 -58.5 -139.5t-139.5 -58.5t-134.5 46.5t-62.5 125.5h112q22 -63 82 -63q34 0 57.5 26t23.5 64q0 33 -21.5 55.5t-53.5 22.5 q-48 0 -78 -49l-107 55l80 180q-251 73 -269 344z" />
<glyph unicode="&#xbb;" horiz-adv-x="788" d="M89 192v227l125 108l-125 105v227l257 -239v-186zM455 192v227l125 108l-125 105v227l258 -239v-186z" />
<glyph unicode="&#xbc;" horiz-adv-x="829" d="M126 0v1365h253v-1129h416v-236h-669zM501 1182v183h222v-195q0 -94 -70 -145q-60 -43 -137 -43h-13v104q55 8 76 23.5t21 48.5q0 9 -1 24h-98z" />
<glyph unicode="&#xbd;" d="M238 1226l274 324l124 -121l-291 -301zM552 1226l274 324l124 -121l-291 -301z" />
<glyph unicode="&#xbe;" horiz-adv-x="689" d="M112 0v1365h246v-1365h-246zM467 1182v183h222v-195q0 -94 -70 -145q-60 -43 -137 -43h-13v104q55 8 76 23.5t21 48.5q0 9 -1 24h-98z" />
<glyph unicode="&#xbf;" horiz-adv-x="842" d="M35 0v222l452 577h-400v225h696v-222l-451 -577h483v-225h-780zM322 1167v246h239v-246h-239z" />
<glyph unicode="&#xc0;" horiz-adv-x="1104" d="M126 0v1365h418q122 0 203.5 -24.5t144.5 -79.5q145 -128 145 -318q0 -97 -38.5 -187.5t-104.5 -148.5q-78 -69 -214 -103l370 -504h-306l-365 522v-522h-253zM324 1624l416 246l95 -186l-422 -223zM379 713h162q123 0 187 64q56 57 56 146q0 94 -65.5 150t-176.5 56 h-163v-416z" />
<glyph unicode="&#xc1;" horiz-adv-x="1334" d="M-3 0l569 1365h198l572 -1365h-279l-146 352h-484l-151 -352h-279zM480 1624l416 246l95 -186l-422 -223zM519 588h292l-146 420z" />
<glyph unicode="&#xc2;" horiz-adv-x="1334" d="M-3 0l569 1365h198l572 -1365h-279l-146 352h-484l-151 -352h-279zM298 1495l251 255h226l253 -255h-267l-99 118l-96 -118h-268zM519 588h292l-146 420z" />
<glyph unicode="&#xc3;" horiz-adv-x="1334" d="M-3 0l569 1365h198l572 -1365h-279l-146 352h-484l-151 -352h-279zM320 1754h199q30 -90 142 -90q71 0 103.5 19t49.5 71h199q-6 -61 -28.5 -104t-69.5 -83q-43 -35 -110.5 -56.5t-137.5 -21.5q-78 0 -149 24.5t-115 67.5q-41 40 -59.5 78t-23.5 95zM519 588h292 l-146 420z" />
<glyph unicode="&#xc4;" horiz-adv-x="1334" d="M-3 0l569 1365h198l572 -1365h-279l-146 352h-484l-151 -352h-279zM353 1508v246h246v-246h-246zM519 588h292l-146 420zM735 1508v246h246v-246h-246z" />
<glyph unicode="&#xc5;" horiz-adv-x="829" d="M64 1617l361 244l110 -172l-375 -228zM126 0v1365h253v-1129h416v-236h-669z" />
<glyph unicode="&#xc6;" horiz-adv-x="1448" d="M64 688q0 294 217 504q207 200 489 200q253 0 450 -160q73 -59 115 -114.5t80 -142.5h-287q-157 181 -367 181q-122 0 -234 -75q-109 -72 -165 -193q-45 -98 -45 -203q0 -197 142 -340q135 -136 312 -136q98 0 177 39t166 132h293q-66 -154 -206 -261 q-191 -146 -425 -146q-274 0 -479 190q-102 94 -161 215q-72 147 -72 310zM578 1624l416 246l95 -186l-422 -223z" />
<glyph unicode="&#xc7;" horiz-adv-x="1448" d="M64 688q0 294 217 504q207 200 489 200q253 0 450 -160q73 -59 115 -114.5t80 -142.5h-287q-157 181 -367 181q-122 0 -234 -75q-109 -72 -165 -193q-45 -98 -45 -203q0 -197 142 -340q135 -136 312 -136q98 0 176.5 39t166.5 132h293q-78 -184 -250.5 -293t-392.5 -115 l-38 -77q36 14 59 14q77 0 132 -64q49 -56 49 -131q0 -82 -58 -140.5t-139 -58.5t-134.5 46.5t-62.5 125.5h112q21 -63 82 -63q34 0 57 26t23 65q0 33 -21 55.5t-53 22.5q-48 0 -78 -49l-107 54l80 182q-121 29 -176 51t-118 69q-132 95 -211 230q-98 166 -98 358z" />
<glyph unicode="&#xc8;" horiz-adv-x="1448" d="M64 688q0 294 217 504q207 200 489 200q253 0 450 -160q73 -59 115 -114.5t80 -142.5h-287q-157 181 -367 181q-122 0 -234 -75q-109 -72 -165 -193q-45 -98 -45 -203q0 -197 142 -340q135 -136 312 -136q98 0 177 39t166 132h293q-66 -154 -206 -261 q-191 -146 -425 -146q-274 0 -479 190q-102 94 -161 215q-72 147 -72 310zM403 1750h268l103 -118l92 118h267l-246 -255h-218z" />
<glyph unicode="&#xc9;" horiz-adv-x="942" d="M126 0v1365h735v-236h-482v-333h461v-236h-461v-324h482v-236h-735zM320 1624l416 246l95 -186l-422 -223z" />
<glyph unicode="&#xca;" horiz-adv-x="942" d="M126 1365h735v-236h-482v-333h461v-236h-461v-324h482v-236q-130 -68 -130 -148q0 -35 26.5 -58t66.5 -23q47 0 89 18v-145q-68 -27 -133 -27q-98 0 -161 58q-55 51 -55 126q0 117 157 199h-595v1365z" />
<glyph unicode="&#xcb;" horiz-adv-x="942" d="M126 0v1365h735v-236h-482v-333h461v-236h-461v-324h482v-236h-735zM179 1508v246h246v-246h-246zM561 1508v246h246v-246h-246z" />
<glyph unicode="&#xcc;" horiz-adv-x="942" d="M126 0v1365h735v-236h-482v-333h461v-236h-461v-324h482v-236h-735zM133 1750h268l103 -118l92 118h267l-246 -255h-218z" />
<glyph unicode="&#xcd;" horiz-adv-x="504" d="M65 1617l361 244l110 -172l-375 -228zM126 0v1365h253v-1365h-253z" />
<glyph unicode="&#xce;" horiz-adv-x="504" d="M-89 1495l223 255h227l226 -255h-261l-78 132l-76 -132h-261zM126 0v1365h253v-1365h-253z" />
<glyph unicode="&#xcf;" horiz-adv-x="1285" d="M126 0v1365h310q307 0 481 -103q140 -82 223 -245q81 -161 81 -338q0 -245 -145 -435q-97 -128 -247.5 -186t-386.5 -58h-316zM185 1750h268l103 -118l92 118h267l-246 -255h-218zM379 236h54q120 0 194.5 15t137.5 52q100 60 155 166q49 95 49 207q0 160 -93 283 q-69 91 -173 130.5t-276 39.5h-48v-893z" />
<glyph unicode="&#xd0;" horiz-adv-x="1285" d="M-4 580v212h130v573h310q306 0 481 -103q140 -82 223 -245q81 -160 81 -338q0 -245 -145 -435q-97 -128 -247.5 -186t-386.5 -58h-316v580h-130zM379 236h54q119 0 194 15t138 52q100 60 155 166q49 95 49 207q0 160 -93 283q-69 91 -173.5 130.5t-275.5 39.5h-48v-337 h325v-212h-325v-344z" />
<glyph unicode="&#xd1;" horiz-adv-x="1360" d="M126 0v1365h288l568 -993v993h253v-1365h-283l-573 992v-992h-253zM507 1624l416 246l95 -186l-422 -223z" />
<glyph unicode="&#xd2;" horiz-adv-x="1360" d="M126 0v1365h288l568 -993v993h253v-1365h-283l-573 992v-992h-253zM319 1750h268l103 -118l92 118h267l-246 -255h-218z" />
<glyph unicode="&#xd3;" horiz-adv-x="1555" d="M64 690q0 190 104 362q103 169 285 262q148 76 325 78q200 0 373 -105q172 -105 263 -283q77 -152 77 -322q0 -200 -105 -370q-105 -171 -284 -261q-153 -78 -322 -78q-203 0 -375 104q-171 104 -263 282q-78 152 -78 331zM317 687q0 -202 137 -341q135 -137 326 -137 q188 0 322 136q136 140 136 337q0 95 -36 184t-101 153q-135 134 -323 137q-190 0 -325 -138q-64 -65 -100 -153t-36 -178zM590 1624l416 246l95 -186l-422 -223z" />
<glyph unicode="&#xd4;" horiz-adv-x="1555" d="M64 690q0 190 104 362q103 169 285 262q148 76 325 78q200 0 373 -105q172 -105 263 -283q77 -152 77 -322q0 -200 -105 -370q-105 -171 -284 -261q-153 -78 -322 -78q-203 0 -375 104q-171 104 -263 282q-78 152 -78 331zM317 687q0 -202 137 -341q135 -137 326 -137 q188 0 322 136q136 140 136 337q0 95 -36 184t-101 153q-135 134 -323 137q-190 0 -325 -138q-64 -65 -100 -153t-36 -178zM409 1495l251 255h226l253 -255h-267l-99 118l-96 -118h-268z" />
<glyph unicode="&#xd5;" horiz-adv-x="1555" d="M64 690q0 190 104 362q103 169 285 262q148 76 325 78q200 0 373 -105q172 -105 263 -283q77 -152 77 -322q0 -200 -105 -370q-105 -171 -284 -261q-153 -78 -322 -78q-203 0 -375 104q-171 104 -263 282q-78 152 -78 331zM317 687q0 -202 137 -341q135 -137 326 -137 q188 0 322 136q136 140 136 337q0 95 -36 184t-101 153q-135 134 -323 137q-190 0 -325 -138q-64 -65 -100 -153t-36 -178zM477 1592l308 265l115 -154l-317 -242zM846 1592l307 265l116 -154l-318 -242z" />
<glyph unicode="&#xd6;" horiz-adv-x="1555" d="M64 690q0 190 104 362q103 169 285 262q148 76 325 78q200 0 373 -105q172 -105 263 -283q77 -152 77 -322q0 -200 -105 -370q-105 -171 -284 -261q-153 -78 -322 -78q-203 0 -375 104q-171 104 -263 282q-78 152 -78 331zM317 687q0 -202 137 -341q135 -137 326 -137 q188 0 322 136q136 140 136 337q0 95 -36 184t-101 153q-135 134 -323 137q-190 0 -325 -138q-64 -65 -100 -153t-36 -178zM463 1508v246h246v-246h-246zM846 1508v246h246v-246h-246z" />
<glyph unicode="&#xd7;" d="M115 952l129 128l269 -270l269 269l127 -127l-266 -271l267 -267l-129 -129l-270 270l-268 -269l-127 127l269 269z" />
<glyph unicode="&#xd8;" horiz-adv-x="1104" d="M126 0v1365h418q122 0 203.5 -24.5t144.5 -79.5q145 -128 145 -318q0 -97 -38.5 -187.5t-104.5 -148.5q-78 -69 -214 -103l370 -504h-306l-365 522v-522h-253zM143 1750h268l103 -118l92 118h267l-246 -255h-218zM379 713h162q123 0 187 64q56 57 56 146q0 94 -65.5 150 t-176.5 56h-163v-416z" />
<glyph unicode="&#xd9;" horiz-adv-x="1200" d="M112 498v867h253v-867q0 -76 8.5 -116t33.5 -77q65 -97 192 -97q61 0 113 25.5t81 69.5q24 35 33 77.5t9 117.5v867h253v-867q0 -224 -93 -341q-66 -83 -163 -132q-106 -53 -230 -53q-157 0 -285 84q-108 71 -156.5 175t-48.5 267zM389 1673q0 85 61.5 145.5t149.5 61.5 q87 0 149 -61q62 -62 62 -148q0 -87 -62 -149q-61 -61 -148 -61q-88 0 -150 61q-62 62 -62 151zM520 1672q0 -36 23.5 -60.5t56.5 -24.5t56.5 24.5t23.5 58.5q0 35 -23 59.5t-57 24.5q-33 0 -56.5 -24.5t-23.5 -57.5z" />
<glyph unicode="&#xda;" horiz-adv-x="1200" d="M112 498v867h253v-867q0 -76 8.5 -116t33.5 -77q65 -97 192 -97q61 0 113 25.5t81 69.5q24 35 33 77.5t9 117.5v867h253v-867q0 -224 -93 -341q-66 -83 -163 -132q-106 -53 -230 -53q-157 0 -285 84q-108 71 -156.5 175t-48.5 267zM427 1624l416 246l95 -186l-422 -223z " />
<glyph unicode="&#xdb;" horiz-adv-x="1200" d="M112 498v867h253v-867q0 -76 8.5 -116t33.5 -77q65 -97 192 -97q61 0 113 25.5t81 69.5q24 35 33 77.5t9 117.5v867h253v-867q0 -224 -93 -341q-66 -83 -163 -132q-106 -53 -230 -53q-157 0 -285 84q-108 71 -156.5 175t-48.5 267zM307 1592l308 265l115 -154l-317 -242z M676 1592l307 265l116 -154l-318 -242z" />
<glyph unicode="&#xdc;" horiz-adv-x="1200" d="M112 498v867h253v-867q0 -76 8.5 -116t33.5 -77q65 -97 192 -97q61 0 113 25.5t81 69.5q24 35 33 77.5t9 117.5v867h253v-867q0 -224 -93 -341q-66 -83 -163 -132q-106 -53 -230 -53q-157 0 -285 84q-108 71 -156.5 175t-48.5 267zM286 1508v246h246v-246h-246zM668 1508 v246h246v-246h-246z" />
<glyph unicode="&#xdd;" horiz-adv-x="1124" d="M-14 1365h278l297 -628l299 628h278l-450 -861v-504h-253v504zM388 1624l416 246l95 -186l-422 -223z" />
<glyph unicode="&#xde;" horiz-adv-x="796" d="M19 1129v236h758v-236h-252v-1129h-253v1129h-253zM287 -109h222v-195q0 -94 -70 -145q-60 -43 -137 -43h-13v104q55 8 76 23.5t21 48.5q0 9 -1 24h-98v183z" />
<glyph unicode="&#xdf;" horiz-adv-x="1152" d="M105 900q0 174 62 288q54 99 157 155q91 50 197 50q110 0 204 -54q91 -53 141.5 -140.5t50.5 -192.5q0 -87 -31.5 -152t-90.5 -100q109 -26 174 -82q121 -105 121 -277q0 -199 -139 -324q-117 -105 -296 -105q-220 0 -325 168v-134h-225v900zM351 350h158 q13 -69 60.5 -113.5t109.5 -44.5q71 0 118.5 52.5t47.5 129.5q0 126 -104 176q-42 20 -88.5 26.5t-143.5 6.5h-22v218h22q68 0 115 55t47 135q0 83 -43 129q-44 47 -114 47q-163 0 -163 -238v-579z" />
<glyph unicode="&#xe0;" horiz-adv-x="597" d="M112 0v1024h225v-91q56 72 103.5 98.5t120.5 26.5h20v-239q-112 -4 -167.5 -64.5t-55.5 -179.5v-575h-246zM179 1255l354 295l116 -158l-363 -272z" />
<glyph unicode="&#xe1;" horiz-adv-x="1255" d="M61 517q0 224 143 379q149 162 369 162q141 0 265 -90q51 -38 79 -74v130h225v-1024h-225v126q-23 -27 -82 -68q-132 -92 -276 -92q-149 0 -272 84q-126 85 -184 235q-42 108 -42 232zM307 507q0 -120 73 -209q89 -108 231 -108q134 0 219 96q80 91 80 226q0 140 -80 226 q-88 93 -220 95q-138 0 -224 -101q-36 -43 -57.5 -104.5t-21.5 -120.5zM460 1255l354 295l116 -158l-363 -272z" />
<glyph unicode="&#xe2;" horiz-adv-x="1255" d="M61 517q0 224 143 379q149 162 369 162q141 0 265 -90q51 -38 79 -74v130h225v-1024h-225v126q-23 -27 -82 -68q-132 -92 -276 -92q-149 0 -272 84q-126 85 -184 235q-42 108 -42 232zM286 1161l240 268h221l235 -268h-247l-99 132l-103 -132h-247zM307 507 q0 -120 73 -209q89 -108 231 -108q134 0 219 96q80 91 80 226q0 140 -80 226q-88 93 -220 95q-138 0 -224 -101q-36 -43 -57.5 -104.5t-21.5 -120.5z" />
<glyph unicode="&#xe3;" horiz-adv-x="1255" d="M61 517q0 224 143 379q149 162 369 162q141 0 265 -90q51 -38 79 -74v130h225v-1024h-225v126q-23 -27 -82 -68q-132 -92 -276 -92q-149 0 -272 84q-126 85 -184 235q-42 108 -42 232zM294 1426h190q41 -97 150 -97q108 0 150 97h190q-18 -127 -106.5 -196.5 t-233.5 -69.5q-174 0 -263 98q-64 69 -77 168zM307 507q0 -120 73 -209q89 -108 231 -108q134 0 219 96q80 91 80 226q0 140 -80 226q-88 93 -220 95q-138 0 -224 -101q-36 -43 -57.5 -104.5t-21.5 -120.5z" />
<glyph unicode="&#xe4;" horiz-adv-x="1255" d="M61 517q0 224 143 379q149 162 369 162q141 0 265 -90q51 -38 79 -74v130h225v-1024h-225v126q-23 -27 -82 -68q-132 -92 -276 -92q-149 0 -272 84q-126 85 -184 235q-42 108 -42 232zM307 507q0 -120 73 -209q89 -108 231 -108q134 0 219 96q80 91 80 226q0 140 -80 226 q-88 93 -220 95q-138 0 -224 -101q-36 -43 -57.5 -104.5t-21.5 -120.5zM332 1167v246h239v-246h-239zM701 1167v246h239v-246h-239z" />
<glyph unicode="&#xe5;" horiz-adv-x="470" d="M68 1624l361 244l110 -159l-375 -228zM113 0v1365h246v-1365h-246z" />
<glyph unicode="&#xe6;" horiz-adv-x="1153" d="M61 516q0 239 179 400q157 142 365 142q215 0 374 -148q53 -50 83 -98.5t56 -127.5h-276q-46 80 -101.5 114.5t-136.5 34.5q-111 0 -194 -72q-103 -89 -103 -249q0 -141 93 -234q85 -87 215 -87q139 0 227 142h276q-57 -157 -169 -247q-69 -56 -160.5 -88t-182.5 -32 q-154 0 -296 90q-124 79 -189 209q-60 117 -60 251zM443 1255l354 295l116 -158l-363 -272z" />
<glyph unicode="&#xe7;" horiz-adv-x="1153" d="M61 516q0 239 179 400q157 142 365 142q215 0 374 -148q53 -49 83 -98t56 -128h-276q-46 80 -101.5 114.5t-136.5 34.5q-111 0 -194 -72q-103 -89 -103 -249q0 -141 93 -234q86 -87 215 -87q139 0 227 142h276q-64 -176 -202.5 -271.5t-327.5 -95.5l-32 -73q31 13 54 13 q71 0 123 -55.5t52 -130.5q0 -76 -54 -130t-130 -54q-73 0 -125.5 44t-62.5 113h111q22 -56 74 -56q32 0 54 24.5t22 58.5q0 33 -21.5 55.5t-51.5 22.5q-38 0 -73 -43l-99 47l76 173q-136 31 -242 115q-90 70 -143 174q-59 118 -59 252z" />
<glyph unicode="&#xe8;" horiz-adv-x="1153" d="M61 515q0 240 179 401q157 142 364 142q215 0 374 -148q53 -49 83 -98t57 -128h-277q-84 135 -238 135q-109 0 -192 -68q-103 -85 -103 -239q0 -135 92 -224q86 -83 216 -83q138 0 225 127h277q-57 -157 -170 -247q-69 -55 -160.5 -87t-181.5 -32q-155 0 -296 90 q-124 78 -190 208q-59 117 -59 251zM248 1429h268l103 -118l99 118h267l-269 -255h-194z" />
<glyph unicode="&#xe9;" horiz-adv-x="1192" d="M61 511q0 174 99 320q81 119 207 180q111 54 233 54q247 0 404 -192q126 -155 126 -346q0 -49 -14 -124h-796q25 -91 103 -151.5t171 -60.5q148 0 228 133h271q-39 -129 -153 -229q-147 -129 -338 -129q-158 0 -291 84q-130 82 -196 223q-54 113 -54 238zM313 601h577 q-22 97 -92 165q-77 74 -195 74q-106 0 -185.5 -65.5t-104.5 -173.5zM429 1255l354 295l116 -158l-363 -272z" />
<glyph unicode="&#xea;" horiz-adv-x="1192" d="M61 511q0 174 99 320q81 119 208 180q110 54 233 54q246 0 404 -192q126 -155 126 -346q0 -49 -14 -124h-796q24 -91 102 -151.5t171 -60.5q149 0 228 133h271q-27 -89 -79.5 -153.5t-172.5 -154.5q-112 -84 -112 -162q0 -41 26.5 -65.5t70.5 -24.5q31 0 75 21v-136 q-63 -25 -125 -25q-66 0 -116 24q-43 20 -69.5 62.5t-26.5 91.5q0 51 24.5 88.5t85.5 79.5q-54 -4 -84 -4q-146 0 -279 84q-130 82 -196 222q-54 114 -54 239zM313 601h577q-22 97 -92 165q-76 74 -195 74q-105 0 -185 -65.5t-105 -173.5z" />
<glyph unicode="&#xeb;" horiz-adv-x="1192" d="M61 511q0 174 99 320q81 119 207 180q111 54 233 54q247 0 404 -192q126 -155 126 -346q0 -49 -14 -124h-796q25 -91 103 -151.5t171 -60.5q148 0 228 133h271q-39 -129 -153 -229q-147 -129 -338 -129q-158 0 -291 84q-130 82 -196 223q-54 113 -54 238zM307 1167v246 h239v-246h-239zM313 601h577q-22 97 -92 165q-77 74 -195 74q-106 0 -185.5 -65.5t-104.5 -173.5zM676 1167v246h239v-246h-239z" />
<glyph unicode="&#xec;" horiz-adv-x="1192" d="M61 511q0 174 99 320q81 119 207 180q111 54 233 54q247 0 404 -192q126 -155 126 -346q0 -49 -14 -124h-796q25 -91 103 -151.5t171 -60.5q148 0 228 133h271q-39 -129 -153 -229q-147 -129 -338 -129q-158 0 -291 84q-130 82 -196 223q-54 113 -54 238zM261 1429h247 l99 -132l103 132h247l-239 -268h-221zM313 601h577q-22 97 -92 165q-77 74 -195 74q-106 0 -185.5 -65.5t-104.5 -173.5z" />
<glyph unicode="&#xed;" horiz-adv-x="470" d="M68 1255l320 267l116 -157l-329 -245zM112 0v1024h246v-1024h-246z" />
<glyph unicode="&#xee;" horiz-adv-x="470" d="M-79 1161l206 268h221l201 -268h-240l-72 132l-76 -132h-240zM112 0v1024h246v-1024h-246z" />
<glyph unicode="&#xef;" horiz-adv-x="1471" d="M61 510q0 233 155 391q73 75 174 117q95 40 186 40q85 0 172.5 -34.5t145.5 -90.5v432h246v-1365h-226v124q-57 -71 -154 -114.5t-196 -43.5q-93 0 -185 41t-163 114q-155 159 -155 389zM307 514q0 -145 104 -243q86 -80 199 -80q118 0 203 84q98 96 98 236 q0 130 -84 223q-87 96 -218 98q-132 0 -223 -107q-79 -93 -79 -211zM1249 1182v183h222v-195q0 -94 -70 -145q-60 -43 -137 -43h-13v104q55 8 76 23.5t21 48.5q0 9 -1 24h-98z" />
<glyph unicode="&#xf0;" horiz-adv-x="1252" d="M61 510q0 234 155 391q73 75 174 117q95 40 185 40q85 0 173 -34.5t145 -90.5v190h-259v160h259v82h246v-82h123v-160h-123v-1123h-225v124q-63 -73 -157 -115.5t-194 -42.5q-92 0 -184.5 41t-163.5 114q-154 159 -154 389zM305 514q0 -139 105 -232q85 -77 199 -77 q119 0 203 80q99 94 99 227q0 56 -23.5 115t-61.5 98q-90 92 -218 94q-133 0 -224 -103q-79 -89 -79 -202z" />
<glyph unicode="&#xf1;" horiz-adv-x="1128" d="M112 0v1024h228v-89q67 65 132.5 94t146.5 29q91 0 177 -41.5t139 -110.5q49 -63 68.5 -142t19.5 -210v-554h-246v505q0 189 -61 261q-25 30 -65.5 48.5t-80.5 18.5q-50 0 -98 -27t-74 -69q-23 -38 -31.5 -91.5t-8.5 -158.5v-487h-246zM377 1255l354 295l116 -158 l-363 -272z" />
<glyph unicode="&#xf2;" horiz-adv-x="1128" d="M112 0v1024h228v-89q67 65 132.5 94t146.5 29q91 0 177 -41.5t139 -110.5q49 -63 68.5 -142t19.5 -210v-554h-246v505q0 189 -61 261q-25 30 -65.5 48.5t-80.5 18.5q-50 0 -98 -27t-74 -69q-23 -38 -31.5 -91.5t-8.5 -158.5v-487h-246zM202 1429h247l99 -132l103 132h247 l-239 -268h-221z" />
<glyph unicode="&#xf3;" horiz-adv-x="1212" d="M61 521q0 231 182 396q151 137 366 141q241 0 404 -181q138 -152 138 -364q0 -253 -187 -413q-156 -134 -361 -134q-130 0 -250 64q-131 69 -208 192q-84 134 -84 299zM307 516q0 -162 111 -255q83 -70 189 -70q137 0 223 105q75 91 75 213q0 152 -110 250 q-81 72 -187 74q-132 0 -227 -111q-74 -86 -74 -206zM439 1255l354 295l116 -158l-363 -272z" />
<glyph unicode="&#xf4;" horiz-adv-x="1212" d="M61 521q0 231 182 396q151 137 366 141q241 0 404 -181q138 -152 138 -364q0 -253 -187 -413q-156 -134 -361 -134q-130 0 -250 64q-131 69 -208 192q-84 134 -84 299zM258 1161l240 268h221l235 -268h-247l-99 132l-103 -132h-247zM307 516q0 -162 111 -255 q83 -70 189 -70q137 0 223 105q75 91 75 213q0 152 -110 250q-81 72 -187 74q-132 0 -227 -111q-74 -86 -74 -206z" />
<glyph unicode="&#xf5;" horiz-adv-x="1212" d="M61 521q0 231 182 396q151 137 366 141q241 0 404 -181q138 -152 138 -364q0 -253 -187 -413q-156 -134 -361 -134q-130 0 -250 64q-131 69 -208 192q-84 134 -84 299zM307 516q0 -162 111 -255q83 -70 189 -70q137 0 223 105q75 91 75 213q0 152 -110 250 q-81 72 -187 74q-132 0 -227 -111q-74 -86 -74 -206zM352 1226l274 324l124 -121l-291 -301zM666 1226l274 324l124 -121l-291 -301z" />
<glyph unicode="&#xf6;" horiz-adv-x="1212" d="M61 521q0 231 182 396q151 137 366 141q241 0 404 -181q138 -152 138 -364q0 -253 -187 -413q-156 -134 -361 -134q-130 0 -250 64q-131 69 -208 192q-84 134 -84 299zM302 1167v246h239v-246h-239zM307 516q0 -162 111 -255q83 -70 189 -70q137 0 223 105q75 91 75 213 q0 152 -110 250q-81 72 -187 74q-132 0 -227 -111q-74 -86 -74 -206zM671 1167v246h239v-246h-239z" />
<glyph unicode="&#xf7;" d="M75 611v184h874v-184h-874zM399 271v219h225v-219h-225zM399 918v218h225v-218h-225z" />
<glyph unicode="&#xf8;" horiz-adv-x="597" d="M5 1429h247l99 -132l103 132h247l-239 -268h-221zM112 0v1024h225v-91q56 72 103.5 98.5t120.5 26.5h20v-239q-112 -4 -167.5 -64.5t-55.5 -179.5v-575h-246z" />
<glyph unicode="&#xf9;" horiz-adv-x="1129" d="M105 423v601h246v-524q0 -149 44 -218q59 -92 166 -92q103 0 156.5 79t53.5 231v524h246v-1024h-225v101q-61 -76 -119.5 -106t-146.5 -30q-171 0 -294 111q-69 64 -98 142.5t-29 204.5zM360 1339q0 82 60 141t145 60q85 0 145 -60q60 -59 60 -143q0 -85 -60 -144 q-60 -60 -145 -60t-145 60q-60 59 -60 146zM483 1338q0 -37 24 -62.5t58 -25.5t58 25.5t24 61.5t-23.5 60.5t-58.5 25.5q-34 0 -58 -25t-24 -60z" />
<glyph unicode="&#xfa;" horiz-adv-x="1129" d="M105 423v601h246v-524q0 -149 44 -218q59 -92 166 -92q103 0 156.5 79t53.5 231v524h246v-1024h-225v101q-61 -76 -119.5 -106t-146.5 -30q-171 0 -294 111q-69 64 -98 142.5t-29 204.5zM398 1255l354 295l116 -158l-363 -272z" />
<glyph unicode="&#xfb;" horiz-adv-x="1129" d="M105 423v601h246v-524q0 -149 44 -218q59 -92 166 -92q103 0 156.5 79t53.5 231v524h246v-1024h-225v101q-61 -76 -119.5 -106t-146.5 -30q-171 0 -294 111q-69 64 -98 142.5t-29 204.5zM304 1226l274 324l124 -121l-291 -301zM618 1226l274 324l124 -121l-291 -301z" />
<glyph unicode="&#xfc;" horiz-adv-x="1129" d="M105 423v601h246v-524q0 -149 44 -218q59 -92 166 -92q103 0 156.5 79t53.5 231v524h246v-1024h-225v101q-61 -76 -119.5 -106t-146.5 -30q-171 0 -294 111q-69 64 -98 142.5t-29 204.5zM257 1167v246h239v-246h-239zM626 1167v246h239v-246h-239z" />
<glyph unicode="&#xfd;" horiz-adv-x="1023" d="M-8 1024h281l232 -657l247 657h280l-589 -1365h-265l189 437zM345 1255l354 295l116 -158l-363 -272z" />
<glyph unicode="&#xfe;" horiz-adv-x="567" d="M16 799v225h120v341h246v-341h147v-225h-147v-799h-246v799h-120zM147 -109h222v-195q0 -94 -70 -145q-60 -43 -137 -43h-13v104q55 8 76 23.5t21 48.5q0 9 -1 24h-98v183z" />
<glyph unicode="&#xff;" d="M393 1167v246h239v-246h-239z" />
<glyph unicode="&#x152;" horiz-adv-x="987" d="M34 392h265q2 -84 52.5 -133.5t134.5 -49.5q81 0 132.5 48.5t51.5 123.5q0 73 -41.5 118.5t-143.5 82.5q-147 53 -195.5 77.5t-91.5 67.5q-115 113 -115 277q0 153 108 264q120 124 293 124q90 0 173.5 -39.5t142.5 -108.5q81 -98 88 -240h-261q-6 71 -46 111.5 t-104 40.5q-65 0 -103.5 -37.5t-38.5 -100.5q0 -68 52 -110q41 -33 177 -80q159 -55 234 -126q124 -116 124 -287q0 -183 -125 -308q-135 -134 -318 -134q-103 0 -198.5 45t-156.5 123q-83 106 -90 251zM307 1624l416 246l95 -186l-422 -223z" />
<glyph unicode="&#x153;" horiz-adv-x="827" d="M29 322h251q17 -70 48.5 -100.5t85.5 -30.5q48 0 79.5 29.5t31.5 73.5q0 46 -36 73.5t-138 60.5q-86 29 -119 45.5t-73 51.5q-93 82 -93 217t100 226q102 91 242 91q158 0 259 -118q71 -83 76 -196h-241q-17 88 -96 88q-41 0 -68 -25t-27 -62q0 -48 49 -72 q24 -11 125 -43q130 -40 189 -89q97 -81 97 -218q0 -153 -113 -256q-112 -102 -262 -102q-88 0 -169 39t-129 105q-55 75 -69 212zM247 1255l354 295l116 -158l-363 -272z" />
<glyph unicode="&#x178;" horiz-adv-x="842" d="M35 0v222l452 577h-400v225h696v-222l-451 -577h483v-225h-780zM274 1255l354 295l116 -158l-363 -272z" />
<glyph unicode="&#x2c6;" d="M17 696l334 677h322l335 -677h-258l-238 481l-238 -481h-257z" />
<glyph unicode="&#x2dc;" horiz-adv-x="512" d="M-497 211q7 15 15 34q46 101 86 149q78 94 204 94q70 0 215 -56q90 -34 119.5 -42.5t62.5 -8.5q50 0 82 23t70 87l141 -81q-74 -154 -145 -206q-81 -60 -177 -60q-37 0 -86 15t-213 75q-46 17 -84 17q-51 0 -83 -26.5t-71 -102.5z" />
<glyph unicode="&#x2000;" horiz-adv-x="940" />
<glyph unicode="&#x2001;" horiz-adv-x="1880" />
<glyph unicode="&#x2002;" horiz-adv-x="940" />
<glyph unicode="&#x2003;" horiz-adv-x="1880" />
<glyph unicode="&#x2004;" horiz-adv-x="626" />
<glyph unicode="&#x2005;" horiz-adv-x="470" />
<glyph unicode="&#x2006;" horiz-adv-x="313" />
<glyph unicode="&#x2007;" horiz-adv-x="313" />
<glyph unicode="&#x2008;" horiz-adv-x="235" />
<glyph unicode="&#x2009;" horiz-adv-x="376" />
<glyph unicode="&#x200a;" horiz-adv-x="104" />
<glyph unicode="&#x2010;" horiz-adv-x="512" d="M0 423v205h512v-205h-512z" />
<glyph unicode="&#x2011;" horiz-adv-x="512" d="M0 423v205h512v-205h-512z" />
<glyph unicode="&#x2012;" horiz-adv-x="512" d="M0 423v205h512v-205h-512z" />
<glyph unicode="&#x2013;" d="M68 423v205h887v-205h-887z" />
<glyph unicode="&#x2014;" horiz-adv-x="1537" d="M0 416v218h1537v-218h-1537z" />
<glyph unicode="&#x2018;" horiz-adv-x="478" d="M122 860v260v13q0 136 117 202q56 30 119 30h8v-124q-59 -12 -83 -35.5t-24 -69.5q0 -15 1 -30h108v-246h-246z" />
<glyph unicode="&#x2019;" horiz-adv-x="478" d="M116 1119v246h246v-260q0 -66 -18 -110t-60 -79q-66 -57 -154 -57q-3 0 -12 1v124q59 12 83 35.5t24 69.5q0 16 -1 30h-108z" />
<glyph unicode="&#x201a;" horiz-adv-x="478" d="M116 0v246h246v-260q0 -66 -18 -110t-60 -79q-66 -57 -154 -57q-3 0 -12 1v124q59 12 83 35.5t24 69.5q0 16 -1 30h-108z" />
<glyph unicode="&#x201c;" horiz-adv-x="860" d="M122 860v260v13q0 136 117 202q56 30 119 30h8v-124q-59 -12 -83 -35.5t-24 -69.5q0 -15 1 -30h108v-246h-246zM504 860v260v13q0 136 117 202q56 30 119 30h8v-124q-59 -12 -83 -35.5t-24 -69.5q0 -15 1 -30h108v-246h-246z" />
<glyph unicode="&#x201d;" horiz-adv-x="860" d="M116 1119v246h246v-260q0 -66 -18 -110t-60 -79q-66 -57 -154 -57q-3 0 -12 1v124q59 12 83 35.5t24 69.5q0 16 -1 30h-108zM498 1119v246h246v-260q0 -66 -18 -110t-60 -79q-66 -57 -154 -57q-3 0 -12 1v124q59 12 83 35.5t24 69.5q0 16 -1 30h-108z" />
<glyph unicode="&#x201e;" horiz-adv-x="860" d="M116 0v246h246v-260q0 -66 -18 -110t-60 -79q-66 -57 -154 -57q-3 0 -12 1v124q59 12 83 35.5t24 69.5q0 16 -1 30h-108zM498 0v246h246v-260q0 -66 -18 -110t-60 -79q-66 -57 -154 -57q-3 0 -12 1v124q59 12 83 35.5t24 69.5q0 16 -1 30h-108z" />
<glyph unicode="&#x2022;" horiz-adv-x="1365" d="M401 694q0 121 84 202q86 82 204 82q113 0 196 -83q84 -83 84 -201t-83 -201t-201 -83q-116 0 -199 82q-85 84 -85 202z" />
<glyph unicode="&#x2026;" horiz-adv-x="1434" d="M116 0v246h246v-246h-246zM594 0v246h246v-246h-246zM1071 0v246h246v-246h-246z" />
<glyph unicode="&#x202f;" horiz-adv-x="376" />
<glyph unicode="&#x2039;" horiz-adv-x="421" d="M75 434v186l257 239v-227l-125 -105l125 -108v-227z" />
<glyph unicode="&#x203a;" horiz-adv-x="421" d="M89 192v227l125 108l-125 105v227l257 -239v-186z" />
<glyph unicode="&#x205f;" horiz-adv-x="470" />
<glyph unicode="&#x2122;" horiz-adv-x="1595" d="M34 1219v146h483v-146h-156v-632h-170v632h-157zM581 587v778h229l221 -567l220 567h228v-778h-170v543l-208 -543h-142l-208 543v-543h-170z" />
<glyph unicode="&#xe000;" horiz-adv-x="1025" d="M0 1025h1025v-1025h-1025v1025z" />
<glyph unicode="&#xfb01;" horiz-adv-x="1043" d="M63 799v225h87q14 159 83 246q45 57 112 89.5t140 32.5q29 0 68 -3v-239q-92 -2 -122 -26t-35 -100h144v-225h-144v-799h-246v799h-87zM685 0v1024h246v-1024h-246zM685 1140v225h246v-225h-246z" />
<glyph unicode="&#xfb02;" horiz-adv-x="1043" d="M63 799v225h87q14 159 83 246q45 57 112 89.5t140 32.5q29 0 68 -3v-239q-92 -2 -122 -26t-35 -100h144v-225h-144v-799h-246v799h-87zM685 0v1365h246v-1365h-246z" />
<glyph unicode="&#xfb03;" horiz-adv-x="1616" d="M63 799v225h87q14 159 83 246q45 57 112 89.5t140 32.5q29 0 68 -3v-239q-92 -2 -122 -26t-35 -100h144v-225h-144v-799h-246v799h-87zM636 799v225h87q14 159 83 246q45 57 112 89.5t140 32.5q29 0 68 -3v-239q-92 -2 -122 -26t-35 -100h144v-225h-144v-799h-246v799 h-87zM1258 0v1024h246v-1024h-246zM1258 1140v225h246v-225h-246z" />
<glyph unicode="&#xfb04;" horiz-adv-x="1616" d="M63 799v225h87q14 159 83 246q45 57 112 89.5t140 32.5q29 0 68 -3v-239q-92 -2 -122 -26t-35 -100h144v-225h-144v-799h-246v799h-87zM636 799v225h87q14 159 83 246q45 57 112 89.5t140 32.5q29 0 68 -3v-239q-92 -2 -122 -26t-35 -100h144v-225h-144v-799h-246v799 h-87zM1258 0v1365h246v-1365h-246z" />
<glyph d="M163 1754h199q30 -90 142 -90q71 0 103.5 19t49.5 71h199q-6 -61 -28.5 -104t-69.5 -83q-43 -35 -110.5 -56.5t-137.5 -21.5q-78 0 -149 24.5t-115 67.5q-41 40 -59.5 78t-23.5 95z" />
<glyph d="M389 1508v246h246v-246h-246z" />
<glyph d="M143 1495l251 255h226l253 -255h-267l-99 118l-96 -118h-268z" />
<glyph d="M401 -109h222v-195q0 -94 -70 -145q-60 -43 -137 -43h-13v104q55 8 76 23.5t21 48.5q0 9 -1 24h-98v183z" />
<glyph d="M339 1624l416 246l95 -186l-422 -223z" />
<glyph d="M150 1750h268l103 -118l92 118h267l-246 -255h-218z" />
<glyph d="M301 1673q0 85 61.5 145.5t149.5 61.5q87 0 149 -61q62 -62 62 -148q0 -87 -62 -149q-61 -61 -148 -61q-88 0 -150 61q-62 62 -62 151zM432 1672q0 -36 23.5 -60.5t56.5 -24.5t56.5 24.5t23.5 58.5q0 35 -23 59.5t-57 24.5q-33 0 -56.5 -24.5t-23.5 -57.5z" />
<glyph d="M198 1508v246h246v-246h-246zM580 1508v246h246v-246h-246z" />
<glyph d="M401 -109h222v-195q0 -94 -70 -145q-60 -43 -137 -43h-13v104q55 8 76 23.5t21 48.5q0 9 -1 24h-98v183z" />
<glyph d="M164 1161l240 268h221l235 -268h-247l-99 132l-103 -132h-247z" />
<glyph d="M198 1592l308 265l115 -154l-317 -242zM567 1592l307 265l116 -154l-318 -242z" />
<glyph d="M307 1339q0 82 60 141t145 60q85 0 145 -60q60 -59 60 -143q0 -85 -60 -144q-60 -60 -145 -60t-145 60q-60 59 -60 146zM430 1338q0 -37 24 -62.5t58 -25.5t58 25.5t24 61.5t-23.5 60.5t-58.5 25.5q-34 0 -58 -25t-24 -60z" />
<glyph d="M401 1182v183h222v-195q0 -94 -70 -145q-60 -43 -137 -43h-13v104q55 8 76 23.5t21 48.5q0 9 -1 24h-98z" />
<glyph d="M401 1182v183h222v-195q0 -94 -70 -145q-60 -43 -137 -43h-13v104q55 8 76 23.5t21 48.5q0 9 -1 24h-98z" />
</font>
</defs>
</svg>
