<?xml version="1.0" encoding="iso-8859-1"?>
<!-- Generator: Adobe Illustrator 17.1.0, SVG Export Plug-In . SVG Version: 6.00 Build 0)  -->
<!DOCTYPE svg PUBLIC "-//W3C//DTD SVG 1.1//EN" "http://www.w3.org/Graphics/SVG/1.1/DTD/svg11.dtd">
<svg version="1.1" id="Layer_1" xmlns="http://www.w3.org/2000/svg" xmlns:xlink="http://www.w3.org/1999/xlink" x="0px" y="0px"
	 viewBox="0 0 66.005 52.993" style="enable-background:new 0 0 66.005 52.993;" xml:space="preserve">
<path style="fill:#FFFFFF;" d="M46.541,9.832L46.541,9.832L36.807,0l0,0l-3.805,3.843l5.929,5.989l-2.964,2.995l-2.964,2.994l0,0
	l0,0l-2.964-2.994l-2.965-2.995l5.929-5.989L29.198,0l-9.735,9.832v0L0,29.492l23.268,23.502l9.734-9.832l9.734,9.832l23.268-23.502
	L46.541,9.832z M23.268,45.307L7.61,29.492l15.658-15.816l2.965,2.994l2.965,2.995l-9.729,9.828l9.729,9.827L23.268,45.307z
	 M33.002,35.475l-5.924-5.984l5.924-5.984l5.924,5.984L33.002,35.475z M36.808,39.319l9.729-9.827l-9.729-9.827l2.964-2.995
	l2.965-2.994l15.658,15.816L42.737,45.307L36.808,39.319z"/>
</svg>
