<?xml version="1.0" standalone="no"?>
<!DOCTYPE svg PUBLIC "-//W3C//DTD SVG 1.1//EN" "http://www.w3.org/Graphics/SVG/1.1/DTD/svg11.dtd" >
<svg xmlns="http://www.w3.org/2000/svg">
<metadata>
This is a custom SVG webfont generated by Font Squirrel.
Copyright   : Copyright URW copyright 1999 by URW Design  Development Cyrillic glyphs added by Valek Filippov copyright 20012002 Vietnamese characters were added by Han The Thanh copyright 2006 2008 for TeX Gyre extensions by B Jackowski and JM Nowacki on behalf of TeX users groups This work is released under the GUST Font License   see httptugorgfontslicensesGUSTFONTLICENSEtxt for details
</metadata>
<defs>
<font id="webfontU1b1KFnB" horiz-adv-x="1228" >
<font-face units-per-em="2048" ascent="1667" descent="-381" />
<missing-glyph horiz-adv-x="500" />
<glyph unicode=" " />
<glyph unicode="!" d="M492 72q0 43 31.5 72.5t76.5 29.5h27q47 0 78.5 -29.5t31.5 -72.5t-31.5 -73t-78.5 -30h-27q-45 0 -76.5 30t-31.5 73zM532 1186q0 35 24 57.5t58 22.5q33 0 56.5 -22.5t23.5 -57.5l-2 -33l-37 -668q-2 -57 -43 -57q-39 0 -41 57l-36 668q-3 15 -3 33z" />
<glyph unicode="&#x22;" d="M381 1219h125l-21 -523q0 -23 -11 -39t-29.5 -16t-31 16.5t-12.5 38.5zM723 1219h125l-21 -523q-4 -55 -43 -55q-41 0 -41 55z" />
<glyph unicode="#" d="M188 430q0 41 56 41h182l18 258h-159q-55 0 -56 43q0 41 56 41h166l32 461q2 51 43 51q18 0 29.5 -12.5t11.5 -30.5l-32 -469h186l33 461q2 51 41 51q41 0 41 -57l-33 -455h182q55 0 55 -41q0 -43 -55 -43h-186l-19 -258h164q55 0 55 -41q0 -43 -55 -43h-170l-33 -461 q-2 -53 -43 -53q-18 0 -29.5 13.5t-11.5 29.5l33 471h-186l-31 -461q-2 -53 -43 -53q-16 0 -28.5 12.5t-12.5 30.5l33 471h-178q-56 0 -56 43zM510 471h186l19 258h-187z" />
<glyph unicode="$" d="M231 188v162q0 55 43 56q35 0 41 -52q6 -66 95.5 -115t201.5 -49q131 0 216 62.5t85 159.5q0 88 -55 131t-240 78q-197 37 -268 96t-71 174q0 111 82.5 192.5t211.5 96.5v106q0 55 43 55q41 0 41 -55v-106q68 -6 113 -24.5t100 -61.5q4 59 43 59q41 0 41 -55v-123 q0 -55 -41 -55q-37 0 -43 45q-8 55 -82.5 96t-169.5 41q-106 0 -181 -62.5t-75 -150.5q0 -80 53.5 -118t223.5 -71q211 -41 284.5 -102t73.5 -186q0 -121 -92 -203t-248 -98v-244q0 -55 -41 -55q-43 0 -43 55v244q-72 4 -145.5 34.5t-112.5 75.5v-33q0 -55 -41 -55 q-43 0 -43 55z" />
<glyph unicode="%" d="M178 487q0 29 37 41l776 250q16 4 25 4q14 0 24.5 -11t10.5 -28q0 -27 -37 -38l-776 -250l-25 -6q-12 0 -23.5 12t-11.5 26zM236 1003.5q0 104.5 73.5 179t175.5 74.5q106 0 179 -73.5t73 -182.5q0 -102 -73.5 -176.5t-176.5 -74.5q-104 0 -177.5 74.5t-73.5 179z M313 1003.5q0 -71.5 51.5 -124t122.5 -52.5q70 0 121 52.5t51 121.5q0 76 -50 127.5t-124 51.5q-70 0 -121 -52.5t-51 -124zM489 229.5q0 104.5 74 179t176 74.5q106 0 179 -74.5t73 -183.5q0 -102 -73.5 -176t-176.5 -74q-104 0 -178 75t-74 179.5zM567 229 q0 -72 51.5 -124t122.5 -52q70 0 121 51.5t51 122.5q0 76 -50 127.5t-124 51.5q-72 0 -122 -51.5t-50 -125.5z" />
<glyph unicode="&#x26;" d="M215 291q0 106 60.5 185t166.5 112q-70 113 -86 149.5t-16 81.5q0 100 74.5 172t177.5 72q68 0 135 -41l21 12q20 10 32 10q14 0 26.5 -13t12.5 -30q0 -27 -33 -43l-65 -32q-61 53 -129 53q-66 0 -117 -50t-51 -113.5t90 -205.5l227 -362q63 119 95 262h88q55 0 55 -41 q0 -43 -55 -43h-25q-45 -170 -108 -258l55 -84h78q55 0 55 -41q0 -43 -55 -43h-119l-64 98q-92 -131 -229 -131q-121 0 -209 96.5t-88 227.5zM299 291q0 -96 63.5 -168t147.5 -72q113 0 182 125l-215 338q-82 -18 -130 -78.5t-48 -144.5z" />
<glyph unicode="'" d="M551 1219h127l-21 -523q-4 -55 -43 -55q-41 0 -41 55z" />
<glyph unicode="(" d="M602 498q0 317 225 669q43 70 70 70q16 0 28.5 -12.5t12.5 -28.5q0 -8 -6 -22q-205 -362 -205 -682q0 -313 205 -682q6 -16 6 -23q0 -16 -13.5 -28.5t-29.5 -12.5q-29 0 -86 96q-207 341 -207 656z" />
<glyph unicode=")" d="M301 -213q0 8 6 23q205 362 205 682q0 315 -205 682q-6 14 -6 22q0 16 13.5 28.5t29.5 12.5q29 0 86 -96q207 -340 207 -656q0 -322 -225 -669q-43 -70 -70 -70q-16 0 -28.5 12.5t-12.5 28.5z" />
<glyph unicode="*" d="M231 948q0 16 12.5 28.5t28.5 12.5q6 0 27 -6l272 -86v285q0 55 43 55q41 0 41 -55v-285l273 88q16 6 30.5 6t26.5 -12t12 -29q0 -31 -43 -45l-272 -86l166 -229q14 -25 14 -37q0 -16 -12 -28.5t-29 -12.5q-20 0 -41 29l-168 229l-166 -229q-23 -29 -43 -29 q-16 0 -28.5 12.5t-12.5 30.5q0 12 17 35l166 229l-281 88q-12 2 -22.5 14.5t-10.5 26.5z" />
<glyph unicode="+" d="M88 512q0 16 12.5 29.5t28.5 13.5h442v442q0 16 13.5 29.5t30 13.5t28.5 -13t12 -30v-442h445q16 0 29.5 -13.5t13.5 -29.5t-13.5 -28.5t-29.5 -12.5h-445v-444q0 -16 -12 -28.5t-28.5 -12.5t-30 12t-13.5 29v444h-442q-16 0 -28.5 12.5t-12.5 28.5z" />
<glyph unicode="," d="M279 -256l131 528h168l-218 -548q-14 -31 -43 -31q-50 0 -38 51z" />
<glyph unicode="-" d="M147 571q0 41 56 41h823q55 0 55 -41q0 -43 -55 -43h-823q-56 0 -56 43z" />
<glyph unicode="." d="M463 104.5q0 57.5 41 95.5t100 38h21q59 0 100 -38t41 -95.5t-41 -96.5t-100 -39h-21q-59 0 -100 39t-41 96.5z" />
<glyph unicode="/" d="M231 -127q0 14 11 33l669 1425q18 37 45 37q16 0 28.5 -12.5t12.5 -26.5q0 -12 -10 -33l-670 -1425q-18 -37 -45 -37q-16 0 -28.5 12.5t-12.5 26.5z" />
<glyph unicode="0" d="M231 514v205q0 244 106.5 395.5t276.5 151.5t276.5 -151.5t106.5 -395.5v-205q0 -242 -106.5 -393.5t-276.5 -151.5t-276.5 151.5t-106.5 393.5zM315 526q0 -119 31 -223t100.5 -177t168 -73t168 73t100 177.5t30.5 222.5v183q0 119 -30.5 223t-100 177t-168 73t-168 -73 t-100.5 -177.5t-31 -222.5v-183z" />
<glyph unicode="1" d="M231 43q0 41 58 41h284v1057l-270 -86l-29 -6q-14 0 -26 13t-12 28q0 31 43 45l378 118v-1169h285q55 0 55 -41q0 -43 -55 -43h-653q-58 0 -58 43z" />
<glyph unicode="2" d="M172 0v123l483 455q143 141 187.5 204.5t44.5 132.5q0 106 -88 186.5t-205 80.5q-104 0 -189.5 -61.5t-109.5 -153.5q-12 -41 -43 -41q-14 0 -26.5 11t-12.5 26q0 109 123 206t258 97q150 0 263.5 -106.5t113.5 -246.5q0 -154 -295 -428l-424 -395v-6h643v74q0 55 43 55 q41 0 41 -55v-158h-807z" />
<glyph unicode="3" d="M197 141q0 14 12 26.5t26.5 12.5t34.5 -14q147 -113 326 -113q139 0 240.5 86t101.5 205q0 121 -108.5 208t-258.5 87q-55 0 -55 43q0 41 55 41q129 0 179 22q66 29 104.5 83.5t38.5 119.5q0 100 -80 167t-199 67q-180 0 -274 -111q-25 -29 -43 -29q-16 0 -28.5 11.5 t-12.5 27.5q0 59 123 122t237 63q154 0 257.5 -91.5t103.5 -224.5q0 -172 -211 -278q121 -49 188.5 -136t67.5 -192q0 -156 -126 -265.5t-302 -109.5q-104 0 -250.5 58.5t-146.5 113.5z" />
<glyph unicode="4" d="M215 346v96l467 795h172v-807h70q55 0 55 -43q0 -41 -55 -41h-70v-262h70q55 0 55 -41q0 -43 -55 -43h-310q-55 0 -55 43q0 41 55 41h156v262h-555zM295 430h475v723h-49z" />
<glyph unicode="5" d="M197 168q0 16 12 28.5t28.5 12.5t34.5 -19q150 -137 328 -137q150 0 244 100.5t94 262.5q0 137 -81 223t-210 86t-258 -68q-33 -16 -45 -16q-39 0 -39 45v551h578q57 0 57 -41q0 -43 -57 -43h-494v-405q150 61 270 61q158 0 260.5 -112.5t102.5 -284.5q0 -193 -118 -318 t-300 -125q-113 0 -260 71t-147 128z" />
<glyph unicode="6" d="M279 578q0 297 173 492.5t425 195.5q66 0 113.5 -21.5t47.5 -50.5q0 -16 -11 -28.5t-28 -12.5q-2 0 -45 14.5t-86 14.5q-199 0 -354.5 -169t-155.5 -429q0 -10 4 -88q125 250 340 249q139 0 240.5 -112.5t101.5 -267.5q0 -166 -102 -281t-252 -115q-182 0 -296.5 170.5 t-114.5 438.5zM375 385q86 -332 317 -332q115 0 192 90t77 222q0 121 -77 209t-184 88q-94 0 -167.5 -62.5t-157.5 -214.5z" />
<glyph unicode="7" d="M215 1081v156h764v-133l-334 -1063q-14 -43 -41 -43q-16 0 -28.5 12.5t-12.5 28.5q0 10 4 27l328 1050v37h-596v-72q0 -57 -41 -57q-43 0 -43 57z" />
<glyph unicode="8" d="M231 330q0 205 230 311q-209 106 -209 287q0 137 107.5 237.5t255 100.5t255 -100.5t107.5 -237.5q0 -180 -209 -287q229 -104 229 -311q0 -150 -112.5 -255.5t-270 -105.5t-270.5 105.5t-113 255.5zM315 329.5q0 -114.5 87 -195.5t212 -81q123 0 211 81t88 194 q0 117 -86 194.5t-213 77.5q-125 0 -212 -78t-87 -192.5zM336 924q0 -100 81 -171t197 -71q115 0 197 69.5t82 170.5q0 109 -81 184.5t-197.5 75.5t-197.5 -74.5t-81 -183.5z" />
<glyph unicode="9" d="M279 870q0 166 102 281t252 115q182 0 296.5 -170t114.5 -439q0 -297 -173 -492.5t-425 -195.5q-66 0 -113.5 21.5t-47.5 50.5q0 16 11 28.5t28 12.5l43 -14q43 -14 88 -15q199 0 354.5 168t155.5 430q0 10 -4 88q-125 -250 -340 -250q-139 0 -240.5 112.5t-101.5 268.5z M362 870q0 -121 77 -209t184 -88q94 0 167.5 61.5t157.5 215.5q-88 332 -317 332q-115 0 -192 -90.5t-77 -221.5z" />
<glyph unicode=":" d="M463 104.5q0 57.5 41 95.5t100 38h21q59 0 100 -38t41 -95.5t-41 -96.5t-100 -39h-21q-59 0 -100 39t-41 96.5zM463 719q0 57 41 96t100 39h21q59 0 100 -39t41 -96t-41 -96t-100 -39h-21q-59 0 -100 39t-41 96z" />
<glyph unicode=";" d="M397 -268l2 12l131 528h168l-217 -548q-14 -31 -43 -31q-18 0 -29.5 11.5t-11.5 27.5zM463 719q0 57 41 96t100 39h21q59 0 100 -39t41 -96t-41 -96t-100 -39h-21q-59 0 -100 39t-41 96z" />
<glyph unicode="&#x3c;" d="M217 512q0 27 23 37l712 342q10 6 19 6q16 0 29.5 -13.5t13.5 -29.5q0 -27 -25 -37l-635 -305l635 -305q25 -10 25 -37q0 -16 -13.5 -28.5t-29.5 -12.5q-12 0 -19 4l-712 342q-23 10 -23 37z" />
<glyph unicode="=" d="M88 369q0 16 12.5 28.5t28.5 12.5h971q16 0 29.5 -12.5t13.5 -28.5q0 -18 -13.5 -30.5t-29.5 -12.5h-971q-16 0 -28.5 12.5t-12.5 30.5zM88 655q0 18 12.5 30.5t28.5 12.5h971q16 0 29.5 -12t13.5 -31q0 -16 -13.5 -28.5t-29.5 -12.5h-971q-16 0 -28.5 12.5t-12.5 28.5z " />
<glyph unicode="&#x3e;" d="M217 172q0 27 25 37l635 305l-635 305q-25 10 -25 37q0 16 13.5 28.5t29.5 12.5q12 0 19 -4l712 -342q23 -10 23 -37t-23 -37l-712 -342q-8 -6 -19 -6q-16 0 -29.5 13.5t-13.5 29.5z" />
<glyph unicode="?" d="M274 944v139q207 98 359 99q164 0 264 -87t100 -229q0 -115 -72.5 -192.5t-265.5 -167.5v-84q0 -55 -41 -55q-43 0 -43 55v139q180 76 259 146.5t79 158.5q0 102 -81.5 167t-208.5 65q-125 0 -265 -70v-84q0 -55 -41 -55q-43 0 -43 55zM471 72q0 45 32 73.5t85 28.5h55 q53 0 85 -28.5t32 -73.5t-33 -74t-84 -29h-55q-53 0 -85 29t-32 74z" />
<glyph unicode="@" d="M215 406v333q0 233 112.5 386t286.5 153q139 0 232.5 -94t93.5 -236v-567q39 -6 39 -41q0 -43 -55 -43h-68v10q-61 -6 -82 -6q-119 0 -198.5 74t-79.5 182q0 129 101 212t259 83v96q0 106 -67.5 176t-172.5 70q-139 0 -228 -129t-89 -332v-327q0 -182 85 -315.5 t241 -133.5q143 0 215 61q25 23 39 23q16 0 28.5 -11.5t12.5 -27.5q0 -47 -97.5 -88t-210.5 -41q-178 0 -287.5 157t-109.5 376zM580 559q0 -78 56 -126t144 -48q43 0 76 8v377q-121 0 -198.5 -59.5t-77.5 -151.5z" />
<glyph unicode="A" d="M18 43q0 41 56 41h63l367 985h-246q-55 0 -55 43q0 41 55 41h418l403 -1069h76q55 0 55 -41q0 -43 -55 -43h-319q-55 0 -56 43q0 41 56 41h155l-114 301h-545l-111 -301h162q55 0 55 -41q0 -43 -55 -43h-309q-56 0 -56 43zM365 469h481l-230 600h-30z" />
<glyph unicode="B" d="M88 43q0 41 55 41h111v985h-111q-55 0 -55 43q0 41 55 41h529q150 0 250 -85t100 -212q0 -152 -174 -246q260 -92 260 -297q0 -129 -99.5 -221t-238.5 -92h-627q-55 0 -55 43zM338 84h426q109 0 184.5 66.5t75.5 162.5q0 106 -97.5 175t-283.5 69h-305v-473zM338 641h301 q131 0 215 61.5t84 155.5q0 90 -76 150.5t-188 60.5h-336v-428z" />
<glyph unicode="C" d="M129 496v170q0 205 145.5 359.5t350.5 154.5q207 0 354 -142v60q0 55 43 55q41 0 41 -55v-230q0 -55 -43 -55q-37 0 -41 49q-6 94 -111.5 164t-242.5 70q-170 0 -291 -130t-121 -313v-145q0 -184 133 -320.5t313 -136.5q106 0 190.5 43t166.5 142q18 20 37 20 q41 0 41 -39q0 -33 -78 -104q-156 -145 -357 -146q-209 0 -369.5 161t-160.5 368z" />
<glyph unicode="D" d="M88 43q0 41 55 41h70v985h-70q-55 0 -55 43q0 41 55 41h451q199 0 335 -150.5t136 -367.5v-115q0 -219 -136 -369.5t-335 -150.5h-451q-55 0 -55 43zM297 84h307q147 0 262 127t115 291v149q0 160 -109.5 289t-281.5 129h-293v-985z" />
<glyph unicode="E" d="M88 43q0 41 55 41h111v985h-111q-55 0 -55 43q0 41 55 41h879v-285q0 -55 -43 -55q-41 0 -41 55v201h-600v-428h297v92q0 55 43 55q41 0 41 -55v-268q0 -55 -41 -55q-43 0 -43 55v92h-297v-473h643v244q0 55 43 55q41 0 41 -55v-328h-922q-55 0 -55 43z" />
<glyph unicode="F" d="M88 43q0 41 55 41h111v985h-111q-55 0 -55 43q0 41 55 41h922v-285q0 -55 -43 -55q-41 0 -41 55v201h-643v-428h297v92q0 55 41 55q43 0 43 -55v-268q0 -55 -43 -55q-41 0 -41 55v92h-297v-473h283q57 0 57 -41q0 -43 -57 -43h-478q-55 0 -55 43z" />
<glyph unicode="G" d="M129 500v151q0 217 146.5 373t365.5 156q203 0 340 -111v29q0 55 43 55q41 0 41 -55v-187q0 -55 -41 -55q-39 0 -41 51q-6 78 -104.5 133.5t-233.5 55.5q-182 0 -307 -134.5t-125 -312.5v-149q0 -209 127 -329t348 -120q143 0 293 70v307h-285q-55 0 -55 43q0 41 55 41 h398q57 0 57 -41q0 -43 -57 -43h-29v-354q-184 -106 -383 -107q-252 0 -402.5 145.5t-150.5 387.5z" />
<glyph unicode="H" d="M109 43q0 41 57 41h92v985h-51q-55 0 -55 43q0 41 55 41h246q55 0 55 -41q0 -43 -55 -43h-111v-428h553v428h-111q-55 0 -55 43q0 41 55 41h246q55 0 55 -41q0 -43 -55 -43h-51v-985h94q55 0 55 -41q0 -43 -55 -43h-289q-55 0 -55 43q0 41 55 41h111v473h-553v-473h111 q55 0 55 -41q0 -43 -55 -43h-287q-57 0 -57 43z" />
<glyph unicode="I" d="M231 43q0 41 56 41h284v985h-284q-55 0 -56 43q0 41 56 41h653q57 0 57 -41q0 -43 -57 -43h-285v-985h285q57 0 57 -41q0 -43 -57 -43h-653q-56 0 -56 43z" />
<glyph unicode="J" d="M172 152v305q0 55 43 55q41 0 41 -55v-267q154 -139 303 -139q125 0 212 84t87 203v731h-326q-55 0 -55 43q0 41 55 41h607q55 0 55 -41q0 -43 -55 -43h-197v-731q0 -152 -113.5 -261.5t-271.5 -109.5q-98 0 -186 42.5t-199 142.5z" />
<glyph unicode="K" d="M88 43q0 41 55 41h111v985h-111q-55 0 -55 43q0 41 55 41h349q55 0 55 -41q0 -43 -55 -43h-154v-510l557 510h-76q-57 0 -57 43q0 41 57 41h242q57 0 57 -41q0 -43 -57 -43h-49l-439 -405q150 -61 232 -173t196 -407h115q55 0 55 -41q0 -43 -55 -43h-178 q-113 311 -201 433t-233 169l-166 -149v-369h154q55 0 55 -41q0 -43 -55 -43h-349q-55 0 -55 43z" />
<glyph unicode="L" d="M129 43q0 41 55 41h197v985h-197q-55 0 -55 43q0 41 55 41h478q55 0 55 -41q0 -43 -55 -43h-197v-985h559v328q0 55 43 55q41 0 41 -55v-412h-924q-55 0 -55 43z" />
<glyph unicode="M" d="M23 43q0 41 55 41h69v985h-51q-55 0 -55 43q0 41 55 41h203l322 -713l315 713h205q55 0 55 -41q0 -43 -55 -43h-51v-985h69q55 0 55 -41q0 -43 -55 -43h-305q-55 0 -55 43q0 41 55 41h152v985h-17l-321 -723h-95l-325 723h-17v-985h152q57 0 57 -41q0 -43 -57 -43h-305 q-55 0 -55 43z" />
<glyph unicode="N" d="M45 1112q0 41 55 41h217l625 -1032v948h-151q-57 0 -58 43q0 41 58 41h305q55 0 55 -41q0 -43 -55 -43h-70v-1069h-106l-625 1032v-948h154q55 0 55 -41q0 -43 -55 -43h-308q-55 0 -55 43q0 41 55 41h70v985h-111q-55 0 -55 43z" />
<glyph unicode="O" d="M104 573q0 254 148.5 430.5t361.5 176.5q217 0 363.5 -177.5t146.5 -437.5q0 -248 -149.5 -423t-360.5 -175q-213 0 -361.5 176t-148.5 430zM188 573q0 -215 125 -368.5t301 -153.5q174 0 300 152.5t126 363.5q0 221 -123.5 375t-302.5 154q-176 0 -301 -154t-125 -369z " />
<glyph unicode="P" d="M88 43q0 41 55 41h111v985h-111q-55 0 -55 43q0 41 55 41h492q164 0 275.5 -97.5t111.5 -240.5t-121 -242.5t-295 -99.5h-268v-389h283q57 0 57 -41q0 -43 -57 -43h-478q-55 0 -55 43zM338 557h274q133 0 229.5 76t96.5 182q0 104 -87 179t-208 75h-305v-512z" />
<glyph unicode="Q" d="M104 573q0 254 148.5 430.5t361.5 176.5t361.5 -176.5t148.5 -430.5q0 -252 -143 -426t-356 -180l-111 -82q82 16 137 17q49 0 147.5 -27t112.5 -27q55 0 142 56q10 8 24 8q16 0 28.5 -12.5t12.5 -30.5q0 -31 -74.5 -68t-138.5 -37q-16 0 -111.5 27t-142.5 27 q-119 0 -286 -47q-16 -4 -21 -4q-16 0 -28.5 12t-12.5 31q0 20 23 36l184 134q-174 39 -290 207.5t-116 385.5zM188 573q0 -215 125 -368.5t301 -153.5q174 0 300 152.5t126 363.5q0 221 -123.5 375t-302.5 154q-176 0 -301 -154t-125 -369z" />
<glyph unicode="R" d="M88 43q0 41 55 41h111v985h-111q-55 0 -55 43q0 41 55 41h508q150 0 259.5 -95t109.5 -224q0 -199 -285 -297q96 -66 162 -150t190 -303h64q55 0 55 -41q0 -43 -55 -43h-117q-135 250 -222 355.5t-204 158.5h-270v-430h154q55 0 55 -41q0 -43 -55 -43h-349q-55 0 -55 43z M338 598h233q152 0 258.5 69.5t106.5 168.5q0 92 -87 162.5t-198 70.5h-313v-471z" />
<glyph unicode="S" d="M188 55v230q0 55 43 55q39 0 41 -49q4 -100 104.5 -170t239.5 -70q143 0 238.5 75t95.5 187.5t-92 171.5q-63 41 -237 70q-211 37 -298 108.5t-87 198.5q0 135 107.5 226.5t268.5 91.5q176 0 299 -121v39q0 55 43 55q41 0 41 -55v-211q0 -55 -41 -56q-41 0 -43 50 q-6 92 -90 153.5t-203 61.5q-127 0 -209.5 -67.5t-82.5 -168.5q0 -96 67.5 -147t243.5 -80q201 -35 276 -82q127 -78 127 -242q0 -150 -118.5 -246t-303.5 -96q-217 0 -346 148v-60q0 -55 -43 -55q-41 0 -41 55z" />
<glyph unicode="T" d="M147 920v233h934v-233q0 -55 -41 -56q-18 0 -30.5 15.5t-12.5 40.5v149h-340v-985h215q55 0 56 -41q0 -43 -56 -43h-514q-55 0 -55 43q0 41 55 41h215v985h-342v-149q0 -55 -43 -56q-41 1 -41 56z" />
<glyph unicode="U" d="M82 1112q0 41 55 41h305q55 0 56 -41q0 -43 -56 -43h-151v-690q0 -139 93 -233.5t230 -94.5q135 0 229.5 95.5t94.5 232.5v690h-152q-55 0 -55 43q0 41 55 41h306q55 0 55 -41q0 -43 -55 -43h-70v-690q0 -174 -118 -293t-290 -119q-174 0 -290.5 118t-116.5 294v690h-70 q-55 0 -55 43z" />
<glyph unicode="V" d="M18 1112q0 41 56 41h309q55 0 55 -41q0 -43 -55 -43h-158l381 -985h6l396 985h-160q-55 0 -55 43q0 41 55 41h307q55 0 55 -41q0 -43 -55 -43h-63l-428 -1069h-117l-410 1069h-63q-56 0 -56 43z" />
<glyph unicode="W" d="M41 1112q0 41 55 41h305q57 0 58 -41q0 -43 -58 -43h-180l105 -975l229 803h127l223 -803l107 975h-187q-55 0 -55 43q0 41 55 41h308q55 0 55 -41q0 -43 -55 -43h-41l-117 -1069h-131l-230 819l-235 -819h-129l-113 1069h-41q-55 0 -55 43z" />
<glyph unicode="X" d="M82 43q0 41 55 41h45l375 506l-356 479h-41q-55 0 -56 43q0 41 56 41h225q55 0 55 -41q0 -43 -55 -43h-78l307 -412l304 412h-82q-55 0 -56 43q0 41 56 41h227q55 0 55 -41q0 -43 -55 -43h-41l-356 -479l381 -506h45q55 0 55 -41q0 -43 -55 -43h-271q-55 0 -55 43 q0 41 55 41h117l-328 438l-325 -438h121q55 0 55 -41q0 -43 -55 -43h-269q-55 0 -55 43z" />
<glyph unicode="Y" d="M104 1112q0 41 56 41h227q55 0 55 -41q0 -43 -55 -43h-78l312 -465l305 465h-82q-57 0 -58 43q0 41 58 41h225q55 0 55 -41q0 -43 -55 -43h-49l-361 -549v-436h215q55 0 56 -41q0 -43 -56 -43h-514q-55 0 -55 43q0 41 55 41h215v436l-366 549h-49q-56 0 -56 43z" />
<glyph unicode="Z" d="M211 0v121l672 948h-551v-242q0 -57 -41 -57q-43 0 -43 57v326h715v-119l-672 -950h643v289q0 55 41 55q43 0 43 -55v-373h-807z" />
<glyph unicode="[" d="M573 -254v1491h283q55 0 55 -41q0 -43 -55 -43h-199v-1323h199q55 0 55 -41q0 -43 -55 -43h-283z" />
<glyph unicode="\" d="M231 1329q0 14 13.5 26.5t29.5 12.5q25 0 43 -37l670 -1425q10 -18 10 -32.5t-12 -27t-29 -12.5q-27 0 -45 37l-669 1425q-11 21 -11 33z" />
<glyph unicode="]" d="M317 -213q0 43 56 43h198v1323h-198q-55 0 -56 41q0 43 56 43h282v-1491h-282q-56 0 -56 41z" />
<glyph unicode="^" d="M231 766q0 16 19 37l364 457l365 -457q18 -20 18 -37q0 -16 -12 -28.5t-29 -12.5q-23 0 -41 27l-301 378l-301 -378q-18 -27 -41 -27q-16 0 -28.5 12.5t-12.5 28.5z" />
<glyph unicode="_" d="M-25 -154h1278v-102h-1278v102z" />
<glyph unicode="`" d="M389 1257q0 18 12.5 30.5t28.5 12.5q14 0 39 -18l233 -205q25 -23 25 -39q0 -18 -12.5 -30.5t-28.5 -12.5q-14 0 -39 19l-233 205q-25 22 -25 38z" />
<glyph unicode="a" d="M147 229q0 133 120 216t313 83q121 0 278 -43v146q0 76 -69.5 122t-182.5 46q-90 0 -291 -62l-20 -4q-16 0 -27.5 12.5t-11.5 28.5q0 31 35 43q190 66 321 66q143 0 236.5 -72t93.5 -180v-547h111q55 0 55 -41q0 -43 -55 -43h-195v137q-182 -170 -391 -170 q-143 0 -231.5 72.5t-88.5 189.5zM231 227q0 -80 63.5 -128t170.5 -48q109 0 200 41t193 137v185q-123 31 -262 30q-162 0 -263.5 -60.5t-101.5 -156.5z" />
<glyph unicode="b" d="M45 43q0 41 55 41h111v1069h-111q-55 0 -55 43q0 41 55 41h195v-565q150 211 369 211q186 0 315 -131t129 -322q0 -193 -130 -328t-314 -135q-225 0 -369 213v-180h-195q-55 0 -55 43zM295 426q0 -156 106.5 -265.5t257.5 -109.5q150 0 257.5 108.5t107.5 260.5 q0 160 -105.5 269.5t-259.5 109.5q-152 0 -258 -108.5t-106 -264.5z" />
<glyph unicode="c" d="M172 418q0 203 133 334t338 131q190 0 320 -113v27q0 57 43 57q41 0 41 -57v-187q0 -55 -41 -55q-37 0 -43 49q-6 82 -101.5 138.5t-224.5 56.5q-170 0 -275.5 -105.5t-105.5 -273.5q0 -162 106.5 -265.5t274.5 -103.5q223 0 383 148q20 20 36.5 20t28 -11t11.5 -28 q0 -41 -88 -100q-164 -113 -375 -113q-201 0 -331 127t-130 324z" />
<glyph unicode="d" d="M129 426q0 188 130 322.5t312 134.5q225 0 373 -213v483h-110q-55 0 -56 43q0 41 56 41h194v-1153h111q55 0 55 -41q0 -43 -55 -43h-195v182q-145 -215 -373 -215q-182 0 -312 135.5t-130 323.5zM213 426q0 -158 106.5 -266.5t260.5 -108.5q152 0 258 108.5t106 262.5 q0 160 -105.5 268.5t-260.5 108.5q-152 0 -258.5 -108.5t-106.5 -264.5z" />
<glyph unicode="e" d="M129 444q0 186 135 312.5t332 126.5q147 0 263 -74t171 -201q35 -82 35 -200h-852q23 -162 135.5 -259.5t278.5 -97.5q96 0 196.5 31t161.5 80q20 14 33 14q16 0 27.5 -12t11.5 -29q0 -53 -146.5 -110.5t-285.5 -57.5q-207 0 -351.5 139t-144.5 338zM213 492h766 q-25 139 -129.5 223t-254 84t-251.5 -83t-131 -224z" />
<glyph unicode="f" d="M215 43q0 41 55 41h201v686h-180q-55 0 -55 43q0 41 55 41h180v125q0 113 89 185.5t226 72.5q143 0 285 -27q37 -10 37 -41q0 -41 -43 -41l-102 13q-111 12 -181 12q-100 0 -163.5 -48t-63.5 -126v-125h387q55 0 55 -41q0 -43 -55 -43h-387v-686h365q55 0 55 -41 q0 -43 -55 -43h-650q-55 0 -55 43z" />
<glyph unicode="g" d="M129 426q0 180 125 318.5t297 138.5q217 0 350 -199v170h195q55 0 55 -41q0 -43 -55 -43h-111v-827q0 -119 -88 -213q-104 -111 -250 -111h-233q-55 0 -56 43q0 41 56 41h237q104 0 177 73.5t73 178.5v213q-135 -199 -350 -199q-172 0 -297 138.5t-125 318.5zM213 426 q0 -147 101.5 -260t242.5 -113t242.5 111.5t101.5 257.5q0 152 -100.5 264.5t-243.5 112.5q-141 0 -242.5 -113t-101.5 -260z" />
<glyph unicode="h" d="M88 1196q0 41 55 41h195v-526q78 94 149.5 133t165.5 39q143 0 234.5 -81t91.5 -206v-512h92q57 0 57 -41q0 -43 -57 -43h-268q-55 0 -55 43q0 41 55 41h92v506q0 96 -73.5 152.5t-178.5 56.5q-86 0 -142.5 -34t-140.5 -132l-22 -27v-522h92q57 0 57 -41q0 -43 -57 -43 h-270q-55 0 -56 43q0 41 56 41h94v1069h-111q-55 0 -55 43z" />
<glyph unicode="i" d="M188 43q0 41 56 41h327v686h-241q-55 0 -56 43q0 41 56 41h325v-770h328q57 0 57 -41q0 -43 -57 -43h-739q-56 0 -56 43zM512 1147q0 41 30.5 71.5t71.5 30.5q43 0 73 -30.5t30 -73.5q0 -41 -31 -71t-72 -30t-71.5 31t-30.5 72z" />
<glyph unicode="j" d="M301 -338q0 41 55 41h262q102 0 169 67.5t67 172.5v827h-494q-55 0 -55 43q0 41 55 41h578v-911q0 -143 -89 -233.5t-228 -90.5h-265q-55 0 -55 43zM692 1147q0 41 31 71.5t72 30.5q43 0 72.5 -30.5t29.5 -73.5q0 -41 -30.5 -71t-71.5 -30t-72 31t-31 72z" />
<glyph unicode="k" d="M129 43q0 41 55 41h111v1069h-111q-55 0 -55 43q0 41 55 41h195v-768l354 301h-45q-55 0 -55 43q0 41 55 41h266q55 0 56 -41q0 -43 -56 -43h-96l-321 -268l424 -418h92q55 0 55 -41q0 -43 -55 -43h-269q-55 0 -55 43q0 41 55 41h58l-369 365l-94 -80v-369h-195 q-55 0 -55 43z" />
<glyph unicode="l" d="M188 43q0 41 56 41h327v1069h-239q-55 0 -56 43q0 41 56 41h323v-1153h328q57 0 57 -41q0 -43 -57 -43h-739q-56 0 -56 43z" />
<glyph unicode="m" d="M23 43q0 41 55 41h69v686h-69q-55 0 -55 43q0 41 55 41h151v-106q51 74 100.5 104.5t114.5 30.5q131 0 199 -146q113 145 231 146q88 0 152 -65.5t64 -155.5v-578h69q55 0 55 -41q0 -43 -55 -43h-151v653q0 57 -41 101.5t-95 44.5q-102 0 -213 -168v-547h70q55 0 55 -41 q0 -43 -55 -43h-151v647q0 59 -40 105.5t-94 46.5q-102 0 -215 -168v-547h70q55 0 55 -41q0 -43 -55 -43h-223q-53 0 -53 43z" />
<glyph unicode="n" d="M109 43q0 41 57 41h92v686h-70q-55 0 -55 43q0 41 55 41h154v-141q88 98 155.5 134t164.5 36q137 0 229 -80t92 -199v-520h70q55 0 55 -41q0 -43 -55 -43h-224q-55 0 -55 43q0 41 55 41h70v506q0 94 -72.5 151.5t-173.5 57.5q-109 0 -169 -44t-142 -153v-518h92 q55 0 55 -41q0 -43 -55 -43h-268q-57 0 -57 43z" />
<glyph unicode="o" d="M147 426q0 188 136.5 322.5t330.5 134.5q197 0 332 -134.5t135 -328.5q0 -188 -137 -320.5t-330 -132.5q-195 0 -331 133t-136 326zM231 426q0 -156 112 -265.5t271 -109.5q158 0 270.5 108.5t112.5 260.5q0 162 -110.5 270.5t-272.5 108.5q-160 0 -271.5 -108.5 t-111.5 -264.5z" />
<glyph unicode="p" d="M45 -338q0 41 55 41h111v1067h-111q-55 0 -55 43q0 41 55 41h195v-168q82 106 166 151.5t201 45.5q188 0 317 -134.5t129 -320.5t-130 -322.5t-316 -136.5q-229 0 -367 197v-463h201q55 0 55 -41q0 -43 -55 -43h-396q-55 0 -55 43zM295 428q0 -147 107.5 -261t256.5 -114 q147 0 256 113t109 258q0 152 -105.5 263.5t-259.5 111.5q-150 0 -257 -112t-107 -259z" />
<glyph unicode="q" d="M129 428q0 184 130 319.5t319 135.5q227 0 366 -197v168h195q55 0 55 -41q0 -43 -55 -43h-111v-1067h111q55 0 55 -41q0 -43 -55 -43h-396q-55 0 -55 43q0 41 55 41h201v463q-137 -197 -369 -197q-186 0 -316 136.5t-130 322.5zM213 428q0 -150 106.5 -262.5 t258.5 -112.5q150 0 258 113t108 258q0 152 -106.5 263.5t-259.5 111.5q-152 0 -258.5 -112t-106.5 -259z" />
<glyph unicode="r" d="M172 43q0 41 55 41h197v686h-154q-55 0 -55 43q0 41 55 41h238v-209q141 129 229 179t166 50q82 0 158 -63q47 -39 47 -63q0 -18 -12.5 -30.5t-30.5 -12.5q-16 0 -33 16q-72 70 -135 70q-70 0 -144.5 -49.5t-244.5 -204.5v-453h366q55 0 56 -43q0 -41 -56 -41h-647 q-55 0 -55 43z" />
<glyph unicode="s" d="M211 55v170q0 55 43 56q41 0 41 -45v-15q0 -70 92 -120t223 -50q135 0 225.5 53.5t90.5 135.5q0 150 -312 184q-207 23 -283.5 77t-76.5 150q0 100 99.5 166t250.5 66q174 0 281 -95v9q0 57 43 57q41 0 41 -57v-142q0 -55 -41 -55q-37 0 -43 47q-8 70 -82 111t-191 41 q-115 0 -190.5 -44t-75.5 -110q0 -57 40 -85t106.5 -35t156.5 -23q186 -31 277.5 -94.5t91.5 -169.5q0 -117 -113.5 -194t-288.5 -77q-197 0 -321 111v-23q0 -55 -41 -55q-43 0 -43 55z" />
<glyph unicode="t" d="M88 813q0 41 57 41h152v244q0 55 43 55q41 0 41 -55v-244h450q55 0 56 -41q0 -43 -56 -43h-450v-547q0 -78 61.5 -125t167.5 -47q86 0 183.5 23.5t156.5 58.5q20 12 33 12q14 0 26.5 -12t12.5 -29q0 -45 -138.5 -91t-269.5 -46q-145 0 -231 68.5t-86 183.5v551h-152 q-57 0 -57 43z" />
<glyph unicode="u" d="M88 813q0 41 55 41h195v-618q0 -78 54 -131.5t132 -53.5q205 0 375 185v534h-151q-57 0 -58 43q0 41 58 41h235v-770h70q55 0 55 -41q0 -43 -55 -43h-154v135q-172 -168 -373 -168q-123 0 -197.5 74t-74.5 195v534h-111q-55 0 -55 43z" />
<glyph unicode="v" d="M61 813q0 41 56 41h309q57 0 57 -41q0 -43 -57 -43h-133l307 -686h39l301 686h-139q-55 0 -56 43q0 41 56 41h311q55 0 55 -41q0 -43 -55 -43h-84l-340 -770h-143l-344 770h-84q-56 0 -56 43z" />
<glyph unicode="w" d="M61 813q0 41 56 41h227q55 0 55 -41q0 -43 -55 -43h-108l147 -655l176 522h105l182 -522l141 655h-102q-55 0 -56 43q0 41 56 41h227q55 0 55 -41q0 -43 -55 -43h-39l-170 -770h-102l-187 530l-182 -530h-104l-172 770h-39q-56 0 -56 43z" />
<glyph unicode="x" d="M104 43q0 41 56 41h18l377 365l-334 321h-14q-55 0 -55 43q0 41 55 41h227q55 0 55 -41q0 -43 -55 -43h-94l274 -266l281 266h-98q-55 0 -56 43q0 41 56 41h225q55 0 55 -41q0 -43 -55 -43h-14l-334 -321l377 -365h18q55 0 55 -41q0 -43 -55 -43h-270q-55 0 -56 43 q0 41 56 41h133l-318 305l-321 -305h139q55 0 55 -41q0 -43 -55 -43h-272q-56 0 -56 43z" />
<glyph unicode="y" d="M104 813q0 41 56 41h235q55 0 56 -41q0 -43 -56 -43h-106l336 -678l329 678h-110q-55 0 -56 43q0 41 56 41h225q55 0 55 -41q0 -43 -55 -43h-29l-524 -1067h133q55 0 56 -41q0 -43 -56 -43h-477q-55 0 -55 43q0 41 55 41h260l146 297l-385 770h-33q-56 0 -56 43z" />
<glyph unicode="z" d="M236 0v74l616 696h-514v-113q0 -55 -41 -55q-43 0 -43 55v197h717v-74l-621 -696h568v115q0 55 43 55q41 0 40 -55v-199h-765z" />
<glyph unicode="{" d="M403 492q0 41 50 43q55 4 88.5 39.5t33.5 93.5v354q0 90 58.5 152.5t142.5 62.5q49 0 49 -41q0 -37 -53 -43q-49 -4 -81 -41t-32 -90v-354q0 -63 -19 -101.5t-71 -74.5q51 -37 70.5 -75t19.5 -102v-354q0 -53 32 -90t81 -41q53 -6 53 -43q0 -41 -49 -41 q-84 0 -142.5 62.5t-58.5 152.5v354q0 55 -33.5 92t-88.5 42q-50 2 -50 43z" />
<glyph unicode="|" d="M573 -254v1491h84v-1491h-84z" />
<glyph unicode="}" d="M403 -213q0 37 54 43q49 4 80.5 41t31.5 90v354q0 63 19.5 101.5t70.5 75.5q-51 37 -70.5 74.5t-19.5 101.5v354q0 53 -31.5 90t-80.5 41q-53 6 -54 43q0 41 50 41q84 0 142 -62.5t58 -152.5v-354q0 -55 34 -92t89 -41q49 -2 49 -43t-49 -43q-55 -4 -89 -40t-34 -94v-354 q0 -90 -58 -152.5t-142 -62.5q-50 0 -50 41z" />
<glyph unicode="~" d="M188 510q0 27 58 92q96 111 188 111q47 0 86 -19.5t121 -85.5q111 -90 150 -90q74 0 149 107q35 51 59 51q16 0 28.5 -11.5t12.5 -27.5q0 -23 -51 -82q-100 -121 -192 -121q-49 0 -95.5 25.5t-142.5 107.5q-78 61 -125 62q-39 0 -68.5 -23.5t-97.5 -109.5 q-18 -25 -41 -25q-14 0 -26.5 12.5t-12.5 26.5z" />
<glyph unicode="&#xa0;" />
<glyph unicode="&#xa1;" d="M492 782q0 43 31.5 73t78.5 30h27q45 0 76.5 -30t31.5 -73t-31.5 -72.5t-76.5 -29.5h-27q-47 0 -78.5 29.5t-31.5 72.5zM535 -332l2 33l36 668q2 57 43 57q39 0 41 -57l37 -668q2 -14 2 -33q0 -35 -23.5 -57.5t-58.5 -22.5q-33 0 -56 23.5t-23 56.5z" />
<glyph unicode="&#xa2;" d="M231 637q0 143 88.5 242.5t253.5 136.5v219q0 55 43 55q41 0 41 -55v-217q129 0 213 -74q10 35 41 35q43 0 43 -51v-125q0 -57 -41 -58q-35 0 -41 48q-10 66 -73.5 105.5t-161.5 39.5q-139 0 -230.5 -85t-91.5 -216q0 -129 89.5 -214t224.5 -85q152 0 256 86q20 16 37 16 q39 0 39 -41t-100.5 -88t-203.5 -51v-231q0 -55 -41 -56q-43 0 -43 56v231q-150 16 -246 124t-96 253z" />
<glyph unicode="&#xa3;" d="M129 602q0 41 55 41h193q-55 174 -55 248q0 121 85 207t203 86q82 0 173 -59.5t91 -110.5q0 -14 -13 -26.5t-27 -12.5q-18 0 -37 24q-82 100 -185 101q-84 0 -145 -62.5t-61 -146.5q0 -57 47 -219l8 -29h203q55 0 55 -43q0 -41 -55 -41h-185q10 -72 10 -117 q0 -213 -116 -358h516q35 0 55.5 23.5t26.5 52t19.5 52.5t33.5 24q41 0 41 -46q0 -78 -50 -134t-122 -56h-662q-55 0 -55 43q0 39 45 39q72 0 128.5 113.5t56.5 255.5q0 55 -9 108h-213q-55 0 -55 43z" />
<glyph unicode="&#xa4;" d="M211 236q0 18 22 40l115 115q-72 96 -72 207q0 121 70 209l-113 115q-23 20 -22 39q0 16 12.5 28t28.5 12t39 -22l115 -113q90 72 208 72q117 0 209 -72l113 113q23 23 41 22q16 0 28.5 -12t12.5 -31q0 -16 -21 -36l-112 -115q70 -96 69 -207q0 -119 -71 -209l112 -115 q20 -20 21 -40q0 -16 -12.5 -28.5t-28.5 -12.5q-18 0 -39 22l-115 115q-96 -72 -207 -72q-113 0 -206 72l-117 -115q-20 -23 -37 -22q-18 0 -30.5 12.5t-12.5 28.5zM360 600q0 -106 75 -181t179 -75q102 0 178 75t76 177q0 109 -73.5 183.5t-180.5 74.5q-104 0 -179 -75 t-75 -179z" />
<glyph unicode="&#xa5;" d="M104 1112q0 41 56 41h225q55 0 55 -41q0 -43 -55 -43h-80l309 -465l310 465h-80q-55 0 -56 43q0 41 56 41h225q55 0 55 -41q0 -43 -55 -43h-49l-336 -506h242q43 0 43 -37q0 -39 -43 -39h-269v-122h269q43 0 43 -37q0 -39 -43 -39h-269v-205h177q55 0 55 -41 q0 -43 -55 -43h-437q-55 0 -55 43q0 41 55 41h176v205h-266q-45 0 -45 39q0 37 45 37h266v122h-266q-45 0 -45 39q0 37 45 37h238l-336 506h-49q-56 0 -56 43z" />
<glyph unicode="&#xa6;" d="M573 -254v596q0 18 12.5 30.5t29 12.5t29.5 -12.5t13 -30.5v-596q0 -16 -13 -28.5t-29.5 -12.5t-29 12.5t-12.5 28.5zM573 641v596q0 16 12.5 29.5t29 13.5t29.5 -13.5t13 -29.5v-596q0 -18 -13 -30.5t-29.5 -12.5t-29 12.5t-12.5 30.5z" />
<glyph unicode="&#xa7;" d="M135 733q0 70 57.5 116t153.5 54q-27 45 -27 94q0 96 78 167t185 71h434v-223q0 -49 -41 -49q-43 0 -43 49v141h-344q-76 0 -131.5 -46t-55.5 -110q0 -57 61.5 -110t244.5 -154l114 -63q145 -82 209 -148.5t64 -142.5q0 -150 -209 -172q27 -45 26 -101 q0 -100 -77.5 -166.5t-194.5 -66.5h-424v227q0 49 43 50q41 0 41 -50v-145h338q82 0 136 44t54 110q0 53 -61 111.5t-207 137.5l-133 74q-291 160 -291 301zM223 731q0 -88 256 -233l127 -72q168 -96 209 -135h41q150 4 150 86q0 45 -59.5 102.5t-160.5 114.5l-131 74 q-186 104 -243 157q-189 4 -189 -94z" />
<glyph unicode="&#xa8;" d="M328 1147q0 41 30.5 71.5t71.5 30.5q43 0 72.5 -30.5t29.5 -73.5q0 -41 -30.5 -71t-71.5 -30t-71.5 31t-30.5 72zM696 1147q0 41 31 71.5t72 30.5q43 0 72.5 -30.5t29.5 -73.5q0 -41 -30.5 -71t-71.5 -30t-72 31t-31 72z" />
<glyph unicode="&#xa9;" d="M41 540.5q0 237.5 168 405.5t405.5 168t405.5 -168t168 -405.5t-168 -405.5t-405.5 -168t-405.5 168t-168 405.5zM94 541q0 -215 152.5 -368t367.5 -153t368 153t153 368t-153 367.5t-368 152.5t-367.5 -152.5t-152.5 -367.5zM299 502v88q0 109 95 191.5t228.5 82.5 t227.5 -71v20q0 37 30.5 37t30.5 -37v-119q0 -37 -30 -37q-27 0 -31 33q-2 47 -70.5 81t-156.5 34q-109 0 -187 -65.5t-78 -157.5v-74q0 -94 86 -161.5t201 -67.5q131 0 232 94q12 12 24 12q29 0 29 -29q0 -25 -51 -61q-100 -76 -234 -76q-137 0 -241.5 86t-104.5 197z" />
<glyph unicode="&#xaa;" d="M317 479.5q0 16.5 12.5 28.5t30.5 12h514q16 0 28.5 -12t12.5 -28.5t-12 -30t-29 -13.5h-514q-18 0 -30.5 13.5t-12.5 30zM317 733q0 88 77 143.5t196 55.5q57 0 149 -19v91q0 43 -36.5 69.5t-96.5 26.5q-57 0 -155 -39q-16 -8 -29 -8q-14 0 -24.5 11t-10.5 28 q0 25 29 38q113 45 194 46q90 0 147.5 -48.5t57.5 -123.5v-351h53q47 0 47 -39q0 -37 -47 -36h-129v53q-111 -59 -219 -60q-90 0 -146.5 45t-56.5 117zM393 729q0 -37 35 -59.5t92 -22.5q113 0 219 70v121q-59 23 -145 22q-88 0 -144.5 -37t-56.5 -94z" />
<glyph unicode="&#xab;" d="M129 428l426 403q23 23 43 23q16 0 28.5 -12.5t12.5 -28.5t-23 -41l-292 -344l292 -346q23 -25 23 -41t-12.5 -28.5t-28.5 -12.5t-43 23zM598 428l426 403q23 23 43 23q16 0 28.5 -12.5t12.5 -28.5t-23 -41l-292 -344l292 -346q23 -25 23 -41t-12.5 -28.5t-28.5 -12.5 t-43 23z" />
<glyph unicode="&#xac;" d="M88 655q0 18 12.5 30.5t28.5 12.5h971v-329q0 -18 -13.5 -30.5t-30 -12.5t-28.5 12t-12 31v245h-887q-16 0 -28.5 12.5t-12.5 28.5z" />
<glyph unicode="&#xad;" d="M147 571q0 41 56 41h823q55 0 55 -41q0 -43 -55 -43h-823q-56 0 -56 43z" />
<glyph unicode="&#xae;" d="M41 540.5q0 237.5 168 405.5t405.5 168t405.5 -168t168 -405.5t-168 -405.5t-405.5 -168t-405.5 168t-168 405.5zM94 541q0 -215 152.5 -368t367.5 -153t368 153t153 368t-153 367.5t-368 152.5t-367.5 -152.5t-152.5 -367.5zM248 264q0 29 39 29h69v495h-69 q-39 0 -39 31q0 29 39 29h329q98 0 170 -52.5t72 -121.5q0 -104 -168 -156q53 -33 94 -77t115 -148h41q39 0 39 -29q0 -31 -39 -31h-76q-88 129 -144 184.5t-132 82.5h-172v-207h96q39 0 39 -29q0 -31 -39 -31h-225q-39 0 -39 31zM416 559h149q96 0 165 34t69 83 q0 45 -56.5 78.5t-126.5 33.5h-200v-229z" />
<glyph unicode="&#xaf;" d="M317 1147q0 41 56 41h483q55 0 55 -41t-55 -41h-483q-56 0 -56 41z" />
<glyph unicode="&#xb0;" d="M317 1010q0 119 88.5 206t208.5 87q123 0 210 -87.5t87 -210t-87 -209.5t-210 -87q-125 0 -211 87t-86 214zM401 1008q0 -90 62.5 -152.5t150.5 -62.5t150.5 62.5t62.5 150.5t-62.5 150.5t-150.5 62.5t-150.5 -62.5t-62.5 -148.5z" />
<glyph unicode="&#xb1;" d="M88 43q0 16 12.5 28.5t28.5 12.5h971q16 0 29.5 -12.5t13.5 -28.5q0 -18 -13.5 -30.5t-29.5 -12.5h-971q-16 0 -28.5 12.5t-12.5 30.5zM88 596q0 16 12.5 29.5t28.5 13.5h442v442q0 16 13.5 29.5t30 13.5t28.5 -13t12 -30v-442h445q16 0 29.5 -13.5t13.5 -29.5 t-13.5 -28.5t-29.5 -12.5h-445v-395h-84v395h-442q-16 0 -28.5 12.5t-12.5 28.5z" />
<glyph unicode="&#xb2;" d="M358 530v88l271 252q78 78 100.5 111t22.5 66q0 53 -44 93t-104 40q-53 0 -95 -30t-56 -77q-8 -33 -37 -33q-14 0 -24.5 10.5t-10.5 24.5q0 66 72.5 122t150.5 56q88 0 154.5 -61.5t66.5 -144.5q0 -66 -60 -136.5t-316 -306.5h307v6q0 41 36.5 41t36.5 -41v-80h-471z" />
<glyph unicode="&#xb3;" d="M371 623q0 14 10 24t24.5 10t26.5 -10q84 -59 172 -59q70 0 122 43t52 102q0 61 -53 104.5t-135 45.5q-43 4 -43 37q0 20 18 32q6 4 58 4q57 0 94 31t37 78q0 49 -40 82t-100 33q-92 0 -141 -56q-14 -20 -33 -20q-14 0 -25.5 10t-11.5 25q0 39 71 76.5t140 37.5 q90 0 151.5 -54t61.5 -134q0 -88 -94 -152q119 -74 119 -180q0 -90 -72.5 -154.5t-175.5 -64.5q-76 0 -154.5 37t-78.5 72z" />
<glyph unicode="&#xb4;" d="M502 1038q0 16 24 39l234 205q25 18 39 18q16 0 28.5 -12t12.5 -31q0 -16 -25 -38l-233 -205q-25 -18 -39 -19q-16 0 -28.5 12.5t-12.5 30.5z" />
<glyph unicode="&#xb5;" d="M88 813q0 41 55 41h195v-618q0 -84 52 -135.5t134 -51.5q207 0 375 187v536h-151q-57 0 -57.5 41t57.5 41h235v-772h70q55 0 55 -41t-55 -41h-154v121q-164 -154 -371 -154q-117 0 -190 66v-387q0 -55 -43 -56q-41 0 -41 56v1126h-111q-55 0 -55 41z" />
<glyph unicode="&#xb6;" d="M162 831v97q0 137 124 223t324 86h410q51 0 51 -41q0 -43 -51 -43h-125v-1196h127q53 0 53 -41q0 -43 -53 -43h-201q-51 0 -51 43q0 37 43 41v1196h-147v-1196q43 -4 43 -41q0 -43 -52 -43h-274q-53 0 -53 43q0 41 53 41h199v575q-133 8 -228 50q-88 39 -140 106t-52 143 zM305 848q0 -82 79 -144.5t198 -74.5v514q-119 -12 -198 -74.5t-79 -144.5v-76z" />
<glyph unicode="&#xb7;" d="M481 512q0 55 39 95t94.5 40t95.5 -40t40 -95t-40 -94t-95.5 -39t-94.5 39t-39 94z" />
<glyph unicode="&#xb8;" d="M430 -328q0 16 12.5 27.5t28.5 11.5q10 0 31 -10q59 -33 104 -33q37 0 63.5 28t26.5 56q0 31 -25.5 56.5t-68.5 25.5h-47v176h84v-106q59 0 96 -47t37 -108.5t-46 -110t-116 -48.5q-74 0 -143 37q-37 18 -37 45z" />
<glyph unicode="&#xb9;" d="M391 567q0 37 64 37h125v549l-134 -43l-18 -4q-12 0 -23.5 11t-11.5 26q0 23 33 37t227 73v-649h146q41 0 41 -37t-41 -37h-365q-43 0 -43 37z" />
<glyph unicode="&#xba;" d="M315 489.5q0 16.5 12.5 28.5t30.5 12h519q16 0 28.5 -12t12.5 -28.5t-12.5 -30t-28.5 -13.5h-519q-18 0 -30.5 13.5t-12.5 30zM315 883q0 123 88.5 211t212.5 88q127 0 214.5 -88t87.5 -215q0 -121 -89.5 -209t-212.5 -88q-125 0 -213 88t-88 213zM391 883 q0 -94 66.5 -160t159 -66t159 65.5t66.5 156.5q0 96 -65.5 161.5t-160 65.5t-160 -65.5t-65.5 -157.5z" />
<glyph unicode="&#xbb;" d="M129 41q0 16 23 41l290 344l-290 346q-23 25 -23 41t12.5 28.5t28.5 12.5t43 -23l424 -405l-424 -403q-23 -23 -43 -23q-16 0 -28.5 12.5t-12.5 28.5zM600 41q0 16 23 41l290 344l-290 346q-23 25 -23 41t12.5 28.5t28.5 12.5t43 -23l424 -405l-424 -403q-23 -23 -43 -23 q-16 0 -28.5 12.5t-12.5 28.5z" />
<glyph unicode="&#xbc;" d="M74 567q0 37 63 37h125v549l-133 -43l-18 -4q-12 0 -23.5 11t-11.5 26q0 23 32.5 37t227.5 73v-649h145q43 0 43 -37t-43 -37h-364q-43 0 -43 37zM272 145q0 14 19 35l717 848q23 25 36 25q16 0 28.5 -12.5t12.5 -28.5q0 -10 -16 -35l-719 -848q-20 -25 -36.5 -25 t-29 12.5t-12.5 28.5zM698 190v70l263 447h116v-443h27q43 0 43 -37t-51 -37h-19v-116h27q43 0 43 -37t-43 -37h-174q-43 0 -43 37q0 25 22 35q10 2 95 2v116h-306zM780 264h224v369h-5z" />
<glyph unicode="&#xbd;" d="M47 567q0 37 64 37h125v549l-134 -43l-18 -4q-12 0 -23.5 11t-11.5 26q0 23 33 37t227 73v-649h146q41 0 41 -37t-41 -37h-365q-43 0 -43 37zM197 145q0 14 18 35l717 848q23 25 37 25q16 0 28.5 -12.5t12.5 -28.5q0 -10 -17 -35l-719 -848q-20 -25 -36.5 -25t-28.5 12.5 t-12 28.5zM702 0v88l271 252q78 78 100.5 110.5t22.5 65.5q0 53 -44 93t-104 40q-53 0 -95 -29.5t-56 -76.5q-8 -33 -37 -33q-14 0 -24.5 10t-10.5 25q0 39 39 88q72 90 184 90q88 0 154.5 -61.5t66.5 -145.5q0 -66 -60 -136.5t-316 -305.5h307v6q0 41 37 41t37 -41v-80 h-472z" />
<glyph unicode="&#xbe;" d="M53 623q0 14 10.5 24t24.5 10t27 -10q84 -59 172 -59q70 0 122 43t52 102q0 61 -53.5 104.5t-135.5 45.5q-43 4 -43 37q0 20 19 32q6 4 57 4q57 0 94 31t37 78q0 49 -40 82t-99 33q-92 0 -141 -56q-14 -20 -33 -20q-14 0 -25.5 10t-11.5 25q0 39 70.5 76.5t140.5 37.5 q90 0 151.5 -54t61.5 -134q0 -88 -94 -152q119 -74 119 -180q0 -90 -73 -154.5t-175 -64.5q-76 0 -155 37t-79 72zM250 145q0 14 18 35l717 848q23 25 37 25q16 0 28.5 -12.5t12.5 -28.5q0 -10 -16 -35l-719 -848q-20 -25 -37 -25t-29 12.5t-12 28.5zM719 190v70l262 447 h117v-443h26q43 0 43 -37t-51 -37h-18v-116h26q43 0 43 -37t-43 -37h-174q-43 0 -43 37q0 25 23 35q10 2 94 2v116h-305zM801 264h223v369h-4z" />
<glyph unicode="&#xbf;" d="M231 -12q0 115 73 192.5t265 167.5v84q0 55 41 55q43 0 43 -55v-139q-180 -76 -259 -146.5t-79 -158.5q0 -102 82 -167t209 -65q125 0 264 70v84q0 55 41 55q43 0 43 -55v-139q-207 -98 -358 -99q-164 0 -264.5 87.5t-100.5 228.5zM469 782q0 45 33 74t84 29h55 q53 0 85 -29t32 -74t-32 -73.5t-85 -28.5h-55q-53 0 -85 28.5t-32 73.5z" />
<glyph unicode="&#xc0;" d="M18 43q0 41 56 41h63l367 985h-246q-55 0 -55 43q0 41 55 41h418l403 -1069h76q55 0 55 -41q0 -43 -55 -43h-319q-55 0 -56 43q0 41 56 41h155l-114 301h-545l-111 -301h162q55 0 55 -41q0 -43 -55 -43h-309q-56 0 -56 43zM365 469h481l-230 600h-30zM377 1495 q0 18 12 30.5t29 12.5q14 0 39 -18l233 -205q25 -23 25 -39q0 -18 -12.5 -30.5t-28.5 -12.5q-14 0 -39 18l-234 205q-24 23 -24 39z" />
<glyph unicode="&#xc1;" d="M18 43q0 41 56 41h63l367 985h-246q-55 0 -55 43q0 41 55 41h418l403 -1069h76q55 0 55 -41q0 -43 -55 -43h-319q-55 0 -56 43q0 41 56 41h155l-114 301h-545l-111 -301h162q55 0 55 -41q0 -43 -55 -43h-309q-56 0 -56 43zM365 469h481l-230 600h-30zM489 1276 q0 16 25 39l234 205q25 18 38 18q16 0 28.5 -12.5t12.5 -30.5q0 -16 -24 -39l-234 -205q-25 -18 -39 -18q-16 0 -28.5 12.5t-12.5 30.5z" />
<glyph unicode="&#xc2;" d="M18 43q0 41 56 41h63l367 985h-246q-55 0 -55 43q0 41 55 41h418l403 -1069h76q55 0 55 -41q0 -43 -55 -43h-319q-55 0 -56 43q0 41 56 41h155l-114 301h-545l-111 -301h162q55 0 55 -41q0 -43 -55 -43h-309q-56 0 -56 43zM305 1274q0 23 27 41l270 223l270 -221 q27 -23 27 -43q0 -16 -12.5 -28.5t-28.5 -12.5q-14 0 -37 16l-219 181l-219 -181q-23 -16 -37 -16q-16 0 -28.5 12.5t-12.5 28.5zM365 469h481l-230 600h-30z" />
<glyph unicode="&#xc3;" d="M18 43q0 41 56 41h63l367 985h-246q-55 0 -55 43q0 41 55 41h418l403 -1069h76q55 0 55 -41q0 -43 -55 -43h-319q-55 0 -56 43q0 41 56 41h155l-114 301h-545l-111 -301h162q55 0 55 -41q0 -43 -55 -43h-309q-56 0 -56 43zM285 1339q0 49 74.5 93.5t117.5 44.5 q49 0 131 -47q90 -51 121 -52q27 0 48.5 15.5t68.5 62.5q16 16 32.5 16.5t29 -12t12.5 -28.5q0 -37 -73 -87.5t-114 -50.5q-63 0 -166 64q-55 35 -88 35q-31 0 -52 -14.5t-67 -61.5q-12 -16 -34 -17q-16 0 -28.5 11.5t-12.5 27.5zM365 469h481l-230 600h-30z" />
<glyph unicode="&#xc4;" d="M18 43q0 41 56 41h63l367 985h-246q-55 0 -55 43q0 41 55 41h418l403 -1069h76q55 0 55 -41q0 -43 -55 -43h-319q-55 0 -56 43q0 41 56 41h155l-114 301h-545l-111 -301h162q55 0 55 -41q0 -43 -55 -43h-309q-56 0 -56 43zM315 1384q0 41 31 72t72 31q43 0 72.5 -31 t29.5 -74q0 -41 -30.5 -70.5t-71.5 -29.5t-72 30.5t-31 71.5zM365 469h481l-230 600h-30zM684 1384q0 41 30.5 72t71.5 31q43 0 73 -31t30 -74q0 -41 -31 -70.5t-72 -29.5t-71.5 30.5t-30.5 71.5z" />
<glyph unicode="&#xc5;" d="M18 43q0 41 56 41h63l367 985h-246q-55 0 -55 43q0 41 55 41h418l403 -1069h76q55 0 55 -41q0 -43 -55 -43h-319q-55 0 -56 43q0 41 56 41h155l-114 301h-545l-111 -301h162q55 0 55 -41q0 -43 -55 -43h-309q-56 0 -56 43zM365 469h481l-230 600h-30zM393 1419 q0 82 61.5 142.5t147.5 60.5q88 0 148.5 -60.5t60.5 -148.5q0 -80 -61.5 -140.5t-147.5 -60.5t-147.5 61.5t-61.5 145.5zM467 1419q0 -55 40 -93t95 -38t95 38t40 89q0 55 -40 93t-95 38t-95 -38t-40 -89z" />
<glyph unicode="&#xc6;" d="M20 43q0 41 56 41h76l272 985h-129q-55 0 -55 43q0 41 55 41h872v-311q0 -55 -43 -56q-41 0 -41 56v227h-391v-426h160v57q0 55 41 55.5t41 -55.5v-196q0 -55 -41 -55t-41 55v55h-160v-475h432v190q0 53 41 54q43 0 43 -54v-274h-706q-55 0 -56 43q0 41 56 41h106v303 h-289l-83 -303h53q55 0 55 -41q0 -43 -55 -43h-213q-56 0 -56 43zM342 471h266v598h-102z" />
<glyph unicode="&#xc7;" d="M129 496v170q0 205 145.5 359.5t350.5 154.5q207 0 354 -142v60q0 55 43 55q41 0 41 -55v-230q0 -55 -43 -55q-37 0 -41 49q-6 94 -111.5 164t-242.5 70q-170 0 -291 -130t-121 -313v-145q0 -184 133 -320.5t313 -136.5q106 0 190.5 43t166.5 142q18 20 37 20 q41 0 41 -39q0 -33 -78 -104q-137 -127 -314 -144v-65q59 0 96.5 -47t37.5 -108.5t-46.5 -110t-115.5 -48.5q-74 0 -144 37q-37 18 -36 45q0 16 12 27.5t29 11.5q10 0 30 -10q59 -33 105 -33q37 0 63.5 28t26.5 56q0 31 -25.5 56.5t-68.5 25.5h-48v135q-197 16 -343 173 t-146 354z" />
<glyph unicode="&#xc8;" d="M88 43q0 41 55 41h111v985h-111q-55 0 -55 43q0 41 55 41h879v-285q0 -55 -43 -55q-41 0 -41 55v201h-600v-428h297v92q0 55 43 55q41 0 41 -55v-268q0 -55 -41 -55q-43 0 -43 55v92h-297v-473h643v244q0 55 43 55q41 0 41 -55v-328h-922q-55 0 -55 43zM358 1495 q0 18 12.5 30.5t28.5 12.5q14 0 39 -18l234 -205q25 -23 24 -39q0 -18 -12 -30.5t-29 -12.5q-14 0 -39 18l-233 205q-25 23 -25 39z" />
<glyph unicode="&#xc9;" d="M88 43q0 41 55 41h111v985h-111q-55 0 -55 43q0 41 55 41h879v-285q0 -55 -43 -55q-41 0 -41 55v201h-600v-428h297v92q0 55 43 55q41 0 41 -55v-268q0 -55 -41 -55q-43 0 -43 55v92h-297v-473h643v244q0 55 43 55q41 0 41 -55v-328h-922q-55 0 -55 43zM471 1276 q0 16 25 39l233 205q25 18 39 18q16 0 28.5 -12.5t12.5 -30.5q0 -16 -25 -39l-233 -205q-25 -18 -39 -18q-16 0 -28.5 12.5t-12.5 30.5z" />
<glyph unicode="&#xca;" d="M88 43q0 41 55 41h111v985h-111q-55 0 -55 43q0 41 55 41h879v-285q0 -55 -43 -55q-41 0 -41 55v201h-600v-428h297v92q0 55 43 55q41 0 41 -55v-268q0 -55 -41 -55q-43 0 -43 55v92h-297v-473h643v244q0 55 43 55q41 0 41 -55v-328h-922q-55 0 -55 43zM287 1274 q0 23 26 41l271 223l270 -221q27 -23 27 -43q0 -16 -12.5 -28.5t-28.5 -12.5q-14 0 -37 16l-219 181l-219 -181q-23 -16 -37 -16q-16 0 -28.5 12.5t-12.5 28.5z" />
<glyph unicode="&#xcb;" d="M88 43q0 41 55 41h111v985h-111q-55 0 -55 43q0 41 55 41h879v-285q0 -55 -43 -55q-41 0 -41 55v201h-600v-428h297v92q0 55 43 55q41 0 41 -55v-268q0 -55 -41 -55q-43 0 -43 55v92h-297v-473h643v244q0 55 43 55q41 0 41 -55v-328h-922q-55 0 -55 43zM297 1384 q0 41 30.5 72t71.5 31q43 0 73 -31t30 -74q0 -41 -31 -70.5t-72 -29.5t-71.5 30.5t-30.5 71.5zM666 1384q0 41 30.5 72t71.5 31q43 0 72.5 -31t29.5 -74q0 -41 -30.5 -70.5t-71.5 -29.5t-71.5 30.5t-30.5 71.5z" />
<glyph unicode="&#xcc;" d="M231 43q0 41 56 41h284v985h-284q-55 0 -56 43q0 41 56 41h653q57 0 57 -41q0 -43 -57 -43h-285v-985h285q57 0 57 -41q0 -43 -57 -43h-653q-56 0 -56 43zM389 1495q0 18 12.5 30.5t28.5 12.5q14 0 39 -18l233 -205q25 -23 25 -39q0 -18 -12.5 -30.5t-28.5 -12.5 q-14 0 -39 18l-233 205q-25 23 -25 39z" />
<glyph unicode="&#xcd;" d="M231 43q0 41 56 41h284v985h-284q-55 0 -56 43q0 41 56 41h653q57 0 57 -41q0 -43 -57 -43h-285v-985h285q57 0 57 -41q0 -43 -57 -43h-653q-56 0 -56 43zM502 1276q0 16 24 39l234 205q25 18 39 18q16 0 28.5 -12.5t12.5 -30.5q0 -16 -25 -39l-233 -205q-25 -18 -39 -18 q-16 0 -28.5 12.5t-12.5 30.5z" />
<glyph unicode="&#xce;" d="M231 43q0 41 56 41h284v985h-284q-55 0 -56 43q0 41 56 41h653q57 0 57 -41q0 -43 -57 -43h-285v-985h285q57 0 57 -41q0 -43 -57 -43h-653q-56 0 -56 43zM317 1274q0 23 27 41l270 223l271 -221q27 -23 26 -43q0 -16 -12 -28.5t-29 -12.5q-14 0 -36 16l-220 181 l-219 -181q-23 -16 -37 -16q-16 0 -28.5 12.5t-12.5 28.5z" />
<glyph unicode="&#xcf;" d="M231 43q0 41 56 41h284v985h-284q-55 0 -56 43q0 41 56 41h653q57 0 57 -41q0 -43 -57 -43h-285v-985h285q57 0 57 -41q0 -43 -57 -43h-653q-56 0 -56 43zM328 1384q0 41 30.5 72t71.5 31q43 0 72.5 -31t29.5 -74q0 -41 -30.5 -70.5t-71.5 -29.5t-71.5 30.5t-30.5 71.5z M696 1384q0 41 31 72t72 31q43 0 72.5 -31t29.5 -74q0 -41 -30.5 -70.5t-71.5 -29.5t-72 30.5t-31 71.5z" />
<glyph unicode="&#xd0;" d="M0 600q0 41 55 41h158v428h-70q-55 0 -55 43q0 41 55 41h451q193 0 332 -152.5t139 -365.5v-115q0 -213 -139.5 -366.5t-331.5 -153.5h-451q-55 0 -55 43q0 41 55 41h70v473h-158q-55 0 -55 43zM297 84h307q145 0 261 128t116 290v151q0 158 -110.5 287t-280.5 129h-293 v-428h332q55 0 55 -41q0 -43 -55 -43h-332v-473z" />
<glyph unicode="&#xd1;" d="M45 1112q0 41 55 41h217l625 -1032v948h-151q-57 0 -58 43q0 41 58 41h305q55 0 55 -41q0 -43 -55 -43h-70v-1069h-106l-625 1032v-948h154q55 0 55 -41q0 -43 -55 -43h-308q-55 0 -55 43q0 41 55 41h70v985h-111q-55 0 -55 43zM301 1339q0 49 75 93.5t118 44.5 q49 0 131 -47q90 -51 120 -52q27 0 48.5 15.5t68.5 62.5q16 16 32.5 16.5t29 -12t12.5 -28.5q0 -37 -72.5 -87.5t-113.5 -50.5q-63 0 -166 64q-55 35 -88 35q-31 0 -52.5 -14.5t-66.5 -61.5q-12 -16 -35 -17q-16 0 -28.5 11.5t-12.5 27.5z" />
<glyph unicode="&#xd2;" d="M104 573q0 254 148.5 430.5t361.5 176.5q217 0 363.5 -177.5t146.5 -437.5q0 -248 -149.5 -423t-360.5 -175q-213 0 -361.5 176t-148.5 430zM188 573q0 -215 125 -368.5t301 -153.5q174 0 300 152.5t126 363.5q0 221 -123.5 375t-302.5 154q-176 0 -301 -154t-125 -369z M389 1495q0 18 12.5 30.5t28.5 12.5q14 0 39 -18l233 -205q25 -23 25 -39q0 -18 -12.5 -30.5t-28.5 -12.5q-14 0 -39 18l-233 205q-25 23 -25 39z" />
<glyph unicode="&#xd3;" d="M104 573q0 254 148.5 430.5t361.5 176.5q217 0 363.5 -177.5t146.5 -437.5q0 -248 -149.5 -423t-360.5 -175q-213 0 -361.5 176t-148.5 430zM188 573q0 -215 125 -368.5t301 -153.5q174 0 300 152.5t126 363.5q0 221 -123.5 375t-302.5 154q-176 0 -301 -154t-125 -369z M502 1276q0 16 24 39l234 205q25 18 39 18q16 0 28.5 -12.5t12.5 -30.5q0 -16 -25 -39l-233 -205q-25 -18 -39 -18q-16 0 -28.5 12.5t-12.5 30.5z" />
<glyph unicode="&#xd4;" d="M104 573q0 254 148.5 430.5t361.5 176.5q217 0 363.5 -177.5t146.5 -437.5q0 -248 -149.5 -423t-360.5 -175q-213 0 -361.5 176t-148.5 430zM188 573q0 -215 125 -368.5t301 -153.5q174 0 300 152.5t126 363.5q0 221 -123.5 375t-302.5 154q-176 0 -301 -154t-125 -369z M317 1274q0 23 27 41l270 223l271 -221q27 -23 26 -43q0 -16 -12 -28.5t-29 -12.5q-14 0 -36 16l-220 181l-219 -181q-23 -16 -37 -16q-16 0 -28.5 12.5t-12.5 28.5z" />
<glyph unicode="&#xd5;" d="M104 573q0 254 148.5 430.5t361.5 176.5q217 0 363.5 -177.5t146.5 -437.5q0 -248 -149.5 -423t-360.5 -175q-213 0 -361.5 176t-148.5 430zM188 573q0 -215 125 -368.5t301 -153.5q174 0 300 152.5t126 363.5q0 221 -123.5 375t-302.5 154q-176 0 -301 -154t-125 -369z M297 1339q0 49 74.5 93.5t117.5 44.5q49 0 132 -47q90 -51 120 -52q27 0 48.5 15.5t68.5 62.5q16 16 32.5 16.5t29 -12t12.5 -28.5q0 -37 -73 -87.5t-114 -50.5q-63 0 -165 64q-55 35 -88 35q-31 0 -52.5 -14.5t-66.5 -61.5q-12 -16 -35 -17q-16 0 -28.5 11.5t-12.5 27.5z " />
<glyph unicode="&#xd6;" d="M104 573q0 254 148.5 430.5t361.5 176.5q217 0 363.5 -177.5t146.5 -437.5q0 -248 -149.5 -423t-360.5 -175q-213 0 -361.5 176t-148.5 430zM188 573q0 -215 125 -368.5t301 -153.5q174 0 300 152.5t126 363.5q0 221 -123.5 375t-302.5 154q-176 0 -301 -154t-125 -369z M328 1384q0 41 30.5 72t71.5 31q43 0 72.5 -31t29.5 -74q0 -41 -30.5 -70.5t-71.5 -29.5t-71.5 30.5t-30.5 71.5zM696 1384q0 41 31 72t72 31q43 0 72.5 -31t29.5 -74q0 -41 -30.5 -70.5t-71.5 -29.5t-72 30.5t-31 71.5z" />
<glyph unicode="&#xd7;" d="M229 854q0 18 13 31q29 29 59 0l313 -314l314 314q12 12 30.5 12t30.5 -12q29 -29 -2 -60l-313 -313l313 -315q12 -10 12 -27.5t-12 -30.5q-29 -29 -59 -2l-314 316l-313 -314q-29 -29 -57 0q-31 31 -2 60l313 313l-313 313q-13 11 -13 29z" />
<glyph unicode="&#xd8;" d="M82 -51q0 12 16 33l142 178q-135 180 -136 413q0 254 148.5 430.5t361.5 176.5q176 0 324 -136l135 170q18 25 37 25q16 0 26.5 -11t10.5 -26q0 -10 -17 -33l-143 -180q137 -170 137 -416q0 -254 -148.5 -430t-361.5 -176q-184 0 -325 137l-133 -167q-18 -25 -37 -25 q-16 0 -26.5 11.5t-10.5 25.5zM188 573q0 -186 107 -344l590 746q-121 121 -271 121q-176 0 -301 -154t-125 -369zM342 172q121 -121 272 -121q176 0 301 153.5t125 368.5q0 193 -106 347z" />
<glyph unicode="&#xd9;" d="M82 1112q0 41 55 41h305q55 0 56 -41q0 -43 -56 -43h-151v-690q0 -139 93 -233.5t230 -94.5q135 0 229.5 95.5t94.5 232.5v690h-152q-55 0 -55 43q0 41 55 41h306q55 0 55 -41q0 -43 -55 -43h-70v-690q0 -174 -118 -293t-290 -119q-174 0 -290.5 118t-116.5 294v690h-70 q-55 0 -55 43zM389 1495q0 18 12.5 30.5t28.5 12.5q14 0 39 -18l233 -205q25 -23 25 -39q0 -18 -12.5 -30.5t-28.5 -12.5q-14 0 -39 18l-233 205q-25 23 -25 39z" />
<glyph unicode="&#xda;" d="M82 1112q0 41 55 41h305q55 0 56 -41q0 -43 -56 -43h-151v-690q0 -139 93 -233.5t230 -94.5q135 0 229.5 95.5t94.5 232.5v690h-152q-55 0 -55 43q0 41 55 41h306q55 0 55 -41q0 -43 -55 -43h-70v-690q0 -174 -118 -293t-290 -119q-174 0 -290.5 118t-116.5 294v690h-70 q-55 0 -55 43zM502 1276q0 16 24 39l234 205q25 18 39 18q16 0 28.5 -12.5t12.5 -30.5q0 -16 -25 -39l-233 -205q-25 -18 -39 -18q-16 0 -28.5 12.5t-12.5 30.5z" />
<glyph unicode="&#xdb;" d="M82 1112q0 41 55 41h305q55 0 56 -41q0 -43 -56 -43h-151v-690q0 -139 93 -233.5t230 -94.5q135 0 229.5 95.5t94.5 232.5v690h-152q-55 0 -55 43q0 41 55 41h306q55 0 55 -41q0 -43 -55 -43h-70v-690q0 -174 -118 -293t-290 -119q-174 0 -290.5 118t-116.5 294v690h-70 q-55 0 -55 43zM317 1274q0 23 27 41l270 223l271 -221q27 -23 26 -43q0 -16 -12 -28.5t-29 -12.5q-14 0 -36 16l-220 181l-219 -181q-23 -16 -37 -16q-16 0 -28.5 12.5t-12.5 28.5z" />
<glyph unicode="&#xdc;" d="M82 1112q0 41 55 41h305q55 0 56 -41q0 -43 -56 -43h-151v-690q0 -139 93 -233.5t230 -94.5q135 0 229.5 95.5t94.5 232.5v690h-152q-55 0 -55 43q0 41 55 41h306q55 0 55 -41q0 -43 -55 -43h-70v-690q0 -174 -118 -293t-290 -119q-174 0 -290.5 118t-116.5 294v690h-70 q-55 0 -55 43zM328 1384q0 41 30.5 72t71.5 31q43 0 72.5 -31t29.5 -74q0 -41 -30.5 -70.5t-71.5 -29.5t-71.5 30.5t-30.5 71.5zM696 1384q0 41 31 72t72 31q43 0 72.5 -31t29.5 -74q0 -41 -30.5 -70.5t-71.5 -29.5t-72 30.5t-31 71.5z" />
<glyph unicode="&#xdd;" d="M104 1112q0 41 56 41h227q55 0 55 -41q0 -43 -55 -43h-78l312 -465l305 465h-82q-57 0 -58 43q0 41 58 41h225q55 0 55 -41q0 -43 -55 -43h-49l-361 -549v-436h215q55 0 56 -41q0 -43 -56 -43h-514q-55 0 -55 43q0 41 55 41h215v436l-366 549h-49q-56 0 -56 43zM506 1276 q0 16 24 39l234 205q25 18 39 18q16 0 28.5 -12.5t12.5 -30.5q0 -16 -25 -39l-233 -205q-25 -18 -39 -18q-16 0 -28.5 12.5t-12.5 30.5z" />
<glyph unicode="&#xde;" d="M88 43q0 41 55 41h111v985h-111q-55 0 -55 43q0 41 55 41h478q57 0 57 -41q0 -43 -57 -43h-283v-121h297q164 0 275.5 -97t111.5 -240.5t-121 -243t-295 -99.5h-268v-184h283q57 0 57 -41q0 -43 -57 -43h-478q-55 0 -55 43zM338 352h274q133 0 229.5 76t96.5 182 q0 104 -87 179t-208 75h-305v-512z" />
<glyph unicode="&#xdf;" d="M88 43q0 41 55 41h111v891q0 109 85 185.5t206 76.5q125 0 212 -87t87 -212q0 -123 -119 -203q297 -121 297 -405q0 -156 -79 -259.5t-195 -103.5q-92 0 -155 68.5t-63 171.5q0 47 41 47q39 0 43 -49q4 -72 40 -113t94 -41q80 0 135 81t55 200q0 143 -110.5 247.5 t-256.5 104.5h-10q-55 0 -55 43q0 41 47 41h10q78 0 137.5 52t59.5 120q0 88 -63.5 150.5t-151.5 62.5q-86 0 -146.5 -51t-60.5 -127v-891h31q55 0 55 -41q0 -43 -55 -43h-226q-55 0 -55 43z" />
<glyph unicode="&#xe0;" d="M147 229q0 133 120 216t313 83q121 0 278 -43v146q0 76 -69.5 122t-182.5 46q-90 0 -291 -62l-20 -4q-16 0 -27.5 12.5t-11.5 28.5q0 31 35 43q190 66 321 66q143 0 236.5 -72t93.5 -180v-547h111q55 0 55 -41q0 -43 -55 -43h-195v137q-182 -170 -391 -170 q-143 0 -231.5 72.5t-88.5 189.5zM231 227q0 -80 63.5 -128t170.5 -48q109 0 200 41t193 137v185q-123 31 -262 30q-162 0 -263.5 -60.5t-101.5 -156.5zM387 1257q0 18 12.5 30.5t28.5 12.5q14 0 39 -18l233 -205q25 -23 25 -39q0 -18 -12.5 -30.5t-28.5 -12.5q-14 0 -39 19 l-233 205q-25 22 -25 38z" />
<glyph unicode="&#xe1;" d="M147 229q0 133 120 216t313 83q121 0 278 -43v146q0 76 -69.5 122t-182.5 46q-90 0 -291 -62l-20 -4q-16 0 -27.5 12.5t-11.5 28.5q0 31 35 43q190 66 321 66q143 0 236.5 -72t93.5 -180v-547h111q55 0 55 -41q0 -43 -55 -43h-195v137q-182 -170 -391 -170 q-143 0 -231.5 72.5t-88.5 189.5zM231 227q0 -80 63.5 -128t170.5 -48q109 0 200 41t193 137v185q-123 31 -262 30q-162 0 -263.5 -60.5t-101.5 -156.5zM500 1038q0 16 24 39l234 205q25 18 39 18q16 0 28.5 -12t12.5 -31q0 -16 -25 -38l-233 -205q-25 -18 -39 -19 q-16 0 -28.5 12.5t-12.5 30.5z" />
<glyph unicode="&#xe2;" d="M147 229q0 133 120 216t313 83q121 0 278 -43v146q0 76 -69.5 122t-182.5 46q-90 0 -291 -62l-20 -4q-16 0 -27.5 12.5t-11.5 28.5q0 31 35 43q190 66 321 66q143 0 236.5 -72t93.5 -180v-547h111q55 0 55 -41q0 -43 -55 -43h-195v137q-182 -170 -391 -170 q-143 0 -231.5 72.5t-88.5 189.5zM231 227q0 -80 63.5 -128t170.5 -48q109 0 200 41t193 137v185q-123 31 -262 30q-162 0 -263.5 -60.5t-101.5 -156.5zM315 1036q0 23 27 41l270 223l271 -221q27 -23 26 -43q0 -16 -12 -28.5t-29 -12.5q-14 0 -37 17l-219 180l-219 -180 q-23 -16 -37 -17q-16 0 -28.5 12.5t-12.5 28.5z" />
<glyph unicode="&#xe3;" d="M147 229q0 133 120 216t313 83q121 0 278 -43v146q0 76 -69.5 122t-182.5 46q-90 0 -291 -62l-20 -4q-16 0 -27.5 12.5t-11.5 28.5q0 31 35 43q190 66 321 66q143 0 236.5 -72t93.5 -180v-547h111q55 0 55 -41q0 -43 -55 -43h-195v137q-182 -170 -391 -170 q-143 0 -231.5 72.5t-88.5 189.5zM231 227q0 -80 63.5 -128t170.5 -48q109 0 200 41t193 137v185q-123 31 -262 30q-162 0 -263.5 -60.5t-101.5 -156.5zM295 1102q0 49 74.5 93t117.5 44q49 0 131 -47q90 -51 121 -51q27 0 48.5 15t68.5 63q16 16 32.5 16t29 -12.5 t12.5 -28.5q0 -37 -73 -87t-114 -50q-63 0 -165 63q-55 35 -89 35q-31 0 -52 -14.5t-66 -61.5q-12 -16 -35 -16q-16 0 -28.5 11.5t-12.5 27.5z" />
<glyph unicode="&#xe4;" d="M147 229q0 133 120 216t313 83q121 0 278 -43v146q0 76 -69.5 122t-182.5 46q-90 0 -291 -62l-20 -4q-16 0 -27.5 12.5t-11.5 28.5q0 31 35 43q190 66 321 66q143 0 236.5 -72t93.5 -180v-547h111q55 0 55 -41q0 -43 -55 -43h-195v137q-182 -170 -391 -170 q-143 0 -231.5 72.5t-88.5 189.5zM231 227q0 -80 63.5 -128t170.5 -48q109 0 200 41t193 137v185q-123 31 -262 30q-162 0 -263.5 -60.5t-101.5 -156.5zM326 1147q0 41 30.5 71.5t71.5 30.5q43 0 72.5 -30.5t29.5 -73.5q0 -41 -30.5 -71t-71.5 -30t-71.5 31t-30.5 72z M694 1147q0 41 31 71.5t72 30.5q43 0 72.5 -30.5t29.5 -73.5q0 -41 -30.5 -71t-71.5 -30t-72 31t-31 72z" />
<glyph unicode="&#xe5;" d="M147 229q0 133 120 216t313 83q121 0 278 -43v146q0 76 -69.5 122t-182.5 46q-90 0 -291 -62l-20 -4q-16 0 -27.5 12.5t-11.5 28.5q0 31 35 43q190 66 321 66q143 0 236.5 -72t93.5 -180v-547h111q55 0 55 -41q0 -43 -55 -43h-195v137q-182 -170 -391 -170 q-143 0 -231.5 72.5t-88.5 189.5zM231 227q0 -80 63.5 -128t170.5 -48q109 0 200 41t193 137v185q-123 31 -262 30q-162 0 -263.5 -60.5t-101.5 -156.5zM403 1169q0 82 61.5 142.5t147.5 60.5q88 0 148.5 -60.5t60.5 -148.5q0 -80 -61.5 -140t-147.5 -60t-147.5 61 t-61.5 145zM477 1169q0 -55 40 -93t95.5 -38t95.5 38t40 89q0 55 -40 93t-95.5 38t-95.5 -38t-40 -89z" />
<glyph unicode="&#xe6;" d="M25 270q0 111 107.5 183.5t266.5 72.5q84 0 174 -24v123q0 72 -52 123t-128 51q-92 0 -172 -51q-25 -14 -37 -15q-14 0 -26.5 13.5t-12.5 27.5q0 41 98.5 75t164.5 34q76 0 139 -47.5t92 -124.5q37 80 102.5 126t139.5 46q145 0 221 -125t80 -350h-529q10 -156 84 -256.5 t176 -100.5q45 0 87 24.5t116 92.5q14 10 27 10q16 0 28.5 -12t12.5 -29q0 -49 -108.5 -109.5t-166.5 -60.5q-152 0 -254 158v-70q0 -55 -41 -55t-41 55v51q-115 -139 -245.5 -139t-216.5 86t-86 217zM117 248q0 -86 60.5 -141.5t154.5 -55.5q104 0 241 174v191 q-90 27 -161 26q-125 0 -210 -52t-85 -142zM655 492h441q-20 166 -71.5 236.5t-145.5 70.5q-183 0 -224 -307z" />
<glyph unicode="&#xe7;" d="M172 418q0 203 133 334t338 131q190 0 320 -113v27q0 57 43 57q41 0 41 -57v-187q0 -55 -41 -55q-37 0 -43 49q-6 82 -101.5 138.5t-224.5 56.5q-170 0 -275.5 -105.5t-105.5 -273.5q0 -162 106.5 -265.5t274.5 -103.5q223 0 383 148q20 20 36.5 20t28 -11t11.5 -28 q0 -41 -88 -100q-150 -100 -332 -111v-65q59 0 96 -47t37 -108.5t-46 -110t-116 -48.5q-74 0 -143 37q-37 18 -37 45q0 16 12.5 27.5t28.5 11.5q10 0 31 -10q59 -33 104 -33q37 0 63.5 28t26.5 56q0 31 -25.5 56.5t-68.5 25.5h-47v135q-186 14 -303 138.5t-117 310.5z" />
<glyph unicode="&#xe8;" d="M129 444q0 186 135 312.5t332 126.5q147 0 263 -74t171 -201q35 -82 35 -200h-852q23 -162 135.5 -259.5t278.5 -97.5q96 0 196.5 31t161.5 80q20 14 33 14q16 0 27.5 -12t11.5 -29q0 -53 -146.5 -110.5t-285.5 -57.5q-207 0 -351.5 139t-144.5 338zM213 492h766 q-25 139 -129.5 223t-254 84t-251.5 -83t-131 -224zM385 1257q0 18 12.5 30.5t28.5 12.5q14 0 39 -18l233 -205q25 -23 25 -39q0 -18 -12.5 -30.5t-28.5 -12.5q-14 0 -39 19l-233 205q-25 22 -25 38z" />
<glyph unicode="&#xe9;" d="M129 444q0 186 135 312.5t332 126.5q147 0 263 -74t171 -201q35 -82 35 -200h-852q23 -162 135.5 -259.5t278.5 -97.5q96 0 196.5 31t161.5 80q20 14 33 14q16 0 27.5 -12t11.5 -29q0 -53 -146.5 -110.5t-285.5 -57.5q-207 0 -351.5 139t-144.5 338zM213 492h766 q-25 139 -129.5 223t-254 84t-251.5 -83t-131 -224zM498 1038q0 16 24 39l234 205q25 18 39 18q16 0 28.5 -12t12.5 -31q0 -16 -25 -38l-233 -205q-25 -18 -39 -19q-16 0 -28.5 12.5t-12.5 30.5z" />
<glyph unicode="&#xea;" d="M129 444q0 186 135 312.5t332 126.5q147 0 263 -74t171 -201q35 -82 35 -200h-852q23 -162 135.5 -259.5t278.5 -97.5q96 0 196.5 31t161.5 80q20 14 33 14q16 0 27.5 -12t11.5 -29q0 -53 -146.5 -110.5t-285.5 -57.5q-207 0 -351.5 139t-144.5 338zM213 492h766 q-25 139 -129.5 223t-254 84t-251.5 -83t-131 -224zM313 1036q0 23 27 41l270 223l271 -221q27 -23 26 -43q0 -16 -12 -28.5t-29 -12.5q-14 0 -37 17l-219 180l-219 -180q-23 -16 -37 -17q-16 0 -28.5 12.5t-12.5 28.5z" />
<glyph unicode="&#xeb;" d="M129 444q0 186 135 312.5t332 126.5q147 0 263 -74t171 -201q35 -82 35 -200h-852q23 -162 135.5 -259.5t278.5 -97.5q96 0 196.5 31t161.5 80q20 14 33 14q16 0 27.5 -12t11.5 -29q0 -53 -146.5 -110.5t-285.5 -57.5q-207 0 -351.5 139t-144.5 338zM213 492h766 q-25 139 -129.5 223t-254 84t-251.5 -83t-131 -224zM324 1147q0 41 30.5 71.5t71.5 30.5q43 0 72.5 -30.5t29.5 -73.5q0 -41 -30.5 -71t-71.5 -30t-71.5 31t-30.5 72zM692 1147q0 41 31 71.5t72 30.5q43 0 72.5 -30.5t29.5 -73.5q0 -41 -30.5 -71t-71.5 -30t-72 31t-31 72z " />
<glyph unicode="&#xec;" d="M188 43q0 41 56 41h327v686h-241q-55 0 -56 43q0 41 56 41h325v-770h328q57 0 57 -41q0 -43 -57 -43h-739q-56 0 -56 43zM389 1257q0 18 12.5 30.5t28.5 12.5q14 0 39 -18l233 -205q25 -23 25 -39q0 -18 -12.5 -30.5t-28.5 -12.5q-14 0 -39 19l-233 205q-25 22 -25 38z " />
<glyph unicode="&#xed;" d="M188 43q0 41 56 41h327v686h-241q-55 0 -56 43q0 41 56 41h325v-770h328q57 0 57 -41q0 -43 -57 -43h-739q-56 0 -56 43zM502 1038q0 16 24 39l234 205q25 18 39 18q16 0 28.5 -12t12.5 -31q0 -16 -25 -38l-233 -205q-25 -18 -39 -19q-16 0 -28.5 12.5t-12.5 30.5z" />
<glyph unicode="&#xee;" d="M188 43q0 41 56 41h327v686h-241q-55 0 -56 43q0 41 56 41h325v-770h328q57 0 57 -41q0 -43 -57 -43h-739q-56 0 -56 43zM317 1036q0 23 27 41l270 223l271 -221q27 -23 26 -43q0 -16 -12 -28.5t-29 -12.5q-14 0 -36 17l-220 180l-219 -180q-23 -16 -37 -17 q-16 0 -28.5 12.5t-12.5 28.5z" />
<glyph unicode="&#xef;" d="M188 43q0 41 56 41h327v686h-241q-55 0 -56 43q0 41 56 41h325v-770h328q57 0 57 -41q0 -43 -57 -43h-739q-56 0 -56 43zM328 1147q0 41 30.5 71.5t71.5 30.5q43 0 72.5 -30.5t29.5 -73.5q0 -41 -30.5 -71t-71.5 -30t-71.5 31t-30.5 72zM696 1147q0 41 31 71.5t72 30.5 q43 0 72.5 -30.5t29.5 -73.5q0 -41 -30.5 -71t-71.5 -30t-72 31t-31 72z" />
<glyph unicode="&#xf0;" d="M147 424q0 188 135.5 322.5t327.5 134.5q84 0 149.5 -25t149.5 -84q-109 203 -247 303l-187 -86q-4 -2 -14 -2q-16 0 -28.5 14.5t-12.5 32.5q0 27 18 33l129 57q-106 45 -200 64q-41 8 -41 37q0 20 12 32.5t31 12.5q96 0 303 -99l194 86l15 3q16 0 27.5 -12.5t11.5 -30.5 q0 -27 -19 -35l-153 -70q154 -131 243.5 -310t89.5 -349q0 -215 -133 -351.5t-334 -136.5q-195 0 -331 133t-136 326zM233 426q0 -156 112 -265.5t271 -109.5q158 0 270.5 108.5t112.5 260.5q0 162 -110.5 270.5t-272.5 108.5q-160 0 -271.5 -108.5t-111.5 -264.5z" />
<glyph unicode="&#xf1;" d="M109 43q0 41 57 41h92v686h-70q-55 0 -55 43q0 41 55 41h154v-141q88 98 155.5 134t164.5 36q137 0 229 -80t92 -199v-520h70q55 0 55 -41q0 -43 -55 -43h-224q-55 0 -55 43q0 41 55 41h70v506q0 94 -72.5 151.5t-173.5 57.5q-109 0 -169 -44t-142 -153v-518h92 q55 0 55 -41q0 -43 -55 -43h-268q-57 0 -57 43zM303 1102q0 49 75 93t118 44q49 0 131 -47q90 -51 121 -51q27 0 48 15t68 63q16 16 32.5 16t29 -12.5t12.5 -28.5q0 -37 -72.5 -87t-113.5 -50q-63 0 -166 63q-55 35 -88 35q-31 0 -52.5 -14.5t-66.5 -61.5q-12 -16 -35 -16 q-16 0 -28.5 11.5t-12.5 27.5z" />
<glyph unicode="&#xf2;" d="M147 426q0 188 136.5 322.5t330.5 134.5q197 0 332 -134.5t135 -328.5q0 -188 -137 -320.5t-330 -132.5q-195 0 -331 133t-136 326zM231 426q0 -156 112 -265.5t271 -109.5q158 0 270.5 108.5t112.5 260.5q0 162 -110.5 270.5t-272.5 108.5q-160 0 -271.5 -108.5 t-111.5 -264.5zM389 1257q0 18 12.5 30.5t28.5 12.5q14 0 39 -18l233 -205q25 -23 25 -39q0 -18 -12.5 -30.5t-28.5 -12.5q-14 0 -39 19l-233 205q-25 22 -25 38z" />
<glyph unicode="&#xf3;" d="M147 426q0 188 136.5 322.5t330.5 134.5q197 0 332 -134.5t135 -328.5q0 -188 -137 -320.5t-330 -132.5q-195 0 -331 133t-136 326zM231 426q0 -156 112 -265.5t271 -109.5q158 0 270.5 108.5t112.5 260.5q0 162 -110.5 270.5t-272.5 108.5q-160 0 -271.5 -108.5 t-111.5 -264.5zM502 1038q0 16 24 39l234 205q25 18 39 18q16 0 28.5 -12t12.5 -31q0 -16 -25 -38l-233 -205q-25 -18 -39 -19q-16 0 -28.5 12.5t-12.5 30.5z" />
<glyph unicode="&#xf4;" d="M147 426q0 188 136.5 322.5t330.5 134.5q197 0 332 -134.5t135 -328.5q0 -188 -137 -320.5t-330 -132.5q-195 0 -331 133t-136 326zM231 426q0 -156 112 -265.5t271 -109.5q158 0 270.5 108.5t112.5 260.5q0 162 -110.5 270.5t-272.5 108.5q-160 0 -271.5 -108.5 t-111.5 -264.5zM317 1036q0 23 27 41l270 223l271 -221q27 -23 26 -43q0 -16 -12 -28.5t-29 -12.5q-14 0 -36 17l-220 180l-219 -180q-23 -16 -37 -17q-16 0 -28.5 12.5t-12.5 28.5z" />
<glyph unicode="&#xf5;" d="M147 426q0 188 136.5 322.5t330.5 134.5q197 0 332 -134.5t135 -328.5q0 -188 -137 -320.5t-330 -132.5q-195 0 -331 133t-136 326zM231 426q0 -156 112 -265.5t271 -109.5q158 0 270.5 108.5t112.5 260.5q0 162 -110.5 270.5t-272.5 108.5q-160 0 -271.5 -108.5 t-111.5 -264.5zM297 1102q0 49 74.5 93t117.5 44q49 0 132 -47q90 -51 120 -51q27 0 48.5 15t68.5 63q16 16 32.5 16t29 -12.5t12.5 -28.5q0 -37 -73 -87t-114 -50q-63 0 -165 63q-55 35 -88 35q-31 0 -52.5 -14.5t-66.5 -61.5q-12 -16 -35 -16q-16 0 -28.5 11.5t-12.5 27.5 z" />
<glyph unicode="&#xf6;" d="M147 426q0 188 136.5 322.5t330.5 134.5q197 0 332 -134.5t135 -328.5q0 -188 -137 -320.5t-330 -132.5q-195 0 -331 133t-136 326zM231 426q0 -156 112 -265.5t271 -109.5q158 0 270.5 108.5t112.5 260.5q0 162 -110.5 270.5t-272.5 108.5q-160 0 -271.5 -108.5 t-111.5 -264.5zM328 1147q0 41 30.5 71.5t71.5 30.5q43 0 72.5 -30.5t29.5 -73.5q0 -41 -30.5 -71t-71.5 -30t-71.5 31t-30.5 72zM696 1147q0 41 31 71.5t72 30.5q43 0 72.5 -30.5t29.5 -73.5q0 -41 -30.5 -71t-71.5 -30t-72 31t-31 72z" />
<glyph unicode="&#xf7;" d="M88 512q0 16 12.5 29.5t28.5 13.5h971q16 0 29.5 -13.5t13.5 -29.5t-13.5 -28.5t-29.5 -12.5h-971q-16 0 -28.5 12.5t-12.5 28.5zM481 223.5q0 55.5 39 95t94.5 39.5t95.5 -39.5t40 -95t-40 -94.5t-95.5 -39t-94.5 39t-39 94.5zM481 800.5q0 55.5 39 94.5t94.5 39 t95.5 -39t40 -94.5t-40 -95t-95.5 -39.5t-94.5 39.5t-39 95z" />
<glyph unicode="&#xf8;" d="M109 -51.5q0 14.5 20 35.5l135 137q-117 135 -117 305q0 190 136.5 323.5t330.5 133.5q168 0 295 -101l131 136q23 20 37.5 20t24.5 -11.5t10 -25.5t-20 -35l-131 -133q121 -133 120 -309q0 -190 -136 -323.5t-331 -133.5q-164 0 -299 105l-135 -140q-20 -20 -34.5 -20 t-25.5 11t-11 25.5zM231 426q0 -139 93 -244l526 539q-102 78 -236 78q-160 0 -271.5 -108.5t-111.5 -264.5zM375 133q104 -82 239 -82q160 0 271.5 108.5t111.5 264.5q0 139 -94 250z" />
<glyph unicode="&#xf9;" d="M88 813q0 41 55 41h195v-618q0 -78 54 -131.5t132 -53.5q205 0 375 185v534h-151q-57 0 -58 43q0 41 58 41h235v-770h70q55 0 55 -41q0 -43 -55 -43h-154v135q-172 -168 -373 -168q-123 0 -197.5 74t-74.5 195v534h-111q-55 0 -55 43zM393 1257q0 18 12.5 30.5t28.5 12.5 q14 0 39 -18l234 -205q25 -23 24 -39q0 -18 -12 -30.5t-29 -12.5q-14 0 -39 19l-233 205q-25 22 -25 38z" />
<glyph unicode="&#xfa;" d="M88 813q0 41 55 41h195v-618q0 -78 54 -131.5t132 -53.5q205 0 375 185v534h-151q-57 0 -58 43q0 41 58 41h235v-770h70q55 0 55 -41q0 -43 -55 -43h-154v135q-172 -168 -373 -168q-123 0 -197.5 74t-74.5 195v534h-111q-55 0 -55 43zM506 1038q0 16 24 39l234 205 q25 18 39 18q16 0 28.5 -12t12.5 -31q0 -16 -25 -38l-233 -205q-25 -18 -39 -19q-16 0 -28.5 12.5t-12.5 30.5z" />
<glyph unicode="&#xfb;" d="M88 813q0 41 55 41h195v-618q0 -78 54 -131.5t132 -53.5q205 0 375 185v534h-151q-57 0 -58 43q0 41 58 41h235v-770h70q55 0 55 -41q0 -43 -55 -43h-154v135q-172 -168 -373 -168q-123 0 -197.5 74t-74.5 195v534h-111q-55 0 -55 43zM322 1036q0 23 26 41l270 223 l271 -221q27 -23 26 -43q0 -16 -12 -28.5t-29 -12.5q-14 0 -36 17l-220 180l-219 -180q-23 -16 -37 -17q-16 0 -28 12.5t-12 28.5z" />
<glyph unicode="&#xfc;" d="M88 813q0 41 55 41h195v-618q0 -78 54 -131.5t132 -53.5q205 0 375 185v534h-151q-57 0 -58 43q0 41 58 41h235v-770h70q55 0 55 -41q0 -43 -55 -43h-154v135q-172 -168 -373 -168q-123 0 -197.5 74t-74.5 195v534h-111q-55 0 -55 43zM332 1147q0 41 30.5 71.5t71.5 30.5 q43 0 73 -30.5t30 -73.5q0 -41 -31 -71t-72 -30t-71.5 31t-30.5 72zM700 1147q0 41 31 71.5t72 30.5q43 0 72.5 -30.5t29.5 -73.5q0 -41 -30.5 -71t-71.5 -30t-72 31t-31 72z" />
<glyph unicode="&#xfd;" d="M104 813q0 41 56 41h235q55 0 56 -41q0 -43 -56 -43h-106l336 -678l329 678h-110q-55 0 -56 43q0 41 56 41h225q55 0 55 -41q0 -43 -55 -43h-29l-524 -1067h133q55 0 56 -41q0 -43 -56 -43h-477q-55 0 -55 43q0 41 55 41h260l146 297l-385 770h-33q-56 0 -56 43z M508 1038q0 16 24 39l234 205q25 18 39 18q16 0 28.5 -12t12.5 -31q0 -16 -25 -38l-233 -205q-25 -18 -39 -19q-16 0 -28.5 12.5t-12.5 30.5z" />
<glyph unicode="&#xfe;" d="M45 -338q0 41 55 41h111v1421h-111q-55 0 -55 43q0 41 55 41h195v-522q82 106 166 151.5t201 45.5q188 0 317 -134.5t129 -320.5t-130 -322.5t-316 -136.5q-229 0 -367 197v-463h201q55 0 55 -41q0 -43 -55 -43h-396q-55 0 -55 43zM295 428q0 -147 107.5 -261t256.5 -114 q147 0 256 113t109 258q0 152 -105.5 263.5t-259.5 111.5q-150 0 -257 -112t-107 -259z" />
<glyph unicode="&#xff;" d="M104 813q0 41 56 41h235q55 0 56 -41q0 -43 -56 -43h-106l336 -678l329 678h-110q-55 0 -56 43q0 41 56 41h225q55 0 55 -41q0 -43 -55 -43h-29l-524 -1067h133q55 0 56 -41q0 -43 -56 -43h-477q-55 0 -55 43q0 41 55 41h260l146 297l-385 770h-33q-56 0 -56 43z M334 1147q0 41 30.5 71.5t71.5 30.5q43 0 73 -30.5t30 -73.5q0 -41 -31 -71t-72 -30t-71.5 31t-30.5 72zM702 1147q0 41 31 71.5t72 30.5q43 0 72.5 -30.5t29.5 -73.5q0 -41 -30.5 -71t-71.5 -30t-72 31t-31 72z" />
<glyph unicode="&#x152;" d="M20 578q0 256 139.5 415.5t362.5 159.5h645v-315q0 -55 -41 -56q-43 0 -43 56v231h-391v-428h160v55q0 55 43 56q41 0 41 -56v-196q0 -55 -41 -56q-43 0 -43 56v57h-160v-473h432v188q0 55 41 56q43 0 43 -56v-272h-669q-233 0 -376 159t-143 419zM104 575.5 q0 -221.5 116 -356.5t323 -135h65v985h-65q-209 0 -324 -136t-115 -357.5z" />
<glyph unicode="&#x153;" d="M25 434q0 182 93 315.5t220 133.5q84 0 157.5 -63.5t116.5 -170.5q37 102 112 168t159 66q141 0 220 -124t79 -351h-529q12 -152 87 -254.5t173 -102.5q45 0 87 24.5t116 92.5q14 10 27 10q16 0 28.5 -13t12.5 -28q0 -25 -64 -78q-123 -92 -211 -92q-92 0 -171 65.5 t-126 178.5q-45 -117 -115.5 -180.5t-156.5 -63.5q-127 0 -221 139.5t-94 327.5zM109 425.5q0 -149.5 69.5 -262t163.5 -112.5q90 0 160.5 112.5t70.5 258.5q0 152 -69.5 264.5t-163.5 112.5q-92 0 -161.5 -112t-69.5 -261.5zM655 492h443q-23 182 -73 244.5t-146 62.5 q-183 0 -224 -307z" />
<glyph unicode="&#x178;" d="M104 1112q0 41 56 41h227q55 0 55 -41q0 -43 -55 -43h-78l312 -465l305 465h-82q-57 0 -58 43q0 41 58 41h225q55 0 55 -41q0 -43 -55 -43h-49l-361 -549v-436h215q55 0 56 -41q0 -43 -56 -43h-514q-55 0 -55 43q0 41 55 41h215v436l-366 549h-49q-56 0 -56 43zM332 1384 q0 41 30.5 72t71.5 31q43 0 73 -31t30 -74q0 -41 -31 -70.5t-72 -29.5t-71.5 30.5t-30.5 71.5zM700 1384q0 41 31 72t72 31q43 0 72.5 -31t29.5 -74q0 -41 -30.5 -70.5t-71.5 -29.5t-72 30.5t-31 71.5z" />
<glyph unicode="&#x2c6;" d="M317 1036q0 23 27 41l270 223l271 -221q27 -23 26 -43q0 -16 -12 -28.5t-29 -12.5q-14 0 -36 17l-220 180l-219 -180q-23 -16 -37 -17q-16 0 -28.5 12.5t-12.5 28.5z" />
<glyph unicode="&#x2dc;" d="M297 1102q0 49 74.5 93t117.5 44q49 0 132 -47q90 -51 120 -51q27 0 48.5 15t68.5 63q16 16 32.5 16t29 -12.5t12.5 -28.5q0 -37 -73 -87t-114 -50q-63 0 -165 63q-55 35 -88 35q-31 0 -52.5 -14.5t-66.5 -61.5q-12 -16 -35 -16q-16 0 -28.5 11.5t-12.5 27.5z" />
<glyph unicode="&#x2000;" horiz-adv-x="811" />
<glyph unicode="&#x2001;" horiz-adv-x="1622" />
<glyph unicode="&#x2002;" horiz-adv-x="811" />
<glyph unicode="&#x2003;" horiz-adv-x="1622" />
<glyph unicode="&#x2004;" horiz-adv-x="540" />
<glyph unicode="&#x2005;" horiz-adv-x="405" />
<glyph unicode="&#x2006;" horiz-adv-x="270" />
<glyph unicode="&#x2007;" horiz-adv-x="270" />
<glyph unicode="&#x2008;" horiz-adv-x="202" />
<glyph unicode="&#x2009;" horiz-adv-x="323" />
<glyph unicode="&#x200a;" horiz-adv-x="90" />
<glyph unicode="&#x2010;" d="M147 571q0 41 56 41h823q55 0 55 -41q0 -43 -55 -43h-823q-56 0 -56 43z" />
<glyph unicode="&#x2011;" d="M147 571q0 41 56 41h823q55 0 55 -41q0 -43 -55 -43h-823q-56 0 -56 43z" />
<glyph unicode="&#x2012;" d="M147 571q0 41 56 41h823q55 0 55 -41q0 -43 -55 -43h-823q-56 0 -56 43z" />
<glyph unicode="&#x2013;" d="M147 571q0 41 56 41h823q55 0 55 -41q0 -43 -55 -43h-823q-56 0 -56 43z" />
<glyph unicode="&#x2014;" d="M147 571q0 41 56 41h823q55 0 55 -41q0 -43 -55 -43h-823q-56 0 -56 43z" />
<glyph unicode="&#x2018;" d="M520 1229h168l131 -529l2 -10q0 -16 -12 -28.5t-29 -12.5q-33 0 -43 31z" />
<glyph unicode="&#x2019;" d="M397 690l2 10l131 529h168l-217 -549q-14 -31 -43 -31q-18 0 -29.5 12.5t-11.5 28.5z" />
<glyph unicode="&#x201a;" d="M276 -266l3 10l131 528h168l-218 -548q-14 -31 -43 -31q-18 0 -29.5 12.5t-11.5 28.5z" />
<glyph unicode="&#x201c;" d="M350 1229h168l131 -529v-8q0 -43 -39 -43q-33 0 -43 31zM692 1229h168l129 -529l2 -12q0 -16 -11 -27.5t-30 -11.5q-31 0 -41 31z" />
<glyph unicode="&#x201d;" d="M227 688l2 12l131 529h168l-219 -549q-14 -31 -43 -31q-18 0 -28.5 12.5t-10.5 26.5zM567 692l2 8l131 529h168l-217 -549q-14 -31 -43 -31q-18 0 -29.5 12.5t-11.5 30.5z" />
<glyph unicode="&#x201e;" d="M106 -268l3 12l131 528h168l-220 -548q-14 -31 -43 -31q-18 0 -28.5 12.5t-10.5 26.5zM446 -264l3 8l131 528h168l-218 -548q-14 -31 -43 -31q-18 0 -29.5 12.5t-11.5 30.5z" />
<glyph unicode="&#x2022;" d="M307 428q0 127 90 217t217 90t217.5 -90t90.5 -217t-90.5 -217t-217.5 -90t-217 90t-90 217z" />
<glyph unicode="&#x2026;" d="M104 70q0 43 30 72.5t71 29.5q43 0 72.5 -29.5t29.5 -72.5q0 -41 -29.5 -71t-70.5 -30q-43 0 -73 30t-30 71zM512 70q0 41 29.5 71.5t70.5 30.5q43 0 73 -29.5t30 -72.5q0 -41 -31 -71t-72 -30t-70.5 30t-29.5 71zM922 72q0 41 30.5 70.5t71.5 29.5t70.5 -29.5 t29.5 -72.5q0 -41 -29.5 -71t-70.5 -30q-43 0 -72.5 30t-29.5 73z" />
<glyph unicode="&#x202f;" horiz-adv-x="323" />
<glyph unicode="&#x2039;" d="M129 428l426 403q23 23 43 23q16 0 28.5 -12.5t12.5 -28.5t-23 -41l-292 -344l292 -346q23 -25 23 -41t-12.5 -28.5t-28.5 -12.5t-43 23z" />
<glyph unicode="&#x203a;" d="M600 41q0 16 23 41l290 344l-290 346q-23 25 -23 41t12.5 28.5t28.5 12.5t43 -23l424 -405l-424 -403q-23 -23 -43 -23q-16 0 -28.5 12.5t-12.5 28.5z" />
<glyph unicode="&#x205f;" horiz-adv-x="405" />
<glyph unicode="&#x20ac;" d="M23 483q0 37 45 37h61v123h-61q-45 0 -45 39q0 37 45 37h65q23 199 163 330t329 131q209 0 354 -142v60q0 55 43 55q41 0 41 -55v-230q0 -55 -43 -55q-37 0 -41 49q-6 94 -111.5 164t-242.5 70q-154 0 -266.5 -104.5t-141.5 -272.5h590q43 0 43 -37q0 -39 -43 -39h-594 v-123h535q43 0 43 -37q0 -39 -43 -39h-531q29 -170 146.5 -281.5t279.5 -111.5q135 0 232.5 69.5t103.5 164.5q4 49 41 49q43 0 43 -55v-230q0 -55 -41 -55q-43 0 -43 55v60q-145 -141 -336 -142q-193 0 -340 139.5t-170 337.5h-65q-45 0 -45 39z" />
<glyph unicode="&#x2122;" d="M129 1063v90h426v-90q0 -25 -20 -25q-23 0 -23 25v49h-147v-344h94q27 0 26.5 -20.5t-26.5 -20.5h-232q-27 0 -26.5 20.5t26.5 20.5h95v344h-150v-49q0 -25 -22 -25q-21 0 -21 25zM688 747.5q0 20.5 27 20.5h28v344h-20q-27 0 -27 20.5t27 20.5h92l143 -256l144 256h92 q27 0 27 -20.5t-27 -20.5h-20v-344h28q27 0 27 -20.5t-27 -20.5h-137q-27 0 -27 20.5t27 20.5h65v344h-4l-145 -260h-43l-147 260h-5v-344h66q29 0 29 -20.5t-29 -20.5h-137q-27 0 -27 20.5z" />
<glyph unicode="&#xe000;" horiz-adv-x="855" d="M0 855h855v-855h-855v855z" />
<glyph unicode="&#xfb01;" d="M20 43q0 41 56 41h170v686h-158q-55 0 -55 43q0 41 55 41h158v121q0 109 64.5 185.5t154.5 76.5q76 0 153 -31q33 -12 33 -41q0 -16 -11 -28.5t-28 -12.5l-26 6q-76 23 -119 23q-57 0 -97 -51t-40 -127v-121h659v-770h154q55 0 55 -41q0 -43 -55 -43h-395q-55 0 -56 43 q0 41 56 41h157v686h-575v-686h147q55 0 55 -41q0 -43 -55 -43h-401q-56 0 -56 43zM846 1147q0 41 30.5 71.5t71.5 30.5q43 0 73 -30.5t30 -73.5q0 -41 -31 -71t-72 -30t-71.5 31t-30.5 72z" />
<glyph unicode="&#xfb02;" d="M20 43q0 41 56 41h170v686h-158q-55 0 -55 43q0 41 55 41h158v121q0 109 64.5 185.5t154.5 76.5h524v-1153h158q55 0 55 -41q0 -43 -55 -43h-399q-55 0 -56 43q0 41 56 41h157v1069h-440q-57 0 -96 -51t-39 -127v-121h147q55 0 55 -41q0 -43 -55 -43h-147v-686h147 q55 0 55 -41q0 -43 -55 -43h-401q-56 0 -56 43z" />
<glyph unicode="&#xfb03;" horiz-adv-x="3686" d="M2646 43q0 41 56 41h327v686h-241q-55 0 -56 43q0 41 56 41h325v-770h328q57 0 57 -41q0 -43 -57 -43h-739q-56 0 -56 43zM2970 1147q0 41 30.5 71.5t71.5 30.5q43 0 73 -30.5t30 -73.5q0 -41 -31 -71t-72 -30t-71.5 31t-30.5 72zM1444 43q0 41 55 41h201v686h-180 q-55 0 -55 43q0 41 55 41h180v125q0 113 89 185.5t226 72.5q143 0 285 -27q37 -10 37 -41q0 -41 -43 -41l-102 13q-111 12 -181 12q-100 0 -163.5 -48t-63.5 -126v-125h387q55 0 55 -41q0 -43 -55 -43h-387v-686h365q55 0 55 -41q0 -43 -55 -43h-650q-55 0 -55 43zM215 43 q0 41 55 41h201v686h-180q-55 0 -55 43q0 41 55 41h180v125q0 113 89 185.5t226 72.5q143 0 285 -27q37 -10 37 -41q0 -41 -43 -41l-102 13q-111 12 -181 12q-100 0 -163.5 -48t-63.5 -126v-125h387q55 0 55 -41q0 -43 -55 -43h-387v-686h365q55 0 55 -41q0 -43 -55 -43 h-650q-55 0 -55 43z" />
<glyph unicode="&#xfb04;" horiz-adv-x="3686" d="M2646 43q0 41 56 41h327v1069h-239q-55 0 -56 43q0 41 56 41h323v-1153h328q57 0 57 -41q0 -43 -57 -43h-739q-56 0 -56 43zM1444 43q0 41 55 41h201v686h-180q-55 0 -55 43q0 41 55 41h180v125q0 113 89 185.5t226 72.5q143 0 285 -27q37 -10 37 -41q0 -41 -43 -41 l-102 13q-111 12 -181 12q-100 0 -163.5 -48t-63.5 -126v-125h387q55 0 55 -41q0 -43 -55 -43h-387v-686h365q55 0 55 -41q0 -43 -55 -43h-650q-55 0 -55 43zM215 43q0 41 55 41h201v686h-180q-55 0 -55 43q0 41 55 41h180v125q0 113 89 185.5t226 72.5q143 0 285 -27 q37 -10 37 -41q0 -41 -43 -41l-102 13q-111 12 -181 12q-100 0 -163.5 -48t-63.5 -126v-125h387q55 0 55 -41q0 -43 -55 -43h-387v-686h365q55 0 55 -41q0 -43 -55 -43h-650q-55 0 -55 43z" />
</font>
</defs>
</svg>
