<?xml version="1.0" standalone="no"?>
<!DOCTYPE svg PUBLIC "-//W3C//DTD SVG 1.1//EN" "http://www.w3.org/Graphics/SVG/1.1/DTD/svg11.dtd" >
<svg xmlns="http://www.w3.org/2000/svg">
<metadata>Generated by IcoMoon</metadata>
<defs>
<font id="icomoon" horiz-adv-x="1024">
<font-face units-per-em="1024" ascent="960" descent="-64" />
<missing-glyph horiz-adv-x="1024" />
<glyph unicode="&#x20;" d="" horiz-adv-x="512" />
<glyph unicode="&#xe600;" d="M446.944 672c102.128 0 203.68-77.024 226.384-171.712 6.176-25.76 32.112-41.712 57.856-35.488 25.776 6.176 41.68 32.080 35.504 57.856-32.976 137.584-173.44 245.344-319.744 245.344-193.504 0-350.944-186.608-350.944-416s157.44-416 350.944-416c146.336 0 286.784 107.776 319.744 245.376 6.192 25.776-9.712 51.68-35.504 57.856-25.84 6.272-51.68-9.696-57.856-35.488-22.688-94.704-124.256-171.744-226.384-171.744-140.576 0-254.944 143.552-254.944 320s114.368 320 254.944 320zM816 960c-61.744 0-112-50.256-112-112s50.256-112 112-112c61.76 0 112 50.256 112 112s-50.24 112-112 112zM816 800c-26.464 0-48 21.536-48 48s21.536 48 48 48 48-21.536 48-48-21.536-48-48-48z" />
<glyph unicode="&#xe601;" d="M512 768c-176.448 0-320-143.552-320-320 0-176.432 143.552-320 320-320 176.432 0 320 143.568 320 320 0 176.448-143.568 320-320 320zM512 192c-141.152 0-256 114.848-256 256s114.848 256 256 256 256-114.848 256-256-114.848-256-256-256zM512 800c17.664 0 32 14.336 32 32v96c0 17.664-14.336 32-32 32s-32-14.336-32-32v-96c0-17.664 14.336-32 32-32zM512 96c-17.664 0-32-14.336-32-32v-96c0-17.664 14.336-32 32-32s32 14.336 32 32v96c0 17.664-14.336 32-32 32zM783.536 687.536c8.192 0 16.368 3.12 22.624 9.376l67.872 67.888c12.496 12.496 12.496 32.752 0 45.248-12.464 12.496-32.752 12.496-45.248 0l-67.872-67.888c-12.496-12.496-12.496-32.752 0-45.248 6.24-6.256 14.432-9.376 22.624-9.376zM217.84 199.088l-67.888-67.872c-12.496-12.496-12.496-32.768 0-45.248 6.24-6.256 14.432-9.376 22.624-9.376s16.384 3.12 22.624 9.376l67.888 67.872c12.496 12.496 12.496 32.752 0 45.248-12.48 12.512-32.752 12.512-45.248 0zM217.84 696.912c6.24-6.256 14.432-9.376 22.624-9.376s16.384 3.12 22.624 9.376c12.496 12.496 12.496 32.752 0 45.248l-67.888 67.872c-12.48 12.496-32.768 12.496-45.248 0-12.496-12.496-12.496-32.752 0-45.248l67.888-67.872zM806.16 199.088c-12.496 12.496-32.784 12.496-45.248 0-12.496-12.496-12.496-32.752 0-45.248l67.872-67.872c6.256-6.256 14.432-9.376 22.624-9.376s16.368 3.12 22.624 9.376c12.496 12.48 12.496 32.752 0 45.248l-67.872 67.872zM992 480h-96c-17.664 0-32-14.336-32-32s14.336-32 32-32h96c17.664 0 32 14.336 32 32s-14.336 32-32 32zM160 448c0 17.664-14.336 32-32 32h-96c-17.664 0-32-14.336-32-32s14.336-32 32-32h96c17.664 0 32 14.336 32 32z" />
<glyph unicode="&#xe602;" d="M515.736-64c-137.81 0-267.396 53.665-364.87 151.138-201.171 201.171-201.171 528.52 0 729.707 74.497 74.465 168.531 123.794 271.956 142.658 12.8 2.272 25.84-3.36 32.817-14.432 6.96-11.072 6.496-25.264-1.184-35.841-107.666-148.418-91.585-350.389 38.257-480.232 70.129-70.129 163.347-108.722 262.516-108.722 78.929 0 154.21 24.336 217.731 70.433 10.576 7.68 24.768 8.128 35.841 1.184 11.056-6.976 16.784-19.968 14.432-32.833-18.864-103.426-68.193-197.459-142.642-271.924-97.458-97.474-227.028-151.138-364.854-151.138zM361.078 876.751c-61.681-22.368-117.794-58.017-164.963-105.17-176.211-176.227-176.211-462.983 0-639.194 85.377-85.377 198.899-132.386 319.621-132.386s234.228 47.009 319.621 132.386c47.169 47.185 82.833 103.33 105.186 165.059-57.489-27.088-120.354-41.185-185.315-41.185-116.242 0-225.556 45.249-307.765 127.458-132.61 132.626-164.003 329.445-86.385 493.032z" />
<glyph unicode="&#xe603;" d="M800 256h-64c-17.664 0-32 14.336-32 32s14.336 32 32 32h64c88.224 0 160 71.776 160 160s-71.776 160-160 160c-17.088 0-34.176-2.816-50.784-8.368-14.912-4.976-31.28 1.6-38.528 15.568-38.816 74.512-114.944 120.8-198.688 120.8-107.264 0-199.728-76.4-219.872-181.664-1.856-9.744-8.128-18.064-16.992-22.544-8.848-4.464-19.28-4.592-28.224-0.336-17.44 8.32-35.92 12.544-54.912 12.544-70.576 0-128-57.424-128-128s57.424-128 128-128h96c17.664 0 32-14.336 32-32s-14.336-32-32-32h-96c-105.872 0-192 86.128-192 192s86.128 192 192 192c15.824 0 31.392-1.936 46.56-5.776 38.336 116.528 148.016 197.776 273.44 197.776 99.008 0 189.696-50.272 242.432-132.752 15.040 3.152 30.288 4.752 45.568 4.752 123.52 0 224-100.48 224-224s-100.48-224-224-224zM479.968 64c-6.096 0-12.272 1.728-17.712 5.376-14.704 9.808-18.672 29.664-8.88 44.368l94.848 142.256h-132.224c-11.808 0-22.656 6.496-28.208 16.912-5.568 10.4-4.96 23.024 1.584 32.848l128 192c9.808 14.704 29.68 18.672 44.368 8.88 14.704-9.808 18.688-29.664 8.88-44.368l-94.832-142.272h132.208c11.808 0 22.656-6.496 28.224-16.912s4.96-23.024-1.6-32.848l-128-192c-6.16-9.248-16.304-14.24-26.656-14.24z" />
<glyph unicode="&#xe604;" d="M864 720c52.944 0 96-43.056 96-96 0-52.896-43.008-95.936-95.888-96-0.032 0-0.064 0-0.096 0h-320c-17.664 0-32-14.336-32-32s14.336-32 32-32h319.824c0.064 0.016 0.096 0 0.16 0 88.224 0 160 71.776 160 160s-71.776 160-160 160c-17.664 0-32-14.336-32-32s14.336-32 32-32zM864 432c-0.064 0-0.096-0.016-0.16-0.016h-511.808c-17.664 0-32-14.336-32-32s14.336-32 32-32h512c0.032 0 0.064 0.016 0.096 0.016 52.864-0.080 95.872-43.088 95.872-96 0-52.944-43.056-96-96-96-17.664 0-32-14.336-32-32s14.336-32 32-32c88.224 0 160 71.776 160 160s-71.776 160-160 160zM770.304 332.928c-14.528-6.896-48.512-12.928-72.704-12.928h-526.928c-58.832 0-106.672 48.432-106.672 108 0 59.552 47.84 108 106.672 108 15.776 0 31.136-3.552 45.648-10.528 8.976-4.32 19.424-4.208 28.32 0.256 8.88 4.48 15.152 12.832 17.008 22.608 17.104 90.192 95.456 155.664 186.352 155.664 70.944 0 135.44-39.648 168.336-103.44 7.248-14.064 23.712-20.688 38.656-15.664 41.536 14 86.336 6.704 121.12-18.72 14.256-10.432 34.288-7.328 44.72 6.944s7.328 34.288-6.944 44.72c-44.336 32.432-99.968 45.040-153.712 34.528-46.672 71.92-125.84 115.632-212.176 115.632-109.28 0-204.992-70.56-239.84-172.24-12.256 2.816-24.768 4.224-37.488 4.224-94.112 0.016-170.672-77.152-170.672-171.984 0-94.848 76.56-172 170.672-172h526.928c29.728 0 73.664 6.56 100.112 19.072 15.968 7.584 22.784 26.64 15.216 42.624-7.584 15.968-26.608 22.8-42.624 15.232z" />
<glyph unicode="&#xe605;" d="M800 160h-608c-105.872 0-192 86.128-192 192s86.128 192 192 192c15.824 0 31.376-1.936 46.56-5.776 38.336 116.528 148.032 197.776 273.44 197.776 99.008 0 189.696-50.272 242.432-132.752 15.040 3.152 30.288 4.752 45.568 4.752 123.52 0 224-100.48 224-224s-100.48-224-224-224zM192 480c-70.576 0-128-57.424-128-128s57.424-128 128-128h608c88.224 0 160 71.776 160 160s-71.776 160-160 160c-17.072 0-34.176-2.816-50.784-8.368-14.912-5.008-31.28 1.616-38.528 15.568-38.816 74.512-114.944 120.8-198.688 120.8-107.264 0-199.728-76.4-219.872-181.68-1.856-9.728-8.128-18.064-16.992-22.544s-19.28-4.592-28.224-0.336c-17.44 8.336-35.92 12.56-54.912 12.56z" />
<glyph unicode="&#xe606;" d="M1024 512c0 123.52-100.48 224-224 224-15.28 0-30.528-1.6-45.568-4.752-52.736 82.48-143.424 132.752-242.432 132.752-125.424 0-235.104-81.248-273.44-197.776-15.168 3.84-30.736 5.776-46.56 5.776-105.872 0-192-86.128-192-192s86.128-192 192-192h301.312c-8.272-25.664-13.312-50-13.312-71.28 0-101.84 86.128-184.72 192-184.72s192 82.88 192 184.72c0 22.88-5.84 49.296-15.248 77.104 100.096 22.336 175.248 111.44 175.248 218.176zM672 96c-70.576 0-128 54.16-128 120.72 0 67.552 77.568 196.816 128 271.52 50.432-74.704 128-203.968 128-271.52 0-66.56-57.424-120.72-128-120.72zM824.176 354.032c-45.488 97.056-115.072 193.488-126.352 208.896-6.048 8.208-15.632 13.072-25.824 13.072s-19.776-4.864-25.808-13.072c-11.376-15.52-81.84-113.168-127.296-210.928h-326.896c-70.576 0-128 57.424-128 128s57.424 128 128 128c18.992 0 37.472-4.224 54.928-12.544 8.944-4.256 19.36-4.144 28.224 0.336 8.848 4.48 15.12 12.8 16.992 22.544 20.128 105.264 112.592 181.664 219.856 181.664 83.744 0 159.872-46.288 198.688-120.8 7.248-13.968 23.632-20.544 38.528-15.568 16.608 5.552 33.696 8.368 50.784 8.368 88.224 0 160-71.776 160-160 0-80-59.056-146.272-135.824-157.968z" />
<glyph unicode="&#xe607;" d="M512 960c-282.32 0-512-229.68-512-512s229.68-512 512-512c282.32 0 512 229.68 512 512s-229.68 512-512 512zM512 0c-247.024 0-448 200.976-448 448s200.976 448 448 448 448-200.976 448-448-200.976-448-448-448zM767.056 476.24l-240 128c-1.024 0.544-2.16 0.784-3.232 1.216-1.248 0.496-2.464 1.056-3.76 1.408-1.328 0.336-2.672 0.448-4.016 0.624-1.36 0.176-2.704 0.416-4.080 0.416-1.296-0.016-2.544-0.24-3.824-0.384-1.424-0.176-2.848-0.304-4.256-0.656-1.264-0.336-2.432-0.896-3.648-1.376-1.104-0.432-2.256-0.688-3.312-1.248l-240-128c-10.416-5.568-16.928-16.432-16.928-28.24s6.512-22.672 16.944-28.24l240-128c1.44-0.768 2.992-1.2 4.512-1.728 0.832-0.288 1.6-0.72 2.448-0.944 2.656-0.704 5.376-1.088 8.096-1.088s5.44 0.384 8.112 1.088c0.848 0.224 1.616 0.656 2.448 0.944 1.52 0.528 3.056 0.976 4.512 1.728l240 128c10.416 5.568 16.928 16.432 16.928 28.24s-6.512 22.672-16.944 28.24zM480 522.672v-149.344l-140 74.672 140 74.672z" />
<glyph unicode="&#xe608;" d="M512 960c-282.32 0-512-229.68-512-512s229.68-512 512-512c282.32 0 512 229.68 512 512s-229.68 512-512 512zM512 0c-247.024 0-448 200.976-448 448s200.976 448 448 448 448-200.976 448-448-200.976-448-448-448zM636.464 551.184c-0.32 1.072-0.944 2-1.36 3.008-0.544 1.296-1.008 2.608-1.728 3.808-0.672 1.168-1.552 2.176-2.368 3.232-0.848 1.088-1.616 2.224-2.592 3.2-0.944 0.944-2.032 1.696-3.088 2.512-1.088 0.848-2.128 1.728-3.328 2.432s-2.496 1.168-3.776 1.712c-1.008 0.416-1.952 1.024-3.008 1.36l-269.872 82.128c-11.328 3.472-23.6 0.384-31.952-7.984-8.352-8.352-11.424-20.64-7.984-31.936l82.144-269.84c0.32-1.024 0.912-1.92 1.312-2.912 0.56-1.344 1.056-2.704 1.776-3.936 0.672-1.152 1.536-2.144 2.336-3.184 0.848-1.104 1.648-2.256 2.64-3.232 0.944-0.944 2.032-1.68 3.088-2.512 1.088-0.848 2.128-1.728 3.328-2.432 1.184-0.704 2.496-1.152 3.776-1.696 1.024-0.432 1.952-1.040 3.024-1.376l269.872-82.16c3.040-0.928 6.176-1.376 9.296-1.376 0.096 0 0.224 0 0.32 0 17.68 0 32 14.336 32 32 0 4.832-1.056 9.408-2.976 13.504l-80.88 265.68zM545.52 526.8l-112.288-112.304-49.136 161.424 161.424-49.12z" />
<glyph unicode="&#xe609;" d="M512 960c-282.32 0-512-229.68-512-512s229.68-512 512-512c282.32 0 512 229.68 512 512s-229.68 512-512 512zM512 0c-247.024 0-448 200.976-448 448s200.976 448 448 448c247.024 0 448-200.976 448-448s-200.976-448-448-448zM483.712 687.008l-128-240c-0.544-1.024-0.784-2.16-1.216-3.248-0.496-1.232-1.056-2.448-1.408-3.744-0.336-1.328-0.448-2.672-0.624-4.016-0.176-1.36-0.416-2.704-0.416-4.096 0-1.296 0.24-2.544 0.4-3.824 0.176-1.424 0.288-2.848 0.64-4.256 0.336-1.264 0.912-2.448 1.392-3.664 0.432-1.088 0.672-2.24 1.232-3.28l128-240c5.568-10.4 16.432-16.928 28.24-16.928s22.672 6.512 28.256 16.96l128 240c0.752 1.44 1.184 2.992 1.712 4.496 0.288 0.848 0.72 1.6 0.944 2.448 0.72 2.656 1.088 5.376 1.088 8.096s-0.368 5.44-1.088 8.112c-0.224 0.864-0.656 1.616-0.944 2.448-0.528 1.52-0.976 3.056-1.712 4.496l-128 240c-5.584 10.416-16.432 16.944-28.256 16.944-11.808 0-22.672-6.512-28.24-16.944zM437.28 399.952h149.344l-74.672-140-74.672 140z" />
<glyph unicode="&#xe60a;" d="M512 960c-282.32 0-512-229.68-512-512s229.68-512 512-512c282.32 0 512 229.68 512 512s-229.68 512-512 512zM512 0c-247.024 0-448 200.976-448 448s200.976 448 448 448 448-200.976 448-448-200.976-448-448-448zM678.688 654.608l-269.872-82.128c-1.072-0.336-2-0.944-3.024-1.36-1.28-0.544-2.592-1.008-3.776-1.712-1.2-0.704-2.24-1.6-3.328-2.432-1.056-0.816-2.16-1.584-3.104-2.512-0.976-0.992-1.744-2.112-2.592-3.2-0.816-1.056-1.696-2.064-2.368-3.232-0.704-1.2-1.184-2.512-1.728-3.808-0.432-1.008-1.040-1.936-1.36-3.008l-82.144-269.872c-3.44-11.296-0.368-23.584 8-31.936 6.064-6.128 14.256-9.408 22.608-9.408 3.12 0 6.256 0.448 9.328 1.392l269.872 82.16c1.056 0.336 2 0.944 3.024 1.376 1.28 0.528 2.576 0.992 3.76 1.696 1.2 0.704 2.24 1.6 3.328 2.432 1.056 0.832 2.16 1.584 3.088 2.512 0.992 0.992 1.776 2.128 2.624 3.232 0.816 1.040 1.664 2.032 2.336 3.184 0.72 1.232 1.216 2.592 1.776 3.936 0.4 0.992 0.992 1.872 1.312 2.912l82.144 269.84c3.456 11.296 0.368 23.584-7.984 31.936-8.32 8.384-20.608 11.456-31.92 8zM384.080 320.096l49.136 161.44 112.304-112.304-161.44-49.136z" />
<glyph unicode="&#xe60b;" d="M512 960c-282.32 0-512-229.68-512-512s229.68-512 512-512c282.32 0 512 229.68 512 512s-229.68 512-512 512zM512 0c-247.024 0-448 200.976-448 448s200.976 448 448 448 448-200.976 448-448-200.976-448-448-448zM667.472 448.4c-0.016 0.016-0.016 0.048-0.032 0.064 0 0 0 0.016-0.016 0.016-0.416 0.704-0.64 1.536-1.104 2.208l-126.080 236.368c-5.568 10.432-16.416 16.944-28.24 16.944s-22.672-6.512-28.24-16.944l-128-240c-0.528-0.992-0.752-2.080-1.168-3.104-0.528-1.296-1.12-2.56-1.472-3.904-0.336-1.312-0.432-2.64-0.624-3.984-0.176-1.36-0.416-2.688-0.416-4.064s0.24-2.704 0.416-4.064c0.176-1.344 0.272-2.672 0.624-3.984 0.352-1.344 0.944-2.608 1.472-3.904 0.416-1.024 0.64-2.112 1.168-3.104l128-240c5.568-10.432 16.416-16.944 28.24-16.944s22.672 6.512 28.24 16.944l126.272 236.736c3.632 5.2 5.808 11.488 5.808 18.32 0 6.064-1.936 11.568-4.848 16.4zM512 604l74.656-140h-149.328l74.672 140z" />
<glyph unicode="&#xe60c;" d="M512 960c-282.32 0-512-229.68-512-512s229.68-512 512-512c282.32 0 512 229.68 512 512s-229.68 512-512 512zM512 0c-247.024 0-448 200.976-448 448s200.976 448 448 448 448-200.976 448-448-200.976-448-448-448zM678.688 654.608l-269.872-82.128c-1.072-0.336-2-0.944-3.024-1.36-1.28-0.544-2.592-1.008-3.776-1.712-1.2-0.704-2.24-1.6-3.328-2.432-1.056-0.816-2.16-1.584-3.104-2.512-0.976-0.992-1.744-2.112-2.592-3.2-0.816-1.056-1.696-2.064-2.368-3.232-0.704-1.2-1.184-2.512-1.728-3.808-0.432-1.008-1.040-1.936-1.36-3.008l-82.144-269.872c-3.44-11.296-0.368-23.584 8-31.936 6.064-6.128 14.256-9.408 22.608-9.408 3.12 0 6.256 0.448 9.328 1.392l269.872 82.16c1.056 0.336 2 0.944 3.024 1.376 1.28 0.528 2.576 0.992 3.76 1.696 1.2 0.704 2.24 1.6 3.328 2.432 1.056 0.832 2.16 1.584 3.088 2.512 0.992 0.992 1.776 2.128 2.624 3.232 0.816 1.040 1.664 2.032 2.336 3.184 0.72 1.232 1.216 2.592 1.776 3.936 0.4 0.992 0.992 1.872 1.312 2.912l82.144 269.84c3.456 11.296 0.368 23.584-7.984 31.936-8.32 8.384-20.608 11.456-31.92 8zM590.784 414.496l-112.304 112.304 161.424 49.12-49.12-161.424z" />
<glyph unicode="&#xe60d;" d="M512 960c-282.32 0-512-229.68-512-512s229.68-512 512-512 512 229.68 512 512-229.68 512-512 512zM512 0c-247.024 0-448 200.976-448 448s200.976 448 448 448 448-200.976 448-448-200.976-448-448-448zM767.056 476.24l-240 128c-1.024 0.544-2.16 0.784-3.216 1.216-1.248 0.496-2.464 1.056-3.76 1.408-1.328 0.336-2.672 0.448-4.016 0.624-1.376 0.176-2.72 0.416-4.096 0.416-1.28-0.016-2.528-0.24-3.808-0.384-1.44-0.176-2.864-0.304-4.272-0.656-1.264-0.336-2.432-0.896-3.648-1.376-1.104-0.432-2.256-0.688-3.312-1.248l-240-128c-10.416-5.568-16.928-16.432-16.928-28.24s6.512-22.672 16.944-28.24l240-128c1.44-0.768 3.008-1.2 4.496-1.728 0.848-0.288 1.616-0.72 2.448-0.944 2.672-0.704 5.392-1.088 8.112-1.088s5.44 0.384 8.112 1.088c0.848 0.224 1.616 0.656 2.448 0.944 1.504 0.528 3.056 0.976 4.496 1.728l240 128c10.432 5.568 16.944 16.432 16.944 28.24s-6.512 22.672-16.944 28.24zM544 373.328v149.344l140-74.672-140-74.672z" />
<glyph unicode="&#xe60e;" d="M512 960c-282.32 0-512-229.68-512-512s229.68-512 512-512 512 229.68 512 512-229.68 512-512 512zM512 0c-247.024 0-448 200.976-448 448s200.976 448 448 448 448-200.976 448-448-200.976-448-448-448zM636.464 551.184c-0.32 1.072-0.944 2-1.36 3.008-0.544 1.296-1.008 2.608-1.728 3.808-0.672 1.168-1.552 2.176-2.368 3.232-0.848 1.088-1.616 2.224-2.592 3.2-0.944 0.944-2.032 1.696-3.088 2.512-1.088 0.848-2.128 1.728-3.328 2.432s-2.496 1.168-3.776 1.712c-1.008 0.416-1.952 1.024-3.008 1.36l-269.872 82.128c-11.312 3.472-23.6 0.384-31.936-7.984-8.352-8.352-11.44-20.64-7.984-31.936l82.144-269.84c0.32-1.024 0.912-1.92 1.312-2.912 0.56-1.344 1.056-2.704 1.776-3.936 0.672-1.152 1.536-2.144 2.336-3.184 0.848-1.104 1.632-2.256 2.624-3.232 0.944-0.944 2.032-1.68 3.088-2.512 1.088-0.848 2.128-1.728 3.328-2.432 1.184-0.704 2.48-1.152 3.76-1.696 1.024-0.432 1.968-1.040 3.024-1.376l269.872-82.16c3.056-0.928 6.192-1.376 9.312-1.376 0.080 0 0.16 0 0.256 0 17.248 0.048 32.064 14.304 32.064 32 0 4.832-1.056 9.408-2.976 13.504l-80.88 265.68zM478.464 369.232l112.32 112.304 49.12-161.44-161.44 49.136z" />
<glyph unicode="&#xe60f;" d="M736 960c-61.744 0-112-50.256-112-112s50.256-112 112-112c61.76 0 112 50.256 112 112s-50.24 112-112 112zM736 800c-26.464 0-48 21.536-48 48s21.536 48 48 48 48-21.536 48-48-21.536-48-48-48zM544 768h-320c-26.496 0-48-21.488-48-48 0-3.456 1.088-736 1.088-736 0-26.512 21.504-48 48-48 26.512 0 48 21.488 48 48v384h142.912c26.512 0 48 21.488 48 48s-21.488 48-48 48h-142.912v208h270.912c26.512 0 48 21.488 48 48s-21.488 48-48 48z" />
<glyph unicode="&#xe610;" d="M800 712c-15.28 0-30.528-1.6-45.568-4.752-52.736 82.48-143.424 132.752-242.432 132.752-125.424 0-235.12-81.248-273.44-197.776-15.168 3.84-30.736 5.776-46.56 5.776-105.872 0-192-86.128-192-192s86.128-192 192-192h48c17.664 0 32 14.336 32 32s-14.336 32-32 32h-48c-70.576 0-128 57.424-128 128s57.424 128 128 128c19.008 0 37.472-4.224 54.928-12.544 8.944-4.272 19.376-4.16 28.224 0.336 8.848 4.48 15.12 12.8 16.992 22.544 20.112 105.264 112.576 181.664 219.856 181.664 83.744 0 159.872-46.288 198.688-120.8 7.248-13.968 23.648-20.576 38.528-15.568 16.592 5.552 33.696 8.368 50.784 8.368 88.224 0 160-71.776 160-160s-71.776-160-160-160h-16c-17.664 0-32-14.336-32-32s14.336-32 32-32h16c123.52 0 224 100.48 224 224s-100.48 224-224 224zM384 200v128c0 8.848-7.168 16-16 16s-16-7.152-16-16v-128c0-8.848 7.168-16 16-16s16 7.152 16 16zM480 168v128c0 8.848-7.168 16-16 16s-16-7.152-16-16v-128c0-8.848 7.168-16 16-16s16 7.152 16 16zM576 200v128c0 8.848-7.152 16-16 16s-16-7.152-16-16v-128c0-8.848 7.152-16 16-16s16 7.152 16 16zM672 168v128c0 8.848-7.152 16-16 16s-16-7.152-16-16v-128c0-8.848 7.152-16 16-16s16 7.152 16 16zM688 88c0-17.673-14.327-32-32-32s-32 14.327-32 32c0 17.673 14.327 32 32 32s32-14.327 32-32zM592 120c0-17.673-14.327-32-32-32s-32 14.327-32 32c0 17.673 14.327 32 32 32s32-14.327 32-32zM496 88c0-17.673-14.327-32-32-32s-32 14.327-32 32c0 17.673 14.327 32 32 32s32-14.327 32-32zM400 120c0-17.673-14.327-32-32-32s-32 14.327-32 32c0 17.673 14.327 32 32 32s32-14.327 32-32z" />
<glyph unicode="&#xe611;" d="M688 303.424h-36.288l18.144 31.424c4.416 7.664 1.792 17.44-5.856 21.856-7.664 4.432-17.44 1.792-21.856-5.856l-18.144-31.424-18.144 31.424c-4.432 7.664-14.208 10.304-21.856 5.856-7.664-4.416-10.288-14.208-5.856-21.856l18.144-31.424h-36.288c-8.848 0-16-7.168-16-16s7.152-16 16-16h36.288l-18.144-31.424c-4.416-7.664-1.792-17.44 5.856-21.856 2.512-1.456 5.28-2.144 7.984-2.144 5.536 0 10.912 2.88 13.872 8l18.144 31.424 18.144-31.424c2.976-5.12 8.336-8 13.872-8 2.704 0 5.472 0.688 7.984 2.144 7.664 4.416 10.288 14.208 5.856 21.856l-18.144 31.424h36.288c8.848 0 16 7.168 16 16s-7.152 16-16 16zM688 127.424h-36.288l18.144 31.424c4.416 7.664 1.792 17.44-5.856 21.856s-17.44 1.792-21.856-5.856l-18.144-31.424-18.144 31.424c-4.432 7.664-14.208 10.288-21.856 5.856s-10.288-14.208-5.856-21.856l18.144-31.424h-36.288c-8.848 0-16-7.168-16-16s7.152-16 16-16h36.288l-18.144-31.424c-4.416-7.664-1.792-17.44 5.856-21.856 2.512-1.456 5.28-2.144 7.984-2.144 5.536 0 10.912 2.88 13.872 8l18.144 31.424 18.144-31.424c2.976-5.12 8.336-8 13.872-8 2.704 0 5.472 0.688 7.984 2.144 7.664 4.416 10.288 14.208 5.856 21.856l-18.144 31.424h36.288c8.848 0 16 7.168 16 16s-7.152 16-16 16zM800 728c-15.28 0-30.528-1.6-45.568-4.752-52.736 82.48-143.424 132.752-242.432 132.752-125.44 0-235.12-81.248-273.44-197.776-15.168 3.84-30.736 5.776-46.56 5.776-105.872 0-192-86.128-192-192s86.128-192 192-192h48c17.664 0 32 14.336 32 32s-14.336 32-32 32h-48c-70.576 0-128 57.424-128 128s57.424 128 128 128c19.008 0 37.472-4.224 54.928-12.544 8.96-4.272 19.36-4.16 28.24 0.336 8.848 4.48 15.12 12.8 16.976 22.544 20.112 105.264 112.576 181.664 219.856 181.664 83.744 0 159.872-46.288 198.688-120.8 7.248-13.968 23.616-20.576 38.528-15.568 16.592 5.552 33.696 8.368 50.784 8.368 88.224 0 160-71.776 160-160s-71.776-160-160-160h-16c-17.664 0-32-14.336-32-32s14.336-32 32-32h16c123.52 0 224 100.48 224 224s-100.48 224-224 224zM384 216v128c0 8.848-7.152 16-16 16s-16-7.152-16-16v-128c0-8.848 7.152-16 16-16s16 7.152 16 16zM480 184v128c0 8.848-7.152 16-16 16s-16-7.152-16-16v-128c0-8.848 7.152-16 16-16s16 7.152 16 16zM496 104c0-17.673-14.327-32-32-32s-32 14.327-32 32c0 17.673 14.327 32 32 32s32-14.327 32-32zM400 136c0-17.673-14.327-32-32-32s-32 14.327-32 32c0 17.673 14.327 32 32 32s32-14.327 32-32z" />
<glyph unicode="&#xe612;" d="M800 720c-15.28 0-30.528-1.6-45.568-4.752-52.736 82.496-143.424 132.752-242.432 132.752-125.44 0-235.12-81.232-273.44-197.76-15.168 3.824-30.736 5.76-46.56 5.76-105.872 0-192-86.128-192-192s86.128-192 192-192h48c17.664 0 32 14.336 32 32s-14.336 32-32 32h-48c-70.576 0-128 57.424-128 128s57.424 128 128 128c19.008 0 37.488-4.224 54.928-12.528 8.944-4.304 19.36-4.144 28.24 0.336 8.848 4.464 15.12 12.8 16.976 22.528 20.112 105.264 112.576 181.664 219.856 181.664 83.744 0 159.872-46.304 198.688-120.816 7.248-13.968 23.632-20.576 38.528-15.568 16.624 5.568 33.712 8.384 50.784 8.384 88.224 0 160-71.776 160-160s-71.776-160-160-160h-16c-10.016 0-18.848-4.688-24.704-11.888-26.208 27.008-62.8 43.888-103.296 43.888-79.408 0-144-64.592-144-144s64.592-144 144-144 144 64.592 144 144c0 16.848-3.056 32.96-8.4 48h8.4c123.52 0 224 100.48 224 224s-100.48 224-224 224zM656 112c-61.744 0-112 50.256-112 112s50.256 112 112 112 112-50.256 112-112-50.256-112-112-112zM336 192v128c0 8.848-7.152 16-16 16s-16-7.152-16-16v-128c0-8.848 7.152-16 16-16s16 7.152 16 16zM432 160v128c0 8.848-7.152 16-16 16s-16-7.152-16-16v-128c0-8.848 7.152-16 16-16s16 7.152 16 16zM656 304c-8.848 0-16-7.152-16-16v-80c0-8.848 7.152-16 16-16s16 7.152 16 16v80c0 8.848-7.152 16-16 16zM448 80c0-17.673-14.327-32-32-32s-32 14.327-32 32c0 17.673 14.327 32 32 32s32-14.327 32-32zM352 112c0-17.673-14.327-32-32-32s-32 14.327-32 32c0 17.673 14.327 32 32 32s32-14.327 32-32zM672 160c0-8.837-7.163-16-16-16s-16 7.163-16 16c0 8.837 7.163 16 16 16s16-7.163 16-16z" />
<glyph unicode="&#xe613;" d="M800 752c-15.28 0-30.528-1.6-45.568-4.752-52.736 82.496-143.424 132.752-242.432 132.752-125.44 0-235.12-81.232-273.44-197.76-15.168 3.824-30.736 5.76-46.56 5.76-105.872 0-192-86.128-192-192s86.128-192 192-192h48c17.664 0 32 14.336 32 32 0 17.68-14.336 32-32 32h-48c-70.576 0-128 57.44-128 128 0 70.576 57.424 128 128 128 19.008 0 37.472-4.224 54.928-12.544 8.96-4.256 19.376-4.16 28.24 0.336 8.848 4.48 15.12 12.8 16.976 22.544 20.112 105.264 112.576 181.664 219.856 181.664 83.744 0 159.872-46.288 198.688-120.8 7.248-13.968 23.616-20.544 38.528-15.568 16.592 5.552 33.696 8.368 50.784 8.368 88.224 0 160-71.776 160-160s-71.776-160-160-160h-16c-17.664 0-32-14.32-32-32 0-17.664 14.336-32 32-32h16c123.52 0 224 100.496 224 224 0 123.52-100.48 224-224 224zM416.464 363.44c-15.152 9.104-34.816 4.176-43.904-10.976l-96-160c-9.088-15.152-4.192-34.816 10.976-43.904 5.152-3.088 10.832-4.56 16.432-4.56 10.88 0 21.472 5.552 27.472 15.552l96 160c9.088 15.136 4.192 34.784-10.976 43.888zM672.464 363.44c-15.152 9.104-34.816 4.176-43.904-10.976l-96-160c-9.088-15.152-4.192-34.816 10.976-43.904 5.152-3.088 10.832-4.56 16.432-4.56 10.88 0 21.472 5.552 27.472 15.552l96 160c9.088 15.136 4.192 34.784-10.976 43.888zM543.536 363.984c-15.44 8.576-34.928 3.008-43.504-12.432l-160-288c-8.592-15.456-3.024-34.928 12.432-43.52 4.912-2.736 10.256-4.032 15.504-4.032 11.248 0 22.16 5.936 28 16.464l160 288c8.592 15.44 3.040 34.944-12.432 43.52z" />
<glyph unicode="&#xe614;" d="M703.681 832.058c17.656 0 31.986 14.33 31.986 31.986v63.971c0 17.656-14.33 31.986-31.986 31.986s-31.986-14.33-31.986-31.986v-63.971c0-17.656 14.33-31.986 31.986-31.986zM895.594 640.145c0-17.656 14.33-31.986 31.986-31.986h63.971c17.656 0 31.986 14.33 31.986 31.986s-14.33 31.986-31.986 31.986h-63.971c-17.656 0-31.986-14.33-31.986-31.986zM861.977 766.472c8.188 0 16.361 3.119 22.614 9.372l45.228 45.243c12.49 12.49 12.49 32.737 0 45.243-12.49 12.474-32.737 12.49-45.228 0l-45.228-45.243c-12.49-12.49-12.49-32.737 0-45.243 6.253-6.237 14.441-9.372 22.614-9.372zM522.739 775.843c6.253-6.253 14.425-9.372 22.614-9.372s16.361 3.119 22.614 9.356c12.49 12.49 12.49 32.737 0 45.243l-45.228 45.243c-12.49 12.49-32.737 12.49-45.228 0s-12.49-32.737 0-45.243l45.228-45.228zM862.953 630.885c0.208 3.087 0.656 6.109 0.656 9.26 0 88.184-71.743 159.928-159.928 159.928-42.541 0-81.147-16.808-109.822-44.012-26.244 7.788-53.8 12.027-82.091 12.027-125.383 0-235.014-81.211-273.316-197.686-15.161 3.838-30.722 5.773-46.539 5.773-105.824 0-191.913-86.089-191.913-191.913s86.089-191.913 191.913-191.913h47.978c17.656 0 31.986 14.33 31.986 31.986s-14.33 31.986-31.986 31.986h-47.978c-70.544 0-127.942 57.398-127.942 127.942s57.398 127.942 127.942 127.942c18.999 0 37.455-4.222 54.903-12.538 8.956-4.27 19.351-4.158 28.227 0.336 8.844 4.478 15.113 12.794 16.968 22.534 20.103 105.216 112.525 181.582 219.756 181.582 83.706 0 159.8-46.267 198.598-120.745 7.245-13.962 23.621-20.535 38.511-15.561 16.584 5.549 33.681 8.364 50.761 8.364 88.184 0 159.928-71.743 159.928-159.928s-71.743-159.928-159.928-159.928h-15.993c-17.656 0-31.986-14.33-31.986-31.986s14.33-31.986 31.986-31.986h15.993c123.464 0 223.899 100.434 223.899 223.899 0 101.458-67.873 187.243-160.583 214.639zM661.396 726.090c12.762 6.333 27.076 10.011 42.285 10.011 52.92 0 95.957-43.036 95.957-95.957-15.273 0-30.514-1.599-45.547-4.75-23.957 37.487-55.815 68.209-92.694 90.695zM416.275 251.761c-15.145 9.1-34.8 4.174-43.884-10.971l-95.957-159.928c-9.084-15.145-4.19-34.8 10.971-43.884 5.15-3.087 10.827-4.558 16.425-4.558 10.875 0 21.462 5.533 27.46 15.529l95.957 159.928c9.084 15.145 4.19 34.784-10.971 43.884zM672.159 251.761c-15.129 9.1-34.8 4.174-43.884-10.971l-95.957-159.928c-9.084-15.145-4.19-34.8 10.971-43.884 5.15-3.087 10.827-4.558 16.425-4.558 10.875 0 21.462 5.533 27.46 15.529l95.957 159.928c9.084 15.145 4.19 34.784-10.971 43.884zM543.29 252.289c-15.433 8.588-34.912 3.023-43.484-12.426l-139.905-256.348c-8.588-15.433-3.023-34.912 12.426-43.484 4.91-2.751 10.251-4.030 15.497-4.030 11.243 0 22.15 5.933 27.987 16.457l139.905 256.348c8.588 15.433 3.039 34.912-12.426 43.484z" />
<glyph unicode="&#xe615;" d="M944.447 586.954c7.36 5.664 14.448 11.744 21.12 18.4 30.224 30.24 50.257 68.401 57.905 110.402 2.352 12.88-3.36 25.872-14.416 32.833-11.056 6.992-25.264 6.496-35.825-1.168-19.824-14.368-43.313-21.968-67.953-21.968-30.96 0-60.049 12.032-81.921 33.905-40.497 40.529-45.537 103.57-11.936 149.874 7.664 10.56 8.144 24.752 1.184 35.809-6.976 11.088-19.936 16.736-32.833 14.448-41.985-7.648-80.177-27.664-110.418-57.921-41.393-41.377-61.377-95.937-60.785-150.306-30.48 10.832-63.025 16.736-96.562 16.736-125.442 0-235.124-81.249-273.444-197.779-15.168 3.84-30.736 5.776-46.561 5.776-105.874 0-192.003-86.129-192.003-192.003s86.129-192.003 192.003-192.003h48.001c17.664 0 32 14.336 32 32s-14.336 32-32 32h-48.001c-70.577 0-128.002 57.425-128.002 128.002s57.425 128.002 128.002 128.002c19.008 0 37.473-4.224 54.929-12.544 8.944-4.272 19.36-4.16 28.24 0.336 8.848 4.464 15.12 12.816 16.976 22.544 20.112 105.282 112.578 181.683 219.859 181.683 83.745 0 159.874-46.289 198.691-120.818 7.248-13.952 23.632-20.528 38.529-15.568 16.592 5.568 33.681 8.368 50.785 8.368 88.225 0 160.002-71.777 160.002-160.002s-71.777-160.002-160.002-160.002h-16c-17.664 0-32-14.336-32-32s14.336-32 32-32h16c123.522 0 224.003 100.482 224.003 224.003 0 68.513-30.976 129.842-79.569 170.963zM714.603 856.334c3.968 3.968 8.128 7.68 12.464 11.12-8.112-54.641 9.376-111.666 51.025-153.346 33.969-33.969 79.121-52.657 127.17-52.657 8.896 0 17.696 0.624 26.384 1.904-3.52-4.432-7.296-8.688-11.344-12.752-11.024-11.008-23.568-19.936-37.057-26.816-25.76 10.368-53.809 16.224-83.249 16.224-15.28 0-30.528-1.6-45.569-4.752-20.576 32.177-46.977 59.361-77.345 80.657-12.848 48.529-0.448 102.434 37.521 140.418zM416.471 283.445c-15.136 9.088-34.817 4.192-43.905-10.976l-96.001-160.002c-9.088-15.152-4.192-34.817 10.976-43.905 5.152-3.088 10.848-4.56 16.432-4.56 10.88 0 21.472 5.536 27.472 15.536l96.001 160.002c9.088 15.152 4.192 34.801-10.976 43.905zM672.475 283.445c-15.152 9.088-34.817 4.192-43.905-10.976l-96.001-160.002c-9.088-15.152-4.192-34.817 10.976-43.905 5.152-3.088 10.848-4.56 16.432-4.56 10.88 0 21.472 5.536 27.472 15.536l96.001 160.002c9.088 15.152 4.192 34.801-10.976 43.905zM543.544 283.973c-15.456 8.592-34.945 3.024-43.505-12.432l-160.002-288.004c-8.592-15.44-3.024-34.929 12.432-43.505 4.912-2.752 10.256-4.032 15.504-4.032 11.248 0 22.16 5.936 28 16.464l160.002 288.004c8.592 15.44 3.040 34.929-12.432 43.505z" />
<glyph unicode="&#xe616;" d="M800 752c-15.28 0-30.528-1.6-45.568-4.752-52.736 82.496-143.424 132.752-242.432 132.752-125.424 0-235.12-81.232-273.44-197.76-15.168 3.824-30.736 5.76-46.56 5.76-105.872 0-192-86.128-192-192s86.128-192 192-192h32c17.664 0 32 14.336 32 32 0 17.68-14.336 32-32 32h-32c-70.576 0-128 57.44-128 128 0 70.576 57.424 128 128 128 19.008 0 37.472-4.224 54.928-12.544 8.944-4.256 19.376-4.16 28.224 0.336 8.848 4.48 15.12 12.8 16.992 22.544 20.112 105.264 112.576 181.664 219.856 181.664 83.744 0 159.872-46.288 198.688-120.8 7.248-13.968 23.648-20.544 38.528-15.568 16.592 5.552 33.696 8.368 50.784 8.368 88.224 0 160-71.776 160-160s-71.776-160-160-160c-17.664 0-32-14.32-32-32 0-17.664 14.336-32 32-32 123.52 0 224 100.496 224 224 0 123.52-100.48 224-224 224zM688 343.44h-36.288l18.144 31.408c4.416 7.664 1.792 17.44-5.856 21.872-7.664 4.432-17.44 1.776-21.856-5.872l-18.144-31.408-18.144 31.408c-4.416 7.664-14.24 10.32-21.856 5.872-7.664-4.432-10.288-14.224-5.856-21.872l18.144-31.408h-36.288c-8.848 0-16-7.168-16-16 0-8.848 7.152-16 16-16h36.288l-18.144-31.44c-4.416-7.648-1.792-17.44 5.856-21.84 2.512-1.472 5.28-2.16 7.984-2.16 5.536 0 10.912 2.88 13.872 8l18.144 31.44 18.144-31.44c2.976-5.12 8.336-8 13.872-8 2.704 0 5.472 0.688 7.984 2.16 7.664 4.4 10.288 14.208 5.856 21.84l-18.144 31.44h36.288c8.848 0 16 7.152 16 16 0 8.832-7.152 16-16 16zM688 167.44h-36.288l18.144 31.408c4.416 7.664 1.792 17.44-5.856 21.872-7.664 4.416-17.44 1.792-21.856-5.872l-18.144-31.408-18.144 31.408c-4.416 7.664-14.24 10.304-21.856 5.872-7.664-4.432-10.288-14.224-5.856-21.872l18.144-31.408h-36.288c-8.848 0-16-7.168-16-16 0-8.848 7.152-16 16-16h36.288l-18.144-31.44c-4.416-7.648-1.792-17.44 5.856-21.84 2.512-1.472 5.28-2.16 7.984-2.16 5.536 0 10.912 2.88 13.872 8l18.144 31.44 18.144-31.44c2.976-5.12 8.336-8 13.872-8 2.704 0 5.472 0.688 7.984 2.16 7.664 4.4 10.288 14.208 5.856 21.84l-18.144 31.44h36.288c8.848 0 16 7.152 16 16 0 8.832-7.152 16-16 16zM496.464 363.44c-15.152 9.104-34.8 4.176-43.904-10.976l-96-160c-9.088-15.152-4.176-34.816 10.976-43.904 5.152-3.088 10.832-4.56 16.432-4.56 10.88 0 21.472 5.552 27.472 15.552l96 160c9.088 15.136 4.176 34.784-10.976 43.888zM367.536 363.984c-15.456 8.576-34.944 3.008-43.52-12.432l-160-288c-8.576-15.456-3.008-34.928 12.432-43.52 4.928-2.736 10.256-4.032 15.52-4.032 11.248 0 22.16 5.936 28 16.464l160 288c8.592 15.44 3.024 34.944-12.432 43.52z" />
<glyph unicode="&#xe617;" d="M440 226.72c7.664 4.416 10.288 14.224 5.856 21.856l-18.144 31.424h36.288c8.848 0 16 7.152 16 16s-7.152 16-16 16h-36.288l18.144 31.424c4.416 7.648 1.792 17.44-5.856 21.856-7.664 4.432-17.44 1.808-21.856-5.856l-18.144-31.424-18.144 31.424c-4.416 7.664-14.24 10.304-21.856 5.856-7.664-4.416-10.288-14.224-5.856-21.856l18.144-31.424h-36.288c-8.848 0-16-7.152-16-16s7.152-16 16-16h36.288l-18.144-31.424c-4.416-7.648-1.792-17.44 5.856-21.856 2.512-1.456 5.28-2.144 7.984-2.144 5.536 0 10.912 2.864 13.872 8l18.144 31.424 18.144-31.424c2.976-5.136 8.336-8 13.872-8 2.704 0 5.472 0.688 7.984 2.144zM688 312h-36.288l18.144 31.424c4.416 7.648 1.792 17.44-5.856 21.856-7.664 4.432-17.44 1.808-21.856-5.856l-18.144-31.424-18.144 31.424c-4.432 7.664-14.224 10.304-21.856 5.856-7.664-4.416-10.288-14.224-5.856-21.856l18.144-31.424h-36.288c-8.848 0-16-7.152-16-16s7.152-16 16-16h36.288l-18.144-31.424c-4.416-7.648-1.792-17.44 5.856-21.856 2.512-1.456 5.28-2.144 7.984-2.144 5.536 0 10.912 2.864 13.872 8l18.144 31.424 18.144-31.424c2.976-5.136 8.336-8 13.872-8 2.704 0 5.472 0.688 7.984 2.144 7.664 4.416 10.288 14.224 5.856 21.856l-18.144 31.424h36.288c8.848 0 16 7.152 16 16s-7.152 16-16 16zM576 144.576h-36.288l18.144 31.424c4.416 7.664 1.792 17.44-5.856 21.856-7.664 4.416-17.44 1.792-21.856-5.856l-18.144-31.424-18.144 31.424c-4.416 7.664-14.24 10.288-21.856 5.856-7.664-4.416-10.288-14.208-5.856-21.856l18.144-31.424h-36.288c-8.848 0-16-7.168-16-16s7.152-16 16-16h36.288l-18.144-31.424c-4.416-7.664-1.792-17.44 5.856-21.856 2.512-1.456 5.28-2.144 7.984-2.144 5.536 0 10.912 2.88 13.872 8l18.144 31.424 18.144-31.424c2.976-5.12 8.336-8 13.872-8 2.704 0 5.472 0.688 7.984 2.144 7.664 4.416 10.288 14.208 5.856 21.856l-18.144 31.424h36.288c8.848 0 16 7.168 16 16s-7.152 16-16 16zM800 712c-15.28 0-30.528-1.6-45.568-4.752-52.736 82.48-143.424 132.752-242.432 132.752-125.44 0-235.12-81.248-273.44-197.776-15.168 3.84-30.736 5.776-46.56 5.776-105.872 0-192-86.128-192-192s86.128-192 192-192h32c17.664 0 32 14.336 32 32s-14.336 32-32 32h-32c-70.576 0-128 57.424-128 128s57.424 128 128 128c19.008 0 37.472-4.224 54.928-12.544 8.96-4.256 19.36-4.16 28.24 0.336 8.848 4.48 15.12 12.8 16.976 22.544 20.112 105.264 112.576 181.664 219.856 181.664 83.744 0 159.872-46.288 198.688-120.8 7.248-13.968 23.632-20.544 38.528-15.568 16.592 5.552 33.696 8.368 50.784 8.368 88.224 0 160-71.776 160-160s-71.776-160-160-160c-17.664 0-32-14.336-32-32s14.336-32 32-32c123.52 0 224 100.48 224 224s-100.48 224-224 224z" />
<glyph unicode="&#xe618;" d="M512-64c-194.096 0-352 151.376-352 337.44 0 226.112 312.88 655.328 326.192 673.488 6.032 8.208 15.616 13.072 25.808 13.072s19.776-4.864 25.808-13.072c13.312-18.16 326.192-447.376 326.192-673.488 0-186.064-157.904-337.44-352-337.44zM512 872.656c-75.072-108-288-429.296-288-599.216 0-150.784 129.2-273.44 288-273.44 158.816 0 288 122.656 288 273.44 0 169.92-212.928 491.216-288 599.216z" />
<glyph unicode="&#xe619;" d="M800 736c-15.28 0-30.528-1.6-45.568-4.752-52.736 82.48-143.424 132.752-242.432 132.752-125.44 0-235.12-81.248-273.44-197.776-15.168 3.84-30.736 5.776-46.56 5.776-105.872 0-192-86.128-192-192s86.128-192 192-192h48c17.664 0 32 14.336 32 32s-14.336 32-32 32h-48c-70.576 0-128 57.424-128 128s57.424 128 128 128c19.008 0 37.472-4.224 54.928-12.544 8.96-4.256 19.36-4.16 28.24 0.336 8.848 4.48 15.12 12.8 16.976 22.544 20.112 105.264 112.576 181.664 219.856 181.664 83.744 0 159.872-46.288 198.688-120.8 7.248-13.968 23.616-20.544 38.528-15.568 16.592 5.552 33.696 8.368 50.784 8.368 88.224 0 160-71.776 160-160s-71.776-160-160-160h-16c-17.664 0-32-14.336-32-32s14.336-32 32-32h16c123.52 0 224 100.48 224 224s-100.48 224-224 224zM368 384c-17.664 0-32-14.336-32-32v-64c0-17.664 14.336-32 32-32s32 14.336 32 32v64c0 17.664-14.336 32-32 32zM464 352c-17.664 0-32-14.336-32-32v-64c0-17.664 14.336-32 32-32s32 14.336 32 32v64c0 17.664-14.336 32-32 32zM560 384c-17.664 0-32-14.336-32-32v-64c0-17.664 14.336-32 32-32s32 14.336 32 32v64c0 17.664-14.336 32-32 32zM656 352c-17.664 0-32-14.336-32-32v-64c0-17.664 14.336-32 32-32s32 14.336 32 32v64c0 17.664-14.336 32-32 32zM368 192c-17.664 0-32-14.336-32-32v-64c0-17.664 14.336-32 32-32s32 14.336 32 32v64c0 17.664-14.336 32-32 32zM464 160c-17.664 0-32-14.336-32-32v-64c0-17.664 14.336-32 32-32s32 14.336 32 32v64c0 17.664-14.336 32-32 32zM560 192c-17.664 0-32-14.336-32-32v-64c0-17.664 14.336-32 32-32s32 14.336 32 32v64c0 17.664-14.336 32-32 32zM656 160c-17.664 0-32-14.336-32-32v-64c0-17.664 14.336-32 32-32s32 14.336 32 32v64c0 17.664-14.336 32-32 32z" />
<glyph unicode="&#xe61a;" d="M704 832c17.664 0 32 14.336 32 32v64c0 17.664-14.336 32-32 32s-32-14.336-32-32v-64c0-17.664 14.336-32 32-32zM896 640c0-17.664 14.336-32 32-32h64c17.664 0 32 14.336 32 32s-14.336 32-32 32h-64c-17.664 0-32-14.336-32-32zM862.368 766.384c8.192 0 16.368 3.12 22.624 9.376l45.248 45.264c12.496 12.496 12.496 32.752 0 45.264-12.496 12.48-32.752 12.496-45.248 0l-45.248-45.264c-12.496-12.496-12.496-32.752 0-45.264 6.256-6.24 14.448-9.376 22.624-9.376zM522.976 775.76c6.256-6.256 14.432-9.376 22.624-9.376s16.368 3.12 22.624 9.36c12.496 12.496 12.496 32.752 0 45.264l-45.248 45.264c-12.496 12.496-32.752 12.496-45.248 0s-12.496-32.752 0-45.264l45.248-45.248zM863.344 630.736c0.208 3.088 0.656 6.112 0.656 9.264 0 88.224-71.776 160-160 160-42.56 0-81.184-16.816-109.872-44.032-26.256 7.792-53.824 12.032-82.128 12.032-125.44 0-235.12-81.248-273.44-197.776-15.168 3.84-30.736 5.776-46.56 5.776-105.872 0-192-86.128-192-192s86.128-192 192-192h48c17.664 0 32 14.336 32 32s-14.336 32-32 32h-48c-70.576 0-128 57.424-128 128s57.424 128 128 128c19.008 0 37.472-4.224 54.928-12.544 8.944-4.272 19.36-4.16 28.24 0.336 8.848 4.48 15.12 12.8 16.976 22.544 20.112 105.264 112.576 181.664 219.856 181.664 83.744 0 159.872-46.288 198.688-120.8 7.248-13.968 23.632-20.544 38.528-15.568 16.592 5.552 33.696 8.368 50.784 8.368 88.224 0 160-71.776 160-160s-71.776-160-160-160h-16c-17.664 0-32-14.336-32-32s14.336-32 32-32h16c123.52 0 224 100.48 224 224 0 101.504-67.904 187.328-160.656 214.736zM661.696 725.984c12.768 6.336 27.088 10.016 42.304 10.016 52.944 0 96-43.056 96-96-15.28 0-30.528-1.6-45.568-4.752-23.968 37.504-55.84 68.24-92.736 90.736zM368 288c-17.664 0-32-14.336-32-32v-64c0-17.664 14.336-32 32-32s32 14.336 32 32v64c0 17.664-14.336 32-32 32zM464 256c-17.664 0-32-14.336-32-32v-64c0-17.664 14.336-32 32-32s32 14.336 32 32v64c0 17.664-14.336 32-32 32zM560 288c-17.664 0-32-14.336-32-32v-64c0-17.664 14.336-32 32-32s32 14.336 32 32v64c0 17.664-14.336 32-32 32zM656 256c-17.664 0-32-14.336-32-32v-64c0-17.664 14.336-32 32-32s32 14.336 32 32v64c0 17.664-14.336 32-32 32zM368 96c-17.664 0-32-14.336-32-32v-64c0-17.664 14.336-32 32-32s32 14.336 32 32v64c0 17.664-14.336 32-32 32zM464 64c-17.664 0-32-14.336-32-32v-64c0-17.664 14.336-32 32-32s32 14.336 32 32v64c0 17.664-14.336 32-32 32zM560 96c-17.664 0-32-14.336-32-32v-64c0-17.664 14.336-32 32-32s32 14.336 32 32v64c0 17.664-14.336 32-32 32zM656 64c-17.664 0-32-14.336-32-32v-64c0-17.664 14.336-32 32-32s32 14.336 32 32v64c0 17.664-14.336 32-32 32z" />
<glyph unicode="&#xe61b;" d="M927.566 599.914c1.984 1.84 4.080 3.52 6.016 5.44 30.224 30.24 50.257 68.401 57.905 110.402 2.352 12.88-3.36 25.872-14.416 32.833-11.056 6.992-25.264 6.496-35.825-1.168-19.824-14.368-43.313-21.968-67.953-21.968-30.96 0-60.049 12.032-81.921 33.905-40.497 40.529-45.537 103.57-11.936 149.874 7.664 10.56 8.144 24.752 1.184 35.809-6.976 11.088-19.936 16.736-32.833 14.448-41.985-7.648-80.177-27.664-110.418-57.921-39.025-39.025-58.961-89.761-60.625-141.010-20.96 4.816-42.609 7.456-64.721 7.456-125.442 0-235.124-81.249-273.444-197.779-15.168 3.84-30.736 5.776-46.561 5.776-105.874 0-192.003-86.129-192.003-192.003s86.129-192.003 192.003-192.003h48.001c17.664 0 32 14.336 32 32s-14.336 32-32 32h-48.001c-70.577 0-128.002 57.425-128.002 128.002s57.425 128.002 128.002 128.002c19.008 0 37.473-4.224 54.929-12.544 8.96-4.272 19.36-4.16 28.24 0.336 8.848 4.464 15.12 12.816 16.976 22.544 20.096 105.266 112.562 181.667 219.843 181.667 83.745 0 159.874-46.289 198.691-120.818 7.248-13.952 23.648-20.528 38.529-15.568 16.592 5.568 33.681 8.368 50.785 8.368 88.225 0 160.002-71.777 160.002-160.002s-71.777-160.002-160.002-160.002h-16c-17.664 0-32-14.336-32-32s14.336-32 32-32h16c123.522 0 224.003 100.482 224.003 224.003 0 76.145-38.257 143.426-96.45 183.923zM641.258 737.325c-4.784 42.433 8.88 86.529 41.345 119.010 3.968 3.968 8.128 7.68 12.464 11.12-8.112-54.641 9.376-111.666 51.025-153.346 33.969-33.969 79.121-52.657 127.17-52.657 8.896 0 17.696 0.624 26.384 1.904-3.52-4.432-7.296-8.688-11.344-12.752-7.648-7.632-16.032-14.208-24.928-19.872-20.128 5.952-41.361 9.28-63.393 9.28-15.28 0-30.528-1.6-45.569-4.752-28.272 44.289-67.569 79.137-113.154 102.066zM368.006 288.006c-17.664 0-32-14.336-32-32v-64.001c0-17.664 14.336-32 32-32s32 14.336 32 32v64.001c0 17.664-14.336 32-32 32zM464.007 256.005c-17.664 0-32-14.336-32-32v-64.001c0-17.664 14.336-32 32-32s32 14.336 32 32v64.001c0 17.664-14.336 32-32 32zM560.009 288.006c-17.664 0-32-14.336-32-32v-64.001c0-17.664 14.336-32 32-32s32 14.336 32 32v64.001c0 17.664-14.336 32-32 32zM656.010 256.005c-17.664 0-32-14.336-32-32v-64.001c0-17.664 14.336-32 32-32s32 14.336 32 32v64.001c0 17.664-14.336 32-32 32zM368.006 96.003c-17.664 0-32-14.336-32-32v-64.001c0-17.664 14.336-32 32-32s32 14.336 32 32v64.001c0 17.664-14.336 32-32 32zM464.007 64.002c-17.664 0-32-14.336-32-32v-64.001c0-17.664 14.336-32 32-32s32 14.336 32 32v64.001c0 17.664-14.336 32-32 32zM560.009 96.003c-17.664 0-32-14.336-32-32v-64.001c0-17.664 14.336-32 32-32s32 14.336 32 32v64.001c0 17.664-14.336 32-32 32zM656.010 64.002c-17.664 0-32-14.336-32-32v-64.001c0-17.664 14.336-32 32-32s32 14.336 32 32v64.001c0 17.664-14.336 32-32 32z" />
<glyph unicode="&#xe61c;" d="M688 288h-64l28.8 38.4c5.296 7.056 3.872 17.088-3.2 22.384-7.072 5.328-17.088 3.856-22.384-3.2l-43.216-57.584h-56v56l57.6 43.2c7.072 5.296 8.496 15.328 3.2 22.384-5.28 7.056-15.296 8.512-22.384 3.2l-38.416-28.784v64c0 8.832-7.168 16-16 16s-16-7.168-16-16v-64l-38.4 28.8c-7.072 5.312-17.104 3.856-22.4-3.2-5.312-7.056-3.872-17.088 3.2-22.384l57.6-43.2v-56.016h-56l-43.2 57.6c-5.28 7.056-15.312 8.528-22.4 3.2-7.072-5.296-8.496-15.328-3.2-22.384l28.8-38.416h-64c-8.832 0-16-7.152-16-16s7.168-16 16-16h64l-28.8-38.4c-5.312-7.056-3.872-17.088 3.2-22.384 2.88-2.176 6.256-3.2 9.584-3.2 4.864 0 9.664 2.224 12.816 6.4l43.2 57.6h56v-56l-57.6-43.2c-7.072-5.296-8.496-15.328-3.2-22.384 3.136-4.192 7.952-6.4 12.816-6.4 3.328 0 6.704 1.024 9.584 3.2l38.4 28.768v-64c0-8.848 7.168-16 16-16s16 7.152 16 16v64l38.4-28.8c2.88-2.176 6.256-3.2 9.584-3.2 4.864 0 9.664 2.224 12.816 6.4 5.296 7.056 3.872 17.088-3.2 22.384l-57.6 43.216v56h56l43.2-57.6c3.136-4.192 7.952-6.4 12.816-6.4 3.328 0 6.704 1.024 9.584 3.2 7.072 5.296 8.496 15.328 3.2 22.384l-28.8 38.416h64c8.848 0 16 7.152 16 16s-7.152 16-16 16zM800 688c-15.28 0-30.528-1.6-45.568-4.752-52.736 82.48-143.424 132.752-242.432 132.752-125.424 0-235.12-81.248-273.44-197.776-15.168 3.84-30.736 5.776-46.56 5.776-105.872 0-192-86.128-192-192s86.128-192 192-192h48c17.664 0 32 14.336 32 32s-14.336 32-32 32h-48c-70.576 0-128 57.424-128 128s57.424 128 128 128c19.008 0 37.472-4.224 54.928-12.544 8.944-4.256 19.36-4.16 28.224 0.336 8.848 4.48 15.12 12.8 16.992 22.544 20.112 105.264 112.576 181.664 219.856 181.664 83.744 0 159.872-46.288 198.688-120.8 7.248-13.968 23.632-20.544 38.528-15.568 16.592 5.552 33.696 8.368 50.784 8.368 88.224 0 160-71.776 160-160s-71.776-160-160-160h-16c-17.664 0-32-14.336-32-32s14.336-32 32-32h16c123.52 0 224 100.48 224 224s-100.48 224-224 224z" />
<glyph unicode="&#xe61d;" d="M832 144h-800c-17.664 0-32 14.336-32 32s14.336 32 32 32h800c17.664 0 32-14.336 32-32s-14.336-32-32-32zM992 16h-800c-17.664 0-32 14.336-32 32s14.336 32 32 32h800c17.664 0 32-14.336 32-32s-14.336-32-32-32zM800 304h-608c-105.856 0-192 86.128-192 192s86.144 192 192 192c15.824 0 31.392-1.936 46.544-5.76 38.352 116.528 148.032 197.76 273.456 197.76 99.008 0 189.696-50.256 242.432-132.752 15.056 3.152 30.304 4.752 45.568 4.752 123.52 0 224-100.48 224-224s-100.48-224-224-224zM192 624c-70.576 0-128-57.424-128-128s57.424-128 128-128h608c88.24 0 160 71.776 160 160s-71.76 160-160 160c-17.072 0-34.176-2.816-50.8-8.368-14.896-5.024-31.248 1.6-38.528 15.568-38.784 74.496-114.912 120.8-198.672 120.8-107.264 0-199.728-76.4-219.856-181.664-1.872-9.728-8.144-18.064-16.992-22.528-8.848-4.48-19.28-4.624-28.224-0.336-17.44 8.304-35.92 12.528-54.928 12.528z" />
<glyph unicode="&#xe61e;" d="M1009.056 545.488c-11.056 6.976-25.248 6.48-35.84-1.168-29.008-21.056-63.408-32.176-99.472-32.176-45.312 0-87.904 17.648-119.952 49.68-59.328 59.328-66.672 151.6-17.488 219.408 7.664 10.576 8.144 24.768 1.184 35.84-6.976 11.072-20 16.72-32.832 14.432-54.928-10-104.864-36.208-144.416-75.744-50.4-50.416-76.688-115.728-79.504-181.872-10.752 1.376-21.68 2.112-32.736 2.112-109.28 0-204.992-70.56-239.84-172.224-12.256 2.816-24.768 4.224-37.488 4.224-94.112 0-170.672-77.152-170.672-172s76.56-172 170.672-172h526.944c109.392 0 198.384 89.712 198.384 200 0 20.432-3.088 40.16-8.768 58.752 21.872 12.192 42.304 27.312 60.496 45.504 39.52 39.536 65.728 89.456 75.76 144.416 2.352 12.864-3.36 25.856-14.432 32.816zM697.616 128h-526.944c-58.832 0-106.672 48.432-106.672 108 0 59.552 47.84 108 106.672 108 15.776 0 31.136-3.552 45.648-10.528 8.976-4.32 19.424-4.224 28.32 0.256 8.88 4.48 15.152 12.848 17.008 22.624 17.104 90.192 95.456 155.648 186.352 155.648 70.944 0 135.44-39.648 168.352-103.44 7.248-14.080 23.696-20.72 38.688-15.664 13.92 4.72 28.24 7.088 42.56 7.088 74.112 0.016 134.4-60.992 134.4-135.984 0-75.008-60.288-136-134.384-136zM902.48 413.52c-13.216-13.2-28.048-24.144-43.808-33.2-36.048 50.576-94.736 83.68-161.056 83.68-12.544 0-25.040-1.216-37.424-3.648-28.4 43.744-68.848 76.96-115.552 96.352-1.424 55.52 18.576 111.488 60.864 153.776 12.88 12.88 27.184 23.904 42.592 32.912-21.792-78.944-0.768-165.632 60.448-226.848 44.144-44.112 102.8-68.416 165.2-68.416 21.12 0 41.84 2.784 61.776 8.208-9.040-15.504-20.112-29.904-33.040-42.816z" />
<glyph unicode="&#xe61f;" d="M1009.024 393.136c-11.072 6.992-25.264 6.464-35.84-1.168-35.568-25.744-74.896-44.416-116.4-56.032-38 65.328-76.656 118.72-84.832 129.84-6.032 8.192-15.616 13.040-25.808 13.040s-19.776-4.864-25.808-13.040c-7.968-10.848-44.896-61.808-81.92-124.864-54.24 17.808-104.016 47.776-145.568 89.216-129.872 129.568-145.968 331.104-38.288 479.2 7.68 10.56 8.144 24.72 1.184 35.76-6.976 11.040-19.952 16.688-32.832 14.4-103.456-18.816-197.504-68.032-272-142.336-201.232-200.72-201.232-527.376 0-728.112 97.488-97.232 227.088-150.8 364.944-150.8 48.144 0 95.216 6.656 140.32 19.328 26.848-13.712 57.472-21.568 89.968-21.568 105.888 0 192.048 82.688 192.048 184.336 0 10.224-1.216 21.168-3.344 32.608 44.384 61.536 74.816 131.888 88.624 207.456 2.336 12.816-3.376 25.808-14.448 32.736zM196.176 134.208c-176.272 175.84-176.272 461.952 0 637.808 47.168 47.040 103.28 82.608 164.976 104.928-77.616-163.232-46.224-359.616 86.432-491.936 45.84-45.728 100.16-79.792 159.36-101.136-29.376-57.36-52.864-117.552-52.864-163.536 0-41.872 14.8-80.4 39.392-111.392-25.408-4.384-51.312-6.832-77.632-6.832-120.736 0-234.256 46.912-319.664 132.096zM746.144-0.144c-70.592 0-128.032 54.048-128.032 120.464 0 67.392 77.584 196.384 128.032 270.944 50.464-74.512 128.032-203.456 128.032-270.944 0-66.416-57.44-120.464-128.032-120.464zM909.648 232.048c-6.496 15.44-13.808 31.008-21.6 46.432 17.984 5.664 35.616 12.384 52.704 20.432-8.416-23.184-18.976-45.44-31.104-66.864z" />
<glyph unicode="&#xe620;" d="M644.704 0c-79.392 0-144 60.032-144 133.808 0 81.296 106.496 221.936 118.64 237.712 12.128 15.712 38.592 15.712 50.72 0 12.144-15.776 118.64-156.416 118.64-237.712 0-73.776-64.608-133.808-144-133.808zM644.72 297.632c-37.712-54.56-80.016-127.44-80.016-163.808 0-38.496 35.888-69.808 80-69.808s80 31.312 80 69.808c0 36.432-42.272 109.28-79.984 163.808zM800 320h-27.296c-17.664 0-32 14.336-32 32s14.336 32 32 32h27.296c88.224 0 160 71.776 160 160s-71.776 160-160 160c-17.088 0-34.192-2.816-50.784-8.368-14.912-4.976-31.28 1.6-38.528 15.568-38.816 74.512-114.944 120.8-198.688 120.8-107.28 0-199.744-76.4-219.872-181.664-1.856-9.744-8.128-18.064-16.992-22.544s-19.296-4.592-28.224-0.336c-17.44 8.32-35.904 12.544-54.912 12.544-70.576 0-128-57.424-128-128s57.424-128 128-128h36.704c17.664 0 32-14.336 32-32s-14.336-32-32-32h-36.704c-105.872 0-192 86.128-192 192s86.128 192 192 192c15.824 0 31.392-1.936 46.56-5.776 38.32 116.528 148.016 197.776 273.44 197.776 99.008 0 189.696-50.272 242.432-132.752 15.040 3.152 30.288 4.752 45.568 4.752 123.52 0 224-100.48 224-224s-100.48-224-224-224zM388.672 128c-6.096 0-12.272 1.728-17.712 5.376-14.704 9.808-18.672 29.664-8.88 44.368l94.832 142.256h-132.208c-11.808 0-22.656 6.496-28.208 16.912-5.568 10.4-4.96 23.024 1.584 32.848l128 192c9.808 14.704 29.68 18.672 44.368 8.88 14.704-9.808 18.672-29.664 8.88-44.368l-94.832-142.272h132.208c11.792 0 22.64-6.496 28.208-16.912 5.584-10.4 4.976-23.024-1.584-32.848l-128-192c-6.16-9.248-16.32-14.24-26.656-14.24z" />
<glyph unicode="&#xe621;" d="M1024 528c0 123.52-100.48 224-224 224-15.296 0-30.528-1.6-45.568-4.752-52.752 82.48-143.424 132.752-242.432 132.752-125.44 0-235.12-81.232-273.44-197.76-15.168 3.824-30.736 5.76-46.56 5.76-105.872 0-192-86.128-192-192s86.128-192 192-192h48c17.664 0 32 14.336 32 32s-14.336 32-32 32h-48c-70.576 0-128 57.424-128 128s57.424 128 128 128c19.008 0 37.488-4.224 54.928-12.528 8.96-4.304 19.376-4.16 28.24 0.336 8.848 4.464 15.12 12.8 16.976 22.528 20.112 105.264 112.576 181.664 219.856 181.664 83.744 0 159.872-46.304 198.688-120.816 7.248-13.968 23.616-20.544 38.544-15.568 16.576 5.568 33.648 8.384 50.768 8.384 88.224 0 160-71.776 160-160s-71.776-160-160-160h-16c-12.256 0-22.752-6.96-28.128-17.056-20.24 10.848-43.344 17.056-67.872 17.056-79.408 0-144-64.592-144-144s64.592-144 144-144 144 64.592 144 144c0 29.744-9.056 57.408-24.576 80.368 120.064 3.968 216.576 102.624 216.576 223.632zM688 112c-61.744 0-112 50.256-112 112s50.256 112 112 112 112-50.256 112-112-50.256-112-112-112zM384.464 363.44c-15.152 9.088-34.816 4.176-43.904-10.976l-96-160c-9.088-15.152-4.192-34.816 10.976-43.904 5.152-3.088 10.832-4.56 16.432-4.56 10.88 0 21.472 5.536 27.472 15.536l96 160c9.088 15.152 4.192 34.8-10.976 43.904zM511.536 363.968c-15.456 8.576-34.912 3.008-43.504-12.416l-160-288c-8.592-15.456-3.024-34.944 12.432-43.52 4.912-2.736 10.256-4.032 15.504-4.032 11.248 0 22.16 5.936 28 16.448l160 288c8.592 15.456 3.040 34.944-12.432 43.52zM688 304c-8.848 0-16-7.152-16-16v-80c0-8.848 7.152-16 16-16s16 7.152 16 16v80c0 8.848-7.152 16-16 16zM704 160c0-8.837-7.163-16-16-16s-16 7.163-16 16c0 8.837 7.163 16 16 16s16-7.163 16-16z" />
<glyph unicode="&#xe622;" d="M512 720c-282.32 0-512-229.68-512-512 0-17.664 14.336-32 32-32s32 14.336 32 32c0 247.024 200.976 448 448 448s448-200.976 448-448c0-17.664 14.336-32 32-32s32 14.336 32 32c0 282.32-229.68 512-512 512zM512 592c-211.744 0-384-172.256-384-384 0-17.664 14.336-32 32-32s32 14.336 32 32c0 176.432 143.552 320 320 320 176.432 0 320-143.568 320-320 0-17.664 14.336-32 32-32s32 14.336 32 32c0 211.744-172.256 384-384 384zM512 464c-141.152 0-256-114.848-256-256 0-17.664 14.336-32 32-32s32 14.336 32 32c0 105.872 86.128 192 192 192s192-86.128 192-192c0-17.664 14.336-32 32-32s32 14.336 32 32c0 141.152-114.848 256-256 256z" />
<glyph unicode="&#xe623;" d="M800 736c-15.28 0-30.528-1.6-45.568-4.752-52.736 82.48-143.424 132.752-242.432 132.752-125.424 0-235.12-81.248-273.44-197.776-15.168 3.84-30.736 5.776-46.56 5.776-105.872 0-192-86.128-192-192s86.128-192 192-192h32c17.664 0 32 14.336 32 32s-14.336 32-32 32h-32c-70.576 0-128 57.424-128 128s57.424 128 128 128c19.008 0 37.472-4.224 54.928-12.544 8.944-4.256 19.36-4.16 28.224 0.336 8.848 4.48 15.12 12.8 16.992 22.544 20.112 105.264 112.576 181.664 219.856 181.664 83.744 0 159.872-46.288 198.688-120.8 7.248-13.968 23.632-20.544 38.528-15.568 16.592 5.552 33.696 8.368 50.784 8.368 88.224 0 160-71.776 160-160s-71.776-160-160-160c-17.664 0-32-14.336-32-32s14.336-32 32-32c123.52 0 224 100.48 224 224s-100.48 224-224 224zM688 327.424h-36.288l18.144 31.424c4.416 7.664 1.792 17.44-5.856 21.856-7.664 4.432-17.44 1.792-21.856-5.856l-18.144-31.424-18.144 31.424c-4.416 7.664-14.24 10.304-21.856 5.856-7.664-4.416-10.288-14.208-5.856-21.856l18.144-31.424h-36.288c-8.848 0-16-7.168-16-16s7.152-16 16-16h36.288l-18.144-31.424c-4.416-7.664-1.792-17.44 5.856-21.856 2.512-1.456 5.28-2.144 7.984-2.144 5.536 0 10.912 2.88 13.872 8l18.144 31.424 18.144-31.424c2.976-5.12 8.336-8 13.872-8 2.704 0 5.472 0.688 7.984 2.144 7.664 4.416 10.288 14.208 5.856 21.856l-18.144 31.424h36.288c8.848 0 16 7.168 16 16s-7.152 16-16 16zM688 151.424h-36.288l18.144 31.424c4.416 7.664 1.792 17.44-5.856 21.856-7.664 4.416-17.44 1.792-21.856-5.856l-18.144-31.424-18.144 31.424c-4.416 7.664-14.24 10.288-21.856 5.856-7.664-4.416-10.288-14.208-5.856-21.856l18.144-31.424h-36.288c-8.848 0-16-7.168-16-16s7.152-16 16-16h36.288l-18.144-31.424c-4.416-7.664-1.792-17.44 5.856-21.856 2.512-1.456 5.28-2.144 7.984-2.144 5.536 0 10.912 2.88 13.872 8l18.144 31.424 18.144-31.424c2.976-5.12 8.336-8 13.872-8 2.704 0 5.472 0.688 7.984 2.144 7.664 4.416 10.288 14.208 5.856 21.856l-18.144 31.424h36.288c8.848 0 16 7.168 16 16s-7.152 16-16 16zM448 384c-17.664 0-32-14.336-32-32v-64c0-17.664 14.336-32 32-32s32 14.336 32 32v64c0 17.664-14.336 32-32 32zM352 352c-17.664 0-32-14.336-32-32v-64c0-17.664 14.336-32 32-32s32 14.336 32 32v64c0 17.664-14.336 32-32 32zM448 192c-17.664 0-32-14.336-32-32v-64c0-17.664 14.336-32 32-32s32 14.336 32 32v64c0 17.664-14.336 32-32 32zM352 160c-17.664 0-32-14.336-32-32v-64c0-17.664 14.336-32 32-32s32 14.336 32 32v64c0 17.664-14.336 32-32 32z" />
<glyph unicode="&#xe624;" d="M240 631.728c-10.192 0-19.776-4.864-25.808-13.072-17.008-23.2-166.192-229.968-166.192-346.208 0-101.856 86.128-184.72 192-184.72s192 82.864 192 184.72c0 116.24-149.184 323.008-166.192 346.208-6.032 8.224-15.616 13.072-25.808 13.072zM240 151.728c-70.576 0-128 54.16-128 120.72 0 67.552 77.552 196.8 128 271.52 50.448-74.704 128-203.968 128-271.52 0-66.56-57.424-120.72-128-120.72zM752 600.72c0 116.24-149.184 323.008-166.192 346.208-6.032 8.208-15.616 13.072-25.808 13.072s-19.776-4.864-25.808-13.072c-17.008-23.2-166.192-229.968-166.192-346.208 0-101.856 86.128-184.72 192-184.72s192 82.864 192 184.72zM560 480c-70.576 0-128 54.16-128 120.72 0 67.552 77.552 196.8 128 271.52 50.432-74.704 128-203.968 128-271.52 0-66.56-57.424-120.72-128-120.72zM809.808 466.928c-6.032 8.208-15.616 13.072-25.808 13.072s-19.776-4.864-25.808-13.072c-17.008-23.2-166.192-229.968-166.192-346.208 0-101.84 86.128-184.72 192-184.72s192 82.88 192 184.72c0 116.24-149.184 323.008-166.192 346.208zM784 0c-70.576 0-128 54.16-128 120.72 0 67.552 77.568 196.816 128 271.52 50.432-74.704 128-203.968 128-271.52 0-66.56-57.424-120.72-128-120.72z" />
<glyph unicode="&#xe625;" d="M128 144h-96c-17.664 0-32 14.336-32 32s14.336 32 32 32h96c17.664 0 32-14.336 32-32s-14.336-32-32-32zM336 144h-96c-17.664 0-32 14.336-32 32s14.336 32 32 32h96c17.664 0 32-14.336 32-32s-14.336-32-32-32zM528 144h-96c-17.664 0-32 14.336-32 32s14.336 32 32 32h96c17.664 0 32-14.336 32-32s-14.336-32-32-32zM720 144h-96c-17.664 0-32 14.336-32 32s14.336 32 32 32h96c17.664 0 32-14.336 32-32s-14.336-32-32-32zM400 16h-96c-17.664 0-32 14.336-32 32s14.336 32 32 32h96c17.664 0 32-14.336 32-32s-14.336-32-32-32zM608 16h-96c-17.664 0-32 14.336-32 32s14.336 32 32 32h96c17.664 0 32-14.336 32-32s-14.336-32-32-32zM800.016 16h-96.016c-17.664 0-32 14.336-32 32s14.336 32 32 32h96.016c17.664 0 32-14.336 32-32s-14.336-32-32-32zM992.016 16h-96.016c-17.664 0-32 14.336-32 32s14.336 32 32 32h96.016c17.664 0 32-14.336 32-32s-14.336-32-32-32zM800 304h-608c-105.856 0-192 86.128-192 192s86.144 192 192 192c15.824 0 31.392-1.936 46.544-5.76 38.352 116.528 148.032 197.76 273.456 197.76 99.008 0 189.696-50.256 242.432-132.752 15.056 3.152 30.304 4.752 45.568 4.752 123.52 0 224-100.48 224-224s-100.48-224-224-224zM192 624c-70.576 0-128-57.424-128-128s57.424-128 128-128h608c88.24 0 160 71.776 160 160s-71.76 160-160 160c-17.072 0-34.176-2.816-50.8-8.368-14.912-5.024-31.248 1.6-38.528 15.568-38.784 74.496-114.912 120.8-198.672 120.8-107.264 0-199.728-76.4-219.856-181.664-1.872-9.728-8.144-18.064-16.992-22.528-8.848-4.48-19.28-4.624-28.224-0.336-17.44 8.304-35.92 12.528-54.928 12.528z" />
<glyph unicode="&#xe626;" d="M992 479.696h-114.752l73.376 73.376c12.496 12.496 12.496 32.752 0 45.248-12.48 12.496-32.768 12.496-45.248 0l-118.624-118.624h-219.328l109.664 189.936 162.064 43.424c17.072 4.576 27.2 22.112 22.624 39.184s-22.144 27.264-39.184 22.624l-100.256-26.864 57.392 99.376c8.832 15.312 3.6 34.88-11.712 43.712-15.312 8.864-34.896 3.6-43.712-11.712l-57.392-99.376-26.864 100.24c-4.576 17.072-22.144 27.264-39.184 22.624-17.072-4.576-27.2-22.112-22.624-39.184l43.424-162.048-109.664-189.936-109.664 189.952 43.424 162.032c4.576 17.072-5.552 34.624-22.624 39.184-17.072 4.656-34.608-5.552-39.184-22.624l-26.864-100.24-57.376 99.376c-8.832 15.312-28.4 20.592-43.712 11.728-15.312-8.832-20.544-28.4-11.712-43.712l57.376-99.376-100.224 26.864c-17.088 4.64-34.624-5.552-39.184-22.624-4.576-17.072 5.568-34.624 22.624-39.184l162.032-43.424 109.664-189.936h-219.328l-118.624 118.624c-12.48 12.496-32.768 12.496-45.248 0-12.496-12.496-12.496-32.752 0-45.248l73.376-73.376h-114.752c-17.664 0-32-14.336-32-32s14.336-32 32-32h114.752l-73.376-73.376c-12.496-12.48-12.496-32.768 0-45.248 6.256-6.256 14.432-9.392 22.624-9.392s16.368 3.12 22.624 9.376l118.624 118.624h219.328l-109.648-189.936-162.064-43.424c-17.072-4.56-27.2-22.128-22.624-39.184 3.824-14.304 16.768-23.712 30.896-23.712 2.736 0 5.536 0.336 8.304 1.088l100.256 26.864-57.408-99.392c-8.832-15.296-3.6-34.88 11.712-43.696 5.024-2.928 10.528-4.304 15.968-4.304 11.056 0 21.808 5.744 27.744 16l57.376 99.376 26.848-100.224c3.824-14.304 16.752-23.712 30.88-23.712 2.752 0 5.536 0.336 8.32 1.088 17.056 4.56 27.2 22.128 22.624 39.184l-43.424 162.048 109.664 189.936 109.664-189.952-43.424-162.032c-4.576-17.072 5.552-34.624 22.624-39.184 2.768-0.752 5.568-1.104 8.304-1.104 14.128 0 27.056 9.424 30.896 23.728l26.864 100.24 57.376-99.392c5.936-10.256 16.688-16 27.744-16 5.44 0 10.944 1.376 15.968 4.304 15.312 8.832 20.544 28.4 11.712 43.696l-57.392 99.392 100.256-26.864c2.768-0.752 5.568-1.088 8.304-1.088 14.128 0 27.056 9.424 30.896 23.712 4.576 17.056-5.552 34.624-22.624 39.184l-162.096 43.424-109.664 189.936h219.328l118.624-118.64c6.256-6.256 14.432-9.376 22.624-9.376s16.368 3.12 22.624 9.376c12.496 12.496 12.496 32.768 0 45.248l-73.376 73.392h114.768c17.664 0 32 14.336 32 32s-14.336 32-32 32z" />
<glyph unicode="&#xe627;" d="M704 720c17.664 0 32 14.336 32 32v64c0 17.664-14.336 32-32 32s-32-14.336-32-32v-64c0-17.664 14.336-32 32-32zM992 560h-64c-17.664 0-32-14.336-32-32s14.336-32 32-32h64c17.664 0 32 14.336 32 32s-14.336 32-32 32zM862.384 654.384c8.192 0 16.384 3.12 22.64 9.376l45.248 45.264c12.48 12.496 12.48 32.752-0.016 45.264-12.496 12.48-32.768 12.496-45.264 0l-45.248-45.264c-12.48-12.496-12.48-32.752 0.016-45.264 6.256-6.24 14.448-9.376 22.624-9.376zM522.976 663.76c6.256-6.256 14.448-9.376 22.64-9.376s16.368 3.12 22.624 9.36c12.496 12.496 12.496 32.752 0.016 45.264l-45.248 45.264c-12.496 12.496-32.768 12.496-45.264 0s-12.496-32.752-0.016-45.264l45.248-45.248zM885.024 392.24c-12.496 12.496-32.768 12.48-45.264 0.016-0.832-0.848-1.456-1.776-2.176-2.688-7.808 7.84-16.336 14.912-25.312 21.344 31.632 29.2 51.728 70.72 51.728 117.088 0 88.224-71.776 160-160 160-83.936 0-152.848-65.008-159.36-147.312-30.112 12.512-62.8 19.312-96.64 19.312-109.28 0-204.992-70.56-239.84-172.24-12.256 2.816-24.768 4.24-37.488 4.24-94.112 0-170.672-77.152-170.672-172s76.56-172 170.672-172h526.944c109.392 0 198.384 89.712 198.384 200 0 17.328-2.432 34.064-6.56 50.096 5.472-3.776 11.824-5.744 18.208-5.744 8.192 0 16.368 3.12 22.624 9.376 12.496 12.496 12.496 32.752 0.016 45.248l-45.264 45.264zM608 528c0 52.944 43.056 96 96 96s96-43.056 96-96c0-37.904-22.144-70.656-54.112-86.256-15.488 3.936-31.6 6.256-48.272 6.256-12.544 0-25.040-1.216-37.424-3.648-13.376 20.608-29.488 38.8-47.6 54.416-2.96 9.232-4.592 19.040-4.592 29.232zM697.616 112h-526.944c-58.832 0-106.672 48.432-106.672 108 0 59.552 47.84 108 106.672 108 15.776 0 31.136-3.568 45.648-10.528 8.976-4.336 19.424-4.224 28.32 0.256 8.88 4.48 15.152 12.848 17.008 22.608 17.104 90.192 95.456 155.664 186.352 155.664 70.944 0 135.44-39.648 168.352-103.456 7.264-14.064 23.712-20.72 38.688-15.648 13.92 4.704 28.24 7.088 42.56 7.088 74.112 0.016 134.4-60.992 134.4-135.984 0-75.008-60.288-136-134.384-136z" />
<glyph unicode="&#xe628;" d="M512 800c17.664 0 32 14.336 32 32v96c0 17.664-14.336 32-32 32s-32-14.336-32-32v-96c0-17.664 14.336-32 32-32zM512 96c-17.664 0-32-14.336-32-32v-96c0-17.664 14.336-32 32-32s32 14.336 32 32v96c0 17.664-14.336 32-32 32zM783.536 687.536c8.192 0 16.368 3.12 22.624 9.376l67.872 67.888c12.496 12.496 12.496 32.752 0 45.248s-32.768 12.496-45.248 0l-67.872-67.888c-12.496-12.496-12.496-32.752 0-45.248 6.24-6.256 14.432-9.376 22.624-9.376zM217.84 199.088l-67.872-67.872c-12.496-12.496-12.496-32.768 0-45.248 6.256-6.256 14.432-9.376 22.624-9.376s16.368 3.12 22.624 9.376l67.872 67.872c12.496 12.496 12.496 32.752 0 45.248s-32.752 12.512-45.248 0zM217.84 696.912c6.256-6.256 14.432-9.376 22.624-9.376s16.368 3.12 22.624 9.376c12.496 12.496 12.496 32.752 0 45.248l-67.888 67.872c-12.496 12.496-32.768 12.496-45.248 0-12.496-12.496-12.496-32.752 0-45.248l67.888-67.872zM992 480h-96c-17.664 0-32-14.336-32-32s14.336-32 32-32h96c17.664 0 32 14.336 32 32s-14.336 32-32 32zM160 448c0 17.664-14.336 32-32 32h-96c-17.664 0-32-14.336-32-32s14.336-32 32-32h96c17.664 0 32 14.336 32 32zM832 448c0 176.448-143.568 320-320 320s-320-143.552-320-320c0-176.432 143.568-320 320-320 31.056 0 60.992 4.656 89.408 12.976-0.88-7.008-1.408-13.776-1.408-20.256 0-101.84 86.128-184.72 192-184.72s192 82.88 192 184.72c0 100-110.368 266.944-152.032 326.4 0 0.288 0.032 0.576 0.032 0.88zM512 192c-141.152 0-256 114.848-256 256s114.848 256 256 256c134.464 0 244.848-104.304 255.008-236.224-0.256-0.32-0.56-0.544-0.816-0.864-12.88-17.584-101.536-140.416-143.808-249.52-33.456-16.144-70.816-25.392-110.384-25.392zM792 0c-70.576 0-128 54.16-128 120.72 0 67.552 77.568 196.816 128 271.52 50.432-74.704 128-203.968 128-271.52 0-66.56-57.424-120.72-128-120.72z" />
<glyph unicode="&#xe629;" d="M512 752c17.664 0 32 14.336 32 32v64c0 17.664-14.336 32-32 32s-32-14.336-32-32v-64c0-17.664 14.336-32 32-32zM800 464c0-17.664 14.336-32 32-32h64c17.664 0 32 14.336 32 32s-14.336 32-32 32h-64c-17.664 0-32-14.336-32-32zM128 432h64c17.664 0 32 14.336 32 32s-14.336 32-32 32h-64c-17.664 0-32-14.336-32-32s14.336-32 32-32zM263.088 667.664c6.24-6.256 14.432-9.376 22.624-9.376s16.384 3.12 22.624 9.376c12.496 12.496 12.496 32.752 0 45.248l-45.248 45.248c-12.48 12.496-32.768 12.496-45.248 0-12.496-12.496-12.496-32.752 0-45.248l45.248-45.248zM738.288 658.288c8.192 0 16.368 3.12 22.624 9.376l45.248 45.248c12.496 12.496 12.496 32.752 0 45.248-12.48 12.496-32.768 12.496-45.248 0l-45.248-45.248c-12.496-12.496-12.496-32.752 0-45.248 6.24-6.256 14.432-9.376 22.624-9.376zM992 368h-242.752c12.336 30.32 18.752 62.752 18.752 96 0 141.152-114.848 256-256 256s-256-114.848-256-256c0-33.248 6.416-65.68 18.736-96h-242.736c-17.664 0-32-14.336-32-32s14.336-32 32-32h960c17.664 0 32 14.336 32 32s-14.336 32-32 32zM345.824 368c-16.944 29.168-25.824 62.048-25.824 96 0 105.872 86.128 192 192 192s192-86.128 192-192c0-33.952-8.88-66.832-25.808-96h-332.368zM534.656 230.608c-1.504 1.488-3.136 2.832-4.912 4-0.816 0.544-1.68 0.912-2.528 1.376-0.992 0.528-1.936 1.136-2.992 1.568-1.072 0.448-2.176 0.704-3.296 1.024-0.896 0.256-1.76 0.608-2.688 0.8-4.128 0.816-8.4 0.816-12.528 0-0.944-0.192-1.792-0.544-2.704-0.816-1.088-0.32-2.208-0.56-3.28-1.008-1.056-0.432-2-1.024-3.008-1.584-0.832-0.448-1.696-0.832-2.512-1.36-1.76-1.168-3.408-2.512-4.896-4l-63.984-63.984c-12.496-12.496-12.496-32.752 0-45.248 6.288-6.256 14.48-9.376 22.672-9.376s16.384 3.12 22.624 9.376l9.376 9.376v-82.752c0-17.664 14.336-32 32-32s32 14.336 32 32v82.752l9.376-9.376c6.256-6.256 14.432-9.376 22.624-9.376s16.368 3.12 22.624 9.376c12.496 12.496 12.496 32.752 0 45.248l-63.968 63.984z" />
<glyph unicode="&#xe62a;" d="M512 608c17.664 0 32 14.336 32 32v64c0 17.664-14.336 32-32 32s-32-14.336-32-32v-64c0-17.664 14.336-32 32-32zM800 320c0-17.664 14.336-32 32-32h64c17.664 0 32 14.336 32 32s-14.336 32-32 32h-64c-17.664 0-32-14.336-32-32zM128 288h64c17.664 0 32 14.336 32 32s-14.336 32-32 32h-64c-17.664 0-32-14.336-32-32s14.336-32 32-32zM263.088 523.664c6.24-6.256 14.432-9.376 22.624-9.376s16.384 3.12 22.624 9.376c12.496 12.496 12.496 32.752 0 45.248l-45.248 45.248c-12.48 12.496-32.768 12.496-45.248 0-12.496-12.496-12.496-32.752 0-45.248l45.248-45.248zM738.288 514.288c8.192 0 16.368 3.12 22.624 9.376l45.248 45.248c12.496 12.496 12.496 32.752 0 45.248-12.48 12.496-32.768 12.496-45.248 0l-45.248-45.248c-12.496-12.496-12.496-32.752 0-45.248 6.24-6.256 14.432-9.376 22.624-9.376zM992 224h-242.752c12.336 30.32 18.752 62.752 18.752 96 0 141.152-114.848 256-256 256s-256-114.848-256-256c0-33.248 6.416-65.68 18.736-96h-242.736c-17.664 0-32-14.336-32-32s14.336-32 32-32h960c17.664 0 32 14.336 32 32s-14.336 32-32 32zM345.824 224c-16.944 29.168-25.824 62.048-25.824 96 0 105.872 86.128 192 192 192s192-86.128 192-192c0-33.952-8.88-66.832-25.808-96h-332.368z" />
<glyph unicode="&#xe62b;" d="M512 752c17.664 0 32 14.336 32 32v64c0 17.664-14.336 32-32 32s-32-14.336-32-32v-64c0-17.664 14.336-32 32-32zM800 464c0-17.664 14.336-32 32-32h64c17.664 0 32 14.336 32 32s-14.336 32-32 32h-64c-17.664 0-32-14.336-32-32zM128 432h64c17.664 0 32 14.336 32 32s-14.336 32-32 32h-64c-17.664 0-32-14.336-32-32s14.336-32 32-32zM263.104 667.664c6.256-6.256 14.432-9.376 22.624-9.376s16.384 3.12 22.64 9.376c12.496 12.496 12.496 32.768 0 45.248l-45.264 45.248c-12.496 12.496-32.752 12.496-45.264 0-12.496-12.496-12.496-32.768 0-45.248l45.264-45.248zM738.288 658.288c8.192 0 16.368 3.12 22.624 9.376l45.248 45.248c12.496 12.48 12.496 32.752 0 45.248s-32.752 12.496-45.248 0l-45.248-45.248c-12.496-12.48-12.496-32.752-0.016-45.248 6.24-6.256 14.448-9.376 22.64-9.376zM992 368h-242.752c12.32 30.32 18.752 62.752 18.752 96 0 141.152-114.848 256-256 256s-256-114.848-256-256c0-33.248 6.416-65.68 18.736-96h-242.736c-17.664 0-32-14.336-32-32s14.336-32 32-32h960c17.664 0 32 14.336 32 32s-14.336 32-32 32zM345.824 368c-16.928 29.168-25.824 62.064-25.824 96 0 105.872 86.128 192 192 192s192-86.128 192-192c0-33.936-8.896-66.832-25.824-96h-332.352zM553.376 134.624l-9.376-9.376v82.752c0 17.664-14.336 32-32 32s-32-14.336-32-32v-82.752l-9.376 9.376c-12.48 12.496-32.768 12.496-45.248 0-12.496-12.496-12.496-32.752 0-45.248l63.984-63.984c1.488-1.488 3.136-2.832 4.896-4 0.8-0.528 1.664-0.896 2.48-1.344 1.008-0.544 1.968-1.152 3.024-1.6 1.056-0.432 2.16-0.688 3.248-1.008 0.912-0.272 1.792-0.624 2.736-0.816 2.064-0.4 4.16-0.624 6.256-0.624s4.192 0.224 6.272 0.624c0.944 0.192 1.824 0.544 2.736 0.816 1.088 0.336 2.192 0.576 3.248 1.008s2.016 1.040 3.024 1.6c0.816 0.448 1.68 0.816 2.48 1.344 1.744 1.168 3.408 2.512 4.912 4l63.968 63.984c12.496 12.496 12.496 32.752 0 45.248s-32.784 12.496-45.264 0z" />
<glyph unicode="&#xe62c;" d="M512 528c17.68 0 32 14.336 32 32v64c0 17.664-14.32 32-32 32-17.664 0-32-14.336-32-32v-64c0-17.664 14.336-32 32-32zM263.088 443.664c6.256-6.256 14.432-9.376 22.624-9.376s16.384 3.12 22.624 9.376c12.496 12.496 12.496 32.752 0 45.248l-45.248 45.248c-12.464 12.496-32.752 12.496-45.248 0s-12.496-32.752 0-45.248l45.248-45.248zM738.288 434.288c8.192 0 16.384 3.12 22.624 9.376l45.248 45.248c12.496 12.496 12.496 32.752 0 45.248-12.464 12.496-32.752 12.496-45.248 0l-45.248-45.248c-12.496-12.496-12.496-32.752 0-45.248 6.24-6.256 14.432-9.376 22.624-9.376zM992 304h-232.544c-28.784 111.168-130.512 192-247.456 192-116.912 0-218.656-80.832-247.44-192h-232.56c-17.664 0-32-14.336-32-32s14.336-32 32-32h960c17.68 0 32 14.336 32 32s-14.32 32-32 32zM331.248 304c26.656 75.040 98.784 128 180.752 128 82 0 154.128-52.96 180.768-128h-361.52z" />
<glyph unicode="&#xe62d;" d="M576 128c0-35.346-28.654-64-64-64s-64 28.654-64 64c0 35.346 28.654 64 64 64s64-28.654 64-64zM640 270.784v561.216c0 70.576-57.424 128-128 128s-128-57.424-128-128v-561.2c-40.752-36.4-64-87.472-64-142.8 0-105.872 86.144-192 192-192s192 86.128 192 192c0 55.328-23.264 106.384-64 142.784zM512 0c-70.576 0-128 57.424-128 128 0 40.64 18.672 77.968 51.232 102.432 8.336 6.288 12.64 15.872 12.656 25.584 0.032 0 0.064 0 0.112 0v575.984c0 35.296 28.704 64 64 64s64-28.704 64-64v-575.984c0.048 0 0.080 0 0.144 0 0-9.712 4.304-19.344 12.656-25.632 32.544-24.448 51.2-61.76 51.2-102.384 0-70.576-57.424-128-128-128z" />
<glyph unicode="&#xe62e;" d="M544 183.12v104.88c0 17.664-14.336 32-32 32s-32-14.336-32-32v-104.88c-19.040-11.088-32-31.488-32-55.12 0-35.344 28.656-64 64-64s64 28.656 64 64c0 23.632-12.96 44.032-32 55.12zM640 270.784v561.216c0 70.576-57.424 128-128 128s-128-57.424-128-128v-561.2c-40.752-36.4-64-87.472-64-142.8 0-105.872 86.144-192 192-192s192 86.128 192 192c0 55.328-23.264 106.384-64 142.784zM512 0c-70.576 0-128 57.424-128 128 0 40.64 18.672 77.968 51.232 102.432 8.336 6.288 12.64 15.872 12.656 25.584 0.032 0 0.064 0 0.112 0v575.984c0 35.296 28.704 64 64 64s64-28.704 64-64v-575.984c0.048 0 0.080 0 0.144 0 0-9.712 4.304-19.344 12.656-25.632 32.544-24.448 51.2-61.76 51.2-102.384 0-70.576-57.424-128-128-128z" />
<glyph unicode="&#xe62f;" d="M544 183.12v328.88c0 17.664-14.336 32-32 32s-32-14.336-32-32v-328.88c-19.040-11.088-32-31.488-32-55.12 0-35.344 28.656-64 64-64s64 28.656 64 64c0 23.632-12.96 44.032-32 55.12zM640 270.784v561.216c0 70.576-57.424 128-128 128s-128-57.424-128-128v-561.2c-40.752-36.4-64-87.472-64-142.8 0-105.872 86.144-192 192-192s192 86.128 192 192c0 55.328-23.264 106.384-64 142.784zM512 0c-70.576 0-128 57.424-128 128 0 40.64 18.672 77.968 51.232 102.432 8.336 6.288 12.64 15.872 12.656 25.584 0.032 0 0.064 0 0.112 0v575.984c0 35.296 28.704 64 64 64s64-28.704 64-64v-575.984c0.048 0 0.080 0 0.144 0 0-9.712 4.304-19.344 12.656-25.632 32.544-24.448 51.2-61.76 51.2-102.384 0-70.576-57.424-128-128-128z" />
<glyph unicode="&#xe630;" d="M544 183.12v648.88c0 17.664-14.336 32-32 32s-32-14.336-32-32v-648.88c-19.040-11.088-32-31.488-32-55.12 0-35.344 28.656-64 64-64s64 28.656 64 64c0 23.632-12.96 44.032-32 55.12zM640 270.784v561.216c0 70.576-57.424 128-128 128s-128-57.424-128-128v-561.2c-40.752-36.4-64-87.472-64-142.8 0-105.872 86.128-192 192-192s192 86.128 192 192c0 55.328-23.248 106.384-64 142.784zM512 0c-70.576 0-128 57.424-128 128 0 40.64 18.672 77.968 51.216 102.432 8.368 6.288 12.656 15.872 12.656 25.584 0.064 0 0.080 0 0.128 0v575.984c0 35.296 28.72 64 64 64s64-28.704 64-64v-575.984c0.048 0 0.096 0 0.144 0-0.016-9.712 4.304-19.344 12.672-25.632 32.528-24.448 51.184-61.76 51.184-102.384 0-70.576-57.424-128-128-128z" />
<glyph unicode="&#xe631;" d="M828.544 462.48c-5.456 10.752-16.48 17.536-28.544 17.536h-192v447.984c0 13.84-8.896 26.112-22.048 30.416-13.152 4.288-27.584-0.336-35.76-11.488l-352-479.984c-7.12-9.712-8.192-22.64-2.736-33.376 5.456-10.752 16.48-17.536 28.544-17.536h192v-448c0-13.824 8.896-26.112 22.048-30.416 3.264-1.056 6.64-1.584 9.952-1.584 10 0 19.664 4.704 25.808 13.072l352 480c7.136 9.712 8.192 22.624 2.736 33.376zM480 65.76v382.256c0 17.664-14.336 32-32 32h-160.848l256.848 350.24v-382.24c0-17.664 14.336-32 32-32h160.848l-256.848-350.256z" />
<glyph unicode="&#xe632;" d="M1024 496c0 123.52-100.48 224-224 224-15.28 0-30.528-1.6-45.568-4.752-52.736 82.496-143.424 132.752-242.432 132.752-125.44 0-235.12-81.232-273.44-197.76-15.168 3.824-30.736 5.76-46.56 5.76-105.872 0-192-86.128-192-192s86.128-192 192-192h36.704c17.664 0 32 14.336 32 32s-14.336 32-32 32h-36.704c-70.576 0-128 57.424-128 128s57.424 128 128 128c19.008 0 37.488-4.224 54.928-12.528 8.96-4.304 19.376-4.16 28.24 0.336 8.848 4.464 15.12 12.8 16.976 22.528 20.112 105.264 112.576 181.664 219.856 181.664 83.744 0 159.872-46.304 198.688-120.816 7.248-13.968 23.6-20.592 38.528-15.568 16.624 5.568 33.712 8.384 50.784 8.384 88.224 0 160-71.776 160-160s-71.776-160-160-160h-27.296c-13.088 0-24.32-7.888-29.264-19.136-21.088 12.112-45.44 19.136-71.44 19.136-79.408 0-144-64.592-144-144s64.592-144 144-144 144 64.592 144 144c0 29.6-8.992 57.088-24.336 80h8.336c123.52 0 224 100.48 224 224zM672 80c-61.744 0-112 50.256-112 112s50.256 112 112 112 112-50.256 112-112-50.256-112-112-112zM480 336h-100.368l83.744 126.32c9.76 14.736 5.744 34.592-8.992 44.352-14.736 9.744-34.576 5.728-44.352-8.992l-116.704-176c-6.512-9.824-7.104-22.432-1.52-32.832 5.568-10.368 16.416-16.848 28.192-16.848h103.008l-77.648-127.344c-9.184-15.088-4.416-34.784 10.672-43.984 5.216-3.168 10.976-4.672 16.64-4.672 10.8 0 21.328 5.456 27.36 15.344l107.28 176c6.032 9.872 6.256 22.24 0.592 32.336-5.664 10.064-16.336 16.32-27.904 16.32zM672 272c-8.848 0-16-7.152-16-16v-80c0-8.848 7.152-16 16-16s16 7.152 16 16v80c0 8.848-7.152 16-16 16zM688 128c0-8.837-7.163-16-16-16s-16 7.163-16 16c0 8.837 7.163 16 16 16s16-7.163 16-16z" />
<glyph unicode="&#xe633;" d="M800 384c-0.064 0-0.096-0.016-0.16-0.016h-767.84c-17.664 0-32-14.336-32-32s14.336-32 32-32h768.048c0.032 0 0.048 0.016 0.080 0.016 52.88-0.080 95.872-43.104 95.872-96 0-52.944-43.056-96-96-96s-96 43.056-96 96c0 17.664-14.336 32-32 32s-32-14.336-32-32c0-88.224 71.776-160 160-160s160 71.776 160 160-71.776 160-160 160zM32 512.016h383.84c0.064 0 0.096-0.016 0.16-0.016 88.224 0 160 71.776 160 160s-71.776 160-160 160-160-71.776-160-160c0-17.664 14.336-32 32-32s32 14.336 32 32c0 52.944 43.056 96 96 96s96-43.056 96-96c0-52.896-42.992-95.92-95.872-96-0.032 0-0.048 0-0.080 0h-384.048c-17.664 0-32-14.336-32-32s14.336-31.984 32-31.984zM832 800c-105.872 0-192-86.128-192-192 0-17.664 14.336-32 32-32s32 14.336 32 32c0 70.576 57.424 128 128 128s128-57.424 128-128c0-70.544-57.376-127.936-127.904-128-0.032 0-0.064 0-0.096 0h-800c-17.664 0-32-14.336-32-32s14.336-32 32-32h799.84c0.064 0.016 0.096 0 0.16 0 105.872 0 192 86.128 192 192s-86.128 192-192 192z" />
<glyph unicode="&#xe634;" d="M800 448c-0.064 0-0.096-0.016-0.16-0.016h-767.84c-17.664 0-32-14.336-32-32s14.336-32 32-32h768.048c0.032 0 0.048 0.016 0.080 0.016 52.88-0.080 95.872-43.104 95.872-96 0-52.944-43.056-96-96-96-17.664 0-32-14.336-32-32s14.336-32 32-32c88.224 0 160 71.776 160 160s-71.776 160-160 160zM32 576.016h383.84c0.064 0 0.112-0.016 0.16-0.016 88.224 0 160 71.776 160 160s-71.776 160-160 160-160-71.776-160-160c0-17.664 14.336-32 32-32s32 14.336 32 32c0 52.944 43.056 96 96 96s96-43.056 96-96c0-52.896-42.992-95.92-95.872-96-0.032 0-0.048 0.016-0.080 0.016h-384.048c-17.664 0-32-14.336-32-32s14.336-32 32-32zM832 864c-105.872 0-192-86.128-192-192 0-17.664 14.336-32 32-32s32 14.336 32 32c0 70.576 57.424 128 128 128s128-57.424 128-128c0-70.544-57.376-127.936-127.904-128-0.032 0-0.064 0.016-0.096 0.016h-800c-17.664 0-32-14.336-32-32s14.336-32 32-32h799.84c0.064 0 0.096-0.016 0.16-0.016 105.872 0 192 86.128 192 192s-86.128 192-192 192zM64 288c0-17.673-14.327-32-32-32s-32 14.327-32 32c0 17.673 14.327 32 32 32s32-14.327 32-32zM256 288c0-17.673-14.327-32-32-32s-32 14.327-32 32c0 17.673 14.327 32 32 32s32-14.327 32-32zM448 288c0-17.673-14.327-32-32-32s-32 14.327-32 32c0 17.673 14.327 32 32 32s32-14.327 32-32zM640 288c0-17.673-14.327-32-32-32s-32 14.327-32 32c0 17.673 14.327 32 32 32s32-14.327 32-32zM64 32c0-17.673-14.327-32-32-32s-32 14.327-32 32c0 17.673 14.327 32 32 32s32-14.327 32-32zM256 32c0-17.673-14.327-32-32-32s-32 14.327-32 32c0 17.673 14.327 32 32 32s32-14.327 32-32zM448 32c0-17.673-14.327-32-32-32s-32 14.327-32 32c0 17.673 14.327 32 32 32s32-14.327 32-32zM640 32c0-17.673-14.327-32-32-32s-32 14.327-32 32c0 17.673 14.327 32 32 32s32-14.327 32-32zM544 160c0-17.673-14.327-32-32-32s-32 14.327-32 32c0 17.673 14.327 32 32 32s32-14.327 32-32zM352 160c0-17.673-14.327-32-32-32s-32 14.327-32 32c0 17.673 14.327 32 32 32s32-14.327 32-32zM160 160c0-17.673-14.327-32-32-32s-32 14.327-32 32c0 17.673 14.327 32 32 32s32-14.327 32-32z" />
<glyph unicode="&#xe635;" d="M32 576.016h383.84c0.064 0 0.096-0.016 0.16-0.016 88.224 0 160 71.776 160 160s-71.776 160-160 160-160-71.776-160-160c0-17.664 14.336-32 32-32s32 14.336 32 32c0 52.944 43.056 96 96 96s96-43.056 96-96c0-52.896-42.992-95.92-95.872-96-0.032 0-0.048 0-0.080 0h-384.048c-17.664 0-32-14.336-32-32s14.336-31.984 32-31.984zM1024 672c0 105.872-86.128 192-192 192s-192-86.128-192-192c0-17.664 14.336-32 32-32s32 14.336 32 32c0 70.576 57.424 128 128 128s128-57.424 128-128c0-70.544-57.376-127.936-127.904-128-0.032 0-0.064 0-0.096 0h-800c-17.664 0-32-14.336-32-32s14.336-32 32-32h738.816c-6.464-9.712-13.472-20.464-20.784-32.032h-718.032c-17.664 0-32-14.336-32-32s14.336-32 32-32h679.808c-37.536-67.088-71.808-143.568-71.808-199.248 0-101.84 86.128-184.72 192-184.72s192 82.88 192 184.72c0 89.184-87.792 231.616-136.352 303.568 78.8 23.92 136.352 97.2 136.352 183.712zM832 64c-70.576 0-128 54.16-128 120.72 0 67.552 77.568 196.816 128 271.52 50.432-74.704 128-203.968 128-271.52 0-66.56-57.424-120.72-128-120.72z" />
<glyph unicode="&#xe636;" d="M793.872 882.832c-8.4 11.536-23.392 16.16-36.816 11.232-8.992-3.264-18.336-6.768-28-10.4-35.968-13.504-77.152-28.816-121.056-39.28v35.616c0 44.112-35.888 80-80 80h-32c-44.112 0-80-35.888-80-80v-30.864c-31.136 10.144-61.072 23.424-89.136 35.856-21.088 9.344-40.992 18.176-59.92 25.072-13.408 4.832-28.432 0.272-36.816-11.232-36.288-49.84-38.128-171.056-38.128-194.848 0-29.664 2.752-130.24 38.128-178.816 8.4-11.52 23.408-16.096 36.816-11.232 8.944 3.264 18.24 6.752 27.84 10.352 36 13.52 77.248 28.864 121.216 39.312v-547.6c0-44.112 35.888-80 80-80h32c44.112 0 80 35.888 80 80v547.616c43.952-10.464 85.184-25.792 121.168-39.312 9.648-3.616 18.944-7.104 27.888-10.368 3.584-1.312 7.28-1.936 10.944-1.936 10.016 0 19.712 4.72 25.872 13.152 35.376 48.592 38.128 149.184 38.128 178.848s-2.752 130.24-38.128 178.832zM659.216 786.016c8.72-17.952 12.784-44 12.784-82.016s-4.064-64.064-12.784-82.016c-0.848-1.712-1.424-3.488-1.936-5.248-44.72 13.168-93.504 23.264-145.28 23.264-51.792 0-100.576-10.096-145.296-23.248-0.512 1.744-1.088 3.52-1.92 5.216-8.72 17.952-12.784 44-12.784 82.016s4.064 64.064 12.784 82.016c1.936 4 2.976 8.208 3.184 12.368 44-16.688 92.72-30.368 144.048-30.368 51.792 0 100.544 10.096 145.28 23.264 0.496-1.776 1.072-3.536 1.92-5.248zM480 880c0 8.672 7.328 16 16 16h32c8.672 0 16-7.328 16-16v-46.432c-10.592-0.976-21.248-1.568-31.984-1.568-10.752 0-21.408 0.992-32.016 2.352v45.648zM272.208 584.176c-0.16-0.064-0.32-0.128-0.464-0.176-9.616 28-15.744 72.8-15.744 119.984 0 46.448 5.84 102.192 16.064 135.152 9.248-3.936 18.88-8.208 28.8-12.608 3.744-1.648 7.712-3.392 11.568-5.088-2-2.224-3.84-4.64-5.216-7.472-13.104-26.976-19.216-61.92-19.216-109.984 0-46.528 5.776-80.688 18.048-107.296-11.648-4.24-23.040-8.448-33.84-12.512zM544 16c0-8.672-7.328-16-16-16h-32c-8.672 0-16 7.328-16 16v558.432c10.592 0.976 21.248 1.568 32 1.568s21.408-0.592 32-1.568v-558.432zM752.272 583.984c-0.208 0.080-0.384 0.16-0.576 0.224-10.784 4.048-22.144 8.256-33.744 12.464 12.272 26.624 18.048 60.784 18.048 107.328 0 46.528-5.776 80.688-18.064 107.312 11.568 4.208 22.88 8.384 33.632 12.416 0.24 0.096 0.464 0.192 0.704 0.272 9.6-28 15.728-72.816 15.728-120 0-47.2-6.128-92-15.728-120.016z" />
<glyph unicode="&#xe637;" d="M655.904 575.152c0.016 0.288 0.096 0.56 0.096 0.848v128c0 17.664-14.336 32-32 32h-74.4c13.216 37.232 48.704 64 90.4 64 17.664 0 32 14.336 32 32s-14.336 32-32 32c-77.264 0-141.904-55.056-156.768-128h-83.232c-17.664 0-32-14.336-32-32v-128c0-0.288 0.080-0.56 0.080-0.848-113.36-54.032-192.080-169.44-192.080-303.152 0-185.28 150.72-336 336-336s336 150.72 336 336c0 133.712-78.72 249.12-192.096 303.152zM432 672h160v-74.016c-25.68 6.304-52.384 10.016-80 10.016s-54.32-3.712-80-10.016v74.016zM512 0c-149.984 0-272 122.016-272 272s122.016 272 272 272 272-122.016 272-272-122.016-272-272-272zM512 96c-97.040 0-176 78.96-176 176 0 17.664-14.336 32-32 32s-32-14.336-32-32c0-132.336 107.664-240 240-240 17.664 0 32 14.336 32 32s-14.336 32-32 32zM704 832c0-17.664 14.336-32 32-32h48c17.664 0 32 14.336 32 32s-14.336 32-32 32h-48c-17.664 0-32-14.336-32-32zM704 864c8.192 0 16.368 3.12 22.624 9.376l32 32c12.496 12.496 12.496 32.752 0 45.248-12.48 12.496-32.768 12.496-45.248 0l-32-32c-12.496-12.496-12.496-32.752 0-45.248 6.256-6.256 14.432-9.376 22.624-9.376zM681.376 790.624c-12.496-12.496-12.496-32.752 0-45.248l32-32c6.256-6.256 14.432-9.376 22.624-9.376s16.368 3.12 22.624 9.376c12.496 12.496 12.496 32.752 0 45.248l-32 32c-12.48 12.496-32.768 12.496-45.248 0z" />
<glyph unicode="&#xe638;" d="M896 608h-352c-61.264 0-141.472-32.24-182.624-73.376-6.944-6.96-12.752-14.592-17.68-22.624h-14.816l-43.152 107.888c-4.88 12.144-16.624 20.112-29.728 20.112h-224c-10.624 0-20.544-5.264-26.496-14.064s-7.152-19.968-3.216-29.824l59.248-148.112-59.248-148.112c-3.936-9.856-2.736-21.024 3.216-29.824s15.872-14.064 26.496-14.064h224c13.088 0 24.848 7.968 29.712 20.112l43.168 107.888h14.816c4.928-8.032 10.736-15.664 17.68-22.624 41.152-41.136 121.36-73.376 182.624-73.376h352c70.576 0 128 57.424 128 128v64c0 70.576-57.424 128-128 128zM234.352 576l37.808-94.528c-0.032-0.496-0.16-0.976-0.16-1.472h-154.336l-38.384 96h155.072zM234.352 320h-155.072l38.384 96h154.336c0-0.496 0.128-0.976 0.16-1.472l-37.808-94.528zM406.64 406.624c-22.816 22.816-22.816 59.936 0 82.752 29.088 29.088 93.296 54.624 137.36 54.624h256v-192h-256c-44.064 0-108.272 25.536-137.36 54.624zM960 416c0-35.296-28.72-64-64-64h-32v192h32c35.28 0 64-28.704 64-64v-64z" />
<glyph unicode="&#xe639;" d="M864 616c-23.184 0-45.184-5.056-65.088-13.968-8.992 79.744-76.784 141.968-158.912 141.968-52.368 0-98.8-25.408-128-64.4-29.2 38.992-75.632 64.4-128 64.4-82.128 0-149.92-62.224-158.912-141.968-19.904 8.912-41.904 13.968-65.088 13.968-88.224 0-160-71.776-160-160s71.776-160 160-160c38.432 0 73.744 13.648 101.376 36.32 18.128-10.224 32.128-26.192 37.28-43.712 5.024-17.088 1.664-35.28-9.68-54.224-19.936 3.664-39.008 7.776-56.688 12.528-16.992 4.592-34.592-5.536-39.184-22.624-4.576-17.056 5.552-34.608 22.624-39.184 75.024-20.128 171.696-30.912 270.144-32.528 3.392-0.176 6.624-0.576 10.128-0.576 1.296 0 2.528 0.24 3.792 0.368 4.064-0.032 8.128-0.16 12.208-0.16 4.064 0 8.128 0.128 12.208 0.16 1.264-0.128 2.496-0.368 3.792-0.368 5.744 0 11.28 0.256 16.72 0.64 96.128 2.016 190.208 12.784 263.568 32.448 17.072 4.576 27.2 22.128 22.624 39.184-4.56 17.088-22.16 27.168-39.184 22.624-17.68-4.752-36.752-8.88-56.688-12.528-11.36 18.944-14.72 37.12-9.68 54.224 5.152 17.536 19.152 33.504 37.28 43.712 27.616-22.656 62.928-36.304 101.36-36.304 88.224 0 160 71.776 160 160s-71.776 160-160 160zM493.904 216.128c-98.112 1.264-142.336 89.040-142.336 151.584 0 18.464 3.808 34.304 10.736 44.576 5.488 8.080 12.16 11.712 21.696 11.712 0.496 0 0.976 0.064 1.472 0.080v-0.048c1.824 0.096 4.816 0.256 8.528 0.464 2.608 0.176 5.216 0.272 7.792 0.544 25.072 1.888 69.36 6.768 92.512 18.336 7.024 3.52 14.256 7.12 17.68 8.352 3.44-1.232 10.656-4.848 17.68-8.352 23.472-11.712 67.84-16.528 92.832-18.368 2.144-0.224 4.304-0.304 6.464-0.432 4.224-0.288 7.616-0.432 9.616-0.528v0.032c0.48-0.016 0.96-0.080 1.424-0.080 30.864 0 32.416-46.912 32.416-56.304 0-35.424-13.648-73.36-36.464-101.456-18.384-22.656-51.76-49.504-106.080-50.128-12-0.144-23.968-0.144-35.968 0.016zM640 680c52.944 0 96-43.056 96-96 0-52.784-42.816-95.712-95.552-95.968-3.76 0.16-7.664 0.384-11.648 0.688-47.68 5.568-84.8 46.144-84.8 95.28 0 52.944 43.056 96 96 96zM384 680c52.944 0 96-43.056 96-96 0-48.992-36.912-89.456-84.368-95.216-4.16-0.32-8.224-0.56-12.144-0.752-52.704 0.288-95.488 43.2-95.488 95.968 0 52.944 43.056 96 96 96zM64 456c0 52.944 43.056 96 96 96s96-43.056 96-96-43.056-96-96-96-96 43.056-96 96zM864 360c-52.944 0-96 43.056-96 96s43.056 96 96 96 96-43.056 96-96-43.056-96-96-96z" />
<glyph unicode="&#xe63a;" d="M704 608c0 87.696-14.4 169.632-40.592 230.672-42.992 100.288-106.064 121.328-151.408 121.328-88.576 0-192-92.192-192-352 0 0 0 0 0 0v0-544c0-17.68 14.336-32 32-32v-32c-17.664 0-32-14.336-32-32s14.336-32 32-32h320c17.664 0 32 14.336 32 32s-14.336 32-32 32v32c17.664 0 32 14.32 32 32v544c0 0 0 0 0 0zM639.92 96h-255.84c-0.032 0-0.064 0-0.080 0v480h256v-480c-0.032 0-0.048 0-0.080 0zM512 896c37.952 0 69.104-27.76 92.592-82.544 19.408-45.264 31.632-107.2 34.624-173.456h-254.4c6.048 131.92 49.424 256 127.184 256zM608 0h-192v32h192v-32z" />
<glyph unicode="&#xe63b;" d="M992 304h-68.72c-10.784 36.048-39.216 64.496-75.28 75.28v116.72c0 11.664-6.352 22.432-16.592 28.048-10.256 5.648-22.752 5.216-32.592-1.040l-252.128-160.448-364.064 364.064c-12.48 12.496-32.752 12.496-45.248 0-54-54-55.792-122-4.576-173.248 23.744-23.744 55.328-36.832 88.912-36.832 22.624 0 44.272 6.064 63.296 17.2l206.384-206.384-36.72-23.36h-139.392c-13.808 46.208-56.656 80-107.28 80s-93.472-33.792-107.28-80h-68.72c-17.664 0-32-14.336-32-32s14.336-32 32-32h68.72c13.808-46.208 56.656-80 107.28-80s93.472 33.792 107.28 80h393.44c13.808-46.208 56.656-80 107.28-80s93.472 33.792 107.28 80h68.72c17.664 0 32 14.336 32 32s-14.336 32-32 32zM178.064 598.624c-20.16 20.16-21.136 39.632-14.192 56.256l72.576-72.576c-20.4-4.928-43.168 1.12-58.384 16.32zM784 437.696v-58.416c-36.064-10.784-64.496-39.232-75.28-75.28h-103.472l-12.192 12.192 190.944 121.504zM208 224c-26.464 0-48 21.536-48 48s21.536 48 48 48 48-21.536 48-48-21.536-48-48-48zM816 224c-26.464 0-48 21.536-48 48s21.536 48 48 48 48-21.536 48-48-21.536-48-48-48z" />
<glyph unicode="&#xe63c;" d="M768 528h-36.224c-3.024 11.696-7.632 22.736-13.648 32.896l24.48 24.48c12.496 12.496 12.496 32.752 0 45.248-12.48 12.496-32.768 12.496-45.248 0l-24.48-24.48c-9.312 5.504-19.344 9.872-29.968 12.896 6.352 30.384 23.12 57.312 47.696 74.928 36.048 25.776 77.392 64.784 77.392 138.032 0 70.576-57.408 128-127.968 128-70.048 0-127.136-56.56-128-126.4-0.016-0.56-0.032-1.088-0.032-1.632 0-35.296-28.704-64-64-64h-48c-59.504 0-109.504-40.88-123.776-95.968h-20.224c-17.664 0-32-14.336-32-32v-624c0-2.224 0.224-4.368 0.656-6.448 3.344-41.056 37.44-73.552 79.344-73.552s76 32.496 79.344 73.552c0.432 2.080 0.656 4.224 0.656 6.448v624c0 17.664-14.336 32-32 32h-7.072c11.104 19.008 31.504 31.968 55.072 31.968h48c70.048 0 127.136 56.56 128 126.4 0.016 0.56 0.032 1.088 0.032 1.632 0 35.296 28.688 64 63.968 64s64-28.72 64-64.032c0-36.256-13.712-59.552-50.624-85.984-40.912-29.28-67.664-74.96-75.056-125.616-12.56-3.008-24.368-7.824-35.2-14.24l-24.48 24.48c-12.48 12.496-32.768 12.496-45.248 0-12.496-12.496-12.496-32.752 0-45.248l24.48-24.48c-6-10.16-10.624-21.184-13.648-32.896h-36.224c-17.664 0-32-14.336-32-32s14.336-32 32-32h36.208c3.024-11.696 7.648-22.736 13.648-32.896l-24.48-24.48c-12.496-12.496-12.496-32.752 0-45.248 6.24-6.24 14.432-9.36 22.624-9.36s16.384 3.12 22.624 9.376l24.48 24.48c10.16-6 21.2-10.624 32.896-13.648v-36.208c0-17.664 14.336-32 32-32s32 14.336 32 32v36.224c11.68 3.008 22.736 7.648 32.896 13.648l24.48-24.48c6.256-6.272 14.432-9.392 22.624-9.392s16.368 3.12 22.624 9.376c12.496 12.496 12.496 32.752 0 45.248l-24.48 24.48c6.016 10.16 10.608 21.184 13.648 32.896h36.208c17.664 0 32 14.336 32 32s-14.336 32-32 32zM288 512h32v-384h-32v384zM288 576v32h15.68c0.112 0 0.208-0.032 0.32-0.032s0.208 0.032 0.32 0.032h15.68v-32h-32zM304 0c-8.816 0-16 7.168-16 16v48h32v-48c0-8.832-7.184-16-16-16zM608 432c-35.28 0-64 28.704-64 64 0 35.248 28.624 63.904 63.84 63.984 0.064 0 0.096-0.016 0.16-0.016s0.096 0.016 0.16 0.016c35.216-0.080 63.84-28.736 63.84-63.984 0-35.296-28.72-64-64-64z" />
<glyph unicode="&#xe63d;" d="M736 864c0 17.664-14.336 32-32 32h-101.6c-13.216 37.216-48.704 64-90.4 64s-77.184-26.784-90.4-64h-101.6c-17.664 0-32-14.336-32-32 0-78.96 26.224-191.648 96-218.208v-581.808c0-70.576 57.424-127.984 128-127.984 70.56 0 128 57.408 128 127.984v581.808c69.776 26.56 96 139.248 96 218.208zM448 512h128v-384h-128v384zM576 576h-128v64h128v-64zM512 0c-35.296 0-64 28.72-64 64h128c0-35.28-28.72-64-64-64zM608 704h-192c-33.6 0-56.208 66.928-62.336 128h316.656c-6.096-61.072-28.72-128-62.32-128zM512 480c-17.664 0-32-14.336-32-32v-64c0-17.664 14.336-32 32-32s32 14.336 32 32v64c0 17.664-14.336 32-32 32z" />
<glyph unicode="&#xe63e;" d="M656 720c-61.744 0-112-50.256-112-112s50.256-112 112-112 112 50.256 112 112-50.256 112-112 112zM656 560c-26.464 0-48 21.536-48 48s21.536 48 48 48 48-21.536 48-48-21.536-48-48-48zM368 720c-61.744 0-112-50.256-112-112s50.256-112 112-112 112 50.256 112 112-50.256 112-112 112zM368 560c-26.464 0-48 21.536-48 48s21.536 48 48 48 48-21.536 48-48-21.536-48-48-48zM544 64c0-17.673-14.327-32-32-32s-32 14.327-32 32c0 17.673 14.327 32 32 32s32-14.327 32-32zM544 288c0-17.673-14.327-32-32-32s-32 14.327-32 32c0 17.673 14.327 32 32 32s32-14.327 32-32zM432 176c0-17.673-14.327-32-32-32s-32 14.327-32 32c0 17.673 14.327 32 32 32s32-14.327 32-32zM656 176c0-17.673-14.327-32-32-32s-32 14.327-32 32c0 17.673 14.327 32 32 32s32-14.327 32-32zM464.8 96.8c0-17.673-14.327-32-32-32s-32 14.327-32 32c0 17.673 14.327 32 32 32s32-14.327 32-32zM623.2 255.2c0-17.673-14.327-32-32-32s-32 14.327-32 32c0 17.673 14.327 32 32 32s32-14.327 32-32zM464.8 255.2c0-17.673-14.327-32-32-32s-32 14.327-32 32c0 17.673 14.327 32 32 32s32-14.327 32-32zM623.2 96.8c0-17.673-14.327-32-32-32s-32 14.327-32 32c0 17.673 14.327 32 32 32s32-14.327 32-32zM960 688h-68c-23.28 153.696-155.904 272-316 272h-128c-160.096 0-292.72-118.304-316-272h-68c-17.664 0-32-14.336-32-32v-96c0-17.664 14.336-32 32-32h64.032v-192c0-89.776 62.032-165.072 145.44-185.936 12.96-120.176 114.96-214.064 238.528-214.064s225.552 93.872 238.528 214.048c83.44 20.848 145.504 96.16 145.504 185.952v192h63.968c17.664 0 32 14.336 32 32v96c0 17.664-14.336 32-32 32zM128 592h-32v32h32v-32zM512 0c-97.040 0-176 78.96-176 176s78.96 176 176 176 176-78.96 176-176-78.96-176-176-176zM748.368 216.048c-19.152 113.296-117.712 199.952-236.368 199.952s-217.216-86.64-236.368-199.936c-48.736 18.112-83.6 64.992-83.6 119.936v304c0 0.064-0.032 0.144-0.032 0.208 0.128 141.056 114.928 255.792 256.032 255.792h127.968c141.152 0 256-114.848 256-256v-80c0-0.112 0.032-0.208 0.032-0.32v-223.68c0-54.992-34.896-101.856-83.664-119.952zM928 592h-31.968v32h31.968v-32z" />
<glyph unicode="&#xe63f;" d="M688 535.936v248.064c0 17.664-14.336 32-32 32h-176c0 79.408-64.608 144-144 144s-144-64.592-144-144 64.608-144 144-144v-38.32l-186.624-279.936c-3.504-5.248-5.376-11.424-5.376-17.744v-256c0-17.664 14.336-32 32-32h32c17.664 0 32 14.336 32 32s-14.336 32-32 32v214.32l177.12 265.68h46.88v-63.648c-104-50.656-176-157.12-176-280.352 0-172.032 139.968-312 312-312s312 139.968 312 312c0 129.52-79.376 240.816-192 287.936zM624 752v-96h-224v96h224zM256 816c0 44.112 35.888 80 80 80s80-35.888 80-80h-48c-17.664 0-32-14.336-32-32v-48c-44.112 0-80 35.888-80 80zM496 592h128v-37.312c-18.208 3.312-36.864 5.312-56 5.312-24.816 0-48.848-3.216-72-8.72v40.72zM568 0c-136.752 0-248 111.248-248 248s111.248 248 248 248 248-111.248 248-248-111.248-248-248-248z" />
<glyph unicode="&#xe640;" d="M992 728c-35.28 0-64 28.704-64 64 0 17.664-14.336 32-32 32h-736v16c0 17.664-14.336 32-32 32s-32-14.336-32-32v-16h-32c-35.296 0-64-28.704-64-64v-128c0-23.584 12.96-44 32-55.088v-40.912c0-52.944 43.056-96 96-96h224c0-105.872 86.128-192 192-192h98.096l20.544-133.632c7.792-50.672 54.080-90.368 105.36-90.368h160c26.128 0 50.4 10.848 66.624 29.744s23.248 44.56 19.264 70.368l-53.824 349.904c1.056 16.72 14.96 29.984 31.936 29.984 17.664 0 32 14.336 32 32v160c0 17.664-14.336 32-32 32zM64 760h804.064c11.6-44.912 47.024-80.336 91.936-91.952v-36.048h-896v128zM544 312c-70.576 0-128 57.424-128 128h144c0-17.664-14.336-32-32-32s-32-14.336-32-32 14.336-32 32-32c40.88 0 75.776 25.728 89.6 61.808 0.16-0.656 0.4-1.28 0.512-1.936l14.144-91.872h-88.256zM896.368 467.136l54.272-352.752c1.136-7.44-0.48-14.176-4.576-18.96-4.112-4.8-10.528-7.424-18.064-7.424h-160c-19.472 0-39.136 16.88-42.112 36.128l-44.528 289.504c-7.792 50.672-54.080 90.368-105.36 90.368h-448c-17.648 0-32 14.352-32 32v32h864v-5.488c-37.248-13.2-64-48.8-64-90.512 0-1.632 0.128-3.264 0.368-4.864zM806.624 734.624c-12.48 12.496-32.768 12.496-45.248 0-12.496-12.496-12.496-32.752 0-45.248l32-32c6.256-6.256 14.432-9.376 22.624-9.376s16.368 3.12 22.624 9.376c12.496 12.496 12.496 32.752 0 45.248l-32 32zM694.624 734.624c-12.48 12.496-32.768 12.496-45.248 0-12.496-12.496-12.496-32.752 0-45.248l32-32c6.256-6.256 14.432-9.376 22.624-9.376s16.368 3.12 22.624 9.376c12.496 12.496 12.496 32.752 0 45.248l-32 32zM582.624 734.624c-12.48 12.496-32.768 12.496-45.248 0-12.496-12.496-12.496-32.752 0-45.248l32-32c6.256-6.256 14.432-9.376 22.624-9.376s16.368 3.12 22.624 9.376c12.496 12.496 12.496 32.752 0 45.248l-32 32zM832 504h-96c-9.36 0-18.256-4.096-24.336-11.216s-8.736-16.544-7.28-25.776l48-304c2.464-15.552 15.872-27.008 31.616-27.008h96c9.36 0 18.256 4.096 24.336 11.216 6.080 7.104 8.736 16.528 7.28 25.776l-48 304c-2.464 15.552-15.872 27.008-31.616 27.008zM811.344 200l-37.904 240h31.216l37.904-240h-31.216z" />
<glyph unicode="&#xe641;" d="M992 560h-32v64c0 17.664-14.336 32-32 32s-32-14.336-32-32v-64h-96v32c0 17.664-14.336 32-32 32h-736c-17.664 0-32-14.336-32-32v-192c0-9.84 4.544-19.152 12.304-25.216 5.696-4.448 12.64-6.784 19.696-6.784 2.592 0 5.2 0.32 7.76 0.96l216.688 54.176c4.496-48.8 45.6-87.136 95.552-87.136 17.664 0 32 14.336 32 32s-14.336 32-32 32c-17.648 0-32 14.336-32 32h192.528c2.224-65.936 13.136-134.56 55.792-181.52 6.048-6.672 14.672-10.48 23.68-10.48h112c12.656 0 24.144 7.472 29.264 19.040s2.944 25.104-5.584 34.464c-30.32 33.392-48.976 81.856-54.080 138.496h94.4c17.664 0 32 14.336 32 32v32h192c17.664 0 32 14.336 32 32s-14.336 32-32 32zM64 560h192v-71.008l-192-48v119.008zM643.568 304h-36.224c-18.752 26.944-28.336 67.072-30.704 128h32.704c3.648-47.472 15.248-91.040 34.224-128zM736 496h-416v64h416v-64z" />
<glyph unicode="&#xe642;" d="M854.624 854.624l-64 64c-6 6-14.144 9.376-22.624 9.376h-128c0 17.664-14.336 32-32 32h-192c-17.664 0-32-14.336-32-32h-128c-8.48 0-16.624-3.376-22.624-9.376l-64-64c-6-6-9.376-14.144-9.376-22.624v-192c0-8.48 3.376-16.624 9.376-22.624l64-64c6-6 14.144-9.376 22.624-9.376h128v-159.808c0-0.016 0-0.032 0-0.032v-32.32c0 0 0-0.016 0-0.032v-287.632c0-0.016 0-0.032 0-0.032v-96.144c0-17.664 14.336-32 32-32h192c17.664 0 32 14.336 32 32v223.808c0 0.016 0 0.032 0 0.032v32.32c0 0 0 0.016 0 0.032v287.616c0 0.016 0 0.032 0 0.032v32.16h128c8.48 0 16.624 3.376 22.624 9.376l64 64c6 6 9.376 14.144 9.376 22.624v192c0 8.48-3.376 16.624-9.376 22.624zM672 864v-256h-320v256h320zM448 292.224l126.32-84.224-126.32-84.224v168.448zM576 283.776l-126.32 84.224 126.32 84.224v-168.448zM224 653.248v165.504l45.248 45.248h18.752v-256h-18.752l-45.248 45.248zM576 544v-14.88l-128-85.344v100.224h128zM448 0v46.88l128 85.344v-132.224h-128zM800 653.248l-45.248-45.248h-18.752v256h18.752l45.248-45.248v-165.504z" />
<glyph unicode="&#xe643;" d="M640 0h-32v320h32c17.664 0 32 14.336 32 32s-14.336 32-32 32h-0.336c-3.376 195.808-37.344 441.904-99.376 558.992-5.568 10.464-16.432 17.008-28.288 17.008s-22.72-6.544-28.272-17.008c-62.048-117.088-96.016-363.184-99.392-558.992h-0.336c-17.664 0-32-14.336-32-32s14.336-32 32-32h32v-320h-32c-17.664 0-32-14.336-32-32s14.336-32 32-32h256c17.664 0 32 14.336 32 32s-14.336 32-32 32zM544 192h-64v32h64v-32zM480 128h64v-32h-64v32zM512 842.576c35.664-112.208 60.848-289.104 63.712-458.576h-31.712v80c0 17.664-14.336 32-32 32s-32-14.336-32-32v-80h-31.712c2.864 169.472 28.048 346.368 63.712 458.576zM544 320v-32h-64v32h64zM480 0v32h64v-32h-64z" />
<glyph unicode="&#xe644;" d="M640 0h-32v320h32c17.664 0 32 14.336 32 32s-14.336 32-32 32h-32v384c0 88.784-69.888 192-160 192-17.664 0-32-14.336-32-32v-544h-32c-17.664 0-32-14.336-32-32s14.336-32 32-32h32v-320h-32c-17.664 0-32-14.336-32-32s14.336-32 32-32h256c17.664 0 32 14.336 32 32s-14.336 32-32 32zM544 192h-64v32h64v-32zM480 128h64v-32h-64v32zM544 768v-384h-64v502.32c35.808-21.504 64-74.832 64-118.32zM544 320v-32h-64v32h64zM480 0v32h64v-32h-64z" />
<glyph unicode="&#xe645;" d="M544 815.984c0-17.673-14.327-32-32-32s-32 14.327-32 32c0 17.673 14.327 32 32 32s32-14.327 32-32zM544 655.984c0-17.673-14.327-32-32-32s-32 14.327-32 32c0 17.673 14.327 32 32 32s32-14.327 32-32zM464 735.984c0-17.673-14.327-32-32-32s-32 14.327-32 32c0 17.673 14.327 32 32 32s32-14.327 32-32zM624 735.984c0-17.673-14.327-32-32-32s-32 14.327-32 32c0 17.673 14.327 32 32 32s32-14.327 32-32zM727.728 757.44l-26.432 29.248 8.304 38.56c3.456 16.080-5.824 32.16-21.488 37.184l-37.552 12.096-12.112 37.568c-5.024 15.632-21.088 24.912-37.168 21.472l-38.544-8.288-29.28 26.432c-12.176 11.024-30.736 11.024-42.912 0l-29.264-26.432-38.56 8.288c-16.064 3.456-32.128-5.856-37.168-21.472l-12.112-37.568-37.552-12.096c-15.648-5.024-24.928-21.12-21.472-37.184l8.304-38.56-26.448-29.232c-11.008-12.192-11.008-30.752 0-42.944l26.448-29.232-8.304-38.56c-3.456-16.064 5.824-32.16 21.472-37.184l37.552-12.096 12.112-37.568c5.040-15.664 21.216-24.944 37.184-21.456l9.264 2v-348.432c-17.664 0-32-14.336-32-32s14.336-32 32-32v-112c0-2.224 0.24-4.368 0.656-6.448 3.36-41.040 37.456-73.552 79.344-73.552 41.904 0 76 32.496 79.344 73.552 0.432 2.080 0.656 4.224 0.656 6.448v112c17.664 0 32 14.336 32 32s-14.336 32-32 32v348.432l9.264-2c16.096-3.472 32.16 5.792 37.184 21.456l12.112 37.568 37.552 12.096c15.664 5.024 24.944 21.104 21.488 37.184l-8.304 38.56 26.432 29.248c11.040 12.192 11.040 30.72 0 42.912zM528 15.984c0-8.832-7.168-16-16-16-8.816 0-16 7.168-16 16v112h32v-112zM496 191.984v324.352c4.96-2.864 10.464-4.336 16-4.336 5.552 0 11.056 1.488 16 4.336v-324.336h-32zM642.832 716.032c-6.912-7.632-9.696-18.128-7.552-28.192l5.664-26.288-25.616-8.256c-9.792-3.152-17.488-10.848-20.64-20.624l-8.256-25.616-26.288 5.664c-10.048 2.176-20.56-0.624-28.208-7.552l-19.936-18.032-19.952 18.048c-5.936 5.376-13.616 8.272-21.472 8.272-2.24 0-4.496-0.24-6.736-0.72l-26.272-5.664-8.272 25.616c-3.152 9.776-10.848 17.472-20.64 20.624l-25.6 8.256 5.664 26.288c2.176 10.064-0.64 20.56-7.552 28.208l-18.032 19.936 18.032 19.936c6.912 7.648 9.712 18.144 7.552 28.208l-5.648 26.256 25.6 8.256c9.792 3.152 17.488 10.848 20.64 20.624l8.272 25.632 26.288-5.664c10.096-2.176 20.544 0.656 28.176 7.568l19.952 18.032 19.968-18.032c7.648-6.912 18.096-9.728 28.176-7.568l26.288 5.664 8.272-25.632c3.152-9.776 10.848-17.472 20.64-20.624l25.616-8.256-5.664-26.288c-2.16-10.064 0.64-20.56 7.552-28.192l18.032-19.952-18.048-19.936z" />
<glyph unicode="&#xe646;" d="M671.488 229.728c-2.736 60.080-16.64 133.68-43.616 172.512-19.872 28.656-19.872 122.448-19.872 157.76v112c0 17.664-14.336 32-32 32h-128c-17.664 0-32-14.336-32-32v-112c0-35.312 0-129.104-19.872-157.744-26.976-38.832-40.88-112.432-43.616-172.512-0.336-1.872-0.512-3.792-0.512-5.744v-256c0-17.664 14.336-32 32-32h256c17.664 0 32 14.336 32 32v256c0 1.952-0.176 3.872-0.512 5.728zM544 640v-32h-64v32h64zM608 0h-192v208c0 61.008 14.656 131.776 32.688 157.744 24.384 35.152 30.496 96.832 31.168 178.256h64.288c0.672-81.424 6.784-143.104 31.168-178.256 18.032-25.968 32.688-96.736 32.688-157.744v-208zM512 736c44.096 0 79.984 35.888 79.984 80 0 47.296-44.448 116.368-53.36 129.744-5.936 8.912-15.92 14.256-26.624 14.256v0c-10.688 0-20.688-5.344-26.624-14.256-8.912-13.36-53.392-82.448-53.392-129.744 0-44.112 35.888-80 80.016-80zM512 863.52c9.056-18.56 15.984-36.736 15.984-47.52 0-8.832-7.168-16-15.984-16-8.832 0-16.016 7.168-16.016 16 0 10.752 6.944 28.928 16.016 47.52zM566.624 182.624c-12.48 12.496-32.768 12.496-45.248 0l-9.376-9.376-9.376 9.376c-12.48 12.496-32.768 12.496-45.248 0-12.496-12.496-12.496-32.752 0-45.248l9.376-9.376-9.376-9.376c-12.496-12.496-12.496-32.752 0-45.248 6.256-6.256 14.432-9.376 22.624-9.376s16.368 3.12 22.624 9.376l9.376 9.376 9.376-9.376c6.256-6.256 14.432-9.376 22.624-9.376s16.368 3.12 22.624 9.376c12.496 12.496 12.496 32.752 0 45.248l-9.376 9.376 9.376 9.376c12.496 12.496 12.496 32.752 0 45.248z" />
<glyph unicode="&#xe647;" d="M597.44 358.992c-11.088 15.136-23.344 31.936-33.376 47.264l26.256 13.12c15.808 7.904 22.224 27.12 14.32 42.944-4.624 9.232-13.104 15.12-22.496 16.976l8.192 4.096c15.808 7.904 22.224 27.12 14.32 42.944-4.608 9.216-13.104 15.12-22.48 16.976l8.176 4.096c15.808 7.904 22.224 27.12 14.32 42.944-4.624 9.232-13.104 15.12-22.496 16.976l8.192 4.096c15.808 7.904 22.224 27.12 14.32 42.944s-27.152 22.24-42.944 14.32l-17.744-8.912v268.224c0 17.664-14.336 32-32 32s-32-14.336-32-32v-300.224l-46.32-23.152c-15.808-7.904-22.208-27.12-14.32-42.944 4.64-9.28 13.232-15.056 22.688-16.88l-8.384-4.192c-15.808-7.904-22.208-27.12-14.32-42.944 4.64-9.28 13.232-15.056 22.688-16.88l-8.384-4.192c-15.808-7.904-22.208-27.12-14.32-42.944 4.64-9.28 13.232-15.056 22.688-16.88l-8.384-4.192c-15.808-7.904-22.208-27.12-14.32-42.944 1.968-3.92 4.784-7.024 7.92-9.712-0.24-0.32-0.496-0.656-0.72-0.992-47.424-64.784-106.512-145.488-106.512-230.928 0-122.016 69.984-192 192-192s192 69.984 192 192c0 85.44-59.088 166.144-106.56 230.992zM512 0c-87.328 0-128 40.672-128 128 0 64.512 52.24 135.856 94.208 193.168 12.416 16.976 23.968 32.72 33.792 47.584 9.84-14.864 21.376-30.608 33.792-47.584 41.968-57.312 94.208-128.656 94.208-193.168 0-87.328-40.672-128-128-128z" />
</font>
</defs>
</svg>
