<?xml version="1.0" standalone="no"?>
<!DOCTYPE svg PUBLIC "-//W3C//DTD SVG 1.1//EN" "http://www.w3.org/Graphics/SVG/1.1/DTD/svg11.dtd" >
<svg xmlns="http://www.w3.org/2000/svg">
<metadata>
This is a custom SVG webfont generated by Font Squirrel.
Copyright   : Copyright c 2011 by Slava Kirilenko All rights reserved
Designer    : Slava Kirilenko
Foundry     : Slava Kirilenko
Foundry URL : httpwwwbehancenetastronautdesign
</metadata>
<defs>
<font id="ArchiveRegular" horiz-adv-x="1341" >
<font-face units-per-em="2048" ascent="1536" descent="-512" />
<missing-glyph horiz-adv-x="555" />
<glyph unicode=" "  horiz-adv-x="555" />
<glyph unicode="&#x09;" horiz-adv-x="555" />
<glyph unicode="&#xa0;" horiz-adv-x="555" />
<glyph unicode="!" horiz-adv-x="659" d="M141 1305q0 25 13.5 34t46.5 9h274q35 0 48.5 -8.5t13.5 -34.5q0 -2 -5 -37q-27 -248 -86 -785q-4 -41 -13 -50t-44 -9h-100q-37 0 -46.5 10t-13.5 49q-57 543 -84 787q-4 33 -4 35zM166 59v228q0 59 59 59h228q59 0 59 -59v-228q0 -59 -59 -59h-228q-59 0 -59 59z" />
<glyph unicode="&#x22;" horiz-adv-x="907" d="M117 825v463q0 59 59 60h141q59 0 60 -60v-463q0 -59 -60 -59h-141q-59 0 -59 59zM530 825v463q0 59 58 60h143q57 0 57 -60v-463q0 -59 -57 -59h-143q-58 0 -58 59z" />
<glyph unicode="#" horiz-adv-x="1347" d="M102 416l17 116q6 49 51 50h119l24 184h-118q-45 0 -37 57l16 117q6 49 51 49h119l45 303q6 55 62 56h149q47 0 43 -66l-45 -293h242l45 303q6 55 59 56h152q51 0 41 -66l-45 -293h118q20 0 30.5 -8t9.5 -20.5t-3 -26.5l-14 -119q-8 -49 -53 -49h-119l-12 -92l-13 -92 h119q20 0 30.5 -8.5t9.5 -20.5t-3 -27l-14 -118q-8 -49 -54 -50h-118l-45 -301q-6 -57 -62 -57h-149q-51 0 -41 66l45 292h-242l-45 -301q-6 -57 -61 -57h-150q-47 0 -43 66l45 292h-119q-45 1 -37 58zM543 582h241l23 184h-240z" />
<glyph unicode="$" horiz-adv-x="1239" d="M76 401q0 35 12 46.5t47 11.5h199q39 0 55.5 -10.5t18.5 -47.5q4 -43 38 -84q57 -68 201 -67q94 0 147.5 29.5t53.5 109.5q0 33 -18.5 56.5t-57.5 39t-78 24.5t-100.5 24.5t-101.5 27.5q-92 29 -151.5 56.5t-122 73.5t-93.5 114.5t-31 163.5q0 164 109.5 264t281.5 131 v158q0 59 60 59h160q59 0 59 -59v-164q162 -33 267.5 -127t105.5 -244q0 -37 -11.5 -47t-48.5 -10h-200q-6 0 -12.5 1t-11.5 3t-9 6t-6 7t-5.5 9.5t-4.5 9.5t-4 10t-3 9q-12 33 -43 62q-57 55 -174 55q-66 0 -123 -29t-57 -90q0 -55 69.5 -95t188.5 -73t125 -35 q68 -20 97.5 -30.5t92 -43t92 -67.5t56 -98.5t26.5 -143.5q0 -178 -109.5 -285.5t-297.5 -134.5v-155q0 -59 -59 -60h-160q-59 0 -60 60v160q-174 37 -291.5 145t-117.5 274z" />
<glyph unicode="%" horiz-adv-x="1822" d="M113 942v180q0 121 87 197t209.5 76t210 -76t87.5 -197v-180q0 -119 -87.5 -194.5t-210 -75.5t-209.5 75.5t-87 194.5zM330 948q0 -35 22.5 -62.5t57.5 -27.5q33 0 55 27.5t22 62.5v168q0 35 -22.5 62.5t-54.5 27.5q-35 0 -57.5 -27.5t-22.5 -62.5v-168zM436 17.5 q-8 17.5 2 35.5l721 1315q29 61 74 62h119q27 0 35 -17.5t-3 -36.5l-718 -1315q-33 -61 -76 -61h-119q-27 0 -35 17.5zM1116 305v180q0 119 87 195t210 76t210 -76t87 -195v-180q0 -121 -87 -196.5t-210 -75.5t-210 75.5t-87 196.5zM1335 311q0 -35 22.5 -62.5t55.5 -27.5 q35 0 57.5 27.5t22.5 62.5v168q0 35 -22.5 62.5t-57.5 27.5q-33 0 -55.5 -27.5t-22.5 -62.5v-168z" />
<glyph unicode="&#x26;" horiz-adv-x="1476" d="M100 414q0 145 95.5 245.5t216.5 128.5l-265 283q-14 18 -14 41v176q0 59 60 60h63h719q59 0 59 -60v-166q0 -59 -59 -59h-424l418 -455q16 29 33.5 55.5t31 45t15.5 22.5q23 35 59 35h227q55 0 29 -57l-188 -324l288 -317q18 -20 7 -44t-39 -24h-228q-43 0 -88 41 l-104 100q-160 -168 -406 -172q-225 0 -365.5 120t-140.5 325zM406 412q0 -76 59 -118t135 -42q51 0 114.5 25.5t102.5 74.5l-207 223q-204 -5 -204 -163z" />
<glyph unicode="'" horiz-adv-x="493" d="M117 825v463q0 59 57 60h143q57 0 58 -60v-463q0 -59 -58 -59h-143q-57 0 -57 59z" />
<glyph unicode="(" horiz-adv-x="731" d="M135 535q0 420 182 804q18 41 56 41h219q23 0 30 -17t-1 -34q-176 -373 -179 -794q2 -420 179 -793q8 -16 0.5 -33.5t-29.5 -17.5h-219q-37 0 -56 41q-182 385 -182 803z" />
<glyph unicode=")" horiz-adv-x="731" d="M109.5 -291.5q-7.5 17.5 1.5 33.5q176 373 178 793q-2 422 -178 794q-8 16 -1 33.5t29 17.5h219q37 0 56 -41q182 -385 182 -804q0 -418 -182 -803q-18 -41 -56 -41h-219q-22 0 -29.5 17.5z" />
<glyph unicode="*" horiz-adv-x="1005" d="M104 1028l27 86q18 55 76 39l194 -74l-10 209q0 59 60 60h90q59 0 59 -60l-8 -209l194 74q57 16 76 -39l27 -86q18 -57 -37 -74l-201 -55l129 -164q37 -47 -12 -82l-74 -53q-47 -35 -84 12l-114 174l-115 -174q-35 -47 -82 -12l-74 53q-49 35 -12 82l129 164l-201 55 q-55 17 -37 74z" />
<glyph unicode="+" horiz-adv-x="1138" d="M100 565v160q0 59 60 59h276v275q0 59 60 59h159q59 0 60 -59v-275h274q59 0 60 -59v-160q0 -59 -60 -59h-274v-275q0 -59 -60 -59h-159q-59 0 -60 59v275h-276q-60 0 -60 59z" />
<glyph unicode="," horiz-adv-x="616" d="M135 59v228q0 59 60 59h227q59 0 59 -59v-185q0 -57 -14 -96l-117 -237q-23 -37 -55 -37h-131q-20 0 -25.5 18.5t4.5 38.5l113 211h-61q-60 0 -60 59z" />
<glyph unicode="-" horiz-adv-x="888" d="M106 467v160q0 59 60 59h557q59 0 59 -59v-160q0 -59 -59 -59h-557q-60 0 -60 59z" />
<glyph unicode="." horiz-adv-x="579" d="M117 59v228q0 59 59 59h227q59 0 60 -59v-228q0 -59 -60 -59h-227q-59 0 -59 59z" />
<glyph unicode="/" horiz-adv-x="821" d="M27 57l491 1307q23 55 64 55h174q35 0 44 -18.5t3 -38.5l-490 -1307q-23 -55 -63 -55h-176q-35 0 -44 18.5t-3 38.5z" />
<glyph unicode="0" horiz-adv-x="1226" d="M102 434v479q0 117 47.5 209t124 146.5t163.5 82t175 27.5q195 0 353.5 -120.5t158.5 -344.5v-479q0 -223 -158.5 -344t-353.5 -121q-88 0 -175 28t-163.5 82t-124 146t-47.5 209zM401 479q0 -98 58.5 -160.5t153 -62.5t153.5 62.5t59 160.5v389q0 98 -59 161t-153.5 63 t-153 -62.5t-58.5 -161.5v-389z" />
<glyph unicode="1" horiz-adv-x="1007" d="M135 59v168q0 59 60 60h174v549h-174q-59 0 -60 59v166q0 59 60 59h45q27 0 52 9.5t51 51.5t26 111q2 53 59 54h199q57 0 59 -54v-6v-999h143q59 0 60 -60v-168q0 -59 -60 -59h-634q-60 0 -60 59z" />
<glyph unicode="2" horiz-adv-x="1144" d="M88 59v152q0 57 37 86q174 154 373 321q88 76 131 116t86 102.5t43 111.5q0 76 -48 114t-126 38q-84 0 -145.5 -60.5t-61.5 -148.5q0 -57 -53 -57h-181q-31 0 -43 13t-12 48q0 240 140.5 360.5t353.5 120.5q193 0 340 -121.5t147 -304.5q0 -96 -41 -183t-81 -129 t-118 -114l-270 -237h432q59 0 60 -60v-168q0 -59 -60 -59h-848q-35 0 -45 11t-10 48z" />
<glyph unicode="3" horiz-adv-x="1150" d="M57 356q0 39 11.5 50.5t46.5 11.5h182q25 0 35 -9.5t16 -35.5q20 -66 84 -93.5t129 -27.5q74 0 133.5 43t59.5 119q0 162 -217 161h-93q-35 0 -45 11.5t-10 48.5v131q0 41 25 70l215 225h-445q-59 0 -59 59v166q0 59 59 60h783q59 0 59 -60v-166q0 -31 -22 -59l-256 -273 q121 -29 216 -127t95 -245q0 -211 -145.5 -328t-364.5 -119q-197 0 -344.5 112.5t-147.5 274.5z" />
<glyph unicode="4" horiz-adv-x="1257" d="M53 324v168q0 29 31 71l588 750q31 37 61 37h203q59 0 59 -60v-739h123q59 0 60 -59v-168q0 -59 -60 -60h-123v-205q0 -59 -59 -59h-193q-59 0 -59 59v205h-571q-60 1 -60 60zM389 551h295v385z" />
<glyph unicode="5" horiz-adv-x="1148" d="M57 358q0 37 10.5 48.5t45.5 11.5h184q27 0 36 -7.5t13 -31.5q18 -59 72.5 -92t124.5 -33q98 0 152.5 52t54.5 136q0 76 -59.5 130.5t-143.5 54.5q-68 0 -110 -18.5t-95 -57.5q-12 -8 -45 -8h-168q-33 0 -44 11t-11 50l51 682q2 31 14.5 45.5t42.5 14.5h727q59 0 60 -60 v-168q0 -59 -60 -59h-508l-18 -240q82 51 211 51q197 0 326 -124.5t129 -323.5q0 -209 -152 -331t-354 -122q-197 0 -341.5 113.5t-144.5 275.5z" />
<glyph unicode="6" horiz-adv-x="1214" d="M80 442q0 92 33 193q35 100 135 256l254 397q35 57 98 58h260q27 0 35 -21.5t-8 -42.5l-275 -385q49 8 74 8q180 0 312 -126t132 -308q0 -207 -152.5 -354.5t-369.5 -147.5q-131 0 -249.5 55.5t-198.5 166t-80 251.5zM391 457q0 -86 61.5 -146.5t149.5 -60.5t150.5 60.5 t62.5 146.5t-62.5 145.5t-150.5 59.5t-149.5 -59.5t-61.5 -145.5z" />
<glyph unicode="7" horiz-adv-x="1103" d="M125 1116v170q0 59 59 60h791q59 0 59 -60v-160q0 -20 -5 -41.5t-11 -31.5l-6 -11l-477 -981q-29 -61 -82 -61h-260q-25 0 -31 16.5t8 44.5l516 996h-502q-59 0 -59 59z" />
<glyph unicode="8" horiz-adv-x="1198" d="M70 387q0 207 225 326q-82 49 -130 124.5t-48 161.5q0 160 125 267.5t352 107.5q225 0 350 -107.5t125 -267.5q0 -86 -48 -161.5t-130 -124.5q225 -117 225 -326q0 -182 -137 -299t-385 -117q-250 0 -387 117t-137 299zM399 405.5q0 -69.5 56.5 -116.5t138.5 -47 q80 0 137 47t57 116.5t-57 116.5t-137 47q-82 0 -138.5 -47t-56.5 -116.5zM436 989q0 -47 39 -93t119 -46q78 0 118 46t40 93q0 61 -46.5 103.5t-112 42.5t-111.5 -42.5t-46 -103.5z" />
<glyph unicode="9" horiz-adv-x="1210" d="M80 874q0 207 152.5 354.5t369.5 147.5q131 0 250 -55t198.5 -166t79.5 -252q0 -92 -32 -192q-35 -100 -135 -256l-254 -398q-35 -57 -99 -57h-260q-27 0 -35 21.5t9 41.5l274 386q-49 -8 -74 -9q-180 0 -312 126t-132 308zM395 889q0 -86 62.5 -145.5t150.5 -59.5 t149.5 59.5t61.5 145.5t-61.5 146.5t-149.5 60.5t-150.5 -60.5t-62.5 -146.5z" />
<glyph unicode=":" horiz-adv-x="626" d="M164 59v228q0 59 59 59h228q59 0 59 -59v-228q0 -59 -59 -59h-228q-59 0 -59 59zM164 625v227q0 59 59 59h228q59 0 59 -59v-227q0 -59 -59 -60h-228q-59 1 -59 60z" />
<glyph unicode=";" horiz-adv-x="632" d="M170 59v228q0 59 59 59h228q59 0 59 -59v-187q0 -55 -14 -94l-117 -237q-20 -37 -55 -37h-131q-20 0 -25.5 17.5t6.5 37.5l111 213h-62q-59 0 -59 59zM170 631v211q0 43 12.5 56t50.5 13h220q39 0 51 -13t12 -56v-211q0 -41 -12 -53.5t-51 -12.5h-220q-39 0 -51 12.5 t-12 53.5z" />
<glyph unicode="&#x3c;" horiz-adv-x="1159" d="M109 420v139q0 66 45 84l831 328q66 27 66 -33v-184q0 -25 -12.5 -41.5t-19.5 -20.5t-30 -12l-522 -191l522 -190q47 -20 58 -45q4 -12 4 -29v-182q0 -61 -66 -35l-831 328q-45 18 -45 84z" />
<glyph unicode="=" horiz-adv-x="1148" d="M100 336v160q0 59 60 59h827q59 0 60 -59v-160q0 -59 -60 -60h-827q-60 1 -60 60zM100 819v160q0 59 60 59h827q59 0 60 -59v-160q0 -59 -60 -59h-827q-60 0 -60 59z" />
<glyph unicode="&#x3e;" horiz-adv-x="1159" d="M109 43v182q0 25 12 41.5t19 20.5t30 12l522 190l-522 191q-47 20 -57 45q-4 12 -4 29v184q0 59 65 33l832 -328q45 -18 45 -84v-139q0 -66 -45 -84l-832 -328q-65 -26 -65 35z" />
<glyph unicode="?" horiz-adv-x="1118" d="M109 973q6 68 32.5 132t77.5 128.5t145.5 103.5t219.5 39q197 0 335 -96t138 -279q0 -66 -32 -124t-63.5 -87.5t-82.5 -66.5q-49 -33 -76 -55.5t-54.5 -69.5t-27.5 -100q0 -37 -13.5 -51.5t-52.5 -14.5h-170q-66 0 -65 66q0 190 108 301q27 27 81.5 58.5t86 61t31.5 70.5 q0 49 -42 81t-99 32q-72 0 -117 -40t-57 -89q-4 -20 -8.5 -31.5t-18.5 -22t-37 -10.5h-205q-23 0 -28.5 13.5t-5.5 50.5zM391 59v228q0 59 60 59h227q59 0 59 -59v-228q0 -59 -59 -59h-227q-60 0 -60 59z" />
<glyph unicode="@" horiz-adv-x="1705" d="M207 338v481q0 129 24.5 218t92.5 157q117 117 393 117h254q260 0 377 -117q68 -68 92 -157t24 -218v-758q0 -20 -11 -40.5t-38 -20.5h-174q-61 0 -61 47v21q-82 -72 -195 -72q-135 0 -221 80q-57 55 -72.5 129t-15.5 215q0 137 15.5 202.5t72.5 122.5q86 82 219 82 q106 0 186 -63v45q0 111 -53 164q-55 55 -166 55h-213q-125 0 -180 -55q-53 -53 -53 -164v-453q0 -76 35 -118q10 -14 4 -36t-25 -38l-151 -113q-12 -10 -37 -9t-37 15q-86 111 -86 281zM926 354q0 -53 33.5 -88t84.5 -35q53 0 89 35t36 88v103q0 55 -35.5 90t-89.5 35 q-51 0 -84.5 -35t-33.5 -90v-103z" />
<glyph unicode="A" d="M39 57l455 1227q25 63 84 64h196q57 0 84 -64l453 -1227q7 -17 7 -28q0 -29 -42 -29h-215q-35 0 -50.5 12.5t-27.5 48.5l-57 162h-502l-57 -162q-12 -37 -27.5 -49t-50.5 -12h-215q-42 0 -42 29q0 11 7 28zM522 510h307l-153 453z" />
<glyph unicode="B" horiz-adv-x="1406" d="M152 59v1231q0 59 59 60h573q236 0 357 -106.5t121 -264.5q0 -72 -19.5 -128t-49.5 -88t-48.5 -45t-32.5 -20q10 -4 26.5 -12t46 -33.5t54.5 -57.5t43 -86t18 -116q0 -190 -133 -291.5t-354 -101.5h-602q-59 0 -59 59zM473 291h344q158 0 158 133q0 125 -170 125h-47 q-59 0 -60 59v156q0 59 60 59h26q170 0 170 123q0 66 -42 90.5t-128 24.5h-311v-770z" />
<glyph unicode="C" horiz-adv-x="1294" d="M109 432v483q0 115 51 207t133 146.5t175 82t189 27.5q205 0 359.5 -102t173.5 -287q0 -37 -13.5 -48t-50.5 -11h-196q-18 0 -29.5 9t-20 28.5t-12.5 25.5q-63 98 -211 99q-102 0 -164.5 -54.5t-62.5 -150.5v-426q0 -96 62.5 -150.5t164.5 -54.5q193 0 215 139 q4 27 7.5 39t15.5 23.5t33 11.5h200q61 0 62 -70q0 -188 -165 -309t-368 -121q-96 0 -189 28t-175 82t-133 146t-51 207z" />
<glyph unicode="D" horiz-adv-x="1331" d="M152 59v1229q0 59 59 60h459q131 0 251.5 -46.5t210 -156t89.5 -258.5v-426q0 -152 -89.5 -260.5t-210 -154.5t-251.5 -46h-459q-59 0 -59 59zM473 285h197q104 0 166.5 54t62.5 150v369q0 96 -63.5 150.5t-165.5 54.5h-197v-778z" />
<glyph unicode="E" horiz-adv-x="1284" d="M152 59v1229q0 59 59 60h883q59 0 59 -60v-170q0 -59 -59 -59h-619v-223h549q59 0 59 -60v-160q0 -59 -59 -59h-549v-270h653q59 0 60 -60v-168q0 -59 -60 -59h-917q-59 0 -59 59z" />
<glyph unicode="F" horiz-adv-x="1232" d="M152 59v1229q0 59 59 60h881q59 0 59 -60v-168q0 -59 -59 -59h-619v-240h533q59 0 59 -59v-162q0 -59 -59 -59h-533v-480q0 -39 -11 -50t-48 -11h-203q-59 0 -59 59z" />
<glyph unicode="G" horiz-adv-x="1323" d="M111 414v504q0 117 51 208t134 144t177 80.5t189 27.5q211 0 380.5 -114.5t169.5 -307.5q0 -37 -11 -47t-48 -10h-199q-20 0 -32.5 7t-15.5 15.5t-6 25t-5 22.5q-18 53 -77.5 89t-155.5 36q-100 0 -163 -61.5t-63 -160.5v-411q0 -96 61.5 -151.5t164.5 -55.5 q227 0 227 219h-184q-59 0 -60 59v160q0 59 60 60h448q59 0 59 -60v-297q-8 -139 -99 -239.5t-209 -143.5t-242 -43q-96 0 -189.5 25.5t-176.5 76t-134 139.5t-51 204z" />
<glyph unicode="H" horiz-adv-x="1402" d="M152 59v1229q0 59 59 60h203q31 0 45 -12.5t14 -47.5v-463h457v463q0 59 59 60h203q59 0 59 -60v-1229q0 -59 -59 -59h-203q-59 0 -59 59v463h-457v-463q0 -35 -14.5 -47t-44.5 -12h-203q-59 0 -59 59z" />
<glyph unicode="I" horiz-adv-x="909" d="M98 59v162q0 59 60 60h129v782h-125q-59 0 -60 59v166q0 59 60 60h569q59 0 60 -60v-166q0 -59 -60 -59h-123v-782h129q59 0 60 -60v-162q0 -59 -60 -59h-579q-60 0 -60 59z" />
<glyph unicode="J" horiz-adv-x="1187" d="M61 442q0 55 50 56h217q51 0 51 -43q8 -170 164 -170q186 0 186 200v607h-358q-59 0 -60 59v170q0 59 60 59h620q59 0 60 -59v-881q0 -221 -150.5 -330.5t-357.5 -109.5q-213 0 -347.5 116.5t-134.5 325.5z" />
<glyph unicode="K" horiz-adv-x="1339" d="M152 59v1229q0 35 14 47.5t45 12.5h203q57 0 57 -60v-457l424 467q31 33 48.5 41.5t53.5 8.5h277q27 0 32 -22q1 -5 1 -10q0 -15 -13 -26l-460 -499l440 -725q14 -20 5 -43t-36 -23h-250q-61 0 -102 66q-182 307 -293 491l-127 -133v-365q0 -59 -57 -59h-203 q-31 0 -45 12t-14 47z" />
<glyph unicode="L" horiz-adv-x="1191" d="M152 59v1229q0 59 59 60h203q59 0 59 -60v-1001h590q59 0 59 -60v-168q0 -59 -59 -59h-852q-59 0 -59 59z" />
<glyph unicode="M" horiz-adv-x="1570" d="M152 59v1231q0 59 59 60h203q25 0 42 -8.5t24 -16.5t16.5 -25.5t11.5 -19.5l280 -504l283 504q2 2 8 15.5t11.5 20.5t14.5 16t24.5 13.5t33.5 4.5h197q59 0 59 -60v-1231q0 -59 -59 -59h-197q-59 0 -59 59v695l-205 -359q-27 -43 -59 -43h-103q-31 0 -57 43l-207 359 v-695q0 -59 -59 -59h-203q-59 0 -59 59z" />
<glyph unicode="N" horiz-adv-x="1396" d="M152 59v1229q0 59 59 60h192q25 0 42.5 -11.5t24.5 -19.5t26 -39l434 -700v710q0 59 59 60h197q59 0 59 -60v-1229q0 -59 -59 -59h-187q-25 0 -42 11.5t-24 19.5t-26 39l-434 702v-713q0 -59 -59 -59h-203q-59 0 -59 59z" />
<glyph unicode="O" horiz-adv-x="1320" d="M113 432v483q0 117 50 208t132 145.5t175 82t189.5 27.5t190.5 -27.5t176 -82t133 -145.5t51 -208v-483q0 -117 -51 -208t-133 -145t-176 -82t-190.5 -28t-189.5 28t-175 82t-132 145t-50 208zM432 461q0 -96 62.5 -151.5t165 -55.5t166 55.5t63.5 151.5v426 q0 96 -63.5 151.5t-166 55.5t-165 -55.5t-62.5 -151.5v-426z" />
<glyph unicode="P" horiz-adv-x="1286" d="M152 59v1229q0 59 59 60h461q258 0 397 -129t139 -346.5t-140 -345.5t-398 -128h-197v-340q0 -59 -59 -59h-203q-59 0 -59 59zM473 676h197q113 0 171 54t58 136q0 86 -57.5 139.5t-171.5 53.5h-197v-383z" />
<glyph unicode="Q" horiz-adv-x="1323" d="M111 430v483q0 117 50 208t132 145.5t175 82t189.5 27.5t190.5 -27.5t176 -82t133 -145.5t51 -208v-483q0 -156 -71 -246l77 -88q21 -19 21 -40q0 -25 -29 -54l-98 -80q-28 -28 -54 -28q-20 0 -38 18l-98 100q-104 -45 -261 -45q-96 0 -189 28t-175 82t-132 145t-50 208z M432 461q0 -96 62.5 -151.5t165 -55.5t166 55.5t63.5 151.5v426q0 96 -63.5 151.5t-166 55.5t-165 -55.5t-62.5 -151.5v-426z" />
<glyph unicode="R" horiz-adv-x="1363" d="M152 59v1227q0 59 57 60h516q160 0 249 -31t159 -101q119 -115 118 -321q0 -150 -88 -260.5t-196 -147.5l288 -419q9 -13 10 -27q0 -8 -3 -16q-8 -23 -37 -23h-242q-61 0 -102 61l-222 330q-23 31 -22 105v163q0 59 59 60h41q78 0 136.5 48t58.5 118q0 78 -53.5 126 t-135.5 48h-272v-1000q0 -59 -59 -59h-203q-57 0 -57 59z" />
<glyph unicode="S" horiz-adv-x="1239" d="M55 403q0 35 12.5 46.5t47.5 11.5h198q39 0 55.5 -10.5t18.5 -47.5q4 -43 39 -84q57 -68 201 -67q94 0 147 29.5t53 109.5q0 33 -18 56.5t-57 39t-78 24.5t-100.5 24.5t-102.5 27.5q-92 29 -151.5 56.5t-122 73.5t-93 115t-30.5 163q0 188 144 293.5t353 113.5 q217 0 381 -100t164 -289q0 -37 -11 -47t-48 -10h-201q-6 0 -12 1t-11.5 3t-9.5 6t-6 7t-5 9.5t-4 9.5t-4 10t-3 9q-12 31 -43 62q-57 55 -174 55q-66 0 -123.5 -28.5t-57.5 -90.5q0 -55 70 -95t188.5 -73t124.5 -35q68 -20 97.5 -30.5t92 -43t92.5 -67.5t56.5 -98.5 t26.5 -143.5q0 -211 -149.5 -320.5t-395.5 -109.5q-133 0 -256 47t-209 149.5t-86 237.5z" />
<glyph unicode="T" horiz-adv-x="1175" d="M53 1118v170q0 59 60 60h950q59 0 59 -60v-170q0 -59 -59 -59h-313v-1000q0 -59 -60 -59h-203q-59 0 -59 59v1000h-315q-60 0 -60 59z" />
<glyph unicode="U" horiz-adv-x="1353" d="M135 412v876q0 59 60 60h202q59 0 60 -60v-831q0 -96 58 -149.5t160.5 -53.5t162 53t59.5 150v831q0 59 59 60h203q59 0 60 -60v-876q0 -115 -50.5 -204t-131.5 -139.5t-173 -75t-188 -24.5t-188.5 24.5t-173.5 75t-130 139.5t-49 204z" />
<glyph unicode="V" horiz-adv-x="1302" d="M20 1288q-4 11 -3 20q0 11 5 21q9 18 35 19h228q39 0 55 -13.5t29 -52.5l278 -848l277 848q12 39 28.5 52.5t57.5 13.5h217q27 0 36 -19q5 -10 4 -21q0 -10 -3 -20l-439 -1227q-18 -39 -33.5 -50t-50.5 -11h-196q-35 0 -50.5 11.5t-33.5 49.5z" />
<glyph unicode="W" horiz-adv-x="1839" d="M35 1288q-2 9 -3 18q0 13 6 23q9 18 34 19h225q29 0 47 -13.5t23.5 -24t11.5 -28.5l203 -696l196 696q18 66 70 66h143q49 0 68 -66l198 -696l203 696q16 66 82 66h217q25 0 33 -20q5 -11 5 -22q0 -9 -3 -18l-377 -1245q-10 -43 -55 -43h-172q-25 0 -41 12.5t-21 24.5 l-4 10l-204 653l-205 -653q-12 -47 -66 -47h-180q-20 0 -33.5 10t-17.5 23l-4 10z" />
<glyph unicode="X" horiz-adv-x="1200" d="M41 1327q8 20 33 21h241q29 0 45.5 -12.5t36.5 -47.5l205 -330l203 330q23 35 39 47.5t45 12.5h239q25 0 34 -21q4 -9 4 -17q0 -11 -7 -20l-368 -600l362 -627q12 -18 5 -40.5t-30 -22.5h-233q-37 0 -53.5 9t-36.5 48l-203 365l-205 -365q-18 -37 -35.5 -47t-54.5 -10 h-233q-23 0 -30 22.5t5 40.5l365 627l-371 600q-6 9 -6 20q0 8 4 17z" />
<glyph unicode="Y" horiz-adv-x="1236" d="M25 1327q8 20 34 21h236q37 0 56.5 -11.5t39.5 -50.5l240 -440l231 440q18 39 38 50.5t56 11.5h222q27 0 34 -21q4 -9 4 -17q0 -10 -6 -20l-422 -784v-447q0 -59 -59 -59h-205q-31 0 -45 12.5t-14 46.5v447l-438 784q-6 9 -6 20q0 8 4 17z" />
<glyph unicode="Z" horiz-adv-x="1161" d="M74 59v160q0 20 6 40t14 28l6 10l553 764h-501q-59 0 -60 59v168q0 59 60 60h823q59 0 59 -60v-160q0 -45 -26 -79l-549 -762h569q59 0 59 -60v-168q0 -59 -59 -59h-893q-39 0 -50 11t-11 48z" />
<glyph unicode="[" horiz-adv-x="847" d="M152 -260v1579q0 59 59 59h496q59 0 59 -59v-168q0 -59 -59 -59h-242v-1125h242q59 0 59 -59v-168q0 -59 -59 -59h-496q-59 0 -59 59z" />
<glyph unicode="\" horiz-adv-x="821" d="M20 1362q-6 20 3.5 38.5t44.5 18.5h174q41 0 63 -55l492 -1307q6 -20 -3.5 -38.5t-43.5 -18.5h-177q-41 0 -63 55z" />
<glyph unicode="]" horiz-adv-x="847" d="M82 -92q0 59 59 59h242v1125h-242q-59 0 -59 59v168q0 59 59 59h496q59 0 59 -59v-1579q0 -59 -59 -59h-496q-59 0 -59 59v168z" />
<glyph unicode="^" horiz-adv-x="1097" d="M117 680q0 8 6 20l291 611q16 37 47 37h176q31 0 45 -37l291 -611q6 -12 6 -22q0 -29 -37 -29h-192q-14 0 -25.5 2t-18 8.5t-9.5 10.5t-7 14t-6 14l-135 295l-135 -295l-6 -12l-5.5 -11t-6.5 -9.5t-11 -9.5t-16.5 -5t-22.5 -2h-190q-39 0 -39 31z" />
<glyph unicode="_" horiz-adv-x="1208" d="M0 -240q0 59 59 60h1090q59 0 59 -60v-63q0 -59 -59 -59h-1090q-59 0 -59 59v63z" />
<glyph unicode="`" horiz-adv-x="1138" d="M200.5 1326.5q10.5 21.5 45.5 21.5h260q35 0 52 -10.5t40 -47.5l137 -221q12 -14 6 -35.5t-32 -21.5h-201q-14 0 -26.5 3t-22.5 10t-15.5 11t-16.5 16.5t-15 16.5l-205 221q-17 15 -6.5 36.5z" />
<glyph unicode="a" d="M39 57l455 1227q25 63 84 64h196q57 0 84 -64l453 -1227q7 -17 7 -28q0 -29 -42 -29h-215q-35 0 -50.5 12.5t-27.5 48.5l-57 162h-502l-57 -162q-12 -37 -27.5 -49t-50.5 -12h-215q-42 0 -42 29q0 11 7 28zM522 510h307l-153 453z" />
<glyph unicode="b" horiz-adv-x="1406" d="M152 59v1231q0 59 59 60h573q236 0 357 -106.5t121 -264.5q0 -72 -19.5 -128t-49.5 -88t-48.5 -45t-32.5 -20q10 -4 26.5 -12t46 -33.5t54.5 -57.5t43 -86t18 -116q0 -190 -133 -291.5t-354 -101.5h-602q-59 0 -59 59zM473 291h344q158 0 158 133q0 125 -170 125h-47 q-59 0 -60 59v156q0 59 60 59h26q170 0 170 123q0 66 -42 90.5t-128 24.5h-311v-770z" />
<glyph unicode="c" horiz-adv-x="1294" d="M109 432v483q0 115 51 207t133 146.5t175 82t189 27.5q205 0 359.5 -102t173.5 -287q0 -37 -13.5 -48t-50.5 -11h-196q-18 0 -29.5 9t-20 28.5t-12.5 25.5q-63 98 -211 99q-102 0 -164.5 -54.5t-62.5 -150.5v-426q0 -96 62.5 -150.5t164.5 -54.5q193 0 215 139 q4 27 7.5 39t15.5 23.5t33 11.5h200q61 0 62 -70q0 -188 -165 -309t-368 -121q-96 0 -189 28t-175 82t-133 146t-51 207z" />
<glyph unicode="d" horiz-adv-x="1331" d="M152 59v1229q0 59 59 60h459q131 0 251.5 -46.5t210 -156t89.5 -258.5v-426q0 -152 -89.5 -260.5t-210 -154.5t-251.5 -46h-459q-59 0 -59 59zM473 285h197q104 0 166.5 54t62.5 150v369q0 96 -63.5 150.5t-165.5 54.5h-197v-778z" />
<glyph unicode="e" horiz-adv-x="1284" d="M152 59v1229q0 59 59 60h883q59 0 59 -60v-170q0 -59 -59 -59h-619v-223h549q59 0 59 -60v-160q0 -59 -59 -59h-549v-270h653q59 0 60 -60v-168q0 -59 -60 -59h-917q-59 0 -59 59z" />
<glyph unicode="f" horiz-adv-x="1232" d="M152 59v1229q0 59 59 60h881q59 0 59 -60v-168q0 -59 -59 -59h-619v-240h533q59 0 59 -59v-162q0 -59 -59 -59h-533v-480q0 -39 -11 -50t-48 -11h-203q-59 0 -59 59z" />
<glyph unicode="g" horiz-adv-x="1323" d="M111 414v504q0 117 51 208t134 144t177 80.5t189 27.5q211 0 380.5 -114.5t169.5 -307.5q0 -37 -11 -47t-48 -10h-199q-20 0 -32.5 7t-15.5 15.5t-6 25t-5 22.5q-18 53 -77.5 89t-155.5 36q-100 0 -163 -61.5t-63 -160.5v-411q0 -96 61.5 -151.5t164.5 -55.5 q227 0 227 219h-184q-59 0 -60 59v160q0 59 60 60h448q59 0 59 -60v-297q-8 -139 -99 -239.5t-209 -143.5t-242 -43q-96 0 -189.5 25.5t-176.5 76t-134 139.5t-51 204z" />
<glyph unicode="h" horiz-adv-x="1402" d="M152 59v1229q0 59 59 60h203q31 0 45 -12.5t14 -47.5v-463h457v463q0 59 59 60h203q59 0 59 -60v-1229q0 -59 -59 -59h-203q-59 0 -59 59v463h-457v-463q0 -35 -14.5 -47t-44.5 -12h-203q-59 0 -59 59z" />
<glyph unicode="i" horiz-adv-x="909" d="M98 59v162q0 59 60 60h129v782h-125q-59 0 -60 59v166q0 59 60 60h569q59 0 60 -60v-166q0 -59 -60 -59h-123v-782h129q59 0 60 -60v-162q0 -59 -60 -59h-579q-60 0 -60 59z" />
<glyph unicode="j" horiz-adv-x="1187" d="M61 442q0 55 50 56h217q51 0 51 -43q8 -170 164 -170q186 0 186 200v584h-358q-59 0 -60 59v170q0 59 60 60h620q59 0 60 -60v-858q0 -221 -150.5 -330.5t-357.5 -109.5q-213 0 -347.5 116.5t-134.5 325.5z" />
<glyph unicode="k" horiz-adv-x="1339" d="M152 59v1229q0 35 14 47.5t45 12.5h203q57 0 57 -60v-457l424 467q31 33 48.5 41.5t53.5 8.5h277q27 0 32 -22q1 -5 1 -10q0 -15 -13 -26l-460 -499l440 -725q14 -20 5 -43t-36 -23h-250q-61 0 -102 66q-182 307 -293 491l-127 -133v-365q0 -59 -57 -59h-203 q-31 0 -45 12t-14 47z" />
<glyph unicode="l" horiz-adv-x="1191" d="M152 59v1229q0 59 59 60h203q59 0 59 -60v-1001h590q59 0 59 -60v-168q0 -59 -59 -59h-852q-59 0 -59 59z" />
<glyph unicode="m" horiz-adv-x="1570" d="M152 59v1231q0 59 59 60h203q25 0 42 -8.5t24 -16.5t16.5 -25.5t11.5 -19.5l280 -504l283 504q2 2 8 15.5t11.5 20.5t14.5 16t24.5 13.5t33.5 4.5h197q59 0 59 -60v-1231q0 -59 -59 -59h-197q-59 0 -59 59v695l-205 -359q-27 -43 -59 -43h-103q-31 0 -57 43l-207 359 v-695q0 -59 -59 -59h-203q-59 0 -59 59z" />
<glyph unicode="n" horiz-adv-x="1396" d="M152 59v1229q0 59 59 60h192q25 0 42.5 -11.5t24.5 -19.5t26 -39l434 -700v710q0 59 59 60h197q59 0 59 -60v-1229q0 -59 -59 -59h-187q-25 0 -42 11.5t-24 19.5t-26 39l-434 702v-713q0 -59 -59 -59h-203q-59 0 -59 59z" />
<glyph unicode="o" horiz-adv-x="1320" d="M113 432v483q0 117 50 208t132 145.5t175 82t189.5 27.5t190.5 -27.5t176 -82t133 -145.5t51 -208v-483q0 -117 -51 -208t-133 -145t-176 -82t-190.5 -28t-189.5 28t-175 82t-132 145t-50 208zM432 461q0 -96 62.5 -151.5t165 -55.5t166 55.5t63.5 151.5v426 q0 96 -63.5 151.5t-166 55.5t-165 -55.5t-62.5 -151.5v-426z" />
<glyph unicode="p" horiz-adv-x="1286" d="M152 59v1229q0 59 59 60h461q258 0 397 -129t139 -346.5t-140 -345.5t-398 -128h-197v-340q0 -59 -59 -59h-203q-59 0 -59 59zM473 676h197q113 0 171 54t58 136q0 86 -57.5 139.5t-171.5 53.5h-197v-383z" />
<glyph unicode="q" horiz-adv-x="1323" d="M111 430v483q0 117 50 208t132 145.5t175 82t189.5 27.5t190.5 -27.5t176 -82t133 -145.5t51 -208v-483q0 -156 -71 -246l77 -88q21 -19 21 -40q0 -25 -29 -54l-98 -80q-28 -28 -54 -28q-20 0 -38 18l-98 100q-104 -45 -261 -45q-96 0 -189 28t-175 82t-132 145t-50 208z M432 461q0 -96 62.5 -151.5t165 -55.5t166 55.5t63.5 151.5v426q0 96 -63.5 151.5t-166 55.5t-165 -55.5t-62.5 -151.5v-426z" />
<glyph unicode="r" horiz-adv-x="1363" d="M152 59v1227q0 59 57 60h516q160 0 249 -31t159 -101q119 -115 118 -321q0 -150 -88 -260.5t-196 -147.5l288 -419q9 -13 10 -27q0 -8 -3 -16q-8 -23 -37 -23h-242q-61 0 -102 61l-222 330q-23 31 -22 105v163q0 59 59 60h41q78 0 136.5 48t58.5 118q0 78 -53.5 126 t-135.5 48h-272v-1000q0 -59 -59 -59h-203q-57 0 -57 59z" />
<glyph unicode="s" horiz-adv-x="1239" d="M55 403q0 35 12.5 46.5t47.5 11.5h198q39 0 55.5 -10.5t18.5 -47.5q4 -43 39 -84q57 -68 201 -67q94 0 147 29.5t53 109.5q0 33 -18 56.5t-57 39t-78 24.5t-100.5 24.5t-102.5 27.5q-92 29 -151.5 56.5t-122 73.5t-93 115t-30.5 163q0 188 144 293.5t353 113.5 q217 0 381 -100t164 -289q0 -37 -11 -47t-48 -10h-201q-6 0 -12 1t-11.5 3t-9.5 6t-6 7t-5 9.5t-4 9.5t-4 10t-3 9q-12 31 -43 62q-57 55 -174 55q-66 0 -123.5 -28.5t-57.5 -90.5q0 -55 70 -95t188.5 -73t124.5 -35q68 -20 97.5 -30.5t92 -43t92.5 -67.5t56.5 -98.5 t26.5 -143.5q0 -211 -149.5 -320.5t-395.5 -109.5q-133 0 -256 47t-209 149.5t-86 237.5z" />
<glyph unicode="t" horiz-adv-x="1175" d="M53 1118v170q0 59 60 60h950q59 0 59 -60v-170q0 -59 -59 -59h-313v-1000q0 -59 -60 -59h-203q-59 0 -59 59v1000h-315q-60 0 -60 59z" />
<glyph unicode="u" horiz-adv-x="1353" d="M135 412v876q0 59 60 60h202q59 0 60 -60v-831q0 -96 58 -149.5t160.5 -53.5t162 53t59.5 150v831q0 59 59 60h203q59 0 60 -60v-876q0 -115 -50.5 -204t-131.5 -139.5t-173 -75t-188 -24.5t-188.5 24.5t-173.5 75t-130 139.5t-49 204z" />
<glyph unicode="v" horiz-adv-x="1302" d="M20 1288q-4 11 -3 20q0 11 5 21q9 18 35 19h228q39 0 55 -13.5t29 -52.5l278 -848l277 848q12 39 28.5 52.5t57.5 13.5h217q27 0 36 -19q5 -10 4 -21q0 -10 -3 -20l-439 -1227q-18 -39 -33.5 -50t-50.5 -11h-196q-35 0 -50.5 11.5t-33.5 49.5z" />
<glyph unicode="w" horiz-adv-x="1839" d="M35 1288q-2 9 -3 18q0 13 6 23q9 18 34 19h225q29 0 47 -13.5t23.5 -24t11.5 -28.5l203 -696l196 696q18 66 70 66h143q49 0 68 -66l198 -696l203 696q16 66 82 66h217q25 0 33 -20q5 -11 5 -22q0 -9 -3 -18l-377 -1245q-10 -43 -55 -43h-172q-25 0 -41 12.5t-21 24.5 l-4 10l-204 653l-205 -653q-12 -47 -66 -47h-180q-20 0 -33.5 10t-17.5 23l-4 10z" />
<glyph unicode="x" horiz-adv-x="1200" d="M41 1327q8 20 33 21h241q29 0 45.5 -12.5t36.5 -47.5l205 -330l203 330q23 35 39 47.5t45 12.5h239q25 0 34 -21q4 -9 4 -17q0 -11 -7 -20l-368 -600l362 -627q12 -18 5 -40.5t-30 -22.5h-233q-37 0 -53.5 9t-36.5 48l-203 365l-205 -365q-18 -37 -35.5 -47t-54.5 -10 h-233q-23 0 -30 22.5t5 40.5l365 627l-371 600q-6 9 -6 20q0 8 4 17z" />
<glyph unicode="y" horiz-adv-x="1236" d="M25 1327q8 20 34 21h236q37 0 56.5 -11.5t39.5 -50.5l240 -440l231 440q18 39 38 50.5t56 11.5h222q27 0 34 -21q4 -9 4 -17q0 -10 -6 -20l-422 -784v-447q0 -59 -59 -59h-205q-31 0 -45 12.5t-14 46.5v447l-438 784q-6 9 -6 20q0 8 4 17z" />
<glyph unicode="z" horiz-adv-x="1161" d="M74 59v160q0 20 6 40t14 28l6 10l553 764h-501q-59 0 -60 59v168q0 59 60 60h823q59 0 59 -60v-160q0 -45 -26 -79l-549 -762h569q59 0 59 -60v-168q0 -59 -59 -59h-893q-39 0 -50 11t-11 48z" />
<glyph unicode="{" horiz-adv-x="1021" d="M90 -92q0 59 60 59h96q70 4 94 29q33 31 33 129v207q0 160 143 194l12 4l-14 2q-141 37 -141 195v207q0 96 -33 129q-25 25 -94 29h-96q-59 0 -60 59v168q0 59 60 59h196q147 0 234 -82q94 -94 94 -229v-236q0 -88 33 -122q39 -37 114 -37h51q59 0 60 -60v-168 q0 -59 -60 -59h-65q-66 -2 -100 -35q-33 -35 -33 -123v-235q0 -135 -94 -230q-86 -82 -234 -81h-196q-59 0 -60 59v168z" />
<glyph unicode="|" horiz-adv-x="690" d="M205 -281v1844q0 59 59 59h162q59 0 59 -59v-1844q0 -59 -59 -59h-162q-59 0 -59 59z" />
<glyph unicode="}" horiz-adv-x="1021" d="M90 444v168q0 59 60 60h51q74 0 114 37q33 35 33 122v236q0 135 94 229q86 82 234 82h196q59 0 60 -59v-168q0 -59 -60 -59h-96q-70 -4 -94 -29q-33 -33 -33 -129v-207q0 -158 -141 -195l-14 -2l12 -4q143 -35 143 -194v-207q0 -98 33 -129q25 -25 94 -29h96q59 0 60 -59 v-168q0 -59 -60 -59h-196q-147 0 -234 81q-94 94 -94 230v235q0 88 -33 123q-35 33 -100 35h-65q-60 0 -60 59z" />
<glyph unicode="~" horiz-adv-x="1705" d="M356 606q-37 37 4 82q150 135 293 135q113 0 213 -55q90 -51 166 -51q51 0 121 43q20 12 46 9t40 -19l104 -107q35 -35 -6 -80q-152 -137 -293 -137q-113 0 -213 55q-88 51 -165 51q-51 0 -121 -43q-20 -12 -45 -8t-39 21z" />
<glyph unicode="&#xa1;" horiz-adv-x="647" d="M127 -276q0 2 4 36q27 248 86 785q4 41 13.5 50t43.5 9h101q37 0 46 -10t13 -49q57 -543 84 -787q4 -33 4 -34q0 -25 -13 -34t-46 -9h-275q-35 0 -48 8t-13 35zM152 741v228q0 59 59 59h227q59 0 60 -59v-228q0 -59 -60 -59h-227q-59 0 -59 59z" />
<glyph unicode="&#xa3;" horiz-adv-x="1333" d="M72 59v168q0 59 59 60q27 0 45.5 6t40 22.5t34.5 55.5t15 98h-135q-59 0 -59 59v160q0 59 59 60h135v221q0 188 136.5 298.5t334.5 110.5q201 0 345.5 -116.5t144.5 -339.5q0 -31 -7.5 -38t-31.5 -7h-203q-57 0 -57 45q0 98 -44 134t-136 36q-80 0 -119 -58.5t-39 -146.5 v-139h266q59 0 59 -60v-160q0 -59 -59 -59h-266q0 -127 -68 -182h670q59 0 59 -60v-168q0 -59 -59 -59h-1063q-57 2 -57 59z" />
<glyph unicode="&#xa4;" horiz-adv-x="1380" d="M225 90q-41 41 0 84l82 82q-74 119 -74 260t76 260l-82 84q-43 41 0 84l66 66q43 43 84 0l84 -82q119 76 260 76t260 -74l82 82q43 41 84 0l67 -68q43 -43 0 -84l-81 -84q76 -119 74.5 -259t-77.5 -261l84 -84q43 -41 0 -84l-65 -65q-43 -43 -84 0l-84 83 q-119 -76 -260 -75.5t-260 73.5l-84 -81q-41 -43 -84 0zM497 517q1 -93 66 -159q63 -66 157.5 -65.5t158.5 65.5q66 63 65.5 157.5t-65.5 158.5q-66 66 -159 66.5t-158.5 -65t-64.5 -158.5z" />
<glyph unicode="&#xa5;" horiz-adv-x="1216" d="M8 1327.5q8 20.5 35 20.5h238q37 0 55 -11.5t39 -50.5l237 -436h4l230 436q20 39 38.5 50.5t55.5 11.5h221q27 0 36 -20.5t-3 -37.5l-236 -440h84q59 0 60 -59v-109q0 -59 -60 -59h-206l-64 -117v-4h270q59 0 60 -60v-108q0 -59 -60 -60h-270v-215q0 -59 -59 -59h-205 q-59 0 -59 59v215h-285q-59 0 -60 60v108q0 59 60 60h285v4l-66 117h-219q-59 0 -60 59v109q0 59 60 59h92l-246 440q-10 17 -2 37.5z" />
<glyph unicode="&#xa6;" horiz-adv-x="690" d="M205 -172v430q0 59 59 59h162q59 0 59 -59v-430q0 -59 -59 -59h-162q-59 0 -59 59zM205 764v430q0 59 59 59h162q59 0 59 -59v-430q0 -59 -59 -59h-162q-59 0 -59 59z" />
<glyph unicode="&#xa7;" horiz-adv-x="1107" d="M92 604q0 205 166 281q-84 74 -84 176q0 145 120 231t277 86q102 0 180 -30.5t118 -71.5t64.5 -88t30 -71.5t5.5 -33.5q0 -25 -2 -37t-15.5 -22t-42.5 -10h-153q-45 0 -70 55q-10 25 -24 39q-33 29 -87 29q-39 0 -68.5 -20.5t-29.5 -61.5q0 -25 20.5 -47.5t37 -31.5 t53.5 -28l12 -4q6 -6 211 -100q205 -92 205 -297q0 -184 -133 -250q90 -86 90 -205q0 -166 -121 -254t-289 -88q-215 0 -318.5 91t-103.5 218q0 45 12.5 58.5t47.5 13.5h155q27 0 43.5 -10t18.5 -23l4 -10q8 -39 37 -63q37 -33 98 -33q51 0 82 26.5t31 71.5q0 33 -34 63.5 t-71 49t-112 49.5q-82 35 -128 58.5t-108.5 66.5t-93.5 100t-31 127zM377 645q-2 -29 13.5 -46t53.5 -40l191 -96q16 -8 39 -8q33 0 55.5 20.5t22.5 48.5q0 55 -74 90l-182 88q-27 10 -47 11q-29 0 -49.5 -19.5t-22.5 -48.5z" />
<glyph unicode="&#xa8;" horiz-adv-x="1138" d="M143 1155v133q0 35 14.5 47.5t45.5 12.5h225q59 0 59 -60v-133q0 -59 -59 -59h-225q-31 0 -45.5 12t-14.5 47zM649 1155v133q0 59 60 60h225q59 0 59 -60v-133q0 -59 -59 -59h-225q-60 0 -60 59z" />
<glyph unicode="&#xaa;" d="M39 57l455 1227q25 63 84 64h196q57 0 84 -64l453 -1227q7 -17 7 -28q0 -29 -42 -29h-215q-35 0 -50.5 12.5t-27.5 48.5l-57 162h-502l-57 -162q-12 -37 -27.5 -49t-50.5 -12h-215q-42 0 -42 29q0 11 7 28zM522 510h307l-153 453z" />
<glyph unicode="&#xab;" horiz-adv-x="968" d="M61 532v160q0 33 25 56l281 245q14 16 33.5 8t19.5 -32v-181q0 -37 -43 -71l-127 -105l127 -104q43 -35 43 -70v-182q0 -23 -19.5 -31t-33.5 8l-281 244q-25 22 -25 55zM487 532v160q0 33 25 56l281 245q14 16 33.5 8t19.5 -32v-181q0 -37 -43 -71l-127 -105l127 -104 q43 -35 43 -70v-182q0 -23 -19.5 -31t-33.5 8l-281 244q-25 22 -25 55z" />
<glyph unicode="&#xad;" horiz-adv-x="888" d="M106 467v160q0 59 60 59h557q59 0 59 -59v-160q0 -59 -59 -59h-557q-60 0 -60 59z" />
<glyph unicode="&#xb0;" horiz-adv-x="802" d="M96 1075q0 133 87 219t218 86t218.5 -86t87.5 -219t-87.5 -219t-218.5 -86t-218 86t-87 219zM256 1075.5q0 -61.5 42 -103.5t103.5 -42t103.5 42t42 103.5t-42 103.5t-103.5 42t-103.5 -42t-42 -103.5z" />
<glyph unicode="&#xb1;" horiz-adv-x="1148" d="M100 59v142q0 59 60 59h284v205h-284q-59 0 -60 59v142q0 59 60 59h284v182q0 59 60 60h141q59 0 60 -60v-182h284q59 0 60 -59v-142q0 -59 -60 -59h-284v-205h284q59 0 60 -59v-142q0 -59 -60 -59h-829q-60 0 -60 59z" />
<glyph unicode="&#xb2;" horiz-adv-x="1144" d="M88 59v152q0 57 37 86q174 154 373 321q88 76 131 116t86 102.5t43 111.5q0 76 -48 114t-126 38q-84 0 -145.5 -60.5t-61.5 -148.5q0 -57 -53 -57h-181q-31 0 -43 13t-12 48q0 240 140.5 360.5t353.5 120.5q193 0 340 -121.5t147 -304.5q0 -96 -41 -183t-81 -129 t-118 -114l-270 -237h432q59 0 60 -60v-168q0 -59 -60 -59h-848q-35 0 -45 11t-10 48z" />
<glyph unicode="&#xb3;" horiz-adv-x="1150" d="M57 356q0 39 11.5 50.5t46.5 11.5h182q25 0 35 -9.5t16 -35.5q20 -66 84 -93.5t129 -27.5q74 0 133.5 43t59.5 119q0 162 -217 161h-93q-35 0 -45 11.5t-10 48.5v131q0 41 25 70l215 225h-445q-59 0 -59 59v166q0 59 59 60h783q59 0 59 -60v-166q0 -31 -22 -59l-256 -273 q121 -29 216 -127t95 -245q0 -211 -145.5 -328t-364.5 -119q-197 0 -344.5 112.5t-147.5 274.5z" />
<glyph unicode="&#xb4;" horiz-adv-x="1138" d="M418 1033.5q-6 21.5 6 35.5l137 221q23 37 40 47.5t52 10.5h260q35 0 45.5 -21.5t-6.5 -36.5l-204 -221q-4 -4 -15.5 -16.5t-16.5 -16.5t-15.5 -11t-22.5 -10t-27 -3h-200q-27 0 -33 21.5z" />
<glyph unicode="&#xb6;" horiz-adv-x="1705" d="M268 858v221q0 106 84 187.5t183 81.5h667q45 0 62.5 -12.5t17.5 -47.5v-1229q0 -59 -59 -59h-142q-59 0 -59 59v1049h-160v-1049q0 -59 -59 -59h-141q-59 0 -60 59v531h-65q-111 0 -190 78.5t-79 189.5z" />
<glyph unicode="&#xb7;" horiz-adv-x="602" d="M117 485q0 84 59.5 143.5t143 59.5t143 -59.5t59.5 -143.5t-59.5 -143t-143 -59t-143 59t-59.5 143z" />
<glyph unicode="&#xb8;" horiz-adv-x="1024" d="M212 -409.5q17 53.5 65.5 66.5t97.5 -24q31 -27 63 -26h129q43 0 61.5 39t1 77.5t-62.5 40.5h-147q-53 0 -29 58q25 49 52.5 106.5t40 82t27.5 50t25.5 33.5t24.5 8h113q25 0 30 -19.5t-6 -31.5l-61 -141q90 -10 145.5 -63.5t60.5 -124t-18.5 -140t-92 -117t-161.5 -47.5 h-137q-125 0 -196 76q-43 43 -26 96.5z" />
<glyph unicode="&#xb9;" horiz-adv-x="1007" d="M135 59v168q0 59 60 60h174v549h-174q-59 0 -60 59v166q0 59 60 59h45q27 0 52 9.5t51 51.5t26 111q2 53 59 54h199q57 0 59 -54v-6v-999h143q59 0 60 -60v-168q0 -59 -60 -59h-634q-60 0 -60 59z" />
<glyph unicode="&#xba;" horiz-adv-x="1320" d="M113 432v483q0 117 50 208t132 145.5t175 82t189.5 27.5t190.5 -27.5t176 -82t133 -145.5t51 -208v-483q0 -117 -51 -208t-133 -145t-176 -82t-190.5 -28t-189.5 28t-175 82t-132 145t-50 208zM432 461q0 -96 62.5 -151.5t165 -55.5t166 55.5t63.5 151.5v426 q0 96 -63.5 151.5t-166 55.5t-165 -55.5t-62.5 -151.5v-426z" />
<glyph unicode="&#xbb;" horiz-adv-x="968" d="M123 256v182q0 35 43 70l127 104l-127 105q-43 35 -43 71v181q0 25 18.5 33t34.5 -9l281 -245q25 -23 24 -56v-160q0 -33 -24 -55l-281 -244q-16 -16 -34.5 -8t-18.5 31zM549 256v182q0 35 43 70l127 104l-127 105q-43 35 -43 71v181q0 25 18.5 33t34.5 -9l281 -245 q25 -23 24 -56v-160q0 -33 -24 -55l-281 -244q-16 -16 -34.5 -8t-18.5 31z" />
<glyph unicode="&#xbf;" horiz-adv-x="1101" d="M70 18q0 -182 138 -278t335 -96q125 0 219 38.5t145 103t78 129.5t33 132q0 37 -6 50.5t-29 13.5h-205q-23 0 -37 -10.5t-18 -21.5t-8 -32q-12 -49 -57.5 -89t-116.5 -40q-57 0 -99.5 32t-42.5 81q0 41 32 70.5t86 61.5t81 58q109 111 109 301q0 66 -66 66h-170 q-39 0 -52 -14.5t-13 -51.5q0 -53 -28 -100t-54.5 -69.5t-75.5 -55.5q-51 -37 -83 -66.5t-63.5 -88t-31.5 -124.5zM389 733v228q0 59 60 59h227q59 0 59 -59v-228q0 -59 -59 -59h-227q-60 0 -60 59z" />
<glyph unicode="&#xc0;" d="M39 57l455 1227q25 63 84 64h196q57 0 84 -64l453 -1227q25 -57 -35 -57h-215q-35 0 -50.5 12.5t-27.5 48.5l-57 162h-502l-57 -162q-12 -37 -27.5 -49t-50.5 -12h-215q-60 0 -35 57zM256 1780.5q10 21.5 45 21.5h260q35 0 52.5 -10t39.5 -47l138 -221q12 -14 6 -36 t-33 -22h-201q-14 0 -26.5 3.5t-22.5 10.5t-15 11t-16.5 16.5t-15.5 16.5l-205 221q-16 14 -6 35.5zM522 510h307l-153 453z" />
<glyph unicode="&#xc1;" d="M39 57l455 1227q25 63 84 64h196q57 0 84 -64l453 -1227q25 -57 -35 -57h-215q-35 0 -50.5 12.5t-27.5 48.5l-57 162h-502l-57 -162q-12 -37 -27.5 -49t-50.5 -12h-215q-60 0 -35 57zM522 510h307l-153 453zM549 1487.5q-6 21.5 6 36.5l137 221q23 37 40.5 47t51.5 10 h260q35 0 45.5 -21.5t-6.5 -35.5l-204 -221q-4 -4 -15.5 -16.5t-16.5 -16.5t-15.5 -11t-22.5 -10.5t-27 -3.5h-200q-27 0 -33 21.5z" />
<glyph unicode="&#xc2;" d="M39 57l455 1227q25 63 84 64h196q57 0 84 -64l453 -1227q25 -57 -35 -57h-215q-35 0 -50.5 12.5t-27.5 48.5l-57 162h-502l-57 -162q-12 -37 -27.5 -49t-50.5 -12h-215q-60 0 -35 57zM289 1484.5q-8 18.5 8 35.5l246 280q23 25 55 25h160q33 0 55 -25l244 -280 q16 -16 8 -35t-31 -19h-182q-35 0 -70 43l-104 127l-105 -127q-35 -43 -71 -43h-180q-25 0 -33 18.5zM522 510h307l-153 453z" />
<glyph unicode="&#xc3;" d="M39 57l455 1227q25 63 84 64h196q57 0 84 -64l453 -1227q25 -57 -35 -57h-215q-35 0 -50.5 12.5t-27.5 48.5l-57 162h-502l-57 -162q-12 -37 -27.5 -49t-50.5 -12h-215q-60 0 -35 57zM299 1507v2q0 94 61.5 160t159.5 66q66 0 166 -37q121 -43 145 -47q55 -8 72 47 q10 37 51 37h95q25 0 24 -41v-2q0 -94 -61.5 -160t-159.5 -66q-66 0 -166 37q-121 43 -145 47q-55 8 -72 -47q-10 -37 -51 -37h-94q-25 0 -25 41zM522 510h307l-153 453z" />
<glyph unicode="&#xc4;" d="M39 57l455 1227q25 63 84 64h196q57 0 84 -64l453 -1227q25 -57 -35 -57h-215q-35 0 -50.5 12.5t-27.5 48.5l-57 162h-502l-57 -162q-12 -37 -27.5 -49t-50.5 -12h-215q-60 0 -35 57zM244 1526v133q0 35 14 47t45 12h225q59 0 60 -59v-133q0 -59 -60 -60h-225 q-31 0 -45 12.5t-14 47.5zM522 510h307l-153 453zM750 1526v133q0 59 59 59h225q59 0 60 -59v-133q0 -59 -60 -60h-225q-59 1 -59 60z" />
<glyph unicode="&#xc5;" d="M39 57l455 1227q10 25 20 39q-74 68 -74 170q0 94 69 161.5t163 67.5t161.5 -67.5t67.5 -161.5q0 -100 -70 -166q14 -14 27 -43l453 -1227q25 -57 -35 -57h-215q-35 0 -50.5 12.5t-27.5 48.5l-57 162h-502l-57 -162q-12 -37 -27.5 -49t-50.5 -12h-215q-60 0 -35 57z M522 510h307l-153 453zM563 1493q0 -43 33 -76t76 -33t74.5 33t31.5 76q0 41 -32.5 73.5t-73.5 32.5q-43 0 -76 -31.5t-33 -74.5z" />
<glyph unicode="&#xc6;" horiz-adv-x="1986" d="M32 18.5q-9 18.5 1 38.5l581 1211q41 82 109 82h1075q59 0 60 -60v-168q0 -59 -60 -59h-586v-227h517q59 0 59 -60v-160q0 -59 -59 -59h-517v-270h621q59 0 59 -60v-168q0 -59 -59 -59h-868q-59 0 -60 49v174h-434l-78 -162q-33 -61 -92 -61h-240q-20 0 -29 18.5z M590 512h315v553h-65z" />
<glyph unicode="&#xc7;" horiz-adv-x="1294" d="M109 432v483q0 115 51 207t133 146.5t175 82t189 27.5q205 0 359.5 -102t173.5 -287q0 -37 -13.5 -48t-50.5 -11h-196q-18 0 -29.5 9t-20 28.5t-12.5 25.5q-63 98 -211 99q-102 0 -164.5 -54.5t-62.5 -150.5v-426q0 -96 62.5 -150.5t164.5 -54.5q193 0 215 139 q4 27 7.5 39t15.5 23.5t33 11.5h200q61 0 62 -70q0 -156 -113.5 -266t-279.5 -147l-35 -80q90 -10 145.5 -63.5t60.5 -124t-18.5 -140.5t-92.5 -117t-161 -47h-137q-125 0 -197 76q-43 43 -25.5 96.5t66 66.5t97.5 -24q31 -27 63 -26h129q43 0 61.5 39t1 77.5t-62.5 40.5 h-147q-53 0 -29 58q18 37 44 90t32 65q-195 18 -339 137t-144 322z" />
<glyph unicode="&#xc8;" horiz-adv-x="1284" d="M152 59v1229q0 59 59 60h883q59 0 59 -60v-170q0 -59 -59 -59h-619v-223h549q59 0 59 -60v-160q0 -59 -59 -59h-549v-270h653q59 0 60 -60v-168q0 -59 -60 -59h-917q-59 0 -59 59zM295 1780.5q10 21.5 45 21.5h260q35 0 52.5 -10t39.5 -47l137 -221q12 -14 6 -36t-32 -22 h-201q-14 0 -26.5 3.5t-22.5 10.5t-15.5 11t-16.5 16.5t-15 16.5l-205 221q-16 14 -6 35.5z" />
<glyph unicode="&#xc9;" horiz-adv-x="1284" d="M152 59v1229q0 59 59 60h883q59 0 59 -60v-170q0 -59 -59 -59h-619v-223h549q59 0 59 -60v-160q0 -59 -59 -59h-549v-270h653q59 0 60 -60v-168q0 -59 -60 -59h-917q-59 0 -59 59zM487.5 1487.5q-6.5 21.5 6.5 36.5l137 221q23 37 40 47t52 10h260q35 0 45 -21.5 t-6 -35.5l-205 -221q-4 -4 -15 -16.5t-16.5 -16.5t-15.5 -11t-22.5 -10.5t-26.5 -3.5h-201q-26 0 -32.5 21.5z" />
<glyph unicode="&#xca;" horiz-adv-x="1284" d="M152 59v1229q0 59 59 60h883q59 0 59 -60v-170q0 -59 -59 -59h-619v-223h549q59 0 59 -60v-160q0 -59 -59 -59h-549v-270h653q59 0 60 -60v-168q0 -59 -60 -59h-917q-59 0 -59 59zM280.5 1484.5q-8.5 18.5 8.5 35.5l246 280q23 25 55 25h160q33 0 55 -25l244 -280 q16 -16 8 -35t-31 -19h-182q-35 0 -70 43l-104 127l-105 -127q-35 -43 -71 -43h-181q-24 0 -32.5 18.5z" />
<glyph unicode="&#xcb;" horiz-adv-x="1284" d="M152 59v1229q0 59 59 60h883q59 0 59 -60v-170q0 -59 -59 -59h-619v-223h549q59 0 59 -60v-160q0 -59 -59 -59h-549v-270h653q59 0 60 -60v-168q0 -59 -60 -59h-917q-59 0 -59 59zM231 1526v133q0 35 14.5 47t45.5 12h225q59 0 59 -59v-133q0 -59 -59 -60h-225 q-31 0 -45.5 12.5t-14.5 47.5zM737 1526v133q0 59 60 59h225q59 0 59 -59v-133q0 -59 -59 -60h-225q-60 1 -60 60z" />
<glyph unicode="&#xcc;" horiz-adv-x="999" d="M119 1780.5q10 21.5 45 21.5h260q35 0 52.5 -10t39.5 -47l137 -221q12 -14 6 -36t-32 -22h-201q-14 0 -26.5 3.5t-22.5 10.5t-15.5 11t-16.5 16.5t-15 16.5l-205 221q-16 14 -6 35.5zM129 59v168q0 59 59 60h158v774h-125q-59 0 -59 59v168q0 59 59 60h570q59 0 59 -60 v-168q0 -59 -59 -59h-123v-774h157q59 0 60 -60v-168q0 -59 -60 -59h-637q-59 0 -59 59z" />
<glyph unicode="&#xcd;" horiz-adv-x="991" d="M115 59v168q0 59 59 60h158v774h-125q-59 0 -60 59v168q0 59 60 60h569q59 0 60 -60v-168q0 -59 -60 -59h-123v-774h158q59 0 59 -60v-168q0 -59 -59 -59h-637q-59 0 -59 59zM332 1487.5q-6 21.5 6 36.5l137 221q23 37 40 47t52 10h260q35 0 45.5 -21.5t-6.5 -35.5 l-204 -221q-4 -4 -15.5 -16.5t-16.5 -16.5t-15.5 -11t-22.5 -10.5t-27 -3.5h-200q-27 0 -33 21.5z" />
<glyph unicode="&#xce;" horiz-adv-x="1011" d="M115 59v168q0 59 59 60h158v774h-125q-59 0 -60 59v168q0 59 60 60h569q59 0 60 -60v-168q0 -59 -60 -59h-123v-774h158q59 0 59 -60v-168q0 -59 -59 -59h-637q-59 0 -59 59zM119 1484.5q-8 18.5 8 35.5l246 280q20 25 55 25h160q35 0 55 -25l244 -280q16 -16 8 -35 t-31 -19h-182q-35 0 -70 43l-104 127l-105 -127q-35 -43 -71 -43h-180q-25 0 -33 18.5z" />
<glyph unicode="&#xcf;" horiz-adv-x="1079" d="M115 1526v133q0 35 14 47t45 12h225q59 0 60 -59v-133q0 -59 -60 -60h-225q-31 0 -45 12.5t-14 47.5zM162 59v168q0 59 59 60h158v774h-125q-59 0 -59 59v168q0 59 59 60h569q59 0 60 -60v-168q0 -59 -60 -59h-123v-774h158q59 0 60 -60v-168q0 -59 -60 -59h-637 q-59 0 -59 59zM621 1526v133q0 59 59 59h225q59 0 60 -59v-133q0 -59 -60 -60h-225q-59 1 -59 60z" />
<glyph unicode="&#xd0;" horiz-adv-x="1331" d="M8 582v151q0 59 60 60h84v495q0 59 59 60h459q131 0 251.5 -46.5t210 -156t89.5 -258.5v-426q0 -152 -89.5 -260.5t-210 -154.5t-251.5 -46h-459q-59 0 -59 59v463h-84q-60 1 -60 60zM473 285h197q104 0 166.5 54t62.5 150v369q0 96 -63.5 150.5t-165.5 54.5h-197v-270 h117q59 0 59 -60v-151q0 -59 -59 -60h-117v-237z" />
<glyph unicode="&#xd1;" horiz-adv-x="1396" d="M152 59v1229q0 59 59 60h192q25 0 42.5 -11.5t24.5 -19.5t26 -39l434 -700v710q0 59 59 60h197q59 0 59 -60v-1229q0 -59 -59 -59h-187q-25 0 -42 11.5t-24 19.5t-26 39l-434 702v-713q0 -59 -59 -59h-203q-59 0 -59 59zM338 1507v2q0 94 61.5 160t159.5 66q63 0 166 -37 q121 -43 145 -47q55 -8 72 47q10 37 51 37h94q25 0 25 -41v-2q0 -94 -61.5 -160t-159.5 -66q-63 0 -166 37q-121 43 -145 47q-55 8 -72 -47q-10 -37 -51 -37h-95q-24 0 -24 41z" />
<glyph unicode="&#xd2;" horiz-adv-x="1320" d="M113 432v483q0 117 50 208t132 145.5t175 82t189.5 27.5t190.5 -27.5t176 -82t133 -145.5t51 -208v-483q0 -117 -51 -208t-133 -145t-176 -82t-190.5 -28t-189.5 28t-175 82t-132 145t-50 208zM344 1780.5q10 21.5 45 21.5h260q35 0 52.5 -10t39.5 -47l138 -221 q12 -14 6 -36t-33 -22h-201q-14 0 -26.5 3.5t-22.5 10.5t-15 11t-16.5 16.5t-15.5 16.5l-205 221q-16 14 -6 35.5zM432 461q0 -96 62.5 -151.5t165 -55.5t166 55.5t63.5 151.5v426q0 96 -63.5 151.5t-166 55.5t-165 -55.5t-62.5 -151.5v-426z" />
<glyph unicode="&#xd3;" horiz-adv-x="1320" d="M113 432v483q0 117 50 208t132 145.5t175 82t189.5 27.5t190.5 -27.5t176 -82t133 -145.5t51 -208v-483q0 -117 -51 -208t-133 -145t-176 -82t-190.5 -28t-189.5 28t-175 82t-132 145t-50 208zM432 461q0 -96 62.5 -151.5t165 -55.5t166 55.5t63.5 151.5v426 q0 96 -63.5 151.5t-166 55.5t-165 -55.5t-62.5 -151.5v-426zM434 1487.5q-6 21.5 6 36.5l138 221q23 37 40 47t52 10h260q35 0 45 -21.5t-6 -35.5l-205 -221q-4 -4 -15.5 -16.5t-16.5 -16.5t-15 -11t-22.5 -10.5t-26.5 -3.5h-201q-27 0 -33 21.5z" />
<glyph unicode="&#xd4;" horiz-adv-x="1320" d="M113 432q0 -117 50 -208t132 -145t175 -82t189.5 -28t190.5 28t176 82t133 145t51 208v483q0 117 -51 208t-133 145.5t-176 82t-190.5 27.5t-189.5 -27.5t-175 -82t-132 -145.5t-50 -208v-483zM272.5 1484.5q-8.5 18.5 8.5 35.5l245 280q23 25 56 25h159q33 0 56 -25 l243 -280q16 -16 8 -35t-30 -19h-182q-35 0 -70 43l-104 127l-105 -127q-35 -43 -72 -43h-180q-24 0 -32.5 18.5zM432 461v426q0 96 62.5 151.5t165 55.5t166 -55.5t63.5 -151.5v-426q0 -96 -63.5 -151.5t-166 -55.5t-165 55.5t-62.5 151.5z" />
<glyph unicode="&#xd5;" horiz-adv-x="1320" d="M113 432q0 -117 50 -208t132 -145t175 -82t189.5 -28t190.5 28t176 82t133 145t51 208v483q0 117 -51 208t-133 145.5t-176 82t-190.5 27.5t-189.5 -27.5t-175 -82t-132 -145.5t-50 -208v-483zM272 1507v2q0 94 61.5 160t160.5 66q63 0 165 -37q121 -43 146 -47 q55 -8 72 47q10 37 51 37h94q25 0 25 -41v-2q0 -94 -61.5 -160t-160.5 -66q-63 0 -166 37q-121 43 -145 47q-55 8 -72 -47q-10 -37 -51 -37h-94q-25 0 -25 41zM432 461v426q0 96 62.5 151.5t165 55.5t166 -55.5t63.5 -151.5v-426q0 -96 -63.5 -151.5t-166 -55.5t-165 55.5 t-62.5 151.5z" />
<glyph unicode="&#xd6;" horiz-adv-x="1320" d="M113 432q0 -117 50 -208t132 -145t175 -82t189.5 -28t190.5 28t176 82t133 145t51 208v483q0 117 -51 208t-133 145.5t-176 82t-190.5 27.5t-189.5 -27.5t-175 -82t-132 -145.5t-50 -208v-483zM233 1526v133q0 35 14.5 47t45.5 12h225q59 0 60 -59v-133q0 -59 -60 -60 h-225q-31 0 -45.5 12.5t-14.5 47.5zM432 461v426q0 96 62.5 151.5t165 55.5t166 -55.5t63.5 -151.5v-426q0 -96 -63.5 -151.5t-166 -55.5t-165 55.5t-62.5 151.5zM739 1526v133q0 59 60 59h225q59 0 59 -59v-133q0 -59 -59 -60h-225q-60 1 -60 60z" />
<glyph unicode="&#xd7;" horiz-adv-x="1101" d="M109 317q-41 41 0 84l245 244l-245 244q-41 43 0 84l112 114q43 41 84 0l246 -245l244 245q43 41 84 0l112 -114q43 -41 0 -84l-243 -244l243 -244q43 -43 0 -84l-112 -114q-41 -41 -84 0l-244 246l-246 -246q-41 -41 -84 0z" />
<glyph unicode="&#xd8;" horiz-adv-x="1320" d="M113 432v483q0 117 50 208t132 145.5t175 82t189 27.5q68 0 146 -16l49 125q23 55 64 55h126q35 0 44.5 -18.5t3.5 -38.5l-82 -207q201 -133 200 -363v-483q0 -117 -51 -208t-133 -145t-176 -82t-191 -28q-76 0 -155 19l-41 -109q-23 -55 -64 -55h-129q-35 0 -44 18.5 t-3 38.5l76 195q-186 131 -186 356zM432 461q0 -29 2 -41l264 672q-6 0 -19 1t-20 1q-102 0 -164.5 -55.5t-62.5 -151.5v-426zM610 256q14 -2 49 -2q102 0 166 55.5t64 151.5v426q0 37 -8 61z" />
<glyph unicode="&#xd9;" horiz-adv-x="1353" d="M135 412v876q0 59 60 60h202q59 0 60 -60v-831q0 -96 58 -149.5t160.5 -53.5t162 53t59.5 150v831q0 59 59 60h203q59 0 60 -60v-876q0 -115 -50.5 -204t-131.5 -139.5t-173 -75t-188 -24.5t-188.5 24.5t-173.5 75t-130 139.5t-49 204zM344 1780.5q10 21.5 45 21.5h260 q35 0 52.5 -10t39.5 -47l138 -221q12 -14 6 -36t-33 -22h-201q-14 0 -26.5 3.5t-22.5 10.5t-15 11t-16.5 16.5t-15.5 16.5l-205 221q-16 14 -6 35.5z" />
<glyph unicode="&#xda;" horiz-adv-x="1353" d="M135 412v876q0 59 60 60h202q59 0 60 -60v-831q0 -96 58 -149.5t160.5 -53.5t162 53t59.5 150v831q0 59 59 60h203q59 0 60 -60v-876q0 -115 -50.5 -204t-131.5 -139.5t-173 -75t-188 -24.5t-188.5 24.5t-173.5 75t-130 139.5t-49 204zM459 1487.5q-6 21.5 6 36.5 l137 221q23 37 40 47t52 10h260q35 0 45.5 -21.5t-6.5 -35.5l-205 -221q-4 -4 -15 -16.5t-16 -16.5t-15.5 -11t-22.5 -10.5t-27 -3.5h-200q-27 0 -33 21.5z" />
<glyph unicode="&#xdb;" horiz-adv-x="1353" d="M135 412v876q0 59 60 60h202q59 0 60 -60v-831q0 -96 58 -149.5t160.5 -53.5t162 53t59.5 150v831q0 59 59 60h203q59 0 60 -60v-876q0 -115 -50.5 -204t-131.5 -139.5t-173 -75t-188 -24.5t-188.5 24.5t-173.5 75t-130 139.5t-49 204zM287 1484.5q-8 18.5 8 35.5 l246 280q20 25 55 25h160q35 0 55 -25l244 -280q16 -16 8 -35t-31 -19h-182q-35 0 -70 43l-104 127l-105 -127q-35 -43 -71 -43h-181q-24 0 -32 18.5z" />
<glyph unicode="&#xdc;" horiz-adv-x="1353" d="M135 412v876q0 59 60 60h202q59 0 60 -60v-831q0 -96 58 -149.5t160.5 -53.5t162 53t59.5 150v831q0 59 59 60h203q59 0 60 -60v-876q0 -115 -50.5 -204t-131.5 -139.5t-173 -75t-188 -24.5t-188.5 24.5t-173.5 75t-130 139.5t-49 204zM252 1526v133q0 35 14.5 47 t44.5 12h226q59 0 59 -59v-133q0 -59 -59 -60h-226q-31 0 -45 12.5t-14 47.5zM758 1526v133q0 59 59 59h225q59 0 60 -59v-133q0 -59 -60 -60h-225q-59 1 -59 60z" />
<glyph unicode="&#xdd;" horiz-adv-x="1236" d="M24.5 1327.5q8.5 20.5 34.5 20.5h236q37 0 56.5 -11.5t39.5 -50.5l240 -440l231 440q18 39 38 50.5t56 11.5h222q27 0 35 -20.5t-3 -37.5l-422 -784v-447q0 -59 -59 -59h-205q-31 0 -45 12.5t-14 46.5v447l-438 784q-11 17 -2.5 37.5zM465 1487.5q-6 21.5 6 36.5l137 221 q23 37 40.5 47t51.5 10h261q35 0 45 -21.5t-7 -35.5l-204 -221q-4 -4 -15.5 -16.5t-16.5 -16.5t-15.5 -11t-22.5 -10.5t-27 -3.5h-200q-27 0 -33 21.5z" />
<glyph unicode="&#xde;" horiz-adv-x="1286" d="M152 59v1233q0 59 59 60h203q59 0 59 -60v-139h199q258 0 397 -129t139 -346t-140 -345t-398 -128h-197v-146q0 -59 -59 -59h-203q-59 0 -59 59zM473 481h197q113 0 171 54.5t58 136.5q0 86 -57.5 139t-171.5 53h-197v-383z" />
<glyph unicode="&#xdf;" horiz-adv-x="1347" d="M152 -176v1057q4 227 166.5 358t406.5 131q236 0 357.5 -108.5t121.5 -266.5q0 -72 -19.5 -129t-48 -89t-48 -46t-33.5 -20q10 -4 26.5 -13.5t46 -35t53 -58.5t42 -87t18.5 -116q0 -190 -134 -293.5t-353 -103.5h-52h-63q-59 0 -59 59v173q0 59 59 59h125q162 0 162 137 q0 66 -47.5 97.5t-118.5 31.5h-55q-59 0 -60 60v155q0 59 60 60h30q170 0 170 127q0 119 -170 118q-135 0 -199.5 -62.5t-64.5 -201.5v-993q0 -59 -59 -60h-201q-59 1 -59 60z" />
<glyph unicode="&#xe0;" d="M39 57l455 1227q25 63 84 64h196q57 0 84 -64l453 -1227q25 -57 -35 -57h-215q-35 0 -50.5 12.5t-27.5 48.5l-57 162h-502l-57 -162q-12 -37 -27.5 -49t-50.5 -12h-215q-60 0 -35 57zM284.5 1838.5q10.5 21.5 45.5 21.5h260q35 0 52 -10.5t40 -47.5l137 -221 q12 -14 6 -35.5t-32 -21.5h-201q-14 0 -26.5 3t-23 10t-15.5 11t-16 16.5t-15 16.5l-205 221q-17 15 -6.5 36.5zM522 510h307l-153 453z" />
<glyph unicode="&#xe1;" d="M39 57l455 1227q25 63 84 64h196q57 0 84 -64l453 -1227q25 -57 -35 -57h-215q-35 0 -50.5 12.5t-27.5 48.5l-57 162h-502l-57 -162q-12 -37 -27.5 -49t-50.5 -12h-215q-60 0 -35 57zM516 1537.5q-6 21.5 6 35.5l137 221q23 37 40.5 47t52.5 10h260q35 0 45 -21.5 t-6 -35.5l-205 -221q-4 -4 -15.5 -16.5t-16.5 -16.5t-15.5 -11t-22.5 -10t-26 -3h-201q-27 0 -33 21.5zM522 510h307l-153 453z" />
<glyph unicode="&#xe2;" d="M39 57l455 1227q25 63 84 64h196q57 0 84 -64l453 -1227q25 -57 -35 -57h-215q-35 0 -50.5 12.5t-27.5 48.5l-57 162h-502l-57 -162q-12 -37 -27.5 -49t-50.5 -12h-215q-60 0 -35 57zM295 1528.5q-8 19.5 8 34.5l246 280q20 25 55 25h160q35 0 55 -25l244 -280 q16 -14 8 -34t-31 -20h-182q-35 0 -70 43l-104 127l-104 -127q-35 -43 -72 -43h-180q-25 0 -33 19.5zM522 510h307l-153 453z" />
<glyph unicode="&#xe3;" d="M39 57l455 1227q25 63 84 64h196q57 0 84 -64l453 -1227q25 -57 -35 -57h-215q-35 0 -50.5 12.5t-27.5 48.5l-57 162h-502l-57 -162q-12 -37 -27.5 -49t-50.5 -12h-215q-60 0 -35 57zM279 1542v2q0 94 61 159.5t160 65.5q66 0 166 -36q121 -43 145 -47q55 -8 72 47 q10 37 51 36h94q25 0 25 -40v-3q0 -94 -61.5 -159.5t-160.5 -65.5q-66 0 -165 37q-121 43 -146 47q-55 8 -71 -47q-10 -37 -52 -37h-94q-24 0 -24 41zM522 510h307l-153 453z" />
<glyph unicode="&#xe4;" d="M39 57l455 1227q25 63 84 64h196q57 0 84 -64l453 -1227q25 -57 -35 -57h-215q-35 0 -50.5 12.5t-27.5 48.5l-57 162h-502l-57 -162q-12 -37 -27.5 -49t-50.5 -12h-215q-60 0 -35 57zM254 1581v133q0 35 14.5 47.5t44.5 12.5h226q59 0 59 -60v-133q0 -59 -59 -59h-226 q-31 0 -45 12t-14 47zM522 510h307l-153 453zM760 1581v133q0 59 59 60h225q59 0 60 -60v-133q0 -59 -60 -59h-225q-59 0 -59 59z" />
<glyph unicode="&#xe5;" d="M39 57l455 1227q16 41 43 55q-92 66 -93 185q0 94 69 161.5t163 67.5t161.5 -67.5t67.5 -161.5q0 -113 -92 -185q25 -12 45 -55l453 -1227q25 -57 -35 -57h-215q-35 0 -50.5 12.5t-27.5 48.5l-57 162h-502l-57 -162q-12 -37 -27.5 -49t-50.5 -12h-215q-60 0 -35 57z M522 510h307l-153 453zM567 1524q0 -43 33 -76t76 -33t74.5 33t31.5 76q0 41 -32.5 73.5t-73.5 32.5q-43 0 -76 -31.5t-33 -74.5z" />
<glyph unicode="&#xe6;" horiz-adv-x="1986" d="M32 18.5q-9 18.5 1 38.5l581 1211q41 82 109 82h1075q59 0 60 -60v-168q0 -59 -60 -59h-586v-227h517q59 0 59 -60v-160q0 -59 -59 -59h-517v-270h621q59 0 59 -60v-168q0 -59 -59 -59h-868q-59 0 -60 49v174h-434l-78 -162q-33 -61 -92 -61h-240q-20 0 -29 18.5z M590 512h315v553h-65z" />
<glyph unicode="&#xe7;" horiz-adv-x="1294" d="M109 432v483q0 115 51 207t133 146.5t175 82t189 27.5q205 0 359.5 -102t173.5 -287q0 -37 -13.5 -48t-50.5 -11h-196q-18 0 -29.5 9t-20 28.5t-12.5 25.5q-63 98 -211 99q-102 0 -164.5 -54.5t-62.5 -150.5v-426q0 -96 62.5 -150.5t164.5 -54.5q193 0 215 139 q4 27 7.5 39t15.5 23.5t33 11.5h200q61 0 62 -70q0 -158 -118 -268.5t-288 -146.5l-30 -74q90 -10 145 -63.5t60.5 -124t-18 -140t-92.5 -117t-161 -47.5h-137q-125 0 -197 76q-43 43 -25.5 96.5t65.5 66.5t98 -24q31 -27 63 -26h129q43 0 61.5 39t1 77.5t-62.5 40.5h-147 q-53 0 -29 58l74 151q-193 23 -333 139.5t-140 319.5z" />
<glyph unicode="&#xe8;" horiz-adv-x="1284" d="M152 59v1229q0 59 59 60h883q59 0 59 -60v-170q0 -59 -59 -59h-619v-223h549q59 0 59 -60v-160q0 -59 -59 -59h-549v-270h653q59 0 60 -60v-168q0 -59 -60 -59h-917q-59 0 -59 59zM327.5 1809.5q10.5 21.5 45.5 21.5h260q35 0 52 -10.5t40 -46.5l137 -222q12 -14 6 -35.5 t-32 -21.5h-201q-14 0 -26.5 3t-23 10.5t-15.5 11.5t-16 16t-15 16l-205 222q-17 14 -6.5 35.5z" />
<glyph unicode="&#xe9;" horiz-adv-x="1284" d="M152 59v1229q0 59 59 60h883q59 0 59 -60v-170q0 -59 -59 -59h-619v-223h549q59 0 59 -60v-160q0 -59 -59 -59h-549v-270h653q59 0 60 -60v-168q0 -59 -60 -59h-917q-59 0 -59 59zM491.5 1526.5q-6.5 21.5 6.5 36.5l137 221q23 37 40 47t52 10h260q35 0 45 -21.5 t-6 -35.5l-205 -221q-4 -4 -15 -16.5t-16.5 -16.5t-15.5 -11.5t-22.5 -10.5t-26.5 -3h-201q-26 0 -32.5 21.5z" />
<glyph unicode="&#xea;" horiz-adv-x="1284" d="M152 59v1229q0 59 59 60h883q59 0 59 -60v-170q0 -59 -59 -59h-619v-223h549q59 0 59 -60v-160q0 -59 -59 -59h-549v-270h653q59 0 60 -60v-168q0 -59 -60 -59h-917q-59 0 -59 59zM266 1525.5q-8 18.5 8 35.5l246 280q20 25 55 25h160q35 0 56 -25l243 -280q16 -16 8 -35 t-30 -19h-183q-35 0 -69 43l-105 127l-104 -127q-35 -43 -72 -43h-180q-25 0 -33 18.5z" />
<glyph unicode="&#xeb;" horiz-adv-x="1284" d="M152 59v1229q0 59 59 60h883q59 0 59 -60v-170q0 -59 -59 -59h-619v-223h549q59 0 59 -60v-160q0 -59 -59 -59h-549v-270h653q59 0 60 -60v-168q0 -59 -60 -59h-917q-59 0 -59 59zM242 1563v133q0 35 14 47t45 12h225q59 0 60 -59v-133q0 -59 -60 -60h-225 q-31 0 -45 12.5t-14 47.5zM748 1563v133q0 59 59 59h225q59 0 60 -59v-133q0 -59 -60 -60h-225q-59 1 -59 60z" />
<glyph unicode="&#xec;" horiz-adv-x="985" d="M129 1815.5q10 21.5 45 21.5h260q35 0 52.5 -10t39.5 -47l138 -221q12 -14 6 -36t-33 -22h-201q-14 0 -26.5 3t-22.5 10.5t-15 11.5t-16.5 16t-15.5 17l-205 221q-16 14 -6 35.5zM143 59v162q0 59 60 60h129v782h-125q-59 0 -60 59v166q0 59 60 60h569q59 0 60 -60v-166 q0 -59 -60 -59h-123v-782h129q59 0 60 -60v-162q0 -59 -60 -59h-579q-60 0 -60 59z" />
<glyph unicode="&#xed;" horiz-adv-x="985" d="M143 59v162q0 59 60 60h129v782h-125q-59 0 -60 59v166q0 59 60 60h569q59 0 60 -60v-166q0 -59 -60 -59h-123v-782h129q59 0 60 -60v-162q0 -59 -60 -59h-579q-60 0 -60 59zM315.5 1510.5q-6.5 21.5 6.5 35.5l137 221q23 37 40 47.5t52 10.5h260q35 0 45 -21.5t-6 -36.5 l-205 -221q-4 -4 -15.5 -16t-16.5 -16.5t-15 -11.5t-22.5 -10t-26.5 -3h-201q-26 0 -32.5 21.5z" />
<glyph unicode="&#xee;" horiz-adv-x="985" d="M104.5 1524.5q-8.5 19.5 8.5 34.5l245 280q23 25 56 25h159q33 0 56 -25l243 -280q16 -14 8 -34t-30 -20h-182q-35 0 -70 43l-104 127l-105 -127q-35 -43 -72 -43h-180q-24 0 -32.5 19.5zM143 59v162q0 59 60 60h129v782h-125q-59 0 -60 59v166q0 59 60 60h569 q59 0 60 -60v-166q0 -59 -60 -59h-123v-782h129q59 0 60 -60v-162q0 -59 -60 -59h-579q-60 0 -60 59z" />
<glyph unicode="&#xef;" horiz-adv-x="985" d="M82 1559v135q0 35 14.5 48t42.5 13h221q59 0 60 -61v-135q0 -59 -60 -60h-221q-57 1 -57 60zM143 59v162q0 59 60 60h129v782h-125q-59 0 -60 59v166q0 59 60 60h569q59 0 60 -60v-166q0 -59 -60 -59h-123v-782h129q59 0 60 -60v-162q0 -59 -60 -59h-579q-60 0 -60 59z M580 1559v135q0 35 14 48t43 13h221q59 0 60 -61v-135q0 -59 -60 -60h-221q-57 1 -57 60z" />
<glyph unicode="&#xf0;" horiz-adv-x="1331" d="M8 582v151q0 59 60 60h84v495q0 59 59 60h459q131 0 251.5 -46.5t210 -156t89.5 -258.5v-426q0 -152 -89.5 -260.5t-210 -154.5t-251.5 -46h-459q-59 0 -59 59v463h-84q-60 1 -60 60zM473 285h197q104 0 166.5 54t62.5 150v369q0 96 -63.5 150.5t-165.5 54.5h-197v-270 h117q59 0 59 -60v-151q0 -59 -59 -60h-117v-237z" />
<glyph unicode="&#xf1;" horiz-adv-x="1396" d="M152 59v1229q0 59 59 60h192q25 0 42.5 -11.5t24.5 -19.5t26 -39l434 -700v710q0 59 59 60h197q59 0 59 -60v-1229q0 -59 -59 -59h-187q-25 0 -42 11.5t-24 19.5t-26 39l-434 702v-713q0 -59 -59 -59h-203q-59 0 -59 59zM303 1536v2q0 94 61.5 159.5t159.5 65.5 q66 0 166 -37q121 -43 146 -47q55 -8 71 47q10 37 51 37h95q25 0 24 -41v-2q0 -94 -61.5 -159.5t-159.5 -65.5q-66 0 -166 37q-121 43 -145 47q-55 8 -72 -47q-10 -37 -51 -37h-94q-25 0 -25 41z" />
<glyph unicode="&#xf2;" horiz-adv-x="1320" d="M113 432v483q0 117 50 208t132 145.5t175 82t189.5 27.5t190.5 -27.5t176 -82t133 -145.5t51 -208v-483q0 -117 -51 -208t-133 -145t-176 -82t-190.5 -28t-189.5 28t-175 82t-132 145t-50 208zM295 1817.5q10 21.5 45 21.5h260q35 0 52.5 -10t39.5 -47l137 -221 q12 -14 6 -36t-32 -22h-201q-14 0 -26.5 3t-22.5 10.5t-15.5 11.5t-16.5 16t-15 17l-205 221q-16 14 -6 35.5zM432 461q0 -96 62.5 -151.5t165 -55.5t166 55.5t63.5 151.5v426q0 96 -63.5 151.5t-166 55.5t-165 -55.5t-62.5 -151.5v-426z" />
<glyph unicode="&#xf3;" horiz-adv-x="1320" d="M113 432v483q0 117 50 208t132 145.5t175 82t189.5 27.5t190.5 -27.5t176 -82t133 -145.5t51 -208v-483q0 -117 -51 -208t-133 -145t-176 -82t-190.5 -28t-189.5 28t-175 82t-132 145t-50 208zM432 461q0 -96 62.5 -151.5t165 -55.5t166 55.5t63.5 151.5v426 q0 96 -63.5 151.5t-166 55.5t-165 -55.5t-62.5 -151.5v-426zM483 1532.5q-6 21.5 6 36.5l138 221q23 37 40 47t52 10h260q35 0 45 -21.5t-6 -35.5l-205 -221q-4 -4 -15.5 -16.5t-16.5 -16.5t-15 -11t-22.5 -10.5t-26.5 -3.5h-201q-27 0 -33 21.5z" />
<glyph unicode="&#xf4;" horiz-adv-x="1320" d="M113 432v483q0 117 50 208t132 145.5t175 82t189.5 27.5t190.5 -27.5t176 -82t133 -145.5t51 -208v-483q0 -117 -51 -208t-133 -145t-176 -82t-190.5 -28t-189.5 28t-175 82t-132 145t-50 208zM272.5 1521.5q-8.5 18.5 8.5 34.5l245 281q23 25 56 25h159q33 0 56 -25 l243 -281q16 -16 8 -34.5t-30 -18.5h-182q-35 0 -70 43l-104 127l-105 -127q-35 -43 -72 -43h-180q-24 0 -32.5 18.5zM432 461q0 -96 62.5 -151.5t165 -55.5t166 55.5t63.5 151.5v426q0 96 -63.5 151.5t-166 55.5t-165 -55.5t-62.5 -151.5v-426z" />
<glyph unicode="&#xf5;" horiz-adv-x="1320" d="M113 432v483q0 117 50 208t132 145.5t175 82t189.5 27.5t190.5 -27.5t176 -82t133 -145.5t51 -208v-483q0 -117 -51 -208t-133 -145t-176 -82t-190.5 -28t-189.5 28t-175 82t-132 145t-50 208zM276 1544v2q0 94 61.5 160t160.5 66q63 0 166 -37q121 -43 145 -47 q55 -8 72 47q10 37 51 37h94q25 0 25 -41v-2q0 -94 -61.5 -160t-160.5 -66q-63 0 -165 37q-121 43 -146 47q-55 8 -72 -47q-10 -37 -51 -37h-94q-25 0 -25 41zM432 461q0 -96 62.5 -151.5t165 -55.5t166 55.5t63.5 151.5v426q0 96 -63.5 151.5t-166 55.5t-165 -55.5 t-62.5 -151.5v-426z" />
<glyph unicode="&#xf6;" horiz-adv-x="1320" d="M113 432v483q0 117 50 208t132 145.5t175 82t189.5 27.5t190.5 -27.5t176 -82t133 -145.5t51 -208v-483q0 -117 -51 -208t-133 -145t-176 -82t-190.5 -28t-189.5 28t-175 82t-132 145t-50 208zM236 1569v133q0 35 14 47t45 12h225q59 0 60 -59v-133q0 -59 -60 -60h-225 q-31 0 -45 12.5t-14 47.5zM432 461q0 -96 62.5 -151.5t165 -55.5t166 55.5t63.5 151.5v426q0 96 -63.5 151.5t-166 55.5t-165 -55.5t-62.5 -151.5v-426zM741 1569v133q0 59 60 59h225q59 0 59 -59v-133q0 -59 -59 -60h-225q-60 1 -60 60z" />
<glyph unicode="&#xf7;" horiz-adv-x="1138" d="M88 487v160q0 59 59 60h830q59 0 59 -60v-160q0 -59 -59 -59h-830q-59 0 -59 59zM377 156q0 76 54 130t132 54q76 0 130.5 -53.5t54.5 -131t-54.5 -132t-130.5 -54.5t-131 54.5t-55 132.5zM377 977q0 76 54 130t132 54q76 0 130.5 -54t54.5 -130t-54.5 -130t-130.5 -54 q-78 0 -132 54t-54 130z" />
<glyph unicode="&#xf8;" horiz-adv-x="1320" d="M113 432v483q0 117 50 208t132 145.5t175 82t189 27.5q68 0 146 -16l49 125q23 55 64 55h126q35 0 44.5 -18.5t3.5 -38.5l-82 -207q201 -133 200 -363v-483q0 -117 -51 -208t-133 -145t-176 -82t-191 -28q-76 0 -155 19l-41 -109q-23 -55 -64 -55h-129q-35 0 -44 18.5 t-3 38.5l76 195q-186 131 -186 356zM432 461q0 -29 2 -41l264 672q-6 0 -19 1t-20 1q-102 0 -164.5 -55.5t-62.5 -151.5v-426zM610 256q14 -2 49 -2q102 0 166 55.5t64 151.5v426q0 37 -8 61z" />
<glyph unicode="&#xf9;" horiz-adv-x="1353" d="M135 412v876q0 59 60 60h202q59 0 60 -60v-831q0 -96 58 -149.5t160.5 -53.5t162 53t59.5 150v831q0 59 59 60h203q59 0 60 -60v-876q0 -115 -50.5 -204t-131.5 -139.5t-173 -75t-188 -24.5t-188.5 24.5t-173.5 75t-130 139.5t-49 204zM317.5 1817.5q10.5 21.5 44.5 21.5 h261q35 0 52 -10t40 -47l137 -221q12 -14 6 -36t-33 -22h-200q-14 0 -26.5 3t-23 10.5t-15.5 11.5t-16.5 16t-15.5 17l-204 221q-17 14 -6.5 35.5z" />
<glyph unicode="&#xfa;" horiz-adv-x="1353" d="M135 412v876q0 59 60 60h202q59 0 60 -60v-831q0 -96 58 -149.5t160.5 -53.5t162 53t59.5 150v831q0 59 59 60h203q59 0 60 -60v-876q0 -115 -50.5 -204t-131.5 -139.5t-173 -75t-188 -24.5t-188.5 24.5t-173.5 75t-130 139.5t-49 204zM504 1512.5q-6 21.5 6 35.5 l137 221q23 37 40.5 47.5t51.5 10.5h260q35 0 45.5 -21.5t-6.5 -36.5l-204 -221q-4 -4 -15.5 -16t-16.5 -16.5t-15.5 -11.5t-22.5 -10t-27 -3h-200q-27 0 -33 21.5z" />
<glyph unicode="&#xfb;" horiz-adv-x="1353" d="M135 412v876q0 59 60 60h202q59 0 60 -60v-831q0 -96 58 -149.5t160.5 -53.5t162 53t59.5 150v831q0 59 59 60h203q59 0 60 -60v-876q0 -115 -50.5 -204t-131.5 -139.5t-173 -75t-188 -24.5t-188.5 24.5t-173.5 75t-130 139.5t-49 204zM301 1528.5q-8 19.5 8 34.5 l246 280q23 25 55 25h160q33 0 55 -25l244 -280q16 -14 8 -34t-30 -20h-183q-35 0 -69 43l-105 127l-104 -127q-35 -43 -72 -43h-180q-25 0 -33 19.5z" />
<glyph unicode="&#xfc;" horiz-adv-x="1353" d="M135 412v876q0 59 60 60h202q59 0 60 -60v-831q0 -96 58 -149.5t160.5 -53.5t162 53t59.5 150v831q0 59 59 60h203q59 0 60 -60v-876q0 -115 -50.5 -204t-131.5 -139.5t-173 -75t-188 -24.5t-188.5 24.5t-173.5 75t-130 139.5t-49 204zM248 1583v133q0 35 14 47.5 t45 12.5h225q59 0 60 -60v-133q0 -59 -60 -59h-225q-31 0 -45 12t-14 47zM754 1583v133q0 59 59 60h225q59 0 60 -60v-133q0 -59 -60 -59h-225q-59 0 -59 59z" />
<glyph unicode="&#xfd;" horiz-adv-x="1236" d="M24.5 1327.5q8.5 20.5 34.5 20.5h236q37 0 56.5 -11.5t39.5 -50.5l240 -440l231 440q18 39 38 50.5t56 11.5h222q27 0 35 -20.5t-3 -37.5l-422 -784v-447q0 -59 -59 -59h-205q-31 0 -45 12.5t-14 46.5v447l-438 784q-11 17 -2.5 37.5zM457 1518.5q-6 21.5 6 35.5l137 222 q23 37 40 47t52 10h260q35 0 45.5 -21.5t-6.5 -35.5l-205 -222q-4 -4 -15 -16t-16 -16t-15.5 -11.5t-22.5 -10.5t-27 -3h-201q-26 0 -32 21.5z" />
<glyph unicode="&#xfe;" horiz-adv-x="1286" d="M152 59v1233q0 59 59 60h203q59 0 59 -60v-139h199q258 0 397 -129t139 -346t-140 -345t-398 -128h-197v-146q0 -59 -59 -59h-203q-59 0 -59 59zM473 481h197q113 0 171 54.5t58 136.5q0 86 -57.5 139t-171.5 53h-197v-383z" />
<glyph unicode="&#xff;" horiz-adv-x="1705" />
<glyph unicode="&#x152;" horiz-adv-x="1890" d="M98 465v418q0 152 87 261t206 156.5t248 47.5h1065q57 0 57 -60v-168q0 -59 -57 -59h-522v-227h450q59 0 60 -60v-160q0 -59 -60 -59h-450v-268h555q59 0 59 -60v-168q0 -59 -59 -59h-1098q-94 2 -186.5 30.5t-173 83t-131 145.5t-50.5 206zM422 510q0 -100 63.5 -167 t163.5 -67h230v797h-230q-100 0 -163.5 -67.5t-63.5 -167.5v-328z" />
<glyph unicode="&#x153;" horiz-adv-x="1890" d="M98 465v418q0 152 87 261t206 156.5t248 47.5h1065q57 0 57 -60v-168q0 -59 -57 -59h-522v-227h450q59 0 60 -60v-160q0 -59 -60 -59h-450v-268h555q59 0 59 -60v-168q0 -59 -59 -59h-1098q-94 2 -186.5 30.5t-173 83t-131 145.5t-50.5 206zM422 510q0 -100 63.5 -167 t163.5 -67h230v797h-230q-100 0 -163.5 -67.5t-63.5 -167.5v-328z" />
<glyph unicode="&#x178;" horiz-adv-x="1255" d="M26.5 1327.5q8.5 20.5 34.5 20.5h236q37 0 56.5 -11.5t39.5 -50.5l240 -440l231 440q20 39 39 50.5t55 11.5h222q27 0 36 -20.5t-4 -37.5l-421 -784v-447q0 -59 -60 -59h-205q-59 0 -59 59v447l-438 784q-11 17 -2.5 37.5zM195 1565v133q0 59 59 59h225q59 0 60 -59v-133 q0 -59 -60 -60h-225q-59 1 -59 60zM702 1565v133q0 59 60 59h225q59 0 60 -59v-133q0 -59 -60 -60h-225q-60 1 -60 60z" />
<glyph unicode="&#x2c6;" horiz-adv-x="1024" d="M119 1008.5q-8 19.5 8 33.5l246 281q20 25 55 25h160q35 0 55 -25l244 -281q16 -14 8 -33.5t-31 -19.5h-182q-35 0 -70 43l-104 127l-105 -127q-35 -43 -71 -43h-180q-25 0 -33 19.5z" />
<glyph unicode="&#x2dc;" horiz-adv-x="974" d="M168 1120v2q0 94 61.5 160t159.5 66q66 0 166 -37q121 -43 145 -47q55 -8 72 47q10 37 51 37h95q25 0 24 -41v-2q0 -94 -61.5 -160t-159.5 -66q-66 0 -166 37q-121 43 -145 47q-55 8 -72 -47q-10 -37 -51 -37h-94q-25 0 -25 41z" />
<glyph unicode="&#x2000;" horiz-adv-x="933" />
<glyph unicode="&#x2001;" horiz-adv-x="1867" />
<glyph unicode="&#x2002;" horiz-adv-x="933" />
<glyph unicode="&#x2003;" horiz-adv-x="1867" />
<glyph unicode="&#x2004;" horiz-adv-x="622" />
<glyph unicode="&#x2005;" horiz-adv-x="466" />
<glyph unicode="&#x2006;" horiz-adv-x="311" />
<glyph unicode="&#x2007;" horiz-adv-x="311" />
<glyph unicode="&#x2008;" horiz-adv-x="233" />
<glyph unicode="&#x2009;" horiz-adv-x="372" />
<glyph unicode="&#x200a;" horiz-adv-x="102" />
<glyph unicode="&#x2010;" horiz-adv-x="888" d="M106 467v160q0 59 60 59h557q59 0 59 -59v-160q0 -59 -59 -59h-557q-60 0 -60 59z" />
<glyph unicode="&#x2011;" horiz-adv-x="888" d="M106 467v160q0 59 60 59h557q59 0 59 -59v-160q0 -59 -59 -59h-557q-60 0 -60 59z" />
<glyph unicode="&#x2012;" horiz-adv-x="888" d="M106 467v160q0 59 60 59h557q59 0 59 -59v-160q0 -59 -59 -59h-557q-60 0 -60 59z" />
<glyph unicode="&#x2013;" horiz-adv-x="1165" d="M100 485v160q0 59 60 60h846q59 0 59 -60v-160q0 -59 -59 -59h-846q-60 0 -60 59z" />
<glyph unicode="&#x2014;" horiz-adv-x="1566" d="M100 485v160q0 59 60 60h1247q59 0 59 -60v-160q0 -59 -59 -59h-1247q-60 0 -60 59z" />
<glyph unicode="&#x2018;" horiz-adv-x="616" d="M135 799v184q0 57 15 96l116 238q20 37 56 37h131q20 0 25 -18.5t-5 -39.5l-113 -211h62q59 0 59 -59v-227q0 -59 -59 -60h-227q-60 1 -60 60z" />
<glyph unicode="&#x2019;" horiz-adv-x="624" d="M135 750q0 8 6 18l123 233h-57q-39 0 -51.5 12.5t-12.5 53.5v215q0 41 12.5 53.5t51.5 12.5h219q39 0 51 -12.5t12 -53.5v-199q0 -39 -14 -75l-117 -238q-23 -37 -55 -37h-149q-19 1 -19 17z" />
<glyph unicode="&#x201a;" horiz-adv-x="616" d="M135 59v228q0 59 60 59h227q59 0 59 -59v-185q0 -57 -14 -96l-117 -237q-23 -37 -55 -37h-131q-20 0 -25.5 18.5t4.5 38.5l113 211h-61q-60 0 -60 59z" />
<glyph unicode="&#x201c;" horiz-adv-x="1118" d="M135 793v184q0 57 15 96l116 238q20 37 56 37h131q20 0 25 -18.5t-7 -39.5l-111 -211h62q59 0 59 -59v-227q0 -59 -59 -60h-227q-60 1 -60 60zM637 793v184q0 57 14 96l117 238q23 37 55 37h131q20 0 25.5 -18.5t-4.5 -39.5l-113 -211h62q59 0 59 -59v-227q0 -59 -59 -60 h-228q-59 1 -59 60z" />
<glyph unicode="&#x201d;" horiz-adv-x="1118" d="M135 1061v227q0 59 60 60h227q59 0 59 -60v-184q0 -57 -14 -96l-117 -238q-23 -37 -55 -37h-131q-20 0 -25.5 18.5t4.5 39.5l113 210h-61q-60 1 -60 60zM637 1061v227q0 59 59 60h228q59 0 59 -60v-184q0 -57 -14 -96l-117 -238q-20 -37 -55 -37h-131q-20 0 -25.5 18.5 t6.5 39.5l111 210h-62q-59 1 -59 60z" />
<glyph unicode="&#x201e;" horiz-adv-x="1118" d="M135 59v228q0 59 60 59h227q59 0 59 -59v-185q0 -57 -14 -96l-117 -237q-23 -37 -55 -37h-131q-20 0 -25.5 18.5t4.5 38.5l113 211h-61q-60 0 -60 59zM637 59v228q0 59 59 59h228q59 0 59 -59v-185q0 -57 -14 -96l-117 -237q-20 -37 -55 -37h-131q-20 0 -25.5 18.5 t6.5 38.5l111 211h-62q-59 0 -59 59z" />
<glyph unicode="&#x2022;" horiz-adv-x="962" d="M147 731q0 113 77 189.5t189.5 76.5t190.5 -76.5t78 -189.5t-78 -190.5t-190.5 -77.5t-189.5 77.5t-77 190.5z" />
<glyph unicode="&#x2026;" horiz-adv-x="1841" d="M117 57v228q0 59 59 59h227q59 0 60 -59v-228q0 -59 -60 -59h-227q-59 0 -59 59zM682 57v228q0 59 59 59h228q59 0 59 -59v-228q0 -59 -59 -59h-228q-59 0 -59 59zM1247 57v228q0 59 60 59h227q59 0 59 -59v-228q0 -59 -59 -59h-227q-60 0 -60 59z" />
<glyph unicode="&#x202f;" horiz-adv-x="372" />
<glyph unicode="&#x2039;" horiz-adv-x="520" d="M61 532v160q0 33 25 56l281 245q14 16 33.5 8t19.5 -32v-181q0 -37 -43 -71l-127 -105l127 -104q43 -35 43 -70v-182q0 -23 -19.5 -31t-33.5 8l-281 244q-25 22 -25 55z" />
<glyph unicode="&#x203a;" horiz-adv-x="503" d="M80 256v182q0 35 43 70l127 104l-127 105q-43 35 -43 71v181q0 25 19.5 33t33.5 -9l281 -245q25 -23 24 -56v-160q0 -33 -24 -55l-281 -244q-14 -16 -33.5 -8t-19.5 31z" />
<glyph unicode="&#x205f;" horiz-adv-x="466" />
<glyph unicode="&#x20ac;" horiz-adv-x="1406" d="M72 498v73q0 59 59 60h109v98h-109q-59 0 -59 59v74q0 59 59 60h109q2 150 91 256t208.5 152t248.5 46q205 0 360 -102.5t173 -286.5q0 -37 -13.5 -48t-50.5 -11h-196q-18 0 -29.5 9t-19.5 28.5t-13 25.5q-63 98 -211 99q-92 0 -152.5 -44.5t-70.5 -123.5h269 q59 0 59 -60v-74q0 -59 -59 -59h-273v-98h273q59 0 59 -60v-73q0 -59 -59 -60h-271q6 -86 67.5 -135t157.5 -49q193 0 216 139q4 27 7 39t15 23.5t33 11.5h201q61 0 61 -70q0 -188 -164 -308t-369 -120q-96 0 -189 28t-175 81t-133 145t-51 207v8h-109q-59 1 -59 60z" />
<glyph unicode="&#x2122;" horiz-adv-x="2746" d="M1328 59v1231q0 59 59 60h203q25 0 42 -8.5t24 -16.5t16.5 -25.5t11.5 -19.5l280 -504l283 504q2 2 8 15.5t11.5 20.5t14.5 16t24.5 13.5t33.5 4.5h197q59 0 59 -60v-1231q0 -59 -59 -59h-197q-59 0 -59 59v695l-205 -359q-27 -43 -59 -43h-103q-31 0 -57 43l-207 359 v-695q0 -59 -59 -59h-203q-59 0 -59 59zM53 1118v170q0 59 60 60h950q59 0 59 -60v-170q0 -59 -59 -59h-313v-1000q0 -59 -60 -59h-203q-59 0 -59 59v1000h-315q-60 0 -60 59z" />
<glyph unicode="&#xe000;" horiz-adv-x="1350" d="M0 1350h1350v-1350h-1350v1350z" />
<glyph unicode="&#xfb01;" horiz-adv-x="2142" d="M1331 59v162q0 59 60 60h129v782h-125q-59 0 -60 59v166q0 59 60 60h569q59 0 60 -60v-166q0 -59 -60 -59h-123v-782h129q59 0 60 -60v-162q0 -59 -60 -59h-579q-60 0 -60 59zM152 59v1229q0 59 59 60h881q59 0 59 -60v-168q0 -59 -59 -59h-619v-240h533q59 0 59 -59 v-162q0 -59 -59 -59h-533v-480q0 -39 -11 -50t-48 -11h-203q-59 0 -59 59z" />
<glyph unicode="&#xfb02;" horiz-adv-x="2424" d="M1385 59v1229q0 59 59 60h203q59 0 59 -60v-1001h590q59 0 59 -60v-168q0 -59 -59 -59h-852q-59 0 -59 59zM152 59v1229q0 59 59 60h881q59 0 59 -60v-168q0 -59 -59 -59h-619v-240h533q59 0 59 -59v-162q0 -59 -59 -59h-533v-480q0 -39 -11 -50t-48 -11h-203 q-59 0 -59 59z" />
<glyph unicode="&#xfb03;" horiz-adv-x="3375" d="M2564 59v162q0 59 60 60h129v782h-125q-59 0 -60 59v166q0 59 60 60h569q59 0 60 -60v-166q0 -59 -60 -59h-123v-782h129q59 0 60 -60v-162q0 -59 -60 -59h-579q-60 0 -60 59zM1385 59v1229q0 59 59 60h881q59 0 59 -60v-168q0 -59 -59 -59h-619v-240h533q59 0 59 -59 v-162q0 -59 -59 -59h-533v-480q0 -39 -11 -50t-48 -11h-203q-59 0 -59 59zM152 59v1229q0 59 59 60h881q59 0 59 -60v-168q0 -59 -59 -59h-619v-240h533q59 0 59 -59v-162q0 -59 -59 -59h-533v-480q0 -39 -11 -50t-48 -11h-203q-59 0 -59 59z" />
<glyph unicode="&#xfb04;" horiz-adv-x="3657" d="M2618 59v1229q0 59 59 60h203q59 0 59 -60v-1001h590q59 0 59 -60v-168q0 -59 -59 -59h-852q-59 0 -59 59zM1385 59v1229q0 59 59 60h881q59 0 59 -60v-168q0 -59 -59 -59h-619v-240h533q59 0 59 -59v-162q0 -59 -59 -59h-533v-480q0 -39 -11 -50t-48 -11h-203 q-59 0 -59 59zM152 59v1229q0 59 59 60h881q59 0 59 -60v-168q0 -59 -59 -59h-619v-240h533q59 0 59 -59v-162q0 -59 -59 -59h-533v-480q0 -39 -11 -50t-48 -11h-203q-59 0 -59 59z" />
</font>
</defs>
</svg>
