<?xml version="1.0" standalone="no"?>
<!DOCTYPE svg PUBLIC "-//W3C//DTD SVG 1.1//EN" "http://www.w3.org/Graphics/SVG/1.1/DTD/svg11.dtd" >
<svg xmlns="http://www.w3.org/2000/svg">
<metadata>
This is a custom SVG webfont generated by Font Squirrel.
Copyright   : Copyright c 2010 by Tension Type All rights reserved
Designer    : Michael Tension
Foundry     : Tension Type
</metadata>
<defs>
<font id="webfontn6D23uZ1" horiz-adv-x="1073" >
<font-face units-per-em="2048" ascent="1536" descent="-512" />
<missing-glyph horiz-adv-x="919" />
<glyph unicode=" "  horiz-adv-x="919" />
<glyph unicode="&#x09;" horiz-adv-x="919" />
<glyph unicode="&#xa0;" horiz-adv-x="919" />
<glyph unicode="!" horiz-adv-x="794" d="M160 -23q0 18 5 32l10 26q5 12 8 27.5t-3 39.5q12 14 32.5 23.5t38 20t28 29t4.5 52.5q37 4 66.5 16.5t78.5 4.5q29 -53 66.5 -95t78.5 -81q-2 -45 -21.5 -71t-44 -46.5t-48 -43t-31.5 -58.5q-41 35 -82 0q-33 6 -53.5 24.5t-38.5 39t-39.5 37.5t-54.5 23zM220 1395 q-3 43 22 78q16 -12 48 -18.5t66.5 -6.5t66.5 6t48 19q-4 -12 -1 -16.5t10 -5.5t16.5 0t15.5 -1q2 -8 0 -19.5t-2 -22.5t4 -17.5t18 -1.5q-23 -78 -35 -141.5t15 -129.5q-14 -23 -19.5 -65.5t-6.5 -87.5t1 -84t5 -52q-29 -45 -36 -110.5t-8.5 -137t-3.5 -143t-16 -129.5 q-18 2 -28.5 -3t-19.5 -11t-21.5 -9t-32.5 3q-29 92 -39.5 201.5t-16.5 222t-15 223.5t-34 205q27 33 24 77t-12.5 89t-12.5 88z" />
<glyph unicode="#" horiz-adv-x="1263" d="M100 358q18 39 19.5 44.5t0.5 5.5t0 5t19 44q27 -4 54 -1l51 6q25 3 47 3t43 -8q18 12 55 6q4 29 -6 59q29 14 32 49t-20 56q25 23 30 46t5 47.5t1 49.5t13 47q-27 -2 -53 -8t-59 -23q-6 10 -37 6t-53 -8q-6 12 2 36t18 50l50 8q22 3 40.5 6t39 6t44.5 7l29 4 q0 18 8 34.5t14.5 33t7.5 34t-14 35.5q39 27 50.5 58.5t13.5 63.5t5 60.5t23 47.5l144 4q-12 -35 -17.5 -42t-7.5 -9t-3 -10.5t-3 -43.5q-33 -27 -45 -43t8 -47q-29 -43 -40 -85t-17 -83l94 -4q47 -2 94 0q0 31 19.5 58.5t27.5 74.5q31 43 36 75t4 55.5t0 42t22 36.5l147 25 q-12 -35 -17 -42t-7 -9t-3 -10.5t-3 -43.5q-18 -29 -24 -46l-13 -44q-8 -41 -11.5 -81t-11.5 -76q14 -2 24.5 -4.5t20.5 -3.5t22.5 1t33.5 7q10 2 17 0t14 -5.5t14.5 -5.5t19.5 2q-18 -39 -19 -44t0 -4t0 -4t-20 -44q-20 2 -63 1t-95 -5q-18 -43 -51 -88q14 -10 15.5 -22.5 t-3 -28t-11.5 -30.5t-9 -30q-20 -25 -30.5 -41t-14.5 -31.5t-7 -31.5t-11 -43q-4 -2 -11 -12q29 2 58.5 8t62.5 22q8 -10 40 -6t54 8q6 -12 -1 -35.5t-17 -50.5l-111 -17q-59 -9 -110 -20q-10 -43 -19.5 -97l-19.5 -107.5t-22.5 -99.5t-24.5 -72h-117q2 23 5 36t6 23t5 24.5 t4 39.5q8 39 20 65l20 50q9 24 14.5 45.5t1.5 52.5l11 19q5 9 9 19q-47 0 -94 3.5t-94 1.5q-6 -39 -25 -92l-37 -104q-18 -52 -33.5 -101.5t-15.5 -81.5h-116q-14 20 -7 30.5t19 18.5t23.5 19.5t4.5 35.5q23 27 32 55.5t11.5 58t-1 58.5l-7.5 60q6 14 17 26q-37 0 -57 3 l-32 5q-13 2 -28.5 1t-42.5 -7q-10 -4 -18.5 -1t-15.5 6t-14.5 5t-19.5 -2zM197 393q12 4 26.5 -1t18.5 18h-39q-2 -4 -3 -8.5t-3 -8.5zM410 471q20 -6 28 -16h2q4 4 15 8q0 6 -1 14t-12 15q-8 -4 -16 -9.5zM473 467q23 2 46.5 -3t39.5 -9q35 6 65.5 6t59.5 -2q6 25 18 63 q29 14 23 41t-10 64q14 33 19 59.5t6 47t2 37.5t10 34q-37 0 -60.5 2t-25.5 8q-25 -4 -46.5 -5t-41.5 -1q-8 -29 -18.5 -58.5t-33.5 -58.5q14 -10 15.5 -17t0.5 -14.5t-1 -14.5t14 -15q-20 -25 -32.5 -44.5t-20.5 -38t-15 -37.5z" />
<glyph unicode="$" horiz-adv-x="1236" d="M123 430q18 18 52 20.5t73 0.5q-4 -39 17.5 -54.5t43.5 -27.5q8 -84 51 -131.5t109 -69.5q14 139 36.5 282.5t37.5 272.5q-96 25 -177 64.5t-141 99.5q8 23 1 42t-19 37l-26 35q-13 18 -17 41q-8 39 -5 81t14 80t30.5 69t44.5 51q-6 29 -3 42t12 21.5t25.5 15.5t36.5 23 t41 36t45.5 36t56.5 25.5t75 7.5q33 6 63.5 10t61.5 6q6 16 16 33q-10 12 -12 28.5t-2 35t-2.5 36t-10.5 29.5q16 37 46 58.5t85 9.5q-4 -12 3.5 -16.5t17.5 -6.5q4 -35 -9.5 -49t-23.5 -31q18 -29 23.5 -59.5t1.5 -65.5q70 -2 143.5 -3t159.5 5q2 -35 0 -75.5t-2 -80.5 t3 -75t19 -59q-10 -20 -12 -49t-9 -53.5t-25.5 -38t-57.5 -5.5q-10 20 -18.5 44t-18.5 44.5t-25.5 35.5t-40.5 22q-8 59 -52 81.5t-103 24.5q-10 -47 -12.5 -93t14.5 -89q-23 -68 -35 -143.5t-18 -153.5q86 -45 206 -62q2 -16 11.5 -25t19.5 -17.5t19.5 -17.5t11.5 -24 q43 6 63.5 -10t33.5 -39l27 -45q13 -23 42 -31q-2 -35 5 -59.5t18 -45.5l23 -43q11 -22 17 -48q2 -23 -3 -35t-9 -20.5t-3 -16.5t15 -22q-16 0 -20 -11.5t-3 -28t3 -33.5t0 -30q-47 -37 -79 -88t-67 -98q-47 -6 -89 -15.5t-56 -48.5q-8 8 -27.5 9.5t-41 -2t-43 -10.5 t-34.5 -17q-29 4 -62 6l-69 4q-2 -8 -2 -26q-12 -25 -19 -53.5t-20.5 -51t-36 -32t-65.5 6.5q-8 35 -11 76t-3 86q-78 2 -159 -2t-155 -14q-10 53 -10 110.5t2 117t1 121.5t-13 128zM391 1147q31 -18 46 -51l32 -65q16 -32 41 -56.5t72 -26.5q6 29 11 60.5t7 62.5t-1 56.5 t-11 43.5q29 41 36 89.5t11 97.5q-31 -4 -58.5 -7t-50.5 -8q-16 -25 -30.5 -52l-29.5 -53t-32.5 -49.5t-42.5 -41.5zM629 145q41 0 83 4.5t85 10.5l91 82q44 41 64 106q4 12 0 15.5t-10 4.5t-10 5t0 16q-4 12 0 15.5t10 5.5t10 5t0 15q-27 92 -95.5 139t-166.5 68 q0 -14 -1 -26.5t-1 -24.5q-20 -92 -34.5 -209t-24.5 -232z" />
<glyph unicode="(" horiz-adv-x="903" d="M119 436q18 8 21 30.5t2 50.5t-4 56.5t1 49.5l32 74q15 36 11 94q8 49 29.5 83.5t46.5 67.5t44.5 70t25.5 88l112 100q55 51 113.5 99.5t125 88t146.5 66.5q12 -18 18.5 -44t2.5 -60q-39 4 -54.5 -17.5t-29.5 -44.5q-76 -14 -112 -65.5t-54 -122.5q-45 -23 -65.5 -69 t-35 -99t-32 -103.5t-53.5 -80.5q4 -53 1 -115t-4 -121t2 -114.5t21 -96.5q4 -98 21.5 -192.5t62.5 -159.5q10 -16 29.5 -24.5t31.5 -26.5q25 -37 40.5 -82t43.5 -74q12 -14 31 -23.5t34 -19.5t26.5 -24.5t11.5 -36.5q0 -10 8 -11h18q10 0 16.5 -3t0.5 -17 q-43 -31 -75 -19.5t-60.5 36t-59 48t-75.5 19.5q-4 33 -21.5 53t-38 36.5t-40 36t-25.5 50.5q-18 -2 -25 8l-12 21q-6 10 -15.5 18t-29.5 4q-29 63 -60 123l-60 121q-30 61 -53.5 128.5t-35.5 145.5z" />
<glyph unicode=")" horiz-adv-x="776" d="M-102 -434q10 70 51 108.5t104 57.5q68 92 134.5 208.5t112.5 251t60.5 280.5t-26.5 296q10 20 10 54t-8 70t-24.5 65.5t-41.5 39.5v72q-47 70 -99 134.5t-87 146.5q-18 4 -37.5 9t-35 13t-23.5 22.5t-8 39.5q123 -29 214 -86.5t162.5 -134t130.5 -167.5l115 -184 q4 -12 2 -18t-6 -9.5t-9 -5.5t-7 -8q33 -31 45 -84t14 -112.5t0 -115.5t4 -93q-31 -90 -68.5 -171t-56.5 -182q-41 -18 -62 -57l-42 -79q-20 -40 -47 -72.5t-78 -40.5q-16 -47 -48 -77t-70 -53.5t-78 -45t-72 -52.5q-18 18 -29.5 14.5t-23 -14t-26.5 -19.5t-46 -1zM354 23 q35 6 41 40h-41v-40z" />
<glyph unicode="," horiz-adv-x="757" d="M104 -391q33 27 72 77t56.5 104t3 102.5t-88.5 70.5v103q18 18 40 32.5t40.5 31.5t30.5 41t12 60q20 8 34.5 19.5t49.5 3.5q25 -35 62 -58.5t69.5 -50t55 -63.5t20.5 -98q-137 -92 -186 -271q-10 0 -16 -5l-10 -10q-5 -5 -13 -8t-23 3q-12 -29 -27.5 -56.5t-37 -47 t-51 -32t-72.5 -10.5q6 16 3 23.5t-8 12.5l-10 10q-6 6 -6 16z" />
<glyph unicode="-" d="M191.5 382q-3.5 11 3.5 34q27 25 50 67.5t52 78.5t65.5 52.5t92.5 -12.5q16 2 11 24.5t-1 37.5q43 8 86 40.5t86 60.5t83 33t77 -40q-4 -23 -13 -42l-16 -39q-8 -19 -12 -42t0 -53q-150 -113 -344 -166q-10 -4 -9.5 -17.5t-1.5 -25.5q-35 4 -55 -7.5t-36.5 -24.5 t-37 -24.5t-57.5 -5.5q2 18 -3 28.5t-11 21t-9.5 21.5z" />
<glyph unicode="." horiz-adv-x="710" d="M168 -18q-6 47 10.5 72.5t38 46t39.5 44t16 66.5q16 4 29 12l26 17q13 8 29.5 12t40.5 0q14 -33 34 -59.5t42.5 -51t46 -47t43.5 -49.5q-14 -25 -34 -45l-37 -41q-18 -20 -33 -45t-21 -57q-35 8 -49 -2.5t-35 -18.5q-31 10 -54.5 28.5t-43.5 40.5l-41 42q-20 21 -47 35z " />
<glyph unicode="/" horiz-adv-x="854" d="M168 61q0 23 4 48.5t2 48.5l47 143l53 164q27 84 49.5 167t36.5 152q20 61 48 132l52 145q26 74 45 150.5t25 150.5q6 4 15 16q35 6 65 8q25 2 47.5 1t26.5 -5q6 -12 -1 -42.5t-3 -57.5q-18 -33 -34.5 -74t-30 -84t-20.5 -83t-5 -66q-47 -109 -85 -245l-75 -274 q-37 -138 -79 -263t-99 -209q-39 2 -56.5 14t-23.5 31q-2 4 5 9t7 9t-8 7t-8 7z" />
<glyph unicode="0" horiz-adv-x="1181" d="M92 474q6 56 18.5 106.5t26 98.5t21.5 103q10 0 15 5l10 11q5 5 12.5 8t23.5 -3q-4 25 5 37t20.5 20t23 17.5t15.5 27.5q49 2 84 21l68 36q34 17 75 27t104 0q14 -14 39 -18t53.5 -4t58.5 2t56 0q35 -35 82 -73t85 -82t59.5 -95t3.5 -113q14 0 16 -12t2 -26.5t3 -26 t20 -9.5q-16 -37 -19.5 -85t-4.5 -98t-8 -95t-30 -74q-20 2 -31.5 -5t-17.5 -19.5t-9 -28.5t-5 -31q-45 -2 -65 -28l-40 -54q-49 6 -79.5 -7t-53.5 -34q-117 -25 -219 -12.5t-180 56.5t-128 120t-65 178q-12 6 -17 19.5t-24 11.5q-10 72 -4 128zM303 377q31 -76 76 -135.5 t131 -81.5q61 2 121.5 7t106.5 23.5t75 54.5t29 101q12 -4 16 0t5 10t5 10.5t17 0.5q0 23 -1 47t0 46.5t5 41t16 30.5q-29 98 -93 157t-157 93q-96 23 -166.5 1.5t-114.5 -77t-62.5 -140.5t-8.5 -189z" />
<glyph unicode="1" horiz-adv-x="915" d="M291 -4v102q16 -2 23.5 7.5t10.5 20.5t8 22.5t19 13.5q-10 61 -3 122.5t15.5 119t9.5 110.5t-22 102q-4 12 1 16.5t11.5 7.5t10.5 9t-2 21q6 14 2 19t-10.5 8t-11.5 7.5t-1 16.5q-2 27 1 46t20 28q-31 39 -44.5 94t-37.5 102q27 14 65.5 31.5t80.5 29t80 10.5t65 -20 q-12 -16 -16 -42l-6 -51l-6 -51q-3 -26 -15 -42q12 -59 19 -138t7 -163t-6 -164t-20 -137q6 -35 20 -60l29 -53q14 -27 24.5 -55.5t10.5 -69.5q-14 4 -17.5 -3t-3.5 -17h-311z" />
<glyph unicode="2" horiz-adv-x="1071" d="M135 37q10 72 57.5 107.5t108.5 58.5l48 -32q24 -15 46 -32q14 14 10 24.5t-15 16.5t-25.5 11.5t-20.5 11.5q-4 41 8.5 63.5t53.5 18.5q-6 20 -3 32.5t9 22.5t11 20.5t3 28.5q27 4 46.5 0t27.5 -20q-4 25 -5 56.5t5 62t23.5 55t47.5 32.5l12.5 62t8.5 65.5t-2 63.5 t-19 59q-47 25 -108.5 40.5t-122.5 16.5t-115.5 -16.5t-89.5 -60.5q4 111 70.5 170t159 77.5t193.5 1t179 -62.5q68 -117 58.5 -226.5t-62.5 -204.5t-133 -171t-154 -125q0 -25 16.5 -45t41 -31.5t51.5 -9.5t47 25q37 -12 79 -11t82 10t75.5 25.5t64.5 36.5q-4 -12 3 -15 t18 -5q-16 -55 -35 -108.5t-27 -119.5q-68 -25 -156 -24.5t-184 9.5t-195.5 21.5t-191.5 14.5z" />
<glyph unicode="3" horiz-adv-x="917" d="M53 -338l228 89q113 44 239 77q37 51 54.5 121.5t17.5 159.5q-18 39 -50 64.5t-71 44t-85 28.5t-95 18q-4 -12 -16.5 -16t-29 -4t-34.5 1t-33 -1q-23 20 -22.5 62t22.5 63q25 -10 39 -7t24.5 12t18.5 19t21 17q10 4 26.5 -1.5t26.5 1.5q16 10 23.5 27.5t27.5 33.5 q12 10 29.5 17.5t32.5 11.5l27 7q11 3 13 7q10 12 21.5 39t20 60.5t14.5 70.5t8 68q-31 35 -57.5 73.5t-67.5 61.5h-270q16 45 59 82t100.5 59.5t124 29.5t131.5 -5q45 -10 83 -34t66 -57.5t47 -73.5t32 -83q-16 -63 -46 -114.5t-67 -95.5t-77 -84l-79 -81q57 -70 166 -82 q10 -35 41 -51l62 -33q-4 -25 2 -40l12 -29q6 -14 10 -32t-2 -44q4 -16 -8 -17.5t-14 -13.5q-14 -143 -77 -237.5t-160 -153.5t-222 -91t-266 -46q-29 34 -21 102z" />
<glyph unicode="4" horiz-adv-x="1251" d="M82 57q18 18 21 52t1 73q31 39 68 72l73 67q36 34 65.5 74.5t41.5 98.5q133 137 255 283l243 296h63q23 -41 16 -76.5t-18.5 -69.5t-16.5 -70t19 -75q-12 0 -19 -19.5t-7 -42t7 -42t19 -19.5q-10 -51 -19 -107t-14.5 -114.5t-2 -116t15.5 -108.5q57 -23 110.5 -26 t96.5 36q-8 -23 9 -20.5t32 0.5q-8 -35 3 -49.5t17 -34.5q-12 -23 -21.5 -46.5t-29.5 -35.5q-39 25 -97.5 20.5t-99.5 -20.5q-6 -61 -6 -111.5t1 -99.5t3 -102.5t2 -122.5q-47 -23 -114.5 -22t-134.5 1q-20 61 -9 130t27 140.5t23.5 144.5t-21.5 144q-8 -35 -33.5 -52 t-62.5 -23.5t-81 -6.5h-87q-43 0 -82 -3t-68 -17q-23 20 -40 17t-35.5 -13l-39 -20.5t-51.5 -4.5q-2 6 -1 14.5t0 15.5t-5 11t-16 0zM332 244q23 -18 60.5 -20.5t78.5 -1.5t80 0t61 -19l39 27q18 13 54 14q-8 49 -3 110.5t8 122t-5.5 109.5t-40.5 73q-20 -35 -48 -60 l-54 -51q-28 -26 -53.5 -53.5t-41.5 -64.5q-55 -27 -90 -70.5t-45 -115.5zM788 244q14 -4 26.5 11t17 34.5t-1 37t-21.5 21.5q-29 -38 -21 -104z" />
<glyph unicode="5" horiz-adv-x="921" d="M115 -410q10 45 48 63.5t80 33t77.5 34t44.5 66.5q23 -6 33 2t18 18.5t18 18.5t33 2q2 57 26.5 89t57.5 56q8 59 13 118t28 102q-12 31 -22.5 61.5l-21.5 60t-25.5 56t-35.5 49.5q-6 6 -20 5t-21 5q-10 10 -13 20.5t-7 21.5t-12 21.5t-29 20.5q-31 14 -58.5 17.5 t-86.5 3.5q-2 14 -11.5 23t-21.5 15.5t-26.5 10.5t-24.5 12q27 117 60.5 221.5t64.5 214.5q31 4 70.5 1t77.5 -4t70.5 2t51.5 22q18 -10 37.5 -18.5t54.5 -2.5q12 12 31.5 33.5t40 35t43 13.5t41.5 -31q-10 -47 -26.5 -91t-14.5 -105q-18 -41 -57 -51.5t-87.5 -7.5 t-100.5 11.5t-94 5.5t-69.5 -27.5t-27.5 -86.5l57 -57l57 -58q14 -4 21.5 1.5t13.5 11.5t13.5 10t25.5 -2q47 -18 82 -49t62.5 -70t52 -80t51.5 -80v-321q-6 -27 -21.5 -46.5t-29 -39t-23.5 -43t-8 -60.5q-59 -55 -130 -99t-120 -107q-37 -4 -77 -24.5t-80 -37t-78.5 -20 t-75.5 29.5zM301 887q31 -4 44 8t20 33q-31 4 -44.5 -8.5t-19.5 -32.5zM487 887h23v41h-23v-41z" />
<glyph unicode="6" horiz-adv-x="1118" d="M95 444.5q7 92.5 38 181.5t72 172t69 150q78 6 84 84h41q-6 18 -1 26.5t11.5 14.5t11.5 14.5t-1 26.5q43 18 75.5 47t62.5 59.5t62.5 58.5t79.5 44q10 2 9.5 15.5t1.5 25.5q37 8 56 33l40 48q20 24 49 39t84 5q10 -29 24.5 -53.5t36.5 -40.5q-4 -33 -19 -54.5t-35 -40.5 l-39 -37q-19 -19 -31 -44h-52q-23 -29 -50 -49.5t-44 -55.5q-43 -4 -65.5 -27.5t-40 -52t-39 -54.5t-62.5 -32q-8 -29 -1 -42t17.5 -23.5t19.5 -21.5t5 -36q76 2 130.5 -16t96.5 -49t76 -69l72 -75q4 -37 13.5 -68.5t17.5 -64t12 -70.5t-2 -87q-23 -20 -21.5 -61.5 t1.5 -82.5q-10 -16 -24 -29l-26 -27q-12 -13 -22 -28.5t-12 -40.5q-39 2 -54.5 -19.5t-27.5 -43.5q-57 -6 -112.5 -22.5t-111 -29t-113 -13.5t-120.5 24q-14 23 -35.5 38t-45.5 27.5t-46.5 26.5t-38.5 33q2 27 -4 45t-17.5 32.5t-23.5 27t-18 30.5q-6 14 -2 19.5t10 8.5 t10 7t2 16q-41 88 -34 180.5zM274.5 344q16.5 -78 60.5 -129t110.5 -78.5t150.5 -38.5q31 8 51.5 25.5t39 37t37.5 37t48 25.5q23 47 23 114v134q-41 29 -63 74l-42 92q-119 31 -145 145q-72 6 -112 -18.5t-65.5 -64.5t-44 -85t-49.5 -79q-16 -113 0.5 -191z" />
<glyph unicode="7" horiz-adv-x="1126" d="M100 -283.5q4 21.5 10.5 41t11.5 40t1 50.5q12 18 18 44t2 61q35 39 64 83t39 103q43 14 69.5 45t49 66t46 67.5t64.5 51.5v61q41 35 75 77t64 86l63 87q32 43 68 82q6 25 2 39t-13 23l-18 19q-9 9 -14 23q-127 -10 -253.5 -19t-233.5 -42q-10 -16 -16 -35.5t-25 -28.5 q-45 20 -44 59.5t20.5 84.5t44 89t30.5 79q86 -35 182.5 -32t192.5 32q41 -25 85 -25t88 11l90 24q46 12 89 10q6 -35 41 -41q2 -82 -26.5 -133t-65.5 -95t-71.5 -90t-43.5 -118q-14 0 -21 -9t-14.5 -17.5t-17.5 -14.5t-31 0q0 -31 -11 -50l-23 -39q-12 -19 -21.5 -42 t-5.5 -55q-37 -20 -60.5 -53t-23.5 -93q-29 -10 -44 -32.5t-29.5 -48t-30 -49t-39.5 -36.5q-6 -66 -31 -110.5t-54.5 -85.5t-54 -87t-28.5 -112q-10 0 -16.5 -5t-11.5 -11t-10 -13.5t-13 -11.5q-23 -6 -34 -1t-19.5 14.5t-16.5 17.5t-23 10q-6 33 -2 54.5z" />
<glyph unicode="8" horiz-adv-x="1015" d="M102 268q4 37 12.5 70t18.5 65.5t14 69.5q20 6 31.5 21.5t21 35t19.5 38t31 28.5q14 8 31.5 16.5t31 22.5t20.5 36.5t1 59.5q-45 57 -84 118.5t-103 100.5q-2 25 -1 51.5t1 52t-4 48t-16 35.5q31 23 40 63.5t21 81.5q39 8 69 41l59 63q30 31 63 47.5t80 -6.5q10 0 15 6 l10 10q5 5 12.5 8t23.5 -3q12 -12 33.5 -17.5t47.5 -5.5t53.5 2.5t52.5 -0.5v-43q41 6 63.5 -9t36.5 -36.5l27.5 -44t37.5 -32.5v-83q0 -42 21 -63q-23 -43 -43.5 -88t-45 -85t-57 -70.5t-81.5 -47.5v-51q51 -43 95 -88t77.5 -101.5t54 -129t22.5 -170.5 q-47 -182 -197.5 -259t-383.5 -73q-23 33 -53 59l-63 53l-62.5 53t-51.5 64q-6 49 -2 86zM310.5 277.5q15.5 -76.5 84.5 -136.5q174 -23 254 46t58 243q-51 39 -87 90t-79 98q-63 16 -94 0t-49.5 -43.5t-35 -58.5t-49.5 -43q-18 -119 -2.5 -195.5zM334 1137q10 -94 50 -158 t95 -113q86 -8 126 32t51.5 102.5t-1 134t-30.5 127.5q-27 0 -47 5l-42 10q-22 5 -45.5 8t-54.5 -3q-6 -25 -18 -43t-28 -35l-31 -32q-15 -15 -25 -35z" />
<glyph unicode="9" horiz-adv-x="1054" d="M85 -393.5q7 26.5 19.5 48l25.5 42t17 49.5q18 4 38 9t35.5 13.5t23.5 22.5t8 39q31 -2 45 11.5t26.5 29.5t28 29.5t45.5 11.5q2 27 12.5 44t26 31.5t31.5 25.5l33 24v51q-20 29 -49 49.5t-54 44.5q-63 12 -110 42t-84 70t-64.5 88t-52.5 101v197q4 51 20.5 92t40 75 t51.5 63l54 61q37 4 65.5 18.5t58.5 27.5t66.5 19t89.5 -4q0 6 8.5 12.5t18.5 9.5t18.5 -1t6.5 -21q12 -4 15 0t5 10.5t5 11.5t16 -1q63 -25 130.5 -64t119 -91t77 -119.5t4.5 -149.5q16 -74 8 -150t-33.5 -146.5t-63.5 -131t-76 -103.5v-61q-10 0 -16 -5l-10 -10 q-5 -5 -13.5 -8.5t-22.5 2.5q-18 -41 -47 -72.5t-62.5 -58t-69.5 -50.5l-71 -48q-25 -49 -61.5 -87t-77.5 -70l-84 -63q-43 -32 -78 -71q-31 4 -48 19.5t-44 23.5q-8 41 -1 67.5zM275.5 650q-3.5 -52 8 -105t29.5 -92q49 -14 69.5 -55.5t35.5 -90.5q31 -2 50 -12t38.5 -22.5 t41 -21.5t56.5 -7q18 25 42 42t45.5 37.5t32.5 50t5 79.5h41q-8 33 3 48t18 34q-18 2 -21.5 16t-0.5 32.5t10 34t12 21.5q-12 53 -39 93t-43 93q-31 -4 -44.5 8.5t-19.5 32.5q-45 6 -79 8.5t-62.5 0t-58 -9.5t-68.5 -19q-2 -12 -2 -25.5t-10 -15.5q-43 -18 -64.5 -60.5 t-25 -94.5z" />
<glyph unicode=":" horiz-adv-x="874" d="M229 133q0 51 19.5 84t46.5 58.5t55.5 49t44.5 58.5h62q8 -16 18 -29l21 -25q10 -13 17 -29.5t7 -41.5q20 6 32.5 3t22 -9t19.5 -11t29 -3q-4 -55 -22.5 -96.5t-47.5 -72t-64.5 -55t-72.5 -47.5q-27 18 -49 40l-44 44l-44 44q-23 22 -50 38zM233 809q0 29 17 72 q33 6 55.5 23.5t42 39t36.5 44t42 38.5q33 -10 53.5 -32.5t39 -46t41 -44t63.5 -22.5v-125q-18 -16 -38 -29.5t-37.5 -29t-30.5 -36t-17 -49.5q-25 -4 -44.5 -3t-36 5t-31.5 9.5t-34 9.5q-4 20 -10 40.5t-16.5 36t-28.5 22.5t-49 3q-17 45 -17 74z" />
<glyph unicode=";" horiz-adv-x="888" d="M193 612q6 51 29.5 86t53.5 63l62 55q31 28 51 65q72 -45 130.5 -102.5t86.5 -145.5q-14 -25 -34.5 -43.5t-42 -35.5t-40 -37.5t-28.5 -49.5h-125q-4 33 -19.5 52.5t-37 34.5t-45 27.5t-41.5 30.5zM210 32.5q3 16.5 9 31t11.5 31t2.5 40.5q23 -6 33 2t18.5 18.5 t18.5 18.5t33 2v82h125q70 -96 166 -166q6 -23 3 -38t-8 -28l-11 -27q-5 -13 -5 -32h-41q-23 -49 -50 -94l-55 -90l-54 -91q-27 -46 -48 -98q-16 -4 -28 -12l-26 -16q-13 -8 -29.5 -12.5t-41.5 0.5q-14 18 -19 42.5t-1 61.5q35 20 62.5 70.5t35.5 105.5t-13.5 100.5 t-84.5 55.5q-6 26 -3 42.5z" />
<glyph unicode="?" horiz-adv-x="1169" d="M248 1483q23 10 31 32.5t12 51.5q72 4 124 -11.5t98 -36.5l91 -44q45 -23 101 -33q-12 -53 43 -41q-8 -25 1 -33t19 -18q39 -14 65.5 -41t49 -57.5t43 -63.5t49.5 -58q2 -27 0 -56.5t-2 -58t4 -53t18 -38.5q-10 -25 -23.5 -45.5t-25.5 -42t-21.5 -45t-11.5 -54.5 q-39 -16 -69.5 -37.5t-65.5 -40t-79 -27.5t-107 1q-23 -23 -26 -44.5t2 -45.5l12 -54q6 -29 2 -63q-23 -16 -53.5 -21.5t-51.5 -21.5q4 12 1 16t-10 5.5t-16.5 0t-15.5 1.5q4 53 2 100t-7 91l-10 88q-5 44 -5 93q23 20 47 19.5t50 -6.5l55 -14q30 -7 65 1q12 6 20.5 17.5 t17.5 22.5t21.5 17.5t34.5 4.5q27 78 21 198q-8 31 -25.5 50.5t-37 38t-37 39t-25.5 48.5q-18 2 -34 7.5t-32 9.5t-35.5 6t-44.5 -2q-6 18 -24.5 31.5t-41 19.5t-44 4t-35.5 -14q-35 2 -46.5 27.5t-14.5 58.5t-5 67t-18 54zM311 94q12 16 18.5 42t2.5 61q10 0 15 5l10 10 q5 5 12.5 8t23.5 -3q10 59 50 87t116 18q16 -61 65.5 -91t102.5 -55q4 -23 2 -38t-7 -28.5t-11 -26.5t-6 -32q-53 -4 -73 -40t-30 -83q-37 -10 -75 -19t-91 -3q-20 18 -34.5 42.5t-28 51.5t-28 51.5t-34.5 42.5z" />
<glyph unicode="@" horiz-adv-x="1572" d="M76 549q-2 35 5 76t16 77.5t20 65.5l14 41l8 19.5t8 15.5q4 8 9 12q2 6 6 14q4 6 6 15.5t6 19.5q6 16 21 35l16 16l8 35q4 12 43 48t86 75l121 98l25 13q10 4 19 8t13 4t15.5 -4t21.5 -8l29 -13l12 13q2 4 8 10l10 9q5 5 9 13q4 6 24.5 13.5t45 12.5t49 9t38.5 8 q29 8 63 6.5t50 -6.5q8 0 23.5 -2t33 -3t32 -3t22.5 -4t27 -2h40h49l31 -16q12 -6 41 -27l62 -45l59 -45q27 -20 35 -25q16 -6 23 -17t30 -34q10 -12 24.5 -58t28.5 -99l35 -136l-14 -30l-13 -17q-6 -8 -12 -15t-10 -17t-8 -37t-7 -55.5t-7.5 -54.5t-8.5 -32t-27 -32 l-50 -57l-49 -55q-24 -26 -27 -28q-10 -4 -35 -16t-72 -23q-25 -6 -65.5 -11t-79.5 -9q-45 -6 -94 -8q-25 6 -46 14q-16 6 -32.5 11t-20.5 10q-4 4 -4 16t4 27l8 36l-14 2q-6 0 -12 -2q-12 -4 -19 -12q-8 -10 -18 -19.5t-29 -21.5q-18 -10 -38.5 -19.5t-30.5 -17.5 q-12 -6 -38 -10t-36 -4q-12 0 -46 1t-59 5q-27 2 -38 1t-21 1q-10 4 -15 12.5t-10 30.5q-4 10 3.5 36t17.5 50q10 29 27 62l8 30q4 12 24 52l44 81l43 78q19 35 24 39q4 4 30 21l56 37q37 23 80 53l55 24l23 -6q4 6 12 15l14 14q8 8 19 14q8 6 14 7t11 1h13h21q14 2 28.5 -3 t28.5 -11q14 -8 31 -16q6 10 14 20l12.5 17.5t10.5 17.5t8 14t8 11l7 6l49 -21q14 0 26 2q10 2 20.5 3t14.5 1q6 0 12.5 -13t1.5 -23q-2 -6 -4 -18.5t-7 -28t-14 -30t-26 -26.5q-16 -12 -34.5 -63.5t-35.5 -110.5l-32 -109q-14 -49 -21 -55q-8 -6 -10 -18l-4 -25 q-2 -14 -2 -31l-49 -49q-14 -14 13.5 -14t66.5 5t75.5 12.5t40.5 9.5q10 4 24.5 14t18.5 16q2 4 11.5 7.5l19.5 7.5t20.5 9t14.5 11q2 6 14 23l27 34l26 34q11 15 13 20q0 2 2 15l4 28q2 14 4 26.5t2 16.5t4 11t8 17q6 10 15 23q0 2 -2 8q-2 4 -4 10.5t-7 14.5q-4 8 -8 37 l-8 59q-4 37 -8 80l-12 31q-4 12 -11.5 23l-13.5 20l-26 24l-42 39l-44 39q-22 18 -29 25q-18 14 -27.5 37.5t-23.5 25.5q-6 2 -38 5t-68 8l-66 10q-31 4 -37 8t-22.5 6t-35 2t-35 -2t-22.5 -6q-14 -6 -48 -6t-69 -2q-16 -2 -33.5 -5.5t-31.5 -7.5q-16 -6 -33 -10l-37 -2 q-4 -6 -10 -10q-4 -4 -8 -7t-9 -8q-8 -8 -14 -33.5t-16 -39.5q-6 -6 -30 -36l-50 -64l-49 -62q-23 -29 -25 -33l-11 -22l-19 -40l-17 -41q-8 -19 -8 -28q0 -8 -3 -38t-7.5 -63.5t-7.5 -64.5t-5 -43t-1 -28.5t3 -32.5l4 -37l-12 -31q-4 -12 7.5 -43t27.5 -65q18 -39 43 -86 q10 -10 18 -23q8 -10 17.5 -24.5l19.5 -28.5q8 -16 25.5 -30.5t38 -29t40 -25.5l31.5 -18q12 -6 31 -14l37 -15l34 -13l21 -7q6 -2 30 -8l51 -13q28 -7 52.5 -12.5t28.5 -5.5t18.5 4.5t30.5 8.5l41 14q10 4 19 6q8 2 18 3t25 -3q25 -6 61.5 1t54.5 15q23 8 45 21q12 8 27 16 q-4 -18 -6 -34q-4 -14 -5 -26.5t-5 -16.5t-19 -12l-29 -14l-30 -13q-14 -6 -19 -7q-4 -2 -18 -5l-35 -7q-20 -4 -39.5 -9t-31.5 -9q-27 -10 -65 -5t-58 5h-17q-6 0 -11 2t-13 4l-25 6q-16 2 -37.5 1t-44 -3t-42 -4t-32.5 2l-32 11q-20 7 -42 17l-43 18l-36 15 q-31 14 -47.5 32t-38.5 34q-12 8 -43 37l-65 61l-60 61q-27 28 -29 33q-4 10 8 15q6 2 13 2q-6 2 -13 8l-11 11q-7 7 -13 18q-6 8 -14.5 37.5t-14.5 68.5t-11 81t-5 77zM637 438q4 -18 7 -23t15 -5q6 0 33 19l58 44l57 46q27 22 31 26q2 4 16 24l31 46l29 49l16 28 q0 6 10 29.5t23 48.5l30 64q-2 6 -8 14q-8 12 -29 20q-20 6 -30.5 7.5t-18.5 1.5q-4 0 -21 -13l-39 -27q-22 -15 -40.5 -32t-22.5 -23q-4 -8 -8 -14l-8 -12q-6 -8 -8 -15q-23 -41 -43 -73l-32 -54q-15 -25 -19 -26q-4 -2 -7.5 -13.5t-5.5 -23.5l-4 -25q-2 -12 -2 -14 q-4 -8 -8 -32t-2 -42z" />
<glyph unicode="A" horiz-adv-x="1552" d="M59 -16v166q49 4 91.5 17t70 38.5t40.5 67.5q8 26 8 60q0 21 -3 44q63 63 93 156.5t53 197.5q51 53 74.5 133t29.5 178q33 37 52.5 88.5t36 103.5t38 101t59.5 80v62q40 45 126 45q19 0 40 -2q43 -74 75 -159t62 -173l60 -174q31 -86 74 -160q-10 -18 -18.5 -37.5 t-2.5 -54.5q12 -6 16.5 -19.5t24.5 -11.5q-2 -35 6.5 -58.5l17.5 -47t16 -50t1 -63.5q12 -6 18.5 -20.5t11.5 -28.5t12 -26.5t22 -16.5q0 -76 24.5 -126t61 -89t75.5 -75t66 -85q-23 8 -20.5 -9.5t-0.5 -31.5q-47 4 -90 4q-29 0 -58 -2q-71 -4 -136.5 -9t-128.5 -6h-9 l-118 13q-4 25 1 41t12 29.5t16.5 26t13.5 28.5h51q37 33 43 83q2 16 2 32q0 35 -9 72q-13 54 -39 104.5t-48 81.5q-25 -2 -52.5 0t-53 2t-47 -5t-34.5 -18q0 20 -13 24.5t-19 16.5q-23 -4 -46.5 -13t-47 -15.5t-45 -7.5t-37.5 16q-25 -6 -38.5 -24.5t-24.5 -38t-24.5 -38 t-37.5 -24.5q-11 -29 -12 -57q0 -8 1 -16l7.5 -69.5t-2 -62.5t-35.5 -53q25 -6 43 -4t35.5 3t38 0t49.5 -9q-16 -18 -20 -53q-2 -20 -2 -42q0 -15 1 -30q-53 18 -117 21q-27 1 -54 1q-37 0 -75 -2q-66 -4 -130.5 -11t-121.5 -9zM330 254q-2 -14 -3 -26q0 -29 15 -44 q20 -20 49 -34q-4 12 1 16t11.5 7t10.5 8t-2 20q-10 6 -17.5 16t-15.5 19.5t-19.5 14.5t-29.5 3zM598 627q41 20 83 21h14l70 -4q42 -5 84 -7h12q36 0 69 10l-2 43q0 36 5 69q7 50 40 75q-53 4 -83 31.5t-45.5 68.5t-22.5 91t-15 99h-64q-14 -66 -36 -123l-45 -115 q-23 -58 -41.5 -120.5t-22.5 -138.5zM918 916q8 -7 24 2q6 2 9 15t2 26.5t-9 20.5q-4 3 -9 3q-6 0 -15 -4q-6 -2 -11 -15q-3 -9 -2 -18q0 -20 11 -30zM1014 502q43 7 42 60q0 11 -1 24q-12 -6 -15.5 -1t-5.5 11t-5 10t-15 0v-104zM1014 668q35 6 41 41q-35 -6 -41 -41z M1014 813h20v41h-20v-41z" />
<glyph unicode="B" horiz-adv-x="1366" d="M43 35q20 -2 24.5 12t16.5 19q-6 14 -9 13t-7.5 -8.5t-9.5 -13.5t-15 -2q6 20 17.5 34.5t2.5 49.5q19 -3 36 -2q33 0 56 10q34 16 51 49t23.5 77t10.5 90.5t9 91.5t21 77q-18 41 -20 93q-1 15 -1 29q0 37 4 75q5 53 16.5 102.5t21.5 86.5q-18 39 -23.5 84t-5.5 90t-1 90 t-11 88q-6 33 -24.5 60.5t-40 51t-44 44t-37.5 40.5q0 12 6 18l10 10q5 5 8 12t-3 24q29 2 60 2q23 0 48 -1q57 -3 113 -4h22q44 0 85 3q51 4 88 20q8 -16 34.5 -21t57.5 -3t57.5 8t36.5 16q12 -12 30.5 -16t41 -5t47 0t47.5 1q90 -23 156.5 -65t113.5 -101q-1 -16 -1 -30 q0 -22 2 -43q3 -34 20 -52q-6 -16 -14.5 -32.5t-13.5 -33t-5 -32t12 -27.5q-35 -66 -77 -122t-109 -85v-73q6 -16 34.5 -11.5t47.5 0.5q25 -31 55 -54l63 -47q32 -24 60.5 -48.5t50.5 -57.5q17 -78 18 -146q0 -29 -3 -56q-10 -92 -46 -164t-95.5 -126t-133.5 -89 q-21 1 -41 1q-56 0 -111 -8l-149 -23q-74 -11 -146 -13h-12q-67 0 -133 22q-16 -12 -48 -18t-65.5 -6t-65.5 6t-48 18q-18 -10 -38.5 -17t-35.5 -24l-56 21q-28 10 -36 41zM497 1149q1 -66 4 -134q1 -29 1 -57q0 -37 -2 -71q26 -1 52 -1q64 0 124 7q84 10 145.5 47t93.5 108 q24 51 24 129q0 29 -3 62q-68 37 -105 104q-39 0 -72 6l-68 10q-34 5 -69 8q-12 1 -25 1q-26 0 -56 -4q-29 -37 -37 -93q-7 -50 -7 -108v-14zM500 221q43 -16 61 -61q102 20 214 34.5t202 49.5l39 48q18 24 30.5 50.5t16.5 59.5q1 11 1 24q0 25 -5 55q-8 41 -29.5 57.5 t-32.5 47.5q-10 31 -22 44t-27.5 19t-34 11.5t-41.5 17.5q-10 6 -13 22.5t-7 20.5q-31 20 -77 28q-36 6 -73 5h-22q-49 -2 -97 -7.5t-83 -5.5v-520z" />
<glyph unicode="C" horiz-adv-x="1548" d="M72 688q16 35 16 52.5t-16 52.5q4 59 19 108t33.5 93t39 88t33.5 94q10 0 15 5l10 10q5 5 12.5 8t23.5 -3v84q39 2 56.5 24.5t30.5 50t30.5 49t58.5 21.5q43 51 111.5 87t150.5 54.5t172 20.5h18q81 0 161 -16q8 -20 18 -35.5t2 -48.5q31 -4 44 8t19 35q6 16 -2 18t-18 1 t-18.5 2t-1.5 20q12 -4 15 3t5 17q35 -15 70 -15h5q38 1 76.5 6t78.5 6h5q38 0 76 -17q-8 -35 2.5 -49.5t18.5 -34.5q-12 -23 -18.5 -62t-6.5 -83t6.5 -83.5t18.5 -62.5q-20 -6 -34.5 -17.5t-49.5 -2.5q-29 70 -79 125t-118.5 89.5t-152.5 45.5q-28 3 -58 3q-58 0 -121 -14 q-29 -31 -64 -50q-25 -14 -65 -13q-17 0 -36 2l-155 -158q-75 -80 -126 -186q11 -61 11 -127q0 -11 -1 -22q-2 -77 -2 -153.5t10.5 -152.5t44.5 -145q41 -31 68 -75t56.5 -86t71.5 -70.5t114 -28.5q-4 -12 0 -16.5t11 -5.5t11 -4t0 -15q51 -5 98 -5q165 0 273 57 q139 73 209 216q37 4 61.5 -1t42.5 -19q4 -26 4 -48q0 -35 -10 -60q-16 -40 -43 -70.5t-55.5 -59.5t-40.5 -74q-78 -12 -140.5 -39.5t-119.5 -62.5q-97 -19 -193 -19h-35q-113 4 -211 32t-175.5 79t-120.5 125q-4 10 -17.5 9t-25.5 1q-27 66 -68 117t-76 111q-2 45 -13 76.5 t-30 58.5q-2 18 0 40.5t2 44t-4 38t-18 22.5z" />
<glyph unicode="D" horiz-adv-x="1673" d="M50 26q-1 14 -1 29q0 20 2 41q10 2 16.5 7.5t13.5 10.5t16 7t26 -2q14 18 33 33l37 27q18 13 35.5 27.5t29.5 35.5q4 46 4 97q0 25 -1 51q-3 79 -5 156q-1 31 -1 60q0 45 2 88q3 72 22 129q4 12 -0.5 15.5t-10.5 5.5t-10 5t0 15q12 12 16.5 34t6.5 44.5t5 43t13 34.5 l-20 132q-10 67 -34 119t-69 84q-42 30 -115 30q-5 0 -10 -1q-2 22 -2 43q0 15 1 29q3 33 22 51q100 -4 191 -7t179 -5q44 -1 88.5 -1t89.5 1q89 2 187 12q55 22 107 22q12 0 24 -1q63 -6 123.5 -25.5t119 -44t115.5 -33.5q4 -41 35 -57t68 -27q-2 -39 19 -53l44 -28 q0 -57 25.5 -88t56.5 -58q10 -61 24.5 -118.5t37.5 -110.5q-6 -18 -17.5 -32.5t-3.5 -49.5q16 -23 21 -59q3 -29 3 -60v-15q-1 -40 -4 -81q-1 -18 -2 -34q0 -22 3 -42q-6 -23 -17.5 -39t-22 -34.5t-17.5 -40t-5 -52.5q-45 -37 -83 -81l-76 -87q-38 -43 -81.5 -81t-101.5 -62 q-80 -6 -171 -19.5t-184 -20.5q-72 -6 -144 -6q-21 0 -41 1q-92 2 -177 24q-16 6 -23 3t-12 -8l-11 -10q-5 -5 -15 -5q-18 20 -50 16t-66 -11t-66 -9h-5q-30 0 -53 24q-16 -23 -41 -36q-15 -8 -39 -8q-15 0 -32 3q-19 19 -22 53zM340 1010h22v43h-22v-43zM482 835v-22 q0 -66 5 -133q6 -78 11 -151q1 -15 0 -28q0 -54 -13 -93q14 -14 18.5 -39t4.5 -52.5t-1 -58.5t1 -57q59 -35 112 -39l38 -2q34 0 69 5l118 15q31 4 66 4t74 -4q8 20 28.5 31.5t46 18t54.5 7.5t57 5q2 12 1 25.5t10 17.5q31 12 48 36.5t32.5 52l32 54.5t42.5 43v18 q0 57 12 105q13 55 29 104q-24 26 -23 56q0 29 8 69l15 72q4 18 4 36.5t-4 37.5h84q-6 25 -4 41t9.5 26.5t16.5 18.5t19 18v41q-29 2 -42 -9t-21 -27.5t-13.5 -36t-17.5 -31.5q-41 2 -61.5 25.5t-36 53l-31.5 57.5t-47 40v53q-72 33 -148.5 63.5t-162.5 51t-180 24.5 q-17 1 -34 1q-77 0 -159 -15q-29 -25 -44.5 -74t-20.5 -106q-2 -26 -2 -53q0 -32 3 -63q6 -58 23 -99q-25 -57 -26 -134z" />
<glyph unicode="E" horiz-adv-x="1400" d="M49 6q-2 11 -2 20q0 11 3 20q5 15 11.5 29.5t10.5 32t-2 44.5q43 14 80.5 32.5t85.5 28.5q-3 16 -3 31q0 18 4 35l13 58q6 28 6 54.5t-20 50.5q16 -6 18 2.5t2 18.5t2 18t18 2q-12 27 -18 76t-7 101v15q0 44 5 86q6 48 20 75q-10 10 -16 30.5t-6 43t6 42t16 29.5 q-10 10 -16 30.5t-6 42t6 42t16 30.5q-12 14 -17 37t-5 50.5t2 56t0 53.5q-16 18 -45 25.5t-57.5 13.5t-53 16.5t-30.5 38.5q8 41 29.5 68.5t51.5 40.5q21 9 44 8q10 0 20 -1q35 -5 72 -32q68 35 148 38q24 1 49 1q58 0 118 -5q86 -7 170 -11q13 -1 26 -1q70 0 132 19 q23 -6 44 -13t30 -28q14 12 38.5 16.5t52 4.5t58.5 -1t57 1q10 -10 14.5 -27.5t6.5 -36t6 -35t14 -26.5q0 -23 -16 -29t-25 -22q18 -43 22 -90q1 -9 0 -18q0 -36 -9 -66q-12 -38 -41 -62.5t-76 -24.5q-25 18 -44 51l-39 65q-19 34 -39.5 65.5t-49.5 51t-68 20.5h-3 q-38 0 -89 -25q-25 20 -48.5 27.5t-49 5t-54 -6.5t-65.5 -4q-53 -35 -63 -92q-6 -36 -7 -74q0 -23 2 -48l12 -127q1 -12 1 -22q0 -48 -19 -83q8 -16 24.5 -23.5t18.5 -29.5h166q37 -24 74 -24h3q38 1 70.5 17.5t58.5 42t42 48.5q4 12 0 15t-10 5t-10.5 5t0.5 16 q14 20 40.5 30t56.5 10t54.5 -13t34.5 -38q-18 -47 -21 -96q-1 -16 0 -33q0 -33 2 -68q4 -52 11.5 -104.5t7.5 -101.5q-35 -23 -71 -43.5t-95 -20.5q-8 41 -28.5 82t-53.5 69t-75 35q-9 2 -18 1q-34 0 -73 -21q-14 20 -36.5 23.5t-48 -1.5t-50.5 -13.5t-43 -8.5l-31 -61 q4 -37 10.5 -80t9.5 -89q2 -23 1.5 -46t-1.5 -46q-3 -46 -20 -91q2 -23 20.5 -38.5t43 -23.5t50.5 -4t42 23q20 -10 58 -16.5t78 -7.5h13q33 0 64 4q37 5 57 20q40 -17 73 -18q22 0 41 8q46 19 81 60.5t61.5 91.5t55.5 87q10 2 19 2q31 0 48 -22q23 -28 28 -70q2 -17 2 -34 q0 -27 -5 -54q-8 -45 -21 -72q16 -18 22 -45q3 -15 3 -30q0 -12 -2 -24q-4 -28 -15.5 -52.5t-27.5 -34.5q-85 -9 -174 -9q-37 0 -75 1q-128 5 -256 12.5t-253 9.5h-28q-110 0 -210 -14q-12 -2 -16 -5.5t-4 -15.5q-20 23 -62 23t-63 -23q-2 14 -13.5 18.5t-24.5 6.5l-26 4 q-14 2 -18 12z" />
<glyph unicode="F" horiz-adv-x="1335" d="M45 35q-4 20 -4 37q0 30 12 49q18 29 49 45t67 26.5t62 28.5q-6 25 -4 53.5t7.5 58l11.5 59.5t8 59q0 10 -11.5 20t-11.5 21q12 113 19.5 227.5t7.5 225t-11 211.5t-36 185q-23 -6 -38 -3t-28.5 8.5t-26 11.5t-30.5 6q8 33 -3 48t-19 34q10 51 57 66q37 12 83 13 q12 0 24 -1q60 -4 124 -18.5t107 -18.5q6 14 24.5 16t40 2t39 3t21.5 22q47 -16 107 -24q53 -6 109 -6h16q65 1 130.5 9.5t124.5 20.5q46 -24 122 -24q16 0 34 1q20 -43 21 -96v-18q0 -44 -4 -84q-5 -49 -8 -91q-1 -7 -1 -15q0 -31 12 -48q-14 -35 -42 -53q-18 -12 -47 -12 q-16 0 -36 4q-25 59 -57 107l-68 99q-102 10 -204.5 18.5t-178.5 45.5l-33 -34q-17 -17 -61 -9q-2 -43 -3 -107l-2 -130q-1 -67 -4 -129t-11 -101q27 -25 73 -30q39 -4 83 -4h18q53 1 108 5q22 2 43 2q31 0 60 -4q63 70 71 187q22 3 40 3q24 0 40 -6q29 -11 66 -18v-518 q-23 -1 -45 -1q-38 0 -72 4q-53 7 -69 48q-6 14 -2 20.5t10 9.5t10 7t2 16q-20 41 -65.5 58.5t-102.5 21.5q-38 3 -80 3q-21 0 -43 -1q-33 -1 -64 -1t-61 1q4 -36 4 -74q0 -26 -2 -54q-4 -69 -4 -134t8.5 -121.5t36.5 -93.5q37 4 63 -1l49 -10q24 -5 45 -5t50 16 q12 -12 17.5 -33.5t5.5 -47t-2 -53.5t0 -52q-70 -17 -145 -17h-17q-84 2 -173 9.5t-183 12.5q-31 2 -62 2q-62 0 -125 -7q-10 35 -43 41z" />
<glyph unicode="G" horiz-adv-x="1648" d="M55 823q16 47 25.5 103.5t22 108.5t34 95.5t62.5 65.5v64q37 27 68 58l66 62q34 31 68.5 58.5t77.5 48.5q68 10 122 19l106 18q51 8 101 15t107 11q45 -25 107.5 -31t130.5 -8l133 -4q66 -2 117 -20v-373q-16 -4 -29 -12l-25 -17q-13 -8 -29.5 -12t-41.5 0 q-10 45 -33.5 75t-52.5 55l-56 52q-28 27 -44 66q-11 -1 -23 -1q-31 0 -60 8l-79 22q-39 10 -77 11h-4q-36 0 -69 -20q-35 24 -63 25q-5 0 -10 -1q-33 -5 -63 -22.5t-59.5 -38t-62.5 -24.5q-18 -2 -13 -24.5t1 -36.5q-43 -27 -68.5 -72t-43 -97.5l-34 -106.5t-40.5 -99 q6 -57 9 -100.5t7 -86.5t10 -94t17 -123q57 -43 114.5 -102t125 -105.5t149.5 -65.5q31 -7 64 -7q58 0 126 20q25 6 34 -2t19 -18l94 55q46 29 103 49q2 49 7 94t9.5 91.5t6.5 94.5q1 16 0 33q0 34 -2 70q-27 27 -68 39t-87 20.5t-92 14.5t-85 20q-4 25 0 40.5t12 28.5 l16 26q8 12 13 28q82 -13 166 -13h12q90 1 176 3q29 1 57 1q56 0 108 -3q79 -4 144 -29v-82q-43 -8 -78.5 -36.5t-57 -69.5t-27.5 -89q-1 -9 -1 -18q0 -39 19 -77q-12 -20 -18.5 -62.5t-6.5 -88.5t6.5 -88t18.5 -62q2 -39 -14.5 -72t-43 -53.5t-58.5 -24.5t-60 14 q-10 -25 -39 -31t-62.5 -7t-66.5 -3t-49 -20q-90 16 -177.5 22.5t-170 15.5t-157.5 27.5t-138 57.5q-2 2 -13.5 28.5t-27.5 34.5q-84 41 -142.5 105.5t-66.5 175.5q-66 61 -88 165q-17 76 -17 168q0 34 2 70z" />
<glyph unicode="H" horiz-adv-x="1824" d="M47 76q43 16 83 35.5t67.5 52.5t39.5 81q5 21 5 47q0 33 -9 75q20 -2 25.5 12t17.5 18q-18 63 -22 135t-5 143l-2 136q-1 66 -14 117q29 59 34 124l2 32q0 48 -12 94q-15 61 -48 117.5t-78 99.5q6 45 54 61.5t110 17.5h11q56 0 113 -10q62 -10 95 -18q6 14 25.5 19t41 3 t41 -8t27.5 -14q0 -45 -16.5 -72.5t-41 -47t-53 -34t-55.5 -32.5q0 -35 -1 -69t-6 -63.5t-17.5 -52t-36.5 -35.5q-2 -25 10 -35t31 -16q-13 -24 -13 -44q0 -11 4 -20q11 -28 40.5 -46.5t73.5 -27.5t91 -10h14q40 0 78 5q44 6 74 18q102 -16 227.5 -16t303.5 -4q1 63 1 123 v59q-1 88 -16.5 162t-51.5 128t-101 79q-4 14 2 21t12 12.5t10.5 13.5t-2.5 24q86 0 155 -1l132 -2q63 -1 123.5 -5t128.5 -12q-6 -18 -1 -26.5t11 -14.5t11 -14q2 -4 3 -10q0 -7 -4 -17q-43 -6 -80.5 -30.5t-62 -59.5t-33.5 -77q-3 -13 -2 -26q0 -29 13 -57 q-21 -21 -21 -64q0 -9 0.5 -28t0.5 -28q0 -24 -1 -46q-7 -60 -7 -134v-19q1 -86 4 -182l6 -193q1 -33 1 -65q0 -64 -4 -124q12 -33 33.5 -54t46.5 -41l48 -40q24 -20 38 -51q-4 -18 -8 -25.5t-6 -13.5t1 -12t13 -21q-90 -12 -165 -15q-45 -2 -87 -2q-28 0 -55 1 q-68 2 -130.5 7t-123.5 9q-4 25 2 40l12 30q6 14 10.5 31.5t-2.5 44.5q18 -4 27.5 0t17 10t17.5 11t31 -1q29 45 42 104.5t18 124.5q3 40 3 81q0 25 -1 50q-3 67 -9 128q-4 23 -25.5 26.5t-48.5 3.5t-50.5 1t-31.5 20q-16 6 -21 2t-8.5 -10t-7.5 -11.5t-16 -1.5 q-76 16 -140.5 16.5t-150.5 -16.5q6 16 -2 18.5t-18.5 2.5t-18.5 2t-2 18q-8 -8 -24.5 -14t-35 -7t-33.5 3t-22 18q-16 -10 -45.5 -13t-63.5 -6t-65.5 -7t-50.5 -16t-19 -35q0 -22 27 -58q-6 -53 -8 -130v-22q0 -65 10 -126q12 -72 45 -126.5t99 -62.5v-123q-57 8 -109 9 h-98q-47 0 -91 1t-87 11q-10 -16 -30.5 -19.5t-45.5 -3.5t-52.5 2t-47.5 0q-12 16 -19 42q-4 15 -4 34q0 13 2 27z" />
<glyph unicode="I" horiz-adv-x="876" d="M100 1425q0 14 10 22l18 14q9 7 14 16.5t1 29.5q7 0 15 1q30 0 63 -7l80 -15q39 -7 74 -9t59 10q20 -16 54 -14t71 10l74 16q27 6 50 6q9 0 17 -1q31 -3 49.5 -25.5t16.5 -73.5q-31 -29 -71 -45.5t-75.5 -38t-60 -54t-22.5 -91.5q-12 2 -16.5 -5.5t-6.5 -17.5l-4 -19.5 t-14 -9.5q12 -6 17 -19t24 -11q-10 -35 -8.5 -62.5t5 -52.5t2.5 -50.5t-20 -54.5q14 -59 19 -121q3 -42 2 -84v-42q-2 -63 -8.5 -122t-12.5 -108q14 -43 23.5 -92t28 -89t53.5 -63q24 -16 64 -17q17 0 38 3q18 -18 21 -52q2 -20 2 -42q0 -15 -1 -31q-14 -4 -34 -2l-40 4 q-19 2 -33.5 -2t-16.5 -20q-106 8 -227 9h-21q-108 0 -209 -9q-27 6 -41 23.5t-18.5 41t1 50t17.5 51.5q23 -6 35 -2t22 10t22.5 11t33.5 1q37 45 55 97.5t25 105.5q5 37 5 74v30q-3 51 -12 99q13 52 14 111q0 61 -8 144q-6 71 -10 145q-1 25 -1 50q0 50 5 99q20 -2 24.5 11 t16.5 19q-31 18 -50 46l-40 56q-20 28 -47 49t-70 25q-10 23 -21.5 42t-21.5 42z" />
<glyph unicode="J" horiz-adv-x="890" d="M59 -561q-1 9 0 18q0 18 2 36q4 28 10.5 56.5t6.5 61.5q61 16 94 61t55.5 100.5t42 114t56.5 99.5q3 49 2 102v53l-4 163q-1 27 -1 53q0 53 3 104q4 76 20 137q-14 29 -20 69l-2 14q0 30 22 52q-23 61 -22.5 129t6.5 137.5t10 136.5q1 12 1 24q0 53 -15 102 q-76 55 -187 71q6 25 1 38t-11 25.5t-11 26t1 35.5q96 18 177 23.5t155.5 5.5t150.5 1t160 11q2 -14 0 -31.5t20 -9.5q-4 -41 -22.5 -66.5t-44 -43t-57 -29.5t-62.5 -27q-17 -75 -17 -152q0 -25 2 -49q7 -103 35 -192q-8 -84 -9 -179v-48q0 -71 2 -142q3 -94 10.5 -177 t17.5 -140q-10 -18 -19.5 -46t-15.5 -56.5t-4 -57t18 -47.5q-16 -4 -19 -18l-6 -30q-3 -15 -9.5 -26.5t-26.5 -9.5q6 -29 1 -47t-11 -34.5t-11.5 -36t1.5 -48.5q-29 -29 -47.5 -66.5t-39 -74.5t-49 -66.5t-73.5 -40.5q-8 -23 -19.5 -42t-21.5 -41q-31 0 -52.5 -9.5 t-42 -20.5t-46.5 -17q-9 -2 -18 -1q-20 0 -48 7q-17 28 -19 55zM471 1147q6 -35 41 -41q-2 8 0 19.5t2 22.5t-4 17q-2 4 -9 4q-4 0 -9 -2q0 -10 -3.5 -17t-17.5 -3z" />
<glyph unicode="K" horiz-adv-x="1533" d="M47 152q5 0 10 -1q61 0 94 25q36 27 52 69t18 96t2 109.5t5 104.5t26 84q-12 6 -16.5 19.5t-24.5 11.5q4 16 2 40l-4 46q-2 23 2 39t20 20q-16 63 -15 119v18q3 63 7 125q2 31 2 62.5t-2 63.5q-4 65 -32 140q-2 18 -26 13.5t-36 -0.5q6 18 2 26.5t-12 11.5t-18.5 5 t-14.5 8q8 18 10 27.5t1 15.5t-5 16.5t-6 32.5q25 -4 54.5 -1t57 4t51 -3t36.5 -20q37 20 83 22q15 1 30 1q31 0 63 -3q47 -4 91 -7q10 -1 20 -1q32 0 55 8v-82q-14 1 -27 1q-29 0 -51 -6q-28 -8 -28 -42q0 -6 1 -14h-41q-12 -35 -18 -85t-6 -102.5t6 -102.5t18 -85 q63 14 111.5 47t91.5 70l88 73q45 37 103 60q-4 25 1 41t12 29.5t15 25.5t15 29q-6 20 -19.5 32.5t-44.5 8.5q4 29 -8 43t-33 18q0 12 5 18l10 10q5 5 8.5 12t-2.5 24q68 -18 139.5 -22.5t141 -4.5t136 -2t121.5 -14q2 -22 3 -43q0 -15 -2 -29q-3 -33 -21 -51 q-25 -2 -49.5 -3t-45 -6.5t-35 -17.5t-16.5 -37q-14 -6 -32.5 -8t-35 -6t-26.5 -14.5t-8 -32.5q-16 -4 -17.5 7t-13.5 13q-16 -27 -33 -63q-16 -4 -17 8t-13 14q-66 -84 -154 -147.5t-168 -132.5q-2 -16 3 -23.5t11.5 -14.5t9.5 -17.5t-3 -28.5q29 -4 45 -20.5t29.5 -35 t28.5 -35t42 -22.5q6 -57 36 -92t64.5 -63.5t65.5 -60.5t41 -85q41 -10 61.5 -40t38 -63.5t40 -61t69.5 -34.5q10 -25 30.5 -41t44 -28l48 -23.5t43.5 -29.5v-105q-16 6 -23.5 3t-12.5 -8l-10 -10q-5 -5 -18 -5q-45 12 -94 16q-39 3 -79 3h-19q-49 -1 -95.5 -6t-85.5 -13 q-12 12 -33.5 17t-47 5t-53 -2t-52.5 0q-6 33 -1 55.5t18.5 36t33 20.5t41.5 13q10 -2 11.5 7t1.5 18.5t2 15.5t18 0q-29 68 -61.5 127t-83.5 100v54q-37 18 -58 50l-41 65q-20 34 -43.5 62.5t-66.5 39.5q6 25 -2.5 35t-18.5 17t-18 17.5t-2 34.5h-51q-20 -55 -28 -129 q-6 -65 -6 -131v-19q1 -77 8 -154t15 -138l49.5 -30.5t44 -36t28.5 -52.5q6 -18 6 -43q0 -16 -3 -35q-16 4 -40 2l-46 -4q-23 -2 -39 2t-20 21q-39 -24 -84 -24h-10q-51 3 -104.5 12.5t-104.5 13.5q-7 1 -14 0q-43 0 -78 -23q-22 20 -22 59q0 15 0.5 44t0.5 43zM274 1292 q31 -4 44.5 8.5t19.5 32.5h-64v-41zM317 670q4 -20 18.5 -32.5t43.5 -8.5q-4 20 -18.5 32.5t-43.5 8.5zM317 1022q-2 -10 -2 -18q0 -26 26 -25q8 0 17 2v41h-41zM376 154q-1 -3 -1 -7q0 -7 4 -16q10 -2 21.5 7t17.5 20.5t3 21.5t-22 13q0 -10 -5 -16l-10 -10q-5 -5 -8 -13z M376 1316q-1 -2 -1 -6q0 -7 4 -18h41q-2 8 0 20.5t2 23t-4 16.5q-3 5 -12 4h-7q0 -12 -5 -18l-10 -10q-5 -5 -8 -12zM399 940q-2 -10 -2 -17q0 -26 27 -26q8 0 18 2v41h-43zM1063 100q2 -6 15 -10q11 -3 22 -3h5q13 1 21 9q4 4 4 10.5t-4 14.5q-2 6 -15 10t-26.5 2t-21.5 -9 q-4 -4 -4 -10t4 -14zM1085 172h21v41h-21v-41z" />
<glyph unicode="L" horiz-adv-x="1466" d="M55 17q-1 17 -1 35t1 36q35 23 74 37q25 9 60 9q20 0 42 -3q45 31 61.5 103.5t17.5 158.5v16q0 78 -9 157q-10 87 -18 145q8 8 15 31.5t8 48t-4 46t-19 29.5q17 45 17 85q0 38 -6 85q-7 56 -7 83q0 33 16 69q-10 51 -34.5 90t-57.5 67.5t-73 51t-83 41.5q8 23 20.5 42 t20.5 42q12 -18 40 -20.5t58.5 -1.5t58.5 -1t40 -20q35 20 81 22q12 1 23 1q35 0 70 -5q47 -6 91 -18.5t77 -20.5q18 8 32.5 20.5t30 22.5t34.5 17q15 5 35 4h13q12 -12 16.5 -30.5t5.5 -41.5t0 -47.5t1 -46.5h-199q-45 -47 -64.5 -109.5t-23.5 -136.5q-2 -33 -2 -67 q0 -43 3 -88l10 -160q4 -57 4 -113q0 -22 -1 -45q-2 -78 -18 -143q10 -20 16.5 -56.5t7.5 -73.5v-11q0 -32 -6 -63q-6 -36 -18 -57q0 -14 8 -21t17.5 -13t14.5 -16.5t1 -30.5q13 1 25 1q22 0 44 -5l64 -13q31 -6 59.5 -6t57.5 23q20 -6 32.5 -19.5t8.5 -44.5h71 q16 2 11.5 25.5t-0.5 38.5q133 4 200.5 69.5t90.5 177.5q33 2 42 27t17 50.5t24 42.5q10 10 30 10q14 0 32 -5q16 -51 20 -114q3 -51 4 -105q0 -14 -1 -27q-1 -69 -4 -139q-1 -30 -1 -58q0 -38 2 -75q-39 -20 -98 -22q-20 -1 -40 -1q-40 0 -80 3q-60 4 -113 7q-12 1 -24 1 q-37 0 -58 -8q-41 12 -85 13t-104 7q-16 2 -21 -10t-20 -10q-31 3 -63 3h-16q-40 -1 -81.5 -1t-84.5 3t-86 15q-29 -18 -73 -20q-29 -1 -61 -2q-16 0 -31.5 0.5t-31.5 0.5q-31 0 -61 -1q-45 -2 -74 -19q-19 18 -21 52zM1196 233q6 -35 41 -40v40h-41z" />
<glyph unicode="M" horiz-adv-x="1955" d="M57 6q-2 15 -2 29q0 46 22 70q28 32 65.5 53.5t74.5 45t49 72.5q-23 47 -30 106q-7 47 -7 95v24q2 60 12.5 119.5t24.5 112.5q-10 33 -17 85t-8 108q0 9 -1 18q0 46 5 88q5 51 21 84q-12 6 -18 26.5t-6 45t6 46t18 28.5q-53 47 -101 101t-108 95q10 23 21.5 42.5 t21.5 41.5q154 -25 303 -30q19 -1 39 0q130 0 258 30q18 -45 64 -63q-25 -82 -105 -103q-3 -30 -3 -56q0 -22 2 -42q5 -43 17.5 -79t31.5 -65l36 -59q-5 -33 -5 -59q0 -33 8 -58q15 -43 39 -78.5t44 -75.5q17 -33 18 -83q0 -10 -1 -21q20 -16 31.5 -38.5t21.5 -48t21.5 -49 t29.5 -40.5q49 33 75 87.5t46.5 114.5t43 117.5t63.5 96.5q-4 33 1 56.5t14 43t17.5 40t10.5 46.5q20 -4 29.5 1.5t16.5 14.5t14 17t22 8q0 12 -6 18l-10 10q-5 5 -8 12t3 24q14 0 20.5 -7t11.5 -14.5t11 -14.5t18 -7q45 7 45 61q0 10 -2 23q-14 0 -20 -6t-11 -14.5 t-11.5 -14.5t-20.5 -6q-27 23 -46 52l-40 58q-20 29 -44 54.5t-56 42.5q10 23 21 42t20 42q29 -3 61 -3q16 0 33 1l101 4q17 1 33 0q32 0 61 -2q44 -4 75 -23q0 14 12.5 17.5t25.5 3.5t24.5 3t9.5 19q27 -18 63 -18q8 0 17 1q47 5 91 9q11 1 21 1q31 0 57 -9q34 -12 42 -68 q-27 -35 -62 -60l-70 -51q-36 -26 -67 -55.5t-51 -70.5q23 -80 30 -188.5t7 -223.5t-5 -225l-10 -195q8 -49 19.5 -95t33 -83t58.5 -59q34 -21 86 -21h10q4 -18 10.5 -37.5t9.5 -38.5q1 -8 1 -16q0 -11 -2 -21q-4 -18 -19 -32q-127 18 -247 18q-27 0 -54 -1 q-145 -5 -260 -17q6 14 0 17t-15 3h-18q-8 0 -8 10q6 29 18 51q7 12 7 29q0 15 -4 35q45 4 73.5 20.5t71.5 20.5q-3 22 -3 41t3 36q6 34 10 63.5t0 53t-31 46.5q33 57 37 124q2 38 3 77q0 29 -2 59q-2 52 -2 105v36q1 72 26 137q-23 27 -29 52.5t-4 53t7 60.5t5 72 q-66 -53 -100.5 -137t-44.5 -195q-41 -23 -63 -60q-19 -32 -20 -86q0 -10 1 -20q-12 6 -16 1t-5 -11t-4.5 -10t-15.5 0q0 -45 -15.5 -74l-31.5 -56.5t-29 -59.5q-9 -24 -9 -57q0 -11 1 -24q-12 -12 -27.5 -33.5t-24.5 -46t-9 -50t20 -46.5q-16 -59 -35.5 -114.5 t-48.5 -102.5h-125q-23 156 -67.5 289t-98.5 259l-108 251q-55 125 -98 260h-52q-23 -66 -25 -139q-2 -37 -2 -74t2 -74q3 -74 5 -143v-20q0 -59 -10 -111q6 -35 41 -41q-4 -25 -2 -53.5t3 -57t-3.5 -51t-18.5 -35.5q10 -47 45 -67l71 -40q36 -19 59 -53q15 -22 16 -58 q0 -19 -5 -42q-35 8 -49 -3t-34 -17q-8 12 -39 19t-65 7t-64.5 -7t-38.5 -19q-25 18 -57.5 17t-68.5 -6t-73 -6h-4q-35 0 -68 15zM307 815q-1 -6 0 -11q0 -51 51 -51q5 0 11 1v61h-62zM451 1332q0 -11 4 -17q2 -4 8 -4q4 0 10 2q-2 8 0 20.5t2 22.5t-4 16q-3 5 -12 5 q-3 0 -6 -1q2 -8 0 -20.5t-2 -23.5z" />
<glyph unicode="N" horiz-adv-x="1804" d="M66 -14v166q27 0 43 11t30.5 23.5t32.5 21.5t49 5q43 57 52 135q8 64 8 132v30l-5 167v15q0 74 19 133q-10 20 -16.5 58.5t-8.5 78.5q-1 10 0 19q0 29 4 57q6 37 21 58q-16 8 -20.5 27.5t-3.5 43t3 49t0 46.5q-14 23 -36.5 36t-47 25t-46 26.5t-35.5 36.5q2 41 15 72 l26 64h331l29 -44q14 -22 53 -20q2 -37 16.5 -61.5t32 -46t34 -45t22.5 -54.5q29 0 47 -10t34 -23l30 -28q15 -14 34 -23q4 -51 28.5 -81.5t55.5 -56.5l60 -51q30 -26 42 -69q55 -31 97.5 -74.5t81.5 -90.5l77 -93q39 -47 86 -84q16 4 24.5 23.5t8.5 43t-6 45t-16 32.5 q16 -6 19 3t2 19t2 18.5t20 2.5q-18 10 -20.5 36.5t-0.5 57.5t0 56.5t-22 35.5q16 66 19 138q0 10 1 20q0 62 -17 116q-19 63 -64.5 107.5t-125.5 54.5q-3 20 -3 37q0 32 10 54q15 34 47 55q88 -16 183 -17q24 0 48 1q121 5 256 16q25 -39 34 -79q3 -12 2 -24q0 -30 -16 -63 q-12 2 -23 1q-45 0 -74 -26q-36 -33 -51 -83q-14 -44 -14 -93q0 -7 1 -13q2 -56 16 -98q-9 -22 -9 -57q0 -12 1 -25q4 -54 8 -116q3 -49 3 -97v-24q-1 -59 -23 -96l9 -72q5 -39 7 -81q1 -17 1 -33q0 -25 -2 -49q-3 -40 -15 -77q10 -47 17 -98t10 -98q2 -35 3 -67 q0 -11 -1 -21q-1 -41 -9 -68h-186q-18 43 -64 62q6 27 3 47t-7 36.5t-10 33t-6 38.5q-29 18 -48 43l-39 51q-19 27 -43 48.5t-57 33.5q-25 33 -45 70t-41.5 72t-50.5 63.5t-69 44.5q-18 55 -55.5 91t-76 69t-72.5 72t-46 100q-27 8 -47.5 22.5t-39 32t-35 36t-34.5 34.5 q-35 -27 -38 -64q-1 -16 -1 -32q0 -22 2 -45q6 -63 6 -89q0 -37 -20 -71q18 -27 20 -76q1 -20 1 -41q0 -32 -2 -66q-3 -58 -5 -118v-23q0 -45 6 -82q6 -41 20.5 -66.5t37 -44t54.5 -30.5t75 -24q12 -29 17 -64q3 -22 3 -43q0 -13 -1 -27q-3 -35 -12 -65.5t-28 -48.5 q-66 29 -135 32q-35 2 -70.5 2.5t-71.5 -2.5q-73 -4 -150 -7h-22q-65 0 -132 16z" />
<glyph unicode="O" horiz-adv-x="1781" d="M61 817q23 250 123.5 418t302.5 238q18 49 60.5 66t94.5 23q44 4 88 4h18h9q47 0 83 9q18 -8 46.5 -10t58.5 2t55.5 16t35.5 35q7 3 12 2q10 0 9 -12q-2 -18 0 -33q147 -4 248.5 -48t146.5 -149q92 -51 149.5 -139t85 -201.5t29.5 -246.5v-27q0 -120 -16 -246 q-12 4 -15.5 0t-4.5 -11t-5 -11t-16 0q2 -16 1 -32q0 -45 -13 -75q-18 -41 -44 -75l-52 -67q-26 -34 -38 -83q-74 -37 -155.5 -83t-172.5 -80t-195 -46q-27 -3 -55 -3q-79 0 -167 25q-12 4 -16 0t-5.5 -10t-5.5 -10q-2 -2 -6 -2t-10 2l-70 35q-21 10 -53 10q-20 0 -43 -4 q-47 23 -87 53l-78 63l-78 62q-40 31 -89 51q2 31 -10 48.5t-25.5 34t-22.5 37t-3 56.5q-51 27 -69.5 76t-21.5 108q-2 44 -3 89q0 7 0.5 20t0.5 20q-1 56 -12 101zM309 771q0 -93 18.5 -175t65.5 -131q0 -12 -12 -13t-8 -18q47 -53 95 -102t91 -105q27 -8 57.5 -11t60.5 -8 t53.5 -14.5t37.5 -29.5h332q14 29 46 38q22 6 50 6q13 0 27 -1q12 14 24.5 31.5t25.5 33t31.5 25.5t43.5 12q6 78 84 84q-1 14 -1 28q0 42 9 85q12 57 22 115q11 63 12 117q0 53 -22 102q2 6 7 8t9.5 5t6.5 9t-2 19q-29 66 -52.5 139.5t-52.5 140.5q-10 2 -23.5 1t-17.5 9 q-10 37 -33.5 57.5t-52.5 38.5l-56 35q-28 17 -44 46q-16 -3 -30 -3q-27 0 -48 10q-33 15 -63.5 31.5t-60.5 22.5q-6 1 -11 1q-26 0 -58 -21q-12 25 -36.5 24.5t-51 -6.5t-48 -10t-29.5 12q-25 -14 -46.5 -31.5t-44 -33t-51 -26.5t-65.5 -11q6 -25 -3.5 -36t-24.5 -18.5 t-31.5 -13.5t-24.5 -16q-10 -12 -12.5 -28.5t-6.5 -33t-13 -29t-30 -14.5q-18 -70 -30.5 -162t-12.5 -185zM414 1409q-2 -10 -3 -17q0 -26 27 -26q8 0 19 2v41h-43zM1513 393q6 -35 43 -41v41h-43z" />
<glyph unicode="P" horiz-adv-x="1271" d="M86 41q8 18 18.5 32.5t1.5 49.5q55 14 87 65.5t47 118.5q11 53 11 109q0 16 -1 33q-4 74 -19 131q35 63 35 152t-10 184.5t-17 189.5q-2 24 -2 47q0 66 15 121q-33 39 -71 69.5t-95 45.5q-2 13 -2 24.5t2 22.5q4 20 11 36.5t16.5 31t15.5 30.5q34 4 67 4q29 0 57 -3 l116 -13q33 -4 64 -4q21 0 40 2q49 4 90 34q113 -14 211 -37.5t178 -64.5t139.5 -104.5t94.5 -155.5q3 -39 3 -75v-18q-1 -44 -6 -85l-11 -81q-5 -40 -7 -83q-33 -49 -63.5 -100.5t-69.5 -94.5t-93 -69.5t-136 -26.5q-8 -18 -31.5 -20t-32.5 -21h-217q4 -14 -3 -17t-17 -5 q6 -20 7 -50t-2 -62t-10.5 -65.5t-15.5 -60.5q-2 -41 16.5 -61.5t46 -30.5t60.5 -16.5t59.5 -19.5t39.5 -39q8 -16 9 -40q0 -15 -3 -33q-23 -8 -41.5 -19t-40.5 -22q-53 20 -120 20h-6q-71 -1 -146 -3q-17 0 -33 -1q-57 0 -112 6q-71 7 -124 42zM461 1264q12 -61 15 -136 t5 -155t5 -159t16 -150q21 -3 40 -4q16 0 29 3q31 5 59.5 11t59.5 11q14 2 30 2q19 0 42 -3q74 27 118 96.5t61 156.5q10 51 10 104q0 37 -5 75q-12 92 -51 168q-45 2 -63.5 29.5t-38.5 54.5q-26 -3 -50 -3t-47 3q-45 6 -83 10q-19 2 -36.5 2t-33.5 -2q-33 -4 -62 -30 q-4 -10 -1 -25.5t3 -29t-4 -22.5t-18 -7z" />
<glyph unicode="Q" horiz-adv-x="1802" d="M68 684q14 20 19 52q4 26 4 57v12q-1 37 -3 76q-1 13 -1 25q0 25 3 46q6 27 17.5 49.5t21.5 46t17.5 50t5.5 63.5q37 20 51 62.5t33 83.5q39 10 66 33l54 48q27 24 58.5 42t79.5 22q6 10 19 15.5t11 25.5q94 20 169 33.5t144 18.5q43 3 87 3q27 0 55 -1q74 -3 168 -13 q4 -16 -7.5 -17t-13.5 -14q23 0 65 -4t85 -16.5t76.5 -35t44.5 -58.5q33 2 53 -6.5t33.5 -26t21.5 -38.5l17 -44q39 -6 58 -31.5t34 -56.5l30 -62q15 -31 44 -47l-2 -47q0 -53 7 -104q9 -74 12 -142q1 -16 1 -30q0 -50 -8 -95q-10 -57 -51 -100q3 -24 3 -45q0 -36 -10 -63 q-14 -43 -36 -78q-16 -4 -17.5 7t-13.5 13q-12 -14 -25.5 -26.5t-25.5 -26.5q-6 -14 -3 -19.5t9 -8.5t11 -7t3 -16q-10 -20 -26 -35l-33 -30q-16 -15 -28.5 -34.5t-16.5 -46.5q-37 -8 -66 -24.5t-55.5 -36t-51 -39.5t-55.5 -35q-6 -14 -3 -19t9.5 -8.5t11.5 -7.5t3 -16 q10 1 19 1q54 0 86 -20q38 -24 61 -65q102 -18 190 -51t172 -72q46 8 105 8q18 0 37 -1q82 -3 166 -4h15q77 0 149 10q79 11 130 49q29 -5 57 -6q40 0 80 11q67 17 131 48l129 63q65 33 132 49q33 -6 43 -40q2 -14 -8 -18l-21 -6q-10 -3 -16 -10t2 -30q-18 -6 -40 -11 t-39.5 -12.5t-29.5 -20.5t-14 -38q-43 -4 -69 -23l-50 -40q-25 -20 -56 -35q-20 -9 -49 -9q-17 0 -36 3q-10 -12 -24.5 -21.5t-6.5 -40.5q-10 -4 -25.5 -1t-29 3t-22.5 -4t-7 -18q-16 -4 -17 7t-14 13q-12 -10 -20 -21.5t-21 -19.5q-23 8 -52.5 7t-62 -9t-65.5 -19.5 t-59 -21.5q-68 6 -176.5 7t-227 10.5t-228.5 33t-177 74.5q-12 4 -15.5 0t-5.5 -10t-5 -10t-15 0q0 10 -5 15l-11 10q-5 5 -8 12.5t3 23.5q-13 -2 -24 -2q-26 0 -41 10q-23 14 -41.5 31.5t-41 32t-61.5 12.5q0 10 -5 15l-10 11q-5 5 -8 12t3 24q-37 -6 -57.5 5t-38 25.5 t-37 25.5t-53.5 7q6 14 3 22.5t-8 13.5l-11 10q-5 5 -5 15q-18 -16 -36.5 -15t-41 7t-49 11.5t-59.5 -3.5q4 12 0 16.5t-10.5 5.5t-11.5 4t1 15q-14 -2 -25 -2q-25 0 -41 10q-24 13 -42.5 31.5t-40 32.5t-60.5 12q-20 27 -38.5 54.5t-63.5 27.5q-18 55 -39.5 107.5 t-64.5 81.5q2 16 1 29q0 21 -3 39q-6 30 -39 34q-4 10 -1 25.5t3 29t-4.5 22.5t-18.5 7q-4 16 7.5 17.5t13.5 13.5l-28 40q-13 19 -15 54zM152 590q12 -10 22 -24.5t39 -6.5v82q-6 1 -11 1q-50 0 -50 -52zM317 725q12 -47 21.5 -96t22 -95.5t31 -85t50.5 -65.5v-53 q20 -4 32.5 -18.5t8.5 -43.5q53 -14 99 -37l90 -45q45 -23 94 -41t113 -22q34 12 72 12q14 0 30 -2q55 -6 104 -10q2 12 1 25.5t10 15.5q35 0 56.5 14.5t40.5 29.5t41.5 27.5t57.5 12.5q-4 25 5.5 36t20.5 21t17 24.5t-2 43.5q25 -6 33 3t13 22.5t11.5 25.5t26.5 10 q6 115 41 207q-12 4 -18 29.5t-6 54.5t6 53.5t18 28.5q-23 57 -26 103q-1 13 -2 28q0 36 8 78q-10 2 -24.5 1t-16.5 9q2 17 2 32q0 36 -15 57q-20 30 -49.5 51.5t-55.5 45t-28 72.5l-106 55q-57 31 -123 52.5t-138 24.5h-14q-67 0 -137 -27q-2 10 -5 17t-15 3 q-23 -23 -55.5 -33t-65.5 -22.5t-57.5 -31.5t-30.5 -58q-37 0 -53.5 -22.5t-26.5 -51.5t-22.5 -56.5t-43.5 -35.5q-12 -49 -16 -107.5t-25 -99.5l11.5 -20.5t3.5 -11.5t-3 -11t-12 -19q18 -4 21.5 -18t0.5 -31.5t-10.5 -33t-11.5 -21.5zM1190 1430h20v43h-20v-43zM1542 580 q-2 -13 -2 -24q0 -54 43 -60v84h-41zM1563 850h41q-2 18 3 28.5t11 19.5t9 20.5t-3 33.5h-41q6 -23 2 -34t-10 -20t-11 -19q-3 -6 -3 -14q0 -7 2 -15zM1604 664q8 -1 15 -2q19 0 29 9q13 11 19 34q-12 0 -17 5l-11 10q-5 5 -12 8q-2 1 -6 1q-7 0 -17 -4v-61z" />
<glyph unicode="R" horiz-adv-x="1609" d="M41 1482q-1 4 -1 9q0 11 7 22q17 27 51 27h4q37 -2 77 -11t78 -15q7 -1 13 0q29 0 45 20q14 -8 41 -7t55.5 1t56.5 -7.5t46 -27.5q47 29 101 34q25 2 50 2q30 0 62 -3q57 -6 116.5 -17.5t114.5 -15.5q18 -25 42 -42l50 -34l50 -33q25 -16 47 -36q8 -25 10 -55.5t5 -62.5 t8.5 -60.5t17.5 -51.5l-49 -100q-25 -51 -55.5 -96t-70.5 -81t-95 -55q0 -35 21 -65l42 -58q20 -28 30.5 -55.5t-10.5 -58.5q0 -16 24 -11t38 1q0 -53 21.5 -84t48 -55.5t50 -53.5t25.5 -78q53 -18 111.5 -32.5t106 -40t74.5 -71.5q21 -36 21 -91q0 -16 -1 -35 q-20 -3 -37 -3q-20 0 -35 4q-29 7 -55.5 17.5t-54.5 18.5q-22 7 -52 6h-16q-18 37 -58.5 53.5t-87.5 28.5q-90 92 -165.5 196.5t-165.5 198.5q0 53 -17.5 89t-47.5 58.5t-70 36t-83 23.5q-45 -20 -63 -49t-24 -65q-3 -18 -2.5 -36.5t2.5 -38.5l10 -80q3 -32 3 -65v-16 q-1 -41 -20 -76q12 -4 16.5 -15.5t5.5 -25.5t0 -30.5t-1 -30.5q20 -14 48 -22.5t56 -15.5l56 -15q27 -7 49 -21v-105q-84 -8 -160 -11q-57 -2 -114 -2h-38q-76 1 -156.5 4t-174.5 9q-4 23 -5 42q0 28 10 48q15 32 43.5 49t66.5 26.5t71 23.5q2 35 2 72q0 28 -1 58 q-3 69 -4 136v34q0 50 2 96q3 62 21 112q-23 49 -24 119q-1 23 -1 47q0 48 3 98q4 76 7 150q1 15 1 30q0 57 -10 105q-12 59 -49 94q-33 31 -97 31h-16q-2 16 -13.5 31.5t-20.5 31t-13 30.5zM481 952q16 -43 36 -78.5t69 -44.5l110 40q55 19 103.5 46t85.5 65t53 97 q-10 20 -16.5 46t-9.5 54l-6 55q-3 28 -9 52q-16 25 -43 40t-57.5 25.5t-63.5 19.5t-63 20q-16 -6 -37 -8.5t-42.5 -3.5t-44 -7t-44.5 -22q-6 -88 -6 -163q0 -28 1 -55v-27q0 -81 -16 -151z" />
<glyph unicode="S" horiz-adv-x="1236" d="M80 434q18 18 52 21q17 1 35 1t38 -1q-4 -39 17.5 -54.5t43.5 -27.5q8 -84 53.5 -133.5t112.5 -70.5q65 -21 144 -21h8q84 1 170 16l91 82q44 41 64 106q4 12 0 15.5t-10 4.5t-10 5t0 16q-4 12 0 15.5t10 5.5t10 5t0 15q-27 94 -97.5 141.5t-172.5 65.5q0 14 -6 20.5 t-14.5 11.5t-14.5 11t-6 21q-127 23 -233.5 66.5t-182.5 119.5q8 23 1 42t-19 37l-26 36q-13 18 -17 41q-6 28 -6 58q0 11 1 22q3 42 14 80t30.5 69t44.5 51q-6 29 -3 42t12 21.5t25.5 15.5t36.5 24q20 16 41 35.5t45.5 36t56.5 25.5q26 8 59 7h16q70 12 135 15q39 2 79 2 q27 0 54 -1q68 -2 139.5 -2t153.5 6q1 -17 1 -36t-1 -39q-2 -41 -2 -81t3 -75t19 -59q-10 -20 -12 -49t-9 -53.5t-25.5 -38t-57.5 -5.5q-10 20 -18.5 44t-18.5 44.5t-25.5 35.5t-40.5 22q-6 57 -49 79.5t-101 24.5h-22q-49 0 -100 -7q-63 -9 -113 -13q-16 -25 -30.5 -52.5 t-29.5 -53t-32.5 -49.5t-42.5 -42q33 -20 49.5 -57t36 -71t50.5 -56q23 -17 63 -17q14 0 31 2q104 -100 290 -123q2 -16 11.5 -25t19.5 -17.5t19.5 -17.5t11.5 -24q12 2 22 2q27 0 41 -12q20 -16 34 -39l27 -45q13 -23 42 -30q-2 -35 5 -59.5t18 -46.5l23 -43q11 -22 17 -48 q1 -6 1 -12q0 -14 -4 -23q-5 -12 -9 -20.5t-3 -16.5t15 -22q-16 0 -20 -11.5t-3 -28t3 -33.5t0 -30q-47 -37 -79 -88t-67 -98q-47 -6 -89 -15.5t-56 -48.5q-8 8 -27.5 9.5t-41 -1.5t-43 -10.5t-34.5 -17.5q-55 6 -127.5 10t-152.5 5q-20 0 -40 1q-60 0 -123 -3 q-83 -3 -159 -13q-10 53 -10 110.5t2 116.5l2 81q0 20 -1 41q-1 62 -13 128z" />
<glyph unicode="T" horiz-adv-x="1644" d="M96 1198q4 45 22.5 92t35.5 78q-25 23 -17 55.5t37 49.5q4 12 0 15t-10 5t-11.5 5t1.5 15q20 49 68 53q9 1 19 0q40 0 85 -11l110 -26q23 -6 43 -6q27 0 47 11q39 -27 73 -31q19 -2 38 -2q14 0 27 1q31 3 60 4h4q28 0 58 -13q6 12 31 18.5t52.5 6.5t52 -6.5t30.5 -18.5 q38 19 86 19q9 0 18 -1q58 -4 114 -10q28 -3 55 -3t52 3q50 6 79 53q27 -2 57.5 0t59 2t52 -4t40.5 -18q2 -11 1 -22q0 -26 -11 -47l-30 -57q-15 -28 -21.5 -54.5t18.5 -57.5q-14 -47 -23.5 -96t-17.5 -102q-16 6 -23.5 3t-12.5 -8l-10 -11q-5 -5 -16 -5q8 23 -10 21t-33 0 q-6 41 -23 69l-36 58q-18 29 -32 61q-12 28 -11 69v13q-18 6 -27.5 2t-12.5 -13t-2 -23.5t1 -26.5q-6 -2 -15.5 -1t-16.5 0t-11 -5.5t0 -16.5q-66 18 -135.5 30.5t-132.5 33.5l18 -76q3 -11 3 -21q0 -28 -21 -49q10 -14 16 -45q7 -37 7 -74q0 -29 -5 -55q-6 -31 -18 -43 q15 -81 15 -176v-12l-2 -208v-27q0 -92 6 -180q7 -101 42 -185q23 -20 51.5 -35l55 -30t48 -36.5t31.5 -54.5q-12 -23 -21 -46.5t-30 -37.5q-39 25 -90 33q-41 7 -83 6h-21q-53 -2 -106.5 -8l-94.5 -11q-41 12 -70.5 13.5t-60.5 -2.5l-65 -8q-23 -3 -52 -3h-31q-6 37 -18 67 l-25 58q23 -8 21 9.5t0 31.5q98 6 171 34t120 81q-18 25 -21 67q-1 17 -1 33q0 25 2 51q3 42 6 77.5t-7 52.5q29 188 34 388q1 23 1 46q0 174 -35 334q-18 2 -42.5 0t-47 -2t-40 4t-25.5 18q-45 -10 -88 -22.5t-79 -33t-60.5 -52t-33.5 -78.5q-23 2 -35 -5.5t-20 -17.5 t-16 -22.5t-21 -18.5q-55 6 -73 41q-15 28 -15 64q-1 8 0 16z" />
<glyph unicode="U" horiz-adv-x="1597" d="M43 1389q-2 15 -2 27q0 46 22 77q33 6 62 0t53.5 -13t47 -7t44.5 20q45 -20 81 -22h10q31 0 61 6l73 12q28 5 63 5q12 0 24 -1q-4 -35 2 -60.5t18 -43.5q-10 -29 -33.5 -44.5t-49 -28.5t-48 -29.5t-35.5 -43.5q3 -31 3 -65q0 -17 -1 -34l-4 -105q-1 -17 -1 -34 q0 -34 3 -65q4 -47 21 -80q-20 -54 -20 -109v-15q3 -62 15 -127l22 -132q7 -44 7 -88q0 -24 -2 -49q23 -43 54.5 -75t48.5 -81h63q-2 -16 7.5 -23t20.5 -10.5t21.5 -8.5t12.5 -19h165q59 6 99.5 30.5t71 58.5t58 72t62.5 68q-1 11 -1 22q0 27 7 54l21 73q12 44 12 74 q0 29 -18 56q14 29 20 69q1 8 1 15q0 31 -21 51q10 20 21.5 49t17.5 61.5t3 63.5t-22 55q25 0 22 6.5t-10.5 13.5t-10.5 14t20 7q-18 37 -21.5 91.5t-12.5 102.5t-37 78q-21 22 -63 22q-15 0 -32 -3q-6 35 -41 41q-1 16 -1 30q0 22 2 43q3 34 19 52q26 3 53 3q35 0 68 -5 q59 -8 116 -14q31 -3 59 -4q24 0 47 3q50 5 94 37q10 0 15 -5l10 -10q5 -5 12.5 -8t23.5 3q2 -37 -12.5 -64.5t-36 -51t-45 -45t-37.5 -46.5q-15 -26 -15 -57q0 -29 23 -68q-12 -10 -17 -30.5t-5 -43t5 -42t17 -29.5q-18 -45 -23 -105q-3 -37 -4 -75q0 -23 2 -48 q3 -63 11 -123l14 -106q-23 -25 -30 -49.5t-7 -53t5 -59t10 -67.5q-41 -18 -59.5 -58.5t-35 -81t-42 -72.5t-80.5 -36q-41 -43 -102 -66q-51 -19 -122 -19q-13 0 -26 1q-4 -10 -12.5 -14t-17.5 -7.5l-18.5 -7.5t-13.5 -12h-51q-25 0 -31 20q-12 4 -18 2t-9 -6l-6.5 -9 t-9.5 -7q-31 10 -48 17.5t-44 -17.5q-31 8 -57 21l-52 27q-26 13 -54.5 23.5t-65.5 12.5v41q-41 2 -59.5 24.5t-31 51t-27.5 54.5t-48 36q-6 98 -25.5 182t-36.5 170q23 20 24 63v16q0 34 -3 71t-3 72v17q1 42 23 62q-12 8 -18 38t-7 61.5t5 60.5t20 37q-12 109 -56 183.5 t-130 107.5z" />
<glyph unicode="V" horiz-adv-x="1792" d="M43 1380v103q78 8 141.5 11t132 4t150.5 2t199 5q16 -45 16 -73.5t-16 -71.5q-35 -12 -76 -18.5t-70 -24.5v-13q0 -88 26 -151q28 -68 61.5 -128t63 -124.5t36.5 -152.5q12 -6 17 -19.5t24 -11.5v-74q4 -10 17 -9t26 -1q-2 -17 -2 -33q0 -20 3 -37q5 -31 39 -35 q-5 -22 -4 -39q0 -13 2 -24q6 -25 17.5 -44.5t25 -36.5t21.5 -42q51 59 77.5 140t47.5 171q25 6 35 27.5t16 46.5t16.5 46.5t36.5 25.5q8 72 28.5 133t45.5 119l49 114q25 57 43 121q-43 29 -80 61.5t-86 53.5v104q44 13 99 13h28q72 -4 146.5 -10.5t149.5 -6.5t136 25 q8 -16 19.5 -37t17.5 -43q5 -17 5 -34q0 -6 -1 -11q-2 -23 -20 -41q-70 -6 -115 -36t-74.5 -75t-48 -103.5t-30.5 -119.5q-27 -12 -39.5 -37.5t-23.5 -54.5t-23.5 -55.5t-38.5 -38.5q-2 -78 -28 -132.5t-56.5 -104.5t-56 -105.5t-25.5 -135.5q-14 -2 -19.5 -12t-9.5 -21.5 t-10 -20.5t-25 -7v-63q-12 6 -15 0.5t-5 -11.5t-5 -10t-16 0q-8 -55 -23.5 -101t-41 -82t-65.5 -57.5t-97 -27.5q-16 23 -43 34t-41 37q-4 12 -2 17.5t6 8.5t9 6t8 9q-41 43 -65 103.5t-45.5 124t-47 122t-70.5 97.5q2 10 7 16t9.5 13.5t6.5 17.5t-2 27q-16 10 -27.5 28.5 t-34.5 22.5q-12 39 -21 79t-22.5 75.5t-32 66.5t-49.5 49q2 25 -3 41.5t-11 32.5t-9 34.5t3 47.5q-12 6 -17.5 19.5t-25.5 11.5q2 13 2 23q0 53 -43 58q0 51 -20.5 83t-51.5 52.5t-67.5 35.5t-67.5 38z" />
<glyph unicode="W" horiz-adv-x="2447" d="M33 1366v125q39 17 72 17q4 0 8 -1q37 -2 70.5 -8t67.5 -8h6q31 0 65 20q36 -21 73 -20h7q42 2 83 7q29 4 57 4q11 0 22 -1q38 -2 69 -33q-10 -57 -44 -89.5t-79 -55.5q-6 -33 -3 -56.5t8 -44.5l10 -44q5 -23 5 -52q43 -18 59.5 -62t28 -94t25.5 -96.5t53 -68.5 q6 -57 26.5 -100t44.5 -83t44 -82t31 -98q12 -14 25 -26l26 -25l115 201q57 98 102 213h43q-6 53 -19.5 96t-43.5 70l-47 135q-24 68 -55.5 127t-76.5 105t-112 69v84q40 11 85 11h8q50 -1 106.5 -6t115.5 -9l40 -2q40 0 81 6q8 -20 18.5 -34.5t1.5 -49.5q-14 0 -20 -8 l-12 -17q-6 -8 -13.5 -14t-25.5 -2q-6 -4 -9.5 -12t-5.5 -16.5t-5 -15.5t-11 -9q23 -16 33 -47t17 -64t17.5 -62.5t34.5 -43.5q27 16 57.5 55t49.5 85q17 44 17 87q0 50 -40 84q-2 15 -1 28q0 46 22 76q31 -15 68 -15h5q40 1 86 7t95 11q19 2 38 2l60 -5q-2 -18 3 -28 t11.5 -20.5t9.5 -23t-3 -32.5q-23 -23 -51.5 -37t-56.5 -30.5t-50.5 -39t-28.5 -59.5h-41q-37 -78 -70.5 -157.5t-95.5 -133.5l40 -121q19 -61 43 -118.5t53.5 -107.5t70.5 -89v-72q4 -6 12.5 -9t16.5 -5t15 -5t9 -11q23 10 29 38q4 17 4 36q0 13 -2 28q43 7 43 61 q0 11 -2 23q74 47 84 166q31 6 43 29.5t20.5 51t19.5 52.5t40 33q8 53 27 96l37 85q18 42 30 90q11 41 11 94q0 9 -1 18q-20 27 -45.5 44t-58.5 29v105q35 6 43 41q20 -20 51 -20.5t51 20.5q23 -16 57 -20.5t72.5 -4.5t79.5 3q25 2 48 2q15 0 29 -1q36 -2 64.5 -11t45.5 -32 q-10 -45 -39 -69.5t-62.5 -45t-64.5 -45t-43 -67.5q-31 -10 -47.5 -35.5t-28.5 -54.5t-26.5 -56.5t-41.5 -39.5q0 -35 -1 -68t-9 -59.5t-24.5 -43t-49.5 -16.5q-27 -119 -71.5 -219t-94 -196.5t-94.5 -196.5t-71 -219q-16 -4 -28.5 -12.5t-26 -15.5t-29.5 -12q-9 -3 -21 -3 q-9 0 -20 2q-33 43 -52.5 98.5t-29.5 118.5q-63 94 -113.5 199.5t-75.5 236.5l-24 27l-27 26q-6 -20 -17 -36.5t-20.5 -35t-13.5 -42t0 -53.5q-45 -51 -78 -115t-60 -131l-54 -138q-27 -71 -58 -135q-14 -2 -31.5 0t-9.5 -20q-14 4 -25 11l-23 15q-11 7 -24.5 11t-31.5 4 q-2 35 -13 63l-20 56q-10 27 -19.5 55.5t-9.5 64.5l-40 59q-19 30 -36.5 61.5t-29.5 68.5t-19 82q-23 39 -49 74.5t-49.5 74.5t-42 83t-24.5 100q-35 16 -50.5 51t-27 74.5t-24.5 76.5t-44 56q-27 90 -78 151.5t-149 77.5zM1174 784q-1 -7 -2 -13q0 -19 10 -30 q12 -14 32 -18q1 7 1 13q0 19 -9 29q-12 13 -32 19z" />
<glyph unicode="X" horiz-adv-x="1705" d="M70 43q-1 16 -1 30q0 22 2 43q3 34 19 52h74l107 83q54 40 103.5 85t89.5 100.5t62 126.5q37 8 62.5 27.5t45 45.5t38 53.5t41.5 49.5q2 14 -3 22.5t-10.5 15.5t-9.5 16.5t2 27.5q-104 129 -192 270l-181 281q-25 -4 -40 1t-29 11.5t-31.5 10.5t-44.5 -2q0 12 -5 18 t-12 11t-14.5 9.5t-9.5 12.5q-4 14 1 21.5t11.5 13.5t10.5 13t-2 26q8 2 23.5 0t28.5 -2t22.5 3t7.5 19q95 -21 191 -21q16 0 32 1q113 4 213 20q80 -25 104 -104q-35 -27 -63.5 -56.5t-61.5 -56.5q4 -31 16.5 -51.5t27 -41t25.5 -42t13 -53.5q4 -10 17.5 -9.5t25.5 -1.5 q0 -29 9.5 -47t22.5 -34l27 -29q13 -14 23 -35q63 6 96 41t57.5 78t53.5 80.5t84 50.5q0 29 -1 57.5t21 36.5q-18 35 -50 58q-22 16 -59 17q-16 0 -36 -3q-20 20 -20 62t20 63q84 -6 146.5 -8.5t123 -2.5t127.5 3l164 8q18 -25 17.5 -50.5t-15 -47t-40 -35t-56.5 -13.5 q-10 -4 -9 -17.5t-1 -23.5h-72q-6 -6 -8 -15t-6 -18.5t-12.5 -12.5t-26.5 3q6 -16 3 -23.5t-8 -12.5l-11 -10q-5 -5 -5 -15q-78 -4 -82 -84q-78 -61 -139 -140t-131 -149v-74q51 -29 77.5 -79t47.5 -107q2 -10 16.5 -9t24.5 -1q37 -78 81 -147.5t99 -130t123 -106.5t154 -73 q4 -16 4 -29q0 -6 -1 -11q-3 -15 -8 -28l-11 -25q-5 -13 -5 -32q-57 -4 -111 -4q-27 0 -54 1q-79 3 -153.5 7t-145.5 5h-13q-64 0 -125 -9q0 23 -16.5 29t-24.5 22q-4 14 1 21.5t11.5 13.5t10.5 13.5t-2 25.5q20 -6 32.5 -3t22.5 9t20.5 11.5t28.5 2.5q-6 20 -3 31.5t8 21.5 l10 18q5 9 5 24q-4 10 -17 9t-26 1q-33 115 -98 196.5t-139 155.5q-23 2 -33 -6t-16 -20.5t-10.5 -29t-14.5 -28.5q-12 -14 -28.5 -25.5t-34 -21.5t-32.5 -23.5t-28 -31.5q-4 -8 0 -21.5t0 -19.5q-12 -18 -28.5 -34.5t-29.5 -35t-22 -44.5q-5 -17 -5 -40q0 -11 1 -24 q25 -25 51.5 -46.5t73.5 -25.5q2 -25 -2 -41t-11 -29.5t-15.5 -26t-12.5 -28.5q-66 13 -128 13q-9 0 -18 -1q-71 -2 -138 -5q-29 -1 -58 -1q-38 0 -73 2q-64 4 -125 33zM733 977h23v43h-23v-43z" />
<glyph unicode="Y" horiz-adv-x="1757" d="M75 1462q0 37 17 76q80 -4 151.5 -9t143.5 -6q18 0 36 -1q54 0 111 3q75 3 160 13v-84q-41 -16 -76.5 -36.5t-68.5 -45.5q-12 -27 -7 -46t17 -35.5t26.5 -31t24.5 -32.5q6 -10 1 -25.5t-1 -25.5q6 -14 16.5 -25.5l22.5 -23.5l25 -22q12 -11 20 -24q20 -35 29.5 -76.5 t32.5 -78.5q12 -23 28.5 -40.5t31.5 -37t27.5 -43t16.5 -55.5h51q12 16 19.5 39.5t15.5 45t21.5 38t38.5 22.5v82q10 0 15 5l10 10q5 5 12.5 8.5t23.5 -3.5q6 55 29.5 93t49 73t46 76t20.5 102q-25 35 -65.5 53.5t-79.5 39.5v104q32 3 63 3q25 0 49 -2l97 -9q23 -2 44 -2 t42 2q41 4 78 29q23 -18 42 -18.5t42 18.5q12 -23 27.5 -29t33 -5t37.5 7t47 6q7 -32 7 -57q0 -35 -14 -56q-24 -35 -60 -57l-74 -46q-37 -24 -45 -75q-53 -4 -75 -41t-30 -84q-53 -35 -90 -86t-55 -121q-59 -55 -103.5 -124.5t-62.5 -165.5q-16 -2 -24.5 -11.5t-16.5 -19.5 t-17.5 -19.5t-25.5 -11.5q-14 -72 -19 -151l-2 -40q0 -58 12 -108q15 -68 56 -113t119 -45q4 -24 4 -43q0 -29 -9 -50q-15 -34 -46 -52q-23 4 -48.5 11.5t-53 10.5t-52 -1.5t-43.5 -20.5q-37 22 -95 22h-5q-61 -1 -125 -3q-14 0 -28 -1q-48 0 -89 6q-53 7 -74 48 q-2 23 2.5 37t12.5 26l16 24q8 11 12 27q25 4 45.5 0t26.5 -20q76 59 95 145q10 45 11 92q0 41 -9 83q-17 89 -60 170t-88 133v51q-86 125 -166 254t-145 276q-14 -2 -27 -1q-34 0 -60 11q-36 16 -56 48t-20 73z" />
<glyph unicode="Z" horiz-adv-x="1746" d="M112 145q13 31 31.5 59.5t32.5 61.5q76 29 124 85.5t85 121.5l62 36q32 17 60 38.5t50.5 49.5t34.5 65q6 -1 11 -1q51 0 51 51q0 5 -1 11q43 12 70 40t50.5 58.5t52 56t77.5 31.5q2 39 24.5 58.5t48 36t47 36t26.5 56.5q49 4 76.5 31.5t51 58.5t54.5 54q28 22 79 22h9 q4 20 -1 30.5t-14.5 16.5t-18.5 13t-9 24q-52 -4 -107 -5q-27 0 -55 1l-168 6q-34 1 -66 0q-49 0 -96 -1q-78 -3 -141 -22q-68 0 -117 -18.5t-88 -46t-73.5 -60.5t-73.5 -61q-16 -4 -22.5 1t-11.5 11t-13 10t-25 -2q6 51 17.5 96l23.5 89.5l23.5 90.5t17.5 97 q193 -14 352 -62q8 6 21.5 12.5t28 8.5t26.5 -2t19 -19q8 10 37.5 17.5t61.5 7.5t60.5 -5t36.5 -20q76 29 157 30h40q60 0 119 -2q39 -2 76.5 -1.5t73.5 1.5q73 3 136 34q18 -14 43 -19.5t62 -1.5q21 -21 20 -63v-8q-1 -25 -1 -48.5t1 -45.5q-70 -55 -131 -118t-119 -132 q-90 -12 -102 -103q-61 -31 -110.5 -71.5t-96.5 -84.5t-97 -85t-112 -70q6 -18 1 -26.5t-11 -15.5t-11 -15.5t1 -26.5q-68 -25 -113 -73t-94 -93q-16 0 -20.5 11.5t-3.5 27.5t3 34.5t-2 31.5h-41q14 -25 13.5 -43.5t-4 -35t-3.5 -32.5t15 -35q-12 -37 -41 -59.5t-59.5 -43 t-55 -46t-31.5 -70.5q56 7 132 7h19q44 -1 88 -0.5t89 0.5q90 1 174 10.5t142 35.5q19 -2 40 -2q35 0 73 6q62 10 120.5 36t102.5 68t59 99q25 -2 51.5 0t52 2t48 -5t34.5 -17q-23 -29 -33 -71t-18 -86t-18.5 -86t-34.5 -69q18 -23 18 -44t-8 -44.5t-19.5 -48t-11.5 -49.5 h-61v61h-7q-70 0 -98 41q-17 1 -33 1q-41 0 -77 -4q-51 -5 -102.5 -11t-105.5 -9q-18 -1 -37 -1q-38 0 -81 4q-8 8 -24.5 14t-34 8t-32.5 -3t-22 -19q-27 14 -53 12t-54 -7t-58.5 -4t-63.5 19q-12 -14 -37.5 -16t-53.5 -1t-51.5 -2t-33.5 -22q-37 23 -70 28q-20 3 -42 3 q-13 0 -26 -1q-36 -3 -78 -8q-23 -3 -50 -3q-21 0 -45 2q-19 43 -19 76q0 37 16 73zM385 1386q8 2 19.5 0t22.5 -2t17 5q4 2 4 8q0 4 -2 10h-61v-21z" />
<glyph unicode="\" horiz-adv-x="890" d="M174 1325q0 4 8 7t8 7t-7 9.5t-5 9.5q6 18 23.5 30.5t56.5 14.5q57 -84 99 -209t79 -263l75 -276q38 -137 85 -243q-2 -29 5 -68t20.5 -82t30 -84t34.5 -74q-4 -27 3 -57.5t1 -42.5q-4 -6 -26.5 -6t-47.5 2q-31 2 -65 8q-8 12 -14 17q-6 74 -25.5 150.5t-45.5 150.5 l-52 144q-27 71 -47 132q-14 70 -37 153t-49 167l-54 162l-47 145q2 23 -2 48t-4 48z" />
<glyph unicode="_" horiz-adv-x="1269" d="M92 -354q14 -4 17.5 3t3.5 17q35 8 49 -2t35 -18q43 37 104 37t128 -8.5t134.5 -12.5t122.5 25q51 -10 124 -12.5t141.5 -0.5t117.5 4.5t53 -0.5q4 -2 8.5 -22.5t7.5 -45t4 -46t-1 -27.5t-13.5 -9t-26.5 -4l-32 -2q-16 -1 -29 -1q-27 10 -70.5 17t-92 8t-92.5 -5t-68 -20 q-47 25 -98.5 26.5t-104.5 -2.5t-107.5 -4t-105.5 21q-10 -10 -28 -14l-35 -6q-18 -3 -35 -7t-27 -14q-39 14 -63.5 41t-20.5 84z" />
<glyph unicode="`" horiz-adv-x="1705" d="M444 1284q18 39 37 70l31 48q14 22 23 21q6 0 58 -27.5t119.5 -67.5l136.5 -85t109 -78q18 -31 -6 -57q-10 -10 -19 -5t-17.5 12t-16.5 7t-20 -20q-18 10 -35 23.5t-34 22.5t-35.5 11t-39.5 -12q-29 31 -67.5 39t-79.5 14t-79 21.5t-65 62.5z" />
<glyph unicode="a" horiz-adv-x="1005" d="M72 233q10 27 12 50.5t1 46t-5 49.5t-8 63q20 10 42.5 33t47 42.5t51.5 25.5t57 -19q39 20 99.5 21.5t117 6.5t99.5 23.5t47 73.5q-6 33 -15.5 64.5t-23.5 57.5t-36.5 43t-59.5 22q-55 -37 -119 -67t-109 -79q-43 2 -72.5 16.5t-62.5 26.5q51 102 140.5 169t191.5 120 q14 -14 25.5 -16t22.5 1t24.5 9t31.5 6q102 -23 170 -77t78 -171q-16 -33 -20 -79q-3 -31 -3 -63q0 -16 1 -33l4 -102q1 -17 0 -34q0 -33 -2 -64q-16 -16 -21 -46q-2 -15 -2 -31.5t2 -34.5q16 -27 38 -48.5t40 -46t32.5 -53t14.5 -71.5q-29 -14 -75 -27.5t-94 -14.5h-7 q-44 0 -81 12q-40 13 -54 50q-78 -12 -148.5 -28.5t-121.5 -53.5q-57 2 -95.5 24.5t-65 55.5t-46.5 71.5t-43 75.5zM342 233q6 -10 25.5 -18t45 -14t54.5 -8q14 -1 27 -1.5t24 1.5q59 23 82 79q15 39 16 96q0 25 -4 54q-51 18 -106 19h-5q-52 0 -93 -20q-43 -22 -64 -67 q-11 -24 -11 -56q0 -29 9 -65z" />
<glyph unicode="b" horiz-adv-x="1159" d="M76 1296q6 49 30.5 79t60.5 48.5t77 30.5t80 29v30h125q7 -32 7 -65q0 -26 -4 -53q-9 -63 -25.5 -129t-35 -132.5t-26.5 -127.5q-4 -29 14 -52.5t44 -35t51.5 -4t35.5 39.5q57 12 111 16q20 1 39 1q33 0 64 -3q50 -5 99 -15l103 -19l39 -55q18 -27 65 -29v-94 q47 -45 57 -113q5 -36 6 -73q0 -34 -4 -68q-9 -74 -29 -146.5t-30 -128.5q-41 -51 -103.5 -97t-137 -76.5t-159.5 -42.5q-30 -4 -61 -4q-55 0 -110 13q-18 -12 -46 -16t-57.5 -5t-57.5 -4t-46 -15q-3 0 -6 -1q-29 0 -50 20q-24 22 -32 51.5t-1 60t36 45.5q6 14 1 20 t-11.5 10t-10.5 9.5t0 21.5q27 59 29 123q1 21 1 42q0 43 -3 86q-5 81 -5 136q0 63 21 121q-25 70 -24.5 154t-5 164.5t-26.5 148t-89 104.5zM383 412q6 -68 30.5 -126.5t75.5 -99.5q27 -2 58 0t59.5 2t52 -4t39.5 -18q10 25 31 41t44 29l48 24q25 12 43 31q4 51 17.5 94 t44.5 72q-10 82 -38 148.5t-77 110.5t-123 63q-48 13 -110 13q-32 0 -68 -4q2 -25 -9.5 -36t-28.5 -18t-34.5 -12t-29.5 -17q-16 -76 -24 -151q-4 -40 -4 -78q0 -33 3 -64z" />
<glyph unicode="c" horiz-adv-x="860" d="M68 553q2 51 10 111l52 61q26 31 32 84h41v61q37 6 58.5 28t45 41t52.5 32q18 7 45 7q18 0 38 -3q8 0 8.5 7t2.5 13q18 -16 45 -13l53 6q27 3 50.5 -1t37.5 -33q20 20 36.5 18.5t30 -13t28 -26.5t30.5 -22q4 -22 4 -40q0 -28 -9 -47q-15 -32 -38 -56q-28 -4 -53 -4 q-21 0 -38 3q-38 7 -73 18.5t-71 20.5q-22 6 -48 5q-18 0 -39 -2q-33 -33 -67.5 -62.5t-87.5 -41.5q0 -29 1 -58t-22 -35q12 -8 18.5 -32.5t6.5 -52t-6 -51t-19 -32.5l41 -63q20 -31 23 -80q37 -55 91 -84t118 -35q21 -2 43 -2q43 0 89 8q69 12 136 39q-4 -16 7 -17t13 -13 q-6 -41 -27.5 -67t-47.5 -45l-55 -39q-28 -19 -46 -46q-12 2 -26.5 9t-28.5 10.5t-27.5 0t-21.5 -19.5q-28 -6 -50 -6q-15 0 -28 3q-31 7 -58.5 17.5t-55.5 19.5q-23 8 -54 7h-14q-8 12 -13.5 27.5t-12.5 29t-19.5 21.5t-36.5 4q-6 18 -9 37.5t-9.5 38t-16.5 32t-29 17.5 q-10 55 -18 105t-11 100q-2 29 -2 59q0 21 1 41z" />
<glyph unicode="d" horiz-adv-x="1220" d="M90 559q6 35 41 41q8 102 56.5 178t125 120t175.5 53q26 2 53 3q77 0 161 -20q20 12 33 33.5t39 27.5q1 23 1 46q0 9 -0.5 28t-0.5 29q0 43 21 63q-10 33 -37 47.5t-57.5 24.5t-57.5 25.5t-35 48.5q23 39 58 62q30 20 80 20h18q20 20 43.5 40.5t51.5 36t63 23.5 q23 5 51 5q14 0 31 -1q2 -14 -0.5 -31.5t20.5 -9.5q-25 -53 -34 -121.5t-14 -142.5t-11.5 -145.5t-24.5 -131.5q21 -54 21 -107q0 -44 -8 -119q-4 -37 -3 -72v-28q2 -48 33 -87q-10 -33 -12 -66t-2 -66v-71q0 -37 -6 -78q25 -35 72 -46q31 -7 70 -7q21 0 44 2q19 -38 19 -65 q0 -19 -9 -33q-23 -35 -75 -51.5t-119 -18.5q-23 -1 -45 -1q-43 0 -82 3q0 14 -9.5 21.5t-18.5 13.5t-14 16t-1 31q-82 -4 -143.5 -27.5t-114.5 -54.5q-25 -5 -45 -5q-7 0 -13 1q-25 2 -47 7l-45 10q-23 5 -47 7q-31 37 -71 65t-74 60q-12 45 -28.5 85t-55.5 61q-2 19 -3 39 q0 15 2 31q3 38 3 75t-4.5 70t-18.5 53zM276 559q-1 -8 0 -17q0 -18 3 -41q4 -34 10 -68t14 -61.5t14 -39.5q18 -31 47 -52.5t62 -38t67.5 -29.5t63.5 -26q100 16 155.5 76t82.5 152q-10 8 -13.5 21.5t-5.5 27.5t-6 26.5t-16 18.5q16 16 21 45t2 61.5t-10 62.5t-13 48 q-39 -2 -54.5 19.5t-27.5 43.5q-43 10 -78 14q-17 2 -33.5 1.5t-32.5 -1.5q-31 -3 -61.5 -12.5t-65.5 -21.5q-16 -25 -36.5 -47.5t-39 -47t-32 -52t-17.5 -62.5z" />
<glyph unicode="e" horiz-adv-x="925" d="M68 588q4 27 14 60l19 66q9 32 12.5 58.5t-4.5 42.5q18 4 37.5 9t35 13.5t23.5 22.5t8 39q25 -16 47.5 -9t42 22.5t33.5 30.5t22 18q21 5 52 5h10q37 -1 72.5 -9.5t62.5 -23.5t31 -34h84q70 -57 106.5 -144t59.5 -190q-18 -10 -39 -17t-35 -24q-21 2 -42 3q-31 0 -60 -6 q-48 -9 -98 -20.5t-107 -18.5q-27 -3 -57 -3q-34 0 -72 4q-14 -6 -20.5 -18t-11.5 -26.5t-13.5 -26t-26.5 -13.5q12 -80 52 -133t93 -94q61 -2 122 -3h11q54 0 99 9q49 10 81.5 37t39.5 82q16 -6 23 -3t12 8l11 10q5 5 17 5q24 -40 24 -71v-12q-5 -36 -24.5 -67.5t-45.5 -60 t-38 -59.5l-58 -29q-34 -16 -72 -27q-35 -10 -70 -11q-3 0 -7 1q-39 1 -73 25q-16 4 -22.5 -1t-11.5 -11t-12.5 -10t-25.5 2q-31 14 -61.5 25.5t-58.5 24.5t-50.5 30.5t-36.5 44.5q-6 10 -1 25.5t1 25.5q-10 14 -22.5 25.5t-24.5 24.5t-22.5 30.5t-14.5 44.5q-4 22 -4 45 q0 12 1 24q3 37 5 75q1 15 1 31q0 23 -2 47q-3 40 -21 79zM254 658q-2 -9 -2 -19q0 -34 22 -74h166q-2 20 12.5 25.5t18.5 17.5q68 2 97 24q32 23 32 56q0 28 -19 60q-22 35 -54.5 63.5t-72.5 47.5q-36 18 -68 18h-7q-12 -37 -40 -71t-52.5 -70t-32.5 -78z" />
<glyph unicode="f" horiz-adv-x="872" d="M94 948q8 2 23.5 0t29 -2t22.5 3t7 20q10 -2 16.5 -7.5t13.5 -9.5t17 -6t27 2q8 4 11 13.5t20 7.5q-14 70 -14 132q0 31 3 61q10 89 50 158t108 113t164 54q22 22 45 22q3 0 6 -1q27 -3 53.5 -16t52 -28.5t50.5 -17.5q10 -37 19 -75q5 -20 5 -44q0 -22 -4 -47l-58 -25 q-30 -12 -67 -16q-41 14 -61 61q-12 1 -23 1q-70 0 -102 -23q-37 -27 -48 -75q-10 -41 -10 -93q0 -10 1 -19q1 -16 0 -33q0 -49 -5 -100q25 -10 59 -11t68.5 -1t66.5 -3t54 -15q0 -14 0.5 -43t0.5 -44q0 -39 -21 -59q-6 12 -22.5 14.5t-35 4.5t-34 6t-21.5 16 q-12 -10 -27.5 -12t-32 -3t-31.5 -6t-24 -20q-12 -20 -12 -54t5 -69.5t13.5 -68.5t14.5 -47q-14 -29 -21 -69q-1 -7 -1 -14q0 -30 22 -52q-16 -8 -18.5 -31t-2.5 -47.5t-2 -47t-18 -30.5q0 -49 24.5 -74.5t56.5 -45.5l62 -40q31 -20 43 -57q-31 -47 -82 -51l-29 -2 q-38 0 -80 8q-58 10 -117 18q-16 2 -30 2q-41 0 -77 -16q-10 0 -16 5l-10 10q-5 5 -13 8t-23 -3q0 53 22.5 84t50.5 56.5t50.5 55.5t22.5 85q-23 51 -23 107.5t6 113.5t9 112q0 9 1 17q0 45 -14 84q-10 39 -40 56l-60 35q-31 17 -52 45q-16 20 -16 55q0 13 2 28z" />
<glyph unicode="g" horiz-adv-x="1234" d="M12 -348q0 57 21.5 96t49.5 71l55 64q28 33 40 80q-70 41 -75 87q-1 7 0 14q0 39 25 78q30 46 76 89l77 74l-54 66q-27 33 -48 70.5t-34 85.5q-11 41 -10 93v17q45 27 43 104q37 25 62.5 64t54.5 72.5t71 56.5q31 17 77 16q17 0 36 -2q6 10 32 17.5t55.5 7.5t56 -5 t32.5 -20q20 16 49 16.5t56.5 -10t50.5 -29t31 -40.5q25 -4 47 -4q27 0 49 6q39 10 72.5 25.5t70.5 27.5q28 9 66 9q13 0 27 -1q-2 -27 0 -57.5t2 -58t-4.5 -52t-18.5 -39.5q-35 6 -59.5 1t-44 -13t-39 -18.5t-43.5 -12.5q-8 -35 2 -49t18 -33q0 -18 -5 -31l-10 -27 q-5 -13 -8 -28.5t3 -37.5l-85 -93l-81 -94l-215 -45q-104 -23 -221 -39q0 -6 -1 -11q0 -38 13 -56q14 -20 37.5 -26.5t54.5 -4.5l61 4q31 2 58.5 -3t46.5 -28q21 22 52 23q6 0 12 -1q40 -5 69 -22q40 16 74 16q20 0 39 -6q49 -14 87 -50t62.5 -87t38.5 -100 q-10 -96 -47 -163.5t-95.5 -114t-136 -74t-167.5 -41.5q-14 6 -40 13t-54.5 9t-54 -3t-38.5 -19h-196q-43 6 -76 24.5t-58.5 43t-48.5 52.5zM260 -256q16 -86 72 -114q51 -26 120 -25h10q75 2 159 18.5t157 18.5q33 57 84 82q2 23 2 43q0 31 -4 59q-6 45 -18 84 q-45 31 -91 39q-41 7 -82 7h-11q-46 -1 -91 -5q-18 -2 -35 -2q-27 0 -53 4q-35 -20 -71.5 -36.5t-68.5 -38t-53.5 -53.5t-25.5 -81zM344 586q8 -31 21.5 -54.5t29 -46t28.5 -46t23 -52.5l80 -19q39 -9 76 -22l71 34q40 19 72.5 46t45.5 60q4 11 4 24q0 25 -17 53q4 12 18 16 q8 2 8 12q0 6 -3 15q-25 47 -72 93t-105.5 74t-124.5 30h-6q-64 0 -128 -41q-12 -39 -20 -81q-4 -23 -4 -49q0 -21 3 -46z" />
<glyph unicode="h" horiz-adv-x="1236" d="M68 14q0 33 15 58.5t35.5 48t43 43t36.5 43.5q14 24 14 54q0 28 -19 65q14 74 20 164q5 68 5 140q0 24 -1 47q-2 95 -9 187t-15 166q21 36 20 72q0 43 -20 80q-18 33 -52.5 54t-72.5 24q-2 11 -2 20q0 12 3 20q5 16 12 29.5t15 26t13 28.5q55 2 92 22l73 40q37 20 80 35 q27 9 64 9q21 0 45 -3q-23 -129 -39 -262t-45 -256q6 -8 13 -21.5t8 -28t-3 -26.5t-18 -19l31 -30q31 18 67.5 42.5t77.5 45t83 27.5q12 2 23 2q30 0 60 -13q6 10 18.5 14.5t26.5 7.5l28 6q13 3 21 13q37 -18 84 -44.5t84 -61.5t51 -81q5 -16 5 -34q0 -33 -17 -70 q-4 -12 0 -15t10 -5t11.5 -5t-1.5 -16q-16 -72 -23 -162q-3 -35 -3 -70q0 -54 7 -106q11 -84 44 -146t100 -77v-82q-16 6 -23 3t-12 -8l-11 -10q-5 -5 -15 -5q-42 11 -84 11h-7q-46 -1 -95.5 -4t-100.5 -3t-108 16q8 18 18 33.5t2 48.5q55 14 80 75.5t30 139.5q2 28 2 56 q0 51 -6 103q-9 81 -22 136q-6 14 -2 19.5t10 8.5t10.5 7t2.5 16q-10 39 -44 67t-79 43t-97 16h-7q-47 0 -89 -12q-45 -13 -77.5 -42t-43.5 -72q-2 -68 -13 -155q-10 -81 -10 -156v-13q1 -81 27.5 -141.5t100.5 -72.5q2 -14 0 -32.5t20 -10.5q-8 -23 -20 -41.5t-21 -40.5 q-84 2 -134 3t-90 2t-82 5z" />
<glyph unicode="i" horiz-adv-x="514" d="M68 834q14 39 50 68.5t82 48t94 23.5q16 2 31 2q30 0 54 -7q-2 -98 -10.5 -191.5t-30.5 -171.5q17 -33 17 -79q0 -3 -2 -104v-13q0 -44 6 -85q7 -48 40 -83q2 -12 -2 -16.5t-10 -7.5t-10 -8t2 -20q31 -6 55.5 -28.5t38.5 -52.5q13 -29 13 -62q0 -39 -23 -74q-6 -1 -12 0 q-17 0 -32 4l-36 12q-16 5 -32.5 4t-33.5 -20q6 16 -2 18.5t-18 2.5t-18.5 2t-2.5 18q-20 -20 -41.5 -21t-44.5 5l-48 13q-26 7 -54 3q-4 33 2 56.5t18.5 39t30 26.5t33.5 24q-2 17 -2 33q0 20 3 36q5 31 40 35q-20 98 -20 213v232q-27 37 -60 66zM276 1280q-4 24 -4 45 q0 29 9 53q14 41 44.5 62.5t72.5 23.5q4 0 8 1q38 0 77 -19q18 -41 23 -89q1 -10 1 -20q0 -36 -12 -65q-15 -37 -54 -54q-18 -8 -43 -9q-26 0 -60 10q-19 43 -62 61z" />
<glyph unicode="j" horiz-adv-x="526" d="M16 -401q49 20 92.5 64t71 100.5t35.5 120.5q2 18 2 37q0 46 -14 93q6 35 41 41q-18 74 -20 151v30q0 61 3 121q4 75 7 144q1 14 1 27q0 54 -10 102q-12 60 -46 106t-101 77q88 143 311 156q2 -14 0 -31.5t21 -9.5q-4 -139 -8.5 -250t-4.5 -218.5t7.5 -223t27.5 -263.5 q-8 -35 -43 -43q-6 -84 -32.5 -149.5t-67.5 -116.5t-92.5 -92t-108.5 -76q-6 -2 -11 -2q-6 0 -9 3q-6 5 -12.5 11.5t-13.5 10.5t-26 -2q0 20 4.5 30.5t7.5 16.5t1.5 13.5t-13.5 21.5zM203 1405q31 33 68 44q23 7 46 7q14 0 27 -3q35 -7 64.5 -32.5t44.5 -68.5q2 -9 1 -17 q0 -9 -2 -16q-5 -12 -11.5 -22.5t-10.5 -22.5t2 -35q-47 -23 -94 -22.5t-82 20.5t-51 62q-9 22 -9 51q0 25 7 55z" />
<glyph unicode="k" horiz-adv-x="1280" d="M115 1352q-3 11 -3 20q0 12 5 22q8 15 19 24l24 20q12 10 16 28q16 -3 32 -2q34 0 63 13q42 18 79 37.5t74 29.5q11 3 23 3q28 0 61 -17q-12 -100 -25.5 -198.5t-22.5 -200t-15 -208.5q-2 -49 -2 -100q0 -61 3 -125q-12 6 -16 1t-5 -11t-5 -10t-17 0q14 -29 25.5 -58.5 t17.5 -66.5q27 37 61 66.5t71 56.5l71 54q35 28 66 63q-2 53 -29 78.5t-74 35.5q-8 35 2.5 49.5t18.5 32.5q23 -6 44 -6q17 0 35 4l72 17q35 8 68 8t61 -23q25 12 64 19q23 4 45 3q15 0 29 -1q35 -4 59 -24q21 -17 21 -48q0 -5 -1 -10q-12 -33 -37.5 -50.5t-56 -27.5 t-63.5 -19.5t-60 -27.5q-16 -10 -26 -30.5t-27 -31.5q-23 -16 -46 -25t-46 -20.5t-42 -27t-32 -41.5q8 -47 36 -74t69 -41q-6 -25 -2 -38t14 -21.5t23.5 -12.5t25.5 -10q-1 -11 -1 -21q0 -33 15 -49q20 -20 50 -34q-2 -10 -7.5 -16.5t-9.5 -13.5t-6 -17.5t2 -26.5 q2 -8 12.5 -10t22.5 -1l25 2q12 1 22 -1q20 -35 53 -56.5t68 -41t64.5 -45t43.5 -64.5q-23 -27 -57 -34q-27 -6 -55 -6q-8 0 -17 1q-37 2 -70.5 9t-49.5 9q-29 -20 -58.5 -20t-63.5 8t-71 14q-16 3 -32 3q-22 0 -46 -5q-12 18 -18 43t-2 62q16 -6 23.5 -3t12.5 8l10 10 q5 5 17 5q1 12 1 23q0 54 -17 91q-20 44 -52 78t-66 64.5t-54 75.5q-26 7 -44 7q-12 0 -21 -3q-22 -8 -30 -30.5t-8 -52.5v-60q0 -31 -3 -58.5t-17 -42.5q8 -31 28 -51l39 -41q19 -20 35.5 -43.5t20.5 -60.5q-43 -10 -96.5 -20.5t-108.5 -16.5q-37 -4 -73 -4q-18 0 -37 1 q-54 3 -99 19v105q29 12 55.5 37.5t42 59.5t18.5 70v11q0 30 -13 59q14 92 20 206q5 97 5 197v34q-1 117 -7 229.5t-18 206.5z" />
<glyph unicode="l" horiz-adv-x="686" d="M96 35v104q82 20 112 80t32 133v23q0 63 -9.5 129t-9.5 115v18q20 10 22 42v16q0 24 -2.5 50.5t-2.5 50.5q0 8 1 16q1 32 23 42q-12 55 -13 124t-11.5 131t-40 110.5t-101.5 60.5v82q86 53 182 97l191 91q6 2 10 2t6 -2q4 -4 5.5 -10t4.5 -11t15 1q0 -86 -21 -166 l-38 -159q-18 -79 -25 -161q-1 -14 -1 -29q0 -68 24 -141q-12 -45 -18.5 -109.5t-6.5 -133t6 -134t19 -110.5q-20 -20 -22.5 -51t5.5 -62.5t19.5 -62.5t17.5 -51q13 1 25 1q102 0 101 -102q0 -12 -1 -24q-35 -6 -41 -41q-41 0 -88 7t-93 12q-33 4 -65 4q-13 0 -25 -1 q-44 -2 -81 -22q-14 2 -26 9l-22 14q-11 7 -25 12.5t-32 5.5z" />
<glyph unicode="m" horiz-adv-x="1796" d="M104 823v62q41 12 87.5 40.5t93.5 50t92 22.5h2q44 0 80 -40q6 -14 2 -20t-10.5 -9t-11.5 -6t-3 -16q0 -12 5 -17t11.5 -10.5t9.5 -12.5t-3 -23h71q41 94 132 123q47 15 101 15q51 0 109 -13q14 -25 34 -45.5t40.5 -39t40 -38t31.5 -43.5q55 23 94 60.5t72 84.5 q106 0 176 41q43 -8 66.5 -14t40 -17.5t30.5 -30l39 -53.5q14 -18 34.5 -35.5t28.5 -45.5q8 -29 4 -63t-7 -67q-2 -17 -1.5 -34t1.5 -34q3 -34 24 -63l-10 -111q-3 -36 -4 -72q0 -30 3 -60q5 -66 30.5 -119t84.5 -74v-82q-14 1 -27 1q-40 0 -77 -5q-49 -6 -97 -11 q-30 -3 -60 -3l-37 1q-48 3 -97 28q0 14 5 23l11 19q5 9 8 20t-3 32q27 2 42 15t27 30l25 32q12 15 31 25q-8 59 -9.5 127t-5.5 132.5t-17 121.5t-45 100t-85 65q-41 17 -103 17q-17 0 -36 -2q-25 -23 -50.5 -41t-50 -39.5t-45 -47t-31.5 -58.5q18 -61 18.5 -142t6.5 -156 t29.5 -131t91.5 -71v-82q-51 -4 -100.5 -9t-99.5 -9t-103 -5h-22q-44 0 -91 3q-1 11 -1 20q0 29 9 51q12 28 31.5 47t43.5 34.5t42 33.5q-3 53 -3 103q0 67 5 129q8 109 18 215q-25 37 -55.5 70.5t-68 56t-86.5 26.5q-8 1 -16 1q-43 0 -95 -19q-43 -25 -74 -79t-47 -124 t-18 -147q0 -10 -1 -21q0 -67 12 -127q13 -70 42 -126t76 -83q0 -12 -6.5 -19t-14.5 -11.5t-14 -11.5t-6 -19q-39 23 -81 22.5t-87 -7.5l-91 -14q-25 -4 -50 -4q-22 0 -44 3q-14 18 -19 42.5t-1 59.5q80 12 110.5 73.5t34.5 148.5q2 35 2 72q0 55 -4 115q-3 50 -3 95.5 t3 87.5q-23 53 -68 82.5t-98 52.5z" />
<glyph unicode="n" horiz-adv-x="1200" d="M70 762q8 18 18 32.5t2 49.5q47 2 78 21.5t59.5 40t63.5 34.5q24 10 59 10q15 0 31 -2q-6 -25 3 -33t17 -18q6 -16 1 -22.5t-11 -10.5t-10 -10t0 -20q4 -10 17.5 -9.5t25.5 -1.5l80 55q39 28 84 50t100 35q37 8 82 8q23 0 47 -2q35 -10 59.5 -29.5t44.5 -43.5l38 -49 q19 -26 45 -44q18 -69 17 -141v-21q-3 -82 -9 -165t-8 -165q0 -7 -1 -13q0 -75 21 -148q18 -12 37.5 -22.5t35 -25t24.5 -34.5q8 -17 8 -42q0 -6 -1 -12q-20 -6 -50.5 -17t-62.5 -20q-25 -7 -50 -6h-13q-31 2 -51 23q-20 -18 -42.5 -20.5t-47.5 2t-49.5 11.5t-48.5 7v102 q20 4 33 15l26 20q12 10 27.5 19.5t38.5 9.5q2 15 1 28q0 46 -22 76q18 27 22 69q2 31 2 66v23q-1 47 -4 95l-2 40q0 26 3 49q-20 49 -56 85l-69 71h-103q-23 -12 -49 -21l-54 -16q-28 -8 -52.5 -18.5t-42.5 -28.5q-16 -29 -29.5 -62.5t-42.5 -52.5q2 -35 7 -73.5t7 -80.5 q1 -21 1 -42.5t-1 -42.5q-2 -43 -14 -82q8 -39 31.5 -62.5t48 -45t45 -48.5t20.5 -72q-51 -27 -96 -32q-30 -4 -60 -5q-15 0 -31 1q-46 3 -96 11q-39 6 -85 5h-27q-2 31 6 53.5t20.5 39.5t28 31.5t29.5 31.5q-5 25 -5 53q0 22 3 47l13 122q7 65 13 134q2 27 2 54q0 43 -5 87 q-33 29 -58.5 60.5t-66.5 54.5z" />
<glyph unicode="o" horiz-adv-x="1083" d="M61 441q-4 31 -3 65q0 71 18 149q12 -6 16 -1t5 11.5t5 10.5t17 0q31 266 332 270q6 20 18 22h4q11 0 22 -5l28 -14q15 -7 30 -3q43 8 81 8q58 0 108 -18q83 -31 142.5 -95.5t96.5 -153.5t49 -187q-16 -225 -122.5 -359.5t-311.5 -171.5q-14 16 -40 20.5t-53.5 6.5t-51 8 t-31.5 29q-16 4 -26.5 2t-17.5 -6t-13.5 -9.5t-16.5 -7.5q-72 39 -132 102.5t-100.5 145.5t-52.5 181zM264 655q2 -63 5 -126.5t14.5 -118t35 -97.5t68.5 -63q18 -33 56 -54.5t83 -31.5q35 -8 70 -8q11 0 21 1q46 3 81 21q25 12 38.5 31.5t25.5 40t25.5 35t35.5 18.5 q4 30 4 57q0 13 -1 25q-3 37 -9 72t-11 69q-4 25 -4 53q0 11 1 23q-14 43 -40 73t-57.5 54.5t-65.5 46t-65 45.5q-6 0 -12 1q-27 0 -44 -8q-22 -9 -43 -19.5t-46 -16.5q-11 -3 -24 -2q-18 0 -39 4q-10 -18 -18.5 -38.5t-20 -38t-25.5 -31t-39 -17.5z" />
<glyph unicode="p" horiz-adv-x="1169" d="M47 -494q29 35 60.5 83.5t53 104.5t27.5 117l2 25q0 47 -18 94q14 98 28 218q12 104 11 204v31q-2 115 -28.5 214t-92.5 155v51q45 14 76 43l61 58q31 30 70 49q32 16 82 16h22q10 -35 17.5 -76t23.5 -70q74 29 138.5 65t142.5 60q156 -20 241 -110t121 -232v-280 q-18 -33 -31.5 -73t-28.5 -76t-38.5 -64.5t-66.5 -36.5q0 -10 -6 -16l-10 -10q-5 -5 -8 -13t3 -23q-55 -31 -118 -36q-24 -2 -48 -1q-39 0 -78 5q-63 8 -125.5 24.5t-117.5 28.5q-18 -10 -27.5 -43t-9.5 -72t7 -73.5t19 -49.5q2 -16 -3 -22t-11 -12.5t-10 -13.5t2 -25 l102 -116q51 -56 127 -91v-64q-45 4 -87 4t-81 -4q-78 -8 -147 -11q-15 -1 -30 -1q-53 0 -100 9q-61 11 -116 56zM358 285q29 -25 43.5 -62t40.5 -63q49 -12 89 -14h27q26 0 51.5 1.5t51.5 1.5q13 0 26 -1q40 -1 87 -9q51 31 82 81t44 114q12 59 12 125q0 75 -13 157l-44 29 q-22 14 -19 53q-57 27 -122 34q-28 3 -56 3q-36 0 -71 -5q-62 -9 -116.5 -32.5t-91.5 -60.5q1 -44 1 -83q0 -78 -3 -135q-5 -87 -19 -134z" />
<glyph unicode="q" horiz-adv-x="1165" d="M79 351q-1 16 -1 32q0 37 5 74q7 53 19 103l23 89q25 33 53.5 60.5t56 57.5t53 61.5t44.5 70.5q55 2 90 6t67.5 7t71.5 7q23 2 56 1h47q12 -27 39.5 -36.5t63.5 -11.5l72 -4q36 -2 64 -12q12 16 27.5 41t34 42t41.5 22q3 1 6 0q20 0 47 -21q-35 -84 -55.5 -197.5 t-28.5 -231.5q-7 -105 -7 -205v-24q1 -112 7 -194q-12 -14 -17.5 -43t-5.5 -60.5t5.5 -60t17.5 -43.5q6 -16 3 -23.5t-8 -12.5l-11 -10q-5 -5 -5 -15q20 -20 22 -58v-25q0 -25 -1 -52q8 -35 33.5 -52.5t52 -33t50.5 -35t30 -56.5q0 -12 -5 -17l-11 -10q-5 -5 -8 -12.5 t3 -23.5q-129 -10 -261 -13q-21 0 -41 -1q-110 0 -216 14q2 37 20.5 66.5t43 55t51 49.5t44 50.5t21.5 58.5q1 6 1 11q0 28 -15 63q20 20 20 51t-20 52q14 -2 18.5 8t3 25.5t-3.5 33t2 27.5q-16 1 -31 1l-79 -7q-55 -10 -112.5 -22.5t-121.5 -21.5q-34 -5 -69 -5 q-31 0 -64 4q-25 37 -55 66l-62 60q-32 30 -62 61.5t-50 70.5q-4 9 -4 14q0 4 2 6q4 6 10 9.5t10 7.5t2 16q-20 43 -23 95zM270 379q6 -25 21 -41l28 -34q14 -17 24.5 -37.5t8.5 -53.5q39 4 54.5 -17.5t29.5 -43.5q27 4 47.5 1t36 -10.5t29.5 -16.5t31 -15l111 45 q54 23 97 57q14 115 14.5 208t-14.5 208q-29 39 -67.5 57.5t-79.5 26.5t-84 15t-80 26q-27 -33 -50.5 -66t-74.5 -39q4 -29 -8 -43t-33 -18q1 -15 1 -28q0 -48 -11 -86z" />
<glyph unicode="r" horiz-adv-x="870" d="M74 836q43 12 78 44l70 61q36 30 75 45q17 7 35 7q25 0 53 -12v-166q45 2 70.5 24.5t46.5 50.5l42 54q22 27 58 37q14 0 24 -5l18 -10q9 -5 20.5 -8.5t31.5 3.5q2 -35 20 -54l35 -37q17 -18 28 -44q5 -12 6 -30q0 -19 -7 -44l-53.5 -39t-28.5 -64q-16 6 -23 3t-13 -8 l-10 -10q-5 -5 -17 -5q-41 14 -62 61h-8q-61 0 -94 -27q-35 -30 -53.5 -76t-27.5 -101.5t-23 -106.5q12 -25 17 -59.5t8 -70.5t10.5 -67.5t25.5 -52.5q8 0 15 1q54 0 82 -28q32 -31 48 -75q-18 -10 -38.5 -17.5t-34.5 -23.5q-43 13 -89 12h-14q-53 -2 -105 -3h-15 q-45 0 -88 5q-50 6 -93 37q8 27 33 49.5t45.5 47t26.5 52.5q1 5 1 11q0 25 -24 57q18 14 21.5 42t2.5 60.5t-4 66.5t1 60q16 38 16 73q0 14 -3 28q-9 47 -33.5 90t-54.5 83t-48 79z" />
<glyph unicode="s" horiz-adv-x="837" d="M76 194.5q0 36.5 3 68.5t19 54q12 0 18 -5l10 -10q5 -5 12 -8t24 3q-2 -12 -2 -23q0 -62 63 -62q9 0 21 1q12 -33 46 -56.5t78 -35.5q41 -11 82 -12q3 0 7 1q45 1 80.5 19t53.5 56q10 22 10 53q0 21 -5 47q-37 57 -105.5 83.5t-143.5 46t-143.5 46t-105.5 84.5 q-18 53 -17 98q0 12 1 25q6 55 28.5 101t58.5 83t75 68q43 8 89 11t90 3h84q40 0 68 6q27 -33 69 -47t77 -37q1 -12 0 -24q0 -110 -51 -162q-59 23 -107.5 54.5t-68.5 90.5q-29 2 -56 3q-63 0 -111 -14q-69 -19 -83 -93q6 -35 41 -41v-52q43 -31 96 -52t108 -40l110 -38 q54 -19 101 -48q14 -53 37 -98l47 -88q-4 -43 -17 -77t-31.5 -62.5t-38 -54t-38.5 -54.5q-70 -18 -150 -30q-74 -10 -148 -10h-13q-80 1 -150.5 19.5t-119.5 61.5q1 16 1 34t-1 38q-2 39 -2 75.5z" />
<glyph unicode="t" horiz-adv-x="856" d="M76 856q74 78 151.5 150.5t139.5 160.5h84q0 -47 -3.5 -77.5l-6.5 -55.5l-6 -48q-3 -24 -5 -56q16 -16 52 -24.5t77 -10.5q10 -1 20 -1q30 0 59 5q38 6 60 21q39 -20 57 -60q11 -24 11 -61q0 -22 -4 -47h-301q-29 -20 -33 -67q-2 -26 -2 -55q0 -21 1 -43q3 -52 3 -101.5 t-22 -75.5q8 -33 15 -66t16.5 -64.5t21.5 -59t31 -48.5h247v-104q-25 -33 -63.5 -50.5t-87.5 -25.5t-106 -9q-11 0 -22 -1q-46 0 -93 4q-25 23 -46.5 47t-58.5 35q-4 16 8.5 17t14.5 13q-23 35 -24 91v29q0 43 2 88t2 88v29q-1 56 -23 91q8 31 12 80q1 12 1 24q0 36 -9 67 q-12 42 -47 65q-18 12 -46 11q-25 0 -57 -9q6 20 3 32.5t-9 22.5t-11 20.5t-3 28.5z" />
<glyph unicode="u" horiz-adv-x="1060" d="M53 805q51 72 126 117t186 59q14 -38 14 -87q0 -13 -1 -28q-5 -66 -15.5 -136.5t-15.5 -137.5q-1 -13 -1 -25q0 -53 19 -94q-20 -20 -19.5 -43.5t5.5 -47.5t7 -43.5t-14 -31.5q33 -82 113 -118q38 -17 83 -17q49 0 105 21q41 31 70.5 73.5t64.5 81.5q0 18 -7 42t-12 46.5 t-3 43t22 34.5q-16 8 -20 27.5t-3 43t3 49t0 46.5q-8 27 -24.5 44t-37 30.5t-43 25t-41.5 25.5q45 82 134.5 119t218.5 37q8 -33 3 -60t-11.5 -49.5t-7.5 -41.5t16 -36q-8 -25 -16.5 -54.5t-12.5 -59t-3 -57.5t11 -48q-12 -43 -20 -106q-5 -39 -5 -78q0 -24 2 -47 q5 -61 24.5 -109.5t60.5 -62.5q3 -19 3 -35q0 -23 -7 -37q-12 -25 -35 -40t-49.5 -25.5t-47.5 -28.5q-23 0 -38 5l-33 10q-16 5 -37 8t-47 -3q-6 25 3 33t19 18q-6 8 -15 11.5t-7 19.5q-66 -23 -124 -51.5t-124 -50.5q-27 23 -45 15.5t-49 -15.5q-76 6 -113 50t-55.5 107.5 t-25.5 137t-23 139.5q14 35 20 85q4 33 4 67q0 17 -1 34q-3 51 -14 97.5t-30 70.5q-35 -6 -54.5 3.5t-29.5 27.5z" />
<glyph unicode="v" horiz-adv-x="1220" d="M44 880q3 17 10 30.5t17.5 24.5t16.5 26q27 -3 58 -3h31l95 5q16 1 31 0q30 0 57 -2q41 -4 70 -21q0 10 9.5 13t19.5 4t18 5.5t6 18.5q43 -18 62 -61q-66 -51 -146 -84q29 -160 90.5 -289t128.5 -250q47 33 76 87t51 113l47 115q24 57 64 99q2 16 2 29q0 31 -13 48 q-19 25 -46 42.5t-49 38.5q-19 18 -19 57v14q18 10 39 17.5t35 23.5q31 -14 72 -18.5t87 -4.5t93 3q24 1 46 1t44 -1q6 -20 17 -35q7 -8 7 -24q0 -11 -4 -25q-66 -23 -106.5 -71t-69 -106.5t-54.5 -121t-60 -115.5q2 -15 1 -29q0 -31 -10 -52q-14 -30 -32.5 -55.5 t-32.5 -54.5q-10 -20 -10 -51q0 -13 2 -28q-25 -23 -35 -59t-23.5 -69.5t-36.5 -58.5q-19 -21 -58 -21q-6 0 -13 1q-18 12 -44 18t-61 2q-6 35 -41 41q1 12 1 23q0 41 -12 69q-15 37 -52 54q-18 90 -47 169.5t-63 154.5t-70.5 147.5t-67.5 150.5q-14 2 -32.5 0t-10.5 21 q-12 4 -15 -0.5t-4 -10.5t-5.5 -10t-16.5 0q8 23 -9.5 21t-31.5 0q-4 18 -4 31q0 7 1 13z" />
<glyph unicode="w" horiz-adv-x="1845" d="M42 922q0 39 21 59q113 -3 206 -3h44h12q102 0 195 -17q-2 -37 -11 -65l-19 -56q-9 -29 -14 -62q-2 -15 -2 -32q0 -21 3 -46q23 -31 40 -65l36 -71q18 -36 39.5 -67.5t50.5 -56.5v-51q23 -10 42.5 -21.5t31.5 -29.5q41 -6 58.5 9t24.5 42t12 56.5t19 48.5 q-20 49 -36.5 100t-39 98t-53 85t-79.5 59q4 25 -5.5 36t-19.5 21t-17.5 24.5t1.5 43.5q20 16 55 17q17 1 35 0.5t37 -0.5h18q27 0 52 2q34 3 52 21q14 -10 36 -15t39.5 -13t26.5 -24.5t1 -51.5q-12 0 -19.5 -6t-11.5 -13.5t-11 -14.5t-20 -7q-3 -23 -2 -43q0 -27 4 -48 q8 -38 19 -75q26 -8 45 -8q17 0 27 7q20 15 26 44t8 61.5t19 51.5q-14 8 -19.5 30.5t-4.5 47t7.5 46t16.5 31.5q61 -16 135 -20q37 -2 76 -2t80 2q6 -20 17 -34.5t3 -49.5q-29 -14 -52 -35l-47 -42q-24 -22 -50.5 -40t-59.5 -28q0 -37 -12 -61.5t-27.5 -47t-28 -47.5 t-14.5 -61q43 -39 67.5 -93.5t37.5 -124.5h51q37 70 80 134.5t77.5 137.5t53.5 162q11 53 11 118q0 43 -5 92q25 16 56 15h11q38 -3 76 -8q22 -3 43 -3q17 0 33 2q37 4 62 34q14 0 23 -5l19 -10q9 -5 20 -8t32 3v-125q-29 -12 -57.5 -21.5t-53 -23.5t-40 -37.5t-15.5 -62.5 q-84 -86 -134 -200t-95 -237h-41q-16 -66 -43 -121t-41 -126l-75 -20q-20 -5 -45 -5q-22 0 -46 4q-39 23 -50 72l-23 98q-11 49 -36 86q-23 35 -81 35h-7q-29 -78 -65.5 -147.5t-69.5 -143.5h-166q-86 121 -125 279q-18 25 -38.5 49t-37 52t-29 58.5t-18.5 69.5 q-12 6 -17 19.5t-26 11.5q0 33 -7 58.5t-16 48t-20.5 44t-17.5 45.5q-27 10 -45.5 31t-38 38t-47.5 27q-14 4 -32 4q-20 0 -44 -5q0 14 -0.5 42.5t-0.5 43.5z" />
<glyph unicode="x" horiz-adv-x="1118" d="M53 109q55 33 103.5 73.5t92.5 84.5l88 88q44 44 91 85v74q-20 12 -33.5 30.5t-26 39t-27.5 38t-38 27.5q-2 45 -22.5 72t-45 48.5t-48 45t-29.5 62.5q-12 4 -15.5 -0.5t-5.5 -10.5t-5 -10t-15 0q-22 30 -23 77q0 13 2 28h434v-64q-33 0 -53 -11.5t-34.5 -29.5t-27 -37.5 t-30.5 -34.5q33 -12 52.5 -38.5t34.5 -57.5t31.5 -59.5t47.5 -42.5l45 46q23 24 40 51.5t28.5 62t11.5 79.5q-29 20 -40 57.5l-22 78.5q33 1 70 1h38q58 -1 113.5 -3.5t101.5 -2.5t71 5q-2 -14 5 -17.5t17 -3.5q-39 -74 -99.5 -125t-124 -99t-120.5 -102.5t-92 -130.5 q39 -49 74 -102l71 -106q37 -52 77 -100t89 -87h82v-82q-15 -4 -27 -4q-6 0 -11 1q-15 3 -28 8l-27 11q-13 5 -32 5v82h-41q-2 -18 3 -28.5t11.5 -20t9.5 -21.5t-3 -33q-39 6 -73 6t-69.5 -2t-75.5 -5q-17 -1 -37 -1q-26 0 -57 2v62q39 -18 56.5 3t19.5 60q0 6 1 13 q0 33 -9 70q-10 44 -25 71q-10 8 -22 12t-22.5 11t-16.5 18.5t-2 31.5q-39 -16 -74 -36.5t-60.5 -51t-39.5 -72.5q-13 -37 -13 -86q0 -7 1 -14l33 -33q17 -17 8 -59q-29 7 -57 7h-7q-31 -1 -65.5 -4t-73.5 -5q-13 -1 -27 -1q-28 0 -61 3q-12 16 -19 42q-4 15 -3 34 q-1 13 1 27zM158 68q14 2 31.5 0t9.5 20h-41v-20zM219 88q8 2 20.5 0t23.5 -2t17.5 4t2.5 19h-64v-21zM365 670h20v41h-20v-41zM635 47q35 6 41 41q-12 -4 -15.5 0t-5.5 10t-5 11.5t-15 -0.5v-62zM635 254q-2 -12 -2 -23q0 -52 43 -59q2 13 2 23q0 54 -43 59zM719 152h20v41 h-20v-41zM739 88q14 6 22.5 3t13.5 -8l10 -10q5 -5 16 -5v61h-62v-41z" />
<glyph unicode="y" horiz-adv-x="1271" d="M70 940q6 29 33.5 37t62.5 7t74 -5q16 -2 29 -2q21 0 40 4q6 20 29.5 20t32.5 -20q6 14 20.5 18.5t34.5 4.5t40.5 -2.5t39.5 -0.5q16 -18 19 -52q2 -20 2 -42q0 -15 -1 -30q-18 0 -31.5 -4.5t-24.5 -11.5l-23 -14q-11 -7 -25 -11q6 -84 24.5 -156t45 -134.5t59.5 -118.5 l67 -110q16 12 28 32l23 38q11 18 25.5 33.5t38.5 19.5q6 59 35 120t47 116q11 33 11 63q0 20 -5 39q-12 47 -88 78q6 25 1 38t-11 24.5t-11 24.5t1 38q72 6 127 9t108 5t109.5 3t132.5 3q16 -43 16 -71.5t-16 -73.5q-78 -6 -124 -42t-77 -89t-50 -117l-40 -125 q-41 -29 -59.5 -81t-33.5 -106t-39 -101.5t-75 -65.5q1 -15 1 -29q0 -42 -9 -75q-12 -45 -53 -62q-39 -145 -107.5 -257t-163.5 -198h-84q-4 -1 -7 -1q-9 0 -10 9q-1 11 -13 13q-43 -23 -109 -23q-22 0 -47 2q-18 37 -18 68q0 11 3 22q9 38 42 62.5t83 33.5q27 5 55 5 q26 0 54 -4q41 18 67.5 53t49.5 73l45 76q23 38 55 66q-2 35 -8 62.5t-15 54.5l-20 55q-10 29 -18 68q-6 27 -29.5 48t-34.5 46q-6 16 -0.5 35.5t0.5 36.5q-6 25 -28.5 47t-32.5 47q-4 10 0 31.5t0 40.5q-4 16 -21.5 28t-21.5 23q-6 23 -7 45t-3 45.5t-8.5 45t-22.5 42.5 q-2 10 -15.5 9t-25.5 1q-6 31 -28.5 48.5t-47 31.5t-45 32.5t-24.5 53.5z" />
<glyph unicode="z" horiz-adv-x="1044" d="M53 47q-2 8 -2 15q0 8 3 14q5 10 11.5 20t10.5 21.5t-2 34.5q137 160 286.5 303t292.5 297q-20 33 -66 41q-34 6 -72 6q-14 0 -29 -1q-54 -3 -107 -12.5t-88 -11.5q-41 -35 -75 -76t-81 -69q-18 37 -21 84q-1 16 -1 31q0 32 4 64q6 48 17 93t22 80q20 0 35.5 -8 t27.5 -17.5l23.5 -19.5t27.5 -16q99 17 177 17h9q81 -1 156.5 -6t154.5 -7q8 0 16 -1q73 0 161 17q18 -18 22 -52q1 -14 1 -30q0 -21 -2 -43q-14 0 -20.5 -8t-11.5 -16.5t-13.5 -14.5t-26.5 -2q-31 -57 -75 -99t-91 -82t-89 -85t-67 -109q-74 -43 -126 -107l-103 -130 q20 -4 57 -9.5t75 -6.5h13q31 0 58 5q33 5 47 21q39 -18 71 -18q18 0 34 6q44 16 81 49l75 67q38 35 91 41q18 -39 20 -87v-12q0 -42 -7 -86q-7 -50 -18 -99t-15 -90q-15 -2 -28.5 -2t-24.5 2q-22 4 -37 14t-28 23.5t-28 25.5q-8 -8 -32.5 -15t-52 -9t-51.5 3t-30 21 q-65 -19 -123 -18h-12q-63 2 -127.5 8t-132.5 8h-12q-62 0 -131 -18q6 14 3 22t-8 14l-11 10q-5 5 -5 15z" />
<glyph unicode="~" horiz-adv-x="1085" d="M103 219q3 10 3 21q0 18 13 55l16 31l26 45l23.5 43t12.5 26t10 11.5t19.5 10.5t20.5 10t13 9t21.5 8.5t40 7.5t44 4t33.5 -1q10 -2 32 -2h42h51q16 0 33 2q27 0 47 4q16 2 55 3t62 9q23 6 37 24l22 27q4 4 10 18l11 29q8 18 14 39q2 2 6 4t7 4.5t8 2.5q6 0 18 -9l12 -8 q2 2 8 6q4 2 9.5 4t13.5 2q14 0 21.5 -5t21.5 -13q-6 -20 -14 -39q-6 -16 -12.5 -30.5t-8.5 -18.5t-6 -16l-8 -25q-4 -12 -10.5 -20.5t-12.5 -6.5t-13 -8t-14 -24l-14 -28q-6 -13 -10 -17t-19 -12l-34 -15l-36 -15q-17 -7 -26 -10q-8 -2 -25.5 -3t-36.5 -1t-36.5 1t-23.5 3 l-15.5 4t-13.5 2h-14q-16 -4 -31 -6q-12 -2 -24.5 -3t-20.5 -1h-50q-34 0 -65 -2q-16 -2 -26.5 -7t-16.5 -9q-8 -8 -12 -15q-12 -4 -21 -10q-8 -4 -17 -9t-13 -9q-6 -4 -12.5 -13.5t-10.5 -19.5q-6 -10 -8 -25l-16 -16q-10 -10 -23 -18q-6 -4 -10 -9l-21 5q-18 4 -28 10 q-11 4 -8 14zM203 393l12 -12l14 37l-18 -10z" />
<glyph unicode="&#xa2;" horiz-adv-x="923" d="M115 536.5q2 51.5 10 110.5l52 63q26 32 32 83h41v61q37 6 58.5 27.5t45 42t53 33t82.5 1.5q8 0 8.5 8.5t2.5 12.5q10 -8 21 -10t24 -2q2 31 6 55q8 14 13 33.5t14.5 33t24.5 19.5t46 -6q12 -59 6 -133q18 -6 31 -31q20 20 36.5 18t30 -13t28 -25.5t30.5 -20.5 q10 -57 -4 -88t-37 -57q-45 -8 -78 -4t-61 12l-31 -172q-14 -84 -18 -156q-10 -16 -18.5 -43t-13.5 -57.5t-5 -59t8 -45.5q-20 -25 -27 -59q66 -10 139.5 1t145.5 40q-4 -16 8 -17.5t12 -13.5q-6 -41 -27.5 -66.5t-47.5 -44.5l-55 -39q-28 -19 -46 -46q-12 2 -26.5 9 t-28.5 10t-27.5 0t-21.5 -19q-16 -4 -31.5 -5.5t-27.5 -1.5q-2 -2 -3.5 -4t-3.5 -4q12 -16 8 -41.5t9 -42.5q-12 -23 -32.5 -37t-59.5 -4q4 10 -1.5 12.5t-11.5 4.5q-4 23 5.5 31t15.5 18q-23 37 -12 92q-25 10 -51.5 18.5t-63.5 4.5q-10 12 -14.5 27.5t-11.5 28.5 t-19.5 21.5t-36.5 5.5q-6 16 -10 36t-9.5 38.5t-15.5 31.5t-29 19q-10 55 -18 105.5t-11 99.5t-1 100.5zM270 428q18 -33 39 -63.5t23 -81.5q23 -33 50.5 -54.5t59.5 -38.5q-4 20 -8 33q16 45 25.5 94.5t14.5 100.5t8 99t7 89q10 41 19 88l16 97q-29 6 -78 2 q-33 -33 -67.5 -63t-87.5 -42q0 -29 1 -57.5t-22 -36.5q12 -6 18.5 -30.5t6.5 -52.5t-6.5 -52.5t-18.5 -30.5z" />
<glyph unicode="&#xa9;" horiz-adv-x="1609" d="M57 608q-4 20 6.5 25.5t26.5 7.5v190q33 18 47 56l29 75q14 38 37.5 65.5t77.5 27.5q12 53 44.5 88t76.5 57.5t97 36.5l104 28q52 13 100.5 30.5t87.5 45.5q20 -20 53 -26t72.5 -6t81.5 2t79 0q27 -37 68 -61.5t82 -46t78.5 -47.5t58.5 -69q16 -84 43 -156l55 -145 q29 -72 54.5 -145.5t39.5 -159.5q-10 -10 -14 -25.5t-9 -30.5t-13.5 -26.5t-26.5 -13.5q-2 -78 -24.5 -135t-52.5 -107.5t-61.5 -98.5t-54.5 -105q-61 -18 -132.5 -50t-150.5 -55.5t-161 -27t-162 35.5q-18 8 -23 1t-8.5 -16t-8.5 -16.5t-23 1.5q8 25 -3.5 28.5t-28.5 2.5 t-29.5 3t-2.5 29q-115 8 -190.5 52t-128.5 113t-89 154t-69 175q8 43 3 71.5t-14 53t-17.5 51t-4.5 63.5zM213 608l75 -242q38 -120 48 -270q76 -57 161 -101t180 -67.5t203.5 -24.5t231.5 29q49 33 87 77t71 93l63 100q31 50 66 99q12 98 -2.5 171t-35 139.5t-36.5 137 t-8 164.5q-84 86 -185.5 147.5t-219 90.5t-252 22.5t-283.5 -55.5q8 -59 -16.5 -85.5t-65.5 -37.5q4 -63 -10.5 -107t-33 -84t-31.5 -85t-7 -111zM451 590q2 49 10 104l49 59q25 30 29 78h41v58q33 6 54 25l42 38q20 18 49 30.5t78 4.5q8 0 8 7t2 12q18 -14 43 -12.5 t50.5 4.5t48 -1t34.5 -30q18 20 33.5 18t28 -12t26 -24.5t29.5 -20.5q10 -53 -4.5 -83t-34.5 -52q-51 -8 -87 -2t-67.5 17t-66.5 19.5t-82 3.5q-31 -31 -63.5 -59.5t-82.5 -38.5q-2 -27 -1 -54.5t-19 -33.5q12 -6 17.5 -29.5t5.5 -49t-5.5 -48t-17.5 -29.5l38 -60 q19 -30 21 -77q37 -51 87.5 -77.5t109.5 -32.5t123.5 6t128.5 37q-4 -16 7 -17.5t13 -13.5q-6 -37 -26.5 -61.5t-45.5 -42.5l-52 -36q-26 -17 -41 -44q-12 2 -25.5 8t-28 9t-26 0t-19.5 -17q-45 -10 -74.5 -4t-54 16t-51.5 19.5t-64 7.5q-8 10 -13 25.5t-12 27.5t-19.5 19 t-34.5 5q-10 33 -16.5 70t-41.5 47q-10 51 -18 98.5t-11 93.5t-1 95z" />
<glyph unicode="&#xad;" d="M191.5 382q-3.5 11 3.5 34q27 25 50 67.5t52 78.5t65.5 52.5t92.5 -12.5q16 2 11 24.5t-1 37.5q43 8 86 40.5t86 60.5t83 33t77 -40q-4 -23 -13 -42l-16 -39q-8 -19 -12 -42t0 -53q-150 -113 -344 -166q-10 -4 -9.5 -17.5t-1.5 -25.5q-35 4 -55 -7.5t-36.5 -24.5 t-37 -24.5t-57.5 -5.5q2 18 -3 28.5t-11 21t-9.5 21.5z" />
<glyph unicode="&#xae;" horiz-adv-x="1595" d="M66 621q-4 20 6 25t26 7v187q33 18 47.5 54t27.5 73t36.5 64.5t75.5 27.5q12 53 43.5 87t74.5 55.5t95 35.5l103 28q52 13 100.5 30.5t84.5 45.5q18 -20 51 -26t72 -7t80 2t78 1q27 -37 65.5 -60.5t80.5 -45t79 -47t58 -66.5q14 -84 41 -156l54 -141q28 -70 52.5 -142.5 t38.5 -156.5q-10 -10 -14 -24.5t-9.5 -29t-13.5 -25.5t-24 -14q-2 -78 -23.5 -134t-51.5 -105l-61.5 -96.5t-52.5 -102.5q-59 -18 -131 -50t-148.5 -54.5t-156.5 -25.5t-158 36q-18 6 -23 0t-8.5 -15.5t-8.5 -16.5t-23 1q8 25 -3.5 28t-27.5 3t-28.5 3t-2.5 28 q-111 8 -186.5 52t-127.5 110.5t-88 150.5t-67 172q8 43 3 70.5t-14 51t-17 49.5t-4 63zM211 621q18 -61 37.5 -120t36 -120.5t30 -128t17.5 -139.5q76 -57 159.5 -101.5t179 -68t204 -24.5t231.5 30q49 33 87 77t70.5 92t63.5 99t66 98q12 98 -2.5 171t-35 139.5 t-36.5 137.5t-8 165q-84 84 -185.5 145.5t-219.5 90t-252 22.5t-281 -56q8 -59 -16.5 -84.5t-65.5 -35.5q4 -63 -10.5 -107.5t-33 -84.5t-31.5 -85.5t-5 -111.5zM466 905.5q7 -16.5 13 -26.5q6 -6 10 -15l3 -18h18h6q27 0 39 -12q18 -20 19 -62.5t-3 -89.5q-4 -41 -3 -81 t12 -71q-10 -33 -10.5 -72.5t1.5 -80.5q0 -23 1 -43.5t-1 -40.5q-2 0 -14 -4q-14 -4 -30.5 -10.5t-29 -17.5t-18.5 -29.5t0 -49.5l2 -16h17q53 -4 97 -6t85 -2q35 0 69.5 2t71.5 6l19 2v80l-11 6q-12 10 -26.5 13t-30.5 7q-10 4 -19.5 6.5t-17.5 6.5v2q2 10 1 21.5t-7 21.5 q8 23 7 46t-5 46q-4 35 -2 57.5t25 34.5q43 -10 64.5 -26.5t21.5 -55.5v-8l6 -6l40 -46l38 -48l42 -53l44 -50l4 -4l6 -2q23 -4 38 -11t21 -20l6 -12l15 2h8q12 0 21.5 -3t19.5 -7t23.5 -8t31.5 -4q12 0 21 2l14 2l2 16q6 70 -39 107q-18 16 -42.5 23t-49.5 13q-8 4 -25 9 q-4 23 -17 38t-24 25q-14 12 -22 22.5t-8 32.5v15l-15 4q-2 2 -10 2q2 18 -7 33.5t-17 27.5q-6 8 -11.5 14.5t-9.5 14.5q47 23 72.5 62.5t46.5 84.5q4 4 6 10.5t6 10.5l4 10l-6 10q-4 10 -6 23.5t-4 30.5q-2 16 -3 29.5t-5 25.5l-2 6l-4 2q-10 10 -21.5 18.5t-21.5 14.5 l-26 18q-11 8 -22 21l-6 6l-8 2q-14 0 -28.5 2t-30.5 6q-23 4 -44.5 7t-43.5 3q-39 0 -74 -14q-16 10 -31.5 11t-25.5 1h-11h-8q-14 0 -16 2l-15 7l-10 -13q0 -2 -2 -2h-8q-16 0 -35 6l-21.5 4.5t-21.5 2.5q-20 0 -31.5 -7.5t-15.5 -15.5q-12 -18 -5 -34.5zM727 651 q4 27 5 52.5t1 56.5v35q0 18 2 39q14 8 35 8q8 0 14.5 1t14.5 3l12 -4l12 -4q23 -4 41.5 -11.5t28.5 -19.5q4 -20 4 -35q4 -16 6 -31.5t6 -29.5q-14 -39 -51 -57.5t-80 -35.5q-6 -2 -11 -4t-11 -4q-17 4 -29 41z" />
<glyph unicode="&#xb4;" horiz-adv-x="1705" d="M502 1190q41 33 109.5 78t136 85t120 67.5t58.5 27.5q8 0 22 -22l31 -48q18 -31 37 -69q-27 -47 -65 -62.5t-79 -21.5t-79.5 -14.5t-67.5 -39.5q-20 14 -38.5 12.5t-36 -11t-34 -22.5t-34.5 -24q-12 20 -20.5 20.5t-16.5 -6.5t-17.5 -12.5t-19.5 5.5q-24 26 -6 57z" />
<glyph unicode="&#x2000;" horiz-adv-x="888" />
<glyph unicode="&#x2001;" horiz-adv-x="1779" />
<glyph unicode="&#x2002;" horiz-adv-x="888" />
<glyph unicode="&#x2003;" horiz-adv-x="1779" />
<glyph unicode="&#x2004;" horiz-adv-x="591" />
<glyph unicode="&#x2005;" horiz-adv-x="444" />
<glyph unicode="&#x2006;" horiz-adv-x="294" />
<glyph unicode="&#x2007;" horiz-adv-x="294" />
<glyph unicode="&#x2008;" horiz-adv-x="221" />
<glyph unicode="&#x2009;" horiz-adv-x="354" />
<glyph unicode="&#x200a;" horiz-adv-x="98" />
<glyph unicode="&#x2010;" d="M191.5 382q-3.5 11 3.5 34q27 25 50 67.5t52 78.5t65.5 52.5t92.5 -12.5q16 2 11 24.5t-1 37.5q43 8 86 40.5t86 60.5t83 33t77 -40q-4 -23 -13 -42l-16 -39q-8 -19 -12 -42t0 -53q-150 -113 -344 -166q-10 -4 -9.5 -17.5t-1.5 -25.5q-35 4 -55 -7.5t-36.5 -24.5 t-37 -24.5t-57.5 -5.5q2 18 -3 28.5t-11 21t-9.5 21.5z" />
<glyph unicode="&#x2011;" d="M191.5 382q-3.5 11 3.5 34q27 25 50 67.5t52 78.5t65.5 52.5t92.5 -12.5q16 2 11 24.5t-1 37.5q43 8 86 40.5t86 60.5t83 33t77 -40q-4 -23 -13 -42l-16 -39q-8 -19 -12 -42t0 -53q-150 -113 -344 -166q-10 -4 -9.5 -17.5t-1.5 -25.5q-35 4 -55 -7.5t-36.5 -24.5 t-37 -24.5t-57.5 -5.5q2 18 -3 28.5t-11 21t-9.5 21.5z" />
<glyph unicode="&#x2012;" d="M191.5 382q-3.5 11 3.5 34q27 25 50 67.5t52 78.5t65.5 52.5t92.5 -12.5q16 2 11 24.5t-1 37.5q43 8 86 40.5t86 60.5t83 33t77 -40q-4 -23 -13 -42l-16 -39q-8 -19 -12 -42t0 -53q-150 -113 -344 -166q-10 -4 -9.5 -17.5t-1.5 -25.5q-35 4 -55 -7.5t-36.5 -24.5 t-37 -24.5t-57.5 -5.5q2 18 -3 28.5t-11 21t-9.5 21.5z" />
<glyph unicode="&#x2013;" horiz-adv-x="1294" d="M99 648.5q1 25.5 12 29.5q8 4 30.5 6t47.5 2h54h48q76 -6 169 -7t188 0t186.5 3t164.5 4q27 -8 60 -12t58.5 -13.5t38.5 -32t1 -67.5q-63 -18 -161.5 -27.5t-210 -13.5t-225.5 -3t-207 3t-153.5 5t-66.5 1q-10 -2 -17 19.5t-12.5 49.5t-4.5 53.5z" />
<glyph unicode="&#x2014;" horiz-adv-x="2209" d="M115 633q12 -2 15 5t5 17q33 8 48.5 -3t33.5 -19q43 37 104.5 38t128 -7.5t133 -12.5t122.5 25q72 -14 150.5 -17.5t157.5 0t153.5 9.5t140.5 8q70 -6 155.5 -8t173.5 -1t172 4t152 5q25 -10 55.5 -13.5t54 -13.5t36 -31.5t-0.5 -66.5q-96 -31 -229 -38t-276.5 -5t-286 6 t-254.5 -4q-27 8 -71 15t-92 8.5t-91 -4t-68 -19.5q-47 25 -98 26t-104.5 -3.5t-107.5 -4.5t-105 23q-10 -10 -28 -14.5t-36 -6.5t-34.5 -6t-26.5 -14q-39 12 -63.5 39t-18.5 84z" />
<glyph unicode="&#x2018;" horiz-adv-x="1005" d="M287 1069q14 2 23 11.5t17.5 20.5t17.5 19t26 13q8 74 33.5 131t61.5 104t76 90t76 88q111 6 105 -102l-58 -61q-32 -32 -55.5 -69.5t-30 -81.5t18.5 -99q37 -4 60.5 -18.5t43.5 -35.5q-6 -29 -18 -50t-2 -62q-43 -8 -70.5 -47t-54.5 -73t-58.5 -44t-86.5 39 q4 47 -18.5 69.5t-49.5 40t-46 41t-11 76.5z" />
<glyph unicode="&#x2019;" horiz-adv-x="792" d="M162 791q6 27 21 46l29 37q13 18 23.5 42t8.5 61q16 -6 23 -3t12.5 9l10.5 11t17 5v134l-46 29q-24 15 -40 37t-22 53.5t4 78.5q41 4 58 34l35 59q17 30 45 48.5t89 4.5q57 -111 166 -166q6 -23 3 -34t-9 -21.5l-11.5 -20.5t-3.5 -29q-53 -2 -67 -45t-14 -100 q-39 -14 -48.5 -56t-15.5 -90q-18 -16 -37.5 -29.5t-37 -29.5t-31 -36.5t-17.5 -49.5q-25 -4 -44 -3t-36 6l-31 10q-16 6 -34 8z" />
<glyph unicode="&#x201c;" horiz-adv-x="1206" d="M78 922q6 139 102 188v82q33 37 58.5 82t56.5 85t71 68.5t105 34.5q29 -39 21 -104q-20 -4 -44 -25.5t-43.5 -52.5t-31 -65.5t-6 -63.5t29 -47.5t74.5 -13.5q16 -29 17 -52.5t-5 -45t-16 -43t-16 -48.5q-51 0 -65.5 -37t-16.5 -86q-25 6 -34 -3l-20 -19q-45 6 -75.5 26.5 t-55.5 45.5l-49 52q-24 26 -57 42zM596 985q10 41 37 67l52 51q26 26 44.5 60.5t11.5 91.5q31 23 58.5 69t60.5 84t74 51.5t98 -27.5q-10 -47 -38 -77l-55 -59q-28 -29 -46.5 -68.5t-5.5 -107.5q10 -25 37.5 -30t66.5 0q4 -37 16.5 -67t4.5 -79q-41 -10 -66.5 -37.5 t-58.5 -46.5v-82q-18 -14 -43 -20t-62 -2q-14 37 -42.5 60.5t-59.5 45t-54.5 49t-29.5 74.5z" />
<glyph unicode="&#x201d;" horiz-adv-x="1208" d="M133 756q-12 57 5.5 82.5t42 45t45 44t12.5 78.5q12 -6 15 -1t4 11t5 10t17 0q-2 27 -6.5 51.5t-15.5 42t-30.5 25.5t-52.5 6q0 18 -5 31l-10 25q-5 13 -8.5 28.5t3.5 38.5q43 31 78.5 66.5t46.5 99.5q33 -8 48 3t33 19q25 -29 52.5 -53.5t51 -52t41 -62t21.5 -82.5 q-20 -4 -29.5 -17t-15.5 -30.5t-13 -34t-24 -22.5q-4 -68 -24.5 -121t-50 -96t-64.5 -80t-67 -76q-37 -4 -62 1.5t-43 19.5zM651 817l59 61q32 32 55 69.5t29.5 81.5t-18.5 99q-37 4 -60.5 18.5t-43.5 35.5q6 29 18 50t2 62q43 8 71 47l53 73q26 34 58.5 44t88.5 -39 q-4 -47 18.5 -69.5t49 -40t46 -42t10.5 -75.5q-16 -4 -24 -12.5t-16.5 -19.5t-17.5 -20.5t-25 -11.5q-8 -74 -34 -131t-62 -104t-75.5 -90t-76.5 -88q-111 -7 -105 102z" />
<glyph unicode="&#x2026;" horiz-adv-x="2103" d="M217 -10q-6 47 10.5 72.5t38 46t40 44t16.5 66.5q16 4 28 12l26 17q13 8 29.5 12t40.5 2q29 -66 77 -111t89 -98q-14 -25 -33 -45l-38 -41q-18 -20 -32.5 -44.5t-21.5 -57.5q-35 8 -49 -2t-35 -19q-33 10 -55 28.5t-43 40.5l-41 42q-20 21 -47 35zM817 31q8 33 31.5 53 t48.5 38.5t44.5 42t21.5 64.5h124l28.5 -38.5t31 -38t37 -30.5t49.5 -20q4 -25 3 -43t-6 -35.5t-10.5 -33t-7.5 -33.5q-23 -4 -43 -9t-35.5 -16.5t-22.5 -29t-3 -47.5q-45 -16 -72.5 -16.5t-72.5 16.5q-6 33 -24.5 55t-40 41.5t-43.5 37t-38 42.5zM1462 0v61q16 6 28.5 17.5 t26 22t30 17.5t40.5 7q-6 20 -3 32.5t9 22.5t11.5 20.5t3.5 28.5q55 -4 96 -22.5t72.5 -48t55.5 -65.5l46 -73q-18 -27 -40 -49l-43 -44l-43 -45q-22 -24 -40 -50q-53 0 -85 20.5t-57.5 47t-49 54.5t-58.5 46z" />
<glyph unicode="&#x202f;" horiz-adv-x="354" />
<glyph unicode="&#x205f;" horiz-adv-x="444" />
<glyph unicode="&#x2122;" horiz-adv-x="3600" d="M1702 6q-2 15 -2 29q0 46 22 70q28 32 65.5 53.5t74.5 45t49 72.5q-23 47 -30 106q-7 47 -7 95v24q2 60 12.5 119.5t24.5 112.5q-10 33 -17 85t-8 108q0 9 -1 18q0 46 5 88q5 51 21 84q-12 6 -18 26.5t-6 45t6 46t18 28.5q-53 47 -101 101t-108 95q10 23 21.5 42.5 t21.5 41.5q154 -25 303 -30q19 -1 39 0q130 0 258 30q18 -45 64 -63q-25 -82 -105 -103q-3 -30 -3 -56q0 -22 2 -42q5 -43 17.5 -79t31.5 -65l36 -59q-5 -33 -5 -59q0 -33 8 -58q15 -43 39 -78.5t44 -75.5q17 -33 18 -83q0 -10 -1 -21q20 -16 31.5 -38.5t21.5 -48t21.5 -49 t29.5 -40.5q49 33 75 87.5t46.5 114.5t43 117.5t63.5 96.5q-4 33 1 56.5t14 43t17.5 40t10.5 46.5q20 -4 29.5 1.5t16.5 14.5t14 17t22 8q0 12 -6 18l-10 10q-5 5 -8 12t3 24q14 0 20.5 -7t11.5 -14.5t11 -14.5t18 -7q45 7 45 61q0 10 -2 23q-14 0 -20 -6t-11 -14.5 t-11.5 -14.5t-20.5 -6q-27 23 -46 52l-40 58q-20 29 -44 54.5t-56 42.5q10 23 21 42t20 42q29 -3 61 -3q16 0 33 1l101 4q17 1 33 0q32 0 61 -2q44 -4 75 -23q0 14 12.5 17.5t25.5 3.5t24.5 3t9.5 19q27 -18 63 -18q8 0 17 1q47 5 91 9q11 1 21 1q31 0 57 -9q34 -12 42 -68 q-27 -35 -62 -60l-70 -51q-36 -26 -67 -55.5t-51 -70.5q23 -80 30 -188.5t7 -223.5t-5 -225l-10 -195q8 -49 19.5 -95t33 -83t58.5 -59q34 -21 86 -21h10q4 -18 10.5 -37.5t9.5 -38.5q1 -8 1 -16q0 -11 -2 -21q-4 -18 -19 -32q-127 18 -247 18q-27 0 -54 -1 q-145 -5 -260 -17q6 14 0 17t-15 3h-18q-8 0 -8 10q6 29 18 51q7 12 7 29q0 15 -4 35q45 4 73.5 20.5t71.5 20.5q-3 22 -3 41t3 36q6 34 10 63.5t0 53t-31 46.5q33 57 37 124q2 38 3 77q0 29 -2 59q-2 52 -2 105v36q1 72 26 137q-23 27 -29 52.5t-4 53t7 60.5t5 72 q-66 -53 -100.5 -137t-44.5 -195q-41 -23 -63 -60q-19 -32 -20 -86q0 -10 1 -20q-12 6 -16 1t-5 -11t-4.5 -10t-15.5 0q0 -45 -15.5 -74l-31.5 -56.5t-29 -59.5q-9 -24 -9 -57q0 -11 1 -24q-12 -12 -27.5 -33.5t-24.5 -46t-9 -50t20 -46.5q-16 -59 -35.5 -114.5 t-48.5 -102.5h-125q-23 156 -67.5 289t-98.5 259l-108 251q-55 125 -98 260h-52q-23 -66 -25 -139q-2 -37 -2 -74t2 -74q3 -74 5 -143v-20q0 -59 -10 -111q6 -35 41 -41q-4 -25 -2 -53.5t3 -57t-3.5 -51t-18.5 -35.5q10 -47 45 -67l71 -40q36 -19 59 -53q15 -22 16 -58 q0 -19 -5 -42q-35 8 -49 -3t-34 -17q-8 12 -39 19t-65 7t-64.5 -7t-38.5 -19q-25 18 -57.5 17t-68.5 -6t-73 -6h-4q-35 0 -68 15zM1952 815q-1 -6 0 -11q0 -51 51 -51q5 0 11 1v61h-62zM2096 1332q0 -11 4 -17q2 -4 8 -4q4 0 10 2q-2 8 0 20.5t2 22.5t-4 16q-3 5 -12 5 q-3 0 -6 -1q2 -8 0 -20.5t-2 -23.5zM96 1198q4 45 22.5 92t35.5 78q-25 23 -17 55.5t37 49.5q4 12 0 15t-10 5t-11.5 5t1.5 15q20 49 68 53q9 1 19 0q40 0 85 -11l110 -26q23 -6 43 -6q27 0 47 11q39 -27 73 -31q19 -2 38 -2q14 0 27 1q31 3 60 4h4q28 0 58 -13 q6 12 31 18.5t52.5 6.5t52 -6.5t30.5 -18.5q38 19 86 19q9 0 18 -1q58 -4 114 -10q28 -3 55 -3t52 3q50 6 79 53q27 -2 57.5 0t59 2t52 -4t40.5 -18q2 -11 1 -22q0 -26 -11 -47l-30 -57q-15 -28 -21.5 -54.5t18.5 -57.5q-14 -47 -23.5 -96t-17.5 -102q-16 6 -23.5 3 t-12.5 -8l-10 -11q-5 -5 -16 -5q8 23 -10 21t-33 0q-6 41 -23 69l-36 58q-18 29 -32 61q-12 28 -11 69v13q-18 6 -27.5 2t-12.5 -13t-2 -23.5t1 -26.5q-6 -2 -15.5 -1t-16.5 0t-11 -5.5t0 -16.5q-66 18 -135.5 30.5t-132.5 33.5l18 -76q3 -11 3 -21q0 -28 -21 -49 q10 -14 16 -45q7 -37 7 -74q0 -29 -5 -55q-6 -31 -18 -43q15 -81 15 -176v-12l-2 -208v-27q0 -92 6 -180q7 -101 42 -185q23 -20 51.5 -35l55 -30t48 -36.5t31.5 -54.5q-12 -23 -21 -46.5t-30 -37.5q-39 25 -90 33q-41 7 -83 6h-21q-53 -2 -106.5 -8l-94.5 -11 q-41 12 -70.5 13.5t-60.5 -2.5l-65 -8q-23 -3 -52 -3h-31q-6 37 -18 67l-25 58q23 -8 21 9.5t0 31.5q98 6 171 34t120 81q-18 25 -21 67q-1 17 -1 33q0 25 2 51q3 42 6 77.5t-7 52.5q29 188 34 388q1 23 1 46q0 174 -35 334q-18 2 -42.5 0t-47 -2t-40 4t-25.5 18 q-45 -10 -88 -22.5t-79 -33t-60.5 -52t-33.5 -78.5q-23 2 -35 -5.5t-20 -17.5t-16 -22.5t-21 -18.5q-55 6 -73 41q-15 28 -15 64q-1 8 0 16z" />
<glyph unicode="&#xe000;" horiz-adv-x="960" d="M0 960h960v-960h-960v960z" />
<glyph unicode="&#xfb01;" horiz-adv-x="1277" d="M98 948q8 2 23.5 0t29 -2t22.5 3t7 20q10 -2 16.5 -7.5t13.5 -9.5t17.5 -6t26.5 2q8 4 11 13.5t20 7.5q-20 104 -10 193t50 158t107.5 113t163.5 54q25 25 51.5 21.5t53 -16.5t52 -28.5t50.5 -17.5q10 -37 19 -75t1 -91l-58 -25q-30 -12 -67 -16q-41 14 -61 61 q-88 4 -125 -22.5t-48 -74.5t-9 -112.5t-4 -132.5q25 -10 58.5 -11t68 -1t66.5 -3t54 -15q0 -41 1 -83t-21 -63q-6 12 -22.5 14.5t-35 4.5t-34 6t-21.5 16q-12 -10 -27.5 -12t-32 -3t-31.5 -6t-23 -20q-12 -20 -12.5 -54t5 -69.5t13.5 -68.5t14 -47q-14 -29 -20.5 -69 t20.5 -66q-16 -8 -18 -31t-2 -47.5t-2.5 -47t-18.5 -30.5q0 -49 24.5 -74.5t56.5 -45.5l62 -40q31 -20 43 -57q-31 -47 -82 -51t-109 6t-116.5 18t-107.5 -14q-10 0 -16 5l-10 10q-5 5 -13 8t-23 -3q0 53 22.5 84t50.5 56.5t50.5 55.5t22.5 85q-23 51 -23 107.5t6 113.5 t9.5 111.5t-13.5 101.5q-10 39 -40 56l-60 35q-31 17 -52.5 45t-13.5 83zM748 834q14 39 50 68.5t82 48t94 23.5t85 -5q-2 -98 -10.5 -191.5t-30.5 -171.5q18 -35 17 -84l-2 -99q-1 -50 6.5 -98.5t39.5 -82.5q2 -12 -2 -16.5t-10 -7.5t-10 -8t2 -20q31 -6 55.5 -28.5 t38.5 -53t13 -66.5t-23 -69q-25 -2 -44 4l-36 12q-16 5 -32.5 4t-33.5 -20q6 16 -2 18.5t-18 2.5t-18.5 2t-2.5 18q-20 -20 -41.5 -21t-44.5 5l-48 13q-26 7 -54 3q-4 33 2 56.5t18.5 39t30 26.5t33.5 24q-4 39 1 69.5t40 34.5q-20 98 -21 213v232q-27 37 -59 66z" />
<glyph unicode="&#xfb02;" horiz-adv-x="1437" d="M66 889q6 16 25.5 26.5t41 13.5t44 -1t34.5 -19q20 2 28.5 14.5t12.5 29.5l8 34q4 16 14 27q-18 43 -17 91t13.5 95t30.5 90t35 76q119 45 186 125q29 -16 75 -13t93 2t87 -16.5t57 -66.5q-10 -29 -18.5 -58.5t-2.5 -74.5q-20 -16 -51 -21.5t-51 -21.5q-25 10 -46.5 24.5 t-44 27.5t-48 22.5t-60.5 9.5q-20 -14 -32.5 -35t-39.5 -29v-299q37 -18 67 -23.5t59.5 -1t63.5 14.5t81 20q6 -53 -3.5 -91l-19.5 -75q-33 -4 -71.5 -2t-75.5 3t-69 -4t-52 -19q6 -51 12 -116.5t9 -135.5t-2 -141.5t-19 -134.5q12 -35 33.5 -62t46 -50.5t47 -48t39.5 -57.5 q-35 -49 -87.5 -52t-111.5 8.5t-121.5 19.5t-115.5 -19q-37 20 -41 84q6 25 24.5 38.5t39.5 22.5l44 18q23 9 37 26q-6 143 1 272t19 256q-16 35 -43.5 57.5t-58.5 43t-59.5 42t-46.5 54.5zM846 8q0 39 11 66.5t30.5 46t46.5 31t57 22.5q10 193 9 358.5t-9 325.5 q8 49 10.5 116.5t-11 129t-47.5 104.5t-97 45v62l175 93l177 93l62 -31q-10 -39 -29 -68.5t-53 -45.5q2 -129 0 -253l-4 -239q-2 -115 2 -216t22 -183q-18 -35 -22.5 -83t0 -95t11.5 -86t11 -58q68 -39 145 -53q2 -39 -1 -71.5t-19 -51.5q-61 20 -125.5 19.5t-127 -5 t-120 -2.5t-104.5 29z" />
<glyph unicode="&#xfb03;" horiz-adv-x="2258" d="M1813 834q14 39 50 68.5t82 48t94 23.5q16 2 31 2q30 0 54 -7q-2 -98 -10.5 -191.5t-30.5 -171.5q17 -33 17 -79q0 -3 -2 -104v-13q0 -44 6 -85q7 -48 40 -83q2 -12 -2 -16.5t-10 -7.5t-10 -8t2 -20q31 -6 55.5 -28.5t38.5 -52.5q13 -29 13 -62q0 -39 -23 -74 q-6 -1 -12 0q-17 0 -32 4l-36 12q-16 5 -32.5 4t-33.5 -20q6 16 -2 18.5t-18 2.5t-18.5 2t-2.5 18q-20 -20 -41.5 -21t-44.5 5l-48 13q-26 7 -54 3q-4 33 2 56.5t18.5 39t30 26.5t33.5 24q-2 17 -2 33q0 20 3 36q5 31 40 35q-20 98 -20 213v232q-27 37 -60 66zM2021 1280 q-4 24 -4 45q0 29 9 53q14 41 44.5 62.5t72.5 23.5q4 0 8 1q38 0 77 -19q18 -41 23 -89q1 -10 1 -20q0 -36 -12 -65q-15 -37 -54 -54q-18 -8 -43 -9q-26 0 -60 10q-19 43 -62 61zM966 948q8 2 23.5 0t29 -2t22.5 3t7 20q10 -2 16.5 -7.5t13.5 -9.5t17 -6t27 2q8 4 11 13.5 t20 7.5q-14 70 -14 132q0 31 3 61q10 89 50 158t108 113t164 54q22 22 45 22q3 0 6 -1q27 -3 53.5 -16t52 -28.5t50.5 -17.5q10 -37 19 -75q5 -20 5 -44q0 -22 -4 -47l-58 -25q-30 -12 -67 -16q-41 14 -61 61q-12 1 -23 1q-70 0 -102 -23q-37 -27 -48 -75q-10 -41 -10 -93 q0 -10 1 -19q1 -16 0 -33q0 -49 -5 -100q25 -10 59 -11t68.5 -1t66.5 -3t54 -15q0 -14 0.5 -43t0.5 -44q0 -39 -21 -59q-6 12 -22.5 14.5t-35 4.5t-34 6t-21.5 16q-12 -10 -27.5 -12t-32 -3t-31.5 -6t-24 -20q-12 -20 -12 -54t5 -69.5t13.5 -68.5t14.5 -47q-14 -29 -21 -69 q-1 -7 -1 -14q0 -30 22 -52q-16 -8 -18.5 -31t-2.5 -47.5t-2 -47t-18 -30.5q0 -49 24.5 -74.5t56.5 -45.5l62 -40q31 -20 43 -57q-31 -47 -82 -51l-29 -2q-38 0 -80 8q-58 10 -117 18q-16 2 -30 2q-41 0 -77 -16q-10 0 -16 5l-10 10q-5 5 -13 8t-23 -3q0 53 22.5 84 t50.5 56.5t50.5 55.5t22.5 85q-23 51 -23 107.5t6 113.5t9 112q0 9 1 17q0 45 -14 84q-10 39 -40 56l-60 35q-31 17 -52 45q-16 20 -16 55q0 13 2 28zM94 948q8 2 23.5 0t29 -2t22.5 3t7 20q10 -2 16.5 -7.5t13.5 -9.5t17 -6t27 2q8 4 11 13.5t20 7.5q-14 70 -14 132 q0 31 3 61q10 89 50 158t108 113t164 54q22 22 45 22q3 0 6 -1q27 -3 53.5 -16t52 -28.5t50.5 -17.5q10 -37 19 -75q5 -20 5 -44q0 -22 -4 -47l-58 -25q-30 -12 -67 -16q-41 14 -61 61q-12 1 -23 1q-70 0 -102 -23q-37 -27 -48 -75q-10 -41 -10 -93q0 -10 1 -19q1 -16 0 -33 q0 -49 -5 -100q25 -10 59 -11t68.5 -1t66.5 -3t54 -15q0 -14 0.5 -43t0.5 -44q0 -39 -21 -59q-6 12 -22.5 14.5t-35 4.5t-34 6t-21.5 16q-12 -10 -27.5 -12t-32 -3t-31.5 -6t-24 -20q-12 -20 -12 -54t5 -69.5t13.5 -68.5t14.5 -47q-14 -29 -21 -69q-1 -7 -1 -14 q0 -30 22 -52q-16 -8 -18.5 -31t-2.5 -47.5t-2 -47t-18 -30.5q0 -49 24.5 -74.5t56.5 -45.5l62 -40q31 -20 43 -57q-31 -47 -82 -51l-29 -2q-38 0 -80 8q-58 10 -117 18q-16 2 -30 2q-41 0 -77 -16q-10 0 -16 5l-10 10q-5 5 -13 8t-23 -3q0 53 22.5 84t50.5 56.5t50.5 55.5 t22.5 85q-23 51 -23 107.5t6 113.5t9 112q0 9 1 17q0 45 -14 84q-10 39 -40 56l-60 35q-31 17 -52 45q-16 20 -16 55q0 13 2 28z" />
<glyph unicode="&#xfb04;" horiz-adv-x="2430" d="M1841 35v104q82 20 112 80t32 133v23q0 63 -9.5 129t-9.5 115v18q20 10 22 42v16q0 24 -2.5 50.5t-2.5 50.5q0 8 1 16q1 32 23 42q-12 55 -13 124t-11.5 131t-40 110.5t-101.5 60.5v82q86 53 182 97l191 91q6 2 10 2t6 -2q4 -4 5.5 -10t4.5 -11t15 1q0 -86 -21 -166 l-38 -159q-18 -79 -25 -161q-1 -14 -1 -29q0 -68 24 -141q-12 -45 -18.5 -109.5t-6.5 -133t6 -134t19 -110.5q-20 -20 -22.5 -51t5.5 -62.5t19.5 -62.5t17.5 -51q13 1 25 1q102 0 101 -102q0 -12 -1 -24q-35 -6 -41 -41q-41 0 -88 7t-93 12q-33 4 -65 4q-13 0 -25 -1 q-44 -2 -81 -22q-14 2 -26 9l-22 14q-11 7 -25 12.5t-32 5.5zM966 948q8 2 23.5 0t29 -2t22.5 3t7 20q10 -2 16.5 -7.5t13.5 -9.5t17 -6t27 2q8 4 11 13.5t20 7.5q-14 70 -14 132q0 31 3 61q10 89 50 158t108 113t164 54q22 22 45 22q3 0 6 -1q27 -3 53.5 -16t52 -28.5 t50.5 -17.5q10 -37 19 -75q5 -20 5 -44q0 -22 -4 -47l-58 -25q-30 -12 -67 -16q-41 14 -61 61q-12 1 -23 1q-70 0 -102 -23q-37 -27 -48 -75q-10 -41 -10 -93q0 -10 1 -19q1 -16 0 -33q0 -49 -5 -100q25 -10 59 -11t68.5 -1t66.5 -3t54 -15q0 -14 0.5 -43t0.5 -44 q0 -39 -21 -59q-6 12 -22.5 14.5t-35 4.5t-34 6t-21.5 16q-12 -10 -27.5 -12t-32 -3t-31.5 -6t-24 -20q-12 -20 -12 -54t5 -69.5t13.5 -68.5t14.5 -47q-14 -29 -21 -69q-1 -7 -1 -14q0 -30 22 -52q-16 -8 -18.5 -31t-2.5 -47.5t-2 -47t-18 -30.5q0 -49 24.5 -74.5 t56.5 -45.5l62 -40q31 -20 43 -57q-31 -47 -82 -51l-29 -2q-38 0 -80 8q-58 10 -117 18q-16 2 -30 2q-41 0 -77 -16q-10 0 -16 5l-10 10q-5 5 -13 8t-23 -3q0 53 22.5 84t50.5 56.5t50.5 55.5t22.5 85q-23 51 -23 107.5t6 113.5t9 112q0 9 1 17q0 45 -14 84q-10 39 -40 56 l-60 35q-31 17 -52 45q-16 20 -16 55q0 13 2 28zM94 948q8 2 23.5 0t29 -2t22.5 3t7 20q10 -2 16.5 -7.5t13.5 -9.5t17 -6t27 2q8 4 11 13.5t20 7.5q-14 70 -14 132q0 31 3 61q10 89 50 158t108 113t164 54q22 22 45 22q3 0 6 -1q27 -3 53.5 -16t52 -28.5t50.5 -17.5 q10 -37 19 -75q5 -20 5 -44q0 -22 -4 -47l-58 -25q-30 -12 -67 -16q-41 14 -61 61q-12 1 -23 1q-70 0 -102 -23q-37 -27 -48 -75q-10 -41 -10 -93q0 -10 1 -19q1 -16 0 -33q0 -49 -5 -100q25 -10 59 -11t68.5 -1t66.5 -3t54 -15q0 -14 0.5 -43t0.5 -44q0 -39 -21 -59 q-6 12 -22.5 14.5t-35 4.5t-34 6t-21.5 16q-12 -10 -27.5 -12t-32 -3t-31.5 -6t-24 -20q-12 -20 -12 -54t5 -69.5t13.5 -68.5t14.5 -47q-14 -29 -21 -69q-1 -7 -1 -14q0 -30 22 -52q-16 -8 -18.5 -31t-2.5 -47.5t-2 -47t-18 -30.5q0 -49 24.5 -74.5t56.5 -45.5l62 -40 q31 -20 43 -57q-31 -47 -82 -51l-29 -2q-38 0 -80 8q-58 10 -117 18q-16 2 -30 2q-41 0 -77 -16q-10 0 -16 5l-10 10q-5 5 -13 8t-23 -3q0 53 22.5 84t50.5 56.5t50.5 55.5t22.5 85q-23 51 -23 107.5t6 113.5t9 112q0 9 1 17q0 45 -14 84q-10 39 -40 56l-60 35 q-31 17 -52 45q-16 20 -16 55q0 13 2 28z" />
</font>
</defs>
</svg>
