<?xml version="1.0" encoding="utf-8"?>
<!-- Generator: Adobe Illustrator 16.0.4, SVG Export Plug-In . SVG Version: 6.00 Build 0)  -->
<!DOCTYPE svg PUBLIC "-//W3C//DTD SVG 1.1//EN" "http://www.w3.org/Graphics/SVG/1.1/DTD/svg11.dtd">
<svg version="1.1" id="Layer_1" xmlns="http://www.w3.org/2000/svg" xmlns:xlink="http://www.w3.org/1999/xlink" x="0px" y="0px"
	 width="56.875px" height="51.078px" viewBox="-0.411 -0.402 56.875 51.078" enable-background="new -0.411 -0.402 56.875 51.078"
	 xml:space="preserve">
<g>
	<polygon fill="none" stroke="#231F20" stroke-width="0.5" points="17.656,13.987 45.5,25.69 21.39,43.67 	"/>
	<polygon fill="none" stroke="#231F20" stroke-width="0.5" points="17.656,13.987 21.39,43.67 0,29.099 	"/>
	<polygon fill="none" stroke="#231F20" stroke-width="0.5" points="0,29.099 21.39,43.67 16.878,50.256 	"/>
	<polygon fill="none" stroke="#231F20" stroke-width="0.5" points="16.878,50.256 21.39,43.67 45.111,48.009 	"/>
	<polygon fill="none" stroke="#231F20" stroke-width="0.5" points="45.5,25.69 21.39,43.67 45.111,48.009 	"/>
	<polygon fill="none" stroke="#231F20" stroke-width="0.5" points="45.111,48.009 45.5,25.69 56,20.962 	"/>
	<polygon fill="none" stroke="#231F20" stroke-width="0.5" points="56,20.962 45.5,25.69 39.083,0 	"/>
	<polygon fill="none" stroke="#231F20" stroke-width="0.5" points="45.5,25.69 17.656,13.987 39.083,0 	"/>
	<polygon fill="none" stroke="#231F20" stroke-width="0.5" points="39.083,0 17.656,13.987 10.928,2.169 	"/>
	<polygon fill="none" stroke="#231F20" stroke-width="0.5" points="17.656,13.987 0,29.099 10.928,2.169 	"/>
</g>
</svg>
