<?xml version="1.0" encoding="utf-8"?>
<!-- Generator: Adobe Illustrator 16.0.4, SVG Export Plug-In . SVG Version: 6.00 Build 0)  -->
<!DOCTYPE svg PUBLIC "-//W3C//DTD SVG 1.1//EN" "http://www.w3.org/Graphics/SVG/1.1/DTD/svg11.dtd">
<svg version="1.1" id="Layer_1" xmlns="http://www.w3.org/2000/svg" xmlns:xlink="http://www.w3.org/1999/xlink" x="0px" y="0px"
	 width="400px" height="300px" viewBox="0 0 400 300" enable-background="new 0 0 400 300" xml:space="preserve">
<rect fill="#F2F0F1" width="400" height="300"/>
<g>
	<path fill="#C9C9C9" d="M148.702,107.821v83.359h102.592v-83.359H148.702z M244.882,184.768h-89.767v-70.535h89.767V184.768z"/>
	<path fill="#C9C9C9" d="M187.175,165.53l19.233-6.412l6.412-19.236l6.413,12.824l6.412,19.236l6.412,6.412h6.412v-57.709h-76.943
		v57.709h12.824L187.175,165.53z M183.981,127.058c5.311,0,9.606,4.302,9.606,9.612c0,5.316-4.295,9.625-9.606,9.625
		c-5.322,0-9.631-4.308-9.631-9.625C174.351,131.359,178.659,127.058,183.981,127.058z"/>
</g>
</svg>
