<svg xmlns="http://www.w3.org/2000/svg" version="1.1" x="0" y="0" width="113.39" height="113.39" viewBox="0" enable-background="new 0 0 113.39 113.39" xml:space="preserve"><path d="M105.01 6.13H6.99C4.79 6.13 3 7.91 3 10.12v89c0 1.35 0.68 2.54 1.7 3.27 0.36 1.2 1.19 2.19 2.29 2.74 0.74 1.47 2.25 2.49 4.01 2.49h90c1.76 0 3.27-1.02 4.01-2.49 1.1-0.55 1.93-1.54 2.29-2.73 1.03-0.72 1.71-1.91 1.71-3.27V10.12C109 7.92 107.21 6.13 105.01 6.13zM6.06 103c0.14 0.04 0.29 0.05 0.44 0.07v0.05c0 0.17 0.03 0.33 0.05 0.49C6.36 103.43 6.2 103.23 6.06 103zM75.25 12.88c3.18 0 5.75 2.57 5.75 5.75s-2.57 5.75-5.75 5.75 -5.75-2.57-5.75-5.75S72.07 12.88 75.25 12.88zM35.25 12.88c3.18 0 5.75 2.57 5.75 5.75s-2.57 5.75-5.75 5.75 -5.75-2.57-5.75-5.75S32.07 12.88 35.25 12.88zM101 106.63H11c-0.98 0-1.86-0.4-2.49-1.05 0.16 0.02 0.32 0.05 0.49 0.05h94c0.17 0 0.33-0.03 0.49-0.05C102.86 106.22 101.98 106.63 101 106.63zM104.26 104.38c-0.39 0.15-0.81 0.24-1.26 0.24H9c-0.44 0-0.86-0.09-1.26-0.24 -0.15-0.39-0.24-0.81-0.24-1.26h97C104.5 103.57 104.41 103.99 104.26 104.38zM105.45 103.62c0.02-0.16 0.05-0.32 0.05-0.49v-0.05c0.15-0.02 0.3-0.04 0.44-0.07C105.8 103.23 105.64 103.43 105.45 103.62z" fill="#fff"/></svg>