<?xml version="1.0" encoding="utf-8"?>
<!-- Generator: Adobe Illustrator 17.0.2, SVG Export Plug-In . SVG Version: 6.00 Build 0)  -->
<!DOCTYPE svg PUBLIC "-//W3C//DTD SVG 1.1//EN" "http://www.w3.org/Graphics/SVG/1.1/DTD/svg11.dtd">
<svg version="1.1" id="Layer_1" xmlns="http://www.w3.org/2000/svg" xmlns:xlink="http://www.w3.org/1999/xlink" x="0px" y="0px"
	 width="113.39px" height="113.39px" viewBox="0 0 113.39 113.39" enable-background="new 0 0 113.39 113.39" xml:space="preserve">
<g>
	<g>
		<path fill="#D4D4D4" d="M105.006,6.125H6.994C4.788,6.125,3,7.912,3,10.124v89.003c0,1.352,0.677,2.542,1.704,3.266
			c0.355,1.2,1.189,2.185,2.289,2.739c0.741,1.472,2.249,2.494,4.006,2.494h90c1.757,0,3.266-1.022,4.006-2.494
			c1.099-0.553,1.932-1.536,2.288-2.734c1.029-0.723,1.706-1.915,1.706-3.271V10.124C109,7.915,107.205,6.125,105.006,6.125z
			 M6.056,103.002c0.145,0.035,0.294,0.054,0.444,0.073v0.05c0,0.169,0.032,0.329,0.05,0.493
			C6.362,103.433,6.199,103.225,6.056,103.002z M101,106.625H11c-0.976,0-1.858-0.403-2.493-1.05c0.164,0.018,0.324,0.05,0.493,0.05
			h94c0.169,0,0.329-0.032,0.493-0.05C102.858,106.222,101.976,106.625,101,106.625z M104.257,104.382
			c-0.391,0.152-0.813,0.243-1.257,0.243H9c-0.444,0-0.865-0.092-1.257-0.243c-0.152-0.391-0.243-0.813-0.243-1.257h97
			C104.5,103.569,104.408,103.99,104.257,104.382z M105.45,103.618c0.018-0.164,0.05-0.324,0.05-0.493v-0.05
			c0.15-0.019,0.299-0.038,0.444-0.073C105.801,103.226,105.638,103.433,105.45,103.618z M107.999,99.127
			c0,0.972-0.479,1.889-1.281,2.453l-0.285,0.2l-0.024,0.081l-0.7,0.169c-0.109,0.026-0.222,0.039-0.335,0.053l-0.229,0.042H104.5
			h-97H6.958l-0.332-0.042c-0.113-0.014-0.226-0.027-0.335-0.053l-0.701-0.169l-0.025-0.085l-0.284-0.2
			C4.479,101.011,4,100.095,4,99.127V10.124C4,8.47,5.343,7.125,6.994,7.125h98.012c0.797,0,1.548,0.312,2.114,0.878
			c0.567,0.567,0.879,1.32,0.879,2.121V99.127z"/>
	</g>
	<g>
		<circle fill="#D4D4D4" cx="74.972" cy="19.972" r="5.75"/>
	</g>
	<g>
		<circle fill="#D4D4D4" cx="36.972" cy="19.972" r="5.75"/>
	</g>
</g>
</svg>
