<svg width="147" height="28" xmlns="http://www.w3.org/2000/svg" xmlns:sketch="http://www.bohemiancoding.com/sketch/ns"><title>Slice 1</title><g sketch:type="MSPage" fill="none"><path d="M1.135 14.5h38.733" stroke="#D4D4D4" stroke-linecap="square" sketch:type="MSShapeGroup"/><path d="M1.135 12.5h38.733" stroke="#D4D4D4" stroke-linecap="square" sketch:type="MSShapeGroup"/><path d="M107.135 14.5h38.733" stroke="#D4D4D4" stroke-linecap="square" sketch:type="MSShapeGroup"/><path d="M107.135 12.5h38.733" stroke="#D4D4D4" stroke-linecap="square" sketch:type="MSShapeGroup"/><path d="M94.631 11.685c1.26-1.373 1.156-4.377-2.232-4.286-.614.176-.873-.041-.706-.708.273-1.095-.257-1.886-2.239-1.671 0 0 1.14-1.64.702-3.387-.396-1.583-2.321-1.521-4.122-.168-.317-.541-.535-1.521-1.386-1.46-1.492.324-2.284 1.866-3.512 2.731 0 0-2.106-1.508-3.71 2.434-1.334-.46-2.214.009-2.728 1.464-.217.615-.306 1.302-.652 1.849-1.439-.041-4.833.243-4.886.189.119-.527.489-.946.753-1.406.721-.991.59-2.248.248-3.394-.793-2.659-5.613-5.551-9.434-1.407-2.174 2.358-1.678 6.106-1.075 8.829 0 0-2.64-.93-1.483 1.899.054.132.071.232-.141.156-.813-.37-2.383-.299-3.527-.079-1.655.318-1.779 1.312-1.557 2.161-1.32.811-2.931 2.001-2.945 3.759-.003.713.766 1.352 1.373 1.798-.535.892-1.261 3.36.514 4.006 1.194.434 3.081-.055 4.094-1.626-.158 1.504 1.148 3.792 1.512 4.1 1.405 1.191 3.267.269 4.721-1.571.832.27 1.598 1.109 2.615.933 1.334-.365 1.611-3.218 1.611-3.218.987.754 1.911-.309 2.098-.68.368-.735.303-1.842.662-2.578 1.149-.108 1.928-1.244 2.192-2.285 1.756.041 3.209.095 5.031.243-.303.813-.841 1.527-1.174 2.325-1.365 3.268 1.783 6.943 6.548 5.26 3.08-1.222 4.365-3.643 3.895-6.76 1.723.649 3.868-.933 2.192-2.92l.092-.095c3.826.141 4.891.863 7.063-.53 1.409-.903 1.266-2.469-.408-3.905zm-25.47-1.2c.027.074-.055.087-.096.136-1.755-.272-3.771-.866-4.69-2.401l.343-.495c1.125 1.399 2.798 2.352 4.443 2.76zm-6.606-7.539c3.051-2.288 6.275-.338 5.997 2.188-.105.959-.926 1.756-1.89 1.211.347-.363 1.109-.33 1.256-.915.08-.58.013-1.189-.283-1.667-.796-1.289-3.121-1.516-4.684.07-2.212 2.245-2.19 7.212 3.8 8.676 2.426.593 4.332.187 4.332.187l-.094.821c-4.715 0-7.709-.242-9.75-3.689-1.063-1.795-1.12-5.057 1.315-6.883zm-5.244 19.448c-.267-.423-.481-.969-.721-1.433-.868.569-1.653 1.299-2.54 1.795-1.507.843-1.953.375-1.024-1.115.29-.465.595-.926.96-1.363-.868-.259-2.07-.484-2.07-1.719.361-1.842 2.39-1.692 3.712-2.211-1.688-.704-1.677-1.377-1.361-1.822 1.313-1.851 5.875-.538 5.875-.538-.053-.737-1.175-1.774-.147-2.402 1.589.355 3.085 1.433 4.38 2.006-.414.368-1.188.587-1.162 1.324l.441.942c-1.666.475-3.681-.391-4.017 1.408-.133.711.346 1.488.652 2.072-.441.232-.908.369-1.402.45-.481.887-.734 2.006-1.576 2.606zm12.79-4.113c-.668.73-1.514-.135-2.305-.149 0 .546.082 1.096.161 1.651.258 1.794-.603 2.154-1.556 1.411-.432-.336-.828-.747-1.251-1.021.008 1.698-.102 2.31-.202 2.781-.361 1.7-1.111 1.755-1.973.474-.54-.803-.772-.823-.772-.823-.71.871-.917 2.091-1.774 2.825-1.792 1.533-3.834.078-2.113-1.949.543-.64 1.395-1.091 2.06-1.552-.218-.274-.647-.39-1.03-.536-.852-.325-1.351-1.164.321-1.562.639-.152 1.311-.216 1.799-.484l-1.773-1.554c-.791-1.673 4.91-1.405 4.91-1.405l.15-.149c-.314-.554-1.159-1.122-.696-1.757 2.196.122 4.624.541 7.024.581-.273.973-.614 2.162-.982 3.216zm4.158-.901c-.896-.124-1.914-.581-2.891-.346.964-2.256.489-5.191-.285-7.378l2.877.443c1.452 2.366.995 6.046.299 7.281zm1.616-5.739c.19-.978.114-2.13.278-3.173.255-1.618.746-2.312 1.631.281.04-3.294 2.292-5.638 3.016-3.195.146.491.092 1.079.092 1.079.71-.923 1.218-2.063 1.999-2.917 1.07-1.169 2.067-1.179 1.778.568-.043.259-.069.518.028.756.567-.315 1.065-.99 1.665-1.315 2.045-1.106 2.779.588.838 2.115-1.314 1.033-3.381 1.221-3.381 1.221.439.576 1.561.951 1.109 1.928-.976 1.896-4.127.924-4.127.924.103.777.568 1.593.284 2.356-.503.469-1.225.248-1.857.094-1.148-.187-2.231-.602-3.353-.723zm6.285 12.103c-3.263 1.21-5.763-.548-5.224-2.729.24-.77.906-1.541 1.772-1.645-.027.692-.933 1.11-1.013 1.88.48 3.056 4.384 2.594 5.403.285.873-1.976.158-5.095-3.099-6.897-.889-.492-2.737-1.329-3.157-1.432-.04-.183.053-.431.093-.653 1.612.328 3.366.896 4.747 1.898 3.35 2.432 3.959 7.546.476 9.294zm-5.302-9.26c1.964.253 4.495 2.467 4.767 4.366-.213.154-.453.436-.773.462-.672-2.135-1.271-2.833-3.895-4.284-.06-.033-.173-.553-.099-.543zm15.837-3.552c-.679.291-1.313.671-1.975.989 0 0 1.004.101 1.783.518 1.697.908.995 2.538-.688 2.399-2.659-.219-2.99-.56-5.459-1.878.032.52.447 1.313.696 2.008.407 1.136.019 1.834-1.43 1.217-1.623-.691-2.576-2.808-3.996-3.772 0 0 1.557-.65.469-2.257 2.163.26 3.687-1.682 5.433-2.763 2.009-1.181 3.733-.725 1.876 1.477 0 0 1.396-.383 2.606-.39 2.58-.014 2.688 1.593.686 2.451z" fill="#D4D4D4" sketch:type="MSShapeGroup"/></g></svg>