<?xml version="1.0" encoding="utf-8"?>
<!-- Generator: Adobe Illustrator 18.0.0, SVG Export Plug-In . SVG Version: 6.00 Build 0)  -->
<!DOCTYPE svg PUBLIC "-//W3C//DTD SVG 1.1//EN" "http://www.w3.org/Graphics/SVG/1.1/DTD/svg11.dtd">
<svg version="1.1" xmlns="http://www.w3.org/2000/svg" xmlns:xlink="http://www.w3.org/1999/xlink" x="0px" y="0px"
	 viewBox="0 0 167 124" enable-background="new 0 0 167 124" xml:space="preserve">
<g id="Layer_1">
	<g>
		<path d="M161.3,124H5.2c-2.8,0-5-2.2-5-5V5c0-2.8,2.2-5,5-5h156.1c2.8,0,5,2.2,5,5v114C166.3,121.8,164,124,161.3,124z M5.2,2
			c-1.7,0-3,1.3-3,3v114c0,1.7,1.3,3,3,3h156.1c1.7,0,3-1.3,3-3V5c0-1.7-1.3-3-3-3H5.2z"/>
	</g>
	<g>
		<path d="M134.9,18.5v25h-29.6v-25H134.9 M98,18.5v25H68.4v-25H98 M61.1,18.5v25H31.6v-25H61.1 M134.9,50.5v25h-29.6v-25H134.9
			 M98,50.5v25H68.4v-25H98 M61.1,50.5v25H31.6v-25H61.1 M134.9,82.5v25h-29.6v-25H134.9 M98,82.5v25H68.4v-25H98 M61.1,82.5v25
			H31.6v-25H61.1 M135.2,16.5h-30.3c-0.9,0-1.6,0.9-1.6,2v25c0,1.1,0.7,2,1.6,2h30.3c0.9,0,1.6-0.9,1.6-2v-25
			C136.9,17.4,136.1,16.5,135.2,16.5L135.2,16.5z M98.4,16.5H68.1c-0.9,0-1.6,0.9-1.6,2v25c0,1.1,0.7,2,1.6,2h30.3
			c0.9,0,1.6-0.9,1.6-2v-25C100,17.4,99.3,16.5,98.4,16.5L98.4,16.5z M61.5,16.5H31.2c-0.9,0-1.6,0.9-1.6,2v25c0,1.1,0.7,2,1.6,2
			h30.3c0.9,0,1.6-0.9,1.6-2v-25C63.1,17.4,62.4,16.5,61.5,16.5L61.5,16.5z M135.2,48.5h-30.3c-0.9,0-1.6,0.9-1.6,2v25
			c0,1.1,0.7,2,1.6,2h30.3c0.9,0,1.6-0.9,1.6-2v-25C136.9,49.4,136.1,48.5,135.2,48.5L135.2,48.5z M98.4,48.5H68.1
			c-0.9,0-1.6,0.9-1.6,2v25c0,1.1,0.7,2,1.6,2h30.3c0.9,0,1.6-0.9,1.6-2v-25C100,49.4,99.3,48.5,98.4,48.5L98.4,48.5z M61.5,48.5
			H31.2c-0.9,0-1.6,0.9-1.6,2v25c0,1.1,0.7,2,1.6,2h30.3c0.9,0,1.6-0.9,1.6-2v-25C63.1,49.4,62.4,48.5,61.5,48.5L61.5,48.5z
			 M135.2,80.5h-30.3c-0.9,0-1.6,0.9-1.6,2v25c0,1.1,0.7,2,1.6,2h30.3c0.9,0,1.6-0.9,1.6-2v-25C136.9,81.4,136.1,80.5,135.2,80.5
			L135.2,80.5z M98.4,80.5H68.1c-0.9,0-1.6,0.9-1.6,2v25c0,1.1,0.7,2,1.6,2h30.3c0.9,0,1.6-0.9,1.6-2v-25
			C100,81.4,99.3,80.5,98.4,80.5L98.4,80.5z M61.5,80.5H31.2c-0.9,0-1.6,0.9-1.6,2v25c0,1.1,0.7,2,1.6,2h30.3c0.9,0,1.6-0.9,1.6-2
			v-25C63.1,81.4,62.4,80.5,61.5,80.5L61.5,80.5z"/>
	</g>
	<g>
		<g>
			<path d="M47.6,36.3c-0.2-0.1-0.4-0.1-0.6,0l-3.2,3.2l-1.1-1c-0.1-0.1-0.2-0.1-0.3-0.1c-0.1,0-0.2,0.1-0.3,0.1l-4.7,5.2l18.4,0
				L47.6,36.3z"/>
		</g>
		<g>
			<circle cx="42.2" cy="34" r="2"/>
		</g>
	</g>
	<g>
		<g>
			<path d="M84.7,36.3c-0.2-0.1-0.4-0.1-0.6,0l-3.2,3.2l-1.1-1c-0.1-0.1-0.2-0.1-0.3-0.1c-0.1,0-0.2,0.1-0.3,0.1l-4.7,5.2l18.4,0
				L84.7,36.3z"/>
		</g>
		<g>
			<circle cx="79.3" cy="34" r="2"/>
		</g>
	</g>
	<g>
		<g>
			<path d="M121.5,36.3c-0.2-0.1-0.4-0.1-0.6,0l-3.2,3.2l-1.1-1c-0.1-0.1-0.2-0.1-0.3-0.1c-0.1,0-0.2,0.1-0.3,0.1l-4.7,5.2l18.4,0
				L121.5,36.3z"/>
		</g>
		<g>
			<circle cx="116.1" cy="34" r="2"/>
		</g>
	</g>
	<g>
		<g>
			<path d="M47.6,68.1c-0.2-0.1-0.4-0.1-0.6,0l-3.2,3.2l-1.1-1c-0.1-0.1-0.2-0.1-0.3-0.1c-0.1,0-0.2,0.1-0.3,0.1l-4.7,5.2l18.4,0
				L47.6,68.1z"/>
		</g>
		<g>
			<circle cx="42.2" cy="65.8" r="2"/>
		</g>
	</g>
	<g>
		<g>
			<path d="M83.7,68.1c-0.2-0.1-0.4-0.1-0.6,0l-3.2,3.2l-1.1-1c-0.1-0.1-0.2-0.1-0.3-0.1c-0.1,0-0.2,0.1-0.3,0.1l-4.7,5.2l18.4,0
				L83.7,68.1z"/>
		</g>
		<g>
			<circle cx="78.3" cy="65.8" r="2"/>
		</g>
	</g>
	<g>
		<g>
			<path d="M121.5,68.1c-0.2-0.1-0.4-0.1-0.6,0l-3.2,3.2l-1.1-1c-0.1-0.1-0.2-0.1-0.3-0.1c-0.1,0-0.2,0.1-0.3,0.1l-4.7,5.2l18.4,0
				L121.5,68.1z"/>
		</g>
		<g>
			<circle cx="116.1" cy="65.8" r="2"/>
		</g>
	</g>
	<g>
		<g>
			<path d="M48.6,100.8c-0.2-0.1-0.4-0.1-0.6,0l-3.2,3.2l-1.1-1c-0.1-0.1-0.2-0.1-0.3-0.1c-0.1,0-0.2,0.1-0.3,0.1l-4.7,5.2l18.4,0
				L48.6,100.8z"/>
		</g>
		<g>
			<circle cx="43.2" cy="98.5" r="2"/>
		</g>
	</g>
	<g>
		<g>
			<path d="M83.7,100.8c-0.2-0.1-0.4-0.1-0.6,0l-3.2,3.2l-1.1-1c-0.1-0.1-0.2-0.1-0.3-0.1c-0.1,0-0.2,0.1-0.3,0.1l-4.7,5.2l18.4,0
				L83.7,100.8z"/>
		</g>
		<g>
			<circle cx="78.3" cy="98.5" r="2"/>
		</g>
	</g>
	<g>
		<g>
			<path d="M121.5,100.8c-0.2-0.1-0.4-0.1-0.6,0l-3.2,3.2l-1.1-1c-0.1-0.1-0.2-0.1-0.3-0.1c-0.1,0-0.2,0.1-0.3,0.1l-4.7,5.2l18.4,0
				L121.5,100.8z"/>
		</g>
		<g>
			<circle cx="116.1" cy="98.5" r="2"/>
		</g>
	</g>
</g>
<g id="Layer_2" display="none">
	<g display="inline">
		<path d="M161.6,124H5.5c-2.8,0-5-2.2-5-5V5c0-2.8,2.2-5,5-5h156.1c2.8,0,5,2.2,5,5v114C166.6,121.8,164.4,124,161.6,124z M5.5,2
			c-1.7,0-3,1.3-3,3v114c0,1.7,1.3,3,3,3h156.1c1.7,0,3-1.3,3-3V5c0-1.7-1.3-3-3-3H5.5z"/>
	</g>
	<g display="inline">
		<g>
			<path d="M97.6,35.8h-30c-0.5,0-0.9,0.4-0.9,0.9v30c0,0.5,0.4,0.9,0.9,0.9h30c0.5,0,0.9-0.4,0.9-0.9v-30
				C98.5,36.2,98.1,35.8,97.6,35.8z M96.7,65.8H68.4V37.6h28.2V65.8z"/>
		</g>
	</g>
	<g display="inline">
		<g>
			<path d="M129.6,93v14h-14V93H129.6 M102.6,93v14h-14V93H102.6 M76.6,93v14h-14V93H76.6 M49.6,93v14h-14V93H49.6 M129.6,91h-14
				c-1.1,0-2,0.9-2,2v14c0,1.1,0.9,2,2,2h14c1.1,0,2-0.9,2-2V93C131.6,91.9,130.7,91,129.6,91L129.6,91z M102.6,91h-14
				c-1.1,0-2,0.9-2,2v14c0,1.1,0.9,2,2,2h14c1.1,0,2-0.9,2-2V93C104.6,91.9,103.7,91,102.6,91L102.6,91z M76.6,91h-14
				c-1.1,0-2,0.9-2,2v14c0,1.1,0.9,2,2,2h14c1.1,0,2-0.9,2-2V93C78.6,91.9,77.7,91,76.6,91L76.6,91z M49.6,91h-14c-1.1,0-2,0.9-2,2
				v14c0,1.1,0.9,2,2,2h14c1.1,0,2-0.9,2-2V93C51.6,91.9,50.7,91,49.6,91L49.6,91z"/>
		</g>
	</g>
	<g display="inline">
		<path d="M67.5,67.6c-0.2,0-0.4-0.1-0.6-0.2c-0.4-0.3-0.4-0.9-0.1-1.3L76,56c0.2-0.2,0.4-0.3,0.6-0.3c0.2,0,0.5,0.1,0.7,0.2
			l2.4,2.2l7.2-7.1c0.3-0.3,0.9-0.4,1.2,0l10.1,9.1c0.2,0.2,0.3,0.4,0.3,0.7v5.9c0,0.5-0.4,0.9-0.9,0.9
			C97.6,67.6,67.8,67.6,67.5,67.6z"/>
	</g>
	<g display="inline">
		<path d="M76,50.3c-2.4,0-4.4-2-4.4-4.4c0-2.4,2-4.4,4.4-4.4c2.4,0,4.4,2,4.4,4.4C80.4,48.3,78.4,50.3,76,50.3z"/>
	</g>
</g>
<g id="Layer_3" display="none">
	
		<path display="inline" fill-rule="evenodd" clip-rule="evenodd" fill="none" stroke="#000000" stroke-width="2" stroke-miterlimit="10" d="
		M5.5,1h156.1c2.2,0,4,1.8,4,4v114c0,2.2-1.8,4-4,4H5.5c-2.2,0-4-1.8-4-4V5C1.5,2.8,3.3,1,5.5,1z"/>
	<g display="inline">
		<path d="M107.1,39H60c-0.8,0-1.4,0.6-1.4,1.4v47.1c0,0,0,0,0,0.1c0,0,0,0,0,0.1c0,0.2,0.1,0.3,0.1,0.5c0,0,0,0,0,0
			c0.1,0.2,0.2,0.3,0.3,0.4c0,0,0,0,0,0c0,0,0,0,0,0c0.1,0.1,0.3,0.2,0.4,0.2c0,0,0,0,0.1,0C59.7,89,59.8,89,60,89h47.1
			c0.8,0,1.4-0.6,1.4-1.4V40.4C108.6,39.6,107.9,39,107.1,39z M106.5,76.1L92.2,62.9c-0.6-0.5-1.4-0.5-2,0L79,74.1l-3.7-3.5
			c-0.3-0.3-0.7-0.4-1-0.4c-0.4,0-0.7,0.2-1,0.5L60.5,84.8v-44h46V76.1z M74.7,64.4c3.8,0,6.9-3.1,6.9-6.9c0-3.8-3.1-6.9-6.9-6.9
			s-6.9,3.1-6.9,6.9C67.8,61.4,70.9,64.4,74.7,64.4z"/>
	</g>
</g>
</svg>
