<?xml version="1.0" encoding="utf-8"?>
<!-- Generator: Adobe Illustrator 15.0.0, SVG Export Plug-In . SVG Version: 6.00 Build 0)  -->
<!DOCTYPE svg PUBLIC "-//W3C//DTD SVG 1.1//EN" "../../../www.w3.org/Graphics/SVG/1.1/DTD/svg11.dtd">
<svg version="1.1" id="controls.fw-Page_x25_201" xmlns="http://www.w3.org/2000/svg" xmlns:xlink="../../../www.w3.org/1999/xlink"
	 x="0px" y="0px" width="144px" height="32px" viewBox="0 0 144 32" enable-background="new 0 0 144 32" xml:space="preserve">
<path fill="none" d="z"/>
<g id="BG">
</g>
<g id="controls">
	<path id="Line" fill="#767576" stroke="#FFFFFF" d="M98.5,7.5h11"/>
	<path id="Line2" fill="#767576" stroke="#FFFFFF" d="M98.5,3.5h11"/>
	<path id="Line3" fill="#767576" stroke="#FFFFFF" d="M98.5,11.5h11"/>
	<path id="Ellipse" fill="#767576" d="M108,11.5c0-0.828,0.447-1.5,1-1.5s1,0.672,1,1.5s-0.447,1.5-1,1.5S108,12.328,108,11.5z"/>
	<path id="Ellipse2" fill="#767576" d="M104,7.5c0-0.829,0.447-1.5,1-1.5s1,0.671,1,1.5c0,0.828-0.447,1.5-1,1.5S104,8.328,104,7.5z
		"/>
	<path id="Ellipse3" fill="#767576" d="M108,3.5c0-0.829,0.447-1.5,1-1.5s1,0.671,1,1.5S109.553,5,109,5S108,4.329,108,3.5z"/>
</g>
<g id="backlight">
	<g id="off">
		<rect x="83" y="21" fill="#767576" stroke="#FFFFFF" width="10" height="6"/>
	</g>
	<g id="on">
		<path id="Ellipse4" fill="#767576" d="M81,8c0-2.762,3.134-5,7-5s7,2.238,7,5s-3.134,5-7,5S81,10.762,81,8z"/>
		<rect x="83" y="5" fill="#767576" stroke="#FFFFFF" width="10" height="6"/>
	</g>
</g>
<g id="loop">
	<g id="on2">
		
			<linearGradient id="SVGID_1_" gradientUnits="userSpaceOnUse" x1="-213.5415" y1="378.4668" x2="-213.5415" y2="375.8915" gradientTransform="matrix(12 0 0 -11.125 2634.5 4212.4375)">
			<stop  offset="0" style="stop-color:#FFFFFF"/>
			<stop  offset="1" style="stop-color:#C8C8C8"/>
		</linearGradient>
		<path fill="url(#SVGID_1_)" d="M73.795,4.205C75.215,4.878,76.2,6.323,76.2,8c0,2.319-1.88,4.2-4.2,4.2c-2.32,0-4.2-1.881-4.2-4.2
			c0-1.677,0.985-3.122,2.405-3.795l-1.33-1.33C67.15,3.929,66,5.831,66,8c0,3.314,2.686,6,6,6c3.314,0,6-2.686,6-6
			c0-2.169-1.15-4.071-2.875-5.125L73.795,4.205z"/>
		
			<linearGradient id="SVGID_2_" gradientUnits="userSpaceOnUse" x1="-186.2998" y1="336.6006" x2="-186.2998" y2="334.2131" gradientTransform="matrix(5 0 0 -5 1000 1685)">
			<stop  offset="0" style="stop-color:#FFFFFF"/>
			<stop  offset="1" style="stop-color:#C8C8C8"/>
		</linearGradient>
		<path fill="url(#SVGID_2_)" d="M71,2h-5l5,5V2z"/>
	</g>
	<g id="off2">
		<path fill="#A8A8B7" d="M73.795,20.205C75.215,20.879,76.2,22.323,76.2,24c0,2.319-1.88,4.2-4.2,4.2c-2.32,0-4.2-1.881-4.2-4.2
			c0-1.677,0.985-3.121,2.405-3.795l-1.33-1.33C67.15,19.929,66,21.83,66,24c0,3.314,2.686,6,6,6c3.314,0,6-2.686,6-6
			c0-2.17-1.15-4.071-2.875-5.125L73.795,20.205z"/>
		<path fill="#A8A8B7" d="M71,18h-5l5,5V18z"/>
	</g>
</g>
<g id="cc">
	<rect x="49" y="2" display="none" fill="#767576" stroke="#FFFFFF" width="14" height="12"/>
	<text transform="matrix(1 0 0 1 49 17)" fill="#767576" font-family="'ArialMT'" font-size="10">cc</text>
	<path fill="#767576" stroke="#FFFFFF" d="M55,7c-4.719-3.219-4.937,5.94,0,3"/>
	<path fill="#767576" stroke="#FFFFFF" d="M60,7c-4.719-3.219-4.937,5.94,0,3"/>
	<path fill="#767576" d="M50,3h12v10H50V3z M49,2v12h14V2H49z"/>
	<rect x="49" y="2" fill="#767576" width="14" height="12"/>
</g>
<g id="volume">
	<g id="no_x25_20sound">
		<rect x="17" y="5" fill="#767576" width="5" height="6"/>
		<path fill="#767576" d="M21,5l4-3v12l-4-2.938V5z"/>
	</g>
	<g id="sound_x25_20bars">
		<rect x="17" y="21" fill="#767576" width="5" height="6"/>
		<path fill="#767576" d="M21,21l4-3v12l-4-2.938V21z"/>
	</g>
</g>
<g id="play_x2F_pause">
	<g id="play">
		<path id="Polygon" fill="#767576" d="M14,8.5L3,14V3L14,8.5z"/>
	</g>
	<g id="pause">
		<rect x="3.313" y="18" fill="#767576" width="3.125" height="12"/>
		<rect x="9.688" y="18" fill="#767775" width="3.25" height="12"/>
	</g>
</g>
<g id="fullscreen">
	<g id="enter_x25_201">
		<path fill="#767576" d="M34,2h5l-5,5V2z"/>
		<path fill="#767576" d="M34,14h5l-5-5V14z"/>
		<path fill="#767576" d="M46,2h-5l5,5V2z"/>
		<path fill="#767576" d="M46,14h-5l5-5V14z"/>
	</g>
	<g id="exit">
		<path fill="#767576" d="M42,22h4l-4-4V22z"/>
		<path fill="#767576" d="M38,22v-4l-4,4H38z"/>
		<path fill="#767576" d="M38,26h-4l4,4V26z"/>
		<path fill="#767576" d="M42,26v4l4-4H42z"/>
	</g>
</g>
<g id="stop">
	<rect x="115" y="3" fill="#767576" width="10" height="10"/>
</g>
<g id="chooser">
	<path fill="#767576" d="M135.234,6.152c1.021-0.423,2.191,0.062,2.613,1.082c0.423,1.021-0.062,2.19-1.082,2.613
		s-2.191-0.062-2.613-1.082C133.729,7.745,134.214,6.575,135.234,6.152z M133.273,1.417L136,4.005l2.727-2.588l0.098,3.758
		l3.758,0.098L139.994,8l2.588,2.727l-3.758,0.098l-0.098,3.758L136,11.995l-2.727,2.588l-0.098-3.758l-3.758-0.098L132.006,8
		l-2.588-2.727l3.758-0.098L133.273,1.417z"/>
</g>
<path fill="none" d="z"/>
<path id="audio-4-icon" fill="#767576" d="M26.024,21.594c0.613,0.615,0.992,1.465,0.991,2.403c0,0.937-0.382,1.786-0.998,2.399
	l1.009,1.014c0.875-0.873,1.417-2.079,1.419-3.412c0.001-1.333-0.537-2.54-1.409-3.414L26.024,21.594z M27.796,19.826
	c1.067,1.07,1.724,2.544,1.721,4.173c-0.002,1.63-0.666,3.104-1.734,4.17l1.034,1.039c1.334-1.331,2.163-3.173,2.166-5.208
	c0.003-2.033-0.817-3.873-2.148-5.208L27.796,19.826z"/>
</svg>
