<?xml version="1.0" encoding="utf-8"?>
<!-- Generator: Adobe Illustrator 17.0.0, SVG Export Plug-In . SVG Version: 6.00 Build 0)  -->
<!DOCTYPE svg PUBLIC "-//W3C//DTD SVG 1.1//EN" "http://www.w3.org/Graphics/SVG/1.1/DTD/svg11.dtd">
<svg version="1.1" id="Layer_1" xmlns="http://www.w3.org/2000/svg" xmlns:xlink="http://www.w3.org/1999/xlink" x="0px" y="0px"
	 width="240px" height="60px" viewBox="0 0 240 60" enable-background="new 0 0 240 60" xml:space="preserve">
<g>
	<path d="M19.571,16.971l0.56-1.596l0.98,0.168c1.381,0.243,2.753,0.364,4.116,0.364c1.138,0,2.081-0.046,2.828-0.14
		c0.747-0.093,1.549-0.261,2.408-0.504l0.924,1.26l-0.224,0.196c-0.43,0.448-0.644,0.859-0.644,1.232
		c0,0.243,0.121,0.672,0.364,1.288l0.42,1.008c0.168,0.355,0.28,0.588,0.336,0.7c0.13,0.243,0.299,0.532,0.504,0.868l0.308,0.504
		c0.317-0.279,0.569-0.56,0.756-0.84l0.14-0.195l0.364-0.561c0.485-0.765,0.728-1.418,0.728-1.96c0-0.653-0.318-1.25-0.952-1.792
		c-0.131-0.13-0.327-0.261-0.588-0.392l0.476-1.092l1.372,0.252c0.522,0.075,1.129,0.112,1.82,0.112c0.28,0,0.56,0,0.84,0
		c0.411-0.056,0.779-0.102,1.106-0.14s0.611-0.08,0.854-0.126s0.681-0.145,1.316-0.294l0.84,1.26
		c-0.766,0.467-1.405,0.919-1.918,1.358c-0.514,0.439-1.34,1.256-2.478,2.45c-0.355,0.355-0.77,0.813-1.246,1.372
		c-0.476,0.561-0.948,1.13-1.414,1.708l-0.644,0.813c0.206,0.392,0.392,0.728,0.56,1.008s0.327,0.532,0.476,0.756l0.168,0.252
		l1.036,1.484l0.056,0.084l1.064,1.651l0.196,0.309l1.092,1.596c0.672,0.989,1.204,1.689,1.596,2.101
		c0.392,0.41,0.915,0.821,1.568,1.231l-0.56,1.736c-0.803-0.299-1.652-0.49-2.548-0.574s-2.091-0.126-3.584-0.126
		c-0.709,0-1.372,0.061-1.988,0.182c-0.616,0.121-1.26,0.294-1.932,0.519l-0.728-1.736c0.616-0.112,0.924-0.522,0.924-1.231
		c0-0.337-0.084-0.729-0.252-1.177c-0.056-0.187-0.131-0.368-0.224-0.546c-0.093-0.177-0.252-0.471-0.476-0.882l-0.42-0.7
		l-0.224-0.364l-0.7-1.063l-0.588,0.476c-1.176,1.12-1.764,2.101-1.764,2.94c0,0.224,0.046,0.462,0.14,0.714
		c0.093,0.252,0.224,0.509,0.392,0.771c0.429,0.598,1.017,0.971,1.764,1.119l-0.644,1.624c-0.597-0.168-1.246-0.304-1.946-0.405
		c-0.7-0.103-1.358-0.154-1.974-0.154c-1.213,0-2.063,0.033-2.548,0.098c-0.486,0.066-0.999,0.229-1.54,0.49l-0.532-1.68
		c0.56-0.354,1.05-0.714,1.47-1.078s0.957-0.91,1.61-1.638l1.12-1.204l0.28-0.364c0.336-0.354,0.695-0.761,1.078-1.218
		c0.382-0.457,0.751-0.892,1.106-1.303l0.504-0.644l0.56-0.7l-0.28-0.56l-0.28-0.477c-0.523-0.952-1.214-2.024-2.072-3.22
		l-0.56-0.812l-0.448-0.589l-1.008-1.288l-0.952-1.344c-0.112-0.168-0.243-0.317-0.392-0.448c-0.15-0.13-0.346-0.271-0.588-0.42
		C20.439,17.205,20.02,17.045,19.571,16.971z"/>
	<path d="M61.795,15.627c0.224,0.616,0.336,1.25,0.336,1.904c0,0.131,0,0.252,0,0.364c-0.038,0.168-0.056,0.29-0.056,0.364
		c-0.112,0.803-0.346,1.475-0.7,2.016s-0.812,0.948-1.372,1.218c-0.56,0.271-1.083,0.405-1.568,0.405
		c-0.579,0-1.26-0.187-2.044-0.56c-0.598-0.299-1.097-0.662-1.498-1.092c-0.401-0.429-0.985-1.25-1.75-2.464
		c-0.28-0.429-0.728-0.644-1.344-0.644c-0.15,0-0.369,0.019-0.658,0.056c-0.29,0.038-0.607,0.341-0.952,0.91s-0.602,1.47-0.77,2.702
		l-0.084,0.868l-0.056,0.504c0,0.187,0,0.336,0,0.448c0,0.168,0,0.299,0,0.392c0,0.168,0,0.29,0,0.364c0,0.149,0,0.262,0,0.336
		c0,0.149,0,0.252,0,0.308c0,0.355-0.005,0.719-0.014,1.093c-0.01,0.373-0.014,0.756-0.014,1.147c0,0.168,0,0.29,0,0.364
		c0,1.046,0.033,1.834,0.098,2.366c0.065,0.531,0.154,1.05,0.266,1.554c0.224,1.083,0.443,1.857,0.658,2.324s0.564,0.9,1.05,1.302
		c0.485,0.401,1.026,0.602,1.624,0.602c0.485,0,0.947-0.153,1.386-0.462c0.438-0.308,0.779-0.741,1.022-1.302
		c0.13-0.28,0.238-0.611,0.322-0.994c0.084-0.382,0.126-0.863,0.126-1.441c0-1.009-0.08-1.797-0.238-2.366s-0.509-1.171-1.05-1.806
		l-0.644-0.616l0.42-1.12l2.324,0.308l1.96,0.252h0.14c0.168,0.02,0.41,0.028,0.728,0.028c0.485,0,1.054-0.047,1.708-0.14
		c0.653-0.094,1.362-0.28,2.128-0.561l0.616,1.12c-0.579,0.653-0.985,1.391-1.218,2.212c-0.234,0.821-0.35,1.895-0.35,3.22
		c0,0.411,0.061,0.826,0.182,1.246c0.121,0.42,0.298,0.859,0.532,1.316s0.537,0.9,0.91,1.33l-0.924,1.456
		c-0.411-0.317-0.878-0.556-1.4-0.714c-0.522-0.159-1.111-0.238-1.764-0.238c-0.691,0-1.54,0.084-2.548,0.252l-0.42,0.084
		l-1.792,0.336c-0.672,0.112-1.255,0.191-1.75,0.238c-0.495,0.046-0.985,0.069-1.47,0.069c-2.539,0-4.76-0.877-6.664-2.632
		c-1.158-1.063-1.974-2.202-2.45-3.416c-0.476-1.213-0.714-2.716-0.714-4.508c0-0.728,0.042-1.367,0.126-1.918
		s0.219-1.105,0.406-1.666c0.41-1.157,0.774-1.988,1.092-2.492c0.317-0.504,0.896-1.176,1.736-2.016
		c0.504-0.542,1.241-1.036,2.212-1.484c0.374-0.187,0.812-0.354,1.316-0.504c1.269-0.336,2.202-0.504,2.8-0.504
		c0.429,0,1.017,0.075,1.764,0.224l1.848,0.476c0.261,0.075,0.719,0.145,1.372,0.21s1.344,0.098,2.072,0.098
		C59.938,16.355,60.937,16.112,61.795,15.627z"/>
	<path d="M64.903,16.635l0.672-1.288l0.896,0.168c0.952,0.187,1.792,0.304,2.52,0.35c0.728,0.047,1.512,0.07,2.352,0.07l0.084-0.028
		l2.072-0.28l0.504-0.056c1.139-0.13,1.988-0.21,2.548-0.238c0.56-0.028,1.204-0.042,1.932-0.042c0.168,0,0.289,0,0.364,0
		c1.138,0,2.086,0.103,2.842,0.308c0.756,0.206,1.442,0.495,2.058,0.868c0.952,0.598,1.656,1.204,2.114,1.82
		c0.458,0.616,0.732,1.326,0.826,2.128c0.019,0.131,0.028,0.326,0.028,0.588c0,1.399-0.542,2.539-1.624,3.416
		c-0.317,0.242-0.686,0.448-1.106,0.616s-0.947,0.317-1.582,0.447l-1.316,0.225l-0.336,0.056l-1.764,0.308l0.728,0.057
		c1.344,0.205,2.324,0.522,2.94,0.952c0.616,0.43,1.129,1.166,1.54,2.212l0.084,0.224l0.336,0.924
		c0.112,0.318,0.205,0.546,0.28,0.687c0.074,0.14,0.196,0.284,0.364,0.434c0.168,0.149,0.345,0.225,0.532,0.225
		c0.317,0,0.541-0.122,0.672-0.364c0.13-0.242,0.205-0.438,0.224-0.588c0.019-0.149,0.028-0.317,0.028-0.504
		c0-0.262-0.038-0.467-0.112-0.616c0.56,0.056,1.031,0.341,1.414,0.854c0.382,0.514,0.574,1.144,0.574,1.891
		c0,0.485-0.093,0.998-0.28,1.54c-0.243,0.672-0.546,1.199-0.91,1.582c-0.364,0.383-0.91,0.723-1.638,1.021
		c-0.579,0.242-1.251,0.364-2.016,0.364c-0.56,0-0.915-0.01-1.064-0.028c-0.336-0.094-0.579-0.149-0.728-0.168
		c-1.942-0.411-3.286-1.643-4.032-3.696c-0.131-0.336-0.215-0.597-0.252-0.783c-0.038-0.187-0.131-0.737-0.28-1.652l-0.112-0.616
		c-0.224-1.176-0.537-1.964-0.938-2.366c-0.401-0.4-1.087-0.648-2.058-0.741h-0.364l-0.084,0.84c0,2.165,0.121,3.742,0.364,4.731
		c0.242,0.99,0.746,1.783,1.512,2.38l-0.756,1.652c-0.915-0.485-1.876-0.788-2.884-0.91c-1.008-0.121-1.885-0.182-2.632-0.182
		c-0.915,0-1.68,0.121-2.296,0.364c-0.411,0.168-0.822,0.382-1.232,0.644l-0.784-1.4c0.448-0.521,0.826-1.124,1.134-1.806
		c0.308-0.681,0.583-1.563,0.826-2.646c0.149-0.729,0.247-1.335,0.294-1.82c0.046-0.485,0.07-1.428,0.07-2.828v-0.504l-0.084-1.512
		l-0.084-1.372l-0.056-1.008l-0.14-1.177c-0.187-1.082-0.443-1.899-0.77-2.45C65.99,17.358,65.519,16.934,64.903,16.635z
		 M78.455,23.522c0.298-0.317,0.518-0.648,0.658-0.994c0.14-0.345,0.224-0.667,0.252-0.966c0.028-0.298,0.042-0.504,0.042-0.616
		c0-0.148,0-0.261,0-0.336c0-0.746-0.131-1.386-0.392-1.917c-0.262-0.532-0.612-0.919-1.05-1.162
		c-0.438-0.242-0.892-0.364-1.358-0.364c-0.653,0-1.223,0.257-1.708,0.77c-0.485,0.514-0.793,1.228-0.924,2.142
		c-0.206,1.307-0.308,2.464-0.308,3.472l0.028,1.12l0.672,0.084C76.345,24.755,77.708,24.345,78.455,23.522z"/>
	<path d="M88.983,35.143c0.896-0.653,1.563-1.502,2.002-2.548c0.438-1.045,0.658-2.464,0.658-4.256l0.028-1.148l0.056-1.147
		c0-3.024-0.178-5.185-0.532-6.482c-0.354-1.297-0.99-2.235-1.904-2.814l0.56-1.316l0.924,0.252c1.232,0.28,2.455,0.42,3.668,0.42
		c1.288,0,2.734-0.168,4.34-0.504l0.924-0.196l0.588,1.288c-0.691,0.522-1.181,1.129-1.47,1.82c-0.29,0.691-0.5,1.727-0.63,3.108
		l-0.056,1.008l-0.056,1.147l-0.028,0.532v0.561v1.147l0.028,1.176v0.504l0.112,1.652c0,0.729,0.028,1.251,0.084,1.568
		c0.112,0.392,0.187,0.672,0.224,0.84c0.373,1.456,1.045,2.558,2.016,3.304l-0.504,1.344c-1.606-0.634-3.323-0.951-5.152-0.951
		l-1.036,0.027c-0.616,0-1.251,0.075-1.904,0.225c-0.654,0.149-1.344,0.354-2.072,0.615L88.983,35.143z"/>
	<path d="M101.107,16.355l0.728-0.952c0.541,0.262,1.11,0.467,1.708,0.616c0.597,0.15,1.325,0.224,2.184,0.224
		c0.952,0,1.829-0.065,2.632-0.196c0.802-0.13,1.876-0.411,3.22-0.84c0.075-0.018,0.14-0.028,0.196-0.028
		c0.168-0.019,0.42-0.028,0.756-0.028c0.261,0,0.485,0,0.672,0c0.784,0,1.615,0.107,2.492,0.322
		c0.877,0.215,1.572,0.462,2.086,0.742c0.513,0.28,1.143,0.775,1.89,1.484l0.784,0.84c1.231,1.512,1.996,3.276,2.295,5.292
		c0.074,0.578,0.117,0.976,0.127,1.189c0.008,0.215,0.014,0.435,0.014,0.658c0,0.747-0.074,1.512-0.225,2.296
		c-0.299,1.494-0.802,2.772-1.512,3.836c-1.007,1.568-2.151,2.716-3.43,3.444c-1.279,0.728-2.852,1.092-4.718,1.092
		c-1.531,0-3.426-0.243-5.684-0.728c-0.616-0.112-1.186-0.168-1.708-0.168c-0.784,0-1.475,0.111-2.072,0.336
		c-0.243,0.074-0.43,0.149-0.56,0.224c-0.131,0.074-0.336,0.205-0.616,0.392l-1.176-1.147c0.41-0.504,0.77-1.078,1.078-1.722
		c0.308-0.645,0.555-1.358,0.742-2.143c0.112-0.448,0.191-0.872,0.238-1.273c0.046-0.401,0.07-0.91,0.07-1.526l0.028-1.12v-0.868
		v-1.008v-0.98c0-0.802-0.014-1.428-0.042-1.876c-0.028-0.447-0.089-0.961-0.182-1.539c-0.206-1.438-0.439-2.474-0.7-3.108
		C102.161,17.457,101.723,16.877,101.107,16.355z M109.703,29.011c0,0.504,0.009,0.929,0.028,1.274
		c0.018,0.345,0.065,0.732,0.14,1.161c0.206,1.158,0.504,1.979,0.896,2.465c0.392,0.485,0.942,0.728,1.652,0.728
		c0.709,0,1.32-0.284,1.834-0.854c0.513-0.569,0.872-1.479,1.078-2.73l0.224-1.372l0.028-0.308c0.056-0.448,0.088-0.747,0.098-0.896
		s0.014-0.429,0.014-0.84v-1.764l-0.056-1.176l-0.028-0.561l-0.028-1.063l-0.028-0.393c-0.075-0.765-0.154-1.399-0.238-1.904
		c-0.084-0.503-0.154-0.868-0.21-1.092c-0.243-0.858-0.481-1.46-0.714-1.806c-0.234-0.345-0.546-0.588-0.938-0.728
		c-0.392-0.14-0.756-0.21-1.092-0.21c-1.12,0-1.904,0.868-2.352,2.604c-0.038,0.168-0.075,0.336-0.112,0.504
		c-0.094,0.467-0.14,0.924-0.14,1.372l-0.056,0.868l-0.056,1.036l-0.056,1.344v0.532l0.028,1.903L109.703,29.011z"/>
	<path d="M131.794,16.159l0.812-0.84c0.878,0.43,1.923,0.709,3.137,0.84c0.485,0.056,0.924,0.084,1.315,0.084
		c0.635,0,1.446-0.093,2.437-0.28l2.1-0.364c1.27-0.224,2.417-0.336,3.444-0.336c2.464,0,4.396,0.56,5.796,1.68
		c1.307,1.045,1.96,2.361,1.96,3.948c0,0.934-0.201,1.647-0.602,2.143c-0.402,0.494-1.172,0.956-2.311,1.386
		c-0.411,0.149-0.999,0.336-1.764,0.56l-0.84,0.168l0.979,0.084c1.605,0.225,2.837,0.696,3.696,1.414
		c0.858,0.719,1.391,1.704,1.596,2.954c0.056,0.393,0.084,0.775,0.084,1.148c0,2.034-1.026,3.594-3.08,4.676
		c-0.672,0.354-1.441,0.63-2.31,0.826c-0.868,0.195-1.993,0.294-3.374,0.294c-0.411,0-0.803-0.005-1.176-0.015
		c-0.374-0.009-0.925-0.069-1.652-0.182l-0.196-0.028l-1.819-0.336l-0.841-0.14c-0.56-0.074-1.031-0.131-1.414-0.168
		s-0.779-0.056-1.189-0.056c-0.971,0-2.072,0.215-3.304,0.644l-0.42,0.168l-0.729-1.147c0.84-0.915,1.438-1.946,1.792-3.095
		c0.354-1.147,0.532-2.729,0.532-4.746v-1.008l-0.028-0.364l-0.084-2.128l-0.056-1.008l-0.028-0.476
		c0-1.046-0.145-1.988-0.434-2.828c-0.29-0.84-0.714-1.67-1.274-2.492c-0.037-0.074-0.126-0.205-0.266-0.392
		C132.144,16.561,131.98,16.364,131.794,16.159z M140.726,30.803c0.317,2.632,1.167,3.948,2.549,3.948
		c0.354,0,0.756-0.084,1.203-0.252c1.345-0.485,2.017-1.782,2.017-3.893c0-0.205,0-0.363,0-0.476
		c-0.019-0.131-0.028-0.233-0.028-0.309c-0.112-1.306-0.485-2.249-1.12-2.827c-0.635-0.579-1.689-0.868-3.164-0.868
		c-0.317,0-0.588,0.023-0.812,0.069c-0.225,0.047-0.495,0.136-0.813,0.267l0.112,3.668L140.726,30.803z M142.966,24.167
		c1.12,0,1.928-0.238,2.422-0.714c0.494-0.477,0.742-1.256,0.742-2.339c0.019-0.13,0.028-0.326,0.028-0.588
		c0-0.914-0.196-1.647-0.588-2.198c-0.393-0.55-0.971-0.91-1.736-1.078c-0.28-0.075-0.579-0.112-0.896-0.112
		c-0.746,0-1.315,0.327-1.708,0.98c-0.392,0.654-0.588,1.708-0.588,3.165v2.8l0.672,0.056c0.299,0,0.589,0.005,0.868,0.014
		C142.462,24.162,142.723,24.167,142.966,24.167z"/>
	<path d="M153.746,16.747l0.644-1.372l0.98,0.224c1.81,0.374,3.322,0.56,4.536,0.56c0.858,0,1.604-0.065,2.239-0.196
		c0.635-0.13,1.278-0.336,1.933-0.616l0.783,1.316c-0.672,0.523-1.147,1.139-1.428,1.848c-0.336,0.877-0.504,2.203-0.504,3.976
		l-0.056,0.784v0.196v1.512v0.336l-0.028,1.345l0.028,1.708c0,0.522,0.014,0.938,0.042,1.245c0.027,0.309,0.088,0.771,0.182,1.387
		c0.094,0.615,0.183,1.073,0.267,1.372s0.228,0.578,0.434,0.84c0.392,0.522,0.812,0.892,1.26,1.105
		c0.448,0.215,0.971,0.322,1.568,0.322c0.877,0,1.605-0.28,2.184-0.84c0.578-0.561,0.868-1.223,0.868-1.988
		c0-0.261-0.037-0.504-0.112-0.728c-0.131-0.43-0.317-0.789-0.56-1.078c-0.243-0.289-0.551-0.499-0.924-0.63
		c-0.374-0.131-0.7-0.196-0.98-0.196c-0.616,0-1.055,0.271-1.315,0.813c-0.374-0.243-0.663-0.564-0.868-0.967
		c-0.206-0.4-0.336-0.919-0.393-1.554c0-0.261,0.01-0.471,0.028-0.63c0.019-0.158,0.084-0.378,0.196-0.658
		c0.298-0.784,0.793-1.404,1.483-1.862c0.69-0.457,1.531-0.686,2.521-0.686c0.13,0,0.271,0,0.42,0
		c0.224,0.038,0.383,0.056,0.476,0.056c1.811,0.243,3.07,1.316,3.78,3.221c0.168,0.447,0.294,0.934,0.378,1.456
		s0.126,1.018,0.126,1.483c0,1.12-0.205,2.082-0.616,2.884c-0.41,0.803-1.045,1.568-1.903,2.296
		c-0.616,0.542-1.335,0.948-2.156,1.219s-1.783,0.405-2.884,0.405c-0.635,0-1.097-0.014-1.387-0.042
		c-0.289-0.027-0.723-0.088-1.302-0.182l-0.308-0.056l-2.044-0.336c-1.102-0.205-2.054-0.309-2.856-0.309
		c-0.504,0-0.845,0.015-1.021,0.042c-0.178,0.028-0.519,0.094-1.022,0.196s-1.046,0.266-1.624,0.49l-1.008-1.597
		c0.729-0.261,1.241-0.657,1.54-1.189s0.588-1.591,0.868-3.178c0.074-0.448,0.135-0.952,0.182-1.513
		c0.047-0.56,0.07-1.288,0.07-2.184l0.028-0.813v-0.279l-0.028-1.652l-0.028-1.12v-0.252l-0.056-0.364
		c-0.187-1.418-0.383-2.403-0.588-2.954c-0.206-0.55-0.477-1.05-0.813-1.498C154.642,17.419,154.231,17.045,153.746,16.747z"/>
	<path d="M174.745,25.007c0-0.914,0.127-1.736,0.379-2.464c0.252-0.729,0.714-1.61,1.386-2.646c0.672-1.036,1.563-1.932,2.674-2.688
		c1.11-0.756,2.356-1.302,3.738-1.638c0.821-0.187,1.68-0.28,2.576-0.28c0.97,0,1.913,0.122,2.827,0.364
		c2.539,0.635,4.551,1.853,6.034,3.654c1.484,1.802,2.227,3.916,2.227,6.342c0,0.952-0.122,1.904-0.364,2.856
		c-0.374,1.456-0.91,2.684-1.61,3.682c-0.7,0.999-1.656,1.881-2.87,2.646c-0.354,0.205-0.695,0.388-1.021,0.546
		c-0.327,0.159-0.695,0.294-1.106,0.406c-0.728,0.242-1.381,0.42-1.96,0.531c-0.578,0.112-1.157,0.168-1.735,0.168
		c-0.915,0-2.035-0.168-3.36-0.504c-1.68-0.41-3.192-1.288-4.536-2.632c-0.821-0.821-1.446-1.605-1.876-2.352
		c-0.43-0.747-0.784-1.661-1.063-2.744c-0.112-0.485-0.196-1.026-0.252-1.624C174.773,26.033,174.745,25.492,174.745,25.007z
		 M182.361,30.579c0.561,2.669,1.634,4.004,3.221,4.004c0.541,0,1.101-0.187,1.68-0.561c0.672-0.429,1.166-1.092,1.483-1.987
		c0.393-1.102,0.589-2.697,0.589-4.788v-1.093v-0.279l-0.112-1.345l-0.112-1.26l-0.027-0.392l-0.112-0.784l-0.336-1.372
		c-0.299-1.026-0.546-1.726-0.742-2.1c-0.196-0.373-0.48-0.69-0.854-0.952c-0.541-0.374-1.11-0.56-1.707-0.56
		c-0.598,0-1.153,0.21-1.666,0.63c-0.514,0.42-0.893,1.003-1.135,1.75c-0.074,0.187-0.145,0.476-0.21,0.868
		c-0.065,0.393-0.136,0.952-0.21,1.681l-0.14,1.567l-0.028,0.393c-0.019,0.299-0.032,0.564-0.042,0.798s-0.014,0.434-0.014,0.602
		c0,0.243,0,0.42,0,0.532l0.112,1.96c0.056,0.598,0.106,1.102,0.153,1.512C182.198,29.813,182.268,30.205,182.361,30.579z"/>
	<path d="M217.894,15.581c0.225,0.616,0.336,1.25,0.336,1.904c0,0.131,0,0.252,0,0.364c-0.037,0.168-0.056,0.29-0.056,0.364
		c-0.112,0.803-0.346,1.475-0.7,2.016s-0.812,0.948-1.372,1.218c-0.56,0.271-1.083,0.405-1.567,0.405
		c-0.579,0-1.261-0.187-2.044-0.56c-0.598-0.299-1.098-0.662-1.498-1.092c-0.402-0.429-0.985-1.25-1.75-2.464
		c-0.28-0.429-0.729-0.644-1.345-0.644c-0.149,0-0.368,0.019-0.657,0.056c-0.29,0.038-0.607,0.341-0.952,0.91
		c-0.346,0.569-0.603,1.47-0.771,2.702l-0.084,0.868l-0.056,0.504c0,0.187,0,0.336,0,0.448c0,0.168,0,0.299,0,0.392
		c0,0.168,0,0.29,0,0.364c0,0.149,0,0.262,0,0.336c0,0.149,0,0.252,0,0.308c0,0.355-0.005,0.719-0.014,1.093
		c-0.01,0.373-0.015,0.756-0.015,1.147c0,0.168,0,0.29,0,0.364c0,1.046,0.032,1.834,0.099,2.366c0.064,0.531,0.153,1.05,0.266,1.554
		c0.224,1.083,0.443,1.857,0.658,2.324c0.214,0.467,0.564,0.9,1.05,1.302s1.026,0.602,1.624,0.602c0.485,0,0.947-0.153,1.386-0.462
		c0.438-0.308,0.779-0.741,1.022-1.302c0.13-0.28,0.237-0.611,0.321-0.994c0.084-0.382,0.126-0.863,0.126-1.441
		c0-1.009-0.079-1.797-0.237-2.366c-0.159-0.569-0.509-1.171-1.05-1.806l-0.645-0.616l0.42-1.12l2.324,0.308l1.96,0.252h0.14
		c0.168,0.02,0.411,0.028,0.729,0.028c0.485,0,1.054-0.047,1.708-0.14c0.653-0.094,1.362-0.28,2.128-0.561l0.616,1.12
		c-0.579,0.653-0.985,1.391-1.219,2.212s-0.35,1.895-0.35,3.22c0,0.411,0.061,0.826,0.182,1.246c0.121,0.42,0.299,0.859,0.532,1.316
		s0.536,0.9,0.91,1.33l-0.924,1.456c-0.411-0.317-0.878-0.556-1.4-0.714c-0.522-0.159-1.11-0.238-1.764-0.238
		c-0.691,0-1.54,0.084-2.548,0.252l-0.42,0.084l-1.792,0.336c-0.672,0.112-1.256,0.191-1.75,0.238
		c-0.495,0.046-0.985,0.069-1.471,0.069c-2.538,0-4.76-0.877-6.664-2.632c-1.157-1.063-1.974-2.202-2.449-3.416
		c-0.477-1.213-0.715-2.716-0.715-4.508c0-0.728,0.042-1.367,0.127-1.918c0.084-0.551,0.219-1.105,0.405-1.666
		c0.41-1.157,0.774-1.988,1.092-2.492c0.317-0.504,0.896-1.176,1.736-2.016c0.504-0.542,1.241-1.036,2.212-1.484
		c0.373-0.187,0.813-0.354,1.316-0.504c1.269-0.336,2.202-0.504,2.8-0.504c0.429,0,1.018,0.075,1.764,0.224l1.849,0.476
		c0.261,0.075,0.718,0.145,1.372,0.21c0.652,0.065,1.344,0.098,2.071,0.098C216.036,16.309,217.035,16.067,217.894,15.581z"/>
	<polygon points="231.907,21.21 233.421,24.278 236.808,24.77 234.357,27.159 234.936,30.532 231.907,28.94 228.878,30.532 
		229.456,27.159 227.006,24.77 230.392,24.278 	"/>
	<polygon points="9.907,21.21 11.421,24.278 14.808,24.77 12.357,27.159 12.936,30.532 9.907,28.94 6.878,30.532 7.456,27.159 
		5.006,24.77 8.392,24.278 	"/>
</g>
<g>
	<path d="M37.127,50.986h1.144l0.585-7.164h-1.17v-1.001h2.6l2.353,5.591c0.143,0.377,0.208,0.663,0.208,0.663h0.026
		c0,0,0.065-0.286,0.208-0.663l2.353-5.591h2.6v1.001h-1.17l0.585,7.164h1.144V52h-3.536v-1.014h1.105L45.747,45.5
		c-0.013-0.286,0.039-0.754,0.039-0.754h-0.039c0,0-0.104,0.441-0.208,0.701l-2.106,4.823h-1.144l-2.106-4.823
		c-0.104-0.26-0.208-0.701-0.208-0.701h-0.039c0,0,0.052,0.468,0.039,0.754l-0.416,5.486h1.105V52h-3.536V50.986z"/>
	<path d="M49.776,50.986h1.144v-7.164h-1.144v-1.001h3.601v1.001h-1.157v7.164h1.157V52h-3.601V50.986z"/>
	<path d="M54.742,50.986h1.144v-7.164h-1.144v-1.001h2.431l4.511,6.579c0.156,0.26,0.312,0.662,0.312,0.662h0.039
		c0,0-0.065-0.455-0.065-0.74v-5.5H60.8v-1.001h3.627v1.001h-1.157V52h-1.274l-4.511-6.578c-0.169-0.26-0.312-0.663-0.312-0.663
		h-0.039c0,0,0.065,0.455,0.052,0.741v5.486h1.183V52h-3.627V50.986z"/>
	<path d="M65.636,50.986h1.144v-7.164h-1.144v-1.001h3.601v1.001h-1.157v7.164h1.157V52h-3.601V50.986z"/>
	<path d="M70.407,50.986h1.144l0.585-7.164h-1.17v-1.001h2.6l2.353,5.591c0.143,0.377,0.208,0.663,0.208,0.663h0.026
		c0,0,0.065-0.286,0.208-0.663l2.353-5.591h2.6v1.001h-1.17l0.585,7.164h1.144V52h-3.536v-1.014h1.105L79.026,45.5
		c-0.013-0.286,0.039-0.754,0.039-0.754h-0.039c0,0-0.104,0.441-0.208,0.701l-2.106,4.823h-1.144l-2.106-4.823
		c-0.104-0.26-0.208-0.701-0.208-0.701h-0.039c0,0,0.052,0.468,0.039,0.754l-0.416,5.486h1.105V52h-3.536V50.986z"/>
	<path d="M82.51,50.986h0.884l2.925-8.165h1.469l2.925,8.165h0.884V52h-3.185v-1.014h0.975l-0.715-2.041h-3.25l-0.715,2.041h0.988
		V52H82.51V50.986z M88.347,47.905l-1.118-3.186c-0.13-0.377-0.156-0.702-0.156-0.702h-0.039c0,0-0.039,0.325-0.156,0.702
		l-1.131,3.186H88.347z"/>
	<path d="M92.442,50.986h1.144v-7.099h-1.144v-1.066h3.601v1.066h-1.157v7.046h3.198v-1.481h1.144V52h-6.786V50.986z"/>
	<path d="M100.28,50.986h1.144v-7.164h-1.144v-1.001h3.601v1.001h-1.157v7.164h1.157V52h-3.601V50.986z"/>
	<path d="M106.443,49.244v0.676c0,0.676,0.871,1.079,1.833,1.079c1.053,0,1.82-0.494,1.82-1.404c0-1.065-1.079-1.417-2.21-1.858
		c-1.209-0.455-2.444-0.976-2.444-2.601c0-1.729,1.391-2.47,2.938-2.47c1.378,0,2.782,0.52,2.782,1.521v1.079h-1.209v-0.637
		c0-0.533-0.819-0.819-1.573-0.819c-0.897,0-1.612,0.416-1.612,1.261c0,0.976,0.923,1.301,1.95,1.69
		c1.352,0.507,2.691,1.027,2.691,2.73c0,1.755-1.43,2.665-3.133,2.665c-1.43,0-3.029-0.638-3.029-1.95v-0.962H106.443z"/>
	<path d="M114.581,50.986h1.157v-7.099h-2.158v1.43h-1.131v-2.496h7.878v2.496h-1.131v-1.43h-2.158v7.099h1.157V52h-3.614V50.986z"
		/>
	<path d="M124.643,50.986h1.144v-7.164h-1.144v-1.001h4.173c0.663,0,1.157,0.065,1.612,0.273c0.728,0.325,1.261,1.079,1.261,2.067
		c0,0.896-0.442,1.611-1.157,1.976v0.026c0.988,0.286,1.521,1.183,1.521,2.223c0,1.209-0.741,2.119-1.69,2.444
		C129.92,51.974,129.491,52,128.984,52h-4.342V50.986z M129.01,46.683c0.832,0,1.353-0.572,1.353-1.404
		c0-0.532-0.208-0.987-0.599-1.209c-0.26-0.13-0.559-0.182-0.948-0.182h-1.729v2.795H129.01z M129.036,50.934
		c0.261,0,0.572-0.025,0.819-0.13c0.533-0.221,0.871-0.793,0.871-1.481c0-0.949-0.624-1.573-1.586-1.573h-2.055v3.185H129.036z"/>
	<path d="M133.495,50.986h1.144v-7.099h-1.144v-1.066h3.601v1.066h-1.156v7.046h3.197v-1.481h1.145V52h-6.786V50.986z"/>
	<path d="M145.988,42.666c2.652,0,4.719,2.041,4.719,4.68c0,2.704-2.066,4.811-4.719,4.811c-2.665,0-4.719-2.106-4.719-4.811
		C141.27,44.707,143.323,42.666,145.988,42.666z M145.988,50.999c1.859,0,3.367-1.586,3.367-3.653c0-2.002-1.508-3.536-3.367-3.536
		c-1.872,0-3.381,1.534-3.381,3.536C142.607,49.413,144.116,50.999,145.988,50.999z"/>
	<path d="M156.777,42.666c1.612,0,3.523,0.649,3.523,1.807v1.131h-1.195v-0.676c0-0.767-1.209-1.145-2.289-1.145
		c-2.145,0-3.496,1.457-3.496,3.563c0,2.119,1.377,3.68,3.535,3.68c0.819,0,2.457-0.247,2.457-1.145v-1.209h-1.794v-1.014h2.99
		v2.574c0,1.417-2.366,1.924-3.744,1.924c-2.821,0-4.797-2.055-4.797-4.771S153.918,42.666,156.777,42.666z"/>
	<path d="M166.736,42.666c1.611,0,3.522,0.649,3.522,1.807v1.131h-1.196v-0.676c0-0.767-1.209-1.145-2.287-1.145
		c-2.146,0-3.498,1.457-3.498,3.563c0,2.119,1.379,3.68,3.537,3.68c0.818,0,2.457-0.247,2.457-1.145v-1.209h-1.795v-1.014h2.99
		v2.574c0,1.417-2.366,1.924-3.744,1.924c-2.82,0-4.797-2.055-4.797-4.771S163.875,42.666,166.736,42.666z"/>
	<path d="M171.936,50.986h1.145v-7.164h-1.145v-1.001h3.602v1.001h-1.157v7.164h1.157V52h-3.602V50.986z"/>
	<path d="M176.901,50.986h1.144v-7.164h-1.144v-1.001h2.431l4.512,6.579c0.156,0.26,0.313,0.662,0.313,0.662h0.039
		c0,0-0.065-0.455-0.065-0.74v-5.5h-1.171v-1.001h3.628v1.001h-1.157V52h-1.273l-4.512-6.578c-0.169-0.26-0.313-0.663-0.313-0.663
		h-0.039c0,0,0.065,0.455,0.053,0.741v5.486h1.183V52h-3.627V50.986z"/>
	<path d="M192.488,42.666c1.612,0,3.523,0.649,3.523,1.807v1.131h-1.195v-0.676c0-0.767-1.209-1.145-2.289-1.145
		c-2.145,0-3.496,1.457-3.496,3.563c0,2.119,1.377,3.68,3.535,3.68c0.819,0,2.457-0.247,2.457-1.145v-1.209h-1.794v-1.014h2.99
		v2.574c0,1.417-2.366,1.924-3.744,1.924c-2.821,0-4.797-2.055-4.797-4.771S189.629,42.666,192.488,42.666z"/>
</g>
</svg>
