<?xml version="1.0" standalone="no"?>
<!DOCTYPE svg PUBLIC "-//W3C//DTD SVG 1.1//EN" "http://www.w3.org/Graphics/SVG/1.1/DTD/svg11.dtd" >
<svg xmlns="http://www.w3.org/2000/svg">
<metadata>Generated by IcoMoon</metadata>
<defs>
<font id="themeicons" horiz-adv-x="1024">
<font-face units-per-em="1024" ascent="960" descent="-64" />
<missing-glyph horiz-adv-x="1024" />
<glyph unicode="&#x20;" d="" horiz-adv-x="512" />
<glyph unicode="&#xe600;" d="M992 179.2c-32 44.8-128 76.8-230.4 115.2-102.4 44.8-121.6 57.6-121.6 57.6v96c0 0 38.4 25.6 51.2 115.2 25.6-6.4 44.8 32 51.2 57.6 0 19.2-6.4 76.8-32 76.8 6.4 44.8 12.8 83.2 6.4 102.4-12.8 76.8-89.6 160-204.8 160s-192-83.2-198.4-160c0-19.2 0-57.6 6.4-102.4-25.6 6.4-32-51.2-32-76.8 0-19.2 25.6-64 51.2-57.6 12.8-89.6 51.2-115.2 51.2-115.2v-96c0 0-25.6-12.8-121.6-57.6-102.4-38.4-204.8-70.4-236.8-115.2-25.6-38.4-19.2-243.2-19.2-243.2h998.4c0 0 6.4 204.8-19.2 243.2z" />
<glyph unicode="&#xe601;" d="M1017.6 761.6l-192 192h-249.6l-569.6-569.6 441.6-441.6 569.6 569.6v249.6zM768 601.6c-57.6 0-102.4 44.8-102.4 102.4s44.8 102.4 102.4 102.4c57.6 0 102.4-44.8 102.4-102.4-6.4-57.6-51.2-102.4-102.4-102.4z" />
<glyph unicode="&#xe602;" d="M819.2-38.4c-44.8-6.4-320 0-544 256-243.2 268.8-217.6 576-204.8 595.2 19.2 38.4 57.6 83.2 108.8 115.2 6.4 0 12.8 6.4 19.2 6.4 32 6.4 64-12.8 83.2-25.6l12.8-6.4c25.6-19.2 64-198.4 64-224s-32-51.2-102.4-115.2c19.2-70.4 83.2-160 128-217.6 44.8-51.2 140.8-134.4 211.2-166.4 57.6 51.2 89.6 76.8 115.2 83.2 6.4 0 6.4 0 12.8 0 25.6 0 198.4-57.6 211.2-89.6l6.4-12.8c12.8-25.6 32-70.4 6.4-108.8-38.4-38.4-83.2-76.8-128-89.6v0zM204.8 928c32 6.4 70.4-25.6 89.6-32 25.6-12.8 57.6-192 57.6-217.6s-32-51.2-102.4-108.8c19.2-70.4 83.2-172.8 134.4-224 51.2-57.6 147.2-140.8 217.6-172.8 57.6 51.2 89.6 83.2 115.2 83.2 0 0 6.4 0 6.4 0 25.6 0 198.4-57.6 204.8-83.2 12.8-25.6 44.8-70.4 12.8-115.2-32-38.4-76.8-76.8-115.2-89.6 0 0 0 0 0 0-38.4-6.4-313.6 6.4-537.6 256-236.8 262.4-224 563.2-211.2 588.8 19.2 38.4 64 76.8 108.8 102.4 6.4 6.4 12.8 6.4 19.2 12.8zM198.4 940.8v0c-6.4 0-19.2-6.4-25.6-6.4-25.6-19.2-83.2-57.6-108.8-115.2-19.2-32-25.6-345.6 204.8-608 230.4-256 512-268.8 556.8-262.4v0h6.4c57.6 19.2 108.8 76.8 121.6 96 32 44.8 12.8 89.6-6.4 115.2 0 6.4-6.4 6.4-6.4 12.8-12.8 38.4-204.8 89.6-217.6 96-6.4 0-6.4 0-12.8 0-25.6-6.4-51.2-32-115.2-83.2-70.4 32-160 115.2-204.8 160-44.8 51.2-102.4 140.8-128 211.2 70.4 57.6 96 89.6 96 115.2 0 12.8-32 211.2-64 230.4 0 0-6.4 6.4-12.8 6.4-12.8 19.2-44.8 38.4-83.2 32v0z" />
<glyph unicode="&#xe603;" d="M1011.2 256c-19.2 32-19.2 51.2-83.2 76.8s-76.8 38.4-76.8 38.4v57.6c0 0 25.6 19.2 32 76.8 12.8-6.4 32 19.2 32 38.4 0 12.8 0 51.2-19.2 44.8 0 25.6 6.4 51.2 0 64-6.4 51.2-51.2 102.4-128 102.4s-121.6-51.2-128-102.4c0-12.8 0-38.4 6.4-64-12.8 0-19.2-38.4-12.8-51.2 0-12.8 19.2-38.4 32-38.4 6.4-57.6 32-76.8 32-76.8l-57.6-38.4c32-19.2 108.8-6.4 121.6-32 6.4-12.8 32-51.2 25.6-288h236.8c0 0 6.4 166.4-12.8 192zM691.2 281.6c-19.2 32-89.6 51.2-160 83.2-76.8 25.6-89.6 38.4-89.6 38.4v70.4c0 0 25.6 19.2 32 83.2 19.2-6.4 32 19.2 38.4 38.4 0 12.8 0 57.6-19.2 51.2 0 32 0 57.6 0 70.4-6.4 57.6-57.6 115.2-140.8 115.2s-134.4-57.6-140.8-115.2c0-12.8 0-44.8 6.4-76.8-19.2 6.4-25.6-32-25.6-44.8s19.2-44.8 32-38.4c6.4-64 32-83.2 32-83.2v-70.4c0 0-19.2-12.8-89.6-38.4-70.4-32-140.8-51.2-160-83.2-12.8-32-6.4-217.6-6.4-217.6h704c0 0 6.4 185.6-12.8 217.6z" />
<glyph unicode="&#xe604;" d="M352 550.4c32 0 64-32 64-64v-76.8c0-32-32-64-64-64h-192c-32 0-64 32-64 64v76.8c0 32 32 64 64 64h192zM352 646.4h-192c-89.6 0-160-70.4-160-160v-76.8c0-89.6 70.4-160 160-160h192c89.6 0 160 70.4 160 160v76.8c0 89.6-70.4 160-160 160v0zM864 550.4c32 0 64-32 64-64v-64c0-38.4-32-64-64-64h-192c-32 0-64 25.6-64 64v64c0 32 32 64 64 64h192zM864 646.4h-192c-89.6 0-160-70.4-160-160v-64c0-89.6 70.4-160 160-160h192c89.6 0 160 70.4 160 160v64c0 89.6-70.4 160-160 160v0zM736 454.4c0-38.4-32-64-64-64h-320c-32 0-64 25.6-64 64v0c0 32 32 64 64 64h320c32 0 64-32 64-64v0z" />
<glyph unicode="&#xe605;" d="M256 640c0 141.384 114.616 256 256 256s256-114.616 256-256c0-141.384-114.616-256-256-256s-256 114.616-256 256zM768 320h-512c-141.384 0-256-114.618-256-256v-64h1024v64c0 141.382-114.616 256-256 256z" />
<glyph unicode="&#xe606;" d="M819.2 659.2v230.4h-128v-134.4l-179.2 147.2-492.8-377.6 89.6-102.4 70.4 38.4v-467.2h704v467.2l51.2-38.4 70.4 102.4-185.6 134.4zM627.2 57.6h-256v320h256v-320z" />
<glyph unicode="&#xe607;" d="M512 928c-262.4 0-480-217.6-480-480s217.6-480 480-480 480 217.6 480 480-217.6 480-480 480zM640 198.4c0 0 0 0 0 0 6.4 0 6.4 0 0 0 6.4 0 6.4-6.4 6.4-12.8-6.4 25.6 19.2 25.6 32 44.8 6.4 6.4 12.8 25.6 19.2 25.6 0-6.4 6.4-12.8 0-12.8 0 6.4 0 0 0 0 0-6.4 0-12.8-6.4-12.8 0 0 0 0 0 0-19.2-19.2-19.2-64-51.2-76.8-12.8-6.4-12.8 12.8-6.4 19.2 19.2 6.4 6.4 12.8 6.4 25.6 6.4 0 6.4 0 0 0 0 0 0 0 0 0s0 0 0 0c-6.4 0-12.8 12.8-12.8 19.2 6.4 0 6.4 6.4 12.8 0 0 0 6.4 12.8 6.4 19.2 6.4-6.4-6.4-32-6.4-38.4zM857.6 505.6c-6.4 12.8-12.8 32-19.2 44.8-12.8 19.2-19.2 44.8-32 57.6 6.4-6.4 6.4-6.4 0-12.8-6.4 0-12.8 6.4-19.2 12.8 0 6.4 6.4-6.4 0 6.4-12.8 0-19.2 12.8-32 19.2-19.2 0-38.4-12.8-57.6 0-6.4 0-6.4 19.2-12.8 6.4-6.4-6.4-6.4-6.4-12.8 0-19.2 6.4-32 25.6-44.8 25.6 0-6.4 12.8-19.2 19.2-25.6s12.8-25.6 12.8-6.4c12.8-6.4 6.4-19.2 19.2-19.2 12.8-6.4 6.4 12.8 12.8 19.2 12.8-6.4 12.8-19.2 12.8-19.2 6.4-6.4 12.8-6.4 19.2-12.8s12.8-19.2 12.8-32c-6.4 0 0-6.4-6.4-12.8s-6.4-6.4-6.4-19.2c-6.4 0-19.2-6.4-19.2-19.2-6.4-6.4-57.6-44.8-64-32s-6.4 32-12.8 44.8c-12.8 6.4-32 32-38.4 44.8 0 19.2-44.8 51.2-51.2 51.2 6.4-25.6 25.6-38.4 38.4-57.6 6.4-12.8 19.2-51.2 32-57.6 19.2 0 32-38.4 44.8-44.8 12.8-12.8 44.8 25.6 57.6 19.2 0-19.2 0-25.6-6.4-38.4-12.8-38.4-25.6-57.6-51.2-89.6-12.8-19.2-19.2-32-32-51.2-6.4-12.8 19.2-51.2 12.8-57.6 6.4-25.6 0-38.4-25.6-51.2-19.2-6.4-32-19.2-25.6-38.4s-19.2-19.2-19.2-32c-6.4-19.2-19.2-25.6-25.6-32-6.4 0-12.8 0-25.6 0s-25.6 0-38.4 0c-19.2 25.6-38.4 44.8-57.6 70.4-12.8 12.8-25.6 38.4-12.8 57.6 0 12.8-12.8 38.4-19.2 44.8-12.8 19.2-57.6 51.2-38.4 70.4 0 12.8-6.4 25.6-6.4 38.4-12.8 6.4-19.2-6.4-32 6.4-12.8 19.2-32 12.8-44.8 0 0 0-44.8-6.4-44.8 0-32 25.6-44.8 70.4-32 108.8 0 19.2 0 51.2 12.8 57.6 6.4 19.2 25.6 32 32 44.8 12.8 12.8 19.2 12.8 25.6 19.2 12.8 12.8 12.8 25.6 25.6 38.4 12.8 6.4 38.4 25.6 19.2 25.6 6.4 12.8 25.6 25.6 32 44.8 6.4 6.4 25.6 6.4 32 6.4 6.4 12.8 12.8 12.8 6.4 25.6 0 6.4 19.2 12.8 25.6 12.8s12.8 12.8 25.6 12.8c25.6 12.8 57.6 19.2 89.6 19.2 172.8 0 320-128 345.6-294.4zM524.8 742.4c0-6.4 25.6-6.4 25.6-6.4-6.4 0 0 0 0 0 19.2 12.8-44.8 25.6-44.8 25.6s0 0 0 6.4c-6.4-12.8 0 0-12.8-12.8 0-6.4-6.4-12.8-6.4-25.6 12.8-6.4 25.6 6.4 38.4 12.8zM441.6 716.8c-12.8 6.4 0 0-12.8-12.8-6.4-12.8-6.4-12.8-19.2-6.4 0 12.8 25.6 0 12.8 25.6-6.4 6.4-12.8 19.2-25.6 12.8s-32-12.8-44.8-32c-6.4 0-38.4-32-38.4-32 12.8-12.8 70.4 32 83.2 19.2 0-12.8-12.8-19.2-12.8-25.6 6.4 0 6.4-6.4 12.8-6.4 19.2 6.4 12.8-6.4 25.6-12.8 25.6-6.4 6.4 0 19.2 12.8 6.4 6.4 32 0 32-6.4 0 6.4 12.8 0 0 0 12.8 0 25.6-6.4 32 0s12.8 6.4 12.8 0c25.6-12.8 19.2 44.8 19.2 51.2-6.4-6.4-51.2-12.8-51.2-6.4s-6.4 6.4-6.4 12.8c6.4 12.8-6.4 6.4 0 12.8-6.4 0-6.4 0-12.8 0 0-6.4 6.4-6.4-6.4 0 0-6.4 6.4-12.8 6.4-19.2 0 0 0 0-6.4 0 0-6.4 0-6.4 0-12.8-12.8 0 0 12.8-19.2 25.6 19.2 12.8-19.2 32-12.8 38.4-25.6-6.4 19.2-32 12.8-38.4zM396.8 704c0 0-6.4 0-6.4 0 0 6.4 12.8 25.6 19.2 25.6-6.4-6.4-12.8-19.2-12.8-25.6zM396.8 704c0 6.4-6.4 0 0 0v0zM601.6 729.6c-6.4 0 0-19.2 12.8-19.2 6.4-6.4 12.8-6.4 19.2 0 0 12.8-38.4 44.8-51.2 51.2 0 0 0 6.4 6.4 6.4-6.4 12.8-19.2 0-19.2-6.4 6.4-12.8 32-25.6 32-32zM608 710.4c-6.4 0 6.4 0 0 0v0zM627.2 755.2c-6.4 0-12.8 12.8-19.2 19.2 0-6.4 0 0 0-6.4 0 0 0-6.4 0 0 6.4-6.4 12.8-19.2 19.2-12.8zM364.8 736c0 0 0 0 0 0-6.4-6.4-6.4-6.4 0 0 0-6.4 0 0 0 0z" />
<glyph unicode="&#xe608;" d="M512 364.8l454.4 403.2c0 0-6.4 0-6.4 0h-896c0 0-6.4 0-6.4 0l454.4-403.2zM1024 704c0 6.4 0 12.8-6.4 19.2l-320-288 320-281.6c6.4 6.4 6.4 19.2 6.4 32v518.4zM6.4 729.6c-6.4-6.4-6.4-19.2-6.4-25.6v-512c0-6.4 0-19.2 6.4-25.6l320 275.2-320 288zM646.4 396.8l-134.4-121.6-134.4 121.6-320-268.8c0 0 0 0 6.4 0h896l-313.6 268.8z" />
<glyph unicode="&#xe609;" d="M192 160h640v-128h-640v128zM64 288h128v-256h-128v256zM832 288h128v-256h-128v256zM832 608h-128v256h-384v-256h-128l332.8-332.8z" />
<glyph unicode="&#xe60a;" d="M211.2-19.2c-38.4 0-76.8 19.2-115.2 57.6l-6.4 6.4c-38.4 38.4-147.2 192 0 345.6 76.8 76.8 179.2 179.2 288 288 57.6 57.6 121.6 115.2 179.2 179.2 108.8 108.8 192 83.2 313.6-32 147.2-140.8 172.8-275.2 108.8-352-83.2-102.4-403.2-422.4-416-435.2-19.2-19.2-44.8-19.2-64 0s-19.2 44.8 0 64c6.4 6.4 326.4 326.4 409.6 422.4 19.2 19.2 19.2 102.4-102.4 224-70.4 70.4-96 128-185.6 38.4-64-64-121.6-121.6-179.2-179.2-108.8-108.8-211.2-211.2-288-288-83.2-89.6-44.8-179.2 0-217.6l6.4-6.4c32-32 64-44.8 108.8 6.4 12.8 12.8 44.8 38.4 76.8 76.8 96 96 281.6 275.2 320 320 12.8 12.8 32 51.2 12.8 64-25.6 19.2-64-19.2-76.8-32-128-134.4-294.4-294.4-300.8-300.8-19.2-19.2-44.8-19.2-64 0s-19.2 44.8 0 64c0 0 166.4 160 294.4 294.4 83.2 89.6 160 76.8 204.8 38.4 51.2-44.8 38.4-140.8 0-192-38.4-44.8-179.2-185.6-326.4-326.4-32-32-64-64-76.8-76.8-38.4-32-83.2-51.2-121.6-51.2v0z" />
<glyph unicode="&#xe60b;" d="M352 576h128v-128h-128v128zM544 576h128v-128h-128v128zM736 576h128v-128h-128v128zM160 384h128v-128h-128v128zM352 384h128v-128h-128v128zM544 384h128v-128h-128v128zM736 384h128v-128h-128v128zM160 192h128v-128h-128v128zM352 192h128v-128h-128v128zM544 192h128v-128h-128v128zM864 832v128h-192v-128h-320v128h-192v-128h-128v-896h960v896h-128zM736 896h64v-128h-64v128zM224 896h64v-128h-64v128zM928 0h-832v640h832v-640z" />
<glyph unicode="&#xe60c;" d="M768 960h-704v-256h-64v-192h64v-128h-64v-192h64v-256h832v1024h-128zM128 256h-64v64h64v-64zM128 576h-64v64h64v-64zM704 320h-384v25.6c0 12.8 0 25.6 6.4 32 12.8 19.2 51.2 32 89.6 44.8 38.4 19.2 44.8 19.2 44.8 19.2v38.4c0 0-12.8 12.8-19.2 44.8-6.4 0-19.2 12.8-19.2 19.2s0 32 12.8 25.6c0 19.2-6.4 32 0 38.4 0 32 32 57.6 76.8 57.6s76.8-32 76.8-57.6c0-6.4 0-25.6 0-38.4 12.8 0 12.8-19.2 12.8-25.6s-12.8-25.6-19.2-19.2c-6.4-32-25.6-44.8-25.6-44.8v-38.4c0 0 6.4-6.4 44.8-19.2s76.8-25.6 89.6-44.8c12.8-19.2 12.8-57.6 12.8-57.6zM960 960h64v-1024h-64v1024z" />
<glyph unicode="&#xe60d;" d="M320 448c115.2 0 288 0 320 0 64 0 128 64 128 128s0 192 0 256-64 128-128 128-448 0-512 0-128-64-128-128 0-192 0-256 64-128 128-128v-192l192 192zM896 640c-12.8 0-32 0-64 0v-64c0-96-96-192-192-192h-294.4l-89.6-89.6c0-12.8 0-25.6 0-38.4 0-64 64-128 128-128 32 0 211.2 0 320 0l192-192v192c64 0 128 64 128 128s0 192 0 256-64 128-128 128z" />
<glyph unicode="&#xe60e;" d="M512 928c-249.6 0-448-179.2-448-403.2 0-134.4 70.4-249.6 179.2-326.4l-89.6-230.4 300.8 153.6c19.2 0 32 0 51.2 0 249.6 0 448 179.2 448 403.2s-192 403.2-441.6 403.2z" />
<glyph unicode="&#xe60f;" d="M320-64v262.4c-179.2 32-320 185.6-320 377.6 0 211.2 172.8 384 384 384h256c211.2 0 384-172.8 384-384 0-204.8-160-371.2-364.8-384l-339.2-256zM384 832c-140.8 0-256-115.2-256-256s115.2-256 256-256h64v-128l172.8 128h19.2c140.8 0 256 115.2 256 256s-115.2 256-256 256h-256z" />
<glyph unicode="&#xe610;" d="M896 832v-512h-320l-44.8-25.6-147.2-96v121.6h-256v512h768zM1024 960h-1024v-768h256v-249.6l358.4 249.6h409.6v768z" />
<glyph unicode="&#xe611;" d="M716.8 876.8c12.8 0 25.6 0 38.4 0 89.6-6.4 192-89.6 204.8-243.2v-51.2c-12.8-147.2-121.6-332.8-454.4-563.2-326.4 230.4-441.6 416-454.4 563.2v51.2c12.8 153.6 115.2 236.8 204.8 243.2 12.8 0 25.6 0 38.4 0 115.2 0 160-44.8 217.6-108.8 57.6 64 102.4 108.8 204.8 108.8z" />
<glyph unicode="&#xe612;" d="M716.8 876.8c12.8 0 25.6 0 38.4 0 89.6-6.4 192-89.6 204.8-243.2v-51.2c-12.8-147.2-121.6-332.8-454.4-563.2-326.4 230.4-441.6 416-454.4 563.2v51.2c12.8 153.6 115.2 236.8 204.8 243.2 12.8 0 25.6 0 38.4 0 115.2 0 160-44.8 217.6-108.8 57.6 64 102.4 108.8 204.8 108.8zM716.8 780.8c-57.6 0-83.2-19.2-134.4-76.8l-70.4-89.6-76.8 89.6c-44.8 57.6-70.4 76.8-128 76.8-12.8 0-19.2 0-32 0-44.8-6.4-108.8-51.2-115.2-153.6v-44.8c12.8-128 128-281.6 352-448 224 166.4 339.2 313.6 352 448v44.8c-12.8 102.4-70.4 147.2-115.2 153.6-6.4 0-19.2 0-32 0v0z" />
<glyph unicode="&#xe613;" d="M908.8 371.2c-6.4 38.4-38.4 64-76.8 64l-102.4-12.8 83.2 6.4c32 6.4 57.6 38.4 51.2 76.8s-32 64-64 64l-275.2-25.6h-38.4c0 0 57.6 25.6 12.8 224-44.8 204.8-153.6 128-153.6 128s0-172.8-6.4-198.4c-6.4-25.6-140.8-281.6-140.8-281.6 0-12.8-83.2-25.6-83.2-38.4 0-121.6 0-217.6 0-345.6 89.6 25.6 134.4-44.8 320-44.8 64 0 140.8 12.8 204.8 19.2l166.4 19.2c32 0 51.2 38.4 44.8 76.8 0 32-19.2 51.2-38.4 57.6h19.2c32 6.4 57.6 38.4 51.2 76.8-6.4 32-25.6 57.6-51.2 57.6h6.4c44.8 6.4 70.4 38.4 70.4 76.8z" />
<glyph unicode="&#xe614;" d="M940.8 492.8c-6.4 38.4-44.8 64-76.8 51.2l25.6 6.4c38.4 6.4 57.6 44.8 51.2 83.2s-44.8 57.6-83.2 51.2h-6.4c25.6 12.8 38.4 44.8 32 76.8-6.4 38.4-44.8 57.6-76.8 51.2l-19.2-6.4c19.2 12.8 25.6 38.4 19.2 70.4-6.4 38.4-38.4 64-70.4 57.6l-166.4-38.4c-64-12.8-140.8-25.6-198.4-44.8-179.2-57.6-198.4-140.8-288-147.2 0-147.2 0-198.4 6.4-326.4 0-12.8 185.6 0 192-12.8 0 0 211.2-198.4 224-224 12.8-19.2 70.4-179.2 70.4-179.2s134.4-32 108.8 166.4c-25.6 204.8-83.2 211.2-83.2 211.2l38.4 12.8 268.8 64c19.2 6.4 38.4 44.8 32 76.8z" />
<glyph unicode="&#xe615;" d="M889.6 825.6c-96 96-249.6 96-345.6 0-76.8-70.4-96-172.8-64-262.4l-364.8-364.8-51.2-147.2 153.6-51.2 38.4 51.2 147.2 51.2v102.4l57.6 51.2 51.2-57.6 102.4 102.4-51.2 51.2 70.4 70.4c89.6-32 185.6-12.8 256 57.6 96 89.6 96 249.6 0 345.6zM793.6 665.6c-19.2-19.2-44.8-19.2-64 0s-19.2 44.8 0 64c19.2 19.2 44.8 19.2 64 0s19.2-44.8 0-64z" />
<glyph unicode="&#xe616;" d="M738.24 866.24c-57.856 57.92-137.856 93.76-226.24 93.76-88.32 0-168.32-35.84-226.24-93.76-57.92-57.856-93.76-137.92-93.76-226.24 0-52.352 12.544-101.696 34.816-145.28s54.208-81.344 92.992-110.592c0.192-0.128 0.192-49.152 0.192-104.256 0-7.872 0-15.872 0-23.872h384c0 22.336 0 44.416 0 64 0 36.608 0 63.872 0 64 38.848 29.12 70.848 66.88 93.12 110.528 22.4 43.648 34.88 93.12 34.88 145.472 0 88.32-35.776 168.384-93.76 226.24zM740.096 523.648c-17.6-34.56-43.392-65.216-74.496-88.512l-25.6-19.136v-96h-256.128c-0.576 95.744-4.16 101.056-26.944 116.288-30.464 23.296-55.68 53.504-73.088 87.552-18.496 36.16-27.84 75.2-27.84 116.16 0 68.352 26.624 132.672 75.008 180.928 48.384 48.448 112.64 75.072 180.992 75.072s132.672-26.624 181.056-75.072c48.32-48.256 74.944-112.576 74.944-180.928 0-41.024-9.344-80.064-27.904-116.352zM320 0h64v-64h256v64h64v64h-384zM320 192h384v-64h-384v64zM320 256h64v-192h-64v192zM640 256h64v-192h-64v192z" />
<glyph unicode="&#xe617;" d="M6.4 467.2v-38.4c230.4-390.4 774.4-390.4 1004.8 0v38.4c-230.4 390.4-768 390.4-1004.8 0zM512 217.6c-128 0-230.4 102.4-230.4 230.4s102.4 230.4 230.4 230.4c128 0 230.4-102.4 230.4-230.4s-102.4-230.4-230.4-230.4zM627.2 448c0-63.623-51.577-115.2-115.2-115.2s-115.2 51.577-115.2 115.2c0 63.623 51.577 115.2 115.2 115.2s115.2-51.577 115.2-115.2z" />
<glyph unicode="&#xe618;" d="M512 960c-281.6 0-512-230.4-512-512s230.4-512 512-512 512 230.4 512 512c0 281.6-230.4 512-512 512zM684.8 857.6l-51.2-115.2c-76.8 32-172.8 32-249.6 0l-44.8 115.2c108.8 51.2 236.8 51.2 345.6 0zM217.6 326.4l-115.2-51.2c-25.6 51.2-38.4 115.2-38.4 172.8s12.8 121.6 38.4 172.8l115.2-51.2c-19.2-38.4-25.6-76.8-25.6-121.6s6.4-83.2 25.6-121.6zM512 0c-57.6 0-121.6 12.8-172.8 38.4l51.2 115.2c76.8-32 172.8-32 249.6 0l51.2-115.2c-57.6-25.6-121.6-38.4-179.2-38.4zM512 192c-140.8 0-256 115.2-256 256s115.2 256 256 256c140.8 0 256-115.2 256-256s-115.2-256-256-256zM806.4 326.4c19.2 38.4 25.6 76.8 25.6 121.6s-6.4 83.2-25.6 121.6l115.2 51.2c25.6-51.2 38.4-115.2 38.4-172.8s-12.8-121.6-38.4-172.8l-115.2 51.2z" />
<glyph unicode="&#xe619;" d="M518.4 960c-140.8 0-352-64-352-320 0-128 281.6-576 352-704 70.4 128 352 576 352 704 0 256-211.2 320-352 320zM518.4 524.8c-57.6 0-108.8 51.2-108.8 115.2s51.2 115.2 115.2 115.2c64 0 115.2-51.2 115.2-115.2-6.4-64-57.6-115.2-121.6-115.2z" />
<glyph unicode="&#xe61a;" d="M96 320h384v-384h-384v384zM544 320h384v-384h-384v384zM32 640h448v-256h-448v256zM544 640h448v-256h-448v256zM320 960c-76.8 0-160-83.2-160-160 0-160 320-160 320-160 0 236.8-76.8 320-160 320zM224 800c0 44.8 51.2 96 96 96 51.2 0 83.2-70.4 96-185.6-89.6 6.4-192 38.4-192 89.6zM864 800c0 76.8-76.8 160-160 160s-160-83.2-160-320c0 0 320 0 320 160zM608 710.4c12.8 115.2 44.8 185.6 96 185.6 44.8 0 96-51.2 96-96 0-51.2-102.4-83.2-192-89.6zM480 704h64v-64h-64v64z" />
<glyph unicode="&#xe61b;" d="M491.008 896.064c11.52 33.216 30.464 33.216 42.048 0l88.96-256c11.648-33.344 49.792-61.056 85.056-61.824l270.912-5.504c35.2-0.704 41.088-18.688 12.992-40l-216-163.712c-28.032-21.248-42.624-66.24-32.512-99.904l78.592-259.52c10.176-33.6-5.184-44.736-33.984-24.64l-222.592 154.88c-28.864 20.16-76.096 20.16-105.024 0l-222.464-154.816c-28.992-20.096-44.16-9.024-33.984 24.64l78.4 259.52c10.176 33.6-4.352 78.656-32.448 99.904l-215.936 163.648c-28.096 21.312-22.336 39.232 12.992 40l270.976 5.504c35.2 0.832 73.472 28.544 84.992 61.824l89.024 256z" />
<glyph unicode="&#xe61c;" d="M748.8 876.8c0 0-166.4-76.8-332.8-19.2-179.2 64-262.4 38.4-339.2-57.6-12.8 6.4-32 6.4-44.8 0-12.8-12.8-19.2-44.8-6.4-64l435.2-710.4c6.4-12.8 19.2-19.2 38.4-19.2 6.4 0 12.8 0 25.6 6.4 19.2 12.8 25.6 38.4 12.8 57.6l-192 313.6c70.4 96 153.6 121.6 332.8 64 166.4-57.6 332.8 19.2 332.8 19.2l-262.4 409.6z" />
<glyph unicode="&#xe61d;" d="M672 576c0-88.366-71.634-160-160-160s-160 71.634-160 160c0 88.366 71.634 160 160 160s160-71.634 160-160zM832 576c0 19.2 0 44.8-6.4 64l51.2 57.6-76.8 12.8c-19.2 38.4-44.8 70.4-70.4 102.4l6.4 76.8-70.4-32c-32 19.2-70.4 32-115.2 32l-38.4 70.4-38.4-70.4c-44.8 0-83.2-12.8-115.2-38.4l-70.4 38.4 6.4-76.8c-32-25.6-57.6-64-70.4-102.4l-76.8-12.8 51.2-57.6c-6.4-19.2-6.4-44.8-6.4-64s0-44.8 6.4-64l-51.2-57.6 76.8-12.8c19.2-38.4 44.8-70.4 70.4-102.4l12.8-6.4-51.2-396.8 256 256 256-256-51.2 396.8 12.8 6.4c32 25.6 57.6 64 70.4 102.4l76.8 12.8-51.2 57.6c6.4 19.2 6.4 44.8 6.4 64zM512 352c-121.6 0-224 102.4-224 224s102.4 224 224 224 224-102.4 224-224c0-121.6-102.4-224-224-224z" />
<glyph unicode="&#xe61e;" d="M512 761.6c172.8 0 313.6-140.8 313.6-313.6s-140.8-313.6-313.6-313.6c-172.8 0-313.6 140.8-313.6 313.6s140.8 313.6 313.6 313.6zM512 889.6c-243.2 0-441.6-198.4-441.6-441.6s198.4-441.6 441.6-441.6c243.2 0 441.6 198.4 441.6 441.6s-198.4 441.6-441.6 441.6v0zM518.4 454.4c-19.2 0-32 12.8-32 32v128c0 19.2 12.8 32 32 32s32-12.8 32-32v-128c0-19.2-12.8-32-32-32zM678.4 326.4c-6.4 0-12.8 0-19.2 6.4l-160 128c-12.8 12.8-19.2 32-6.4 44.8 12.8 19.2 32 19.2 44.8 6.4l160-128c12.8-12.8 19.2-32 6.4-44.8-6.4-6.4-19.2-12.8-25.6-12.8z" />
<glyph unicode="&#xe61f;" d="M928 300.8l83.2 416-812.8 108.8-64 44.8c0 6.4 0 6.4 0 12.8 0 32-25.6 64-64 64s-64-25.6-64-64c0-32 25.6-64 64-64 6.4 0 6.4 0 12.8 0l76.8-51.2 128-499.2h38.4l-32-108.8c0 0 0 0-6.4 0-57.6 0-108.8-44.8-108.8-108.8 0-57.6 44.8-108.8 108.8-108.8 44.8 0 83.2 25.6 96 64h339.2c12.8-38.4 51.2-64 96-64 57.6 0 102.4 44.8 102.4 102.4s-44.8 102.4-102.4 102.4c-51.2 0-89.6-32-102.4-83.2h-320c-6.4 25.6-19.2 44.8-38.4 64l44.8 134.4 524.8 38.4zM499.2 358.4c-19.2 0-38.4 19.2-38.4 38.4s19.2 38.4 38.4 38.4c19.2 0 38.4-19.2 38.4-38.4 0-25.6-19.2-38.4-38.4-38.4zM627.2 358.4c-19.2 0-38.4 19.2-38.4 38.4s19.2 38.4 38.4 38.4c19.2 0 38.4-19.2 38.4-38.4 0-25.6-19.2-38.4-38.4-38.4zM755.2 358.4c-19.2 0-38.4 19.2-38.4 38.4s19.2 38.4 38.4 38.4c19.2 0 38.4-19.2 38.4-38.4 0-25.6-19.2-38.4-38.4-38.4zM883.2 684.8c19.2 0 38.4-19.2 38.4-38.4s-19.2-38.4-38.4-38.4c-19.2 0-38.4 19.2-38.4 38.4 0 25.6 19.2 38.4 38.4 38.4zM857.6 524.8c0-19.2-19.2-38.4-38.4-38.4s-38.4 19.2-38.4 38.4c0 19.2 19.2 38.4 38.4 38.4 19.2-6.4 38.4-19.2 38.4-38.4zM755.2 684.8c19.2 0 38.4-19.2 38.4-38.4s-19.2-38.4-38.4-38.4c-19.2 0-38.4 19.2-38.4 38.4 0 25.6 19.2 38.4 38.4 38.4zM729.6 524.8c0-19.2-19.2-38.4-38.4-38.4s-38.4 19.2-38.4 38.4c0 19.2 19.2 38.4 38.4 38.4 19.2-6.4 38.4-19.2 38.4-38.4zM627.2 684.8c19.2 0 38.4-19.2 38.4-38.4s-19.2-38.4-38.4-38.4c-19.2 0-38.4 19.2-38.4 38.4 0 25.6 19.2 38.4 38.4 38.4zM601.6 524.8c0-19.2-19.2-38.4-38.4-38.4s-38.4 19.2-38.4 38.4c0 19.2 19.2 38.4 38.4 38.4 19.2-6.4 38.4-19.2 38.4-38.4zM499.2 684.8c19.2 0 38.4-19.2 38.4-38.4s-19.2-38.4-38.4-38.4c-19.2 0-38.4 19.2-38.4 38.4 0 25.6 19.2 38.4 38.4 38.4zM473.6 524.8c0-19.2-19.2-38.4-38.4-38.4s-38.4 19.2-38.4 38.4c0 19.2 19.2 38.4 38.4 38.4 19.2-6.4 38.4-19.2 38.4-38.4zM332.8 652.8c0 19.2 19.2 38.4 38.4 38.4s38.4-19.2 38.4-38.4c0-19.2-19.2-38.4-38.4-38.4s-38.4 12.8-38.4 38.4z" />
<glyph unicode="&#xe620;" d="M288 832c0-64 0 0 0 0v-128h128v128h192v-128h128v128c0 0 0-64 0 0 0 128-64 128-128 128s-64 0-192 0-128-64-128-128zM928 736c0 19.2-12.8 32-32 32h-768c-19.2 0-32-12.8-32-32v-64c0-19.2 12.8-32 32-32v0c19.2 0 32-12.8 32-32v-640c0-19.2 12.8-32 32-32h640c19.2 0 32 12.8 32 32v640c0 19.2 12.8 32 32 32v0c19.2 0 32 12.8 32 32v64zM352 96c0-19.2-12.8-32-32-32v0c-19.2 0-32 12.8-32 32v473.6c0 19.2 12.8 32 32 32v0c19.2 0 32-12.8 32-32v-473.6zM544 96c0-19.2-12.8-32-32-32v0c-19.2 0-32 12.8-32 32v473.6c0 19.2 12.8 32 32 32v0c19.2 0 32-12.8 32-32v-473.6zM736 96c0-19.2-12.8-32-32-32v0c-19.2 0-32 12.8-32 32v473.6c0 19.2 12.8 32 32 32v0c19.2 0 32-12.8 32-32v-473.6z" />
<glyph unicode="&#xe621;" d="M940.8 544h-134.4c-6.4 25.6-19.2 51.2-32 70.4l83.2 89.6c19.2 19.2 19.2 57.6 0 76.8l-38.4 38.4c-19.2 19.2-57.6 19.2-76.8 0l-89.6-89.6c-19.2 12.8-44.8 19.2-76.8 25.6v121.6c0 32-25.6 51.2-51.2 51.2h-51.2c-32 0-51.2-25.6-51.2-51.2v-115.2c-32-12.8-64-25.6-89.6-38.4l-76.8 76.8c-19.2 19.2-57.6 19.2-76.8 0l-32-38.4c-25.6-25.6-25.6-57.6 0-76.8l76.8-76.8c-19.2-32-32-57.6-38.4-96h-102.4c-25.6 0-51.2-19.2-51.2-51.2v-51.2c0-32 25.6-51.2 51.2-51.2h108.8c12.8-32 25.6-64 44.8-89.6l-70.4-76.8c-19.2-19.2-19.2-57.6 0-76.8l38.4-38.4c19.2-19.2 57.6-19.2 76.8 0l83.2 83.2c19.2-12.8 51.2-19.2 83.2-25.6v-108.8c0-32 25.6-51.2 51.2-51.2h51.2c32 0 51.2 25.6 51.2 51.2v128c25.6 6.4 51.2 19.2 76.8 38.4l83.2-83.2c19.2-19.2 57.6-19.2 76.8 0l38.4 38.4c19.2 19.2 19.2 57.6 0 76.8l-96 96c12.8 25.6 19.2 51.2 25.6 76.8h128c32 0 51.2 25.6 51.2 51.2v38.4c6.4 32-19.2 57.6-44.8 57.6zM499.2 313.6c-70.4 0-134.4 57.6-134.4 134.4s57.6 134.4 134.4 134.4c76.8 0 134.4-57.6 134.4-134.4s-64-134.4-134.4-134.4z" />
<glyph unicode="&#xe622;" d="M512 921.6c-262.4 0-473.6-211.2-473.6-473.6s211.2-473.6 473.6-473.6c262.4 0 473.6 211.2 473.6 473.6s-211.2 473.6-473.6 473.6zM512 793.6c70.4 0 134.4-19.2 192-57.6l-480-480c-32 51.2-57.6 121.6-57.6 192 0 192 153.6 345.6 345.6 345.6zM512 102.4c-70.4 0-140.8 25.6-192 57.6l473.6 480c38.4-57.6 57.6-121.6 57.6-192 6.4-192-147.2-345.6-339.2-345.6z" />
<glyph unicode="&#xe623;" d="M966.4 179.2l-275.2 268.8 275.2 268.8-185.6 185.6-268.8-275.2-268.8 275.2-185.6-185.6 275.2-268.8-275.2-268.8 185.6-185.6 268.8 275.2 268.8-275.2z" />
<glyph unicode="&#xe624;" d="M32-32l19.2 160 25.6 153.6 268.8-268.8-160-19.2zM793.6 550.4l-403.2-403.2-44.8 44.8 403.2 403.2-89.6 89.6-403.2-403.2-44.8 44.8 403.2 403.2-44.8 44.8-448-448 268.8-268.8 448 448zM979.2 640c25.6 25.6 25.6 64 0 89.6l-179.2 179.2c-25.6 25.6-64 25.6-89.6 0 0 0 0-6.4-6.4-6.4v0l-89.6-83.2 268.8-268.8 96 89.6h-6.4c0 0 0 0 6.4 0z" />
<glyph unicode="&#xe625;" d="M832 896v64h-64v-64h-128v64h-64v-64h-128v64h-64v-64h-128v64h-64v-64h-192v-960h1024v960h-192zM896 64h-768v704h64v-64h64v64h128v-64h64v64h128v-64h64v64h128v-64h64v64h64v-704z" />
<glyph unicode="&#xe626;" d="M512 672c0 160-358.4 192-512 192v-704h32c12.8 0 19.2 0 32 0v-64c128 0 384 38.4 384-64h128c0 102.4 256 64 384 64v64c12.8 0 19.2 0 32 0h32v704c-153.6 0-512-32-512-192zM64 800c32 0 57.6 0 89.6-6.4 6.4 0 12.8 0 12.8 0s6.4 0 6.4 0c128-6.4 262.4-38.4 275.2-108.8 0-6.4 0-6.4 0-12.8v-473.6c-96 51.2-268.8 57.6-384 57.6v544zM960 256c-115.2 0-288-6.4-384-57.6v473.6c0 44.8 70.4 128 384 128v-544z" />
<glyph unicode="&#xe627;" d="M588.8 435.2c0-35.346-28.654-64-64-64s-64 28.654-64 64c0 35.346 28.654 64 64 64s64-28.654 64-64zM384 224h448v160l-70.4 128-96-211.2-57.6 64c0 0-76.8-32-102.4-76.8-38.4 25.6-64 0-64 0l-57.6-64zM896 672v192h-896v-576h192v-256h832v640h-128zM192 416h-64v320h640v-64h-576v-256zM896 160h-576v384h576v-384z" />
<glyph unicode="&#xe628;" d="M896 736v-576h-768v576h768zM1024 864h-1024v-832h1024v832zM460.8 595.2c0-53.019-42.981-96-96-96s-96 42.981-96 96c0 53.019 42.981 96 96 96s96-42.981 96-96zM192 224h640v230.4l-102.4 185.6-134.4-294.4-83.2 83.2c0 0-115.2-44.8-147.2-108.8-57.6 32-89.6 0-89.6 0l-83.2-96z" />
<glyph unicode="&#xe629;" d="M0 960v-1024h1024v1024h-1024zM128 0h-64v64h64v-64zM128 192h-64v64h64v-64zM128 384h-64v64h64v-64zM128 576h-64v64h64v-64zM128 768h-64v64h64v-64zM832 64h-640v320h640v-320zM832 512h-640v320h640v-320zM960 0h-64v64h64v-64zM960 192h-64v64h64v-64zM960 384h-64v64h64v-64zM960 576h-64v64h64v-64zM960 768h-64v64h64v-64z" />
<glyph unicode="&#xe62a;" d="M288 793.6v-563.2c-12.8 0-19.2 0-32 0-89.6 0-160-57.6-160-128s70.4-128 160-128c83.2 0 147.2 51.2 160 115.2v0 601.6l384 76.8v-409.6c-12.8 0-19.2 0-32 0-89.6 0-160-57.6-160-128s70.4-128 160-128c83.2 0 147.2 51.2 160 115.2v0 704l-640-128z" />
<glyph unicode="&#xe62b;" d="M857.6 793.6c-192 192-499.2 192-691.2 0s-192-499.2 0-691.2c192-192 499.2-192 691.2 0s192 499.2 0 691.2zM588.8 320l-217.6-128v512l435.2-256-217.6-128z" />
<glyph unicode="&#xe62c;" d="M352 320c108.8 166.4 601.6 486.4 640 512-32-38.4-588.8-659.2-640-768-57.6 89.6-320 384-320 384s211.2-51.2 320-128z" />
<glyph unicode="&#xe62d;" d="M915.264 851.264l-554.24-455.232-253.504 186.752-102.080-109.952 368.064-428.16 57.536 62.080 587.52 634.88z" />
<glyph unicode="&#xe62e;" d="M512 932.16c-267.392 0-484.16-216.768-484.16-484.16s216.832-484.096 484.16-484.096c267.328 0 484.096 216.768 484.096 484.096 0 267.392-216.768 484.16-484.096 484.16zM489.216 238.72l-34.368-37.12-32.96 38.4-186.88 217.344 60.864 65.664 151.488-111.616 331.008 272 61.696-65.536-350.848-379.136z" />
<glyph unicode="&#xe62f;" d="M1004.8 857.6l-70.4 70.4-160-179.2c-83.2 76.8-185.6 121.6-307.2 121.6-249.6 0-448-198.4-448-448s204.8-448 448-448c249.6 0 448 198.4 448 448 0 89.6-25.6 172.8-70.4 243.2l160 192zM851.2 416c0-211.2-172.8-384-384-384s-384 172.8-384 384c0 211.2 172.8 384 384 384 102.4 0 192-38.4 262.4-102.4l-275.2-320-204.8 204.8-70.4-134.4 211.2-236.8 51.2-64 51.2 57.6 307.2 396.8c38.4-51.2 51.2-115.2 51.2-185.6z" />
<glyph unicode="&#xe630;" d="M32 416h57.6c0 38.4 0 76.8 6.4 115.2l-57.6 19.2c-12.8-38.4-6.4-89.6-6.4-134.4v0zM460.8 32v-64c44.8 0 96 6.4 140.8 19.2l-19.2 64c-44.8-12.8-83.2-19.2-121.6-19.2zM684.8 108.8l38.4-51.2c38.4 25.6 70.4 64 96 102.4l-51.2 32c-19.2-32-51.2-64-83.2-83.2zM198.4 51.2c38.4-25.6 83.2-51.2 128-64l19.2 64c-38.4 12.8-76.8 32-108.8 51.2l-38.4-51.2zM832 300.8l64-19.2c12.8 44.8 32 89.6 32 140.8v0l-70.4-6.4c0-38.4-12.8-76.8-25.6-115.2zM716.8 780.8c-38.4 25.6-83.2 51.2-128 64l-12.8-57.6c38.4-12.8 76.8-32 108.8-51.2l32 44.8zM838.4 659.2l160 204.8-70.4 70.4-486.4-556.8-204.8 204.8-70.4-134.4 217.6-243.2 51.2-64 51.2 57.6 307.2 396.8c12.8-19.2 19.2-38.4 32-64l57.6 19.2c-12.8 44.8-25.6 76.8-44.8 108.8zM32 275.2c12.8-44.8 38.4-89.6 64-121.6l51.2 38.4c-25.6 32-44.8 70.4-57.6 108.8l-57.6-25.6zM454.4 800v64c-44.8 0-96-6.4-140.8-25.6l19.2-57.6c38.4 12.8 83.2 19.2 121.6 19.2zM230.4 729.6l-38.4 51.2c-38.4-25.6-70.4-64-96-102.4l51.2-38.4c19.2 32 51.2 64 83.2 89.6z" />
<glyph unicode="&#xe631;" d="M992 947.2c-38.4 25.6-89.6 19.2-115.2-19.2l-76.8-96h-800v-896h896v761.6l115.2 140.8c25.6 32 12.8 83.2-19.2 108.8zM832 0h-768v768h684.8l-294.4-371.2-140.8 160c-25.6 38.4-76.8 44.8-115.2 12.8-32-25.6-38.4-70.4-12.8-102.4l275.2-320 371.2 467.2v-614.4z" />
<glyph unicode="&#xe632;" d="M461.184 142.4l-274.56 322.432c-28.224 33.216-22.144 81.472 13.696 107.776 35.904 26.176 87.936 20.544 116.288-12.672l139.2-163.712 418.56 532.096c26.88 34.304 78.72 41.92 115.648 16.896s44.992-73.024 18.112-107.264l-546.944-695.552zM896-64h-128v64h64v64h64zM640-64h-128v64h128v-64zM384-64h-128v64h128v-64zM128-64h-128v128h64v-64h64zM64 192h-64v128h64v-128zM64 448h-64v128h64v-128zM64 704h-64v128h128v-64h-64zM640 768h-128v64h128v-64zM384 768h-128v64h128v-64zM896 736h-64v32h-32v64h96zM896 192h-64v128h64v-128zM896 448h-64v128h64v-128z" />
<glyph unicode="&#xe633;" d="M800 448l-576-454.4 249.6 454.4-249.6 454.4z" />
<glyph unicode="&#xe634;" d="M512 940.288c-272 0-492.288-220.288-492.288-492.288 0-271.936 220.352-492.288 492.288-492.288 271.808 0 492.288 220.352 492.288 492.288 0 272-220.48 492.288-492.288 492.288zM564.736 179.904h-176.704l203.776 203.84h-400.512v129.664h399.104l-202.752 202.688 177.152-0.256 267.904-268.032-267.968-267.904z" />
<glyph unicode="&#xe635;" d="M768 422.4c0 6.4 0 6.4 0 0 0 6.4 0 6.4 0 0s0 6.4 0 12.8c0 0 0 0 0 0s0 0 0 6.4c0 0 0 0 0 0s0 0 0 0 0 0 0 0 0 0 0 6.4c0 0 0 0 0 0s0 0 0 6.4c0 0 0 0 0 0s0 0 0 6.4c0 0 0 0 0 0s0 0 0 0 0 0 0 0 0 0 0 0 0 0 0 0 0 0 0 0 0 0 0 0 0 0 0 0l-204.8 211.2c-19.2 19.2-44.8 19.2-57.6 0-19.2-19.2-19.2-44.8 0-57.6l121.6-121.6h-384c-12.8 0-25.6-6.4-32-19.2-6.4-6.4-12.8-19.2-12.8-25.6 0-12.8 6.4-19.2 12.8-32 6.4-6.4 19.2-12.8 32-12.8v0h384l-121.6-121.6c-19.2-19.2-19.2-44.8 0-57.6 6.4-6.4 19.2-12.8 32-12.8s19.2 6.4 32 12.8l198.4 198.4c-6.4-6.4-6.4 0 0 0-6.4 0-6.4 0 0 0s-6.4 0 0 0zM512 940.8c-268.8 0-492.8-224-492.8-492.8s217.6-492.8 492.8-492.8 492.8 217.6 492.8 492.8c0 268.8-224 492.8-492.8 492.8zM512 25.6c-230.4 0-422.4 185.6-422.4 422.4 0 230.4 185.6 422.4 422.4 422.4s422.4-185.6 422.4-422.4c0-230.4-192-422.4-422.4-422.4z" />
<glyph unicode="&#xe636;" d="M512 640c-102.4 0-192-89.6-192-192s89.6-192 192-192 192 83.2 192 192-83.2 192-192 192zM512 64c-211.2 0-384 172.8-384 384s172.8 384 384 384 384-172.8 384-384-172.8-384-384-384z" />
<glyph unicode="&#xe637;" d="M857.6 793.6c-192 192-499.2 192-691.2 0s-192-499.2 0-691.2c192-192 499.2-192 691.2 0s192 499.2 0 691.2zM505.6 851.2c51.2 0 96-44.8 96-96s-44.8-96-96-96c-51.2 0-96 44.8-96 96 0 57.6 38.4 96 96 96zM652.8 160c0-19.2-12.8-32-32-32h-236.8c-19.2 0-32 12.8-32 32v64c0 19.2 12.8 32 32 32h44.8v256h-44.8c-19.2 0-32 12.8-32 32v64c0 19.2 12.8 32 32 32h166.4c19.2 0 32-6.4 32-32v-352h44.8c19.2 0 32-6.4 32-32v-64z" />
<glyph unicode="&#xe638;" d="M640 224c0-6.4 0-12.8-12.8-12.8h-192c-6.4 0-12.8 0-12.8 12.8v51.2c0 6.4 0 12.8 12.8 12.8h51.2v230.4h-51.2c-6.4 0-12.8 0-12.8 12.8v44.8c0 6.4 0 12.8 12.8 12.8h134.4c6.4 0 12.8 0 12.8-12.8v-294.4h51.2c6.4 0 12.8 0 12.8-12.8v-44.8zM531.2 633.6c-32 0-64 25.6-64 64 0 32 25.6 64 64 64 32 0 64-25.6 64-64 0-32-25.6-64-64-64zM512 940.8c-268.8 0-492.8-224-492.8-492.8s217.6-492.8 492.8-492.8c268.8 0 492.8 217.6 492.8 492.8 0 268.8-224 492.8-492.8 492.8zM512 25.6c-230.4 0-422.4 185.6-422.4 422.4 0 230.4 185.6 422.4 422.4 422.4 230.4 0 422.4-185.6 422.4-422.4 0-230.4-192-422.4-422.4-422.4z" />
<glyph unicode="&#xe639;" d="M857.6 793.6c-192 192-499.2 192-691.2 0s-192-499.2 0-691.2c192-192 499.2-192 691.2 0s192 499.2 0 691.2zM492.8 51.2c-51.2 0-96 44.8-96 96s44.8 96 96 96c51.2 0 96-44.8 96-96s-44.8-96-96-96zM556.8 390.4v-51.2c0-25.6-12.8-38.4-38.4-38.4h-64c-25.6 0-38.4 12.8-38.4 38.4v115.2c0 32 32 38.4 57.6 44.8 6.4 0 12.8 6.4 19.2 6.4 38.4 12.8 57.6 32 57.6 70.4 0 12.8 0 51.2-64 51.2-38.4 0-70.4-12.8-89.6-25.6-12.8 0-19.2-6.4-25.6-6.4-12.8 0-25.6 12.8-25.6 19.2l-25.6 64c0 6.4 0 12.8 0 19.2 0 44.8 140.8 70.4 192 70.4 121.6 0 204.8-76.8 204.8-192-6.4-128-102.4-166.4-160-185.6z" />
<glyph unicode="&#xe63a;" d="M582.4 358.4c0-19.2 0-19.2-19.2-19.2h-64c-19.2 0-19.2 0-19.2 19.2v108.8c0 19.2 32 25.6 64 38.4s64 32 64 76.8c0 38.4-25.6 64-76.8 64-57.6 0-102.4-32-108.8-32s-6.4 6.4-12.8 6.4l-25.6 64c0 6.4 0 6.4 0 12.8 0 25.6 108.8 51.2 166.4 51.2 108.8 0 172.8-70.4 172.8-166.4 0-115.2-89.6-147.2-147.2-160v-64zM531.2 108.8c-44.8 0-76.8 32-76.8 76.8s32 76.8 76.8 76.8c44.8 0 76.8-32 76.8-76.8s-38.4-76.8-76.8-76.8zM512 940.8c-268.8 0-492.8-224-492.8-492.8s217.6-492.8 492.8-492.8c268.8 0 492.8 217.6 492.8 492.8 0 268.8-224 492.8-492.8 492.8zM512 25.6c-230.4 0-422.4 185.6-422.4 422.4 0 230.4 185.6 422.4 422.4 422.4 230.4 0 422.4-185.6 422.4-422.4 0-230.4-192-422.4-422.4-422.4z" />
<glyph unicode="&#xe63b;" d="M518.4 96c-38.4 0-70.4 32-70.4 70.4 0 44.8 32 76.8 76.8 76.8s76.8-32 76.8-76.8c-6.4-38.4-38.4-70.4-83.2-70.4zM563.2 358.4c0-19.2-6.4-19.2-19.2-19.2h-51.2c-12.8 0-19.2 0-19.2 19.2l-19.2 345.6c0 12.8 0 12.8 0 19.2 0 12.8 6.4 12.8 19.2 12.8h96c6.4 0 19.2 0 19.2-12.8 0-6.4 0 0 0-19.2l-25.6-345.6zM512 940.8c-268.8 0-492.8-224-492.8-492.8s217.6-492.8 492.8-492.8c268.8 0 492.8 217.6 492.8 492.8 0 268.8-224 492.8-492.8 492.8zM512 25.6c-230.4 0-422.4 185.6-422.4 422.4 0 230.4 185.6 422.4 422.4 422.4 230.4 0 422.4-185.6 422.4-422.4 0-230.4-192-422.4-422.4-422.4z" />
<glyph unicode="&#xe63c;" d="M963.328 118.4l-134.656 254.656c-33.344 62.016-88 163.392-121.344 225.408l-134.656 249.984c-33.344 62.016-88 62.016-121.344 0l-134.592-251.136c-33.344-62.080-88-164.608-121.344-226.624l-134.72-252.288c-33.344-62.080-3.072-117.248 67.328-117.248h256c70.4 0 185.6 0 256 0h256c70.4 0 100.672 55.168 67.328 117.248zM576 129.152h-128v128h128v-128zM576 321.152h-128v256h128v-256z" />
<glyph unicode="&#xe63d;" d="M857.6 793.6c-192 192-499.2 192-691.2 0s-192-499.2 0-691.2c192-192 499.2-192 691.2 0s192 499.2 0 691.2zM480 768h96c32 0 32-19.2 32-25.6s0-6.4 0-6.4v-12.8l-12.8-371.2c0-25.6-12.8-32-38.4-32h-57.6c-19.2 0-32 6.4-38.4 32l-19.2 384c0 6.4 0 6.4 0 6.4 0 6.4 6.4 25.6 38.4 25.6zM531.2 51.2c-51.2 0-96 44.8-96 96s44.8 96 96 96c51.2 0 96-44.8 96-96s-44.8-96-96-96z" />
<glyph unicode="&#xe63e;" d="M742.4 960h-448c-70.4 0-128-57.6-128-128v-768c0-70.4 57.6-128 128-128h448c70.4 0 128 57.6 128 128v768c0 70.4-57.6 128-128 128zM422.4 896h192c19.2 0 32-12.8 32-32s-12.8-32-32-32h-192c-19.2 0-32 12.8-32 32s12.8 32 32 32zM518.4-19.2c-25.6 0-51.2 19.2-51.2 51.2 0 25.6 19.2 51.2 51.2 51.2 25.6 0 51.2-19.2 51.2-51.2 0-25.6-25.6-51.2-51.2-51.2zM742.4 128h-448v640h448v-640z" />
<glyph unicode="&#xe63f;" d="M832 960h-640c-70.4 0-128-57.6-128-128v-768c0-70.4 57.6-128 128-128h640c70.4 0 128 57.6 128 128v768c0 70.4-57.6 128-128 128zM576 0h-128v64h128v-64zM832 128h-640v704h640v-704z" />
<glyph unicode="&#xe640;" d="M1024 128v768h-1024v-768h320v-64h-128v-64h640v64h-128v64h320zM128 256v512h768v-512h-768z" />
<glyph unicode="&#xe641;" d="M1024 576h-384v384h-256v-384h-384v-256h384v-384h256v384h384z" />
<glyph unicode="&#xe642;" d="M0 576h1024v-256h-1024v256z" />
<glyph unicode="&#xe643;" d="M921.6 787.2c0 0 0-6.4 0-6.4s0-6.4-6.4-12.8c-6.4-19.2-32-51.2-32-51.2s-83.2-44.8-140.8-236.8c6.4 0 19.2 0 25.6 0 102.4 0 192-89.6 192-198.4s-83.2-192-192-192c-89.6 0-166.4 64-185.6 153.6 0 0-6.4 0-6.4 0s-51.2 281.6 307.2 550.4c6.4 0 12.8 0 19.2 0 0 0 0 0 0 0 6.4 6.4 12.8 0 19.2-6.4 0 6.4 0 0 0 0zM409.6 787.2c0 0 0-6.4 0-6.4s0-6.4 0-12.8c-12.8-19.2-38.4-44.8-38.4-44.8s-76.8-44.8-140.8-236.8c6.4 0 19.2 0 25.6 0 102.4 0 192-89.6 192-198.4s-83.2-192-192-192c-89.6 0-166.4 64-185.6 153.6 0 0-6.4 0-6.4 0s-44.8 288 307.2 550.4c6.4 0 12.8 0 19.2 0 0 0 0 0 0 0 6.4 0 12.8-6.4 19.2-12.8 0 6.4 0 0 0 0z" />
<glyph unicode="&#xe644;" d="M416 441.6c-6.4 12.8-38.4 19.2-64 32-32 12.8-38.4 19.2-38.4 19.2v25.6c0 0 12.8 6.4 12.8 32 6.4 0 12.8 12.8 12.8 19.2s0 25.6-6.4 19.2c0 12.8 0 25.6 0 32 0 25.6-25.6 44.8-57.6 44.8s-57.6-25.6-57.6-44.8c0-6.4 0-19.2 0-32-6.4 6.4-6.4-12.8-6.4-19.2s6.4-19.2 12.8-19.2c6.4-25.6 12.8-32 12.8-32v-25.6c0 0-6.4-6.4-38.4-19.2-25.6-12.8-57.6-19.2-64-32s-6.4-44.8-6.4-44.8h294.4c0 0 0 32-6.4 44.8zM512 672h256v-64h-256v64zM512 544h384v-64h-384v64zM512 416h320v-64h-320v64zM0 800v-704h1024v704h-1024zM960 160h-134.4c6.4 12.8 6.4 19.2 6.4 32 0 51.2-44.8 96-96 96s-96-44.8-96-96c0-12.8 0-19.2 6.4-32h-268.8c6.4 12.8 6.4 19.2 6.4 32 0 51.2-44.8 96-96 96s-96-44.8-96-96c0-12.8 0-19.2 6.4-32h-134.4v576h896v-576z" />
<glyph unicode="&#xe645;" d="M454.4 192c179.2 0 320 140.8 320 320s-140.8 320-320 320-320-140.8-320-320 147.2-320 320-320zM992 38.4c32-32 32-70.4 6.4-96s-70.4-19.2-96 6.4l-192 198.4c-19.2-12.8-44.8-25.6-64-38.4-6.4 0-12.8-6.4-25.6-6.4-19.2-6.4-38.4-12.8-57.6-19.2-6.4 0-12.8-6.4-25.6-6.4-25.6-12.8-51.2-12.8-83.2-12.8-249.6 0-448 198.4-448 448s198.4 448 448 448c249.6 0 448-198.4 448-448 0-32 0-57.6-6.4-83.2 0-19.2-6.4-32-12.8-51.2 0-6.4-6.4-19.2-6.4-25.6-6.4-19.2-19.2-38.4-32-57.6 0 0 0-6.4 0-6.4-12.8-19.2-25.6-38.4-44.8-57.6l192-192z" />
<glyph unicode="&#xe646;" d="M960 576h-128v115.2l-198.4 204.8h-441.6v-320h-128l-64-64v-320h192v-192h640v192h192v320l-64 64zM128 448h-64v64h64v-64zM768 256v-192h-512v320h512v-128zM768 576h-512v256h320v-192h192v-64zM947.2 268.8h-57.6v96h57.6v-96zM320 320h384v-64h-384v64zM320 192h384v-64h-384v64z" />
<glyph unicode="&#xe647;" d="M1024 448c0-282.77-229.23-512-512-512s-512 229.23-512 512c0 282.77 229.23 512 512 512s512-229.23 512-512z" />
<glyph unicode="&#xe648;" d="M736 832h-320v64c0 32-32 64-64 64s-64-32-64-64v-64c-70.4 0-128-57.6-128-128v-640c0-70.4 57.6-128 128-128h448c70.4 0 128 57.6 128 128v640c0 70.4-57.6 128-128 128zM352 64h-64v64h64v-64zM352 192h-64v64h64v-64zM352 320h-64v64h64v-64zM480 64h-64v64h64v-64zM480 192h-64v64h64v-64zM480 320h-64v64h64v-64zM608 64h-64v64h64v-64zM608 192h-64v64h64v-64zM608 320h-64v64h64v-64zM736 64h-64v64h64v-64zM736 192h-64v64h64v-64zM736 320h-64v64h64v-64zM736 448h-448v256h448v-256z" />
<glyph unicode="&#xe649;" d="M224 128l320 320-320 320 128 128 448-448-448-448z" />
<glyph unicode="&#xe64a;" d="M800 768l-320-320 320-320-128-128-448 448 448 448z" />
<glyph unicode="&#xe64b;" d="M640 428.8l256-236.8 128 128v-384h-384l128 128-243.2 243.2-249.6-262.4 108.8-108.8h-384v384l147.2-147.2 256 256-275.2 275.2-128-128v384h384l-147.2-147.2 281.6-268.8 268.8 268.8-147.2 147.2h384v-384l-128 128z" />
<glyph unicode="&#xe64c;" d="M896-19.2c44.8 0 83.2 38.4 83.2 83.2s-38.4 83.2-83.2 83.2-83.2-38.4-83.2-83.2 38.4-83.2 83.2-83.2zM1024 192v-256h-256v256h256zM512-19.2c44.8 0 83.2 38.4 83.2 83.2s-38.4 83.2-83.2 83.2-83.2-38.4-83.2-83.2 38.4-83.2 83.2-83.2zM640 192v-256h-256v256h256zM128-19.2c44.8 0 83.2 38.4 83.2 83.2s-38.4 83.2-83.2 83.2-83.2-38.4-83.2-83.2 38.4-83.2 83.2-83.2zM256 192v-256h-256v256h256zM896 364.8c44.8 0 83.2 38.4 83.2 83.2s-38.4 83.2-83.2 83.2-83.2-38.4-83.2-83.2 38.4-83.2 83.2-83.2zM1024 576v-256h-256v256h256zM512 364.8c44.8 0 83.2 38.4 83.2 83.2s-38.4 83.2-83.2 83.2-83.2-38.4-83.2-83.2 38.4-83.2 83.2-83.2zM640 576v-256h-256v256h256zM128 364.8c44.8 0 83.2 38.4 83.2 83.2s-38.4 83.2-83.2 83.2-83.2-38.4-83.2-83.2 38.4-83.2 83.2-83.2zM256 576v-256h-256v256h256zM896 748.8c44.8 0 83.2 38.4 83.2 83.2s-38.4 83.2-83.2 83.2-83.2-38.4-83.2-83.2 38.4-83.2 83.2-83.2zM1024 960v-256h-256v256h256zM512 748.8c44.8 0 83.2 38.4 83.2 83.2s-38.4 83.2-83.2 83.2-83.2-38.4-83.2-83.2 38.4-83.2 83.2-83.2zM640 960v-256h-256v256h256zM128 748.8c44.8 0 83.2 38.4 83.2 83.2s-38.4 83.2-83.2 83.2-83.2-38.4-83.2-83.2 38.4-83.2 83.2-83.2zM256 960v-256h-256v256h256z" />
<glyph unicode="&#xe64d;" d="M281.6 96l-160-160-121.6 115.2 160 166.4-102.4 102.4h371.2v-364.8zM851.2 230.4l172.8-172.8-121.6-121.6-172.8 166.4-134.4-134.4v396.8h384zM915.2 960l108.8-115.2-160-166.4 140.8-147.2h-364.8v384l121.6-128zM428.8 921.6v-390.4h-403.2l153.6 153.6-179.2 160 115.2 115.2 179.2-166.4z" />
<glyph unicode="&#xe64e;" d="M139.276 541.18h745.447v-186.361h-745.447v186.361z" />
<glyph unicode="&#xe653;" d="M884.724 541.18h-279.542v279.542h-186.361v-279.542h-279.542v-186.361h279.542v-279.542h186.361v279.542h279.542z" />
</font>
</defs>
</svg>
