<?xml version="1.0" encoding="utf-8"?>
<!-- Generator: Adobe Illustrator 16.0.0, SVG Export Plug-In . SVG Version: 6.00 Build 0)  -->
<!DOCTYPE svg PUBLIC "-//W3C//DTD SVG 1.1//EN" "http://www.w3.org/Graphics/SVG/1.1/DTD/svg11.dtd">
<svg version="1.1" id="Layer_1" xmlns="http://www.w3.org/2000/svg" xmlns:xlink="http://www.w3.org/1999/xlink" x="0px" y="0px"
	 width="100px" height="100px" viewBox="0 0 100 100" enable-background="new 0 0 100 100" xml:space="preserve">
<g>
	<path d="M46.533,5.148c2.077,0,4.153,0,6.23,0c0.237,0.05,0.473,0.116,0.713,0.149c1.635,0.23,3.287,0.368,4.903,0.694
		c9.222,1.859,17.102,6.199,23.577,13.021c6.216,6.548,10.075,14.301,11.585,23.209c0.242,1.43,0.406,2.874,0.606,4.311
		c0,2.077,0,4.153,0,6.23c-0.051,0.238-0.111,0.476-0.15,0.716c-0.38,2.308-0.61,4.651-1.161,6.917
		c-2.062,8.497-6.346,15.742-12.715,21.718c-6.543,6.138-14.26,9.967-23.125,11.435c-1.406,0.233-2.822,0.401-4.233,0.6
		c-2.077,0-4.154,0-6.23,0c-0.238-0.051-0.473-0.115-0.713-0.149c-1.634-0.23-3.287-0.368-4.902-0.693
		c-9.223-1.859-17.102-6.2-23.578-13.022c-6.216-6.548-10.076-14.301-11.585-23.21c-0.242-1.43-0.406-2.873-0.606-4.31
		c0-2.077,0-4.154,0-6.23c0.05-0.239,0.116-0.476,0.149-0.717c0.23-1.634,0.369-3.287,0.694-4.902
		c1.858-9.223,6.201-17.102,13.023-23.576c6.549-6.215,14.302-10.076,23.21-11.584C43.655,5.512,45.097,5.348,46.533,5.148z
		 M75.329,66.09c-0.025,0-0.05,0-0.075,0c0-0.641,0.064-1.29-0.01-1.923c-0.643-5.416-2.011-10.645-4.074-15.696
		c-3.099-7.589-8.054-13.508-15.379-17.358c-4.699-2.47-9.647-4.24-14.79-5.51c-2.858-0.706-5.734-1.251-8.696-1.19
		c-0.925,0.02-1.824,0.215-2.382,0.981c-1.181,1.623-1.523,3.458-1.005,5.405c0.169,0.637,0.644,1.032,1.357,1.069
		c5.006,0.259,9.784,1.508,14.387,3.429c8.493,3.543,15.076,9.2,19.134,17.575c2.562,5.287,3.928,10.878,4.091,16.756
		c0.03,1.084,0.431,1.617,1.497,1.766c0.549,0.077,1.134,0.018,1.686-0.075c3.264-0.552,4.314-1.818,4.26-5.079
		C75.328,66.189,75.329,66.14,75.329,66.09z M60.18,69.194c-0.165-3.745-1.089-7.541-2.473-11.232
		c-1.539-4.102-3.68-7.812-7.138-10.625c-3.585-2.917-7.75-4.676-12.129-5.973c-2.649-0.785-5.327-1.463-8.122-1.473
		c-0.906-0.003-1.731,0.171-2.215,1.047c-0.53,0.961-0.714,2-0.547,3.077c0.099,0.637,0.441,1.051,1.18,1.093
		c2.676,0.149,5.271,0.728,7.802,1.591c5.95,2.031,10.906,5.392,14.275,10.819c2.663,4.289,3.964,8.997,4.148,14.024
		c0.023,0.625,0.242,1.058,0.851,1.224C58.002,73.366,60.238,71.642,60.18,69.194z"/>
	<path fill-rule="evenodd" clip-rule="evenodd" fill="#FFFFFF" d="M75.329,66.09c0,0.05-0.001,0.1,0,0.148
		c0.055,3.261-0.996,4.527-4.26,5.079c-0.552,0.093-1.137,0.152-1.686,0.075c-1.066-0.148-1.467-0.682-1.497-1.766
		c-0.163-5.878-1.528-11.469-4.091-16.756c-4.058-8.375-10.641-14.032-19.134-17.575c-4.603-1.92-9.381-3.17-14.387-3.429
		c-0.713-0.037-1.188-0.432-1.357-1.069c-0.518-1.947-0.176-3.782,1.005-5.405c0.558-0.767,1.458-0.962,2.382-0.981
		c2.961-0.062,5.837,0.484,8.696,1.19c5.142,1.271,10.09,3.041,14.79,5.51c7.325,3.85,12.28,9.769,15.379,17.358
		c2.063,5.052,3.432,10.28,4.074,15.696c0.074,0.633,0.01,1.282,0.01,1.923C75.279,66.09,75.304,66.09,75.329,66.09z"/>
	<path fill-rule="evenodd" clip-rule="evenodd" fill="#FFFFFF" d="M60.18,69.194c0.059,2.447-2.178,4.172-4.368,3.572
		c-0.608-0.166-0.827-0.599-0.851-1.224c-0.184-5.027-1.485-9.735-4.148-14.024c-3.369-5.427-8.326-8.788-14.275-10.819
		c-2.531-0.864-5.126-1.442-7.802-1.591c-0.739-0.042-1.082-0.456-1.18-1.093c-0.167-1.078,0.017-2.116,0.547-3.077
		c0.484-0.876,1.31-1.051,2.215-1.047c2.794,0.01,5.472,0.688,8.122,1.473c4.38,1.296,8.544,3.056,12.129,5.973
		c3.458,2.813,5.599,6.523,7.138,10.625C59.091,61.653,60.015,65.449,60.18,69.194z"/>
</g>
</svg>
