<?xml version="1.0" encoding="utf-8"?>
<!-- Generator: Adobe Illustrator 16.0.0, SVG Export Plug-In . SVG Version: 6.00 Build 0)  -->
<!DOCTYPE svg PUBLIC "-//W3C//DTD SVG 1.1//EN" "http://www.w3.org/Graphics/SVG/1.1/DTD/svg11.dtd">
<svg version="1.1" id="Layer_1" xmlns="http://www.w3.org/2000/svg" xmlns:xlink="http://www.w3.org/1999/xlink" x="0px" y="0px"
	 width="100px" height="100px" viewBox="0 0 100 100" enable-background="new 0 0 100 100" xml:space="preserve">
<g>
	<path fill-rule="evenodd" clip-rule="evenodd" d="M94.385,82.654c0,0.094-0.003,0.188,0,0.281c0.104,6.234-1.903,8.654-8.141,9.707
		c-1.054,0.178-2.171,0.291-3.222,0.145c-2.036-0.285-2.802-1.303-2.858-3.375c-0.314-11.232-2.923-21.916-7.818-32.02
		c-7.755-16.004-20.334-26.813-36.564-33.585c-8.796-3.669-17.927-6.058-27.493-6.55c-1.363-0.071-2.27-0.828-2.594-2.044
		C4.706,11.493,5.359,7.986,7.615,4.885c1.066-1.465,2.786-1.839,4.553-1.876c5.66-0.118,11.155,0.925,16.617,2.274
		c9.827,2.428,19.282,5.811,28.263,10.53c14,7.357,23.469,18.669,29.39,33.17c3.943,9.656,6.556,19.646,7.783,29.996
		c0.143,1.209,0.02,2.449,0.02,3.676C94.289,82.654,94.336,82.654,94.385,82.654z"/>
	<path fill-rule="evenodd" clip-rule="evenodd" d="M65.437,88.586c0.11,4.678-4.163,7.971-8.348,6.828
		c-1.165-0.32-1.582-1.146-1.627-2.34c-0.351-9.605-2.839-18.605-7.927-26.801C41.097,55.902,31.626,49.48,20.255,45.6
		c-4.836-1.65-9.796-2.755-14.91-3.042c-1.413-0.079-2.067-0.87-2.255-2.087c-0.319-2.061,0.032-4.044,1.046-5.882
		c0.925-1.674,2.503-2.007,4.233-2.001c5.339,0.02,10.457,1.316,15.52,2.816c8.37,2.478,16.328,5.839,23.179,11.414
		c6.609,5.377,10.7,12.466,13.64,20.304C63.354,74.176,65.118,81.43,65.437,88.586z"/>
</g>
</svg>
