<?xml version="1.0" standalone="no"?>
<!DOCTYPE svg PUBLIC "-//W3C//DTD SVG 1.1//EN" "http://www.w3.org/Graphics/SVG/1.1/DTD/svg11.dtd" >
<svg xmlns="http://www.w3.org/2000/svg">
<metadata></metadata>
<defs>
<font id="herr_von_muellerhoffregular" horiz-adv-x="315" >
<font-face units-per-em="1000" ascent="800" descent="-200" />
<missing-glyph horiz-adv-x="220" />
<glyph unicode=" "  horiz-adv-x="220" />
<glyph unicode="&#x09;" horiz-adv-x="220" />
<glyph unicode="&#xa0;" horiz-adv-x="220" />
<glyph unicode="!" d="M125 117v4q109 135 233 295.5t155 204.5q14 20 22 20q3 0 5 -3q5 -7 5 -22q0 -24 -122 -177.5t-273 -326.5q-11 -11 -17 -11q-8 0 -8 16zM56 -6q-14 0 -14 16q0 14 14.5 27.5t28.5 13.5q7 0 12 -6t5 -12q0 -9 -13.5 -24t-32.5 -15z" />
<glyph unicode="&#x22;" horiz-adv-x="292" d="M271 411q28 27 48.5 50t29 34.5t21 29.5t17.5 25q7 9 14 9t12 -8t5 -17q0 -1 -4.5 -6t-15 -15t-23.5 -22.5t-36.5 -34.5t-46.5 -45q-12 -11 -17 -11q-4 0 -4 11zM201 411q28 27 48.5 50t29 34.5t21 29.5t17.5 25q7 9 14 9t12 -8t5 -17q0 -1 -4.5 -6t-15 -15t-23.5 -22.5 t-36.5 -34.5t-46.5 -45q-12 -11 -17 -11q-4 0 -4 11z" />
<glyph unicode="#" horiz-adv-x="517" d="M249 151l70 2l41 52q-22 -1 -68 -1q-13 -17 -43 -53zM88 147l136 3q21 28 42 54h-14q-92 0 -136 1q-13 1 -13 6q0 2 1.5 4t3.5 3l2 1q148 4 171 4l78 104q7 11 12 11q2 0 3 -2q3 -6 3 -12q0 -13 -68 -100l68 3q39 49 75 100q7 11 13 11q2 0 3 -2q2 -4 2 -12 q0 -12 -65 -96l97 4q16 0 16 -6q0 -4 -5 -9q-10 -9 -127 -12q-36 -45 -41 -50q114 4 135 7h6q13 0 13 -6q0 -4 -8 -10q-12 -9 -163 -12q-22 -27 -80 -94q-8 -6 -10 -6q-5 0 -5 11l71 88h-70q-54 -64 -80 -93q-6 -6 -10 -6t-4 11q8 10 32.5 40.5t37.5 47.5h-116q-13 1 -13 6 q0 2 1.5 4t3.5 3z" />
<glyph unicode="$" d="M414 541q20 -7 20 -27q0 -32 -52 -81.5t-98 -53.5q-14 0 -14 13q0 8 6.5 17.5t13.5 10.5q6 0 6 -7q0 -1 -2 -3l-2 -3q34 4 83 43.5t49 60.5q0 22 -32 22q-47 0 -103.5 -37.5t-56.5 -83.5q0 -39 26 -118.5t26 -113.5q0 -90 -71.5 -155t-151.5 -65h-10q-14 -19 -23.5 -33 t-15.5 -25t-8 -14q-11 -16 -14 -16q-7 0 -7 18q0 7 51 73q-35 10 -35 41q0 40 43.5 85.5t86.5 45.5q12 0 12 -10q0 -11 -12.5 -23t-25.5 -12q-4 0 -4 4q0 1 9.5 6.5t9.5 7.5t-8 2q-28 0 -58 -37t-30 -68q0 -35 43 -35q80 0 129 64.5t49 131.5q0 61 -22 132.5t-22 106.5 q0 49 69.5 94t124.5 45h3q18 24 31 45.5t16 25.5q11 16 14 16q7 0 7 -18q0 -7 -50 -72z" />
<glyph unicode="%" horiz-adv-x="515" d="M305 -13q-41 0 -41 57q0 50 29.5 112t87.5 111.5t124 49.5q16 0 16 -18q0 -24 -29.5 -58t-58.5 -34q-9 0 -9 7q0 5 4.5 11t7.5 6t3 -4l-1 -5q17 2 44.5 32t27.5 46q0 9 -11 9q-45 0 -97.5 -53t-85.5 -118.5t-33 -107.5q0 -35 27 -35q56 0 132.5 89t87.5 187q0 11 3 11 t3 -6q1 -6 1 -19q0 -50 -28.5 -111.5t-84 -110t-119.5 -48.5zM89 217q-41 0 -41 57q0 50 29.5 112t87.5 111.5t124 49.5q16 0 16 -18q0 -24 -29.5 -58t-58.5 -34q-9 0 -9 7q0 5 4.5 11t7.5 6t3 -4l-1 -5q17 2 44.5 32t27.5 46q0 9 -11 9q-45 0 -97.5 -53t-85.5 -118.5 t-33 -107.5q0 -35 27 -35q56 0 132.5 89t87.5 187q0 11 3 11t3 -6q1 -6 1 -19q0 -50 -28.5 -111.5t-84 -110t-119.5 -48.5zM480 540q2 2 4.5 6.5t4 7t4 4.5t4.5 2q3 0 6 -5.5t3 -11.5q0 -4 -2 -7q-56 -83 -119 -165t-101.5 -128t-114 -132.5t-103.5 -118.5q-11 -17 -20 -17 q-7 0 -7 11q0 4 2 8q11 12 54.5 61t57 64.5t51 59t60.5 73t60.5 77t75 99t80.5 112.5z" />
<glyph unicode="&#x26;" horiz-adv-x="509" d="M601 296q-43 0 -102 -47q53 -36 105 -36q21 0 33 12.5t12 28.5q0 17 -12.5 29.5t-35.5 12.5zM-10 22q0 73 76 171.5t188 153.5q-36 -9 -61 -9q-79 0 -79 57q0 40 40.5 94.5t104.5 105t156 85.5t183 35q42 0 42 -21q0 -30 -71 -77t-119 -47q-14 0 -14 15q0 16 21 33.5 t28 17.5q4 0 4 -5q0 -4 -9.5 -10t-9.5 -11q0 -4 4 -4q26 0 87 38.5t61 54.5q0 7 -13 7q-81 0 -167.5 -38t-148.5 -90.5t-102.5 -106.5t-40.5 -88t41 -34q24 0 50.5 6.5t48.5 15.5t46 22t38.5 22.5t30 20t17.5 11.5q5 4 8 4t3 -8v-3q0 -4 -25.5 -21.5t-51.5 -32.5l-26 -16 q-116 -55 -214.5 -172t-98.5 -185q0 -42 45 -42q39 0 97.5 30.5t120 78.5t103 83.5t76.5 69.5q-3 2 -15.5 12.5t-17.5 14t-16.5 10t-23 8.5t-24.5 2q-68 0 -126 -60t-58 -98q0 -12 10 -12q28 0 68.5 43t56.5 81q5 9 7 9q6 0 6 -6q0 -5 -1 -7q-12 -34 -61 -85.5t-88 -51.5 q-28 0 -28 25q0 49 77 115.5t171 66.5q11 0 20 -1.5t20 -7.5t15 -8t19 -13t16 -12q67 57 122 57q29 0 46.5 -16t17.5 -38q0 -27 -26 -46t-76 -19q-59 0 -98 28q-35 -34 -77.5 -71t-105.5 -86.5t-124.5 -81t-103.5 -31.5q-71 0 -71 68z" />
<glyph unicode="'" horiz-adv-x="222" d="M201 407v4q28 27 48.5 50t29 34.5t21 29.5t17.5 25q7 9 14 9t12 -8t5 -17q0 -1 -4.5 -6t-15 -15t-23.5 -22.5t-36.5 -34.5t-46.5 -45q-12 -11 -17 -11q-4 0 -4 7z" />
<glyph unicode="(" horiz-adv-x="253" d="M558 730q17 0 17 -6q0 -2 -5 -4q-94 -38 -184 -122.5t-154 -184.5t-103 -207t-39 -192q0 -47 11 -80q1 -2 1 -7q0 -10 -6 -10q-5 0 -10 9q-27 60 -27 129q0 96 48 207t121 204t162 165t168 99z" />
<glyph unicode=")" horiz-adv-x="428" d="M13 -82q-17 0 -17 6q0 2 5 4q94 38 184 122.5t154 184.5t103 207t39 192q0 47 -11 80q-1 2 -1 7q0 10 6 10q5 0 10 -9q27 -60 27 -129q0 -96 -48 -207t-121 -204t-162 -165t-168 -99z" />
<glyph unicode="*" horiz-adv-x="368" d="M283 304q-25 -70 -38 -93.5t-24 -24.5q-15 0 -15 10q0 6 25 45q22 35 40 63q-124 -60 -135 -60q-13 0 -13 9q0 12 13.5 18.5t69.5 23.5q39 11 64 19q-91 40 -91 56q0 13 19 15q10 0 25 -11t53 -52q25 70 38 93.5t24 24.5q15 0 15 -10q0 -6 -25 -45q-22 -35 -40 -63 q124 60 135 60q13 0 13 -9q0 -12 -13.5 -18.5t-69.5 -23.5q-12 -3 -19.5 -5.5t-20 -6t-24.5 -7.5q91 -40 91 -56q0 -13 -19 -15q-11 0 -25 11t-53 52z" />
<glyph unicode="+" horiz-adv-x="400" d="M195 133q-2 -8 -11 -8q-4 0 -4 6q0 3 2 9q12 24 16 30q32 60 34 64h-3l-108 1q-12 0 -13 5q0 8 13 10h5q5 0 13 0.5t16 0.5q2 0 31 1t56 3q31 62 54 109q4 6 8 6q12 -5 12 -17q0 -7 -3 -12q-25 -47 -46 -85q1 0 6 0.5t31 2t68 4.5q8 0 10 -6q0 -9 -7 -14.5t-15 -5.5 q-39 -3 -106 -3z" />
<glyph unicode="," horiz-adv-x="141" d="M91 26q0 -22 -10 -40t-24 -28.5t-28 -17.5t-24 -10l-10 -2q-10 0 -10 4q0 2 7 5q12 2 40.5 19t28.5 36q-27 4 -27 20t12 28t27 12q8 0 13 -7.5t5 -18.5z" />
<glyph unicode="-" horiz-adv-x="500" d="M107 112q-15 0 -16 5q0 8 16 10q1 0 7 0.5t16 0.5h20q105 4 154 6l117 6q11 0 12 -6q0 -9 -8.5 -14.5t-18.5 -5.5q-59 -3 -164 -3z" />
<glyph unicode="." horiz-adv-x="137" d="M46 -6q-14 0 -14 16q0 14 14.5 27.5t28.5 13.5q7 0 12 -6t5 -12q0 -9 -13.5 -24t-32.5 -15z" />
<glyph unicode="/" horiz-adv-x="307" d="M18 -25v4q177 195 618 826q14 20 22 20q4 0 5 -3q5 -7 5 -22q0 -8 -117 -170t-271.5 -364t-236.5 -296q-11 -11 -17 -11q-8 0 -8 16z" />
<glyph unicode="0" horiz-adv-x="404" d="M83 -30q-63 0 -63 84q0 46 19.5 106t56.5 121t84 113t108.5 85t123.5 33q28 0 28 -28q0 -41 -48 -97t-97 -56q-16 0 -16 12q0 9 7 18.5t12 9.5q7 0 7 -7l-2 -7q27 1 72.5 51.5t45.5 77.5q0 15 -17 15q-74 0 -160 -87.5t-141 -196.5t-55 -178q0 -57 44 -57q43 0 101.5 40 t113 102t96.5 146.5t51 165.5q0 21 6 21q3 0 5 -10q2 -16 2 -26q0 -80 -53 -184.5t-145 -185.5t-186 -81z" />
<glyph unicode="1" horiz-adv-x="243" d="M85 335q-6 0 -6 4q0 3 3.5 6.5t7.5 3.5q37 0 102 41t111.5 82t53.5 53q7 8 20 11q13 0 13 -10q0 -4 -6 -16q-24 -40 -95 -161t-130 -217.5t-104 -158.5q-11 -13 -17 -14q-6 0 -6 4q0 3 6 12t8 11q14 19 140.5 240.5t146.5 254.5q-54 -48 -127.5 -97t-120.5 -49z" />
<glyph unicode="2" horiz-adv-x="380" d="M-108 -29q0 -4 4 -4q79 31 183 110q-36 0 -82 -23t-75.5 -48t-29.5 -35zM144 100q-3 -2 -7.5 -6t-5.5 -4q13 -6 62.5 -42.5t81.5 -36.5q29 0 63.5 12t55.5 24l20 12q4 2 7 2q6 0 6 -4q0 -2 -3 -5q-9 -7 -24 -16.5t-59 -26t-84 -16.5q-32 0 -61 15t-55 36t-39 27 q-179 -119 -214 -119q-9 0 -9 8q0 16 32 48.5t87.5 61.5t107.5 29h2q121 96 207 202t86 178q0 16 -5.5 21.5t-20.5 5.5q-55 0 -119 -48t-103 -102t-39 -81q0 -13 12 -13q32 0 78.5 30.5t77.5 61.5l30 30q4 4 9 4q6 0 6 -6q0 -2 -2 -6q-9 -10 -24.5 -25t-46.5 -41 t-67.5 -43.5t-67.5 -17.5q-30 0 -30 31q0 27 24 67t62 78t92.5 65.5t107.5 27.5q25 0 38.5 -12.5t13.5 -48.5q0 -61 -83.5 -167.5t-199.5 -189.5z" />
<glyph unicode="3" d="M254 309q25 7 45 7q49 0 49 -40q0 -34 -35 -85t-88.5 -99.5t-126.5 -83t-140 -34.5q-30 0 -30 18q0 31 69.5 84.5t108.5 53.5q9 0 9 -11q0 -10 -15 -22t-20 -12q-4 0 -4 4q0 2 9 6t9 7t-7 3q-19 0 -81 -48.5t-62 -67.5q0 -7 11 -7q58 0 126.5 37t120.5 87t87 100t35 78 q0 22 -24 22q-16 0 -32.5 -3t-27.5 -6.5t-24 -9.5t-19 -9.5t-15 -9.5l-9 -6q-3 -3 -5 -3t-2 7q0 3 10 10t20 13l10 6q71 41 132 107t61 102q0 23 -31 23q-50 0 -116 -44t-109 -89q-6 -6 -15 -6q-4 0 -4 3q0 2 1 3q140 143 250 143q51 0 51 -39q0 -37 -46.5 -90.5 t-125.5 -98.5z" />
<glyph unicode="4" horiz-adv-x="401" d="M-16 119q17 0 77 62q-29 -7 -55.5 -27.5t-26.5 -30.5q0 -4 5 -4zM427 486q7 8 20 11q13 0 13 -10q0 -4 -6 -16q-27 -44 -92 -155t-100 -169q53 -31 70 -31q32 0 59 25.5t27 41.5q0 5 -5 5q-11 0 -25.5 -15t-25.5 -31l-10 -15q-6 0 -6 5q0 3 1 5q5 15 28.5 40t42.5 25 q14 0 14 -13q0 -24 -36 -56.5t-79 -32.5q-16 0 -68 27q-50 -82 -101 -154q-11 -13 -17 -14q-6 0 -6 4q0 3 6 12t8 11q21 31 89 152q-88 45 -140 45q-78 -76 -106 -76q-11 0 -11 9q0 17 32.5 44t69.5 33q67 72 145 172t88 125q-3 -3 -8 -3q-3 0 -5 1q0 6 17.5 20t24.5 14 q10 0 10 -12q0 -21 -82.5 -127t-162.5 -188q34 -1 73.5 -11.5t63.5 -22.5q2 -2 3 -2q185 325 187 327z" />
<glyph unicode="5" horiz-adv-x="305" d="M240 491l-103 -195q80 38 128 38q58 0 58 -57q0 -27 -20 -66t-57 -80t-82 -76.5t-102 -58t-111 -22.5q-30 0 -30 18q0 31 69.5 84.5t108.5 53.5q9 0 9 -11q0 -10 -15 -22t-20 -12q-4 0 -4 4q0 2 9 6t9 7t-7 3q-19 0 -81 -48.5t-62 -67.5q0 -7 11 -7q58 0 123.5 37 t113.5 86.5t80 99t32 77.5q0 35 -46 35q-33 0 -74.5 -17t-67.5 -40q-5 0 -5 9q0 8 124 235q15 23 20 23q4 0 10.5 -6t10.5 -8q23 -11 57 -11q19 0 40 3t34 7l13 3q6 0 6 -4q0 -7 -7 -9q-45 -19 -106 -19q-35 0 -66 8z" />
<glyph unicode="6" horiz-adv-x="342" d="M128 191l10 11q9 12 21 26t31 31.5t38 31t42 23t44 9.5q46 0 46 -52q0 -30 -15.5 -68.5t-45 -78.5t-67 -74t-87.5 -55.5t-101 -21.5t-51 51q0 89 131.5 249.5t312.5 262.5q3 2 8 2q3 0 3 -2q0 -3 -7 -7q-141 -88 -283.5 -261.5t-142.5 -249.5q0 -34 35 -34q60 0 130 58.5 t114.5 129.5t44.5 113q0 31 -28 31q-21 0 -49.5 -18.5t-50 -38.5t-71.5 -70q-7 -7 -14 -7q-2 0 -2 1q0 3 4 8z" />
<glyph unicode="7" horiz-adv-x="380" d="M541 518q0 3 -4 3q-31 0 -112 -88q37 8 76.5 39.5t39.5 45.5zM129 12q9 6 10 6q2 0 5 -3q0 -7 -22.5 -24.5t-30.5 -17.5q-12 0 -12 15q0 28 124 196h-113q-11 0 -11 7q0 9 9 14t19 5q15 0 54 -2t59 -2q91 123 176 215h-1q-53 0 -103 33.5t-86 33.5q-42 0 -77 -35t-35 -56 q0 -7 6 -7q16 0 39 24.5t35 48.5q3 8 7 8q7 0 7 -6q0 -4 -1 -6q-7 -21 -38 -53t-56 -32q-17 0 -17 16q0 31 47 73.5t104 42.5q29 0 88 -37t90 -38q99 104 134 104q18 0 18 -12q0 -22 -45.5 -57.5t-95.5 -43.5q-75 -85 -168 -217l157 -9q15 0 16 -6q0 -9 -17 -9q-20 0 -43 1 q-50 2 -128 2q-104 -151 -104 -172z" />
<glyph unicode="8" d="M232 412q0 -38 15 -86q45 32 63.5 46t47 37.5t39.5 41t11 33.5q0 49 -46 49q-42 0 -86 -37.5t-44 -83.5zM65 -30q80 0 129 64.5t49 131.5q0 58 -20 126q-96 -68 -150.5 -130.5t-54.5 -137.5q0 -54 47 -54zM-8 17q0 41 18.5 81t55 77.5t70.5 66t83 63.5q-20 60 -20 100 q0 56 60 98.5t117 42.5t57 -45q0 -23 -13 -46t-44.5 -50t-54 -43.5t-70.5 -49.5q33 -101 33 -132q0 -90 -71.5 -155t-151.5 -65q-31 0 -50 14.5t-19 42.5z" />
<glyph unicode="9" horiz-adv-x="319" d="M65 269q0 27 23 69t60 83t94 70.5t117 29.5q24 0 24 -20q0 -32 -52 -81.5t-98 -53.5q-14 0 -14 13q0 8 6.5 17.5t13.5 10.5q6 0 6 -7q0 -1 -2 -4l-2 -2q34 4 83 43.5t49 60.5q0 9 -15 9q-43 0 -93.5 -30.5t-89 -71.5t-65 -82t-26.5 -62q0 -20 21 -20q37 0 102 41 t111.5 82t53.5 53q7 8 20 11q13 0 13 -10q0 -4 -6 -16q-96 -158 -293 -429q-11 -13 -17 -14q-6 0 -6 4q0 3 6 12t8 11q18 23 112.5 169.5t138.5 217.5q-54 -48 -127.5 -97t-120.5 -49q-35 0 -35 42z" />
<glyph unicode=":" horiz-adv-x="154" d="M132 190q-14 0 -14 16q0 14 14.5 27.5t28.5 13.5q7 0 12 -6t5 -12q0 -9 -13.5 -24t-32.5 -15zM46 -6q-14 0 -14 16q0 14 14.5 27.5t28.5 13.5q7 0 12 -6t5 -12q0 -9 -13.5 -24t-32.5 -15z" />
<glyph unicode=";" horiz-adv-x="148" d="M142 190q-14 0 -14 16q0 14 14.5 27.5t28.5 13.5q7 0 12 -6t5 -12q0 -9 -13.5 -24t-32.5 -15zM91 26q0 11 -5 18.5t-13 7.5q-15 0 -27 -12t-12 -28t27 -20q0 -19 -28.5 -36t-40.5 -19q-7 -3 -7 -5q0 -4 10 -4q4 1 10.5 2.5t23 9.5t29 18t23 28t10.5 40z" />
<glyph unicode="&#x3c;" horiz-adv-x="362" d="M141 266l173 -83q5 -2 5 -9q0 -9 -15 -9l-153 73q-42 20 -42 28q-1 2 -1 4q0 14 32 22l203 30q7 0 7 -5q0 -3 -6 -5l-193 -29q-16 -3 -16 -8q0 -3 6 -9z" />
<glyph unicode="=" horiz-adv-x="418" d="M303 201q31 0 31 -9t-36 -11q-44 2 -125 2h-95q-9 0 -9 7q0 9 7.5 14t15.5 5zM341 269q31 0 31 -9t-36 -11q-44 2 -125 2h-95q-9 0 -9 7q0 9 7.5 14t15.5 5z" />
<glyph unicode="&#x3e;" horiz-adv-x="362" d="M311 222l-173 83q-5 2 -5 9q0 9 15 9l153 -73q42 -20 42 -28q1 -2 1 -4q0 -14 -32 -22l-203 -30q-7 0 -7 5q0 3 6 5l193 29q16 3 16 8q0 3 -6 9z" />
<glyph unicode="?" horiz-adv-x="376" d="M168 106q-10 0 -22.5 15t-12.5 42q5 49 45.5 88.5t95 68t108 59t90.5 76t37 103.5q0 86 -77 86q-76 0 -161 -71.5t-85 -147.5q0 -39 26 -39q34 0 94.5 55t72.5 83q3 7 8 7q7 0 7 -7q0 -1 -2 -7q-22 -38 -83.5 -90.5t-99.5 -52.5q-37 0 -37 57q0 96 86 162.5t179 66.5 q56 0 91 -29t35 -87q0 -45 -29 -82.5t-72.5 -61.5t-94.5 -50.5t-95.5 -50t-75.5 -60t-34 -79.5q0 -40 14 -46q5 -3 5 -4q0 -4 -13 -4zM86 -6q-14 0 -14 16q0 14 14.5 27.5t28.5 13.5q7 0 12 -6t5 -12q0 -9 -13.5 -24t-32.5 -15z" />
<glyph unicode="@" horiz-adv-x="555" d="M265 14q56 0 127.5 46t121.5 109.5t50 110.5q0 66 -104 66q-97 0 -182 -35t-138.5 -88t-84 -112t-30.5 -111q0 -49 28 -78.5t82 -29.5q62 0 137.5 19t119.5 38l45 19q6 3 10 3q7 0 7 -5q0 -4 -4 -6q-20 -9 -52.5 -22.5t-117 -36t-148.5 -22.5q-67 0 -103.5 38.5 t-36.5 99.5q0 55 30.5 113t87 110t151 85t209.5 33q60 0 90 -24.5t30 -65.5q0 -40 -27 -87t-72 -87.5t-109.5 -67.5t-132.5 -27q-6 0 -6 6q0 9 5.5 28t10.5 33l5 14q0 2 -2 2q-5 0 -60 -40t-70 -40q-17 1 -17 30q0 83 94.5 162t227.5 79q12 0 12 -11q0 -9 -94 -115.5 t-94 -128.5q0 -4 4 -4zM285 118q17 13 66 69t49 65q0 4 -8 4q-46 0 -107 -42.5t-103.5 -96.5t-42.5 -87q0 -6 6 -6t19.5 7.5t33 21t33 23.5t33.5 25.5t21 16.5z" />
<glyph unicode="A" horiz-adv-x="496" d="M531 106q-12 -9 -39 -27.5t-43 -29.5t-40.5 -27.5t-41.5 -26.5t-35.5 -20t-32 -14.5t-22.5 -4.5q-17 0 -17 18q0 29 39.5 94t79 119.5t39.5 58.5q0 2 -2 2q-12 -11 -31.5 -30t-74.5 -67.5t-101.5 -85.5t-98 -67.5t-78.5 -30.5q-49 0 -49 68q0 57 34 144t98 182.5 t144.5 179t185.5 138t209 54.5q40 0 40 -30q0 -39 -60.5 -112.5t-133.5 -131.5t-106 -58q-13 0 -13 13q0 14 22.5 41t30.5 27q4 0 4 -6q0 -3 -12.5 -16.5t-12.5 -17.5t6 -4q21 0 82.5 53t116 118.5t54.5 95.5q0 19 -25 19q-65 0 -141.5 -41.5t-145.5 -106.5t-133.5 -145.5 t-111.5 -158t-75.5 -145t-28.5 -105.5q0 -40 31 -40q54 0 213.5 137.5t263.5 257.5q52 59 92 110q25 31 40 31q13 0 13 -11q0 -10 -97 -130t-193.5 -247.5t-96.5 -156.5q0 -8 8 -8t21.5 6.5t39 23t45 29.5t61 41.5t64.5 44.5l67 42q7 4 15 4t8 -3q0 -1 -3 -3z" />
<glyph unicode="B" horiz-adv-x="566" d="M-35 -32q-12 0 -12 15q0 63 53 160.5t142 199t193 191.5t217.5 147t203.5 57q69 0 69 -35q0 -52 -132.5 -157t-232.5 -152q0 -2 4 -2q44 6 74 6q96 0 96 -65q0 -60 -74 -149t-180.5 -157t-187.5 -68q-59 0 -59 51q0 35 25 82.5t51 71.5q6 4 8 4t2 -1l-3 -4 q-16 -18 -36.5 -66.5t-20.5 -82.5q0 -44 39 -44q53 0 150 70t174 160.5t77 142.5q0 45 -65 45q-33 0 -63 -5t-43 -11l-14 -5q-67 -27 -72 -27t-5 2q0 3 8 8q93 38 194 113t164 144.5t63 101.5q0 17 -22 17q-102 0 -242.5 -90.5t-257 -211.5t-199.5 -244t-83 -187 q0 -11 6 -11q19 0 106.5 102.5t175.5 227.5t104 177q2 7 9 7q3 0 4 -4q0 -1 0.5 -3t0.5 -4q0 -47 -82 -173t-182 -235t-145 -109z" />
<glyph unicode="C" horiz-adv-x="293" d="M22 48q0 -62 45 -62q61 0 245 124l67 42q7 4 15 4t8 -3q0 -1 -3 -3l-72 -44q-12 -8 -56 -37.5t-65 -42.5t-55 -32.5t-59.5 -28t-45.5 -8.5q-64 0 -64 96q0 63 38 151t106.5 179t154 170t192 129.5t207.5 50.5q55 0 55 -42q0 -50 -67 -136.5t-155.5 -154.5t-141.5 -68 q-24 0 -24 14q0 10 21.5 32.5t34.5 22.5q4 0 4 -4q0 -3 -12.5 -14.5t-12.5 -16.5q0 -2 2 -2q30 0 112 62t154 141.5t72 120.5q0 33 -50 33q-86 0 -182.5 -51.5t-177.5 -132t-147.5 -171.5t-104.5 -177t-38 -141z" />
<glyph unicode="D" horiz-adv-x="706" d="M64 113l-4 12q-3 0 -11 -32t-15.5 -80t-7.5 -81q0 -54 21 -54q3 0 107 124q-36 18 -60 48t-30 63zM289 101q-14 0 -20 1q-17 -18 -45.5 -50.5t-38.5 -44.5q33 -12 63 -12q98 0 220 69.5t220 166.5t165.5 206t67.5 184q0 110 -142 110q-87 0 -175.5 -38.5t-156.5 -99.5 t-122.5 -132.5t-83.5 -140.5t-29 -120q0 -59 39 -78q313 391 370 474q14 20 22 20q3 0 5 -3q5 -7 5 -22q0 -44 -374 -477h13q39 0 86 20t86.5 48t73 56.5t52.5 48.5l20 20q9 10 16 10q5 0 5 -4q0 -6 -8 -14l-21.5 -21.5t-54 -47.5t-79 -60t-89 -47.5t-90.5 -21.5zM181 217 q0 71 45 160.5t121.5 171.5t194.5 138t247 56q78 0 116 -35t38 -97q0 -65 -38.5 -148.5t-108.5 -167t-156 -154t-193 -114.5t-208 -44q-35 0 -65 11q-74 -82 -113 -122q-20 -20 -35 -20q-27 0 -27 61q0 76 33 183.5t58 107.5q7 0 7 -9q0 -8 -3 -20t-3 -22q0 -41 20 -78 t55 -58l74 92q-59 25 -59 108z" />
<glyph unicode="E" d="M-6 21q0 73 74.5 172t185.5 154q-36 -9 -61 -9q-71 0 -71 55q0 44 46.5 108t118.5 124.5t171.5 103t193.5 42.5q44 0 44 -25q0 -43 -100.5 -121t-151.5 -78q-14 0 -14 15q0 16 21 33.5t28 17.5q4 0 4 -5q0 -4 -9.5 -10t-9.5 -11q0 -4 4 -4q28 0 119 71t91 98q0 10 -15 10 q-83 0 -177.5 -46.5t-165.5 -109t-118 -126.5t-47 -100q0 -31 36 -31q24 0 50.5 6.5t48.5 15.5t46 22t38.5 22.5t30 20t17.5 11.5q5 4 8 4t3 -8v-3q0 -4 -25.5 -21.5t-51.5 -32.5l-26 -16q-104 -62 -206.5 -182.5t-102.5 -181.5q0 -35 41 -35q64 0 271 139l67 42q7 4 15 4 t8 -3q0 -1 -3 -3l-72 -44q-9 -6 -56 -37.5t-67 -44t-56.5 -33t-62 -29t-45.5 -8.5q-67 0 -67 67z" />
<glyph unicode="F" horiz-adv-x="395" d="M783 767q0 9 -10 9q-39 0 -182 -150q68 12 130 63t62 78zM221 255l-206 -1q-13 0 -13 7q0 12 13 19t29 7q86 0 198 -6q150 185 294 331q-58 1 -104.5 18.5t-71.5 37.5t-59 37t-70 17q-68 0 -126 -60t-58 -98q0 -12 10 -12q28 0 68.5 43t56.5 81q4 9 7 9q6 0 6 -6 q0 -5 -1 -7q-12 -34 -61 -85.5t-88 -51.5q-28 0 -28 25q0 49 77 115.5t171 66.5q32 0 80 -26.5t103.5 -56.5t100.5 -35q168 166 228 166q24 0 24 -18q0 -35 -69.5 -89.5t-150.5 -67.5q-124 -132 -287 -336q109 -5 239 -15q19 0 21 -7q0 -8 -23 -8q-3 0 -115.5 3t-134.5 3h-6 q-205 -260 -205 -293q0 -3 3 -3q2 0 6 2q3 2 7.5 4.5t7.5 4.5t4 2t1 -3q0 -11 -34.5 -36t-47.5 -25q-16 0 -16 18q0 26 61.5 117t158.5 212z" />
<glyph unicode="G" horiz-adv-x="405" d="M56 -115q17 17 83 99q-41 3 -72 27.5t-42 58.5q-1 3 -2 3q-2 0 -2 -10q-5 -45 -5 -90q0 -93 31 -93q4 0 9 5zM441 106q-68 -45 -145.5 -80t-130.5 -41l-105 -118q-15 -16 -26 -16q-40 0 -40 95q0 44 8.5 97.5t18.5 88.5t17 35l10 -10q-5 -23 -5 -40q0 -52 31 -83t77 -34 q208 257 410 519q-23 -16 -40 -28t-81 -53t-114.5 -67.5t-113 -50t-104.5 -23.5q-59 0 -59 60q0 37 23 86t69.5 100.5t107 95t145 71.5t174.5 28q45 0 45 -29q0 -31 -44.5 -78.5t-109.5 -84.5t-116 -37q-18 1 -18 16q0 13 12.5 27t23.5 14q4 0 4 -4q0 -2 -5 -6.5t-5 -8.5 q0 -3 6 -3q37 0 95 31t101 70.5t43 61.5q0 19 -33 19q-74 0 -165 -45.5t-162.5 -107.5t-120.5 -126.5t-49 -101.5q0 -35 45 -35q66 0 180.5 58.5t199.5 118.5t99 80q7 9 25 9q17 0 17 -11q0 -9 -11 -25q-184 -244 -446 -540q101 12 247 110l67 42q7 4 15 4t8 -3q0 -1 -3 -3z " />
<glyph unicode="H" horiz-adv-x="464" d="M240 -94q29 0 61.5 64.5t56.5 157.5q-123 -170 -123 -213q0 -7 5 -9zM350 345q0 -102 20 -168q23 103 23 168q0 64 -23 64q-20 0 -20 -64zM82 444q48 0 135 32.5t181 86.5q32 19 58 42q16 15 43.5 44t31.5 33q13 13 36.5 38.5t37.5 39t32 25.5t32 12q8 0 8 -7 q0 -23 -39.5 -60.5t-89 -74t-57.5 -45.5q-113 -124 -272 -334.5t-160 -261.5q0 -3 2 -3q3 0 7.5 4t6.5 4q3 0 3 -3q0 -8 -25 -26t-39 -18t-14 14q0 53 145.5 249t245.5 304l2 4q0 2 -3 2q-39 -26 -163 -80.5t-178 -54.5q-30 0 -30 20q0 6 8.5 16.5t13.5 10.5q2 0 9 -6.5 t32 -6.5zM571 150l-72 -44q-38 -24 -69 -24q-28 0 -51 21q-28 -89 -67.5 -149t-77.5 -60q-13 0 -13 12q0 63 130 243q-26 63 -26 178q0 39 12 65t33 26q48 0 48 -100q0 -42 -9 -90q139 181 317 377t238 240q14 9 32 9q21 0 22 -8q0 -4 -4.5 -8.5t-15.5 -14.5t-19 -18 q-350 -350 -566 -607l-12 -15q-1 -3 -5 -21.5t-7 -27.5q21 -36 54 -36q19 0 41 12q14 8 39 24t28 18q7 4 15 4t8 -3q0 -1 -3 -3z" />
<glyph unicode="I" horiz-adv-x="371" d="M470 461q-8 -9 -35 -33.5t-72.5 -61t-100 -63t-96.5 -26.5q-51 0 -51 51q0 47 43.5 119.5t110.5 142t161 119.5t182 50q49 0 49 -62q-11 -80 -60 -170.5t-115.5 -172t-160.5 -172.5t-179 -162t-188 -150q-10 -7 -14 -7l-2 1v2q0 4 10 12q92 76 205 186.5t224 233.5 t185.5 239t74.5 182q0 29 -33 29q-68 0 -154 -52.5t-154 -123t-115.5 -142.5t-47.5 -112q0 -33 34 -33q49 0 130.5 49.5t158.5 130.5q5 5 9 5t4 -4q0 -2 -3 -5z" />
<glyph unicode="J" horiz-adv-x="414" d="M-270 -455q0 -4 3 -4q29 0 188.5 174.5t342.5 402.5q-72 -48 -140.5 -99.5t-142 -115.5t-127.5 -123.5t-89 -122t-35 -112.5zM389 382l9 -2q-8 -7 -22 -18.5t-55 -40.5t-79 -51t-86.5 -40.5t-84.5 -18.5q-59 0 -59 50t57 131.5t143 160t201 135.5t216 57q25 0 33 -10 t8 -35q0 -129 -289 -498q31 19 71 40q4 3 8 3t4 -3t-4 -6q-27 -12 -94 -53q-194 -244 -401 -454t-256 -210q-4 0 -5 1q-5 3 -5 12q0 67 55.5 151t147 167.5t186.5 155t196 136.5q163 205 268.5 361.5t105.5 205.5q0 15 -4.5 18t-21.5 3q-75 0 -182.5 -57.5t-198.5 -134 t-156 -156.5t-65 -123q0 -37 50 -37q46 0 123 40t131 80z" />
<glyph unicode="K" horiz-adv-x="704" d="M63 433q40 0 75.5 5t108.5 31.5t163 75.5q16 9 30 18t20 14l6 5q162 167 198 193q17 13 30 13q10 0 10 -8q0 -21 -74 -87.5t-115 -89.5q-13 -16 -73 -88t-115.5 -140t-116.5 -145.5t-98 -135.5t-37 -79q0 -2 3 -2q12 4 16 4t4 -3q0 -9 -29 -26t-43 -17q-9 0 -9 17 q0 45 62 136t136 174t141.5 156.5t72.5 83.5q0 1 -2 1q-10 -6 -27 -15.5t-66.5 -34t-95 -43.5t-101 -34.5t-94.5 -15.5q-42 0 -42 25q0 13 15.5 24t24.5 11q8 0 8 -7q0 -2 -2 -4.5t-2 -3.5q0 -8 18 -8zM479 -18q33 0 81.5 20.5t83.5 42t96 61.5q34 21 72 44q3 2 3 3 q0 3 -8 3t-15 -4l-67 -42q-174 -117 -245 -117q-83 0 -83 169q0 105 28 228q14 -36 60 -36q54 0 145 50t172 114t141 125.5t60 83.5q0 15 -32 15q-8 0 -25.5 -17.5t-43.5 -48.5l-25 -30q-90 -97 -208.5 -183.5t-184.5 -86.5q-42 0 -53 40q18 68 28 79l2 4q0 2 -2 2 q-14 0 -38.5 -43.5t-46 -122.5t-21.5 -158q0 -86 30.5 -140.5t95.5 -54.5z" />
<glyph unicode="L" horiz-adv-x="624" d="M164 -2q-61 40 -83 112q-40 -56 -57.5 -126.5t-17.5 -130.5q0 -24 7 -27q25 0 151 172zM107 155l-1 -11q17 -76 79 -118q28 38 88 121.5t99 137t96 130t98.5 126t85.5 97.5t76.5 71.5t54.5 23.5q19 0 19 -31q0 -51 -43.5 -157.5t-101 -194t-90.5 -87.5q-20 0 -20 34 q0 47 31 119.5t50 72.5q7 0 7 -9q0 -3 -1 -5q-24 -30 -43 -82.5t-19 -84.5q0 -23 12 -23q23 0 72 87t88.5 188t39.5 140q0 17 -9 17q-20 0 -107.5 -108t-237 -306t-223.5 -290q59 -31 122 -31q69 0 142 12t111 24l39 13h3q6 0 6 -4q0 -7 -7 -9q-190 -60 -316 -60 q-69 0 -122 28q-158 -194 -194 -194q-17 0 -17 48q0 74 30.5 153.5t61 123t38.5 43.5q3 0 3 -5z" />
<glyph unicode="M" horiz-adv-x="709" d="M45 277q-36 0 -36 47q0 40 25.5 102.5t74 130.5t109 128t139.5 99t157 39q20 0 39 -14.5t19 -43.5q0 -30 -21.5 -78t-64.5 -112t-79.5 -115.5t-97 -125.5t-84.5 -102.5t-71 -84.5q1 -1 9 5q426 386 535 483q1 1 5.5 6t7 7.5t8 5t10.5 2.5q14 0 14 -12q0 -30 -87.5 -152 t-174.5 -233t-87 -115l1 -1q61 53 250.5 229.5t331 304.5t157.5 128q11 0 11 -14q0 -27 -45.5 -96t-162.5 -217q-5 -6 -162 -193.5t-251.5 -314.5t-94.5 -163q0 -4 5 -4q8 0 51.5 22.5t71.5 46.5q6 6 9 6t3 -5q0 -4 -2 -6q-11 -14 -67.5 -46t-71.5 -32t-15 13 q0 63 107 222.5t214 289.5t193 225q30 34 111 134t81 108q0 2 -1 2q-6 0 -369.5 -334t-470.5 -436q-12 -12 -23 -12q-29 0 -29 7t15 26q13 16 148.5 181.5t228 282t92.5 128.5l-1 1l-4 -2q-6 -5 -83.5 -74.5t-159 -143t-175.5 -158.5t-165 -151.5t-95 -92.5q-12 0 -18.5 3 t-7.5 6l-1 3q0 13 86 116t189 223.5t189 245t86 175.5q0 32 -33 32q-54 0 -114 -28.5t-112.5 -74t-101.5 -101.5t-83.5 -110.5t-55.5 -101.5t-21 -74q0 -29 24 -29q33 0 107 56t131 112l57 55q2 2 6 2q5 0 5 -3l-2 -4q-9 -9 -24.5 -25t-58.5 -55.5t-80.5 -70t-80.5 -55.5 t-68 -25z" />
<glyph unicode="N" horiz-adv-x="506" d="M41 255q-41 0 -41 45q0 97 84.5 212t208 194t227.5 79q25 0 34.5 -11t9.5 -36q0 -58 -76.5 -184.5t-159.5 -234t-158 -193.5q-3 -3 -3 -8q0 -2 2 -2t6 4q8 7 136 125t138 128q32 32 256.5 234.5t233.5 202.5q11 0 11 -11q0 -36 -114 -185.5t-251.5 -311.5t-251.5 -313.5 t-114 -190.5q0 -4 3 -4q6 0 23 11t19 11q8 0 8 -5q0 -2 -4 -5q-41 -27 -54 -27q-11 0 -11 13q0 53 74.5 172t180.5 252.5t212.5 260t181 215.5t74.5 98q0 1 -3 1q-1 0 -63 -56t-153 -139.5t-180 -165t-160 -146.5t-77 -71q-246 -231 -247 -232q-10 -10 -27 -10q-10 0 -10 4 q0 5 12 20q32 43 135.5 171t183.5 229.5t148 206.5t68 144q0 16 -7.5 22.5t-25.5 6.5q-62 0 -135.5 -39t-137.5 -97.5t-118 -124t-85.5 -124.5t-31.5 -93q0 -33 31 -33q30 0 69.5 20t74.5 48t65.5 56t48.5 48l18 20q5 6 9 6q3 0 3 -4q0 -5 -5 -10q-7 -8 -18.5 -21t-46.5 -46 t-68 -58.5t-75.5 -46.5t-76.5 -21z" />
<glyph unicode="O" horiz-adv-x="441" d="M719 648q-12 -93 -75.5 -209.5t-154 -219.5t-209.5 -174t-229 -71q-68 0 -68 91q0 62 32 148t94 177.5t142 169.5t188.5 128.5t220.5 50.5q32 0 32 -29q0 -55 -83 -141t-157 -87q-18 4 -18 12q0 7 12.5 22t17.5 15q6 0 6 -5q0 -2 -4 -6t-4 -8q0 -2 4 -2q27 0 78.5 40 t92.5 89t41 73q0 15 -18 15q-106 0 -209 -54t-178.5 -136t-134.5 -176.5t-89 -178.5t-30 -138q0 -60 37 -60q59 0 155.5 56.5t194 143t180.5 202.5t111 222q12 48 15 48q7 0 7 -8z" />
<glyph unicode="P" horiz-adv-x="361" d="M437 422q4 10 9 10q4 0 4 -10q-1 -5 -4.5 -19.5t-6 -30.5t-2.5 -28q0 -42 32 -42q52 0 155.5 79.5t187 180t83.5 153.5q0 41 -55 41q-78 0 -189 -58t-220 -148.5t-204.5 -192t-155 -199t-59.5 -158.5q0 -8 7 -8q29 0 127 116.5t188.5 247t107.5 174.5q3 7 6 7 q11 0 11 -31q0 -24 -5 -31q-11 -30 -44 -81q-77 -121 -218.5 -268t-175.5 -147q-16 0 -16 21q0 78 94 210.5t224.5 255t279 212.5t246.5 90q84 0 84 -60q0 -47 -52 -120.5t-125 -140.5t-159 -115t-148 -48q-34 0 -34 40q0 18 7 42.5t13 39.5z" />
<glyph unicode="Q" horiz-adv-x="469" d="M77 6q-69 0 -173.5 -62.5t-104.5 -113.5q0 -4 4 -4q16 0 101.5 51.5t191.5 127.5q-6 1 -19 1zM158 214q-33 0 -33 45q0 98 77.5 199.5t191.5 165.5t216 64q36 0 56 -19t20 -72q0 -56 -44.5 -129.5t-120 -150.5t-162 -150t-183.5 -142q38 -8 132 -50.5t147 -42.5 q47 0 101 20.5t84 41.5l31 20q5 4 11 4q5 0 5 -4q0 -3 -4 -7q-5 -4 -13.5 -10t-36.5 -22t-56.5 -28.5t-70.5 -22.5t-81 -10q-71 0 -159 39.5t-126 46.5q-119 -83 -216.5 -136t-131.5 -53q-17 0 -17 18q0 29 57 77t141 86.5t149 38.5h9q99 72 185.5 146t166 155.5t126.5 160 t47 139.5q0 26 -10 36t-36 10q-77 0 -189.5 -73t-197 -175.5t-84.5 -176.5q0 -28 29 -28q52 0 126 48.5t122 96.5l49 48q4 4 9 4q6 0 6 -4q0 -3 -3 -6q-7 -8 -19.5 -21.5t-50.5 -47.5t-74.5 -60t-85 -47.5t-89.5 -21.5z" />
<glyph unicode="R" horiz-adv-x="654" d="M407 392l-4 -107q10 -13 32 -13q52 0 155.5 79.5t187 180t83.5 153.5q0 41 -55 41q-78 0 -189 -58t-220 -148.5t-204.5 -192t-155 -199t-59.5 -158.5q0 -8 7 -8q29 0 127 116.5t188.5 247t107.5 174.5q3 7 6 7q11 0 11 -31q0 -24 -5 -31q-11 -30 -44 -81 q-77 -121 -218.5 -268t-175.5 -147q-16 0 -16 21q0 78 94 210.5t224.5 255t279 212.5t246.5 90q84 0 84 -60q0 -47 -52 -120.5t-125 -140.5t-159 -115t-148 -48q-5 0 -8 1q10 -296 97 -296q30 0 76.5 18.5t78.5 37.5l32 19q8 5 12 5t4 -3q0 -4 -7 -10q-14 -9 -36 -23 t-77 -37.5t-92 -23.5q-34 0 -58 22.5t-36.5 61.5t-17.5 81t-5 90q0 90 12 150q11 50 20 50q2 0 2 -5z" />
<glyph unicode="S" horiz-adv-x="563" d="M314 -49q38 0 84 61t85 150.5t72.5 184.5t52.5 169.5t19 99.5q0 3 -2 3q-4 0 -16 -12q-47 -45 -125 -127t-140 -144t-145 -137.5t-182 -146t-210 -131.5q-6 -3 -11 -3q-7 0 -7 4t7 7q74 38 148 87.5t145 108t133 114t131 125.5t117 121t114.5 122t101.5 108q6 6 10 6 t4 -6q0 -31 -19 -116t-56 -197.5t-83 -216.5t-109 -175.5t-126 -71.5q-39 0 -61.5 40.5t-22.5 98.5q0 73 32 128q8 14 14 14q3 0 4.5 -2t2.5 -4v-2q-10 -17 -18 -58.5t-8 -83.5q0 -118 64 -118z" />
<glyph unicode="T" horiz-adv-x="312" d="M784 733q0 9 -10 9q-39 0 -182 -150q68 12 130 63t62 78zM195 638q-12 -34 -61 -85.5t-88 -51.5q-28 0 -28 25q0 49 77 115.5t171 66.5q32 0 80 -26.5t103.5 -56.5t100.5 -35q168 166 228 166q24 0 24 -18q0 -35 -69.5 -89.5t-150.5 -67.5q-154 -164 -332.5 -393.5 t-178.5 -259.5q0 -3 3 -3q2 0 6 2q3 2 7.5 4.5t7.5 4.5t4 2t1 -3q0 -11 -34.5 -36t-47.5 -25q-16 0 -16 18q0 47 180.5 279t354.5 407q-58 1 -104.5 18.5t-71.5 37.5t-59 37t-70 17q-68 0 -126 -60t-58 -98q0 -12 10 -12q28 0 68.5 43t56.5 81q5 9 7 9q6 0 6 -6q0 -5 -1 -7z " />
<glyph unicode="U" horiz-adv-x="693" d="M419 -56q47 0 294 166l67 42q7 4 15 4t8 -3q0 -1 -3 -3l-72 -44q-15 -10 -60 -40.5t-73 -48.5t-66 -40.5t-67.5 -33.5t-49.5 -11q-16 2 -16 24q0 32 32 93t76.5 125t89.5 124t74 98.5t27 38.5q-5 0 -87 -76.5t-181 -167.5t-200 -167.5t-139 -76.5q-15 0 -15 16 q0 41 49 117t119 161t140 171t119 167.5t49 131.5q0 14 -8 22t-17.5 10t-27.5 3q-55 -1 -123 -42.5t-128 -104t-110.5 -130.5t-80.5 -127t-30 -89q0 -23 19 -23q38 0 106.5 47t118.5 94l49 47q6 6 11 6q3 0 3 -3q0 -2 -4 -6l-21 -21t-51 -46t-71.5 -58t-72.5 -46t-64 -21 q-49 0 -49 51q0 40 29.5 101t81 126.5t113.5 123.5t136.5 95t140.5 37q63 0 63 -53q0 -71 -49 -164t-118.5 -179.5t-139 -166t-118.5 -142t-49 -87.5q0 -5 5 -5q42 0 193 123.5t280 246.5l130 123q51 51 98 103.5t75 85.5t33 38q13 19 26 19q9 0 19 -3.5t10 -7.5 q0 -6 -68 -92t-152.5 -190.5t-85.5 -105.5q-7 -10 -41 -51t-64 -79.5t-63 -83.5t-53 -80.5t-20 -51.5q0 -10 9 -10z" />
<glyph unicode="V" horiz-adv-x="407" d="M329 404q-43 -61 -138.5 -129t-158.5 -68q-17 0 -24.5 9.5t-7.5 31.5q0 55 43.5 138.5t110.5 163.5t161.5 137.5t183.5 57.5q61 0 61 -75q0 -50 -52 -151t-115 -193.5t-115 -168t-52 -79.5q13 15 37 40t96 97.5t142.5 138.5t165 146.5t175.5 138.5t163 97.5t138 39.5 q19 0 19 -8q0 -10 -55.5 -45.5t-60.5 -35.5q-3 0 -3 3t7.5 11t7.5 10t-3 2q-61 0 -229 -118t-364.5 -298t-329.5 -341q-21 -26 -67 -26q-8 0 -8 3t7 10q17 15 72 87t82 115q6 10 67 99t104.5 156t90 157t56.5 146q-2 34 -39 34q-54 0 -138.5 -55t-160.5 -131t-131 -162.5 t-55 -142.5q0 -29 25 -29q59 0 136.5 56.5t147.5 138.5q5 6 10 6q3 0 3 -3q0 -5 -5 -11z" />
<glyph unicode="W" horiz-adv-x="646" d="M350 -62l298 519q0 3 -3 3q-287 -264 -391 -386q-14 -16 -69.5 -71t-66.5 -64q-12 -9 -41 -14q-6 0 -6 6q0 8 79.5 103.5t174.5 212t174.5 248.5t79.5 204q0 42 -43 42q-73 0 -166.5 -59t-168 -138t-126.5 -160.5t-52 -126.5q0 -28 34 -28q32 0 75.5 22t82.5 54t73.5 64 t55.5 54l20 22q4 3 6 3q4 0 4 -6q-8 -9 -22 -24.5t-55.5 -54.5t-80 -68.5t-86.5 -54t-85 -24.5q-45 0 -45 50q0 40 28.5 101t81 126.5t117 123t146 95t159.5 37.5q69 0 69 -68q0 -48 -33 -123t-79.5 -147.5t-93.5 -138t-80 -106.5l-33 -40l450 438q27 25 30 25q2 0 3 -1 q4 -3 4 -7q0 -9 -19 -29q-164 -260 -282 -473l-3 -11q26 31 93.5 102t175.5 176t212 197t204 158t151 66q15 0 15 -16q0 -4 -8 -9q-5 -3 -39 -27.5t-66 -47t-35 -22.5q-2 0 -2 2l2 6q0 4 -5 4q-39 0 -152.5 -89t-239 -210t-241 -243t-164.5 -188q-9 -11 -16 -11t-7 5 q0 4 7 17z" />
<glyph unicode="X" horiz-adv-x="811" d="M938 692q-21 -24 -45 -50.5t-58 -60t-55 -54.5t-66 -63.5t-59 -55.5t-66.5 -61.5t-57.5 -53.5q-8 -118 -8 -205q0 -101 66 -101q77 0 241 123l67 42q7 4 15 4t8 -3q0 -1 -3 -3l-72 -44q-69 -49 -108 -75t-86.5 -49t-78.5 -23q-90 0 -90 187q0 32 2 104 q-131 -122 -244.5 -217.5t-150.5 -116.5q-13 -8 -17 -8q-3 0 -3 2q0 11 14 19q1 1 16 11.5t38.5 28t45.5 35.5q154 125 302 265q2 33 6 97t6 112.5t2 87.5q0 187 -89 187q-49 0 -119 -58.5t-129 -136.5t-101 -159.5t-42 -125.5q0 -34 32 -34q58 0 164 92t163 188q6 10 10 10 t4 -8q0 -6 -3 -12q-16 -23 -48 -61.5t-82.5 -91.5t-108 -90t-101.5 -37q-55 0 -55 59q0 83 68 198.5t166 201t175 85.5q135 0 135 -271q0 -62 -6 -188q163 158 370 390q10 11 21 11q18 0 18 -14q0 -6 -3 -9z" />
<glyph unicode="Y" horiz-adv-x="615" d="M-110 -466q70 1 452 477q-194 -135 -324 -262t-130 -212q0 -3 2 -3zM728 520q84 112 119 150q29 32 54.5 54t39 29t20.5 7t12 -5t5 -11q0 -2 -7 -12.5t-27.5 -33t-49.5 -46.5q-8 -8 -101 -125.5t-112 -141.5q-80 -109 -214 -276q156 99 234 141q6 3 9 3q5 0 5 -4 q0 -6 -8 -11q-97 -49 -262 -157q-122 -150 -227.5 -269.5t-208.5 -214t-145 -94.5q-5 0 -10 6.5t-5 11.5q0 51 46 118.5t125.5 139t164 135.5t184.5 131q188 237 324 426q-263 -178 -347 -178q-26 0 -26 27q0 25 21.5 70t42.5 80l22 35q0 2 -3 2l-27.5 -16.5t-69.5 -36.5 t-101.5 -45.5t-114.5 -36t-117 -16.5q-18 0 -18 11q0 17 29 30t42 13q7 0 7 -5q0 -2 -3 -5t-3 -4q0 -4 7 -4q53 0 114 16t110 38.5t90 45t64 38.5l22 16l12 12q12 13 29 31t39 40.5t42 43t39 38.5t29 27q32 27 49 27q6 0 11.5 -4t5.5 -9q0 -10 -38.5 -49.5t-92 -91 t-74.5 -75.5q-45 -50 -94.5 -119t-49.5 -102q0 -7 10 -7q100 0 377 212z" />
<glyph unicode="Z" horiz-adv-x="687" d="M56 -102q5 0 91 84q-67 39 -112 126q-11 0 -11 -80q0 -51 8 -90.5t24 -39.5zM62 176q0 -25 27.5 -79t83.5 -90q161 159 376 379.5t215 229.5q0 1 -1 1q-73 -41 -121 -41q-35 0 -65 15t-47.5 33.5t-41.5 33.5t-49 15q-43 0 -84.5 -26t-68 -62t-42.5 -71t-16 -55 q0 -15 10 -15q22 0 79.5 49.5t80.5 102.5q4 10 9 10t5 -9q0 -4 -1 -6q-17 -45 -85 -105t-113 -60q-17 0 -17 24q0 26 20 66t54 80.5t89 69t115 28.5q25 0 50.5 -15t43.5 -32.5t46 -32.5t57 -15q28 0 69.5 21.5t65.5 40t31 25.5q5 5 10 5q7 0 18 -5.5t11 -11.5q0 -8 -6 -14 q-421 -429 -679 -663q55 -29 128 -29q161 0 388 142l67 42q7 4 15 4t8 -3q0 -1 -3 -3l-72 -44q-252 -163 -427 -163q-74 0 -131 29q-106 -95 -118 -95q-23 0 -34.5 31.5t-11.5 79.5q0 54 13 108t33 80q5 11 10 11q6 0 6 -11z" />
<glyph unicode="[" horiz-adv-x="500" d="M727 826h119q5 0 5 -4q0 -7 -10.5 -18.5t-17.5 -11.5h-93q-4 0 -8 -2t-6 -4l-1 -2l-589 -923q-2 -3 -2 -5q0 -4 6 -4h94q10 0 10 -6t-9 -14t-18 -8h-114q-13 0 -13 12q0 4 3 10l615 963q12 17 29 17z" />
<glyph unicode="\" horiz-adv-x="260" d="M159 -136q-7 -11 -14 -11t-10 21q0 166 12 420t25 433t17 185q13 13 20 13q9 0 9 -20q0 -15 -15 -199t-30 -416.5t-15 -364.5q0 -43 1 -61z" />
<glyph unicode="]" horiz-adv-x="335" d="M-40 -176h-119q-5 0 -5 4q0 7 10.5 18.5t17.5 11.5h93q4 0 8 2t5 4l2 2l589 923q2 3 2 5q0 4 -6 4h-94q-10 0 -10 6t9 14t18 8h114q13 0 13 -12q0 -4 -3 -10l-615 -963q-12 -17 -29 -17z" />
<glyph unicode="_" horiz-adv-x="476" d="M41 -30q-15 2 -16 6q0 9 16 9h43q7 0 55 0.5t99 0.5h121q6 0 8 -5q0 -19 -27 -19h-26z" />
<glyph unicode="`" horiz-adv-x="355" d="M139 365q0 11 12 11t17 -5q88 -70 94 -73q7 -4 7 -6t-5 -2q-10 0 -67.5 29.5t-57.5 45.5z" />
<glyph unicode="a" horiz-adv-x="295" d="M329 119l1 -13q-161 -107 -196 -107q-6 0 -6 6q0 9 5 28t11 33l5 14q0 2 -2 2q-5 0 -60 -40t-70 -40q-17 1 -17 30q0 83 94.5 162t227.5 79q12 0 12 -11q0 -9 -94 -115.5t-94 -128.5q0 -4 4 -4q8 0 53 26t85 52zM170 118q17 13 66 69t49 65q0 4 -8 4q-46 0 -107 -42.5 t-103.5 -96.5t-42.5 -87q0 -6 6 -6t19.5 7.5t33 21t33 23.5t33.5 25.5t21 16.5z" />
<glyph unicode="b" horiz-adv-x="209" d="M142 108q0 -8 1 -11q40 41 72.5 85.5t32.5 57.5q0 3 -3 3q-19 0 -61 -53.5t-42 -81.5zM582 657q-26 0 -185.5 -156.5t-273.5 -297.5q91 67 276 240t185 211q0 2 -2 3zM610 664q0 -47 -189 -222t-318 -264q-92 -117 -92 -156q0 -7 7 -7q39 0 109 66q-3 8 -3 20 q0 35 54.5 98t74.5 63q10 0 10 -10q0 -20 -34 -68.5t-80 -95.5q4 -5 14 -5q26 0 82 37l5 -10q-69 -46 -98 -46q-13 0 -20 7q-79 -74 -127 -74q-12 0 -12 19q0 58 81 171.5t185.5 220t205 187t136.5 80.5q4 0 5 -1q4 -2 4 -10z" />
<glyph unicode="c" horiz-adv-x="203" d="M20 -2q-20 0 -20 43q0 41 41 96.5t103 96.5t113 41q20 0 20 -16q0 -22 -34.5 -58t-53.5 -36q-11 0 -11 11q0 7 5 16t10 9q2 0 4.5 -1.5t3.5 -3.5l1 -2q56 44 56 65q0 3 -5 3q-32 0 -88 -45t-99.5 -103.5t-43.5 -92.5q0 -9 9 -9q37 0 146 68l60 39l1 -13q-25 -16 -57 -36 q-116 -72 -161 -72z" />
<glyph unicode="d" horiz-adv-x="337" d="M24 17q27 0 133 78.5t152 150.5q0 7 -12 7q-28 0 -95 -42t-124.5 -98.5t-57.5 -90.5q0 -5 4 -5zM162 -6q-12 0 -12 14q0 13 6.5 27t19.5 34.5t20 35.5l2 6l-1 1q-151 -110 -186 -110q-11 0 -11 20q0 52 37.5 100t90.5 78.5t106 48.5t89 18q201 221 314 367q23 30 52 31 q9 0 9 -8t-133 -159t-266 -308t-133 -180q0 -4 4 -4q6 0 41 17t63 34l98 62l1 -13q-46 -31 -94 -59q-89 -53 -117 -53z" />
<glyph unicode="e" horiz-adv-x="218" d="M252 257q0 3 -4 3q-27 0 -84 -47t-99 -103q50 16 118.5 72t68.5 75zM21 21q0 -13 10 -13q12 0 54 16.5t69 32.5l98 62l1 -13q-45 -30 -93 -58q-31 -19 -73 -34.5t-59 -15.5q-28 0 -28 35q0 47 34 94t79.5 77t88 49t63.5 19q23 0 23 -15q0 -37 -87.5 -90t-145.5 -70 q-34 -49 -34 -76z" />
<glyph unicode="f" horiz-adv-x="200" d="M75 91q0 4 -2 4q-14 0 -24.5 -23t-10.5 -44q0 -10 3 -15q34 62 34 78zM570 683q0 2 -3 2q-35 0 -405 -450q101 73 254.5 235.5t153.5 212.5zM-242 -303q0 -3 4 -3q50 0 130.5 98t141.5 208q-10 4 -10 24q0 31 21 66q-287 -359 -287 -393zM123 187l-64 -80q8 6 14 6 q16 0 16 -21q0 -25 -21 -73q37 18 79 44l87 56l1 -13q-118 -78 -174 -100q-53 -112 -148 -219.5t-165 -107.5q-11 0 -11 13q0 37 189 288t400 489.5t260 238.5q5 0 8 -3q1 -1 1 -5q0 -41 -56 -116t-136.5 -152.5t-154.5 -142.5t-125 -102z" />
<glyph unicode="g" horiz-adv-x="290" d="M171 118q17 13 66 69t49 65q0 4 -8 4q-71 0 -162 -83.5t-91 -142.5q0 -6 6 -6t19.5 7.5t33 21t33 23.5t33.5 25.5t21 16.5zM-215 -344q6 0 63 64.5t111 129.5l54 64q0 2 -2 2q-49 -35 -73 -54.5t-68.5 -58.5t-66 -74t-21.5 -67q0 -6 3 -6zM141 13q8 0 53.5 26t87.5 53 l42 26l1 -12q-64 -44 -120 -74l-91 -47q-79 -107 -197.5 -229.5t-141.5 -122.5q-19 0 -19 14q0 27 15.5 57.5t37 55.5t57 56t61 50t64.5 47.5t53 39.5q23 28 48.5 58t40.5 48t17 21q0 2 -2 2q-5 0 -60 -40t-70 -40q-17 1 -17 30q0 83 94.5 162t227.5 79q11 0 11 -12 q-183 -230 -193 -248z" />
<glyph unicode="h" horiz-adv-x="322" d="M318 426l-145 -169q79 53 243 220t164 199q0 5 -6 5q-4 0 -10 -3q-65 -36 -158 -147q-4 -4 -41.5 -49.5t-46.5 -55.5zM604 687q0 -47 -173.5 -219.5t-290.5 -249.5l-16 -19q-25 -23 -101 -125q-6 -10 -6 -11t1 -1q2 0 3 1q19 12 84 59t122 85t97 58q6 2 8 2q11 0 11 -14 q0 -23 -29 -61.5t-64.5 -72t-64.5 -63t-29 -36.5q0 -6 4 -6q56 18 98 43l98 62l1 -13q-45 -30 -93 -58q-31 -19 -73 -34.5t-59 -15.5q-12 0 -12 9q0 18 51 72t101.5 105.5t50.5 61.5q0 2 -3 2t-4 -1q-40 -20 -135.5 -84.5t-145.5 -102.5q-61 -47 -66 -52q-7 -8 -32 -11 q-10 0 -10 6q0 4 14 23q72 88 232 274.5t181 206.5q3 3 25.5 26t40 40.5t45 43t48 42.5t41.5 29.5t33 12.5q7 0 12 -4.5t5 -9.5z" />
<glyph unicode="i" horiz-adv-x="148" d="M247 333q-14 0 -14 17q0 14 15 28t29 14q7 0 12.5 -6t5.5 -12q0 -10 -14 -25.5t-34 -15.5zM0 24q27 40 95 118t108 118q6 8 6 11q0 4 -8 5l-23 2q-8 0 -15 -8q-68 -69 -128.5 -150.5t-60.5 -104.5q0 -16 12 -16q16 0 65 26.5t90 53.5l41 27l-1 13q-161 -106 -179 -106 q-5 0 -5 4z" />
<glyph unicode="j" horiz-adv-x="183" d="M269 333q-14 0 -14 17q0 14 15 28t29 14q7 0 12.5 -6t5.5 -12q0 -10 -14 -25.5t-34 -15.5zM-351 -385q0 -12 9 -12q16 0 265 313q-274 -197 -274 -301zM23 98l-3 12q6 4 19.5 13.5t20.5 13.5q39 27 64.5 50t48 51t25.5 31q7 8 23 8q26 0 26 -10q0 -3 -3 -6 q-1 -1 -6.5 -7.5t-18 -21.5t-28.5 -34l-146 -186q20 12 85 52l88 55l1 -13q-39 -25 -82 -51l-116 -72q-28 -35 -72.5 -89t-109.5 -129.5t-118 -127.5t-70 -52q-9 0 -14.5 7.5t-5.5 15.5q0 126 319 342q18 22 39.5 49.5t35.5 45t21 26.5q15 17 58 76l-36 -21q-24 -14 -45 -28 z" />
<glyph unicode="k" horiz-adv-x="332" d="M114 125q0 -4 12 -4q48 6 104 37t88.5 59.5t32.5 36.5q0 2 -3 2q-23 0 -81.5 -32.5t-105.5 -65.5zM544 665q0 2 -2 2q-9 0 -31 -22q-25 -21 -154 -166q-95 -107 -180 -220q82 53 224.5 201.5t142.5 204.5zM267 56l99 62l1 -12q-46 -31 -94 -59q-88 -51 -124 -51 q-27 0 -27 27q0 9 26.5 43t26.5 39l-1 2q-3 3 -38 3q-33 0 -41 -2q-12 -3 -63 -54q-10 -10 -21 -22t-19 -21t-10 -11q-9 -10 -24 -10q-20 0 -20 7q0 5 5 11q50 60 174.5 223.5t220.5 267.5q60 65 130 126t95 61q11 0 11 -12q0 -54 -145.5 -204.5t-276.5 -244.5 q-18 -25 -51 -72t-41 -58q61 52 158 111t157 66q17 0 17 -19q0 -26 -54.5 -59t-109.5 -52l-54 -20q0 -2 3 -3q23 -10 23 -26q0 -15 -27 -44t-27 -37q0 -5 8 -5q33 0 113 49z" />
<glyph unicode="l" horiz-adv-x="181" d="M574 658q-30 0 -221 -192t-290 -329q92 70 302.5 274.5t210.5 243.5q0 2 -2 3zM602 665q0 -48 -214.5 -255.5t-340.5 -295.5q-44 -63 -44 -91q0 -9 4 -9q41 0 147 66l60 39l1 -13q-25 -16 -57 -36q-116 -72 -161 -72q-12 0 -12 19q0 58 81 171.5t185.5 220t205 187 t136.5 80.5q4 0 5 -1q4 -2 4 -10z" />
<glyph unicode="m" horiz-adv-x="493" d="M23 99l-3 11l42 29q21 14 37 25.5t29 23t20.5 17t17 16.5t11.5 13.5l12 15t11 14.5q16 -4 16 -24q-20 -30 -54.5 -71t-58 -68t-23.5 -30q0 -2 2 -2q1 0 4 3q24 18 84.5 60t111 76.5t53.5 36.5q17 14 25 14q5 0 9.5 -4.5t4.5 -9.5q0 -11 -16 -36t-34 -48t-37.5 -46.5 t-20.5 -24.5q-5 -8 -5 -10q0 -1 1 -1q2 0 4 2q47 30 218 155q35 25 47 25q9 0 9 -15q0 -24 -30 -63t-66 -72t-66 -62t-30 -35q0 -1 1 -1q8 0 52.5 26.5t85.5 52.5l41 27l1 -13q-161 -107 -196 -107q-6 0 -6 6q0 37 46.5 87.5t92.5 91t46 53.5q0 2 -1 2q-2 0 -3 -1 q-9 -5 -129.5 -90t-130.5 -93q-30 -21 -59 -50q-10 -8 -26 -8q-26 0 -26 5q0 4 8 12q60 60 168 180q29 32 32 38q0 3 -2 3q-3 0 -7 -3q-48 -29 -152 -101q-24 -17 -51 -36t-44.5 -32t-32.5 -24t-16 -11q-4 -3 -12.5 -12t-16 -14t-16.5 -5q-15 4 -16 6q23 26 114 139z" />
<glyph unicode="n" horiz-adv-x="328" d="M22 98l-3 12l33 21q24 16 44 30.5t32 24t24.5 23t16.5 18.5t15.5 19.5t13.5 17.5q12 -4 12 -24q-20 -29 -54 -69.5t-56 -67t-22 -32.5q0 -2 1 -2q2 0 5 3q24 18 84.5 60t111 76.5t53.5 36.5q22 16 32 16q9 0 9 -15q0 -24 -30 -63t-66 -72t-66 -62t-30 -35q0 -1 1 -1 q8 0 52.5 26.5t85.5 52.5l41 27l1 -13q-161 -107 -196 -107q-6 0 -6 6q0 37 46.5 87.5t92.5 91t46 53.5q0 2 -2 2l-2 -1q-44 -26 -160 -107q-24 -17 -51 -36t-44.5 -32t-32.5 -24t-16 -11q-4 -3 -12.5 -12t-16 -14t-16.5 -5q-24 2 -25 3t-1 3q1 1 17 18t31.5 34t37 41 t36.5 43l-29 -17z" />
<glyph unicode="o" horiz-adv-x="232" d="M238 225v1q-20 -10 -44 -47.5t-28 -64.5q72 74 72 111zM25 16q38 0 123 80v5q0 31 30.5 76.5t55.5 58.5q-3 3 -8 3q-37 0 -122.5 -85t-85.5 -132q0 -6 7 -6zM-6 30q0 75 86.5 149.5t143.5 74.5q28 0 28 -25q0 -71 -76 -142q6 -2 12 -2q28 0 81 35l5 -10q-64 -43 -97 -43 q-13 0 -19 5q-39 -32 -82 -52t-63 -20q-19 0 -19 30z" />
<glyph unicode="p" d="M-291 -253l557 640q5 6 16 6q21 0 21 -8q0 -3 -5 -8l-227 -256q-5 -6 -5 -8t1 -2q2 0 5 3q33 28 129.5 90.5t123.5 62.5q11 0 11 -14q0 -27 -29 -67.5t-64.5 -73.5t-64.5 -60.5t-29 -31.5q0 -6 4 -6q56 18 98 43l98 62l1 -13q-45 -30 -93 -58q-31 -19 -73 -34.5 t-59 -15.5q-12 0 -12 9q0 18 50.5 72t101.5 105.5t51 61.5q0 2 -3 2q-22 0 -99.5 -49.5t-109.5 -75.5q-19 -15 -40 -33.5t-34.5 -31.5t-26 -24.5t-14.5 -13.5q-14 -14 -119 -135.5t-122 -144.5q-15 -20 -32 -20q-18 1 -18 8q0 5 11 19z" />
<glyph unicode="q" horiz-adv-x="350" d="M195 11q10 0 26 8q5 17 5 27q0 31 -8 31h-2l-36 -41v-4q0 -21 15 -21zM311 254q-56 0 -125 -45t-114 -99.5t-45 -85.5q0 -7 5 -7q15 0 102.5 62.5t122.5 96.5q12 11 28 29.5t27 31t11 13.5q0 4 -12 4zM188 -1q-17 0 -20 25q-200 -221 -287 -342q-4 -5 -4 -10t11 -5 q85 35 192.5 147t137.5 194q-19 -9 -30 -9zM384 106q-88 -59 -148 -89q-15 -63 -85 -151.5t-151.5 -152.5t-126.5 -64q-6 0 -8 1q-8 3 -8 11q0 17 45.5 82t113 148.5t104.5 128.5t57 69q5 7 5 8t-2 1q-1 0 -26.5 -17.5t-58 -39t-47.5 -29.5q-19 -10 -30 -10q-16 0 -19 22 q5 61 43 110t89.5 75.5t99 40.5t82.5 14l22 -1q15 6 28 7q9 0 9 -7q0 -8 -5 -13q-19 -24 -140 -162q13 -15 13 -44q0 -5 -2 -15q22 12 33 19l112 69z" />
<glyph unicode="r" horiz-adv-x="255" d="M338 149l8 -9q-46 -28 -67 -42q-37 -24 -52 -24q-22 0 -22 19q0 9 4.5 23.5t15.5 44t17 46.5l-3 3q-4 0 -9 -4q-101 -81 -139 -117q-21 -20 -75 -83q-1 -1 -3.5 -4t-3.5 -4t-6 -2t-12 -1q-20 0 -20 3q2 3 25.5 28.5t52 58.5t48.5 58l-29 -17q-46 -28 -67 -42l-4 11l63 40 q34 22 58.5 46t33.5 39t16 25t13 10t19 -7q0 -10 -16 -35t-32 -45l-16 -19q0 -2 1 -2q3 0 7 4q4 3 33.5 27.5t51.5 42t50.5 33.5t45.5 16q9 0 9 -6q0 -8 -49 -34q-11 -6 -33.5 -57.5t-22.5 -75.5q0 -5 6 -5q13 0 41 18z" />
<glyph unicode="s" horiz-adv-x="258" d="M35 106q-5 -3 -12 -8l-3 12q52 33 104.5 65t79.5 47l27 16q15 12 33 27.5t27 22.5t14 7q4 0 4 -4q0 -5 -8 -15.5t-22.5 -24.5t-17.5 -18q-15 -15 -49.5 -95.5t-37.5 -86.5q0 -4 3 -4q2 0 3 1l112 71l1 -13q-12 -7 -40 -25t-39.5 -25t-33.5 -20.5t-34 -19.5t-28 -13.5 t-27 -10t-21 -2.5q-32 0 -49 16t-17 38q0 20 14.5 35t38.5 15q16 0 16 -16q0 -9 -6.5 -17t-17.5 -8q-8 0 -9.5 9t-5.5 9q-7 0 -11.5 -7t-4.5 -17q0 -16 12 -28.5t36 -12.5q20 0 39.5 16t27.5 29q6 11 29 66.5t48 87.5l2 4q0 1 -2 1q-4 0 -48 -26t-86 -52z" />
<glyph unicode="t" horiz-adv-x="145" d="M124 70q-104 -70 -143 -70q-11 0 -11 7q0 28 72 127t166 210q-96 2 -124 2q-16 0 -16 11q0 4 9 4l143 -3q122 143 135 143q27 0 27 -9q0 -4 -8 -14q-35 -43 -103 -121l168 -3q13 0 13 -4q0 -3 -4 -4q-6 -3 -99 -3h-90q-65 -74 -95 -107.5t-78 -89.5t-68.5 -85t-20.5 -39 q0 -4 5 -4q10 0 53 23.5t65 39.5l60 37l1 -11q-25 -17 -57 -37z" />
<glyph unicode="u" horiz-adv-x="348" d="M101 145l-39 -23l-39 -23l-3 11l34 21q48 31 75.5 53t36.5 32.5t26 34.5q7 10 16 10q4 0 8 -4t6 -7l2 -4q0 -18 -90.5 -118t-90.5 -109q0 -2 3 -2q9 0 73 41t106 75q78 64 125 114q25 23 42 23q21 -2 21 -6l-1 -2q-43 -40 -128 -135t-85 -112q0 -4 4 -4q9 0 139 82l41 26 l1 -12q-12 -8 -31 -20q-149 -94 -174 -94q-9 0 -9 9q0 11 24.5 58t35.5 60l-16 -9q-151 -108 -181 -108q-12 0 -12 12q0 15 11 36.5t20.5 34.5t28.5 35.5t20 23.5z" />
<glyph unicode="v" horiz-adv-x="232" d="M260 243q-9 0 -28.5 -30.5t-34.5 -64.5q66 73 66 92q0 3 -3 3zM13 15q54 0 158 106q14 44 46.5 92.5t50.5 48.5q9 0 9 -9q0 -35 -90 -129q-6 -16 -6 -28q0 -11 8 -11q28 0 81 35l5 -9q-65 -43 -94 -43q-16 0 -16 21q0 9 1 14q-106 -106 -168 -106q-15 0 -15 18 q0 24 38.5 86t77.5 112.5t45 50.5h7t9 -0.5l8 -1t6 -2t2 -4.5t-8 -13q-1 -1 -21.5 -28t-40.5 -54.5t-43 -59.5t-37.5 -55.5t-14.5 -29.5q0 -1 2 -1z" />
<glyph unicode="w" horiz-adv-x="403" d="M498 292q-8 0 -40 -38t-61 -82q104 97 104 117q0 3 -3 3zM-25 21q0 24 45.5 86t92 112.5t52.5 50.5h7t9 -0.5l8 -1t6 -2t2 -4.5t-8 -13q-4 -5 -52 -58t-90.5 -104t-42.5 -61q0 -1 2 -1q15 0 85 49t106 80q17 14 94 95q4 4 8.5 9.5t7 8.5t9 6t15.5 4q28 -3 28 -12 q0 -5 -9 -16q-39 -39 -118 -127t-79 -108q0 -4 5 -4q54 0 199 126q30 55 80.5 115t68.5 60q11 0 11 -9q0 -18 -40.5 -64.5t-100.5 -99.5q-21 -34 -21 -47q0 -9 10 -9q27 0 76 38l5 -9q-63 -47 -91 -47q-17 0 -17 19q0 10 8 29q-62 -51 -117 -84.5t-84 -34.5q-20 0 -20 18 q0 17 28.5 64t28.5 49t-1 2q-3 0 -10 -6q-19 -16 -83.5 -62t-83.5 -52q-9 -3 -14 -3q-15 0 -15 18z" />
<glyph unicode="x" horiz-adv-x="311" d="M191 238q4 7 21 7q19 0 19 -19q0 -16 -28 -84q32 23 71 53q100 70 116 70q4 0 4 -5q0 -4 -8.5 -9t-40.5 -25t-71 -48l-79 -56q-27 -71 -33 -104q0 -4 4 -4q8 0 53 26t85 52l41 26l1 -12q-161 -107 -196 -107q-11 0 -11 29q0 24 10 61q-20 -14 -74.5 -47.5t-66.5 -39.5 q-29 -16 -39 -16q-5 0 -7 5q0 4 7.5 9t14.5 8l8 3q46 20 131 76l32 21q7 23 17 49.5t16.5 42.5t6.5 19q0 1 -2 1q-16 -16 -35.5 -32t-41 -31t-35 -23.5t-34.5 -21.5t-22 -14l-3 12q54 34 67 43q36 26 61.5 47t33.5 30z" />
<glyph unicode="y" horiz-adv-x="343" d="M23 99l-3 11l38 26q71 49 92.5 67.5t41.5 47.5q7 10 16 10q4 0 8 -4t6 -7l2 -4q0 -18 -90.5 -118t-90.5 -109q0 -2 3 -2q9 0 73 41t106 75q26 21 49 45t42 46l18 23q25 23 42 23q21 -2 21 -6l-1 -2q-33 -38 -112 -134t-90 -115q8 0 54 26t88 53l41 26l1 -12 q-64 -44 -120 -74l-91 -47q-79 -107 -197.5 -229.5t-141.5 -122.5q-19 0 -19 14q0 23 11 49t34 53.5t44.5 50.5t57 52t56.5 45.5t57 44t46 34.5q41 50 60.5 72.5t35 40.5t37.5 44q1 1 -12.5 -8t-21.5 -14q-151 -108 -181 -108q-12 0 -12 12q0 15 12 37.5t23 37.5t31 38.5 t21 24.5zM-162 -344q6 0 67.5 70t120.5 140l58 71q0 2 -2 2q-247 -180 -247 -277q0 -6 3 -6z" />
<glyph unicode="z" horiz-adv-x="331" d="M-218 -336q0 -4 5 -4q41 0 165 110t193 201q-135 -76 -249 -176.5t-114 -130.5zM182 39q0 11 -13 11q-23 0 -62.5 -14.5t-60.5 -27.5q-12 -6 -18 -6q-5 0 -5 3q0 6 15 15q10 6 46.5 30t89.5 61.5t92.5 76.5t39.5 62q0 3 -4 3q-12 0 -36 -10t-56 -29t-59.5 -36t-63.5 -40 t-51 -32q-5 -3 -12 -8l-3 12q52 33 104.5 65t79.5 47l27 16q9 4 26.5 14.5t29 15.5t22.5 5q30 0 30 -29q0 -34 -29 -67.5t-64.5 -54t-64.5 -36.5t-29 -20t5 -4q48 0 48 -37v-6l162 99l1 -11q-65 -42 -120 -75q-26 -14 -46 -28q-16 -60 -107.5 -148.5t-188 -151t-133.5 -62.5 q-13 0 -13 12q0 10 11.5 30.5t41 53.5t72.5 70.5t115 86t159 96.5q22 31 22 48z" />
<glyph unicode="{" horiz-adv-x="339" d="M655 726q9 0 9 -3q0 -2 -4.5 -5.5t-9.5 -5.5l-4 -2q-47 0 -86.5 -19t-68.5 -50.5t-56 -70t-56 -79.5t-61 -77.5t-79 -65.5t-103 -41q72 0 72 -54q0 -45 -63.5 -159.5t-63.5 -142.5q0 -36 24 -36q20 0 53 18q6 3 8 3t2 -1q0 -4 -9 -10q-58 -31 -90 -31q-39 0 -39 44 q0 31 41 94t82 126.5t41 95.5q0 41 -65 41q-10 0 -46 -4q-4 0 -4 4q0 6 7.5 14.5t15.5 8.5q64 6 111 31.5t75 62t51 79t47.5 84t56 75.5t85.5 55t127 21z" />
<glyph unicode="|" horiz-adv-x="274" d="M61 -107q46 112 111.5 323.5t102 342.5t53.5 198q6 24 14 27q7 0 12.5 -8t5.5 -13q0 -27 -103.5 -362.5t-169.5 -507.5q-8 -16 -14 -16q-4 0 -7 4t-4 8z" />
<glyph unicode="}" horiz-adv-x="438" d="M-131 -128q-9 0 -9 3q0 2 4.5 5.5t9.5 5.5l4 2q47 0 86.5 19t68.5 50.5t56 70t56 79.5t61 77.5t79 65.5t103 41q-72 0 -72 54q0 45 63.5 159.5t63.5 142.5q0 36 -24 36q-20 0 -53 -18q-6 -3 -8 -3t-2 1q0 4 9 10q58 31 90 31q39 0 39 -44q0 -31 -41 -94t-82 -126.5 t-41 -95.5q0 -41 65 -41q10 0 46 4q4 0 4 -4q0 -6 -7.5 -14.5t-15.5 -8.5q-64 -6 -111 -31.5t-75 -62t-51 -79t-47.5 -84t-56 -75.5t-85.5 -55t-127 -21z" />
<glyph unicode="~" horiz-adv-x="370" d="M93 120q-1 -1 -5 -1q-7 0 -7 4q0 3 4 7q23 23 62 23q18 0 62 -11t74 -11q45 0 60 17q1 2 4 2q5 0 5 -9q0 -2 -1 -3q-24 -29 -73 -29q-28 0 -70.5 13t-66.5 13q-32 0 -48 -15z" />
<glyph unicode="&#xa1;" horiz-adv-x="308" d="M240 204v-4q-109 -135 -233 -295.5t-155 -204.5q-14 -20 -22 -20q-4 0 -5 3q-5 7 -5 22q0 24 122 177.5t273 326.5q11 11 17 11q8 0 8 -16zM309 327q14 0 14 -16q0 -13 -14.5 -27t-28.5 -14q-7 0 -12 6t-5 12q0 10 13.5 24.5t32.5 14.5z" />
<glyph unicode="&#xa2;" horiz-adv-x="232" d="M0 41q0 63 86.5 146t164.5 87q20 27 34.5 50.5t15.5 24.5q11 16 14 16q7 0 7 -18q0 -7 -53 -75q8 -5 8 -13q0 -22 -34.5 -58t-53.5 -36q-11 0 -11 11q0 7 5 16t10 9q2 0 4.5 -1.5t3.5 -3.5l1 -2q56 44 56 65q0 3 -5 3q-32 0 -88 -45t-99.5 -103.5t-43.5 -92.5q0 -9 9 -9 q37 0 146 68l60 39l1 -13q-25 -16 -57 -36q-110 -69 -156 -72q-18 -24 -31 -45.5t-16 -25.5q-11 -16 -14 -16q-7 0 -7 18q0 7 51 74q-8 9 -8 38z" />
<glyph unicode="&#xa3;" horiz-adv-x="624" d="M196 42q-47 36 -64 91q-64 -90 -64 -219q0 -20 6 -22q20 0 122 150zM452 222q20 0 20 -5q0 -4 -12 -8.5t-24 -4.5q-3 0 -97 2l-108 -151q52 -31 112 -31q58 0 120 10.5t95 21.5l33 10h3q5 0 5 -4q0 -5 -6 -7q-162 -51 -269 -51q-61 0 -111 27q-126 -168 -158 -168 q-14 0 -14 40q0 63 26 130.5t51.5 104.5t32.5 37q3 0 3 -4l-1 -9q12 -59 60 -95l91 139h-84q-9 0 -9 6q0 17 21 17q53 0 86 -2l20 31h-91q-9 0 -9 7q0 8 7 12.5t14 4.5q10 0 42 -1t52 -1q104 154 178 243.5t115 89.5q20 0 20 -33q0 -40 -25 -105.5t-61 -117.5t-62 -52 q-17 0 -17 28q0 39 26.5 101.5t42.5 62.5q6 0 6 -8q0 -2 -1 -4q-20 -26 -36.5 -70.5t-16.5 -71.5q0 -19 10 -19q27 0 72.5 102t45.5 153q0 20 -11 20q-17 0 -77.5 -81t-171.5 -240l86 -3q20 0 20 -5q0 -4 -11 -8.5t-22 -4.5q-46 0 -87 1l-23 -32z" />
<glyph unicode="&#xa4;" horiz-adv-x="262" d="M146 158q26 0 51 32t25 59q0 26 -26 26t-51 -32t-25 -59q0 -26 26 -26zM140 146q-13 0 -18 2l-35 -42q-7 -7 -11 -7q-5 0 -5 10v3l37 42q-14 10 -14 31q0 32 28 62l-35 41v3q0 10 5 10q4 0 11 -7l30 -37q32 29 73 29q6 0 16 -2l35 42q7 7 11 7q5 0 5 -10v-3l-37 -42 q16 -10 16 -31q0 -40 -40 -74l31 -35v-3q0 -10 -5 -10q-4 0 -11 7q-15 19 -27 32q-28 -18 -60 -18z" />
<glyph unicode="&#xa5;" horiz-adv-x="407" d="M314 178q20 0 20 -5q0 -4 -11 -8.5t-22 -4.5q-41 0 -77 1l-19 -22l87 -3q20 0 20 -5q0 -4 -12 -8.5t-24 -4.5q-4 0 -88 2l-9 -11l-89 -125q-14 -16 -43 -16q-5 0 -5 1q54 63 116 151h-98q-9 0 -9 6q0 17 21 17q25 0 101 -2l14 20h-102q-9 0 -9 7q0 8 7 12.5t14 4.5 q45 0 104 -3l24 38q2 3 59 86.5t96.5 154t47.5 116.5q-2 22 -25 22q-41 0 -96.5 -41t-100.5 -95t-76.5 -107t-31.5 -76q0 -14 11 -14q38 0 87 36t95 89q4 4 6 4q3 0 3 -3q0 -5 -4 -10q-27 -39 -90 -83t-104 -44q-16 0 -16 24q0 31 25 84.5t66 107.5t102.5 93.5t124.5 39.5 q39 0 39 -48q0 -39 -47.5 -120.5t-108.5 -167.5t-62 -87h2q22 23 57.5 59t113 108.5t147.5 129t147 101t125 44.5q12 0 12 -4t-18.5 -17t-36.5 -24t-19 -11q-2 0 -2 2q0 1 5 6t5 7q0 1 -3 1q-53 0 -215.5 -127t-301.5 -275z" />
<glyph unicode="&#xa6;" horiz-adv-x="274" d="M224 395l119 365q6 24 14 27q7 0 12.5 -8t5.5 -13l-125 -371q-8 -16 -14 -16q-4 0 -7 4t-4 8zM61 -107l128 394q6 24 14 27q7 0 12.5 -8t5.5 -13l-134 -400q-8 -16 -14 -16q-4 0 -7 4t-4 8z" />
<glyph unicode="&#xa7;" horiz-adv-x="358" d="M261 126v-15q64 34 64 123q0 19 -7.5 41.5t-23.5 56t-21 45.5q-36 -17 -49.5 -30.5t-13.5 -42.5q0 -12 13 -36.5t25.5 -61.5t12.5 -80zM177 297q0 32 22 52t69 40q-13 33 -13 57q0 40 54.5 66t113.5 26q72 0 72 -37q0 -32 -52 -81.5t-98 -53.5q-14 0 -14 13q0 8 6.5 17.5 t13.5 10.5q6 0 6 -7q0 -1 -2 -4l-2 -2q34 4 83 43.5t49 60.5q0 26 -53 26q-49 0 -97.5 -22t-48.5 -53t40 -102t40 -99q0 -116 -108 -153q-7 -36 -31.5 -63.5t-55 -42t-59 -22t-51.5 -7.5q-62 0 -62 44q0 40 43.5 85.5t86.5 45.5q12 0 12 -10q0 -11 -12.5 -23t-25.5 -12 q-4 0 -4 4q0 1 9.5 6.5t9.5 7.5t-8 2q-28 0 -58 -37t-30 -68q0 -35 43 -35q64 0 109.5 42t45.5 100q0 56 -21.5 114.5t-21.5 70.5z" />
<glyph unicode="&#xa8;" horiz-adv-x="365" d="M215 333q-14 0 -14 17q0 14 15 28t29 14q7 0 12.5 -6t5.5 -12q0 -10 -14 -25.5t-34 -15.5zM135 333q-14 0 -14 17q0 14 15 28t29 14q7 0 12.5 -6t5.5 -12q0 -10 -14 -25.5t-34 -15.5z" />
<glyph unicode="&#xa9;" horiz-adv-x="500" d="M149 38q-25 0 -25 24q0 49 71.5 123t142.5 74q16 0 16 -12q0 -18 -27.5 -47t-42.5 -29q-9 0 -9 9q0 5 4 12.5t8 7.5l7 -5q45 35 45 52q0 2 -4 2q-40 0 -109.5 -70.5t-69.5 -113.5q0 -7 8 -7q39 0 110 45l48 32l1 -11q-126 -86 -174 -86zM131 -13q59 0 111 28.5t84 70.5 t50.5 86.5t18.5 80.5q0 55 -39 55q-59 0 -111 -28.5t-84 -70.5t-50.5 -86.5t-18.5 -80.5q0 -55 39 -55zM120 -28q-31 0 -47.5 21.5t-16.5 57.5q0 40 20.5 86t57.5 88t98 69.5t133 27.5q34 0 51.5 -20.5t17.5 -54.5q0 -40 -22.5 -86.5t-61 -89t-100 -71t-130.5 -28.5z" />
<glyph unicode="&#xaa;" horiz-adv-x="301" d="M324 367l1 -9q-113 -75 -137 -75q-4 0 -4 4q0 7 3.5 20t6.5 23l4 10q0 1 -1 1q-3 0 -41.5 -28t-49.5 -28q-12 1 -12 21q0 59 66 114t160 55q8 0 8 -8q0 -6 -66 -80.5t-66 -90.5q0 -2 3 -2q6 0 37 18t60 36zM213 366q12 10 46.5 49t34.5 45q0 3 -6 3q-49 0 -113 -60.5 t-64 -97.5q0 -4 4 -4q18 0 98 65z" />
<glyph unicode="&#xab;" horiz-adv-x="470" d="M238 118l128 -62q1 -3 1 -6q0 -8 -8 -8q-20 10 -52 25q-65 31 -79 39t-14 14q0 14 24 17l149 22q4 0 4 -2l-3 -6l-143 -21q-11 -2 -11 -6q0 -2 4 -6zM128 130l150 -72q5 -3 5 -7q0 -9 -14 -9l-133 64q-3 1 -7.5 3.5t-6.5 3.5t-5.5 2.5t-5.5 2.5t-4 2.5t-3.5 3t-2.5 3 t-1.5 3t-0.5 3.5q0 15 28 20l176 26q6 0 6 -4q0 -3 -5 -5l-168 -25q-14 -3 -14 -9q0 -3 6 -6z" />
<glyph unicode="&#xac;" horiz-adv-x="400" d="M382 257l-59 -101q-2 -8 -11 -8q-4 0 -4 6q0 3 2 9q12 24 16 30l23 43q-31 -2 -120 -2l-108 1q-12 0 -13 5q0 8 13 10h5q5 0 13 0.5t16 0.5q79 3 124 6l93 6q8 0 10 -6z" />
<glyph unicode="&#xae;" horiz-adv-x="500" d="M238 176l-1 -12q-1 -13 -1 -18h1q29 0 78 43.5t49 66.5q0 11 -16 11q-36 0 -91 -40t-95.5 -90t-40.5 -79q0 -1 1 -1q12 0 60.5 64t55.5 84q0 2 2 2q3 0 3 -7q0 -9 -1 -11l-7 -14q2 2 3 2v-1zM131 -13q99 0 174 77q-26 -15 -45 -15q-34 0 -34 58q0 29 6 56q0 6 1 10 q-20 -37 -61.5 -79.5t-52.5 -42.5q-15 0 -15 15q0 26 38 75.5t98.5 92t111.5 42.5q34 0 34 -21q0 -30 -54 -73.5t-94 -43.5h-2q3 -82 28 -82q17 0 54 22q36 41 56.5 89.5t20.5 86.5q0 54 -39 54q-59 0 -111 -28.5t-84 -70.5t-50.5 -86.5t-18.5 -80.5q0 -55 39 -55zM120 -28 q-31 0 -47.5 21.5t-16.5 57.5q0 40 20.5 86t57.5 88t98 69.5t133 27.5q34 0 51.5 -20.5t17.5 -54.5q0 -40 -22.5 -86.5t-61 -89t-100 -71t-130.5 -28.5z" />
<glyph unicode="&#xaf;" horiz-adv-x="295" d="M176 321q-12 0 -12 5q0 8 12 10h5q5 0 12 0.5t15 0.5q79 4 116 6l87 6q9 0 9 -6q0 -9 -6.5 -14.5t-13.5 -5.5q-43 -3 -123 -3z" />
<glyph unicode="&#xb0;" horiz-adv-x="148" d="M139 331q-13 0 -21 10.5t-8 24.5q0 29 31.5 58t60.5 29q15 0 25.5 -11.5t10.5 -25.5q0 -21 -28.5 -53t-70.5 -32zM146 344q25 0 45.5 26t20.5 50q0 21 -19 21t-38.5 -30t-19.5 -52q0 -15 11 -15z" />
<glyph unicode="&#xb1;" horiz-adv-x="400" d="M86 107q-12 0 -13 5q0 8 13 10h5q5 0 13 0.5t16 0.5q79 3 124 6l93 6q9 0 10 -6q0 -9 -7 -14.5t-15 -5.5q-47 -3 -131 -3zM208 158q-2 -8 -11 -8q-4 0 -4 6q0 3 2 9q12 24 16 30q32 60 34 64h-3l-108 1q-12 0 -13 5q0 8 13 10l5 1h13h16q2 0 31 1t56 3q31 62 54 109 q4 6 8 6q12 -5 12 -17q0 -8 -3 -12q-25 -47 -46 -85q1 0 6 0.5t31 2t68 4.5q9 0 10 -6q0 -9 -7 -14.5t-15 -5.5q-39 -3 -106 -3z" />
<glyph unicode="&#xb2;" horiz-adv-x="299" d="M32 161q0 -2 3 -2q51 20 119 71q-34 0 -78 -28.5t-44 -40.5zM208 244l-8 -6q7 -3 37 -24.5t51 -21.5q19 0 40 7t32 13l12 7l2 1h2q4 0 4 -3q-1 -2 -2 -3q-49 -38 -108 -38q-21 0 -38.5 8t-33.5 20t-24 16q-43 -28 -87 -49.5t-57 -21.5q-16 0 -16 9q0 21 57.5 56.5 t106.5 35.5h2q78 62 130.5 128t52.5 114q0 10 -3.5 13.5t-13.5 3.5q-43 0 -104 -65.5t-61 -88.5q0 -4 3 -4q21 0 51 19.5t50 39.5l20 20q3 2 6 2q4 0 4 -3q0 -1 -1 -4q-7 -9 -24 -25t-50.5 -37t-59.5 -21q-20 0 -20 20q0 41 59.5 98t126.5 57q16 0 27.5 -11.5t11.5 -34.5 q0 -40 -51 -106.5t-126 -120.5z" />
<glyph unicode="&#xb3;" horiz-adv-x="237" d="M229 373q15 5 29 5q32 0 32 -26q0 -30 -37 -76t-98 -83t-118 -37q-21 0 -21 12q0 20 45.5 54.5t71.5 34.5q8 0 8 -7t-7.5 -14.5t-17.5 -7.5q-3 0 -3 2t6 4.5t6 4.5t-5 2q-9 0 -49.5 -32.5t-40.5 -43.5q0 -4 5 -4q43 0 100 42t95 90t38 69q0 9 -9 9q-12 0 -24 -2t-22 -6.5 t-16 -7.5t-13 -7l-8 -5q-1 -1 -3 -1q-4 0 -4 5q0 2 6.5 6.5t12.5 8.5l7 4q41 25 82.5 69t41.5 65q0 11 -16 11q-33 0 -74.5 -27.5t-69.5 -56.5q-2 -2 -8 -2t-6 4q92 92 163 92q33 0 33 -25q0 -24 -30.5 -59t-81.5 -64z" />
<glyph unicode="&#xb4;" horiz-adv-x="355" d="M266 362q0 -14 -69 -37t-79 -23q-4 0 -4 2q0 4 7 6q7 3 22.5 11.5t40.5 23t49 26.5q13 5 21 5q12 0 12 -14z" />
<glyph unicode="&#xb5;" horiz-adv-x="348" d="M192 251q9 10 22 10q9 0 21 -4q-34 -47 -83.5 -104.5t-79 -91.5t-29.5 -42q0 -2 3 -2q9 0 73 41t106 75q78 64 125 114q25 23 42 23q21 -2 21 -6l-1 -2q-43 -40 -128 -135t-85 -112q0 -4 4 -4q9 0 139 82l41 26l1 -12q-12 -8 -31 -20q-149 -94 -174 -94q-9 0 -9 9 q0 11 24.5 58t35.5 60l-16 -9q-151 -108 -181 -108q-7 0 -10 4q-139 -161 -161 -190q-15 -20 -32 -20q-18 1 -18 8q0 5 11 19q116 136 198.5 229t112 126.5t58.5 71.5z" />
<glyph unicode="&#xb6;" horiz-adv-x="380" d="M434 417q4 6 4 8q0 5 -6 5q-10 0 -24 -14q-256 -256 -462 -539q-4 -5 -4 -10q20 5 42 12q74 105 173 223t187.5 216t89.5 99zM6 -114q32 9 37 9t5 -4q0 -2 -5 -6q-105 -38 -109 -38q-12 0 -12 9q0 23 81.5 128.5t162.5 203.5t81 104q0 1 -2 1q-3 0 -28.5 -24t-63 -48 t-70.5 -24q-16 0 -19 22q5 61 43 110t89.5 75.5t99 40.5t82.5 14q80 0 80 -32q0 -12 -13 -28q-315 -339 -439 -513z" />
<glyph unicode="&#xb7;" horiz-adv-x="295" d="M292 315q-14 0 -14 16q0 14 14.5 27.5t28.5 13.5q7 0 12 -6t5 -12q0 -9 -13.5 -24t-32.5 -15z" />
<glyph unicode="&#xb8;" horiz-adv-x="228" d="M131 4l11 -4l-15 -24q51 -1 51 -26q0 -21 -30.5 -42t-61.5 -21q-20 0 -34 12q-2 2 -2 4q0 4 4 4t6 -2q12 -11 31 -11q23 0 43 15t20 32q0 26 -44 27z" />
<glyph unicode="&#xb9;" horiz-adv-x="215" d="M113 384q-6 0 -6 7q0 2 1 2q35 0 99.5 49t74.5 66q4 4 13 7q24 0 24 -6q0 -3 -4 -11q-14 -23 -61 -104t-85 -143t-67 -102q-9 -9 -11 -9q-12 1 -12 3q0 6 9 15q9 12 91 156.5t95 164.5q-19 -17 -43.5 -36t-60.5 -39t-57 -20z" />
<glyph unicode="&#xba;" horiz-adv-x="185" d="M256 455q0 9 -8 9q-26 0 -86.5 -59.5t-60.5 -92.5q0 -4 5 -4q28 0 89 58t61 89zM85 318q0 53 60.5 104.5t100.5 51.5q19 0 19 -17q0 -59 -66 -109.5t-101 -50.5q-13 0 -13 21z" />
<glyph unicode="&#xbb;" horiz-adv-x="470" d="M244 118l-128 62q-1 3 -1 6q0 8 8 8q20 -10 52 -25q65 -31 79 -39t14 -14q0 -14 -24 -17l-149 -22q-4 0 -4 2l3 6l143 21q11 2 11 6q0 2 -4 6zM354 106l-150 72q-5 3 -5 7q0 9 14 9l133 -64q3 -1 7.5 -3.5t6.5 -3.5t5.5 -2.5t5.5 -2.5t4 -2.5t3.5 -3t2.5 -3t1.5 -3 t0.5 -3.5q0 -15 -28 -20l-176 -26q-6 0 -6 4q0 3 5 5l168 25q14 3 14 9q0 3 -6 6z" />
<glyph unicode="&#xbc;" horiz-adv-x="545" d="M240 94q-3 0 -3 2q0 7 17 20t36 18q-38 -40 -50 -40zM113 384q21 0 57 20t60.5 39t43.5 36q-13 -20 -95 -164.5t-91 -156.5q-9 -9 -9 -15l12 -3q2 0 11 9q29 40 67 102t85 143t61 104q4 8 4 11q0 6 -24 6q-9 -3 -13 -7q-10 -17 -74.5 -66t-99.5 -49q-1 0 -1 -2q0 -7 6 -7 zM31 -34v4q81 89 167.5 215t154 238t70.5 117q14 20 22 20q3 0 5 -3q5 -7 5 -22q0 -9 -60.5 -106t-159 -236t-179.5 -232q-11 -11 -17 -11q-8 0 -8 16zM528 332q-10 -16 -53 -93t-65 -115q-1 0 -2 1q-41 21 -82 22q52 52 104 119.5t52 81.5q0 7 -14 7q-5 0 -16 -9t-11 -13h3 q3 0 4 1q-8 -19 -55.5 -80.5t-90.5 -107.5q-58 -12 -71 -42q-6 -17 9 -18q13 0 34 12.5t41 36.5q26 0 84 -29q-42 -75 -58 -99q-9 -9 -9 -15l7 -4q4 0 11 9q6 9 20 28.5t26 37t22 33.5q26 -14 45 -14q27 0 48.5 19.5t21.5 35.5q0 10 -11 10q-12 0 -26 -12.5t-17 -21.5 q-1 -1 -1 -3q0 -3 4 -3l6 7q6 8 15 16t16 8q3 0 3 -3q0 -10 -15.5 -24.5t-36.5 -14.5q-11 0 -39 17q19 32 60 103t61 103q0 1 1.5 5t1.5 6q0 9 -14 9q-7 0 -13 -7z" />
<glyph unicode="&#xbd;" horiz-adv-x="557" d="M185 -2q0 -2 3 -2q51 20 119 71q-34 0 -78 -28.5t-44 -40.5zM113 384q21 0 57 20t60.5 39t43.5 36q-13 -20 -95 -164.5t-91 -156.5q-9 -9 -9 -15l12 -3q2 0 11 9q29 40 67 102t85 143t61 104q4 8 4 11q0 6 -24 6q-9 -3 -13 -7q-10 -17 -74.5 -66t-99.5 -49q-1 0 -1 -2 q0 -7 6 -7zM31 -34v4q81 89 167.5 215t154 238t70.5 117q14 20 22 20q3 0 5 -3q5 -7 5 -22q0 -9 -60.5 -106t-159 -236t-179.5 -232q-11 -11 -17 -11q-8 0 -8 16zM361 81l-8 -6q7 -3 37 -24.5t51 -21.5q19 0 40 6.5t33 13.5l11 7q1 0 2 0.5t2 0.5q4 0 4 -3q-1 -2 -2 -3 q-49 -38 -108 -38q-21 0 -38.5 8t-33.5 20t-24 16q-43 -28 -87 -49.5t-57 -21.5q-16 0 -16 9q0 21 57.5 56.5t106.5 35.5h2q78 62 130.5 128t52.5 114q0 10 -3.5 13.5t-13.5 3.5q-43 0 -104 -65.5t-61 -88.5q0 -4 3 -4q21 0 51 20t50 40l20 19q3 2 6 2q4 0 4 -3v-2l-1 -2 q-7 -9 -24 -25t-50.5 -37t-59.5 -21q-20 0 -20 20q0 41 59.5 98t126.5 57q16 0 27.5 -11.5t11.5 -34.5q0 -40 -51 -106.5t-126 -120.5z" />
<glyph unicode="&#xbe;" horiz-adv-x="603" d="M286 94q-3 0 -3 2q0 7 17 20t36 18q-38 -40 -50 -40zM229 373q51 29 81.5 64t30.5 59q0 25 -33 25q-71 0 -163 -92q0 -4 6 -4t8 2q28 29 69.5 56.5t74.5 27.5q16 0 16 -11q0 -21 -41.5 -65t-82.5 -69q-26 -15 -26 -19q0 -5 4 -5q2 0 3 1l8 5q7 4 13 7t16 7.5t22 6.5t24 2 q9 0 9 -9q0 -21 -38 -69t-95 -90t-100 -42q-5 0 -5 4q0 11 40.5 43.5t49.5 32.5q5 0 5 -2t-6 -4.5t-6 -4.5t3 -2q10 0 17.5 7.5t7.5 14.5t-8 7q-26 0 -71.5 -34.5t-45.5 -54.5q0 -12 21 -12q57 0 118 37t98 83t37 76q0 26 -32 26q-14 0 -29 -5zM77 -34v4q81 89 167.5 215 t154 238t70.5 117q14 20 22 20q3 0 5 -3q5 -7 5 -22q0 -9 -60.5 -106t-159 -236t-179.5 -232q-11 -11 -17 -11q-8 0 -8 16zM574 332q-10 -16 -53 -93t-65 -115q-1 0 -2 1q-41 21 -82 22q52 52 104 119.5t52 81.5q0 7 -14 7q-5 0 -16 -9t-11 -13h3q3 0 4 1 q-8 -19 -55.5 -80.5t-90.5 -107.5q-35 -7 -54 -22t-19 -28q0 -10 11 -10q13 0 34 12.5t41 36.5q26 0 84 -29q-42 -75 -58 -99q-9 -9 -9 -15l7 -4q4 0 11 9q6 9 20 28.5t26 37t22 33.5q26 -14 45 -14q27 0 48.5 19.5t21.5 35.5q0 10 -11 10q-12 0 -26 -12.5t-17 -21.5 q-1 -1 -1 -3q0 -3 4 -3l6 7q6 8 15 16t16 8q3 0 3 -3q0 -10 -15.5 -24.5t-36.5 -14.5q-11 0 -39 17q19 32 60 103t61 103q0 1 1.5 5t1.5 6q0 9 -14 9q-7 0 -13 -7z" />
<glyph unicode="&#xbf;" horiz-adv-x="376" d="M278 213q10 0 22.5 -15t12.5 -42q-5 -49 -45.5 -88.5t-95 -68t-108 -59t-90.5 -76t-37 -103.5q0 -86 77 -86q76 0 161 71.5t85 147.5q0 39 -26 39q-34 0 -94.5 -55t-72.5 -83q-3 -7 -8 -7q-7 0 -7 7q0 1 2 7q22 38 83.5 90.5t99.5 52.5q37 0 37 -57q0 -96 -86 -162.5 t-179 -66.5q-56 0 -91 29t-35 87q0 45 29 82.5t72.5 61.5t94.5 50.5t95.5 50t75.5 60t34 79.5q0 40 -14 46q-5 3 -5 4q0 4 13 4zM360 325q14 0 14 -16q0 -13 -14.5 -27t-28.5 -14q-7 0 -12 6t-5 12q0 10 13.5 24.5t32.5 14.5z" />
<glyph unicode="&#xc0;" horiz-adv-x="496" d="M587 832q0 11 12 11t17 -5q88 -70 94 -73q7 -4 7 -6t-5 -2q-10 0 -67.5 29.5t-57.5 45.5zM531 106q34 21 72 44q3 2 3 3q0 3 -8 3t-15 -4l-67 -42q-23 -16 -64.5 -44.5t-61 -41.5t-45 -29.5t-39 -23t-21.5 -6.5t-8 8q0 29 96.5 156.5t193.5 247.5t97 130q0 11 -13 11 q-15 0 -40 -31q-40 -51 -92 -110q-104 -120 -263.5 -257.5t-213.5 -137.5q-31 0 -31 40q0 38 28.5 105.5t75.5 145t111.5 158t133.5 145.5t145.5 106.5t141.5 41.5q25 0 25 -19q0 -30 -54.5 -95.5t-116 -118.5t-82.5 -53q-6 0 -6 4t12.5 17.5t12.5 16.5q0 6 -4 6 q-8 0 -30.5 -27t-22.5 -41q0 -13 13 -13q33 0 106 58t133.5 131.5t60.5 112.5q0 30 -40 30q-104 0 -209 -54.5t-185.5 -138t-144.5 -179t-98 -182.5t-34 -144q0 -68 49 -68q44 0 140 70.5t170 140.5l74 70q2 0 2 -2q0 -4 -39.5 -58.5t-79 -119.5t-39.5 -94q0 -18 17 -18 q9 0 22.5 4.5t32 14.5t35.5 20t41.5 26.5t40.5 27.5t43 29.5t39 27.5z" />
<glyph unicode="&#xc1;" horiz-adv-x="496" d="M748 819q0 -14 -69 -37t-79 -23q-4 0 -4 2q0 4 7 6q7 3 22.5 11.5t40.5 23t49 26.5q13 5 21 5q12 0 12 -14zM531 106q-12 -9 -39 -27.5t-43 -29.5t-40.5 -27.5t-41.5 -26.5t-35.5 -20t-32 -14.5t-22.5 -4.5q-17 0 -17 18q0 29 39.5 94t79 119.5t39.5 58.5q0 2 -2 2 q-12 -11 -31.5 -30t-74.5 -67.5t-101.5 -85.5t-98 -67.5t-78.5 -30.5q-49 0 -49 68q0 57 34 144t98 182.5t144.5 179t185.5 138t209 54.5q40 0 40 -30q0 -39 -60.5 -112.5t-133.5 -131.5t-106 -58q-13 0 -13 13q0 14 22.5 41t30.5 27q4 0 4 -6q0 -3 -12.5 -16.5t-12.5 -17.5 t6 -4q21 0 82.5 53t116 118.5t54.5 95.5q0 19 -25 19q-65 0 -141.5 -41.5t-145.5 -106.5t-133.5 -145.5t-111.5 -158t-75.5 -145t-28.5 -105.5q0 -40 31 -40q54 0 213.5 137.5t263.5 257.5q52 59 92 110q25 31 40 31q13 0 13 -11q0 -10 -97 -130t-193.5 -247.5t-96.5 -156.5 q0 -8 8 -8t21.5 6.5t39 23t45 29.5t61 41.5t64.5 44.5l67 42q7 4 15 4t8 -3q0 -1 -3 -3z" />
<glyph unicode="&#xc2;" horiz-adv-x="496" d="M727 760l1 -2q0 -3 -6 -3q-10 0 -21 18t-17 38l-32 -13q-31 -14 -65.5 -28t-41.5 -14q-4 0 -6 1.5t-2 2.5v2q0 3 24 15q9 4 40.5 22.5t58.5 33.5t33 15q8 0 10 -9q2 -10 4.5 -25t3.5 -20.5t5 -14.5t11 -19zM531 106q-12 -9 -39 -27.5t-43 -29.5t-40.5 -27.5t-41.5 -26.5 t-35.5 -20t-32 -14.5t-22.5 -4.5q-17 0 -17 18q0 29 39.5 94t79 119.5t39.5 58.5q0 2 -2 2q-12 -11 -31.5 -30t-74.5 -67.5t-101.5 -85.5t-98 -67.5t-78.5 -30.5q-49 0 -49 68q0 57 34 144t98 182.5t144.5 179t185.5 138t209 54.5q40 0 40 -30q0 -39 -60.5 -112.5 t-133.5 -131.5t-106 -58q-13 0 -13 13q0 14 22.5 41t30.5 27q4 0 4 -6q0 -3 -12.5 -16.5t-12.5 -17.5t6 -4q21 0 82.5 53t116 118.5t54.5 95.5q0 19 -25 19q-65 0 -141.5 -41.5t-145.5 -106.5t-133.5 -145.5t-111.5 -158t-75.5 -145t-28.5 -105.5q0 -40 31 -40 q54 0 213.5 137.5t263.5 257.5q52 59 92 110q25 31 40 31q13 0 13 -11q0 -10 -97 -130t-193.5 -247.5t-96.5 -156.5q0 -8 8 -8t21.5 6.5t39 23t45 29.5t61 41.5t64.5 44.5l67 42q7 4 15 4t8 -3q0 -1 -3 -3z" />
<glyph unicode="&#xc3;" horiz-adv-x="496" d="M579 771q-1 -1 -5 -1q-7 0 -7 4q0 3 4 7q22 22 45 22q14 0 38 -12.5t35 -12.5q17 0 35 21q1 2 4 2q5 0 5 -9q0 -2 -1 -3q-26 -31 -58 -31q-16 0 -41 11t-34 11q-11 0 -20 -9zM531 106q-12 -9 -39 -27.5t-43 -29.5t-40.5 -27.5t-41.5 -26.5t-35.5 -20t-32 -14.5 t-22.5 -4.5q-17 0 -17 18q0 29 39.5 94t79 119.5t39.5 58.5q0 2 -2 2q-12 -11 -31.5 -30t-74.5 -67.5t-101.5 -85.5t-98 -67.5t-78.5 -30.5q-49 0 -49 68q0 57 34 144t98 182.5t144.5 179t185.5 138t209 54.5q40 0 40 -30q0 -39 -60.5 -112.5t-133.5 -131.5t-106 -58 q-13 0 -13 13q0 14 22.5 41t30.5 27q4 0 4 -6q0 -3 -12.5 -16.5t-12.5 -17.5t6 -4q21 0 82.5 53t116 118.5t54.5 95.5q0 19 -25 19q-65 0 -141.5 -41.5t-145.5 -106.5t-133.5 -145.5t-111.5 -158t-75.5 -145t-28.5 -105.5q0 -40 31 -40q54 0 213.5 137.5t263.5 257.5 q52 59 92 110q25 31 40 31q13 0 13 -11q0 -10 -97 -130t-193.5 -247.5t-96.5 -156.5q0 -8 8 -8t21.5 6.5t39 23t45 29.5t61 41.5t64.5 44.5l67 42q7 4 15 4t8 -3q0 -1 -3 -3z" />
<glyph unicode="&#xc4;" horiz-adv-x="496" d="M582 767q-14 0 -14 17q0 14 15 28t29 14q7 0 12.5 -6t5.5 -12q0 -10 -14 -25.5t-34 -15.5zM662 767q-14 0 -14 17q0 14 15 28t29 14q7 0 12.5 -6t5.5 -12q0 -10 -14 -25.5t-34 -15.5zM531 106q34 21 72 44q3 2 3 3q0 3 -8 3t-15 -4l-67 -42q-23 -16 -64.5 -44.5 t-61 -41.5t-45 -29.5t-39 -23t-21.5 -6.5t-8 8q0 29 96.5 156.5t193.5 247.5t97 130q0 11 -13 11q-15 0 -40 -31q-40 -51 -92 -110q-104 -120 -263.5 -257.5t-213.5 -137.5q-31 0 -31 40q0 38 28.5 105.5t75.5 145t111.5 158t133.5 145.5t145.5 106.5t141.5 41.5 q25 0 25 -19q0 -30 -54.5 -95.5t-116 -118.5t-82.5 -53q-6 0 -6 4t12.5 17.5t12.5 16.5q0 6 -4 6q-8 0 -30.5 -27t-22.5 -41q0 -13 13 -13q33 0 106 58t133.5 131.5t60.5 112.5q0 30 -40 30q-104 0 -209 -54.5t-185.5 -138t-144.5 -179t-98 -182.5t-34 -144q0 -68 49 -68 q44 0 140 70.5t170 140.5l74 70q2 0 2 -2q0 -4 -39.5 -58.5t-79 -119.5t-39.5 -94q0 -18 17 -18q9 0 22.5 4.5t32 14.5t35.5 20t41.5 26.5t40.5 27.5t43 29.5t39 27.5z" />
<glyph unicode="&#xc5;" horiz-adv-x="496" d="M647 760q21 0 38 21.5t17 41.5q0 18 -16 18t-32 -25t-16 -44q0 -12 9 -12zM641 749q-11 0 -17.5 9t-6.5 20q0 24 26 48.5t50 24.5q13 0 21.5 -9.5t8.5 -21.5q0 -18 -24 -44.5t-58 -26.5zM531 106q-12 -9 -39 -27.5t-43 -29.5t-40.5 -27.5t-41.5 -26.5t-35.5 -20 t-32 -14.5t-22.5 -4.5q-17 0 -17 18q0 29 39.5 94t79 119.5t39.5 58.5q0 2 -2 2q-12 -11 -31.5 -30t-74.5 -67.5t-101.5 -85.5t-98 -67.5t-78.5 -30.5q-49 0 -49 68q0 57 34 144t98 182.5t144.5 179t185.5 138t209 54.5q40 0 40 -30q0 -39 -60.5 -112.5t-133.5 -131.5 t-106 -58q-13 0 -13 13q0 14 22.5 41t30.5 27q4 0 4 -6q0 -3 -12.5 -16.5t-12.5 -17.5t6 -4q21 0 82.5 53t116 118.5t54.5 95.5q0 19 -25 19q-65 0 -141.5 -41.5t-145.5 -106.5t-133.5 -145.5t-111.5 -158t-75.5 -145t-28.5 -105.5q0 -40 31 -40q54 0 213.5 137.5 t263.5 257.5q52 59 92 110q25 31 40 31q13 0 13 -11q0 -10 -97 -130t-193.5 -247.5t-96.5 -156.5q0 -8 8 -8t21.5 6.5t39 23t45 29.5t61 41.5t64.5 44.5l67 42q7 4 15 4t8 -3q0 -1 -3 -3z" />
<glyph unicode="&#xc6;" horiz-adv-x="588" d="M42 -18q40 0 137.5 76.5t200.5 179.5q72 72 147 109q-36 -9 -61 -9q-71 0 -71 55q0 60 81 151.5t195 154.5q-1 13 -5.5 19t-18.5 6q-65 0 -141.5 -41.5t-145.5 -106.5t-133.5 -145.5t-111.5 -158t-75.5 -145t-28.5 -105.5q0 -40 31 -40zM654 733q35 0 40 -22 q120 60 231 60q44 0 44 -25q0 -43 -100.5 -121t-151.5 -78q-14 0 -14 15q0 16 21 33.5t28 17.5q4 0 4 -5q0 -4 -9.5 -10t-9.5 -11q0 -4 4 -4q28 0 119 71t91 98q0 10 -15 10q-83 0 -177.5 -46.5t-165.5 -109t-118 -126.5t-47 -100q0 -31 36 -31q24 0 50.5 6.5t48.5 15.5 t46 22t38.5 22.5t30 20t17.5 11.5q5 4 8 4t3 -11q0 -4 -26 -21.5t-52 -32.5l-25 -16q-104 -62 -206.5 -182.5t-102.5 -181.5q0 -35 41 -35q64 0 271 139l67 42q7 4 15 4t8 -3q0 -1 -3 -3l-72 -44q-9 -6 -56 -37.5t-67 -44t-56.5 -33t-62 -29t-45.5 -8.5q-67 0 -67 67 q0 58 47 132q-211 -186 -282 -186q-49 0 -49 68q0 57 34 144t98 182.5t144.5 179t185.5 138t209 54.5z" />
<glyph unicode="&#xc7;" horiz-adv-x="293" d="M22 48q0 -62 45 -62q61 0 245 124l67 42q7 4 15 4t8 -3q0 -1 -3 -3l-72 -44q-12 -8 -56 -37.5t-65 -42.5t-55 -32.5t-59.5 -28t-45.5 -8.5h-5l-9 -15q51 -1 51 -26q0 -21 -30.5 -42t-61.5 -21q-21 0 -34 12q-2 2 -2 4q0 4 4 4t6 -2q12 -11 31 -11q23 0 43 15t20 32 q0 26 -44 27l14 25q-47 11 -47 94q0 63 38 151t106.5 179t154 170t192 129.5t207.5 50.5q55 0 55 -42q0 -50 -67 -136.5t-155.5 -154.5t-141.5 -68q-24 0 -24 14q0 10 21.5 32.5t34.5 22.5q4 0 4 -4q0 -3 -12.5 -14.5t-12.5 -16.5q0 -2 2 -2q30 0 112 62t154 141.5t72 120.5 q0 33 -50 33q-86 0 -182.5 -51.5t-177.5 -132t-147.5 -171.5t-104.5 -177t-38 -141z" />
<glyph unicode="&#xc8;" d="M580 870q0 11 12 11t17 -5q88 -70 94 -73q7 -4 7 -6t-5 -2q-10 0 -67.5 29.5t-57.5 45.5zM-6 21q0 -67 67 -67q20 0 45.5 8.5t62 29t56.5 33t67 44t56 37.5q34 21 72 44q3 2 3 3q0 3 -8 3t-15 -4l-67 -42q-207 -139 -271 -139q-41 0 -41 35q0 61 102.5 181.5t206.5 182.5 q103 62 103 70v3q0 8 -3 8t-8 -4q-2 -1 -17.5 -11.5t-30 -20t-38.5 -22.5t-46 -22t-48.5 -15.5t-50.5 -6.5q-36 0 -36 31q0 36 47 100t118 126.5t165.5 109t177.5 46.5q15 0 15 -10q0 -27 -91 -98t-119 -71q-4 0 -4 4q0 5 9.5 11t9.5 10q0 5 -4 5q-7 0 -28 -17.5t-21 -33.5 q0 -15 14 -15q51 0 151.5 78t100.5 121q0 25 -44 25q-94 0 -193.5 -42.5t-171.5 -103t-118.5 -124.5t-46.5 -108q0 -55 71 -55q25 0 61 9q-111 -55 -185.5 -154t-74.5 -172z" />
<glyph unicode="&#xc9;" d="M716 864q0 -14 -69 -37t-79 -23q-4 0 -4 2q0 4 7 6q7 3 22.5 11.5t40.5 23t49 26.5q13 5 21 5q12 0 12 -14zM-6 21q0 73 74.5 172t185.5 154q-36 -9 -61 -9q-71 0 -71 55q0 44 46.5 108t118.5 124.5t171.5 103t193.5 42.5q44 0 44 -25q0 -43 -100.5 -121t-151.5 -78 q-14 0 -14 15q0 16 21 33.5t28 17.5q4 0 4 -5q0 -4 -9.5 -10t-9.5 -11q0 -4 4 -4q28 0 119 71t91 98q0 10 -15 10q-83 0 -177.5 -46.5t-165.5 -109t-118 -126.5t-47 -100q0 -31 36 -31q24 0 50.5 6.5t48.5 15.5t46 22t38.5 22.5t30 20t17.5 11.5q5 4 8 4t3 -8v-3 q0 -4 -25.5 -21.5t-51.5 -32.5l-26 -16q-104 -62 -206.5 -182.5t-102.5 -181.5q0 -35 41 -35q64 0 271 139l67 42q7 4 15 4t8 -3q0 -1 -3 -3l-72 -44q-9 -6 -56 -37.5t-67 -44t-56.5 -33t-62 -29t-45.5 -8.5q-67 0 -67 67z" />
<glyph unicode="&#xca;" d="M725 790l1 -2q0 -3 -6 -3q-10 0 -21 18t-17 38l-32 -13q-31 -14 -65.5 -28t-41.5 -14q-4 0 -6 1.5t-2 2.5v2q0 3 24 15q9 4 40.5 22.5t58.5 33.5t33 15q8 0 10 -9q2 -10 4.5 -25t3.5 -20.5t5 -14.5t11 -19zM-6 21q0 73 74.5 172t185.5 154q-36 -9 -61 -9q-71 0 -71 55 q0 44 46.5 108t118.5 124.5t171.5 103t193.5 42.5q44 0 44 -25q0 -43 -100.5 -121t-151.5 -78q-14 0 -14 15q0 16 21 33.5t28 17.5q4 0 4 -5q0 -4 -9.5 -10t-9.5 -11q0 -4 4 -4q28 0 119 71t91 98q0 10 -15 10q-83 0 -177.5 -46.5t-165.5 -109t-118 -126.5t-47 -100 q0 -31 36 -31q24 0 50.5 6.5t48.5 15.5t46 22t38.5 22.5t30 20t17.5 11.5q5 4 8 4t3 -8v-3q0 -4 -25.5 -21.5t-51.5 -32.5l-26 -16q-104 -62 -206.5 -182.5t-102.5 -181.5q0 -35 41 -35q64 0 271 139l67 42q7 4 15 4t8 -3q0 -1 -3 -3l-72 -44q-9 -6 -56 -37.5t-67 -44 t-56.5 -33t-62 -29t-45.5 -8.5q-67 0 -67 67z" />
<glyph unicode="&#xcb;" d="M550 796q-14 0 -14 17q0 14 15 28t29 14q7 0 12.5 -6t5.5 -12q0 -10 -14 -25.5t-34 -15.5zM630 796q-14 0 -14 17q0 14 15 28t29 14q7 0 12.5 -6t5.5 -12q0 -10 -14 -25.5t-34 -15.5zM-6 21q0 -67 67 -67q20 0 45.5 8.5t62 29t56.5 33t67 44t56 37.5q34 21 72 44q3 2 3 3 q0 3 -8 3t-15 -4l-67 -42q-207 -139 -271 -139q-41 0 -41 35q0 61 102.5 181.5t206.5 182.5q103 62 103 70v3q0 8 -3 8t-8 -4q-2 -1 -17.5 -11.5t-30 -20t-38.5 -22.5t-46 -22t-48.5 -15.5t-50.5 -6.5q-36 0 -36 31q0 36 47 100t118 126.5t165.5 109t177.5 46.5q15 0 15 -10 q0 -27 -91 -98t-119 -71q-4 0 -4 4q0 5 9.5 11t9.5 10q0 5 -4 5q-7 0 -28 -17.5t-21 -33.5q0 -15 14 -15q51 0 151.5 78t100.5 121q0 25 -44 25q-94 0 -193.5 -42.5t-171.5 -103t-118.5 -124.5t-46.5 -108q0 -55 71 -55q25 0 61 9q-111 -55 -185.5 -154t-74.5 -172z" />
<glyph unicode="&#xcc;" horiz-adv-x="430" d="M604 852q0 11 12 11t17 -5q88 -70 94 -73q7 -4 7 -6t-5 -2q-10 0 -67.5 29.5t-57.5 45.5zM529 461q-8 -9 -35 -33.5t-72.5 -61t-100 -63t-96.5 -26.5q-51 0 -51 51q0 47 43.5 119.5t110.5 142t161 119.5t182 50q49 0 49 -62q-11 -80 -60 -170.5t-115.5 -172 t-160.5 -172.5t-179 -162t-188 -150q-10 -7 -14 -7l-2 1v2q0 4 10 12q92 76 205 186.5t224 233.5t185.5 239t74.5 182q0 29 -33 29q-68 0 -154 -52.5t-154 -123t-115.5 -142.5t-47.5 -112q0 -33 34 -33q49 0 130.5 49.5t158.5 130.5q5 5 9 5t4 -4q0 -2 -3 -5z" />
<glyph unicode="&#xcd;" horiz-adv-x="430" d="M745 833q0 -14 -69 -37t-79 -23q-4 0 -4 2q0 4 7 6q7 3 22.5 11.5t40.5 23t49 26.5q13 5 21 5q12 0 12 -14zM529 461q-8 -9 -35 -33.5t-72.5 -61t-100 -63t-96.5 -26.5q-51 0 -51 51q0 47 43.5 119.5t110.5 142t161 119.5t182 50q49 0 49 -62q-11 -80 -60 -170.5 t-115.5 -172t-160.5 -172.5t-179 -162t-188 -150q-10 -7 -14 -7l-2 1v2q0 4 10 12q92 76 205 186.5t224 233.5t185.5 239t74.5 182q0 29 -33 29q-68 0 -154 -52.5t-154 -123t-115.5 -142.5t-47.5 -112q0 -33 34 -33q49 0 130.5 49.5t158.5 130.5q5 5 9 5t4 -4q0 -2 -3 -5z " />
<glyph unicode="&#xce;" horiz-adv-x="430" d="M757 781l1 -2q0 -3 -6 -3q-10 0 -21 18t-17 38l-32 -14q-31 -14 -65.5 -27.5t-41.5 -13.5q-4 0 -6 1.5t-2 3.5v1q0 3 24 15q9 4 40.5 22.5t58.5 33.5t33 15q8 0 10 -9q2 -10 4.5 -25t3.5 -20.5t5 -14.5t11 -19zM529 461q-8 -9 -35 -33.5t-72.5 -61t-100 -63t-96.5 -26.5 q-51 0 -51 51q0 47 43.5 119.5t110.5 142t161 119.5t182 50q49 0 49 -62q-11 -80 -60 -170.5t-115.5 -172t-160.5 -172.5t-179 -162t-188 -150q-10 -7 -14 -7l-2 1v2q0 4 10 12q92 76 205 186.5t224 233.5t185.5 239t74.5 182q0 29 -33 29q-68 0 -154 -52.5t-154 -123 t-115.5 -142.5t-47.5 -112q0 -33 34 -33q49 0 130.5 49.5t158.5 130.5q5 5 9 5t4 -4q0 -2 -3 -5z" />
<glyph unicode="&#xcf;" horiz-adv-x="430" d="M696 791q-14 0 -14 17q0 14 15 28t29 14q7 0 12.5 -6t5.5 -12q0 -10 -14 -25.5t-34 -15.5zM616 791q-14 0 -14 17q0 14 15 28t29 14q7 0 12.5 -6t5.5 -12q0 -10 -14 -25.5t-34 -15.5zM529 461q-8 -9 -35 -33.5t-72.5 -61t-100 -63t-96.5 -26.5q-51 0 -51 51 q0 47 43.5 119.5t110.5 142t161 119.5t182 50q49 0 49 -62q-11 -80 -60 -170.5t-115.5 -172t-160.5 -172.5t-179 -162t-188 -150q-10 -7 -14 -7l-2 1v2q0 4 10 12q92 76 205 186.5t224 233.5t185.5 239t74.5 182q0 29 -33 29q-68 0 -154 -52.5t-154 -123t-115.5 -142.5 t-47.5 -112q0 -33 34 -33q49 0 130.5 49.5t158.5 130.5q5 5 9 5t4 -4q0 -2 -3 -5z" />
<glyph unicode="&#xd0;" horiz-adv-x="706" d="M64 113l-4 12q-3 0 -11 -32t-15.5 -80t-7.5 -81q0 -54 21 -54q3 0 107 124q-36 18 -60 48t-30 63zM289 101q-14 0 -20 1q-17 -18 -45.5 -50.5t-38.5 -44.5q33 -12 63 -12q98 0 220 69.5t220 166.5t165.5 206t67.5 184q0 110 -142 110q-87 0 -175.5 -38.5t-156.5 -99.5 t-122.5 -132.5t-83.5 -140.5t-29 -120q0 -59 39 -78l146 184h-98q-9 0 -9 7q0 9 7.5 14t15.5 5q47 0 102 -3q182 233 206 267q14 20 22 20q3 0 5 -3q5 -7 5 -22q0 -30 -194 -264l65 -3q31 0 31 -9t-36 -11q-1 0 -77 2q-82 -99 -163 -192h13q39 0 86 20t86.5 48t73 56.5 t52.5 48.5l20 20q9 10 16 10q5 0 5 -4q0 -6 -8 -14l-21.5 -21.5t-54 -47.5t-79 -60t-89 -47.5t-90.5 -21.5zM181 217q0 71 45 160.5t121.5 171.5t194.5 138t247 56q78 0 116 -35t38 -97q0 -65 -38.5 -148.5t-108.5 -167t-156 -154t-193 -114.5t-208 -44q-35 0 -65 11 q-74 -82 -113 -122q-20 -20 -35 -20q-27 0 -27 61q0 76 33 183.5t58 107.5q7 0 7 -9q0 -8 -3 -20t-3 -22q0 -41 20 -78t55 -58l74 92q-59 25 -59 108z" />
<glyph unicode="&#xd1;" horiz-adv-x="506" d="M684 820q-1 -1 -5 -1q-7 0 -7 4q0 3 4 7q22 22 45 22q15 0 38 -12.5t35 -12.5q17 0 35 21q1 2 4 2q5 0 5 -9q0 -2 -1 -3q-26 -31 -58 -31q-16 0 -41 11t-34 11q-11 0 -20 -9zM41 255q-41 0 -41 45q0 97 84.5 212t208 194t227.5 79q25 0 34.5 -11t9.5 -36 q0 -58 -76.5 -184.5t-159.5 -234t-158 -193.5q-3 -3 -3 -8q0 -2 2 -2t6 4q8 7 136 125t138 128q32 32 256.5 234.5t233.5 202.5q11 0 11 -11q0 -36 -114 -185.5t-251.5 -311.5t-251.5 -313.5t-114 -190.5q0 -4 3 -4q6 0 23 11t19 11q8 0 8 -5q0 -2 -4 -5q-41 -27 -54 -27 q-11 0 -11 13q0 53 74.5 172t180.5 252.5t212.5 260t181 215.5t74.5 98q0 1 -3 1q-1 0 -63 -56t-153 -139.5t-180 -165t-160 -146.5t-77 -71q-246 -231 -247 -232q-10 -10 -27 -10q-10 0 -10 4q0 5 12 20q32 43 135.5 171t183.5 229.5t148 206.5t68 144q0 16 -7.5 22.5 t-25.5 6.5q-62 0 -135.5 -39t-137.5 -97.5t-118 -124t-85.5 -124.5t-31.5 -93q0 -33 31 -33q30 0 69.5 20t74.5 48t65.5 56t48.5 48l18 20q5 6 9 6q3 0 3 -4q0 -5 -5 -10q-7 -8 -18.5 -21t-46.5 -46t-68 -58.5t-75.5 -46.5t-76.5 -21z" />
<glyph unicode="&#xd2;" horiz-adv-x="441" d="M598 840q0 11 12 11t17 -5q88 -70 94 -73q7 -4 7 -6t-5 -2q-10 0 -67.5 29.5t-57.5 45.5zM719 648q-12 -93 -75.5 -209.5t-154 -219.5t-209.5 -174t-229 -71q-68 0 -68 91q0 62 32 148t94 177.5t142 169.5t188.5 128.5t220.5 50.5q32 0 32 -29q0 -55 -83 -141t-157 -87 q-18 4 -18 12q0 7 12.5 22t17.5 15q6 0 6 -5q0 -2 -4 -6t-4 -8q0 -2 4 -2q27 0 78.5 40t92.5 89t41 73q0 15 -18 15q-106 0 -209 -54t-178.5 -136t-134.5 -176.5t-89 -178.5t-30 -138q0 -60 37 -60q59 0 155.5 56.5t194 143t180.5 202.5t111 222q12 48 15 48q7 0 7 -8z" />
<glyph unicode="&#xd3;" horiz-adv-x="441" d="M753 827q0 -14 -69 -37t-79 -23q-4 0 -4 2q0 4 7 6q7 3 22.5 11.5t40.5 23t49 26.5q13 5 21 5q12 0 12 -14zM719 648q-12 -93 -75.5 -209.5t-154 -219.5t-209.5 -174t-229 -71q-68 0 -68 91q0 62 32 148t94 177.5t142 169.5t188.5 128.5t220.5 50.5q32 0 32 -29 q0 -55 -83 -141t-157 -87q-18 4 -18 12q0 7 12.5 22t17.5 15q6 0 6 -5q0 -2 -4 -6t-4 -8q0 -2 4 -2q27 0 78.5 40t92.5 89t41 73q0 15 -18 15q-106 0 -209 -54t-178.5 -136t-134.5 -176.5t-89 -178.5t-30 -138q0 -60 37 -60q59 0 155.5 56.5t194 143t180.5 202.5t111 222 q12 48 15 48q7 0 7 -8z" />
<glyph unicode="&#xd4;" horiz-adv-x="441" d="M731 758l1 -2q0 -3 -6 -3q-10 0 -21 18t-17 38l-32 -13q-31 -14 -65.5 -28t-41.5 -14q-4 0 -6 1.5t-2 2.5v2q0 3 24 15q9 4 40.5 22.5t58.5 33.5t33 15q8 0 10 -9q2 -10 4.5 -25t3.5 -20.5t5 -14.5t11 -19zM719 648q-12 -93 -75.5 -209.5t-154 -219.5t-209.5 -174 t-229 -71q-68 0 -68 91q0 62 32 148t94 177.5t142 169.5t188.5 128.5t220.5 50.5q32 0 32 -29q0 -55 -83 -141t-157 -87q-18 4 -18 12q0 7 12.5 22t17.5 15q6 0 6 -5q0 -2 -4 -6t-4 -8q0 -2 4 -2q27 0 78.5 40t92.5 89t41 73q0 15 -18 15q-106 0 -209 -54t-178.5 -136 t-134.5 -176.5t-89 -178.5t-30 -138q0 -60 37 -60q59 0 155.5 56.5t194 143t180.5 202.5t111 222q12 48 15 48q7 0 7 -8z" />
<glyph unicode="&#xd5;" horiz-adv-x="441" d="M589 785q-1 -1 -5 -1q-7 0 -7 4q0 3 4 7q22 22 45 22q14 0 38 -12.5t35 -12.5q17 0 35 21q1 2 4 2q5 0 5 -9q0 -2 -1 -3q-26 -31 -58 -31q-16 0 -41 11t-34 11q-11 0 -20 -9zM719 648q-12 -93 -75.5 -209.5t-154 -219.5t-209.5 -174t-229 -71q-68 0 -68 91q0 62 32 148 t94 177.5t142 169.5t188.5 128.5t220.5 50.5q32 0 32 -29q0 -55 -83 -141t-157 -87q-18 4 -18 12q0 7 12.5 22t17.5 15q6 0 6 -5q0 -2 -4 -6t-4 -8q0 -2 4 -2q27 0 78.5 40t92.5 89t41 73q0 15 -18 15q-106 0 -209 -54t-178.5 -136t-134.5 -176.5t-89 -178.5t-30 -138 q0 -60 37 -60q59 0 155.5 56.5t194 143t180.5 202.5t111 222q12 48 15 48q7 0 7 -8z" />
<glyph unicode="&#xd6;" horiz-adv-x="441" d="M692 780q-14 0 -14 17q0 14 15 28t29 14q7 0 12.5 -6t5.5 -12q0 -10 -14 -25.5t-34 -15.5zM612 780q-14 0 -14 17q0 14 15 28t29 14q7 0 12.5 -6t5.5 -12q0 -10 -14 -25.5t-34 -15.5zM719 648q-12 -93 -75.5 -209.5t-154 -219.5t-209.5 -174t-229 -71q-68 0 -68 91 q0 62 32 148t94 177.5t142 169.5t188.5 128.5t220.5 50.5q32 0 32 -29q0 -55 -83 -141t-157 -87q-18 4 -18 12q0 7 12.5 22t17.5 15q6 0 6 -5q0 -2 -4 -6t-4 -8q0 -2 4 -2q27 0 78.5 40t92.5 89t41 73q0 15 -18 15q-106 0 -209 -54t-178.5 -136t-134.5 -176.5t-89 -178.5 t-30 -138q0 -60 37 -60q59 0 155.5 56.5t194 143t180.5 202.5t111 222q12 48 15 48q7 0 7 -8z" />
<glyph unicode="&#xd7;" horiz-adv-x="381" d="M308 173l-77 70q-103 -63 -120 -74q-7 -4 -12 -4q-9 0 -9 8q0 4 2 8l125 75l-59 55q-9 8 -9 15t10 10q18 -23 73 -70l112 70q13 8 20 8q8 0 8 -9l-1 -7l-123 -75q57 -48 70 -64q2 -2 2 -5q0 -11 -12 -11z" />
<glyph unicode="&#xd8;" horiz-adv-x="441" d="M532 541q51 36 98.5 91t47.5 80q0 11 -10 14q-26 -36 -136 -185zM452 482q-18 4 -18 12q0 7 12.5 22t17.5 15q6 0 6 -5q0 -2 -4 -6t-4 -8q0 -2 4 -2q5 0 7 1q133 183 156 215q-102 -8 -200 -65t-170 -138t-127.5 -172.5t-84 -172.5t-28.5 -134q0 -60 37 -60q11 0 17 1 q145 176 379 497zM719 648q-12 -88 -70 -198.5t-141.5 -210t-194 -173.5t-216.5 -88q-45 -55 -68 -82q-11 -11 -17 -11q-8 0 -8 16v4q3 3 25 28.5t35 41.5q-8 -1 -13 -1q-68 0 -68 91q0 50 22.5 118t62 141.5t100 145.5t130.5 130.5t159 96t181 41.5l48 67q14 20 22 20 q10 0 10 -25q0 -4 -42 -64q16 -6 16 -26q0 -46 -64.5 -121t-133.5 -99q-232 -310 -384 -496q93 28 215 121.5t230 230t142 262.5q12 48 15 48q7 0 7 -8z" />
<glyph unicode="&#xd9;" horiz-adv-x="693" d="M680 820q0 11 12 11t17 -5q88 -70 94 -73q7 -4 7 -6t-5 -2q-10 0 -67.5 29.5t-57.5 45.5zM419 -56q-9 0 -9 10q0 16 20 51.5t53 80.5t63 83.5t64 79.5t41 51q1 1 85.5 105.5t152.5 190.5t68 92q0 4 -10 7.5t-19 3.5q-13 0 -26 -19q-5 -5 -33 -38t-75 -85.5t-98 -103.5 q-11 -10 -29.5 -28t-73 -69t-105.5 -97.5t-117 -103.5t-117.5 -98t-96.5 -69t-64 -28q-5 0 -5 5q0 25 49 87.5t118.5 142t139 166t118.5 179.5t49 164q0 53 -63 53q-66 0 -140.5 -37t-136.5 -95t-113.5 -123.5t-81 -126.5t-29.5 -101q0 -51 49 -51q40 0 110 48t120 96l50 48 q4 4 4 6q0 3 -3 3q-5 0 -11 -6q-8 -8 -21 -20.5t-50 -45t-70 -57t-71 -45t-62 -20.5q-19 0 -19 23q0 30 30 89t80.5 127t110.5 130.5t128 104t123 42.5q18 -1 27.5 -3t17.5 -10t8 -22q0 -50 -49 -131.5t-119 -167.5t-140 -171t-119 -161t-49 -117q0 -16 15 -16 q38 0 139 76.5t200 167.5t181 167.5t87 76.5q2 0 -27 -38.5t-74 -98.5t-89.5 -124t-76.5 -125t-32 -93q0 -22 16 -24q20 0 49.5 11t67.5 33.5t66 40.5t73 48.5t60 40.5q34 21 72 44q3 2 3 3q0 3 -8 3t-15 -4l-67 -42q-247 -166 -294 -166z" />
<glyph unicode="&#xda;" horiz-adv-x="693" d="M858 786q0 -14 -69 -37t-79 -23q-4 0 -4 2q0 4 7 6q7 3 22.5 11.5t40.5 23t49 26.5q13 5 21 5q12 0 12 -14zM419 -56q47 0 294 166l67 42q7 4 15 4t8 -3q0 -1 -3 -3l-72 -44q-15 -10 -60 -40.5t-73 -48.5t-66 -40.5t-67.5 -33.5t-49.5 -11q-16 2 -16 24q0 32 32 93 t76.5 125t89.5 124t74 98.5t27 38.5q-5 0 -87 -76.5t-181 -167.5t-200 -167.5t-139 -76.5q-15 0 -15 16q0 41 49 117t119 161t140 171t119 167.5t49 131.5q0 14 -8 22t-17.5 10t-27.5 3q-55 -1 -123 -42.5t-128 -104t-110.5 -130.5t-80.5 -127t-30 -89q0 -23 19 -23 q38 0 106.5 47t118.5 94l49 47q6 6 11 6q3 0 3 -3q0 -2 -4 -6l-21 -21t-51 -46t-71.5 -58t-72.5 -46t-64 -21q-49 0 -49 51q0 40 29.5 101t81 126.5t113.5 123.5t136.5 95t140.5 37q63 0 63 -53q0 -71 -49 -164t-118.5 -179.5t-139 -166t-118.5 -142t-49 -87.5q0 -5 5 -5 q42 0 193 123.5t280 246.5l130 123q51 51 98 103.5t75 85.5t33 38q13 19 26 19q9 0 19 -3.5t10 -7.5q0 -6 -68 -92t-152.5 -190.5t-85.5 -105.5q-7 -10 -41 -51t-64 -79.5t-63 -83.5t-53 -80.5t-20 -51.5q0 -10 9 -10z" />
<glyph unicode="&#xdb;" horiz-adv-x="693" d="M860 735l1 -2q0 -3 -6 -3q-10 0 -21 18t-17 38l-31 -14q-32 -14 -66.5 -27.5t-41.5 -13.5q-4 0 -6 1.5t-2 3.5v1q0 3 24 15q9 4 40.5 22.5t58.5 33.5t33 15q8 0 10 -9q2 -10 4.5 -25t3.5 -20.5t5 -14.5t11 -19zM419 -56q47 0 294 166l67 42q7 4 15 4t8 -3q0 -1 -3 -3 l-72 -44q-15 -10 -60 -40.5t-73 -48.5t-66 -40.5t-67.5 -33.5t-49.5 -11q-16 2 -16 24q0 32 32 93t76.5 125t89.5 124t74 98.5t27 38.5q-5 0 -87 -76.5t-181 -167.5t-200 -167.5t-139 -76.5q-15 0 -15 16q0 41 49 117t119 161t140 171t119 167.5t49 131.5q0 14 -8 22 t-17.5 10t-27.5 3q-55 -1 -123 -42.5t-128 -104t-110.5 -130.5t-80.5 -127t-30 -89q0 -23 19 -23q38 0 106.5 47t118.5 94l49 47q6 6 11 6q3 0 3 -3q0 -2 -4 -6l-21 -21t-51 -46t-71.5 -58t-72.5 -46t-64 -21q-49 0 -49 51q0 40 29.5 101t81 126.5t113.5 123.5t136.5 95 t140.5 37q63 0 63 -53q0 -71 -49 -164t-118.5 -179.5t-139 -166t-118.5 -142t-49 -87.5q0 -5 5 -5q42 0 193 123.5t280 246.5l130 123q51 51 98 103.5t75 85.5t33 38q13 19 26 19q9 0 19 -3.5t10 -7.5q0 -6 -68 -92t-152.5 -190.5t-85.5 -105.5q-7 -10 -41 -51t-64 -79.5 t-63 -83.5t-53 -80.5t-20 -51.5q0 -10 9 -10z" />
<glyph unicode="&#xdc;" horiz-adv-x="693" d="M713 763q-14 0 -14 17q0 14 15 28t29 14q7 0 12.5 -6t5.5 -12q0 -10 -14 -25.5t-34 -15.5zM793 763q-14 0 -14 17q0 14 15 28t29 14q7 0 12.5 -6t5.5 -12q0 -10 -14 -25.5t-34 -15.5zM419 -56q-9 0 -9 10q0 16 20 51.5t53 80.5t63 83.5t64 79.5t41 51q1 1 85.5 105.5 t152.5 190.5t68 92q0 4 -10 7.5t-19 3.5q-13 0 -26 -19q-5 -5 -33 -38t-75 -85.5t-98 -103.5q-11 -10 -29.5 -28t-73 -69t-105.5 -97.5t-117 -103.5t-117.5 -98t-96.5 -69t-64 -28q-5 0 -5 5q0 25 49 87.5t118.5 142t139 166t118.5 179.5t49 164q0 53 -63 53 q-66 0 -140.5 -37t-136.5 -95t-113.5 -123.5t-81 -126.5t-29.5 -101q0 -51 49 -51q40 0 110 48t120 96l50 48q4 4 4 6q0 3 -3 3q-5 0 -11 -6q-8 -8 -21 -20.5t-50 -45t-70 -57t-71 -45t-62 -20.5q-19 0 -19 23q0 30 30 89t80.5 127t110.5 130.5t128 104t123 42.5 q18 -1 27.5 -3t17.5 -10t8 -22q0 -50 -49 -131.5t-119 -167.5t-140 -171t-119 -161t-49 -117q0 -16 15 -16q38 0 139 76.5t200 167.5t181 167.5t87 76.5q2 0 -27 -38.5t-74 -98.5t-89.5 -124t-76.5 -125t-32 -93q0 -22 16 -24q20 0 49.5 11t67.5 33.5t66 40.5t73 48.5 t60 40.5q34 21 72 44q3 2 3 3q0 3 -8 3t-15 -4l-67 -42q-247 -166 -294 -166z" />
<glyph unicode="&#xdd;" horiz-adv-x="615" d="M930 844q0 -14 -69 -37t-79 -23q-4 0 -4 2q0 4 7 6q7 3 22.5 11.5t40.5 23t49 26.5q13 5 21 5q12 0 12 -14zM-110 -466q70 1 452 477q-194 -135 -324 -262t-130 -212q0 -3 2 -3zM728 520q84 112 119 150q29 32 54.5 54t39 29t20.5 7t12 -5t5 -11q0 -2 -7 -12.5t-27.5 -33 t-49.5 -46.5q-8 -8 -101 -125.5t-112 -141.5q-80 -109 -214 -276q156 99 234 141q6 3 9 3q5 0 5 -4q0 -6 -8 -11q-97 -49 -262 -157q-122 -150 -227.5 -269.5t-208.5 -214t-145 -94.5q-5 0 -10 6.5t-5 11.5q0 51 46 118.5t125.5 139t164 135.5t184.5 131q188 237 324 426 q-263 -178 -347 -178q-26 0 -26 27q0 25 21.5 70t42.5 80l22 35q0 2 -3 2l-27.5 -16.5t-69.5 -36.5t-101.5 -45.5t-114.5 -36t-117 -16.5q-18 0 -18 11q0 17 29 30t42 13q7 0 7 -5q0 -2 -3 -5t-3 -4q0 -4 7 -4q53 0 114 16t110 38.5t90 45t64 38.5l22 16l12 12q12 13 29 31 t39 40.5t42 43t39 38.5t29 27q32 27 49 27q6 0 11.5 -4t5.5 -9q0 -10 -38.5 -49.5t-92 -91t-74.5 -75.5q-45 -50 -94.5 -119t-49.5 -102q0 -7 10 -7q100 0 377 212z" />
<glyph unicode="&#xde;" horiz-adv-x="428" d="M12 0q0 -8 7 -8q28 0 153.5 165t254.5 359q-166 -114 -290.5 -265.5t-124.5 -250.5zM358 318q4 10 9 10q4 0 4 -10q-1 -5 -4.5 -19.5t-6 -30.5t-2.5 -28q0 -42 32 -42q52 0 155.5 79.5t187 180t83.5 153.5q0 41 -55 41q-107 0 -256 -87q-114 -164 -287.5 -375 t-201.5 -211q-16 0 -16 21q0 104 133.5 262.5t307.5 274.5q114 171 132 218q3 7 6 7q11 0 11 -31q0 -23 -5 -31q-6 -16 -29.5 -56t-38.5 -61q144 81 248 81q84 0 84 -60q0 -47 -52 -120.5t-125 -140.5t-159 -115t-148 -48q-34 0 -34 40q0 18 6.5 42.5t13.5 39.5z" />
<glyph unicode="&#xdf;" horiz-adv-x="300" d="M228 94q0 -33 -12 -45q0 -2 3 -2t4 1l112 71l1 -13q-12 -7 -40 -25t-39.5 -25t-33.5 -20.5t-34 -19.5t-28 -13.5t-27 -10t-21 -2.5q-32 0 -49 16t-17 38q0 20 14.5 35t38.5 15q16 0 16 -16q0 -9 -6.5 -17t-17.5 -8q-8 0 -9.5 9t-5.5 9q-7 0 -11.5 -7t-4.5 -17 q0 -16 12 -28.5t36 -12.5q20 0 39.5 16t27.5 29q10 19 12 59q4 66 45 135t96 125.5t110 110t93 106.5t38 96q0 2 -3 2q-24 0 -225.5 -235t-392.5 -480.5t-191 -272.5q0 -3 3.5 -3.5t3.5 -1.5q0 -14 -10 -14q-6 0 -12 4.5t-6 9.5q0 37 189 288t400 489.5t260 238.5q5 0 8 -3 q1 -1 1 -5q0 -50 -38 -104.5t-92 -107t-107.5 -109.5t-91.5 -131.5t-38 -153.5z" />
<glyph unicode="&#xe0;" horiz-adv-x="295" d="M208 373q0 11 12 11t17 -5q88 -70 94 -73q7 -4 7 -6t-5 -2q-10 0 -67.5 29.5t-57.5 45.5zM325 119l1 -13q-161 -107 -196 -107q-6 0 -6 6q0 9 5 28t11 33l5 14q0 2 -2 2q-5 0 -60 -40t-70 -40q-17 1 -17 30q0 83 94.5 162t227.5 79q12 0 12 -11q0 -9 -94 -115.5 t-94 -128.5q0 -4 4 -4q8 0 53 26t85 52zM166 118q17 13 66 69t49 65q0 4 -8 4q-46 0 -107 -42.5t-103.5 -96.5t-42.5 -87q0 -6 6 -6t19.5 7.5t33 21t33 23.5t33.5 25.5t21 16.5z" />
<glyph unicode="&#xe1;" horiz-adv-x="295" d="M388 362q0 -14 -69 -37t-79 -23q-4 0 -4 2q0 4 7 6q7 3 22.5 11.5t40.5 23t49 26.5q13 5 21 5q12 0 12 -14zM325 119l1 -13q-161 -107 -196 -107q-6 0 -6 6q0 9 5 28t11 33l5 14q0 2 -2 2q-5 0 -60 -40t-70 -40q-17 1 -17 30q0 83 94.5 162t227.5 79q12 0 12 -11 q0 -9 -94 -115.5t-94 -128.5q0 -4 4 -4q8 0 53 26t85 52zM166 118q17 13 66 69t49 65q0 4 -8 4q-46 0 -107 -42.5t-103.5 -96.5t-42.5 -87q0 -6 6 -6t19.5 7.5t33 21t33 23.5t33.5 25.5t21 16.5z" />
<glyph unicode="&#xe2;" horiz-adv-x="295" d="M377 302l1 -2q0 -3 -6 -3q-10 0 -21 18t-17 38l-32 -13q-31 -14 -65.5 -28t-41.5 -14q-4 0 -6 1.5t-2 2.5v2q0 3 24 15q9 4 40.5 22.5t58.5 33.5t33 15q8 0 10 -9q2 -10 4.5 -25t3.5 -20.5t5 -14.5t11 -19zM325 119l1 -13q-161 -107 -196 -107q-6 0 -6 6q0 9 5 28t11 33 l5 14q0 2 -2 2q-5 0 -60 -40t-70 -40q-17 1 -17 30q0 83 94.5 162t227.5 79q12 0 12 -11q0 -9 -94 -115.5t-94 -128.5q0 -4 4 -4q8 0 53 26t85 52zM166 118q17 13 66 69t49 65q0 4 -8 4q-46 0 -107 -42.5t-103.5 -96.5t-42.5 -87q0 -6 6 -6t19.5 7.5t33 21t33 23.5 t33.5 25.5t21 16.5z" />
<glyph unicode="&#xe3;" horiz-adv-x="295" d="M227 330q-1 -1 -5 -1q-7 0 -7 4q0 3 4 7q22 22 45 22q14 0 38 -12.5t35 -12.5q17 0 35 21q1 2 4 2q5 0 5 -9q0 -2 -1 -3q-26 -31 -58 -31q-16 0 -41 11t-34 11q-11 0 -20 -9zM325 119l1 -13q-161 -107 -196 -107q-6 0 -6 6q0 9 5 28t11 33l5 14q0 2 -2 2q-5 0 -60 -40 t-70 -40q-17 1 -17 30q0 83 94.5 162t227.5 79q12 0 12 -11q0 -9 -94 -115.5t-94 -128.5q0 -4 4 -4q8 0 53 26t85 52zM166 118q17 13 66 69t49 65q0 4 -8 4q-46 0 -107 -42.5t-103.5 -96.5t-42.5 -87q0 -6 6 -6t19.5 7.5t33 21t33 23.5t33.5 25.5t21 16.5z" />
<glyph unicode="&#xe4;" horiz-adv-x="295" d="M325 307q-14 0 -14 17q0 14 15 28t29 14q7 0 12.5 -6t5.5 -12q0 -10 -14 -25.5t-34 -15.5zM245 307q-14 0 -14 17q0 14 15 28t29 14q7 0 12.5 -6t5.5 -12q0 -10 -14 -25.5t-34 -15.5zM325 119l1 -13q-161 -107 -196 -107q-6 0 -6 6q0 9 5 28t11 33l5 14q0 2 -2 2 q-5 0 -60 -40t-70 -40q-17 1 -17 30q0 83 94.5 162t227.5 79q12 0 12 -11q0 -9 -94 -115.5t-94 -128.5q0 -4 4 -4q8 0 53 26t85 52zM166 118q17 13 66 69t49 65q0 4 -8 4q-46 0 -107 -42.5t-103.5 -96.5t-42.5 -87q0 -6 6 -6t19.5 7.5t33 21t33 23.5t33.5 25.5t21 16.5z" />
<glyph unicode="&#xe5;" horiz-adv-x="295" d="M283 291q-11 0 -17.5 9t-6.5 20q0 24 26 48.5t50 24.5q13 0 21.5 -9.5t8.5 -21.5q0 -18 -24 -44.5t-58 -26.5zM289 302q21 0 38 21.5t17 41.5q0 18 -16 18t-32 -25t-16 -44q0 -12 9 -12zM325 119l1 -13q-161 -107 -196 -107q-6 0 -6 6q0 9 5 28t11 33l5 14q0 2 -2 2 q-5 0 -60 -40t-70 -40q-17 1 -17 30q0 83 94.5 162t227.5 79q12 0 12 -11q0 -9 -94 -115.5t-94 -128.5q0 -4 4 -4q8 0 53 26t85 52zM166 118q17 13 66 69t49 65q0 4 -8 4q-46 0 -107 -42.5t-103.5 -96.5t-42.5 -87q0 -6 6 -6t19.5 7.5t33 21t33 23.5t33.5 25.5t21 16.5z" />
<glyph unicode="&#xe6;" horiz-adv-x="374" d="M408 257q0 3 -4 3q-27 0 -84 -47t-99 -103q50 16 118.5 72t68.5 75zM170 118q17 13 66 69t49 65q0 4 -8 4q-46 0 -107 -42.5t-103.5 -96.5t-42.5 -87q0 -6 6 -6t19.5 7.5t33 21t33 23.5t33.5 25.5t21 16.5zM17 2q-17 1 -17 30q0 83 94.5 162t227.5 79q12 0 12 -11 q0 -7 -20 -30q72 40 107 40q23 0 23 -15q0 -37 -87.5 -90t-145.5 -70q-34 -49 -34 -76q0 -13 10 -13q12 0 54 16.5t69 32.5l98 62l1 -13q-45 -30 -93 -58q-31 -19 -73 -34.5t-59 -15.5q-28 0 -28 35t17 67q-11 -5 -76.5 -52t-79.5 -46z" />
<glyph unicode="&#xe7;" horiz-adv-x="203" d="M68 -50q0 -21 -30.5 -42t-61.5 -21q-20 0 -34 12q-2 2 -2 4q0 4 4 4t6 -2q12 -11 31 -11q23 0 43 15t20 32q0 26 -44 27l17 30q-17 2 -17 43t41 96.5t103 96.5t113 41q20 0 20 -16q0 -22 -34.5 -58t-53.5 -36q-11 0 -11 11q0 7 5 16t10 9q2 0 4.5 -1.5t3.5 -3.5l1 -2 q56 44 56 65q0 3 -5 3q-32 0 -88 -45t-99.5 -103.5t-43.5 -92.5q0 -9 9 -9q37 0 146 68l60 39l1 -13q-25 -16 -57 -36q-104 -66 -150 -71l-14 -23q51 -1 51 -26z" />
<glyph unicode="&#xe8;" horiz-adv-x="218" d="M175 373q0 11 12 11t17 -5q88 -70 94 -73q7 -4 7 -6t-5 -2q-10 0 -67.5 29.5t-57.5 45.5zM252 257q0 3 -4 3q-27 0 -84 -47t-99 -103q50 16 118.5 72t68.5 75zM21 21q0 -13 10 -13q12 0 54 16.5t69 32.5l98 62l1 -13q-45 -30 -93 -58q-31 -19 -73 -34.5t-59 -15.5 q-28 0 -28 35q0 47 34 94t79.5 77t88 49t63.5 19q23 0 23 -15q0 -37 -87.5 -90t-145.5 -70q-34 -49 -34 -76z" />
<glyph unicode="&#xe9;" horiz-adv-x="218" d="M363 364q0 -14 -69 -37t-79 -23q-4 0 -4 2q0 4 7 6q7 3 22.5 11.5t40.5 23t49 26.5q13 5 21 5q12 0 12 -14zM252 257q0 3 -4 3q-27 0 -84 -47t-99 -103q50 16 118.5 72t68.5 75zM21 21q0 -13 10 -13q12 0 54 16.5t69 32.5l98 62l1 -13q-45 -30 -93 -58q-31 -19 -73 -34.5 t-59 -15.5q-28 0 -28 35q0 47 34 94t79.5 77t88 49t63.5 19q23 0 23 -15q0 -37 -87.5 -90t-145.5 -70q-34 -49 -34 -76z" />
<glyph unicode="&#xea;" horiz-adv-x="218" d="M335 295l1 -2q0 -3 -6 -3q-10 0 -21 18t-17 38l-32 -14q-31 -14 -65.5 -27.5t-41.5 -13.5q-4 0 -6 1.5t-2 3.5v1q0 3 24 15q9 4 40.5 22.5t58.5 33.5t33 15q8 0 10 -9q2 -10 4.5 -25t3.5 -20.5t5 -14.5t11 -19zM252 257q0 3 -4 3q-27 0 -84 -47t-99 -103q50 16 118.5 72 t68.5 75zM21 21q0 -13 10 -13q12 0 54 16.5t69 32.5l98 62l1 -13q-45 -30 -93 -58q-31 -19 -73 -34.5t-59 -15.5q-28 0 -28 35q0 47 34 94t79.5 77t88 49t63.5 19q23 0 23 -15q0 -37 -87.5 -90t-145.5 -70q-34 -49 -34 -76z" />
<glyph unicode="&#xeb;" horiz-adv-x="218" d="M296 304q-14 0 -14 17q0 14 15 28t29 14q7 0 12.5 -6t5.5 -12q0 -10 -14 -25.5t-34 -15.5zM216 304q-14 0 -14 17q0 14 15 28t29 14q7 0 12.5 -6t5.5 -12q0 -10 -14 -25.5t-34 -15.5zM252 257q0 3 -4 3q-27 0 -84 -47t-99 -103q50 16 118.5 72t68.5 75zM21 21 q0 -13 10 -13q12 0 54 16.5t69 32.5l98 62l1 -13q-45 -30 -93 -58q-31 -19 -73 -34.5t-59 -15.5q-28 0 -28 35q0 47 34 94t79.5 77t88 49t63.5 19q23 0 23 -15q0 -37 -87.5 -90t-145.5 -70q-34 -49 -34 -76z" />
<glyph unicode="&#xec;" horiz-adv-x="148" d="M113 375q0 11 12 11t17 -5q88 -70 94 -73q7 -4 7 -6t-5 -2q-10 0 -67.5 29.5t-57.5 45.5zM0 24q27 40 95 118t108 118q6 8 6 11q0 4 -8 5l-23 2q-8 0 -15 -8q-68 -69 -128.5 -150.5t-60.5 -104.5q0 -16 12 -16q16 0 65 26.5t90 53.5l41 27l-1 13q-161 -106 -179 -106 q-5 0 -5 4z" />
<glyph unicode="&#xed;" horiz-adv-x="148" d="M316 370q0 -14 -69 -37t-79 -23q-4 0 -4 2q0 4 7 6q7 3 22.5 11.5t40.5 23t49 26.5q13 5 21 5q12 0 12 -14zM0 24q-3 -4 -3 -7q0 -4 5 -4q8 0 52.5 26.5t85.5 52.5l41 27l1 -13q-161 -107 -196 -107q-12 0 -12 16q0 23 60.5 104.5t128.5 150.5q3 4 7 6t6 2h2q10 -1 23 -2 q8 -1 8 -5q0 -3 -6 -11q-40 -40 -108 -118t-95 -118z" />
<glyph unicode="&#xee;" horiz-adv-x="148" d="M282 305l1 -2q0 -3 -6 -3q-10 0 -21 18t-17 38l-31 -14q-32 -14 -66.5 -27.5t-41.5 -13.5q-4 0 -6 1.5t-2 3.5v1q0 3 24 15q9 4 40.5 22.5t58.5 33.5t33 15q8 0 10 -9q2 -10 4.5 -25t3.5 -20.5t5 -14.5t11 -19zM0 24q-3 -4 -3 -7q0 -4 5 -4q8 0 52.5 26.5t85.5 52.5 l41 27l1 -13q-161 -107 -196 -107q-12 0 -12 16q0 23 60.5 104.5t128.5 150.5q3 4 7 6t6 2h2q10 -1 23 -2q8 -1 8 -5q0 -3 -6 -11q-40 -40 -108 -118t-95 -118z" />
<glyph unicode="&#xef;" horiz-adv-x="148" d="M243 314q-14 0 -14 17q0 14 15 28t29 14q7 0 12.5 -6t5.5 -12q0 -10 -14 -25.5t-34 -15.5zM163 314q-14 0 -14 17q0 14 15 28t29 14q7 0 12.5 -6t5.5 -12q0 -10 -14 -25.5t-34 -15.5zM0 24q27 40 95 118t108 118q6 8 6 11q0 4 -8 5l-23 2q-8 0 -15 -8 q-68 -69 -128.5 -150.5t-60.5 -104.5q0 -16 12 -16q16 0 65 26.5t90 53.5l41 27l-1 13q-161 -106 -179 -106q-5 0 -5 4z" />
<glyph unicode="&#xf0;" horiz-adv-x="337" d="M24 17q27 0 133 78.5t152 150.5q0 7 -12 7q-28 0 -95 -42t-124.5 -98.5t-57.5 -90.5q0 -5 4 -5zM552 410q25 0 25 -9t-29 -11q-1 0 -76 2q-306 -350 -306 -382q0 -4 4 -4q6 0 41 17t63 34l98 62l1 -13q-46 -31 -94 -59q-89 -53 -117 -53q-12 0 -12 14q0 13 6.5 27 t19.5 34.5t20 35.5l2 6l-1 1q-151 -110 -186 -110q-11 0 -11 20q0 52 37.5 100t90.5 78.5t106 48.5t89 18q49 53 111 125h-62q-7 0 -7 7q0 9 6 14t12 5q59 -2 72 -2q119 137 182 218q23 30 52 31q9 0 9 -8q0 -3 -9.5 -15.5t-33 -39.5t-43 -49.5l-58.5 -67.5t-62 -71z" />
<glyph unicode="&#xf1;" horiz-adv-x="328" d="M241 308q-1 -1 -5 -1q-7 0 -7 4q0 3 4 7q22 22 45 22q14 0 38 -12.5t35 -12.5q17 0 35 21q1 2 4 2q5 0 5 -9q0 -2 -1 -3q-26 -31 -58 -31q-16 0 -41 11t-34 11q-11 0 -20 -9zM22 98l-3 12l33 21q24 16 44 30.5t32 24t24.5 23t16.5 18.5t15.5 19.5t13.5 17.5q12 -4 12 -24 q-20 -29 -54 -69.5t-56 -67t-22 -32.5q0 -2 1 -2q2 0 5 3q24 18 84.5 60t111 76.5t53.5 36.5q22 16 32 16q9 0 9 -15q0 -24 -30 -63t-66 -72t-66 -62t-30 -35q0 -1 1 -1q8 0 52.5 26.5t85.5 52.5l41 27l1 -13q-161 -107 -196 -107q-6 0 -6 6q0 37 46.5 87.5t92.5 91t46 53.5 q0 2 -2 2l-2 -1q-44 -26 -160 -107q-24 -17 -51 -36t-44.5 -32t-32.5 -24t-16 -11q-4 -3 -12.5 -12t-16 -14t-16.5 -5q-24 2 -25 3t-1 3q1 1 17 18t31.5 34t37 41t36.5 43l-29 -17z" />
<glyph unicode="&#xf2;" horiz-adv-x="232" d="M160 351q0 11 12 11t17 -5q88 -70 94 -73q7 -4 7 -6t-5 -2q-10 0 -67.5 29.5t-57.5 45.5zM238 226v-1q0 -37 -72 -111q4 27 28 64.5t44 47.5zM25 16q-7 0 -7 6q0 47 85.5 132t122.5 85q5 0 8 -3q-25 -13 -55.5 -58.5t-30.5 -76.5v-5q-85 -80 -123 -80zM-6 30 q0 -30 19 -30q20 0 63 20t82 52q6 -5 19 -5q33 0 97 43l-5 10q-53 -35 -81 -35q-6 0 -12 2q76 71 76 142q0 25 -28 25q-57 0 -143.5 -74.5t-86.5 -149.5z" />
<glyph unicode="&#xf3;" horiz-adv-x="232" d="M368 346q0 -14 -69 -37t-79 -23q-4 0 -4 2q0 4 7 6q7 3 22.5 11.5t40.5 23t49 26.5q13 5 21 5q12 0 12 -14zM238 225v1q-20 -10 -44 -47.5t-28 -64.5q72 74 72 111zM25 16q38 0 123 80v5q0 31 30.5 76.5t55.5 58.5q-3 3 -8 3q-37 0 -122.5 -85t-85.5 -132q0 -6 7 -6z M-6 30q0 75 86.5 149.5t143.5 74.5q28 0 28 -25q0 -71 -76 -142q6 -2 12 -2q28 0 81 35l5 -10q-64 -43 -97 -43q-13 0 -19 5q-39 -32 -82 -52t-63 -20q-19 0 -19 30z" />
<glyph unicode="&#xf4;" horiz-adv-x="232" d="M317 281l1 -2q0 -3 -6 -3q-10 0 -21 18t-17 38l-32 -14q-31 -14 -65.5 -27.5t-41.5 -13.5q-4 0 -6 1.5t-2 3.5v1q0 3 24 15q9 4 40.5 22.5t58.5 33.5t33 15q8 0 10 -9q2 -10 4.5 -25t3.5 -20.5t5 -14.5t11 -19zM238 225v1q-20 -10 -44 -47.5t-28 -64.5q72 74 72 111z M25 16q38 0 123 80v5q0 31 30.5 76.5t55.5 58.5q-3 3 -8 3q-37 0 -122.5 -85t-85.5 -132q0 -6 7 -6zM-6 30q0 75 86.5 149.5t143.5 74.5q28 0 28 -25q0 -71 -76 -142q6 -2 12 -2q28 0 81 35l5 -10q-64 -43 -97 -43q-13 0 -19 5q-39 -32 -82 -52t-63 -20q-19 0 -19 30z" />
<glyph unicode="&#xf5;" horiz-adv-x="232" d="M165 306q-1 -1 -5 -1q-7 0 -7 4q0 3 4 7q22 22 45 22q14 0 38 -12.5t35 -12.5q17 0 35 21q1 2 4 2q5 0 5 -9q0 -2 -1 -3q-26 -31 -58 -31q-16 0 -41 11t-34 11q-11 0 -20 -9zM238 225v1q-20 -10 -44 -47.5t-28 -64.5q72 74 72 111zM25 16q38 0 123 80v5q0 31 30.5 76.5 t55.5 58.5q-3 3 -8 3q-37 0 -122.5 -85t-85.5 -132q0 -6 7 -6zM-6 30q0 75 86.5 149.5t143.5 74.5q28 0 28 -25q0 -71 -76 -142q6 -2 12 -2q28 0 81 35l5 -10q-64 -43 -97 -43q-13 0 -19 5q-39 -32 -82 -52t-63 -20q-19 0 -19 30z" />
<glyph unicode="&#xf6;" horiz-adv-x="232" d="M281 287q-14 0 -14 17q0 14 15 28t29 14q7 0 12.5 -6t5.5 -12q0 -10 -14 -25.5t-34 -15.5zM201 287q-14 0 -14 17q0 14 15 28t29 14q7 0 12.5 -6t5.5 -12q0 -10 -14 -25.5t-34 -15.5zM238 226v-1q0 -37 -72 -111q4 27 28 64.5t44 47.5zM25 16q-7 0 -7 6q0 47 85.5 132 t122.5 85q5 0 8 -3q-25 -13 -55.5 -58.5t-30.5 -76.5v-5q-85 -80 -123 -80zM-6 30q0 -30 19 -30q20 0 63 20t82 52q6 -5 19 -5q33 0 97 43l-5 10q-53 -35 -81 -35q-6 0 -12 2q76 71 76 142q0 25 -28 25q-57 0 -143.5 -74.5t-86.5 -149.5z" />
<glyph unicode="&#xf7;" horiz-adv-x="400" d="M262 310q-14 0 -14 16q0 14 14.5 27.5t28.5 13.5q7 0 12 -6t5 -12q0 -9 -13.5 -24t-32.5 -15zM176 114q-14 0 -14 16q0 14 14.5 27.5t28.5 13.5q7 0 12 -6t5 -12q0 -9 -13.5 -24t-32.5 -15zM121 235q-12 0 -13 5q0 8 13 10h5q5 0 13 0.5t16 0.5q79 3 124 6l93 6 q8 0 10 -6q0 -9 -7 -14.5t-15 -5.5q-47 -3 -131 -3z" />
<glyph unicode="&#xf8;" horiz-adv-x="232" d="M238 225v1q-20 -10 -44 -47.5t-28 -64.5q72 74 72 111zM217 237q-90 -122 -164 -213q35 18 95 72v5q0 31 30.5 76.5t55.5 58.5q-3 3 -8 3q-3 0 -9 -2zM25 16h1q81 96 157 205q-54 -35 -109.5 -98.5t-55.5 -100.5q0 -6 7 -6zM-6 30q0 68 73.5 137t136.5 84q33 48 45 68 q7 13 14 13t7 -16q0 -5 -41 -62q23 -3 23 -25q0 -71 -76 -142q6 -2 12 -2q28 0 81 35l5 -10q-64 -43 -97 -43q-13 0 -19 5q-58 -47 -122 -68l-44 -52q-7 -7 -12 -7q-4 0 -4 8q14 22 37 47q-19 0 -19 30z" />
<glyph unicode="&#xf9;" horiz-adv-x="348" d="M222 375q0 11 12 11t17 -5q88 -70 94 -73q7 -4 7 -6t-5 -2q-10 0 -67.5 29.5t-57.5 45.5zM101 145l-39 -23l-39 -23l-3 11l34 21q48 31 75.5 53t36.5 32.5t26 34.5q7 10 16 10q4 0 8 -4t6 -7l2 -4q0 -18 -90.5 -118t-90.5 -109q0 -2 3 -2q9 0 73 41t106 75q78 64 125 114 q25 23 42 23q21 -2 21 -6l-1 -2q-43 -40 -128 -135t-85 -112q0 -4 4 -4q9 0 139 82l41 26l1 -12q-12 -8 -31 -20q-149 -94 -174 -94q-9 0 -9 9q0 11 24.5 58t35.5 60l-16 -9q-151 -108 -181 -108q-12 0 -12 12q0 15 11 36.5t20.5 34.5t28.5 35.5t20 23.5z" />
<glyph unicode="&#xfa;" horiz-adv-x="348" d="M438 357q0 -14 -69 -37t-79 -23q-4 0 -4 2q0 4 7 6q7 3 22.5 11.5t40.5 23t49 26.5q13 5 21 5q12 0 12 -14zM101 145l-39 -23l-39 -23l-3 11l34 21q48 31 75.5 53t36.5 32.5t26 34.5q7 10 16 10q4 0 8 -4t6 -7l2 -4q0 -18 -90.5 -118t-90.5 -109q0 -2 3 -2q9 0 73 41 t106 75q78 64 125 114q25 23 42 23q21 -2 21 -6l-1 -2q-43 -40 -128 -135t-85 -112q0 -4 4 -4q9 0 139 82l41 26l1 -12q-12 -8 -31 -20q-149 -94 -174 -94q-9 0 -9 9q0 11 24.5 58t35.5 60l-16 -9q-151 -108 -181 -108q-12 0 -12 12q0 15 11 36.5t20.5 34.5t28.5 35.5 t20 23.5z" />
<glyph unicode="&#xfb;" horiz-adv-x="348" d="M405 305l1 -2q0 -3 -6 -3q-10 0 -21 18t-17 38l-32 -14q-31 -14 -65.5 -27.5t-41.5 -13.5q-4 0 -6 1.5t-2 3.5v1q0 3 24 15q9 4 40.5 22.5t58.5 33.5t33 15q8 0 10 -9q2 -10 4.5 -25t3.5 -20.5t5 -14.5t11 -19zM101 145l-39 -23l-39 -23l-3 11l34 21q48 31 75.5 53 t36.5 32.5t26 34.5q7 10 16 10q4 0 8 -4t6 -7l2 -4q0 -18 -90.5 -118t-90.5 -109q0 -2 3 -2q9 0 73 41t106 75q78 64 125 114q25 23 42 23q21 -2 21 -6l-1 -2q-43 -40 -128 -135t-85 -112q0 -4 4 -4q9 0 139 82l41 26l1 -12q-12 -8 -31 -20q-149 -94 -174 -94q-9 0 -9 9 q0 11 24.5 58t35.5 60l-16 -9q-151 -108 -181 -108q-12 0 -12 12q0 15 11 36.5t20.5 34.5t28.5 35.5t20 23.5z" />
<glyph unicode="&#xfc;" horiz-adv-x="348" d="M271 306q-14 0 -14 17q0 14 15 28t29 14q7 0 12.5 -6t5.5 -12q0 -10 -14 -25.5t-34 -15.5zM351 306q-14 0 -14 17q0 14 15 28t29 14q7 0 12.5 -6t5.5 -12q0 -10 -14 -25.5t-34 -15.5zM101 145l-39 -23l-39 -23l-3 11l34 21q48 31 75.5 53t36.5 32.5t26 34.5q7 10 16 10 q4 0 8 -4t6 -7l2 -4q0 -18 -90.5 -118t-90.5 -109q0 -2 3 -2q9 0 73 41t106 75q78 64 125 114q25 23 42 23q21 -2 21 -6l-1 -2q-43 -40 -128 -135t-85 -112q0 -4 4 -4q9 0 139 82l41 26l1 -12q-12 -8 -31 -20q-149 -94 -174 -94q-9 0 -9 9q0 11 24.5 58t35.5 60l-16 -9 q-151 -108 -181 -108q-12 0 -12 12q0 15 11 36.5t20.5 34.5t28.5 35.5t20 23.5z" />
<glyph unicode="&#xfd;" horiz-adv-x="343" d="M417 346q0 -14 -69 -37t-79 -23q-4 0 -4 2q0 4 7 6q7 3 22.5 11.5t40.5 23t49 26.5q13 5 21 5q12 0 12 -14zM23 99l-3 11l38 26q71 49 92.5 67.5t41.5 47.5q7 10 16 10q4 0 8 -4t6 -7l2 -4q0 -18 -90.5 -118t-90.5 -109q0 -2 3 -2q9 0 73 41t106 75q26 21 49 45t42 46 l18 23q25 23 42 23q21 -2 21 -6l-1 -2q-33 -38 -112 -134t-90 -115q8 0 54 26t88 53l41 26l1 -12q-64 -44 -120 -74l-91 -47q-79 -107 -197.5 -229.5t-141.5 -122.5q-19 0 -19 14q0 23 11 49t34 53.5t44.5 50.5t57 52t56.5 45.5t57 44t46 34.5q41 50 60.5 72.5t35 40.5 t37.5 44q1 1 -12.5 -8t-21.5 -14q-151 -108 -181 -108q-12 0 -12 12q0 15 12 37.5t23 37.5t31 38.5t21 24.5zM-162 -344q6 0 67.5 70t120.5 140l58 71q0 2 -2 2q-247 -180 -247 -277q0 -6 3 -6z" />
<glyph unicode="&#xfe;" d="M-291 -253l727 844q5 6 16 6q21 0 21 -8q0 -3 -5 -8l-397 -460q-5 -6 -5 -8t1 -2q2 0 5 3q33 28 129.5 90.5t123.5 62.5q11 0 11 -14q0 -27 -29 -67.5t-64.5 -73.5t-64.5 -60.5t-29 -31.5q0 -6 4 -6q56 18 98 43l98 62l1 -13q-45 -30 -93 -58q-31 -19 -73 -34.5 t-59 -15.5q-12 0 -12 9q0 18 50.5 72t101.5 105.5t51 61.5q0 2 -3 2q-22 0 -99.5 -49.5t-109.5 -75.5q-19 -15 -40 -33.5t-34.5 -31.5t-26 -24.5t-14.5 -13.5q-14 -14 -119 -135.5t-122 -144.5q-15 -20 -32 -20q-18 1 -18 8q0 5 11 19z" />
<glyph unicode="&#xff;" horiz-adv-x="343" d="M340 298q-14 0 -14 17q0 14 15 28t29 14q7 0 12.5 -6t5.5 -12q0 -10 -14 -25.5t-34 -15.5zM260 298q-14 0 -14 17q0 14 15 28t29 14q7 0 12.5 -6t5.5 -12q0 -10 -14 -25.5t-34 -15.5zM20 110l3 -11l85 54q-1 -1 -21 -24.5t-31 -38.5t-23 -37.5t-12 -37.5q0 -12 12 -12 q30 0 181 108q8 5 21.5 14t12.5 8q-16 -19 -47 -55t-86 -102q-10 -7 -46 -34.5t-57 -44t-56.5 -45.5t-57 -52t-44.5 -50.5t-34 -53.5t-11 -49q0 -14 19 -14q23 0 141.5 122.5t197.5 229.5l91 47q25 13 55 31.5t47 30.5l18 12l-1 12q-165 -105 -183 -105q11 19 90 115 t112 134q1 1 1 2q0 4 -21 6q-17 0 -42 -23l-18 -23q-19 -22 -42 -46t-49 -45q-42 -34 -106 -75t-73 -41q-3 0 -3 2q0 9 90.5 109t90.5 118q-8 15 -16 15q-9 0 -16 -10q-20 -29 -41.5 -47.5t-92.5 -67.5zM-162 -344q-3 0 -3 6q0 97 247 277q2 0 2 -2q-232 -281 -246 -281z " />
<glyph unicode="&#x131;" horiz-adv-x="148" d="M0 24q-3 -4 -3 -7q0 -4 5 -4q8 0 52.5 26.5t85.5 52.5l41 27l1 -13q-161 -107 -196 -107q-12 0 -12 16q0 23 60.5 104.5t128.5 150.5q3 4 7 6t6 2h2q10 -1 23 -2q8 -1 8 -5q0 -3 -6 -11q-40 -40 -108 -118t-95 -118z" />
<glyph unicode="&#x141;" horiz-adv-x="624" d="M164 -2q-61 40 -83 112q-40 -56 -57.5 -126.5t-17.5 -130.5q0 -24 7 -27q25 0 151 172zM107 155l-1 -11q17 -76 79 -118l153 212h-102q-9 0 -9 7q0 9 7.5 14t15.5 5q16 0 56 -1.5t49 -1.5q75 103 129.5 174t117 146t108 113.5t73.5 38.5q19 0 19 -31q0 -51 -43.5 -157.5 t-101 -194t-90.5 -87.5q-20 0 -20 34q0 47 31 119.5t50 72.5q7 0 7 -9q0 -3 -1 -5q-24 -30 -43 -82.5t-19 -84.5q0 -23 12 -23q23 0 72 87t88.5 188t39.5 140q0 17 -9 17q-12 0 -44.5 -34t-95.5 -114.5t-105.5 -136t-131.5 -173.5l63 -3q31 0 31 -9t-36 -11q-2 0 -74 2 q-108 -142 -175 -225q59 -31 122 -31q69 0 142 12t111 24l39 13h3q6 0 6 -4q0 -7 -7 -9q-190 -60 -316 -60q-69 0 -122 28q-158 -194 -194 -194q-17 0 -17 48q0 74 30.5 153.5t61 123t38.5 43.5q3 0 3 -5z" />
<glyph unicode="&#x142;" horiz-adv-x="181" d="M574 658q-30 0 -221 -192t-290 -329q92 70 302.5 274.5t210.5 243.5q0 2 -2 3zM602 665q0 -45 -193 -234.5t-334 -296.5l41 -3q20 0 20 -9t-23 -11q-26 2 -67 2q-43 -64 -43 -90q0 -9 4 -9q41 0 147 66l60 39l1 -13q-25 -16 -57 -36q-116 -72 -161 -72q-12 0 -12 19 q0 33 33 96h-46q-6 0 -6 7q0 9 5 14t10 5l51 -2q61 101 181 230.5t230 219t150 89.5q4 0 5 -1q4 -2 4 -10z" />
<glyph unicode="&#x152;" horiz-adv-x="670" d="M464 240q68 70 145 107q-36 -9 -61 -9q-71 0 -71 55q0 44 47 110q-39 -21 -72 -21q-18 4 -18 12q0 7 12.5 22t17.5 15q6 0 6 -5q0 -2 -4 -6t-4 -8q0 -2 4 -2q27 0 78.5 40t92.5 89t41 73q0 15 -18 15q-89 0 -176.5 -38.5t-156 -100t-127.5 -137.5t-98 -153t-61 -143.5 t-22 -111.5q0 -58 50 -58q65 0 188.5 85.5t206.5 169.5zM349 21q0 37 22 87q-56 -46 -146.5 -91.5t-154.5 -45.5q-87 0 -87 94q0 62 32 148t94 177.5t142 169.5t188.5 128.5t220.5 50.5q32 0 32 -29q0 -25 -24 -65q170 126 339 126q44 0 44 -25q0 -43 -100.5 -121 t-151.5 -78q-14 0 -14 15q0 16 21 33.5t28 17.5q4 0 4 -5q0 -4 -9.5 -10t-9.5 -11q0 -4 4 -4q28 0 119 71t91 98q0 10 -15 10q-83 0 -177.5 -46.5t-165.5 -109t-118 -126.5t-47 -100q0 -31 36 -31q24 0 50.5 6.5t48.5 15.5t46 22t38.5 22.5t30 20t17.5 11.5q5 4 8 4t3 -8v-3 q0 -4 -26 -21.5t-52 -32.5l-25 -16q-104 -62 -206.5 -182.5t-102.5 -181.5q0 -35 41 -35q64 0 271 139l67 42q7 4 15 4t8 -3q0 -1 -3 -3l-72 -44q-9 -6 -56 -37.5t-67 -44t-56.5 -33t-62 -29t-45.5 -8.5q-67 0 -67 67z" />
<glyph unicode="&#x153;" horiz-adv-x="369" d="M238 225q-18 -11 -38.5 -43t-20.5 -53v-2q59 66 59 98zM399 260q-27 0 -84 -47t-99 -103q50 16 118.5 72t68.5 75q0 3 -4 3zM25 16q21 0 62.5 30t81.5 71q-3 8 -3 19q0 26 17.5 53t51.5 46q-3 4 -9 4q-37 0 -122.5 -85t-85.5 -132q0 -6 7 -6zM-6 30q0 75 86.5 149.5 t143.5 74.5q28 0 28 -25q0 -21 -6 -40q45 36 96 59.5t74 23.5t23 -15q0 -37 -87.5 -90t-145.5 -70q-34 -49 -34 -76q0 -13 10 -13q12 0 54 16.5t69 32.5l98 62l1 -13q-45 -30 -93 -58q-31 -19 -73 -34.5t-59 -15.5q-28 0 -28 35q0 18 5 38q-39 -31 -81 -51t-62 -20 q-19 0 -19 30z" />
<glyph unicode="&#x160;" horiz-adv-x="563" d="M634 835l-1 2q0 3 6 3q10 0 21 -18t17 -38l31 14q32 14 66.5 27.5t41.5 13.5q4 0 6 -1.5t2 -3.5v-1q0 -3 -24 -15q-9 -4 -40.5 -22.5t-58.5 -33.5t-33 -15q-8 0 -10 9q-2 10 -4.5 25t-3.5 20.5t-5 14.5t-11 19zM314 -49q38 0 84 61t85 150.5t72.5 184.5t52.5 169.5 t19 99.5q0 3 -2 3q-4 0 -16 -12q-47 -45 -125 -127t-140 -144t-145 -137.5t-182 -146t-210 -131.5q-6 -3 -11 -3q-7 0 -7 4t7 7q74 38 148 87.5t145 108t133 114t131 125.5t117 121t114.5 122t101.5 108q6 6 10 6t4 -6q0 -31 -19 -116t-56 -197.5t-83 -216.5t-109 -175.5 t-126 -71.5q-39 0 -61.5 40.5t-22.5 98.5q0 73 32 128q8 14 14 14q3 0 4.5 -2t2.5 -4v-2q-10 -17 -18 -58.5t-8 -83.5q0 -118 64 -118z" />
<glyph unicode="&#x161;" horiz-adv-x="258" d="M253 403l-1 2q0 3 6 3q10 0 21 -18t17 -38l32 14q31 14 65.5 27.5t41.5 13.5q4 0 6 -1.5t2 -3.5v-1q0 -3 -24 -15q-9 -4 -40.5 -22.5t-58.5 -33.5t-33 -15q-8 0 -10 9q-2 10 -4.5 25t-3.5 20.5t-5 14.5t-11 19zM35 106q-5 -3 -12 -8l-3 12q52 33 104.5 65t79.5 47l27 16 q15 12 33 27.5t27 22.5t14 7q4 0 4 -4q0 -5 -8 -15.5t-22.5 -24.5t-17.5 -18q-15 -15 -49.5 -95.5t-37.5 -86.5q0 -4 3 -4q2 0 3 1l112 71l1 -13q-12 -7 -40 -25t-39.5 -25t-33.5 -20.5t-34 -19.5t-28 -13.5t-27 -10t-21 -2.5q-32 0 -49 16t-17 38q0 20 14.5 35t38.5 15 q16 0 16 -16q0 -9 -6.5 -17t-17.5 -8q-8 0 -9.5 9t-5.5 9q-7 0 -11.5 -7t-4.5 -17q0 -16 12 -28.5t36 -12.5q20 0 39.5 16t27.5 29q6 11 29 66.5t48 87.5l2 4q0 1 -2 1q-4 0 -48 -26t-86 -52z" />
<glyph unicode="&#x178;" horiz-adv-x="767" d="M1002 789q-14 0 -14 17q0 14 15 28t29 14q7 0 12.5 -6t5.5 -12q0 -10 -14 -25.5t-34 -15.5zM922 789q-14 0 -14 17q0 14 15 28t29 14q7 0 12.5 -6t5.5 -12q0 -10 -14 -25.5t-34 -15.5zM42 -466q-2 0 -2 3q0 85 130 212t324 262q-382 -476 -452 -477zM880 520 q-277 -212 -377 -212q-10 0 -10 7q0 33 49.5 102t94.5 119q21 24 74.5 75.5t92 91t38.5 49.5q0 5 -5.5 9t-11.5 4q-17 0 -49 -27q-10 -9 -29 -27t-39 -38.5t-42 -43t-39 -40.5t-29 -31l-12 -12q-9 -6 -24 -16.5t-61.5 -37t-92 -47t-107.5 -37t-115 -16.5q-7 0 -7 4q0 1 3 4 t3 5q0 5 -7 5q-13 0 -42 -13t-29 -30q0 -11 18 -11q83 0 190.5 38t173.5 76l66 37q3 0 3 -2l-22 -35q-21 -35 -42.5 -80t-21.5 -70q0 -27 26 -27q84 0 347 178q-136 -189 -324 -426q-100 -67 -184.5 -131t-164 -135.5t-125.5 -139t-46 -118.5q0 -5 5 -11.5t10 -6.5 q42 0 145 94.5t208.5 214t227.5 269.5q165 108 262 157q8 5 8 11q0 4 -5 4q-3 0 -9 -3q-78 -42 -234 -141q134 167 214 276q19 24 112 141.5t101 125.5q29 24 49.5 46.5t27.5 33t7 12.5q0 6 -5 11t-12 5t-20.5 -7t-39 -29t-54.5 -54q-16 -17 -45.5 -54.5t-51.5 -66.5z" />
<glyph unicode="&#x17d;" horiz-adv-x="687" d="M645 787l-1 2q0 3 6 3q10 0 21 -18t17 -38l32 14q31 14 65.5 27.5t41.5 13.5q4 0 6 -1.5t2 -3.5v-1q0 -3 -24 -15q-9 -4 -40.5 -22.5t-58.5 -33.5t-33 -15q-8 0 -10 9q-2 10 -4.5 25t-3.5 20.5t-5 14.5t-11 19zM56 -102q5 0 91 84q-67 39 -112 126q-11 0 -11 -80 q0 -51 8 -90.5t24 -39.5zM62 176q0 -25 27.5 -79t83.5 -90q161 159 376 379.5t215 229.5q0 1 -1 1q-73 -41 -121 -41q-35 0 -65 15t-47.5 33.5t-41.5 33.5t-49 15q-43 0 -84.5 -26t-68 -62t-42.5 -71t-16 -55q0 -15 10 -15q22 0 79.5 49.5t80.5 102.5q4 10 9 10t5 -9 q0 -4 -1 -6q-17 -45 -85 -105t-113 -60q-17 0 -17 24q0 26 20 66t54 80.5t89 69t115 28.5q25 0 50.5 -15t43.5 -32.5t46 -32.5t57 -15q28 0 69.5 21.5t65.5 40t31 25.5q5 5 10 5q7 0 18 -5.5t11 -11.5q0 -8 -6 -14q-421 -429 -679 -663q55 -29 128 -29q161 0 388 142l67 42 q7 4 15 4t8 -3q0 -1 -3 -3l-72 -44q-252 -163 -427 -163q-74 0 -131 29q-106 -95 -118 -95q-23 0 -34.5 31.5t-11.5 79.5q0 54 13 108t33 80q5 11 10 11q6 0 6 -11z" />
<glyph unicode="&#x17e;" horiz-adv-x="331" d="M-218 -336q0 -4 5 -4q41 0 165 110t193 201q-135 -76 -249 -176.5t-114 -130.5zM182 39q0 11 -13 11q-23 0 -62.5 -14.5t-60.5 -27.5q-12 -6 -18 -6q-5 0 -5 3q0 6 15 15q10 6 46.5 30t89.5 61.5t92.5 76.5t39.5 62q0 3 -4 3q-12 0 -36 -10t-56 -29t-59.5 -36t-63.5 -40 t-51 -32q-5 -3 -12 -8l-3 12q52 33 104.5 65t79.5 47l27 16q9 4 26.5 14.5t29 15.5t22.5 5q30 0 30 -29q0 -34 -29 -67.5t-64.5 -54t-64.5 -36.5t-29 -20t5 -4q48 0 48 -37v-6l162 99l1 -11q-65 -42 -120 -75q-26 -14 -46 -28q-16 -60 -107.5 -148.5t-188 -151t-133.5 -62.5 q-13 0 -13 12q0 10 11.5 30.5t41 53.5t72.5 70.5t115 86t159 96.5q22 31 22 48zM276 392l-1 2q0 3 6 3q10 0 21 -18t17 -38l31 13q32 14 66.5 28t41.5 14q4 0 6 -1.5t2 -2.5v-2q0 -3 -24 -15q-9 -4 -40.5 -22.5t-58.5 -33.5t-33 -15q-8 0 -10 9q-2 10 -4.5 25t-3.5 20.5 t-5 14.5t-11 19z" />
<glyph unicode="&#x2c6;" horiz-adv-x="500" d="M306 305l1 -2q0 -3 -6 -3q-10 0 -21 18t-17 38l-31 -14q-32 -14 -66.5 -27.5t-41.5 -13.5q-4 0 -6 1.5t-2 3.5v1q0 3 24 15q9 4 40.5 22.5t58.5 33.5t33 15q8 0 10 -9q2 -10 4.5 -25t3.5 -20.5t5 -14.5t11 -19z" />
<glyph unicode="&#x2c7;" horiz-adv-x="500" d="M118 389l-1 2q0 3 6 3q10 0 21 -18t17 -38l31 14q32 14 66.5 27.5t41.5 13.5q4 0 6 -1.5t2 -3.5v-1q0 -3 -24 -15q-9 -4 -40.5 -22.5t-58.5 -33.5t-33 -15q-8 0 -10 9q-2 10 -4.5 25t-3.5 20.5t-5 14.5t-11 19z" />
<glyph unicode="&#x2d8;" horiz-adv-x="203" d="M234 397q0 3 6 3q1 -21 3 -33.5t10 -22t22 -9.5q34 0 110 54q4 0 6 -1.5t2 -3.5v-1q-6 -4 -18 -14q-80 -62 -113 -62q-32 0 -32 50q0 8 4 40z" />
<glyph unicode="&#x2d9;" horiz-adv-x="295" d="M328 318q-14 0 -14 16q0 14 14.5 27.5t28.5 13.5q7 0 12 -6t5 -12q0 -9 -13.5 -24t-32.5 -15z" />
<glyph unicode="&#x2da;" horiz-adv-x="148" d="M50 291q-11 0 -17.5 9t-6.5 20q0 24 26 48.5t50 24.5q13 0 21.5 -9.5t8.5 -21.5q0 -18 -24 -44.5t-58 -26.5zM56 302q21 0 38 21.5t17 41.5q0 18 -16 18t-32 -25t-16 -44q0 -12 9 -12z" />
<glyph unicode="&#x2db;" horiz-adv-x="228" d="M47 9l5 -1q-1 -1 -6.5 -9t-10 -15t-8.5 -15.5t-4 -14.5q0 -14 20 -14q23 0 47 25q6 0 6 -5q-37 -42 -74 -42q-27 0 -27 17q0 16 18.5 40t33.5 34z" />
<glyph unicode="&#x2dc;" horiz-adv-x="500" d="M196 330q-1 -1 -5 -1q-7 0 -7 4q0 3 4 7q22 22 45 22q14 0 37.5 -12.5t35.5 -12.5q17 0 35 21q1 2 4 2q5 0 5 -9q0 -2 -1 -3q-26 -31 -58 -31q-16 0 -41 11t-34 11q-11 0 -20 -9z" />
<glyph unicode="&#x2dd;" horiz-adv-x="355" d="M266 362q0 -14 -69 -37t-79 -23q-4 0 -4 2q0 4 7 6q7 3 22.5 11.5t40.5 23t49 26.5q13 5 21 5q12 0 12 -14zM374 362q0 -14 -69 -37t-79 -23q-4 0 -4 2q0 4 7 6q7 3 22.5 11.5t40.5 23t49 26.5q13 5 21 5q12 0 12 -14z" />
<glyph unicode="&#x2013;" horiz-adv-x="415" d="M116 112q-11 0 -11 5q0 8 11 10q1 0 5.5 0.5t11.5 0.5h14q78 4 111 6l85 6q8 0 8 -6q0 -9 -6 -14.5t-13 -5.5z" />
<glyph unicode="&#x2014;" horiz-adv-x="661" d="M128 112q-22 0 -23 5q0 8 23 10q1 0 10 0.5t23 0.5h29q153 4 221 6l169 6q16 0 17 -6q0 -9 -12 -14.5t-26 -5.5z" />
<glyph unicode="&#x2018;" horiz-adv-x="236" d="M218 447q0 22 10 40t24 28.5t28 17.5t24 9l10 3q10 0 10 -4q0 -2 -7 -5q-12 -2 -40.5 -19t-28.5 -36q27 -4 27 -20t-12 -28t-27 -12q-8 0 -13 7.5t-5 18.5z" />
<glyph unicode="&#x2019;" horiz-adv-x="280" d="M304 519q0 -22 -10 -40t-24 -28.5t-28 -17.5t-24 -9l-10 -3q-10 0 -10 4q0 2 7 5q12 2 40.5 19t28.5 36q-27 4 -27 20t12 28t27 12q8 0 13 -7.5t5 -18.5z" />
<glyph unicode="&#x201a;" horiz-adv-x="141" d="M91 26q0 -22 -10 -40t-24 -28.5t-28 -17.5t-24 -10l-10 -2q-10 0 -10 4q0 2 7 5q12 2 40.5 19t28.5 36q-27 4 -27 20t12 28t27 12q8 0 13 -7.5t5 -18.5z" />
<glyph unicode="&#x201c;" horiz-adv-x="316" d="M218 447q0 22 10 40t24 28.5t28 17.5t24 9l10 3q10 0 10 -4q0 -2 -7 -5q-12 -2 -40.5 -19t-28.5 -36q27 -4 27 -20t-12 -28t-27 -12q-8 0 -13 7.5t-5 18.5zM298 447q0 22 10 40t24 28.5t28 17.5t24 9l10 3q10 0 10 -4q0 -2 -7 -5q-12 -2 -40.5 -19t-28.5 -36 q27 -4 27 -20t-12 -28t-27 -12q-8 0 -13 7.5t-5 18.5z" />
<glyph unicode="&#x201d;" horiz-adv-x="360" d="M384 519q0 -22 -10 -40t-24 -28.5t-28 -17.5t-24 -9l-10 -3q-10 0 -10 4q0 2 7 5q12 2 40.5 19t28.5 36q-27 4 -27 20t12 28t27 12q8 0 13 -7.5t5 -18.5zM304 519q0 -22 -10 -40t-24 -28.5t-28 -17.5t-24 -9l-10 -3q-10 0 -10 4q0 2 7 5q12 2 40.5 19t28.5 36 q-27 4 -27 20t12 28t27 12q8 0 13 -7.5t5 -18.5z" />
<glyph unicode="&#x201e;" horiz-adv-x="221" d="M171 26q0 -22 -10 -40t-24 -28.5t-28 -17.5t-24 -10l-10 -2q-10 0 -10 4q0 2 7 5q12 2 40.5 19t28.5 36q-27 4 -27 20t12 28t27 12q8 0 13 -7.5t5 -18.5zM91 26q0 -22 -10 -40t-24 -28.5t-28 -17.5t-24 -10l-10 -2q-10 0 -10 4q0 2 7 5q12 2 40.5 19t28.5 36 q-27 4 -27 20t12 28t27 12q8 0 13 -7.5t5 -18.5z" />
<glyph unicode="&#x2020;" horiz-adv-x="400" d="M100 -53q-2 -8 -11 -8q-4 0 -4 6q0 3 2 9q12 24 16 30q57 108 129 250h-3l-108 1q-12 0 -13 5q0 8 13 10h5q5 0 13 0.5t16 0.5q2 0 31 1t56 3q10 18 13 25l41 84q4 6 8 6q12 -5 12 -17q0 -7 -3 -12q-2 -4 -9.5 -18.5t-17 -32t-18.5 -34.5h2t3.5 0.5t6.5 0.5t12 0.5 t18 1.5t26 2t36 2q8 0 10 -6q0 -9 -7 -14.5t-15 -5.5q-37 -3 -104 -3z" />
<glyph unicode="&#x2022;" horiz-adv-x="349" d="M182 68q-13 0 -21 10.5t-8 24.5q0 29 31.5 58t60.5 29q15 0 25.5 -11.5t10.5 -25.5q0 -21 -28.5 -53t-70.5 -32z" />
<glyph unicode="&#x2026;" horiz-adv-x="289" d="M198 -6q-14 0 -14 16q0 14 14.5 27.5t28.5 13.5q7 0 12 -6t5 -12q0 -9 -13.5 -24t-32.5 -15zM123 -6q-14 0 -14 16q0 14 14.5 27.5t28.5 13.5q6 0 11 -6t5 -12q0 -9 -13 -24t-32 -15zM45 -6q-13 0 -13 16q0 14 14 27.5t28 13.5q7 0 12 -6t5 -12q0 -9 -13.5 -24t-32.5 -15 z" />
<glyph unicode="&#x2030;" horiz-adv-x="763" d="M553 -13q-41 0 -41 57q0 50 29.5 112t87.5 111.5t124 49.5q16 0 16 -18q0 -24 -29.5 -58t-58.5 -34q-9 0 -9 7q0 5 4.5 11t7.5 6t3 -4l-1 -5q17 2 44.5 32t27.5 46q0 9 -11 9q-45 0 -97.5 -53t-85.5 -118.5t-33 -107.5q0 -35 27 -35q56 0 132.5 89t87.5 187q0 11 3 11 t3 -6q1 -6 1 -19q0 -50 -28.5 -111.5t-84 -110t-119.5 -48.5zM305 -13q-41 0 -41 57q0 50 29.5 112t87.5 111.5t124 49.5q16 0 16 -18q0 -24 -29.5 -58t-58.5 -34q-9 0 -9 7q0 5 4.5 11t7.5 6t3 -4l-1 -5q17 2 44.5 32t27.5 46q0 9 -11 9q-45 0 -97.5 -53t-85.5 -118.5 t-33 -107.5q0 -35 27 -35q56 0 132.5 89t87.5 187q0 11 3 11t3 -6q1 -6 1 -19q0 -50 -28.5 -111.5t-84 -110t-119.5 -48.5zM89 217q-41 0 -41 57q0 50 29.5 112t87.5 111.5t124 49.5q16 0 16 -18q0 -24 -29.5 -58t-58.5 -34q-9 0 -9 7q0 5 4.5 11t7.5 6t3 -4l-1 -5 q17 2 44.5 32t27.5 46q0 9 -11 9q-45 0 -97.5 -53t-85.5 -118.5t-33 -107.5q0 -35 27 -35q56 0 132.5 89t87.5 187q0 11 3 11t3 -6q1 -6 1 -19q0 -50 -28.5 -111.5t-84 -110t-119.5 -48.5zM480 540q2 2 4.5 6.5t4 7t4 4.5t4.5 2q3 0 6 -5.5t3 -11.5q0 -4 -2 -7 q-56 -83 -119 -165t-101.5 -128t-114 -132.5t-103.5 -118.5q-11 -17 -20 -17q-7 0 -7 11q0 4 2 8q11 12 54.5 61t57 64.5t51 59t60.5 73t60.5 77t75 99t80.5 112.5z" />
<glyph unicode="&#x2039;" horiz-adv-x="386" d="M128 130l150 -72q5 -3 5 -7q0 -9 -14 -9l-133 64q-3 1 -7.5 3.5t-6.5 3.5t-5.5 2.5t-5.5 2.5t-4 2.5t-3.5 3t-2.5 3t-1.5 3t-0.5 3.5q0 15 28 20l176 26q6 0 6 -4q0 -3 -5 -5l-168 -25q-14 -3 -14 -9q0 -3 6 -6z" />
<glyph unicode="&#x203a;" horiz-adv-x="386" d="M281 106l-150 72q-5 3 -5 7q0 9 14 9l133 -64q3 -1 7.5 -3.5t6.5 -3.5t5.5 -2.5t5.5 -2.5t4 -2.5t3.5 -3t2.5 -3t1.5 -3t0.5 -3.5q0 -15 -28 -20l-176 -26q-6 0 -6 4q0 3 5 5l168 25q14 3 14 9q0 3 -6 6z" />
<glyph unicode="&#x2044;" horiz-adv-x="312" d="M388 540q2 2 4.5 6.5t4 7t4 4.5t4.5 2q3 0 6 -5.5t3 -11.5q0 -4 -2 -7q-56 -83 -119 -165t-101.5 -128t-114 -132.5t-103.5 -118.5q-11 -17 -20 -17q-7 0 -7 11q0 4 2 8q11 12 54.5 61t57 64.5t51 59t60.5 73t60.5 77t75 99t80.5 112.5z" />
<glyph unicode="&#x2074;" horiz-adv-x="284" d="M62 259q12 0 50 40q-19 -5 -36 -18t-17 -20q0 -2 3 -2zM350 497q6 7 13 7q14 0 14 -9q0 -2 -1.5 -6t-1.5 -5q-20 -32 -61 -103t-60 -103q28 -17 39 -17q21 0 36.5 14.5t15.5 24.5q0 3 -3 3q-7 0 -16 -7.5t-15 -15.5l-6 -8q-4 0 -4 3q0 2 1 3q3 9 17 21.5t26 12.5 q11 0 11 -10q0 -16 -21.5 -35.5t-48.5 -19.5q-19 0 -45 14q-10 -16 -22 -33.5t-26 -37t-20 -28.5q-7 -9 -11 -9q-7 2 -7 4q0 6 9 15q16 24 58 99q-58 29 -84 29q-20 -24 -41 -36.5t-34 -12.5q-11 0 -11 10q0 13 19 28t54 22q43 46 90.5 107.5t55.5 80.5q-1 -1 -4 -1h-3 q0 4 11 13t16 9q14 0 14 -7q0 -14 -52 -81.5t-104 -119.5q41 -1 82 -22l2 -1q22 38 65 115t53 93z" />
<glyph unicode="&#x20ac;" horiz-adv-x="471" d="M294 295q20 0 20 -5q0 -4 -11 -8.5t-22 -4.5q-5 0 -45.5 0.5t-74.5 0.5q-2 -3 -22 -31l131 -5q20 0 20 -5q0 -4 -12 -8.5t-24 -4.5q-5 0 -49 1t-81 1q-61 -97 -61 -166q0 -71 69 -71q100 0 249 93q5 4 13 4q6 0 6 -3q0 -2 -4 -5q-71 -47 -149 -77.5t-130 -30.5 q-41 0 -62 25.5t-21 69.5q0 72 50 161h-46q-9 0 -9 6q0 17 21 17q29 0 47 -1q6 10 20 30h-52q-9 0 -9 7q0 8 7 12.5t14 4.5t26 -0.5t31 -0.5q77 97 192 159t256 62q66 0 66 -29q0 -36 -84 -87.5t-144 -53.5q-24 0 -24 14q0 9 21.5 27.5t34.5 18.5q4 0 4 -4q0 -3 -12.5 -14.5 t-12.5 -16.5q0 -2 2 -2q33 1 115 45.5t82 70.5q0 19 -56 19q-111 0 -214.5 -59.5t-180.5 -150.5z" />
<glyph unicode="&#x2122;" horiz-adv-x="765" d="M460 597q0 3 -4 3q-16 0 -73 -59q27 4 52 24.5t25 31.5zM224 559q-5 -14 -24.5 -34.5t-34.5 -20.5q-12 0 -12 10q0 20 30.5 49t68.5 29q14 0 55 -26t57 -26q69 66 93 66q10 0 10 -7q0 -15 -30 -40.5t-64 -29.5q-61 -66 -130 -154.5t-69 -99.5q0 -2 2 -2l2 1l7 5q1 0 1 -2 q0 -4 -14 -14t-19 -10q-3 0 -8.5 3.5t-5.5 6.5q0 18 71.5 107.5t142.5 158.5q-33 3 -64 26.5t-50 23.5q-28 0 -51 -24t-23 -39q0 -5 4 -5q11 0 27.5 17.5t22.5 31.5q2 4 3 4q3 0 3 -2t-1 -3zM402 414q-14 0 -14 18q0 21 16.5 54t43 66t65.5 57t77 24q8 0 15.5 -5.5 t7.5 -17.5q0 -51 -154 -233l3 2q34 31 110.5 98.5t91.5 80.5l3 3t4.5 3.5t5.5 1.5q5 0 5 -5q0 -12 -31 -57t-62.5 -86.5t-31.5 -42.5l1 -1q24 21 96.5 89t125 115.5t58.5 47.5q5 0 5 -6q0 -21 -83 -125q-8 -10 -36 -43.5t-53.5 -64.5t-53 -65.5t-44 -60.5t-16.5 -35 q0 -2 1 -2q2 0 11.5 4.5t22 12t19.5 14.5q1 1 1.5 -0.5t0.5 -2.5l-1 -2q-5 -6 -27.5 -18.5t-28.5 -12.5q-13 0 -13 6q0 25 46 90.5t86.5 113t80.5 91.5q11 13 44 53t33 43q0 1 -1 1q-2 0 -148.5 -135t-187.5 -174q-4 -4 -10 -4q-11 0 -11 3t6 10q7 8 32 39t49.5 60.5t50 61 t41 52.5t15.5 24l1 3q-227 -200 -275 -252l-10 5q0 6 53.5 70t107.5 136.5t54 98.5q0 13 -8 13q-42 0 -89.5 -42.5t-75.5 -89.5t-28 -68q0 -8 6 -8q14 0 43.5 22t52.5 44l23 23q0 1 2 1t2 -2v-1q-10 -10 -26 -25.5t-50 -41.5t-50 -26z" />
<glyph unicode="&#x2212;" horiz-adv-x="400" d="M121 235q-12 0 -13 5q0 8 13 10h5q5 0 13 0.5t16 0.5q79 3 124 6l93 6q8 0 10 -6q0 -9 -7 -14.5t-15 -5.5q-47 -3 -131 -3z" />
<glyph unicode="&#x2264;" horiz-adv-x="347" d="M39 107q-12 0 -13 5q0 8 13 10h5q5 0 13 0.5t16 0.5q79 3 124 6l93 6q8 0 10 -6q0 -9 -7 -14.5t-15 -5.5q-46 -3 -131 -3zM117 253l197 -70q5 -2 5 -9q0 -9 -15 -9l-164 62q-3 1 -10.5 4.5t-12 5.5t-10 5.5t-8 8t-2.5 9.5q0 15 32 21l214 46q7 0 7 -11q0 -4 -6 -5 l-217 -41q-16 -4 -16 -11q0 -3 6 -6z" />
<glyph unicode="&#x2265;" horiz-adv-x="347" d="M318 226l-184 81q-5 2 -5 9q0 9 15 9l153 -73q43 -21 43 -33q0 -17 -32 -21l-222 -30q-3 0 -9 4t-6 6q0 4 6 5l231 26q16 3 16 10q0 4 -6 7zM39 107q-12 0 -13 5q0 8 13 10h5q5 0 13 0.5t16 0.5q79 3 124 6l93 6q8 0 10 -6q0 -9 -7 -14.5t-15 -5.5q-46 -3 -131 -3z" />
<glyph unicode="&#x25fc;" horiz-adv-x="265" d="M0 265h265v-265h-265v265z" />
<glyph unicode="&#xf8ff;" horiz-adv-x="799" d="M579 131q0 -67 -56.5 -101.5t-138.5 -34.5q-59 0 -164 49l12 60q83 -52 161 -52q51 0 82.5 21t31.5 53q0 29 -28.5 53.5t-69 44.5t-81 41.5t-69 53.5t-28.5 71q0 47 27.5 78t63 42t75.5 11q24 0 50 -7t40.5 -13.5t37 -19t25.5 -14.5l-13 -55q-60 53 -137 53 q-44 0 -72 -19.5t-28 -50.5q0 -29 28.5 -51t69.5 -39.5t82.5 -37t70 -54.5t28.5 -82zM742 258q0 142 -100.5 242t-242.5 100t-242 -100t-100 -242t100 -242t242 -100t242.5 100t100.5 242zM799 258q0 -166 -117 -282.5t-283 -116.5q-165 0 -282 116.5t-117 282.5t117 282.5 t282 116.5q166 0 283 -116.5t117 -282.5zM364 699l-113 108h74l74 -77l75 77h74l-113 -108q-24 2 -36 2q-17 0 -35 -2z" />
<glyph unicode="&#xfb01;" horiz-adv-x="348" d="M75 91q0 4 -2 4q-14 0 -24.5 -23t-10.5 -44q0 -10 3 -15q34 62 34 78zM447 333q-14 0 -14 17q0 14 15 28t29 14q7 0 12.5 -6t5.5 -12q0 -10 -14 -25.5t-34 -15.5zM570 683q0 2 -3 2q-35 0 -405 -450q101 73 254.5 235.5t153.5 212.5zM-242 -303q0 -3 4 -3q50 0 130.5 98 t141.5 208q-10 4 -10 24q0 31 21 66q-287 -359 -287 -393zM200 24q-3 -4 -3 -7q0 -4 5 -4q8 0 53 26.5t85 52.5l41 27l1 -13q-161 -107 -196 -107q-12 0 -12 16q0 19 41 78q-110 -69 -154 -87q-53 -112 -148 -219.5t-165 -107.5q-11 0 -11 13q0 37 189 288t400 489.5 t260 238.5q5 0 8 -3q1 -1 1 -5q0 -41 -56 -116t-136.5 -152.5t-154.5 -142.5t-125 -102l-64 -80q8 6 14 6q16 0 16 -21q0 -25 -21 -73q37 18 79 44l87 56q56 77 129 151q3 4 7 6t6 2h2q10 -1 23 -2q8 -1 8 -5q0 -3 -6 -11q-40 -40 -108 -118t-95 -118z" />
<glyph unicode="&#xfb02;" horiz-adv-x="381" d="M75 91q0 4 -2 4q-14 0 -24.5 -23t-10.5 -44q0 -10 3 -15q34 62 34 78zM570 683q0 2 -3 2q-35 0 -405 -450q101 73 254.5 235.5t153.5 212.5zM-242 -303q0 -3 4 -3q50 0 130.5 98t141.5 208q-10 4 -10 24q0 31 21 66q-287 -359 -287 -393zM776 655q0 2 -2 3 q-30 0 -221 -192t-290 -329q92 70 302.5 274.5t210.5 243.5zM123 187l-64 -80q8 6 14 6q16 0 16 -21q0 -25 -21 -73q37 18 79 44l67 42q51 98 175.5 236t243 236.5t160.5 98.5q4 0 5 -1q4 -2 4 -10q0 -48 -214.5 -255.5t-340.5 -295.5q-44 -63 -44 -91q0 -9 4 -9 q41 0 147 66l60 39l1 -13q-25 -16 -57 -36q-116 -72 -161 -72q-12 0 -12 19q0 26 19 69q-96 -61 -143 -80q-53 -112 -148 -219.5t-165 -107.5q-11 0 -11 13q0 37 189 288t400 489.5t260 238.5q5 0 8 -3q1 -1 1 -5q0 -41 -56 -116t-136.5 -152.5t-154.5 -142.5t-125 -102z " />
</font>
</defs>
</svg>
