<?xml version="1.0" standalone="no"?>
<!DOCTYPE svg PUBLIC "-//W3C//DTD SVG 1.1//EN" "http://www.w3.org/Graphics/SVG/1.1/DTD/svg11.dtd" >
<svg xmlns="http://www.w3.org/2000/svg">
<metadata></metadata>
<defs>
<font id="novecento_sans_wide_bookbold" horiz-adv-x="1368" >
<font-face units-per-em="2048" ascent="1681" descent="-367" />
<missing-glyph horiz-adv-x="512" />
<glyph horiz-adv-x="2048" />
<glyph horiz-adv-x="2048" />
<glyph unicode="&#xd;" horiz-adv-x="2048" />
<glyph unicode=" "  horiz-adv-x="512" />
<glyph unicode="&#x09;" horiz-adv-x="512" />
<glyph unicode="&#xa0;" horiz-adv-x="512" />
<glyph unicode="!" horiz-adv-x="712" d="M180 143q0 71 45.5 115.5t130.5 44.5q83 0 128.5 -45t45.5 -115q0 -71 -45 -116t-129 -45q-85 0 -130.5 45t-45.5 116zM184 410v1024h344v-1024h-344z" />
<glyph unicode="&#x22;" horiz-adv-x="985" d="M104 1434h320l-16 -514h-287zM557 1434h322l-19 -514h-285z" />
<glyph unicode="#" horiz-adv-x="1366" d="M57 143l84 301h135l70 258h-139l86 302h133l39 143h258l-39 -143h225l39 143h260l-39 -143h140l-84 -302h-135l-70 -258h137l-84 -301h-135l-39 -143h-260l39 143h-225l-39 -143h-258l39 143h-138zM512 428h260l80 293h-260z" />
<glyph unicode="$" horiz-adv-x="1030" d="M55 289l295 78q9 -57 52.5 -101.5t125.5 -44.5q59 0 93 24.5t34 73.5q0 26 -11.5 46.5t-27 33t-46.5 24t-55 17.5t-67.5 16.5t-70.5 18.5q-67 19 -115.5 42t-95 61.5t-70.5 98.5t-24 140q0 148 84 235t235 109v170h232v-170q273 -44 338 -278l-281 -76q-11 57 -55 89 t-119 32q-68 0 -99.5 -26t-31.5 -68q0 -58 46.5 -83.5t180.5 -58.5q46 -12 73 -20t72 -24.5t72 -33t60 -44t51.5 -59t31.5 -76t13 -97.5q0 -149 -90.5 -238.5t-245.5 -113.5v-170h-229v170q-63 9 -117 29.5t-103.5 55t-84.5 90t-50 128.5z" />
<glyph unicode="%" horiz-adv-x="1531" d="M68 815q0 167 71 260.5t219 93.5t219.5 -93.5t71.5 -260.5q0 -165 -71.5 -258.5t-219.5 -93.5t-219 93t-71 259zM270 815q0 -95 22 -129.5t66 -34.5q46 0 67 34t21 130t-21 130t-67 34q-44 0 -66 -34.5t-22 -129.5zM489 0l383 1147h168l-385 -1147h-166zM883 342 q0 164 72.5 258t220.5 94t218 -93.5t70 -258.5q0 -166 -70 -260t-218 -94t-220.5 94.5t-72.5 259.5zM1083 342q0 -96 23.5 -130t69.5 -34t68 34t22 130q0 95 -22 128.5t-68 33.5t-69.5 -34t-23.5 -128z" />
<glyph unicode="&#x26;" horiz-adv-x="1269" d="M80 317q0 101 49 172t129 95v4q-71 17 -122.5 84t-51.5 180q0 163 117 240t327 77q204 0 328 -70.5t191 -219.5l-297 -80q-26 56 -72 81t-119 25q-141 0 -141 -90q0 -115 162 -115h647v-231h-166v-100q0 -192 -129.5 -293t-372.5 -101q-239 0 -359 93.5t-120 248.5z M410 354q0 -118 155 -118q90 0 130 38t40 113v82h-174q-151 0 -151 -115z" />
<glyph unicode="'" horiz-adv-x="530" d="M104 1434h320l-16 -514h-287z" />
<glyph unicode="(" horiz-adv-x="845" d="M100 586q0 163 23.5 302t60 237t91.5 179t106.5 131.5t117.5 91.5t112.5 61t101.5 38l84 -315q-100 -30 -172 -94.5t-114 -159.5t-61.5 -211t-19.5 -260t19 -259t61 -211t114 -161t173 -96l-84 -316q-56 19 -102.5 39t-112.5 61.5t-117.5 92t-106.5 132t-91 179.5 t-59.5 237t-23.5 302z" />
<glyph unicode=")" horiz-adv-x="845" d="M49 -139q100 31 172 95.5t114 159.5t61.5 210.5t19.5 259.5t-19 259t-61 211t-114 161t-173 96l84 315q56 -18 102.5 -38t112 -61t117 -91.5t106.5 -131.5t91 -179.5t59.5 -237.5t23.5 -303q0 -127 -14.5 -240t-38 -200t-59.5 -163t-73 -131t-84.5 -102t-88.5 -77.5 t-91 -57.5t-85.5 -41.5t-77.5 -28.5z" />
<glyph unicode="*" horiz-adv-x="948" d="M115 1090l65 204l187 -61l-2 201h215v-201l190 61l64 -204l-193 -56l123 -162l-174 -129l-115 170l-117 -170l-176 127l125 164z" />
<glyph unicode="+" d="M268 434v281h269v293h294v-293h269v-281h-266v-293h-295l-2 293h-269z" />
<glyph unicode="," horiz-adv-x="579" d="M104 -63q90 20 125 94q-53 -2 -83.5 31.5t-30.5 91.5q0 63 46 105t118 42q87 0 141.5 -55.5t54.5 -151.5q0 -99 -66.5 -181.5t-179.5 -115.5z" />
<glyph unicode="-" horiz-adv-x="1169" d="M168 434v281h833v-281h-833z" />
<glyph unicode="." horiz-adv-x="579" d="M115 143q0 71 45.5 115.5t130.5 44.5q83 0 128.5 -45t45.5 -115q0 -71 -45 -116t-129 -45q-85 0 -130.5 45t-45.5 116z" />
<glyph unicode="/" horiz-adv-x="1044" d="M27 0l714 1434h277l-705 -1434h-286z" />
<glyph unicode="0" horiz-adv-x="1105" d="M68 573q0 295 130 445.5t355 150.5t355 -150.5t130 -445.5t-130 -445.5t-355 -150.5t-355 150.5t-130 445.5zM393 573q0 -165 37 -232t123 -67q85 0 123.5 67.5t38.5 231.5q0 165 -38.5 232t-123.5 67q-86 0 -123 -66.5t-37 -232.5z" />
<glyph unicode="1" horiz-adv-x="813" d="M49 881l328 266h303v-1147h-324v530q0 40 2.5 101.5t5 101t1.5 39.5h-7q-1 0 -12 -14.5t-28 -34.5t-31 -31l-49 -45z" />
<glyph unicode="2" horiz-adv-x="1048" d="M72 877q73 292 458 292q215 0 329 -92t114 -262q0 -63 -17.5 -116.5t-42 -90.5t-69 -74.5t-80.5 -60t-94 -55.5l-213 -127l2 -10q116 8 174 8h344v-289h-885v350l387 262q90 63 127 102t37 83t-33.5 72t-97.5 28q-55 0 -89.5 -27t-45.5 -75z" />
<glyph unicode="3" horiz-adv-x="1062" d="M68 301l286 78q36 -127 176 -127q71 0 110.5 32t39.5 85q0 52 -38 79t-103 27h-133v225h118q66 0 104 30t38 77q0 46 -36 74t-100 28q-67 0 -105 -30.5t-44 -77.5l-291 76q73 292 467 292q208 0 317 -77.5t109 -223.5q0 -67 -22.5 -120t-58 -83t-71.5 -46t-71 -19v-8 q100 -6 167.5 -77t67.5 -193q0 -157 -119 -251t-331 -94q-188 0 -312.5 81t-164.5 243z" />
<glyph unicode="4" horiz-adv-x="1150" d="M66 244v282l356 621h493v-633h164v-270h-164v-244h-323v244h-526zM365 522l4 -8h223v109v57.5t0.5 57t0.5 52.5v46.5t0.5 36.5t0.5 25v9h-14z" />
<glyph unicode="5" horiz-adv-x="1048" d="M72 260l278 70q15 -36 56.5 -61t105.5 -25q74 0 117 36.5t43 98.5t-43.5 98.5t-118.5 36.5q-95 0 -141 -57l-263 69l115 621h684v-301h-473l-10 -64l-14 -63l10 -4q63 35 164 35q189 0 292 -102.5t103 -268.5q0 -180 -121.5 -291t-333.5 -111q-181 0 -299 80.5 t-151 202.5z" />
<glyph unicode="6" horiz-adv-x="1058" d="M55 397q0 119 51.5 229t157.5 246l221 275h340l-346 -453l6 -6q49 43 150 43q153 0 259.5 -98t106.5 -258q0 -180 -129 -289t-344 -109q-210 0 -341.5 108.5t-131.5 311.5zM373 385q0 -63 43.5 -98t118.5 -35t118 35.5t43 99.5t-42 98.5t-119 34.5q-76 0 -119 -35 t-43 -100z" />
<glyph unicode="7" horiz-adv-x="1050" d="M61 846v301h947v-232l-516 -915h-332l317 559q36 63 78.5 133.5t65 107.5t22.5 38l-6 8h-576z" />
<glyph unicode="8" horiz-adv-x="1069" d="M68 319q0 118 66 189t161 96v6q-24 6 -51.5 22.5t-57.5 45.5t-49.5 77.5t-19.5 106.5q0 132 113.5 219.5t301.5 87.5t302 -87.5t114 -219.5q0 -58 -19 -106.5t-48 -77.5t-56.5 -45.5t-52.5 -22.5v-6q41 -11 78 -31.5t72 -53.5t56 -85t21 -115q0 -71 -28 -132t-82.5 -109 t-144.5 -75.5t-205 -27.5q-223 0 -347 96t-124 248zM377 340q0 -60 43.5 -92.5t111.5 -32.5q72 0 115 32.5t43 92.5q0 59 -44 91t-114 32q-71 0 -113 -32t-42 -91zM397 844q0 -53 37 -80t98 -27q64 0 101 27t37 80t-38.5 79.5t-99.5 26.5t-98 -27t-37 -79z" />
<glyph unicode="9" horiz-adv-x="1071" d="M66 768q0 176 134.5 288.5t338.5 112.5q97 0 182.5 -27t151 -79t103.5 -134t38 -184q0 -69 -16.5 -134.5t-36.5 -111t-57 -97.5t-57.5 -76.5t-58.5 -65.5l-233 -260h-358l393 436l-6 8q-44 -38 -146 -38q-166 0 -269 103.5t-103 258.5zM371 758q0 -68 43 -102.5 t118 -34.5q78 0 121 34.5t43 104.5q0 66 -44 100.5t-120 34.5q-74 0 -117.5 -35t-43.5 -102z" />
<glyph unicode=":" horiz-adv-x="579" d="M115 143q0 71 45.5 115.5t130.5 44.5q83 0 128.5 -45t45.5 -115q0 -71 -45 -116t-129 -45q-85 0 -130.5 45t-45.5 116zM115 817q0 71 45.5 115.5t130.5 44.5q83 0 128.5 -45t45.5 -115q0 -71 -45 -116.5t-129 -45.5t-130 45.5t-46 116.5z" />
<glyph unicode=";" horiz-adv-x="579" d="M104 -61q90 20 125 94q-53 -2 -83.5 31.5t-30.5 91.5q0 62 46.5 104.5t117.5 42.5q86 0 141 -56t55 -151q0 -99 -66.5 -181.5t-179.5 -115.5zM115 817q0 71 45.5 115.5t130.5 44.5q83 0 128.5 -45t45.5 -115q0 -71 -45 -116.5t-129 -45.5t-130 45.5t-46 116.5z" />
<glyph unicode="&#x3c;" d="M199 463v219l923 399v-290l-538 -216v-6l538 -213v-290z" />
<glyph unicode="=" d="M268 203v280h832v-280h-832zM268 678v280h832v-280h-832z" />
<glyph unicode="&#x3e;" d="M246 66v290l538 213v6l-538 216v290l923 -399v-219z" />
<glyph unicode="?" horiz-adv-x="1179" d="M57 1081q47 174 193 277.5t360 103.5q237 0 374.5 -120t137.5 -304q0 -301 -368 -436v-192h-346v348q213 66 290.5 118t77.5 117q0 61 -42 102.5t-134 41.5q-91 0 -140 -35t-79 -107zM403 143q0 70 46 115t131 45q83 0 128.5 -45t45.5 -115q0 -71 -45 -116t-129 -45 q-85 0 -131 45t-46 116z" />
<glyph unicode="@" horiz-adv-x="1654" d="M57 526q0 224 93 398t270 273t411 99q179 0 324.5 -56.5t241.5 -157.5t148 -240t52 -303q0 -186 -89.5 -309.5t-243.5 -123.5q-192 0 -256 154h-7q-24 -65 -93.5 -113.5t-180.5 -48.5q-171 0 -265.5 112.5t-94.5 299.5q0 197 89 309.5t269 112.5q76 0 131.5 -32t75.5 -66 h6v75h283v-407q0 -108 16 -155.5t70 -47.5q32 0 54 20t33 57t15 76t4 91q0 264 -155.5 425.5t-419.5 161.5q-138 0 -252 -47t-189 -129.5t-116 -193t-41 -238.5q0 -153 44 -268t124 -184.5t184.5 -103.5t232.5 -34q185 0 314 80l172 -86q-31 -25 -70 -48t-100.5 -50.5 t-146 -44t-177.5 -16.5q-171 0 -310 47.5t-239.5 140t-155.5 238t-55 333.5zM672 516q0 -77 36 -120.5t97 -43.5q62 0 96.5 42.5t36.5 117.5v8q0 74 -35 116t-98 42q-62 0 -97.5 -43t-35.5 -119z" />
<glyph unicode="A" horiz-adv-x="1552" d="M27 0l553 1434h391l555 -1434h-369l-86 238h-596l-86 -238h-362zM588 551h370l-102 285l-80 211h-6q-2 -2 -80 -209z" />
<glyph unicode="B" horiz-adv-x="1294" d="M115 0v1434h618q189 0 312.5 -110t123.5 -263q0 -109 -57.5 -186t-126.5 -103v-8q113 -33 186.5 -122t73.5 -224q0 -85 -31 -159t-92 -132.5t-161.5 -92.5t-229.5 -34h-616zM459 285h241q87 0 135 45t48 119q0 76 -49 119.5t-134 43.5h-241v-327zM459 866h209 q70 0 112.5 39.5t42.5 102.5q0 61 -42.5 101t-114.5 40h-207v-283z" />
<glyph unicode="C" horiz-adv-x="1533" d="M57 721q0 215 96.5 384.5t266 263t381.5 93.5q238 0 415 -115.5t252 -297.5l-340 -93q-118 183 -344 183q-173 0 -277 -116.5t-104 -305.5t106 -304.5t273 -115.5q133 0 225 60t138 157l338 -90q-79 -209 -263.5 -331t-418.5 -122q-213 0 -382 93t-265.5 264.5 t-96.5 392.5z" />
<glyph unicode="D" horiz-adv-x="1538" d="M115 0v1434h610q159 0 298.5 -52.5t240.5 -146.5t159 -229.5t58 -294.5t-58.5 -293.5t-159.5 -225.5t-239.5 -141.5t-296.5 -50.5h-612zM459 319h248q83 0 157 22t136 67t98.5 123t36.5 180q0 101 -36.5 180.5t-98 127t-136.5 71.5t-157 24h-248v-795z" />
<glyph unicode="E" horiz-adv-x="1255" d="M115 0v1434h1044v-320h-700v-246h516v-286h-516v-263h710v-319h-1054z" />
<glyph unicode="F" horiz-adv-x="1214" d="M115 0v1434h1026v-320h-682v-274h530v-320h-530v-520h-344z" />
<glyph unicode="G" horiz-adv-x="1597" d="M57 719q0 216 96.5 386t266 263.5t381.5 93.5q237 0 416.5 -116t250.5 -297l-340 -93q-47 79 -132.5 131t-211.5 52q-172 0 -276.5 -116.5t-104.5 -305.5q0 -191 114.5 -305.5t305.5 -114.5q133 0 228 45.5t137 101.5v68h-361v319h680v-831h-307q0 36 0.5 58.5t1 31 t0.5 10.5h-4q-65 -55 -174.5 -92t-228.5 -37q-149 0 -283.5 55t-235 151.5t-160 237.5t-59.5 304z" />
<glyph unicode="H" horiz-adv-x="1468" d="M115 0v1434h344v-541h551v541h344v-1434h-344v563h-551v-563h-344z" />
<glyph unicode="I" horiz-adv-x="573" d="M115 0v1434h344v-1434h-344z" />
<glyph unicode="J" horiz-adv-x="1058" d="M0 113l199 264q69 -80 182 -80q73 0 118.5 21.5t70 72t32.5 114t8 165.5v764h344v-797q0 -323 -144 -494.5t-425 -171.5q-249 0 -385 142z" />
<glyph unicode="K" horiz-adv-x="1443" d="M115 0v1434h344v-619h6q61 72 518 619h410l-510 -580l538 -854h-401l-391 604l-170 -190v-414h-344z" />
<glyph unicode="L" horiz-adv-x="1165" d="M115 0v1434h344v-1115h643v-319h-987z" />
<glyph unicode="M" horiz-adv-x="1673" d="M115 0v1434h364l361 -641h6l362 641h351v-1434h-345v350v107t0.5 94.5t1 81.5t0.5 69t0.5 56t1 44.5t1 31.5t0.5 20v6h-5q-1 -1 -20.5 -37t-55 -100t-65.5 -117l-139 -252h-193l-139 248q-31 55 -66.5 120t-54.5 101t-20 37h-6v-6q0 -7 0.5 -20t0.5 -31.5t0.5 -44.5 t1 -56t0.5 -69t0.5 -81.5t0.5 -94.5v-107v-350h-344z" />
<glyph unicode="N" horiz-adv-x="1536" d="M115 0v1434h348l610 -840h6v11q0 11 -0.5 30.5t-0.5 44.5v56.5t-0.5 63.5t-0.5 68v68v498h344v-1434h-350l-610 856h-6v-11q0 -11 0.5 -30t1 -44.5t1 -58t1 -67t0.5 -75v-78.5v-492h-344z" />
<glyph unicode="O" horiz-adv-x="1626" d="M57 717q0 162 57 301t156.5 236.5t240 152.5t302.5 55t302.5 -55t240 -152.5t156.5 -236.5t57 -301t-57 -301t-156.5 -236.5t-240 -153t-302.5 -55.5t-302.5 55.5t-240 153t-156.5 236.5t-57 301zM403 717q0 -190 114.5 -305t295.5 -115t295.5 115t114.5 305 q0 191 -114.5 306.5t-295.5 115.5t-295.5 -115.5t-114.5 -306.5z" />
<glyph unicode="P" horiz-adv-x="1257" d="M115 0v1434h534q264 0 414.5 -132t150.5 -362q0 -227 -151 -360.5t-414 -133.5h-190v-446h-344zM459 745h200q105 0 158 50.5t53 138.5t-52.5 137t-158.5 49h-200v-375z" />
<glyph unicode="Q" horiz-adv-x="1626" d="M57 717q0 162 57 301t156.5 236.5t240 152.5t302.5 55t302.5 -55t240 -152.5t156.5 -236.5t57 -301q0 -282 -160 -479t-424 -250v-277h-344v277q-264 53 -424 250t-160 479zM403 717q0 -190 114.5 -305t295.5 -115q179 0 294.5 115.5t115.5 304.5q0 191 -115 306.5 t-295 115.5q-181 0 -295.5 -115.5t-114.5 -306.5z" />
<glyph unicode="R" horiz-adv-x="1320" d="M115 0v1434h544q268 0 420 -131t152 -355q0 -148 -69.5 -252.5t-200.5 -154.5l327 -541h-407l-269 473h-153v-473h-344zM459 748h223q96 0 146.5 47t50.5 137q0 91 -50.5 140.5t-148.5 49.5h-221v-374z" />
<glyph unicode="S" horiz-adv-x="1284" d="M55 358l328 88q22 -82 95.5 -127t189.5 -45q100 0 155.5 35t55.5 103q0 33 -14.5 57.5t-36 38.5t-59 25.5t-70 17t-83.5 15t-86 18.5q-47 11 -86 23t-85.5 32t-82.5 42.5t-71.5 56.5t-58.5 74t-37.5 94.5t-14.5 117.5q0 214 147 326t396 112q224 0 373.5 -93.5 t208.5 -281.5l-328 -88q-55 162 -260 162q-95 0 -141 -34t-46 -93q0 -78 85 -116q51 -24 210 -55l43 -9q71 -14 128 -32t119 -52t103 -79.5t68 -116.5t27 -160q0 -218 -145.5 -330.5t-411.5 -112.5q-80 0 -152.5 10t-148 37t-135 69t-107.5 111.5t-72 159.5z" />
<glyph unicode="T" horiz-adv-x="1347" d="M63 1114v320h1221v-320h-438v-1114h-344v1114h-439z" />
<glyph unicode="U" horiz-adv-x="1454" d="M102 639v795h349v-785q0 -182 69.5 -267t210.5 -85q140 0 210.5 85t70.5 267v785h340v-795q0 -318 -169 -493t-456 -175q-288 0 -456.5 174.5t-168.5 493.5z" />
<glyph unicode="V" horiz-adv-x="1507" d="M23 1434h391l221 -680q25 -75 46.5 -141.5t35 -108.5t23.5 -73t15 -46t5 -16h6q0 1 5 16t14.5 45.5t23 72t35 107t45.5 138.5l223 686h373l-512 -1434h-438z" />
<glyph unicode="W" horiz-adv-x="2181" d="M33 1434h383l162 -613q23 -87 46.5 -180t34 -133.5t11.5 -42.5h8q2 5 80 301l143 532h418l141 -536q76 -288 80 -297h6q5 9 92 344l170 625h342l-417 -1434h-377l-176 592q-25 83 -46 160.5t-30.5 113.5t-9.5 37h-9q-1 -1 -9.5 -36.5t-29.5 -117.5t-45 -171l-157 -578 h-393z" />
<glyph unicode="X" horiz-adv-x="1550" d="M41 0l532 737l-507 697h417l164 -238q29 -40 68 -95.5t57 -80.5t19 -25h2q2 0 133 201l153 238h412l-502 -697l520 -737h-432l-170 250q-136 203 -137 203h-2q-1 0 -143 -205l-168 -248h-416z" />
<glyph unicode="Y" horiz-adv-x="1460" d="M23 1434l397 2l221 -392q20 -36 45.5 -81t37.5 -66.5t13 -22.5h6q1 1 13.5 23.5t37 66t46.5 80.5l229 390h367l-535 -869v-565h-344v565z" />
<glyph unicode="Z" horiz-adv-x="1366" d="M76 0v319l645 654q36 36 72 70.5t51.5 49t15.5 15.5l-4 8h-12q-12 0 -32.5 -0.5t-44.5 -1t-53.5 -0.5h-54.5h-563v320h1192v-332l-606 -619q-40 -41 -82 -80.5t-63 -57.5t-21 -19l4 -9h6q5 0 15.5 0.5t24.5 0.5h32.5t39 0.5t46 0.5h51.5h553v-319h-1212z" />
<glyph unicode="[" horiz-adv-x="888" d="M188 -434v2074h623v-305h-297v-1462h297v-307h-623z" />
<glyph unicode="\" horiz-adv-x="1044" d="M27 1434h278l713 -1434h-287z" />
<glyph unicode="]" horiz-adv-x="888" d="M78 -121h295v1462h-295v308h622v-2075h-622v305z" />
<glyph unicode="^" d="M129 911l410 525h286l412 -525l-250 -163l-305 403l-303 -403z" />
<glyph unicode="_" horiz-adv-x="1511" d="M115 0h1284v-272h-1284v272z" />
<glyph unicode="`" horiz-adv-x="1198" d="M352 1831l266 84l230 -371h-305z" />
<glyph unicode="a" horiz-adv-x="1275" d="M27 0l407 1147h408l407 -1147h-336l-63 201h-430l-64 -201h-329zM504 477h260l-47 146q-78 246 -78 262h-8q-2 -4 -86 -275z" />
<glyph unicode="b" horiz-adv-x="1138" d="M115 0v1147h542q160 0 266.5 -91.5t106.5 -215.5q0 -86 -45.5 -143.5t-103.5 -82.5v-8q94 -31 151.5 -100.5t57.5 -169.5q0 -66 -26 -124.5t-78 -107t-138.5 -76.5t-198.5 -28h-534zM438 266h185q129 0 129 105q0 104 -129 104h-185v-209zM438 694h148q119 0 119 92 q0 43 -29 69t-90 26h-148v-187z" />
<glyph unicode="c" horiz-adv-x="1284" d="M57 571q0 127 45.5 237.5t126.5 190t197.5 125t253.5 45.5q194 0 339.5 -89.5t211.5 -248.5l-307 -81q-99 122 -246 122q-132 0 -211.5 -83t-79.5 -216q0 -136 81 -217.5t212 -81.5q161 0 240 121l311 -82q-74 -156 -213.5 -246t-335.5 -90q-184 0 -326.5 76.5 t-220.5 211.5t-78 306z" />
<glyph unicode="d" horiz-adv-x="1284" d="M115 0v1147h471q183 0 327.5 -68t229 -200.5t84.5 -309.5q0 -179 -85 -309.5t-229 -195t-329 -64.5h-469zM438 301h142q157 0 237 62.5t80 205.5q0 277 -313 277h-146v-545z" />
<glyph unicode="e" horiz-adv-x="1114" d="M115 0v1147h903v-301h-580v-139h398v-254h-398v-152h590v-301h-913z" />
<glyph unicode="f" horiz-adv-x="1038" d="M115 0v1147h850v-301h-527v-203h381v-283h-381v-360h-323z" />
<glyph unicode="g" d="M57 575q0 259 174 426.5t451 167.5q192 0 339 -87.5t216 -250.5l-297 -79q-36 60 -104.5 92.5t-153.5 32.5q-138 0 -216.5 -79.5t-78.5 -224.5q0 -139 88 -220t248 -81q71 0 151 20t113 44v63h-297v285h588v-684h-289q0 34 0.5 55t1 29.5t0.5 11.5h-4q-48 -50 -137 -84.5 t-197 -34.5q-123 0 -232.5 44.5t-189.5 122t-127 190t-47 241.5z" />
<glyph unicode="h" horiz-adv-x="1273" d="M115 0v1147h323v-424h396v424h325v-1147h-325v422h-396v-422h-323z" />
<glyph unicode="i" horiz-adv-x="552" d="M115 0v1147h323v-1147h-323z" />
<glyph unicode="j" horiz-adv-x="937" d="M0 90l178 236q58 -52 152 -52q60 0 96.5 15.5t55 53.5t24.5 84t6 124v596h324v-619q0 -269 -126.5 -410t-375.5 -141q-215 0 -334 113z" />
<glyph unicode="k" horiz-adv-x="1294" d="M115 0v1147h323v-473h8q13 13 101 119l303 354h403l-411 -451l428 -696h-371l-293 475l-168 -184v-291h-323z" />
<glyph unicode="l" horiz-adv-x="1007" d="M115 0v1147h323v-846h504v-301h-827z" />
<glyph unicode="m" horiz-adv-x="1482" d="M115 0v1147h395l152 -287q23 -42 46.5 -89t35 -71t12.5 -24h8q2 0 14 23t38 73.5t46 89.5l148 285h360v-1147h-326v666h-6l-196 -392h-205l-201 412h-8v-686h-313z" />
<glyph unicode="n" horiz-adv-x="1345" d="M115 0v1147h336l448 -623h6v623h326v-1147h-340l-447 645h-8v-7q0 -8 0.5 -21.5t0.5 -31v-40.5t0.5 -47t0.5 -52v-55v-391h-323z" />
<glyph unicode="o" horiz-adv-x="1353" d="M57 573q0 172 79 308t220.5 212t319.5 76q179 0 320.5 -76t220.5 -212t79 -308t-79 -308t-220.5 -212t-320.5 -76q-178 0 -319.5 76t-220.5 212t-79 308zM387 573q0 -134 79.5 -216.5t209.5 -82.5q132 0 211.5 82.5t79.5 216.5t-79.5 216.5t-211.5 82.5 q-130 0 -209.5 -82.5t-79.5 -216.5z" />
<glyph unicode="p" horiz-adv-x="1116" d="M115 0v1147h471q226 0 355.5 -113t129.5 -299q0 -188 -128.5 -296.5t-356.5 -108.5h-148v-330h-323zM438 594h160q70 0 106.5 36.5t36.5 98.5q0 57 -35.5 95t-107.5 38h-160v-268z" />
<glyph unicode="q" horiz-adv-x="1347" d="M57 573q0 172 79 308t220.5 212t319.5 76q179 0 320.5 -76t220.5 -212t79 -308q0 -219 -125.5 -375t-334.5 -204v-232h-324v234q-206 48 -330.5 203.5t-124.5 373.5zM387 573q0 -134 79.5 -216.5t209.5 -82.5q132 0 211.5 82.5t79.5 216.5t-79.5 216.5t-211.5 82.5 q-130 0 -209.5 -82.5t-79.5 -216.5z" />
<glyph unicode="r" horiz-adv-x="1187" d="M115 0v1147h483q231 0 360 -106.5t129 -288.5q0 -123 -53.5 -204t-138.5 -120l260 -428h-348l-217 362l-105 -2h-47v-360h-323zM438 608h178q70 0 105 32t35 91t-35 91t-105 32h-178v-246z" />
<glyph unicode="s" horiz-adv-x="1105" d="M55 289l295 78q11 -54 63.5 -97t153.5 -43q152 0 152 105q0 22 -6.5 38t-23 28t-33.5 20t-49.5 16t-60 13.5l-75 15t-84.5 18.5q-53 13 -93 27t-83 40t-71 59t-46 85t-18 117q0 180 122 270t343 90q200 0 327 -73.5t168 -212.5l-282 -76q-15 53 -67 83t-130 30 q-69 0 -108 -25t-39 -72q0 -48 46.5 -68.5t179.5 -47.5q30 -6 46 -9q54 -10 97.5 -23t97 -41t89.5 -64.5t60.5 -96.5t24.5 -135q0 -95 -37 -166t-103.5 -112.5t-152 -62t-189.5 -20.5q-87 0 -163 14t-151 47t-127.5 97t-72.5 154z" />
<glyph unicode="t" horiz-adv-x="1181" d="M63 846v301h1055v-301h-364v-846h-326v846h-365z" />
<glyph unicode="u" horiz-adv-x="1300" d="M102 555v592h330v-623q0 -130 55.5 -190t165.5 -60t165.5 60t55.5 190v623h324v-592q0 -148 -40 -260t-113.5 -181t-172 -103t-221.5 -34q-124 0 -223.5 34t-173 103t-113 181t-39.5 260z" />
<glyph unicode="v" horiz-adv-x="1318" d="M23 1147h362l162 -453q78 -221 121 -350h6q0 1 5.5 16.5t16 45.5t24.5 69.5t34 98.5t41 122l153 451h346l-436 -1147h-397z" />
<glyph unicode="w" horiz-adv-x="1826" d="M33 1147h346l115 -424q25 -90 44.5 -166.5t26.5 -105t8 -29.5h7q1 1 8 28.5t25.5 96t41.5 145.5l103 363h352l98 -365q20 -77 36.5 -145t22.5 -95t7 -28h6q1 1 8 29t27.5 105.5t44.5 166.5l121 424h313l-334 -1147h-340l-119 391l-83 283h-7q-1 -1 -86 -285l-118 -389 h-340z" />
<glyph unicode="x" horiz-adv-x="1298" d="M41 0l403 582l-376 565h387l106 -168q105 -166 107 -166h2q4 0 112 174l97 160h350l-379 -565l407 -582h-391l-125 182q-29 41 -56.5 81.5t-39 58.5t-12.5 18h-2q-3 0 -107 -158l-116 -182h-367z" />
<glyph unicode="y" horiz-adv-x="1210" d="M23 1147h370l121 -232q24 -47 51.5 -102.5t41 -83.5t14.5 -29h6q1 1 14 28t41 83.5t51 103.5l119 232h336l-422 -756v-391h-326v391z" />
<glyph unicode="z" horiz-adv-x="1173" d="M76 0v313l438 385q46 40 89 76.5t57 48.5t14 13l-4 10h-576v301h1004v-313l-404 -361q-54 -48 -104.5 -89.5t-71 -58t-20.5 -18.5l4 -8h10q11 0 29 0.5t41 1t54 0.5h62h400v-301h-1022z" />
<glyph unicode="{" horiz-adv-x="966" d="M115 451v292l7 1q8 0 15 1t19 4t22 7t22.5 12t23 18.5t20.5 26t17 34t11 44t4 55.5v141q0 248 161 397.5t450 149.5v-293q-52 0 -91 -6t-80 -25.5t-67.5 -52t-43.5 -90t-17 -135.5v-106q0 -73 -18.5 -133.5t-44 -95t-55.5 -59t-50.5 -33t-30.5 -9.5q9 0 30 -10.5 t50.5 -36t55.5 -61t44.5 -94t18.5 -126.5v-108q0 -78 17 -136t43.5 -91.5t67 -53.5t80.5 -26.5t91 -6.5v-290q-289 0 -450 150t-161 400v142q0 30 -4 55.5t-10.5 44t-16.5 34t-20.5 26t-23 18.5t-23 12t-22.5 7t-19 4t-15 1z" />
<glyph unicode="|" horiz-adv-x="514" d="M123 -152v1739h268v-1739h-268z" />
<glyph unicode="}" horiz-adv-x="966" d="M80 -150q65 0 113 11t93 42t69 95.5t24 161.5v106q0 73 18.5 133.5t44 95t55.5 59t50.5 33t30.5 9.5q-9 0 -30 10.5t-50.5 36t-55.5 61t-44.5 94t-18.5 126.5v108q0 78 -17 136t-43.5 91.5t-67 53.5t-80.5 26.5t-91 6.5v290q289 0 448.5 -150.5t159.5 -400.5v-141 q0 -30 4.5 -55.5t11.5 -44t17 -34t20.5 -26t23.5 -18.5t23.5 -12t22 -7t19 -4t14.5 -1l8 -1v-292l-8 -1q-7 0 -14.5 -1t-19 -4t-22 -7t-23.5 -12t-23.5 -18.5t-20.5 -26t-17 -34t-11.5 -44t-4.5 -55.5v-142q0 -248 -159.5 -397t-448.5 -149v292z" />
<glyph unicode="~" d="M209 643q25 33 93.5 64.5t148.5 31.5t215.5 -40t220.5 -40q61 0 119.5 27t99.5 62l51 -271q-21 -32 -89.5 -65t-147.5 -33q-82 0 -219 41t-220 41q-65 0 -124 -25.5t-93 -62.5z" />
<glyph unicode="&#xa1;" horiz-adv-x="712" d="M182 1290q0 71 45 116.5t129 45.5t130 -45.5t46 -116.5t-45.5 -115.5t-130.5 -44.5q-83 0 -128.5 45t-45.5 115zM184 0v1024h344v-1024h-344z" />
<glyph unicode="&#xa2;" horiz-adv-x="1177" d="M57 590q0 203 111 344.5t299 181.5v213h276v-213q133 -28 234.5 -107.5t148.5 -213.5l-299 -86q-68 139 -215 139q-116 0 -177.5 -70.5t-61.5 -191.5q0 -126 62.5 -198.5t174.5 -72.5q144 0 213 131l301 -79q-47 -124 -148.5 -212t-232.5 -120v-197h-276v199 q-180 46 -295 194.5t-115 358.5z" />
<glyph unicode="&#xa3;" horiz-adv-x="1087" d="M70 412v217h75q-16 148 -16 198q0 158 104 250t310 92q65 0 122 -9t116 -33t103.5 -62t78 -100.5t45.5 -143.5l-299 -82q-23 92 -59.5 125t-90.5 33q-58 0 -86.5 -28t-28.5 -101q0 -53 13 -139h325v-217h-297v-15q0 -60 -32 -90l4 -8h12.5t32.5 0.5t48 1t67 0.5h83h314 v-301h-940v301q58 9 75 30.5t17 76.5v4h-96z" />
<glyph unicode="&#xa4;" horiz-adv-x="1351" d="M61 1012l166 168l142 -140q136 93 303 93q164 0 311 -93l139 140l168 -168l-141 -140q86 -138 86 -299q0 -162 -92 -307l133 -135l-166 -168l-137 137q-138 -88 -301 -88q-164 0 -295 86l-135 -135l-168 168l133 135q-92 145 -92 307q0 163 86 299zM418 573 q0 -116 74 -186t182 -70q110 0 183 69.5t73 186.5q0 112 -73.5 184t-182.5 72q-107 0 -181.5 -72t-74.5 -184z" />
<glyph unicode="&#xa5;" horiz-adv-x="1110" d="M41 1147h356l109 -303q49 -142 51 -142h6q2 0 51 142l109 303h346l-168 -361h109v-174h-191l-37 -77h228v-175h-293v-360h-326v360h-285v175h220l-37 77h-183v174h103z" />
<glyph unicode="&#xa6;" horiz-adv-x="514" d="M123 -152v584h268v-584h-268zM123 1004v583h268v-583h-268z" />
<glyph unicode="&#xa7;" d="M150 258l319 86q11 -64 67.5 -99.5t153.5 -35.5q174 0 174 92q0 18 -6 30.5t-22.5 22.5t-34.5 16.5t-55 14t-69.5 13t-92 16t-109.5 20.5q-311 61 -311 271q0 155 149 229q-129 69 -129 223q0 153 121.5 229t345.5 76q223 0 360.5 -71.5t188.5 -204.5l-280 -76 q-64 133 -256 133q-138 0 -138 -78q0 -19 5.5 -32.5t20.5 -23.5t30.5 -16.5t46 -13t55.5 -10.5t71 -11.5t81 -13.5q72 -13 126.5 -27.5t105.5 -38t83.5 -53.5t52 -74t19.5 -99q0 -158 -152 -224q146 -85 146 -241q0 -158 -129 -237t-369 -79q-108 0 -199.5 15.5t-169.5 48.5 t-130 89.5t-70 133.5zM473 758q0 -22 10.5 -40t32.5 -31t45.5 -22.5t61 -18t67 -14t75 -14t75.5 -14.5q69 31 69 98q0 36 -17 60t-62.5 40.5t-78 23.5t-109.5 19q-28 5 -42 7l-29 6q-98 -29 -98 -100z" />
<glyph unicode="&#xa8;" horiz-adv-x="1198" d="M231 1710q0 62 44.5 107t109.5 45q61 0 103 -45t42 -107t-43 -105.5t-106 -43.5q-64 0 -107 43.5t-43 105.5zM668 1710q0 62 43.5 107t105.5 45q63 0 107.5 -45t44.5 -107t-44.5 -105.5t-107.5 -43.5t-106 43.5t-43 105.5z" />
<glyph unicode="&#xa9;" horiz-adv-x="1603" d="M57 543q0 165 58.5 305.5t159.5 236t237 149.5t289 54q205 0 374 -91.5t270 -263t101 -390.5q0 -163 -59 -303.5t-159.5 -237t-237 -151t-289.5 -54.5t-289 54.5t-236.5 151t-159.5 237t-59 303.5zM225 545q0 -256 162 -420t414 -164t413.5 163t161.5 421 q0 256 -161 417.5t-414 161.5t-414.5 -161.5t-161.5 -417.5zM399 539q0 172 111 282.5t287 110.5q126 0 218 -59.5t132 -163.5l-203 -54q-45 70 -139 70q-86 0 -135 -50t-49 -134t50 -133.5t134 -49.5q93 0 143 68l205 -68q-45 -93 -137.5 -150.5t-218.5 -57.5 q-177 0 -287.5 109t-110.5 280z" />
<glyph unicode="&#xaa;" horiz-adv-x="872" d="M72 147v207h729v-207h-729zM74 481l231 666h266l226 -666h-205l-35 109h-250l-35 -109h-198zM354 739h156l-31 97q-11 36 -22 73t-15.5 53.5t-5.5 16.5h-8q-1 0 -6 -16.5t-16.5 -54.5t-22.5 -72z" />
<glyph unicode="&#xab;" horiz-adv-x="1509" d="M123 575l483 480l185 -185l-308 -290v-9l310 -288l-189 -189zM717 575l483 480l184 -185l-305 -290v-9l307 -288l-188 -189z" />
<glyph unicode="&#xad;" horiz-adv-x="1169" d="M168 434v281h833v-281h-833z" />
<glyph unicode="&#xae;" horiz-adv-x="1603" d="M57 543q0 165 58.5 305.5t159.5 236t237 149.5t289 54q205 0 374 -91.5t270 -263t101 -390.5q0 -163 -59 -303.5t-159.5 -237t-237 -151t-289.5 -54.5t-289 54.5t-236.5 151t-159.5 237t-59 303.5zM225 545q0 -256 162 -420t414 -164t413.5 163t161.5 421 q0 256 -161 417.5t-414 161.5t-414.5 -161.5t-161.5 -417.5zM479 168v756h330q156 0 243 -71.5t87 -193.5q0 -141 -131 -196l159 -295h-249l-134 254h-79v-254h-226zM705 586h116q43 0 65.5 19t22.5 52q0 32 -22 52t-66 20h-116v-143z" />
<glyph unicode="&#xaf;" horiz-adv-x="1198" d="M258 1550v283h682v-283h-682z" />
<glyph unicode="&#xb0;" horiz-adv-x="618" d="M23 1434q0 126 79 200t207 74q129 0 208 -74t79 -200q0 -125 -79.5 -200t-207.5 -75q-127 0 -206.5 75t-79.5 200zM203 1434q0 -50 29 -79.5t77 -29.5t78.5 29.5t30.5 79.5q0 51 -30.5 80.5t-78.5 29.5t-77 -29t-29 -81z" />
<glyph unicode="&#xb1;" d="M268 2v281h832v-281h-832zM268 672v280h267v279h299v-279h266v-280h-264v-242h-299l-2 242h-267z" />
<glyph unicode="&#xb2;" horiz-adv-x="696" d="M51 1552q57 230 307 230q133 0 207 -64t74 -186q0 -130 -119 -221q-31 -24 -83.5 -59.5t-89 -58.5t-36.5 -24l4 -10q75 6 105 6h229v-190h-588v252l267 162q52 30 74 56.5t22 59.5q0 38 -22.5 59t-67.5 21q-86 0 -105 -82z" />
<glyph unicode="&#xb3;" horiz-adv-x="696" d="M43 1186l188 57q15 -98 115 -98q47 0 75 23.5t28 60.5t-27 59.5t-74 22.5h-55v135h45q45 0 71.5 23.5t26.5 60.5q0 33 -24.5 53.5t-67.5 20.5q-46 0 -72.5 -23t-35.5 -78l-179 47q16 106 91.5 169t209.5 63q135 0 207 -59t72 -158q0 -74 -37 -124.5t-90 -58.5v-8 q58 -8 100.5 -57.5t42.5 -126.5q0 -99 -80 -165.5t-202 -66.5q-148 0 -226.5 63.5t-101.5 164.5z" />
<glyph unicode="&#xb4;" horiz-adv-x="1198" d="M352 1544l228 371l268 -84l-193 -287h-303z" />
<glyph unicode="&#xb6;" horiz-adv-x="1419" d="M57 772q0 183 109 279t313 96h826v-1434h-344v1114h-138v-1114h-344v668q-205 0 -313.5 100t-108.5 291z" />
<glyph unicode="&#xb7;" horiz-adv-x="579" d="M115 578q0 70 45.5 114.5t130.5 44.5q83 0 128.5 -44.5t45.5 -114.5q0 -71 -45 -116.5t-129 -45.5t-130 45.5t-46 116.5z" />
<glyph unicode="&#xb8;" horiz-adv-x="1198" d="M352 -131q50 -16 135 -16q136 0 136 47q0 32 -59.5 46t-196.5 13v166h227v-66q118 -5 190 -55.5t72 -153.5q0 -215 -315 -215q-123 0 -189 25v209z" />
<glyph unicode="&#xb9;" horiz-adv-x="696" d="M53 1540l238 225h207v-600h149v-190h-516v188h150v195q0 106 14 153h-10q-1 0 -7.5 -8t-18 -21.5t-21.5 -23.5l-48 -49z" />
<glyph unicode="&#xba;" horiz-adv-x="845" d="M72 817q0 153 101 252.5t249 99.5t250 -99.5t102 -252.5q0 -150 -102 -249t-250 -99t-249 98.5t-101 249.5zM92 143v205h662v-205h-662zM272 817q0 -70 39.5 -114t110.5 -44q73 0 112 44t39 114q0 72 -39 117t-112 45q-71 0 -110.5 -45t-39.5 -117z" />
<glyph unicode="&#xbb;" horiz-adv-x="1509" d="M123 283l307 288v9l-305 290l184 185l484 -480l-482 -481zM717 283l309 288v9l-307 290l184 185l483 -480l-481 -481z" />
<glyph unicode="&#xbc;" horiz-adv-x="1740" d="M53 1208l238 226h207v-600h149v-191h-516v188h150v195q0 107 14 154h-10q-1 0 -7.5 -8.5t-18 -22t-21.5 -23.5l-48 -49zM555 0l428 1434h203l-428 -1434h-203zM1067 164v178l231 451h320v-439h100v-190h-100v-162h-207v162h-344zM1274 362l6 -8h131v154q0 89 4 121h-12 q-1 0 -63 -129t-66 -138z" />
<glyph unicode="&#xbd;" horiz-adv-x="1740" d="M53 1208l238 226h207v-600h149v-191h-516v188h150v195q0 107 14 154h-10q-1 0 -7.5 -8.5t-18 -22t-21.5 -23.5l-48 -49zM555 0l428 1434h203l-428 -1434h-203zM1096 580q57 229 307 229q133 0 206.5 -63.5t73.5 -186.5q0 -131 -118 -221q-31 -24 -83.5 -59t-89 -58 t-36.5 -24l4 -11q88 7 104 7h230v-191h-588v252l266 162q52 32 74 57.5t22 58.5q0 38 -22.5 59t-67.5 21q-85 0 -104 -82z" />
<glyph unicode="&#xbe;" horiz-adv-x="1740" d="M43 854l188 57q15 -98 115 -98q47 0 75 23.5t28 60.5t-27 59.5t-74 22.5h-55v135h45q45 0 71.5 23.5t26.5 60.5q0 33 -24.5 53.5t-67.5 20.5q-46 0 -72.5 -23t-35.5 -78l-179 48q16 106 91.5 168.5t209.5 62.5q135 0 207 -59t72 -158q0 -74 -37 -124t-90 -58v-9 q58 -8 100.5 -57.5t42.5 -126.5q0 -99 -80 -165t-202 -66q-148 0 -226.5 63t-101.5 164zM555 0l428 1434h203l-428 -1434h-203zM1067 164v178l231 451h320v-439h100v-190h-100v-162h-207v162h-344zM1274 362l6 -8h131v154q0 89 4 121h-12q-1 0 -63 -129t-66 -138z" />
<glyph unicode="&#xbf;" horiz-adv-x="1179" d="M57 395q0 302 371 436v193h344v-348q-213 -66 -291 -118.5t-78 -117.5q0 -61 42.5 -102t136.5 -41q89 0 138 34.5t79 106.5l323 -86q-47 -174 -193 -277.5t-360 -103.5q-237 0 -374.5 120t-137.5 304zM426 1290q0 71 45 116.5t129 45.5t130 -45.5t46 -116.5t-45.5 -115.5 t-130.5 -44.5q-83 0 -128.5 45t-45.5 115z" />
<glyph unicode="&#xc0;" horiz-adv-x="1552" d="M27 0l553 1434h391l555 -1434h-369l-86 238h-596l-86 -238h-362zM440 1831l267 84l229 -371h-305zM588 551h370l-102 285l-80 211h-6q-2 -2 -80 -209z" />
<glyph unicode="&#xc1;" horiz-adv-x="1552" d="M27 0l553 1434h391l555 -1434h-369l-86 238h-596l-86 -238h-362zM588 551h370l-102 285l-80 211h-6q-2 -2 -80 -209zM614 1544l230 371l268 -84l-192 -287h-306z" />
<glyph unicode="&#xc2;" horiz-adv-x="1552" d="M27 0l553 1434h391l555 -1434h-369l-86 238h-596l-86 -238h-362zM401 1694l365 266l364 -266l-145 -181l-219 154l-217 -154zM588 551h370l-102 285l-80 211h-6q-2 -2 -80 -209z" />
<glyph unicode="&#xc3;" horiz-adv-x="1552" d="M27 0l553 1434h391l555 -1434h-369l-86 238h-596l-86 -238h-362zM379 1817q17 22 72.5 43.5t126.5 21.5q66 0 174.5 -30.5t177.5 -30.5q104 0 178 57l49 -248q-17 -22 -72 -43.5t-124 -21.5q-67 0 -176 30.5t-175 30.5q-55 0 -105 -17t-77 -40zM588 551h370l-102 285 l-80 211h-6q-2 -2 -80 -209z" />
<glyph unicode="&#xc4;" horiz-adv-x="1552" d="M27 0l553 1434h391l555 -1434h-369l-86 238h-596l-86 -238h-362zM406 1710q0 62 44.5 107t108.5 45q61 0 104.5 -45t43.5 -107q0 -61 -44 -105t-106 -44q-64 0 -107.5 43.5t-43.5 105.5zM588 551h370l-102 285l-80 211h-6q-2 -2 -80 -209zM844 1710q0 63 42.5 107.5 t106.5 44.5q62 0 106 -45t44 -107t-43.5 -105.5t-106.5 -43.5q-64 0 -106.5 43.5t-42.5 105.5z" />
<glyph unicode="&#xc5;" horiz-adv-x="1552" d="M27 0l553 1434h391l555 -1434h-369l-86 238h-596l-86 -238h-362zM489 1745q0 120 78.5 186t206.5 66q129 0 208 -66t79 -186q0 -119 -79 -184.5t-208 -65.5q-128 0 -206.5 65.5t-78.5 184.5zM588 551h370l-102 285l-80 211h-6q-2 -2 -80 -209zM676 1745q0 -39 26.5 -61.5 t71.5 -22.5q46 0 72 22t26 62q0 41 -26 63.5t-72 22.5q-45 0 -71.5 -22.5t-26.5 -63.5z" />
<glyph unicode="&#xc6;" horiz-adv-x="2064" d="M27 0l555 1434h1384v-301h-700v-259h534v-288h-534v-285h712v-301h-1046v254h-449l-92 -254h-364zM588 541h344v592h-127z" />
<glyph unicode="&#xc7;" horiz-adv-x="1533" d="M57 721q0 215 96.5 384.5t266 263t381.5 93.5q238 0 415 -115.5t252 -297.5l-340 -93q-118 183 -344 183q-173 0 -277 -116.5t-104 -305.5t106 -304.5t273 -115.5q133 0 225 60t138 157l338 -90q-59 -155 -180 -264.5t-279 -155.5q70 -57 70 -154q0 -103 -78 -159 t-238 -56q-122 0 -188 25v209q46 -16 135 -16q135 0 135 47q0 32 -60 46t-198 13v37q-247 59 -396 253.5t-149 471.5z" />
<glyph unicode="&#xc8;" horiz-adv-x="1255" d="M115 0v1434h1044v-320h-700v-246h516v-286h-516v-263h710v-319h-1054zM326 1831l268 84l229 -371h-305z" />
<glyph unicode="&#xc9;" horiz-adv-x="1255" d="M115 0v1434h1044v-320h-700v-246h516v-286h-516v-263h710v-319h-1054zM502 1544l229 371l266 -84l-190 -287h-305z" />
<glyph unicode="&#xca;" horiz-adv-x="1255" d="M115 0v1434h1044v-320h-700v-246h516v-286h-516v-263h710v-319h-1054zM289 1694l364 266l365 -266l-148 -181l-217 154l-219 -154z" />
<glyph unicode="&#xcb;" horiz-adv-x="1255" d="M115 0v1434h1044v-320h-700v-246h516v-286h-516v-263h710v-319h-1054zM293 1710q0 62 44.5 107t108.5 45q61 0 104.5 -45t43.5 -107t-44.5 -105.5t-107.5 -43.5t-106 43.5t-43 105.5zM729 1710q0 62 44 107t108 45q62 0 105.5 -45t43.5 -107t-43 -105.5t-106 -43.5 q-64 0 -108 43.5t-44 105.5z" />
<glyph unicode="&#xcc;" horiz-adv-x="573" d="M-49 1831l268 84l227 -371h-303zM115 0v1434h344v-1434h-344z" />
<glyph unicode="&#xcd;" horiz-adv-x="573" d="M115 0v1434h344v-1434h-344zM127 1544l229 371l267 -84l-191 -287h-305z" />
<glyph unicode="&#xce;" horiz-adv-x="573" d="M2 1706l285 254l284 -254l-157 -172l-127 113l-127 -113zM115 0v1434h344v-1434h-344z" />
<glyph unicode="&#xcf;" horiz-adv-x="573" d="M-35 1710q0 62 45 107t109 45q61 0 104 -45t43 -107t-44 -105.5t-107 -43.5t-106.5 43.5t-43.5 105.5zM115 0v1434h344v-1434h-344zM307 1710q0 62 44 107t108 45q61 0 105 -45t44 -107t-44 -105.5t-105 -43.5q-64 0 -108 43.5t-44 105.5z" />
<glyph unicode="&#xd0;" horiz-adv-x="1538" d="M20 575v304h95v555h610q159 0 298.5 -52.5t240.5 -146.5t159 -229.5t58 -294.5t-58.5 -293.5t-159.5 -225.5t-239.5 -141.5t-296.5 -50.5h-612v575h-95zM459 319h248q83 0 157 22t136 67t98.5 123t36.5 180q0 101 -36.5 180.5t-98 127t-136.5 71.5t-157 24h-248v-235h293 v-304h-293v-256z" />
<glyph unicode="&#xd1;" horiz-adv-x="1536" d="M115 0v1434h348l610 -840h6v11q0 11 -0.5 30.5t-0.5 44.5v56.5t-0.5 63.5t-0.5 68v68v498h344v-1434h-350l-610 856h-6v-11q0 -11 0.5 -30t1 -44.5t1 -58t1 -67t0.5 -75v-78.5v-492h-344zM367 1817q18 23 72 44t126 21q66 0 176 -30.5t179 -30.5q104 0 178 57l49 -248 q-17 -22 -72.5 -43.5t-124.5 -21.5q-66 0 -176 30.5t-176 30.5q-56 0 -105.5 -17t-74.5 -40z" />
<glyph unicode="&#xd2;" horiz-adv-x="1626" d="M57 717q0 162 57 301t156.5 236.5t240 152.5t302.5 55t302.5 -55t240 -152.5t156.5 -236.5t57 -301t-57 -301t-156.5 -236.5t-240 -153t-302.5 -55.5t-302.5 55.5t-240 153t-156.5 236.5t-57 301zM403 717q0 -190 114.5 -305t295.5 -115t295.5 115t114.5 305 q0 191 -114.5 306.5t-295.5 115.5t-295.5 -115.5t-114.5 -306.5zM479 1831l269 84l227 -371h-303z" />
<glyph unicode="&#xd3;" horiz-adv-x="1626" d="M57 717q0 162 57 301t156.5 236.5t240 152.5t302.5 55t302.5 -55t240 -152.5t156.5 -236.5t57 -301t-57 -301t-156.5 -236.5t-240 -153t-302.5 -55.5t-302.5 55.5t-240 153t-156.5 236.5t-57 301zM403 717q0 -190 114.5 -305t295.5 -115t295.5 115t114.5 305 q0 191 -114.5 306.5t-295.5 115.5t-295.5 -115.5t-114.5 -306.5zM655 1544l230 371l266 -84l-190 -287h-306z" />
<glyph unicode="&#xd4;" horiz-adv-x="1626" d="M57 717q0 162 57 301t156.5 236.5t240 152.5t302.5 55t302.5 -55t240 -152.5t156.5 -236.5t57 -301t-57 -301t-156.5 -236.5t-240 -153t-302.5 -55.5t-302.5 55.5t-240 153t-156.5 236.5t-57 301zM403 717q0 -190 114.5 -305t295.5 -115t295.5 115t114.5 305 q0 191 -114.5 306.5t-295.5 115.5t-295.5 -115.5t-114.5 -306.5zM440 1694l367 266l364 -266l-147 -181l-217 154l-219 -154z" />
<glyph unicode="&#xd5;" horiz-adv-x="1626" d="M57 717q0 162 57 301t156.5 236.5t240 152.5t302.5 55t302.5 -55t240 -152.5t156.5 -236.5t57 -301t-57 -301t-156.5 -236.5t-240 -153t-302.5 -55.5t-302.5 55.5t-240 153t-156.5 236.5t-57 301zM403 717q0 -190 114.5 -305t295.5 -115q179 0 294.5 115.5t115.5 304.5 q0 191 -115 306.5t-295 115.5q-181 0 -295.5 -115.5t-114.5 -306.5zM418 1817q18 23 73 44t127 21q65 0 174.5 -30.5t178.5 -30.5q104 0 178 57l49 -248q-17 -22 -72.5 -43.5t-124.5 -21.5q-67 0 -176 30.5t-176 30.5q-55 0 -104 -16.5t-76 -40.5z" />
<glyph unicode="&#xd6;" horiz-adv-x="1626" d="M57 717q0 162 57 301t156.5 236.5t240 152.5t302.5 55t302.5 -55t240 -152.5t156.5 -236.5t57 -301t-57 -301t-156.5 -236.5t-240 -153t-302.5 -55.5t-302.5 55.5t-240 153t-156.5 236.5t-57 301zM403 717q0 -190 114.5 -305t295.5 -115t295.5 115t114.5 305 q0 191 -114.5 306.5t-295.5 115.5t-295.5 -115.5t-114.5 -306.5zM446 1710q0 62 45 107t109 45q61 0 104.5 -45t43.5 -107t-44.5 -105.5t-107.5 -43.5t-106.5 43.5t-43.5 105.5zM883 1710q0 62 43.5 107t107.5 45q61 0 105.5 -45t44.5 -107q0 -61 -44 -105t-106 -44 q-64 0 -107.5 43.5t-43.5 105.5z" />
<glyph unicode="&#xd7;" d="M250 348l229 227l-229 228l205 203l229 -224l229 224l205 -205l-229 -226l229 -227l-205 -207l-229 228l-229 -228z" />
<glyph unicode="&#xd8;" horiz-adv-x="1626" d="M57 717q0 162 57 301t156.5 236.5t240 152.5t302.5 55q185 0 338 -69l168 219l221 -164l-164 -215q193 -206 193 -516q0 -162 -57 -301t-156.5 -236.5t-240 -153t-302.5 -55.5q-192 0 -350 76l-166 -215l-221 170l164 211q-183 205 -183 504zM403 717q0 -144 70 -250 l496 643q-76 29 -156 29q-181 0 -295.5 -115.5t-114.5 -306.5zM639 330q84 -33 174 -33q179 0 294.5 115.5t115.5 304.5q0 160 -82 268z" />
<glyph unicode="&#xd9;" horiz-adv-x="1454" d="M102 639v795h349v-785q0 -182 69.5 -267t210.5 -85q140 0 210.5 85t70.5 267v785h340v-795q0 -318 -169 -493t-456 -175q-288 0 -456.5 174.5t-168.5 493.5zM403 1831l267 84l229 -371h-305z" />
<glyph unicode="&#xda;" horiz-adv-x="1454" d="M102 639v795h349v-785q0 -182 69.5 -267t210.5 -85q140 0 210.5 85t70.5 267v785h340v-795q0 -318 -169 -493t-456 -175q-288 0 -456.5 174.5t-168.5 493.5zM580 1544l229 371l266 -84l-190 -287h-305z" />
<glyph unicode="&#xdb;" horiz-adv-x="1454" d="M102 639v795h349v-785q0 -182 69.5 -267t210.5 -85q140 0 210.5 85t70.5 267v785h340v-795q0 -318 -169 -493t-456 -175q-288 0 -456.5 174.5t-168.5 493.5zM365 1694l366 266l365 -266l-148 -181l-217 154l-219 -154z" />
<glyph unicode="&#xdc;" horiz-adv-x="1454" d="M102 639v795h349v-785q0 -182 69.5 -267t210.5 -85q140 0 210.5 85t70.5 267v785h340v-795q0 -318 -169 -493t-456 -175q-288 0 -456.5 174.5t-168.5 493.5zM371 1710q0 62 44.5 107t108.5 45q61 0 104.5 -45t43.5 -107t-44.5 -105.5t-107.5 -43.5t-106 43.5t-43 105.5z M807 1710q0 62 43.5 107t105.5 45q63 0 107.5 -45t44.5 -107t-44.5 -105.5t-107.5 -43.5t-106 43.5t-43 105.5z" />
<glyph unicode="&#xdd;" horiz-adv-x="1460" d="M23 1434l397 2l221 -392q20 -36 45.5 -81t37.5 -66.5t13 -22.5h6q1 1 13.5 23.5t37 66t46.5 80.5l229 390h367l-535 -869v-565h-344v565zM604 1544l230 371l266 -84l-191 -287h-305z" />
<glyph unicode="&#xde;" horiz-adv-x="1243" d="M115 0v1434h344v-244h176q263 0 413 -130t150 -355q0 -221 -149.5 -345t-413.5 -124h-176v-236h-344zM459 541h196q97 0 148 44.5t51 121.5q0 75 -50.5 119t-148.5 44h-196v-329z" />
<glyph unicode="&#xdf;" horiz-adv-x="1249" d="M115 0v1147h991l-244 -447l2 -6h6q144 0 240 -98t96 -252q0 -102 -43 -185.5t-129.5 -135.5t-202.5 -52q-213 0 -299 99l132 227q19 -18 31 -27.5t37.5 -20.5t51.5 -11q54 0 83.5 31t29.5 71q0 50 -36 82.5t-105 32.5h-176v213l92 172l-4 6h-230v-846h-323z" />
<glyph unicode="&#xe0;" horiz-adv-x="1275" d="M27 0l407 1147h408l407 -1147h-336l-63 201h-430l-64 -201h-329zM305 1544l268 84l230 -371h-305zM504 477h260l-47 146q-78 246 -78 262h-8q-2 -4 -86 -275z" />
<glyph unicode="&#xe1;" horiz-adv-x="1275" d="M27 0l407 1147h408l407 -1147h-336l-63 201h-430l-64 -201h-329zM481 1257l230 371l266 -84l-191 -287h-305zM504 477h260l-47 146q-78 246 -78 262h-8q-2 -4 -86 -275z" />
<glyph unicode="&#xe2;" horiz-adv-x="1275" d="M27 0l407 1147h408l407 -1147h-336l-63 201h-430l-64 -201h-329zM356 1419l285 254l285 -254l-158 -172l-127 113l-127 -113zM504 477h260l-47 146q-78 246 -78 262h-8q-2 -4 -86 -275z" />
<glyph unicode="&#xe3;" horiz-adv-x="1275" d="M27 0l407 1147h408l407 -1147h-336l-63 201h-430l-64 -201h-329zM283 1530q14 22 66 43.5t110 21.5q61 0 158 -30.5t157 -30.5q47 0 91.5 17t70.5 40l49 -248q-12 -21 -64.5 -43t-111.5 -22t-157 30.5t-158 30.5q-46 0 -90 -17t-70 -40zM504 477h260l-47 146 q-78 246 -78 262h-8q-2 -4 -86 -275z" />
<glyph unicode="&#xe4;" horiz-adv-x="1275" d="M27 0l407 1147h408l407 -1147h-336l-63 201h-430l-64 -201h-329zM272 1423q0 62 45 107t109 45q61 0 104 -45t43 -107t-44 -105.5t-107 -43.5t-106.5 43.5t-43.5 105.5zM504 477h260l-47 146q-78 246 -78 262h-8q-2 -4 -86 -275zM709 1423q0 62 43.5 107t107.5 45 q62 0 106 -45t44 -107t-43.5 -105.5t-106.5 -43.5q-64 0 -107.5 43.5t-43.5 105.5z" />
<glyph unicode="&#xe5;" horiz-adv-x="1275" d="M27 0l407 1147h408l407 -1147h-336l-63 201h-430l-64 -201h-329zM356 1458q0 120 78.5 186t206.5 66t207.5 -66t79.5 -186q0 -118 -79.5 -184t-207.5 -66t-206.5 65.5t-78.5 184.5zM504 477h260l-47 146q-78 246 -78 262h-8q-2 -4 -86 -275zM543 1458q0 -39 26.5 -61.5 t71.5 -22.5q46 0 72 22t26 62q0 41 -26 63.5t-72 22.5q-45 0 -71.5 -22.5t-26.5 -63.5z" />
<glyph unicode="&#xe6;" horiz-adv-x="1718" d="M27 0l413 1147h1182v-301h-578v-139h396v-254h-396v-152h588v-301h-895v201h-319l-62 -201h-329zM498 459h239v399h-116z" />
<glyph unicode="&#xe7;" horiz-adv-x="1284" d="M57 571q0 127 45.5 237.5t126.5 190t197.5 125t253.5 45.5q194 0 339.5 -89.5t211.5 -248.5l-307 -81q-99 122 -246 122q-132 0 -211.5 -83t-79.5 -216q0 -136 81 -217.5t212 -81.5q161 0 240 121l311 -82q-114 -236 -348 -307q71 -52 71 -156q0 -212 -315 -212 q-125 0 -188 24v207q50 -16 137 -16q133 0 133 47q0 65 -256 59v49q-188 59 -298 209.5t-110 353.5z" />
<glyph unicode="&#xe8;" horiz-adv-x="1114" d="M115 0v1147h903v-301h-580v-139h398v-254h-398v-152h590v-301h-913zM233 1544l269 84l229 -371h-305z" />
<glyph unicode="&#xe9;" horiz-adv-x="1114" d="M115 0v1147h903v-301h-580v-139h398v-254h-398v-152h590v-301h-913zM410 1257l229 371l266 -84l-190 -287h-305z" />
<glyph unicode="&#xea;" horiz-adv-x="1114" d="M115 0v1147h903v-301h-580v-139h398v-254h-398v-152h590v-301h-913zM197 1407l364 266l365 -266l-148 -180l-217 153l-219 -153z" />
<glyph unicode="&#xeb;" horiz-adv-x="1114" d="M115 0v1147h903v-301h-580v-139h398v-254h-398v-152h590v-301h-913zM201 1423q0 62 44.5 107t108.5 45q61 0 104.5 -45t43.5 -107t-44.5 -105.5t-107.5 -43.5t-106 43.5t-43 105.5zM637 1423q0 62 43.5 107t107.5 45q62 0 106 -45t44 -107t-43.5 -105.5t-106.5 -43.5 q-64 0 -107.5 43.5t-43.5 105.5z" />
<glyph unicode="&#xec;" horiz-adv-x="552" d="M-55 1544l266 84l229 -371h-305zM115 0v1147h323v-1147h-323z" />
<glyph unicode="&#xed;" horiz-adv-x="552" d="M115 0v1147h323v-1147h-323zM119 1257l229 371l268 -84l-192 -287h-305z" />
<glyph unicode="&#xee;" horiz-adv-x="552" d="M-4 1419l283 254l284 -254l-157 -172l-127 113l-125 -113zM115 0v1147h323v-1147h-323z" />
<glyph unicode="&#xef;" horiz-adv-x="552" d="M-43 1423q0 62 45 107t109 45q61 0 104 -45t43 -107t-43 -105.5t-106 -43.5q-64 0 -108 43.5t-44 105.5zM115 0v1147h323v-1147h-323zM301 1423q0 62 44 107t106 45q63 0 107 -45t44 -107t-44 -105.5t-107 -43.5t-106.5 43.5t-43.5 105.5z" />
<glyph unicode="&#xf0;" horiz-adv-x="1284" d="M20 457v231h95v459h471q183 0 327.5 -68t229 -200.5t84.5 -309.5q0 -179 -85 -309.5t-229 -195t-329 -64.5h-469v457h-95zM438 301h142q157 0 237 62.5t80 205.5q0 277 -313 277h-146v-158h275v-231h-275v-156z" />
<glyph unicode="&#xf1;" horiz-adv-x="1345" d="M115 0v1147h336l448 -623h6v623h326v-1147h-340l-447 645h-8v-7q0 -8 0.5 -21.5t0.5 -31v-40.5t0.5 -47t0.5 -52v-55v-391h-323zM307 1530q14 22 66 43.5t110 21.5q61 0 158 -30.5t158 -30.5q47 0 91.5 17t70.5 40l49 -248q-14 -22 -65.5 -43.5t-110.5 -21.5 q-60 0 -158 30.5t-158 30.5q-46 0 -90 -17t-70 -40z" />
<glyph unicode="&#xf2;" horiz-adv-x="1353" d="M57 573q0 172 79 308t220.5 212t319.5 76q179 0 320.5 -76t220.5 -212t79 -308t-79 -308t-220.5 -212t-320.5 -76q-178 0 -319.5 76t-220.5 212t-79 308zM340 1544l266 84l230 -371h-304zM387 573q0 -134 79.5 -216.5t209.5 -82.5q132 0 211.5 82.5t79.5 216.5 t-79.5 216.5t-211.5 82.5q-130 0 -209.5 -82.5t-79.5 -216.5z" />
<glyph unicode="&#xf3;" horiz-adv-x="1353" d="M57 573q0 172 79 308t220.5 212t319.5 76q179 0 320.5 -76t220.5 -212t79 -308t-79 -308t-220.5 -212t-320.5 -76q-178 0 -319.5 76t-220.5 212t-79 308zM387 573q0 -134 79.5 -216.5t209.5 -82.5q132 0 211.5 82.5t79.5 216.5t-79.5 216.5t-211.5 82.5 q-130 0 -209.5 -82.5t-79.5 -216.5zM516 1257l229 371l267 -84l-191 -287h-305z" />
<glyph unicode="&#xf4;" horiz-adv-x="1353" d="M57 573q0 172 79 308t220.5 212t319.5 76q179 0 320.5 -76t220.5 -212t79 -308t-79 -308t-220.5 -212t-320.5 -76q-178 0 -319.5 76t-220.5 212t-79 308zM301 1407l367 266l364 -266l-147 -180l-217 153l-219 -153zM387 573q0 -134 79.5 -216.5t209.5 -82.5 q132 0 211.5 82.5t79.5 216.5t-79.5 216.5t-211.5 82.5q-130 0 -209.5 -82.5t-79.5 -216.5z" />
<glyph unicode="&#xf5;" horiz-adv-x="1353" d="M57 573q0 172 79 308t220.5 212t319.5 76q179 0 320.5 -76t220.5 -212t79 -308t-79 -308t-220.5 -212t-320.5 -76q-178 0 -319.5 76t-220.5 212t-79 308zM315 1530q16 22 68.5 43.5t110.5 21.5q59 0 156.5 -30.5t158.5 -30.5q46 0 90 17t70 40l51 -248q-14 -22 -66 -43.5 t-110 -21.5q-60 0 -158 30.5t-158 30.5q-46 0 -90.5 -17.5t-68.5 -39.5zM387 573q0 -134 79.5 -216.5t209.5 -82.5q132 0 211.5 82.5t79.5 216.5t-79.5 216.5t-211.5 82.5q-130 0 -209.5 -82.5t-79.5 -216.5z" />
<glyph unicode="&#xf6;" horiz-adv-x="1353" d="M57 573q0 172 79 308t220.5 212t319.5 76q179 0 320.5 -76t220.5 -212t79 -308t-79 -308t-220.5 -212t-320.5 -76q-178 0 -319.5 76t-220.5 212t-79 308zM307 1423q0 62 45 107t109 45q61 0 104 -45t43 -107t-44 -105.5t-107 -43.5t-106.5 43.5t-43.5 105.5zM387 573 q0 -134 79.5 -216.5t209.5 -82.5q132 0 211.5 82.5t79.5 216.5t-79.5 216.5t-211.5 82.5q-130 0 -209.5 -82.5t-79.5 -216.5zM743 1423q0 62 44 107t108 45q61 0 105 -45t44 -107q0 -61 -44 -105t-105 -44q-64 0 -108 43.5t-44 105.5z" />
<glyph unicode="&#xf7;" d="M268 434v281h832v-281h-832zM510 168q0 69 46 114.5t130 45.5q83 0 128.5 -45t45.5 -115q0 -71 -45 -116.5t-129 -45.5t-130 45.5t-46 116.5zM510 983q0 69 46 114.5t130 45.5q83 0 128.5 -45t45.5 -115q0 -71 -45 -116.5t-129 -45.5t-130 45.5t-46 116.5z" />
<glyph unicode="&#xf8;" horiz-adv-x="1347" d="M57 573q0 172 79 308t220.5 212t319.5 76q134 0 244 -43l116 150l228 -164l-111 -143q143 -162 143 -396q0 -172 -79 -308t-220.5 -212t-320.5 -76q-131 0 -252 46l-109 -142l-227 164l107 139q-138 160 -138 389zM387 573q0 -94 41 -165l336 454q-45 10 -88 10 q-130 0 -209.5 -82.5t-79.5 -216.5zM578 289q46 -15 98 -15q132 0 211.5 82.5t79.5 216.5q0 103 -47 177z" />
<glyph unicode="&#xf9;" horiz-adv-x="1300" d="M102 555v592h330v-623q0 -130 55.5 -190t165.5 -60t165.5 60t55.5 190v623h324v-592q0 -148 -40 -260t-113.5 -181t-172 -103t-221.5 -34q-124 0 -223.5 34t-173 103t-113 181t-39.5 260zM322 1544l266 84l229 -371h-305z" />
<glyph unicode="&#xfa;" horiz-adv-x="1300" d="M102 555v592h330v-623q0 -130 55.5 -190t165.5 -60t165.5 60t55.5 190v623h324v-592q0 -148 -40 -260t-113.5 -181t-172 -103t-221.5 -34q-124 0 -223.5 34t-173 103t-113 181t-39.5 260zM496 1257l229 371l268 -84l-192 -287h-305z" />
<glyph unicode="&#xfb;" horiz-adv-x="1300" d="M102 555v592h330v-623q0 -130 55.5 -190t165.5 -60t165.5 60t55.5 190v623h324v-592q0 -148 -40 -260t-113.5 -181t-172 -103t-221.5 -34q-124 0 -223.5 34t-173 103t-113 181t-39.5 260zM283 1407l364 266l365 -266l-146 -180l-219 153l-217 -153z" />
<glyph unicode="&#xfc;" horiz-adv-x="1300" d="M102 555v592h330v-623q0 -130 55.5 -190t165.5 -60t165.5 60t55.5 190v623h324v-592q0 -148 -40 -260t-113.5 -181t-172 -103t-221.5 -34q-124 0 -223.5 34t-173 103t-113 181t-39.5 260zM289 1423q0 62 44 107t109 45q60 0 103 -45t43 -107t-43.5 -105.5t-106.5 -43.5 q-64 0 -106.5 43.5t-42.5 105.5zM725 1423q0 62 43.5 107t105.5 45q63 0 107.5 -45t44.5 -107t-44.5 -105.5t-107.5 -43.5t-106 43.5t-43 105.5z" />
<glyph unicode="&#xfd;" horiz-adv-x="1210" d="M23 1147h370l121 -232q24 -47 51.5 -102.5t41 -83.5t14.5 -29h6q1 1 14 28t41 83.5t51 103.5l119 232h336l-422 -756v-391h-326v391zM475 1257l230 371l266 -84l-191 -287h-305z" />
<glyph unicode="&#xfe;" horiz-adv-x="1087" d="M115 0v1147h323v-195h121q227 0 355 -104t128 -287q0 -173 -128.5 -273t-354.5 -100h-121v-188h-323zM438 442h133q71 0 106.5 29.5t35.5 83.5q0 49 -35.5 80t-106.5 31h-133v-224z" />
<glyph unicode="&#xff;" horiz-adv-x="1210" d="M23 1147h370l121 -232q24 -47 51.5 -102.5t41 -83.5t14.5 -29h6q1 1 14 28t41 83.5t51 103.5l119 232h336l-422 -756v-391h-326v391zM266 1423q0 62 45 107t109 45q61 0 104 -45t43 -107t-44 -105.5t-107 -43.5t-106.5 43.5t-43.5 105.5zM702 1423q0 62 44 107t108 45 q61 0 105.5 -45t44.5 -107q0 -61 -44 -105t-106 -44q-64 0 -108 43.5t-44 105.5z" />
<glyph unicode="&#x152;" horiz-adv-x="2095" d="M57 717q0 161 60 298t162.5 230t240 145t289.5 52q130 0 197 -8h991v-320h-701v-235h533v-304h-533v-256h711v-319h-1001q-61 -8 -197 -8q-152 0 -289.5 52t-240 145t-162.5 230t-60 298zM403 717q0 -196 113 -308t299 -112q88 0 146 18v807q-59 15 -146 15 q-186 0 -299 -112t-113 -308z" />
<glyph unicode="&#x153;" horiz-adv-x="1767" d="M57 573q0 173 80.5 306t219.5 203.5t313 70.5q119 0 176 -6h823v-301h-577v-139h395v-254h-395v-152h587v-301h-837q-55 -6 -170 -6q-175 0 -314 70t-220 203t-81 306zM383 573q0 -131 78 -210.5t215 -79.5q38 0 108 8v565q-70 8 -108 8q-137 0 -215 -80t-78 -211z" />
<glyph unicode="&#x178;" horiz-adv-x="1460" d="M23 1434l397 2l221 -392q20 -36 45.5 -81t37.5 -66.5t13 -22.5h6q1 1 13.5 23.5t37 66t46.5 80.5l229 390h367l-535 -869v-565h-344v565zM395 1710q0 62 45 107t109 45q61 0 104 -45t43 -107t-44 -105.5t-107 -43.5t-106.5 43.5t-43.5 105.5zM831 1710q0 62 44 107 t106 45q63 0 107.5 -45t44.5 -107t-44.5 -105.5t-107.5 -43.5t-106.5 43.5t-43.5 105.5z" />
<glyph unicode="&#x2c6;" horiz-adv-x="1198" d="M233 1694l367 266l365 -266l-148 -181l-217 154l-219 -154z" />
<glyph unicode="&#x2dc;" horiz-adv-x="1198" d="M244 1817q16 22 68 43.5t110 21.5q59 0 156.5 -30.5t158.5 -30.5q48 0 92 17t68 40l51 -248q-14 -22 -65.5 -43.5t-110.5 -21.5q-60 0 -158 30.5t-157 30.5q-46 0 -90 -17t-70 -40z" />
<glyph unicode="&#x2000;" horiz-adv-x="998" />
<glyph unicode="&#x2001;" horiz-adv-x="1997" />
<glyph unicode="&#x2002;" horiz-adv-x="998" />
<glyph unicode="&#x2003;" horiz-adv-x="1997" />
<glyph unicode="&#x2004;" horiz-adv-x="665" />
<glyph unicode="&#x2005;" horiz-adv-x="499" />
<glyph unicode="&#x2006;" horiz-adv-x="332" />
<glyph unicode="&#x2007;" horiz-adv-x="332" />
<glyph unicode="&#x2008;" horiz-adv-x="249" />
<glyph unicode="&#x2009;" horiz-adv-x="399" />
<glyph unicode="&#x200a;" horiz-adv-x="110" />
<glyph unicode="&#x2010;" horiz-adv-x="1169" d="M168 434v281h833v-281h-833z" />
<glyph unicode="&#x2011;" horiz-adv-x="1169" d="M168 434v281h833v-281h-833z" />
<glyph unicode="&#x2012;" horiz-adv-x="1169" d="M168 434v281h833v-281h-833z" />
<glyph unicode="&#x2013;" d="M168 434v281h1032v-281h-1032z" />
<glyph unicode="&#x2014;" horiz-adv-x="1959" d="M168 434v281h1624v-281h-1624z" />
<glyph unicode="&#x2018;" horiz-adv-x="579" d="M106 1155q0 99 65.5 180.5t178.5 116.5l127 -141q-90 -20 -125 -94q53 2 84 -31.5t31 -91.5q0 -62 -47 -104t-117 -42q-88 0 -142.5 55.5t-54.5 151.5z" />
<glyph unicode="&#x2019;" horiz-adv-x="579" d="M104 1096q92 21 125 92q-52 -1 -83 32.5t-31 92.5q0 62 46.5 103.5t117.5 41.5q87 0 141.5 -55.5t54.5 -151.5q0 -99 -66.5 -181.5t-179.5 -115.5z" />
<glyph unicode="&#x201a;" horiz-adv-x="579" d="M104 -63q92 21 125 92q-52 -1 -83 32.5t-31 92.5q0 62 46.5 103.5t117.5 41.5q87 0 141.5 -55.5t54.5 -151.5q0 -99 -66 -180.5t-180 -116.5z" />
<glyph unicode="&#x201c;" horiz-adv-x="1050" d="M104 1155q0 99 65.5 180.5t178.5 116.5l127 -141q-92 -20 -127 -94q53 2 84 -31.5t31 -91.5q0 -62 -46.5 -104t-117.5 -42q-87 0 -141 55.5t-54 151.5zM575 1155q0 99 65.5 180.5t178.5 116.5l127 -141q-92 -20 -127 -94q53 2 84 -31.5t31 -91.5q0 -62 -46.5 -104 t-117.5 -42q-87 0 -141 55.5t-54 151.5z" />
<glyph unicode="&#x201d;" horiz-adv-x="1050" d="M104 1096q92 21 125 92q-52 -1 -83 32.5t-31 92.5q0 62 46.5 103.5t117.5 41.5q87 0 141.5 -55.5t54.5 -151.5q0 -99 -66.5 -181.5t-179.5 -115.5zM575 1096q92 21 125 92q-52 -1 -83 32.5t-31 92.5q0 62 46.5 103.5t117.5 41.5q87 0 141.5 -55.5t54.5 -151.5 q0 -99 -66.5 -181.5t-179.5 -115.5z" />
<glyph unicode="&#x201e;" horiz-adv-x="1052" d="M104 -63q92 21 125 92q-52 -1 -83 32.5t-31 92.5q0 62 46.5 103.5t117.5 41.5q87 0 141.5 -55.5t54.5 -151.5q0 -99 -66 -180.5t-180 -116.5zM575 -63q92 21 125 92q-52 -1 -83 32.5t-31 92.5q0 62 46.5 103.5t117.5 41.5q88 0 142 -55t54 -152q0 -98 -66 -180t-178 -117 z" />
<glyph unicode="&#x2022;" horiz-adv-x="696" d="M115 584q0 97 65.5 157t169.5 60q102 0 167 -60.5t65 -156.5q0 -99 -65 -160.5t-167 -61.5q-105 0 -170 61.5t-65 160.5z" />
<glyph unicode="&#x2026;" horiz-adv-x="1587" d="M115 113q0 58 37.5 94.5t107.5 36.5q68 0 105.5 -36.5t37.5 -94.5t-37.5 -97t-105.5 -39q-69 0 -107 39t-38 97zM637 113q0 58 37.5 94.5t107.5 36.5q69 0 106.5 -36.5t37.5 -94.5q0 -59 -37.5 -97.5t-106.5 -38.5t-107 39t-38 97zM1182 113q0 58 37.5 94.5t107.5 36.5 q68 0 105.5 -36.5t37.5 -94.5q0 -59 -37 -97.5t-106 -38.5t-107 39t-38 97z" />
<glyph unicode="&#x202f;" horiz-adv-x="399" />
<glyph unicode="&#x2039;" horiz-adv-x="915" d="M123 575l483 480l185 -185l-308 -290v-9l310 -288l-189 -189z" />
<glyph unicode="&#x203a;" horiz-adv-x="915" d="M123 283l307 288v9l-305 290l184 185l484 -480l-482 -481z" />
<glyph unicode="&#x205f;" horiz-adv-x="499" />
<glyph unicode="&#x20ac;" horiz-adv-x="1204" d="M57 360v175h68l-2 53v24h-64v174h82q79 383 508 383q197 0 329 -83.5t173 -262.5l-320 -86q-19 76 -60 115t-126 39q-127 0 -168 -105h201v-174h-227v-77h227v-175h-195q42 -100 162 -100q139 0 182 115l322 -84q-15 -44 -38.5 -85t-64.5 -83.5t-94 -74t-130.5 -51.5 t-168.5 -20q-193 0 -325 91.5t-181 291.5h-90z" />
<glyph unicode="&#x2122;" horiz-adv-x="1677" d="M63 1243v191h631v-191h-211v-475h-207v475h-213zM815 768v666h223l92 -162q65 -114 66 -115h2q1 1 9 17.5t22.5 46t25.5 51.5l80 162h228v-666h-199v385h-2q-1 -1 -11 -20t-29 -56t-34 -65l-51 -97h-92l-51 97q-85 146 -86 147h-2l2 -201v-190h-193z" />
<glyph unicode="&#xe000;" horiz-adv-x="1146" d="M0 0v1147h1147v-1147h-1147z" />
</font>
</defs>
</svg>
