<?xml version="1.0" encoding="UTF-8" standalone="no"?>
<svg width="50px" height="50px" viewBox="0 0 50 50" version="1.1" xmlns="http://www.w3.org/2000/svg" xmlns:xlink="http://www.w3.org/1999/xlink" xmlns:sketch="http://www.bohemiancoding.com/sketch/ns">
    <!-- Generator: Sketch 3.5.2 (25235) - http://www.bohemiancoding.com/sketch -->
    <title>icon_more</title>
    <desc>Created with Sketch.</desc>
    <defs></defs>
    <g id="Page-1" stroke="none" stroke-width="1" fill="none" fill-rule="evenodd" sketch:type="MSPage">
        <g id="icon_more" sketch:type="MSArtboardGroup" fill="#000000">
            <g id="more" sketch:type="MSLayerGroup" transform="translate(14.000000, 22.000000)">
                <path d="M3.785,5.594 C2.65569307,5.59602313 1.63645966,4.91730201 1.20289005,3.87453856 C0.769320428,2.8317751 1.00687079,1.63049707 1.80469642,0.831239597 C2.60252204,0.0319821246 3.8033722,-0.207721841 4.8469114,0.223977323 C5.8904506,0.655676488 6.57099819,1.67369126 6.571,2.803 C6.57045225,4.34224855 5.32424509,5.59069226 3.785,5.594 L3.785,5.594 Z M3.785,1.037 C3.07044792,1.03578615 2.42558009,1.46528778 2.15129135,2.12509974 C1.87700261,2.78491171 2.02735268,3.54499132 2.53218831,4.05068601 C3.03702395,4.5563807 3.79684685,4.70802284 4.4571242,4.4348563 C5.11740156,4.16168977 5.54799897,3.51755311 5.548,2.803 C5.54800141,1.8288355 4.75916309,1.03865487 3.785,1.037 L3.785,1.037 Z M11.741,5.594 C10.611603,5.59642795 9.59206316,4.91796416 9.15817827,3.87523347 C8.72429338,2.83250278 8.96159621,1.63106113 9.75934251,0.831596167 C10.5570888,0.0321312029 11.758017,-0.207756678 12.801679,0.223883172 C13.845341,0.655523022 14.5259974,1.67360043 14.526,2.803 C14.5254537,4.34185915 13.2798544,5.59014193 11.741,5.594 L11.741,5.594 Z M11.741,1.037 C11.0263579,1.03538133 10.3811836,1.46462562 10.1065796,2.12440482 C9.83197557,2.78418401 9.9820781,3.54442724 10.4868344,4.05032943 C10.9915907,4.55623161 11.7514916,4.70805766 12.4118918,4.43495044 C13.072292,4.16184323 13.5029982,3.51764393 13.503,2.803 C13.5030025,1.8292251 12.7147724,1.03920561 11.741,1.037 L11.741,1.037 Z M19.7,5.594 C18.570603,5.59642795 17.5510632,4.91796416 17.1171783,3.87523347 C16.6832934,2.83250278 16.9205962,1.63106113 17.7183425,0.831596167 C18.5160888,0.0321312029 19.717017,-0.207756678 20.760679,0.223883172 C21.804341,0.655523022 22.4849974,1.67360043 22.485,2.803 C22.4844537,4.34185915 21.2388544,5.59014193 19.7,5.594 L19.7,5.594 Z M19.7,1.037 C18.9853579,1.03538133 18.3401836,1.46462562 18.0655796,2.12440482 C17.7909756,2.78418401 17.9410781,3.54442724 18.4458344,4.05032943 C18.9505907,4.55623161 19.7104916,4.70805766 20.3708918,4.43495044 C21.031292,4.16184323 21.4619982,3.51764393 21.462,2.803 C21.4620025,1.8292251 20.6737724,1.03920561 19.7,1.037 L19.7,1.037 Z" id="more_" sketch:type="MSShapeGroup"></path>
            </g>
        </g>
    </g>
</svg>