<?xml version="1.0" encoding="UTF-8" standalone="no"?>
<svg width="50px" height="50px" viewBox="0 0 50 50" version="1.1" xmlns="http://www.w3.org/2000/svg" xmlns:xlink="http://www.w3.org/1999/xlink" xmlns:sketch="http://www.bohemiancoding.com/sketch/ns">
    <!-- Generator: Sketch 3.5.2 (25235) - http://www.bohemiancoding.com/sketch -->
    <title>icon_add</title>
    <desc>Created with Sketch.</desc>
    <defs></defs>
    <g id="Page-1" stroke="none" stroke-width="1" fill="none" fill-rule="evenodd" sketch:type="MSPage">
        <g id="icon_add" sketch:type="MSArtboardGroup" fill="#ffffff">
            <path d="M31.118,32.874 L31.118,33.874 C31.1179998,34.0391381 31.183669,34.1974979 31.300533,34.3141743 C31.417397,34.4308508 31.5758621,34.4962655 31.741,34.496 L31.738,34.496 C31.9035649,34.4970667 32.0627007,34.4319738 32.1800565,34.3151813 C32.2974122,34.1983889 32.3632701,34.0395681 32.363,33.874 L32.363,32.874 L33.363,32.874 L33.36,32.874 C33.7035211,32.8748284 33.9826716,32.5970211 33.9835,32.2535 C33.9843284,31.9099789 33.7065211,31.6308284 33.363,31.63 L32.363,31.63 L32.363,30.63 C32.3496066,30.2959031 32.0748652,30.031955 31.7405,30.031955 C31.4061348,30.031955 31.1313934,30.2959031 31.118,30.63 L31.118,31.63 L30.116,31.63 C29.7724789,31.63 29.494,31.9084789 29.494,32.252 C29.494,32.5955211 29.7724789,32.874 30.116,32.874 L31.118,32.874 Z M32.3117333,36.85995 C32.4099705,36.9588736 32.4738753,37.0897289 32.489,37.233 L32.601,38.075 C32.6252731,38.2530893 32.5713228,38.4329722 32.4530474,38.5683084 C32.3347719,38.7036446 32.1637357,38.7812017 31.984,38.781 L14.623,38.781 C14.4437392,38.7810739 14.2731623,38.703804 14.155,38.569 C14.0363321,38.4351665 13.9819237,38.2562394 14.006,38.079 L15.264,28.567 L14.005,18.773 C13.9829248,18.5957608 14.0379818,18.4175713 14.1561911,18.2836773 C14.2744004,18.1497833 14.4443913,18.073064 14.623,18.073 L17.0518948,18.073 C17.8332642,14.5731843 20.3424683,12.006 23.308,12.006 C26.2735317,12.006 28.7827358,14.5731843 29.5641052,18.073 L31.984,18.073 C32.1623929,18.0737087 32.3319809,18.1506154 32.4500484,18.2843487 C32.5681158,18.4180821 32.6234087,18.5958949 32.602,18.773 L31.502,27.31 C31.489558,27.4264623 31.4440092,27.5357799 31.3721927,27.6257541 C31.4953921,27.6159638 31.6199458,27.6109837 31.7456657,27.6110018 C34.3087204,27.6113693 36.3864469,29.6889453 36.387,32.252 C36.3839401,34.6230702 34.6063054,36.5775449 32.3117333,36.85995 Z M31.4074514,36.8829123 C31.2838144,37.0206926 31.2266278,37.2083676 31.256,37.395 L31.274,37.534 L15.332,37.534 L16.509,28.646 C16.5159976,28.5925614 16.5159976,28.5384386 16.509,28.485 L15.33,19.312 L16.853102,19.312 C16.818066,19.6633881 16.8,20.0215244 16.8,20.385 C16.8,20.7285211 17.0784789,21.007 17.422,21.007 C17.7655211,21.007 18.044,20.7285211 18.044,20.385 C18.044,20.0203636 18.0642631,19.6620439 18.103343,19.312 L28.5126059,19.312 C28.5517192,19.6620679 28.572,20.02039 28.572,20.385 C28.571734,20.5500461 28.6371805,20.7084088 28.7538859,20.8251141 C28.8705912,20.9418195 29.0289539,21.007266 29.194,21.007 C29.3590461,21.007266 29.5174088,20.9418195 29.6341141,20.8251141 C29.7508195,20.7084088 29.816266,20.5500461 29.816,20.385 C29.816,20.0215244 29.797934,19.6633881 29.762898,19.312 L31.273,19.312 L30.264,27.148 C30.2418906,27.3122742 30.2862643,27.4785783 30.3872727,27.6100018 C30.4350452,27.6721594 30.493617,27.7240826 30.5594827,27.7637599 C28.5708841,28.2875089 27.1040827,30.0975827 27.1030007,32.2506689 C27.101769,34.7015637 29.0002121,36.709904 31.4074514,36.8829123 Z M18.3273522,18.073 L28.2884507,18.073 C27.5783375,15.269785 25.6141971,13.249 23.308,13.249 C21.0015895,13.249 19.0372989,15.2688966 18.3273522,18.073 Z M31.741,28.854 C29.8632319,28.854 28.341,30.3762319 28.341,32.254 C28.341,34.1317681 29.8632319,35.654 31.741,35.654 C33.6187681,35.654 35.141,34.1317681 35.141,32.254 C35.141001,31.351397 34.7821014,30.4858351 34.1433959,29.8480674 C33.5046904,29.2102998 32.6386021,28.8526726 31.736,28.854 L31.741,28.854 Z" id="Add_to_bag" sketch:type="MSShapeGroup"></path>
        </g>
    </g>
</svg>