<?xml version="1.0" encoding="UTF-8" standalone="no"?>
<svg width="50px" height="50px" viewBox="0 0 50 50" version="1.1" xmlns="http://www.w3.org/2000/svg" xmlns:xlink="http://www.w3.org/1999/xlink" xmlns:sketch="http://www.bohemiancoding.com/sketch/ns">
    <!-- Generator: Sketch 3.5.2 (25235) - http://www.bohemiancoding.com/sketch -->
    <title>icon_add-added</title>
    <desc>Created with Sketch.</desc>
    <defs></defs>
    <g id="Page-1" stroke="none" stroke-width="1" fill="none" fill-rule="evenodd" sketch:type="MSPage">
        <g id="icon_add-added" sketch:type="MSArtboardGroup">
            <path d="M17.0518948,18.073 L14.623,18.073 C14.4443913,18.073064 14.2744004,18.1497833 14.1561911,18.2836773 C14.0379818,18.4175713 13.9829248,18.5957608 14.005,18.773 L15.264,28.567 L14.006,38.079 C13.9819237,38.2562394 14.0363321,38.4351665 14.155,38.569 C14.2731623,38.703804 14.4437392,38.7810739 14.623,38.781 L31.984,38.781 C32.1637357,38.7812017 32.3347719,38.7036446 32.4530474,38.5683084 C32.5713228,38.4329722 32.6252731,38.2530893 32.601,38.075 L32.489,37.233 C32.4652742,37.0082534 32.3215123,36.814059 32.1134843,36.7257511 C31.9054562,36.6374431 31.6658978,36.6689179 31.4877412,36.8079655 C31.3095847,36.947013 31.2208653,37.1717524 31.256,37.395 L31.274,37.534 L15.332,37.534 L16.509,28.646 C16.5159976,28.5925614 16.5159976,28.5384386 16.509,28.485 L15.33,19.312 L16.853102,19.312 C16.818066,19.6633881 16.8,20.0215244 16.8,20.385 C16.8,20.7285211 17.0784789,21.007 17.422,21.007 C17.7655211,21.007 18.044,20.7285211 18.044,20.385 C18.044,20.0203636 18.0642631,19.6620439 18.103343,19.312 L28.5126059,19.312 C28.5517192,19.6620679 28.572,20.02039 28.572,20.385 C28.571734,20.5500461 28.6371805,20.7084088 28.7538859,20.8251141 C28.8705912,20.9418195 29.0289539,21.007266 29.194,21.007 C29.3590461,21.007266 29.5174088,20.9418195 29.6341141,20.8251141 C29.7508195,20.7084088 29.816266,20.5500461 29.816,20.385 C29.816,20.0215244 29.797934,19.6633881 29.762898,19.312 L31.273,19.312 L30.264,27.148 C30.2418906,27.3122742 30.2862643,27.4785783 30.3872727,27.6100018 C30.4882811,27.7414254 30.6375681,27.8270962 30.802,27.848 C30.9668262,27.8735529 31.1349267,27.8304976 31.2671747,27.7288556 C31.3994227,27.6272135 31.4842817,27.4758514 31.502,27.31 L32.602,18.773 C32.6234087,18.5958949 32.5681158,18.4180821 32.4500484,18.2843487 C32.3319809,18.1506154 32.1623929,18.0737087 31.984,18.073 L29.5641052,18.073 C28.7827358,14.5731843 26.2735317,12.006 23.308,12.006 C20.3424683,12.006 17.8332642,14.5731843 17.0518948,18.073 Z M18.3273522,18.073 L28.2884507,18.073 C27.5783375,15.269785 25.6141971,13.249 23.308,13.249 C21.0015895,13.249 19.0372989,15.2688966 18.3273522,18.073 Z" id="Add_to_bag" fill="#000000" sketch:type="MSShapeGroup"></path>
            <g id="Group" sketch:type="MSLayerGroup" transform="translate(26.000000, 26.000000)" fill="#7ED321">
                <path d="M7.6356,7.0488 L3.7392,7.0488 C3.32697466,7.0488 2.9928,6.71462534 2.9928,6.3024 C2.9928,5.89017466 3.32697466,5.556 3.7392,5.556 L7.6356,5.556 C8.04782533,5.55699413 8.38119409,5.89197467 8.38019997,6.3042 C8.37920586,6.71642533 8.04422533,7.0497941 7.632,7.0488 L7.6356,7.0488 Z" id="Add_to_bag-path" sketch:type="MSShapeGroup"></path>
                <path d="M5.6892,8.9952 C5.49103458,8.99551859 5.30087639,8.91702092 5.16063959,8.77700922 C5.02040279,8.63699752 4.94159974,8.44696568 4.9416,8.2488 L4.9416,4.356 C4.95767205,3.95508375 5.28736173,3.63834595 5.6886,3.63834595 C6.08983827,3.63834595 6.41952795,3.95508375 6.4356,4.356 L6.4356,8.2488 C6.43592406,8.4474817 6.35689469,8.63806663 6.21606775,8.7782176 C6.07524081,8.91836857 5.88427784,8.99648002 5.6856,8.9952 L5.6892,8.9952 Z" id="Add_to_bag-path" sketch:type="MSShapeGroup"></path>
                <path d="M5.6892,11.874 C2.61353548,11.8713496 0.122055161,9.37646795 0.123600833,6.30080267 C0.125146505,3.22513739 2.61913316,0.732761147 5.69479879,0.733202125 C8.77046443,0.733643104 11.2637363,3.22673441 11.2644,6.3024 C11.2604263,9.38161126 8.76241354,11.8753272 5.6832,11.874 L5.6892,11.874 Z M5.6892,2.2248 C3.43587822,2.2248 1.6092,4.05147822 1.6092,6.3048 C1.6092,8.55812178 3.43587822,10.3848 5.6892,10.3848 C7.94252178,10.3848 9.7692,8.55812178 9.7692,6.3048 C9.76920117,5.22167635 9.33852173,4.18300207 8.57207513,3.41768094 C7.80562852,2.65235981 6.76632248,2.22320717 5.6832,2.2248 L5.6892,2.2248 Z" id="Add_to_bag-path" sketch:type="MSShapeGroup"></path>
            </g>
        </g>
    </g>
</svg>