<?xml version="1.0" encoding="UTF-8" standalone="no"?>
<svg width="34px" height="34px" viewBox="0 0 34 34" version="1.1" xmlns="http://www.w3.org/2000/svg" xmlns:xlink="http://www.w3.org/1999/xlink" xmlns:sketch="http://www.bohemiancoding.com/sketch/ns">
    <!-- Generator: Sketch 3.2.2 (9983) - http://www.bohemiancoding.com/sketch -->
    <title>callbutton</title>
    <desc>Created with Sketch.</desc>
    <defs></defs>
    <g id="Welcome" stroke="none" stroke-width="1" fill="none" fill-rule="evenodd" sketch:type="MSPage">
        <g id="Desktop-HD" sketch:type="MSArtboardGroup" transform="translate(-998.000000, -1277.000000)" fill="#FFFFFF">
            <g id="contact-2" sketch:type="MSLayerGroup" transform="translate(932.000000, 1184.000000)">
                <g id="callbutton" transform="translate(66.000000, 93.000000)" sketch:type="MSShapeGroup">
                    <path d="M31.3972181,24.5737807 C30.339282,23.7391236 29.2086497,22.9899078 28.0957821,22.2245174 C25.8762202,20.6968233 23.8461469,20.5781686 22.1898853,23.0359621 C21.2598288,24.4158626 19.9578505,24.4762394 18.5965309,23.8708661 C14.8434215,22.2032805 11.9454047,19.6336233 10.2478185,15.8953227 C9.49691941,14.2414423 9.50674661,12.7585679 11.2638,11.5888133 C12.1939825,10.9702287 13.1312205,10.2381752 13.0562566,8.88642582 C12.9583625,7.12389186 8.59155688,1.23363299 6.86713483,0.611961645 C6.15352874,0.354650207 5.4429464,0.371318654 4.71699332,0.610480005 C0.673351473,1.9430915 -1.00143061,5.20208162 0.602545219,9.06088891 C5.38763689,20.5734768 13.8087935,28.5881601 25.4008608,33.4799173 C26.0616771,33.7584655 26.7959455,33.8698355 27.1677414,33.9697227 C29.8068492,33.9957748 32.8985123,31.5039037 33.7914018,29.0309235 C34.6510301,26.6517804 32.8342575,25.7073586 31.3972181,24.5737807 L31.3972181,24.5737807 Z" id="path17-6"></path>
                    <path d="M18.4609339,1.82228639 C26.9355101,3.09945986 30.843839,7.0485237 31.9230674,15.4133679 C32.0231033,16.186043 31.7294211,17.3486364 32.8542578,17.3701202 C34.0298684,17.3920978 33.7466434,16.2466668 33.7564706,15.4732508 C33.8558765,7.59512531 26.8464354,0.291752519 18.705984,0.0224644923 C18.0917838,0.109016948 16.820925,-0.39264158 16.7416774,0.956391421 C16.6888877,1.86599476 17.7587929,1.71647262 18.4609339,1.82228639 L18.4609339,1.82228639 Z" id="path19-1"></path>
                    <path d="M20.0577212,4.04937717 C19.2425673,3.95319405 18.1664886,3.57673408 17.9759921,4.68524756 C17.7771802,5.84858172 18.9764769,5.73042095 19.7471564,5.89945135 C24.9812756,7.04587011 26.8037177,8.91285968 27.6654878,14.0009341 C27.7913516,14.7427417 27.5412619,15.8973095 28.8276175,15.705931 C29.7809821,15.5636936 29.436652,14.5739583 29.5164036,13.9958718 C29.5586101,9.111029 25.2873048,4.66475155 20.0577212,4.04937717 L20.0577212,4.04937717 Z" id="path21-2"></path>
                    <path d="M20.6102517,8.07586191 C20.0661019,8.0890732 19.5320312,8.14673368 19.3320855,8.71654764 C19.0317258,9.56824356 19.6635646,9.77135168 20.3067424,9.87259706 C22.4538601,10.2104109 23.5838624,11.4511608 23.798297,13.5494096 C23.8562523,14.1189766 24.2250244,14.5803839 24.7864348,14.5154387 C25.5642957,14.4245648 25.634598,13.7459738 25.6107859,13.101584 C25.6492128,10.7441717 22.9303534,8.01943613 20.6102517,8.07586191 L20.6102517,8.07586191 Z" id="path23"></path>
                </g>
            </g>
        </g>
    </g>
</svg>