<?xml version="1.0" encoding="UTF-8" standalone="no"?>
<svg width="62px" height="63px" viewBox="0 0 62 63" version="1.1" xmlns="http://www.w3.org/2000/svg" xmlns:xlink="http://www.w3.org/1999/xlink" xmlns:sketch="http://www.bohemiancoding.com/sketch/ns">
    <!-- Generator: Sketch 3.2.2 (9983) - http://www.bohemiancoding.com/sketch -->
    <title>clockicon</title>
    <desc>Created with Sketch.</desc>
    <defs></defs>
    <g id="Welcome" stroke="none" stroke-width="1" fill="none" fill-rule="evenodd" sketch:type="MSPage">
        <g id="Desktop-HD" sketch:type="MSArtboardGroup" transform="translate(-990.000000, -1032.000000)">
            <g id="opentimes-2" sketch:type="MSLayerGroup" transform="translate(932.000000, 941.000000)">
                <g id="opentimes-widget-2" transform="translate(0.000000, 15.000000)" sketch:type="MSShapeGroup">
                    <g id="clockicon" transform="translate(58.000000, 76.000000)">
                        <g id="Group">
                            <path d="M10.5090232,54.2616778 C15.9719199,59.0773678 23.1445018,61.9988778 30.9994389,61.9988778 C48.1199563,61.9988778 61.9988778,48.1199563 61.9988778,30.9994389 C61.9988778,13.8789215 48.1199563,0 30.9994389,0 C13.8789215,0 0,13.8789215 0,30.9994389 C0,40.2650192 4.0650622,48.5811533 10.5090232,54.2616778 Z" id="Oval" fill="#F4861F"></path>
                            <path d="M31.0054706,0.0363303167 C30.7909955,0.0363303167 30.5090498,0.0391357466 30.3687783,0.0434841629 L30.3687783,62.0280543 C30.5090498,62.0324027 30.7909955,62.0352081 31.0054706,62.0352081 C48.1258869,62.0352081 62.004629,48.1560452 62.004629,31.035629 C62.004629,13.9152127 48.1258869,0.0363303167 31.0054706,0.0363303167 L31.0054706,0.0363303167 Z" id="Shape" opacity="0.25" fill="#FFFFFF"></path>
                            <circle id="Oval" fill="#FFFFFF" cx="31.0308597" cy="31.0308597" r="24.0172851"></circle>
                            <rect id="Rectangle-path" fill="#F4861F" x="31" y="29.8778281" width="17.9546109" height="2.49795475"></rect>
                            <rect id="Rectangle-path" fill="#F4861F" transform="translate(29.596528, 39.040003) rotate(190.072701) translate(-29.596528, -39.040003) " x="28.4809335" y="31.6062146" width="2.23118868" height="14.8675775"></rect>
                            <circle id="Oval" fill="#F4861F" cx="30.97419" cy="30.97419" r="3.34070588"></circle>
                            <path d="M31.7556425,30.74681 L30.3938869,31.5800226 L20.7401222,15.6646787 L22.1017376,14.8317466 L31.7556425,30.74681 Z" id="Shape" fill="#9E7128"></path>
                            <circle id="Oval" fill="#9E7128" cx="31.0176742" cy="31.0176742" r="1.28011765"></circle>
                        </g>
                    </g>
                </g>
            </g>
        </g>
    </g>
</svg>