<?xml version="1.0" encoding="UTF-8" standalone="no"?>
<svg width="52px" height="25px" viewBox="0 0 52 25" version="1.1" xmlns="http://www.w3.org/2000/svg" xmlns:xlink="http://www.w3.org/1999/xlink" xmlns:sketch="http://www.bohemiancoding.com/sketch/ns">
    <!-- Generator: Sketch 3.2.2 (9983) - http://www.bohemiancoding.com/sketch -->
    <title>emailicon</title>
    <desc>Created with Sketch.</desc>
    <defs></defs>
    <g id="Welcome" stroke="none" stroke-width="1" fill="none" fill-rule="evenodd" sketch:type="MSPage">
        <g id="Desktop-HD" sketch:type="MSArtboardGroup" transform="translate(-980.000000, -1321.000000)" fill="#FFFFFF">
            <g id="contact-2" sketch:type="MSLayerGroup" transform="translate(932.000000, 1184.000000)">
                <g id="contactdetails-3" transform="translate(24.000000, 113.000000)" sketch:type="MSShapeGroup">
                    <g id="1423142979_icon-ios7-email" transform="translate(24.000000, 24.000000)">
                        <g id="emailicon">
                            <path d="M52,25 L52,1.34765625 L39.709375,11.09375 L46.09375,18.6523437 L45.90625,18.8476562 L38.509375,12.0507812 L34,15.625 L29.490625,12.0507812 L22.09375,18.8476562 L21.90625,18.6523437 L28.28125,11.09375 L16,1.3671875 L16,25 L52,25 Z" id="Shape"></path>
                            <path d="M51.221875,0 L16.75,0 L34,13.6621094 L51.221875,0 Z" id="Shape"></path>
                            <path d="M0,6 L14,6 L14,9 L0,6 Z" id="Rectangle-105"></path>
                            <path d="M0,11 L14,11 L14,14 L0,11 Z" id="Rectangle-106"></path>
                            <path d="M0,16 L14,16 L14,19 L0,16 Z" id="Rectangle-107"></path>
                        </g>
                    </g>
                </g>
            </g>
        </g>
    </g>
</svg>