<?xml version="1.0" encoding="UTF-8" standalone="no"?>
<svg width="40px" height="34px" viewBox="0 0 40 34" version="1.1" xmlns="http://www.w3.org/2000/svg" xmlns:xlink="http://www.w3.org/1999/xlink" xmlns:sketch="http://www.bohemiancoding.com/sketch/ns">
    <!-- Generator: Sketch 3.2.2 (9983) - http://www.bohemiancoding.com/sketch -->
    <title>facebookthumb</title>
    <desc>Created with Sketch.</desc>
    <defs></defs>
    <g id="Welcome" stroke="none" stroke-width="1" fill="none" fill-rule="evenodd" sketch:type="MSPage">
        <g id="Desktop-HD" sketch:type="MSArtboardGroup" transform="translate(-995.000000, -1366.000000)">
            <g id="contact-2" sketch:type="MSLayerGroup" transform="translate(932.000000, 1184.000000)">
                <g id="facebookthumb" transform="translate(62.000000, 181.000000)" sketch:type="MSShapeGroup">
                    <path d="M19.9368421,34.2991837 C19.2203509,34.2991837 18.7115789,33.753102 18.5368421,33.6462449 C17.9775439,33.3062449 18.1136842,33.2111837 17.1017544,32.9128163 L14.2680702,32.9197551 C13.9150877,32.9197551 13.6287719,32.6394286 13.6287719,32.2938776 L13.6287719,18.9589388 C13.6287719,18.6126939 13.9150877,18.3330612 14.2680702,18.3330612 L18.0168421,18.3330612 C18.1052632,18.2858776 18.3803509,18.0541224 18.8680702,17.5094286 C19.7291228,16.5504898 20.4905263,15.246 21.2273684,14.0906939 C21.8231579,13.1567347 22.3852632,12.2734286 22.9789474,11.5462449 C23.7908772,10.5477551 24.3003509,10.1820816 24.7922807,9.8275102 C25.2982456,9.46530612 25.1950877,9.38273469 26.2021053,8.11016327 C27.8161404,6.07155102 28.0357895,4.77469388 28.2491228,3.52016327 C28.2870175,3.29812245 28.325614,3.06844898 28.3719298,2.83946939 C28.5536842,1.93257143 29.3578947,0.99444898 30.3901754,0.995142857 C30.7621053,0.99444898 31.1249123,1.11587755 31.4687719,1.35457143 C32.7873684,2.26979592 33.48,4.93359184 33.2189474,6.70297959 C32.9501754,8.5202449 32.1115789,10.8697143 31.3375439,11.7197143 C30.6652632,12.4593878 30.3480702,13.1921224 30.4870175,14.3189796 C30.5529825,14.8553469 31.3873684,14.8768571 31.4231579,14.8782449 L36.6435088,14.8976735 C38.1522807,14.9101633 41.002807,15.376449 41.0035088,18.2581224 C41.0035088,19.5723265 40.4631579,20.3890204 39.834386,20.8650204 C40.4322807,21.3909796 40.8982456,22.0737551 40.7312281,23.3692245 C40.5698246,24.6265306 39.9396491,25.3773061 39.2063158,25.7617143 C39.6112281,26.2966939 39.8849123,27.0703673 39.7059649,28.1188163 C39.5340351,29.1284082 38.9101754,29.832 38.2687719,30.1733878 C38.5712281,30.6299592 38.7592982,31.3293878 38.6007018,32.1641224 C38.2266667,34.1222449 36.5115789,34.2353469 35.7796491,34.2846122 L35.5529825,34.2991837 L19.9368421,34.2991837 L19.9368421,34.2991837 Z" id="Shape" fill="#FFFFFF"></path>
                    <path d="M39.8350877,20.8650204 C40.4638596,20.3890204 41.0042105,19.5723265 41.0042105,18.2581224 C41.0035088,15.376449 38.1536842,14.9094694 36.6442105,14.8976735 L31.4238596,14.877551 C31.3880702,14.8761633 30.5536842,14.8553469 30.4877193,14.3182857 C30.3487719,13.1914286 30.6659649,12.4586939 31.3382456,11.7190204 C32.1122807,10.8690204 32.9508772,8.51955102 33.2196491,6.70228571 C33.4807018,4.93289796 32.7880702,2.26910204 31.4694737,1.35387755 C31.125614,1.11518367 30.762807,0.993755102 30.3908772,0.99444898 C30.002807,0.99444898 29.6463158,1.12697959 29.3438596,1.34138776 L29.3642105,1.35387755 C30.682807,2.26910204 31.3754386,4.93289796 31.114386,6.70228571 C30.845614,8.51955102 30.0070175,10.8690204 29.2329825,11.7190204 C28.5607018,12.4586939 28.2435088,13.1914286 28.3824561,14.3182857 C28.4484211,14.8546531 29.282807,14.8761633 29.3185965,14.877551 L34.5389474,14.8969796 C36.0477193,14.9094694 38.8982456,15.3757551 38.8989474,18.2574286 C38.8989474,19.5716327 38.3585965,20.3883265 37.7298246,20.8643265 C38.3277193,21.3902857 38.7936842,22.0730612 38.6266667,23.3685306 C38.4652632,24.6258367 37.8350877,25.3766122 37.1017544,25.7610204 C37.5066667,26.296 37.7803509,27.0696735 37.6014035,28.1181224 C37.4294737,29.1277143 36.805614,29.8313061 36.1642105,30.1726939 C36.4666667,30.6292653 36.6547368,31.3286939 36.4961404,32.1634286 C36.1221053,34.121551 34.4070175,34.2346531 33.6750877,34.2839184 L33.4484211,34.2984898 L35.5536842,34.2984898 L35.7803509,34.2839184 C36.5122807,34.2353469 38.2266667,34.1222449 38.6014035,32.1634286 C38.7607018,31.3286939 38.5719298,30.6292653 38.2694737,30.1726939 C38.9108772,29.8313061 39.5347368,29.1277143 39.7066667,28.1181224 C39.885614,27.0689796 39.6119298,26.2953061 39.2070175,25.7610204 C39.9403509,25.3759184 40.5698246,24.6258367 40.7319298,23.3685306 C40.8982456,22.0737551 40.4322807,21.3909796 39.8350877,20.8650204 L39.8350877,20.8650204 Z M14.245614,32.914898 L14.2680702,32.9197551 L15.0112281,32.9176735 L14.9964912,32.9128163 L14.245614,32.914898 L14.245614,32.914898 Z M39.8350877,20.8650204 C40.4638596,20.3890204 41.0042105,19.5723265 41.0042105,18.2581224 C41.0035088,15.376449 38.1536842,14.9094694 36.6442105,14.8976735 L31.4238596,14.877551 C31.3880702,14.8761633 30.5536842,14.8553469 30.4877193,14.3182857 C30.3487719,13.1914286 30.6659649,12.4586939 31.3382456,11.7190204 C32.1122807,10.8690204 32.9508772,8.51955102 33.2196491,6.70228571 C33.4807018,4.93289796 32.7880702,2.26910204 31.4694737,1.35387755 C31.125614,1.11518367 30.762807,0.993755102 30.3908772,0.99444898 C30.002807,0.99444898 29.6463158,1.12697959 29.3438596,1.34138776 L29.3642105,1.35387755 C30.682807,2.26910204 31.3754386,4.93289796 31.114386,6.70228571 C30.845614,8.51955102 30.0070175,10.8690204 29.2329825,11.7190204 C28.5607018,12.4586939 28.2435088,13.1914286 28.3824561,14.3182857 C28.4484211,14.8546531 29.282807,14.8761633 29.3185965,14.877551 L34.5389474,14.8969796 C36.0477193,14.9094694 38.8982456,15.3757551 38.8989474,18.2574286 C38.8989474,19.5716327 38.3585965,20.3883265 37.7298246,20.8643265 C38.3277193,21.3902857 38.7936842,22.0730612 38.6266667,23.3685306 C38.4652632,24.6258367 37.8350877,25.3766122 37.1017544,25.7610204 C37.5066667,26.296 37.7803509,27.0696735 37.6014035,28.1181224 C37.4294737,29.1277143 36.805614,29.8313061 36.1642105,30.1726939 C36.4666667,30.6292653 36.6547368,31.3286939 36.4961404,32.1634286 C36.1221053,34.121551 34.4070175,34.2346531 33.6750877,34.2839184 L33.4484211,34.2984898 L35.5536842,34.2984898 L35.7803509,34.2839184 C36.5122807,34.2353469 38.2266667,34.1222449 38.6014035,32.1634286 C38.7607018,31.3286939 38.5719298,30.6292653 38.2694737,30.1726939 C38.9108772,29.8313061 39.5347368,29.1277143 39.7066667,28.1181224 C39.885614,27.0689796 39.6119298,26.2953061 39.2070175,25.7610204 C39.9403509,25.3759184 40.5698246,24.6258367 40.7319298,23.3685306 C40.8982456,22.0737551 40.4322807,21.3909796 39.8350877,20.8650204 L39.8350877,20.8650204 Z M14.245614,32.914898 L14.2680702,32.9197551 L15.0112281,32.9176735 L14.9964912,32.9128163 L14.245614,32.914898 L14.245614,32.914898 Z" id="Shape" fill="#DCDCDC"></path>
                    <path d="M13.6301754,18.3524898 L15.7480702,18.3524898 L15.7480702,32.9239184 L13.6301754,32.9239184 L13.6301754,18.3524898 L13.6301754,18.3524898 Z" id="Shape" fill="#D7D7D7"></path>
                    <path d="M12.7052632,35.0006939 L4.93894737,35.0006939 C4.04491228,35.0006939 3.31649123,34.2790612 3.31649123,33.3929796 L0.997894737,18.5578776 C0.997894737,17.6704082 1.72561404,16.9494694 2.61964912,16.9494694 L12.7052632,16.9494694 C13.6,16.9494694 14.3277193,17.6704082 14.3277193,18.5578776 L14.3277193,33.3929796 C14.3270175,34.2790612 13.5992982,35.0006939 12.7052632,35.0006939 L12.7052632,35.0006939 Z" id="Shape" fill="#5879BD"></path>
                    <path d="M10.1178947,28.7592653 C10.8933333,28.7592653 11.5221053,29.3802857 11.5221053,30.1463265 C11.5221053,30.9116735 10.8933333,31.532 10.1178947,31.532 C9.34245614,31.532 8.71298246,30.9109796 8.71298246,30.1463265 C8.71298246,29.3795918 9.34175439,28.7592653 10.1178947,28.7592653 L10.1178947,28.7592653 Z" id="Shape" fill="#FFFFFF"></path>
                    <path d="M14.1087719,33.6129388 L6.34245614,33.6129388 C5.44842105,33.6129388 4.72,32.8913061 4.72,32.0052245 L2.40140351,17.1701224 L2.42175439,16.9695918 C1.62105263,17.0674286 0.997894737,17.7377143 0.997894737,18.5578776 L3.31649123,33.3929796 C3.31649123,34.2790612 4.04421053,35.0006939 4.93894737,35.0006939 L12.7052632,35.0006939 C13.5305263,35.0006939 14.2063158,34.3838367 14.3066667,33.5935102 L14.1087719,33.6129388 L14.1087719,33.6129388 Z" id="Shape" fill="#5170AE"></path>
                    <path d="M10.1178947,31.532 C9.34245614,31.532 8.71298246,30.9109796 8.71298246,30.1463265 C8.71298246,29.9437143 8.75929825,29.7522041 8.83859649,29.5787347 C8.35157895,29.7959184 8.01122807,30.2781633 8.01122807,30.8402041 C8.01122807,31.605551 8.64,32.2258776 9.41614035,32.2258776 C9.98666667,32.2258776 10.4757895,31.8886531 10.6954386,31.4064082 C10.5185965,31.4855102 10.3242105,31.532 10.1178947,31.532 L10.1178947,31.532 Z" id="Shape" fill="#48639A"></path>
                </g>
            </g>
        </g>
    </g>
</svg>