<?xml version="1.0" encoding="UTF-8" standalone="no"?>
<svg width="357px" height="89px" viewBox="0 0 357 89" version="1.1" xmlns="http://www.w3.org/2000/svg" xmlns:xlink="http://www.w3.org/1999/xlink" xmlns:sketch="http://www.bohemiancoding.com/sketch/ns" preserveAspectRatio='none'>
    <!-- Generator: Sketch 3.2.2 (9983) - http://www.bohemiancoding.com/sketch -->
    <title>infobuttonbg</title>
    <desc>Created with Sketch.</desc>
    <defs></defs>
    <g id="Welcome" stroke="none" stroke-width="1" fill="none" fill-rule="evenodd" sketch:type="MSPage">
        <g id="Desktop" sketch:type="MSArtboardGroup" transform="translate(-116.000000, -1215.000000)">
            <g id="infobuttonbg" sketch:type="MSLayerGroup" transform="translate(117.000000, 1215.000000)">
                <path d="M181.013608,79.0963823 C281.069269,79.0963823 337.916997,104.213142 354.092604,47.2634536 C370.268211,-9.686235 281.069269,12.1232076 181.013608,12.1232076 C80.9579476,12.1232076 7.93461216,-1.10606151 7.93461216,55.5317467 C7.93461216,112.169555 80.9579476,79.0963823 181.013608,79.0963823 Z" id="Oval-21" fill-opacity="0.156816123" fill="#88CEE4" sketch:type="MSShapeGroup"></path>
                <path d="M172.934873,71.8885558 C272.907217,71.8885558 329.707608,97.115813 345.869745,39.9155831 C362.031883,-17.2846469 272.907217,4.62074298 172.934873,4.62074298 C72.9625287,4.62074298 1.46682694e-14,-8.66672623 0,48.2202513 C1.4180929e-14,105.107229 72.9625287,71.8885558 172.934873,71.8885558 Z" id="Oval-22" stroke="#8CB9ED" stroke-dasharray="10" opacity="0.600000024" sketch:type="MSShapeGroup"></path>
            </g>
        </g>
    </g>
</svg>