<?xml version="1.0" encoding="UTF-8" standalone="no"?>
<svg width="46px" height="61px" viewBox="0 0 46 61" version="1.1" xmlns="http://www.w3.org/2000/svg" xmlns:xlink="http://www.w3.org/1999/xlink" xmlns:sketch="http://www.bohemiancoding.com/sketch/ns">
    <!-- Generator: Sketch 3.2.2 (9983) - http://www.bohemiancoding.com/sketch -->
    <title>pencil</title>
    <desc>Created with Sketch.</desc>
    <defs>
        <filter x="-50%" y="-50%" width="200%" height="200%" filterUnits="objectBoundingBox" id="filter-1">
            <feGaussianBlur stdDeviation="2" in="SourceGraphic" result="blur"></feGaussianBlur>
        </filter>
        <linearGradient x1="46.6004712%" y1="63.0451585%" x2="50%" y2="100%" id="linearGradient-2">
            <stop stop-color="#F08383" offset="0%"></stop>
            <stop stop-color="#E67575" offset="100%"></stop>
        </linearGradient>
        <linearGradient x1="50%" y1="0%" x2="50%" y2="100%" id="linearGradient-3">
            <stop stop-color="#FFFFFF" offset="0%"></stop>
            <stop stop-color="#FFDEC5" offset="100%"></stop>
        </linearGradient>
        <path id="path-4" d="M0.248447205,15.6376685 C0.248447205,15.6376685 5.70204895,0.704861111 5.92910012,0.704861111 C6.1561513,0.704861111 11.5776398,15.6376685 11.5776398,15.6376685 L11.5776398,17.3345784 L0.248447205,17.3345784 L0.248447205,15.6376685 Z"></path>
        <linearGradient x1="42.3312611%" y1="17.2472183%" x2="50%" y2="100%" id="linearGradient-6">
            <stop stop-color="#BFBFBF" offset="0%"></stop>
            <stop stop-color="#808080" offset="100%"></stop>
        </linearGradient>
        <path id="path-7" d="M0.248447205,15.7903904 C0.248447205,15.7903904 1.37724079,16.6218762 1.94163759,16.6218762 C2.4588984,16.6218762 3.25938903,14.9589045 3.77664984,14.9589045 C4.60816339,14.9589045 5.15644712,16.6218762 5.98796067,16.6218762 C6.76063385,16.6218762 7.53330704,14.9589045 8.30598022,14.9589045 C8.84695428,14.9589045 9.38792834,16.6218762 9.9289024,16.6218762 C10.4784815,16.6218762 11.5776398,15.7903904 11.5776398,15.7903904 L11.5776398,64.8480564 L0.248447205,64.8480564 L0.248447205,15.7903904 Z"></path>
    </defs>
    <g id="Welcome" stroke="none" stroke-width="1" fill="none" fill-rule="evenodd" sketch:type="MSPage">
        <g id="Desktop" sketch:type="MSArtboardGroup" transform="translate(-972.000000, -577.000000)">
            <g id="pencil" sketch:type="MSLayerGroup" transform="translate(995.559104, 607.598746) rotate(32.000000) translate(-995.559104, -607.598746) translate(987.559104, 572.598746)">
                <g id="Rectangle-134-+-Rectangle-132-+-Rectangle-133" transform="translate(8.214125, 32.324260) rotate(3.000000) translate(-8.214125, -32.324260) translate(2.301082, 1.662801)" fill-opacity="0.119999997" filter="url(#filter-1)" fill="#000000" sketch:type="MSShapeGroup">
                    <path d="M11.8046523,52.6448466 L11.8046523,57.3249691 C11.8046523,59.5329746 10.0119352,61.3229167 7.80792407,61.3229167 L4.32799117,61.3229167 C2.12065912,61.3229167 0.33126294,59.5362798 0.33126294,57.3249691 L0.33126294,52.6448466 L0.33126294,16.1980554 L0.33126294,14.9315476 C0.33126294,14.9315476 5.85427757,0.704861111 6.08421863,0.704861111 C6.31415969,0.704861111 11.8046523,14.9315476 11.8046523,14.9315476 L11.8046523,16.1980554 L11.8046523,52.6448466 Z" id="Rectangle-134"></path>
                </g>
                <rect id="Rectangle-125" fill="url(#linearGradient-2)" sketch:type="MSShapeGroup" x="0.248447205" y="53.4737138" width="11.3291925" height="16.2903353" rx="4"></rect>
                <mask id="mask-5" sketch:name="Rectangle 126" fill="white">
                    <use xlink:href="#path-4"></use>
                </mask>
                <g id="Rectangle-126">
                    <use fill="#FFDEC5" sketch:type="MSShapeGroup" xlink:href="#path-4"></use>
                    <use fill="url(#linearGradient-3)" xlink:href="#path-4"></use>
                </g>
                <path d="M6.28168297,6.05396503 C9.4101531,6.05396503 11.9462792,4.30658039 11.9462792,2.1510722 C11.9462792,-0.00443599385 9.4101531,-1.75182064 6.28168297,-1.75182064 C3.15321283,-1.75182064 0.617086693,-0.00443599385 0.617086693,2.1510722 C0.617086693,4.30658039 3.15321283,6.05396503 6.28168297,6.05396503 Z" id="Oval-137" fill="url(#linearGradient-6)" sketch:type="MSShapeGroup" mask="url(#mask-5)"></path>
                <mask id="mask-8" sketch:name="Rectangle 124" fill="white">
                    <use xlink:href="#path-7"></use>
                </mask>
                <use id="Rectangle-124" fill="#F8BC40" sketch:type="MSShapeGroup" xlink:href="#path-7"></use>
                <rect id="Rectangle-127" fill="#EBB33E" sketch:type="MSShapeGroup" mask="url(#mask-8)" x="8.74534161" y="9.18941075" width="6.2310559" height="55.6586456"></rect>
                <rect id="Rectangle-128" fill="#EBB33E" sketch:type="MSShapeGroup" mask="url(#mask-8)" x="-3.15031056" y="9.18941075" width="6.2310559" height="55.6586456"></rect>
                <rect id="Rectangle-129" fill="#D8D8D8" sketch:type="MSShapeGroup" mask="url(#mask-8)" x="0.248447205" y="59.6329923" width="11.3291925" height="5.43011177"></rect>
                <rect id="Rectangle-130" fill="#D0D0D0" sketch:type="MSShapeGroup" mask="url(#mask-8)" x="8.74534161" y="59.6329923" width="3.39875776" height="5.43011177"></rect>
                <rect id="Rectangle-131" fill="#D0D0D0" sketch:type="MSShapeGroup" mask="url(#mask-8)" x="-0.318012422" y="59.6329923" width="3.39875776" height="5.43011177"></rect>
                <path d="M0.390062112,60.4814472 L11.4939708,60.4814472" id="Line" stroke="#C4C4C4" stroke-linecap="square" sketch:type="MSShapeGroup" mask="url(#mask-8)"></path>
                <path d="M0.390062112,64.2146491 L11.4939708,64.2146491" id="Line-2" stroke="#C4C4C4" stroke-linecap="square" sketch:type="MSShapeGroup" mask="url(#mask-8)"></path>
            </g>
        </g>
    </g>
</svg>