<?xml version="1.0" encoding="UTF-8" standalone="no"?>
<svg width="53px" height="52px" viewBox="0 0 53 52" version="1.1" xmlns="http://www.w3.org/2000/svg" xmlns:xlink="http://www.w3.org/1999/xlink" xmlns:sketch="http://www.bohemiancoding.com/sketch/ns">
    <!-- Generator: Sketch 3.2.2 (9983) - http://www.bohemiancoding.com/sketch -->
    <title>phonedetailsicon</title>
    <desc>Created with Sketch.</desc>
    <defs></defs>
    <g id="Page-1" stroke="none" stroke-width="1" fill="none" fill-rule="evenodd" sketch:type="MSPage">
        <g id="phonedetailsicon" sketch:type="MSLayerGroup" fill="#E4DAB7">
            <path d="M43.0664267,33.9904383 C39.6641865,31.653965 36.5524027,31.4724932 34.0136135,35.2314714 C32.5879827,37.3419074 30.5922541,37.4342485 28.5055648,36.5083834 C22.7526368,33.9579584 18.3104316,30.0278944 15.7082982,24.3104936 C14.5572877,21.7810294 14.5723513,19.5131038 17.2656386,17.7240674 C18.6914624,16.7779968 20.1281012,15.6583855 20.0131933,13.5910042 C19.863137,10.895364 13.169509,1.88673281 10.5262405,0.935941339 C9.4323943,0.542406199 8.34318304,0.567899118 7.23041084,0.933675302 C1.03214218,2.971787 -1.53503604,7.95612483 0.923607303,13.8578301 C8.25840224,31.4653174 21.1667143,43.7230684 38.9355351,51.2045793 C39.9484629,51.6305943 41.0739812,51.8009248 41.6438859,51.9536935 C45.6892242,51.993538 50.4282588,48.182441 51.7969184,44.4002359 C53.1145936,40.7615465 50.3297663,39.3171366 48.1270103,37.5834293 C46.5053602,36.3068949 44.7722783,35.1610354 43.0664267,33.9904383 Z" id="path17-6" sketch:type="MSShapeGroup"></path>
            <path d="M28.2977158,2.78702624 C41.2879119,4.74035038 47.2787669,10.7800951 48.9330548,23.5733862 C49.0863941,24.7551247 48.6362254,26.5332086 50.3604236,26.5660661 C52.1624503,26.599679 51.7283107,24.8478433 51.7433743,23.6649719 C51.895748,11.616074 41.1513742,0.446209735 28.6733392,0.0343574589 C27.7318667,0.166731803 25.7838394,-0.600510652 25.6623653,1.46271629 C25.581447,2.85387434 27.2214438,2.62519342 28.2977158,2.78702624 L28.2977158,2.78702624 Z" id="path19-1" sketch:type="MSShapeGroup"></path>
            <path d="M30.7453402,6.19316508 C29.4958373,6.04606149 27.8463775,5.47029919 27.5543761,7.16567275 C27.2496287,8.94488968 29.0879624,8.76417321 30.2692931,9.0226903 C38.2923769,10.7760366 41.0858947,13.6314325 42.4068531,21.4131933 C42.5997825,22.5477226 42.2164342,24.3135322 44.1882156,24.0208357 C45.649574,23.8032961 45.1217701,22.2895832 45.2440166,21.405451 C45.3087127,13.9345149 38.7614716,7.1343259 30.7453402,6.19316508 L30.7453402,6.19316508 Z" id="path21-2" sketch:type="MSShapeGroup"></path>
            <path d="M31.5922829,12.3513182 C30.7581866,12.3715237 29.93954,12.4597103 29.6330545,13.3311905 C29.1726503,14.6337843 30.14116,14.9444202 31.1270507,15.0992661 C34.4182454,15.6159226 36.1503617,17.51354 36.4790563,20.7226264 C36.5678926,21.5937289 37.1331624,22.2994107 37.9937165,22.2000827 C39.1860552,22.0610991 39.2938176,21.0232541 39.2573174,20.0377167 C39.3162198,16.4322625 35.1486349,12.26502 31.5922829,12.3513182 L31.5922829,12.3513182 Z" id="path23" sketch:type="MSShapeGroup"></path>
        </g>
    </g>
</svg>