<?xml version="1.0" encoding="UTF-8" standalone="no"?>
<svg width="588px" height="425px" viewBox="0 0 588 425" version="1.1" xmlns="http://www.w3.org/2000/svg" xmlns:xlink="http://www.w3.org/1999/xlink" xmlns:sketch="http://www.bohemiancoding.com/sketch/ns" preserveAspectRatio="none">
    <!-- Generator: Sketch 3.2.2 (9983) - http://www.bohemiancoding.com/sketch -->
    <title>pictureframe</title>
    <desc>Created with Sketch.</desc>
    <defs></defs>
    <g id="Page-1" stroke="none" stroke-width="1" fill="none" fill-rule="evenodd" sketch:type="MSPage">
        <g id="pictureframe" sketch:type="MSLayerGroup">
            <g id="Page-1" sketch:type="MSShapeGroup">
                <g id="wholething">
                    <path d="M0,0 L588,0 L588,425 L0,425 L0,0 L0,0 Z M295.196086,8.76158016 C292.582393,9.55750268 284.37459,14.9245955 276.146277,15.7783156 C265.531181,16.879674 254.77011,13.3824953 254.77011,13.3824953 C254.77011,13.3824953 215.475872,15.9445539 198.435151,14.7783157 C174.508648,13.1408263 142.86844,4.97131259 142.86844,4.97131259 L34.6418099,19.7783157 C34.6418099,19.7783157 28.4772154,45.2232151 23.9110116,56.1056014 C19.5199748,66.5705217 7.77008787,83.8202353 7.77008787,83.8202353 C7.77008787,83.8202353 14.7345065,108.591277 14.241969,128.745269 C13.7494315,148.899261 4.36606494,161.498702 4.36606494,161.498702 C4.36606494,161.498702 13.2945803,181.781659 14.7494311,195.006362 C16.3683041,209.722041 13.7494311,238.910689 13.7494311,238.910689 C15.3765082,242.925109 18.3764319,249.063811 15.5629315,264.580749 C12.7494311,280.097686 8.63454391,280.815333 8.63454391,280.815333 C10.2151986,285.508907 13.7958533,290.202482 15.376508,294.896056 C16.8693555,299.328897 17.362203,305.761738 18.8550505,310.194579 L23.9110111,328.078277 L19.7219938,344.321899 C19.7219938,344.321899 20.4773651,351.16409 19.8550507,354.585186 C18.1531774,363.941024 12.7494306,382.652698 12.7494306,382.652698 L13.7494311,420.430999 C13.7494311,420.430999 15.5031628,412.421538 34.6418099,407.709472 C53.7804569,402.997405 67.8176312,411.508422 67.8176312,411.508422 C67.8176312,411.508422 85.0821714,406.997301 92.2510761,407.709472 C100.834693,408.562182 115.075196,416.203063 115.075196,416.203063 C115.075196,416.203063 133.022468,415.240893 142.496104,415.759808 C152.666211,416.316871 174.006424,419.430999 174.006424,419.430999 C174.006424,419.430999 191.931371,409.387596 202.180817,407.709472 C207.472547,406.843066 217.851753,406.04287 224.902,407.066377 C229.142901,407.682042 232.179276,410.233916 232.179276,410.233916 C232.179276,410.233916 260.913598,403.879793 276.146271,402.997405 C284.772287,402.497723 303.755341,406.087707 303.755341,406.087707 C303.755341,406.087707 319.588248,406.38388 335.861373,405.890563 C346.460245,405.569259 357.24586,404.337255 363.965363,404.447173 C370.335361,404.551374 378.331177,407.240661 378.331177,407.240661 C378.331177,407.240661 399.309663,404.801629 408.58899,406.087707 C415.023876,406.979556 424.473816,413.774444 424.473816,413.774444 C424.473816,413.774444 434.419892,407.369323 464.570252,407.709472 C494.720612,408.049621 515.056763,419.430999 515.056763,419.430999 C515.056763,419.430999 527.686493,404.715414 537.261231,400.562743 C548.206675,395.815582 576.61731,392.731505 576.61731,392.731505 C576.61731,392.731505 574.191759,376.719663 574.603272,370.477172 C574.929505,365.528354 579.823548,345.6062 579.823548,345.6062 L576.61731,261.996978 C576.61731,261.996978 568.007874,224.075362 568.007874,197.718825 C568.007874,174.947756 579.823548,133.356963 579.823548,133.356963 C579.823548,133.356963 577.306606,130.561024 575.705537,125.940045 C573.767092,120.345335 572.705329,112.541248 573.063097,109.800304 C573.827954,103.940559 578.357666,92.2210685 578.357666,92.2210685 C578.357666,92.2210685 567.262596,57.7129529 568.840411,45.3736591 C570.432711,32.9210857 576.61731,10.0159388 576.61731,10.0159388 C576.61731,10.0159388 566.396705,18.8247462 549.144751,18.8247462 C531.892798,18.8247462 525.175099,13.1278377 525.175099,13.1278377 C525.175099,13.1278377 511.495085,15.8491806 506.949402,15.7783156 C501.343593,15.6909237 494.720624,12.6530669 494.720624,12.6530669 C494.720624,12.6530669 472.275843,17.3579242 465.553453,16.7103528 C458.868009,16.0663406 445.497123,12.778316 445.497123,12.778316 L436.2818,8.76158006 C436.2818,8.76158006 432.81406,9.97103443 429.710998,10.396571 C425.413471,10.9859098 411.818418,10.0159389 411.818418,10.0159389 L373.174595,18.1452296 L313.770879,6.10517996 C313.770879,6.10517996 301.387684,6.87611343 295.196086,8.76158016 Z" id="Rectangle-1" fill="#F5FAFB"></path>
                    <g id="Group" fill="#E6F0F2">
                        <path d="M586.516264,226.50248 C585.466818,228.628387 584.383313,230.486275 583.377449,232.936085 C582.353979,235.431515 581.413633,238.500622 580.538516,241.744226 C578.679471,248.627191 577.145132,257.109147 575.949928,265.970893 C575.30629,270.733653 574.777526,275.794086 574.383839,280.961727 C573.952054,286.656282 573.735584,292.621137 573.592425,298.519843 C573.452729,304.280549 573.564139,310.013881 573.788691,315.711858 C573.878743,317.997436 574.00747,320.198615 574.204602,322.376986 C574.393942,324.470844 574.62975,326.520107 574.883453,328.507101 C575.080296,330.048496 575.330535,331.258461 575.619162,332.329855 C575.943578,334.119197 576.295415,335.834863 576.674959,337.44412 C576.851021,338.189898 577.037474,338.895986 577.231142,339.572991 C575.631284,345.866199 574.118303,352.67389 573.505548,361.470512 C572.785136,371.801916 573.659964,383.594538 575.411062,391.538061 C576.150524,394.888303 577.209206,397.240599 578.205835,399.165206 C579.242005,401.165543 580.353795,402.613418 581.440475,404.101438 C581.443938,404.110334 581.447402,404.088094 581.443938,404.079198 C580.423354,399.965273 579.371021,395.953195 578.462712,391.436783 C578.118958,389.582661 577.808684,387.666722 577.555559,385.600691 C577.379208,383.751928 577.254233,381.870775 577.170242,379.92484 C577.109342,377.326764 577.111074,374.726065 577.174283,372.130041 C577.242688,370.755044 577.338223,369.437073 577.45858,368.128455 C577.615016,366.867281 577.789346,365.672599 577.990808,364.511106 C578.541508,361.914626 579.161478,359.625627 579.831669,357.494246 C580.713135,354.842794 581.644823,352.175717 582.635101,350.207428 C582.646646,350.194426 582.658191,350.181424 582.669447,350.167852 C583.176854,349.584255 583.027056,350.123372 583.781238,348.595206 C585.547922,345.022224 585.982017,335.581898 585.026951,329.130845 C584.447965,325.220956 583.420743,322.673517 582.491076,320.043506 C582.110089,318.782105 581.749305,317.438587 581.413921,315.993563 C581.170031,314.006799 580.848501,312.155754 580.588737,310.183817 C580.194473,305.856731 579.934132,301.344881 579.755183,296.799958 C579.559494,290.026482 579.510428,283.217651 579.700633,276.43163 C579.992434,268.830146 580.483966,261.36096 581.216212,254.230505 C581.805299,248.896351 582.510125,243.866711 583.388705,239.180365 C584.321547,234.484894 585.433626,230.647086 586.520883,226.52529 C586.523769,226.513885 586.522037,226.500199 586.518862,226.500199 C586.517996,226.500199 586.51713,226.501341 586.516264,226.50248 M581.157909,254.765404 C581.145787,254.876033 581.133664,254.988944 581.121542,255.100713 C581.133664,254.988944 581.145787,254.876033 581.157909,254.765404" id="Fill-3"></path>
                        <path d="M587.948191,115.868025 C586.808459,116.353242 585.677822,118.35331 584.669948,119.958705 C583.106985,122.438186 581.607678,125.399402 580.197033,128.614834 C574.400242,141.81784 569.634438,160.149287 567.321633,181.246934 C566.753662,185.15885 566.58202,189.446867 566.399769,193.678004 C566.217897,197.909142 566.219413,202.235465 566.277006,206.49214 C566.398253,215.194702 566.944628,223.936731 568.058972,231.967186 C570.180054,247.257321 574.58022,257.191498 578.869368,266.532503 C578.873915,266.541789 578.878462,266.523216 578.876946,266.510448 C576.848694,257.168282 574.643875,247.985147 573.157451,237.678351 C572.583796,233.213892 572.192013,228.591563 571.954443,223.857796 C571.611917,214.603852 571.679741,205.178108 572.025676,195.925324 C572.202622,192.641404 572.49627,189.39347 572.631537,186.101424 C573.139263,180.327576 573.762554,174.683737 574.50444,169.154819 C576.086348,158.008761 578.080877,147.632317 580.488028,137.968608 C582.276058,130.997969 584.289911,124.868914 586.526179,119.285438 C586.980101,118.262768 587.418109,117.148394 587.898176,116.241804 C587.892114,116.297523 587.884914,116.353242 587.877336,116.4078 C587.875821,116.421729 587.881504,116.431016 587.884535,116.421729 C587.959937,116.208141 587.93796,116.285915 587.992522,116.049111 C588.014877,115.956246 587.982671,115.866864 587.954253,115.866864 C587.95198,115.866864 587.950085,115.866864 587.948191,115.868025" id="Fill-5"></path>
                        <path d="M577.664481,7.91423871 C574.600588,14.1408015 571.428003,20.2478012 569.243908,27.7976827 C568.184769,31.4623468 567.6709,35.4787352 567.276591,39.5647719 C566.821295,44.2811262 566.635311,49.1727622 566.611762,53.9703729 C566.564058,63.4425489 567.687204,73.0923282 569.866469,81.5720152 C570.102571,82.4913734 570.489029,83.4258222 570.769816,84.305713 C571.06751,85.2308753 571.402038,86.0921933 571.746832,86.948868 C572.331954,88.4091618 572.917077,89.8764205 573.559565,91.2450106 C571.170163,95.7930481 569.595344,101.854776 569.637613,108.387792 C569.67807,114.522651 571.196732,120.699299 573.256436,125.250819 C575.282325,129.726886 578.221223,132.669529 580.813515,135.739861 C580.820762,135.747987 580.828008,135.730574 580.825592,135.721288 C579.370334,131.217361 577.732715,126.891038 576.575754,122.064407 C576.221903,120.310429 575.974932,118.55413 575.81431,116.702644 C575.714072,114.797762 575.676634,112.917256 575.749095,111.005409 C575.83001,110.124357 575.934474,109.266522 576.071546,108.405204 C576.279872,107.611213 576.513558,106.856689 576.773814,106.120738 C577.104116,105.406842 577.450117,104.742861 577.824499,104.116026 C578.472421,103.248904 579.142082,102.49322 579.844349,101.795575 C580.162574,101.577344 580.483214,101.378846 580.813515,101.209368 C583.870766,99.6550492 585.750525,93.2566872 584.55673,87.4793563 C583.650364,83.0915101 581.874465,79.5046199 580.312931,75.8550462 C578.896318,72.059211 577.768945,67.843164 576.791929,63.5621119 C575.25636,56.2559997 574.153141,48.7699626 573.525146,40.9728294 C573.343993,38.1114429 573.226848,35.2314835 573.353655,32.3538458 C574.059546,23.8242441 576.034712,15.9029048 577.678973,7.9328116 C577.680785,7.92236435 577.674142,7.9119171 577.668708,7.9119171 C577.666896,7.9119171 577.665688,7.9130779 577.664481,7.91423871 M573.592776,41.9966602 C573.600022,42.1034544 573.607268,42.2102485 573.614514,42.3170427 C573.607268,42.2102485 573.600022,42.1034544 573.592776,41.9966602" id="Fill-6"></path>
                        <path d="M521.080065,7.79734378 C521.990878,9.76490724 523.027953,11.6306161 524.784829,13.4127675 C526.353932,15.001578 528.647152,16.395218 531.095771,17.555873 C533.861665,18.8683952 536.984761,19.8503472 540.483406,20.3718186 C544.286375,20.9365935 548.430359,20.7792372 552.282969,20.4858714 C559.275941,19.9546415 566.265678,18.1920072 570.936292,15.1375875 C573.246779,13.6292848 575.046822,11.8709198 576.762691,10.1369512 C576.770245,10.1320719 576.758374,10.1223134 576.745424,10.1271926 C572.480574,11.6464737 568.36249,13.3420181 563.753386,14.5148714 C559.653648,15.4486406 555.381244,16.1146602 551.008478,16.4806051 C547.654441,16.7056612 544.204358,16.8502094 540.833054,16.6873639 C539.38266,16.5306176 537.989462,16.3104407 536.603817,16.0146353 C534.285775,15.4303434 532.106946,14.7167509 530.058696,13.8647093 C528.089225,12.9748535 526.340982,11.9868024 524.772958,10.8651814 C523.485517,9.86615198 522.320022,8.82137944 521.104885,7.79246451 C521.102727,7.79002488 521.097331,7.78880506 521.093014,7.78880506 C521.08546,7.78880506 521.076827,7.79246451 521.080065,7.79734378 M524.65425,10.7797943 C524.68123,10.7980915 524.70605,10.8163888 524.730871,10.834686 C524.704971,10.8163888 524.68015,10.7980915 524.65425,10.7797943 M530.167691,13.913502 C530.194671,13.9257002 530.22057,13.9372884 530.24755,13.9494866 C530.22057,13.9372884 530.194671,13.9257002 530.167691,13.913502 M536.997711,16.1122206 C537.060303,16.1274683 537.121815,16.1421061 537.183328,16.1573538 C537.121815,16.142716 537.059223,16.1274683 536.997711,16.1122206" id="Fill-7"></path>
                        <path d="M432.984731,4.14033494 C434.027064,6.37686786 435.208937,8.43530763 437.352604,10.3345614 C439.404493,12.1545271 442.130668,13.607938 444.983271,14.8637388 C448.162715,16.262258 451.835699,17.277145 455.486207,18.0175735 C457.304906,18.3847381 459.174175,18.6036951 461.054683,18.7781288 C462.498779,18.9092591 464.139541,19.122117 465.637953,19.0044047 C467.872461,19.0647856 470.097604,19.0818631 472.333048,19.0544172 C477.524112,18.9922066 482.429541,18.1846883 487.17389,16.8361815 C490.912429,15.7737216 494.103112,14.0818366 497.223556,12.407029 C499.15089,11.3707952 500.99862,10.2699111 502.84635,9.17390631 C502.852906,9.16963695 502.84635,9.15743879 502.835112,9.15987842 C500.167937,9.82711786 497.523239,10.5248527 494.874795,11.2207578 C492.888461,11.7446689 490.916175,12.2734592 488.879271,12.7168623 C485.67735,13.4133774 482.364922,13.840313 479.030953,14.1544157 C474.557255,14.4977939 470.035795,14.464249 465.541493,14.6246548 C464.611541,14.5709829 463.667541,14.6423421 462.733842,14.6612493 C461.03689,14.6947942 459.349302,14.6112368 457.668271,14.4782769 C454.244398,14.0915951 450.946017,13.4511917 447.728175,12.6028095 C445.120937,11.8483532 442.672906,10.9219029 440.383144,9.81369988 C438.665588,8.91286565 437.140017,7.92908392 435.760541,6.80624315 C434.773461,5.94505294 433.910937,5.03324036 433.006271,4.13301604 C433.004398,4.13057641 433.000652,4.12935659 432.996906,4.12935659 C432.989414,4.12935659 432.981922,4.13362595 432.984731,4.14033494 M435.777398,6.82149085 C435.796128,6.83673855 435.813922,6.85198625 435.830779,6.86784386 C435.812985,6.85259616 435.795191,6.83673855 435.777398,6.82149085" id="Fill-8"></path>
                        <path d="M491.987183,12.0703598 C492.590294,12.4131281 493.073532,12.8705592 493.651357,13.2377238 C494.763929,13.9452172 496.061929,14.5862306 497.412373,15.0887949 C501.018865,16.4373016 505.503802,16.9069308 509.60477,16.8898534 C515.23131,16.8709463 521.995707,15.6011176 525.726754,12.6875868 C525.7305,12.6827075 525.726754,12.6705093 525.712707,12.6753886 C523.597135,13.2005194 521.464707,13.5188915 519.228326,13.7329692 C516.728786,13.9171614 514.229246,14.0055981 511.715659,14.0452421 C508.224357,14.1013537 504.697469,14.2544406 501.221151,13.9860811 C499.291945,13.8012789 497.243802,13.6164768 495.413865,13.1779528 C495.279945,13.1407485 495.145088,13.1047639 495.012103,13.0687793 C495.059865,13.0803676 495.107627,13.0950053 495.155389,13.1065936 C494.138342,12.8089585 493.098818,12.2088089 491.998421,12.0581616 L491.994675,12.0581616 C491.98531,12.0581616 491.980627,12.0660904 491.987183,12.0703598 M519.100024,13.7451674 C519.06631,13.7482169 519.032596,13.7518763 518.999818,13.7549259 C519.033532,13.7512664 519.067246,13.7482169 519.100024,13.7451674" id="Fill-9"></path>
                        <path d="M492.938101,12.0636508 C492.80699,12.3826327 493.446625,12.7687045 493.768783,12.9833922 C494.690307,13.6048885 495.828164,14.1409977 496.981006,14.5673235 C499.984387,15.6755264 503.540307,16.3378866 506.98572,16.4208341 C510.205434,16.4970726 513.486958,16.2256635 516.636434,15.8158053 C519.43472,15.4492505 523.067434,14.7057726 523.989894,12.7351596 C523.989894,12.7284506 523.97491,12.7235713 523.967418,12.7284506 C523.693021,12.8973951 523.422371,13.0614604 523.122688,13.2121077 C523.140482,13.2023492 523.162958,13.190151 523.180752,13.1810024 C523.036529,13.2419932 522.883879,13.2926156 522.726545,13.3371389 C521.936133,13.5426779 521.148529,13.6792973 520.313164,13.7787123 C517.313529,14.0177963 514.267069,13.9909603 511.251513,14.1031834 C508.431688,14.2044281 505.498545,14.2343136 502.685275,14.0245053 C499.870133,13.7482169 497.09526,13.3944702 494.43745,12.7101534 C494.383133,12.6955156 494.328815,12.6802679 494.274498,12.6656301 C494.278244,12.6668499 494.281053,12.6674598 494.284799,12.6686796 C494.281053,12.6674598 494.277307,12.66624 494.273561,12.6656301 C494.248275,12.6583112 494.22299,12.6516022 494.196767,12.6448932 C494.218307,12.6497725 494.23891,12.6552616 494.26045,12.6613607 C493.823101,12.5290107 493.410101,12.3722643 493.01864,12.1850225 C493.026133,12.1874621 493.029879,12.1899018 493.037371,12.1923414 C493.023323,12.1850225 493.012085,12.1777036 493.000847,12.1703847 C492.986799,12.1356199 492.973688,12.1008552 492.960577,12.0636508 C492.958704,12.0599913 492.953085,12.0581616 492.948402,12.0581616 C492.942783,12.0581616 492.938101,12.0599913 492.938101,12.0636508 M494.480529,12.7217416 L494.522672,12.73272 L494.480529,12.7217416 M522.722799,13.3377488 C522.690021,13.3468974 522.65818,13.356046 522.625402,13.3645847 C522.659117,13.3554361 522.690021,13.3468974 522.722799,13.3377488 M494.273561,12.6656301 L494.274498,12.6656301 C494.269815,12.6638003 494.265133,12.6625805 494.26045,12.6613607 C494.265133,12.6625805 494.269815,12.6638003 494.273561,12.6656301" id="Fill-10"></path>
                        <path d="M492.157173,16.3366668 C492.193697,16.4257134 492.286411,16.5989273 492.421268,16.8038564 C491.982983,16.6556487 491.536268,16.5147599 491.064268,16.4007071 C491.049284,16.3988774 491.041792,16.408026 491.05303,16.4129053 C491.698284,16.8581382 492.383808,17.2496992 493.107729,17.6235728 C493.473903,17.9565826 493.908443,18.1913973 494.348602,18.0852733 C494.637046,18.0157437 494.761602,17.8327713 494.701665,17.675415 C494.703538,17.6748051 494.705411,17.6741952 494.707284,17.6729754 C494.691364,17.6382106 494.665141,17.6046657 494.630491,17.5723406 C494.629554,17.5705108 494.627681,17.5686811 494.625808,17.5674613 C494.336427,17.3009315 493.487014,17.1088104 493.116157,16.9593829 C492.763094,16.7721412 492.473713,16.5531842 492.175903,16.3293479 C492.17403,16.3281281 492.171221,16.3275182 492.168411,16.3275182 C492.161856,16.3275182 492.1553,16.3317875 492.157173,16.3366668 M493.122713,16.9624325 C493.140506,16.9709712 493.157364,16.9801198 493.174221,16.9892684 C493.157364,16.9807297 493.140506,16.9715811 493.122713,16.9624325" id="Fill-11"></path>
                        <path d="M402.079848,5.40223475 C402.079848,5.51384793 402.072356,5.47847326 402.116372,5.58825671 C402.116372,5.5949657 402.134166,5.5949657 402.137912,5.58825671 C402.14915,5.55776131 402.163198,5.52970554 402.177245,5.49982004 C402.624896,5.99750504 403.245801,6.39821464 403.853594,6.81478186 C404.90342,7.53935266 405.968229,8.23220824 407.194118,8.83296769 C410.028928,10.2192888 413.252388,11.1890426 416.720277,11.6562322 C420.052372,12.1063444 423.773118,11.7891922 427.105213,11.4799688 C428.770325,11.3250521 430.382991,11.0792591 431.948832,10.6864783 C432.702721,10.4955771 433.460356,10.2955273 434.173039,10.045465 C435.431705,9.59779242 436.207134,9.01167076 436.978817,8.24196677 C436.986309,8.23464787 436.972261,8.22793888 436.964769,8.23037851 C436.554578,8.373097 436.144388,8.51825513 435.730451,8.65670426 C435.147944,8.8030822 434.618817,8.90066749 434.002594,8.96714747 C428.754404,9.37639579 423.356372,9.20501162 418.090388,9.01228067 C417.823483,8.98788435 417.555642,8.96409793 417.286864,8.94031152 C417.473229,8.95677903 417.66334,8.97324655 417.850642,8.99032398 C414.305959,8.55545952 410.789372,7.91932539 407.433864,7.05691537 C406.266975,6.71414703 405.134737,6.33234457 403.97815,5.97615825 C403.498658,5.82612087 402.705436,5.39735549 402.185674,5.34978266 C402.180991,5.34917275 402.175372,5.34917275 402.17069,5.34917275 C402.123864,5.34917275 402.079848,5.3680799 402.079848,5.40223475 M402.174436,5.50347949 C402.173499,5.50469931 402.172563,5.50591912 402.17069,5.50713894 C402.172563,5.50591912 402.173499,5.50469931 402.174436,5.50347949 M435.79788,8.63962683 C435.782896,8.64389619 435.766975,8.64755564 435.751991,8.65121509 C435.766975,8.64755564 435.782896,8.64389619 435.79788,8.63962683 M434.191769,8.95189977 C434.16461,8.9543394 434.138388,8.95616913 434.111229,8.95860876 C434.137451,8.95616913 434.16461,8.95372949 434.191769,8.95189977" id="Fill-12"></path>
                        <path d="M300.008011,4.14582411 C303.055408,4.75329255 306.150566,5.27537387 309.138963,5.99933476 C310.970773,6.44517757 312.807265,6.88370147 314.64563,7.31734612 C323.824344,9.92409325 332.854154,12.8095684 342.213614,15.1388073 C344.693487,15.757864 347.169614,16.4299827 349.698185,16.9636523 C352.258598,17.4997615 354.822757,18.0236725 357.4019,18.5219674 C361.01682,19.2197023 364.839646,19.5893066 368.589424,19.8107032 C372.418805,20.0394187 376.264106,19.8607157 380.0579,19.4959906 C384.685185,19.055637 388.994995,18.1261371 393.336646,17.0447701 C395.967297,16.3897288 398.531455,15.6035573 401.110598,14.8649586 C403.590471,14.1544157 406.071281,13.4463124 408.541789,12.7278407 C410.850281,12.1344001 413.171884,11.5891423 415.55717,11.1432995 C418.374185,10.6193885 421.238027,10.1948924 424.080328,9.73990101 C424.091566,9.73746137 424.08782,9.72587312 424.077519,9.72587312 C418.238392,9.41847945 412.385217,9.15621898 406.572312,9.78747384 C404.004408,10.0662018 401.447741,10.3595676 398.89763,10.6931873 C393.601678,11.3848231 388.380646,12.3082239 383.038805,12.8315251 C378.176455,13.1956402 373.326281,13.1688042 368.467678,12.7973702 C364.22717,12.3704346 360.066265,11.6568421 355.869773,11.0792591 C353.579074,10.7669862 351.293059,10.4522736 349.006106,10.1235332 C344.375074,9.46117302 339.744043,8.80857137 335.127059,8.10351763 C330.327455,7.36979821 325.542836,6.57386817 320.724503,5.89504048 C318.2259,5.54434333 315.753519,5.20157499 313.228693,4.95639194 C311.710614,4.81062391 310.188789,4.66790542 308.670709,4.52701666 C305.813424,4.26292646 302.890582,4.23914004 300.011757,4.12935659 C299.996773,4.12935659 299.996773,4.14338448 300.008011,4.14582411" id="Fill-13"></path>
                        <path d="M282.945529,2.39191626 C278.006756,3.97497126 273.122691,5.62524064 267.982696,6.90646089 C258.95766,9.01552703 249.452628,9.85266074 239.965621,10.4260602 C235.546686,10.5691582 231.132097,10.7522167 226.721261,10.9708612 C222.878236,11.1601036 218.995445,11.0692963 215.143274,11.1369258 C211.434781,11.2020854 207.711064,11.0801082 204.00128,11.1141218 C201.732261,11.1322835 199.466199,11.1605005 197.201966,11.21304 C191.366967,11.3442351 185.457798,11.203515 179.688929,10.5333521 C173.651758,9.73381179 167.748217,8.61981765 161.869748,7.41401327 C157.053312,6.42800208 152.232879,5.4095066 147.356494,4.5769178 C141.985155,3.65870096 136.616842,2.80901207 131.187775,2.06357764 C128.579146,1.70356119 125.909094,1.50375816 123.272252,1.2634339 C120.828169,1.04038461 118.33789,1.0340604 115.877665,0.967822426 C111.260376,0.844018656 106.658506,0.904870383 102.04337,1.03865998 C102.032148,1.03826986 102.023538,1.05227718 102.038502,1.05279734 C105.671123,1.50874562 109.324831,1.87585525 112.974017,2.2645786 C115.878422,2.63176651 118.786661,2.98602518 121.702918,3.32190178 C124.023852,3.70301886 126.349112,4.0650035 128.678995,4.41595239 C130.750057,4.73115725 132.790097,5.15413816 134.841981,5.52217052 C136.589656,5.83546437 138.325867,6.16328833 140.064692,6.50550973 C142.157101,6.91849255 144.290047,7.26943795 146.359536,7.73511824 C148.951651,8.31600168 151.543615,8.88692747 154.14434,9.45380359 C156.013033,9.8614979 157.825997,10.3810856 159.66016,10.8578684 C161.464788,11.3286484 163.283437,11.7762787 165.055059,12.3087359 C167.317618,12.9895061 169.576094,13.6744885 171.838654,14.3552586 C174.98555,15.3802703 178.138195,16.3799788 181.348507,17.3145132 C184.879678,18.3423083 188.64149,19.3352012 192.494483,19.6607202 C196.056043,20.1614723 199.616412,20.4873938 203.237559,20.7799725 C205.639794,20.9748201 208.023413,20.9898771 210.44651,21.0156369 C211.705756,21.0301748 212.969085,21.0405005 214.227983,21.047562 C215.71468,21.0556998 217.241581,20.887336 218.731791,20.8035362 C220.465053,20.7057923 222.197969,20.6005721 223.932162,20.4910421 C224.878431,20.4312539 225.872656,20.4172965 226.808323,20.3017796 C232.482277,19.6095177 238.19192,18.9284488 243.772109,17.9511501 C250.914702,16.7003553 257.865969,15.0106021 264.372892,12.6777794 C267.313441,11.6261399 270.05973,10.3388423 272.674271,8.96236953 C275.525871,7.45791371 278.059958,5.71102728 280.627774,4.00014674 C281.412882,3.47570167 282.184153,2.93646906 282.958577,2.40481034 C282.968419,2.39893222 282.963396,2.3912933 282.953109,2.3909357 C282.950303,2.39083817 282.948384,2.39139347 282.945529,2.39191626" id="Fill-14"></path>
                        <path d="M126.286162,3.95672424 C122.039099,4.08053558 117.806083,4.30498175 113.588051,4.65018972 C107.727385,5.1314072 102.064321,5.86512661 96.4349719,7.03005105 C94.2547814,7.48321275 92.1176703,8.05469662 89.9814957,8.58348692 C86.2579401,9.5026184 82.592448,10.5229946 78.9447496,11.5628879 C78.6469401,11.641566 78.3491306,11.7208541 78.0522576,11.8001421 C77.4369719,11.8312474 76.8563369,11.940421 76.3075433,12.1313222 C75.1799877,12.4338366 74.0468131,12.7265925 72.90521,13.0101998 C70.7503052,13.546309 68.5373369,13.9872725 66.3159401,14.4014001 C62.1174814,15.1906211 57.832583,15.7005043 53.5186528,16.1286598 C50.9681671,16.3116322 48.4174941,16.5019235 45.8669147,16.7007535 C40.5508274,17.1124415 35.2238766,17.2106367 29.9004846,16.8007785 C24.8014798,16.299434 19.910848,15.2491723 15.1589132,13.9579969 C12.3703671,13.1632867 9.65065443,12.2716011 6.89207666,11.4378567 C6.87746713,11.4329775 6.86650999,11.4451756 6.87746713,11.4518846 C7.10428935,11.5641077 7.3274592,11.6763308 7.55053539,11.787944 C7.54323062,11.7830647 7.53592586,11.7806251 7.5286211,11.7763557 C10.4296417,13.2535531 13.2428179,14.7996701 16.2755115,16.1597651 C19.4398782,17.5820707 22.8273211,18.7689518 26.3721909,19.7338264 C32.3973084,21.3775287 39.0772322,22.0185421 45.5632988,22.2277406 C49.2874163,22.3472825 53.0114401,22.490001 56.73921,22.463775 C60.9974179,22.4326697 65.2117973,22.1490624 69.4148449,21.7178574 C71.3974322,21.5153679 73.3622258,21.2323706 75.3120353,20.9225373 C77.6888925,20.5437843 80.2661623,20.10831 82.4210671,19.3245781 C90.4628607,17.4033677 98.21621,15.0106983 106.337607,13.2224478 C111.766543,12.0288577 117.378099,11.2213394 122.898813,10.2302387 C127.708718,9.3666089 132.587924,8.41210275 137.522385,7.92783574 C142.543004,7.54115402 147.564559,7.62166188 152.61421,7.64971765 C152.625448,7.64971765 152.63294,7.6381294 152.621702,7.63568977 C147.854877,6.27742448 143.095543,4.96490229 137.96348,4.32144927 C135.384337,3.99880789 132.767734,3.8939037 130.150194,3.8939037 C128.860623,3.8939037 127.571988,3.91890993 126.286162,3.95672424" id="Fill-15"></path>
                        <path d="M305.596412,4.81753148 C303.782397,4.88157183 302.01146,5.18408623 300.266746,5.4914799 C296.93746,6.07516194 293.798285,6.88511986 290.963476,8.19093306 C289.14665,9.02772695 287.387889,9.92002247 285.660968,10.8348846 C284.417285,11.4203963 283.164238,11.9705334 281.813793,12.45785 C281.844698,12.4493113 281.876539,12.4407726 281.907444,12.4322338 C280.294777,12.8914946 278.747666,13.4739568 277.147174,13.9600536 C276.187254,14.1918186 275.233889,14.3784505 274.229016,14.5187294 C271.657365,14.6986523 269.023904,14.6864541 266.464428,14.5138501 C264.639174,14.3900388 262.83546,14.2278032 260.998968,14.1686421 C258.891825,14.0991126 256.81746,14.2088961 254.725301,14.3924784 C250.835984,14.7352467 247.444889,16.093512 244.558571,17.7494125 C244.551079,17.7542917 244.558571,17.7634404 244.569809,17.7610007 C245.012777,17.6420687 245.389254,17.5371645 245.832222,17.4133531 C245.826603,17.4151828 245.820984,17.4176225 245.814428,17.4188423 C247.385889,17.0022751 249.004174,16.7674605 250.674904,16.6009556 C252.124619,16.4923919 253.521889,16.4948316 254.974412,16.5887574 C256.790301,16.7644109 258.573412,17.0156931 260.340603,17.3371146 C262.118095,17.6585362 263.874047,18.0568061 265.674016,18.3257756 C268.216635,18.7069682 270.736777,18.7356338 273.323412,18.6356089 C276.543127,18.5069183 279.512793,17.6707343 282.326063,16.6985409 C285.380952,15.6433999 288.286,14.4089459 291.113317,13.1104516 C293.129619,12.1864409 295.137492,11.250232 297.182825,10.3493978 C299.151365,9.48088865 301.347476,8.90513542 303.512682,8.28790845 C305.308904,7.82254858 307.089206,7.48282978 309.008111,7.295588 C311.595682,7.10529668 314.362127,6.86987216 316.949698,7.07846073 L316.947825,7.07846073 C317.738238,7.1973928 318.513666,7.33767166 319.292841,7.48100006 C319.304079,7.48343969 319.311571,7.47368116 319.304079,7.4688019 C317.822523,6.63993682 316.421508,5.99892343 314.526016,5.63663803 C313.545492,5.44878634 312.562158,5.26764364 311.555412,5.15542055 C309.876254,4.96512923 308.191476,4.80167387 306.487968,4.80167387 C306.191095,4.80167387 305.894222,4.80655313 305.596412,4.81753148 M245.773222,17.4298206 C245.786333,17.4267711 245.800381,17.4231117 245.814428,17.4188423 C245.801317,17.4225017 245.78727,17.4261612 245.773222,17.4298206" id="Fill-16"></path>
                        <path d="M34.6594013,18.1237616 C33.075291,23.6007603 31.5744623,29.2239536 29.9004814,34.5462826 C26.6905319,44.3307237 22.9419744,52.9816272 19.0969576,61.3020041 C16.8262998,66.2154122 14.5488775,71.0144072 12.1958165,75.6947514 C10.3126648,79.0000196 8.36511922,81.9726421 6.43075107,85.0956967 C6.42047263,85.1126468 6.42732492,85.1550219 6.43760337,85.146547 C13.2483468,82.2417248 19.4252528,73.2327505 24.7037174,62.7957309 C27.2526838,58.1874245 29.2851804,51.5451069 30.8640197,44.9811835 C32.8577745,36.6947069 33.835808,27.4187686 34.6799582,18.1491868 C34.6822423,18.1258803 34.6769713,18.111049 34.6700312,18.111049 C34.6666051,18.111049 34.6628275,18.1152866 34.6594013,18.1237616" id="Fill-17"></path>
                        <path d="M4.79468033,76.6540155 C5.49611639,79.2863731 6.19755245,81.9187306 6.92353289,84.5343782 C8.27911983,89.4047409 9.12492076,94.4979016 9.72747355,99.6523316 C9.85568461,101.093834 9.9934625,102.531995 10.1394741,103.969041 C10.3428082,106.992409 10.5453582,110.007979 10.7188156,113.036917 C10.8964291,116.121554 10.8565935,119.237383 11.1599087,122.305311 C11.1231313,121.922098 11.086354,121.54 11.0526349,121.152332 C11.2994118,127.222461 11.6874953,133.259171 11.1835121,139.319275 C10.813778,142.779326 10.2469048,146.124637 9.33484187,149.380829 C8.43524719,152.221503 7.34470819,154.890622 6.10572667,157.457254 C5.14081099,159.459093 4.06564165,161.247047 3.29065086,163.427124 C3.28453437,163.440492 3.29676735,163.45386 3.30594209,163.444948 C3.72507856,162.952565 4.13809854,162.452383 4.55409835,161.961114 C5.86561519,160.569741 7.17525003,159.167228 8.33871641,157.526321 C9.54256732,155.834171 10.6973295,154.076295 11.7020808,152.131269 C13.2366927,149.159145 14.3669889,145.947513 15.2767777,142.500829 C16.7133689,137.065674 17.0503249,131.347565 17.1452873,125.594922 C17.1851229,123.06728 17.2034724,120.521813 17.0809073,118.001969 C16.8113896,112.375207 16.3212862,106.740648 15.2216509,101.305492 C14.0668103,95.6219171 12.4402942,90.2691969 9.99589341,85.4389378 C8.42756236,82.3409326 6.60500486,79.4779793 4.81302981,76.6406477 C4.81130464,76.6384197 4.80895214,76.6373057 4.8063644,76.6373057 C4.79977741,76.6373057 4.79248467,76.6439896 4.79468033,76.6540155" id="Fill-18"></path>
                        <path d="M0.938761888,155.749508 C2.59917742,160.214378 4.30622311,164.609067 6.03224809,168.974793 C6.67792586,170.835155 7.33112989,172.673238 7.94135782,174.587073 C9.23740366,178.640881 10.3570729,182.841736 11.3061466,187.278756 C12.2202069,191.950829 12.7976029,196.77886 13.1638268,201.748368 C13.382525,205.312021 13.5277058,208.901295 13.6657419,212.47943 C13.8177399,216.407358 13.8884759,220.388756 13.6642149,224.31 C13.3799618,227.814611 12.9119149,231.157694 12.2703821,234.45399 C11.1339695,239.673031 9.60684537,244.46987 8.00953057,249.145285 C7.4577676,250.765026 6.90600461,252.374741 6.33717118,253.971088 C5.78115422,255.534016 5.17610741,257.01785 4.68400922,258.666554 C4.67975525,258.684378 4.6882632,258.69329 4.69464418,258.684378 C7.30440617,254.502461 9.68619845,249.541865 11.8826154,244.472098 C14.4476016,238.55013 16.4331193,231.652306 17.4109893,223.968005 C17.9244119,219.920881 18.0586304,215.560725 18.1396196,211.401088 C18.2290623,206.710078 18.1161682,202.083679 17.7774314,197.445026 C16.9018206,185.41728 13.3951779,174.473446 8.91497378,166.675518 C6.48207918,162.441244 3.67843388,159.087021 0.947269848,155.731684 C0.946397236,155.73057 0.945524625,155.73057 0.944597476,155.73057 C0.938870965,155.73057 0.93325353,155.74171 0.938761888,155.749508" id="Fill-19"></path>
                        <path d="M11.8229211,235.960104 C12.5712502,237.525259 13.3023277,239.053653 13.859791,240.774767 C14.4500324,242.968212 14.7462117,245.222927 14.9969094,247.52443 C15.2029097,250.877539 15.2092614,254.294145 14.9558191,257.643912 C14.4937104,261.988472 13.7242088,266.280674 12.5771315,270.36456 C12.2728752,271.364922 11.9730103,272.366399 11.67589,273.37456 C11.7096091,273.253135 11.7463081,273.135052 11.7800272,273.018083 C11.6315847,273.512694 11.4832205,274.010648 11.3364248,274.510829 C10.9459887,275.788575 10.5311652,277.026218 10.0616069,278.25272 C9.859449,278.778523 9.63580499,279.296528 9.40612291,279.797824 C8.99561226,280.711295 8.86700912,281.503342 8.77816316,282.564974 C8.77816316,282.578342 8.79345439,282.582798 8.79651264,282.573886 C8.96620605,282.146114 9.14483896,281.73171 9.33750843,281.325104 C10.1753109,280.068523 11.1461078,279.059249 11.924,277.700181 C12.7510594,276.255337 13.504564,274.728057 14.2458357,273.191865 C15.7529234,270.07158 17.1497574,266.638264 17.8603682,262.960984 C18.7088353,258.570751 18.7150302,254.005622 18.1513721,249.532953 C17.9032621,247.570104 17.4928299,245.716425 16.9567743,243.879456 C16.4941951,242.299819 15.8846632,240.925155 15.1280219,239.601736 C14.2488939,238.062202 12.9961111,236.991658 11.835154,235.937824 L11.8324095,235.937824 C11.8261361,235.937824 11.8176671,235.948964 11.8229211,235.960104" id="Fill-20"></path>
                        <path d="M7.28748659,271.596632 C7.18029117,274.904067 7.08532872,278.267202 7.71940496,281.487746 C8.11148772,283.480674 8.64754328,285.313187 9.42865058,287.066606 C10.0717447,288.512565 10.9155852,289.781399 11.679284,291.097021 C12.6621571,293.088834 13.5373642,295.122979 14.4093563,297.213938 C15.3559225,299.486477 16.2819436,301.725596 17.0270577,304.155207 C17.5533896,306.045648 18.0376902,307.943886 18.4649036,309.88557 C18.4680402,309.898938 18.4863897,309.894482 18.4833314,309.881114 C18.4097767,306.378731 18.4496123,302.901969 17.7083407,299.516554 C17.3989874,298.101788 17.0313706,296.743834 16.6178801,295.378083 C16.1798452,293.928782 15.7080912,292.522927 15.1567445,291.148264 C14.2196667,288.820026 12.7360255,287.06772 11.5441723,285.014637 C10.4323824,282.871321 9.56438963,280.504093 8.83440994,278.05443 C8.86201257,278.145777 8.88953678,278.237124 8.91713941,278.328472 C8.32289875,276.11386 7.83891179,273.842435 7.30591448,271.596632 C7.30450299,271.588834 7.30042532,271.585492 7.2965045,271.585492 C7.29195634,271.585492 7.28748659,271.589948 7.28748659,271.596632 M17.0526999,304.23987 C17.0609336,304.266606 17.0691673,304.293342 17.0773227,304.320078 C17.0687753,304.293342 17.0606984,304.266606 17.0526999,304.23987" id="Fill-21"></path>
                        <path d="M6.97845731,306.286269 C6.96928258,306.290725 6.96928258,306.313005 6.97845731,306.313005 C8.78250854,306.707358 10.4783449,307.085 12.1704173,308.055285 C13.71836,309.109119 15.1569901,310.399119 16.5350826,311.843964 C17.3579074,312.813135 18.1070992,313.840233 18.8016346,314.996554 C19.3622345,316.10386 19.8245001,317.242358 20.2289727,318.478886 C20.6130569,319.987228 20.8864955,321.495459 21.074852,323.066073 C21.1959272,325.022907 21.2401541,326.98921 21.1291163,328.949832 C20.9124513,330.660585 20.5634977,332.334132 20.1327556,333.960223 C19.0565668,337.387189 17.6776117,340.558383 16.1045757,343.572617 C14.3280487,346.740692 12.3070189,349.522881 10.2161984,352.269088 C9.39525548,353.343977 8.57431257,354.418754 7.79634195,355.558922 C6.63844314,357.247285 5.73790746,359.244557 4.85877949,361.233251 C4.85258458,361.246285 4.86795422,361.259319 4.87407072,361.25063 C5.65125717,360.35008 6.40429132,359.414886 7.17528286,358.509658 C10.1637377,355.337461 13.6824452,353.339409 16.7376325,350.289194 C19.0472352,347.982902 21.0688924,345.189238 22.8179736,342.051798 C23.6787521,340.511262 24.4169655,338.892523 25.0632747,337.156259 C25.8627314,335.010938 26.2701054,332.796104 26.4906912,330.402697 C26.8337636,326.656016 26.4416809,322.66136 25.608505,319.088238 C24.7936786,315.581399 23.4030395,312.509016 21.4640334,310.05044 C19.4822118,307.535052 16.9275574,306.134767 14.3637282,305.347176 C13.5898353,305.108782 12.840173,305.005181 12.1029006,305.005181 C10.3770307,305.005181 8.71906952,305.569974 6.97845731,306.286269" id="Fill-22"></path>
                        <path d="M20.3746041,343.009212 C19.4203531,348.354351 18.6018411,353.793719 17.4023031,359.000409 C16.8551908,361.035023 16.195394,362.854462 15.4068371,364.645343 C14.217258,367.074114 13.0474399,369.533681 12.0734279,372.229742 C10.1957436,377.416823 9.52488995,383.883894 9.50959872,389.867843 C9.50042398,393.620693 9.63522204,397.38894 10.0640037,401.074802 C10.6464819,406.099614 12.3262429,410.500618 12.8237959,415.556094 C12.9218166,417.216423 12.9285604,418.802263 12.8070932,420.45417 C12.6603758,421.832469 12.4895061,423.205636 12.343024,424.583804 C12.343024,424.599202 12.355257,424.609467 12.3613735,424.594069 C12.9679255,422.799898 13.629526,421.072582 14.1257459,419.175627 C14.6189076,417.283805 14.7720551,415.165885 14.8578428,413.119821 C14.9906021,409.989727 14.4866189,406.778169 14.2029862,403.687951 C13.8338795,398.466653 14.11861,393.07519 14.5012044,387.854023 C14.8340826,384.114334 15.3524944,380.474271 16.1692028,376.946335 C17.5584305,371.918496 19.5254313,367.37549 20.2674087,361.896641 C21.0913314,355.81504 20.6900739,349.188595 20.3929536,343.014345 C20.3929536,343.005527 20.3877781,343 20.3828379,343 C20.3793091,343 20.3758588,343.002895 20.3746041,343.009212 M12.8062306,420.466804 C12.8019961,420.522999 12.7976832,420.579326 12.7932918,420.635653 C12.795958,420.582222 12.8008983,420.52471 12.8062306,420.466804" id="Fill-23"></path>
                        <path d="M44.9662517,404.512185 C41.7615216,404.522898 38.2663803,404.768573 35.2514803,405.524539 C28.4481248,406.965508 23.0072946,409.780391 18.5500787,413.28584 C16.5014676,414.899569 14.5589629,416.66126 13.3005771,418.577778 C12.0787152,420.438899 11.5995041,422.373942 11.1750787,424.359884 C11.1714264,424.369117 11.1897819,424.373733 11.1970867,424.366809 C12.5418184,422.966973 13.8380391,421.558318 15.4006962,420.250159 C17.17772,418.868375 19.2321375,417.64485 21.293766,416.437009 C23.6628502,415.05268 26.0898105,413.709069 28.6232517,412.446364 C31.1494819,411.25184 33.76852,410.209065 36.643693,409.386102 C38.0097771,409.049756 39.4577121,408.791119 40.8617248,408.5326 C42.6154295,408.207144 44.4089359,407.984195 46.213774,407.81398 C48.498947,407.645599 50.7494692,407.577833 53.0498137,407.730766 C55.2555708,407.95549 57.3377089,408.332497 59.4129168,408.863916 C63.534301,410.004286 67.3266898,411.52474 71.1190787,413.045431 C71.1303168,413.050048 71.1443644,413.038507 71.1331264,413.03389 C68.6386438,411.501067 66.2205803,409.935928 63.52812,408.539525 C61.0661343,407.265693 58.3589708,406.259968 55.4141216,405.510927 C52.2113581,404.697256 48.7123771,404.511712 45.2882232,404.511653 C45.1807121,404.511653 45.0736692,404.511889 44.9662517,404.512185" id="Fill-24"></path>
                        <path d="M70.7580603,408.583854 C67.699519,410.014939 64.696138,411.873693 63.3827793,414.183316 C62.8267745,415.161224 62.4974984,416.180799 62.7938095,417.218839 C63.0974253,418.279961 63.9205222,419.234787 64.7217047,420.175764 C64.7290095,420.182689 64.747365,420.180381 64.7437126,420.173456 C64.6524968,419.304684 64.5580968,418.435972 64.6761904,417.569212 C64.7938158,417.202859 64.9444063,416.861304 65.1415412,416.511168 C65.4149079,416.146472 65.7257349,415.816162 66.0836682,415.478928 C66.9977936,414.763444 68.0079111,414.148871 69.1341555,413.563475 C71.4782349,412.464297 74.0498857,411.566347 76.7095682,410.813104 C78.748346,410.308318 80.8348857,409.964928 82.9972825,409.750502 C85.7908857,409.56342 88.5629492,409.564426 91.3528063,409.755355 C94.5069655,410.095253 97.629283,410.799136 100.595204,411.565164 C103.673505,412.417837 106.55795,413.437234 109.433029,414.543928 C111.993442,415.526512 114.430235,416.719438 117.422378,417.105559 C120.187886,417.461555 122.745489,416.996896 125.133585,416.127592 C127.606902,415.232897 129.223315,413.739431 131.115061,412.442458 C131.126299,412.437782 131.115061,412.426241 131.103823,412.430858 C129.290743,413.218606 127.615331,414.10537 125.618696,414.701774 C124.518299,414.985209 123.422585,415.206856 122.256632,415.356415 C121.628235,415.399975 121.032616,415.41412 120.385489,415.398614 C119.504235,415.306404 118.683854,415.16371 117.84568,414.965678 C117.336219,414.792149 116.876394,414.602344 116.414696,414.387207 C113.061061,412.649664 110.064235,410.689881 106.510188,409.099412 C104.625934,408.255557 102.610569,407.538889 100.536204,406.903128 C99.526648,406.595604 98.4796322,406.336671 97.4372988,406.080106 C96.5167115,405.8526 95.6457591,405.739024 94.6923941,405.652437 C94.861902,405.666878 95.0314099,405.68126 95.2018544,405.696293 C92.7678698,405.300229 90.2730126,405.103558 87.7884571,405.103499 C81.7161396,405.103381 75.7000126,406.277309 70.7580603,408.583854 M122.547886,415.334635 C122.472965,415.340731 122.399918,415.346354 122.32687,415.351621 C122.399918,415.345407 122.473902,415.339429 122.547886,415.334635 M65.9498412,415.585046 C65.9235253,415.606471 65.8972095,415.627896 65.8704253,415.649024 C65.8968349,415.6276 65.9232444,415.606293 65.9498412,415.585046" id="Fill-25"></path>
                        <path d="M124.743905,413.06517 C122.298836,413.59224 119.896612,414.231907 117.540793,414.943918 C115.653651,415.514884 113.823679,416.114359 112.065046,416.903986 C108.985191,418.284953 106.551954,420.435948 104.187723,422.556523 C104.181338,422.562453 104.190819,422.57346 104.197357,422.569984 C105.812531,422.035444 107.421927,421.490412 109.062604,421.00065 C111.903765,420.227591 114.832415,419.787789 117.876865,419.57869 C119.377282,419.476261 120.874166,419.349592 122.374583,419.247164 C125.997676,419.002043 129.589703,418.621559 133.232095,418.466007 C135.697527,418.425023 138.172447,418.522188 140.6672,418.770982 C143.086156,419.010566 145.476439,419.466687 147.884297,419.908561 C150.471053,420.438963 153.056841,420.942383 155.651636,421.392896 C155.830318,421.478789 156.01893,421.55478 156.223157,421.618983 C156.793039,421.800017 157.470354,421.862926 158.06647,421.955638 C158.344142,422.000118 158.626307,422.051409 158.905528,422.088218 C160.080557,422.236492 161.259296,422.379244 162.433047,422.517801 C166.88222,423.040035 171.25114,423.229559 175.627853,423.025726 C181.804159,422.740775 187.825146,421.474328 193.478175,419.799946 C196.334232,418.954529 199.042901,417.826297 201.699486,416.653849 C203.018662,416.072797 204.261371,415.349458 205.526478,414.692278 C206.979926,413.936775 208.452315,413.203226 209.960521,412.523811 C209.968913,412.517574 209.962798,412.506117 209.952094,412.507751 C207.954479,413.202261 205.952087,413.88511 203.901037,414.481093 C200.470817,415.429835 196.92912,416.220794 193.346034,416.804448 C189.598922,417.416822 185.713116,417.668363 181.835724,417.806789 C178.97752,417.875251 176.109837,417.809629 173.215268,417.598411 C170.379904,417.393279 167.547498,416.976679 164.713109,416.528168 C162.741751,416.214296 160.773307,415.811913 158.802767,415.474153 C158.796614,415.472678 158.789792,415.471304 158.782992,415.469991 C158.50186,415.413586 158.223425,415.356832 157.942294,415.300427 C157.335222,415.109756 156.732625,415.042878 156.136267,415.102825 C155.286228,414.936783 154.436679,414.774162 153.585966,414.614259 C149.640834,413.733424 145.675049,412.823717 141.706494,412.20875 C137.850315,411.610879 133.977344,411.586413 130.265432,412.0413 C129.936836,412.081031 129.609488,412.126354 129.284347,412.175978 C127.746283,412.410724 126.246718,412.743608 124.743905,413.06517 M109.231071,420.950348 C109.209379,420.956836 109.187664,420.963264 109.166619,420.969589 C109.187664,420.963264 109.209358,420.956776 109.231071,420.950348" id="Fill-26"></path>
                        <path d="M207.89854,404.752519 C205.663096,404.974225 203.29654,405.256003 201.196889,405.836841 C196.755969,406.754618 192.370302,407.946716 188.454762,409.570507 C186.457191,410.398145 184.540159,411.302132 182.718651,412.277732 C181.218366,413.07998 179.824842,413.923776 178.559619,414.878602 C176.696905,416.284238 175.412953,417.923417 174.129,419.553304 C174.121508,419.562537 174.136492,419.567153 174.147731,419.562537 C175.479445,418.895821 176.798048,418.216618 178.135381,417.556946 C182.56881,415.506907 187.753318,414.180046 192.691524,412.690841 C193.62335,412.450551 194.550492,412.205763 195.474826,411.955886 C197.671873,411.440624 199.83708,410.868722 202.063159,410.400453 C203.592477,410.076772 205.118048,409.760075 206.647366,409.431778 C209.618905,408.791281 212.685032,408.411789 215.783,408.130484 C217.781508,407.994419 219.749112,407.988441 221.747619,408.116694 C226.425477,408.572061 230.716556,409.654135 235.104096,410.744967 C235.115334,410.747275 235.126572,410.735675 235.115334,410.731059 C232.79654,409.491909 230.546112,408.229619 228.014731,407.159205 C225.230492,405.980128 222.081016,405.145505 218.795746,404.743227 C217.130635,404.539513 215.41308,404.451092 213.692715,404.451092 C211.741969,404.451092 209.787477,404.564549 207.89854,404.752519 M178.310508,417.47024 C178.254318,417.498708 178.198127,417.527176 178.140064,417.554578 C178.197191,417.526525 178.253381,417.498234 178.310508,417.47024" id="Fill-27"></path>
                        <path d="M258.048047,401.426577 C254.762777,402.057722 251.561793,402.76054 248.360808,403.546572 C244.73184,404.438959 241.15438,405.470074 237.773586,406.68845 C234.349713,407.923042 231.04665,409.492797 228.21465,411.229039 C226.996253,411.975772 225.917396,412.808086 225.02865,413.723554 C224.113681,414.664531 223.480602,415.737254 222.825983,416.759077 C222.822237,416.766061 222.837221,416.770677 222.848459,416.766061 C224.075285,416.01554 225.319904,415.274074 226.63757,414.584987 C228.260539,413.841036 230.04365,413.282806 231.875459,412.773404 C238.507808,411.04527 245.358364,409.825001 252.296951,408.704457 C259.03138,407.618123 265.77892,406.618316 272.668808,406.005814 C273.411459,405.94509 274.15411,405.884189 274.896761,405.822164 C274.799364,405.830331 274.701967,405.838558 274.60457,405.846903 C275.742428,405.752148 276.880285,405.664259 278.018142,405.583353 C279.463174,405.481674 280.867935,405.527897 282.316713,405.465458 C285.110316,405.347739 287.846793,405.36875 290.622602,405.567314 C295.61138,406.033808 300.423158,406.871153 305.101015,408.067926 C309.823824,409.371113 314.187015,411.055628 318.277681,413.029732 C323.439713,415.593257 328.180316,418.499166 333.049221,421.2812 C333.055777,421.285817 333.074507,421.278892 333.067015,421.271908 C329.851983,418.603982 326.683777,415.903681 323.277697,413.332876 C319.750808,410.676491 315.64984,408.353019 311.154602,406.374061 C306.562904,404.351129 301.354047,402.855354 296.074951,401.703976 C293.338475,401.107513 290.595443,400.617404 287.759697,400.252116 C286.252856,400.057932 284.712301,399.951577 283.186729,399.838297 C282.608904,399.798999 282.027332,399.764316 281.449507,399.734251 C280.849205,399.699746 280.276999,399.722887 279.70292,399.765914 C278.629681,399.732949 277.55457,399.716318 276.482269,399.716318 C270.244189,399.716258 264.022031,400.27585 258.048047,401.426577 M275.892269,405.73824 C275.602888,405.763275 275.313507,405.787245 275.023189,405.81157 C275.31257,405.787304 275.602888,405.76292 275.892269,405.73824" id="Fill-28"></path>
                        <path d="M289.322565,402.689696 C294.484597,404.5739 299.646629,406.379506 305.38274,407.468385 C307.756787,407.919254 310.153311,408.330765 312.560137,408.700669 C313.653978,408.869405 314.769359,409.093656 315.885676,409.197702 C317.407502,409.338739 318.929327,409.470484 320.451153,409.597672 C325.747105,410.046766 331.099248,409.911884 336.343692,409.287959 C339.198168,409.077498 342.058264,408.536491 344.844375,408.099531 C348.29447,407.56166 351.741756,407.064628 355.262089,406.731359 C357.765375,406.52871 360.270533,406.365065 362.798168,406.310141 C365.691978,406.247701 368.604518,406.388739 371.479597,406.608314 C373.314216,406.769237 375.127295,406.965375 376.930073,407.23721 C379.067184,407.556275 381.170581,407.967786 383.288026,408.335382 C383.299264,408.33769 383.306756,408.323781 383.295518,408.321473 C381.063819,407.676479 378.894867,406.955136 376.6922,406.275459 C374.31066,405.537959 371.849518,404.969253 369.310645,404.488378 C364.053089,403.491945 358.581073,403.133581 353.111867,403.068833 C349.855629,403.031843 346.618121,403.200638 343.384359,403.404055 C342.286772,403.47342 341.19293,403.545093 340.095343,403.62369 C339.436978,403.669972 338.778613,403.720812 338.120248,403.77396 C337.469375,403.829475 336.817565,403.884931 336.166692,403.940446 C335.424041,404.002886 334.719787,404.118059 333.989311,404.195591 C329.806867,404.522527 325.566359,404.7321 321.354883,404.747311 C319.675724,404.751927 317.981581,404.8236 316.306168,404.770393 C311.500946,404.617578 306.632041,404.633558 301.853978,404.271821 C297.631264,403.891264 293.492835,403.251596 289.330057,402.675847 C289.329121,402.67561 289.328184,402.675551 289.327248,402.675551 C289.317883,402.675551 289.3132,402.685494 289.322565,402.689696" id="Fill-29"></path>
                        <path d="M550.205773,391.68867 C547.320249,392.23896 544.557156,393.325185 541.837191,394.615518 C540.425627,394.900749 539.018865,395.904916 537.739756,396.684128 C536.344195,397.536206 534.986356,398.487091 533.642573,399.464154 C531.199228,401.239433 528.818162,403.14525 526.517537,405.197482 C524.303097,407.170665 522.250426,409.411283 520.293071,411.755212 C518.15433,414.316178 516.312114,417.236389 514.271534,419.91108 C515.082152,419.209673 515.88102,418.492551 516.681406,417.777911 C521.380539,413.626934 526.426232,410.239391 531.800432,407.642113 C533.702395,406.744427 535.611188,405.865506 537.528191,405.011769 C538.495654,404.580976 539.471122,404.1659 540.44623,403.761125 C541.605891,403.278105 542.892009,402.925432 543.959711,402.166637 C549.60614,399.843471 555.292247,397.914805 561.205887,397.094853 C565.879893,396.536961 573.571814,397.644196 578.256604,397.557777 C578.264616,397.558056 578.265066,395.545195 578.25928,395.542431 C575.670779,394.235837 577.060017,389.969458 574.372181,388.99556 C571.697076,388.024601 552.634356,391.222305 550.205773,391.68867 L557.535081,393.971725 M516.711765,417.750787 C516.705139,417.756797 516.698512,417.762807 516.69135,417.768798 C516.698509,417.762872 516.705139,417.756797 516.711765,417.750787" id="Fill-31"></path>
                        <path d="M461.206609,405.841163 C460.072498,405.898053 458.938387,405.963593 457.808022,406.041181 C456.417308,406.137704 455.04626,406.261855 453.678022,406.415267 C450.615641,406.754882 447.65253,407.278981 444.75872,407.853084 C441.678546,408.463378 438.678911,409.128883 435.796339,409.930544 C433.096387,410.683922 430.57999,411.592477 428.150689,412.526895 C423.662006,414.254324 420.004006,416.35416 416.689705,418.579868 C413.1778,420.941777 410.470355,423.517428 407.382689,426 C410.254022,424.586324 413.030768,423.13125 416.016355,421.771021 C418.902673,420.455192 421.95007,419.193251 425.110784,418.022757 C429.209879,416.572891 433.671403,415.376755 438.366117,414.406853 C444.084435,413.329792 450.138959,412.591199 456.227197,412.153516 C457.045705,412.108852 457.864212,412.070631 458.68553,412.038987 C460.089355,411.986599 461.467895,411.98298 462.840816,411.860992 C470.071593,411.784065 477.303308,411.892327 484.486324,412.305604 C488.596657,412.591066 492.660165,413.002489 496.690895,413.468198 C500.542752,413.914046 504.383371,414.423359 508.066657,415.121524 C509.811371,415.488724 511.434339,415.907429 512.973959,416.440311 C515.972657,417.614733 518.285832,419.092978 520.747911,420.507315 C520.059578,419.31087 519.357197,418.11266 518.472197,416.947241 C517.521641,415.700791 515.984832,414.585333 514.152085,413.590583 C512.373657,412.625138 510.032387,411.837292 507.794133,411.128711 C505.259006,410.32705 502.511292,409.661588 499.745784,409.056458 C493.940371,407.785867 487.897085,406.866985 481.579403,406.382519 C476.852847,406.019335 472.087895,405.818478 467.312641,405.818478 C465.594149,405.818478 463.873784,405.844562 462.154355,405.898362 C461.838752,405.878281 461.522212,405.859259 461.206609,405.841163 L461.206609,405.841163 Z" id="Fill-32" transform="translate(464.065300, 415.909239) rotate(3.000000) translate(-464.065300, -415.909239) "></path>
                        <path d="M395.845728,402.90426 C393.594363,402.922124 391.282125,403.116247 389.08695,403.378118 C388.449188,403.419783 387.825474,403.478884 387.198014,403.585353 C386.027379,403.783941 384.893268,404.058592 383.781633,404.327685 C381.717569,404.826912 379.823014,405.515415 378.045522,406.239219 C374.781791,407.566104 372.155823,409.18997 369.777093,410.927003 C367.35622,412.695629 365.592776,414.662797 363.938902,416.637423 C362.190442,418.728922 361.085363,420.952212 359.556045,423.084569 C359.552299,423.09198 359.571029,423.095686 359.578522,423.090127 C361.627601,421.513533 363.625172,419.922877 365.860617,418.412463 C367.902204,417.089141 369.966268,415.7738 372.198902,414.531053 C374.281696,413.371258 376.604236,412.318311 379.027918,411.345702 C381.423506,410.450295 383.945522,409.691952 386.648283,409.066398 C388.343363,408.735449 390.081522,408.48422 391.762553,408.144007 C391.651109,408.167904 391.538728,408.191801 391.427283,408.21565 C392.324458,408.119112 393.223506,408.035448 394.128172,407.963139 C397.980029,407.74702 401.909617,407.799327 405.759601,408.016349 C407.718776,408.178974 409.633934,408.420843 411.492902,408.772507 C412.862077,409.100035 414.12168,409.495169 415.343823,409.9476 C417.493109,410.841154 419.334283,411.912154 421.171712,412.964722 C423.158045,414.104183 425.111601,415.258515 427.127902,416.385006 C427.135395,416.388712 427.149442,416.385006 427.145696,416.379448 C425.788696,414.332465 424.402664,412.285482 422.624236,410.32202 C420.802728,408.312142 418.333156,406.666042 414.795966,405.359538 C411.353363,404.086433 406.96676,403.503685 402.822712,403.190076 C400.654696,403.026834 398.48668,402.90255 396.295252,402.90255 C396.14541,402.90255 395.996506,402.90312 395.845728,402.90426" id="Fill-33"></path>
                    </g>
                </g>
            </g>
        </g>
    </g>
</svg>