<?xml version="1.0" encoding="UTF-8" standalone="no"?>
<svg width="522px" height="224px" viewBox="0 0 522 224" version="1.1" xmlns="http://www.w3.org/2000/svg" xmlns:xlink="http://www.w3.org/1999/xlink" xmlns:sketch="http://www.bohemiancoding.com/sketch/ns" preserveAspectRatio='none'>
    <!-- Generator: Sketch 3.2.2 (9983) - http://www.bohemiancoding.com/sketch -->
    <title>bg</title>
    <desc>Created with Sketch.</desc>
    <defs></defs>
    <g id="Page-1" stroke="none" stroke-width="1" fill="none" fill-rule="evenodd" sketch:type="MSPage">
        <g id="bg" sketch:type="MSLayerGroup" fill="#EEF5F6">
            <path d="M20.7803176,1.50420883 C7.55260257,1.50420883 -0.746432464,8.96762589 0.465362496,20.2751 C1.42368868,29.2174119 11.1896828,26.0219577 11.42184,26.3088 C9.61874,27.6748 1.16458098,32.6679294 1.164581,44.6292 C1.16458102,56.5904706 7.72601,58.0738 8.07874,58.593 C7.69159,58.8969 0.465362508,63.5266202 0.4653625,78.1917 C0.465362492,92.8567798 6.512238,97.2424 8.504425,99.4339 C8.660828,99.606 8.820923,99.7742 8.983978,99.939 C7.508911,102.0803 6.41507,104.3371 5.406769,106.7542 C3.547394,111.2073 2.973175,115.9807 3.012238,120.7815 C3.035675,123.3049 3.418488,125.82448 3.785675,128.31276 C4.188019,131.07838 5.309113,133.71901 6.512238,136.2151 C7.365784,137.98317 8.586243,139.61079 9.92804,141.08392 C6.664581,145.12135 3.914581,149.43776 2.934113,154.47682 C1.914581,159.72292 2.820831,165.37526 5.281769,170.10182 C6.352081,172.15651 8.055206,174.03931 9.836456,175.50024 C10.22708,175.81946 10.61832,176.12115 11.0184,176.40536 C8.750519,179.63306 7.285675,183.42212 6.6763,187.25806 C6.055206,191.17603 6.637238,195.47681 8.117706,199.14478 C8.535675,200.18384 9.328644,201.26196 10.26614,201.89868 C11.81302,202.94946 13.7388,203.14868 15.54739,203.43774 C14.38333,202.80493 27.4021573,20.2750999 27.3893073,20.2750999 C27.3887416,20.2750999 34.0080326,1.50420883 20.7803176,1.50420883 Z M19.2395,22.5051 C19.29788,22.5294 19.3562,22.5538 19.41458,22.5784 C19.35565,22.5552 19.29733,22.5306 19.2395,22.5051 M10.63232,193.03836 C10.62143,193.11841 10.61023,193.19839 10.59818,193.27759 C10.60925,193.19769 10.6207,193.11789 10.63232,193.03836" id="Fill-1" sketch:type="MSShapeGroup"></path>
            <path d="M222.0255,0.4969 C217.8965,0.4891 213.752,1.0633 209.6739,1.6375 C207.1661,1.993 204.6426,2.5164 202.1895,3.1609 C198.7628,4.0627 195.3486,5.0516 191.8728,5.7394 C190.8307,5.4196 189.7938,5.0389 188.7598,4.7625 C185.6114,3.9187 182.5489,2.9852 179.3262,2.4227 C174.0411,1.5047 168.8458,1.45 163.5176,1.6531 C157.6583,1.8758 151.8028,2.7039 146.1309,4.1961 C143.1739,4.9734 140.3184,6.2273 137.5255,7.4383 C137.0096,7.6611 136.498,7.8853 135.989,8.1132 C135.5211,7.9052 135.0531,7.6978 134.584,7.493 C132.3809,6.532 130.1778,5.7039 127.8536,5.0984 C125.2247,4.4187 126.325158,3.85391473 119.8497,3.7547 C94.8654438,3.37189989 84.36139,9.3445 83.14264,9.5359 C80.3692,9.9734 73.9104806,2.46896957 63.4271656,2.02029996 C48.277082,1.37189989 25.1424949,7.4578004 19.1821049,10.1702004 C18.7330749,10.3295004 26.36378,18.5398004 25.90461,18.6449004 C24.33466,17.3919004 18.1590657,25.033774 24.5466786,26.5764418 C29.6101864,27.7993259 467.1817,22.8445 468.9161,22.243 C470.189381,21.8003864 484.66459,22.3215714 494.646729,21.6843997 C500.435705,21.3148824 512.376576,47.5498753 511.493776,46.0772753 C511.306539,45.7643413 536.060671,4.52029996 503.942507,3.37189989 C471.824342,2.22349982 470.022397,12.2887463 468.4343,12.7468 C465.0594,9.4447 460.4063,7.2488 455.959,6.0672 C452.0372,5.0281 447.8653,4.9148 443.8301,4.6062 C437.5137,4.1297 430.9903,4.8562 425.0411,7.075 C422.3763,8.0693 419.7238,9.2265 417.2144,10.603 C416.7252,10.3675 416.2305,10.1411 415.7286,9.9266 C411.9122,8.2937 408.2794,6.7664 404.17,6.0594 C400.4473,5.4187 396.6036,4.9695 392.8223,4.9305 C391.0098,4.9109 389.1934,4.8914 387.377,4.8758 C383.5801,4.8406 379.713,5.368 375.9903,6.0437 C371.2757,6.8973 366.8378,8.7174 362.5306,10.7715 C360.5824,9.951 358.6071,9.2052 356.5762,8.6102 C353.1192,7.5984 349.4512,7.1844 345.877,6.8836 C343.4747,6.6844 341.0528,6.6453 338.6426,6.5711 C333.4903,6.4031 328.1817,6.9969 323.1465,8.0477 C320.1059,8.6827 317.1047,9.481 314.0804,10.1702 C311.7156,9.0282 309.4854,7.818 307.1583,6.7859 C303.9512,5.3719 300.7208,4.1492 297.2989,3.3719 C293.5723,2.5281 289.6075,2.2703 285.7911,2.1727 C279.0489,2.0008 272.0255,2.5281 265.5567,4.5203 C262.9131,5.3337 260.3155,6.3731 257.7767,7.5284 C256.7525,7.0544 255.7139,6.6107 254.6681,6.1844 C251.2392,4.7056 247.746,3.4263 244.1387,2.4422 C240.1075,1.3445 235.9161,0.8914 231.7559,0.6141 C230.0806,0.5049 228.4016,0.4796 226.7213,0.4796 C225.996,0.4796 225.2705,0.4843 224.545,0.4891 C223.7051,0.4969 222.8614,0.5008 222.0255,0.4969 Z M500.9975,14.8094 C501.012,14.8199 501.0266,14.8301 501.0411,14.8406 C501.0265,14.8305 501.012,14.8201 500.9975,14.8094 M42.14264,18.8133 C42.229,18.8802 42.31543,18.9471 42.40179,19.0139 C42.31305,18.9508 42.22668,18.8839 42.14264,18.8133 M42.87311,19.0203 C42.83984,19.0255 42.80661,19.0302 42.77338,19.0346 C42.80661,19.0298 42.83994,19.0251 42.87311,19.0203 M281.8328,26.2948 C281.7173,26.3101 281.6019,26.3254 281.4864,26.3406 C281.6017,26.3252 281.7174,26.3099 281.8328,26.2948" id="Fill-3" sketch:type="MSShapeGroup"></path>
            <path d="M17.9358768,22.5241348 C17.5357568,22.3339448 15.6765101,182.102136 15.3283701,181.829126 C14.6893301,181.280056 5.94162593,189.343194 5.54496691,193.16578 C5.1483079,196.988366 5.17880241,206.689264 15.32837,210.322503 C25.4779376,213.955743 40.25534,209.53778 45.61081,208.90106 C48.38425,208.57294 51.12253,208.05731 53.82175,207.35028 C54.93503,207.05731 56.03659,206.74091 57.13034,206.39325 C57.68994,206.21436 58.24548,206.01691 58.80304,205.82764 C61.02487,207.19403 70.8320656,217.34824 89.89987,216.42059 C108.967674,215.49294 115.7184,206.13651 116.1251,205.96454 C117.9305,206.90997 119.6746,207.96609 121.5053,208.86591 C125.3921,210.77606 129.4233,212.362 133.5835,213.56512 C137.7514,214.77216 142.1108,215.350281 146.4077,215.846375 C148.9897,216.14325 151.5952,216.319031 154.1928,216.397156 C157.7397,216.498718 161.2866,216.670593 164.8335,216.557312 C169.1303,216.416687 173.3764,215.865906 177.6147,215.170593 C181.0676,214.60736 184.4326,213.65277 187.8559,212.98248 C191.2726,214.84225 194.7065,216.462524 198.3882,217.494812 C202.5913,218.6745 207.1069,219.158875 211.4663,219.354187 C215.8764,219.5495 220.2671,219.701843 224.6772,219.51825 C229.3803,219.319031 234.1342,218.647156 238.728,217.627625 C243.7436,216.514343 248.5014,214.49481 253.1772,212.40106 C255.1616,211.51044 257.0327,210.51825 258.9389,209.47528 C259.3846,209.23157 259.8289,208.98788 260.2733,208.74417 C263.0242,210.03049 265.832,211.1731 268.728,212.13934 C273.5366,213.74872 278.6382,214.55341 283.646,215.217468 C287.5952,215.744812 291.5874,216.237 295.5561,216.565125 C299.6538,216.897156 303.7436,217.229187 307.853,217.315125 C313.3569,217.428406 318.9546,216.877625 324.353,215.7995 C326.4624,215.377625 328.5952,214.86591 330.6538,214.237 C332.0784,213.80066 333.4861,213.3356 334.9179,212.95496 C336.1707,213.28677 337.4083,213.66995 338.6811,213.95575 C341.6382,214.61591 344.6694,214.98309 347.685,215.272156 C352.6538,215.748718 357.7085,215.725281 362.6811,215.358093 C368.3608,214.94403 374.0327,213.94012 379.5835,212.69403 C382.0639,212.13934 384.5288,211.49872 386.9819,210.84247 C388.5796,210.41669 390.2436,209.61591 391.7202,208.96356 C392.6127,208.56842 393.4955,208.15582 394.3795,207.74899 C395.9333,207.841 396.5053,208.28281 397.1069,208.69403 C398.6616,209.76044 400.1225,210.96356 401.6694,212.04559 C404.9624,214.35809 408.6772,216.248718 412.3374,217.901062 C416.271,219.678406 420.2124,221.037781 424.4311,221.912781 C428.9819,222.858093 433.6616,223.365906 438.3022,223.619812 C446.8257,224.096374 455.3491,222.908875 463.6772,221.147156 C467.5952,220.319031 471.3882,219.225281 475.1342,217.811218 C475.5358,217.659821 475.9355,217.505493 476.334,217.348236 C478.2379,220.631165 502.018518,227.095393 513.9663,216.529968 C525.914082,205.964543 515.8961,186.73828 515.5092,185.86267 C516.9059,183.82617 517.9123,181.58688 518.8218,179.20184 C519.4116,177.65106 519.5796,175.62372 519.7358,174.07294 C519.8374,173.05341 519.8608,172.04559 519.8647,171.01825 C519.8765,167.70184 519.2905,164.26044 518.6812,161.02606 C518.1108,157.99091 516.8179,155.18231 515.603,152.36591 C515.09,151.16777 514.4485,150.03284 513.7523,148.93344 C515.3516,146.92044 516.8923,144.88069 518.0366,142.56903 C518.7788,141.08075 519.3999,139.51434 519.9585,137.94794 C520.5288,136.35809 520.6851,134.5495 520.8804,132.90887 C521.1265,130.88153 521.1108,128.87762 520.9507,126.84637 C520.7085,123.7682 520.2241,120.6784 519.4038,117.7057 C518.7101,115.1809 517.6258,112.7228 516.4316,110.3828 C517.2205,109.3123 517.9418,108.1916 518.5874,107.0495 C519.7476,104.9948 520.6108,102.6472 521.0757,100.3307 C521.3921,98.7253 521.5601,97.0729 521.5991,95.4362 C521.6343,93.8581 521.2788,92.2565 521.0444,90.7057 C520.3647,86.2331 518.7358,81.8932 516.4038,78.0261 C515.8413,77.0952 515.2156,76.1942 514.5591,75.3128 C515.022122,74.5502755 519.463834,65.0357929 519.298298,57.5799182 C519.142216,50.5498606 514.443078,45.6375115 512.815357,42.3782504 C514.246757,41.2240504 516.169668,28.9008318 517.165668,27.2634318 C518.884468,24.4392318 506.5717,13.6589 503.2671,13.1979 C504.4467,13.7057 19.3369668,23.0582548 17.9358768,22.5241348 Z M507.3506,25.6334 C507.3593,25.6952 507.368,25.7571 507.3764,25.819 C507.3675,25.7576 507.359,25.6956 507.3506,25.6334 M507.3764,29.5065 C507.3431,29.5938 507.3068,29.6792 507.2679,29.7632 C507.304,29.6776 507.3402,29.5921 507.3764,29.5065 M506.8021,30.538 C506.7854,30.5602 506.7686,30.5822 506.7514,30.6042 C506.7683,30.582 506.7852,30.56 506.8021,30.538 M506.0835,35.1745 C506.1387,35.3069 506.1948,35.4392 506.2509,35.5716 C506.1883,35.4427 506.1324,35.3103 506.0835,35.1745 M512.0913,71.9128 C512.1276,71.9983 512.1638,72.0841 512.2001,72.1698 C512.1614,72.0854 512.1251,71.9998 512.0913,71.9128 M368.3322,193.5033 C368.0277,193.54529 367.7234,193.58673 367.4194,193.62762 C367.7238,193.58578 368.028,193.54443 368.3322,193.5033 M122.7202,193.71356 C122.8335,193.86115 122.9469,194.0087 123.0604,194.15619 C123.0542,194.15173 123.0481,194.14719 123.042,194.1427 C122.9191,194.01343 122.8116,193.87149 122.7202,193.71356 M123.8571,194.60999 C124.2676,194.78464 124.678,194.95898 125.0884,195.13165 C124.6893,194.96811 124.2616,194.80521 123.8583,194.61389 C123.8579,194.61252 123.8575,194.61136 123.8571,194.60999 M66.00534,197.91669 C66.02722,197.96863 66.04907,198.02042 66.07098,198.07227 C66.04803,198.02106 66.02612,197.96927 66.00534,197.91669 M66.38956,198.62463 C66.5144,198.78577 66.63919,198.94693 66.76315,199.10809 C66.62836,198.96368 66.50635,198.81189 66.39685,198.65244 C66.39441,198.64316 66.392,198.63391 66.38956,198.62463 M199.478,198.98309 C199.5084,199.05496 199.5388,199.12695 199.5693,199.19891 C199.537,199.12802 199.5064,199.05612 199.478,198.98309 M394.0952,206.86981 C394.2841,206.88812 394.4714,206.91266 394.6577,206.94339 C394.6589,206.94418 394.66,206.94495 394.6613,206.94574 C394.4725,206.92044 394.2837,206.89511 394.0952,206.86981" id="Fill-4" sketch:type="MSShapeGroup"></path>
            <path d="M12.6956802,174.234319 C10.2386502,176.199169 7.457397,182.11389 5.664429,184.69983 C4.133179,186.91077 3.05896,189.41858 2.40271,192.02014 C1.687866,194.85999 1.457397,197.95764 1.945679,200.85217 C2.394897,203.50452 3.422241,205.98499 5.191772,208.04358 C7.172241,210.35217 9.789429,212.25842 12.69568,213.19592 C13.15662,213.39905 13.62537,213.58264 14.10193,213.7467 C14.82458,214.01624 15.5824,214.19592 16.3324,214.37952 C17.93005,214.76624 19.61755,214.91858 21.25427,215.027954 C22.91052,215.141235 24.5824,215.078735 26.24255,215.047485 C28.54724,215.008423 30.85193,214.82483 33.1449,214.6217 C35.42615,214.41858 37.80505,214.10217 40.0238,213.52014 C42.61755,212.83655 57.0754731,206.958642 59.5286031,205.857072 C63.1301631,204.243792 14.7347402,172.601509 12.6956802,174.234319 Z M7.089386,198.21613 C7.097504,198.27823 7.105591,198.34045 7.113647,198.40295 C7.105316,198.34067 7.097321,198.27841 7.089386,198.21613 M51.4436,206.45428 C51.44659,206.45306 51.44928,206.452 51.45227,206.45078 C51.45874,206.44797 51.46533,206.4451 51.4718,206.44229 C51.46237,206.44623 51.45297,206.45026 51.4436,206.45428" id="Fill-5" sketch:type="MSShapeGroup"></path>
        </g>
    </g>
</svg>