<?xml version="1.0" encoding="UTF-8" standalone="no"?>
<svg width="1111px" height="450px" viewBox="0 0 1111 450" version="1.1" xmlns="http://www.w3.org/2000/svg" xmlns:xlink="http://www.w3.org/1999/xlink" xmlns:sketch="http://www.bohemiancoding.com/sketch/ns">
    <!-- Generator: Sketch 3.2 (9961) - http://www.bohemiancoding.com/sketch -->
    <title>starburst</title>
    <desc>Created with Sketch.</desc>
    <defs>
        <rect id="path-1" x="0" y="0" width="1140" height="450"></rect>
        <radialGradient cx="50%" cy="52.5511188%" fx="50%" fy="52.5511188%" r="76.1622299%" id="radialGradient-3">
            <stop stop-color="#FFFFFF" stop-opacity="0.119565217" offset="0%"></stop>
            <stop stop-color="#FFFFFF" stop-opacity="0" offset="100%"></stop>
        </radialGradient>
    </defs>
    <g id="Welcome" stroke="none" stroke-width="1" fill="none" fill-rule="evenodd" sketch:type="MSPage">
        <g id="Desktop-HD" sketch:type="MSArtboardGroup" transform="translate(-165.000000, 0.000000)">
            <g id="bg" sketch:type="MSLayerGroup" transform="translate(-150.000000, -1.000000)">
                <g id="starburst" transform="translate(300.000000, 1.000000)">
                    <mask id="mask-2" sketch:name="Rectangle 87" fill="white">
                        <use xlink:href="#path-1"></use>
                    </mask>
                    <use id="Rectangle-87" sketch:type="MSShapeGroup" xlink:href="#path-1"></use>
                    <path d="M1040.16176,865 L1125.21846,865 L1125.21846,822.07097 L622.282181,477.532952 L1125.21846,715.470714 L1125.21846,641.972362 L657.867128,474.037277 L1125.21846,581.600626 L1125.21846,516.235069 L667.591436,456.095189 L1125.21846,471.486861 L1125.21846,416.376473 L642.705,428.361644 L1125.21846,350.903905 L1125.21846,285.092471 L640.01266,408.74306 L1125.21846,224.524549 L1125.21846,150.277123 L622.299894,388.892619 L1125.21846,43.3380015 L1125.21846,-1 L1041.22452,-1 L611.796223,378.566109 L930.43117,-1 L827.342872,-1 L603.116968,354.684941 L735.573032,-1 L659.514415,-1 L576.654096,353.597001 L614.20516,-1 L535.365638,-1 L553.592074,337.260071 L478.578511,-1 L400.429787,-1 L526.526968,345.071835 L311.423138,-1 L209.911277,-1 L527.040638,368.168259 L100.23383,-1 L15,-1 L15,41.6793393 L515.066809,384.255499 L15,147.691037 L15,221.118049 L494.094894,397.310775 L15,281.186589 L15,346.837507 L494.661702,423.581844 L15,411.721517 L15,465.65479 L476.258138,443.022078 L15,510.848876 L15,576.232268 L485.982447,460.982 L15,636.407818 L15,710.173696 L515.066809,472.895832 L15,816.48859 L15,865 L93.5738298,865 L505.608191,511.901145 L205.057979,865 L308.23484,865 L528.13883,518.125587 L400.872606,865 L477.143777,865 L550.846596,519.766414 L522.948989,865 L602.10734,865 L583.756915,524.546215 L659.266436,865 L734.829096,865 L601.115426,516.502595 L826.598936,865 L929.368404,865 L615.693032,496.901845 L1040.16176,865 Z" fill="url(#radialGradient-3)" sketch:type="MSShapeGroup" mask="url(#mask-2)"></path>
                </g>
            </g>
        </g>
    </g>
</svg>