<?xml version="1.0" encoding="UTF-8" standalone="no"?>
<svg width="364px" height="391px" viewBox="0 0 364 391" version="1.1" xmlns="http://www.w3.org/2000/svg" xmlns:xlink="http://www.w3.org/1999/xlink" xmlns:sketch="http://www.bohemiancoding.com/sketch/ns" preserveAspectRatio='none'>
    <!-- Generator: Sketch 3.2.2 (9983) - http://www.bohemiancoding.com/sketch -->
    <title>tagcloud</title>
    <desc>Created with Sketch.</desc>
    <defs>
        <radialGradient cx="70.0192103%" cy="26.8407497%" fx="70.0192103%" fy="26.8407497%" r="144.599347%" id="radialGradient-1">
            <stop stop-color="#FFFFFF" offset="0%"></stop>
            <stop stop-color="#99D2E0" offset="100%"></stop>
        </radialGradient>
    </defs>
    <g id="Welcome" stroke="none" stroke-width="1" fill="none" fill-rule="evenodd" sketch:type="MSPage">
        <g id="Desktop" sketch:type="MSArtboardGroup" transform="translate(-569.000000, -736.000000)">
            <g id="cloud" sketch:type="MSLayerGroup" transform="translate(455.000000, 655.000000)">
                <g id="tagcloud" transform="translate(114.000000, 81.000000)" sketch:type="MSShapeGroup">
                    <path d="M35.3986572,83.9720733 C35.3986572,83.9720733 0.0717460942,106.601237 24.5586808,161.725673 C24.5586808,161.725673 0.419702886,188.778285 22.5802618,210.231602 C22.5802618,210.231602 5.41374396,237.406864 15.7797798,261.553177 C15.7797798,261.553177 -8.90446375,310.283748 14.7352439,343.544247 C38.3749515,376.804745 93.6132921,387.829668 186.939983,388.829668 C280.266673,389.829668 358.198923,364.844252 357.187724,311.192297 C357.187724,311.192297 353.597514,284.46098 339.799234,277.653828 C339.799234,277.653828 360.010035,257.900974 349.904635,242.22493 L328.995253,222.377414 L321.068912,215.974216 C321.068912,215.974216 334.861184,209.005755 334.861185,197.116577 C334.861186,185.227399 323.053996,171.95306 323.053996,171.95306 C323.053996,171.95306 341.377695,158.365427 340.024539,135.812917 C338.671382,113.260407 334.961173,114.189624 334.961173,114.189624 C334.961173,114.189624 351.199802,71.7296066 311.036834,57.1914256 C311.036834,57.1914256 311.927394,44.4443548 297.718501,36.1827222 C283.509609,27.9210895 271.125163,28.4583566 271.125163,28.4583566 C271.125163,28.4583566 256.58074,14.881594 226.305873,8.5834257 C200.631782,3.2423701 188.361773,4.57156126 168.324809,3.10086864 C124.660275,-0.104063506 86.1942987,28.4583558 86.1942987,28.4583558 C86.1942987,28.4583558 35.9405895,47.351994 35.9405894,77.3948966 C35.9405894,78.4280425 35.3986572,83.9720733 35.3986572,83.9720733 Z" id="Path-860" fill="url(#radialGradient-1)"></path>
                    <path d="M24.5864712,81.3387321 C24.5864712,81.3387321 9.30456856,84.9749882 16.0327216,89.9082482 L18.3935499,90.6401465 C18.3935499,90.6401465 22.2256433,89.1290504 24.3815065,85.2338913 C26.5373698,81.3387321 24.5864712,81.3387321 24.5864712,81.3387321 Z" id="Path-861" fill="url(#radialGradient-1)"></path>
                    <path d="M349.138222,223.555629 C349.138222,223.555629 350.92818,217.318139 342.242528,217.318139 C333.556877,217.318138 339.572746,222.800133 343.633281,223.555629 C347.693816,224.311125 347.058196,224.476448 347.058196,224.476448 C349.6414,224.476448 349.138222,223.555629 349.138222,223.555629 Z" id="Path-862" fill="url(#radialGradient-1)"></path>
                    <path d="M34.7155728,196.030023 C31.8921672,198.266036 29.1953251,200.698674 26.7156347,203.311674 C24.1416718,206.025263 21.7857276,208.947989 19.6135604,211.991903 C17.5347988,214.904741 15.6265944,217.947766 14.0098762,221.142467 C13.0903406,222.960185 12.2722291,224.829987 11.5059133,226.717722 C10.8169659,228.414252 10.2508978,230.143133 9.81312693,231.920477 C9.31965944,233.917713 9.04854489,235.980497 8.86108359,238.027127 C8.6950774,239.839468 8.66278638,241.662586 8.71133127,243.481193 C8.76702786,245.517046 8.99133127,247.541234 9.28996904,249.554667 C9.55198142,251.32479 9.95659443,253.070715 10.4966563,254.777155 C11.0744272,256.601161 11.8173375,258.385661 12.6831269,260.091189 C13.5174923,261.735658 14.5518885,263.249093 15.6840248,264.70149 C16.1000147,265.234874 17.4235988,258.474315 17.1573554,257.622761 C16.5563542,255.700516 16.128073,253.725188 15.8355108,251.730617 C15.5550774,249.425456 15.4699071,247.103663 15.5054489,244.782782 C15.5414241,242.416322 15.6931269,240.049645 15.9839628,237.700423 C16.1625387,236.469782 16.3851084,235.247186 16.6529721,234.032613 C16.96613,232.610746 17.376161,231.209544 17.8039628,229.818186 C18.5975851,227.235217 19.5327245,224.686357 20.5679876,222.191184 C22.0635604,218.702088 23.7723839,215.299227 25.6443963,211.99817 C27.5395975,208.657258 29.6372136,205.435475 31.9701858,202.384297 C33.6917957,200.165653 35.4951084,198.006508 37.3972446,195.939365 C39.364613,193.801166 41.4227864,191.749159 43.4064087,189.625314 C40.5130031,191.766202 37.5381115,193.793967 34.7155728,196.030023 Z M32.0724768,202.250641 C32.0648916,202.260658 32.0573065,202.270654 32.0495046,202.280629 C32.0570898,202.270676 32.0648916,202.260593 32.0724768,202.250641" id="Fill-5" fill="#92BAC4"></path>
                    <path d="M326.679628,222.588467 C327.665697,223.438543 328.598669,224.349657 329.548762,225.238329 C330.774303,226.384621 332.002446,227.526404 333.235139,228.66463 C335.009845,230.30372 336.698297,232.046935 338.356192,233.803636 C339.38257,234.889757 340.380124,236.00463 341.381362,237.114126 C342.294396,238.124464 343.19096,239.148809 344.037245,240.215393 C344.735944,241.146608 345.384799,242.113708 346.00808,243.097809 C346.670372,244.143209 347.276966,245.223822 347.788204,246.35099 C348.243313,247.530067 348.55517,248.746809 348.756935,249.994016 C348.923591,251.513913 348.931827,253.028563 348.767988,254.549327 C348.474985,256.4136 347.980433,258.214405 347.285635,259.969697 C346.241269,262.293897 344.820248,264.435478 343.285449,266.465607 C340.189195,270.40266 336.648669,273.939785 333.150836,277.515224 C331.279474,279.428089 329.407895,281.343665 327.551703,283.271817 C325.87322,285.015031 324.226811,286.789686 322.590372,288.572386 C321.686873,289.555294 320.84709,290.605551 319.985851,291.625277 C319.311207,292.42418 318.668854,293.233859 318.039938,294.068648 C316.385511,296.264286 314.75904,298.477879 313.165728,300.717491 C313.163994,300.72109 318.2313,296.630432 320.727895,294.544837 C322.088452,293.528428 323.434923,292.493133 324.778142,291.453631 C325.552043,290.85981 326.357152,290.303588 327.141672,289.725856 C327.93031,289.144199 328.71808,288.56072 329.5013,287.973664 C331.368978,286.57424 333.233406,285.170327 335.075294,283.738595 C334.883282,283.887603 334.690402,284.036611 334.497523,284.18562 C335.708762,283.252063 336.884025,282.271844 338.062755,281.297891 C339.41226,280.183018 340.739009,279.057368 342.035418,277.880567 C344.903684,275.276501 347.549381,272.446233 349.869567,269.340413 C350.936254,267.912258 351.943777,266.43473 352.768173,264.851301 C353.694211,263.073956 354.445139,261.174535 354.953777,259.234739 C355.170929,258.411594 355.334985,257.571406 355.470433,256.731218 C355.656161,255.575949 355.797028,254.409014 355.828452,253.23939 C355.850991,252.40098 355.787276,251.563503 355.689536,250.73227 C355.556687,249.596754 355.385263,248.471105 355.104396,247.362498 C354.141734,243.560099 351.821765,240.342956 349.300681,237.41572 C348.171146,236.103398 346.896409,234.922087 345.599783,233.778484 C344.265015,232.600772 342.906625,231.444614 341.517028,230.33154 C339.549443,228.755288 337.535263,227.207744 335.435046,225.812809 C333.405697,224.465446 331.370062,223.128839 329.330743,221.797652 C328.147461,221.024769 321.225696,216.456665 319.985851,215.77984 C317.55709,214.45403 320.768204,217.094005 318.334241,215.77984 C321.109102,218.058092 323.959381,220.243821 326.679628,222.588467 Z" id="Fill-3" fill="#92BAC4"></path>
                    <path d="M23.3892256,159.500841 C21.9708045,161.435433 16.263096,170.66692 15.1218576,172.780877 C13.879195,175.080639 12.735356,177.434262 11.8364087,179.892009 C11.4129412,181.047278 11.0757276,182.233056 10.8306192,183.439477 C10.6682972,184.23749 10.5679567,185.04897 10.4691331,185.856849 C10.4342415,186.139579 10.4091022,186.423263 10.3848297,186.707792 C10.3731269,186.849623 10.3633746,186.992365 10.3551393,187.135085 C10.3432198,187.316684 10.3544892,187.496265 10.3763777,187.674936 C10.3451703,188.859565 10.3997833,190.041548 10.5311146,191.219347 C10.6836842,192.581085 10.9017028,193.937424 11.2478019,195.264123 C11.5860991,196.561223 12.0849845,197.803573 12.616161,199.031546 C13.090774,200.129333 13.6603096,201.184989 14.2820743,202.205604 C15.5364396,204.2657 17.1629102,206.050221 18.868483,207.742263 C19.7037152,208.570785 20.5434985,209.396618 21.3939009,210.210786 C22.3539628,211.130856 23.3640867,211.996218 24.3581734,212.87767 C23.8432508,211.901961 23.2986378,210.943273 22.7674613,209.977386 C22.2570898,209.05014 21.7725077,208.108517 21.258452,207.183026 C20.2608978,205.385473 19.2249845,203.607154 18.3986378,201.721111 C17.3755108,199.222512 16.6328173,196.581193 16.235356,193.909475 C15.9954489,191.898145 15.9182972,189.874976 15.9687926,187.849965 C16.0830031,187.125891 16.0676161,186.370854 16.1185449,185.644981 C16.1573375,185.090949 16.2117337,184.537979 16.2786997,183.987026 C16.5667183,182.055209 17.0159752,180.156221 17.5280805,178.272672 C17.7955108,177.286143 18.0833127,176.304102 18.3713313,175.323883 C18.5262708,174.798401 19.7605491,170.331381 21.2584523,166.94811 C22.6749156,163.748785 24.3635677,161.609412 24.362725,161.609412 C24.3616414,161.609412 23.3898762,160.878171 23.389226,160.879038 C23.389226,160.879038 24.8239005,157.544999 23.3892256,159.500841 Z" id="Fill-6" fill="#92BAC4"></path>
                    <path d="M29.7876161,88.4218656 C28.5395356,89.7642154 27.3087926,91.1240783 26.1127245,92.5210971 C24.9383282,93.8918464 23.8402167,95.324128 22.753808,96.7769992 C20.49387,99.7996529 18.2465015,102.871059 16.4457895,106.25202 C14.6353251,109.652623 13.4295046,113.429521 12.6705573,117.26511 C12.2039628,119.625345 11.9116099,122.040486 11.7482043,124.448527 C11.6764706,125.501676 11.64613,126.5579 11.6450464,127.615072 C11.6437461,128.727149 11.6630341,129.857449 11.8036842,130.963137 C12.4713932,139.12255 15.0108978,146.908747 18.3370898,154.207892 C19.8434985,157.512411 21.5371517,160.718005 23.5370279,163.697349 C24.5993808,165.280622 25.7323839,166.808042 26.9696285,168.231567 C28.1251703,169.56303 29.3821362,170.825861 30.7745511,171.856763 C32.3121672,172.994092 34.0534985,173.77593 35.7402167,174.603823 C37.6664087,175.549266 39.5551084,176.59167 41.4659133,177.575334 C39.7802786,175.936233 38.1007121,174.279501 36.3368421,172.743325 C34.7658514,171.375628 33.1690712,170.024522 31.9051703,168.305879 C29.6937771,165.082299 27.9962229,161.480058 26.5448607,157.78694 C25.0434365,153.840829 23.7721672,149.778517 22.651517,145.687095 C21.5000929,141.483259 20.5692879,137.200614 19.9945511,132.855963 C19.4247988,127.840611 19.3610836,122.736984 19.9217337,117.717372 C20.1343344,116.12345 20.4106502,114.541834 20.7630341,112.976785 C21.1236533,111.37884 21.6195046,109.823967 22.1896904,108.301517 C23.1194118,105.965421 24.2045201,103.710264 25.3206192,101.474987 C25.9118266,100.289308 26.5119195,99.1107283 27.1033437,97.9252857 C27.7060372,96.7183069 28.2812074,95.496655 28.909257,94.3031659 C31.4580805,89.4674406 34.4626625,84.94198 37.2734985,80.2873016 C34.8503715,83.0784993 32.2941796,85.7236763 29.7876161,88.4218656 Z" id="Fill-7" fill="#92BAC4"></path>
                    <path d="M91.8143344,26.3982252 C88.013096,26.779636 84.220743,27.3911076 80.5064087,28.2831622 C78.7436223,28.7059883 76.9931889,29.1971171 75.2778638,29.7823517 C73.3757276,30.4313356 71.516935,31.1843997 69.6687616,31.9708562 C66.3895975,33.3657486 63.2441486,35.0253952 60.22613,36.9194392 C57.0581424,38.9086734 54.0069659,41.1446644 51.2581115,43.6850903 C48.5224768,46.2109883 46.1082353,49.0933612 43.9685759,52.1353239 C41.9517957,55.0033857 40.3045201,58.1208066 38.9103715,61.3345017 C37.403096,64.8109994 36.1586997,68.3763991 35.32,72.0764526 C34.8891641,73.9759175 34.565387,75.8914281 34.3113932,77.8223339 C34.0818885,79.5637269 33.9876161,81.3239844 34.085356,83.0779537 C34.1382353,84.0196633 34.2639319,84.9613729 34.4299381,85.8885546 C34.5913932,86.7942698 34.9260062,87.6533657 35.2885759,88.4953317 C35.9506502,90.0302988 36.8073375,91.5060702 37.7188545,92.9063835 C38.6340557,94.3129849 39.700743,95.6198428 40.7594118,96.919762 C41.8332508,98.2383289 42.9341796,99.5274064 44.0474613,100.812798 C42.8702477,98.3096672 41.6553251,95.8223657 40.5669659,93.2795546 C40.1170588,92.1912653 39.7408359,91.0838946 39.3841176,89.9611288 C39.0228483,88.826437 38.6923529,87.6815541 38.499257,86.5052302 C38.3826625,85.3785613 38.4498452,84.2499409 38.5829102,83.1260909 C38.8871827,81.0783116 39.4298452,79.0791031 40.0641796,77.1104682 C40.7110836,75.0986834 41.4468421,73.1127018 42.256935,71.1598958 C44.6848297,65.5159264 47.7533437,60.0998495 51.467678,55.2020056 C52.8637771,53.4252687 54.337678,51.7081611 55.9088854,50.0834247 C57.5182353,48.4192246 59.2381115,46.8773188 61.0533437,45.4429627 C63.5250155,43.5669158 66.1278019,41.8537113 68.7858514,40.2560792 C71.4703406,38.6419677 74.2712074,37.2210552 77.1490093,35.9835842 C84.7735913,32.8345056 92.869969,31.0230753 101.02226,29.8985747 C106.911796,29.1192737 112.846409,28.8931159 118.777771,28.6422391 C124.851517,28.3863751 130.933498,28.470073 137.010712,28.472675 C133.20774,28.1287765 129.41257,27.702481 125.615882,27.3048077 C121.823529,26.9071343 118.028576,26.5768963 114.22452,26.320165 C110.731022,26.0840329 107.232322,25.9060123 103.730805,25.9060123 C103.437585,25.9060123 103.144365,25.9073133 102.851146,25.9099153 C99.1647678,25.9430909 95.4846749,26.0291739 91.8143344,26.3982252 Z" id="Fill-8" fill="#92BAC4"></path>
                    <path d="M324.401749,176.501291 C325.550183,178.015086 326.635393,179.586524 327.672222,181.214872 C328.312747,182.24137 328.925129,183.290783 329.475059,184.395642 C329.982004,185.415737 330.420907,186.494279 330.811814,187.590184 C331.210817,188.810329 331.51961,190.058942 331.696559,191.355535 C331.825127,192.798883 331.824741,194.262618 331.699836,195.706178 C331.565486,196.713374 331.367527,197.702781 331.134871,198.683117 C330.913396,199.617881 330.668404,200.541708 330.377537,201.446328 C329.876375,202.80432 329.260137,204.072258 328.537692,205.270763 C327.260305,207.210055 325.745058,208.894227 324.147506,210.431906 C322.073656,212.369402 319.913066,214.155726 317.796231,216.019916 C315.477197,218.061973 313.179944,220.148018 310.906592,222.266334 C314.093602,220.932367 317.23917,219.487885 320.359101,217.936788 C324.544581,215.855633 328.81044,213.588626 332.050843,209.609192 C333.198313,208.199911 334.206999,206.561758 334.945058,204.786726 C335.72398,202.91389 336.282584,200.908002 336.583282,198.839557 C336.74616,197.724657 336.856994,196.589205 336.867402,195.454745 C336.87704,194.337885 336.751749,193.227876 336.628001,192.122709 C336.401514,190.0983 335.804552,188.159906 335.000186,186.375094 C334.254802,184.719341 333.283703,183.169236 332.242441,181.778547 C331.159544,180.332105 329.899698,179.099817 328.63484,177.903744 C326.233114,175.630879 323.532618,173.897898 320.957605,171.949724 C322.077318,173.49983 323.252545,174.985417 324.401749,176.501291 Z" id="Fill-9" fill="#92BAC4"></path>
                    <path d="M325.566563,106.697886 C327.726161,108.568512 329.689845,110.646865 331.450681,112.897167 C332.040805,113.671698 332.597121,114.469863 333.106409,115.301855 C333.647121,116.186754 334.099195,117.121091 334.510743,118.072775 C335.365913,120.161103 335.99613,122.352426 336.329876,124.586032 C336.519721,126.23462 336.536192,127.891881 336.469876,129.549143 C336.404861,131.195346 336.27548,132.845668 336.073065,134.481246 C335.907926,135.620708 335.704427,136.754316 335.477523,137.883804 C335.347492,138.531053 335.207492,139.176351 335.065759,139.820998 C334.905387,140.547825 334.719659,141.271616 334.614985,142.007768 C333.470929,146.969577 331.929412,151.82232 329.983282,156.526965 C327.98774,161.172848 325.533189,165.668248 322.470526,169.696371 C320.745882,171.901789 318.88644,173.993997 316.934892,175.999516 C314.92613,178.06501 312.903065,180.116129 310.906873,182.193267 C312.478731,181.320749 314.040619,180.434788 315.592755,179.528162 C317.145759,178.620647 318.700495,177.71491 320.207771,176.732002 C321.774211,175.710498 323.269783,174.574982 324.721362,173.39727 C326.113777,172.266243 327.422755,171.042693 328.649164,169.733884 C329.9913,168.300395 331.214241,166.757405 332.382353,165.180155 C333.457059,163.729753 334.443994,162.215385 335.354644,160.656133 C336.271579,159.084304 337.070836,157.44981 337.793158,155.779322 C338.61582,153.876171 339.389071,151.945482 339.967709,149.952561 C340.489133,148.162814 340.893746,146.340542 341.208638,144.503959 C341.246347,144.283222 341.281238,144.061401 341.31613,143.840664 C341.352105,143.616241 341.417554,143.409599 341.448978,143.185392 C341.544118,142.512123 341.637523,141.838854 341.710991,141.162983 C341.815015,140.21672 341.894985,139.268071 341.955882,138.317472 C342.204458,134.451323 341.917307,130.54376 341.219474,126.734205 C340.579721,123.236891 339.183622,119.865341 337.334582,116.83769 C336.427616,115.351076 335.371765,113.943608 334.210805,112.647375 C333.05613,111.360249 331.768607,110.1952 330.455294,109.073952 C328.683189,107.560452 326.862972,106.13607 324.916192,104.854148 C322.965728,103.568756 320.94613,102.390915 318.979412,101.131543 C321.110402,103.063317 323.393529,104.815551 325.566563,106.697886 Z" id="Fill-10" fill="#92BAC4"></path>
                    <path d="M279.572879,51.281432 C277.817245,51.4358177 276.064211,51.6108027 274.311176,51.7849203 C270.805759,52.1331555 267.29969,52.4813907 263.782786,52.6880334 C268.211207,52.8927246 272.641579,53.0954643 277.056347,53.505714 C279.257121,53.7095379 281.446192,54.0092023 283.643498,54.2381789 C285.787709,54.4602168 287.93192,54.6822547 290.068978,54.96132 C293.074861,55.3795925 296.039783,55.9719827 298.979567,56.7263478 C301.804489,57.4512235 304.586068,58.3387246 307.284427,59.4471795 C309.360155,60.3489916 311.368266,61.3913122 313.323282,62.5296901 C315.255108,63.6559253 317.124954,64.8775674 318.908328,66.2254069 C321.961889,68.640286 324.69644,71.4014487 327.109814,74.4553372 C329.237337,77.2735273 331.058204,80.3183088 332.474458,83.5536873 C333.698483,86.5678952 334.547368,89.7178411 335.023715,92.9356561 C335.479257,96.6977241 335.399938,100.53937 334.919257,104.294283 C334.506409,107.223058 333.907183,110.106732 333.175759,112.972625 C332.758045,114.609995 333.357988,114.352797 333.802769,114.531787 C334.157576,114.674569 334.256026,115.568034 334.809685,114.472483 C335.217689,113.665145 335.618044,112.854093 336.008266,112.038288 C336.826378,110.325517 337.542415,108.567211 338.189102,106.783536 C338.821703,105.039324 339.363498,103.261069 339.763777,101.448771 C340.193529,99.504422 340.473313,97.5145373 340.647337,95.5324588 C340.807059,93.7236304 340.794489,91.9104654 340.643003,90.1016371 C340.328978,86.3584337 339.508916,82.6935072 338.049319,79.229369 C337.274118,77.3901839 336.421765,75.605641 335.398204,73.8902681 C334.394149,72.2063361 333.217152,70.6345072 331.993344,69.1066957 C329.835697,66.4147029 327.291207,64.0297469 324.574644,61.9104125 C321.648947,59.6267179 318.554861,57.5873952 315.220867,55.945529 C311.86,54.2902191 308.333344,53.0434242 304.675573,52.240922 C303.128854,51.9015769 301.564365,51.6422436 299.994241,51.4284454 C298.190062,51.1834231 296.382198,50.9743952 294.562632,50.8692308 C293.361362,50.7998439 292.158142,50.7718724 290.954923,50.7718724 C288.814613,50.7718724 286.673437,50.8603406 284.537028,50.9609515 C282.878916,51.0390117 281.22644,51.1359365 279.572879,51.281432 Z" id="Fill-11" fill="#92BAC4"></path>
                    <path d="M259.134613,26.3281878 C257.259567,26.5428534 255.389721,26.8282068 253.553251,27.2653439 C249.985201,28.1146823 246.591176,29.558796 243.123684,30.7275307 C246.710588,30.3927391 250.270619,29.768908 253.877245,29.6611416 C255.703746,29.6064994 257.533065,29.697136 259.354365,29.8372107 C261.119536,29.9718645 262.882105,30.1546555 264.63774,30.3836321 C268.735666,30.9543389 272.834241,31.7553233 276.814056,32.8908824 C278.83452,33.4680942 280.808173,34.1942709 282.760372,34.9690184 C283.770712,35.3701611 284.781703,35.740947 285.788359,36.1557503 C286.633994,36.5042023 287.480279,36.8500524 288.323963,37.2019738 C290.657152,38.1974582 292.946997,39.2723038 295.18613,40.4670585 C297.367833,41.632107 299.489938,42.9027536 301.465108,44.394354 C303.046285,45.6498222 304.529071,47.0247659 305.792105,48.6030998 C306.924892,50.1211538 307.907059,51.7719103 308.664056,53.5085329 C309.178978,54.7741923 309.59226,56.076063 310.030681,57.369694 C310.524149,58.8283356 311.039938,60.2815563 311.551393,61.7349939 C311.538824,59.9350557 311.489412,58.1390206 311.44195,56.3401667 C311.394272,54.5545396 311.282229,52.777369 310.895604,51.0286037 C310.507028,49.2702977 309.892415,47.5709705 309.114613,45.9479688 C308.316223,44.2829013 307.204458,42.7839287 306.036563,41.3627993 C303.684954,38.5021098 300.705511,36.2175479 297.619226,34.2051126 C294.398576,32.1046427 290.855449,30.5104799 287.282198,29.1145033 C287.079783,29.0355758 286.876502,28.9581661 286.672786,28.8820574 C286.161115,28.6181706 285.600031,28.4460045 285.056285,28.2627798 C284.646254,28.1244398 284.233622,27.9943395 283.820124,27.8668411 C282.99291,27.6118445 282.156594,27.3856867 281.316811,27.1809955 C279.343158,26.6981065 277.327245,26.4081996 275.308731,26.18833 C272.892755,25.9250936 270.452291,25.8027993 268.015294,25.8027993 C266.828978,25.8025825 265.643529,25.8316382 264.461981,25.8875814 C262.682724,25.9719298 260.903684,26.1263155 259.134613,26.3281878 Z M264.307461,30.338097 C264.360341,30.3452525 264.41257,30.352408 264.465232,30.3597804 C264.41257,30.352408 264.360124,30.3452525 264.307461,30.338097" id="Fill-12" fill="#92BAC4"></path>
                    <path d="M146.816162,1.86997547 C140.280057,2.77460647 133.94686,4.23064604 127.864111,5.97399052 C122.084173,7.63103512 116.584998,9.68748774 111.426529,12.0149827 C106.24119,14.3550541 101.416536,16.9924047 97.1168936,19.9610775 C92.8840829,22.8826973 89.0191928,26.0380641 85.5180896,29.3189777 C83.2006714,31.4912196 84.968333,31.4958641 88.1401304,29.3214245 C89.0568574,28.6929582 89.9837563,28.0703199 90.927351,27.4572419 C93.0222254,26.0972598 95.2101135,24.7893177 97.4248722,23.5058779 C99.5600525,22.2690574 101.762754,21.0786394 104.048823,19.9541388 C111.240502,16.5001918 119.211773,13.6937107 127.517204,11.4494799 C131.748637,10.3427598 136.075495,9.40712152 140.483998,8.62109866 C144.863219,7.84114716 149.325808,7.19888517 153.832837,6.78928595 C157.315682,6.51520792 160.817819,6.37426589 164.3234,6.29165217 C168.005364,6.20556912 171.689049,6.17326087 175.372735,6.22161483 C182.570959,6.31572074 189.783652,6.67501449 196.924345,7.25786399 C203.593425,7.84743534 210.153645,8.75900502 216.653577,9.86594203 C223.182792,10.9772157 229.695471,12.2001589 235.94909,13.8298824 C239.48292,14.7863367 242.947162,15.8388484 246.292898,17.036422 C249.707189,18.2587146 252.94682,19.6635814 256.065534,21.1629877 C258.330933,22.2744783 260.546726,23.4282514 262.687762,24.6331973 C264.938349,25.9005914 267.081452,27.2436605 269.196652,28.5990892 C271.310129,29.9536505 273.392257,31.3268595 275.514347,32.676 C277.677776,34.0513774 279.76266,35.4748919 281.89784,36.8680496 C280.219116,35.1544114 278.567606,33.4318829 276.800691,31.7542391 C275.070982,30.1132402 273.368143,28.4607492 271.59985,26.8360128 C268.020201,23.5479437 264.038183,20.4582776 259.568704,17.631631 C255.012413,14.7492581 249.879781,12.2537168 244.343401,10.1640886 C238.580343,7.98816054 232.399757,6.31853958 226.061737,4.93167001 C219.933859,3.59163657 213.663016,2.56102508 207.279867,1.83571572 C200.545677,1.07007525 193.695738,0.666113712 186.867501,0.416537904 C183.20793,0.283185061 179.54767,0.216183389 175.887755,0.216183389 C172.949557,0.216183389 170.011703,0.259333333 167.072815,0.345633222 C160.267316,0.545770903 153.477663,0.947130435 146.816162,1.86997547 Z" id="Fill-13" fill="#92BAC4"></path>
                    <path d="M22.0709288,79.5097352 C21.2751393,79.6413534 20.4849845,79.7738389 19.7425077,80.0852124 C18.1355418,80.6622074 16.5487307,81.4759849 15.3225387,82.6802804 C14.7295975,83.2635635 14.1867183,83.9242564 13.7695356,84.6441449 C13.3443344,85.380296 13.1586068,86.1962419 13.1280495,87.0382079 C13.0994427,87.8218456 13.292322,88.6100368 13.6412384,89.3056399 C13.9723839,89.9654654 14.6765015,90.45551 15.3190712,90.7725212 C15.962291,91.0893155 16.6575232,91.156534 17.3644582,91.1719292 C18.1288235,91.1888423 18.8914551,91.2014186 19.6558204,91.1979493 C19.6586378,91.1979493 19.6603715,91.1933958 19.6575542,91.1925284 C19.5559133,91.1467765 19.4540557,91.1012414 19.3521981,91.0554894 C20.6252012,90.0754002 21.9380805,89.1438818 23.1081424,88.0373785 C23.6599071,87.5148088 24.2125387,86.9907213 24.6934365,86.4009331 C25.1743344,85.8120123 25.543839,85.1630284 25.8489783,84.46916 C26.1989783,83.6738133 26.4473375,82.8346661 26.2795975,81.960175 C26.109257,81.0770106 25.4740557,80.4648885 24.7929102,79.9397168 C24.285356,79.5487653 23.6722601,79.419966 23.0528793,79.419966 C22.7223839,79.419966 22.3901548,79.4566109 22.0709288,79.5097352 M23.3079567,82.6085084 C23.3879257,82.6510078 23.4655108,82.6965429 23.5422291,82.7455474 C23.5643344,82.7659298 23.5862229,82.786529 23.607678,82.8077787 C23.6081115,82.8095134 23.6085449,82.811248 23.6089783,82.8129827 C23.6141796,82.974524 23.6081115,83.13368 23.5933746,83.2945708 C23.4926006,83.8644103 23.3437152,84.4309972 23.1397833,84.9724314 C22.665387,86.0314482 22.0124149,87.0304019 21.3802477,87.9979147 C20.7077709,89.0250569 19.9663777,90.0049292 19.280031,91.023398 C18.6415789,90.7380446 18.0020433,90.4559437 17.3566563,90.185335 C17.3852632,90.1972609 17.4140867,90.2094036 17.4424768,90.2213294 C17.0944272,90.0708467 16.763065,89.9080045 16.4525077,89.6929052 C16.2719814,89.5357007 16.1079257,89.3667871 15.9516718,89.1855139 C15.8368111,89.026141 15.735387,88.8626483 15.6460991,88.6874465 C15.6190093,88.6041823 15.5962539,88.5217854 15.5771827,88.4363528 C15.5613622,88.2117129 15.56613,87.9903255 15.5858514,87.7659025 C15.6389474,87.4814164 15.713065,87.2062542 15.8114551,86.934995 C15.9018266,86.7569744 16.0028173,86.5891449 16.1152941,86.4254353 C16.5101548,85.9627118 16.9639628,85.563087 17.4394427,85.1849287 C18.3982043,84.479568 19.4878638,83.9806332 20.5781734,83.5079353 C21.0480186,83.3201572 21.5349845,83.1627358 22.0163158,83.0059649 C22.4410836,82.8684922 22.8645511,82.710854 23.3001548,82.6087252 C23.3027554,82.6085084 23.305356,82.6085084 23.3079567,82.6085084 M23.5190402,82.658597 C23.5363777,82.679413 23.5526316,82.7006628 23.5682353,82.722563 C23.5517647,82.7013133 23.5352941,82.6798467 23.5190402,82.658597" id="Fill-14" fill="#92BAC4"></path>
                    <path d="M60.6668932,226.475334 C56.1787222,228.739188 51.7770898,231.096389 47.5564275,233.648394 C43.2979926,236.222841 39.3036839,239.071041 35.4725865,242.01261 C31.5845483,244.997285 27.954153,248.174031 24.6084613,251.525828 C17.9731732,258.174692 12.6007293,265.539867 8.44179974,273.280209 C4.22311063,281.131894 1.7797325,289.537416 0.698985873,297.977957 C-0.409667358,306.636612 0.442188747,315.4039 2.40157054,323.953942 C3.35377767,328.11004 4.68060979,332.216744 6.47424328,336.20677 C8.23038608,340.113314 10.5457885,343.865451 13.2916291,347.41654 C16.0081537,350.92901 19.2264333,354.21168 22.7040471,357.29688 C26.1266933,360.332706 29.9972546,363.06065 34.0547055,365.584813 C38.2288568,368.181702 42.6318986,370.567638 47.231978,372.695948 C51.9510128,374.880811 56.9093678,376.7515 61.9424223,378.465099 C72.3059199,381.992835 83.0324852,384.841057 94.0739159,386.815871 C105.253188,388.81582 116.70448,389.604848 128.13463,390.184725 C133.937794,390.479152 139.738703,390.680224 145.554551,390.746649 C151.412683,390.813075 157.271942,390.773578 163.131201,390.747547 C167.137067,390.729594 171.139833,390.697279 175.14598,390.64342 C185.255218,390.508774 195.364173,390.37323 205.473411,390.238583 C207.162183,390.216143 208.842499,390.155102 210.529862,390.095858 C216.280595,389.892093 222.031329,389.670375 227.773606,389.355302 C239.374296,388.718874 250.930448,387.532191 262.357216,385.874244 C273.410486,384.271055 284.285041,381.98386 294.851777,379.016252 C305.289974,376.08455 315.420071,372.37908 324.815294,367.805582 C329.519107,365.515708 333.96866,362.91613 338.160288,360.101127 C342.124435,357.439621 345.800214,354.520473 349.052602,351.337439 C350.755186,349.671417 352.35742,347.9614 353.799543,346.155347 C355.259425,344.32863 356.513813,342.406788 357.649527,340.449927 C358.801027,338.461647 359.829061,336.432971 360.709105,334.36392 C361.588868,332.294848 362.248197,330.178202 362.755871,328.037314 C363.440852,325.145119 363.854095,322.193663 363.975305,319.255672 C364.102717,316.189337 363.7233,313.155311 363.15502,310.124862 C362.073146,304.356603 359.375226,298.811879 355.606143,293.771597 C353.833369,291.400041 351.755032,289.169384 349.539135,287.033895 C347.340715,284.914561 344.813053,283.005274 342.234088,281.164202 C340.925015,280.229549 339.589594,279.31717 338.24745,278.410617 C336.908484,277.506211 333.682351,278.897748 334.750914,280.02827 C335.633252,280.96177 336.517622,281.894193 337.400608,282.827535 C339.348151,284.884942 341.232833,286.976456 342.943593,289.155919 C344.725387,291.425411 346.242209,293.823854 347.611606,296.256123 C348.696299,298.287271 349.643714,300.352809 350.427072,302.46618 C351.265398,304.722489 351.853974,307.031531 352.298506,309.352153 C353.114281,314.483071 353.128093,319.698815 352.327822,324.831404 C351.941076,326.820074 351.414797,328.783071 350.73179,330.726662 C350.01552,332.764076 349.10475,334.759187 348.070515,336.712925 C347.120563,338.378621 346.069132,340.002924 344.904102,341.587242 C343.642949,343.300989 342.201672,344.931211 340.667372,346.504862 C336.2508,350.795874 331.085541,354.620195 325.504503,358.008116 C321.204067,360.516798 316.661774,362.752507 311.972901,364.806574 C307.014828,366.978296 301.895798,368.920174 296.653585,370.649816 C288.00733,373.413952 279.080036,375.676507 270.008699,377.460636 C260.478735,379.334348 250.747787,380.680686 241.002745,381.7106 C229.746518,382.836783 218.409108,383.326032 207.082692,383.820437 C206.265789,383.856342 205.443249,383.854547 204.625219,383.871603 C202.544627,383.91469 200.463753,383.958675 198.382033,384.00176 C188.705771,384.202832 179.028381,384.403904 169.352119,384.604977 C166.107906,384.672299 162.86031,384.692946 159.615251,384.737829 C153.523719,384.822207 147.432187,384.887735 141.339809,384.828491 C135.567934,384.772836 129.802261,384.545733 124.03997,384.293495 C118.271478,384.040317 112.508623,383.691338 106.776212,383.128151 C92.7668158,381.637139 79.0894795,378.575006 66.0497669,374.386484 C61.3174835,372.831837 56.6742758,371.129806 52.1784939,369.198736 C47.8326747,367.332689 43.7106721,365.189937 39.7580823,362.866822 C36.8741181,361.127684 34.1043173,359.288239 31.4746132,357.324721 C28.9198906,355.417428 26.5661518,353.366809 24.3705505,351.213605 C20.4348738,347.220825 17.0607118,342.917974 14.4699079,338.318211 C11.1991976,332.16208 9.337348,325.645051 8.15061266,319.073076 C6.86183499,311.314824 6.70397946,303.474675 7.9840187,295.709333 C9.31366967,288.453962 11.7702964,281.342288 15.4066113,274.566988 C17.7324435,270.406682 20.4788479,266.405078 23.5325068,262.533639 C26.7327458,258.475658 30.219098,254.546324 33.9676031,250.776212 C36.7810961,247.995816 39.7259474,245.298814 42.7660758,242.664304 C45.9248778,239.926516 49.1795206,237.254233 52.6032944,234.710295 C59.5991133,229.51116 67.1795615,224.803024 74.2382407,219.655041 C69.7537342,221.975445 65.185226,224.195326 60.6668932,226.475334 Z" id="Fill-21" fill="#92BAC4"></path>
                    <path d="M341.407368,215.461983 C340.993003,215.501468 340.576687,215.562507 340.167523,215.64241 C339.701146,215.733068 339.275728,215.933249 338.841641,216.119965 C338.248483,216.373986 337.696718,216.847053 337.261765,217.31472 C336.690279,217.929596 336.236254,218.770716 336.325975,219.634235 C336.422848,220.565082 336.855201,221.293058 337.43839,222.001324 C337.887864,222.547095 338.596749,222.867554 339.226533,223.148484 C340.669226,223.791201 342.25257,224.082041 343.80644,224.315419 C345.33257,224.54433 346.869319,224.71487 348.406285,224.854013 C348.408885,224.854013 348.409752,224.850435 348.407152,224.848635 C346.995882,224.032689 345.560341,223.265184 344.110712,222.518365 C342.822105,221.853378 341.518328,221.197217 340.346316,220.340875 C340.220619,220.234952 340.101858,220.125277 339.990031,220.006257 C339.939969,219.924814 339.893591,219.842027 339.850248,219.757527 C339.893375,219.716892 339.937585,219.677169 339.982446,219.638117 C340.16644,219.511291 340.354768,219.396781 340.552632,219.294739 C341.304861,219.053966 342.061858,218.886245 342.842043,218.762021 C343.437585,218.695215 344.031176,218.671623 344.628885,218.723425 C345.064489,218.799425 345.486873,218.91155 345.902755,219.065697 C346.201827,219.206314 346.48161,219.368852 346.752724,219.560946 C347.179226,219.91419 347.564768,220.306746 347.916935,220.73573 C348.103313,220.991551 348.267152,221.253876 348.403251,221.540661 C348.605666,222.103865 348.719443,222.68034 348.804613,223.273272 C348.80418,223.269824 348.803746,223.266377 348.803313,223.262907 C348.893901,223.951116 348.967368,224.640431 349.106068,225.320791 C349.106068,225.323501 349.110619,225.323501 349.111486,225.320791 C349.39582,223.924055 349.916161,222.533608 349.760991,221.087499 C349.682105,220.348725 349.386935,219.663855 349.053189,219.006783 C348.722043,218.355089 348.270836,217.743791 347.74226,217.241126 C346.619226,216.172027 345.105666,215.620879 343.588421,215.455695 C343.252074,215.418854 342.917028,215.402635 342.582198,215.402635 C342.191238,215.402635 341.800495,215.424731 341.407368,215.461983 M339.713715,219.892246 C339.711331,219.91007 339.708731,219.927894 339.706563,219.945717 C339.707864,219.928132 339.710031,219.91072 339.712415,219.89346 C339.712848,219.89307 339.713282,219.892636 339.713715,219.892246" id="Fill-22" fill="#92BAC4"></path>
                </g>
            </g>
        </g>
    </g>
</svg>