<?xml version="1.0" encoding="UTF-8" standalone="no"?>
<svg width="298px" height="59px" viewBox="0 0 298 59" version="1.1" xmlns="http://www.w3.org/2000/svg" xmlns:xlink="http://www.w3.org/1999/xlink" xmlns:sketch="http://www.bohemiancoding.com/sketch/ns">
    <!-- Generator: Sketch 3.2.2 (9983) - http://www.bohemiancoding.com/sketch -->
    <title>titlebox-blue</title>
    <desc>Created with Sketch.</desc>
    <defs>
        <linearGradient x1="50%" y1="0%" x2="50%" y2="100%" id="linearGradient-1">
            <stop stop-color="#FFFFFF" stop-opacity="0.5" offset="0%"></stop>
            <stop stop-color="#000000" stop-opacity="0.5" offset="100%"></stop>
        </linearGradient>
        <linearGradient x1="50%" y1="0%" x2="50%" y2="100%" id="linearGradient-2">
            <stop stop-color="#61D8FA" offset="0%"></stop>
            <stop stop-color="#17ADE1" offset="100%"></stop>
        </linearGradient>
        <radialGradient cx="50%" cy="0%" fx="50%" fy="0%" r="47.6785425%" id="radialGradient-3">
            <stop stop-color="#050041" stop-opacity="0.1" offset="0%"></stop>
            <stop stop-color="#000000" stop-opacity="0" offset="100%"></stop>
        </radialGradient>
    </defs>
    <g id="Page-1" stroke="none" stroke-width="1" fill="none" fill-rule="evenodd" sketch:type="MSPage">
        <g id="titlebox-blue" sketch:type="MSLayerGroup" transform="translate(1.000000, 1.000000)">
            <path d="M296,0.331785685 L4.54747351e-13,0.331785679 L4.54747351e-13,8 L5.03125,31.5 L4.24481078e-09,54.8584213 L2,58 L294,58 L296,54.8584199 L291,31.5 L296,8 L296,0.331785685 L296,0.331785685 Z" id="Rectangle-25" fill="#2676A0" sketch:type="MSShapeGroup"></path>
            <g id="Rectangle-24" sketch:type="MSShapeGroup">
                <g id="path-2-link" stroke-opacity="0.135133605" stroke="#176188" fill="#2EB5DF">
                    <path d="M0,0 L5.03125,27.5 L0,55 L296,55 L291,27.5 L296,0 L0,0 L0,0 Z" id="path-2"></path>
                </g>
                <g id="path-2-link" fill="url(#linearGradient-2)">
                    <path d="M0,0 L5.03125,27.5 L0,55 L296,55 L291,27.5 L296,0 L0,0 L0,0 Z" id="path-2"></path>
                </g>
            </g>
            <path d="M3.64534123,26.9842115 L292.799055,26.9842115 L296.700608,53.7836305 L0.70060813,53.9842115 L3.64534123,26.9842115 L3.64534123,26.9842115 Z" id="Path-159" opacity="0.327716884" fill="url(#radialGradient-3)" sketch:type="MSShapeGroup"></path>
        </g>
    </g>
</svg>