<?xml version="1.0" encoding="UTF-8" standalone="no"?>
<svg width="296px" height="58px" viewBox="0 0 296 58" version="1.1" xmlns="http://www.w3.org/2000/svg" xmlns:xlink="http://www.w3.org/1999/xlink" xmlns:sketch="http://www.bohemiancoding.com/sketch/ns">
    <!-- Generator: Sketch 3.1.1 (8761) - http://www.bohemiancoding.com/sketch -->
    <title>titlebox-purple</title>
    <desc>Created with Sketch.</desc>
    <defs>
        <linearGradient x1="45.6912479%" y1="0%" x2="45.6912488%" y2="100%" id="linearGradient-1">
            <stop stop-color="#FF99CB" offset="0%"></stop>
            <stop stop-color="#B15ABF" offset="100%"></stop>
        </linearGradient>
        <path id="path-2" d="M0,0 L5.03125,27.5 L0,55 L296,55 L291,27.5 L296,0 L0,0 Z"></path>
        <radialGradient cx="50%" cy="0%" fx="50%" fy="0%" r="47.6785425%" id="radialGradient-3">
            <stop stop-color="#000000" stop-opacity="0.1" offset="0%"></stop>
            <stop stop-color="#000000" stop-opacity="0" offset="100%"></stop>
        </radialGradient>
    </defs>
    <g id="Welcome" stroke="none" stroke-width="1" fill="none" fill-rule="evenodd" sketch:type="MSPage">
        <g id="Desktop-HD" sketch:type="MSArtboardGroup" transform="translate(-962.000000, -1184.000000)">
            <g id="contact-2" sketch:type="MSLayerGroup" transform="translate(932.000000, 1184.000000)">
                <g id="titlebox-purple" transform="translate(30.000000, 0.000000)">
                    <path d="M296,0.331785685 L4.54747351e-13,0.331785679 L4.54747351e-13,8 L5.03125,31.5 C5.03125,31.5 4.96454191,31.836221 4.93118787,32.0043315 C3.28745858,40.2890281 4.24481078e-09,54.8584213 4.24481078e-09,54.8584213 L2,58 L294,58 L296,54.8584199 L291,31.5 L296,8 L296,0.331785685 Z" id="Rectangle-25" fill="#5C3588" sketch:type="MSShapeGroup"></path>
                    <g id="Rectangle-24">
                        <use stroke-opacity="0.258859828" stroke="#AC01D0" stroke-width="1" fill="#5F4FBE" sketch:type="MSShapeGroup" xlink:href="#path-2"></use>
                        <use stroke="none" fill-opacity="0.5" fill="url(#linearGradient-1)" xlink:href="#path-2"></use>
                    </g>
                    <path d="M6.58430449,27.9842115 L289.744606,27.9842115 L293.56529,52.5377737 L3.70060813,52.7215455 L6.58430449,27.9842115 Z" id="Path-159" fill-opacity="0.600000024" fill="url(#radialGradient-3)" sketch:type="MSShapeGroup"></path>
                </g>
            </g>
        </g>
    </g>
</svg>