<?xml version="1.0" encoding="UTF-8" standalone="no"?>
<svg width="296px" height="58px" viewBox="0 0 296 58" version="1.1" xmlns="http://www.w3.org/2000/svg" xmlns:xlink="http://www.w3.org/1999/xlink" xmlns:sketch="http://www.bohemiancoding.com/sketch/ns">
    <!-- Generator: Sketch 3.2.2 (9983) - http://www.bohemiancoding.com/sketch -->
    <title>titlebox-red</title>
    <desc>Created with Sketch.</desc>
    <defs>
        <path id="path-1" d="M296,0.331785685 L4.54747351e-13,0.331785679 L4.54747351e-13,8 L5.03125,31.5 L4.24481078e-09,54.8584213 L2,58 L294,58 L296,54.8584199 L291,31.5 L296,8 L296,0.331785685 Z"></path>
        <linearGradient x1="50%" y1="0%" x2="50%" y2="100%" id="linearGradient-2">
            <stop stop-color="#E54747" offset="0%"></stop>
            <stop stop-color="#840808" offset="100%"></stop>
        </linearGradient>
        <path id="path-3" d="M4.54747351e-13,0 L5.03125,27.5 L4.54747351e-13,55 L296,55 L291,27.5 L296,0 L4.54747351e-13,0 Z"></path>
        <radialGradient cx="50%" cy="0%" fx="50%" fy="0%" r="47.6785425%" id="radialGradient-4">
            <stop stop-color="#000000" stop-opacity="0.1" offset="0%"></stop>
            <stop stop-color="#000000" stop-opacity="0" offset="100%"></stop>
        </radialGradient>
    </defs>
    <g id="Welcome" stroke="none" stroke-width="1" fill="none" fill-rule="evenodd" sketch:type="MSPage">
        <g id="Desktop" sketch:type="MSArtboardGroup" transform="translate(-240.000000, -1809.000000)">
            <g id="titlebox-red" sketch:type="MSLayerGroup" transform="translate(240.000000, 1809.000000)">
                <g id="Rectangle-24">
                    <use fill="#6B1616" fill-rule="evenodd" sketch:type="MSShapeGroup" xlink:href="#path-1"></use>
                    <use fill="none" xlink:href="#path-1"></use>
                </g>
                <g id="Rectangle-23">
                    <use stroke="#AE3C3C" stroke-width="1" fill="#F95959" sketch:type="MSShapeGroup" xlink:href="#path-3"></use>
                    <use stroke="none" fill-opacity="0.5" fill="url(#linearGradient-2)" xlink:href="#path-3"></use>
                </g>
                <path d="M6.58430449,27.9842115 L289.744606,27.9842115 L293.56529,52.5377737 L3.70060813,52.7215455 L6.58430449,27.9842115 Z" id="Path-158" fill-opacity="0.599999964" fill="url(#radialGradient-4)" sketch:type="MSShapeGroup"></path>
            </g>
        </g>
    </g>
</svg>