<?xml version="1.0" encoding="UTF-8" standalone="no"?>
<svg width="603px" height="39px" viewBox="0 0 603 39" version="1.1" xmlns="http://www.w3.org/2000/svg" xmlns:xlink="http://www.w3.org/1999/xlink" xmlns:sketch="http://www.bohemiancoding.com/sketch/ns" preserveAspectRatio="none">
    <!-- Generator: Sketch 3.2.2 (9983) - http://www.bohemiancoding.com/sketch -->
    <title>underline5</title>
    <desc>Created with Sketch.</desc>
    <defs></defs>
    <g id="Page-1" stroke="none" stroke-width="1" fill="none" fill-rule="evenodd" sketch:type="MSPage">
        <path d="M200.95877,1.02644445 C199.984048,1.05167771 199.085808,1.27958446 198.189522,1.53110954 C197.295189,1.78263462 196.467848,2.10198669 195.636878,2.44495708 C194.845265,2.77137446 194.145207,3.21608534 193.431193,3.62062488 C192.699593,4.03545958 192.074621,4.55506276 191.451045,5.04943268 C190.166489,6.06663563 189.005308,7.18719399 187.908606,8.31098222 C187.348113,8.88407989 186.922719,9.50158809 186.517143,10.1364568 C186.009127,10.9303959 185.692873,11.7441179 185.437748,12.5974056 C185.168108,13.4987375 185.041383,14.4220727 185.053665,15.3431874 C184.961273,15.3627684 184.868602,15.3821476 184.775931,15.4015267 C181.829435,16.0170163 178.772124,16.3537288 175.737981,16.659354 C172.565948,16.9605381 169.393636,17.2372964 166.200668,17.3971743 C162.90191,17.5625026 159.587521,17.5180921 156.300486,17.2706043 C155.118371,17.1363634 153.961377,16.9671997 152.797963,16.7427247 C152.494549,16.6843854 152.193926,16.6193845 151.895536,16.5489333 C152.026169,16.3264769 152.155964,16.1040205 152.28576,15.8809586 C152.477522,15.5173978 152.591965,15.1413214 152.627973,14.7525274 C152.673751,14.5024154 152.720644,14.2525052 152.767538,14.0025951 C152.735997,13.58231 152.671517,13.1644473 152.574659,12.7488051 C152.442631,12.5241282 152.311719,12.2992495 152.181086,12.0753801 C152.004397,11.6936514 151.715218,11.3617836 151.311875,11.07796 C151.158075,10.9374612 151.004553,10.7979718 150.851869,10.6576749 C150.416706,10.3793016 149.965352,10.1166739 149.497531,9.86898428 C149.300186,9.79651437 149.103957,9.72404447 148.906612,9.65137269 C148.304808,9.39904015 147.65611,9.27206641 146.960239,9.27045148 C146.729119,9.25793579 146.498,9.24602569 146.267969,9.23431746 C145.664992,9.27125895 145.070752,9.34554565 144.486338,9.45657197 C144.183203,9.54963221 143.879007,9.64188499 143.574783,9.73494523 C143.027437,9.8730216 142.54658,10.0914407 142.132267,10.3887893 C141.956723,10.4935578 141.782266,10.5985281 141.60781,10.7032966 C141.261075,11.0234561 140.917605,11.3444231 140.575225,11.6670051 C140.302654,12.0178482 140.069302,12.3822164 139.8774,12.7599078 C139.671346,13.1644473 139.55467,13.58231 139.525221,14.0136977 C139.49689,14.2068835 139.469619,14.4000693 139.442348,14.5940626 C139.508864,15.0119253 139.583029,15.429788 139.664786,15.8462376 C139.787994,16.0567839 139.910114,16.2681376 140.033322,16.4786839 C140.090041,16.6058595 140.156586,16.7289978 140.232955,16.847695 C139.756481,17.0091878 139.274423,17.162606 138.795966,17.3164279 C138.03905,17.5342414 137.278588,17.7312626 136.49842,17.914557 C135.505108,18.1479141 134.48017,18.3142518 133.465058,18.4878565 C131.441115,18.8336531 129.388337,19.1061722 127.332824,19.3375107 C125.657681,19.4800281 123.991248,19.5672342 122.299859,19.5791443 C120.885647,19.5890358 119.475176,19.5060688 118.072883,19.3841417 C117.053556,19.2589848 116.053601,19.1073834 115.046835,18.9293376 C114.190464,18.7777362 113.365914,18.5621432 112.549682,18.3277768 C112.345024,18.258133 112.140561,18.1884892 111.935736,18.1190473 C112.046411,17.9601787 112.146088,17.7972728 112.234823,17.6299259 C112.36674,17.4036341 112.498685,17.1771404 112.63063,16.9500411 C112.829063,16.5180478 112.946828,16.0749518 112.984985,15.6199458 C112.969717,15.1877506 112.908671,14.7595927 112.802881,14.3344629 C112.552055,13.8116298 112.262653,13.3075703 111.953488,12.8039146 C111.925073,12.7530443 111.896741,12.7019722 111.868465,12.651102 C111.737609,12.4254158 111.605692,12.2007389 111.474836,11.976062 C111.127012,11.5509321 110.660363,11.2134121 110.072655,10.961887 C109.15348,10.5724874 108.088208,10.4919429 107.062182,10.6772559 C106.334937,10.8090744 105.6164,10.9051626 104.949084,11.1748557 C104.789897,11.2394528 104.62962,11.3034443 104.470432,11.3680415 C103.889284,11.6171441 103.426961,11.9516362 103.082403,12.3719213 C102.960283,12.5011155 102.838164,12.6305116 102.716045,12.7599078 C102.472895,13.1351767 102.265724,13.5207409 102.092385,13.9149852 C102.043313,14.0829378 101.993154,14.2500829 101.944083,14.4174298 C101.857943,14.8786937 101.772892,15.3399576 101.687841,15.8020289 C101.564159,16.4689943 101.808621,17.165634 101.966804,17.8188725 C101.863526,17.8836715 101.759522,17.9480668 101.654653,18.0120583 C100.739469,18.4771576 99.8000575,18.8913867 98.8126073,19.2817957 C97.8795317,19.6512105 96.9020743,19.9630935 95.9230259,20.2656907 C94.7402964,20.6157264 93.5556409,20.9506222 92.3457241,21.250797 C90.9555173,21.5961898 89.5184445,21.8446868 88.0922578,22.0954045 C86.6889877,22.3428922 85.2725985,22.5518236 83.8627967,22.7734725 C82.7376796,22.9494997 81.6110831,23.1031197 80.4758057,23.2319102 C78.7700424,23.3512131 77.0868887,23.3687754 75.3788086,23.2646125 C75.2774286,23.2529043 75.1759928,23.2411961 75.0745569,23.229286 C74.4769676,23.1461172 73.8928881,23.0260069 73.3224023,22.8689551 C73.0240681,22.768224 72.7307305,22.65962 72.442445,22.5431433 C72.0423122,22.3820542 71.6547123,22.2070364 71.2787801,22.0190991 C71.1392988,21.9339116 70.9998176,21.8487242 70.8603363,21.7633348 C70.3892487,21.4403492 69.9506517,21.095562 69.5454667,20.7285695 C69.3224976,20.504902 69.1123965,20.274371 68.9151633,20.0371784 C68.4438523,19.5177771 68.091674,18.9311544 67.7430686,18.3598735 C67.6867681,18.2456173 67.6364689,18.1299481 67.5921988,18.0128658 C67.5869512,17.6929081 67.6106772,17.3737579 67.6634328,17.0550114 C67.6612556,16.546309 67.4835335,16.071722 67.1313553,15.6324615 C66.9285394,15.4425055 66.7257236,15.2523477 66.521847,15.0623918 C66.0366354,14.7129617 65.463107,14.4717318 64.8034392,14.3376927 C64.226645,14.2706732 63.6487622,14.2115264 63.0697908,14.159445 C62.3817633,14.2131414 61.7002954,14.2918691 61.0242705,14.3976469 C60.3591596,14.5341084 59.7082285,14.7028684 59.0747431,14.9039269 C58.7389218,15.006273 58.4034076,15.1086191 58.0680329,15.2109652 C57.9791858,15.2388227 57.8899759,15.2660746 57.8004868,15.2927209 C57.6821636,15.3288549 57.5637846,15.364989 57.4454893,15.401123 C57.5609375,15.3657964 57.6763298,15.3304699 57.7916384,15.2953452 C57.2520243,15.4552231 56.7009938,15.5912808 56.1384074,15.7043258 C55.419871,15.8422003 54.6969802,15.9699815 53.9718843,16.088275 C52.5206317,16.3357627 51.0497563,16.5243056 49.5843239,16.7199138 C46.3145117,17.1561463 43.0287053,17.5364619 39.7354461,17.8675222 C36.251904,18.1997937 32.7610487,18.5104655 29.2645271,18.7589626 C25.4695318,19.0288575 21.6239302,19.0694326 17.8285441,18.7837921 C14.400856,18.4186165 11.0123297,17.8404722 7.80052067,16.8892794 C7.4844618,16.7758307 7.16843084,16.6615745 6.85234406,16.5471165 C6.24501306,16.3026567 5.67695565,16.0172181 5.14814391,15.6916082 C5.2037466,15.7230993 5.25934929,15.7539848 5.31604059,15.7854759 C3.47007033,14.6554299 1.79420188,13.3978045 0.00603943418,12.2227423 C0.00277361348,12.2205217 -0.00160872712,12.2235497 0.000596399681,12.2259721 C0.75620124,13.0516042 1.484563,13.8889445 2.22707664,14.7216419 C2.81913923,15.3863868 3.47007033,16.0117677 4.14174079,16.6347263 C5.65297838,18.036686 7.82059011,18.8875513 9.95004477,19.7061181 C12.220153,20.5781793 14.6560087,21.2374738 17.1049276,21.7909905 C19.9398274,22.432117 22.944857,22.6939373 25.888785,22.9240645 C28.876369,23.1582291 31.8933732,23.1503564 34.8940204,23.1394556 C37.9175563,23.128353 40.9367378,23.03933 43.9515648,22.8727906 C46.9053182,22.7096828 49.8547171,22.4084987 52.7790502,22.0677488 C54.2510142,21.895759 55.7088263,21.6632093 57.1622561,21.4219794 C57.8644355,21.3131736 58.5557288,21.1720692 59.2328423,20.997657 C59.5577496,20.9037893 59.8826848,20.810729 60.20762,20.7170632 C60.4040158,20.6573108 60.6003279,20.5975585 60.7965005,20.5376043 C60.8650827,20.652466 60.9340836,20.7673278 61.0035591,20.8817859 C61.3982768,21.5410803 61.9074657,22.1686818 62.4046799,22.789218 C62.7743038,23.2032453 63.173376,23.601527 63.6040456,23.9830538 C63.9987633,24.3663974 64.4196355,24.7337936 64.8677786,25.0846367 C65.3126281,25.4356818 65.7978397,25.7534189 66.3233856,26.0396649 C67.06375,26.481146 67.8520688,26.8501571 68.6731018,27.2066525 C69.2313617,27.4321369 69.8092445,27.627745 70.4056615,27.7924677 C70.9824557,27.9880759 71.5766955,28.1505781 72.1883809,28.2797723 C72.7870031,28.4045255 73.3954227,28.4959709 74.0136397,28.5551176 C74.9698832,28.6717962 75.9348355,28.7230702 76.9009044,28.762434 C80.2548185,28.8988955 83.6207352,28.4075535 86.890687,27.9329665 C90.1388388,27.4614074 93.3521272,26.9464472 96.4683343,26.1200076 C97.9981061,25.7146606 99.4973411,25.2384586 100.988928,24.767707 C102.475072,24.2985704 103.883813,23.7331436 105.244571,23.0990824 C105.780976,22.8493741 106.295803,22.5699915 106.795529,22.276882 C107.206716,22.4664342 107.632863,22.6374148 108.074028,22.789218 C108.982289,23.1378407 109.971247,23.3972385 110.917665,23.6818696 C111.95025,23.991734 113.050413,24.1810843 114.130953,24.3766925 C116.126286,24.7378309 118.216495,24.8922584 120.261987,25.0160023 C125.033379,25.3054782 129.833103,24.7061379 134.497616,24.041393 C136.550757,23.7488892 138.558092,23.3673624 140.528359,22.8578525 C141.4508,22.6188431 142.351412,22.3114011 143.245494,22.0243476 C144.107977,21.7475893 144.947544,21.4447902 145.781669,21.128668 C146.167091,20.982517 146.534566,20.8204186 146.892131,20.6474194 C148.204042,21.0491328 149.551403,21.3957368 150.910766,21.6938929 C153.271368,22.2112756 155.782421,22.399011 158.230112,22.5558609 C162.76709,22.8467499 167.355429,22.6000696 171.870635,22.2538693 C176.501123,21.8997963 181.149474,21.4770888 185.689523,20.7162557 C186.215683,20.6282421 186.739052,20.5307408 187.260187,20.4259723 C187.321875,20.483706 187.383284,20.5416416 187.444971,20.5995771 C187.828775,20.9748461 188.255286,21.3240743 188.723108,21.6458488 C188.96623,21.8035062 189.209352,21.9613654 189.452474,22.1190228 C189.938719,22.3973961 190.428313,22.6733469 190.92014,22.9462698 C191.174148,23.0738491 191.428156,23.2008229 191.681048,23.3286041 C192.222002,23.5825516 192.787798,23.803393 193.379833,23.9901191 C194.547713,24.4025314 195.799332,24.6887774 197.043414,24.9497902 C197.99748,25.1502432 198.983088,25.2826673 199.955856,25.4253866 C200.971889,25.5751712 202.012207,25.683977 203.042475,25.7651271 C205.236437,25.9379245 207.421466,25.9978787 209.626035,26.0057514 C214.3277,26.0223045 219.030482,25.8164011 223.687207,25.3472644 C226.872639,25.0267012 230.052766,24.6227672 233.181534,24.0751047 C233.51007,24.5595832 233.884104,25.0230676 234.307265,25.4796886 C234.812212,26.0253324 235.436904,26.5324199 236.037592,27.0229544 C236.649445,27.5213616 237.379928,27.935187 238.101758,28.3453788 C238.820239,28.7529463 239.546535,29.1094417 240.332565,29.4469618 C241.123061,29.7867023 242.029117,30.0099661 242.873206,30.2669416 C244.616652,30.7976474 246.530088,31.0578527 248.372904,31.3315831 C250.940621,31.7123024 253.567234,31.9054882 256.179611,32.0229742 C259.58388,32.1759887 263.011876,32.0364993 266.403863,31.825953 C270.079446,31.5980462 273.729908,31.1446551 277.263973,30.3765548 C278.770716,30.04933 280.243685,29.6336878 281.696278,29.1984647 C282.80889,28.8655876 283.892193,28.5040455 284.954004,28.1037452 C285.747012,28.4226935 286.629621,28.6465629 287.463103,28.8988955 C288.961194,29.3514791 290.581543,29.5644478 292.18654,29.6889991 C295.76387,29.9665649 299.376091,29.9350738 302.961237,29.7473384 C304.857366,29.6472129 306.747076,29.4681577 308.63232,29.2884969 C310.448619,29.1148921 312.26408,28.9271567 314.075355,28.7246851 C315.935477,28.5163593 317.776897,28.2482812 319.608827,27.9384169 C320.160109,27.8455585 320.706646,27.7403863 321.249274,27.626332 C321.30845,28.0236043 321.413961,28.4140132 321.565808,28.7979624 C321.725191,29.2047225 321.925885,29.6005818 322.165658,29.9863478 C322.378355,30.3844276 322.624548,30.7716067 322.903678,31.1476831 C323.175271,31.5104364 323.487059,31.8536086 323.839321,32.1767962 C324.515374,32.8534511 325.291635,33.4259432 326.231465,33.9124403 C326.69817,34.178096 327.195301,34.4108476 327.722019,34.6094838 C328.257391,34.8113498 328.806997,34.991818 329.368607,35.1504847 C330.509132,35.4886103 331.648541,35.7544679 332.841263,35.9759149 C334.111583,36.2116945 335.451686,36.293854 336.754665,36.3758116 C338.125193,36.4618065 339.51861,36.4056877 340.890255,36.363094 C342.687015,36.3079846 344.48517,36.2133094 346.278859,36.1156062 C349.282577,35.9514892 352.275687,35.65192 355.247026,35.3010768 C358.174541,34.955684 361.063816,34.4477891 363.943599,33.9392885 C366.73155,33.4463317 369.474839,32.8534511 372.161465,32.1239073 C373.96604,31.6341803 375.702787,31.0473557 377.387895,30.3872537 C377.732899,30.9429909 378.11754,31.4845975 378.532328,32.0064212 C378.843278,32.3691745 379.187725,32.7145673 379.563992,33.043407 C379.917091,33.3942502 380.303128,33.7255124 380.72294,34.0361842 C381.15922,34.3587661 381.619226,34.6623727 382.10547,34.9453888 C382.808878,35.3822269 383.587371,35.7702135 384.349396,36.1511347 C385.372128,36.6628651 386.501767,37.0522647 387.632523,37.4198627 C388.790354,37.7951317 389.968004,38.0751199 391.195896,38.3046415 C392.448632,38.5396136 393.755797,38.6286365 395.035887,38.7509673 C396.660703,38.9062023 398.310361,38.936886 399.944667,38.9786722 C405.669065,39.1262363 411.397928,38.4899546 416.980528,37.630409 C419.697579,37.2117388 422.375552,36.6848685 425.007468,36.0407139 C427.900371,35.3325679 430.65343,34.3626016 433.301816,33.2737362 C435.673304,32.299127 437.869498,31.1194219 439.956274,29.8537218 C440.131289,29.7477421 440.303512,29.639542 440.473223,29.5291212 C440.761006,29.6837506 441.05493,29.8325259 441.355274,29.9752452 C442.165309,30.3828127 443.067178,30.6872267 443.955648,30.9908332 C444.82793,31.2897968 445.744034,31.5277969 446.654277,31.7565111 C447.622579,32.0001634 448.640008,32.1184569 449.646271,32.2375578 C451.740863,32.4866605 453.85276,32.5183535 455.969123,32.5001855 C460.379656,32.4622347 464.7673,32.1073542 469.097164,31.5160886 C471.215761,31.2266127 473.305886,30.8196508 475.379543,30.3979526 C477.395698,29.9877609 479.373613,29.4730025 481.292632,28.8682118 C482.983601,28.3356892 484.608975,27.7220165 486.165125,27.029616 C486.300503,27.3013277 486.445371,27.5704151 486.587449,27.8374839 C486.942781,28.5038436 487.374595,29.1449702 487.824832,29.7804444 C488.261112,30.3971452 488.837794,30.9544973 489.409173,31.5066009 C489.969666,32.0476019 490.566167,32.5577174 491.19086,33.0591526 C491.814436,33.5591748 492.533196,33.9841028 493.25698,34.4035804 C493.977694,34.821645 494.718226,35.1843982 495.510955,35.5257537 C496.069215,35.7395298 496.641431,35.9278708 497.229279,36.0927954 C497.813777,36.2811364 498.412232,36.4412162 499.026038,36.5736403 C499.94968,36.7977116 500.922168,36.9032875 501.881817,37.0120933 C502.838954,37.1200916 503.794137,37.1778253 504.761322,37.2131519 C505.818945,37.2519102 506.881035,37.1493622 507.925539,37.0443919 C509.040943,36.9325581 510.119501,36.7833791 511.215086,36.5958455 C513.249665,36.2480304 515.244048,35.6890633 517.156368,35.0840708 C518.090895,34.7885389 518.999184,34.4762522 519.903007,34.1355023 C521.075353,33.6932138 522.164518,33.1372748 523.198136,32.5441923 C523.784867,32.2082873 524.338103,31.8630963 524.879615,31.4977188 C525.320082,31.5972388 525.768086,31.6761684 526.223905,31.7353151 C526.522574,31.7643838 526.821243,31.7936544 527.119075,31.8227231 C527.818016,31.9032677 528.520028,31.9442465 529.226785,31.9466689 C530.658443,31.9906757 532.111873,31.8802549 533.543251,31.8487638 C535.77322,31.7991048 537.996491,31.7462159 540.222831,31.6374101 C542.443869,31.5302192 544.659602,31.3630742 546.872824,31.1926992 C551.614963,30.8291385 556.353473,30.4484192 561.03225,29.7709567 C563.1595,29.4627073 565.258557,29.0383849 567.345333,28.6150718 C569.429038,28.1931718 571.482039,27.7010224 573.517734,27.1735465 C577.698263,26.0909389 581.686752,24.6722244 585.548794,23.0960544 C587.804722,22.1749397 589.962397,21.1325035 591.998092,19.9741962 C592.995982,19.406347 593.950048,18.8173019 594.874526,18.187278 C595.987697,17.4288673 596.98112,16.5582191 597.880756,15.66476 C599.425741,14.1319912 600.780917,12.5217059 601.776573,10.7616359 C602.203921,10.0038308 602.547251,9.26116565 602.783953,8.45995935 C602.853736,8.09639862 602.919052,7.73203043 602.982415,7.3678641 C602.987997,7.19829663 602.994417,7.02872916 603,6.85916169 C602.960643,6.51942115 602.905096,6.18190114 602.834197,5.84518859 C602.609497,5.21031991 602.287939,4.64731553 601.697859,4.14265044 C601.407843,3.85398201 601.063396,3.60407186 600.665357,3.39271812 C600.28267,3.16723376 599.883514,2.95910988 599.467052,2.76834647 C598.589467,2.33615129 597.526261,2.07271611 596.54177,1.79918764 C595.284568,1.45056499 593.905108,1.36537752 592.573937,1.34418159 C592.083227,1.3512469 591.594749,1.382738 591.109621,1.4380493 C590.455341,1.48932327 589.807759,1.56724356 589.165481,1.67140643 C587.480932,1.90799343 585.83239,2.32424119 584.186919,2.67124891 C582.886173,2.94639232 581.556956,3.14825835 580.240858,3.38484535 C578.582547,3.68300148 576.939309,4.02597188 575.289651,4.34936126 C575.285185,4.34996686 575.286301,4.35400418 575.290767,4.35400418 C578.015634,4.33200079 580.740222,4.30030782 583.466205,4.27749696 C584.83143,4.26578873 586.200842,4.15920346 587.562717,4.08976154 C589.125565,4.01002446 590.660222,4.00982259 592.211347,4.13356647 C592.779656,4.20744944 593.335125,4.31847576 593.875799,4.46603983 C593.706926,4.41476586 593.536656,4.36268442 593.367783,4.31141045 C593.858493,4.44948682 594.333852,4.61178711 594.793858,4.7979076 C595.249119,4.98059636 595.689865,5.1812512 596.113584,5.40007398 C596.226074,5.46487298 596.338563,5.52967198 596.451332,5.59447097 C596.723483,5.76080859 596.976654,5.94026749 597.210844,6.13284769 C597.269741,6.20269334 597.328637,6.27253899 597.387534,6.34238464 C597.393674,6.3551022 597.399536,6.36781976 597.405398,6.38053732 C597.408468,6.45098856 597.408189,6.52164168 597.404561,6.59229479 C597.2957,6.97725332 597.152506,7.33960285 596.973584,7.71487181 C596.201789,8.90507396 595.226788,9.9894983 594.148509,11.0505062 C593.38146,11.746944 592.585661,12.4201672 591.744084,13.0728001 C590.85673,13.7619708 589.854653,14.3722118 588.833037,14.9564121 C586.533844,16.1748755 584.112391,17.236489 581.628972,18.2456173 C578.807526,19.3932257 575.954539,20.4903676 572.992969,21.4342932 C569.484585,22.4636081 565.898881,23.3066007 562.252327,24.0478528 C558.40787,24.8284687 554.486373,25.3179939 550.536684,25.7186979 C546.735492,26.0840755 542.93095,26.4292664 539.110778,26.6704963 C537.258192,26.7879823 535.401419,26.8574242 533.543251,26.9093038 C532.463855,26.9393819 531.385576,26.9914633 530.306181,27.0332496 C529.973179,27.046169 529.642968,27.0510138 529.314432,27.0489951 C529.506194,26.7143012 529.677301,26.3723402 529.855944,26.0404724 C530.192854,25.412669 530.354191,24.7487316 530.506875,24.0880241 C530.663746,23.4113692 530.716223,22.7553045 530.699754,22.0709787 C530.65621,21.8327768 530.611549,21.5945748 530.567726,21.3571804 C530.531718,20.9653584 530.422857,20.5852447 530.241702,20.2154261 C530.023701,19.8149239 529.795931,19.4166422 529.559229,19.0215903 C529.328109,18.6525792 529.040326,18.3088014 528.695601,17.9894493 C528.196237,17.4658088 527.60197,16.9904143 526.858367,16.6417916 C526.670792,16.5535762 526.482379,16.4651589 526.293687,16.3769434 C525.836752,16.1954658 525.353857,16.0741444 524.843607,16.0141901 C523.977746,15.8698559 523.095695,15.9037694 522.229834,16.0244853 C521.46446,16.1316762 520.670614,16.2774234 519.983675,16.5582191 C519.798333,16.6339189 519.611874,16.7096186 519.426532,16.7853184 C518.980761,16.9934423 518.586909,17.2435543 518.244695,17.5352507 C517.641775,17.9894493 517.292862,18.5453884 516.973258,19.1194954 C516.659237,19.6824997 516.432584,20.2289511 516.219887,20.8171887 C516.10656,21.2760302 516.010539,21.7381016 515.93322,22.2009804 C515.853389,22.6773842 515.855622,23.1519713 515.941873,23.6267602 C516.003003,24.2757595 516.215421,24.9191066 516.429234,25.5475155 C516.644164,26.1775394 517.064813,26.7760722 517.418192,27.3699621 C517.562223,27.5560826 517.705975,27.7420012 517.850006,27.9281217 C518.022787,28.099506 518.19836,28.2694772 518.375887,28.438439 C517.644008,28.8048259 516.903476,29.1415384 516.128332,29.4651297 C515.397849,29.7691399 514.626892,30.0224818 513.855377,30.2687584 C512.688055,30.6026448 511.51208,30.9036271 510.313496,31.1793761 C509.091744,31.4595661 507.844592,31.6454847 506.583762,31.7892134 C505.97777,31.8314034 505.370384,31.8489657 504.761322,31.8416985 C504.236279,31.8344314 503.712352,31.8104093 503.190379,31.7696324 C502.769451,31.720377 502.351314,31.6608266 501.936248,31.5909809 C501.210789,31.4821751 500.513522,31.3079647 499.825467,31.1157883 C499.631192,31.0471538 499.436639,30.9785194 499.242085,30.9104905 C498.782358,30.730426 498.341891,30.5295693 497.91873,30.3087279 C497.626202,30.1347193 497.342326,29.9530399 497.066825,29.7638914 C496.424268,29.3462306 495.866287,28.8629633 495.316401,28.3821184 C495.096168,28.1630938 494.885983,27.9390225 494.686405,27.7097027 C494.210209,27.1973667 493.843711,26.6341604 493.493961,26.0715598 C493.317551,25.7398939 493.159285,25.4033832 493.018324,25.0626333 C492.834656,24.6268046 492.690346,24.1847179 492.585673,23.7359697 C492.571158,23.6348349 492.558597,23.5334981 492.547711,23.4321614 C492.891041,23.161459 493.219018,22.8802596 493.545042,22.5976472 C493.742387,22.4123341 493.940849,22.2262137 494.13931,22.0409006 C494.520881,21.6751194 494.843555,21.283903 495.1051,20.8660403 C495.232662,20.6514567 495.359387,20.4362675 495.485833,20.2210783 C495.754077,19.7880757 495.996083,19.3480077 496.210734,18.8994614 C496.554343,18.2322941 496.86948,17.5620989 497.239048,16.9011895 C497.419087,16.4171147 497.419087,15.9320307 497.239048,15.4471484 C497.000392,14.8211619 496.348345,14.091618 495.500069,13.8118317 C495.278719,13.7383525 495.057368,13.6658825 494.836018,13.5926052 C494.322419,13.4173855 493.802121,13.2534702 493.275682,13.0996483 C492.942959,13.0673497 492.610515,13.0350512 492.278071,13.0027526 C491.753586,12.9482488 491.233288,12.9712615 490.717735,13.0705796 C490.007907,13.211684 489.168284,13.5980556 488.649382,13.9733245 C488.453991,14.1556095 488.259995,14.3376927 488.064883,14.5197759 C487.782404,14.7563629 487.559937,15.0189906 487.396367,15.3084665 C487.049688,15.797386 486.78898,16.3460579 486.504547,16.8563752 C486.160938,17.4728741 485.90051,18.086345 485.67246,18.7298939 C485.440224,19.3819212 485.369604,20.0672564 485.248462,20.7320013 C485.240088,20.7778249 485.231993,20.8238503 485.224736,20.8696739 C485.126761,20.9280132 485.028787,20.9859487 484.930812,21.0436824 C482.703913,22.2245987 480.340799,23.2276711 477.826675,24.0579461 C473.117473,25.4130728 468.148681,26.2994665 463.14081,26.8422843 C461.112931,27.0166966 459.08533,27.1299434 457.043215,27.1987797 C454.95644,27.2682216 452.888087,27.2623675 450.810522,27.1172258 C450.370055,27.0643369 449.932379,26.9999417 449.498053,26.9236363 C448.699462,26.8011036 447.929343,26.5913648 447.171505,26.3733495 C446.70787,26.2191238 446.253446,26.0509694 445.808234,25.86929 C445.574044,25.7738074 445.343203,25.6742874 445.115992,25.5711339 C445.252486,25.4288183 445.387585,25.2865028 445.521568,25.1437835 C446.216043,24.4049538 446.764533,23.6116203 447.257198,22.7954759 C447.515672,22.3862934 447.742605,21.9684307 447.9366,21.5410803 C448.10659,21.1577367 448.2255,20.7667222 448.291095,20.3676331 C448.399956,19.9362453 448.458852,19.5026371 448.467505,19.0641841 C448.408609,18.6227031 448.309518,18.185865 448.168836,17.7544772 C447.944137,17.3333847 447.687058,16.9233948 447.396763,16.5234981 C447.22454,16.3327347 447.0512,16.1425769 446.878977,15.9518135 C446.502709,15.5852248 446.157146,15.2043036 445.842009,14.8084443 C444.980614,13.7952787 443.205626,13.1745406 441.574391,13.552232 C441.063024,13.6783982 440.546355,13.7904339 440.023824,13.8889445 C439.212672,14.0530616 438.46265,14.3235621 437.751706,14.6421067 C437.027642,14.9669091 436.346286,15.4968075 435.89577,16.0180256 C435.752018,16.1843632 435.607987,16.3509027 435.465073,16.5172403 C435.202412,16.9044194 434.961522,17.2986637 434.741289,17.6983585 C434.645268,17.881451 434.550364,18.0643416 434.45546,18.2464248 C434.238576,18.69053 434.075006,19.1439212 433.965866,19.608213 C433.763217,20.2927408 433.732513,20.9968495 433.760984,21.6924799 C433.786106,22.3255317 434.029228,22.9745311 434.27235,23.5777068 C434.379257,23.7725075 434.487001,23.9681157 434.593908,24.1637239 C434.811071,24.5682634 435.059497,24.9633152 435.338627,25.3480719 C435.360399,25.3799667 435.38245,25.4118616 435.40506,25.4435545 C434.768923,25.8818057 434.090358,26.2889695 433.40621,26.6866456 C430.645056,28.1560285 427.694653,29.4025512 424.565606,30.4132945 C422.108704,31.1127603 419.603233,31.6689012 417.044728,32.1477274 C414.083438,32.7016478 411.075812,33.13243 408.051997,33.4602604 C403.516693,33.8565234 398.947057,33.9376736 394.401146,33.5712867 C393.954817,33.5200128 393.510721,33.4598567 393.069138,33.3904148 C392.230352,33.272525 391.426178,33.0769168 390.627588,32.8657649 C389.967166,32.6449235 389.324888,32.409144 388.68261,32.1523704 C388.018839,31.8879259 387.400008,31.5722074 386.7929,31.2455881 C386.390674,31.0051657 386.004916,30.7510163 385.637302,30.4831401 C385.384968,30.2992402 385.144638,30.108073 384.91603,29.9098406 C384.605079,29.5908922 384.322321,29.2590245 384.06915,28.9138336 C383.90865,28.6964238 383.757641,28.4757843 383.616401,28.2519148 C383.511169,28.0458096 383.410961,27.8401081 383.31522,27.633801 C384.510454,26.967845 385.656562,26.2542485 386.749356,25.5113815 C387.700072,24.8646027 388.533275,24.1368757 389.337728,23.3964311 C390.127108,22.6701171 390.863173,21.9234146 391.562115,21.149864 C392.271942,20.3637976 392.833552,19.5216125 393.346034,18.6612595 C393.605346,18.2472322 393.834512,17.8245247 394.03409,17.3941464 C394.223619,16.9793117 394.36765,16.5566042 394.465625,16.1254183 C394.555226,15.6845429 394.630311,15.24286 394.692557,14.7989566 C394.667436,14.3423356 394.602119,13.8889445 394.498562,13.4379758 C394.362068,12.9726746 394.153837,12.5249357 393.872474,12.0943555 C393.532493,11.4841144 393.137524,10.8918395 392.75065,10.2967384 C392.707943,10.2196256 392.664957,10.1425128 392.621971,10.0653999 C392.500829,9.85889098 392.381082,9.65218016 392.25994,9.4456712 C391.941452,9.05526229 391.511871,8.74539792 390.972313,8.51426131 C390.686484,8.42766078 390.400934,8.34005092 390.115384,8.25264293 C389.479526,8.12950465 388.843947,8.12950465 388.208089,8.25264293 C387.588979,8.33924346 386.967356,8.40868538 386.341547,8.46157428 C385.725507,8.51426131 385.143242,8.64769476 384.595868,8.85884664 C384.022256,8.99228009 383.520938,9.21069914 383.090241,9.51491125 C382.596181,9.75937102 382.176369,10.0583346 381.82969,10.4107927 C381.023842,11.0928981 380.419804,11.8821943 379.789529,12.6494871 C379.060162,13.535679 378.358988,14.4133925 377.739878,15.3446005 C376.581767,17.0848876 375.961261,18.981419 375.575504,20.8834008 C375.385695,21.8194536 375.29749,22.7444038 375.300561,23.6897424 C375.323449,24.1401055 375.378159,24.5886519 375.463014,25.0349777 C375.466922,25.0598072 375.471109,25.0844349 375.475017,25.1092644 C373.940081,25.7826895 372.352948,26.3909118 370.705523,26.9309035 C367.54298,27.843338 364.291675,28.5199929 360.989846,29.12115 C359.209276,29.4461543 357.418936,29.7481459 355.624131,30.0289415 C353.638121,30.338604 351.631176,30.5711537 349.619487,30.7738272 C347.059865,30.9972929 344.497452,31.1426365 341.927223,31.2786942 C340.889138,31.3329961 339.853287,31.3685245 338.813249,31.3937578 C337.693658,31.4202023 336.584675,31.375388 335.47625,31.2885856 C334.182203,31.1008502 332.946774,30.8483158 331.718602,30.5132182 C331.539959,30.4512453 331.361595,30.3892724 331.182952,30.3277033 C330.807522,30.1868008 330.446886,30.029749 330.101044,29.8555386 C329.899233,29.7279593 329.708866,29.5921034 329.529665,29.4479711 C329.139999,29.0327326 328.807277,28.6156774 328.492139,28.1614788 C328.376858,27.9372057 328.274697,27.7092989 328.185375,27.4779604 C328.106939,27.2764981 328.041065,27.073219 327.988309,26.8679213 C327.963467,26.6010544 327.965421,26.3347931 327.993892,26.0691374 C328.010919,26.0009067 328.029062,25.9328778 328.048043,25.8650508 C330.077039,25.2358344 332.044626,24.5058868 333.89777,23.6368535 C335.193212,23.0298423 336.331504,22.2956556 337.365122,21.4716384 C338.369432,20.6704321 339.231944,19.7731376 340.201083,18.9499279 C340.395357,18.7684503 340.588236,18.5879821 340.781115,18.4065045 C341.116908,17.9878344 341.286061,17.5368656 341.288294,17.052589 C341.288294,16.1254183 340.58712,15.1893655 339.449944,14.7351669 C338.906757,14.5183628 338.363849,14.3013568 337.820942,14.0845527 C337.29199,13.8810717 336.731777,13.7470327 336.140579,13.6816281 C334.954277,13.4805695 333.641529,13.6713329 332.568553,14.0712295 C332.021458,14.2454399 331.513163,14.4654739 331.041154,14.7303222 C330.524205,14.9992077 330.012839,15.274553 329.507055,15.5551468 C328.431847,16.1411639 327.488667,16.7907688 326.579261,17.5075951 C325.658132,18.2331016 324.846701,19.0351154 324.054251,19.8338993 C323.530324,20.363192 323.116375,20.9661659 322.759647,21.5776181 C322.442834,21.6619981 322.125463,21.7451669 321.806976,21.8273264 C320.078603,22.2728447 318.320922,22.6275233 316.537281,22.9390026 C314.709817,23.2583547 312.848579,23.4775812 310.99376,23.6953947 C309.415001,23.8813133 307.830659,24.0440173 306.246038,24.2002616 C301.62867,24.6126739 296.971945,24.8149437 292.329455,24.5000327 C292.092194,24.4713677 291.856051,24.439271 291.620744,24.403137 C292.101964,24.0088926 292.556667,23.5974896 292.993226,23.1834624 C293.402151,22.8168737 293.781489,22.435145 294.131518,22.0378726 C294.659353,21.4732533 295.066045,20.8210242 295.401839,20.1863574 C295.643844,19.7943335 295.826116,19.3889865 295.950329,18.9695089 C295.986337,18.7803604 296.022345,18.5918175 296.058352,18.4026691 C296.175029,17.9609862 296.228342,17.5154678 296.219689,17.0661141 C296.204337,16.6103005 296.142091,16.1569094 296.033231,15.7073538 C295.990524,15.494587 295.948096,15.2816183 295.905668,15.0686496 C295.798761,14.6524019 295.638541,14.2478623 295.425844,13.853618 C295.204494,13.4512989 294.962488,13.0562471 294.699548,12.667655 C294.561099,12.5130256 294.421534,12.3575888 294.283086,12.2031613 C293.965994,11.8585759 293.59503,11.5487116 293.168799,11.2725588 C292.707676,10.9998378 292.227852,10.7450829 291.729605,10.5076884 C291.473363,10.4170506 291.218239,10.3264127 290.961997,10.2365823 C290.431092,10.0464245 289.877019,9.90067725 289.30257,9.79974423 C288.743193,9.72626499 288.179351,9.68528619 287.612438,9.67579848 C287.285297,9.70749145 286.958157,9.73898255 286.632133,9.77128112 C286.117417,9.89280447 285.613867,10.0355238 285.123156,10.2002464 C284.662034,10.4398614 284.209285,10.6875511 283.763514,10.9431135 C283.157244,11.3799516 282.622989,11.8206251 282.104924,12.3143894 C281.683159,12.6763352 281.318894,13.0665423 281.013526,13.484405 C280.522815,14.0774874 280.180602,14.766658 279.820803,15.4053622 C279.581868,15.8193894 279.352982,16.2364446 279.136098,16.6567297 C278.798071,17.2915984 278.59961,17.93111 278.443576,18.5988829 C278.332482,19.0381434 278.276936,19.4814412 278.275819,19.9275651 C278.296475,20.1405338 278.318247,20.3535024 278.338902,20.5664711 C278.416501,21.0158249 278.505822,21.4653806 278.604913,21.9131194 C278.722706,22.3602527 278.889626,22.7978983 279.10316,23.2260561 C279.22207,23.4335744 279.340979,23.6400834 279.459888,23.8473998 C279.485847,23.8984719 279.512644,23.9491403 279.540278,23.9996068 C279.367496,24.0571386 279.194436,24.1140648 279.021933,24.1705873 C277.446245,24.6326587 275.849621,25.0386113 274.222852,25.4031813 C272.212837,25.8529389 270.127457,26.1204114 268.049334,26.346905 C265.637372,26.5572495 263.222619,26.6870493 260.793071,26.7635565 C257.87393,26.8556075 254.953951,26.7550782 252.053233,26.5174818 C250.840692,26.3822316 249.639317,26.2225556 248.437104,26.0426929 C247.09086,25.8410288 245.785369,25.5622518 244.505,25.2103993 C243.777866,24.9477716 243.106559,24.6645535 242.428273,24.3306671 C242.181243,24.1837086 241.940633,24.0312997 241.706443,23.8734405 C241.196472,23.550253 240.750702,23.1824531 240.325587,22.8029449 C240.233474,22.7042324 240.14164,22.6055199 240.049806,22.5066056 C240.817972,22.2744596 241.578322,22.0285868 242.333369,21.7776673 C244.451965,21.0733567 246.461422,20.2289511 248.363972,19.2573699 C249.916772,18.4656513 251.315771,17.5534187 252.571856,16.5251131 C253.782164,15.5339508 254.85821,14.447306 255.740261,13.2912192 C256.163422,12.736895 256.455671,12.1155514 256.734801,11.519441 C256.784765,11.3365504 256.836125,11.1536597 256.886368,10.9697598 C256.996345,10.5605773 257.047705,10.1473575 257.042123,9.73110978 C256.997462,9.49452278 256.953918,9.25712833 256.910373,9.02054133 C256.861247,8.6908941 256.731451,8.3788092 256.519871,8.08388293 C256.330341,7.68883109 256.079403,7.31578266 255.766499,6.96413203 C255.429589,6.62499709 255.081793,6.29151439 254.721994,5.96428955 C254.173504,5.5312869 253.582586,5.09848612 252.888948,4.78296951 C252.700535,4.69697458 252.510727,4.61097965 252.320918,4.52518658 C251.821555,4.3580415 251.310189,4.21289982 250.787937,4.08834848 C250.537278,4.06069283 250.287456,4.03303719 250.036798,4.006189 C249.4523,3.92039594 248.862498,3.88648244 248.267114,3.90525599 C247.994404,3.92423139 247.720856,3.9432068 247.448146,3.96137474 C246.857228,4.00780393 246.271614,4.07401599 245.689348,4.16081839 C245.443156,4.20805504 245.196684,4.25549356 244.950212,4.30273021 C244.38637,4.46361744 243.826156,4.63076252 243.269012,4.80497291 C242.459815,5.14087799 241.716212,5.50605365 240.990195,5.93037606 C240.238777,6.36943468 239.513598,6.8228258 238.794001,7.28974194 C237.788854,7.94116364 236.912106,8.68625118 236.091185,9.4581869 C234.848219,10.6292118 233.827441,11.8775513 232.935621,13.2046187 C232.513576,13.8338351 232.180016,14.5032229 231.863762,15.1625173 C231.781977,15.3888092 231.701308,15.6159085 231.619523,15.8422003 C231.5115,16.2933709 231.418828,16.7459545 231.342626,17.2009606 C231.288196,17.7918224 231.287358,18.3574511 231.33174,18.9420551 C231.001808,19.0026149 230.670481,19.0613579 230.338316,19.1186879 C227.584978,19.5938806 224.783909,19.9546152 221.98591,20.2578179 C218.969352,20.5327595 215.94805,20.7017214 212.908045,20.7863032 C209.49289,20.8821896 206.073827,20.8870344 202.677652,20.6054313 C201.743684,20.4885508 200.818926,20.3575398 199.891377,20.2123981 C198.766762,20.0369765 197.682622,19.7898925 196.612158,19.4969849 C196.423745,19.4315803 196.235333,19.3663775 196.04692,19.3007711 C195.534716,19.1031442 195.04596,18.8802841 194.579254,18.6319889 C194.57423,18.6289609 194.569206,18.6259329 194.564461,18.6231068 C195.416644,18.3667369 196.260175,18.0950252 197.097007,17.8144314 C198.865295,17.221349 200.471409,16.4375032 202.026442,15.5939051 C203.834088,14.6128361 205.504681,13.5421387 206.856507,12.2251646 C207.04185,12.0446964 207.227192,11.8640263 207.411697,11.6835581 C207.75391,11.3262552 208.045043,10.9485638 208.285094,10.5510896 C208.675318,9.98021247 208.925139,9.38167967 209.14314,8.76901625 C209.19115,8.55766251 209.239998,8.34550131 209.288008,8.13434943 C209.391566,7.68883109 209.457161,7.24089036 209.482283,6.78911417 C209.543133,6.16373319 209.328482,5.51473389 209.173565,4.90449286 C209.084244,4.74279817 208.995759,4.58029601 208.907554,4.41860132 C208.770222,4.04090996 208.521518,3.70984966 208.161719,3.42501669 C207.971911,3.24616338 207.781265,3.06791567 207.59034,2.88966796 C207.18923,2.62320479 206.767186,2.3747077 206.324486,2.14458042 C205.637547,1.82744888 204.91795,1.54059724 204.140573,1.35286183 C203.705409,1.22185077 203.255172,1.13686517 202.788467,1.09729943 C202.390428,1.03250043 201.990434,1 201.588208,1 C201.378861,1 201.169234,1.00888211 200.95877,1.02644445" id="Path" fill-opacity="0.07" fill="#DF6F22" sketch:type="MSShapeGroup"></path>
    </g>
</svg>