<?xml version="1.0" encoding="UTF-8" standalone="no"?>
<svg width="602px" height="39px" viewBox="0 0 602 39" version="1.1" xmlns="http://www.w3.org/2000/svg" xmlns:xlink="http://www.w3.org/1999/xlink" xmlns:sketch="http://www.bohemiancoding.com/sketch/ns" preserveAspectRatio="none">
    <!-- Generator: Sketch 3.2.2 (9983) - http://www.bohemiancoding.com/sketch -->
    <title>underline4</title>
    <desc>Created with Sketch.</desc>
    <defs></defs>
    <g id="Page-1" stroke="none" stroke-width="1" fill="none" fill-rule="evenodd" sketch:type="MSPage">
        <path d="M601.974832,0.312382894 C600.915952,2.72759516 599.966864,5.17111688 598.827959,7.56217703 C597.590241,10.159916 596.51965,12.807147 595.245335,15.3930079 C594.767619,16.2903978 594.259406,17.1695747 593.702396,18.0382592 C593.132211,18.9281264 592.437108,19.7552376 591.710775,20.5637398 C590.98981,21.2894913 590.235907,21.9807963 589.437356,22.655076 C588.589032,23.3723149 587.654339,24.0168994 586.706227,24.6442607 C586.06846,25.028517 585.422641,25.3951542 584.756083,25.7505071 C583.833589,26.24325 582.848392,26.6399783 581.845384,27.0085951 C580.76723,27.3451411 579.682244,27.6335808 578.565053,27.8850004 C577.541307,28.1160294 576.493407,28.2654954 575.44331,28.3917991 C574.849947,28.4442607 574.254389,28.4751437 573.656878,28.485834 C572.699495,28.5220622 571.745039,28.4529713 570.794487,28.3710124 C570.289446,28.3027134 569.788552,28.2163992 569.292781,28.1114761 C568.793107,28.0065529 568.303436,27.8792594 567.823281,27.7290015 C567.295305,27.532617 566.781968,27.3126743 566.283026,27.0691734 C565.848007,26.8569515 565.425431,26.6302779 565.015054,26.3887566 C564.806206,26.2481992 564.597358,26.1076418 564.388266,25.9670843 C563.956175,25.6643909 563.551897,25.339921 563.174702,24.9938726 C562.88168,24.6644535 562.589146,24.3348364 562.296369,24.0052193 C561.933324,23.5358366 561.591994,23.0555657 561.273842,22.5653964 C560.813449,21.8883451 560.401852,21.1891214 559.996355,20.4906895 C559.595738,19.6817914 559.237817,18.8653704 558.904538,18.0337059 C558.389493,16.7492881 558.020349,15.4442816 557.733183,14.1171027 C557.635591,13.3157274 557.577767,12.5216768 557.548245,11.7133726 C557.546293,11.4861051 557.54361,11.2594315 557.540682,11.032164 C557.534582,10.8043025 557.541658,10.577431 557.56264,10.3511533 C557.606557,10.2474179 557.650717,10.1440785 557.695122,10.0405412 C557.97936,9.62955913 558.12209,9.18848594 558.124041,8.7153419 C558.124041,8.00384412 557.77222,7.31392488 557.152751,6.81128357 C556.532306,6.30864227 555.682275,6.02257819 554.805405,6.02257819 C554.511896,6.05504498 554.21741,6.08671989 553.9239,6.11839481 C553.361523,6.24687618 552.87356,6.47731119 552.459036,6.81128357 C551.69269,7.60078083 550.942935,8.4001765 550.196351,9.20194778 C549.917969,9.48444843 549.63007,9.76061409 549.331925,10.0306427 C548.877388,10.4273711 548.401868,10.8070741 547.905365,11.1697519 C547.046307,11.8262145 546.130644,12.4329871 545.205954,13.0276836 C543.410251,14.1161129 541.556479,15.1186239 539.634637,16.0563994 C537.449539,17.1226562 535.14489,18.0093559 532.805352,18.8257768 C531.568366,19.2326015 530.325036,19.6212131 529.071947,19.9947791 C527.303082,20.5229583 525.495179,20.9497778 523.675809,21.3480899 C522.221436,21.6674126 520.747056,21.9273449 519.274627,22.1856934 C517.783413,22.4472094 516.302933,22.7154563 514.797323,22.9051099 C514.214208,22.9516324 513.63036,22.966678 513.044317,22.9510385 C514.3118,22.5893506 515.550738,22.1660945 516.774793,21.7107676 C518.751531,20.9768995 520.501122,19.8518461 522.173859,18.74362 C523.55577,17.828017 524.685161,16.6758419 525.631565,15.4569516 C526.059508,14.9056101 526.318617,14.2428125 526.582605,13.6326745 C526.644576,13.4208485 526.706547,13.2090225 526.768518,12.9971965 C526.853424,12.539296 526.931498,12.0808016 527.004936,11.6213174 C527.022015,11.3924661 527.038118,11.162823 527.055441,10.9339717 C527.066908,10.4792387 527.028603,10.0276732 526.941989,9.57828536 C526.903928,9.34389099 526.864647,9.10890272 526.82561,8.87371647 C526.747536,8.45857712 526.61115,8.0563057 526.415965,7.66670425 C526.306173,7.45626403 526.196626,7.24522991 526.087078,7.03478969 C525.869691,6.64202075 525.587648,6.28251046 525.240706,5.95606087 C524.919627,5.58110906 524.55463,5.23684233 524.147669,4.92147896 C523.726313,4.62215101 523.290806,4.33668084 522.840905,4.06685016 C522.612294,3.94549564 522.383439,3.82414112 522.153853,3.70258864 C521.673453,3.51392493 521.18549,3.33832712 520.689964,3.17757692 C520.438419,3.13125236 520.185654,3.08472983 519.934109,3.03840526 C519.377588,2.9540708 518.817162,2.915467 518.251125,2.92239589 C517.965179,2.9447663 517.680208,2.96713671 517.394262,2.99049696 C516.821394,3.03998901 516.253405,3.11501896 515.691272,3.21538885 C515.42338,3.27200776 515.154512,3.3284287 514.886865,3.38484965 C514.312044,3.54421406 513.748935,3.72436514 513.194121,3.92530288 C512.894024,4.05061677 512.593683,4.17593065 512.293586,4.30124453 C511.708274,4.58117159 511.138333,4.88109344 510.584739,5.20061415 C510.304405,5.36294809 510.024314,5.52449015 509.743247,5.68702206 C509.25626,5.99248702 508.768297,6.29795198 508.28131,6.60420882 C508.016346,6.78594364 507.752358,6.96827237 507.487394,7.15079907 C506.972594,7.52198948 506.490486,7.91950966 506.040584,8.34177587 C505.200068,9.08178107 504.468124,9.92235413 503.741791,10.7367954 C502.647778,11.9624166 501.920469,13.3713564 501.356384,14.8042504 C500.809378,16.1947792 500.591014,17.6926067 500.56808,19.1456934 C500.563688,19.4173058 500.591746,19.6924817 500.637615,19.9670636 C500.554905,19.9771599 500.472195,19.9870584 500.389241,19.9969568 C496.452356,20.3536955 492.47863,20.487324 488.531986,20.1640419 C487.633646,20.0424895 486.753117,19.8961909 485.865512,19.7156439 C485.057934,19.5511323 484.278169,19.3272303 483.503528,19.0868969 C483.336156,19.0245369 483.168785,18.9623749 483.001414,18.8998169 C482.898942,18.8586395 482.797445,18.8162743 482.696681,18.7725233 C483.389588,18.1388271 484.036383,17.4716742 484.676103,16.7964046 C485.952126,15.448439 486.770684,13.8353939 487.339648,12.2130444 C487.576066,11.5385667 487.708548,10.8062822 487.790526,10.1096321 C487.818096,9.87444582 487.846886,9.63866567 487.874456,9.40268755 C487.910565,8.94874643 487.895438,8.49638905 487.827611,8.04482354 C487.708548,6.75961387 487.180572,5.40927265 486.067529,4.45506584 C485.868196,4.28501114 485.669107,4.1139666 485.469774,3.9439119 C485.014261,3.65784782 484.557772,3.37158578 484.101282,3.08710545 C483.849737,2.97723308 483.598192,2.8681526 483.34738,2.7584782 C482.869908,2.56347951 482.369502,2.42054645 481.847381,2.32928311 C481.561435,2.29760819 481.275489,2.26652718 480.988567,2.23485226 C480.477669,2.24415677 479.970676,2.28513619 479.46661,2.3585824 C478.956689,2.46687102 478.464822,2.61376344 477.990278,2.8002495 C477.499388,2.97109607 477.037287,3.18213019 476.602756,3.43354983 C476.402447,3.55648809 476.201406,3.67942636 476.001341,3.80236462 C475.522894,4.0721953 475.085435,4.38082775 474.688965,4.72727214 C474.491584,4.9305855 474.293471,5.13409683 474.09609,5.33741019 C473.711087,5.70404733 473.377565,6.09919189 473.094546,6.52284388 C472.959136,6.75189311 472.823727,6.98074437 472.688561,7.20959563 C472.454095,7.63265371 472.246222,8.06343256 472.063236,8.50331794 C471.765091,9.16611553 471.631633,9.93779565 471.553315,10.6384052 C471.525745,10.8858654 471.498175,11.1327318 471.470605,11.3801921 C471.444743,11.8764984 471.471337,12.371419 471.551607,12.8641619 C471.631633,13.6087203 471.830722,14.3388271 472.047134,15.0633908 C472.255738,15.7663759 472.619026,16.4855945 473.001101,17.1380977 C473.180916,17.4746437 473.380248,17.802875 473.59788,18.1233856 C473.144074,18.351049 472.682705,18.5701998 472.211089,18.7830157 C471.19271,19.2436877 470.121388,19.6285379 469.052017,20.0048755 C468.244682,20.2733204 467.435152,20.5330547 466.618546,20.7828906 C465.613098,21.0897413 464.573249,21.3209682 463.540232,21.5553626 C461.264128,22.0712678 458.918247,22.387621 456.582856,22.6736851 C455.708914,22.7568317 454.84034,22.8187958 453.957127,22.8560138 C453.157112,22.8894704 452.363196,22.836019 451.570988,22.7596033 C451.021298,22.6857611 450.476732,22.5895486 449.938264,22.4717575 C449.57034,22.3915803 449.208516,22.2965556 448.853279,22.1870792 C448.499018,22.0532527 448.161103,21.8976496 447.839292,21.720864 C447.661185,21.5939664 447.483323,21.4672667 447.304972,21.3403691 C446.878493,21.0030313 446.479339,20.6456986 446.107755,20.2679753 C445.876217,20.0167536 445.65151,19.7613746 445.434122,19.5022342 C445.076446,19.09244 444.771713,18.6598794 444.489182,18.2168265 C445.61906,16.8761858 446.353933,15.3201556 446.871173,13.7643233 C447.101004,13.0728204 447.168587,12.3452872 447.278134,11.6367589 C447.379143,10.9795044 447.180054,10.3089861 447.060015,9.66261983 C446.94754,9.44604259 446.835064,9.23025724 446.722589,9.01447188 C446.573028,8.61556592 446.313676,8.26991341 445.943068,7.9759306 C445.774233,7.86625621 445.604665,7.75638385 445.43583,7.64651149 C445.02033,7.31174723 444.531391,7.08052035 443.968282,6.95203898 C443.727228,6.88255213 443.484954,6.81207545 443.243901,6.74179673 C442.745447,6.65429478 442.242357,6.62341173 441.734387,6.64894963 C441.44161,6.68062455 441.149076,6.71229946 440.857518,6.74417235 C440.38761,6.84157271 439.979673,7.02251566 439.631023,7.28779308 C439.408756,7.42696473 439.186733,7.56613639 438.965686,7.70530805 C438.633139,8.01849377 438.340361,8.3540499 438.086864,8.71296628 C437.874356,9.10811085 437.665752,9.50404728 437.461784,9.90235934 C437.273918,10.2913669 437.123381,10.6902728 437.011882,11.0978894 C436.968941,11.3275325 436.926976,11.5563838 436.88428,11.7860269 C436.787907,12.2476888 436.730815,12.7125182 436.712761,13.1803171 C436.649813,13.9652611 436.774488,14.7533726 436.893795,15.529606 C436.931856,15.7594471 436.968941,15.9882983 437.007246,16.2179414 C437.059946,16.4861884 437.124357,16.7522577 437.200968,17.0159513 C437.143876,17.0664332 437.086784,17.1167172 437.028961,17.1668031 C436.473903,17.6696424 435.856386,18.1136851 435.22057,18.5448599 C434.566456,18.9253548 433.903558,19.2811037 433.214066,19.6243806 C432.24668,20.1062352 431.21903,20.5067249 430.18528,20.8866259 C429.026856,21.2449484 427.862333,21.5478398 426.662676,21.8121274 C425.222941,22.1298664 423.74173,22.3468395 422.263446,22.524813 C421.954321,22.5459956 421.645197,22.5675741 421.336072,22.5885587 C420.826639,22.6129088 420.318182,22.6085535 419.810944,22.5748989 C419.604536,22.5446098 419.397883,22.5143206 419.191719,22.4840315 C418.559319,22.3715856 417.93985,22.2233074 417.334532,22.038603 C417.285248,22.0215777 417.235964,22.0045525 417.186435,21.9877252 C416.714819,21.8093558 416.264429,21.602479 415.83429,21.3672928 C415.734258,21.2999836 415.634225,21.2328724 415.533949,21.1655632 C415.197254,20.9119659 414.88203,20.6419372 414.588521,20.3554772 C414.583397,20.3497361 414.578273,20.3439951 414.57315,20.338254 C415.048914,19.7989886 415.485885,19.2520024 415.903825,18.6731433 C416.204898,18.2192022 416.470838,17.7514033 416.7014,17.2711324 C416.827295,17.0159513 416.951969,16.7599784 417.077864,16.5047974 C417.295251,16.009085 417.433345,15.4987229 417.49434,14.9752949 C417.534353,14.7339717 417.574366,14.4926484 417.614379,14.2513252 C417.577294,13.7472981 417.510443,13.2460425 417.413338,12.7481525 C417.31233,12.4828751 417.212297,12.2183895 417.112265,11.953904 C416.842422,11.4288923 416.597464,10.8967537 416.377393,10.3570923 C416.080955,9.67410198 415.633981,9.11503973 414.845921,8.7408798 C414.084211,8.3795878 413.130243,8.26912154 412.27826,8.4686735 C411.535824,8.6424896 410.678962,8.76325021 410.006305,9.08732418 C409.80502,9.1831408 409.604955,9.27974929 409.40489,9.37635778 C408.909364,9.61391964 408.515578,9.93324238 408.222068,10.3353158 C408.096418,10.4736956 407.970523,10.6130652 407.844629,10.751445 C407.643588,11.1349095 407.443523,11.5185719 407.24419,11.9020363 C407.028999,12.502276 406.842109,13.1044953 406.656195,13.7116638 C406.227276,15.1112991 406.167256,16.5659696 406.468573,17.983422 C406.519077,18.2255372 406.570557,18.4674543 406.622038,18.7095694 C406.67059,18.8980352 406.726462,19.0849172 406.789165,19.2700175 C406.594468,19.4026562 406.396111,19.5319294 406.19629,19.6596189 C405.444095,20.095347 404.683361,20.506329 403.897984,20.9026614 C402.865211,21.4247036 401.779005,21.8558783 400.671329,22.256962 C397.134086,23.3701372 393.454845,24.175274 389.708754,24.6618799 C387.479495,24.866579 385.226326,24.9614058 382.992432,24.7784832 C382.641587,24.72325 382.297573,24.6494079 381.959414,24.5567587 C381.925013,24.5434949 381.890612,24.530231 381.85621,24.5169671 C381.884756,24.5023175 381.913302,24.4876678 381.941604,24.4730182 C382.427615,24.2077408 382.898499,23.9256361 383.354012,23.6271 C383.588479,23.4746645 383.821969,23.3224269 384.056435,23.1699914 C384.502433,22.860765 384.912322,22.5236251 385.284882,22.1561961 C385.631823,21.7974777 385.972178,21.4347999 386.3057,21.0673709 C386.844167,20.4843545 387.209164,19.8130443 387.564645,19.1510386 C387.811554,18.725011 388.014547,18.2849276 388.174598,17.8325702 C388.436634,17.1891735 388.467132,16.4646098 388.528128,15.7956752 C388.48909,15.342526 388.425411,14.8925442 388.338554,14.4439482 C388.145077,13.7550188 387.908659,13.0890538 387.520728,12.4512002 C387.303585,12.0204213 387.018614,11.6213174 386.666793,11.2540863 C386.225674,10.7243234 385.638655,10.1937686 384.958923,9.85742055 C384.540738,9.61847291 384.086933,9.43376856 383.59897,9.30370345 C383.364504,9.23500847 383.129061,9.16611553 382.894839,9.09801447 C382.356372,8.99982223 381.812049,8.92795977 381.263091,8.88222911 C380.771225,8.82818378 380.280578,8.83590454 379.792615,8.90479748 C379.504717,8.93568053 379.217794,8.96656357 378.930872,8.99823848 C378.419243,9.132065 377.918837,9.29063754 377.429898,9.47237237 C376.945839,9.69033538 376.493985,9.94551641 376.073849,10.2371236 C375.373134,10.6987855 374.739515,11.181432 374.102723,11.7003067 C373.696738,12.0667459 373.312711,12.4480327 372.951618,12.844761 C372.762777,13.0650996 372.574179,13.2856362 372.385337,13.5059748 C372.087192,13.928241 371.830767,14.3665427 371.61826,14.8212757 C371.367447,15.3031303 371.174945,15.7996346 371.039779,16.3107885 C370.986348,16.5736903 370.93194,16.8365921 370.877776,17.0994939 C370.777499,17.5882775 370.718456,18.0800305 370.699425,18.5757429 C370.697473,19.0629427 370.748954,19.546975 370.854842,20.0272459 C370.896806,20.2560972 370.938771,20.4851464 370.980736,20.7139977 C371.093943,21.1873397 371.248384,21.6503873 371.445765,22.1043285 C371.516763,22.2583477 371.58947,22.4117731 371.664128,22.5646046 C371.267902,22.6673501 370.86948,22.7657403 370.466911,22.8599731 C368.915189,23.2232448 367.318086,23.4576392 365.723667,23.6593688 C364.799953,23.7425155 363.883315,23.8007181 362.950086,23.832789 C361.982455,23.8658497 361.018728,23.7918096 360.059149,23.707871 C359.603392,23.6488765 359.150806,23.5768161 358.700416,23.4908979 C358.165853,23.39033 357.642025,23.2614527 357.128932,23.1046619 C356.723923,22.9474751 356.3377,22.7633647 355.9688,22.5521326 C355.721647,22.3850474 355.483277,22.2090536 355.254178,22.0239534 C354.893086,21.7549146 354.565662,21.4547947 354.253366,21.1447765 C354.333148,21.0550969 354.41293,20.9658132 354.492712,20.8771235 C355.000681,20.3141019 355.379097,19.6429896 355.684073,18.9940498 C355.778494,18.793112 355.873891,18.5911845 355.968068,18.3902467 C356.14837,17.9493715 356.275973,17.4993897 356.351363,17.0385197 C356.391376,16.7964046 356.432365,16.5542895 356.472378,16.3123723 C356.549476,15.8699133 356.550452,15.4268604 356.475061,14.9845994 C356.419922,14.3550605 356.244499,13.5810048 355.823387,13.0350084 C355.287604,12.3381603 354.693997,11.7343572 353.844697,11.2719035 C353.665615,11.1743051 353.487264,11.0776967 353.309158,10.9802963 C352.89073,10.8094497 352.454247,10.6772069 352.000685,10.5843599 C351.170416,10.384016 350.394799,10.545756 349.598932,10.7360035 C349.334944,10.826475 349.070956,10.9169465 348.807944,11.0074179 C348.362677,11.2671522 347.925219,11.5355971 347.494591,11.8115648 C347.326732,11.9669699 347.158141,12.121781 346.990282,12.2763942 C346.603327,12.6026458 346.318357,12.9793794 346.133663,13.405407 C346.023871,13.6164411 345.914323,13.8276732 345.8038,14.0394992 C345.658875,14.4934403 345.558842,14.9543103 345.50541,15.4223072 C345.479792,15.6495747 345.454174,15.8768422 345.428312,16.1043077 C345.399766,16.5606244 345.42636,17.0151595 345.508338,17.4669229 C345.590316,18.1619894 345.774278,18.8271626 345.999229,19.4990667 C346.086818,19.7245525 346.182215,19.9472667 346.286151,20.1674074 C346.05754,20.32598 345.825758,20.481583 345.594464,20.6363941 C344.997441,20.9941227 344.390903,21.328689 343.755819,21.6503873 C342.834301,22.1175923 341.836417,22.487397 340.837557,22.8370088 C339.307793,23.3269802 337.762902,23.7722107 336.199957,24.1901216 C334.158076,24.735722 332.041781,25.0809786 329.923046,25.3579361 C329.137913,25.4379153 328.352781,25.5115595 327.565209,25.5780768 C326.311632,25.6845837 325.076842,25.6885431 323.825217,25.6147009 C323.434846,25.5564983 323.049112,25.4818642 322.667525,25.3909968 C322.556757,25.365261 322.446233,25.3385352 322.336442,25.3106217 C322.961522,25.0103039 323.57294,24.6882096 324.171426,24.3399836 C324.883364,23.9264279 325.533331,23.4615986 326.165243,22.9720232 C326.764705,22.5079857 327.237298,21.9103196 327.700618,21.3589781 C327.820657,21.1610099 327.93972,20.9638336 328.059027,20.7658653 C328.302033,20.3412235 328.506977,19.9035158 328.672641,19.4551178 C328.954927,18.7822238 328.985425,18.0105437 329.07399,17.310726 C329.158652,16.637832 328.940532,15.9271261 328.789996,15.2714554 C328.584075,14.8677982 328.375471,14.4649329 328.164671,14.0618696 C327.886532,13.666725 327.566185,13.2955346 327.20314,12.9482983 C327.017226,12.7736904 326.831312,12.5980926 326.645642,12.4224948 C326.23185,12.1247506 325.802199,11.8424479 325.356932,11.5765766 C325.141741,11.4829376 324.926305,11.3887047 324.710869,11.2942739 C324.221931,11.0683921 323.697858,10.9438701 323.137433,10.9207079 C322.847583,10.8890329 322.557977,10.857358 322.269103,10.826475 C321.680132,10.8627032 321.095064,10.9177383 320.511704,10.9903927 C320.211607,11.0537425 319.91029,11.1170923 319.610193,11.1806401 C319.068798,11.3392127 318.534234,11.5130288 318.007966,11.7018904 C317.776428,11.8062197 317.54489,11.9097571 317.314327,12.0142843 C316.877844,12.284115 316.443069,12.5555294 316.009514,12.8285276 C315.35296,13.3234481 314.74569,13.8385614 314.136712,14.3712939 C313.484794,14.9428282 312.935836,15.5870167 312.395417,16.227246 C312.108738,16.6625781 311.855242,17.1103822 311.63395,17.5696684 C311.406316,18.0491475 311.237481,18.5416924 311.126957,19.0482931 C311.088896,19.2787281 311.050835,19.5091631 311.01253,19.7395981 C310.896394,20.2523358 310.853454,20.7696267 310.884927,21.2900852 C310.92494,21.5337841 310.964953,21.7764931 311.004966,22.0194001 C311.029364,22.3432761 311.093287,22.6604212 311.196248,22.9708354 C311.037416,22.9969672 310.878584,23.023099 310.719996,23.0494287 C308.789858,23.3709291 306.847278,23.6573891 304.897134,23.8905957 C302.549544,24.1210307 300.196099,24.2790093 297.83753,24.4205566 C296.31655,24.51182 294.797521,24.5565608 293.271661,24.5626978 C292.091034,24.567647 290.910408,24.4862821 289.737345,24.3789833 C289.275244,24.3174152 288.816559,24.2392177 288.362509,24.1451828 C288.202214,24.1109343 288.043138,24.0743102 287.884794,24.0355084 C287.876986,23.9879961 287.869179,23.9404837 287.861128,23.8931693 C287.812575,23.4121065 287.675214,22.9496528 287.449287,22.5042243 C287.335104,22.2838856 287.220676,22.0641409 287.106249,21.8445942 C286.871783,21.4239117 286.563146,21.041833 286.179851,20.7001399 C285.9549,20.5585926 285.729949,20.4162535 285.505242,20.2747062 C285.06388,19.9484546 284.568354,19.6893142 284.018419,19.4982748 C283.212061,19.1488609 282.326652,19.023547 281.431728,19.2238909 C280.594139,19.4109708 279.863171,19.8664957 279.425712,20.47505 C279.295914,20.6552011 279.167336,20.8353522 279.037782,21.0155033 C278.817466,21.3999575 278.628869,21.7951021 278.470769,22.1987593 C278.161888,22.9156022 278.482968,23.6611505 278.729877,24.3447348 C278.839425,24.5565608 278.949948,24.7683868 279.060716,24.9804107 C279.377892,25.4003013 279.729713,25.7999992 280.115692,26.1797022 C280.240122,26.2848233 280.364309,26.3897465 280.488495,26.4946696 C280.420913,26.5908822 280.351378,26.6861049 280.279647,26.7807337 C280.077387,27.0481888 279.862927,27.308517 279.636024,27.5619163 C279.236382,27.9570609 278.806487,28.3294391 278.346826,28.6798428 C278.019159,28.9300747 277.680513,29.1704081 277.331863,29.4010411 C276.537947,29.862109 275.73476,30.2897204 274.896684,30.7005044 C274.142781,31.0701111 273.351793,31.3769618 272.55129,31.6697568 C271.296737,32.0567847 270.036329,32.3814526 268.7342,32.6609837 C267.610421,32.9025049 266.460293,33.0598897 265.309432,33.1964877 C264.349853,33.2774567 263.401009,33.3307102 262.434598,33.3546644 C261.665081,33.3734713 260.903371,33.3227915 260.142636,33.2505331 C259.534147,33.1634271 258.932976,33.0509811 258.338393,32.9122054 C257.771136,32.7797646 257.213639,32.6257454 256.66468,32.4501476 C256.216974,32.2862299 255.77854,32.1070686 255.34962,31.9122679 C254.924117,31.7218225 254.51496,31.5119762 254.121662,31.2829269 C253.657853,30.9701372 253.219174,30.6361648 252.804894,30.2806139 C252.343769,29.8864591 251.906554,29.476071 251.491053,29.0492515 C251.236825,28.7713042 250.993575,28.4872198 250.761549,28.1966024 C250.715924,28.1421612 250.671276,28.087324 250.627359,28.0318929 C250.940143,27.713362 251.248536,27.3922575 251.553513,27.0683815 C251.920461,26.6631406 252.227389,26.2299861 252.473323,25.7691161 C252.586774,25.5511531 252.700225,25.3322003 252.813433,25.1142373 C253.026917,24.7167171 253.152811,24.3029635 253.192824,23.8721846 C253.302372,23.4222029 253.347264,22.9682618 253.327258,22.5095694 C253.297736,22.2985353 253.268214,22.0873032 253.238693,21.8762691 C253.209903,21.4324243 253.102307,21.0008536 252.914441,20.5833386 C252.758293,20.1927473 252.535294,19.8292777 252.24642,19.4937216 C251.809937,18.9120909 251.190468,18.5903926 250.496585,18.2447401 C250.230645,18.1534767 249.963973,18.0622134 249.698033,17.971148 C249.169082,17.852763 248.630614,17.7753574 248.083608,17.7383374 C247.261878,17.7814944 246.47577,17.7923827 245.740898,18.1404108 C245.268306,18.3352115 244.833531,18.5749511 244.437061,18.8612131 C244.248463,19.0281003 244.060598,19.1951855 243.872976,19.3630625 C243.510663,19.6994105 243.202027,20.0652558 242.946578,20.4604004 C242.698693,20.8709865 242.510095,21.2993897 242.379565,21.7440263 C242.340528,21.9784207 242.302223,22.2126171 242.263186,22.4470114 C242.185112,22.9195616 242.170717,23.3934975 242.220245,23.8684233 C242.272701,24.3354303 242.341504,24.8010515 242.427142,25.2656829 C242.483501,25.4984936 242.540593,25.7313042 242.597685,25.9641148 C242.625986,26.0587436 242.655996,26.1529765 242.687226,26.2470114 C242.327597,26.4000408 241.963577,26.5445576 241.593701,26.6799679 C240.246191,27.1178736 238.880871,27.5066832 237.49896,27.8709447 C235.448295,28.4131796 233.299551,28.7093401 231.170324,28.9680846 C229.96896,29.0910228 228.767839,29.2014891 227.560374,29.2862195 C226.309969,29.3741174 225.074691,29.345412 223.832094,29.2480116 C223.348766,29.1791187 222.869831,29.0939924 222.395043,28.9922367 C221.916839,28.8912729 221.446687,28.7705123 220.984098,28.6305488 C220.811847,28.5662091 220.63984,28.5018694 220.467833,28.4379257 C220.301682,28.3692307 220.138458,28.2967743 219.97865,28.2205566 C219.987677,28.2144196 219.996705,28.2082825 220.005732,28.2019476 C220.696688,27.7264279 221.29127,27.183599 221.876582,26.6259226 C222.236699,26.2602753 222.581688,25.8843336 222.911551,25.5000773 C223.219456,25.1249275 223.466121,24.7244378 223.651059,24.299796 C223.764511,24.0826249 223.877962,23.8644639 223.990438,23.6470948 C224.140974,23.2697674 224.234419,22.8839273 224.269552,22.4879909 C224.309565,22.2466676 224.349578,22.0047504 224.389591,21.7634272 C224.433508,21.3449224 224.416429,20.9289911 224.338111,20.5136538 C224.299074,20.2725285 224.259061,20.0312053 224.219048,19.789882 C224.131459,19.3622707 223.962624,18.9562378 223.712055,18.5727734 C223.619586,18.4126171 223.528093,18.2524608 223.435624,18.0925025 C223.145042,17.7537789 222.821034,17.4382175 222.462626,17.1460165 C222.236699,17.0052611 222.010772,16.8637138 221.786065,16.7221665 C221.357145,16.4499602 220.882358,16.2472407 220.361213,16.1144041 C220.127723,16.0369985 219.894233,15.958801 219.661474,15.8808016 C219.146917,15.8012183 218.628457,15.7376705 218.108044,15.6897622 C217.814534,15.722229 217.520049,15.7539039 217.225563,15.7863707 C216.666114,15.8328933 216.139114,15.9659279 215.644563,16.1854747 C215.093653,16.3717628 214.594223,16.625558 214.147249,16.9464645 C213.656358,17.2069907 213.230367,17.5249276 212.868298,17.9006713 C211.848456,18.7923202 211.318528,19.9545916 210.775425,21.0636095 C210.564625,21.5345759 210.41604,22.0186082 210.329183,22.5151125 C210.291122,22.748517 210.252085,22.9821195 210.214024,23.215722 C210.138633,23.6981706 210.148149,24.1800252 210.240618,24.66089 C210.303565,25.1443284 210.400669,25.6222237 210.533151,26.0961596 C210.603418,26.2860111 210.673197,26.4762586 210.742731,26.6661101 C210.509485,26.7522263 210.275019,26.8357689 210.040309,26.9183216 C208.907259,27.2827811 207.765182,27.6195251 206.610417,27.9414214 C205.264859,28.3163732 203.886608,28.5941226 202.501037,28.853065 C199.985344,29.3242294 197.4089,29.6049483 194.848314,29.8848754 C193.382474,30.0317678 191.924196,30.1446097 190.447621,30.2018225 C189.110358,30.2538881 187.775047,30.1606451 186.446324,30.0511687 C186.255287,30.0270166 186.064493,30.0008848 185.874188,29.9727733 C186.445348,29.4154927 186.932091,28.8200043 187.393216,28.2003638 C187.655253,27.7812651 187.892647,27.3536537 188.105154,26.9167379 C188.311807,26.5000148 188.472103,26.0722055 188.584334,25.6323201 C188.632154,25.3987176 188.679731,25.1643232 188.728283,24.9309187 C188.82368,24.4599523 188.884675,23.9866103 188.913221,23.5102987 C188.977144,22.8275064 188.777811,22.126105 188.655821,21.4547947 C188.579698,21.2584103 188.503332,21.0628177 188.428186,20.8664332 C188.254715,20.4619841 188.025128,20.0806973 187.73723,19.7225728 C187.565711,19.5424217 187.394192,19.3622707 187.222429,19.1821196 C186.902326,18.8271626 186.524886,18.5177382 186.090355,18.2548364 C185.452832,17.8048547 184.767488,17.4714762 183.977476,17.2309448 C183.757161,17.1644275 183.536113,17.0971183 183.316042,17.0300071 C182.762204,16.949434 182.203731,16.9070688 181.641353,16.9015257 C181.352723,16.9332006 181.063849,16.9648755 180.774243,16.9967484 C180.165265,17.0507937 179.583857,17.1869959 179.031971,17.4033751 C178.493504,17.5573944 177.986511,17.7622915 177.510015,18.0166807 C177.066701,18.2734455 176.649492,18.5549563 176.257658,18.8612131 C176.089067,19.0381967 175.920232,19.2153782 175.752616,19.39157 C175.377129,19.7427656 175.059709,20.1254381 174.800357,20.5407755 C174.377293,21.1245837 174.09891,21.8004472 173.780758,22.424641 C173.438452,23.0941696 173.282304,23.7886421 173.15641,24.5009317 C173.118348,24.7305748 173.080287,24.9610099 173.041982,25.190653 C172.996358,25.670132 173.034419,26.1450578 173.157385,26.6158262 C173.194471,26.8456673 173.232776,27.0753104 173.270837,27.3041617 C173.399415,27.8222445 173.594844,28.3227082 173.85688,28.8059486 C173.963744,29.0116376 174.07134,29.2173266 174.178204,29.4230155 C174.361434,29.7666884 174.579553,30.093138 174.83305,30.4029582 C174.433653,30.5615308 174.028399,30.7107988 173.625586,30.8602648 C172.281492,31.3047034 170.921051,31.7055891 169.542556,32.0793531 C167.687565,32.5817964 165.767675,32.9054745 163.838269,33.1525388 C162.900404,33.2378631 161.963759,33.3047764 161.020283,33.3584257 C159.634712,33.4358313 158.261585,33.3902986 156.884553,33.2814161 C156.364141,33.2083658 155.84934,33.113737 155.34015,32.9973317 C154.834377,32.8829061 154.336655,32.7490796 153.846984,32.596644 C153.622277,32.5129035 153.397326,32.4291629 153.171887,32.3454224 C152.576572,32.1056829 152.006388,31.8312989 151.461089,31.5228644 C151.141961,31.3054953 150.839424,31.0730806 150.55299,30.8250265 C150.086741,30.4237449 149.654162,29.999103 149.25574,29.5522888 C149.420672,29.7261049 149.586579,29.9001189 149.752243,30.074133 C149.561693,29.8514188 149.371144,29.6279126 149.181326,29.4051984 C149.094957,29.2978996 149.010783,29.189611 148.929049,29.0803325 C148.962963,29.0391552 148.996632,28.9981757 149.029814,28.9568004 C149.15766,28.765761 149.285262,28.5755136 149.413108,28.3844743 C149.637083,27.9592385 149.859107,27.5338048 150.079178,27.1077772 C150.278511,26.6754146 150.42612,26.2315699 150.523224,25.7768369 C150.563481,25.5349197 150.603494,25.2935965 150.643507,25.0522732 C150.739636,24.6185248 150.769157,24.181609 150.733048,23.7423175 C150.692059,23.2420518 150.568117,22.7554459 150.362196,22.2830938 C150.249721,22.0665165 150.137245,21.8507312 150.025014,21.6341539 C149.718085,21.1532891 149.408229,20.6730182 149.098616,20.1943311 C148.707758,19.5887463 147.910183,19.1326275 147.111387,18.9546541 C146.296489,18.7721274 145.270059,18.8364671 144.550558,19.2268604 C144.363668,19.3282201 144.177998,19.4295799 143.991108,19.5307416 C143.562189,19.7481107 143.153276,19.9886421 142.765589,20.2523358 C142.626276,20.375274 142.487206,20.4982123 142.348137,20.6211506 C141.941176,20.9529453 141.660841,21.3435366 141.504693,21.7943102 C141.411248,22.0170245 141.316827,22.2397387 141.223382,22.462453 C141.129205,22.948069 141.062355,23.4368525 141.024293,23.9278137 C141.022342,24.1824008 141.02039,24.4359981 141.019414,24.6903873 C141.01185,25.1698663 141.040396,25.6477616 141.106271,26.124865 C141.160679,26.6783841 141.282426,27.2283399 141.429303,27.7713667 C141.325123,27.844021 141.219723,27.9158835 141.113347,27.9865581 C140.436298,28.3850682 139.750466,28.7619996 139.044872,29.1284388 C138.162391,29.5857454 137.220134,29.9515907 136.263727,30.2905123 C133.176141,31.2502622 129.98218,32.0110541 126.717952,32.4459902 C126.206323,32.4905331 125.692742,32.5192385 125.177941,32.5325023 C124.123453,32.5819944 123.064573,32.5026091 122.015941,32.4230259 C121.55506,32.3622497 121.097107,32.2872197 120.642325,32.1977381 C120.062381,32.0848962 119.494636,31.9417652 118.939334,31.7679491 C118.538717,31.6202648 118.145663,31.4595146 117.761148,31.2851046 C117.032131,30.9778579 116.353619,30.5934036 115.686817,30.20499 C115.083451,29.7896527 114.524246,29.357686 113.970896,28.8894912 C113.459023,28.4569306 112.992286,27.9863602 112.533845,27.5144039 C112.441864,27.4126483 112.351835,27.3099028 112.263757,27.2059695 C112.310846,27.1267822 112.35525,27.0462091 112.397459,26.9646462 C112.649004,26.5394105 112.849069,26.0985352 112.999849,25.6430104 C113.09305,25.190653 113.153314,24.7351281 113.178932,24.2766337 C113.17698,23.7771599 113.021564,23.3107468 112.712927,22.8785822 C112.531893,22.4725493 112.260098,22.1106634 111.899005,21.7927265 C111.722606,21.6072303 111.547184,21.4223279 111.371029,21.2376236 C110.948697,20.8973162 110.451219,20.66213 109.878594,20.5322628 C109.579229,20.4990042 109.280108,20.4665374 108.979767,20.4340706 C108.369813,20.4356543 107.800848,20.5601764 107.273848,20.8084285 C106.918367,20.8973162 106.597044,21.0380716 106.312073,21.2312886 C106.08639,21.372044 105.860464,21.5135913 105.635513,21.6551386 C105.220988,21.9938622 104.935042,22.3921742 104.775966,22.8514605 C104.545159,23.2311636 104.429024,23.633237 104.427072,24.0592646 C104.409018,24.2558471 104.391695,24.4514397 104.37364,24.6478241 C104.390231,25.0629635 104.441467,25.4749353 104.525885,25.8843336 C104.438784,25.9266988 104.35095,25.9682721 104.262141,26.0088556 C103.542152,26.3673761 102.752628,26.6441356 101.98799,26.9315855 C101.619334,27.0491786 101.245798,27.1566754 100.867383,27.2546696 C99.8780379,27.5353886 98.8394087,27.7109864 97.8195662,27.9012338 C96.1714713,28.2084805 94.5050778,28.4624737 92.8350247,28.6800408 C91.9325372,28.7637814 91.0358565,28.8243596 90.1236341,28.8599939 C88.9012382,28.9073083 87.6881135,28.8586081 86.4765747,28.7493297 C85.89058,28.660244 85.3186386,28.5297829 84.7608238,28.3581445 C85.0257632,28.4494078 85.2916787,28.5398793 85.5575697,28.6311427 C84.9867018,28.4541591 84.433913,28.2460945 83.899252,28.0071468 C83.2853702,27.7545394 82.7143072,27.4387801 82.1587857,27.1097569 C81.9876083,26.9893922 81.8167237,26.8692255 81.6452779,26.7488608 C81.3251498,26.5075376 81.0238327,26.2519606 80.7412778,25.9823279 C80.6744025,25.9039325 80.6095766,25.8243493 80.5468733,25.7439742 C80.656665,25.5089859 80.7505247,25.2694443 80.8285256,25.0251516 C80.9095274,24.573586 80.9791109,24.1204368 81.0362758,23.6664957 C80.9953113,23.4182435 80.9543224,23.1699914 80.9133335,22.9225311 C80.8523382,22.505808 80.6941406,22.1128411 80.4387164,21.7448182 C80.132788,21.3257195 79.7210693,20.9915491 79.2045117,20.743297 C79.0958667,20.6799471 78.9881733,20.6165973 78.8795284,20.5538414 C78.463052,20.4093246 78.0446481,20.2669854 77.6262687,20.12623 C77.3241465,20.0937632 77.0210727,20.0605046 76.7189504,20.0272459 C76.1042391,20.0288297 75.5304923,20.1549354 74.9987102,20.4053652 C74.2410258,20.7650735 73.6568121,21.3690745 73.4309341,22.0587958 C73.3651567,22.2605254 73.2994037,22.462453 73.2326991,22.6635887 C73.1402546,23.1066415 73.0601798,23.5512782 72.9944268,23.9967067 C73.0188982,24.1552792 73.0437599,24.3138517 73.0689144,24.4722263 C72.9857411,24.511622 72.9018847,24.5500278 72.8171499,24.5874438 C72.1836276,24.8960763 71.488134,25.1334402 70.8112562,25.3763472 C70.3760421,25.514529 69.9340696,25.6378632 69.4852901,25.7467457 C68.8038498,25.9106634 68.1167004,26.0530025 67.4209872,26.1727733 C65.9427523,26.4536902 64.4288716,26.6453235 62.9219201,26.8181497 C59.7532107,27.1063914 56.5813783,27.1863706 53.4116442,26.9014943 C52.8597337,26.8260684 52.3120197,26.7336173 51.7689902,26.6237449 C50.9982771,26.4829895 50.2586472,26.2773005 49.5259221,26.0486472 C49.3062412,25.9601555 49.0863407,25.8716637 48.8669525,25.7829739 C48.4991017,25.6156908 48.1447918,25.4321742 47.8036081,25.2336121 C47.444199,24.9936746 47.0985992,24.7408692 46.76737,24.4746019 C46.4259423,24.2037814 46.1021545,23.920093 45.7949086,23.6239325 C45.7064653,23.5267301 45.6179,23.4295277 45.5293592,23.3325233 C45.3888502,23.1666259 45.255246,22.997759 45.1285708,22.8255267 C45.1957389,22.6917002 45.2579786,22.555894 45.3149238,22.4183061 C45.5379473,21.9821821 45.6847022,21.5298247 45.7552372,21.0620258 C45.8695913,20.6025416 45.9134348,20.1394939 45.8857917,19.6722889 C45.8838886,19.1688557 45.7275941,18.6994731 45.4169081,18.2649328 C45.233922,17.8232657 44.9603944,17.4219842 44.5972767,17.0600982 C44.294203,16.6447609 43.8872419,16.3145499 43.3745148,16.0686734 C42.8436599,15.8182436 42.2699131,15.6929297 41.6552017,15.691346 C41.0404904,15.6929297 40.4667436,15.8182436 39.9358887,16.0686734 C39.4231616,16.3145499 39.0162005,16.6447609 38.7131267,17.0600982 C38.435793,17.3570506 38.2080119,17.6771652 38.0297834,18.0198482 C37.7524497,18.3979675 37.6056704,18.8053861 37.5904216,19.2423019 C37.4674793,19.6786239 37.4360301,20.1193011 37.4951224,20.5631459 C37.5256201,20.7589364 37.5561178,20.954529 37.5866155,21.1501216 C37.626848,21.4563785 37.680402,21.7604577 37.7473017,22.0631511 C37.712144,22.094628 37.6770594,22.1263029 37.6419017,22.1577799 C37.3117704,22.4262248 36.9667074,22.6808119 36.6071763,22.9219372 C35.8751098,23.3509343 35.1329426,23.7541956 34.3662552,24.1451828 C33.5744621,24.5480481 32.7338728,24.8705384 31.8851588,25.1823383 C30.0097708,25.7829739 28.0988103,26.2836355 26.1652328,26.7512365 C24.1718065,27.233487 22.1250459,27.5492463 20.0682333,27.7876001 C18.9965447,27.8828228 17.9315656,27.9558731 16.8548753,28.0031875 C15.4998998,28.0629739 14.1559035,27.9808171 12.8141518,27.8515438 C10.7662933,27.5838908 8.76222944,27.2051776 6.75631135,26.7767744 C4.36607365,26.2664123 1.99772109,25.7049744 -0.41159596,25.2547947 C-0.415402071,25.2542008 -0.417305126,25.2579622 -0.414450543,25.2595459 C1.78804341,26.1357533 3.94386371,27.0822393 6.12539966,27.9909134 C8.08869418,28.8083242 10.1034444,29.5190301 12.181093,30.1206555 C14.3950297,30.7616766 16.7328846,30.995873 19.0621269,31.151476 C21.8793566,31.3401398 24.7651939,31.195425 27.5538289,30.8382903 C28.6288845,30.7005044 29.6963034,30.5466831 30.7646739,30.3780142 C32.1637369,30.1576756 33.5256659,29.843698 34.8780308,29.4810202 C36.0998656,29.1539767 37.2740264,28.6830103 38.4138591,28.205115 C39.2154114,27.8699549 39.9933219,27.4795615 40.7275842,27.0464071 C41.1534538,27.4748103 41.6053075,27.8790614 42.0793147,28.2785613 C42.8846488,28.9575922 43.8462774,29.5119033 44.7821659,30.0626508 C45.2929899,30.3409942 45.8286268,30.5823174 46.3890035,30.7872145 C46.6539674,30.877686 46.9179553,30.9681575 47.1819433,31.058629 C47.7861878,31.2781757 48.4056812,31.4646618 49.0394474,31.6184831 C50.5710167,32.0352062 52.2378982,32.2517834 53.8409296,32.3802648 C55.5440423,32.5162689 57.2357123,32.5604159 58.9473887,32.5503195 C62.0514674,32.5325023 65.1422247,32.1320126 68.1929446,31.7044013 C69.5986927,31.5072249 70.9615732,31.2209629 72.3177686,30.8667977 C72.9229403,30.6805097 73.5224271,30.4833333 74.1152289,30.273685 C74.7011748,30.0630468 75.2769955,29.8462716 75.8479366,29.6156386 C76.1839478,29.9537683 76.5488221,30.2701215 76.9419739,30.566084 C77.3708445,30.883823 77.819746,31.1823591 78.2886296,31.4607024 C78.7556346,31.7616141 79.242646,32.0391655 79.7487124,32.2951384 C80.2652699,32.5612077 80.8008825,32.8001554 81.3536469,33.0135651 C81.896896,33.2038126 82.4410967,33.3916844 82.987176,33.5773786 C83.6019118,33.7690118 84.2328235,33.9129347 84.881863,34.0071676 C85.5356601,34.0869488 86.1903844,34.160395 86.8460846,34.2298818 C87.5742229,34.2894703 88.3042643,34.3203533 89.0362087,34.3219371 C90.5020006,34.3551957 91.9573257,34.2484909 93.409845,34.1109029 C95.8486838,33.8812598 98.2645884,33.4776026 100.659511,33.0468238 C103.093958,32.6079282 105.396411,31.8221924 107.58956,30.8707571 C107.975295,31.2670895 108.375181,31.6541174 108.775798,32.0415412 C109.746113,32.9803064 110.853544,33.8185039 112.076136,34.5385143 C112.586057,34.8524919 113.112325,35.1486523 113.654452,35.4262038 C114.463738,35.8601501 115.338656,36.191153 116.220161,36.5128513 C119.352883,37.6573056 122.853285,37.9388164 126.253899,37.8073655 C126.907769,37.7632186 127.557736,37.7020464 128.206727,37.624047 C129.295128,37.4933879 130.359619,37.3316479 131.433626,37.1384309 C133.08904,36.8406867 134.71786,36.4245575 136.330578,36.0038751 C137.841067,35.6103142 139.302028,35.0999522 140.742251,34.5632603 C142.022178,34.085959 143.205244,33.4415724 144.347077,32.7742215 C145.064871,33.5959876 145.89392,34.340744 146.785428,35.0395719 C147.042828,35.2058652 147.300961,35.3729503 147.558361,35.5400355 C148.029246,35.8569826 148.5277,36.1416609 149.052748,36.3960501 C149.851543,36.820494 150.784528,37.1414004 151.672621,37.4207336 C151.99858,37.5234791 152.325515,37.6264226 152.65245,37.7283762 C153.302417,37.9148623 153.964827,38.0678917 154.637728,38.1878604 C155.616337,38.3872144 156.662042,38.4468029 157.661634,38.5380662 C158.771994,38.6394259 159.906264,38.5944872 161.020283,38.5659797 C162.107709,38.5380662 163.193182,38.4367065 164.273044,38.340098 C166.652839,38.1274801 168.976275,37.7105591 171.270433,37.1647607 C172.238551,36.9343257 173.187883,36.6435104 174.135263,36.3651671 C175.028235,36.1028592 175.917548,35.8098662 176.783682,35.4943049 C177.699589,35.1603325 178.584021,34.8061673 179.464795,34.4139923 C179.753669,34.284917 180.033515,34.1437657 180.307019,33.9948936 C181.68283,34.5056516 183.152818,34.8281418 184.635006,35.0597646 C186.543917,35.3583007 188.509188,35.4509498 190.447621,35.4541173 C192.649309,35.4572848 194.859294,35.1834948 197.038048,34.9522679 C199.455905,34.6955031 201.865222,34.4108248 204.258436,34.0265685 C206.295925,33.6987331 208.265832,33.188371 210.223539,32.6330702 C211.607158,32.2410931 212.966135,31.7849743 214.292174,31.2773838 C214.705479,31.5909655 215.141961,31.8821767 215.600647,32.1520074 C215.859755,32.3052348 216.119107,32.4582643 216.378216,32.6114917 C216.909119,32.889835 217.464909,33.1271989 218.047049,33.3251671 C219.47678,33.8719553 220.980682,34.1944455 222.527525,34.4302257 C224.192454,34.683823 225.874462,34.6970868 227.560374,34.6382903 C228.609739,34.6018641 229.658127,34.4913979 230.701636,34.3985508 C231.737825,34.3064955 232.769867,34.1843492 233.802152,34.0683398 C235.656656,33.8586914 237.477977,33.5199678 239.281244,33.1149248 C240.808812,32.7722419 242.308079,32.2996917 243.775627,31.8188269 C244.328489,31.6347165 244.876472,31.4413015 245.419818,31.2403638 C245.447144,31.2304654 245.47447,31.220369 245.501552,31.2102726 C245.580358,31.3080689 245.66014,31.4050733 245.740898,31.5016818 C246.675835,32.6192124 247.787171,33.6468654 248.959502,34.5996865 C249.415015,34.9437552 249.893463,35.2646617 250.395576,35.5631978 C250.668104,35.7263236 250.941851,35.8894494 251.214378,36.0525752 C251.772852,36.3534869 252.352308,36.6249014 252.952746,36.8654327 C253.51488,37.0849795 254.08482,37.2892827 254.6633,37.4793322 C255.627027,37.7863809 256.575139,38.0401761 257.574975,38.2573473 C257.900935,38.3123824 258.225918,38.3672196 258.551877,38.4220568 C259.171346,38.4962949 259.791791,38.5667716 260.413212,38.6317052 C261.435738,38.6998063 262.431671,38.7221767 263.458101,38.7059433 C265.109855,38.6804054 266.767221,38.4537318 268.395066,38.246459 C270.190525,38.0183996 271.936457,37.6179099 273.65677,37.1522887 C275.27022,36.7153728 276.823894,36.1020673 278.312425,35.4418433 C280.065188,34.6630363 281.660582,33.6500329 283.156921,32.5827863 C284.349014,31.7329087 285.29737,30.6395302 286.166676,29.5730754 C286.286227,29.4162846 286.399679,29.2571182 286.50703,29.0955761 C286.560462,29.1082461 286.614138,29.1207181 286.667814,29.1329921 C287.535168,29.3325441 288.447171,29.4299444 289.339167,29.5174464 C290.650568,29.6465216 291.952453,29.7146227 293.271661,29.7548103 C295.522634,29.8229113 297.79093,29.6558262 300.034339,29.532096 C302.155026,29.4145029 304.265954,29.2497933 306.373222,29.0233177 C308.416567,28.803573 310.439905,28.4935547 312.465927,28.1880898 C313.270822,28.0663393 314.074009,27.931523 314.870365,27.7747321 C315.292941,28.0659434 315.726984,28.3466623 316.171518,28.616493 C316.413547,28.7495277 316.655577,28.8825623 316.897851,29.0155969 C317.410456,29.2691942 317.942335,29.4927003 318.494221,29.6843336 C319.287161,29.9884128 320.119138,30.2210254 320.952091,30.4407701 C322.116614,30.7484128 323.362384,30.8335391 324.574484,30.9248024 C325.562853,30.9990405 326.578792,30.9194573 327.565209,30.865214 C328.588955,30.8087931 329.611481,30.6989207 330.629372,30.5993427 C332.751767,30.39207 334.835125,30.0525545 336.904332,29.6201919 C338.894244,29.2050525 340.840241,28.6125336 342.753055,28.0101164 C343.643344,27.7301893 344.51631,27.4092828 345.385372,27.0907519 C346.583321,26.6506686 347.691728,26.0900226 348.770614,25.4846358 C349.112433,25.2926066 349.444979,25.0861258 349.772646,24.8739038 C349.880242,24.9764514 349.988082,25.0788009 350.095434,25.1805566 C351.032323,26.0708197 352.227344,26.791424 353.440664,27.4132422 C353.974251,27.6405097 354.521502,27.844021 355.082659,28.0225884 C355.394467,28.1162273 355.705056,28.2096683 356.01662,28.3033073 C356.662927,28.4696006 357.319481,28.6002596 357.986771,28.6968681 C358.604288,28.7819944 359.223757,28.8554406 359.845178,28.9179986 C360.886002,29.0148051 361.901941,29.0672666 362.950086,29.0789468 C364.665763,29.0967639 366.386809,28.8639533 368.080528,28.6651932 C369.818896,28.461088 371.528718,28.1191968 373.217314,27.7349405 C373.950722,27.5678554 374.669492,27.364542 375.378746,27.140244 C375.768628,27.4241304 376.186081,27.6858444 376.596946,27.9337006 C377.118334,28.2777694 377.671928,28.5816506 378.259923,28.8445524 C379.002359,29.2127733 379.889719,29.4432083 380.706569,29.6704758 C381.28017,29.7965816 381.86353,29.8817079 382.455429,29.9272406 C383.353036,30.0278084 384.229906,30.074133 385.136297,30.092742 C386.8327,30.1283763 388.529103,30.0246409 390.212332,29.8724034 C393.773729,29.550705 397.260956,28.8245576 400.66523,27.9382539 C402.318936,27.507475 403.921895,26.9361388 405.490695,26.3353052 C406.947753,25.7768369 408.306974,25.0384154 409.61935,24.2867301 C409.751832,24.2109083 409.883338,24.1337007 410.013624,24.0557012 C410.120488,24.1584467 410.226864,24.2605983 410.332264,24.3625519 C410.54282,24.5333985 410.7524,24.7050369 410.962224,24.8758835 C411.391875,25.1744196 411.833238,25.4606816 412.285824,25.7358575 C412.547128,25.8750291 412.808188,26.0149926 413.069248,26.1549562 C413.629673,26.4210255 414.214985,26.6469072 414.822987,26.8331953 C415.694001,27.134107 416.552815,27.3589989 417.469454,27.551622 C418.381701,27.7434532 419.356651,27.7921533 420.289636,27.8616402 C421.33412,27.9390458 422.422522,27.788194 423.453831,27.6785196 C425.800201,27.4278918 428.109486,27.0335391 430.376806,26.4875428 C432.228625,26.0421143 434.002127,25.3577382 435.715852,24.6446566 C437.310759,23.9804733 438.746346,23.1319815 440.140212,22.2270688 C440.275134,22.3797022 440.4103,22.5329297 440.545954,22.6859591 C440.900459,23.0595251 441.254964,23.4328932 441.610445,23.8056673 C441.815389,24.000666 442.019358,24.1946749 442.223326,24.3886837 C442.636875,24.7646254 443.085801,25.1086941 443.570836,25.4234636 C444.445753,26.0405305 445.428267,26.4891265 446.495686,26.8448754 C446.785536,26.9414839 447.074166,27.0373005 447.364016,27.134107 C447.967138,27.3081211 448.582947,27.4465008 449.20998,27.5508301 C450.090753,27.7232604 451.016907,27.7836407 451.912806,27.8794573 C453.895156,28.0914813 455.939477,27.8756959 457.904747,27.6506061 C460.013723,27.4084909 462.104889,27.1208431 464.186294,26.7504446 C466.576581,26.3236251 468.865859,25.6586499 471.129275,24.9154772 C472.91156,24.3300851 474.647,23.6789677 476.333888,22.9310437 C476.845517,22.7041722 477.341532,22.45592 477.824859,22.1914345 C478.225964,22.4325598 478.645613,22.6570557 479.04623,22.8769984 C479.781102,23.2798637 480.655044,23.5683034 481.475554,23.8319971 C482.379017,24.1228124 483.276869,24.3710646 484.208146,24.5929869 C486.213186,25.072466 488.315574,25.2587541 490.391369,25.3995095 C491.518807,25.4753313 492.656005,25.4697882 493.786127,25.4737475 C495.294908,25.4790927 496.800762,25.414951 498.30564,25.3361596 C500.016438,25.2460841 501.715037,25.0795928 503.401681,24.8535131 C503.733983,25.18412 504.09898,25.4903769 504.49667,25.7706999 C504.919733,26.037561 505.344749,26.3026405 505.770741,26.5663341 C506.397041,26.9561336 507.242437,27.1541018 507.961938,27.395425 C508.747315,27.6583268 509.640287,27.7394938 510.472264,27.8408535 C511.310828,27.9422133 512.147685,28.0010098 512.99308,28.0465425 C514.01951,28.1021716 515.031546,28.006355 516.04846,27.9057871 C518.07863,27.7062351 520.076107,27.327324 522.078463,27.0002805 C524.668814,26.5780143 527.221104,26.0367692 529.741189,25.396342 C531.75306,24.8859799 533.722966,24.2473344 535.67189,23.5976027 C537.545668,22.9736069 539.379189,22.2846775 541.18148,21.5359617 C544.962461,19.964094 548.459447,17.9171027 551.696106,15.6929297 C551.784915,16.1039118 551.882507,16.513706 551.990103,16.9254799 C552.207491,17.7599159 552.526618,18.5765348 552.829643,19.3923618 C553.11193,20.1501842 553.443501,20.892565 553.786539,21.63356 C554.587042,23.3610307 555.647873,25.0243597 556.798246,26.6128567 C556.98416,26.8417079 557.16983,27.0705592 557.355744,27.2996084 C557.718788,27.6931692 558.086712,28.0837605 558.459516,28.4717782 C558.679587,28.6713302 558.898683,28.8708822 559.118998,29.0704341 C559.601105,29.470132 560.112002,29.843698 560.65047,30.192518 C561.394857,30.7068394 562.213415,31.1522679 563.027337,31.5891838 C564.12623,32.1775453 565.374683,32.5588321 566.589955,32.9523929 C567.551486,33.263401 568.597922,33.400197 569.611177,33.5455057 C570.595642,33.6878449 571.60109,33.7466414 572.597022,33.8000928 C573.640531,33.8565138 574.687944,33.7852452 575.726817,33.7133828 C576.956239,33.6282564 578.180051,33.4342476 579.382635,33.2208378 C581.224939,32.8943882 582.970139,32.2905852 584.682645,31.6679751 C586.652551,30.952716 588.370913,29.8599314 590.018764,28.7487358 C591.530229,27.7293974 592.818939,26.5061518 594.017864,25.2494495 C594.557307,24.6834584 595.057469,24.1034115 595.5447,23.5071313 C596.264201,22.6255788 596.824627,21.6729557 597.348699,20.7078606 C599.097558,17.485334 599.715075,13.9591241 600.375533,10.5069543 C600.653916,9.05248178 600.995978,7.60394832 601.223857,6.14314084 C601.525906,4.20384417 601.733778,2.25742064 601.980443,0.313174767 C601.980443,0.31178899 601.978979,0.310997117 601.977515,0.310997117 C601.976296,0.310997117 601.97532,0.311393053 601.974832,0.312382894 M480.170009,7.22127575 C480.289316,7.28660527 480.405207,7.35530024 480.517194,7.4271627 C480.509631,7.42637083 480.502068,7.42538099 480.494748,7.42458911 C480.38642,7.35688398 480.278337,7.28898088 480.170009,7.22127575 M481.235476,7.30561022 C481.15667,7.33253389 481.078108,7.35945757 480.999302,7.38638125 C481.077376,7.35846773 481.155938,7.33134608 481.235476,7.30561022 M480.662363,7.52337526 C480.691641,7.54337005 480.720919,7.56376077 480.749709,7.58454744 C480.717991,7.56475061 480.686274,7.54495379 480.6548,7.52515697 C480.65724,7.52456307 480.659924,7.52396916 480.662363,7.52337526 M479.829655,7.91337265 C480.082419,7.77420099 480.34348,7.6482932 480.613323,7.53584725 C480.675294,7.56395874 480.737022,7.59207023 480.798749,7.61998375 C480.901465,7.69521167 481.000766,7.77340912 481.09665,7.85477405 C481.142031,7.9155503 481.187656,7.97632654 481.23328,8.03710278 C481.264754,8.12381286 481.293056,8.21131482 481.317454,8.29960864 C481.329897,8.43660265 481.34234,8.57339869 481.354539,8.70979879 C481.361858,9.0604005 481.344292,9.41001238 481.302083,9.75804051 C481.230108,10.1086422 481.139591,10.4562744 481.029556,10.8009371 C480.892438,11.2346854 480.726531,11.660911 480.531101,12.0792179 C480.640649,11.8671939 480.751417,11.6561598 480.860964,11.4443338 C480.640649,11.9153002 480.377637,12.3692413 480.073636,12.8083348 C479.738894,13.33691 479.309242,13.8258915 478.867636,14.302401 C478.724907,14.4395929 478.580957,14.5752012 478.436032,14.7094236 C478.287936,14.3851517 478.157894,14.0559305 478.046638,13.7217602 C477.935626,13.3909553 477.844133,13.0573788 477.772403,12.7206349 C477.752152,12.5163317 477.732146,12.3120285 477.712139,12.1069334 C477.699696,11.7897883 477.709944,11.4734351 477.743369,11.1580717 C477.788994,10.9642609 477.834618,10.7706479 477.879755,10.577431 C477.977835,10.2369256 478.10129,9.90374512 478.250363,9.57749349 C478.462138,9.21976492 478.707828,8.87846771 478.988163,8.55261202 C479.181152,8.37226298 479.388048,8.20240625 479.608607,8.04304183 C479.68229,7.99988476 479.755972,7.95652972 479.829655,7.91337265 M518.199645,7.97058546 C518.266984,7.99236197 518.333835,8.01532628 518.399954,8.03928043 C518.333103,8.01631612 518.266496,7.99335181 518.199645,7.97058546 M518.523164,8.14499546 C518.617097,8.16400041 518.711274,8.18280739 518.805207,8.20161437 C518.958183,8.2693195 519.107012,8.34296368 519.251693,8.42215097 C519.517145,8.60843906 519.765762,8.8093768 519.997057,9.02437029 C520.095869,9.1451309 520.187118,9.26985088 520.270804,9.39813429 C520.352782,9.60025984 520.419388,9.80555288 520.471113,10.0142114 C520.481604,10.091617 520.491851,10.1690225 520.502098,10.2464281 C520.533084,10.6481056 520.528204,11.0489913 520.486971,11.4488871 C520.478676,11.4948157 520.470381,11.5407443 520.462085,11.5866729 C520.395966,11.8739248 520.305693,12.1552377 520.190778,12.4304135 C520.121243,12.5460269 520.05122,12.6616404 519.98193,12.7774518 C519.819194,13.0104604 519.642551,13.2359462 519.452734,13.4537112 C519.077246,13.8187646 518.677361,14.1644171 518.250149,14.4902728 C517.893204,14.7642608 517.523572,15.0269646 517.143205,15.2789782 C516.530568,15.647397 515.910855,15.9989886 515.272843,16.3408797 C514.472828,16.7684911 513.616209,17.1060269 512.751783,17.4340602 C511.968846,17.6866677 511.182494,17.9190823 510.379795,18.1380352 C509.378251,18.4110334 508.349869,18.6236512 507.32905,18.8441878 C507.163143,18.8798221 506.99748,18.9148625 506.831328,18.9495069 C506.830108,18.624839 506.849871,18.3007651 506.890372,17.9778789 C506.964298,17.6062926 507.057743,17.2376757 507.169975,16.8722264 C507.333686,16.2719868 507.584499,15.6937216 507.856782,15.1221874 C508.088077,14.7304083 508.346453,14.3495174 508.630936,13.9799107 C508.942988,13.573482 509.276511,13.1789313 509.63004,12.7950709 C509.909643,12.5094028 510.196565,12.2286839 510.491294,11.9531121 C511.153704,11.3128829 511.938105,10.7744093 512.724457,10.2391033 C513.068959,10.0298509 513.420048,9.82732938 513.777481,9.63173678 C514.508449,9.21441978 515.268452,8.86065057 516.059196,8.53261723 C516.23413,8.48253127 516.409065,8.43244532 516.584244,8.38196342 C516.992669,8.29129398 517.405241,8.21705589 517.821718,8.15885324 C518.055208,8.14400562 518.289186,8.13925438 518.523164,8.14499546 M517.542847,8.18181755 C517.493319,8.18716269 517.44379,8.19250783 517.394262,8.19785298 C517.44379,8.1921119 517.493319,8.18656879 517.542847,8.18181755 M519.52666,8.58309913 C519.540567,8.59180973 519.554474,8.60052033 519.568137,8.60923093 C519.55423,8.60052033 519.540323,8.59180973 519.52666,8.58309913 M481.384305,8.58408897 C481.394796,8.63912414 481.403823,8.69455524 481.411874,8.74998634 C481.402603,8.69475321 481.393332,8.63952007 481.384305,8.58408897 M519.623521,8.62011919 C519.722089,8.71514393 519.81529,8.81274226 519.90288,8.91311215 C519.809679,8.81551382 519.716722,8.71771752 519.623521,8.62011919 M478.905209,8.63160134 C478.796149,8.74602697 478.687089,8.8604526 478.578274,8.9750762 C478.682454,8.85669121 478.791269,8.74226558 478.905209,8.63160134 M550.612096,8.76780348 C550.507916,8.87985349 550.402272,8.99071569 550.295408,9.10078602 C550.401052,8.98972585 550.506452,8.87886365 550.612096,8.76780348 M478.446768,9.17918144 C478.427005,9.2173893 478.406999,9.25559717 478.387236,9.29380503 C478.406755,9.25559717 478.426517,9.2173893 478.446768,9.17918144 M557.6656,9.67964509 C557.644862,9.8035732 557.624123,9.9275013 557.603629,10.0516274 C557.601921,10.0510335 557.600213,10.0504396 557.598505,10.0498457 C557.616804,9.92631349 557.639006,9.80278132 557.6656,9.67964509 M481.25963,10.0555867 C481.256702,10.0736018 481.253774,10.091617 481.250603,10.1096321 C481.253774,10.091617 481.256702,10.0736018 481.25963,10.0555867 M557.584598,10.166251 C557.582159,10.1810986 557.579719,10.1961442 557.577279,10.2109918 C557.578987,10.196936 557.580695,10.1826823 557.582403,10.1686266 C557.583135,10.1678347 557.583866,10.1670428 557.584598,10.166251 M512.665901,10.2749355 C512.479255,10.3921327 512.292122,10.508736 512.10572,10.6261311 C512.290658,10.5069543 512.477304,10.3899551 512.665901,10.2749355 M477.818759,10.6384052 C477.804364,10.7259071 477.78997,10.8134091 477.775575,10.9007131 C477.788018,10.8134091 477.802657,10.7259071 477.818759,10.6384052 M477.675786,12.1912679 C477.689449,12.2732267 477.702868,12.3551856 477.716531,12.4371444 C477.701892,12.3553835 477.688229,12.2734247 477.675786,12.1912679 M509.49341,12.9356284 C509.416068,13.0169933 509.338482,13.0983583 509.260896,13.1795252 C509.337994,13.0979623 509.415336,13.0165974 509.49341,12.9356284 M519.409305,13.5032033 C519.276335,13.6534611 519.137266,13.7999576 518.991609,13.9428907 C519.130434,13.7959983 519.269748,13.6498977 519.409305,13.5032033 M380.634107,13.9375455 C380.564328,13.9812965 380.494306,14.0250475 380.424771,14.0687985 C380.423063,14.0686005 380.421355,14.0684025 380.419403,14.0682046 C380.490402,14.0240576 380.561888,13.9805046 380.634107,13.9375455 M380.419403,14.0682046 C380.421111,14.0684025 380.422819,14.0686005 380.424527,14.0687985 C380.410376,14.077707 380.396469,14.0864176 380.382318,14.0951282 C380.379878,14.0955242 380.377194,14.0957221 380.374755,14.0961181 C380.389638,14.0868136 380.40452,14.0775091 380.419403,14.0682046 M380.777324,14.1190824 C380.918345,14.1434325 381.057415,14.1727318 381.194776,14.2067823 C381.201364,14.2101478 381.207951,14.2135132 381.214539,14.2168787 C381.253332,14.2497414 381.291881,14.2826041 381.330674,14.3154669 C381.441686,14.4587959 381.543914,14.6060842 381.636871,14.7579258 C381.758862,15.0327057 381.855966,15.3130287 381.927941,15.5990928 C381.936968,15.7402441 381.936968,15.8815934 381.928185,16.0227448 C381.844255,16.3555294 381.728364,16.6809891 381.580267,16.99952 C381.430218,17.2598482 381.264799,17.5144353 381.084009,17.7630834 C380.917369,17.9945082 380.738775,18.2188062 380.548713,18.4369672 C380.37939,18.5899966 380.210799,18.7438179 380.041232,18.8974413 C379.773584,19.1165921 379.494225,19.3254486 379.203156,19.5232188 C378.635411,19.8468969 378.06181,20.1486004 377.470399,20.4382279 C377.418431,20.3049953 377.369635,20.1709708 377.324254,20.0357585 C377.234469,19.7706791 377.160543,19.5030261 377.101987,19.2329974 C377.065878,18.8691318 377.064658,18.5056622 377.098571,18.1425885 C377.130533,17.9909448 377.162251,17.8391032 377.19348,17.6872616 C377.292537,17.3190407 377.420871,16.9589365 377.579459,16.6065531 C377.746586,16.3341488 377.936892,16.0734246 378.150864,15.8243806 C378.518544,15.4678399 378.914038,15.1326797 379.337101,14.8183061 C379.556197,14.6494393 379.78188,14.4869073 380.013906,14.3307104 C380.155415,14.2620154 380.296681,14.1931225 380.43819,14.1244275 C380.450877,14.1208641 380.463808,14.1173007 380.476739,14.1139352 C380.576771,14.1129454 380.677048,14.1149251 380.777324,14.1190824 M380.348649,14.1163108 C380.345965,14.1178946 380.343525,14.1196763 380.340841,14.12126 C380.33645,14.1226458 380.332058,14.1242296 380.327666,14.1258133 C380.332546,14.1226458 380.337425,14.1196763 380.342305,14.1165088 C380.344501,14.1165088 380.346453,14.1165088 380.348649,14.1163108 M379.98292,14.1386812 C379.919485,14.1456101 379.85605,14.152539 379.792615,14.1594679 C379.85605,14.1515492 379.919485,14.1446203 379.98292,14.1386812 M381.07425,14.1394731 C381.092792,14.1412548 381.111335,14.1430365 381.129877,14.1450162 C381.130365,14.1452142 381.130609,14.1454122 381.130853,14.1456101 C381.112067,14.1436305 381.093036,14.1414528 381.07425,14.1394731 M381.188677,14.1513512 C381.192093,14.1517471 381.195264,14.1521431 381.19868,14.1523411 C381.198924,14.152737 381.199168,14.152935 381.199412,14.1531329 C381.19624,14.152737 381.193068,14.152539 381.189897,14.1521431 C381.189653,14.1519451 381.189165,14.1515492 381.188677,14.1513512 M381.213319,14.1541228 C381.22991,14.1561025 381.2465,14.1580821 381.263091,14.1602598 C381.246744,14.1582801 381.230398,14.1564984 381.213807,14.1547167 C381.213563,14.1545187 381.213563,14.1543207 381.213319,14.1541228 M380.2574,14.1735237 C380.213971,14.2008433 380.170542,14.2279649 380.127113,14.2552845 C380.167614,14.2285588 380.208359,14.2020311 380.249348,14.1757013 C380.252032,14.1749094 380.254716,14.1743155 380.2574,14.1735237 M381.492922,14.2889391 C381.617596,14.326949 381.740807,14.3691163 381.862554,14.4154408 C381.739343,14.3732736 381.616132,14.3311064 381.492922,14.2889391 M381.74715,14.9481733 C381.782528,15.012117 381.816197,15.0768526 381.848159,15.1421821 C381.814733,15.0774465 381.78082,15.0127109 381.74715,14.9481733 M381.870117,15.1546541 C381.884024,15.2245369 381.895491,15.2946177 381.904762,15.3645005 C381.893295,15.2946177 381.881828,15.2245369 381.870117,15.1546541 M352.021424,15.4223072 C352.007761,15.5074335 351.99361,15.5929558 351.979459,15.6780821 C351.977263,15.6804577 351.975067,15.6828334 351.972871,15.685209 C351.987022,15.5973111 352.003125,15.5098091 352.021424,15.4223072 M378.48219,15.467048 C378.414851,15.5375247 378.347757,15.6076054 378.280906,15.6778841 C378.345805,15.6066156 378.4129,15.5363369 378.48219,15.467048 M321.380034,15.7594471 C321.426147,15.7873606 321.471527,15.815868 321.51642,15.8447714 C321.470795,15.8162639 321.425415,15.7877565 321.380034,15.7594471 M322.141744,16.1377643 L322.141744,16.1377643 C322.141744,16.1377643 322.141744,16.1377643 322.141501,16.1377643 L322.141744,16.1377643 M322.14516,16.1468709 C322.145892,16.1468709 322.146868,16.1470688 322.1476,16.1472668 C322.22177,16.2656518 322.285938,16.3864124 322.340345,16.5091527 C322.4111,16.5802233 322.479171,16.6532736 322.544558,16.7283035 C322.509425,16.6912835 322.474047,16.6542634 322.438914,16.6172433 C322.438914,16.6170454 322.438914,16.6170454 322.43867,16.6170454 L322.438914,16.6170454 C322.407196,16.5839847 322.375723,16.550726 322.344249,16.5174674 C322.353764,16.5394418 322.363036,16.5612183 322.372063,16.5831928 C322.357912,16.5564671 322.344005,16.5295434 322.330098,16.5028177 C322.311312,16.4830209 322.292525,16.4632241 322.273738,16.4434272 C322.291305,16.4602545 322.308628,16.4772798 322.325707,16.494503 C322.265443,16.3786916 322.20518,16.2626823 322.14516,16.1468709 M321.940704,16.1502363 C321.998039,16.1963629 322.054399,16.2434793 322.109051,16.2917836 C322.211523,16.4269959 322.313507,16.5624061 322.41598,16.6978164 C322.429643,16.7364202 322.44233,16.775024 322.454285,16.8140238 C322.467216,17.0359461 322.4638,17.2574726 322.444038,17.4782071 C322.370355,17.790403 322.268859,18.0960659 322.139549,18.3951959 C322.040736,18.5531746 321.931432,18.706402 321.811638,18.8544822 C321.700382,18.9590094 321.589126,19.0635366 321.478115,19.1680638 C321.204368,19.3986968 320.916714,19.6162639 320.61564,19.8215569 C319.937616,20.2101685 319.251052,20.5659174 318.532283,20.9087984 C318.141668,21.0948885 317.741295,21.2653391 317.335797,21.4276731 C317.32433,21.3958002 317.312619,21.3639273 317.301152,21.3320544 C317.298712,21.3179987 317.296516,21.3041409 317.294321,21.2900852 C317.277242,20.998478 317.283097,20.7078606 317.312375,20.4186291 C317.4046,20.0034897 317.535618,19.5972589 317.705917,19.1997388 C317.845719,18.973857 318.003331,18.7566859 318.178509,18.5480274 C318.909722,17.8539508 319.669724,17.2028333 320.503409,16.587944 C320.660289,16.5044015 320.822537,16.4273918 320.989908,16.3573111 C321.272195,16.2775299 321.558873,16.2102207 321.850431,16.1557794 C321.88044,16.1539977 321.91045,16.152216 321.940704,16.1502363 M377.777816,16.1993324 C377.769764,16.214774 377.761713,16.2300175 377.753906,16.245459 C377.761713,16.2300175 377.769764,16.214774 377.777816,16.1993324 M381.900371,16.2945551 C381.893051,16.345433 381.884512,16.3965088 381.874997,16.4475846 C381.883292,16.3967067 381.891831,16.3456309 381.900371,16.2945551 M381.870117,16.4499602 C381.794239,16.6081368 381.712993,16.7643337 381.62638,16.918551 C381.707625,16.762354 381.789115,16.6063551 381.870117,16.4499602 M320.406792,16.6406036 C320.245764,16.7415674 320.084249,16.8429271 319.922733,16.9440889 C320.077905,16.8352064 320.239421,16.7340446 320.406792,16.6406036 M322.496982,16.9710126 C322.525283,17.0890016 322.54529,17.2089703 322.557001,17.3307208 C322.536751,17.2107521 322.516988,17.0909813 322.496982,16.9710126 M322.429399,17.6169828 C322.412808,17.7545708 322.389874,17.8919607 322.360596,18.0289547 C322.383774,17.8919607 322.406708,17.7545708 322.429399,17.6169828 M322.334002,18.0515231 C322.325463,18.0683504 322.316679,18.0851777 322.307652,18.102005 C322.316435,18.0851777 322.325219,18.0683504 322.334002,18.0515231 M318.518864,18.1752532 C318.459576,18.2374152 318.400289,18.2999732 318.341001,18.3623332 C318.398581,18.2991813 318.457868,18.2368213 318.518864,18.1752532 M380.408424,18.594154 C380.3101,18.7020467 380.209091,18.8083556 380.105155,18.9128828 C380.206163,18.8067718 380.307172,18.7004629 380.408424,18.594154 M377.000003,18.6523566 C377.024157,18.7970714 377.047823,18.9417862 377.071733,19.0866989 C377.043432,18.942578 377.019765,18.7976653 377.000003,18.6523566 M321.567412,19.1350031 C321.549357,19.154404 321.531059,19.173607 321.512516,19.1928099 C321.530815,19.173607 321.549113,19.1542061 321.567412,19.1350031 M317.522199,19.5210412 C317.512928,19.5390563 317.503657,19.5570714 317.494385,19.5748885 C317.503657,19.5568734 317.512928,19.5390563 317.522199,19.5210412 M39.1305546,19.5796398 C39.1183556,19.6705072 39.1033995,19.7609787 39.0857597,19.8510542 L39.0855645,19.8510542 C39.1005693,19.7605827 39.1155498,19.6701112 39.1305546,19.5796398 M378.966006,19.6802076 C378.877684,19.7374204 378.788143,19.7934454 378.697382,19.8486786 C378.786923,19.7924556 378.876708,19.7364306 378.966006,19.6802076 M317.423875,19.7395981 C317.387034,19.9621144 317.350192,20.1844327 317.313351,20.406949 C317.336529,20.1838388 317.373127,19.9613225 317.423875,19.7395981 M320.306516,20.0252662 C320.256988,20.0565452 320.207215,20.0878242 320.157199,20.1185093 C320.206971,20.0874282 320.256744,20.0563472 320.306516,20.0252662 M446.174362,20.3400357 C446.295377,20.4675272 446.416392,20.5946228 446.537651,20.7217184 C446.414684,20.5956127 446.293669,20.4683191 446.174362,20.3400357 M217.625937,20.5136538 C217.632524,20.5514658 217.638868,20.5890797 217.644723,20.6268916 C217.63838,20.5890797 217.632036,20.5514658 217.625937,20.5136538 M217.097961,20.8137736 C217.271432,20.8600982 217.439291,20.9153313 217.601051,20.9792751 L217.582508,20.9792751 C217.420992,20.9240419 217.259477,20.8688088 217.097961,20.8137736 M218.982962,20.8199107 C218.875854,20.8567327 218.768746,20.8933569 218.661638,20.930179 C218.766794,20.8907833 218.873902,20.8539612 218.982962,20.8199107 M218.156596,21.2467301 C218.243698,21.2968161 218.328603,21.3500695 218.411069,21.4060946 C218.326408,21.3530391 218.241746,21.2999836 218.156596,21.2467301 M217.7389,21.372044 C217.738656,21.3732318 217.738412,21.3744196 217.738168,21.3756074 C217.73524,21.3775871 217.732313,21.3793688 217.729141,21.3813485 C217.729385,21.3799627 217.729629,21.3787749 217.729873,21.3775871 C217.732801,21.3758054 217.735972,21.3738257 217.7389,21.372044 M217.691812,21.4005514 L217.691812,21.4047088 C217.615446,21.4526171 217.539079,21.5003274 217.462957,21.5484337 C217.537859,21.4971599 217.614226,21.4478658 217.691812,21.4005514 M317.234057,21.4169828 C317.241621,21.4310385 317.24894,21.4452923 317.256259,21.459546 C317.255528,21.4597439 317.254796,21.4599419 317.254308,21.4603378 C317.247476,21.4458862 317.240889,21.4314345 317.234057,21.4169828 M447.362064,21.4355918 C447.431599,21.4789469 447.501133,21.5224999 447.570424,21.5658549 C447.500158,21.5234897 447.430623,21.4801347 447.362064,21.4355918 M217.718406,21.4763733 C217.712306,21.5052766 217.705719,21.533982 217.699131,21.5626874 C217.703523,21.5355658 217.708159,21.5084441 217.71255,21.4813225 C217.714502,21.4795408 217.716454,21.477957 217.718406,21.4763733 M217.687664,21.5023071 C217.68498,21.5521951 217.681565,21.6022811 217.677173,21.652367 C217.63228,21.826975 217.575433,21.9996033 217.507118,22.1704498 C217.327791,22.4513667 217.126263,22.7211974 216.903264,22.97915 C216.875206,23.0064696 216.846904,23.0335913 216.818602,23.060515 C216.906435,22.811273 217.006956,22.5655944 217.120163,22.3236772 C217.278507,22.0445421 217.460273,21.776889 217.66595,21.5205202 C217.673269,21.5143832 217.680589,21.5082462 217.687664,21.5023071 M217.397082,21.7850057 C217.316812,21.9394209 217.236298,22.0936382 217.155784,22.2484493 C217.230931,22.0924504 217.311201,21.9378372 217.397082,21.7850057 M246.510903,21.8762691 C246.532862,21.9819841 246.550428,22.0878971 246.563603,22.1940081 C246.546037,22.0880951 246.52847,21.9821821 246.510903,21.8762691 M448.157932,21.951299 C448.372635,22.0245473 448.586851,22.0975975 448.800823,22.1708458 C448.584167,22.1031406 448.369708,22.0298924 448.157932,21.951299 M182.508707,22.1021508 C182.356951,22.1187801 182.205194,22.1354095 182.053194,22.1520388 C182.203487,22.1302623 182.355243,22.113633 182.508707,22.1021508 M37.7620382,22.1286785 L37.7620626,22.1286785 C37.7613794,22.1294704 37.7607207,22.1300643 37.7600619,22.1306582 C37.7607207,22.1300643 37.7613794,22.1292725 37.7620382,22.1286785 M181.433725,22.1431302 C181.355163,22.1926223 181.276601,22.2421143 181.198039,22.2914084 C181.274405,22.2401347 181.352723,22.1906426 181.433725,22.1431302 M181.694541,22.2143988 C181.753097,22.2450839 181.811652,22.275571 181.870208,22.306256 C181.956333,22.3717835 182.039531,22.4392907 182.119801,22.5091735 C182.159326,22.5659903 182.198607,22.6230052 182.237888,22.68002 C182.262774,22.7520805 182.285464,22.8245368 182.305471,22.8973891 C182.328649,23.2131485 182.325477,23.5289078 182.295956,23.8438752 C182.270581,23.9654277 182.245207,24.0869802 182.220077,24.2085327 C182.138344,24.5248859 182.031968,24.835498 181.90095,25.1399731 C181.831171,25.258952 181.761636,25.3779309 181.691857,25.4969098 C181.488377,25.7992073 181.265134,26.0908145 181.02164,26.3715334 C180.682262,26.6967952 180.33532,27.0085951 179.975936,27.3134662 C179.920552,27.2299236 179.867852,27.1453912 179.817104,27.059473 C179.649245,26.691846 179.518714,26.3145186 179.425514,25.9276887 C179.463819,26.1573318 179.50188,26.3869749 179.539941,26.6158262 C179.432101,26.1959356 179.393064,25.7722836 179.423074,25.3458601 C179.433321,25.2918147 179.443324,25.2377694 179.453327,25.1837241 C179.573366,24.7353261 179.736346,24.2968265 179.94007,23.8690172 C179.954465,23.8414996 179.96886,23.813784 179.983255,23.7864644 C180.21089,23.37766 180.476342,22.9850891 180.781563,22.6107312 C180.830115,22.568168 180.879887,22.5267926 180.931123,22.4864071 C181.078,22.4204837 181.225365,22.3545603 181.37273,22.2888348 C181.479106,22.2611193 181.586457,22.2363733 181.694541,22.2143988 M181.058725,22.3789104 C181.057994,22.3795043 181.057018,22.3799002 181.056286,22.3804941 C180.956985,22.4145447 180.857441,22.4485952 180.757896,22.4826457 C180.857441,22.4454277 180.957473,22.4109812 181.058725,22.3789104 M246.686326,22.4169203 C246.686082,22.4198898 246.685594,22.4230573 246.68535,22.4260268 C246.685106,22.4258288 246.685106,22.4258288 246.684862,22.4256309 C246.68535,22.4226614 246.685838,22.4196918 246.686326,22.4169203 M248.785055,22.4470114 C248.765048,22.5663863 248.745042,22.6861571 248.725279,22.8057299 C248.740894,22.6859591 248.760901,22.5663863 248.785055,22.4470114 M355.984171,22.5628229 C356.191311,22.6922941 356.397719,22.8215673 356.603884,22.9512365 C356.391376,22.8273084 356.184723,22.6978372 355.984171,22.5628229 M180.753017,22.6358731 C180.602968,22.7928619 180.453651,22.9504446 180.304335,23.1074334 C180.439257,22.9389625 180.588817,22.7817757 180.753017,22.6358731 M182.308155,22.6816038 C182.399892,22.7700956 182.487237,22.8617549 182.570679,22.9565816 C182.483089,22.8651203 182.395744,22.773461 182.308155,22.6816038 M182.323525,22.9660841 C182.370126,23.1507885 182.401112,23.3382644 182.416238,23.5289078 C182.385497,23.3414319 182.354511,23.15356 182.323525,22.9660841 M36.2784112,23.1361388 C36.238691,23.1612808 36.1989709,23.1862248 36.1589335,23.2109708 C36.1988001,23.1860268 36.2385934,23.1610828 36.2784112,23.1361388 M357.397799,23.2042399 C357.451231,23.222453 357.504419,23.240666 357.557851,23.2588791 C357.504175,23.2412599 357.450743,23.2228489 357.397799,23.2042399 M74.4783222,23.4344769 C74.383267,23.5453391 74.2821123,23.6516481 74.1750044,23.7534037 C74.2762323,23.6470948 74.3772894,23.5407859 74.4783222,23.4344769 M360.377545,23.7466728 C360.485629,23.7583529 360.593713,23.770033 360.70204,23.7817132 C360.593713,23.7708249 360.485629,23.7589468 360.377545,23.7466728 M110.897217,24.5171651 C110.901121,24.5393375 110.904781,24.56151 110.90844,24.5836824 C110.907708,24.5852662 110.90722,24.5870479 110.906732,24.5888296 C110.903317,24.5648754 110.900145,24.5411193 110.897217,24.5171651 M47.4192641,24.9996137 C47.4611557,25.0259434 47.5029985,25.0520752 47.5448901,25.078207 C47.5028277,25.0522732 47.4608873,25.0261414 47.4192641,24.9996137 M71.4580999,25.1581862 C71.3083441,25.2118356 71.1576611,25.2635053 71.0062462,25.3133933 C71.1569536,25.2617236 71.3075633,25.2100539 71.4580999,25.1581862 M324.27951,25.6744873 C324.339774,25.6810203 324.400037,25.6875532 324.4603,25.6940862 C324.400037,25.6879492 324.339774,25.6814162 324.27951,25.6744873 M564.54173,26.100119 C564.591746,26.1312 564.641519,26.162281 564.691535,26.19356 C564.641519,26.1626769 564.591502,26.131398 564.54173,26.100119 M102.804108,26.6522523 C102.535484,26.7506425 102.264421,26.8434896 101.990673,26.9307936 C102.261737,26.8385404 102.5328,26.7452974 102.804108,26.6522523 M180.750577,26.6708614 C180.73057,26.692044 180.710564,26.7132266 180.690313,26.7342112 C180.71032,26.7130286 180.73057,26.692044 180.750577,26.6708614 M179.923968,27.2819892 C179.932995,27.2994104 179.942022,27.3170296 179.95105,27.3344508 C179.95105,27.3346488 179.950806,27.3346488 179.950806,27.3348468 C179.941778,27.3172276 179.932751,27.2996084 179.923968,27.2819892 M567.367524,27.5787436 C567.411684,27.5937892 567.456089,27.6088348 567.500005,27.6240783 C567.455845,27.6090327 567.411684,27.5939872 567.367524,27.5787436 M279.556974,27.6492203 C279.433032,27.7852245 279.305185,27.9192489 279.173923,28.0510958 C279.302013,27.9172693 279.429616,27.7834427 279.556974,27.6492203 M140.793975,28.1938309 C140.741763,28.2268916 140.689307,28.2597543 140.636363,28.292419 C140.688819,28.2595563 140.741519,28.2266936 140.793975,28.1938309 M251.520575,29.0815204 C251.661108,29.2290067 251.801886,29.376691 251.942419,29.5243753 C251.79847,29.3784727 251.657937,29.2307884 251.520575,29.0815204 M277.101545,29.551101 C276.995657,29.6188061 276.889281,29.6857194 276.781929,29.7516428 C276.888305,29.6847295 276.994925,29.6180142 277.101545,29.551101 M186.49756,30.0577016 C186.755205,30.0856152 187.012605,30.1135287 187.27025,30.1422341 C187.012117,30.117686 186.754473,30.0895745 186.49756,30.0577016 M253.675175,31.0107206 C253.742026,31.0524919 253.808877,31.0942632 253.875728,31.1362325 C253.808389,31.0948571 253.741538,31.0530858 253.675175,31.0107206 M151.529892,31.569189 C151.703363,31.6780715 151.876345,31.786954 152.05006,31.8952426 C151.872198,31.7907154 151.698727,31.6820309 151.529892,31.569189 M119.21113,31.8657454 C119.306283,31.8982122 119.401435,31.9308769 119.496832,31.9633437 C119.401191,31.9314708 119.306039,31.899004 119.21113,31.8657454 M127.332785,32.384818 C127.279353,32.3909551 127.225921,32.3966961 127.172245,32.4022393 C127.225677,32.3964982 127.279109,32.3905591 127.332785,32.384818 M122.199171,32.4463862 C122.395088,32.4679647 122.590761,32.4893453 122.786678,32.5109238 C122.590273,32.4919189 122.394356,32.4703403 122.199171,32.4463862 M256.921105,32.5420048 C257.008206,32.571898 257.095308,32.6017912 257.182409,32.6314864 C257.09482,32.6023851 257.007718,32.5724919 256.921105,32.5420048 M322.330098,16.5028177 C322.334734,16.5077669 322.339369,16.5127161 322.344249,16.5174674 C322.343029,16.5146958 322.341809,16.5119243 322.340345,16.5091527 C322.335466,16.5044015 322.330586,16.4994523 322.325707,16.494503 C322.32717,16.4972746 322.328634,16.5000462 322.330098,16.5028177" id="Fill-12" fill-opacity="0.07" fill="#DF6F22" sketch:type="MSShapeGroup"></path>
    </g>
</svg>