<?xml version="1.0" encoding="UTF-8" standalone="no"?>
<svg width="602px" height="16px" viewBox="0 0 602 16" version="1.1" xmlns="http://www.w3.org/2000/svg" xmlns:xlink="http://www.w3.org/1999/xlink" xmlns:sketch="http://www.bohemiancoding.com/sketch/ns" preserveAspectRatio='none'>
    <!-- Generator: Sketch 3.2 (9961) - http://www.bohemiancoding.com/sketch -->
    <title>underline</title>
    <desc>Created with Sketch.</desc>
    <defs></defs>
    <g id="Welcome" stroke="none" stroke-width="1" fill="none" fill-rule="evenodd" sketch:type="MSPage">
        <g id="Desktop-HD" sketch:type="MSArtboardGroup" transform="translate(-225.000000, -1101.000000)" fill-opacity="0.150000006" fill="#DF6F22">
            <g id="content-area" sketch:type="MSLayerGroup" transform="translate(152.000000, 955.000000)">
                <path d="M652.684495,169.993756 C653.651088,169.992215 654.617681,169.990674 655.584042,169.989133 C657.634812,169.985261 659.684424,169.981408 661.735194,169.978326 C662.686279,169.976784 663.635743,169.940509 664.586828,169.912709 C665.698086,169.879536 666.803789,169.81471 667.911344,169.735975 C668.910573,169.664194 669.866287,169.461991 670.835426,169.260559 C672.69084,168.875417 674,167.311773 674,165.712605 C674,163.696682 672.038807,162.047368 669.688986,162.033458 C669.623019,162.032688 669.556126,162.032688 669.489233,162.031917 C669.023296,161.978748 668.560831,161.993211 668.100912,162.074515 C666.886885,162.103658 665.672857,162.126281 664.457903,162.13288 C662.876773,162.12796 661.302356,162.101998 659.720532,162.061258 C658.391467,162.027294 657.066105,161.977128 655.737734,161.920779 C654.179057,161.854412 652.616676,161.810411 651.05985,161.718576 C649.257672,161.612831 647.455726,161.506336 645.65378,161.399821 C644.171023,161.311839 642.679007,161.258591 641.199027,161.135104 C637.383577,160.81789 633.567896,160.498365 629.752446,160.17955 C627.320224,159.976636 624.899806,159.716622 622.474759,159.459571 C618.34475,159.022723 614.214509,158.585084 610.083342,158.148236 C607.758751,157.902052 605.42791,157.702102 603.100541,157.482196 C598.658519,157.06313 594.216264,156.644064 589.775168,156.224207 C589.035641,156.154659 588.293336,156.059031 587.551032,156.014971 C586.47866,155.951745 585.406288,155.886939 584.334841,155.822924 C579.743525,155.5473 575.153134,155.272467 570.561817,154.997041 C568.121494,154.851228 565.679318,154.68368 563.236449,154.559403 C559.875594,154.389682 556.51497,154.219764 553.154115,154.050043 C547.181191,153.747549 541.207572,153.425692 535.232796,153.162516 C527.46348,152.818926 519.695785,152.475532 511.92647,152.13293 C505.007784,151.827274 498.083775,151.588006 491.163469,151.316334 C485.874057,151.107887 480.586728,150.891933 475.298242,150.671039 C460.669959,150.058345 446.046073,149.430833 431.419641,148.791861 C426.616766,148.582624 421.819215,148.384255 417.014489,148.221449 C408.354501,147.927451 399.694512,147.634046 391.03545,147.339257 C385.829365,147.162621 380.615873,147.075291 375.407937,146.954965 C368.526517,146.795123 361.646717,146.624612 354.765297,146.476428 C328.022196,145.899891 301.280715,145.28779 274.536688,144.790087 C269.143488,144.689717 263.751098,144.600213 258.358731,144.474355 C249.935599,144.278356 241.50888,144.080777 233.085772,143.883988 C227.365166,143.750424 221.643681,143.613896 215.923978,143.477171 C210.244087,143.342817 204.56327,143.175468 198.882452,143.097424 C184.378905,142.899054 169.875334,142.701474 155.373592,142.511601 C152.14032,142.470109 148.907973,142.427629 145.673798,142.38515 C143.540003,142.357291 141.406184,142.279445 139.273291,142.226098 C134.563534,142.107946 129.858314,142.003031 125.147654,142.000067 C122.375527,141.998487 119.603377,142.024765 116.833056,142.070998 C115.002131,142.101031 113.171229,142.115849 111.340303,142.149635 C107.041048,142.23084 102.743597,142.365787 98.4479524,142.537088 C89.9552199,142.877518 81.4715144,143.399325 73.0032014,144.042249 C72.9995905,144.042249 72.9986878,144.046003 73.0022987,144.046793 C77.4050882,144.663636 81.8144281,145.237012 86.2304574,145.765734 C85.6568668,145.812956 85.0835309,145.86156 84.5103801,145.91135 C83.7888842,145.973983 83.0682678,146.04195 82.3476514,146.111301 C81.4353598,146.200804 81.0628419,146.267191 80.1351811,146.450149 C79.0113084,146.671636 77.9055362,147.002779 76.8015693,147.285318 C76.7979354,147.286108 76.7988381,147.289862 76.8015693,147.289862 C77.9561573,147.286108 79.1098657,147.268326 80.2635741,147.262003 C81.069184,147.257459 81.832274,147.3276 82.6270282,147.404853 C83.3214198,147.472821 84.016714,147.535256 84.7111056,147.596308 C86.4226881,147.745283 88.1351502,147.88102 89.848515,148.011422 C92.851226,148.240812 95.8557425,148.440565 98.8620412,148.638935 C105.56366,149.081908 112.27882,149.44249 118.992174,149.727993 C122.098859,149.859976 125.202812,150.034438 128.311302,150.151603 C129.728115,150.204949 131.144929,150.304529 132.561742,150.373287 C134.627742,150.47346 136.69645,150.56 138.764255,150.626386 C139.711799,150.656418 140.65756,150.723595 141.603298,150.776744 C143.945064,150.908135 146.285928,151.038537 148.627694,151.16973 C151.709056,151.341822 154.792224,151.500873 157.874489,151.663678 C163.864519,151.979213 169.859965,152.241006 175.847286,152.596056 C182.826477,153.01038 189.802936,153.455724 196.779395,153.912725 C197.868895,153.984447 198.967446,154.003809 200.059677,154.048462 C202.512639,154.148833 204.96472,154.249993 207.417682,154.350166 C209.95566,154.454488 212.490906,154.576395 215.027056,154.705217 C218.728672,154.8943 222.429385,155.082593 226.131001,155.271084 C229.550509,155.445349 232.968235,155.673158 236.385937,155.874492 C243.121882,156.271231 249.859656,156.649398 256.59743,157.029936 C259.337013,157.184246 262.072082,157.392692 264.808077,157.580195 C267.755607,157.781726 270.70316,158.017043 273.655273,158.179058 C277.711214,158.402916 281.766461,158.625983 285.822402,158.849841 C288.059269,158.972538 290.290811,159.0899 292.530456,159.167746 C299.063754,159.396148 305.59821,159.631663 312.132434,159.846234 C318.712025,160.062386 325.292543,160.271425 331.871208,160.508402 C338.35289,160.741486 344.833878,161.014699 351.318569,161.162884 C355.922616,161.267838 360.527358,161.372812 365.131405,161.477766 C367.225459,161.52562 369.319512,161.592777 371.413334,161.605126 C378.508395,161.646795 385.605077,161.726301 392.699906,161.730925 C406.311138,161.73786 419.921443,161.761016 433.532443,161.790356 C446.847169,161.818907 460.160738,161.970944 473.474539,162.117588 C475.763022,162.143056 478.051273,162.200176 480.33883,162.243386 C484.923898,162.329827 489.508734,162.417039 494.092875,162.50348 C500.345176,162.621573 506.597478,162.721904 512.850474,162.827649 C518.711138,162.927209 524.571108,163.044512 530.431773,163.172642 C536.581767,163.307707 542.731993,163.42501 548.881061,163.607159 C553.475156,163.742995 558.068324,163.879601 562.662187,164.015437 C564.717355,164.07641 566.770671,164.118079 568.822366,164.236173 C573.167637,164.484688 577.512213,164.733974 581.856558,164.98326 C584.055465,165.109059 586.252519,165.226382 588.447028,165.399264 C595.04097,165.919451 601.638616,166.405674 608.224456,167.000744 C612.417887,167.379682 616.612243,167.758639 620.806599,168.138367 C623.567963,168.387653 626.335576,168.580609 629.100412,168.798243 C631.056281,168.951841 633.011919,169.10619 634.966632,169.259788 C635.797587,169.325385 636.632014,169.419551 637.465747,169.451184 C641.032605,169.587019 644.600388,169.723626 648.167246,169.859462 C649.342851,169.904233 650.518224,169.949756 651.693598,169.994527 C651.802154,169.998597 651.911174,170 652.020193,170 C652.241936,170 652.463909,169.99427 652.684495,169.993756 M295.23025,149.660816 C303.739092,149.713372 312.248166,149.766521 320.75724,149.819867 C326.261682,149.853851 331.765198,149.927943 337.268945,149.985834 C343.31941,150.049849 349.371958,150.086007 355.421728,150.181833 C363.581755,150.310654 371.74155,150.439476 379.902502,150.567705 C382.841167,150.614729 385.780526,150.66116 388.71896,150.707394 C390.492899,150.735253 392.266838,150.806974 394.039851,150.85874 C402.785018,151.111049 411.530879,151.363358 420.275814,151.616457 C425.491852,151.767803 430.703492,151.999366 435.916752,152.205441 C450.376067,152.775853 464.834456,153.346067 479.293771,153.915689 C484.753772,154.131051 490.214004,154.347203 495.674236,154.562564 C501.675168,154.800252 507.678645,155.006328 513.676799,155.288669 C521.656053,155.666243 529.636232,156.042039 537.615253,156.419416 C539.596352,156.513661 541.574674,156.637148 543.554615,156.748978 C545.924342,156.882542 548.293838,157.016106 550.663333,157.149274 C549.099563,157.122996 547.536025,157.096521 545.972487,157.070045 C539.35401,156.959005 532.73206,156.935691 526.112657,156.871675 C520.135335,156.813784 514.158013,156.790668 508.179533,156.762809 C502.177907,156.735938 496.17605,156.705708 490.173266,156.66481 C483.709638,156.620947 477.246705,156.555351 470.782846,156.55377 C457.625515,156.550609 444.46911,156.573725 431.312011,156.591508 C424.713439,156.600003 418.115794,156.613241 411.518148,156.616205 C404.919577,156.619366 398.321006,156.656314 391.723592,156.620947 C387.549836,156.598423 383.377237,156.576096 379.203712,156.55377 C377.162896,156.542903 375.122311,156.532036 373.081494,156.521367 C372.79309,156.519786 372.504686,156.519786 372.216282,156.519786 C371.623272,156.519786 371.03003,156.519786 370.437945,156.506548 C363.159333,156.344533 355.880953,156.189433 348.602572,156.031172 C346.255297,155.979604 343.909874,155.876863 341.564451,155.795065 C337.271722,155.64609 332.977837,155.497115 328.684877,155.34735 C322.155976,155.120529 315.625224,154.918207 309.096323,154.705217 C302.798886,154.499931 296.502375,154.249993 290.205864,154.020604 C289.502446,153.995314 288.799721,153.942757 288.098154,153.901858 C285.841382,153.769085 283.584609,153.636312 281.327837,153.503538 C278.488933,153.336979 275.642622,153.207169 272.808116,152.995759 C266.255629,152.506355 259.70592,151.996205 253.148989,151.574175 C246.003445,151.11342 238.858804,150.643378 231.714164,150.16326 C228.775244,149.965483 225.835792,149.780746 222.895461,149.60253 C227.321096,149.619521 231.746707,149.635723 236.172551,149.642243 C250.539581,149.66536 264.906611,149.677807 279.273595,149.657654 C282.468028,149.65311 285.66246,149.643231 288.85643,149.643231 C290.981268,149.643231 293.105412,149.647578 295.23025,149.660816" id="underline" sketch:type="MSShapeGroup" transform="translate(373.500000, 156.000000) rotate(-2.000000) translate(-373.500000, -156.000000) "></path>
            </g>
        </g>
    </g>
</svg>