<?xml version="1.0" encoding="UTF-8" standalone="no"?>
<svg width="1053px" height="30px" viewBox="0 0 1053 30" version="1.1" xmlns="http://www.w3.org/2000/svg" xmlns:xlink="http://www.w3.org/1999/xlink" xmlns:sketch="http://www.bohemiancoding.com/sketch/ns">
    <!-- Generator: Sketch 3.2.2 (9983) - http://www.bohemiancoding.com/sketch -->
    <title>underline2</title>
    <desc>Created with Sketch.</desc>
    <defs></defs>
    <g id="Page-1" stroke="none" stroke-width="1" fill="none" fill-rule="evenodd" sketch:type="MSPage">
        <path d="M775.577743,0.361092198 C768.04072,0.371964168 760.503564,0.355659691 752.966407,0.418150911 C702.443848,0.833873337 651.926471,1.28491749 601.403778,1.77399615 C578.19552,1.99951823 554.987128,2.15710962 531.778869,2.34730997 C510.184908,2.52392558 488.585765,2.58098429 466.986622,2.66521249 C424.390441,2.83367586 381.79426,2.73042344 339.19808,2.69510172 C305.230713,2.66572027 271.262549,2.66464211 237.29465,2.7549219 C224.207381,2.63770217 211.121042,2.52681225 198.03271,2.45599489 C184.193971,2.37991893 170.355099,2.303836 156.516361,2.22776004 C152.451912,2.20330332 148.392646,2.18156634 144.328198,2.15982936 C141.125381,2.1408121 137.896652,2.24949702 134.693969,2.29568377 C121.628626,2.48860385 108.568333,2.67879724 95.5029897,2.87171732 C92.3573277,2.91790406 89.2220574,3.09451966 86.0919696,3.22494157 C82.8887546,3.36143592 79.6889283,3.50750149 76.4918793,3.66555893 C69.4733238,3.71629479 52.6987895,5.12009355 50.6955211,5.27093779 C46.9477264,5.55079885 43.2051143,5.98825826 39.4832722,6.36593922 C35.7458559,6.74633296 32.0395881,7.18922488 28.3488812,7.68917551 C24.7191424,8.17863674 21.249943,8.8159512 17.7953877,9.5714592 C18.486421,9.41951594 19.1749029,9.2675866 19.8670259,9.11566421 C16.0569343,9.9090676 12.1845591,10.6372531 8.55095324,11.6371543 C5.17690019,12.5664121 1.7509419,14.2564644 0.712770708,16.2318102 C0.13139484,17.3403964 0.473988012,18.8810025 1.72498928,19.8700387 C2.74239041,20.6770199 3.87399368,21.5519387 5.53506759,22.0437371 C6.95737209,22.4676048 8.55095324,22.8670228 10.2276014,22.8778948 C12.147856,22.8896084 14.0140127,22.7033172 15.8961025,22.5368293 C19.3754809,22.6415216 22.8448264,22.6464254 26.3244441,22.606179 C30.2591162,22.5572725 34.1989842,22.6632377 38.133643,22.6659574 C43.1895401,22.6659574 48.2402412,22.6034662 53.2961383,22.5599922 C59.9144813,22.5029266 66.5276285,22.4458679 73.1459715,22.3888091 C82.7386733,22.3045809 92.3313751,22.2638198 101.924037,22.0763391 C124.467999,21.6415995 147.043057,21.3372817 169.566156,20.6580027 C193.091082,19.9488344 216.642053,19.3401989 240.156614,18.519626 C268.062656,17.5441815 295.958333,16.5660172 323.859059,15.5905657 C343.874999,14.8895497 363.896255,14.2972186 383.917378,13.6668461 C398.763127,13.1994975 413.603826,12.729436 428.449707,12.2620944 C433.526347,12.1017832 438.556212,11.9822264 443.643351,11.9278874 C473.381756,11.6154174 503.120162,11.3029473 532.858567,10.9877646 C538.137593,10.9334186 543.396021,10.8763599 548.669864,10.9171141 C562.851316,11.0230863 577.032768,11.1263387 591.21422,11.2323039 C606.059968,11.3437085 620.911032,11.4551062 635.762096,11.5665109 C641.383834,11.6072651 646.969162,11.7105175 652.5909,11.8409394 C678.835868,12.449575 705.080836,13.0690756 731.325804,13.6532613 C734.133949,13.7157526 736.942227,13.8488942 739.750505,13.9494269 C747.028135,14.2021184 754.300449,14.45481 761.578079,14.7020691 C776.200712,15.2020197 790.823345,15.6938181 805.445978,16.1747515 C812.74952,16.4165711 820.047881,16.7290411 827.346241,17.0143416 C843.256139,17.6392816 859.171354,18.2533497 875.081252,18.8592655 C890.558342,19.4484178 906.03676,20.0588131 921.511989,20.6764495 C929.194522,21.2941694 936.863634,21.9147968 944.519324,22.6360682 C955.575964,23.6794434 966.622105,24.7309702 977.683794,25.7634769 C983.81422,26.3367901 989.944513,26.9073855 996.069756,27.4779817 C999.241344,27.774148 1002.41307,28.0703142 1005.58465,28.3664804 C1008.83026,28.6695461 1012.08995,28.8933689 1015.35482,29.1156635 C1019.16533,29.3913879 1022.97836,29.6669 1026.80481,29.8663325 C1028.65272,29.964149 1030.50076,29.985886 1032.35386,29.9994716 C1036.93217,30.0266428 1040.88247,29.0022875 1044.6458,27.7822995 C1048.40913,26.5650284 1051.21741,24.7554241 1052.40089,22.5029266 C1053.60005,20.2205433 1052.98227,17.7343818 1050.69836,15.6938181 C1048.49219,13.7184723 1044.83264,12.2403574 1040.61245,11.6344346 C1039.33794,11.3536206 1038.31698,11.1310478 1037.2903,10.9144014 C1036.01034,10.8127418 1034.73025,10.7201458 1033.44844,10.6359384 C1030.45625,10.3642853 1027.50232,10.0130782 1024.54163,9.64007156 C1022.60548,9.398245 1020.6692,9.12109672 1018.70714,8.94448807 C1015.90922,8.6917965 1013.11131,8.44181771 1010.31353,8.19184587 C1003.09304,7.54244913 995.867371,6.89577212 988.646882,6.24638233 C983.383271,5.77360119 978.016009,5.50460515 972.710938,5.16496564 C964.67546,4.64599776 956.639981,4.12974265 948.604636,3.61348755 C945.526467,3.41514192 942.463845,3.18961984 939.369995,3.07278268 C932.720517,2.82009111 926.065856,2.56739954 919.416378,2.31470797 C911.70275,2.02397495 903.989121,1.73052218 896.275625,1.43707638 C893.700961,1.33925647 891.136661,1.22241932 888.556814,1.18438481 C874.121019,0.969727747 859.690406,0.75507764 845.254611,0.540427532 C837.772735,0.427937771 830.304945,0.29529 822.819482,0.29529 C806.494581,0.31761823 791.036095,0.339355214 775.577743,0.361092198 Z M84.0675324,15.9546619 C90.5716733,15.7427246 97.0861925,15.5715484 103.595476,15.3922201 C117.065855,15.0226913 130.530919,14.6531626 143.995983,14.2809141 C155.79479,13.9521466 167.61951,13.8135725 179.428682,13.5798982 C188.362204,13.4032825 197.295725,13.2239542 206.234296,13.0554908 C251.835957,12.1995962 297.442801,11.3165321 343.05496,10.5910594 C366.564339,10.2160982 390.073717,9.74060424 413.583095,9.47976043 C427.691858,9.32216904 441.795306,9.16457069 455.898887,9.00969902 C465.97443,8.89557464 476.060205,8.72711823 486.135614,8.67277229 C496.58749,8.61679869 507.039632,8.56192411 517.491109,8.50730689 C510.764557,8.57786688 504.038137,8.648406 497.311585,8.71896599 C481.536566,8.88470963 465.761546,9.05317299 449.986527,9.21891662 C444.45834,9.27597534 438.924838,9.28956008 433.4017,9.46345595 C385.06445,10.9877646 336.727199,12.4957687 288.410811,14.185814 C267.559151,14.9167192 246.717856,15.6856659 225.855698,16.3160384 C209.790057,16.7996915 193.729599,17.2860504 177.669007,17.7697035 C170.194175,17.9952256 162.719342,18.2587822 155.234144,18.4027889 C135.540053,18.7831895 115.851145,19.166303 96.1570542,19.5466968 C87.1405191,19.7178799 78.0928622,19.6934231 69.065962,19.7667863 C55.4244656,19.8780171 41.7873146,20.0271015 28.15617,19.6083463 C26.9634924,19.5172597 25.7733263,19.4228759 24.5851535,19.3228789 C25.2342879,19.2786398 25.8833027,19.2330443 26.5320783,19.1853203 C28.3852255,19.0467461 30.264312,18.7560201 32.1122501,18.5712522 C33.5401491,18.4287967 34.9770046,18.3145889 36.4160395,18.2059457 C43.5398007,17.7529539 50.7000658,17.5114056 57.8329431,17.0849851 C66.5483985,16.5605847 75.3105634,16.2372427 84.0675324,15.9546619 Z M836.892233,15.3704831 C827.517531,14.9248714 818.137646,14.4194883 808.747395,14.0445271 C796.445083,13.5554414 784.142639,13.0690756 771.840326,12.5908619 C762.567282,12.2296176 753.295167,11.8725468 744.022122,11.5194477 C746.838772,11.5813685 749.656618,11.6433311 752.473268,11.705085 C759.880594,11.8681089 767.267191,12.1914509 774.664152,12.4658795 C790.216056,13.0473386 805.77301,13.6233721 821.324781,14.2021184 C829.022862,14.4901317 836.65862,14.9574804 844.330655,15.4112373 C854.653498,16.0191495 864.975545,16.6306508 875.299983,17.240135 C862.500146,16.6031196 849.697784,15.9790978 836.892233,15.3704831 M13.7432709,20.3661637 C13.5455367,20.4462392 13.3478025,20.5263079 13.1500549,20.6063765 C13.3409854,20.520451 13.5388791,20.4404172 13.7432709,20.3661637" id="underline2" fill-opacity="0.0399999991" fill="#064457" sketch:type="MSShapeGroup"></path>
    </g>
</svg>