<?xml version="1.0" encoding="UTF-8" standalone="no"?>
<svg width="604px" height="33px" viewBox="0 0 604 33" version="1.1" xmlns="http://www.w3.org/2000/svg" xmlns:xlink="http://www.w3.org/1999/xlink" xmlns:sketch="http://www.bohemiancoding.com/sketch/ns">
    <!-- Generator: Sketch 3.2.2 (9983) - http://www.bohemiancoding.com/sketch -->
    <title>underline3</title>
    <desc>Created with Sketch.</desc>
    <defs></defs>
    <g id="Page-1" stroke="none" stroke-width="1" fill="none" fill-rule="evenodd" sketch:type="MSPage">
        <path d="M206.950507,-0.983436128 C205.695912,-0.962566074 204.438542,-0.93975462 203.183391,-0.918884566 C194.216445,-0.761631138 185.24728,-0.606319109 176.280334,-0.450521731 C172.261854,-0.380631318 168.245595,-0.310255556 164.226561,-0.240365143 C163.09293,-0.221436489 161.961519,-0.200566436 160.827888,-0.181637782 C160.444463,-0.173872181 160.056598,-0.181637782 159.674837,-0.158826328 C152.797589,0.229939092 145.922005,0.618704513 139.046422,1.00698458 C125.330768,1.78257402 111.612339,2.55233926 97.8961301,3.3162803 C92.5531398,3.61428526 87.2145886,3.90986346 81.8693788,4.16176016 C77.2005741,4.3821091 72.5317694,4.60197269 67.8651842,4.82183628 C65.825426,4.91842094 63.7884421,5.00190116 61.7509034,5.12518008 C55.0489991,5.52510855 48.3404361,5.86436827 41.6490746,6.38563426 C34.3467844,6.95640596 27.0378356,7.50630761 19.7721679,8.38624732 C16.3696114,8.79928025 13.0142201,9.44964937 9.64551162,10.0354669 C8.50133818,10.2344605 7.35050613,10.4014209 6.20799735,10.6042972 C5.60539194,10.7125303 5.00278653,10.8261022 4.39574205,10.9154066 C3.37086895,11.0668359 2.61844452,11.6812891 1.83605628,12.2176009 C1.14466923,12.6937294 0.888867119,13.5256194 0.735163898,14.2366573 C0.687443765,14.5516495 0.63750409,14.8661563 0.589783957,15.1826046 C0.63750409,15.6815445 0.730724816,16.1741748 0.869446135,16.6595249 C1.01260654,16.9555885 1.15354739,17.2511667 1.29615291,17.5472302 C1.51755213,18.0078275 1.8316172,18.418919 2.24167742,18.7775927 C2.71388478,19.2910931 3.2859715,19.7385859 3.9301933,20.0914354 C4.64100134,20.4802008 5.41229187,20.7243319 6.19523499,20.9825382 C6.40331696,21.0242783 6.6130636,21.0660184 6.82114557,21.1077585 C7.44539151,21.2004603 8.06963744,21.2781164 8.69832245,21.3426679 C11.0721217,21.5358373 13.4303841,21.51885 15.810287,21.4542984 C18.3322406,21.3848934 20.8675114,21.2596731 23.379477,21.0291318 C22.020563,21.3077227 20.6622038,21.586799 19.3043996,21.8658753 C14.3969942,22.8763742 9.54174807,24.0839252 4.66930049,25.2157616 C4.66042232,25.217703 4.66264186,25.2293514 4.67096514,25.22741 C9.72818952,24.1635226 14.765438,23.024406 19.8526262,22.0687517 C22.3429513,21.6028156 24.8321667,21.133482 27.3219369,20.6636632 C28.0166532,20.5991116 28.7108147,20.5350454 29.4049762,20.4704938 C32.8402709,20.1521042 36.273901,19.8337145 39.7069762,19.5148395 C42.6573012,19.2401313 45.5981931,18.8969888 48.5418595,18.5878208 C52.9482034,18.1272236 57.3551023,17.664685 61.7614462,17.2021463 C67.7220238,16.5779861 73.7003578,16.0664271 79.6698135,15.5107013 C85.0583044,15.0103053 90.4445758,14.4812737 95.8391704,14.0337809 C104.541991,13.31158 113.244257,12.5874377 121.947077,11.8652368 C123.802614,11.7113808 125.659815,11.5293745 127.51979,11.4041542 C130.018993,11.2337963 132.520416,11.0648945 135.021839,10.8959926 C143.999328,10.289305 152.975152,9.68261741 161.953196,9.0759298 C163.517972,8.97012348 165.084968,8.83519615 166.654184,8.76142294 C169.138405,8.64590962 171.620407,8.52991095 174.104074,8.41439763 C183.331261,7.9858335 192.558448,7.55581332 201.785635,7.12724919 C204.269302,7.01173587 206.753523,6.8957372 209.237744,6.78022388 C210.642159,6.71373092 212.055452,6.71178952 213.462086,6.67975641 C222.407391,6.47882148 231.354916,6.27788654 240.300222,6.0750102 C244.123936,5.98958859 247.944876,5.90416697 251.766371,5.81728931 C252.941063,5.79059505 254.115756,5.74885494 255.291003,5.74885494 C262.614933,5.74497214 269.938864,5.74108934 277.262795,5.73575049 C284.736544,5.73186769 292.210294,5.72798489 299.685709,5.72410209 C300.832656,5.72216069 301.979049,5.78088805 303.128217,5.82262816 C306.934175,5.95755548 310.740133,6.09005606 314.546646,6.22449803 C323.198972,6.52978324 331.849633,6.83506844 340.500295,7.14035365 C341.679426,7.18209375 342.860777,7.20490521 344.035469,7.29760708 C347.170016,7.54610632 350.301788,7.79654697 353.434116,8.04456086 C362.164681,8.73861149 370.895245,9.43460351 379.626365,10.1281688 C380.870418,10.2271802 382.108367,10.3159993 383.345761,10.4601482 C386.792154,10.8620181 390.238546,11.263888 393.684938,11.6657579 C401.642548,12.5942326 409.599603,13.5227073 417.559987,14.451182 C424.646982,15.4679905 431.730092,16.4945059 438.814868,17.5147118 C442.100898,17.9888988 445.388593,18.4626005 448.674624,18.9367875 C450.493538,19.1983912 452.299135,19.5526968 454.106396,19.867689 C461.545743,21.1645444 468.984535,22.4628559 476.429985,23.7388413 C477.177971,23.8679444 477.918743,24.0329635 478.662289,24.1790538 C480.799707,24.5998524 482.93879,25.0187095 485.078427,25.4375666 C489.068607,26.2189803 493.063226,26.9960258 497.056181,27.7696738 C500.257314,28.3894659 503.4418,29.0873993 506.634055,29.7450486 C510.007203,30.4390993 513.368698,31.1481958 516.732967,31.8801037 C518.347684,32.2305265 519.988479,32.5285314 521.585994,32.9284599 C523.430433,33.3929399 525.274871,33.8423741 527.125969,34.2801599 C528.099237,34.5116719 529.059744,34.796087 530.028573,35.0441009 C530.791541,35.239697 531.554508,35.4425733 532.317475,35.6396255 C533.856727,36.0405246 535.422058,36.3768723 536.949657,36.8068924 C536.636702,36.8796949 536.317088,36.9224058 535.99359,36.9762796 C535.984712,36.978221 535.986931,36.9874427 535.99581,36.9874427 C536.476895,36.9952083 536.929682,37.0121955 537.398005,36.9156109 C537.500104,36.8947408 537.530067,36.7525332 537.428523,36.7107931 C536.197233,36.2103972 534.898801,35.8347362 533.615907,35.4556778 C532.135473,35.017892 530.646161,34.6043737 529.155184,34.1986211 C526.406282,33.4497259 523.634076,32.7464536 520.846887,32.1169545 C513.79374,30.5245209 506.716733,29.0116847 499.637507,27.5041873 C493.019945,26.0937599 486.380743,24.7571058 479.748199,23.4034644 C473.850324,22.1997962 467.896405,21.2043431 461.961907,20.1521042 C458.138192,19.4750408 454.314478,18.7965214 450.491318,18.1175166 C448.972042,17.8486326 447.441669,17.6379907 445.913515,17.4103615 C437.412118,16.1518487 428.913495,14.8909092 420.412652,13.6299697 C415.450868,12.8946643 410.453017,12.3505868 405.469592,11.7419578 C397.904841,10.8183366 390.34009,9.89520075 382.775894,8.97400628 C381.264941,8.7881172 379.736787,8.69687138 378.219731,8.56437081 C373.975414,8.19647544 369.731651,7.83052147 365.489553,7.46262611 C358.158964,6.82778819 350.828374,6.19440632 343.497785,5.55908306 C342.054528,5.43434809 340.586857,5.42269968 339.139161,5.35814812 C335.027461,5.17420044 330.915762,4.99219416 326.801842,4.81018787 C318.843123,4.45782371 310.881629,4.1040035 302.922909,3.75163933 C305.351642,3.74338838 307.780375,3.73562278 310.209108,3.72785718 C312.186164,3.72106228 314.161001,3.72640113 316.135837,3.74047628 C318.624498,3.8521068 321.112603,3.96567872 323.595715,4.1428315 C331.275327,4.68690895 338.9505,5.23147175 346.627893,5.7755492 C355.493295,6.40504826 364.360362,7.03406198 373.225764,7.66356104 C376.349213,7.88536603 379.466003,8.10522962 382.580574,8.39352757 C398.964672,9.912188 415.347105,11.4308484 431.731202,12.9475675 C432.63622,13.0320184 433.541793,13.1164693 434.44903,13.1994641 C449.045842,14.9491512 463.640435,16.6993236 478.235582,18.4514374 C481.740237,18.8702946 485.238789,19.2930345 488.730682,19.780326 C497.422405,20.9917598 506.116347,22.205135 514.81029,23.4165689 C519.866959,24.1217825 524.921964,24.8274816 529.980853,25.5326952 C534.85552,26.2131561 539.719645,26.956227 544.589873,27.6692063 C551.372235,28.6607766 558.156263,29.6542882 564.938625,30.6458584 C565.333149,30.7045858 565.729892,30.7613717 566.124415,30.8200991 C567.981616,31.0914098 569.858793,31.2904033 571.722653,31.531137 C573.963834,31.8233177 576.203351,32.1111303 578.448417,32.382441 C582.30487,32.8508039 586.17131,33.2259795 590.057727,33.4458431 C594.085084,33.6734723 598.125204,33.2070508 602.144238,33.0022331 C602.573164,32.9794216 602.952706,32.7614994 603.069787,32.3843824 C603.195191,31.9897928 602.978785,31.6641229 602.629763,31.4345523 C602.432778,31.3083613 602.238014,31.1807142 602.042694,31.0530671 C601.582694,30.7385603 601.159317,30.4585133 600.674347,30.1605083 C600.437966,30.0503339 600.202139,29.9425861 599.965758,29.8324117 C599.636156,29.6902041 599.304335,29.5577035 598.96641,29.4344246 C598.0736,29.1364196 597.189112,28.8937446 596.265783,28.6777638 C595.333576,28.4598416 594.375844,28.3137512 593.428655,28.152615 C591.776761,27.8681999 590.144844,27.5367057 588.507932,27.1989021 C584.194809,26.3077993 579.881686,25.4166966 575.568008,24.5255938 C569.791652,23.3316326 563.948155,22.3851999 558.127964,21.3577138 C553.873103,20.6068772 549.618243,19.8560406 545.361718,19.103748 C544.017786,18.8664118 542.678293,18.6217953 541.323263,18.428626 C533.199743,17.2628151 525.075667,16.0965188 516.951592,14.9307079 C513.297118,14.4055591 509.642643,13.8823517 505.986504,13.3572029 C504.923899,13.2052883 503.870727,13.0630808 502.802018,12.9514503 C494.806121,12.1171334 486.808005,11.2828166 478.814327,10.4504412 C474.531168,10.0034338 470.248008,9.55788244 465.965404,9.11038965 C464.681954,8.97740373 463.39684,8.84296176 462.111171,8.70851978 C461.630085,8.65901407 461.149,8.59057971 460.665695,8.5585466 C454.431559,8.13386528 448.197977,7.70724255 441.964396,7.28256122 C433.562878,6.70984812 425.16136,6.13567896 416.760397,5.56296586 C412.945561,5.30330356 409.119627,5.19507049 405.294248,5.04558267 C395.958303,4.6815701 386.622914,4.31561613 377.285304,3.95160357 C374.008152,3.82250044 370.72878,3.69582407 367.451073,3.56672095 C366.512762,3.53080504 365.578335,3.49634519 364.640024,3.48518213 C354.47841,3.35850576 344.317906,3.23134404 334.157956,3.10466766 C333.438825,3.05758871 332.720248,3.0109951 332.001672,2.96391614 C329.045243,2.77026145 326.090479,2.57709212 323.13627,2.38537883 C322.31504,2.33053427 321.495474,2.27568971 320.672024,2.24122986 C313.8486,1.95341726 307.022957,1.6651193 300.197313,1.37682135 C290.890222,0.984658479 281.584796,0.592010258 272.277705,0.199362037 C268.74919,0.0518156101 265.2179,-0.156884928 261.687165,-0.209788087 C245.495613,-0.449065681 229.302396,-0.689799324 213.110844,-0.928591568 C211.428986,-0.953344422 209.748794,-0.977611927 208.066936,-1.00430618 C208.030869,-1.00479153 207.994246,-1.00479153 207.958179,-1.00479153 C207.623028,-1.00479153 207.285103,-0.990231029 206.950507,-0.983436128 M42.6267825,7.38108729 C43.4674337,7.29760708 44.3108593,7.19519821 45.1542849,7.14035365 C46.7473605,7.03794478 48.3426557,6.93747731 49.9357313,6.83506844 C54.0518703,6.57152334 58.1657897,6.30797825 62.2819286,6.04637455 C64.4731706,5.90610837 66.6755102,5.83427656 68.8711912,5.73186769 C75.3261716,5.43580414 81.7872558,5.18196604 88.2400166,4.83494073 C96.5721739,4.38744795 104.905996,3.93995517 113.240373,3.49294773 C126.715761,2.77026145 140.188931,2.03495607 153.66432,1.30498954 C155.682437,1.19481507 157.702775,1.08512595 159.720337,0.976892878 C160.154258,0.952140024 160.595946,0.963788426 161.032086,0.957964225 C162.347719,0.939035571 163.663352,0.918165517 164.976766,0.899236864 C174.006414,0.76819234 183.036617,0.635691766 192.064045,0.502705842 C196.013719,0.445919882 199.962837,0.387192521 203.909736,0.330406561 C205.314151,0.309536507 206.729663,0.244984945 208.134078,0.2716792 C214.070795,0.37942692 220.008068,0.487659989 225.942566,0.595893059 C235.258534,0.764309539 244.572284,0.93515277 253.886033,1.1040546 C257.432305,1.16812081 260.982461,1.17588641 264.526513,1.34090544 C275.816209,1.86605424 287.10535,2.39120303 298.394491,2.91635183 C291.830198,2.93819258 285.26757,2.95954799 278.704387,2.98090339 C274.852928,2.99400784 271.000914,3.00759765 267.149456,3.0207021 C266.690011,3.0226435 266.23223,3.0226435 265.775005,3.0207021 C264.808395,3.0207021 263.839565,3.0187607 262.875174,3.03380655 C260.739421,3.06923711 258.604222,3.10515301 256.469024,3.14058357 C255.944657,3.13475937 255.420291,3.12893517 254.896479,3.12311097 C253.394405,3.10612371 251.887891,3.14203962 250.385817,3.15126127 C241.37559,3.21193003 232.364808,3.27259879 223.354581,3.33326756 C219.615764,3.35802041 215.874172,3.38277326 212.135355,3.40752612 C211.001725,3.41480637 209.870314,3.41480637 208.736683,3.44344203 C201.01379,3.64049416 193.288677,3.8375463 185.563564,4.03508378 C179.204579,4.19816141 172.842819,4.37240209 166.48106,4.52237527 C164.408563,4.57139563 162.336622,4.69273315 160.26468,4.78009617 C155.727938,4.96598525 151.188976,5.15333039 146.652234,5.34116087 C142.163767,5.52510855 137.676965,5.71099764 133.187943,5.89688672 C131.260827,5.97648414 129.327606,6.0332701 127.40049,6.13567896 C120.228043,6.51862018 113.056151,6.9015614 105.883704,7.28450262 C100.716057,7.55921077 95.5467459,7.80965142 90.3835384,8.14163088 C82.0191978,8.67600133 73.6570767,9.21085712 65.2921812,9.74522757 C62.4184304,9.92917525 59.5507833,10.1834987 56.6809167,10.4125839 C51.3162859,10.8430895 45.9538746,11.273595 40.5870242,11.7041005 C36.8631891,12.0016201 33.1326955,12.2612824 29.4049762,12.537932 C27.2070756,12.7010096 25.0091751,12.8640872 22.8112745,13.0271649 C20.8602979,13.1713138 18.8965589,13.2261584 16.9394785,13.29071 C15.0190206,13.3547762 13.0913492,13.3829265 11.1697815,13.3125507 C11.1847634,13.3052705 11.1997453,13.2979902 11.2147272,13.29071 C11.6070311,13.1009381 11.9976703,12.9116515 12.3899742,12.7218797 C13.0336411,12.4093142 13.8160293,12.1685806 14.494654,11.9161985 C14.3686951,11.9637628 14.2427361,12.0089004 14.1151125,12.0564647 C14.7998409,11.8079654 15.4895633,11.573056 16.1848346,11.3493096 C16.8767765,11.1561403 17.5720477,10.9721926 18.2700934,10.7955252 C19.6617457,10.4353954 21.0728189,10.1301102 22.4816726,9.83064918 C23.2685,9.66368875 24.0986083,9.58991554 24.8965333,9.47051942 C27.1599104,9.13077436 29.4238423,8.79248535 31.6894389,8.45274028 C35.33559,8.09358122 38.9800765,7.73830496 42.6267825,7.38108729 M566.050616,27.843447 C562.664706,27.3391683 559.279351,26.8329481 555.893441,26.3286694 C547.849824,25.128884 539.806207,23.9286132 531.764809,22.726401 C530.622301,22.5579845 529.478127,22.4080114 528.333399,22.2546407 C524.678924,21.7654079 521.022231,21.2742336 517.365537,20.7835446 C508.463512,19.5890981 499.561488,18.3927101 490.659463,17.1982635 C488.955965,16.9686929 487.252468,16.710972 485.542311,16.5192587 C483.777776,16.3202652 482.011021,16.1212717 480.244822,15.9222781 C471.373316,14.9248837 462.501255,13.9279746 453.629749,12.9305802 C447.311271,12.2195423 440.995567,11.5085044 434.677088,10.7974666 C433.504615,10.6669074 432.321045,10.5926488 431.146353,10.4921814 C427.576221,10.1854401 424.008309,9.88015489 420.440951,9.57486969 C410.970725,8.76336434 401.503272,7.95185899 392.035265,7.14035365 C388.69763,6.85593849 385.35944,6.56958194 382.02125,6.28371074 C381.050201,6.20023053 380.081371,6.10510191 379.108102,6.0410357 C369.478623,5.41299268 359.850809,4.78397897 350.221885,4.1544799 C355.369555,4.21903147 360.518336,4.28309768 365.665452,4.34764924 C367.167526,4.36657789 368.67404,4.46364791 370.173895,4.52237527 C374.170733,4.6796287 378.167572,4.83494073 382.162191,4.99025276 C391.170753,5.34310227 400.176541,5.69595178 409.182329,6.04637455 C410.923004,6.11480891 412.66146,6.18324327 414.399916,6.25119229 C414.854921,6.26817954 415.308263,6.31380245 415.761049,6.3443795 C417.119963,6.43708137 418.478877,6.52978324 419.836127,6.62297045 C428.913495,7.24082111 437.990863,7.86109853 447.068786,8.48089059 C450.721041,8.72938984 454.375515,8.97934513 458.02999,9.22784438 C459.130882,9.30355899 460.233994,9.36228635 461.331002,9.47634362 C468.925717,10.268435 476.520986,11.0610117 484.115701,11.851647 C490.72161,12.5408441 497.326965,13.2319826 503.932874,13.9192383 C510.496057,14.8593614 517.056465,15.801426 523.619094,16.7430051 C528.027657,17.376387 532.434556,18.0097689 536.843119,18.640724 C538.175954,18.8324373 539.509343,19.0241506 540.842178,19.2153785 C541.306062,19.2818715 541.776604,19.336716 542.240488,19.4182548 C549.6815,20.7320975 557.122512,22.0459402 564.563523,23.3597829 C567.170929,23.8203801 569.77667,24.2795213 572.384076,24.7401185 C573.223063,24.8881503 574.053171,25.0890853 574.885499,25.2613845 C577.139443,25.7336302 579.393942,26.2039344 581.650105,26.6756947 C584.183711,27.2047263 586.717872,27.7337579 589.253698,28.2647309 C589.923445,28.4049971 590.588752,28.5472046 591.254614,28.6986339 C592.500887,28.9811076 593.7688,29.2009712 595.021731,29.4625749 C596.218618,29.7115595 597.36945,30.0508192 598.509184,30.4580279 C598.776639,30.5749973 599.045759,30.6919667 599.313213,30.808936 C599.269932,30.778359 599.226651,30.7502087 599.18337,30.7196316 C599.466916,30.894843 599.731597,31.0884977 599.976856,31.3020517 C597.773407,31.2928301 595.569957,31.3025371 593.367618,31.2297346 C591.889403,31.1821703 590.408969,31.0457869 588.935194,30.9302736 C587.458089,30.8162163 585.987089,30.6545947 584.518862,30.4920024 C578.337995,29.7528143 572.198189,28.7627001 566.050616,27.843447" id="Fill-1" fill-opacity="0.08" fill="#DF6F22" sketch:type="MSShapeGroup" transform="translate(301.847746, 17.994472) rotate(-1.000000) translate(-301.847746, -17.994472) "></path>
    </g>
</svg>