<?xml version="1.0" encoding="UTF-8" standalone="no"?>
<svg class="logo-img-sticky kl-default-logo" width="125px" height="55px" viewBox="0 0 125 55" version="1.1" xmlns="http://www.w3.org/2000/svg" xmlns:xlink="http://www.w3.org/1999/xlink">
    <path d="M19.87,18.92 L22.23,18.92 L22.23,25.74 L28.63,18.92 L31.63,18.92 L26.01,25.04 L31.71,32.9 L28.91,32.9 L24.27,26.78 L22.23,28.98 L22.23,32.9 L19.87,32.9 L19.87,18.92 Z M35.93,29.72 L34.53,32.9 L32.01,32.9 L38.17,18.92 L40.69,18.92 L46.85,32.9 L44.33,32.9 L42.93,29.72 L35.93,29.72 Z M41.97,27.54 L39.43,21.78 L36.89,27.54 L41.97,27.54 Z M48.79,32.9 L48.79,18.92 L51.15,18.92 L51.15,30.66 L57.53,30.66 L57.53,32.9 L48.79,32.9 Z M60.11,32.9 L60.11,18.92 L62.47,18.92 L62.47,30.66 L68.85,30.66 L68.85,32.9 L60.11,32.9 Z M75.61,32.9 L73.21,32.9 L73.21,27.38 L68.01,18.92 L70.59,18.92 L74.41,25.28 L78.23,18.92 L80.81,18.92 L75.61,27.38 L75.61,32.9 Z M83.55,29.72 L82.15,32.9 L79.63,32.9 L85.79,18.92 L88.31,18.92 L94.47,32.9 L91.95,32.9 L90.55,29.72 L83.55,29.72 Z M89.59,27.54 L87.05,21.78 L84.51,27.54 L89.59,27.54 Z M98.95,21.18 C98.5099978,21.4600014 98.29,21.8833305 98.29,22.45 C98.29,23.0166695 98.5099978,23.4499985 98.95,23.75 C99.3900022,24.0500015 100.32666,24.3733316 101.76,24.72 C103.193341,25.0666684 104.27333,25.5533302 105,26.18 C105.72667,26.8066698 106.09,27.7299939 106.09,28.95 C106.09,30.1700061 105.630005,31.1599962 104.71,31.92 C103.789995,32.6800038 102.583341,33.06 101.09,33.06 C98.9033224,33.06 96.9633418,32.3066742 95.27,30.8 L96.75,29.02 C98.1633404,30.2466728 99.6299924,30.86 101.15,30.86 C101.910004,30.86 102.513331,30.6966683 102.96,30.37 C103.406669,30.0433317 103.63,29.6100027 103.63,29.07 C103.63,28.5299973 103.420002,28.1100015 103,27.81 C102.579998,27.5099985 101.856672,27.2366679 100.83,26.99 C99.8033282,26.7433321 99.023336,26.5166677 98.49,26.31 C97.956664,26.1033323 97.4833354,25.833335 97.07,25.5 C96.2433292,24.8733302 95.83,23.9133398 95.83,22.62 C95.83,21.3266602 96.2999953,20.3300035 97.24,19.63 C98.1800047,18.9299965 99.3433264,18.58 100.73,18.58 C101.623338,18.58 102.509996,18.7266652 103.39,19.02 C104.270004,19.3133348 105.029997,19.726664 105.67,20.26 L104.41,22.04 C103.996665,21.6666648 103.43667,21.3600012 102.73,21.12 C102.02333,20.8799988 101.32667,20.76 100.64,20.76 C99.9533299,20.76 99.3900022,20.8999986 98.95,21.18 L98.95,21.18 Z" fill="#FFFFFF"></path>
</svg>