<?xml version="1.0" encoding="UTF-8" standalone="no"?>
<svg class="logo-img kl-default-logo" width="125px" height="55px" viewBox="0 0 125 55" version="1.1" xmlns="http://www.w3.org/2000/svg" xmlns:xlink="http://www.w3.org/1999/xlink">
    <path d="M32.2071285,47 L31.0450191,47 L31.0450191,38.0380859 L27.8799801,38.0380859 L27.8799801,37.0058594 L35.3721676,37.0058594 L35.3721676,38.0380859 L32.2071285,38.0380859 L32.2071285,47 Z M50.2639647,47 L49.1018553,47 L49.1018553,42.296875 L43.8381834,42.296875 L43.8381834,47 L42.676074,47 L42.676074,37.0058594 L43.8381834,37.0058594 L43.8381834,41.2578125 L49.1018553,41.2578125 L49.1018553,37.0058594 L50.2639647,37.0058594 L50.2639647,47 Z M64.3764648,47 L58.8051758,47 L58.8051758,37.0058594 L64.3764648,37.0058594 L64.3764648,38.0380859 L59.9672852,38.0380859 L59.9672852,41.2578125 L64.1098633,41.2578125 L64.1098633,42.2832031 L59.9672852,42.2832031 L59.9672852,45.9609375 L64.3764648,45.9609375 L64.3764648,47 Z M76.8141603,47 L73.4235353,38.140625 L73.3688478,38.140625 C73.4326502,38.8424514 73.464551,39.6764275 73.464551,40.6425781 L73.464551,47 L72.3913088,47 L72.3913088,37.0058594 L74.1413088,37.0058594 L77.3063478,45.25 L77.3610353,45.25 L80.5534182,37.0058594 L82.2897463,37.0058594 L82.2897463,47 L81.1276369,47 L81.1276369,40.5605469 C81.1276369,39.8222619 81.1595376,39.0201866 81.22334,38.1542969 L81.1686525,38.1542969 L77.7506838,47 L76.8141603,47 Z M96.4022465,47 L90.8309574,47 L90.8309574,37.0058594 L96.4022465,37.0058594 L96.4022465,38.0380859 L91.9930668,38.0380859 L91.9930668,41.2578125 L96.1356449,41.2578125 L96.1356449,42.2832031 L91.9930668,42.2832031 L91.9930668,45.9609375 L96.4022465,45.9609375 L96.4022465,47 Z" fill="#FFFFFF"></path>
    <path d="M7.8785,18.4285 L8.6615,18.4285 C9.38650362,18.4285 9.9084984,18.2013356 10.2275,17.747 L14.9835,10.845 C15.2445013,10.4679981 15.5417483,10.211834 15.87525,10.0765 C16.2087517,9.94116599 16.6171642,9.8735 17.1005,9.8735 L21.3635,9.8735 L15.0995,18.414 C14.8771656,18.7233349 14.6451679,18.979499 14.4035,19.1825 C14.1618321,19.385501 13.9153346,19.554666 13.664,19.69 C14.0313352,19.825334 14.3672485,20.0114155 14.67175,20.24825 C14.9762515,20.4850845 15.2541654,20.8016647 15.5055,21.198 L21.8855,31 L17.5065,31 C17.2261653,31 16.9869177,30.9806669 16.78875,30.942 C16.5905823,30.9033331 16.4190007,30.8453337 16.274,30.768 C16.1289993,30.6906663 16.0033339,30.5964172 15.897,30.48525 C15.7906661,30.3740828 15.6891671,30.2460007 15.5925,30.101 L10.8075,22.7495 C10.6334991,22.478832 10.4135847,22.2879172 10.14775,22.17675 C9.88191534,22.0655828 9.5218356,22.01 9.0675,22.01 L7.8785,22.01 L7.8785,31 L2.9775,31 L2.9775,9.8735 L7.8785,9.8735 L7.8785,18.4285 Z M43.3455,31 L39.5465,31 C39.1211645,31 38.7707514,30.9009177 38.49525,30.70275 C38.2197486,30.5045823 38.0288339,30.2508349 37.9225,29.9415 L36.6755,26.2585 L28.6425,26.2585 L27.3955,29.9415 C27.2988328,30.212168 27.1103347,30.4562489 26.83,30.67375 C26.5496653,30.8912511 26.206502,31 25.8005,31 L21.9725,31 L30.1505,9.8735 L35.1675,9.8735 L43.3455,31 Z M29.7735,22.9235 L35.5445,22.9235 L33.6015,17.138 C33.4758327,16.7706648 33.3284175,16.3380858 33.15925,15.84025 C32.9900825,15.3424142 32.8233342,14.8035029 32.659,14.2235 C32.5043326,14.8131696 32.3448342,15.3593308 32.1805,15.862 C32.0161658,16.3646692 31.8615007,16.7996648 31.7165,17.167 L29.7735,22.9235 Z M49.9575,27.085 L57.7875,27.085 L57.7875,31 L45.0565,31 L45.0565,9.8735 L49.9575,9.8735 L49.9575,27.085 Z M65.0085,27.085 L72.8385,27.085 L72.8385,31 L60.1075,31 L60.1075,9.8735 L65.0085,9.8735 L65.0085,27.085 Z M82.2055,22.967 L82.2055,31 L77.3045,31 L77.3045,22.967 L69.6485,9.8735 L73.9695,9.8735 C74.3948355,9.8735 74.7331654,9.97258234 74.9845,10.17075 C75.2358346,10.3689177 75.4388326,10.6226651 75.5935,10.932 L78.5805,17.08 C78.8221679,17.5730025 79.044499,18.0273313 79.2475,18.443 C79.450501,18.8586687 79.6293326,19.269498 79.784,19.6755 C79.9290007,19.2598313 80.102999,18.8441687 80.306,18.4285 C80.509001,18.0128313 80.7264988,17.5633358 80.9585,17.08 L83.9165,10.932 C83.9745003,10.8063327 84.0542495,10.6806673 84.15575,10.555 C84.2572505,10.4293327 84.3732493,10.3157505 84.50375,10.21425 C84.6342507,10.1127495 84.7840825,10.0305836 84.95325,9.96775 C85.1224175,9.90491635 85.308499,9.8735 85.5115,9.8735 L89.8615,9.8735 L82.2055,22.967 Z M108.0735,31 L104.2745,31 C103.849165,31 103.498751,30.9009177 103.22325,30.70275 C102.947749,30.5045823 102.756834,30.2508349 102.6505,29.9415 L101.4035,26.2585 L93.3705,26.2585 L92.1235,29.9415 C92.0268329,30.212168 91.8383347,30.4562489 91.558,30.67375 C91.2776653,30.8912511 90.934502,31 90.5285,31 L86.7005,31 L94.8785,9.8735 L99.8955,9.8735 L108.0735,31 Z M94.5015,22.9235 L100.2725,22.9235 L98.3295,17.138 C98.2038327,16.7706648 98.0564175,16.3380858 97.88725,15.84025 C97.7180825,15.3424142 97.5513342,14.8035029 97.387,14.2235 C97.2323326,14.8131696 97.0728342,15.3593308 96.9085,15.862 C96.7441658,16.3646692 96.5895007,16.7996648 96.4445,17.167 L94.5015,22.9235 Z M121.5585,14.1655 C121.413499,14.3975012 121.261251,14.5714994 121.10175,14.6875 C120.942249,14.8035006 120.736835,14.8615 120.4855,14.8615 C120.263166,14.8615 120.023918,14.7914174 119.76775,14.65125 C119.511582,14.5110826 119.221585,14.3540009 118.89775,14.18 C118.573915,14.0059991 118.204169,13.8489174 117.7885,13.70875 C117.372831,13.5685826 116.899169,13.4985 116.3675,13.4985 C115.449162,13.4985 114.765252,13.694248 114.31575,14.08575 C113.866248,14.477252 113.6415,15.0064967 113.6415,15.6735 C113.6415,16.0988355 113.776832,16.4516653 114.0475,16.732 C114.318168,17.0123347 114.673414,17.253999 115.11325,17.457 C115.553086,17.660001 116.055747,17.8460825 116.62125,18.01525 C117.186753,18.1844175 117.76433,18.3729156 118.354,18.58075 C118.94367,18.7885844 119.521247,19.0326653 120.08675,19.313 C120.652253,19.5933347 121.154914,19.9509978 121.59475,20.386 C122.034586,20.8210022 122.389832,21.3502469 122.6605,21.97375 C122.931168,22.5972531 123.0665,23.3488289 123.0665,24.2285 C123.0665,25.2048382 122.897335,26.1183291 122.559,26.969 C122.220665,27.8196709 121.730087,28.5615802 121.08725,29.19475 C120.444413,29.8279198 119.651755,30.3257482 118.70925,30.68825 C117.766745,31.0507518 116.696173,31.232 115.4975,31.232 C114.840163,31.232 114.170753,31.164334 113.48925,31.029 C112.807747,30.893666 112.148003,30.7027512 111.51,30.45625 C110.871997,30.2097488 110.272669,29.917335 109.712,29.579 C109.151331,29.240665 108.663169,28.8636687 108.2475,28.448 L109.6975,26.157 C109.803834,25.9829991 109.953666,25.8428339 110.147,25.7365 C110.340334,25.6301661 110.548166,25.577 110.7705,25.577 C111.060501,25.577 111.352915,25.6688324 111.64775,25.8525 C111.942585,26.0361676 112.276081,26.2391656 112.64825,26.4615 C113.020419,26.6838344 113.448164,26.8868324 113.9315,27.0705 C114.414836,27.2541676 114.985163,27.346 115.6425,27.346 C116.531838,27.346 117.222998,27.150252 117.716,26.75875 C118.209002,26.367248 118.4555,25.7461709 118.4555,24.8955 C118.4555,24.4024975 118.320168,24.0013349 118.0495,23.692 C117.778832,23.3826651 117.423586,23.126501 116.98375,22.9235 C116.543914,22.720499 116.043669,22.5416674 115.483,22.387 C114.922331,22.2323326 114.34717,22.0607509 113.7575,21.87225 C113.16783,21.6837491 112.592669,21.4517514 112.032,21.17625 C111.471331,20.9007486 110.971086,20.5382522 110.53125,20.08875 C110.091414,19.6392478 109.736168,19.0785867 109.4655,18.40675 C109.194832,17.7349133 109.0595,16.9060049 109.0595,15.92 C109.0595,15.1273294 109.218998,14.3540038 109.538,13.6 C109.857002,12.8459962 110.32583,12.1741696 110.9445,11.5845 C111.56317,10.9948304 112.321996,10.5235851 113.221,10.17075 C114.120004,9.8179149 115.149494,9.6415 116.3095,9.6415 C116.95717,9.6415 117.587914,9.69224949 118.20175,9.79375 C118.815586,9.89525051 119.397997,10.0450823 119.949,10.24325 C120.500003,10.4414177 121.014748,10.6782486 121.49325,10.95375 C121.971752,11.2292514 122.399498,11.5409983 122.7765,11.889 L121.5585,14.1655 Z" fill="#FFFFFF"></path>
</svg>