<?xml version="1.0" standalone="no"?>
<!DOCTYPE svg PUBLIC "-//W3C//DTD SVG 1.1//EN" "http://www.w3.org/Graphics/SVG/1.1/DTD/svg11.dtd" >
<svg xmlns="http://www.w3.org/2000/svg">
<metadata>
This is a custom SVG font generated by IcoMoon.
<iconset grid="20"></iconset>
</metadata>
<defs>
<font id="icomoon" horiz-adv-x="640" >
<font-face units-per-em="640" ascent="608" descent="-32" />
<missing-glyph horiz-adv-x="640" />
<glyph unicode="&#xe003;" d="M 280.00,8.00L 440.00,8.00L 240.00,208.00L 640.00,208.00L 640.00,368.00L 240.00,368.00L 440.00,568.00L 280.00,568.00L0.00,288.00 z" />
<glyph unicode="&#xe005;" d="M 320.00,608.00C 143.269,608.00,0.00,464.731,0.00,288.00s 143.269-320.00, 320.00-320.00s 320.00,143.269, 320.00,320.00S 496.731,608.00, 320.00,608.00z M 320.00,8.00
		C 165.36,8.00, 40.00,133.36, 40.00,288.00S 165.36,568.00, 320.00,568.00s 280.00-125.36, 280.00-280.00S 474.64,8.00, 320.00,8.00zM 240.00,149.435L 480.00,288.00L 240.00,426.565 	z" />
<glyph unicode="&#xe006;" d="M 320.00,608.00C 143.269,608.00,0.00,464.731,0.00,288.00s 143.269-320.00, 320.00-320.00s 320.00,143.269, 320.00,320.00S 496.731,608.00, 320.00,608.00z M 491.121,179.105
	c 8.555-8.555, 8.555-22.555,0.00-31.113l-31.114-31.114c-8.558-8.555-22.557-8.555-31.113,0.00L 320.00,225.775l-108.894-108.895
	c-8.556-8.555-22.557-8.555-31.113,0.00l-31.114,31.114c-8.556,8.558-8.556,22.557,0.00,31.113L 257.775,288.00l-108.895,108.894
	c-8.556,8.556-8.556,22.557,0.00,31.113l 31.114,31.114c 8.555,8.556, 22.556,8.556, 31.113,0.00L 320.00,350.225l 108.895,108.895
	c 8.555,8.556, 22.555,8.556, 31.113,0.00l 31.114-31.114c 8.555-8.555, 8.555-22.556,0.00-31.113L 382.226,288.00L 491.121,179.105z" />
<glyph unicode="&#xe007;" d="M 320.00,608.00C 143.269,608.00,0.00,464.731,0.00,288.00c0.00-149.106, 101.981-274.395, 240.00-309.919L 240.00,248.00 l-57.829,0.00 l0.00,91.602 L 240.00,339.603 l0.00,59.491 
	C 240.00,479.933, 274.87,528.00, 369.919,528.00l 109.528,0.00 l0.00-99.106 l-89.456,0.00 c-26.551,0.044-29.845-13.845-29.845-39.695L 360.00,339.603l 120.00,0.00 L 464.12,248.00
	L 360.00,248.00 l0.00-277.516 C 517.851-9.831, 640.00,124.816, 640.00,288.00C 640.00,464.731, 496.731,608.00, 320.00,608.00z"  />
<glyph unicode="&#xe008;" d="M 640.00,486.489c-23.547-10.442-48.852-17.501-75.412-20.675c 27.108,16.25, 47.929,41.981, 57.733,72.644
	c-25.372-15.049-53.472-25.975-83.381-31.862c-23.95,25.519-58.076,41.463-95.841,41.463c-72.514,0.00-131.305-58.786-131.305-131.299
	c0.00-10.291, 1.161-20.313, 3.40-29.924c-109.125,5.477-205.876,57.75-270.636,137.191c-11.303-19.392-17.779-41.947-17.779-66.011
	c0.00-45.555, 23.18-85.745, 58.412-109.291c-21.524,0.683-41.77,6.589-59.471,16.424c-0.013-0.547-0.013-1.097-0.013-1.651
	c0.00-63.617, 45.261-116.685, 105.326-128.75c-11.016-3.00-22.617-4.607-34.593-4.607c-8.461,0.00-16.686,0.825-24.705,2.357
	c 16.71-52.162, 65.20-90.129, 122.657-91.185c-44.938-35.219-101.554-56.209-163.072-56.209c-10.599,0.00-21.05,0.621-31.322,1.837
	c 58.107-37.256, 127.126-58.996, 201.276-58.996c 241.514,0.00, 373.585,200.078, 373.585,373.59c0.00,5.693-0.129,11.355-0.381,16.988
	C 600.138,437.034, 622.398,460.159, 640.00,486.489z"  />
<glyph unicode="&#xe009;" d="M 261.63,190.298c-2.76,1.92-5.62,3.911-8.572,5.998c-8.604,2.654-17.69,4.048-27.04,4.147
		c-0.394,0.004-0.775,0.006-1.163,0.006c-43.362,0.00-81.401-26.627-81.401-56.981c0.00-33.055, 32.498-58.949, 73.984-58.949
		c 30.15,0.00, 52.379,5.79, 66.067,17.207c 11.193,9.336, 16.634,22.34, 16.634,39.755c0.00,3.573-0.423,7.22-1.255,10.844
		C 295.342,166.301, 283.66,174.968, 261.63,190.298zM 320.00,608.00C 143.269,608.00,0.00,464.731,0.00,288.00s 143.269-320.00, 320.00-320.00s 320.00,143.269, 320.00,320.00S 496.731,608.00, 320.00,608.00z M 321.015,71.08
		c-26.009-21.521-61.734-32.896-103.313-32.896c-38.365,0.00-73.985,8.061-100.297,22.70C 87.641,77.441, 71.25,101.675, 71.25,129.123
		c0.00,27.835, 15.26,55.667, 41.866,76.361c 26.424,20.553, 60.97,32.016, 97.449,32.373c-3.906,7.954-5.875,16.189-5.875,24.64
		c0.00,4.011, 0.44,8.085, 1.314,12.20c-29.449,1.282-56.039,12.515-75.369,31.953c-20.046,20.159-31.086,47.679-31.086,77.489
		c0.00,28.508, 14.343,57.015, 39.349,78.215c 24.156,20.479, 55.868,32.224, 87.004,32.224l 177.559,0.00 l-41.89-46.612l-40.386,0.00 
		c 12.326-16.671, 19.462-39.376, 19.462-64.671c0.00-29.859-14.794-58.105-41.655-79.536c-20.305-16.20-20.405-20.055-20.406-28.321
		c 0.766-5.152, 14.63-20.974, 29.261-31.549c 37.121-26.805, 50.925-53.085, 50.925-96.958
		C 358.772,118.58, 345.01,90.934, 321.015,71.08z M 480.00,368.00l0.00-80.00 l-40.00,0.00 l0.00,80.00 l-80.00,0.00 l0.00,40.00 l 80.00,0.00 L 440.00,488.00 l 40.00,0.00 l0.00-80.00 l 80.00,0.00 l0.00-40.00 L 480.00,368.00 zM 255.97,324.441c 10.804,12.283, 15.57,32.705, 12.75,54.631c-4.974,38.625-31.685,70.745-59.546,71.60
		c-0.356,0.01-0.712,0.016-1.07,0.016c-9.399,0.00-17.80-3.905-24.297-11.291c-10.649-12.107-15.145-31.575-12.334-53.411
		c 4.974-38.629, 32.24-71.966, 59.544-72.80C 240.614,312.886, 249.243,316.791, 255.97,324.441z"  />
<glyph unicode="&#xe00a;" d="M 466.589,457.81C 427.25,491.80, 376.081,512.506, 319.99,512.506c-19.678,0.00-38.656-2.784-56.85-7.536
		c 31.194-34.344, 59.595-76.115, 84.716-124.026C 391.529,398.979, 431.611,423.798, 466.589,457.81zM 218.896,488.262c-59.606-30.145-103.964-85.947-118.345-153.023c 70.71,3.116, 139.745,10.984, 203.017,30.101
		C 279.473,408.392, 251.181,448.835, 218.896,488.262zM 385.02,299.636c 50.401,7.803, 103.515,6.079, 158.957,0.398c-2.612,49.219-20.894,94.26-50.205,130.061
		c-36.637-37.128-78.463-64.775-128.12-85.065C 372.426,330.399, 378.826,315.171, 385.02,299.636zM 340.363,289.80c-5.77,13.569-11.749,26.962-18.18,40.001c-62.56-18.852-136.639-28.731-226.246-32.864
		c-0.125-2.981-0.458-5.921-0.458-8.947c0.00-55.539, 20.284-106.281, 53.701-145.49C 206.172,226.044, 270.316,269.558, 340.363,289.80zM 320.00,608.00C 143.269,608.00,0.00,464.731,0.00,288.00s 143.269-320.00, 320.00-320.00s 320.00,143.269, 320.00,320.00S 496.731,608.00, 320.00,608.00z M 320.00,16.00
		c-150.224,0.00-272.00,121.773-272.00,271.989S 169.779,560.00, 320.00,560.00c 150.21,0.00, 272.00-121.795, 272.00-272.01
		C 592.00,137.775, 470.21,16.00, 320.00,16.00zM 399.778,260.455c 17.464-49.791, 32.075-103.431, 43.581-159.94c 53.383,35.203, 90.884,92.507, 99.32,158.942
		C 489.299,266.464, 441.96,266.971, 399.778,260.455zM 182.243,110.965c 38.055-29.66, 85.769-47.471, 137.744-47.471c 28.425,0.00, 55.498,5.48, 80.531,15.116
		c-10.776,63.075-25.601,119.765-44.69,172.075C 284.396,229.248, 228.859,183.389, 182.243,110.965z"  />
<glyph unicode="&#xe00b;" d="M 639.806,608.00l-70.674,0.00 L 414.381,395.565l-61.277,61.281c-8.629,8.63-20.106,13.383-32.316,13.383
	c-12.207,0.00-23.685-4.751-32.322-13.383l-27.821-27.822c-1.561,2.127-3.181,4.228-4.924,6.265
	c-37.905,44.299-104.544,49.505-148.843,11.589c-44.304-37.899-49.491-104.531-11.585-148.837c 8.694-10.168, 18.914-18.249, 30.019-24.246
	c 0.225-11.40, 4.661-22.734, 13.336-31.415L 288.463,92.579c 8.634-8.637, 20.114-13.396, 32.325-13.396c 12.214,0.00, 23.691,4.76, 32.316,13.394
	l 149.811,149.801c 8.637,8.635, 13.396,20.115, 13.396,32.325s-4.759,23.691-13.394,32.322l-17.236,17.237l 154.126,130.056L 639.808,608.00 z
	 M 309.674,435.63c 2.969,2.966, 6.915,4.60, 11.114,4.60c 4.196,0.00, 8.14-1.633, 11.102-4.595l 64.61-64.614l-70.225-96.401
	c-6.934-7.735-13.044-3.665-15.454-0.791c-0.828,0.974-17.304,22.546-38.609,50.489c 10.578,24.213, 11.723,51.76, 3.035,76.886
	L 309.674,435.63z M 481.705,285.81c 2.969-2.968, 4.605-6.911, 4.605-11.107s-1.636-8.14-4.607-11.11L 331.884,113.784
	c-2.963-2.966-6.902-4.601-11.096-4.601c-4.195,0.00-8.14,1.636-11.11,4.607l-148.287,148.274c 17.261-2.321, 35.045-0.391, 51.654,5.925
	l 99.481-80.011c0.00,0.00, 5.441-5.05, 11.447-0.171l 138.699,117.039L 481.705,285.81z"  />
<glyph unicode="&#xe00c;" d="M 320.00,608.00C 143.269,608.00,0.00,464.731,0.00,288.00s 143.269-320.00, 320.00-320.00s 320.00,143.269, 320.00,320.00S 496.731,608.00, 320.00,608.00z M 197.05,89.749L 113.269,89.749 L 113.269,343.788 
	l 83.781,0.00 L 197.05,89.749 z M 155.161,378.455l-0.55,0.00 c-28.116,0.00-46.30,19.518-46.30,43.909c0.00,24.914, 18.734,43.889, 47.399,43.889
	c 28.66,0.00, 46.303-18.968, 46.85-43.889C 202.56,397.98, 184.373,378.455, 155.161,378.455z M 516.689,89.749l-83.782,0.00 L 432.906,225.663 
	c0.00,34.139-12.124,57.432-42.438,57.432c-23.152,0.00-36.947-15.709-42.991-30.881c-2.21-5.429-2.759-13.001-2.759-20.59l0.00-141.873 l-83.80,0.00 
	c0.00,0.00, 1.101,230.199,0.00,254.036l 83.793,0.00 l0.00-35.987 c 11.126,17.299, 31.025,41.961, 75.512,41.961c 55.135,0.00, 96.465-36.324, 96.465-114.341L 516.689,89.749 z"  />
<glyph unicode="&#xe00d;" d="M 320.00,608.00C 143.269,608.00,0.00,464.731,0.00,288.00s 143.266-320.00, 320.00-320.00c 176.731,0.00, 320.00,143.269, 320.00,320.00S 496.731,608.00, 320.00,608.00z M 351.028,180.426
	c-29.075,2.259-41.276,16.66-64.065,30.505C 274.425,145.196, 259.11,82.171, 213.75,49.253
	c-14.002,99.355, 20.559,173.977, 36.606,253.196c-27.365,46.066, 3.294,138.771, 61.013,115.921
	c 71.016-28.093-61.50-171.255, 27.458-189.135c 92.888-18.668, 130.805,161.161, 73.214,219.64
	c-83.224,84.441-242.249,1.925-222.694-118.972c 4.759-29.558, 35.295-38.524, 12.203-79.314c-53.263,11.807-69.156,53.814-67.11,109.82
	c 3.292,91.671, 82.365,155.852, 161.679,164.729c 100.303,11.227, 194.441-36.818, 207.441-131.173
	C 518.191,287.471, 458.279,172.134, 351.028,180.426z"  />
<glyph unicode="&#xe00e;" d="M 520.939,2.869c-27.313-12.846-52.106-21.906-74.267-27.111c-22.188-5.151-46.164-7.754-71.916-7.754
	c-29.266,0.00-46.534,3.679-69.005,11.035c-22.474,7.418-41.662,18.002-57.512,31.587c-15.906,13.701-26.889,28.255-33.03,43.645
	c-6.141,15.397-9.197,37.759-9.197,67.026L 206.01,345.736 L 119.061,345.736 l0.00,90.629 c 25.13,8.151, 54.285,19.867, 72.17,35.095
	c 17.971,15.281, 32.354,33.566, 43.191,54.965c 10.87,21.341, 18.343,48.57, 22.42,81.572l 91.022,0.00 l0.00-148.029 L 495.838,459.969 l0.00-114.234 L 347.863,345.735 l0.00-164.10 
	c0.00-37.136-0.481-58.535, 3.456-69.063c 3.906-10.471, 13.699-21.34, 24.369-27.625c 14.179-8.494, 30.339-12.736, 48.567-12.736
	c 32.409,0.00, 64.645,10.53, 96.685,31.587L 520.94,2.869 L 520.939,2.869z"  />
<glyph unicode="&#xe011;" d="M0.00,415.269l 25.996-34.09c0.00,0.00, 53.606,42.255, 71.475,21.126c 17.867-21.126, 86.085-276.223, 108.856-323.279
	c 19.875-41.269, 74.699-95.825, 134.821-56.864c 60.085,38.963, 259.90,209.554, 295.666,411.01
	c 35.737,201.391-240.45,159.204-269.706-16.256c 73.119,43.898, 112.148-17.836, 74.731-87.733
	c-37.349-69.828-71.475-115.37-89.345-115.37c-17.836,0.00-31.556,46.73-51.992,128.404c-21.124,84.439-20.995,236.537-108.823,219.294
	C 108.856,545.254,0.00,415.269,0.00,415.269z"  />
<glyph unicode="&#xe012;" d="M 320.00,608.00C 143.269,608.00,0.00,464.731,0.00,288.00s 143.269-320.00, 320.00-320.00s 320.00,143.269, 320.00,320.00S 496.731,608.00, 320.00,608.00z M 185.00,183.00
	c-57.99,0.00-105.00,47.01-105.00,105.00c0.00,57.99, 47.01,105.00, 105.00,105.00c 57.991,0.00, 105.00-47.01, 105.00-105.00C 290.00,230.01, 242.991,183.00, 185.00,183.00z M 455.00,183.00
	c-57.991,0.00-105.00,47.01-105.00,105.00c0.00,57.99, 47.009,105.00, 105.00,105.00s 105.00-47.01, 105.00-105.00C 560.00,230.01, 512.991,183.00, 455.00,183.00z"  />
<glyph unicode="&#xe013;" d="M 272.48-32.00L 272.48,112.68L 178.08,166.04L 197.154,194.275L 272.48,154.146L 272.48,272.64L 328.16,272.64L 328.16,197.029L 394.356,227.719L 411.043,196.92L 328.16,157.282L 328.16,114.946L 448.941,171.387L 463.855,141.024L 328.16,76.944L 328.16-32.00L 579.293-32.00L 300.387,608.00L 20.709-32.00 z"  />
<glyph unicode="&#xe014;" d="M 533.75,608.00L 106.25,608.00 C 47.813,608.00,0.00,560.187,0.00,501.75l0.00-427.50 c0.00-58.438, 47.813-106.25, 106.25-106.25l 427.50,0.00 c 58.438,0.00, 106.25,47.813, 106.25,106.25L 640.00,501.75 C 640.00,560.187, 592.188,608.00, 533.75,608.00z
	 M 204.875,328.00l 230.25,0.00 c 4.368-12.536, 6.75-25.994, 6.75-40.00c0.00-67.203-54.672-121.875-121.875-121.875c-67.203,0.00-121.875,54.672-121.875,121.875
	C 198.125,302.006, 200.507,315.464, 204.875,328.00z M 560.00,327.969L 560.00,168.00 l0.00-80.00 c0.00-22.00-18.00-40.00-40.00-40.00L 120.00,48.00 c-22.00,0.00-40.00,18.00-40.00,40.00l0.00,80.00 L 80.00,327.969 L 80.00,328.00 
	l 62.568,0.00 c-2.901-12.876-4.442-26.26-4.442-40.00c0.00-100.286, 81.589-181.875, 181.875-181.875c 100.286,0.00, 181.875,81.589, 181.875,181.875
	c0.00,13.74-1.54,27.124-4.442,40.00L 560.00,328.00 L 560.00,327.969 z M 560.00,468.00c0.00-11.00-9.00-20.00-20.00-20.00l-40.00,0.00 c-11.00,0.00-20.00,9.00-20.00,20.00L 480.00,508.00 c0.00,11.00, 9.00,20.00, 20.00,20.00l 40.00,0.00 
	c 11.00,0.00, 20.00-9.00, 20.00-20.00L 560.00,468.00 z"  />
<glyph unicode="&#xe015;" d="M 512.238,99.482c-66.666,0.261-102.186,32.864-126.87,90.314l-7.061,15.676l-60.856,138.75
	c-20.183,49.116-70.264,82.295-126.771,82.295c-76.459,0.00-138.49-62.032-138.49-138.545c0.00-76.511, 62.03-138.543, 138.49-138.543
	c 53.336,0.00, 99.714,30.156, 122.864,74.375l 24.61-56.77c-34.945-42.606-88.047-69.74-147.471-69.74C 85.363,97.295,0.00,182.609,0.00,287.974
	c0.00,105.315, 85.363,190.733, 190.678,190.733c 79.479,0.00, 143.648-42.449, 176.25-117.657c 2.473-5.835, 34.474-80.679, 62.391-144.375
	c 17.293-39.426, 32.038-65.574, 79.847-67.19c 46.98-1.614, 79.222,26.98, 79.222,63.13c0.00,35.313-24.585,43.801-66.094,57.602
	c-74.614,24.584-113.129,49.271-113.129,108.439c0.00,57.71, 39.27,96.199, 103.071,96.199c 41.56,0.00, 71.566-18.491, 92.35-55.366
	l-40.785-20.832c-15.369,21.509-32.317,30.00-53.858,30.00c-29.945,0.00-51.329-20.835-51.329-48.541c0.00-39.326, 35.184-45.264, 84.379-61.409
	C 609.219,297.142, 640.00,272.505, 640.00,210.995C 640.001,146.41, 584.58,99.377, 512.238,99.482z"  />
<glyph unicode="&#xe016;" d="M 320.00,608.00C 143.269,608.00,0.00,464.731,0.00,288.00s 143.269-320.00, 320.00-320.00s 320.00,143.269, 320.00,320.00S 496.731,608.00, 320.00,608.00z M 174.486,106.62
	c-29.121,0.00-52.786,22.276-52.786,49.884c0.00,27.454, 23.664,49.981, 52.786,49.981c 29.23,0.00, 52.865-22.527, 52.865-49.981
	C 227.351,128.898, 203.714,106.62, 174.486,106.62z M 307.178,106.185c0.00,47.111-19.326,91.457-54.333,124.63
	c-35.05,33.256-81.594,51.611-131.085,51.611l0.00,72.09 c 144.301,0.00, 261.762-111.389, 261.764-248.331L 307.178,106.185 z M 442.056,106.185
	c0.00,167.61-143.681,304.005-320.205,304.005l0.00,72.125 c 218.577,0.00, 396.449-168.792, 396.449-376.13L 442.056,106.185 z"  />
<glyph unicode="&#xe017;" d="M 320.00,608.00C 143.269,608.00,0.00,464.731,0.00,288.00s 143.268-320.00, 320.00-320.00c 176.731,0.00, 320.00,143.269, 320.00,320.00S 496.731,608.00, 320.00,608.00z M 320.00,365.868
	c-10.605,0.00-19.199-8.595-19.199-19.20l0.00-117.335 c0.00-44.77-36.296-81.067-81.067-81.067c-44.772,0.00-81.067,36.295-81.067,81.067l0.00,53.335 
	l 61.866,0.00 l0.00-51.201 c0.00-10.604, 8.596-19.199, 19.20-19.199c 10.602,0.00, 19.198,8.595, 19.198,19.199l0.00,115.201 
	c0.00,44.771, 36.294,81.066, 81.067,81.066c 44.769,0.00, 81.067-36.295, 81.067-81.066l0.00-23.468 l-36.267-11.732l-25.599,11.732l0.00,23.468 
	C 339.201,357.271, 330.605,365.868, 320.00,365.868z M 501.334,229.332c0.00-44.77-36.295-81.067-81.066-81.067
	c-44.772,0.00-81.067,36.295-81.067,81.067L 339.20,281.60 l 25.599-11.734l 36.267,11.734l0.00-52.266 c0.00-10.602, 8.594-19.199, 19.20-19.199
	c 10.601,0.00, 19.198,8.596, 19.198,19.199l0.00,51.201 l 61.866,0.00 l0.00-51.201 L 501.334,229.334 z"  />
<glyph unicode="&#xe018;" d="M 620.164,63.378L 468.569,192.311c-15.671,14.104-32.431,20.579-45.97,19.954C 458.384,254.183, 480.00,308.564, 480.00,368.00
	C 480.00,500.549, 372.549,608.00, 240.00,608.00C 107.453,608.00,0.00,500.549,0.00,368.00c0.00-132.549, 107.451-240.00, 240.00-240.00c 59.436,0.00, 113.817,21.616, 155.735,57.402
	c-0.625-13.539, 5.85-30.299, 19.954-45.97l 128.934-151.595c 22.076-24.529, 58.139-26.596, 80.138-4.598S 644.692,41.301, 620.164,63.378z
	 M 240.00,208.00c-88.365,0.00-160.00,71.635-160.00,160.00S 151.635,528.00, 240.00,528.00s 160.00-71.635, 160.00-160.00S 328.366,208.00, 240.00,208.00z"  />
<glyph unicode="&#xe019;" d="M 360.00,408.00L 440.00,408.00L 440.00,168.00L 360.00,168.00zM 200.00,408.00L 280.00,408.00L 280.00,168.00L 200.00,168.00z" />
<glyph unicode="&#xe01a;" d="M 440.00,608.00L 240.00,408.00L 120.00,408.00L 120.00,168.00L 440.00,488.00 	zM 596.36,564.36L 43.64,11.64L 87.28-32.00L 263.64,144.36L 440.00-32.00L 440.00,320.721L 640.00,520.721 	z" />
<glyph unicode="&#xe01b;" d="M 280.00,511.431l0.00-446.863 L 148.284,196.284L 136.569,208.00L 120.00,208.00 L 40.00,208.00 L 40.00,368.00 l 80.00,0.00 l 16.569,0.00 l 11.716,11.716L 280.00,511.431 M 320.00,608.00L 120.00,408.00L0.00,408.00 l0.00-240.00 l 120.00,0.00 
		l 200.00-200.00L 320.00,608.00 L 320.00,608.00zM 440.00,288.00c0.00,42.911-22.526,80.554-56.396,101.766l-26.523-42.435C 376.832,334.941, 390.00,312.985, 390.00,288.00
		c0.00-27.354-15.78-51.078-38.706-62.587l 22.38-44.76C 412.999,200.354, 440.00,241.02, 440.00,288.00zM 540.00,288.00c0.00,77.581-44.175,144.844-108.743,178.011l-26.611-42.576c 15.177-7.258, 29.172-17.121, 41.42-29.369
		C 474.397,365.735, 490.00,328.066, 490.00,288.00c0.00-40.066-15.602-77.735-43.934-106.066c-15.934-15.934-34.82-27.841-55.427-35.211
		l 22.469-44.936C 487.404,130.978, 540.00,203.345, 540.00,288.00zM 640.00,288.00c0.00,114.428-60.074,214.809-150.39,271.376L 463.125,517.00c 17.223-10.782, 33.215-23.502, 47.794-38.081
		c 24.813-24.813, 44.288-53.693, 57.884-85.838C 582.869,359.826, 590.00,324.472, 590.00,288.00s-7.131-71.826-21.197-105.08
		c-13.596-32.146-33.071-61.025-57.884-85.839c-20.703-20.703-44.245-37.674-70.145-50.63l 22.356-44.711
		C 567.998,54.278, 640.00,162.721, 640.00,288.00z" />
<glyph unicode="&#xe01c;" d="M 160.00-32.00L 480.00,288.00L 160.00,608.00L 320.00,288.00 z" />
<glyph unicode="&#xe01d;" d="M 480.00,608.00L 160.00,288.00L 480.00-32.00L 320.001,288.00 z" />
<glyph unicode="&#xe002;" d="M 360.00,568.00L 200.00,568.00L 400.00,368.00L0.00,368.00L0.00,208.00L 400.00,208.00L 200.00,8.00L 360.00,8.00L 640.00,288.00 z" />
<glyph unicode="&#xe010;" d="M 320.00,608.00C 143.269,608.00,0.00,464.731,0.00,288.00s 143.269-320.00, 320.00-320.00s 320.00,143.269, 320.00,320.00S 496.731,608.00, 320.00,608.00z M 510.035,97.965
	c-24.699-24.697-53.445-44.082-85.442-57.616c-8.129-3.438-16.384-6.455-24.75-9.058L 399.843,79.25 c0.00,25.209-8.646,43.75-25.938,55.625
	c 10.834,1.041, 20.781,2.50, 29.844,4.375s 18.646,4.584, 28.75,8.125s 19.166,7.76, 27.188,12.656s 15.729,11.25, 23.125,19.063s 13.594,16.666, 18.594,26.563
	s 8.959,21.771, 11.875,35.625s 4.375,29.115, 4.375,45.781c0.00,32.291-10.521,59.791-31.563,82.50c 9.584,25.00, 8.541,52.188-3.125,81.563l-7.813,0.938
	c-5.416,0.625-15.156-1.666-29.219-6.875s-29.844-13.75-47.344-25.625c-24.791,6.875-50.521,10.313-77.188,10.313c-26.875,0.00-52.50-3.438-76.875-10.313
	c-11.041,7.50-21.51,13.697-31.406,18.594c-9.896,4.896-17.813,8.229-23.75,10.00s-11.459,2.865-16.563,3.281s-8.385,0.521-9.844,0.313
	s-2.50-0.416-3.125-0.625c-11.666-29.584-12.709-56.771-3.125-81.563c-21.041-22.709-31.563-50.209-31.563-82.50c0.00-16.666, 1.459-31.928, 4.375-45.781
	s 6.875-25.729, 11.875-35.625s 11.197-18.75, 18.594-26.563s 15.104-14.166, 23.125-19.063s 17.084-9.115, 27.188-12.656s 19.688-6.25, 28.75-8.125
	s 19.01-3.334, 29.844-4.375c-17.084-11.666-25.625-30.209-25.625-55.625l0.00-48.894 c-9.436,2.809-18.738,6.128-27.875,9.992
	c-31.996,13.534-60.742,32.919-85.441,57.616c-24.697,24.699-44.084,53.445-57.616,85.442C 58.349,216.506, 51.25,251.696, 51.25,288.00
	s 7.099,71.494, 21.099,104.594c 13.534,31.996, 32.919,60.742, 57.616,85.441s 53.445,44.084, 85.441,57.616
	C 248.506,549.651, 283.696,556.75, 320.00,556.75s 71.494-7.099, 104.594-21.099c 31.997-13.534, 60.744-32.919, 85.442-57.616
	c 24.697-24.697, 44.082-53.445, 57.616-85.441C 581.651,359.494, 588.75,324.304, 588.75,288.00s-7.099-71.494-21.099-104.594
	C 554.117,151.41, 534.732,122.663, 510.035,97.965z"  />
<glyph unicode="&#xe000;" d="M 183.808,485.012l-23.037-130.779l 1.647-1.647c 15.902,15.899, 32.909,27.271, 51.008,34.132
	c 18.099,6.851, 38.666,10.28, 61.703,10.28c 28.51,0.00, 53.747-5.218, 75.688-15.626c 21.932-10.422, 40.441-24.404, 55.532-41.947
	c 15.08-17.556, 26.597-38.245, 34.553-62.10c 7.943-23.855, 11.931-49.223, 11.931-76.083c0.00-29.608-5.76-57.165-17.277-82.661
	c-11.517-25.499-27.021-47.579-46.484-66.213c-19.476-18.648-42.099-33.041-67.874-43.18c-25.785-10.139-53.204-14.936-82.27-14.393
	c-27.971,0.00-54.71,3.705-80.212,11.106s-48.128,18.776-67.874,34.132c-19.746,15.347-35.517,34.408-47.306,57.169
	c-11.80,22.747-17.971,49.206-18.509,79.37l 116.824,0.00 c 2.739-26.317, 12.611-47.296, 29.615-62.925c 16.994-15.626, 38.666-23.441, 64.994-23.441
	c 15.35,0.00, 29.208,3.149, 41.546,9.462c 12.342,6.296, 22.754,14.521, 31.262,24.674c 8.495,10.139, 15.08,21.925, 19.746,35.368
	c 4.652,13.43, 6.993,27.271, 6.993,41.536c0.00,14.808-2.20,28.787-6.582,41.947c-4.396,13.157-10.978,24.677-19.746,34.547
	c-8.778,9.869-19.207,17.543-31.262,23.03c-12.069,5.474-26.058,8.226-41.96,8.226c-20.851,0.00-37.844-3.702-51.008-11.102
	c-13.164-7.404-25.502-19.059-37.022-34.957L 43.129,262.936 L 99.894,581.245l 321.677,0.00 l0.00-96.232 L 183.808,485.012 zM 688.286,9.485c 20.173,7.229, 38.851,16.748, 55.99,28.561c 17.139,11.80, 33.317,25.506, 48.563,41.125
	c 15.229,15.603, 30.848,31.791, 46.845,48.552c 14.464-16.761, 29.709-32.95, 45.706-48.552c 15.997-15.619, 32.94-29.325, 50.85-41.125
	c 17.893-11.813, 37.133-21.329, 57.704-28.561c 20.564-7.245, 42.651-10.853, 66.274-10.853c 30.457,0.00, 58.075,5.517, 82.84,16.566
	c 24.748,11.032, 45.511,26.277, 62.275,45.693c 16.748,19.422, 29.706,42.068, 38.848,67.971c 9.142,25.883, 13.713,53.693, 13.713,83.392
	c0.00,29.703-4.571,57.118-13.713,82.253c-9.142,25.132-22.104,47.016-38.848,65.684c-16.768,18.654-37.332,33.307-61.703,43.981
	c-24.387,10.658-51.81,15.993-82.27,15.993c-24.387,0.00-47.047-3.82-67.988-11.426c-20.962-7.619-40.384-17.704-58.277-30.272
	c-17.907-12.564-34.671-27.237-50.274-43.981c-15.626-16.761-30.673-33.896-45.137-51.405c-15.245,18.277-30.669,35.591-46.275,51.978
	c-15.623,16.367-32.384,30.845-50.277,43.409c-17.903,12.564-37.332,22.653-58.274,30.272c-20.962,7.606-43.992,11.426-69.13,11.426
	c-30.477,0.00-57.90-5.534-82.27-16.563c-24.387-11.048-44.955-25.90-61.703-44.551c-16.765-18.671-29.531-40.751-38.279-66.257
	c-8.768-25.523-13.14-53.12-13.14-82.823c0.00-29.699, 4.571-57.509, 13.713-83.392c 9.139-25.90, 22.457-48.179, 39.993-66.829
	c 17.512-18.671, 38.457-33.519, 62.845-44.554c 24.371-11.048, 52.17-16.566, 83.416-16.566C 645.437-1.364, 668.093,2.24, 688.286,9.485z
	 M 552.883,140.288c-16.00,17.509-23.997,39.983-23.997,67.399c0.00,25.135, 7.801,47.788, 23.427,67.975c 15.603,20.17, 36.743,30.272, 63.417,30.272
	c 14.461,0.00, 28.941-3.247, 43.419-9.711c 14.461-6.477, 28.369-14.673, 41.708-24.563c 13.319-9.907, 26.082-20.76, 38.279-32.556
	c 12.173-11.816, 22.851-22.669, 31.99-32.559c-9.139-10.675-19.426-21.524-30.848-32.556c-11.429-11.048-23.623-20.958-36.564-29.699
	c-12.962-8.768-26.671-15.997-41.135-21.706c-14.481-5.709-28.958-8.566-43.419-8.566C 590.966,114.018, 568.879,122.759, 552.883,140.288z
	 M 1017.368,122.014c-14.107,5.319-27.621,12.369-40.566,21.13c-12.962,8.748-25.135,18.651-36.564,29.699
	c-11.426,11.032-22.104,22.279-31.993,33.701c 9.142,9.89, 19.426,20.743, 30.851,32.559c 11.429,11.796, 23.424,22.649, 35.995,32.556
	c 12.568,9.89, 25.89,18.082, 39.993,24.563c 14.087,6.461, 28.743,9.711, 43.995,9.711c 28.17,0.00, 50.452-9.533, 66.843-28.557
	c 16.371-19.045, 24.566-41.896, 24.566-68.544c0.00-26.668-7.623-49.122-22.848-67.399c-15.249-18.28-36.962-27.419-65.135-27.419
	C 1046.504,114.018, 1031.454,116.675, 1017.368,122.014z" horiz-adv-x="1280"  />
<glyph unicode="&#xe001;" d="M 520.00,528.00L 120.00,528.00 c-66.00,0.00-120.00-54.00-120.00-120.00l0.00-240.00 c0.00-66.00, 54.00-120.00, 120.00-120.00l 400.00,0.00 c 66.00,0.00, 120.00,54.00, 120.00,120.00L 640.00,408.00 C 640.00,474.00, 586.00,528.00, 520.00,528.00z
	 M 240.00,128.00L 240.00,448.00 l 200.00-160.00L 240.00,128.00z"  />
<glyph unicode="&#xe01e;" d="M 258.272,310.336c0.00,0.00, 60.576,4.704, 60.576,78.72S 269.28,499.20, 206.528,499.20L0.00,499.20 l0.00-413.632 l 206.528,0.00 c0.00,0.00, 126.048-4.128, 126.048,122.048
	C 332.608,207.616, 338.08,310.336, 258.272,310.336z M 91.008,425.696l 115.52,0.00 c0.00,0.00, 28.064,0.00, 28.064-43.04c0.00-43.04-16.512-49.28-35.264-49.28L 91.008,333.376 L 91.008,425.696 z
	 M 200.672,159.072L 91.008,159.072 l0.00,110.56 l 115.52,0.00 c0.00,0.00, 41.856,0.576, 41.856-56.80C 248.384,164.448, 217.12,159.424, 200.672,159.072z M 500.736,393.952
	c-152.64,0.00-152.512-158.88-152.512-158.88s-10.464-158.112, 152.512-158.112c0.00,0.00, 135.808-8.128, 135.808,110.016l-69.824,0.00 c0.00,0.00, 2.304-44.512-63.648-44.512
	c0.00,0.00-69.856-4.864-69.856,71.936l 205.664,0.00 C 638.912,214.368, 661.408,393.952, 500.736,393.952z M 562.848,269.60l-130.368,0.00 c0.00,0.00, 8.544,63.776, 69.856,63.776
	C 563.584,333.376, 562.848,269.60, 562.848,269.60z M 579.136,474.848L 415.36,474.848 l0.00-50.944 l 163.744,0.00 L 579.104,474.848 z"  />
<glyph unicode="&#xe01f;" d="M 353.12,256.608c-9.856,5.728-23.52,5.728-34.656,5.728L 281.952,262.336 l0.00-75.264 l 33.536,0.00 c 12.416,0.00, 28.224-0.864, 38.912,6.624
	c 9.856,6.624, 15.392,19.584, 15.392,31.936C 369.792,237.12, 362.944,250.848, 353.12,256.608z M 339.328,320.832
	c 8.128,6.176, 12.384,17.248, 12.384,27.392c0.00,11.04-5.12,21.632-14.496,27.36c-9.856,5.728-27.808,4.416-39.36,4.416L 281.952,380.00 l0.00-66.24 l 21.024,0.00 
	C 314.976,313.792, 329.088,312.896, 339.328,320.832z M 519.20,595.20L 120.768,595.20 C 61.152,595.20, 12.80,546.848, 12.80,487.20l0.00-398.368 c0.00-59.648, 48.352-108.00, 107.968-108.00
	l 398.40,0.00 c 59.648,0.00, 108.00,48.352, 108.00,108.00L 627.168,487.20 C 627.20,546.848, 578.848,595.20, 519.20,595.20z M 336.672,130.976L 211.168,130.976 L 211.168,433.92 l 137.12,0.00 
	c 39.712,0.00, 76.384-25.28, 76.384-69.888c0.00-34.432-19.232-58.016-43.744-65.376l0.00-0.864 c 36.384-7.488, 62.336-27.264, 62.336-74.912
	C 443.264,178.784, 413.216,130.976, 336.672,130.976z"  />
<glyph unicode="&#x20;" horiz-adv-x="320" />
<glyph class="hidden" unicode="&#xf000;" d="M0,608L 640 -32L0 -32 z" horiz-adv-x="0" />
</font>
</defs>
</svg>
