<svg xmlns="http://www.w3.org/2000/svg" viewBox="0 0 512 512"><path d="M256 88.019c-13.821 14.195-29.784 31.699-45.673 51.527-52.219 65.161-80.661 126.037-82.249 176.047l-.043 1.515-.007.318-.009.442c-.011.71-.018 1.421-.018 2.135 0 .655.007 1.307.018 1.959l.012.621c.658 33.634 14.262 65.159 38.307 88.765 24.075 23.635 55.917 36.652 89.662 36.652 33.744 0 65.587-13.017 89.661-36.652 24.036-23.598 37.64-55.104 38.31-88.724v-.024l.004-.218c.013-.793.025-1.587.025-2.382 0-.716-.009-1.43-.02-2.144l-.001-.04-.001-.04-.005-.231-.008-.447-.038-1.355-.002-.076-.003-.076c-1.589-50.009-30.03-110.885-82.249-176.045-15.89-19.828-31.853-37.331-45.673-51.527zm0-88.019s186.875 155.734 191.889 313.558c.025.713.043 1.426.06 2.14l.021 1.053c.018 1.081.03 2.163.03 3.249 0 1.182-.015 2.361-.036 3.539l-.005.293c-2.043 104.269-87.201 188.168-191.959 188.168-104.759 0-189.918-83.899-191.957-188.164l-.007-.293c-.021-1.179-.035-2.354-.035-3.539 0-1.086.01-2.168.028-3.248l.021-1.053c.016-.716.038-1.427.06-2.142 5.013-157.827 191.89-313.561 191.89-313.561z"/></svg>