<svg xmlns="http://www.w3.org/2000/svg" viewBox="0 0 512 512"><path d="M416 96v-32c0-17.6-14.4-32-32-32h-352c-17.6 0-32 14.4-32 32v96c0 17.6 14.4 32 32 32h352c17.6 0 32-14.4 32-32v-32h64v128h-288v64h-16c-8.837 0-16 7.163-16 16v160c0 8.837 7.163 16 16 16h64c8.837 0 16-7.163 16-16v-160c0-8.837-7.163-16-16-16h-16v-32h288v-192h-96zm-381 0h-3v-32h3v32zm16 0h-8v-32h8v32zm16 0h-8v-32h8v32zm16 0h-8v-32h8v32zm16 0h-8v-32h8v32zm16 0h-8v-32h8v32zm16 0h-8v-32h8v32zm16 0h-8v-32h8v32zm16 0h-8v-32h8v32zm16 0h-8v-32h8v32zm16 0h-8v-32h8v32zm16 0h-8v-32h8v32zm16 0h-8v-32h8v32zm16 0h-8v-32h8v32zm16 0h-8v-32h8v32zm16 0h-8v-32h8v32zm16 0h-8v-32h8v32zm16 0h-8v-32h8v32zm16 0h-8v-32h8v32zm16 0h-8v-32h8v32zm16 0h-8v-32h8v32zm16 0h-8v-32h8v32zm13 0h-5v-32h5v32z"/></svg>