<svg xmlns="http://www.w3.org/2000/svg" viewBox="0 0 512 512"><path d="M480 0l-288 64v312.02c-20.329-14.82-48.658-24.02-80-24.02-61.856 0-112 35.816-112 80 0 44.183 50.144 80 112 80s112-35.817 112-80v-206.708l256-56.889v143.617c-20.329-14.82-48.658-24.02-80-24.02-61.855 0-112 35.816-112 80 0 44.183 50.145 80 112 80s112-35.817 112-80v-368h-32zm-368 474c-42.353 0-74-22.174-74-42s31.647-42 74-42 74 22.174 74 42-31.647 42-74 42zm288-64c-42.354 0-74-22.174-74-42s31.646-42 74-42 74 22.174 74 42-31.646 42-74 42zm80-282.574l-256 56.889v-63.426l256-56.889v63.426z"/></svg>