<svg xmlns="http://www.w3.org/2000/svg" viewBox="0 0 512 512"><path d="M440 128l72-64c-6.038-32.334-31.666-57.962-64-64l-64 72v17.109l-90.735 90.735c-47.034-38.417-79.561-33.168-100.675-15.795-20.49 16.855-28.145 50.262-39.481 60.243-22.896 20.152-79.232-.076-127.196 52.117-55.501 60.398-11.705 124.791 36.591 173.087 48.295 48.294 112.689 92.092 173.087 36.592 52.194-47.964 31.954-104.312 52.105-127.207 9.98-11.337 43.398-18.979 60.255-39.47 17.371-21.114 22.62-53.642-15.796-100.676l90.736-90.735h17.109zm-293.435 301.435l-64-64 26.87-26.869 64 64-26.87 26.869zm93.435-109.435c-26.51 0-48-21.49-48-48s21.49-48 48-48 48 21.49 48 48-21.49 48-48 48z"/></svg>