<svg xmlns="http://www.w3.org/2000/svg" viewBox="0 0 512 512"><path d="M96 289.143v221.715c5.227.748 10.567 1.143 16 1.143h16v-224.001h-16c-5.433 0-10.773.395-16 1.143zm288-1.143v224h16c5.434 0 10.773-.395 16-1.143v-221.714c-5.227-.748-10.566-1.143-16-1.143h-16zm128-32c0-141.385-114.615-256-256-256s-256 114.615-256 256c0 30.709 5.414 60.153 15.328 87.437-9.736 16.601-15.328 35.926-15.328 56.563 0 44.677 26.163 83.239 64 101.216v-202.432c-10.063 4.781-19.29 11.03-27.429 18.452-2.996-14.61-4.571-29.739-4.571-45.236 0-123.712 100.288-224 224-224s224 100.288 224 224c0 15.497-1.574 30.626-4.571 45.236-8.14-7.422-17.365-13.671-27.429-18.452v202.432c37.838-17.977 64-56.539 64-101.216 0-20.637-5.592-39.962-15.328-56.563 9.914-27.284 15.328-56.728 15.328-87.437z"/></svg>