<svg xmlns="http://www.w3.org/2000/svg" viewBox="0 0 512 512"><path d="M256.001 64c-123.713 0-224.001 100.288-224.001 224v96h32v-96c0-106.039 85.961-160 192-160s192 53.961 192 160v96h32v-96c.001-123.712-100.288-224-223.999-224zm-117.334 224h-21.333c-11.734 0-21.334 9.6-21.334 21.333v117.334c0 11.732 9.6 21.333 21.333 21.333h21.333c11.734 0 21.334-9.601 21.334-21.333v-117.334c0-11.733-9.6-21.333-21.333-21.333zm255.999 0h-21.334c-11.731 0-21.331 9.6-21.331 21.333v117.334c0 11.732 9.6 21.333 21.331 21.333h21.334c11.734 0 21.334-9.601 21.334-21.333v-117.334c.001-11.733-9.599-21.333-21.334-21.333z"/></svg>