<svg xmlns="http://www.w3.org/2000/svg" viewBox="0 0 512 512"><path d="M160 320h-32v-32h-32v-32h32v-32h32v32h32v32h-32zm160-24a24 24 12780 1 0 48 0 24 24 12780 1 0-48 0zm48-48a24 24 12780 1 0 48 0 24 24 12780 1 0-48 0zm1.736 146.074c-58.11 0-67.181-34.417-113.735-34.421-46.555.004-55.625 34.421-113.735 34.421-93.736 0-142.266-114.737-142.266-196.813 0-77.651 7.296-134.155 36.344-142.085 29.063-7.958 66.085 23.379 102.175 57.36 36.081 33.981 42.174 31.771 71.229 31.771l46.252-1.022 46.252 1.021c29.056 0 35.148 2.211 71.229-31.771 36.09-33.981 73.111-65.318 102.175-57.36 29.048 7.93 36.344 64.434 36.344 142.086 0 82.076-48.529 196.813-142.264 196.813zm-225.736-202.074c-44.183 0-80 35.817-80 80s35.817 80 80 80 80-35.817 80-80-35.817-80-80-80zm224 0c-44.183 0-80 35.817-80 80s35.817 80 80 80 80-35.817 80-80-35.817-80-80-80z" transform="scale(1 -1) translate(0 -480)"/></svg>