<svg xmlns="http://www.w3.org/2000/svg" viewBox="0 0 512 512"><path d="M475.931 322.066c-12.993 21.217-28.493 38.025-46.064 49.957-20.042 13.607-42.257 20.507-66.028 20.507-32.558 0-50.831-10.297-66.954-19.382-13.141-7.404-23.52-13.253-40.882-13.255-17.366.001-27.746 5.851-40.887 13.255-16.122 9.084-34.395 19.381-66.952 19.381-23.772 0-45.987-6.899-66.027-20.506-17.574-11.932-33.072-28.74-46.066-49.957-22.587-36.88-36.071-85.261-36.071-129.42 0-42.424 2.291-72.609 7.21-94.996 6.673-30.364 18.785-47.547 37.017-52.523 4.014-1.1 8.24-1.656 12.562-1.656 31.438 0 65.118 29.235 96.922 59.182 28.18 26.541 33.171 26.541 49.708 26.541 1.258 0 2.563-.006 3.925-.014 1.483-.008 3.031-.015 4.653-.015l44.003-.974 44.002.974c1.622 0 3.169.007 4.652.015 1.361.008 2.669.014 3.926.014 16.537 0 21.529 0 49.71-26.541 31.803-29.946 65.482-59.182 96.92-59.183h.002c4.32 0 8.547.558 12.551 1.653 18.243 4.979 30.354 22.162 37.026 52.525 4.919 22.389 7.211 52.574 7.211 94.998 0 44.159-13.484 92.54-36.069 129.42zm-2.397-217.549c-3.554-16.173-8.993-27.103-14.218-28.528-1.257-.344-2.638-.519-4.105-.519-21.375.001-57.583 34.095-74.981 50.478-17.039 16.048-27.119 23.831-37.192 28.719-13.453 6.527-24.612 6.527-34.457 6.527-1.314 0-2.683-.006-4.096-.014-1.429-.008-2.92-.015-4.482-.015h-.354l-.354-.008-43.295-.958-43.295.958-.354.008h-.354c-1.563 0-3.054.007-4.472.014-1.425.009-2.791.015-4.106.015-9.845 0-21.004 0-34.457-6.528-10.072-4.887-20.152-12.67-37.188-28.715-17.401-16.385-53.61-50.479-74.985-50.479-1.468 0-2.85.175-4.136.526-5.198 1.419-10.635 12.348-14.189 28.521-4.41 20.07-6.464 48.074-6.464 88.127 0 18.804 2.901 39.153 8.391 58.848 5.472 19.634 13.415 38.258 22.969 53.859 10.603 17.312 22.968 30.836 36.753 40.195 14.639 9.94 30.805 14.98 48.051 14.98 24.161 0 36.71-7.071 51.251-15.264 14.451-8.142 30.83-17.37 56.592-17.372 25.752.003 42.13 9.23 56.588 17.376 14.531 8.188 27.082 15.26 51.244 15.26 17.244 0 33.411-5.041 48.05-14.98 13.787-9.362 26.152-22.886 36.753-40.196 9.554-15.601 17.496-34.225 22.968-53.859 5.489-19.695 8.391-40.044 8.391-58.848-.001-40.048-2.056-68.053-6.467-88.128zm-153.534 183.483a32 32 6300 1 0 64 0 32 32 6300 1 0-64 0zm64-64a32 32 6300 1 0 64 0 32 32 6300 1 0-64 0zm-256 64c17.645 0 32-14.355 32-32s-14.355-32-32-32-32 14.355-32 32 14.355 32 32 32m0 32c-35.29 0-64-28.71-64-64s28.71-64 64-64 64 28.71 64 64-28.71 64-64 64z" transform="scale(1 -1) translate(0 -480)"/></svg>