<svg xmlns="http://www.w3.org/2000/svg" viewBox="0 0 512 512"><path d="M400 160h-288c-61.856 0-112 50.144-112 112 0 61.855 50.144 112 112 112 44.677 0 83.237-26.162 101.215-64h85.567c17.978 37.838 56.538 64 101.218 64 61.854 0 112-50.145 112-112 0-61.856-50.143-112-112-112zm-231.11 128h-40.89v40.891h-32v-40.891h-40.89v-32h40.89v-40.89h32v40.89h40.89v32zm199.11 40.891c-13.747 0-24.892-11.145-24.892-24.891s11.145-24.891 24.892-24.891c13.743 0 24.89 11.145 24.89 24.891s-11.147 24.891-24.89 24.891zm64-64c-13.747 0-24.892-11.144-24.892-24.891s11.145-24.89 24.892-24.89c13.743 0 24.891 11.144 24.891 24.89s-11.148 24.891-24.891 24.891z"/></svg>