<svg xmlns="http://www.w3.org/2000/svg" viewBox="0 0 512 512"><path d="M320 160c0-35.346-28.653-64-64-64-35.346 0-64 28.654-64 64 0 22.677 11.804 42.583 29.592 53.952l-81.286 298.048h39.388l8.727-32h135.158l8.728 32h39.388l-81.286-298.048c17.787-11.369 29.591-31.275 29.591-53.952zm-22.603 224h-82.794l8.727-32h65.34l8.727 32zm-65.339-64l23.942-87.789 23.942 87.789h-47.884zm-34.91 128l8.728-32h100.249l8.727 32h-117.704zm135.026-428.737c49.926 27.079 83.826 79.949 83.826 140.737s-33.9 113.658-83.826 140.737c22.033-35.063 35.826-85.135 35.826-140.737 0-55.602-13.793-105.674-35.826-140.737zm96 0c49.926 27.079 83.826 79.949 83.826 140.737s-33.9 113.658-83.826 140.737c22.033-35.063 35.826-85.135 35.826-140.737 0-55.602-13.793-105.674-35.826-140.737zm-248.348 281.474c-49.926-27.08-83.826-79.949-83.826-140.737s33.9-113.657 83.826-140.737c-22.034 35.063-35.826 85.135-35.826 140.737 0 55.602 13.792 105.674 35.826 140.737zm-179.826-140.737c0-60.788 33.9-113.657 83.826-140.737-22.034 35.063-35.826 85.135-35.826 140.737 0 55.602 13.792 105.674 35.826 140.737-49.926-27.08-83.826-79.949-83.826-140.737z"/></svg>