<svg xmlns="http://www.w3.org/2000/svg" viewBox="0 0 512 512"><path d="M224 96a32 32 12780 1 0 64 0 32 32 12780 1 0-64 0zm32 320c-96.026 0-182.161-42.307-240.815-109.286l24.081-21.071c52.789 60.28 130.311 98.357 216.734 98.357s163.945-38.077 216.734-98.357l24.081 21.071c-58.654 66.979-144.788 109.286-240.815 109.286zm0-96c-67.218 0-127.513-29.615-168.571-76.5l24.082-21.071c35.192 40.187 86.874 65.571 144.489 65.571 57.616 0 109.297-25.384 144.489-65.571l24.082 21.071c-41.058 46.885-101.352 76.5-168.571 76.5zm0-96c-38.41 0-72.865-16.923-96.326-43.715l24.082-21.071c17.596 20.094 43.436 32.786 72.244 32.786s54.648-12.692 72.245-32.786l24.081 21.071c-23.461 26.792-57.916 43.715-96.326 43.715z" transform="scale(1 -1) translate(0 -480)"/></svg>