<svg xmlns="http://www.w3.org/2000/svg" viewBox="0 0 512 512"><path d="M224 288l-128-320h48.596l111.404 97.479 111.406-97.479h48.594l-128 320h-64zm-74.976-273.605l42.871 107.179 39.81-34.833-82.681-72.346zm213.954.001l-82.68 72.344 39.809 34.833 42.871-107.177zm-106.978 93.604l-51.507 45.068 41.172 102.932h20.67l41.173-102.932-51.508-45.068zm110.871 307.999c10.893-18.827 17.129-40.685 17.129-63.999s-6.236-45.172-17.129-63.999l27.72-16c13.613 23.534 21.409 50.855 21.409 79.999s-7.796 56.465-21.409 79.999l-27.72-16zm-221.743-127.998c-10.89 18.827-17.128 40.685-17.128 63.999s6.236 45.172 17.128 63.999l-27.718 15.999c-13.614-23.534-21.41-50.854-21.41-79.998s7.796-56.464 21.41-79.999l27.718 16zm-110.876 191.999c-21.782-37.655-34.252-81.371-34.252-128s12.47-90.345 34.252-127.999l27.719 16c-19.06 32.947-29.971 71.198-29.971 111.999s10.911 79.052 29.971 112l-27.719 16zm477.748-128c0 46.63-12.47 90.346-34.253 128l-27.717-16c19.06-32.948 29.97-71.199 29.97-112s-10.91-79.053-29.971-112l27.718-16c21.784 37.654 34.253 81.37 34.253 128zm-288 0a32 32 12780 1 0 64 0 32 32 12780 1 0-64 0z" transform="scale(1 -1) translate(0 -480)"/></svg>