<svg xmlns="http://www.w3.org/2000/svg" viewBox="0 0 512 512"><path d="M256 0c-141.385 0-256 114.615-256 256 0 70.691 28.653 134.691 74.98 181.019l22.627-22.626c-40.535-40.538-65.607-96.538-65.607-158.393 0-123.712 100.288-224 224-224s224 100.288 224 224c0 61.855-25.072 117.855-65.608 158.393l22.628 22.626c46.326-46.328 74.98-110.328 74.98-181.019 0-141.385-114.615-256-256-256zm0 0c-141.385 0-256 114.615-256 256 0 70.691 28.653 134.691 74.98 181.019l22.627-22.626c-40.535-40.538-65.607-96.538-65.607-158.393 0-123.712 100.288-224 224-224s224 100.288 224 224c0 61.855-25.072 117.855-65.608 158.393l22.628 22.626c46.326-46.328 74.98-110.328 74.98-181.019 0-141.385-114.615-256-256-256zm0 96c-88.366 0-160 71.634-160 160 0 44.184 17.909 84.184 46.862 113.137l22.639-22.638c-23.161-23.161-37.486-55.157-37.486-90.499 0-70.684 57.301-127.985 127.985-127.985s127.984 57.301 127.984 127.985c0 35.342-14.325 67.338-37.486 90.499l22.639 22.638c28.955-28.953 46.863-68.953 46.863-113.137 0-88.366-71.635-160-160-160zm45.255 205.255c11.582-11.582 18.745-27.582 18.745-45.255 0-35.346-28.654-64-64-64-35.347 0-64 28.654-64 64 0 17.673 7.164 33.673 18.745 45.255l22.627-22.627c-5.79-5.791-9.372-13.791-9.372-22.628 0-17.673 14.327-32 32-32s32 14.327 32 32c0 8.837-3.582 16.837-9.372 22.628l22.627 22.627zm-57.255-13.255l-84 224h192l-84-224z"/></svg>