<svg xmlns="http://www.w3.org/2000/svg" viewBox="0 0 512 512"><path d="M312.279 320h-248.279v-224h248.28c5.796.262 19.017 5.729 23.308 9.638l102.486 102.362-102.485 102.361c-4.292 3.91-17.513 9.377-23.31 9.639zm.098 64c22.026 0 52.791-12.728 68.367-28.284l119.576-119.432c15.575-15.556 15.575-41.011 0-56.568l-119.576-119.432c-15.576-15.556-46.341-28.284-68.367-28.284h-272.329c-22.026 0-40.048 18-40.048 40v272c0 22 18.022 40 40.048 40h272.329zm-56.377-176a48 48 2700 1 0 96 0 48 48 2700 1 0-96 0z" transform="scale(1 -1) translate(0 -480)"/></svg>