<svg xmlns="http://www.w3.org/2000/svg" viewBox="0 0 512 512"><path d="M312.377 352h-272.329c-4.362 0-8.048-3.664-8.048-8v-272c0-4.336 3.685-8 8.048-8h272.329c13.527 0 36.19 9.374 45.754 18.926l119.576 119.431c1.996 1.995 2.295 4.392 2.295 5.643 0 1.251-.299 3.649-2.296 5.644l-119.575 119.431c-9.564 9.55-32.227 18.925-45.754 18.925zm0 32c22.026 0 52.791-12.728 68.367-28.284l119.576-119.432c15.575-15.556 15.575-41.011 0-56.568l-119.576-119.432c-15.576-15.556-46.341-28.284-68.367-28.284h-272.329c-22.026 0-40.048 18-40.048 40v272c0 22 18.022 40 40.048 40h272.329zm-24.377-176a48 48 2700 1 0 96 0 48 48 2700 1 0-96 0z" transform="scale(1 -1) translate(0 -480)"/></svg>