<svg xmlns="http://www.w3.org/2000/svg" viewBox="0 0 512 512"><path d="M447.875 415.874h-128.25c-2.848 0-10.369-1.361-19.418-5.109-9.047-3.748-15.326-8.103-17.34-10.116l-212.16-212.16 149.783-149.782 212.159 212.159c2.013 2.014 6.369 8.293 10.117 17.342 3.75 9.049 5.109 16.569 5.109 19.416v128.251zm16.031 64.126c26.451 0 48.094-21.643 48.094-48.094v-144.282c0-26.451-15.303-63.396-34.007-82.102l-223.495-223.494c-9.352-9.352-21.681-14.028-34.008-14.028-12.327 0-24.655 4.675-34.007 14.028l-172.455 172.453c-18.704 18.704-18.704 49.312 0 68.016l223.495 223.495c18.704 18.704 55.649 34.008 82.102 34.008h144.281zm-143.906-144a48 48 2700 1 0 96 0 48 48 2700 1 0-96 0z" transform="scale(1 -1) translate(0 -480)"/></svg>