<svg xmlns="http://www.w3.org/2000/svg" viewBox="0 0 512 512"><path d="M352 320c32-32 128 64 128 96s-96 96-96 96c-64 0-193.75-65.75-256-128s-128-192-128-256c0 0 64-96 96-96s128 96 96 128-64 32-64 64 32 64 64 96 64 64 96 64 32-32 64-64zm-32-192c-22.419 0-42.133 11.536-53.563 28.987 7.893-3.206 16.518-4.987 25.563-4.987 37.556 0 68 30.445 68 68 0 9.045-1.781 17.669-4.987 25.563 17.451-11.43 28.987-31.144 28.987-53.563 0-35.346-28.653-64-64-64zm16-64c-33.896 0-64.273 15.059-84.812 38.85 16.792-9.452 36.17-14.85 56.812-14.85 64.064 0 116 51.935 116 116 0 20.642-5.398 40.02-14.85 56.812 23.791-20.539 38.85-50.916 38.85-84.812 0-61.856-50.145-112-112-112zm32-64c-41.519 0-78.926 17.578-105.206 45.689 22.477-13.772 48.913-21.717 77.206-21.717 81.738 0 148 66.269 148 148.014 0 28.326-7.962 54.79-21.761 77.286 28.154-26.283 45.761-63.718 45.761-105.272 0-79.529-64.471-144-144-144z"/></svg>