<svg xmlns="http://www.w3.org/2000/svg" viewBox="0 0 512 512"><path d="M256 0c-88.366 0-160 71.634-160 160 0 160 160 288 160 288s160-128 160-288c0-88.366-71.635-160-160-160zm0 256c-53.02 0-96-42.98-96-96s42.98-96 96-96 96 42.98 96 96-42.98 96-96 96zm137.128 92.815c-7.091 11.137-14.438 21.69-21.828 31.613 1.173.551 2.333 1.108 3.471 1.677 24.335 12.169 35.229 25.791 35.229 33.895s-10.894 21.726-35.229 33.895c-30.64 15.319-73.93 24.105-118.771 24.105s-88.131-8.786-118.771-24.105c-24.336-12.169-35.229-25.791-35.229-33.895s10.893-21.726 35.229-33.895c1.138-.568 2.298-1.126 3.47-1.677-7.39-9.923-14.737-20.477-21.827-31.613-33.937 17.316-54.872 41.026-54.872 67.185 0 53.02 85.961 96 192 96s192-42.98 192-96c0-26.159-20.935-49.869-54.872-67.185z"/></svg>