<svg xmlns="http://www.w3.org/2000/svg" viewBox="0 0 512 512"><path d="M256 0c-106.039 0-192 85.961-192 192 0 192 192 320 192 320s192-128 192-320c0-106.039-85.961-192-192-192zm66.991 396.373c-24.718 29.093-49.755 51.45-66.991 65.485-17.237-14.035-42.274-36.394-66.991-65.485-25.119-29.564-45.03-60.251-59.181-91.204-17.139-37.485-25.828-75.562-25.828-113.169 0-40.601 15.811-78.771 44.52-107.48s66.879-44.52 107.48-44.52c40.602 0 78.771 15.811 107.48 44.52s44.52 66.879 44.52 107.48c0 37.607-8.689 75.684-25.827 113.169-14.152 30.953-34.063 61.64-59.182 91.204zm-66.991-300.373c-35.346 0-64 28.654-64 64s28.654 64 64 64c35.347 0 64-28.654 64-64s-28.653-64-64-64zm0 96c-17.673 0-32-14.327-32-32s14.327-32 32-32c17.673 0 32 14.327 32 32s-14.327 32-32 32z"/></svg>