<svg xmlns="http://www.w3.org/2000/svg" viewBox="0 0 512 512"><path d="M240 32c-132.548 0-240 107.452-240 240 0 132.549 107.452 240 240 240 132.549 0 240-107.451 240-240 0-132.548-107.451-240-240-240zm0 432c-106.039 0-192-85.961-192-192s85.961-192 192-192 192 85.961 192 192-85.961 192-192 192zm176-199.385l-106.469-24.569 42.469-57.458v-22.588h-22.588l-57.458 42.469-24.569-106.469h-14.77l-24.569 106.469-57.458-42.469h-22.588v22.588l42.469 57.458-106.469 24.569v14.77l106.469 24.569-42.469 57.458v22.588h22.588l57.458-42.469 24.569 106.469h14.77l24.569-106.469 57.458 42.469h22.588v-22.588l-42.469-57.458 106.469-24.569v-14.77zm-160 11.385c0 6.6-5.4 12-12 12h-8c-6.6 0-12-5.4-12-12v-8c0-6.6 5.4-12 12-12h8c6.6 0 12 5.4 12 12v8z"/></svg>