<svg xmlns="http://www.w3.org/2000/svg" viewBox="0 0 512 512"><path d="M384 80l-256-64-128 80v416l128-80 256 64 128-80v-416l-128 80zm-224 327.016v-350.031l4 1v350.031l-4-1zm12 3v-350.031l8 2v350.031l-8-2zm16 4v-350.031l8 2v350.031l-8-2zm16 4v-350.031l8 2v350.031l-8-2zm16 4v-350.031l8 2v350.031l-8-2zm16 4v-350.031l8 2v350.031l-8-2zm16 4v-350.031l8 2v350.031l-8-2zm16 4v-350.031l8 2v350.031l-8-2zm16 4v-350.031l8 2v350.031l-8-2zm16 4v-350.031l8 2v350.031l-8-2zm16 4v-350.031l8 2v350.031l-8-2zm16 4v-350.031l8 2v350.031l-8-2zm20 5l-4-1v-350.031l4 1v350.031z"/></svg>