<svg xmlns="http://www.w3.org/2000/svg" viewBox="0 0 512 512"><path d="M256 64c-51.285 0-99.5 19.972-135.765 56.235-36.263 36.265-56.235 84.48-56.235 135.765 0 51.285 19.972 99.5 56.235 135.765 36.265 36.263 84.48 56.235 135.765 56.235 51.285 0 99.5-19.972 135.765-56.235 36.263-36.265 56.235-84.48 56.235-135.765 0-51.285-19.972-99.5-56.235-135.765-36.265-36.263-84.48-56.235-135.765-56.235zm0-64c141.385 0 256 114.615 256 256s-114.615 256-256 256-256-114.615-256-256 114.615-256 256-256zm55.417 224c-5.618-9.708-13.709-17.798-23.417-23.417v-104.583h-64v104.583c-19.124 11.067-32 31.731-32 55.417 0 35.347 28.654 64 64 64 23.686 0 44.35-12.876 55.417-32h72.583v-64h-72.583zm-55.417 64c-17.673 0-32-14.327-32-32s14.327-32 32-32c17.673 0 32 14.327 32 32s-14.327 32-32 32z"/></svg>