<svg xmlns="http://www.w3.org/2000/svg" viewBox="0 0 512 512"><path d="M288 274.745l54.627 54.628-45.254 45.254-73.373-73.372v-109.255h64zm128-242.745c53.02 0 96 42.98 96 96 0 32.492-16.145 61.209-40.846 78.579-23.295-61.522-72.211-110.438-133.733-133.733 17.37-24.701 46.088-40.846 78.579-40.846zm-241.421 40.846c-61.522 23.295-110.438 72.211-133.733 133.733-24.701-17.37-40.846-46.087-40.846-78.579 0-53.02 42.98-96 96-96 32.492 0 61.209 16.145 78.579 40.846zm81.421 23.154c-106.039 0-192 85.961-192 192 0 46.337 16.416 88.839 43.747 122.01l-11.747 101.99h32l32-57.69-.004-.004c28.242 16.339 61.029 25.694 96.004 25.694 34.974 0 67.76-9.355 96.002-25.693l-.002.002 32 57.691h32l-11.751-101.984c27.334-33.173 43.751-75.676 43.751-122.016 0-106.039-85.961-192-192-192zm0 320c-70.692 0-128-57.308-128-128s57.308-128 128-128 128 57.308 128 128-57.308 128-128 128z"/></svg>