<svg xmlns="http://www.w3.org/2000/svg" viewBox="0 0 512 512"><path d="M256 64c-123.712 0-224 100.288-224 224s100.288 224 224 224 224-100.288 224-224-100.288-224-224-224zm0 404c-99.412 0-180-80.589-180-180 0-99.412 80.588-180 180-180 99.411 0 180 80.588 180 180 0 99.411-80.589 180-180 180zm211.392-324.413c8.021-14.026 12.608-30.271 12.608-47.587 0-53.02-42.98-96-96-96-30.909 0-58.401 14.611-75.96 37.298 65.942 13.618 122.603 52.599 159.352 106.289zm-263.432-106.289c-17.558-22.687-45.051-37.298-75.96-37.298-53.02 0-96 42.98-96 96 0 17.316 4.587 33.561 12.608 47.587 36.75-53.69 93.411-92.671 159.352-106.289zm20.04 122.702h32v160h-32v-160zm32 128h96v32h-96v-32z"/></svg>