<svg xmlns="http://www.w3.org/2000/svg" viewBox="0 0 512 512"><path d="M256.001 96.606v-32.606h64v-32c0-17.673-14.327-32-32.001-32h-95.999c-17.673 0-32 14.327-32 32v32h64v32.606c-107.399 8.169-192 97.901-192 207.394 0 114.875 93.125 208 208 208s208-93.125 208-208c0-109.492-84.601-199.224-192-207.394zm97.137 320.531c-30.221 30.22-70.399 46.863-113.137 46.863s-82.917-16.643-113.137-46.863-46.863-70.4-46.863-113.137 16.643-82.917 46.863-113.137c29.02-29.019 67.224-45.509 108.057-46.774l-10.839 157.01c-.93 13.145 6.232 18.901 15.918 18.901s16.849-5.756 15.918-18.901l-10.838-157.011c40.833 1.266 79.038 17.756 108.058 46.775 30.22 30.22 46.863 70.4 46.863 113.137s-16.643 82.917-46.863 113.137z"/></svg>