<svg xmlns="http://www.w3.org/2000/svg" viewBox="0 0 512 512"><path d="M0 480c0 17.674 14.327 32 32 32h448c17.674 0 32-14.326 32-32v-288h-512v288zm352-256h128v64h-128v-64zm0 96h128v64h-128v-64zm0 96h128v64h-128v-64zm-160-192h128v64h-128v-64zm0 96h128v64h-128v-64zm0 96h128v64h-128v-64zm-160-192h128v64h-128v-64zm0 96h128v64h-128v-64zm0 96h128v64h-128v-64zm448-352h-64v-45.714c0-10.099-7.163-18.286-16-18.286-8.836 0-16 8.187-16 18.286v45.714h-256v-45.714c0-10.099-7.163-18.286-16-18.286s-16 8.187-16 18.286v45.714h-64c-17.673 0-32 14.327-32 32v64h512v-64c0-17.673-14.327-32-32-32zm-368 80c-17.673 0-32-14.327-32-32 0-11.842 6.438-22.174 16-27.708v27.708c0 8.836 7.164 16 16 16s16-7.164 16-16v-27.708c9.562 5.534 16 15.866 16 27.708 0 17.673-14.327 32-32 32zm288 0c-17.672 0-32-14.327-32-32 0-11.842 6.438-22.174 16-27.708v27.708c0 8.836 7.164 16 16 16 8.837 0 16-7.164 16-16v-27.708c9.563 5.534 16 15.866 16 27.708 0 17.673-14.326 32-32 32z"/></svg>