<svg xmlns="http://www.w3.org/2000/svg" viewBox="0 0 512 512"><path d="M64 160h32v32h-32zm64 0h32v32h-32zm64 0h32v32h-32zm64 0h32v32h-32zm64 0h32v32h-32zm64 0h32v32h-32zm-320 64h32v32h-32zm64 0h32v32h-32zm64 0h32v32h-32zm64 0h32v32h-32zm64 0h32v32h-32zm64 0h32v32h-32zm-320 64h32v32h-32zm64 0h32v32h-32zm64 0h32v32h-32zm64 0h32v32h-32zm64 0h32v32h-32zm64 0h32v32h-32zm-320 64h32v32h-32zm64 0h32v32h-32zm64 0h32v32h-32zm64 0h32v32h-32zm64 0h32v32h-32zm64 0h32v32h-32zm-320 64h32v32h-32zm64 0h32v32h-32zm64 0h32v32h-32zm64 0h32v32h-32zm64 0h32v32h-32zm64 0h32v32h-32zm32-384v-32h-64v64h-32v-32h-160v32h-32v-64h-64v32h-64v480h480v-480h-64zm32 448h-416v-352h416v352z"/></svg>