<svg xmlns="http://www.w3.org/2000/svg" viewBox="0 0 512 512"><path d="M416 96h-32v64h-96v-64h-96v64h-96v-64h-32c-17.6 0-32 14.4-32 32v352c0 17.6 14.4 32 32 32h352c17.6 0 32-14.4 32-32v-352c0-17.6-14.4-32-32-32zm-288 384h-63.943l-.057-.058v-63.942h64v64zm0-96h-64v-64h64v64zm0-96h-64v-64h64v64zm96 192h-64v-64h64v64zm0-96h-64v-64h64v64zm0-96h-64v-64h64v64zm96 192h-64v-64h64v64zm0-96h-64v-64h64v64zm0-96h-64v-64h64v64zm96 191.942l-.058.058h-63.942v-64h64v63.942zm0-95.942h-64v-64h64v64zm0-96h-64v-64h64v64zm-256-224c0-8.836-7.164-16-16-16s-16 7.164-16 16v64h32v-64zm192 0c0-8.836-7.164-16-16-16s-16 7.164-16 16v64h32v-64z"/></svg>