<svg xmlns="http://www.w3.org/2000/svg" viewBox="0 0 512 512"><path d="M448 64h-48v16c0 17.645-14.355 32-32 32s-32-14.355-32-32v-16h-160v16c0 17.645-14.355 32-32 32s-32-14.355-32-32v-16h-48c-17.6 0-32 14.4-32 32v352c0 17.6 14.4 32 32 32h384c17.6 0 32-14.4 32-32v-352c0-17.6-14.4-32-32-32zm0 383.942l-.058.058h-383.885l-.057-.058v-287.942h384v287.942zm-304-351.942c8.836 0 16-7.164 16-16v-64c0-8.836-7.164-16-16-16s-16 7.164-16 16v64c0 8.836 7.164 16 16 16zm224 0c8.836 0 16-7.164 16-16v-64c0-8.836-7.164-16-16-16s-16 7.164-16 16v64c0 8.836 7.164 16 16 16zm-80 96h-160v32h128v64h-128v32h128v64h-128v32h160zm64 224h32v-224h-64v32h32zm84 76h-360c-17.6 0-32-10.4-32-28v16c0 17.6 14.4 32 32 32h360c17.6 0 32-14.4 32-32v-16c0 17.6-14.4 28-32 28z"/></svg>