<svg xmlns="http://www.w3.org/2000/svg" viewBox="0 0 512 512"><path d="M397.759 318.145l-76.8-128c-35.532-59.222-111.393-79.334-171.395-46.317-12.93-23.235-21.564-45.225-21.564-63.828 0-17.485 3.79-40.151 21.843-48.83 1.368-.658 3.435-1.651 5.47-3.687 6.249-6.249 6.249-16.379 0-22.628-5.266-5.266-13.29-6.094-19.421-2.484-25.726 12.414-39.892 39.978-39.892 77.629 0 25.991 11.055 54.009 27.449 82.79-42.94 40.348-53.559 106.479-22.008 159.065l76.8 128c24.001 40.003 66.395 62.164 109.88 62.164 22.411 0 45.118-5.891 65.734-18.26 60.619-36.37 80.275-114.996 43.904-175.614zm-161.69-20.32c-4.576 2.912-9.688 4.303-14.737 4.303-9.09 0-17.985-4.503-23.228-12.74l-36.771-57.782c-8.153-12.813-4.376-29.811 8.438-37.965 12.812-8.154 29.81-4.377 37.965 8.437l36.771 57.782c8.153 12.814 4.376 29.811-8.438 37.965z"/></svg>