<svg xmlns="http://www.w3.org/2000/svg" viewBox="0 0 512 512"><path d="M240 32c-48 0-144 18.68-144 96v212c0 77.318 64.471 140 144 140 79.528 0 144-62.682 144-140v-212c0-77.32-96-96-144-96zm112 308c0 28.677-11.537 55.686-32.484 76.051-10.287 10.002-22.277 17.857-35.635 23.353-13.873 5.703-28.636 8.596-43.881 8.596s-30.009-2.893-43.881-8.598c-13.358-5.494-25.35-13.351-35.637-23.353-20.946-20.363-32.482-47.372-32.482-76.049v-116h224v116zm0-148h-96v-128c18.868 1.633 41.422 6.904 60.204 15.878 11.805 5.641 20.795 12.391 26.721 20.063 6.105 7.907 9.075 17.086 9.075 28.059v64z"/></svg>