<svg xmlns="http://www.w3.org/2000/svg" viewBox="0 0 512 512"><path d="M239.999 32c-47.999 0-143.999 18.68-143.999 96v212c0 77.318 64.471 140 143.999 140s144.001-62.682 144.001-140v-212c0-77.32-96-96-144.001-96zm-111.999 96c0-10.974 2.969-20.152 9.076-28.06 5.924-7.672 14.915-14.422 26.72-20.063 18.782-8.975 41.336-14.245 60.204-15.877v128h-96v-64zm224 212c0 28.677-11.537 55.686-32.484 76.051-10.287 10.002-22.277 17.857-35.635 23.353-13.873 5.704-28.637 8.597-43.882 8.597-15.244 0-30.008-2.893-43.881-8.598-13.357-5.494-25.349-13.351-35.636-23.353-20.946-20.364-32.482-47.374-32.482-76.051v-115.999h224v116z"/></svg>