<svg xmlns="http://www.w3.org/2000/svg" viewBox="0 0 512 512"><path d="M336 0c-8.837 0-16 7.163-16 16v48h-176c-8.836 0-16 7.163-16 16v416c0 8.836 7.164 16 16 16h192c8.837 0 16-7.164 16-16v-480c0-8.837-7.163-16-16-16zm-144 480h-32v-32h32v32zm0-64h-32v-32h32v32zm0-64h-32v-32h32v32zm64 128h-32v-32h32v32zm0-64h-32v-32h32v32zm0-64h-32v-32h32v32zm64 128h-32v-32h32v32zm0-64h-32v-32h32v32zm0-64h-32v-32h32v32zm0-80c0 8.836-7.163 16-16 16h-128c-8.836 0-16-7.164-16-16v-160c0-8.837 7.164-16 16-16h128c8.837 0 16 7.163 16 16v160z"/></svg>