<svg xmlns="http://www.w3.org/2000/svg" viewBox="0 0 512 512"><path d="M490.594 144.054c-44.404-6.384-91.691-11.008-141.038-13.61l82.444-82.444-32-32-112.279 112.278c-10.503-.184-21.078-.278-31.721-.278l-128-128-32 32 97.098 97.098c-60.461 2.121-118.169 7.262-171.693 14.956-13.766 53.863-21.405 113.376-21.405 175.946s7.639 122.083 21.402 175.945c71.821 10.326 151.17 16.055 234.598 16.055 83.428 0 162.775-5.729 234.594-16.055 13.767-53.862 21.406-113.375 21.406-175.945s-7.639-122.083-21.406-175.946zm-58.648 293.243c-53.865 6.883-113.375 10.703-175.946 10.703s-122.083-3.82-175.946-10.703c-10.324-35.908-16.054-75.583-16.054-117.297 0-41.715 5.729-81.39 16.054-117.298 53.863-6.883 113.375-10.702 175.946-10.702 62.568 0 122.081 3.819 175.943 10.702 10.328 35.908 16.057 75.583 16.057 117.298 0 41.714-5.729 81.389-16.054 117.297z"/></svg>