<svg xmlns="http://www.w3.org/2000/svg" viewBox="0 0 544 512"><path d="M128 32h-96c-17.6 0-32 14.4-32 32v384c0 17.6 14.4 32 32 32h96c17.6 0 32-14.4 32-32v-384c0-17.6-14.4-32-32-32zm-32 372c0 6.6-5.4 12-12 12h-8c-6.6 0-12-5.4-12-12v-8c0-6.6 5.4-12 12-12h8c6.6 0 12 5.4 12 12v8zm32-84h-96v-160h96v160zm0-192h-96v-32h96v32zm192-96h-96c-17.6 0-32 14.4-32 32v384c0 17.6 14.4 32 32 32h96c17.6 0 32-14.4 32-32v-384c0-17.6-14.4-32-32-32zm-32 372c0 6.6-5.4 12-12 12h-8c-6.6 0-12-5.4-12-12v-8c0-6.6 5.4-12 12-12h8c6.6 0 12 5.4 12 12v8zm32-84h-96v-160h96v160zm0-192h-96v-32h96v32zm192-96h-96c-17.6 0-32 14.4-32 32v384c0 17.6 14.4 32 32 32h96c17.6 0 32-14.4 32-32v-384c0-17.6-14.4-32-32-32zm-32 372c0 6.6-5.4 12-12 12h-8c-6.6 0-12-5.4-12-12v-8c0-6.6 5.4-12 12-12h8c6.6 0 12 5.4 12 12v8zm32-84h-96v-160h96v160zm0-192h-96v-32h96v32z"/></svg>