<svg xmlns="http://www.w3.org/2000/svg" viewBox="0 0 512 512"><path d="M256 208.248c-26.331 0-47.752 21.421-47.752 47.752 0 26.331 21.421 47.752 47.752 47.752 26.331 0 47.752-21.421 47.752-47.752 0-26.331-21.421-47.752-47.752-47.752zm0-208.248c-141.385 0-256 114.615-256 256s114.615 256 256 256 256-114.615 256-256-114.615-256-256-256zm183.442 123.984c-1.923-2.667-3.9-5.3-5.942-7.887 2.043 2.587 4.02 5.219 5.942 7.887zm-12.684-16.008c-1.14-1.313-2.296-2.616-3.468-3.906 1.174 1.289 2.327 2.593 3.468 3.906zm-3.828-4.299c-1.124-1.233-2.26-2.458-3.416-3.669 1.156 1.21 2.29 2.436 3.416 3.669zm-322.419 316.327c1.393 1.321 2.802 2.618 4.225 3.898-1.421-1.281-2.833-2.577-4.225-3.898zm4.415 4.074c1.468 1.318 2.952 2.616 4.449 3.895-1.497-1.279-2.982-2.575-4.449-3.895zm31.274 23.602c-1.912-1.196-3.803-2.426-5.678-3.68h7.978l-2.3 3.68zm7.3-11.68h-24.17c1.799 1.368 3.616 2.71 5.452 4.023-5.285-3.774-10.411-7.785-15.375-12.023h39.093l-5 8zm-12.996 7.987c-1.892-1.265-3.762-2.563-5.615-3.886 1.852 1.326 3.723 2.622 5.615 3.886zm22.996-23.987h-52.993c-1.453-1.379-2.893-2.773-4.313-4.194-2.442-2.442-4.805-4.945-7.122-7.481 1.126 1.236 2.264 2.464 3.422 3.676h66.006l-5 7.999zm-68.277-15.998c1.146 1.32 2.309 2.629 3.486 3.927-1.18-1.296-2.34-2.607-3.486-3.927zm78.277-.002h-78.279c-4.472-5.151-8.695-10.48-12.663-15.982 1.947 2.701 3.948 5.365 6.017 7.982h89.925l-5 8zm10-16h-100.954c-2.87-3.982-5.624-8.043-8.226-12.2.884 1.413 1.797 2.808 2.713 4.2h111.467l-5 8zm10-16h-113.101l21.051-13.156-8.25 5.156h105.3l-5 8zm10-16h-97.5l22.855-14.285-10.055 6.285h89.7l-5 8zm230.456-204.973l4.844-3.027h-105.3l-5 8h97.5l-12.8 8h-89.7l-5 8h81.899l5.237-3.273-19.608 12.255 1.572-.982h-71.546c3.665 2.418 7.146 5.092 10.414 8h48.332l-12.8 8h-27.593c2.234 2.545 4.329 5.215 6.271 8h8.521l4.044-2.527-10.066 6.292c8.76 13.985 13.829 30.517 13.829 48.236 0 50.26-40.744 91.003-91.006 91.003-17.718 0-34.25-5.068-48.235-13.827l-4.265 6.823h-81.9l24.66-15.413-11.86 7.413h71.546c-3.665-2.418-7.145-5.092-10.414-8h-48.332l31.624-19.765c-8.759-13.984-13.829-30.517-13.829-48.235 0-50.26 40.744-91.003 91.005-91.003 17.719 0 34.25 5.068 48.234 13.827l71.566-114.504c3.849 2.409 7.617 4.942 11.315 7.581-1.859-1.33-3.738-2.631-5.638-3.901h-7.977l-5 8h24.17c-1.804-1.372-3.626-2.717-5.466-4.034 5.29 3.778 10.421 7.792 15.39 12.034h-39.094l-5 8h52.992c-1.388-1.317-2.793-2.611-4.211-3.887 2.898 2.616 5.746 5.303 8.524 8.081 1.254 1.253 2.48 2.528 3.701 3.806h-66.006l-5 8h78.279c2.276 2.623 4.499 5.285 6.646 8h-89.925l-5 8h100.954c2.87 3.982 5.623 8.043 8.226 12.2l-23.724 14.827zm-21.322-66.992c1.493 1.276 2.975 2.569 4.438 3.886-1.465-1.316-2.945-2.61-4.438-3.886zm-69.134 47.965l-5 8h113.1l6.08-3.8c-.885-1.413-1.797-2.808-2.713-4.2h-111.467zm-160.7 176l-12.8 8h27.593c-2.234-2.545-4.329-5.215-6.272-8h-8.521z"/></svg>