<svg xmlns="http://www.w3.org/2000/svg" viewBox="0 0 512 512"><path d="M256 0c-141.386 0-256 35.816-256 80v64c0 44.183 114.611 80 256 80 141.385 0 256-35.817 256-80v-64c0-44.184-114.615-80-256-80zm-.807 256c-114.627 0-211.253-23.543-243.873-56-7.615 7.577-11.32 15.639-11.32 24v64c0 44.184 114.611 80 256 80 141.385 0 256-35.816 256-80v-64c0-8.361-4.516-16.423-12.131-24-32.619 32.457-130.049 56-244.676 56zm0 144c-114.627 0-211.253-23.544-243.873-56-7.615 7.576-11.32 15.639-11.32 24v64c0 44.183 114.611 80 256 80 141.385 0 256-35.817 256-80v-64c0-8.361-4.516-16.424-12.131-24-32.619 32.456-130.049 56-244.676 56z"/></svg>