<svg xmlns="http://www.w3.org/2000/svg" viewBox="0 0 512 512"><path d="M512 112c0-14.205-5.024-35.38-28.958-55.589-14.22-12.006-33.695-22.475-57.888-31.115-45.674-16.313-105.747-25.296-169.154-25.296s-123.48 8.983-169.155 25.295c-24.192 8.64-43.668 19.109-57.887 31.115-23.934 20.21-28.958 41.385-28.958 55.59h-.086v144h.086-.086v144h.086c0 14.205 5.024 35.381 28.958 55.59 14.219 12.006 33.695 22.475 57.887 31.115 45.674 16.313 105.748 25.295 169.155 25.295s123.48-8.982 169.154-25.295c24.192-8.641 43.669-19.109 57.888-31.115 23.934-20.209 28.958-41.385 28.958-55.59v-288zm-396.412-28.885c38.14-12.326 88.005-19.115 140.412-19.115 52.406 0 102.272 6.789 140.411 19.115 37.277 12.048 49.46 24.998 51.416 28.885-1.956 3.887-14.139 16.837-51.416 28.885-38.139 12.326-88.005 19.115-140.411 19.115-52.407 0-102.272-6.789-140.412-19.115-37.276-12.048-49.459-24.998-51.415-28.885 1.956-3.887 14.139-16.837 51.415-28.885zm280.824 345.77c-38.14 12.328-88.005 19.115-140.412 19.115-52.407 0-102.273-6.787-140.412-19.115-37.277-12.047-49.459-24.998-51.415-28.885h-.087v-66.62c7.044 3.307 14.628 6.421 22.759 9.325 45.674 16.312 105.748 25.295 169.155 25.295s123.48-8.983 169.154-25.295c8.097-2.892 15.652-5.993 22.673-9.284v66.579c-1.956 3.887-14.138 16.838-51.415 28.885zm0-144c-38.14 12.327-88.005 19.115-140.412 19.115-52.407 0-102.273-6.788-140.412-19.115-37.277-12.048-49.459-24.998-51.415-28.885h-.087v-66.62c7.044 3.306 14.628 6.421 22.759 9.325 45.675 16.312 105.748 25.295 169.155 25.295s123.48-8.983 169.154-25.295c8.097-2.892 15.652-5.993 22.673-9.284v66.579c-1.956 3.887-14.138 16.837-51.415 28.885z"/></svg>