<svg xmlns="http://www.w3.org/2000/svg" viewBox="0 0 512 512"><path d="M256 0c-141.385 0-256 42.98-256 96v320c0 53.02 114.615 96 256 96s256-42.98 256-96v-320c0-53.02-114.615-96-256-96zm224 416c0 4.563-9.96 21.323-54.217 37.92-21.501 8.062-46.785 14.432-75.149 18.931-29.908 4.744-61.747 7.149-94.634 7.149-32.886 0-64.726-2.405-94.634-7.149-28.365-4.499-53.648-10.868-75.149-18.931-44.257-16.597-54.217-33.357-54.217-37.92v-113.501c43.667 29.519 127.604 49.501 224 49.501s180.333-19.982 224-49.501v113.501zm0-160c0 4.563-9.96 21.323-54.217 37.92-21.501 8.062-46.785 14.432-75.149 18.931-29.908 4.744-61.747 7.149-94.634 7.149-32.886 0-64.726-2.405-94.634-7.149-28.365-4.499-53.648-10.868-75.149-18.931-44.257-16.597-54.217-33.357-54.217-37.92v-113.501c43.667 29.518 127.604 49.501 224 49.501s180.333-19.983 224-49.501v113.501zm-39.826-128c-4.342 1.962-9.115 3.942-14.391 5.92-21.501 8.063-46.785 14.432-75.149 18.931-29.908 4.744-61.747 7.149-94.634 7.149-32.886 0-64.726-2.405-94.634-7.149-28.365-4.499-53.648-10.868-75.149-18.931-5.275-1.978-10.049-3.958-14.391-5.92-32.084-14.498-39.826-27.981-39.826-32 0-4.563 9.96-21.324 54.217-37.92 21.501-8.063 46.785-14.432 75.149-18.931 29.908-4.744 61.748-7.149 94.634-7.149 32.887 0 64.726 2.405 94.634 7.149 28.364 4.499 53.648 10.868 75.149 18.931 44.257 16.596 54.217 33.357 54.217 37.92 0 4.019-7.741 17.502-39.826 32z"/></svg>