<svg xmlns="http://www.w3.org/2000/svg" viewBox="0 0 576 512"><path d="M240 64c-25.333 0-49.791 3.975-72.693 11.814-21.462 7.347-40.557 17.718-56.751 30.823-30.022 24.295-46.556 55.401-46.556 87.587 0 17.995 5.033 35.474 14.96 51.949 10.343 17.17 25.949 32.897 45.13 45.479 15.22 9.984 25.468 25.976 28.181 43.975.451 2.995.815 6.003 1.09 9.016 1.361-1.26 2.712-2.557 4.057-3.897 12.069-12.02 28.344-18.656 45.161-18.656 2.674 0 5.359.168 8.047.509 9.68 1.226 19.562 1.848 29.374 1.848 25.333 0 49.79-3.974 72.692-11.814 21.463-7.346 40.558-17.717 56.752-30.822 30.023-24.295 46.556-55.401 46.556-87.587s-16.533-63.291-46.556-87.587c-16.194-13.106-35.289-23.476-56.752-30.823-22.902-7.839-47.359-11.814-72.692-11.814zm0-64c132.548 0 240 86.957 240 194.224s-107.452 194.224-240 194.224c-12.729 0-25.223-.81-37.417-2.355-51.553 51.347-111.086 60.554-170.583 61.907v-12.567c32.126-15.677 58-44.233 58-76.867 0-4.553-.356-9.024-1.015-13.397-54.279-35.607-88.985-89.994-88.985-150.945 0-107.267 107.452-194.224 240-194.224zm258 435.343c0 27.971 18.157 52.449 46 65.886v10.771c-51.563-1.159-98.893-9.051-143.571-53.063-10.57 1.325-21.397 2.02-32.429 2.02-47.735 0-91.704-12.879-126.807-34.52 72.337-.253 140.63-23.427 192.417-65.336 26.104-21.126 46.697-45.913 61.207-73.674 15.383-29.433 23.183-60.791 23.183-93.203 0-5.224-.225-10.418-.629-15.584 36.285 29.967 58.629 70.811 58.629 115.838 0 52.244-30.079 98.861-77.12 129.382-.571 3.748-.88 7.58-.88 11.483z"/></svg>