<svg xmlns="http://www.w3.org/2000/svg" viewBox="0 0 512 512"><path d="M418 32h-324c-51.7 0-94 42.3-94 94v354l96-96h322c51.7 0 94-42.3 94-94v-164c0-51.7-42.3-94-94-94zm30 94v6h-384v-6c0-.672.032-1.337.078-2h383.844c.046.663.078 1.328.078 2zm-.078 166h-383.922v-8h384v6c0 .672-.032 1.338-.078 2zm-383.922 28v-4h368.708c-4.376 2.532-9.406 4-14.708 4h-354zm0-12v-8h382.212c-1.059 2.887-2.556 5.581-4.406 8h-377.806zm0-32v-8h384v8h-384zm0-16v-8h384v8h-384zm0-16v-8h384v8h-384zm0-16v-8h384v8h-384zm0-16v-8h384v8h-384zm0-16v-8h384v8h-384zm0-16v-8h384v8h-384zm0-16v-8h384v8h-384zm0-16v-8h384v8h-384zm354-52c5.302 0 10.332 1.468 14.709 4h-353.418c4.377-2.532 9.407-4 14.709-4h324zm23.806 12c1.852 2.419 3.348 5.113 4.406 8h-380.424c1.058-2.887 2.555-5.581 4.406-8h371.612z"/></svg>