<svg xmlns="http://www.w3.org/2000/svg" viewBox="0 0 512 512"><path d="M256 102c17.952 0 34.692 5.287 48.75 14.38l-124.37 124.37c-9.093-14.058-14.38-30.797-14.38-48.75 0-49.626 40.374-90 90-90zm-48.75 165.619l124.369-124.369c9.095 14.058 14.381 30.797 14.381 48.75 0 49.626-40.374 90-90 90-17.953 0-34.692-5.286-48.75-14.381zm256.75-267.619h-416c-26.4 0-48 21.6-48 48v288c0 26.4 21.6 48 48 48h80v128l153.6-128h182.4c26.4 0 48-21.6 48-48v-288c0-26.4-21.6-48-48-48zm-208 320c-70.692 0-128-57.308-128-128s57.308-128 128-128 128 57.308 128 128-57.308 128-128 128z"/></svg>