<svg xmlns="http://www.w3.org/2000/svg" viewBox="0 0 512 512"><path d="M464 0h-416c-26.4 0-48 21.6-48 48v288c0 26.4 21.6 48 48 48h80v128l153.6-128h182.4c26.4 0 48-21.6 48-48v-288c0-26.4-21.6-48-48-48zm-240 135.385c-29.821 6.85-55.189 28.007-70.488 56.941 2.134-.215 4.298-.326 6.488-.326 35.346 0 64 28.654 64 64 0 35.346-28.654 64-64 64s-64-28.654-64-64c0-43.612 15.198-84.729 42.795-115.775 23.247-26.152 52.945-42.613 85.205-47.604v42.764zm192 0c-29.82 6.85-55.189 28.007-70.488 56.941 2.134-.215 4.298-.326 6.488-.326 35.346 0 64 28.654 64 64 0 35.346-28.654 64-64 64s-64-28.654-64-64c0-43.612 15.198-84.729 42.795-115.775 23.246-26.152 52.945-42.613 85.205-47.604v42.764z"/></svg>