<svg xmlns="http://www.w3.org/2000/svg" viewBox="0 0 512 512"><path d="M464 0h-416c-26.4 0-48 21.6-48 48v288c0 26.4 21.6 48 48 48h80v128l153.6-128h182.4c26.4 0 48-21.6 48-48v-288c0-26.4-21.6-48-48-48zm-240 288h-96c-35.2 0-64-28.8-64-64v-32c0-35.2 28.8-64 64-64h96v32h-96c-8.477 0-16.493 3.348-22.573 9.427-6.079 6.08-9.427 14.096-9.427 22.573v32c0 8.477 3.348 16.493 9.427 22.573 6.08 6.079 14.096 9.427 22.573 9.427h96v32zm-32-64v-32h128v32h-128zm256 0c0 35.2-28.8 64-64 64h-96v-32h96c8.477 0 16.493-3.348 22.572-9.427 6.08-6.08 9.428-14.096 9.428-22.573v-32c0-8.477-3.348-16.493-9.428-22.573-6.079-6.079-14.095-9.427-22.572-9.427h-96v-32h96c35.2 0 64 28.8 64 64v32z"/></svg>