<svg xmlns="http://www.w3.org/2000/svg" viewBox="0 0 512 512"><path d="M256 384.5c35.565 0 64.5-28.935 64.5-64.5h-129c0 35.565 28.935 64.5 64.5 64.5zm208 95.5h-416c-26.4 0-48-21.6-48-48v-288c0-26.4 21.6-48 48-48h80v-128l153.6 128h182.4c26.4 0 48 21.6 48 48v288c0 26.4-21.6 48-48 48zm-80-304c0-8.8-7.2-16-16-16h-224c-8.8 0-16 7.2-16 16v128c0 8.8 7.2 16 16 16h15.5c0 53.295 43.205 96.5 96.5 96.5 53.296 0 96.5-43.205 96.5-96.5h15.5c8.8 0 16-7.2 16-16v-128zm-160 48a32 32 2700 1 0 64 0 32 32 2700 1 0-64 0z" transform="scale(1 -1) translate(0 -480)"/></svg>