<svg xmlns="http://www.w3.org/2000/svg" viewBox="0 0 512 512"><path d="M464 0h-416c-26.4 0-48 21.6-48 48v288c0 26.4 21.6 48 48 48h80v128l153.6-128h182.4c26.4 0 48-21.6 48-48v-288c0-26.4-21.6-48-48-48zm-16 160c0 35.2-28.8 64-64 64h-224c-17.6 0-32-14.4-32-32v-32c0-17.6 14.4-32 32-32h176c8.837 0 16 7.164 16 16s-7.163 16-16 16h-175.943l-.057.057v31.886l.057.057h223.943c8.477 0 16.493-3.348 22.572-9.428 6.08-6.079 9.428-14.095 9.428-22.572v-32c0-8.477-3.348-16.493-9.428-22.573-6.079-6.079-14.095-9.427-22.572-9.427h-256c-8.477 0-16.493 3.348-22.573 9.427-6.079 6.08-9.427 14.096-9.427 22.573v96c0 8.477 3.348 16.493 9.427 22.572 6.08 6.08 14.096 9.428 22.573 9.428h208c8.837 0 16 7.164 16 16s-7.163 16-16 16h-208c-35.2 0-64-28.8-64-64v-96c0-35.2 28.8-64 64-64h256c35.2 0 64 28.8 64 64v32z"/></svg>