<svg xmlns="http://www.w3.org/2000/svg" viewBox="0 0 544 512"><path d="M218 368c0 28.688 6.681 55.841 18.555 80h-236.555v-57.257c41.682-38.573 112.118-67.481 136.586-71.375 11.055-1.759 11.307-32.157 11.307-32.157s-32.485-32.158-39.564-75.401c-19.046 0-30.808-45.973-11.761-62.148-.793-17.027-24.479-133.662 95.432-133.662s96.227 116.635 95.43 133.662c19.048 16.175 7.284 62.148-11.761 62.148-2.131 13.017-6.571 25.017-11.727 35.451-10.216 11.5-19.007 24.29-26.077 38.105-1.109 1.197-1.76 1.845-1.76 1.845s.005.597.043 1.604c-11.622 23.955-18.148 50.821-18.148 79.185zm182-144c-79.529 0-144 64.471-144 144s64.471 144 144 144 144-64.471 144-144-64.471-144-144-144zm80 160h-160v-32h160v32z"/></svg>