<svg xmlns="http://www.w3.org/2000/svg" viewBox="0 0 512 512"><path d="M320 288h192v64h-192zm64 134.743c-41.683-38.573-112.118-67.481-136.587-71.375-11.056-1.759-11.308-32.157-11.308-32.157s32.484-32.158 39.564-75.401c19.045 0 30.809-45.973 11.761-62.148.797-17.027 24.481-133.662-95.43-133.662s-96.225 116.635-95.432 133.662c-19.047 16.175-7.285 62.148 11.761 62.148 7.079 43.243 39.564 75.401 39.564 75.401s-.252 30.398-11.307 32.157c-24.468 3.894-94.904 32.802-136.586 71.375v57.257h384v-57.257z"/></svg>