<svg xmlns="http://www.w3.org/2000/svg" viewBox="0 0 512 512"><path d="M152.983 292c-.493 2.762-1.188 5.575-2.164 8h49.679c-.688-2.631-1.245-5.306-1.662-8h-45.853zm-143.584 96c-1.724 2.638-3.245 5.306-4.529 8h194.986c5.639-2.821 11.325-5.508 16.946-8h-207.403zm31.746-32c-3.452 2.599-6.777 5.269-9.945 8h202.902c-1.456-2.549-2.89-5.219-4.28-8h-188.677zm97.14-48c-6.406 1.61-14.68 4.332-24.004 8h92.448c-1.359-2.521-2.583-5.191-3.661-8h-64.783zm-73.077 32c-4.316 2.558-8.585 5.228-12.75 8h173.643c-1.117-2.591-2.186-5.255-3.182-8h-157.711zm-63.412 64c-.776 2.649-1.306 5.317-1.575 8h170.856l.949-.595c4.079-2.511 8.32-4.987 12.661-7.405h-182.891zm13.524-24h221.067c2.17-.808 4.317-1.587 6.409-2.307-1.259-1.793-2.542-3.699-3.829-5.693h-216.388c-2.602 2.621-5.025 5.292-7.259 8zm108.959-304h135.453c-2.175-2.818-4.63-5.498-7.394-8h-120.669c-2.764 2.502-5.215 5.183-7.39 8zm-15.877 48h154.566c3.915-1.792 8-3.374 12.259-4.734-.104-1.083-.226-2.172-.362-3.266h-165.731c-.336 2.704-.574 5.377-.732 8zm-28.889 208h139.747c-2.667-2.341-5.145-5.021-7.404-8h-116.194c-5.285 2.455-10.704 5.127-16.149 8zm54.336-80h70.037c.404-.855.826-1.697 1.269-2.525-.159-1.705-.313-3.543-.453-5.475h-75.065c1.35 2.799 2.767 5.47 4.212 8zm-21.495-40c2.376 2.069 5.055 3.283 7.928 3.283.263 1.593.581 3.161.921 4.717h83.138c.127-2.611.314-5.279.581-8h-92.568zm-3.553-64c.248 3.018.528 5.713.775 8h114.753c1.916-2.729 4.008-5.4 6.284-8h-121.812zm-.66-16c-.014 2.779.048 5.453.156 8h130.18c3.217-2.898 6.626-5.564 10.224-8h-140.56zm4.237-32c-.776 2.656-1.424 5.33-1.958 8h163.155c-.534-2.67-1.182-5.344-1.958-8h-159.239zm6.628-16c-1.456 2.603-2.729 5.278-3.839 8h153.67c-1.109-2.722-2.381-5.397-3.836-8h-145.995zm79.003 192h-46.956c1.94 2.176 3.142 3.359 3.142 3.359s-.018 1.878-.225 4.641h44.044c-.141-2.685-.146-5.36-.005-8zm-34.645-224c-7.931 1.915-14.756 4.643-20.622 8h98.528c-5.857-3.354-12.666-6.085-20.583-8h-57.323zm-24.581 208c1.968 2.971 3.896 5.648 5.69 8h54.435c.471-2.743 1.096-5.417 1.889-8h-62.014zm65.345-32h-80.822c.846 2.745 1.796 5.413 2.82 8h78.136c-.093-2.555-.145-5.224-.134-8zm-100.653-32c.755 2.85 1.761 5.56 2.979 8h99.473c.403-2.643.885-5.312 1.459-8h-103.911zm5.116-32c-2.11 2.245-3.676 4.977-4.76 8h111.377c1.226-2.693 2.57-5.365 4.062-8h-110.679zm-6.502 16c-.256 2.622-.25 5.319-.014 8h107.282c.754-2.668 1.621-5.338 2.585-8h-109.853zm265.408 222.687c-9.476-1.494-9.692-27.327-9.692-27.327s27.844-27.328 33.912-64.076c16.326 0 26.407-39.069 10.082-52.814.681-14.47 20.984-113.588-81.799-113.588-102.782 0-82.479 99.118-81.799 113.588-16.327 13.745-6.244 52.814 10.081 52.814 6.067 36.748 33.913 64.076 33.913 64.076s-.216 25.833-9.692 27.327c-30.524 4.816-144.503 54.658-144.503 109.313h384c0-54.655-113.979-104.497-144.503-109.313z"/></svg>