<svg xmlns="http://www.w3.org/2000/svg" viewBox="0 0 512 512"><path d="M424 512h-336c-13.255 0-24-10.745-24-24 0-34.431 14.534-76.102 38.879-111.471 20.346-29.559 45.342-51.81 72.339-64.805-11.899-10.822-22.147-24.013-30.254-39.061-13-24.131-19.873-52.024-19.873-80.664 0-39.803 13.102-77.411 36.893-105.895 24.832-29.73 58.221-46.104 94.016-46.104s69.184 16.374 94.017 46.105c23.79 28.484 36.893 66.091 36.893 105.895 0 28.64-6.872 56.533-19.872 80.664-8.107 15.048-18.355 28.239-30.255 39.061 26.997 12.995 51.993 35.246 72.339 64.805 24.344 35.368 38.878 77.039 38.878 111.47 0 13.255-10.745 24-24 24zm-308.963-48h281.926c-4.613-19.67-14.26-41.192-27.381-60.255-20.727-30.113-46.588-49.811-72.819-55.463-11.053-2.382-18.944-12.155-18.944-23.462v-17.146c0-8.63 4.633-16.595 12.135-20.861 29.739-16.916 48.956-54.133 48.956-94.813 0-57.346-37.192-104-82.909-104-45.716 0-82.909 46.654-82.909 104 0 40.68 19.217 77.896 48.957 94.813 7.501 4.267 12.134 12.231 12.134 20.861v17.146c0 11.307-7.892 21.08-18.944 23.462-26.231 5.652-52.092 25.35-72.82 55.463-13.123 19.063-22.768 40.585-27.382 60.255z"/></svg>