<svg xmlns="http://www.w3.org/2000/svg" viewBox="0 0 512 512"><path d="M206.92 464h-155.883c4.614-19.67 14.259-41.192 27.38-60.255 20.728-30.113 46.589-49.811 72.82-55.463 11.053-2.382 18.944-12.155 18.944-23.462v-17.146c0-8.63-4.633-16.595-12.134-20.861-29.74-16.917-48.957-54.133-48.957-94.813 0-57.346 37.193-104 82.909-104 45.717 0 82.909 46.654 82.909 104 0 4.599-.258 9.15-.737 13.636 15.016-8.696 31.351-15.361 48.629-19.638-1.249-37.569-14.193-72.845-36.784-99.893-24.832-29.731-58.221-46.105-94.016-46.105s-69.184 16.374-94.017 46.105c-23.79 28.484-36.892 66.092-36.892 105.895 0 28.64 6.872 56.533 19.873 80.664 8.107 15.048 18.355 28.238 30.254 39.061-26.997 12.995-51.993 35.246-72.339 64.805-24.345 35.368-38.879 77.039-38.879 111.47 0 13.255 10.745 24 24 24h223.923c-16.219-13.54-30.113-29.768-41.003-48zm81.08-112h160v32h-160zm80-90c58.448 0 106 47.552 106 106s-47.552 106-106 106-106-47.552-106-106 47.552-106 106-106m0-38c-79.529 0-144 64.471-144 144s64.471 144 144 144 144-64.471 144-144-64.471-144-144-144z"/></svg>