<svg xmlns="http://www.w3.org/2000/svg" viewBox="0 0 512 512"><path d="M256 288c70.692 0 128-57.308 128-128s-57.308-128-128-128-128 57.308-128 128 57.308 128 128 128zm-96-128c0-1.34.035-2.673.09-4h191.82c.055 1.327.09 2.66.09 4s-.035 2.673-.09 4h-191.82c-.055-1.327-.09-2.66-.09-4zm28.303-68h135.395c2.54 2.529 4.937 5.202 7.184 8h-149.762c2.246-2.798 4.642-5.471 7.183-8zm9.118-8c3.831-2.96 7.891-5.637 12.149-8h92.859c4.258 2.363 8.318 5.04 12.149 8h-117.157zm139.24 24c1.672 2.584 3.223 5.253 4.645 8h-170.612c1.422-2.747 2.973-5.416 4.645-8h161.322zm8.328 16c1.061 2.612 2.011 5.28 2.842 8h-183.662c.831-2.72 1.781-5.388 2.841-8h177.979zm4.909 16c.56 2.629 1.015 5.297 1.353 8h-190.502c.339-2.703.793-5.371 1.353-8h187.796zm1.353 32c-.338 2.703-.793 5.371-1.353 8h-187.796c-.56-2.629-1.014-5.297-1.353-8h190.502zm-3.42 16c-.831 2.72-1.781 5.388-2.842 8h-177.978c-1.061-2.612-2.01-5.28-2.841-8h183.661zm-6.525 16c-1.422 2.747-2.973 5.416-4.645 8h-161.322c-1.672-2.584-3.223-5.253-4.645-8h170.612zm-17.609 24h-135.394c-2.541-2.529-4.937-5.202-7.183-8h149.761c-2.247 2.798-4.644 5.471-7.184 8zm-9.118 8c-3.831 2.96-7.892 5.637-12.149 8h-92.86c-4.258-2.363-8.318-5.04-12.149-8h117.158zm-86.011 16h54.863c-8.695 2.598-17.902 4-27.432 4s-18.735-1.402-27.431-4zm54.864-184h-54.863c8.696-2.598 17.902-4 27.432-4s18.735 1.402 27.431 4zm100.568 252h-256c-70.692 0-128 57.309-128 128v32h512v-32c0-70.691-57.308-128-128-128zm-323.697 60h391.395c2.54 2.529 4.937 5.202 7.184 8h-405.762c2.246-2.798 4.642-5.471 7.183-8zm9.118-8c3.831-2.96 7.891-5.637 12.149-8h348.86c4.258 2.363 8.318 5.04 12.149 8h-373.158zm395.24 24c1.672 2.584 3.223 5.254 4.645 8h-426.612c1.422-2.746 2.973-5.416 4.645-8h417.322zm8.328 16c1.061 2.612 2.011 5.28 2.842 8h-439.662c.831-2.72 1.781-5.388 2.841-8h433.979zm4.909 16c.56 2.629 1.015 5.297 1.353 8h-446.502c.339-2.703.793-5.371 1.353-8h443.796zm-93.898-76c9.529 0 18.736 1.402 27.432 4h-310.864c8.696-2.598 17.902-4 27.432-4h256zm-352 96c0-1.341.035-2.673.09-4h447.82c.055 1.327.09 2.659.09 4h-448z"/></svg>