<svg xmlns="http://www.w3.org/2000/svg" viewBox="0 0 512 512"><path d="M96 288a64 64 12780 1 0 128 0 64 64 12780 1 0-128 0zm192 96a64 64 12780 1 0 128 0 64 64 12780 1 0-128 0zm-128-192c-88.365 0-160-85.961-160-192h48c0 20.471 3.312 40.247 9.844 58.779 6.155 17.461 14.866 33.023 25.894 46.257 20.939 25.126 48.022 38.964 76.262 38.964s55.324-13.838 76.263-38.964c11.027-13.233 19.739-28.796 25.894-46.257 6.532-18.532 9.843-38.308 9.843-58.779h48c0 106.039-71.634 192-160 192zm192 96c-47.088 0-89.423-24.413-118.701-63.264 3.598-1.559 7.168-3.228 10.705-5.022 10.877-5.521 21.24-12.047 31.037-19.535l.697.857c20.939 25.126 48.023 38.964 76.262 38.964 28.24 0 55.324-13.838 76.263-38.964 11.027-13.233 19.739-28.796 25.894-46.257 6.532-18.532 9.843-38.308 9.843-58.779h48c0 106.039-71.634 192-160 192z" transform="scale(1 -1) translate(0 -480)"/></svg>