<svg xmlns="http://www.w3.org/2000/svg" viewBox="0 0 512 512"><path d="M497.817 421.401l-209.817-149.869v-39.532c0-24-7.75-33-31-33h-9.365c-7.8-1.428-15.98-4.131-21.711-9.79-6.833-6.747-11.605-19.376-11.605-30.713 0-11.335 4.772-23.965 11.605-30.713 7.483-7.389 17.432-11.458 28.016-11.458 10.583 0 20.531 4.069 28.013 11.458 10.249 10.119 26.865 10.119 37.112-.001 10.249-10.12 10.248-26.526 0-36.646-17.396-17.178-40.524-26.637-65.125-26.637-24.604 0-47.734 9.46-65.13 26.639-16.64 16.432-26.977 42.241-26.977 67.357 0 25.119 10.337 50.929 26.979 67.36 10.079 9.951 22.089 17.292 35.188 21.725v23.951l-210.6 150.429c-11.32 8.085-16.119 22.558-11.874 35.805 4.246 13.247 16.563 22.234 30.474 22.234h448.02c17.674 0 32-14.327 32-32 0-11.087-5.638-20.856-14.203-26.599zm-381.962-5.401l140.145-96.675 140.146 96.675h-280.291z"/></svg>