<svg xmlns="http://www.w3.org/2000/svg" viewBox="0 0 512 512"><path d="M400 320c-61.856 0-112-50.145-112-112 0-61.856 50.144-112 112-112s112 50.144 112 112l.5 16c0 123.712-100.288 224-224 224v-64c42.737 0 82.917-16.643 113.137-46.863 5.817-5.818 11.126-12.008 15.915-18.51-5.719.9-11.58 1.373-17.552 1.373zm-288 0c-61.855 0-112-50.145-112-112 0-61.856 50.145-112 112-112s112 50.144 112 112l.5 16c0 123.712-100.288 224-224 224v-64c42.737 0 82.917-16.643 113.137-46.863 5.818-5.818 11.127-12.008 15.916-18.51-5.72.9-11.58 1.373-17.553 1.373z"/></svg>