<svg xmlns="http://www.w3.org/2000/svg" viewBox="0 0 512 512"><path d="M364.496 256c68.877-43.667 115.504-127.604 115.504-224 0-10.838-.596-21.517-1.739-32h-444.521c-1.145 10.484-1.74 21.163-1.74 32 0 96.396 46.627 180.333 115.503 224-68.876 43.667-115.503 127.604-115.503 224 0 10.838.595 21.517 1.739 32h444.521c1.144-10.483 1.739-21.162 1.739-32 .001-96.396-46.626-180.333-115.503-224zm-284.496 224c0-93.456 40.081-172.707 112-198.854v-50.293c-71.919-26.145-112-105.396-112-198.853h352c0 93.457-40.081 172.708-112 198.853v50.293c71.919 26.147 112 105.398 112 198.854h-352zm229.813-145.203c-35.827-20.322-37.804-46.684-37.813-62.683v-32.114c0-15.997 1.902-42.457 37.872-62.832 19.252-11.182 35.904-28.174 48.524-49.168h-204.791c12.633 21.016 29.306 38.021 48.583 49.203 35.827 20.322 37.803 46.683 37.813 62.683v32.114c0 15.996-1.902 42.457-37.872 62.832-36.311 21.09-63.369 62.842-71.545 113.168h250.835c-8.182-50.354-35.265-92.124-71.606-113.203z"/></svg>