<svg xmlns="http://www.w3.org/2000/svg" viewBox="0 0 512 512"><path d="M346.828 314.38c-37.401-24.344-58.828-38.001-58.828-58.38 0-20.378 21.427-34.036 58.826-58.379 60.229-37.842 101.174-112.145 101.174-197.621h-384c0 85.476 40.945 159.779 101.174 197.621 37.399 24.343 58.826 38.001 58.826 58.379 0 20.379-21.427 34.036-58.829 58.38-60.227 37.843-101.171 112.145-101.171 197.62h384c0-85.475-40.943-159.777-101.172-197.62zm-217.013-217.47c-8.776-16.792-15.155-35.11-18.968-54.244h290.306c-3.813 19.134-10.191 37.452-18.969 54.244-5.893 11.276-12.767 21.694-20.466 31.09h-211.437c-7.699-9.396-14.573-19.814-20.466-31.09zm118.185 285.9c0 21.78-88 54.523-88 86.523h-49.153c3.813-19.133 10.191-37.45 18.967-54.242 14.308-27.376 34.383-49.709 58.057-64.583l.289-.182.286-.187 1.544-1.005c23.355-15.199 44.029-28.661 58.01-44.766v78.442zm153.154 86.523h-49.154c0-32-88-64.743-88-86.523v-78.44c13.98 16.104 34.654 29.566 58.01 44.766l1.544 1.005.286.187.289.182c23.674 14.874 43.749 37.207 58.057 64.583 8.776 16.79 15.155 35.107 18.968 54.24z"/></svg>