<svg xmlns="http://www.w3.org/2000/svg" viewBox="0 0 512 512"><path d="M96 256c0-6.09.352-12.098 1.015-18.011l-92.49-30.052c-2.958 15.57-4.525 31.632-4.525 48.063 0 73.615 31.083 139.961 80.827 186.662l57.142-78.648c-26.062-28.463-41.969-66.379-41.969-108.014zm320 0c0 41.634-15.906 79.551-41.969 108.014l57.142 78.648c49.744-46.701 80.827-113.047 80.827-186.662 0-16.431-1.566-32.493-4.524-48.063l-92.49 30.052c.662 5.914 1.014 11.921 1.014 18.011zm-128-156.796c45.967 9.331 84.772 38.371 107.225 77.913l92.489-30.051c-36.598-77.71-111.12-134.03-199.714-145.078v97.216zm-171.225 77.912c22.453-39.542 61.258-68.582 107.225-77.913v-97.215c-88.594 11.048-163.115 67.368-199.713 145.077l92.488 30.051zm205.503 224.548c-20.195 9.204-42.636 14.336-66.278 14.336s-46.083-5.132-66.277-14.335l-57.146 78.655c36.603 20.183 78.668 31.68 123.423 31.68s86.82-11.497 123.424-31.68l-57.146-78.656z"/></svg>