<svg xmlns="http://www.w3.org/2000/svg" viewBox="0 0 512 512"><path d="M256 0c-141.385 0-256 114.615-256 256s114.615 256 256 256 256-114.615 256-256-114.615-256-256-256zm0 128c70.692 0 128 57.308 128 128s-57.308 128-128 128-128-57.308-128-128 57.308-128 128-128zm152.735 280.735c-40.797 40.797-95.04 63.265-152.735 63.265-57.696 0-111.938-22.468-152.735-63.265-40.797-40.797-63.265-95.039-63.265-152.735 0-57.695 22.468-111.938 63.265-152.735l33.941 33.941c-65.503 65.503-65.503 172.085 0 237.588 31.731 31.731 73.919 49.206 118.794 49.206 44.874 0 87.062-17.475 118.794-49.206 65.503-65.503 65.503-172.084 0-237.588l33.941-33.941c40.797 40.797 63.265 95.04 63.265 152.735 0 57.696-22.468 111.938-63.265 152.735z"/></svg>