<svg xmlns="http://www.w3.org/2000/svg" viewBox="0 0 512 512"><path d="M256 0c100.223 0 186.978 57.601 229.008 141.496l-114.504 57.252c-21.015-41.947-64.393-70.748-114.504-70.748-50.111 0-93.489 28.801-114.504 70.748l-114.504-57.252c42.03-83.895 128.786-141.496 229.008-141.496zm114.504 313.252l114.504 57.252c-42.03 83.894-128.785 141.496-229.008 141.496-100.222 0-186.978-57.602-229.008-141.496l114.504-57.252c21.015 41.947 64.393 70.748 114.504 70.748 50.111 0 93.489-28.801 114.504-70.748z"/></svg>