<svg xmlns="http://www.w3.org/2000/svg" viewBox="0 0 512 512"><path d="M256 0c100.223 0 186.978 57.601 229.008 141.496l-114.504 57.252c-21.015-41.947-64.393-70.748-114.504-70.748-50.111 0-93.489 28.801-114.504 70.748l-114.504-57.252c42.03-83.895 128.786-141.496 229.008-141.496zm126.74 358.502c-11.216 13.859-24.681 25.858-39.909 35.461-25.978 16.379-56.004 25.037-86.831 25.037-30.827 0-60.853-8.658-86.831-25.038-15.228-9.603-28.694-21.602-39.91-35.461l-52.791 26.395c16.609 23.104 37.587 42.897 61.873 58.21 35.167 22.173 75.853 33.894 117.659 33.894 41.807 0 82.492-11.721 117.658-33.893 24.286-15.314 45.265-35.106 61.873-58.21l-52.791-26.395zm-12.236-45.25l114.504 57.252c-42.03 83.894-128.785 141.496-229.008 141.496-100.222 0-186.978-57.602-229.008-141.496l114.504-57.252c21.015 41.947 64.393 70.748 114.504 70.748 50.111 0 93.489-28.801 114.504-70.748z"/></svg>