<svg xmlns="http://www.w3.org/2000/svg" viewBox="0 0 512 512"><path d="M192 416a64 64 12780 1 0 128 0 64 64 12780 1 0-128 0zm203.497-192a52.503 52.503 12780 1 0 105.006 0 52.503 52.503 12780 1 0-105.006 0zm-51.285-135.765a47.553 47.553 12780 1 0 95.106 0 47.553 47.553 12780 1 0-95.106 0zm-131.281-56.235a43.069 43.069 12780 1 0 86.138 0 43.069 43.069 12780 1 0-86.138 0zm-131.704 56.235a39.009 39.009 12780 1 0 78.018 0 39.009 39.009 12780 1 0-78.018 0zm-52.558 135.765a35.331 35.331 12780 1 0 70.662 0 35.331 35.331 12780 1 0-70.662 0zm59.567 135.764a32 32 12780 1 0 64 0 32 32 12780 1 0-64 0zm361.496 0c0-32.012-25.953-57.967-57.968-57.967-32.012 0-57.968 25.955-57.968 57.967 0 32.016 25.956 57.967 57.968 57.967 32.015 0 57.968-25.951 57.968-57.967z" transform="scale(1 -1) translate(0 -480)"/></svg>