<svg xmlns="http://www.w3.org/2000/svg" viewBox="0 0 512 512"><path d="M208 16a48 48 12780 1 0 96 0 48 48 12780 1 0-96 0zm-208 208a48 48 12780 1 0 96 0 48 48 12780 1 0-96 0zm416 0a48 48 12780 1 0 96 0 48 48 12780 1 0-96 0zm-355.078 147.078a48 48 12780 1 0 96 0 48 48 12780 1 0-96 0zm294.156-294.156a48 48 12780 1 0 96 0 48 48 12780 1 0-96 0zm-294.156 0a48 48 12780 1 0 96 0 48 48 12780 1 0-96 0zm294.156 294.156a48 48 12780 1 0 96 0 48 48 12780 1 0-96 0z" transform="scale(1 -1) translate(0 -480)"/></svg>