<svg xmlns="http://www.w3.org/2000/svg" viewBox="0 0 512 512"><path d="M.021 256.809l-.011.002.014.111c.055 1.939.275 3.838.661 5.676l.337 2.887.359 3.039.595 4.088c.428 2.873.9 6.062 1.454 9.479.674 3.223 1.402 6.707 2.182 10.432.355 1.859.888 3.752 1.393 5.703l1.58 6.002c.283 1.021.52 2.066.854 3.104l.994 3.15 2.068 6.494.532 1.662.613 1.658 1.251 3.357 2.59 6.871 3.002 6.967 1.539 3.549c.524 1.188 1.135 2.352 1.704 3.537l3.531 7.166c1.235 2.393 2.604 4.756 3.923 7.164l2.014 3.615c.684 1.205 1.451 2.375 2.178 3.57l4.467 7.174c6.32 9.447 13.338 18.783 21.105 27.639 7.856 8.789 16.363 17.125 25.346 24.801 9.09 7.568 18.632 14.451 28.363 20.557 9.802 6.018 19.822 11.156 29.688 15.572l7.439 3.033c1.231.486 2.434 1.016 3.668 1.459l3.688 1.297c2.449.842 4.839 1.734 7.242 2.496 2.416.715 4.802 1.422 7.156 2.121 1.178.336 2.33.713 3.502 1.006l3.493.852 6.802 1.648 6.635 1.279 3.217.611 1.583.299 1.583.221 6.15.855 2.961.408c.973.143 1.952.189 2.907.285l5.582.49c1.808.152 3.552.344 5.263.369l.341.013c.307 17.406 14.504 31.423 31.984 31.423l.81-.021v.011l.112-.014c1.939-.055 3.837-.275 5.675-.661l2.888-.336 3.038-.359 4.088-.596c2.873-.428 6.062-.9 9.479-1.454l10.432-2.181c1.859-.356 3.752-.889 5.703-1.393l6.002-1.581c1.022-.283 2.066-.52 3.104-.854l3.15-.994 6.494-2.067 1.662-.533 1.658-.613 3.357-1.25c2.248-.849 4.539-1.712 6.87-2.591l6.968-3.002 3.549-1.539c1.188-.524 2.351-1.135 3.537-1.704l7.165-3.531c2.393-1.235 4.756-2.604 7.164-3.923l3.615-2.014c1.205-.683 2.375-1.45 3.57-2.177l7.175-4.468c9.445-6.32 18.782-13.337 27.639-21.105 8.787-7.856 17.124-16.363 24.801-25.345 7.568-9.091 14.451-18.632 20.556-28.364 6.018-9.801 11.157-19.822 15.571-29.688l3.034-7.439c.487-1.231 1.016-2.434 1.459-3.667l1.296-3.688c.843-2.449 1.734-4.839 2.497-7.242l2.12-7.155c.337-1.179.715-2.33 1.008-3.502l.851-3.494c.559-2.303 1.108-4.57 1.648-6.801l1.279-6.636.611-3.217.298-1.582.222-1.584.854-6.15.41-2.961c.142-.973.188-1.951.284-2.906l.49-5.582c.152-1.808.343-3.553.369-5.264l.029-.787c17.612-.073 31.866-14.369 31.866-31.996l-.021-.81h.011l-.014-.112c-.055-1.939-.275-3.837-.661-5.675l-.337-2.888-.359-3.038-.595-4.088c-.428-2.873-.9-6.062-1.454-9.479-.674-3.222-1.402-6.707-2.182-10.431-.355-1.86-.888-3.753-1.393-5.704l-1.58-6.001c-.283-1.022-.52-2.067-.854-3.104l-.994-3.15-2.068-6.495-.532-1.662-.613-1.658-1.251-3.357-2.59-6.87-3.002-6.968-1.539-3.549c-.524-1.188-1.135-2.351-1.704-3.538l-3.531-7.165c-1.235-2.393-2.604-4.756-3.923-7.164l-2.014-3.615c-.684-1.205-1.451-2.375-2.178-3.57l-4.467-7.175c-6.32-9.446-13.338-18.782-21.105-27.639-7.856-8.788-16.363-17.125-25.346-24.801-9.09-7.568-18.632-14.451-28.363-20.556-9.802-6.018-19.822-11.157-29.688-15.571-2.502-1.02-4.982-2.031-7.439-3.034-1.231-.487-2.434-1.016-3.668-1.459l-3.688-1.296c-2.449-.842-4.839-1.734-7.242-2.497l-7.156-2.121c-1.178-.336-2.33-.714-3.502-1.007l-3.493-.851-6.802-1.649-6.635-1.279-3.217-.611-1.583-.298-1.583-.221-6.15-.855-2.961-.41c-.973-.142-1.952-.188-2.907-.285l-5.582-.49c-1.808-.152-3.552-.343-5.263-.369l-1.256-.046c-.325-17.39-14.514-31.389-31.983-31.389l-.81.021-.001-.011-.111.014c-1.939.055-3.838.275-5.676.661l-2.888.336-3.038.359-4.088.596c-2.873.428-6.062.9-9.479 1.454l-10.432 2.181c-1.859.356-3.752.889-5.703 1.393l-6.002 1.581c-1.022.283-2.066.52-3.104.854l-3.15.994-6.494 2.067-1.662.533-1.658.613-3.357 1.25c-2.248.849-4.539 1.712-6.87 2.591l-6.968 3.002-3.549 1.539c-1.188.524-2.351 1.135-3.537 1.704l-7.165 3.531c-2.393 1.235-4.756 2.604-7.164 3.923l-3.615 2.014c-1.205.683-2.375 1.45-3.57 2.177l-7.175 4.468c-9.445 6.32-18.782 13.337-27.639 21.105-8.787 7.856-17.124 16.363-24.801 25.345-7.568 9.091-14.451 18.632-20.556 28.364-6.018 9.801-11.157 19.822-15.571 29.688l-3.034 7.439c-.487 1.231-1.016 2.434-1.459 3.667l-1.296 3.688c-.843 2.449-1.734 4.839-2.497 7.242l-2.12 7.155c-.337 1.179-.715 2.33-1.008 3.502l-.851 3.494c-.559 2.303-1.108 4.57-1.648 6.801l-1.279 6.636-.611 3.217-.298 1.582-.222 1.584-.854 6.15-.41 2.961c-.142.973-.188 1.951-.284 2.906l-.49 5.582c-.152 1.808-.343 3.553-.369 5.264l-.029.81c-17.188.556-30.951 14.652-30.951 31.973l.021.809zm36.738-32.456l.064-.29c.322-1.624.816-3.271 1.278-4.971l1.44-5.227c.258-.89.467-1.801.773-2.703l.905-2.738 1.868-5.647.478-1.446.557-1.438 1.13-2.915 2.323-5.965 2.696-6.04 1.373-3.078c.466-1.03 1.018-2.036 1.526-3.063l3.147-6.206c1.101-2.071 2.327-4.112 3.499-6.196l1.785-3.128c.605-1.043 1.293-2.051 1.938-3.083l3.959-6.201c5.617-8.149 11.816-16.199 18.665-23.819 6.937-7.552 14.421-14.702 22.299-21.274 7.987-6.464 16.343-12.325 24.838-17.511 8.565-5.097 17.3-9.419 25.867-13.129l6.467-2.525c1.068-.406 2.108-.855 3.18-1.222l3.202-1.068c2.125-.693 4.191-1.444 6.274-2.071l6.196-1.737c1.019-.275 2.013-.595 3.027-.831l3.022-.684 5.874-1.344 5.731-1.011 2.773-.49 1.364-.242 1.367-.166 5.302-.655 2.551-.322c.837-.113 1.682-.133 2.505-.204l4.808-.35c1.555-.109 3.055-.262 4.529-.254 2.924-.066 5.66-.128 8.19-.186l6.409.231 2.716.078 2.979.189 2.91.19c1.628.255 3.296.391 4.995.391l.698-.018.112.007v-.01c15.57-.389 28.375-11.892 30.778-26.877l.806.178c1.623.322 3.271.816 4.971 1.278l5.227 1.44c.889.258 1.801.467 2.702.773l2.739.906 5.646 1.868 1.446.478 1.438.556 2.915 1.13 5.966 2.323 6.04 2.696 3.078 1.373c1.03.466 2.036 1.018 3.063 1.527l6.205 3.147c2.072 1.101 4.113 2.327 6.197 3.499l3.128 1.786c1.043.605 2.051 1.293 3.083 1.938l6.201 3.959c8.148 5.617 16.199 11.816 23.818 18.665 7.552 6.937 14.703 14.421 21.275 22.299 6.464 7.987 12.324 16.343 17.51 24.838 5.098 8.565 9.42 17.3 13.13 25.868l2.525 6.466c.406 1.068.855 2.108 1.222 3.18l1.068 3.202c.693 2.125 1.444 4.192 2.071 6.274l1.737 6.196c.275 1.019.595 2.013.83 3.027l.684 3.023 1.344 5.874 1.012 5.731.49 2.774.242 1.364.166 1.367.655 5.302.321 2.55c.113.837.134 1.682.205 2.505l.35 4.808c.109 1.555.262 3.055.254 4.529.066 2.924.128 5.66.186 8.19l-.231 6.409-.078 2.716-.189 2.979-.19 2.91c-.249 1.628-.384 3.296-.384 4.995l.018.698-.008.112h.011c.384 15.383 11.618 28.064 26.341 30.685l-.099.442c-.322 1.624-.816 3.271-1.278 4.971l-1.44 5.227c-.258.89-.467 1.801-.773 2.703l-.905 2.738-1.868 5.647-.478 1.446-.557 1.438-1.13 2.915-2.323 5.965-2.696 6.04-1.373 3.078c-.466 1.03-1.018 2.036-1.526 3.063l-3.147 6.206c-1.101 2.071-2.327 4.112-3.499 6.196l-1.785 3.128c-.605 1.043-1.293 2.051-1.938 3.083l-3.959 6.201c-5.617 8.149-11.816 16.199-18.665 23.819-6.937 7.552-14.421 14.702-22.299 21.274-7.987 6.464-16.343 12.325-24.838 17.511-8.565 5.097-17.3 9.419-25.867 13.129l-6.467 2.525c-1.068.406-2.108.855-3.18 1.222l-3.202 1.068c-2.125.693-4.191 1.444-6.274 2.071l-6.196 1.737c-1.019.275-2.013.595-3.027.831l-3.022.684-5.874 1.344-5.731 1.011-2.773.49-1.364.242-1.367.166-5.302.655-2.551.322c-.837.113-1.682.133-2.505.204l-4.808.35c-1.555.109-3.055.262-4.529.254-2.924.066-5.66.128-8.19.186l-6.409-.231-2.716-.078-2.979-.189-2.91-.19c-1.628-.255-3.296-.391-4.995-.391l-.698.018-.112-.007v.01c-15.502.387-28.262 11.793-30.744 26.682-1.6-.32-3.223-.805-4.896-1.261l-5.227-1.439c-.889-.258-1.801-.469-2.702-.773l-2.739-.906-5.646-1.869-1.446-.477-1.438-.557-2.915-1.129-5.966-2.324c-1.98-.885-3.994-1.783-6.04-2.695l-3.078-1.373c-1.03-.467-2.036-1.018-3.063-1.527l-6.205-3.148c-2.072-1.1-4.113-2.326-6.197-3.498l-3.128-1.785c-1.043-.605-2.051-1.293-3.083-1.939-2.049-1.307-4.115-2.627-6.201-3.959-8.148-5.615-16.199-11.816-23.818-18.664-7.552-6.938-14.703-14.42-21.275-22.299-6.464-7.986-12.324-16.342-17.51-24.838-5.098-8.564-9.42-17.301-13.13-25.867l-2.525-6.467c-.406-1.068-.855-2.109-1.222-3.18l-1.068-3.203c-.693-2.125-1.444-4.191-2.071-6.273l-1.737-6.197c-.275-1.018-.595-2.012-.83-3.027l-.684-3.021-1.344-5.875-1.012-5.73-.49-2.773-.242-1.365-.166-1.367-.655-5.301-.321-2.551c-.113-.838-.134-1.682-.205-2.506l-.35-4.807c-.109-1.555-.262-3.055-.254-4.529-.066-2.924-.128-5.66-.186-8.191l.231-6.408.078-2.717.189-2.979.19-2.91c.248-1.63.383-3.298.383-4.997l-.018-.698.008-.112h-.011c-.39-15.69-12.067-28.577-27.22-30.837z"/></svg>