<svg xmlns="http://www.w3.org/2000/svg" viewBox="0 0 512 512"><path d="M256 464c-25.943 0-50.785-4.788-73.707-13.504-13.915 16.658-22.293 38.102-22.293 61.504h192c0-23.402-8.378-44.846-22.293-61.504-22.922 8.716-47.763 13.504-73.707 13.504zm64-176v64h43.328c-1.777 1.981-3.608 3.927-5.505 5.823-27.197 27.198-63.359 42.177-101.823 42.177s-74.625-14.979-101.823-42.177c-27.198-27.197-42.177-63.359-42.177-101.823 0-36.326 14.35-71.562 38.771-98.194l117.583 91.453 39.293-50.519-255.525-198.74-52.122 40.54 112.794 87.729c-29.761 33.835-48.794 79.158-48.794 127.731 0 106.039 85.961 192 192 192 71.066 0 133.109-38.612 166.308-96h89.692v-64h-192z"/></svg>