<svg xmlns="http://www.w3.org/2000/svg" viewBox="0 0 512 512"><path d="M32 0h192v32h-192zm256 0h192v32h-192zm188 160h-28v-128h-128v128h-128v-128h-128v128h-28c-19.8 0-36 16.2-36 36v280c0 19.8 16.2 36 36 36h152c19.8 0 36-16.2 36-36v-188h64v188c0 19.8 16.2 36 36 36h152c19.8 0 36-16.2 36-36v-280c0-19.8-16.2-36-36-36zm-302 320h-124c-9.9 0-18-7.2-18-16s8.1-16 18-16h124c9.9 0 18 7.2 18 16s-8.1 16-18 16zm98-224h-32c-8.8 0-16-7.2-16-16s7.2-16 16-16h32c8.8 0 16 7.2 16 16s-7.2 16-16 16zm190 224h-124c-9.9 0-18-7.2-18-16s8.1-16 18-16h124c9.9 0 18 7.2 18 16s-8.1 16-18 16z"/></svg>