<svg xmlns="http://www.w3.org/2000/svg" viewBox="0 0 512 512"><path d="M440.698 471.936l-127.212-186.886c-3.336-4.914-10.234-6.433-15.325-3.379l-16.069 9.668c-5.087 3.05-6.992 9.845-4.229 15.111l105.281 200.064c2.763 5.252 9.177 7.056 14.271 3.99l40.101-24.093c5.092-3.055 6.517-9.56 3.182-14.475zm-144.376-205.875c48.104-30.646 50.188-110.532 4.747-181.875-38.64-60.653-97.389-92.75-143.688-82.201-10.647 2.086-24.247 7.761-37.93 16.475-13.683 8.721-24.604 18.643-30.979 27.432-29.126 37.504-24.855 104.302 13.778 164.938 45.45 71.346 118.727 103.23 166.844 72.58l27.22-17.346.008-.003zm-17.345-27.23c-31.746 20.215-87.728-8.487-122.253-62.704-34.536-54.196-36.891-117.063-5.14-137.293 31.722-20.217 87.719 8.5 122.243 62.708 34.53 54.189 36.877 117.066 5.15 137.289z"/></svg>