<svg xmlns="http://www.w3.org/2000/svg" viewBox="0 0 512 512"><path d="M449.077 469.246l-114.54-168.305c65.459-51.835 83.963-145.677 39.835-219.126-47.927-79.774-151.813-105.672-231.579-57.755-79.765 47.933-105.662 151.816-57.739 231.583 43.213 71.942 131.962 100.047 207.479 69.717l95.143 180.783c2.95 5.611 9.802 7.523 15.229 4.273l42.784-25.72c5.437-3.263 6.964-10.214 3.388-15.45zm-160.296-202.214c-54.211 32.563-124.808 14.959-157.375-39.253-32.565-54.197-14.952-124.794 39.253-157.36 54.189-32.57 124.787-14.961 157.351 39.245 32.569 54.198 14.968 124.811-39.229 157.368z"/></svg>