<svg xmlns="http://www.w3.org/2000/svg" viewBox="0 0 512 512"><path d="M496.131 435.698l-121.276-103.147c-12.537-11.283-25.945-16.463-36.776-15.963 28.628-33.533 45.921-77.039 45.921-124.588 0-106.039-85.961-192-192-192-106.038 0-192 85.961-192 192s85.961 192 192 192c47.549 0 91.055-17.293 124.588-45.922-.5 10.831 4.68 24.238 15.963 36.775l103.147 121.277c17.661 19.623 46.511 21.277 64.109 3.678 17.6-17.599 15.947-46.449-3.676-64.11zm-208.87-143.698h-190.521c-2.694-2.56-5.281-5.232-7.762-8h206.044c-2.481 2.768-5.067 5.44-7.761 8zm-135.717 32c-7.014-2.141-13.79-4.824-20.281-8h121.475c-6.491 3.176-13.267 5.859-20.281 8h-80.913zm-34.455-16c-3.851-2.484-7.567-5.156-11.142-8h172.106c-3.575 2.844-7.292 5.516-11.143 8h-149.821zm-34.757-32c-1.997-2.596-3.903-5.264-5.715-8h230.766c-1.812 2.736-3.718 5.404-5.715 8h-219.336zm-10.631-16c-1.486-2.615-2.894-5.281-4.21-8h249.018c-1.316 2.719-2.724 5.385-4.21 8h-240.598zm-7.765-16c-1.071-2.628-2.071-5.294-2.981-8h262.09c-.911 2.706-1.91 5.372-2.982 8h-256.127zm-5.397-16c-.712-2.637-1.355-5.303-1.912-8h270.746c-.557 2.697-1.2 5.363-1.911 8h-266.923zm-4.761-36c0-1.338.024-2.671.062-4h276.319c.038 1.329.062 2.662.062 4s-.023 2.671-.062 4h-276.319c-.038-1.329-.062-2.662-.062-4zm42.962-100h190.52c2.694 2.56 5.28 5.232 7.762 8h-206.043c2.48-2.768 5.066-5.44 7.761-8zm135.716-32c7.014 2.141 13.79 4.824 20.281 8h-121.474c6.491-3.176 13.267-5.859 20.281-8h80.912zm34.454 16c3.851 2.484 7.567 5.157 11.143 8h-172.106c3.575-2.843 7.292-5.516 11.143-8h149.82zm34.757 32c1.997 2.596 3.903 5.263 5.715 8h-230.765c1.812-2.737 3.718-5.404 5.715-8h219.335zm10.631 16c1.486 2.616 2.894 5.282 4.21 8h-249.017c1.316-2.718 2.724-5.384 4.21-8h240.597zm7.764 16c1.072 2.628 2.07 5.294 2.981 8h-262.088c.911-2.706 1.91-5.372 2.981-8h256.126zm5.398 16c.712 2.637 1.355 5.303 1.912 8h-270.746c.557-2.697 1.2-5.363 1.912-8h266.922zm3.311 16c.385 2.643.692 5.311.925 8h-275.392c.232-2.689.54-5.357.924-8h273.543zm.924 32c-.232 2.689-.54 5.357-.925 8h-273.542c-.384-2.643-.692-5.311-.924-8h275.391z"/></svg>