<svg xmlns="http://www.w3.org/2000/svg" viewBox="0 0 512 512"><path d="M160 0c88.366 0 160.001 71.635 160.001 160 0 32.62-9.771 62.954-26.532 88.251l.015-.022 35.18 35.18c17.436-9.611 33.847-11.408 42.221-3.035l135.764 135.764c12.497 12.498 2.366 42.891-22.627 67.885-24.994 24.992-55.386 35.123-67.882 22.627l-135.765-135.767c-8.375-8.373-6.576-24.783 3.033-42.221l-35.178-35.178.063-.045c-25.306 16.78-55.654 26.561-88.293 26.561-88.365 0-160-71.635-160-160s71.635-160 160-160zm-90.51 250.509c24.176 24.177 56.321 37.491 90.51 37.491 34.19 0 66.334-13.314 90.511-37.491 24.176-24.176 37.489-56.32 37.489-90.509s-13.313-66.333-37.489-90.51c-24.177-24.177-56.321-37.49-90.511-37.49-34.189 0-66.334 13.314-90.51 37.49-24.176 24.177-37.49 56.32-37.49 90.51s13.314 66.333 37.49 90.509zm186.51-90.509c0 14.397-3.175 28.051-8.854 40.309-7.261-66.992-60.462-120.193-127.454-127.455 12.257-5.68 25.912-8.854 40.308-8.854 53.021 0 96 42.979 96 96z"/></svg>