<svg xmlns="http://www.w3.org/2000/svg" viewBox="0 0 512 512"><path d="M0 0v512h512v-512h-512zm480 480h-448v-448h448v448zm-144-400l144-48-48 144zm-168 48h16v32h-16zm32 0h16v32h-16zm32 0h16v32h-16zm32 0h16v32h-16zm32 0h16v32h-16zm32 0h16v32h-16zm-160 224h16v32h-16zm32 0h16v32h-16zm32 0h16v32h-16zm32 0h16v32h-16zm32 0h16v32h-16zm32 0h16v32h-16zm-200-24h32v16h-32zm0-32h32v16h-32zm0-32h32v16h-32zm0-32h32v16h-32zm0-32h32v16h-32zm0-32h32v16h-32zm224 160h32v16h-32zm0-32h32v16h-32zm0-32h32v16h-32zm0-32h32v16h-32zm0-32h32v16h-32zm0-32h32v16h-32zm-272 8l-48-144 144 48zm96 256l-144 48 48-144zm256-96l48 144-144-48z"/></svg>