<svg xmlns="http://www.w3.org/2000/svg" viewBox="0 0 512 512"><path d="M464 144l-144 48 48-144zm-200-144h16v32h-16zm32 0h16v32h-16zm32 0h16v32h-16zm32 0h16v32h-16zm32 0h16v32h-16zm32 0h16v32h-16zm33 0h16v32h-16zm-385 0h16v32h-16zm32 0h16v32h-16zm32 0h16v32h-16zm32 0h16v32h-16zm32 0h16v32h-16zm32 0h16v32h-16zm-88 48l48 144-144-48zm-96 320l144-48-48 144zm320 96l-48-144 144 48zm-328-464h16v32h-16zm224 480h16v32h-16zm32 0h16v32h-16zm32 0h16v32h-16zm32 0h16v32h-16zm32 0h16v32h-16zm32 0h16v32h-16zm33 0h16v32h-16zm-385 0h16v32h-16zm32 0h16v32h-16zm32 0h16v32h-16zm32 0h16v32h-16zm32 0h16v32h-16zm32 0h16v32h-16zm-192 0h16v32h-16zm-39.5-247.5h32v16h-32zm0-32h32v16h-32zm0-32h32v16h-32zm0-32h32v16h-32zm0-32h32v16h-32zm0-32h32v16h-32zm0-33h32v16h-32zm0 385h32v16h-32zm0-32h32v16h-32zm0-32h32v16h-32zm0-32h32v16h-32zm0-32h32v16h-32zm0-32h32v16h-32zm0 192h32v16h-32zm480-224h32v16h-32zm0-32h32v16h-32zm0-32h32v16h-32zm0-32h32v16h-32zm0-32h32v16h-32zm0-32h32v16h-32zm0-33h32v16h-32zm0 385h32v16h-32zm0-32h32v16h-32zm0-32h32v16h-32zm0-32h32v16h-32zm0-32h32v16h-32zm0-32h32v16h-32zm0 192h32v16h-32zm-160.5-264.5h-128v128h128v-128zm32-32v192h-192v-192h192z"/></svg>