<svg xmlns="http://www.w3.org/2000/svg" viewBox="0 0 512 512"><path d="M501.066 157.121l-50.553-50.552c-12.396-12.397-32.685-32.684-45.081-45.082l-50.553-50.552c-12.396-12.397-34.477-14.583-49.065-4.858l-138.219 92.146c-14.588 9.726-20.109 30.514-12.268 46.195l35.243 70.487c1.077 2.153 2.323 4.448 3.695 6.83l-178.265 178.265-16 112h96v-32h64v-64h64v-64h64v-35.593c3.198 1.906 6.267 3.608 9.096 5.022l70.485 35.244c15.683 7.841 36.47 2.319 46.195-12.269l92.147-138.22c9.727-14.586 7.539-36.665-4.857-49.063zm-425.752 270.192l-22.627-22.627 155.786-155.785 22.627 22.627-155.786 155.785zm383.196-215.431l-22.628 22.628c-6.223 6.222-16.404 6.222-22.627 0l-135.765-135.765c-6.223-6.222-6.223-16.405 0-22.627l22.628-22.628c6.223-6.222 16.404-6.222 22.627 0l135.765 135.765c6.223 6.222 6.223 16.405 0 22.627z"/></svg>