<svg xmlns="http://www.w3.org/2000/svg" viewBox="0 0 512 512"><path d="M336 0c-79.529 0-144 64.471-144 144 0 31.598 10.186 60.813 27.441 84.558l-214.774 214.774c-6.223 6.224-6.223 16.406 0 22.629l9.372 9.372c6.223 6.223 16.406 6.223 22.628 0l59.333-59.333 32 32-27.333 27.332c-6.223 6.224-6.223 16.406 0 22.629l9.372 9.372c6.223 6.223 16.406 6.223 22.628 0l86.666-86.665c6.222-6.224 6.222-16.406 0-22.629l-9.372-9.372c-6.223-6.223-16.406-6.223-22.628 0l-27.333 27.333-32-32 123.441-123.441c23.746 17.256 52.96 27.441 84.559 27.441 79.529 0 144-64.471 144-144s-64.471-144-144-144zm0 250.4c-58.763 0-106.4-47.637-106.4-106.4s47.637-106.4 106.4-106.4 106.4 47.637 106.4 106.4-47.637 106.4-106.4 106.4z"/></svg>