<svg xmlns="http://www.w3.org/2000/svg" viewBox="0 0 512 512"><path d="M336 8.083c-74.945 0-135.917 60.972-135.917 135.917 0 28.822 9.025 55.572 24.388 77.588l-209.442 209.441c-9.373 9.373-9.373 24.568 0 33.941 4.687 4.687 10.829 7.03 16.971 7.03s12.284-2.343 16.971-7.029l11.029-11.03 51.029 51.029c4.687 4.687 10.829 7.03 16.971 7.03s12.284-2.343 16.971-7.029c9.373-9.373 9.373-24.568 0-33.941l-51.03-51.03 27.059-27.059 51.029 51.029c4.687 4.687 10.829 7.03 16.971 7.03s12.284-2.343 16.971-7.029c9.373-9.373 9.373-24.568 0-33.941l-51.03-51.03 103.471-103.471c22.016 15.362 48.766 24.388 77.588 24.388 74.945 0 135.917-60.972 135.917-135.917s-60.972-135.917-135.917-135.917zm0 223.834c-48.478 0-87.917-39.439-87.917-87.917s39.439-87.917 87.917-87.917 87.917 39.439 87.917 87.917-39.439 87.917-87.917 87.917z"/></svg>