<svg xmlns="http://www.w3.org/2000/svg" viewBox="0 0 512 512"><path d="M416 224h-32v-96c0-70.692-57.308-128-128-128s-128 57.308-128 128v96h-32c-17.6 0-32 14.4-32 32v224c0 17.6 14.4 32 32 32h320c17.6 0 32-14.4 32-32v-224c0-17.6-14.4-32-32-32zm-224-96c0-35.29 28.71-64 64-64s64 28.71 64 64v96h-128v-96zm224 192l-160 16 160 16-160 16 160 16-160 16 160 16-160 16 160 16-160 16 159.947 15.995-.005.005h-319.884l-.005-.005 159.947-15.995-160-16 160-16-160-16 160-16-160-16 160-16-160-16 160-16-160-16 160-16-160-16 160-16-159.948-15.995.005-.005h319.885l.005.005-159.947 15.995 160 16-160 16 160 16z"/></svg>