<svg xmlns="http://www.w3.org/2000/svg" viewBox="0 0 512 512"><path d="M420.438 512c-12.681 0-24.784-5.636-33.207-15.462l-177.075-206.588c-18.609 7.91-38.821 12.05-59.156 12.05-83.262 0-151-67.738-151-151 0-14.908 2.18-29.661 6.478-43.849l7.743-25.558 96.879 96.879c2.621 2.621 6.137 4.064 9.9 4.064s7.279-1.443 9.9-4.064l47.573-47.574c5.458-5.458 5.458-14.341 0-19.8l-96.879-96.876 25.557-7.744c14.187-4.298 28.94-6.478 43.849-6.478 83.262 0 151 67.739 151 151 0 20.331-4.14 40.543-12.05 59.155l206.588 177.075c9.481 8.128 14.961 19.335 15.431 31.557.469 12.221-4.136 23.813-12.966 32.643l-47.574 47.574c-8.38 8.381-19.387 12.996-30.991 12.996zm-202.3-261.909l193.39 225.621c2.37 2.766 5.534 4.288 8.911 4.288 2.162 0 5.368-.629 8.363-3.623l47.574-47.575c2.455-2.455 3.739-5.576 3.616-8.788-.124-3.213-1.644-6.227-4.28-8.487l-225.618-193.388 6.024-11.32c9.081-17.065 13.882-36.367 13.882-55.819 0-65.617-53.383-119-119-119-2.076 0-4.147.054-6.213.16l56.313 56.313c17.935 17.936 17.935 47.119 0 65.054l-47.573 47.573c-8.665 8.665-20.216 13.437-32.527 13.437-12.31 0-23.862-4.772-32.527-13.437l-56.313-56.312c-.106 2.066-.16 4.137-.16 6.212 0 65.617 53.383 119 119 119 19.456 0 38.757-4.801 55.817-13.882l11.321-6.027z"/></svg>