<svg xmlns="http://www.w3.org/2000/svg" viewBox="0 0 512 512"><path d="M480.895 365.861l-186.393-152.113c-6.183-5.045-12.183-9.551-17.906-13.495 7.341-17.282 11.404-36.293 11.404-56.253 0-79.529-64.471-144-144-144-14.547 0-28.586 2.166-41.823 6.177l89.823 89.823v96h-96l-89.823-89.823c-4.011 13.237-6.177 27.276-6.177 41.823 0 79.529 64.471 144 144 144 19.96 0 38.97-4.063 56.252-11.404 3.944 5.724 8.449 11.724 13.494 17.906l152.114 186.394c31.645 38.776 86.336 41.702 121.536 6.502s32.275-89.892-6.501-121.537zm-48.895 114.139l-48-48 48-48 48 48-48 48z"/></svg>