<svg xmlns="http://www.w3.org/2000/svg" viewBox="0 0 512 512"><path d="M507.882 68.117l-59.882 59.883-64-64 59.882-59.883c-8.825-2.674-18.184-4.117-27.882-4.117-53.021 0-96 42.98-96 96 0 9.697 1.442 19.057 4.116 27.882l-200.234 200.235c-8.825-2.674-18.184-4.117-27.882-4.117-53.021 0-96 42.98-96 96 0 9.697 1.442 19.058 4.117 27.882l59.883-59.882 64 64-59.883 59.882c8.826 2.674 18.185 4.118 27.883 4.118 53.02 0 96-42.981 96-96 0-9.698-1.444-19.059-4.118-27.883l200.234-200.235c8.827 2.674 18.186 4.118 27.884 4.118 53.02 0 96-42.981 96-96 0-9.698-1.444-19.058-4.118-27.883z"/></svg>