<svg xmlns="http://www.w3.org/2000/svg" viewBox="0 0 512 512"><path d="M448 224h8c13.2 0 24-10.8 24-24v-80c0-13.2-10.8-24-24-24h-8v-96h-64v96h-8c-13.2 0-24 10.8-24 24v80c0 13.2 10.8 24 24 24h8v288h64v-288zm-64-96h64v64h-64v-64zm-88 288c13.2 0 24-10.8 24-24v-80c0-13.2-10.8-24-24-24h-8v-288h-64v288h-8c-13.2 0-24 10.8-24 24v80c0 13.2 10.8 24 24 24h8v96h64v-96h8zm-72-96h64v64h-64v-64zm-88-96c13.2 0 24-10.8 24-24v-80c0-13.2-10.8-24-24-24h-8v-96h-64v96h-8c-13.2 0-24 10.8-24 24v80c0 13.2 10.8 24 24 24h8v288h64v-288h8zm-72-96h64v64h-64v-64z"/></svg>