<svg xmlns="http://www.w3.org/2000/svg" viewBox="0 0 512 512"><path d="M144 160h-64c-8.8 0-16 7.2-16 16v32c0 8.8 7.2 16 16 16h64c8.8 0 16-7.2 16-16v-32c0-8.8-7.2-16-16-16zm-48-96h32v80h-32zm0 176h32v208h-32zm176 48h-64c-8.8 0-16 7.2-16 16v32c0 8.8 7.2 16 16 16h64c8.801 0 16-7.2 16-16v-32c0-8.8-7.199-16-16-16zm-47.999-224h32v208h-32zm0 304h32v80h-32zm175.999-176h-64c-8.799 0-16 7.2-16 16v32c0 8.8 7.201 16 16 16h64c8.801 0 16-7.2 16-16v-32c0-8.8-7.199-16-16-16zm-48-128h32v112h-32zm0 208h32v176h-32zm88-272h-400c-22.056 0-40 17.944-40 40v432c0 22.056 17.944 40 40 40h400c22.056 0 40-17.944 40-40v-432c0-22.056-17.944-40-40-40zm8 472c0 4.4-3.6 8-8 8h-400c-4.4 0-8-3.6-8-8v-432c0-4.4 3.6-8 8-8h400c4.4 0 8 3.6 8 8v432z"/></svg>