<svg xmlns="http://www.w3.org/2000/svg" viewBox="0 0 512 512"><path d="M480 32h-448c-17.6 0-32 14.4-32 32v384c0 17.601 14.397 32 32 32h448c17.6 0 32-14.399 32-32v-384c0-17.6-14.4-32-32-32zm0 415.943l-.061.057h-447.882l-.056-.057v-383.886l.057-.057h447.885l.06.057-.003 383.886zm-264-95.943h-24v-256h-64v256h-24c-4.4 0-8 3.6-8 8v48c0 4.4 3.6 8 8 8h112c4.4 0 8-3.6 8-8v-48c0-4.4-3.6-8-8-8zm80-192h24v256h64v-256h24c4.4 0 8-3.6 8-8v-48c0-4.4-3.6-8-8-8h-112c-4.399 0-8 3.6-8 8v48c0 4.4 3.601 8 8 8z"/></svg>