<svg xmlns="http://www.w3.org/2000/svg" viewBox="0 0 512 512"><path d="M316.576 512h-121.153l-12.202-73.212c-1.679-.669-3.35-1.36-5.01-2.075l-60.396 43.141-85.669-85.667 43.058-60.281c-.738-1.707-1.453-3.425-2.142-5.152l-73.062-12.179v-121.152l72.868-12.144c.711-1.795 1.45-3.582 2.213-5.355l-42.935-60.108 85.669-85.669 59.991 42.851c1.821-.788 3.654-1.549 5.499-2.282l12.118-72.716h121.153l12.119 72.715c1.845.733 3.679 1.494 5.499 2.282l59.991-42.851 85.668 85.669-42.936 60.107c.765 1.774 1.503 3.561 2.214 5.357l72.869 12.144v121.152l-73.062 12.178c-.689 1.728-1.403 3.445-2.142 5.151l43.058 60.281-85.668 85.668-60.397-43.141c-1.661.714-3.331 1.405-5.011 2.074l-12.202 73.214zm-88.961-38h56.77l10.617-63.705 10.894-3.6c7.31-2.416 14.506-5.396 21.389-8.856l10.246-5.151 52.548 37.533 40.143-40.143-37.479-52.472 5.184-10.26c3.493-6.913 6.502-14.146 8.941-21.499l3.608-10.874 63.524-10.588v-56.771l-63.402-10.567-3.589-10.92c-2.438-7.423-5.454-14.721-8.963-21.69l-5.158-10.25 37.333-52.265-40.143-40.144-52.191 37.279-10.262-5.192c-6.998-3.541-14.333-6.584-21.801-9.048l-10.902-3.596-10.537-63.221h-56.77l-10.537 63.222-10.902 3.596c-7.465 2.463-14.799 5.507-21.799 9.049l-10.262 5.192-52.192-37.28-40.144 40.144 37.333 52.266-5.158 10.249c-3.508 6.971-6.523 14.268-8.962 21.69l-3.588 10.921-63.404 10.566v56.77l63.526 10.589 3.607 10.876c2.437 7.346 5.445 14.578 8.941 21.496l5.185 10.26-37.481 52.474 40.144 40.142 52.549-37.534 10.247 5.154c6.877 3.459 14.073 6.438 21.385 8.855l10.894 3.6 10.618 63.703zm44.385-282h-32c-26.4 0-48 21.6-48 48v32c0 26.4 21.6 48 48 48h32c26.4 0 48-21.6 48-48v-32c0-26.4-21.6-48-48-48zm16 80c0 8.8-7.2 16-16 16h-32c-8.8 0-16-7.2-16-16v-32c0-8.8 7.2-16 16-16h32c8.8 0 16 7.2 16 16v32z"/></svg>