<svg xmlns="http://www.w3.org/2000/svg" viewBox="0 0 512 512"><path d="M512 208l-112.869-11.287 71.83-87.791-67.883-67.882-87.791 71.829-11.287-112.869h-96l-11.287 112.869-87.791-71.829-67.882 67.882 71.829 87.791-112.869 11.287v96l112.869 11.287-71.829 87.791 67.882 67.883 87.791-71.83 11.287 112.869h96l11.287-112.869 87.791 71.83 67.883-67.883-71.83-87.791 112.869-11.287v-96zm-160 8.236v79.528l-56.236 56.236h-79.528l-56.236-56.236v-79.528l56.235-56.236h79.528l56.237 56.236zm-128 7.764h64v64h-64z"/></svg>