<svg xmlns="http://www.w3.org/2000/svg" viewBox="0 0 512 512"><path d="M512 224l-120.543-24.108 68.189-102.284-45.255-45.255-102.283 68.189-24.108-120.542h-64l-24.108 120.542-102.284-68.189-45.255 45.255 68.189 102.284-120.542 24.108v64l120.542 24.108-68.189 102.284 45.255 45.255 102.284-68.189 24.108 120.542h64l24.108-120.542 102.283 68.188 45.255-45.255-68.188-102.283 120.542-24.108v-64zm-160-7.764v79.528l-56.236 56.236h-79.528l-56.236-56.236v-79.528l56.235-56.236h79.528l56.237 56.236z"/></svg>