<svg xmlns="http://www.w3.org/2000/svg" viewBox="0 0 640 512"><path d="M246.278 352.277l73.445 73.445-58.338 74.912c-10.691 13.981-29.621 15.237-42.066 2.793l-50.745-50.746c-12.445-12.444-11.188-31.374 2.792-42.065l74.912-58.339zm390.478-221.031l-76.756 76.755-96-96 76.756-76.755c-9.244-2.122-18.869-3.245-28.756-3.245-70.692 0-128 57.308-128 128 0 25.498 7.458 49.253 20.309 69.208l-71.454 55.646-108.855-108.854 144-144h-160l-71.029 71.029-7.03-7.029h-33.941v33.941l7.029 7.029-103.029 103.03 80 80 96-96 169.116 169.115 118.884 118.883 48-47.998-124.854-124.855 55.646-71.454c19.954 12.851 43.71 20.309 69.208 20.309 70.692 0 128-57.308 128-128 0-9.887-1.123-19.512-3.244-28.755z"/></svg>