<svg xmlns="http://www.w3.org/2000/svg" viewBox="0 0 512 512"><path d="M507.256 395.256l-108.895-108.895c-20.765 4.761-43.441-.932-59.616-17.106-16.175-16.175-21.867-38.852-17.106-59.616l-12.895-12.895c-11.03-11.031-38.41-2.154-65.372 19.758l-147.372-147.372-16-37.13-51.232-32-28.768 28.768 32 51.232 37.13 16 147.373 147.372c-21.913 26.963-30.79 54.342-19.76 65.372l.009.008 12.887 12.887c20.765-4.761 43.441.931 59.616 17.106 16.176 16.176 21.868 38.852 17.106 59.616l108.894 108.895c12.976 12.975 48.565-1.579 79.494-32.508 30.928-30.928 45.481-66.519 32.507-79.492zm-61.821 50.179c-3.71 3.71-8.572 5.565-13.435 5.565s-9.725-1.855-13.435-5.565l-160-160c-7.421-7.42-7.421-19.449 0-26.869 7.42-7.42 19.449-7.42 26.869 0l160 160c7.421 7.419 7.421 19.449.001 26.869z"/></svg>