<svg xmlns="http://www.w3.org/2000/svg" viewBox="0 0 512 512"><path d="M64 416h32v32h-32zm320-320h32v32h-32zm-32-32h32v32h-32zm-288 288h32v32h-32zm64 64h32v32h-32zm288-288h32v32h-32zm0-64h32v32h-32zm62.864-30.863c-20.474-20.473-48.759-33.137-80-33.137-13.969 0-27.344 2.538-39.695 7.167-15.27 5.723-28.975 14.644-40.292 25.957l-.025.025-285.702 285.702-.025.025c-11.313 11.317-20.234 25.022-25.957 40.292-4.63 12.352-7.168 25.727-7.168 39.695 0 31.241 12.663 59.526 33.137 80s48.759 33.137 80 33.137c13.969 0 27.344-2.538 39.695-7.167 15.27-5.723 28.975-14.644 40.292-25.957l.025-.025 285.701-285.701.025-.025c11.313-11.317 20.234-25.022 25.957-40.292 4.629-12.352 7.167-25.727 7.167-39.695.001-31.242-12.662-59.527-33.135-80.001zm-286.864 414.863h-32v32h-32v-32h-32v32h-32v-32h-32v-32h32v-32h-32v-32h32v-32h32v32h32v32h32v32h32v32zm32-64l-96-96 32-32 96 96-32 32zm128-128l-96-96 32-32 96 96-32 32zm128-160h-32v32h32v32h-32v32h-32v-32h-32v-32h-32v-32h-32v-32h32v-32h32v32h32v-32h32v32h32v32zm-384 288h32v32h-32z"/></svg>