<svg xmlns="http://www.w3.org/2000/svg" viewBox="0 0 512 512"><path d="M480 160l32-64v-64l-48 96h-56.89c-4.274-4.689-10.553-9.171-19.73-14.311l-70.76-35.377c-15.74-7.873-43.02-14.312-60.62-14.312-17.602 0-44.881 6.439-60.623 14.313l-70.758 35.377c-9.181 5.14-15.457 9.623-19.731 14.311h-56.888l-48-96.001v64l32 64h64v64l-96 32v32l96-32v96h-32l-64 160h32l51.199-128h16.712c4.447 12.48 12.241 24.669 21.074 31.734l110.022 88.021c6.875 5.498 15.933 8.245 24.993 8.245 9.057 0 18.113-2.747 24.985-8.245l110.022-88.021c8.835-7.065 16.628-19.254 21.074-31.734h16.719l51.2 128h32l-64-160h-32v-96l96 32v-32l-96-32v-64h64zm-208 288h-32v-320h32v320zm48-385.779v-30.221c0-17.6-14.4-32-32-32h-64c-17.602 0-32 14.4-32 32v30.221c18.129-8.105 45.284-14.221 64-14.221 18.713 0 45.865 6.116 64 14.221z"/></svg>