<svg xmlns="http://www.w3.org/2000/svg" viewBox="0 0 512 512"><path d="M496 192l16-64-128-128-64 16 31.515 31.515-52.201 52.201-71.515-71.515-39.598 39.598 48.185 48.185c-1.045.811-2.055 1.686-3.013 2.644l-178.746 178.745c-12.445 12.444-12.445 32.81 0 45.254l9.373 9.373v32l20.687 20.687-84.687 84.686 22.627 22.627 84.687-84.687 20.686 20.687h32l9.373 9.373c6.223 6.223 14.425 9.333 22.627 9.333s16.405-3.11 22.627-9.333l178.746-178.746c.958-.958 1.833-1.968 2.644-3.013l48.185 48.185 39.598-39.598-71.515-71.515 52.201-52.201 31.514 31.515zm-372.66 76.258l.917-.918 127.484 113.32-15.082 15.082-113.319-127.484zm112.402 128.402l-15.082 15.082-113.32-127.484.917-.918 127.485 113.32zm-96.402-144.402l.917-.917 127.484 113.32-15.082 15.082-113.319-127.485zm16-16l.917-.917 127.484 113.32-15.082 15.082-113.319-127.485zm16-16l.917-.917 127.484 113.32-15.082 15.082-113.319-127.485zm16-16l.917-.917 127.484 113.32-15.082 15.082-113.319-127.485zm16-16l.917-.917 127.484 113.32-15.082 15.082-113.319-127.485zm16-16l.918-.918 127.484 113.32-15.082 15.082-113.32-127.484zm16-16l.918-.918 127.484 113.32-15.082 15.082-113.32-127.484zm-43.34 282.448c-.774 0-1.893-.196-2.828-1.132l-114.746-114.747c-.936-.936-1.132-2.054-1.132-2.827s.196-1.892 1.133-2.828l1.832-1.832 127.484 113.32-8.913 8.913c-.937.937-2.056 1.133-2.83 1.133zm12.66-10.964l-113.32-127.484.917-.918 127.484 113.32-15.081 15.082zm168.914-168.914l-8.914 8.914-113.32-127.484 1.832-1.832c.937-.936 2.055-1.133 2.829-1.133s1.892.196 2.828 1.133l114.745 114.745c1.506 1.507 1.507 4.15 0 5.657zm21.739-63.112l-79.029-79.029 52.201-52.201 79.029 79.029-52.201 52.201z"/></svg>