<svg xmlns="http://www.w3.org/2000/svg" viewBox="0 0 512 512"><path d="M496 192l16-64-128-128-64 16 31.515 31.515-52.201 52.201-71.515-71.515-39.598 39.598 48.185 48.185c-1.045.811-2.055 1.686-3.013 2.644l-178.746 178.745c-12.445 12.444-12.445 32.81 0 45.254l9.373 9.373v32l20.687 20.687-84.687 84.686 22.627 22.627 84.687-84.687 20.686 20.687h32l9.373 9.373c6.223 6.223 14.425 9.333 22.627 9.333s16.405-3.11 22.627-9.333l178.746-178.746c.958-.958 1.833-1.968 2.644-3.013l48.185 48.185 39.598-39.598-71.515-71.515 52.201-52.201 31.514 31.515zm-122.426 66.828l-178.745 178.745c-.937.937-2.055 1.133-2.829 1.133s-1.893-.196-2.828-1.132l-114.746-114.747c-.936-.936-1.132-2.054-1.132-2.827s.196-1.892 1.133-2.828l178.745-178.746c.937-.936 2.055-1.133 2.829-1.133s1.892.196 2.828 1.133l114.745 114.745c1.506 1.507 1.507 4.15 0 5.657zm21.739-63.112l-79.029-79.029 52.201-52.201 79.029 79.029-52.201 52.201zm-195.799 180.773l-64-64 16.97-16.97 64 63.999zm96-96l-63.999-64 16.97-16.97 64 63.999zm-48 48l-64-64 16.971-16.97 63.999 63.999z"/></svg>