<svg xmlns="http://www.w3.org/2000/svg" viewBox="0 0 512 512"><path d="M256 0c-141.385 0-256 114.615-256 256s114.615 256 256 256 256-114.615 256-256-114.615-256-256-256zm-108.497 452c-4.534-2.516-8.971-5.186-13.306-8h243.613c-4.336 2.815-8.775 5.483-13.312 8h-216.995zm201.132 8c-6.556 2.981-13.283 5.65-20.158 8h-144.953c-6.872-2.349-13.594-5.02-20.146-8h185.257zm-225.956-24c-3.467-2.573-6.864-5.235-10.173-8h286.991c-3.309 2.764-6.702 5.428-10.169 8h-266.649zm-27.402-24h294.096l8 8h-293.921c-2.792-2.598-5.519-5.264-8.175-8zm198.096-96l8 8h-258.836c-.842-2.646-1.634-5.312-2.38-8h253.216zm-255.289-8c-.629-2.647-1.199-5.317-1.733-8h241.022l8 8h-247.289zm271.289 24l8 8h-269.061c-1.07-2.644-2.1-5.308-3.071-8h264.132zm16 16l8 8h-277.841c-1.317-2.637-2.581-5.305-3.796-8h273.637zm16 16l8 8h-285.016c-1.596-2.632-3.141-5.299-4.63-8h281.646zm16 16l8 8h-290.344c-1.917-2.624-3.778-5.291-5.582-8h287.926zm16 16l8 8h-293.505c-2.301-2.612-4.538-5.281-6.717-8h292.222zm-108-108l4 4h-234.469c-.215-1.33-.428-2.662-.619-4h231.088zm-9.373-256v224h-224c0-123.712 100.288-224 224-224zm-42.31 444h84.613c-13.7 2.619-27.84 4-42.304 4-14.465 0-28.606-1.38-42.309-4z"/></svg>