<svg xmlns="http://www.w3.org/2000/svg" viewBox="0 0 512 512"><path d="M256 0c141.385 0 256 114.615 256 256h-256v-256zm-32 1.988c-126.281 15.748-224 123.465-224 254.012 0 141.385 114.615 256 256 256 130.547 0 238.265-97.719 254.013-224h-286.013v-286.012zm-40.466 42.012h8.466v8h-28.617c6.577-2.99 13.303-5.658 20.151-8zm-36.025 16h44.491v8h-57.808c4.349-2.822 8.79-5.49 13.317-8zm-24.845 16h69.336v8h-79.49c3.313-2.767 6.698-5.437 10.154-8zm-19.226 16h88.562v8h-96.732c2.661-2.741 5.385-5.408 8.17-8zm-15.568 16h104.13v8h-110.853c2.175-2.712 4.415-5.38 6.723-8zm-12.846 16h116.976v8h-122.558c1.799-2.704 3.662-5.37 5.582-8zm-10.67 16h127.646v8h-132.26c1.484-2.695 3.017-5.364 4.614-8zm-8.805 16h136.451v8h-140.249c1.212-2.69 2.479-5.357 3.798-8zm-7.226 16h143.677v8h-146.728c.968-2.686 1.981-5.354 3.051-8zm-5.761 16h149.438v8h-151.831c.745-2.684 1.549-5.349 2.393-8zm-4.449 16h153.887v8h-155.638c.536-2.679 1.119-5.346 1.751-8zm-3.208 16h157.095v8h-158.236c.336-2.676.709-5.344 1.141-8zm-2.009 16h159.104v8h-159.667c.143-2.673.325-5.341.563-8zm-.896 20c0-1.335.022-2.667.046-4h159.954v8h-159.951c-.023-1.332-.049-2.664-.049-4zm.32 12h159.68v8h-159.11c-.233-2.658-.43-5.324-.57-8zm1.401 16h158.279v8h-157.122c-.428-2.658-.824-5.322-1.157-8zm2.586 16h155.693v8h-153.937c-.631-2.656-1.223-5.321-1.756-8zm219.693 180c-14.362 0-28.513-1.351-42.373-4h84.523c-13.796 2.638-27.901 4-42.15 4zm72.362-12h-144.89c-4.934-1.689-9.821-3.546-14.653-5.59-1.84-.778-3.665-1.585-5.479-2.41h185.218c-6.598 2.994-13.338 5.661-20.196 8zm36.104-16h-217.001c-4.536-2.514-8.978-5.18-13.32-8h243.649c-4.356 2.824-8.801 5.493-13.328 8zm24.868-16h-266.709c-3.449-2.562-6.824-5.233-10.13-8h286.988c-3.315 2.769-6.696 5.439-10.149 8zm19.231-16h-305.124c-1.97-1.835-3.921-3.696-5.833-5.608-.789-.789-1.56-1.593-2.335-2.392h321.464c-2.649 2.729-5.375 5.396-8.172 8zm15.579-16h-336.279c-2.311-2.619-4.556-5.286-6.734-8h349.727c-2.174 2.713-4.41 5.383-6.714 8zm12.837-16h-361.982c-1.921-2.628-3.788-5.293-5.59-8h373.155c-1.801 2.705-3.663 5.371-5.583 8zm10.666-16h-383.337c-1.594-2.631-3.123-5.302-4.608-8h392.572c-1.488 2.697-3.029 5.364-4.627 8zm8.834-16h-400.973c-1.317-2.64-2.596-5.302-3.812-8h408.58c-1.214 2.69-2.475 5.359-3.795 8zm7.215-16h-415.405c-1.074-2.652-2.104-5.317-3.072-8h421.541c-.97 2.688-1.992 5.354-3.064 8zm7.019-20c-.398 1.338-.812 2.671-1.235 4h-426.972c-.846-2.654-1.647-5.319-2.392-8h151.884v4h278.715z"/></svg>