<svg xmlns="http://www.w3.org/2000/svg" viewBox="0 0 512 512"><path d="M224 288v-286.012c-126.281 15.748-224 123.465-224 254.012 0 141.385 114.615 256 256 256 130.547 0 238.265-97.719 254.013-224h-286.013zm180.79 135.444c-41.007 36.471-93.848 56.556-148.79 56.556-30.254 0-59.586-5.918-87.181-17.59-26.67-11.28-50.628-27.437-71.21-48.019-20.583-20.581-36.739-44.54-48.019-71.21-11.672-27.595-17.59-56.927-17.59-87.181 0-54.942 20.085-107.783 56.556-148.789 27.933-31.408 63.817-54.121 103.444-65.925v278.714h278.715c-11.805 39.628-34.518 75.511-65.925 103.444zm-148.79-423.444c141.385 0 256 114.615 256 256h-256v-256z"/></svg>