<svg xmlns="http://www.w3.org/2000/svg" viewBox="0 0 512 512"><path d="M224 1.988v286.012h286.013c-15.748 126.281-123.466 224-254.013 224-141.385 0-256-114.615-256-256 0-130.547 97.719-238.264 224-254.012zm32-1.988v256h256c0-141.385-114.615-256-256-256zm32 220h189.136c.214 1.331.42 2.664.61 4h-189.746v-4zm40.542-176c4.929 1.689 9.812 3.548 14.639 5.59 1.841.778 3.665 1.585 5.479 2.41h-60.66v-8h40.542zm-40.542-8v-1.747c3.503.499 6.988 1.083 10.455 1.747h-10.455zm76.535 24c4.535 2.514 8.978 5.18 13.32 8h-89.855v-8h76.535zm24.84 16c3.448 2.562 6.823 5.233 10.13 8h-111.505v-8h101.375zm19.184 16c1.97 1.835 3.921 3.696 5.833 5.608.789.79 1.56 1.593 2.336 2.392h-128.728v-8h120.559zm15.576 16c2.312 2.619 4.556 5.287 6.734 8h-142.869v-8h136.135zm12.866 16c1.922 2.628 3.788 5.293 5.591 8h-154.592v-8h149.001zm10.689 16c1.594 2.631 3.122 5.302 4.608 8h-164.298v-8h159.69zm8.802 16c1.317 2.64 2.596 5.302 3.812 8h-172.304v-8h168.492zm7.234 16c1.074 2.651 2.09 5.319 3.058 8h-178.784v-8h175.726zm5.776 16c.846 2.654 1.646 5.32 2.391 8h-183.893v-8h181.502zm4.445 16c.631 2.655 1.212 5.322 1.745 8h-187.692v-8h185.947z"/></svg>