<svg xmlns="http://www.w3.org/2000/svg" viewBox="0 0 512 512"><path d="M64 448h448v64h-512v-512h64zm80-32c-26.51 0-48-21.49-48-48s21.49-48 48-48c1.414 0 2.811.074 4.194.193l51.596-85.993c-4.92-7.535-7.79-16.531-7.79-26.201 0-26.51 21.49-48 48-48s48 21.49 48 48c0 9.671-2.87 18.666-7.79 26.201l51.596 85.993c1.383-.119 2.78-.193 4.194-.193 1.068 0 2.124.047 3.175.115l85.178-149.061c-5.268-7.704-8.353-17.018-8.353-27.055 0-26.51 21.49-48 48-48s48 21.49 48 48-21.49 48-48 48c-1.07 0-2.124-.047-3.175-.116l-85.178 149.062c5.268 7.703 8.353 17.018 8.353 27.055 0 26.51-21.49 48-48 48s-48-21.49-48-48c0-9.67 2.87-18.666 7.789-26.201l-51.595-85.992c-1.383.119-2.78.193-4.194.193-1.414 0-2.811-.073-4.194-.193l-51.596 85.993c4.92 7.534 7.79 16.53 7.79 26.2 0 26.51-21.49 48-48 48z"/></svg>