<svg xmlns="http://www.w3.org/2000/svg" viewBox="0 0 512 512"><path d="M488 96c13.2 0 24-10.8 24-24v-48c0-13.2-10.8-24-24-24h-48c-13.2 0-24 10.8-24 24v8h-320v-8c0-13.2-10.8-24-24-24h-48c-13.2 0-24 10.8-24 24v48c0 13.2 10.8 24 24 24h8v320h-8c-13.2 0-24 10.8-24 24v48c0 13.2 10.8 24 24 24h48c13.2 0 24-10.8 24-24v-8h320v8c0 13.2 10.8 24 24 24h48c13.2 0 24-10.8 24-24v-48c0-13.2-10.8-24-24-24h-8v-320h8zm-40-64h32v32h-32v-32zm-416 0h32v32h-32v-32zm32 448h-32v-32h32v32zm416 0h-32v-32h32v32zm-32-64h-8c-13.2 0-24 10.8-24 24v8h-320v-8c0-13.2-10.8-24-24-24h-8v-320h8c13.2 0 24-10.8 24-24v-8h320v8c0 13.2 10.8 24 24 24h8v320zm-320-288h64v256h-64zm96 128h64v128h-64zm96-64h64v192h-64z"/></svg>