<svg xmlns="http://www.w3.org/2000/svg" viewBox="0 0 512 512"><path d="M488 96c13.2 0 24-10.8 24-24v-48c0-13.2-10.8-24-24-24h-48c-13.2 0-24 10.8-24 24v8h-320v-8c0-13.2-10.8-24-24-24h-48c-13.2 0-24 10.8-24 24v48c0 13.2 10.8 24 24 24h8v320h-8c-13.2 0-24 10.8-24 24v48c0 13.2 10.8 24 24 24h48c13.2 0 24-10.8 24-24v-8h320v8c0 13.2 10.8 24 24 24h48c13.2 0 24-10.8 24-24v-48c0-13.2-10.8-24-24-24h-8v-320h8zm-40-64h32v32h-32v-32zm-416 0h32v32h-32v-32zm32 448h-32v-32h32v32zm416 0h-32v-32h32v32zm-32-64h-8c-13.2 0-24 10.8-24 24v8h-320v-8c0-13.2-10.8-24-24-24h-8v-320h8c13.2 0 24-10.8 24-24v-8h320v8c0 13.2 10.8 24 24 24h8v320zm-192-288v128h128c0-70.692-57.308-128-128-128zm-32 160v-155.967c-55.207 14.209-96 64.325-96 123.967 0 70.692 57.308 128 128 128 59.643 0 109.758-40.793 123.967-96h-155.967z"/></svg>