<svg xmlns="http://www.w3.org/2000/svg" viewBox="0 0 512 512"><path d="M320 128h-128v384h128v-384zm-96 36v-4h64v4h-64zm0 16v-8h64v8h-64zm0 16v-8h64v8h-64zm0 16v-8h64v8h-64zm0 16v-8h64v8h-64zm0 16v-8h64v8h-64zm0 16v-8h64v8h-64zm0 16v-8h64v8h-64zm0 16v-8h64v8h-64zm0 16v-8h64v8h-64zm0 16v-8h64v8h-64zm0 16v-8h64v8h-64zm0 16v-8h64v8h-64zm0 16v-8h64v8h-64zm0 16v-8h64v8h-64zm0 16v-8h64v8h-64zm0 16v-8h64v8h-64zm0 16v-8h64v8h-64zm0 16v-8h64v8h-64zm0 16v-8h64v8h-64zm0 12v-4h64v4h-64zm-224-192h128v224h-128zm384-288h128v512h-128z"/></svg>