<svg xmlns="http://www.w3.org/2000/svg" viewBox="0 0 512 512"><path d="M144 192h-96c-8.8 0-16 7.2-16 16v288c0 8.8 7.2 16 16 16h96c8.8 0 16-7.2 16-16v-288c0-8.8-7.2-16-16-16zm0 160v4h-96v-4h96zm-96 100v-8h96v8h-96zm96 8v8h-96v-8h96zm-96-24v-8h96v8h-96zm0-16v-8h96v8h-96zm0-16v-8h96v8h-96zm0-16v-8h96v8h-96zm0-16v-8h96v8h-96zm0 108v-4h96v4h-96zm256-352h-96c-8.8 0-16 7.2-16 16v352c0 8.8 7.2 16 16 16h96c8.8 0 16-7.2 16-16v-352c0-8.8-7.2-16-16-16zm0 192v4h-96v-4h96zm-96 132v-8h96v8h-96zm96 8v8h-96v-8h96zm-96-24v-8h96v8h-96zm0-16v-8h96v8h-96zm0-16v-8h96v8h-96zm0-16v-8h96v8h-96zm0-16v-8h96v8h-96zm0-16v-8h96v8h-96zm0-16v-8h96v8h-96zm0 140v-4h96v4h-96zm256-416h-96c-8.8 0-16 7.2-16 16v416c0 8.8 7.2 16 16 16h96c8.8 0 16-7.2 16-16v-416c0-8.8-7.2-16-16-16zm0 224v4h-96v-4h96zm-96 164v-8h96v8h-96zm96 8v8h-96v-8h96zm-96-24v-8h96v8h-96zm0-16v-8h96v8h-96zm0-16v-8h96v8h-96zm0-16v-8h96v8h-96zm0-16v-8h96v8h-96zm0-16v-8h96v8h-96zm0-16v-8h96v8h-96zm0-16v-8h96v8h-96zm0-16v-8h96v8h-96zm0 172v-4h96v4h-96z"/></svg>