<svg xmlns="http://www.w3.org/2000/svg" viewBox="0 0 512 512"><path d="M496 480h-112v-16h-16v16h-160v-16h-16v16h-112v-16h-16v16h-32v-144h16v-16h-16v-112h16v-16h-16v-112h16v-16h-16v-64h-32v512h512v-48h-16zm-276-284l-8 8v126.059l8-8zm-16 16l-8 8v126.059l8-8zm-16 142.059v-132.059l-8-4v133.167l7.261 3.631zm80-206.059l-8 8v126.059l8-8zm-32 32l-8 8v126.059l8-8zm-64 34l-8-4v133.167l8 4zm80-50l-8 8v126.059l8-8zm-128 26l-8-4v133.167l8 4zm-32-16l-8-4v133.167l8 4zm64 32l-8-4v133.167l8 4zm-48-24l-8-4v133.167l8 4zm-32-16l-8-4v133.167l8 4zm208-34l-8 8v126.059l8-8zm-144 66l-8-4v133.167l8 4zm272-34l-8 8v170.733l8-12zm16-16l-8 8v162.733l8-12zm16-16l-8 8v154.733l8-12zm32-32l-8 8v138.733l8-12zm-16 16l-8 8v146.733l8-12zm48-48l-8 8v122.733l8-12zm-16 16l-8 8v130.733l8-12zm-144 84l-8-5.333v154.667l8 10.666zm-16-10.667l-8-5.333v144l8 10.667zm-32-21.333l-8-5.333v122.666l8 10.667zm16 10.667l-8-5.334v133.334l8 10.667zm48 32l-8-5.334v165.334l8 10.667zm32 1.333l-8 8v178.732l8-11.999zm-16 9.333l-8-5.333v176.001l8 10.666zm4 226.667l-96-128-96 96-128-64v128h448v-224z"/></svg>