<svg xmlns="http://www.w3.org/2000/svg" viewBox="0 0 512 512"><path d="M288 160.621v-48.621c0-8.8-7.2-16-16-16h-32c-8.8 0-16 7.2-16 16v48.621c-126.281 4.921-224 38.583-224 79.379v192c0 44.183 114.615 80 256 80s256-35.817 256-80v-192c0-40.796-97.719-74.458-224-79.379zm-234.492 72.174c12.139-6.375 28.751-12.408 48.042-17.445 34.724-9.067 77.333-14.832 122.451-16.692v41.342c0 8.8 7.2 16 16 16h32c8.8 0 16-7.2 16-16v-41.342c45.117 1.86 87.727 7.625 122.45 16.692 19.291 5.038 35.903 11.07 48.042 17.445 5.353 2.812 9.059 5.266 11.582 7.205-2.523 1.939-6.229 4.394-11.582 7.205-12.139 6.375-28.751 12.408-48.042 17.445-42.846 11.189-97.697 17.35-154.451 17.35s-111.605-6.161-154.451-17.35c-19.291-5.037-35.903-11.07-48.042-17.445-5.353-2.812-9.059-5.266-11.582-7.205 2.524-1.939 6.23-4.394 11.583-7.205zm426.492 148.954c-43.667 24.599-127.604 41.251-224 41.251s-180.333-16.652-224-41.251v-45c43.667 24.599 127.604 41.251 224 41.251s180.333-16.652 224-41.251v45zm-224-301.749c-17.673 0-32-14.327-32-32 0-.625.022-1.244.058-1.859 1.21-30.753 31.942-46.141 31.942-46.141s30.732 15.388 31.942 46.141c.036.615.058 1.234.058 1.859 0 17.673-14.327 32-32 32z"/></svg>