<svg xmlns="http://www.w3.org/2000/svg" viewBox="0 0 512 512"><path d="M385.758 160c9.063-6.44 17.756-13.608 25.722-21.574 16.701-16.701 27.873-37.25 31.456-57.861 3.929-22.593-1.836-43.57-15.815-57.55-11.15-11.149-26.255-17.043-43.682-17.043-24.816 0-50.961 11.912-71.73 32.681-33.238 33.238-52.613 79.119-63.038 111.861-7.72-32.901-23.103-77.322-53.009-107.229-16.047-16.046-36.557-24.285-55.923-24.285-15.827 0-30.89 5.502-42.13 16.743-24.993 24.994-21.616 68.893 7.543 98.052 10.396 10.396 22.549 19.031 35.36 26.206h-108.512v128h32v224h384v-224.001h32v-128h-94.242zm-48.595-95.891c13.862-13.862 31.161-22.137 46.275-22.137 5.35 0 12.854 1.127 18.225 6.499 13.015 13.014 5.706 43.154-15.64 64.499-21.973 21.973-51.53 37.084-77.216 47.03h-25.336c9.284-28.774 26.029-68.228 53.692-95.891zm-206.556 44.229c-7.914-7.914-12.885-18.08-13.64-27.893-.351-4.56-.025-13.124 6.098-19.247 5.122-5.122 11.894-6.198 16.674-6.198 10.629 0 21.734 5.008 30.466 13.74 16.936 16.936 30.883 43.886 40.334 77.938.255.92.504 1.835.748 2.743-.908-.243-1.823-.492-2.743-.748-34.052-9.451-61.002-23.399-77.937-40.335zm317.393 163.662h-160v208h-64v-208h-160v-16h160v-64h64v64h160v16z"/></svg>