<svg xmlns="http://www.w3.org/2000/svg" viewBox="0 0 512 512"><path d="M416 160c0-25.319-19.607-46.045-44.465-47.856 16.296-18.858 15.506-47.377-2.398-65.281-17.903-17.903-46.423-18.694-65.28-2.399-1.812-24.857-22.537-44.464-47.857-44.464s-46.044 19.607-47.856 44.464c-18.857-16.295-47.377-15.504-65.281 2.399-17.903 17.904-18.694 46.423-2.399 65.281-24.856 1.812-44.464 22.537-44.464 47.856s19.607 46.044 44.464 47.856c-16.295 18.857-15.504 47.377 2.399 65.28 13.294 13.294 32.439 17.143 49.137 11.577v227.287l64-64 64 64v-227.286c16.698 5.565 35.843 1.717 49.137-11.577 17.904-17.903 18.694-46.422 2.398-65.28 24.858-1.812 44.465-22.538 44.465-47.857zm-160 96c-53.02 0-96-42.98-96-96s42.98-96 96-96 96 42.98 96 96-42.98 96-96 96z"/></svg>