<svg xmlns="http://www.w3.org/2000/svg" viewBox="0 0 512 512"><path d="M448 208c0-106.039-85.961-192-192-192s-192 85.961-192 192c0 62.271 29.654 117.609 75.603 152.689l-75.603 151.311 96-64 32 64 44.823-112.951c6.308.626 12.704.951 19.177.951 6.473 0 12.869-.325 19.178-.951l44.822 112.951 32-64 96 64-75.603-151.311c45.949-35.08 75.603-90.418 75.603-152.689zm-101.49 90.51c-24.176 24.176-56.321 37.49-90.51 37.49-34.19 0-66.334-13.314-90.51-37.49-24.176-24.176-37.49-56.32-37.49-90.51s13.314-66.333 37.49-90.51c24.177-24.176 56.32-37.49 90.51-37.49 34.189 0 66.334 13.314 90.51 37.49 24.176 24.176 37.49 56.32 37.49 90.51s-13.314 66.334-37.49 90.51z"/></svg>