<svg xmlns="http://www.w3.org/2000/svg" viewBox="0 0 512 512"><path d="M512 32h-160v64h-192v-64h-160c0 160 128 347.188 224 376v40c-32 0-64 16-64 32h192c0-16-32-32-64-32v-40c96-28.812 224-216 224-376zm-128.15 81.227l.15-17.227v-32h94.227c-2.787 25.839-8.855 53.128-18.14 81.495-12.272 37.499-30.058 75.91-51.433 111.082-20.559 33.826-43.896 63.859-67.488 86.852-2.266 2.208-4.521 4.336-6.765 6.391 42.418-85.058 48.56-191.498 49.449-236.593zm-213.016 230.201c-23.593-22.992-46.93-53.025-67.488-86.852-21.375-35.172-39.161-73.583-51.433-111.082-9.284-28.366-15.353-55.655-18.14-81.494h94.227v32l.15 17.227c.889 45.096 7.031 151.535 49.448 236.592-2.243-2.055-4.499-4.183-6.764-6.391z"/></svg>