<svg xmlns="http://www.w3.org/2000/svg" viewBox="0 0 512 512"><path d="M384 64h-256l-128 128 256 288 256-288-128-128zm-128 325.333v-1.333h-1.185l-7.111-8h8.296v-8h-15.407l-7.111-8h22.518v-8h-29.629l-7.111-8h36.74v-8h-43.852l-7.111-8h50.963v-8h-58.074l-7.111-8h65.185v-8h-72.296l-7.111-8h79.407v-8h-86.519l-7.111-8h93.63v-8h-100.741l-7.111-8h107.852v-8h-114.963l-7.111-8h122.074v-8h-129.186l-7.111-8h136.297v-8h-143.408l-7.111-8h150.519v-8h-157.63l-7.111-8h164.741v-8h-171.853l-3.672-4.131 69.536-69.536h105.989v1.667h107.657l8 8h-115.657v8h123.657l8 8h-131.657v8h139.657l8 8h-147.657v8h155.657l8 8h-163.657v8h171.656l3.869 3.869-175.525 197.464z"/></svg>