<svg xmlns="http://www.w3.org/2000/svg" viewBox="0 0 512 512"><path d="M416 160h-32v-48c0-44.183-85.961-80-192-80s-192 35.817-192 80v288c0 44.183 85.961 80 192 80s192-35.817 192-80v-48h32c52.8 0 96-43.2 96-96s-43.2-96-96-96zm-327.972-65.199c28.971-9.545 65.895-14.801 103.972-14.801s75.002 5.256 103.972 14.801c18.497 6.094 29.704 12.623 35.705 17.199-6.001 4.576-17.208 11.104-35.705 17.199-28.97 9.545-65.895 14.801-103.972 14.801s-75.001-5.256-103.972-14.801c-18.497-6.095-29.704-12.623-35.705-17.199 6.001-4.576 17.208-11.104 35.705-17.199zm364.154 189.381c-4.414 4.414-13.945 11.818-28.182 11.818h-40v-80h40c14.237 0 23.768 7.405 28.182 11.819s11.818 13.944 11.818 28.181-7.404 23.768-11.818 28.182z"/></svg>