<svg xmlns="http://www.w3.org/2000/svg" viewBox="0 0 512 512"><path d="M432 0c-44.186 0-80 35.816-80 80v240h64v192h96v-432c0-44.184-35.817-80-80-80zm-224 0c-8.838 0-16 7.164-16 16v112c0 4.418-7.164 8-16 8-8.838 0-16-3.582-16-8v-112c0-8.836-7.164-16-16-16-8.837 0-16 7.164-16 16v112c0 4.418-7.164 8-16 8-8.837 0-16-3.582-16-8v-112c0-8.836-7.164-16-16-16-8.837 0-16 7.164-16 16v112c0 4.418-7.164 8-16 8s-16-3.582-16-8v-112c0-8.836-7.164-16-16-16s-16 7.164-16 16v144c0 14.159 12.529 22.055 26.502 32 17.605 12.532 37.498 28.318 37.498 64v256h96v-256c0-35.682 19.893-51.468 37.496-64 13.973-9.945 26.504-17.841 26.504-32v-144c0-8.836-7.163-16-16-16z"/></svg>