<svg xmlns="http://www.w3.org/2000/svg" viewBox="0 0 512 512"><path d="M112 0c-53.02 0-96 50.144-96 112 0 52.962 31.511 97.333 73.853 108.999l-15.894 259.062c-1.077 17.566 12.441 31.939 30.041 31.939h16c17.6 0 31.118-14.373 30.041-31.939l-15.894-259.062c42.342-11.666 73.853-56.037 73.853-108.999 0-61.856-42.98-112-96-112zm322.667 0l-26.667 160h-20l-13.333-160h-13.334l-13.333 160h-20l-26.667-160h-13.333v208c0 8.836 7.163 16 16 16h41.669l-15.71 256.061c-1.077 17.566 12.441 31.939 30.041 31.939h16c17.6 0 31.118-14.373 30.041-31.939l-15.71-256.061h41.669c8.837 0 16-7.164 16-16v-208h-13.333z"/></svg>