<svg xmlns="http://www.w3.org/2000/svg" viewBox="0 0 512 512"><path d="M256 480c141.385 0 256-42.98 256-96h-512c0 53.02 114.615 96 256 96zm208-288h-416c-26.4 0-48 21.6-48 48s21.6 48 48 48h416c26.4 0 48-21.6 48-48s-21.6-48-48-48zm-208-160c-141.385 0-256 52.98-256 106v22h512v-22c0-53.02-114.615-106-256-106zm-176 96c-8.836 0-16-7.164-16-16s7.164-16 16-16 16 7.164 16 16-7.164 16-16 16zm64-32c-8.836 0-16-7.164-16-16s7.164-16 16-16 16 7.164 16 16-7.164 16-16 16zm64 32c-8.836 0-16-7.164-16-16s7.164-16 16-16 16 7.164 16 16-7.164 16-16 16zm96 0c-8.837 0-16-7.164-16-16s7.163-16 16-16 16 7.164 16 16-7.163 16-16 16zm64-32c-8.836 0-16-7.164-16-16s7.164-16 16-16 16 7.164 16 16-7.164 16-16 16zm64 32c-8.836 0-16-7.164-16-16s7.164-16 16-16 16 7.164 16 16-7.164 16-16 16zm-432 192h512v32h-512z"/></svg>