<svg xmlns="http://www.w3.org/2000/svg" viewBox="0 0 512 512"><path d="M432 256h-16.104c.062-2.658.104-5.323.104-8 0-1.927-.026-3.846-.062-5.762.037-.744.062-1.49.062-2.238 0-41.61-57.363-77.033-137.579-90.353-2.896-5.198-6.102-10.012-9.108-14.522-7.144-10.715-13.313-19.969-13.313-30.125 0-12.191 9.189-27.562 27.313-45.687 6.249-6.248 6.249-16.379 0-22.627-6.248-6.249-16.379-6.249-22.627 0-51.436 51.435-38.372 84.139-23.169 108.28-9.643-.632-19.495-.966-29.517-.966-9.622 0-19.086.309-28.361.892-2.092-3.417-4.257-6.664-6.326-9.767-7.144-10.715-13.313-19.969-13.313-30.125 0-12.191 9.189-27.562 27.313-45.687 6.249-6.248 6.249-16.379 0-22.627-6.248-6.249-16.379-6.249-22.627 0-54.103 54.102-36.845 87.48-20.796 111.968-83.5 12.475-143.89 48.653-143.89 91.346 0 .749.024 1.494.062 2.238-.036 1.916-.062 3.835-.062 5.762 0 145.803 93.125 264 208 264 64.591 0 122.305-37.368 160.455-96h63.545c44.183 0 80-35.817 80-80s-35.817-80-80-80zm-224 32c-79.529 0-144-21.49-144-48 0-20.577 38.848-38.127 93.427-44.953-3.882 9.791-12.15 21.049-24.74 33.64-6.249 6.248-6.249 16.379 0 22.627 3.124 3.124 7.218 4.686 11.313 4.686s8.189-1.562 11.313-4.687c23.148-23.148 33.229-42.501 35.935-58.988 5.497-.212 11.085-.325 16.752-.325 15.954 0 31.299.867 45.642 2.463-3.779 9.926-12.112 21.379-24.956 34.223-6.249 6.248-6.249 16.379 0 22.627 3.125 3.125 7.219 4.687 11.314 4.687s8.189-1.562 11.313-4.687c19.844-19.844 30.083-36.898 34.307-51.75 39.924 8.533 66.38 23.455 66.38 40.437 0 26.51-64.471 48-144 48zm224 96h-45.697c13.696-28.864 23.17-61.321 27.323-96h18.374c23.159 0 42 24.841 42 48s-18.841 48-42 48z"/></svg>