<svg xmlns="http://www.w3.org/2000/svg" viewBox="0 0 512 512"><path d="M432 256h-16.104c.062-2.658.104-5.323.104-8 0-1.927-.026-3.846-.062-5.762.037-.744.062-1.49.062-2.238 0-53.02-93.125-96-208-96s-208 42.98-208 96c0 .749.024 1.494.062 2.238-.036 1.916-.062 3.835-.062 5.762 0 145.803 93.125 264 208 264 64.591 0 122.305-37.368 160.455-96h63.545c44.183 0 80-35.817 80-80s-35.817-80-80-80zm-224 32c-79.529 0-144-21.49-144-48s64.471-48 144-48 144 21.49 144 48-64.471 48-144 48zm224 96h-45.697c13.696-28.864 23.17-61.321 27.323-96h18.374c23.159 0 42 24.841 42 48s-18.841 48-42 48z"/></svg>