<svg xmlns="http://www.w3.org/2000/svg" viewBox="0 0 512 512"><path d="M357.722 57.524c16.267 26.877 33.118 58.46 46.958 94.158 27.229 70.232 33.754 134.454 19.393 190.877-7.805 30.667-23.158 55.555-44.399 71.973-19.013 14.696-42.097 22.464-66.758 22.464-34.216 0-66.683-15.044-89.079-41.274l-17.479-20.473-19.723 11.68c-.414.025-.921.043-1.525.043-4.953 0-19.333-1.277-45.82-13.104-24.112-10.768-41.896-34.861-47.57-64.45-3.432-17.895-2.157-37.114 3.688-55.583 6.773-21.403 19.392-41.691 37.505-60.301 37.296-38.319 68.56-47.973 101.659-58.194 23.814-7.354 48.439-14.958 74.26-32.279 17.567-11.788 33.59-26.659 48.89-45.537m1.052-57.524c-84.382 139.493-151.15 70.891-248.795 171.215-86.168 88.533-54.834 200.125 16.262 231.872 28.755 12.84 47.531 15.885 58.867 15.885 10.218 0 14.392-2.472 14.392-2.472 29.521 34.577 71.58 52.496 113.415 52.496 61.097 0 121.721-38.207 142.169-118.543 37.449-147.137-60.194-296.948-96.31-350.453zm-310.268 483.121c.058 1.453 1.711 28.879 37.683 28.879 46.408 0 201.811-128 265.811-352-70.911 176-270.5 317.5-303.494 323.121z"/></svg>