<svg xmlns="http://www.w3.org/2000/svg" viewBox="0 0 512 512"><path d="M256 158.653c-42.276-43.218-224-71.03-224 134.179 0 126.782 160.518 267.145 223.965 203.193h.07c63.448 63.952 223.965-76.411 223.965-203.193 0-205.208-181.724-177.397-224-134.179zm160.552 182.597c-12.045 46.402-51.907 89.539-98.744 120.021 48.953-58.283 79.127-156.949 49.948-233.464-8.688-22.783-18.648-42.083-29.535-58.319 57.52 19.284 104.924 69.307 78.331 171.762zm-176.39-239.222c6.817-1.627 13.289-3.756 19.451-6.256-2.241 10.334-3.613 21.223-3.613 32.228h10.67c9.286-43.374 44.19-94 90.727-94 0-23.833-16.166-34-34.355-34-17.31 8.583-32.418 23.974-44.621 45.713-6.589 11.738-13.463 27.834-17.835 45.851-.872-5.087-2.174-10.19-3.983-15.276-19.745-55.531-88.56-87.943-153.703-72.394-7.376 1.761-14.368 4.085-20.977 6.861.827 6.278 2.301 12.591 4.537 18.878 19.744 55.532 88.559 87.944 153.702 72.395z"/></svg>