<svg xmlns="http://www.w3.org/2000/svg" viewBox="0 0 512 512"><path d="M256 42.521l97.691 85.479h-73.145l64.095 56.083 45.621 39.917h-109.715l64.095 56.083 45.62 39.917h-73.142l64.094 56.082 45.62 39.918h-137.32l4.088 35.646c1.156 10.074 2.31 19.565 3.792 28.354h-82.788c1.482-8.788 2.637-18.279 3.792-28.354l4.088-35.646h-137.319l45.62-39.918 64.094-56.082h-73.143l45.62-39.918 64.094-56.082h-109.715l45.62-39.917 64.095-56.083h-73.143l97.691-85.479m0-42.521l-182.857 160h73.143l-109.715 96h109.714l-109.714 96h73.143l-109.714 96h186.606c-4.043 35.249-8.033 64-26.606 64h192c-18.574 0-22.563-28.751-26.606-64h186.606l-109.714-96h73.143l-109.715-96h109.715l-109.715-96h73.144l-182.858-160z"/></svg>