<svg xmlns="http://www.w3.org/2000/svg" viewBox="0 0 512 512"><path d="M267.169 275.999c-62.664 0-122.669 28.036-161.386 140.869s46.716 103.839 100.637 80.522c52.206-22.573 72.079-26.017 134.958 3.874 59.195 28.141 109.789-1.229 88.681-62.868-21.108-61.639-92.226-162.397-162.89-162.397zm-118.533-254.213c-35.721 8.537-54.605 57.079-42.18 108.42 12.425 51.341 51.455 86.041 87.176 77.503l.494-.121c35.721-8.537 54.605-57.079 42.18-108.42-5.349-22.1-15.626-41.116-28.448-54.927-16.965-18.275-38.383-27.438-58.728-22.576l-.494.121zm206.932-1.79c-35.95-7.521-73.771 28.318-84.474 80.048-6.152 29.733-2.007 58.244 9.457 78.543 8.481 15.019 20.969 25.542 36.256 28.741l.388.08c35.949 7.521 73.77-28.318 84.473-80.048 10.704-51.73-9.763-99.763-45.713-107.284l-.387-.08zm-345.273 266.865c19.751 45.678 61.375 71.645 92.969 57.996 18.079-7.81 28.957-26.896 31.254-50.356 1.718-17.539-1.36-37.521-9.81-57.063l-.034-.078c-19.751-45.678-61.375-71.645-92.969-57.997-31.594 13.648-41.195 61.741-21.444 107.42l.034.078zm398.479 49.926c17.982 7.893 39.269 2.891 57.926-11.336 14.041-10.705 26.594-26.635 35.13-46.226 19.879-45.623 10.446-93.821-21.069-107.654l-.41-.177c-31.515-13.833-73.177 11.938-93.056 57.562-19.879 45.623-10.446 93.822 21.069 107.654l.41.177z"/></svg>