<svg xmlns="http://www.w3.org/2000/svg" viewBox="0 0 512 512"><path d="M401.006 116.918c61.533 44.385 67.586 183.594 79.691 225.961l-114.557 45.395c-11.668-76.665-110.396-134.165-114.432-218.9-4.034-84.736 87.763-96.841 149.298-52.456zm69.603 389.38c-91.45 33.253-96.841-89.779-96.841-89.779l119.033-48.42c.001 0 55.482 109.954-22.192 138.199zm-469.535-410.774c12.126-74.896 85.596-131.247 142.661-68.477 57.061 62.77 27.905 173.24 73.867 235.695l-113.099 48.91c-21.403-38.517-115.557-141.232-103.429-216.128zm226.113 324.554c-74.894 34.951-113.415-82.033-113.415-82.033l118.411-49.934s83.182 90.813-4.996 131.967z"/></svg>