<svg xmlns="http://www.w3.org/2000/svg" viewBox="0 0 512 512"><path d="M505.647 188.864c-26.708-82.185-107.774-90.487-170.346-28.04 40.062-78.801 7.105-153.337-79.305-153.337s-119.357 74.535-79.31 153.333c-62.565-62.442-143.631-54.136-170.332 28.044-26.701 82.183 33.998 136.552 121.318 122.811-78.719 40.209-95.872 119.874-25.962 170.666 69.901 50.79 140.368 9.859 154.285-77.433 13.917 87.292 84.384 128.225 154.293 77.433 69.903-50.792 52.751-130.456-25.969-170.666 87.322 13.742 148.03-40.628 121.328-122.811zm-249.651 154.087c-40.876 0-74.006-33.135-74.006-74.01 0-40.877 33.13-74.011 74.006-74.011 40.875 0 74.015 33.135 74.015 74.011 0 40.875-33.14 74.01-74.015 74.01z"/></svg>