<svg xmlns="http://www.w3.org/2000/svg" viewBox="0 0 512 512"><path d="M256 0c-141.385 0-256 114.615-256 256s114.615 256 256 256 256-114.615 256-256-114.615-256-256-256zm-104.582 417.076c5.553-15.316 8.582-31.844 8.582-49.076 0-62.175-39.405-115.146-94.604-135.303 5.105-42.462 24.127-81.749 54.839-112.462 36.265-36.263 84.48-56.235 135.765-56.235s99.5 19.972 135.765 56.235c30.714 30.713 49.734 70 54.841 112.462-55.201 20.157-94.606 73.128-94.606 135.303 0 17.234 3.03 33.76 8.583 49.075-30.853 20.121-66.885 30.925-104.583 30.925-37.697 0-73.729-10.804-104.582-30.924zm124.459-96.578c6.939 1.747 12.123 8.04 12.123 15.502v32c0 8.8-7.2 16-16 16h-32c-8.8 0-16-7.2-16-16v-32c0-7.462 5.184-13.755 12.123-15.502l11.877-224.498h16l11.877 224.498z"/></svg>