<svg xmlns="http://www.w3.org/2000/svg" viewBox="0 0 512 512"><path d="M505.087 457.875l-274.317-249.729 12.767-12.799c10.447-10.477 16.094-24.015 16.959-37.805.501-.225 1.001-.456 1.479-.721l51.495-32.201c6.967-8.196 6.458-21.134-1.142-28.751l-89.56-89.804c-7.595-7.617-20.499-8.131-28.672-1.142l-32.118 51.634c-.263.483-.495.983-.72 1.487-13.751.868-27.25 6.528-37.699 17.003l-48.714 48.851c-10.449 10.478-16.092 24.013-16.959 37.802-.502.225-1.002.458-1.482.723l-51.493 32.203c-6.971 8.195-6.458 21.132 1.138 28.748l89.56 89.802c7.597 7.619 20.498 8.131 28.675 1.143l32.114-51.635c.264-.479.494-.98.721-1.483 13.751-.869 27.252-6.525 37.699-17.002l14.146-14.186 249.061 275.057c7.218 7.972 18.35 9.259 24.737 2.856l25.178-25.244c6.382-6.404 5.098-17.566-2.853-24.807z"/></svg>