<svg xmlns="http://www.w3.org/2000/svg" viewBox="0 0 512 512"><path d="M28.302 224l51.698-82.717 51.698 82.717h28.302l-80-128-80 128zm99.698 96l32-32v-32h-160v32l32 32zm220.302-96l51.698-82.717 51.698 82.717h28.302l-80-128-80 128zm-28.302 64l32 32h96l32-32v-32h-160zm-64 128v-290.742c13.635-4.821 24.438-15.623 29.258-29.258h130.74200000000002v-32h-130.742c-6.591-18.641-24.359-32-45.258-32-20.898 0-38.667 13.359-45.258 32h-130.742v32h130.74200000000002c4.821 13.635 15.623 24.437 29.258 29.258v290.742h-160l-32 64h416l-32-64h-160zm-39.2-336c0-12.813 10.387-23.2 23.2-23.2 12.813 0 23.2 10.387 23.2 23.2 0 12.813-10.388 23.2-23.2 23.2-12.813 0-23.2-10.387-23.2-23.2z"/></svg>