<svg xmlns="http://www.w3.org/2000/svg" viewBox="0 0 512 512"><path d="M512 32v13.254l-18.745 18.746 18.745 18.746v13.254h-32v32h-13.255l-18.745-18.745-18.746 18.745h-13.255v-32h-32v-.376c-6.505-.229-12.713-1.531-18.651-3.953-14.81-6.04-24.964-17.528-34.782-28.637-9.673-10.944-18.81-21.281-31.626-25.553-16.17-5.391-38.611-9.538-53.67 1.316-7.123 5.134-12.522 13.651-16.101 25.203h2.831c13.2 0 24 10.8 24 24v13.577c91.732 21.67 160 104.07 160 202.423 0 114.875-93.125 208-208 208s-208-93.125-208-208c0-98.353 68.268-180.753 160-202.423v-13.577c0-13.2 10.8-24 24-24h12.08c5.212-23.158 15.401-40.294 30.48-51.163 20.614-14.859 49.144-16.833 82.5-5.714 20.977 6.992 33.997 21.723 45.483 34.719 15.178 17.174 23.741 26.863 45.252 19.208l-15.795-15.796v-13.254h32v-32h13.255l18.745 18.745 18.745-18.745h13.255v32h32z"/></svg>