<svg xmlns="http://www.w3.org/2000/svg" viewBox="0 0 512 512"><path d="M415.962 376.648zm1.063-152.648c52.192 49.905 77.541 98.79 60.677 128-9.63 16.678-31.68 24.648-61.74 24.648v-24c21.072 0 36.383-4.729 40.956-12.648 3.609-6.252 1.6-15.865-.723-22.829-4.453-13.355-14.144-29.332-28.021-46.202-8.424-10.239-18.135-20.561-28.937-30.821-14.882 12.849-31.438 25.629-49.398 38.029-1.757 21.74-4.545 42.458-8.229 61.759 28.095 8.333 53.593 12.709 74.341 12.711l.011 24h-.013c-22.587-.002-49.698-4.516-79.437-13.202-17.12 70.159-46.783 116.555-80.512 116.555s-63.392-46.396-80.514-116.551c-29.737 8.686-56.849 13.199-79.436 13.199-30.06 0-52.124-7.971-61.753-24.648-16.865-29.21 8.483-78.095 60.676-128-52.193-49.904-77.541-98.79-60.676-128 9.63-16.68 31.685-24.647 61.753-24.647 22.586 0 49.698 4.515 79.436 13.2 17.122-70.157 46.784-116.553 80.514-116.553 33.729 0 63.392 46.396 80.514 116.551 29.737-8.687 56.85-13.199 79.437-13.199 30.06 0 52.124 7.972 61.753 24.648 16.862 29.209-8.485 78.096-60.679 128zm-35.754 0c-9.31-7.938-19.227-15.792-29.679-23.494.265 7.738.408 15.571.408 23.494 0 7.922-.143 15.755-.406 23.494 10.452-7.702 20.369-15.556 29.677-23.494zm-62.625-108.434c-11.527 4.098-23.281 8.76-35.135 13.934 6.813 3.631 13.647 7.412 20.487 11.361 6.861 3.961 13.573 8 20.144 12.099-1.441-12.883-3.281-25.38-5.496-37.394zm-26.646 46.08c-11.891-6.864-23.938-13.315-36-19.308-12.062 5.991-24.11 12.442-36 19.308-11.988 6.922-23.596 14.113-34.749 21.506-.825 13.356-1.251 27.005-1.251 40.848s.426 27.492 1.251 40.847c11.153 7.393 22.761 14.585 34.749 21.507 11.89 6.864 23.938 13.315 36 19.307 12.062-5.991 24.109-12.442 36-19.307 11.988-6.921 23.596-14.115 34.749-21.507.825-13.355 1.251-27.004 1.251-40.847s-.426-27.492-1.251-40.848c-11.153-7.392-22.761-14.586-34.749-21.506zm-104.144-8.686c6.57-4.099 13.282-8.138 20.144-12.099 6.84-3.949 13.673-7.73 20.487-11.361-11.852-5.174-23.607-9.835-35.133-13.932-2.215 12.013-4.056 24.51-5.498 37.392zm-27.45 47.545c-10.452 7.703-20.37 15.558-29.679 23.495 9.309 7.938 19.227 15.792 29.679 23.495-.264-7.74-.406-15.572-.406-23.495s.142-15.756.406-23.495zm32.948 131.927c11.526-4.097 23.281-8.759 35.133-13.932-6.813-3.631-13.647-7.412-20.487-11.361-6.861-3.961-13.573-8.001-20.144-12.099 1.442 12.882 3.283 25.379 5.498 37.392zm110.646-25.293c-6.84 3.949-13.673 7.73-20.486 11.361 11.853 5.173 23.606 9.834 35.134 13.931 2.215-12.012 4.055-24.508 5.496-37.391-6.571 4.098-13.283 8.137-20.144 12.099zm-93.41 89.453c7.67 20.454 16.661 36.834 26.001 47.368 4.869 5.493 12.189 12.04 19.409 12.04 7.221 0 14.539-6.547 19.409-12.04 9.34-10.534 18.329-26.914 26.001-47.368 4.656-12.417 8.739-25.989 12.225-40.476-18.568-6.463-37.916-14.412-57.634-23.766-19.719 9.355-39.066 17.304-57.635 23.768 3.485 14.486 7.568 28.058 12.224 40.474zm-126.765-125.623c-13.878 16.87-23.568 32.846-28.021 46.202-2.322 6.963-4.332 16.577-.722 22.829 4.572 7.919 19.888 12.647 40.969 12.648h.002c20.746 0 46.243-4.376 74.337-12.709-3.684-19.302-6.471-40.02-8.228-61.761-17.96-12.399-34.518-25.18-49.4-38.029-10.802 10.26-20.513 20.581-28.937 30.82zm12.225-175.615c-21.081 0-36.396 4.728-40.968 12.646-3.61 6.252-1.6 15.865.722 22.829 4.453 13.354 14.143 29.331 28.021 46.2 8.424 10.24 18.135 20.562 28.937 30.822 14.881-12.851 31.439-25.631 49.399-38.029 1.757-21.741 4.544-42.458 8.228-61.762-28.095-8.331-53.592-12.706-74.339-12.706zm205.36-43.946c-7.671-20.455-16.661-36.834-26.001-47.369-4.87-5.492-12.188-12.039-19.409-12.039-7.22 0-14.54 6.547-19.409 12.039-9.34 10.535-18.331 26.914-26.001 47.368-4.656 12.417-8.739 25.989-12.225 40.476 18.569 6.465 37.916 14.412 57.634 23.768 19.72-9.355 39.065-17.305 57.635-23.769-3.486-14.486-7.568-28.058-12.224-40.474zm154.785 79.42c2.321-6.963 4.332-16.576.723-22.828-4.573-7.92-19.889-12.648-40.969-12.648-20.748 0-46.245 4.377-74.339 12.709 3.684 19.303 6.472 40.021 8.229 61.762 17.96 12.4 34.518 25.181 49.398 38.029 10.802-10.261 20.513-20.582 28.937-30.82 13.879-16.872 23.568-32.848 28.021-46.204zm-240.195 93.172a40 40 4860 1 0 80 0 40 40 4860 1 0-80 0z" transform="scale(1 -1) translate(0 -480)"/></svg>