<svg xmlns="http://www.w3.org/2000/svg" viewBox="0 0 512 512"><path d="M429.751 13.271l-2.297-13.271h-123.454l3.301 18.771c11.173 63.55 37.161 218.268 37.161 282.229 0 49.075-39.684 89-88.462 89-48.778 0-88.461-39.925-88.461-89 0-63.963 25.988-218.68 37.162-282.229l3.299-18.771h-123.454l-2.297 13.271c-13.538 78.211-36.249 219.593-36.249 287.729 0 116.346 94.206 211 210 211s210-94.654 210-211c0-68.133-22.711-209.516-36.249-287.729zm-173.751 466.729c-98.149 0-178-80.299-178-179 0-40.386 8.46-108.538 18.083-173h58.173c-9.997 65.617-18.717 134.028-18.717 173 0 66.72 54.039 121 120.461 121 66.423 0 120.462-54.28 120.462-121 0-38.971-8.721-107.382-18.718-173h58.173c9.623 64.463 18.083 132.616 18.083 173 0 98.701-79.851 179-178 179z"/></svg>