<svg xmlns="http://www.w3.org/2000/svg" viewBox="0 0 512 512"><path d="M429.751 13.271l-2.297-13.271h-123.454l3.301 18.771c11.173 63.55 37.161 218.268 37.161 282.229 0 49.075-39.684 89-88.462 89-48.778 0-88.461-39.925-88.461-89 0-63.963 25.988-218.68 37.162-282.229l3.299-18.771h-123.454l-2.297 13.271c-13.538 78.211-36.249 219.593-36.249 287.729 0 116.346 94.206 211 210 211s210-94.654 210-211c0-68.133-22.711-209.516-36.249-287.729zm-87.665 18.729h58.414c4.718 27.656 10.235 61.294 15.417 96h-58.173c-5.224-34.298-10.799-67.832-15.658-96zm-172.172 0c-4.859 28.168-10.433 61.702-15.658 96h-58.173c5.181-34.706 10.699-68.344 15.417-96h58.414zm86.086 448c-98.149 0-178-80.299-178-179 0-33.735 5.904-86.849 13.457-141h58.069c-7.865 55.027-13.988 108.347-13.988 141 0 66.72 54.039 121 120.461 121 66.423 0 120.462-54.28 120.462-121 0-32.652-6.123-85.973-13.988-141h58.069c7.554 54.152 13.458 107.266 13.458 141 0 98.701-79.851 179-178 179z"/></svg>