<svg xmlns="http://www.w3.org/2000/svg" viewBox="0 0 512 512"><path d="M429.751 13.271l-2.297-13.271h-123.454l3.301 18.771c11.173 63.55 37.161 218.268 37.161 282.229 0 49.075-39.684 89-88.462 89-48.778 0-88.461-39.925-88.461-89 0-63.963 25.988-218.68 37.162-282.229l3.299-18.771h-123.454l-2.297 13.271c-13.538 78.211-36.249 219.593-36.249 287.729 0 116.346 94.206 211 210 211s210-94.654 210-211c0-68.133-22.711-209.516-36.249-287.729zm4.249 287.729c0 2.346-.06 4.677-.148 7h-57.597c.133-2.317.207-4.65.207-7l-.007-1h57.539l.006 1zm-242.065 167c-6.042-2.353-11.927-5.023-17.631-8h163.393c-5.704 2.977-11.589 5.647-17.631 8h-128.131zm101.519 8c-12.081 2.612-24.608 4-37.454 4s-25.373-1.388-37.454-4h74.908zm-132.944-24c-3.924-2.519-7.744-5.188-11.451-8h213.883c-3.708 2.812-7.526 5.481-11.451 8h-190.981zm-21.267-16c-2.938-2.572-5.789-5.242-8.553-8h250.621c-2.765 2.758-5.616 5.428-8.554 8h-233.514zm-61.243-135l.006-1h57.539l-.007 1c0 2.35.074 4.683.207 7h-57.596c-.089-2.323-.149-4.654-.149-7zm76.256-173l-.606 4h-58.161l.594-4h58.173zm-1.809 12c-.397 2.666-.791 5.333-1.182 8h-58.109c.382-2.668.767-5.335 1.156-8h58.135zm-2.345 16c-.385 2.67-.767 5.338-1.144 8h-58.056c.368-2.664.741-5.331 1.117-8h58.083zm-2.266 16c-.371 2.676-.736 5.341-1.097 8h-57.998c.351-2.66.707-5.326 1.069-8h58.026zm-2.171 16c-.355 2.679-.705 5.348-1.047 8h-57.936c.333-2.655.67-5.321 1.015-8h57.968zm-2.062 16c-.336 2.685-.666 5.354-.986 8h-57.874c.309-2.647.629-5.318.955-8h57.905zm-1.936 16c-.313 2.693-.617 5.358-.911 8h-57.807c.283-2.642.576-5.311.878-8h57.84zm-1.781 16c-.286 2.704-.557 5.365-.818 8h-57.739c.25-2.635.512-5.301.786-8h57.771zm-1.587 16c-.25 2.716-.482 5.377-.701 8h-57.669c.208-2.623.431-5.291.668-8h57.702zm-1.331 16c-.201 2.727-.386 5.4-.546 8h-57.602c.151-2.604.324-5.278.514-8h57.634zm-.982 16c-.13 2.76-.232 5.427-.306 8h-57.551c.068-2.583.162-5.248.282-8h57.575zm.478 32c.333 2.695.76 5.362 1.267 8h-58.266c-.339-2.648-.612-5.317-.835-8h57.834zm3.089 16c.714 2.704 1.515 5.373 2.408 8h-59.693c-.587-2.646-1.12-5.312-1.589-8h58.874zm5.445 16c1.146 2.719 2.387 5.387 3.72 8h-62.11c-.85-2.641-1.64-5.308-2.369-8h60.759zm8.194 16c1.671 2.741 3.451 5.408 5.328 8h-65.903c-1.137-2.635-2.211-5.302-3.224-8h63.799zm11.638 16c2.392 2.781 4.91 5.448 7.541 8h-71.882c-1.459-2.627-2.854-5.294-4.184-8h68.525zm16.647 16c3.63 2.879 7.43 5.549 11.378 8h-82.352c-1.836-2.615-3.6-5.284-5.297-8h76.271zm26.597 16c8.256 3.61 16.989 6.32 26.077 8h-110.996c-2.307-2.602-4.543-5.267-6.697-8h91.616zm69.775 8c9.089-1.68 17.821-4.39 26.077-8h91.616c-2.154 2.733-4.391 5.398-6.697 8h-110.996zm41.297-16c3.948-2.451 7.749-5.121 11.378-8h76.271c-1.697 2.716-3.461 5.385-5.297 8h-82.352zm20.485-16c2.63-2.552 5.148-5.219 7.54-8h68.524c-1.329 2.706-2.725 5.373-4.184 8h-71.88zm13.849-16c1.876-2.592 3.656-5.259 5.327-8h63.799c-1.012 2.698-2.087 5.365-3.224 8h-65.902zm22.535-88h57.574c.121 2.752.214 5.417.282 8h-57.551c-.073-2.574-.174-5.24-.305-8zm-.436-8c-.161-2.6-.346-5.273-.546-8h57.633c.189 2.722.363 5.396.514 8h-57.601zm-1.177-16c-.22-2.623-.451-5.284-.701-8h57.701c.237 2.709.461 5.377.669 8h-57.669zm-1.469-16c-.262-2.635-.532-5.296-.818-8h57.771c.273 2.699.536 5.365.786 8h-57.739zm-1.689-16c-.294-2.642-.598-5.307-.911-8h57.839c.303 2.689.596 5.358.879 8h-57.807zm-1.86-16c-.32-2.646-.65-5.315-.986-8h57.905c.325 2.682.646 5.353.955 8h-57.874zm-2.002-16c-.342-2.652-.691-5.321-1.047-8h57.968c.346 2.679.683 5.345 1.015 8h-57.936zm-2.12-16c-.361-2.659-.727-5.324-1.098-8h58.026c.361 2.674.717 5.34 1.068 8h-57.996zm-2.219-16c-.377-2.662-.76-5.33-1.145-8h58.082c.376 2.669.749 5.336 1.117 8h-58.054zm-2.308-16c-.392-2.667-.785-5.334-1.183-8h58.135c.389 2.665.773 5.332 1.156 8h-58.108zm-2.384-16l-.606-4h58.173l.594 4h-58.161zm4.932 224c1.333-2.613 2.574-5.281 3.719-8h60.76c-.729 2.692-1.52 5.359-2.369 8h-62.11zm6.757-16c.893-2.627 1.694-5.296 2.408-8h58.873c-.469 2.688-1.002 5.354-1.589 8h-59.692zm4.23-16c.508-2.638.934-5.305 1.268-8h57.832c-.222 2.683-.495 5.352-.834 8h-58.266z"/></svg>