<svg xmlns="http://www.w3.org/2000/svg" viewBox="0 0 512 512"><path d="M72 128h-16c-4.4 0-8 3.6-8 8v240c0 4.4 3.6 8 8 8h16c4.4 0 8-3.6 8-8v-240c0-4.4-3.6-8-8-8zm-48 64h-16c-4.4 0-8 2.4-8 5.333v117.333c0 2.935 3.6 5.334 8 5.334h16c4.4 0 8-2.399 8-5.333v-117.334c0-2.933-3.6-5.333-8-5.333zm376-96h-32c-8.8 0-16 7.2-16 16v112h-192v-112c0-8.8-7.2-16-16-16h-32c-8.8 0-16 7.2-16 16v288c0 8.8 7.2 16 16 16h32c8.8 0 16-7.2 16-16v-112h192v112c0 8.8 7.2 16 16 16h32c8.8 0 16-7.2 16-16v-288c0-8.8-7.2-16-16-16zm56 32h-16c-4.4 0-8 3.6-8 8v240c0 4.4 3.6 8 8 8h16c4.4 0 8-3.6 8-8v-240c0-4.4-3.6-8-8-8zm48 64h-16c-4.4 0-8 2.4-8 5.333v117.333c0 2.934 3.6 5.333 8 5.333h16c4.4 0 8-2.399 8-5.333v-117.333c0-2.933-3.6-5.333-8-5.333z"/></svg>