<svg xmlns="http://www.w3.org/2000/svg" viewBox="0 0 512 512"><path d="M256 0c-141.385 0-256 107.452-256 240 0 2.541.047 5.07.131 7.594 107.84 26.078 124.274 19.062 127.869 127.489 20.494 4.957 105.853 12.714 128 12.714 22.146 0 107.505-7.757 128-12.714 3.595-108.427 20.027-101.411 127.866-127.489.084-2.521.134-5.053.134-7.594 0-132.548-114.615-240-256-240zm-48 181.333c0 23.467-19.2 42.667-42.668 42.667h-26.666c-23.467 0-42.666-19.2-42.666-42.667v-10.666c0-23.467 19.199-42.667 42.666-42.667h26.666c23.468 0 42.668 19.2 42.668 42.667v10.666zm68 146.667h-40c-11 0-17.817-8.73-15.149-19.402l10.299-41.193c2.667-10.675 13.85-19.405 24.85-19.405s22.183 8.73 24.85 19.402l10.3 41.193c2.668 10.675-4.15 19.405-15.15 19.405zm140-146.667c0 23.467-19.2 42.667-42.669 42.667h-26.665c-23.468 0-42.666-19.2-42.666-42.667v-10.666c0-23.467 19.198-42.667 42.665-42.667h26.666c23.469 0 42.669 19.2 42.669 42.667v10.666zm-192 245.687v52.98h64v-52.98c-13.891 1.045-25.595 1.694-32 1.694-6.408 0-18.111-.651-32-1.694zm96 52.98l64-12.947v-51.053c-10.327 2.497-37.122 5.705-64 8.274v55.726zm-192-12.947l64 12.947v-55.726c-26.879-2.569-53.674-5.777-64-8.274v51.053z"/></svg>