<svg xmlns="http://www.w3.org/2000/svg" viewBox="0 0 512 512"><path d="M256 0c-123.712 0-224 93.125-224 208 0 70.68 37.974 143.113 96 180.701v99.747c37.655 14.977 81.37 23.552 128 23.552 46.631 0 90.345-8.575 128-23.552v-99.747c58.026-37.588 96-110.021 96-180.701 0-114.875-100.288-208-224-208zm110.603 361.844l-14.603 9.459v94.535c-10.353 3.219-21.056 5.894-32 8.031v-89.869h-32v94.488c-10.559.998-21.25 1.512-32 1.512s-21.441-.514-32-1.512v-94.488h-32v89.869c-10.944-2.138-21.647-4.812-32-8.031v-94.535l-14.603-9.459c-23.808-15.422-44.167-38.263-58.875-66.053-14.733-27.841-22.522-58.198-22.522-87.791 0-46.56 19.668-90.466 55.383-123.629 17.626-16.367 38.191-29.233 61.125-38.24 23.873-9.377 49.272-14.131 75.492-14.131s51.619 4.754 75.493 14.131c22.933 9.007 43.498 21.873 61.124 38.24 35.714 33.163 55.383 77.069 55.383 123.629 0 29.593-7.788 59.95-22.523 87.791-14.708 27.79-35.067 50.631-58.874 66.053zm-226.739-224.435c-31.363 16.3-35.877 44.583-23.652 68.105s41.561 35.377 72.924 19.076c31.363-16.3 43.364-43.271 31.652-74.105-9.413-24.782-49.561-29.377-80.924-13.076zm233.243 0c-31.363-16.301-71.512-11.706-80.925 13.076-11.712 30.834.289 57.805 31.651 74.105 31.363 16.301 60.699 4.446 72.925-19.076s7.712-51.805-23.651-68.105z"/></svg>