<svg xmlns="http://www.w3.org/2000/svg" viewBox="0 0 512 512"><path d="M256.003 0c-85.374 0-154.661 68.339-154.661 152.54 0 42.102 25.089 86.239 53.788 133.976 28.7 47.737 6.022 100.49 103.695 99.073 93.617-1.376 69.35-44.274 96.629-92.011 27.289-47.736 55.205-98.938 55.205-141.039.001-84.201-69.288-152.539-154.656-152.539zm-64.927 399.223v40.615c19.95 6.488 41.896 10.088 64.927 10.088 23.029 0 44.97-3.6 64.921-10.086v-37.525c-11.158 10.273-29.447 13.1-62.1 13.645-36.219.597-55.871-3.808-67.748-16.737zm.677 65.833c2.507 13.705 13.3 46.944 64.25 46.944 50.949 0 61.742-33.239 64.25-46.944-28.826 8.815-41.977 9.291-64.25 9.291-22.275 0-35.426-.476-64.25-9.291z"/></svg>