<svg xmlns="http://www.w3.org/2000/svg" viewBox="0 0 512 512"><path d="M191.076 399.223c11.877 12.929 31.529 17.334 67.748 16.738 32.653-.545 50.942-3.373 62.1-13.645v37.524c-19.951 6.486-41.892 10.086-64.921 10.086-23.031 0-44.977-3.6-64.927-10.088v-40.615zm.677 65.833c28.824 8.815 41.975 9.291 64.25 9.291 22.272 0 35.424-.476 64.25-9.291-2.508 13.705-13.301 46.944-64.25 46.944-50.95 0-61.743-33.239-64.25-46.944zm64.25-427.056c-64.327 0-116.661 51.382-116.661 114.54 0 31.407 21.899 70.389 48.356 114.396 10.558 17.561 15.621 34.915 19.689 48.859 3.154 10.813 6.133 21.026 10.007 24.645 1.801 1.684 9.84 7.177 37.633 7.177 1.065 0 2.145-.007 3.246-.024 30.817-.453 38.157-6.045 38.892-6.681 2.364-2.045 4.922-11.265 7.18-19.4 3.625-13.064 8.137-29.324 18.116-46.788 19.991-34.971 50.198-87.81 50.198-122.185 0-30.474-12.074-59.166-33.999-80.79-22.065-21.764-51.42-33.749-82.657-33.749zm0-38c85.368 0 154.657 68.338 154.656 152.54 0 42.101-27.916 93.303-55.205 141.039-27.279 47.737-3.012 90.635-96.629 92.011-1.288.018-2.552.028-3.798.028-93.283 0-71.575-51.994-99.897-99.102-28.699-47.737-53.788-91.874-53.788-133.976 0-84.201 69.287-152.54 154.661-152.54z"/></svg>