<svg xmlns="http://www.w3.org/2000/svg" viewBox="0 0 512 512"><path d="M400 64h-288c-26.51 0-48 21.49-48 48v16h384v-16c0-26.51-21.49-48-48-48zm-83.84-32l7.058 50.5h-134.436l7.057-50.5h120.321m3.84-32h-128c-13.2 0-25.495 10.696-27.321 23.769l-9.357 66.962c-1.827 13.073 7.478 23.769 20.678 23.769h160c13.2 0 22.505-10.696 20.679-23.769l-9.357-66.962c-1.827-13.073-14.122-23.769-27.322-23.769zm88 160h-304c-17.6 0-30.696 14.341-29.103 31.869l26.206 288.263c1.593 17.527 17.297 31.868 34.897 31.868h240c17.6 0 33.304-14.341 34.897-31.868l26.205-288.263c1.594-17.528-11.502-31.869-29.102-31.869zm-216 288h-48l-16-224h64v224zm96 0h-64v-224h64v224zm80 0h-48v-224h64l-16 224z"/></svg>