<svg xmlns="http://www.w3.org/2000/svg" viewBox="0 0 512 512"><path d="M224.001 384.001h31.999v31.999h-31.999zm63.999 0v-32h-32v31.999h31.999v32h32v-31.999zm-127.999 0h32v31.999h-32zm95.999 31.999h31.999v32h-31.999zm-63.999.001h32v31.998h-32zm-64-128.002h31.999v32h-31.999zm64 64.002h31.999v32h-31.999zm287.999-240.001c0-44.183-107.451-80-240-80s-240 35.817-240 80l.024.646-.016-.021c-.008 18.817 7.539 45.551 20.587 97.742l.004.013 57.941 231.77c9.605 38.417 49.863 69.85 89.463 69.85h143.994c39.601 0 79.858-31.433 89.463-69.851l57.941-231.77.004-.013c13.048-52.191 20.595-78.924 20.586-97.741l-.016.021.025-.646zm-383.999 207.999v-32h31.999v-31.999h-32v-32h-32v-32h32v32h32v-32h32v32h32v31.999h32v32h32v32h-32v-32h-32v32h-31.999v32h-32v-32h-32zm191.999-64.001v-31.999h31.996v-32h32v32h-31.996v32l-32-.001v32h-32v-32h-32v-32h32v32h32zm63.999 160.002h-32v32h-31.999v32h-32v-32h-32v31.999h-32v-31.999h-32v-32h-32v-32h32v-31.999h32v-32h32v32h32v-32h32v32h32v31.999h31.999v32zm32.001-95.999h-32v31.999h-32v-32h-32v-32h32v-31.999h31.996v-32h32v32h-31.996v32h32v32zm32-96.002h-32v-32h32v32zm18.762-101.428c-3.738 2.324-8.031 4.609-12.787 6.831-9.065 4.234-19.843 8.23-31.885 11.789-41.038 12.129-94.341 18.809-150.09 18.809s-109.052-6.68-150.09-18.809c-12.042-3.559-22.819-7.555-31.885-11.789-4.756-2.221-9.049-4.506-12.787-6.831-7.975-4.958-11.354-8.742-12.665-10.571 1.312-1.829 4.69-5.613 12.665-10.571 10.865-6.755 26.313-13.194 44.672-18.62 41.038-12.129 94.341-18.809 150.09-18.809s109.052 6.68 150.09 18.809c18.359 5.426 33.807 11.865 44.672 18.62 7.975 4.958 11.354 8.742 12.665 10.571-1.312 1.829-4.69 5.613-12.665 10.571zm-274.762 133.428v32h32v-31.999h-32v-32h-32v31.999zm160 32.002h32v31.999h-32z"/></svg>