<svg xmlns="http://www.w3.org/2000/svg" viewBox="0 0 512 512"><path d="M256 224c-106.039 0-192-42.98-192-96v32c0 19.625 11.787 37.871 32 53.074v234.926c0 35.347 71.634 64 160 64 88.365 0 160-28.653 160-64v-234.926c20.213-15.204 32-33.449 32-53.074v-32c0 53.02-85.961 96-192 96zm-64 250.118c-10.372-2.025-20.122-4.538-28.967-7.528-23.747-8.027-33.068-16.675-35.033-19.794v-215.249c18.467 8.265 40.151 14.767 64 18.982v223.589zm96 4.479c-10.404.924-21.134 1.403-32 1.403-10.867 0-21.596-.479-32-1.403v-223.932c10.408.874 21.096 1.335 32 1.335s21.592-.461 32-1.335v223.932zm96-31.801c-1.965 3.118-11.286 11.767-35.033 19.794-8.846 2.99-18.596 5.503-28.967 7.528v-223.588c23.849-4.215 45.533-10.717 64-18.982v215.248zm-128-254.796c106.039 0 192-42.98 192-96s-85.961-96-192-96c-106.038 0-192 42.98-192 96s85.962 96 192 96zm-121.453-135.261c31.444-15.722 75.712-24.739 121.453-24.739s90.01 9.017 121.454 24.739c23.777 11.888 38.546 26.932 38.546 39.261s-14.77 27.373-38.546 39.261c-31.444 15.722-75.713 24.739-121.454 24.739s-90.009-9.017-121.454-24.739c-23.776-11.888-38.546-26.932-38.546-39.261s14.77-27.373 38.547-39.261zm89.453 39.261h64v32h32v-64h-128v64h32z"/></svg>