<svg xmlns="http://www.w3.org/2000/svg" viewBox="0 0 512 512"><path d="M422.198 160l-37.754-113.262c-2.89-8.677-11.298-14.738-20.444-14.738h-216c-9.145 0-17.552 6.06-20.444 14.735l-37.755 113.265h-89.801v224h64v80c0 8.8 7.199 16 16 16h64c8.8 0 16-7.2 16-16v-80h192v80c0 8.8 7.198 16 16 16h64c8.8 0 16-7.2 16-16v-80h64v-224h-89.802zm-310.198 160c-26.51 0-48-21.49-48-48s21.49-48 48-48 48 21.49 48 48-21.49 48-48 48zm19.532-160l32-96h184.936l32 96h-248.936zm268.468 160c-26.51 0-48-21.49-48-48s21.49-48 48-48 48 21.49 48 48-21.49 48-48 48z"/></svg>