<svg xmlns="http://www.w3.org/2000/svg" viewBox="0 0 512 512"><path d="M490.5 128c-44.5-37-138.5-56.5-138.5-56.5v24.5c47.5 13.5 64 45.719 64 45.719v50.281c0 17.594 14.406 32 32 32h16v144h-48v-88c0-22.062-17.938-40-40-40h-56v-160c0-26.406-21.594-48-48-48h-192c-26.406 0-48 21.594-48 48v368h-32v64h352v-64h-32v-160h48v88c0 22.062 17.938 40 40 40h64c22.062 0 40-17.938 40-40v-200c0-29.5-21.5-48-21.5-48zm-202.5 48c0 8.797-7.188 16-16 16h-192c-8.797 0-16-7.203-16-16v-96c0-8.797 7.203-16 16-16h192c8.812 0 16 7.203 16 16v96zm192 8c0 4.4-3.6 8-8 8h-16c-4.4 0-8-3.6-8-8v-16c0-4.4 3.6-8 8-8h16c4.4 0 8 3.6 8 8v16z"/></svg>