<svg xmlns="http://www.w3.org/2000/svg" viewBox="0 0 512 512"><path d="M448 32c-15.721-32-128-32-192-32s-176.28 0-192 32l-32 224v192h64v32c0 17.673 14.327 32 32 32s32-14.327 32-32v-32h192v32c0 17.673 14.327 32 32 32 17.674 0 32-14.327 32-32v-32h64v-192s-16.279-192-32-224zm-288 0h192v32h-192v-32zm-32 320c-17.673 0-32-14.327-32-32s14.327-32 32-32 32 14.327 32 32-14.327 32-32 32zm-25.501-127.999c.8-7.513 1.656-15.314 2.559-23.231 6.083-53.329 10.847-81.788 13.844-96.464 8.586-2.002 23.196-4.479 46.867-6.145 30.726-2.161 63.721-2.161 90.231-2.161s59.505 0 90.231 2.161c23.671 1.665 38.28 4.142 46.866 6.145 2.996 14.676 7.762 43.136 13.845 96.465.902 7.917 1.759 15.718 2.559 23.23h-307.002zm281.501 127.999c-17.673 0-32-14.327-32-32s14.327-32 32-32 32 14.327 32 32-14.327 32-32 32z"/></svg>