<svg xmlns="http://www.w3.org/2000/svg" viewBox="0 0 512 512"><path d="M416 224c-11.158 0-21.869 1.91-31.831 5.411l-26.398-61.213 24.512-44.698h19.967c7.456 0 13.5-6.044 13.5-13.5s-6.044-13.5-13.5-13.5h-68.785c-7.456 0-13.5 6.044-13.5 13.5s6.044 13.5 13.5 13.5h21.447l-20.017 36.5h-187.41l7.903-36.5h54.11c7.456 0 13.5-6.044 13.5-13.5s-6.044-13.5-13.5-13.5h-75.89l-27.714 128.004c-3.253-.333-6.553-.504-9.894-.504-53.02 0-96 42.98-96 96s42.98 96 96 96 96-42.98 96-96c0-40.247-24.77-74.702-59.893-88.971l8.224-37.986 106.824 144.496c2.074 2.806 5.356 4.461 8.845 4.461h66.536c9.946 42.416 48.015 74 93.464 74 53.02 0 96-42.98 96-96s-42.98-96-96-96zm-251 96c0 38.047-30.953 69-69 69s-69-30.953-69-69 30.953-69 69-69c1.387 0 2.761.053 4.128.134l-17.323 80.009c-1.578 7.287 3.051 14.473 10.338 16.051.963.208 1.923.309 2.87.309 6.217 0 11.812-4.322 13.181-10.646l17.071-78.849c22.916 11.234 38.735 34.797 38.735 61.992zm157.83-138l-69.546 126.821-93.758-126.821h163.304zm-48.306 138l69.835-127.346 20.01 46.4c-26.68 17.053-44.369 46.933-44.369 80.946h-45.476zm100.752-55.654l24.001 55.654h-52.277c0-22.825 11.147-43.087 28.276-55.654zm40.724 124.654c-30.355 0-56.176-19.712-65.383-47h65.383c3.702 0 7.155-1.862 9.19-4.955 2.034-3.093 2.376-7.002.91-10.4l-31.194-72.334c6.654-2.143 13.739-3.311 21.094-3.311 38.047 0 69 30.953 69 69s-30.953 69-69 69z"/></svg>