<svg xmlns="http://www.w3.org/2000/svg" viewBox="0 0 512 512"><path d="M416 272v-42c0-21-16-38-36-38h-28v-96l32-64h-128l32 64v96h-160v-64h-128v288h32c0 35.347 28.653 64 64 64s64-28.653 64-64c0 35.347 28.653 64 64 64s64-28.653 64-64c0 35.347 28.653 64 64 64s64-28.653 64-64h96l-96-144zm-320 176c-17.673 0-32-14.326-32-32s14.327-32 32-32 32 14.326 32 32-14.327 32-32 32zm128 0c-17.673 0-32-14.326-32-32s14.327-32 32-32 32 14.326 32 32-14.327 32-32 32zm128 0c-17.674 0-32-14.326-32-32s14.326-32 32-32 32 14.326 32 32-14.326 32-32 32z"/></svg>