<svg xmlns="http://www.w3.org/2000/svg" viewBox="0 0 512 512"><path d="M450.017 432h-4.034c-7.104 27.604-32.162 48-61.983 48s-54.879-20.396-61.983-48h-4.034c-7.104 27.604-32.162 48-61.983 48s-54.879-20.396-61.983-48h-4.034c-7.104 27.604-32.162 48-61.983 48s-54.879-20.396-61.983-48h-4.034c-7.104 27.604-32.162 48-61.983 48v32c35.346 0 64-18.653 64-54 0 35.347 28.654 54 64 54s64-18.653 64-54c0 35.347 28.654 54 64 54 35.346 0 64-18.653 64-54 0 35.347 28.654 54 64 54s64-18.653 64-54c0 35.347 28.654 54 64 54v-32c-29.821 0-54.879-20.396-61.983-48zm0-64h-4.034c-7.104 27.604-32.162 48-61.983 48-24.019 0-44.939-13.236-55.886-32.808 63.679-12.184 151.886-159.192 151.886-159.192l-63.928-27.397c-.066-.544-.143-1.082-.229-1.613l-26.686-163.408c-2.836-17.37-19.557-31.582-37.157-31.582h-192c-17.6 0-34.321 14.212-37.157 31.582l-26.686 163.407c-.087.531-.163 1.069-.229 1.613l-63.928 27.398s88.207 147.008 151.886 159.192c-10.947 19.572-31.867 32.808-55.886 32.808-29.821 0-54.879-20.396-61.983-48h-4.034c-7.104 27.604-32.162 48-61.983 48v32c35.346 0 64-18.653 64-54 0 35.347 28.654 54 64 54s64-18.653 64-54c0 35.347 28.654 54 64 54 35.346 0 64-18.653 64-54 0 35.347 28.654 54 64 54s64-18.653 64-54c0 35.347 28.654 54 64 54v-32c-29.821 0-54.879-20.396-61.983-48zm-162.017-336h64c1.93 0 5.265 2.834 5.575 4.739l23.669 144.937-107.891-46.238 14.647-103.438zm-133.576 4.739c.311-1.905 3.646-4.739 5.576-4.739h64l14.646 103.438-107.891 46.239 23.669-144.938zm101.576 379.261c-23.686 0-44.356-12.874-55.423-32h110.846c-11.068 19.126-31.737 32-55.423 32z"/></svg>