<svg xmlns="http://www.w3.org/2000/svg" viewBox="0 0 512 512"><path d="M244.016 0h-8.031l-209.267 112.107-26.718 14.313v228.121l235.137 157.459h9.727l235.136-157.459v-228.121l-235.984-126.42zm186.101 136l-76.519 40.992-85.01-45.542 76.518-40.992 85.011 45.542zm-190.117-101.849l76.519 40.992-76.519 40.993-76.519-40.992 76.519-40.993zm-105.107 56.307l76.519 40.993-85.011 45.541-76.519-40.992 85.011-45.542zm-36.351 291.559l-66.542-44.56v-77.563l66.542 41.589v80.534zm0-112.374l-66.542-41.589v-65.331l66.542 35.647v71.273zm125.458 196.386l-98.458-65.933v-81.739l98.458 61.538v86.134zm0-117.975l-98.458-61.536v-73.684l98.458 52.746v82.474zm16-110.205l-85.01-45.541 85.01-45.542 85.011 45.541-85.011 45.542zm114.459 162.248l-98.459 65.932v-86.135l98.459-61.537v81.74zm0-113.579l-98.459 61.537v-82.475l98.459-52.746v73.684zm93.541 50.939l-66.541 44.559v-80.533l66.541-41.589v77.563zm0-109.403l-66.541 41.588v-71.272l66.541-35.647v65.331z"/></svg>