<svg xmlns="http://www.w3.org/2000/svg" viewBox="0 0 512 512"><path d="M244.016 0h-8.031l-209.267 112.107-26.718 14.313v228.121l235.137 157.459h9.727l235.136-157.459v-228.121l-235.984-126.42zm-40.966 452l-11.947-8h32.897v8h-20.95zm20.95 8v6.029l-9.004-6.029h9.004zm-44.843-24l-11.947-8h56.79v8h-44.843zm-23.894-16l-11.946-8h80.683v8h-68.737zm-23.893-16l-11.946-8h104.576v8h-92.63zm-23.893-16l-11.947-8h128.47v8h-116.523zm-23.893-16l-11.947-8h152.363v8h-140.416zm-23.894-16l-11.946-8h176.256v8h-164.31zm-23.893-16l-3.797-2.543v-5.457h192v8h-188.203zm-3.797-16v-8h192v8h-192zm0-16v-8h192v8h-192zm0-16v-8h192v8h-192zm0-16v-8h192v8h-192zm0-16v-8h166.65l14.934 8h-181.584zm0-16v-8h136.784l14.934 8h-151.718zm0-16v-8h106.917l14.934 8h-121.851zm0-16v-8h77.05l14.933 8h-91.983zm0-16v-8h47.184l14.934 8h-62.118zm0-16v-8h17.317l14.933 8h-32.25zm0-16v-1.277l2.383 1.277h-2.383zm208 73.849l-190.118-101.849 190.118-101.849 190.117 101.849-190.117 101.849z"/></svg>