<svg xmlns="http://www.w3.org/2000/svg" viewBox="0 0 512 512"><path d="M240.001 32.027l-231.649 340.984 231.649 138.989 231.649-138.989-231.649-340.984zm-186.155 330.962l170.154-250.465v352.558l-170.154-102.093zm202.155 97.011h8.47l-8.47 5.082v-5.082zm0-8v-8h35.137l-13.333 8h-21.804zm0-16v-8h61.804l-13.334 8h-48.47zm0-16v-8h88.471l-13.334 8h-75.137zm0-16v-8h115.137l-13.333 8h-101.804zm0-16v-8h141.804l-13.333 8h-128.471zm0-16v-8h168.471l-13.333 8h-155.138zm7.797-248l5.435 8h-13.231v-8h7.796zm10.869 16l5.435 8h-24.1v-8h18.665zm10.87 16l5.435 8h-34.97v-8h29.535zm10.869 16l5.436 8h-45.84v-8h40.404zm10.87 16l5.435 8h-56.709v-8h51.274zm10.87 16l5.436 8h-67.58v-8h62.144zm10.87 16l5.435 8h-78.449v-8h73.014zm10.87 16l5.435 8h-89.319v-8h83.884zm10.869 16l5.435 8h-100.189v-8h94.754zm10.87 16l5.435 8h-111.059v-8h105.624zm10.869 16l5.436 8h-121.929v-8h116.493zm10.87 16l5.435 8h-132.798v-8h127.363zm10.869 16l5.436 8h-143.668v-8h138.232zm10.871 16l5.435 8h-154.538v-8h149.103zm10.87 16l5.435 8h-165.408v-8h159.973z"/></svg>