<svg xmlns="http://www.w3.org/2000/svg" viewBox="0 0 512 512"><path d="M448.18 80l-.184.114.004-.114c0-44.183-85.961-80-192-80s-192 35.817-192 80l.003.115-.183-.115v348l.456-.285c-.18 1.419-.276 2.847-.276 4.285 0 44.183 85.961 80 192 80s192-35.817 192-80c0-1.438-.096-2.865-.275-4.284l.455.284v-348zm-32.18 352c0 .658-.446 2.035-1.806 4h-316.387c-1.36-1.965-1.807-3.342-1.807-4s.446-2.035 1.807-4h316.388c1.359 1.965 1.805 3.342 1.805 4zm-256.942 36c-8.613-2.354-16.697-5.029-24.126-8h242.136c-7.429 2.971-15.514 5.646-24.126 8h-193.884zm154.535 8c-18.341 2.613-37.831 4-57.593 4s-39.252-1.387-57.593-4h115.186zm-195.717-24c-5.219-2.896-9.191-5.618-12.176-8h300.6c-2.985 2.382-6.957 5.104-12.177 8h-276.247zm-22.056-327.886c4.375 2.752 9.145 5.386 14.282 7.886h-14.282v-7.886zm0 15.886h33.201c8.035 2.955 16.667 5.633 25.813 8h-59.014v-8zm0 224h59.014c-9.146 2.367-17.778 5.045-25.813 8h-33.201v-8zm102.587 24c18.341-2.613 37.831-4 57.593-4s39.252 1.387 57.593 4h-115.186zm154.535 8c8.612 2.354 16.697 5.029 24.126 8h-242.136c7.429-2.971 15.513-5.646 24.126-8h193.884zm-257.122-8.114v-7.886h14.282c-5.137 2.5-9.907 5.133-14.282 7.886zm9.881 32.114c2.985-2.382 6.957-5.104 12.176-8h276.247c5.22 2.896 9.191 5.618 12.177 8h-300.6zm310.479-32.114c-4.375-2.753-9.145-5.386-14.281-7.886h14.281v7.886zm0-15.886h-33.2c-8.036-2.955-16.668-5.633-25.813-8h59.013v8zm0-16h-100.103c-18.901-2.593-39.094-4-60.077-4-20.984 0-41.176 1.407-60.077 4h-100.103v-8h320.36v8zm0-16h-320.36v-8h320.36v8zm0-16h-320.36v-8h320.36v8zm0-16h-320.36v-8h320.36v8zm0-16h-320.36v-8h320.36v8zm0-16h-320.36v-8h320.36v8zm0-16h-320.36v-8h320.36v8zm0-16h-320.36v-8h320.36v8zm0-16h-320.36v-8h320.36v8zm0-16h-320.36v-8h320.36v8zm0-16h-320.36v-8h320.36v8zm0-16h-320.36v-8h320.36v8zm0-16h-320.36v-8h100.104c18.901 2.592 39.093 4 60.077 4 20.983 0 41.176-1.408 60.077-4h100.102v8zm0-16h-59.013c9.146-2.367 17.777-5.045 25.813-8h33.199v8zm0-23.885v7.885h-14.281c5.136-2.5 9.906-5.133 14.281-7.885zm-314.635-52.458c4.631-4.563 13.769-11.509 30.998-18.687 31.984-13.327 76.982-20.97 123.457-20.97s91.473 7.643 123.457 20.97c17.229 7.178 26.366 14.124 30.998 18.687 4.377 4.312 5.545 7.273 5.545 8.343s-1.168 4.031-5.545 8.343c-4.632 4.562-13.77 11.508-30.998 18.687-31.984 13.327-76.982 20.97-123.457 20.97s-91.473-7.643-123.457-20.97c-17.229-7.178-26.367-14.124-30.998-18.687-4.377-4.312-5.545-7.273-5.545-8.343s1.168-4.031 5.545-8.343z"/></svg>