<svg xmlns="http://www.w3.org/2000/svg" viewBox="0 0 512 512"><path d="M352 0l-320 64v352l96 96 320-64v-352l-96-96zm-7.889 26.053l75.604 75.604-263.432 52.687-75.603-75.605 263.431-52.686zm-184.111 152.022l4-.8v303.049l-4 .801v-303.05zm12-2.4l8-1.6v303.05l-8 1.6v-303.05zm16-3.2l8-1.6v303.049l-8 1.6v-303.049zm16-3.2l8-1.6v303.049l-8 1.6v-303.049zm16-3.2l8-1.6v303.049l-8 1.601v-303.05zm16-3.2l8-1.6v303.05l-8 1.6v-303.05zm16-3.2l8-1.6v303.05l-8 1.6v-303.05zm16-3.199l8-1.6v303.049l-8 1.6v-303.049zm16-3.201l8-1.6v303.049l-8 1.601v-303.05zm16-3.2l8-1.6v303.05l-8 1.6v-303.05zm16-3.2l8-1.6v303.05l-8 1.6v-303.05zm16-3.2l8-1.6v303.05l-8 1.6v-303.05zm16-3.199l8-1.6v303.049l-8 1.601v-303.05zm16-3.201l8-1.6v303.049l-8 1.601v-303.05zm16-3.2l8-1.6v303.05l-8 1.6v-303.05zm16-3.2l8-1.6v303.05l-8 1.6v-303.05zm16-3.2l4-.8v303.049l-4 .801v-303.05z"/></svg>