<svg xmlns="http://www.w3.org/2000/svg" viewBox="0 0 512 512"><path d="M479.165 128.125h-84.225c-21.715-.033-43.348-1.503-22.252-38.729 21.138-37.3 36.059-89.521-48.802-89.521-84.857 0-69.935 52.221-48.797 89.521 21.096 37.226-.538 38.694-22.255 38.729h-91.938c-18.06 0-32.835 14.778-32.835 32.834v102.189c0 21.756 5.904 43.513-31.393 22.378-37.296-21.137-96.668-36.057-96.668 48.802 0 84.854 59.37 69.935 96.67 48.798 37.297-21.137 31.393.62 31.393 22.38v73.783c0 18.062 14.777 32.835 32.835 32.835h91.811c21.76 0 43.517-8.706 22.382-46.004-21.137-37.295-36.061-89.519 48.797-89.519s69.938 52.221 48.8 89.519c-21.135 37.299.623 46.005 22.381 46.005h84.096c18.062 0 32.837-14.777 32.837-32.835v-318.332c0-18.057-14.775-32.833-32.837-32.833z"/></svg>