<svg xmlns="http://www.w3.org/2000/svg" viewBox="0 0 512 512"><path d="M465.36 512h-78.47c-24.708 0-35.678-9.903-40.529-18.211-7.357-12.601-5.437-29.006 5.71-48.76 12.133-21.498 16.191-38.792 11.136-47.45-4.733-8.106-19.91-12.57-42.736-12.57-22.825 0-38.001 4.464-42.734 12.57-5.056 8.657-.996 25.952 11.136 47.448 11.147 19.755 13.069 36.16 5.711 48.761-4.851 8.308-15.82 18.211-40.529 18.211h-79.27c-25.717 0-46.639-20.979-46.639-46.768v-69.138c0-2.794.089-5.459.175-8.037l.065-2.03c-1.582.78-3.443 1.763-5.62 3.002-14.011 7.973-43.795 17.477-64.926 17.477-17.396 0-31.892-6.58-41.922-19.028-10.711-13.294-15.918-32.292-15.918-58.081 0-25.791 5.207-44.791 15.917-58.085 10.029-12.448 24.526-19.028 41.923-19.028 21.131 0 50.915 9.504 64.923 17.478 2.176 1.238 4.038 2.221 5.619 3l-.065-2.034c-.086-2.575-.175-5.238-.175-8.029l-.4-87.683c0-25.86 20.922-46.84 46.639-46.84h79.388c2.34-.004 8.342-.014 12.246-.588-.673-2.288-2.156-6.067-5.414-11.84-18.659-33.062-22.326-67.747-10.901-87.313 11.017-18.868 34.692-28.434 70.367-28.434 35.679 0 59.355 9.567 70.373 28.436 11.425 19.566 7.757 54.251-10.901 87.313-3.258 5.773-4.741 9.552-5.415 11.84 3.905.574 9.91.583 12.27.587h78.566c25.717 0 46.64 20.979 46.64 46.766l.4 290.268c0 25.811-20.923 46.79-46.64 46.79zm-91.334-34.374c.932.731 4.714 2.374 12.863 2.374h78.471c8.072 0 14.64-6.625 14.64-14.768l-.4-290.269c0-8.164-6.567-14.788-14.64-14.788h-78.591c-12.822-.02-32.162-.05-41.104-15.392-8.587-14.731-.457-32.602 6.405-44.762 12.133-21.498 16.191-46.793 11.136-55.45-4.734-8.107-19.911-12.571-42.739-12.571-22.824 0-38.001 4.464-42.734 12.57-5.055 8.657-.996 33.953 11.137 55.452 6.861 12.16 14.991 30.029 6.406 44.76-8.942 15.341-28.283 15.373-41.081 15.394h-79.415c-8.072 0-14.639 6.625-14.639 14.767l.4 87.683c0 2.33.08 4.721.157 7.034.375 11.206.762 22.795-7.325 31.159-3.052 3.155-8.478 6.918-16.999 6.919h-.005c-7.727 0-16.681-3.135-29.034-10.164-14.839-8.446-38.229-13.289-49.096-13.289-7.067 0-25.84 0-25.84 45.112 0 45.108 18.772 45.108 25.839 45.108 10.866 0 34.258-4.844 49.098-13.289 12.353-7.029 21.308-10.165 29.037-10.165 8.523 0 13.951 3.763 17.003 6.919 8.088 8.362 7.7 19.951 7.325 31.157-.078 2.315-.158 4.708-.158 6.967v69.138c0 8.143 6.567 14.768 14.639 14.768h79.27c8.148 0 11.932-1.643 12.863-2.373.138-.887.433-5.625-5.914-16.871-18.658-33.061-22.326-59.745-10.901-79.312 11.017-18.868 34.693-28.435 70.369-28.435 35.678 0 59.354 9.567 70.371 28.436 11.425 19.565 7.757 46.25-10.901 79.312-6.346 11.246-6.05 15.984-5.913 16.869z"/></svg>