<svg xmlns="http://www.w3.org/2000/svg" viewBox="0 0 512 512"><path d="M502.156 232.133l-54.194-54.194c-41.73-41.762 11.691-38.424 42.707-66.245l.463-.422c.719-.657 1.43-1.325 2.123-2.018 24.993-24.994 24.993-65.515 0-90.51-24.994-24.993-65.516-24.993-90.51 0-.693.693-1.361 1.404-2.019 2.123l-.422.462c-27.826 31.022-24.48 84.461-66.271 42.682l-54.166-54.166c-13.126-13.127-34.605-13.127-47.733 0l-54.141 54.141-.015.014c-41.805 41.804-38.454-11.644-66.283-42.669l-.422-.463c-.658-.719-1.326-1.43-2.019-2.123-24.993-24.993-65.515-24.993-90.51 0-24.993 24.994-24.993 65.516 0 90.51.692.693 1.403 1.361 2.123 2.019l.462.422c31.026 27.829 84.473 24.479 42.67 66.283l-.014.015-54.14 54.14c-13.127 13.127-13.127 34.607 0 47.734l54.151 54.151.002.003c41.804 41.805-11.644 38.454-42.669 66.283l-.463.422c-.719.658-1.43 1.326-2.123 2.019-24.993 24.993-24.993 65.515 0 90.51 24.994 24.993 65.516 24.993 90.51 0 .693-.692 1.361-1.403 2.019-2.123l.422-.462c27.826-31.023 24.48-84.461 66.27-42.683l54.169 54.169c13.127 13.125 34.607 13.125 47.733 0l62.917-62.917c25.066-32.225-22.422-31.452-50.955-57.045l-.462-.422c-.72-.657-1.431-1.325-2.123-2.019-24.993-24.994-24.993-65.516 0-90.51 24.995-24.993 65.517-24.993 90.51 0 .692.693 1.36 1.404 2.019 2.123l.422.463c25.593 28.532 24.819 76.021 57.045 50.954l62.917-62.917c13.126-13.127 13.126-34.607 0-47.734z"/></svg>