<svg xmlns="http://www.w3.org/2000/svg" viewBox="0 0 512 512"><path d="M255.993 512c13.446 0 26.064-5.213 35.527-14.676l59.083-59.084.727-.934c3.34-4.295 13.506-17.364 9.724-33.171-3.93-16.425-19.072-23.556-33.718-30.452-9.059-4.267-18.426-8.678-25.447-14.96l-.342-.312c-.446-.406-.887-.817-1.345-1.276-15.692-15.693-15.692-41.229 0-56.922 7.603-7.602 17.711-11.789 28.461-11.789s20.858 4.187 28.438 11.768c.448.449.88.911 1.372 1.449l.2.218c6.302 7.026 10.722 16.412 14.996 25.489 7.246 15.386 16.262 34.534 37.44 34.538h.006c8.491 0 17.053-3.449 26.175-10.545l.933-.726 59.086-59.085c19.587-19.591 19.587-51.468-.002-71.06l-50.166-50.167c-3.196-3.198-5.249-5.624-6.559-7.374 3.042-1.702 7.258-3.687 10.663-5.291 10.473-4.93 23.505-11.067 34.636-21.052l.588-.534c.97-.885 1.823-1.697 2.596-2.471 14.779-14.78 22.919-34.43 22.919-55.331 0-20.901-8.14-40.552-22.918-55.332-14.779-14.778-34.429-22.918-55.329-22.918s-40.549 8.139-55.338 22.927c-.773.775-1.55 1.59-2.377 2.494l-.582.638c-10.022 11.173-16.158 24.206-21.089 34.678-1.603 3.406-3.589 7.623-5.291 10.665-1.753-1.312-4.186-3.371-7.392-6.577l-50.146-50.146c-9.466-9.466-22.083-14.679-35.528-14.679s-26.064 5.213-35.53 14.679l-50.135 50.136c-3.214 3.214-5.651 5.277-7.407 6.591-1.701-3.041-3.685-7.257-5.289-10.662-4.929-10.474-11.065-23.508-21.094-34.689l-.505-.555c-.904-.99-1.686-1.811-2.457-2.581-14.779-14.779-34.428-22.918-55.329-22.918-20.9 0-40.55 8.139-55.331 22.918-30.508 30.51-30.508 80.153-.011 110.652.762.763 1.568 1.532 2.536 2.417l.616.562c11.174 10.022 24.207 16.158 34.679 21.088 3.406 1.603 7.622 3.589 10.664 5.291-1.315 1.756-3.376 4.192-6.589 7.405l-50.132 50.136c-9.467 9.466-14.68 22.085-14.68 35.531 0 13.446 5.213 26.064 14.679 35.53l50.132 50.134c3.213 3.214 5.276 5.65 6.59 7.406-3.042 1.702-7.259 3.687-10.664 5.29-10.472 4.931-23.505 11.067-34.679 21.089l-.568.518c-.994.91-1.815 1.692-2.574 2.451-30.507 30.508-30.508 80.15.001 110.663 14.78 14.778 34.429 22.918 55.329 22.918s40.549-8.14 55.32-22.908c.754-.753 1.52-1.556 2.406-2.524l.505-.554.067-.074c10.021-11.173 16.157-24.206 21.088-34.678 1.603-3.406 3.589-7.623 5.291-10.665 1.753 1.312 4.186 3.371 7.393 6.576l50.148 50.15c9.465 9.465 22.083 14.677 35.529 14.677zm-95.296-111.468c-21.181 0-30.198 19.153-37.444 34.542-4.269 9.069-8.684 18.446-14.975 25.469l-.291.317c-.414.454-.834.905-1.28 1.351-7.602 7.602-17.71 11.789-28.461 11.789-10.751 0-20.858-4.187-28.459-11.788-15.693-15.695-15.693-41.23.01-56.933.438-.44.891-.861 1.316-1.251l.371-.338c7.02-6.276 16.383-10.684 25.438-14.948 14.538-6.844 31.015-14.602 34.096-32.259 2.942-16.867-8.789-31.138-19.339-41.689l-50.131-50.133c-2.289-2.289-3.549-5.364-3.549-8.66 0-3.296 1.26-6.372 3.549-8.661l48.827-48.825.818-.552 1.189-1.461c10.359-10.476 21.514-24.488 18.637-40.983-3.08-17.657-19.557-25.415-34.095-32.259-9.079-4.275-18.466-8.694-25.463-14.971l-.326-.299c-.453-.414-.903-.832-1.348-1.278-15.692-15.693-15.692-41.228-.001-56.921 7.603-7.602 17.712-11.789 28.462-11.789 10.751 0 20.858 4.186 28.464 11.792.439.439.86.891 1.322 1.396l.224.245c6.303 7.027 10.722 16.414 14.995 25.493 7.244 15.39 16.257 34.543 37.44 34.542h.009c11.474-.003 22.648-6.015 36.189-19.479l50.441-50.441c2.289-2.289 5.365-3.55 8.662-3.55 3.295 0 6.371 1.26 8.661 3.55l50.146 50.148c13.676 13.673 24.927 19.77 36.483 19.77h.006c21.178-.004 30.196-19.154 37.441-34.542 4.273-9.078 8.693-18.466 14.94-25.431l.318-.349c.424-.462.851-.921 1.287-1.357 7.603-7.602 17.711-11.789 28.461-11.789 10.751 0 20.858 4.187 28.459 11.787 7.601 7.602 11.788 17.71 11.788 28.461 0 10.751-4.187 20.858-11.798 28.47-.431.432-.876.847-1.324 1.256l-.312.286c-7.026 6.303-16.413 10.723-25.491 14.997-14.535 6.844-31.01 14.601-34.093 32.254-2.942 16.856 8.766 31.113 19.301 41.655l50.169 50.171c4.694 4.695 4.694 12.629.002 17.322l-57.12 57.12c-1.699-3.038-3.674-7.233-5.271-10.624-4.931-10.47-11.068-23.501-21.142-34.733l-.462-.505c-.871-.953-1.667-1.789-2.452-2.576-14.778-14.779-34.428-22.918-55.329-22.918-20.899 0-40.55 8.139-55.33 22.918-30.508 30.51-30.508 80.152-.029 110.631.781.785 1.612 1.578 2.614 2.494l.557.506c11.172 10.022 24.202 16.157 34.673 21.088 3.391 1.597 7.586 3.573 10.625 5.271l-57.121 57.121c-2.288 2.288-5.362 3.548-8.658 3.548-3.297 0-6.373-1.261-8.661-3.548l-50.149-50.15c-13.676-13.673-24.929-19.77-36.486-19.77z"/></svg>