<svg xmlns="http://www.w3.org/2000/svg" viewBox="0 0 512 512"><path d="M364.556 349.662c-16.559 0-40.228-1.143-54.553-11.025-17.946-12.381-32.25-62.186-39.18-90.771-1.225-5.048-4.669-7.367-8.378-8.329l-6.442-.545-6.526.564c-3.678.975-7.083 3.297-8.298 8.309-6.932 28.588-21.239 78.395-39.178 90.772-14.328 9.883-37.997 11.025-54.554 11.025-3.699 0-7.116-.06-10.131-.111-2.295-.04-4.345-.076-6.076-.076-68.958 0-91.864-23.347-98.936-42.932-5.459-15.116-8.929-31.13-11.99-45.259-4.019-18.546-8.175-37.724-14.898-41.701l-2.263-1.34-.982-2.439c-4.185-10.392-1.149-36.057-.498-41.097l.776-6.01 6.019-.701c30.069-3.506 75.116-5.658 94.174-5.658.735 0 74.489.472 96.149 10.97 2.973 1.44 5.97 3.002 8.869 4.512 13.646 7.108 27.757 14.459 48.385 14.585 20.533-.127 34.642-7.477 48.288-14.585 2.897-1.51 5.895-3.071 8.866-4.512 21.663-10.498 95.417-10.97 96.152-10.97 19.063 0 64.113 2.152 94.175 5.658l6.019.701.776 6.01c.651 5.039 3.69 30.704-.489 41.095l-.981 2.441-2.266 1.34c-6.724 3.979-10.879 23.156-14.898 41.703-3.061 14.128-6.53 30.142-11.988 45.257-7.074 19.586-29.98 42.932-98.937 42.932-1.734 0-3.784.036-6.078.076-3.013.052-6.429.111-10.128.111zm49.371-154.174c-50.501 0-85.259 6.76-96.183 13.041-12.664 7.281-15.064 14.673-15.064 25.766 0 8.89 9.907 48.147 17.364 63.063 6.573 13.144 14.895 19.464 26.982 20.491 4.684.398 11.674.627 19.176.627 29.55 0 54.92-2.995 64.635-7.631 12.679-6.051 25.789-12.308 30.033-69.774.19-2.574.438-5.146.679-7.635 1.175-12.159 2.19-22.661-3.359-28.91-4.925-5.546-15.666-8.54-31.923-8.9-4.11-.092-8.261-.138-12.34-.138zm-315.86-.003c-4.079 0-8.231.046-12.34.137-16.256.36-26.996 3.355-31.92 8.901-5.551 6.251-4.535 16.754-3.359 28.916.241 2.486.489 5.058.679 7.631 4.244 57.468 17.353 63.725 30.032 69.775 9.712 4.636 35.08 7.631 64.626 7.631 7.505 0 14.496-.229 19.18-.628 12.093-1.026 20.415-7.346 26.985-20.491 5.45-10.899 17.361-50.897 17.36-63.066 0-11.093-2.4-18.485-15.062-25.766-10.923-6.281-45.682-13.04-96.181-13.04z"/></svg>