<svg xmlns="http://www.w3.org/2000/svg" viewBox="0 0 512 512"><path d="M510.33 173.193c-31.538-3.68-77.793-5.78-96.188-5.78-18.399 0-78.318 2.103-95.665 10.51-17.224 8.352-34.455 20.322-62.479 20.492-28.023-.17-45.26-12.141-62.481-20.491-17.346-8.406-77.266-10.51-95.662-10.51-18.397 0-64.65 2.102-96.188 5.779 0 0-3.753 29.049 0 38.368 16.208 9.591 17.098 54.853 31.176 93.845 14.079 38.987 79.877 38.987 94.5 38.987 14.624 0 50.787 2.41 68.427-9.761 17.64-12.171 32.963-71.558 37.17-88.903 3.576-14.755 18.181-15.435 22.462-15.31v.067l.599-.044.596.044v-.067c4.283-.125 18.885.555 22.463 15.31 4.203 17.348 19.528 76.733 37.17 88.903 17.639 12.171 53.804 9.761 68.425 9.761 14.623 0 80.421 0 94.503-38.987 14.079-38.992 14.965-84.253 31.177-93.845 3.75-9.32-.005-38.368-.005-38.368z"/></svg>