<svg xmlns="http://www.w3.org/2000/svg" viewBox="0 0 512 512"><path d="M409.229 148.523c43.417 43.847 26.379 130.608-108.327 98.489-33.722 5.096-105.851 15.438-114.96-35.078-12.816 8.095-77.631-37.397-24.959-106.257 62.207-81.326 216.54-60.698 248.246 42.846zm-297.789 282.289c-23.729-27.071-18.326-89.325-15.136-111.547h-42.656c-10.956 0-20.243-5.694-24.239-14.859-5.387-12.356-.173-27.744 13.947-41.161 23.688-22.509 34.292-45.828 34.292-58.953l-.006-1.412c-.054-8.427-.216-34.068 6.674-64.599 8.84-39.176 25.609-70.784 49.84-93.947 30.775-29.417 72.894-44.334 125.187-44.334 59.024 0 139.651 13.861 188.564 79.893 19.943 26.923 32.307 60.035 35.755 95.759 3.103 32.149-1.232 65.879-12.21 94.978-13.068 34.641-38.651 53.141-50.635 69.462-20.411 27.799-36.638 75.417-37.441 171.907h-32.001c.849-106.11 19.599-157.165 43.198-189.304 11.374-15.494 35.13-31.506 46.756-62.324 9.436-25.016 13.153-54.117 10.466-81.942-2.937-30.432-13.329-58.453-30.056-81.035-15.083-20.362-35.235-36.361-59.898-47.551-28.428-12.898-62.913-19.438-102.498-19.438-23.371 0-44.291 3.433-62.178 10.205-15.373 5.819-28.936 14.284-40.313 25.159-19.837 18.961-33.714 45.502-41.247 78.885-6.157 27.285-6.011 50.432-5.963 58.038l.007 1.599c0 24.034-16.731 54.862-43.664 80.454-1.58 1.5-2.807 2.886-3.752 4.113h72.223l-5.211 26.929c-.032.17-3.485 18.516-3.807 39.705-.524 34.416 7.236 52.039 10.597 55.868 2.638 3.006 5.367 4.123 10.069 4.123 36.229 0 48.478.536 62.051 13.51 16.113 15.402 16.162 61.339 16.028 83.006h-32.001c.107-17.136.113-55.035-6.722-61.57-6.808-6.508-13.173-4.539-39.355-4.539-14.232 0-25.895-5.073-34.665-15.078z"/></svg>