<svg xmlns="http://www.w3.org/2000/svg" viewBox="0 0 512 512"><path d="M256 480c-141.156 0-256-114.838-256-256.001 0-141.161 114.844-255.999 256-255.999 141.155 0 256 114.838 256 255.999 0 141.163-114.844 256.001-256 256.001zm0-455.111c-109.789 0-199.11 89.323-199.11 199.11 0 109.79 89.322 199.112 199.11 199.112s199.11-89.322 199.11-199.112c.003-109.787-89.322-199.11-199.11-199.11zm0 341.334c-78.422 0-142.224-63.801-142.224-142.224 0-78.421 63.801-142.224 142.224-142.224s142.223 63.803 142.223 142.224c0 78.423-63.8 142.224-142.223 142.224zm0-227.557c-47.058 0-85.334 38.277-85.334 85.333 0 47.058 38.276 85.335 85.334 85.335 47.056 0 85.335-38.277 85.335-85.335 0-47.056-38.279-85.333-85.335-85.333zm-32 85.334a32 32 12780 1 0 64 0 32 32 12780 1 0-64 0z" transform="scale(1 -1) translate(0 -480)"/></svg>