<svg xmlns="http://www.w3.org/2000/svg" viewBox="0 0 512 512"><path d="M256 0c-141.385 0-256 114.615-256 256s114.615 256 256 256 256-114.615 256-256-114.615-256-256-256zm135.765 391.765c-28.605 28.604-64.648 47.061-103.765 53.587v-93.352h-64v93.352c-39.117-6.525-75.16-24.982-103.765-53.587-28.603-28.605-47.061-64.648-53.586-103.765h93.351v-64h-93.351c6.525-39.117 24.983-75.16 53.587-103.765 28.604-28.604 64.647-47.061 103.764-53.587v93.352h64v-93.352c39.117 6.525 75.16 24.983 103.765 53.587 28.604 28.604 47.062 64.647 53.587 103.765h-93.352v64h93.352c-6.526 39.117-24.983 75.16-53.587 103.765z"/></svg>