<svg xmlns="http://www.w3.org/2000/svg" viewBox="0 0 512 512"><path d="M131.851 141.857c2.709 85.392 23.232 156.27 61.189 211.08 17.343 25.043 38.449 46.778 62.96 64.873 24.511-18.095 45.618-39.83 62.959-64.873 37.957-54.811 58.48-125.688 61.189-211.08-40.225-9.645-79.752-25.45-124.149-49.495-44.403 24.049-83.921 39.85-124.148 49.495zm327.022-68.766c-71.437-4.968-128.954-27.959-202.871-73.091-73.922 45.132-131.439 68.123-202.875 73.091-19.676 311.341 149.769 410.069 202.875 438.909 53.103-28.84 222.548-127.568 202.871-438.909zm-100.451 307.174c-35.469 51.219-77.048 80.031-102.421 95.026-25.374-14.995-66.952-43.807-102.422-95.026-49.507-71.489-72.928-164.977-69.753-278.177 56.394-7.775 107.891-27.271 172.175-64.812 64.281 37.541 115.777 57.037 172.173 64.812 3.176 113.2-20.245 206.687-69.752 278.177z"/></svg>