<svg xmlns="http://www.w3.org/2000/svg" viewBox="0 0 512 512"><path d="M480 0l-224 64-224-64s-2.25 25.849 0 64l224 70.045 224-70.045c2.249-38.151 0-64 0-64zm-443.905 97.553c11.993 125.348 56.745 336.117 219.905 414.447 163.16-78.33 207.912-289.099 219.905-414.447l-219.905 82.679-219.905-82.679zm208.644 112.632l4.827 1.815h-162.342c-.64-2.676-1.263-5.344-1.867-8h142.932l16.45 6.185zm-144.119-54.185l21.278 8h-44.578c-.471-2.688-.927-5.356-1.365-8h24.665zm42.556 16l21.278 8h-84.171c-.525-2.686-1.028-5.35-1.519-8h64.412zm42.556 16l21.278 8h-123.43c-.581-2.681-1.143-5.347-1.688-8h103.84zm251.89-41.866c-7.63 49.57-21.006 108.417-44.45 163.801-32.933 77.797-79.028 133.572-137.172 166.035v-7.97h-13.27c-3.982-2.552-7.905-5.216-11.766-8h25.036v-8h-35.568c-3.226-2.58-6.405-5.249-9.54-8h45.108v-8h-53.835c-2.721-2.6-5.406-5.266-8.053-8h61.888v-8h-69.375c-2.346-2.606-4.652-5.282-6.936-8h76.311v-8h-82.831c-2.061-2.616-4.089-5.289-6.097-8h88.928v-8h-94.695c-1.828-2.62-3.624-5.297-5.405-8h100.1v-8h-105.229c-1.642-2.634-3.27-5.293-4.869-8h110.098v-8h-114.689c-1.477-2.633-2.932-5.302-4.371-8h119.06v-8h-123.222c-1.338-2.639-2.662-5.301-3.965-8h127.187v-8h-130.961c-1.213-2.638-2.406-5.309-3.587-8h134.548v-8h-137.978c-1.113-2.66-2.208-5.326-3.275-8h141.253v-8h-144.369c-1.015-2.663-2.014-5.329-2.985-8h147.354v-8h-150.193c-.926-2.665-1.838-5.332-2.723-8h152.916v-8h-155.504c-.845-2.668-1.677-5.335-2.483-8h157.987v-8h-160.348c-.771-2.67-1.528-5.338-2.262-8h162.61v-8h-164.761c-.703-2.673-1.391-5.341-2.058-8h166.819v-5.581l11.262-4.234 170.36-64.051z"/></svg>