<svg xmlns="http://www.w3.org/2000/svg" viewBox="0 0 512 512"><path d="M256 0c-141.385 0-256 114.615-256 256s114.615 256 256 256 256-114.615 256-256-114.615-256-256-256zm0 432c-13.729 0-27.215-1.573-40.262-4.611l-30.864-59.863 34.005-46.804h74.242l34.005 46.804-30.864 59.863c-13.047 3.038-26.533 4.611-40.262 4.611zm-68.206-338.341l60.206 30.313v57.84l-60.102 43.666-54.989-17.867-10.212-66.544c2.821-3.262 5.771-6.437 8.852-9.518 16.406-16.405 35.482-29.165 56.245-37.89zm192.657 37.89c3.08 3.08 6.03 6.255 8.852 9.517l-10.212 66.545-54.988 17.867-60.103-43.666v-57.84l60.206-30.313c20.764 8.725 39.84 21.485 56.245 37.89zm-252.503 91.274l55.029 17.88 22.948 70.626-33.99 46.783-66.501-10.86c-14.084-23.145-22.59-49.246-24.828-76.63l47.342-47.799zm278.617 124.429l-66.501 10.86-33.99-46.783 22.948-70.626 55.029-17.88 47.342 47.799c-2.238 27.384-10.744 53.486-24.828 76.63zm19.14-260.958c13.677 13.676 25.525 28.749 35.439 45.042l-58.491.755c-19.854-23.475-45.237-42.115-74.146-53.914l-17.341-55.811c13.032 3.067 25.805 7.224 38.247 12.486 28.578 12.089 54.246 29.396 76.292 51.442zm-339.411 0c22.046-22.046 47.714-39.354 76.292-51.44 12.442-5.263 25.215-9.419 38.247-12.486l-17.34 55.811c-28.908 11.8-54.292 30.439-74.146 53.914l-58.491-.756c9.914-16.294 21.762-31.366 35.438-45.043zm-70.294 169.706c0-6.609.278-13.174.804-19.695l47.709 33.73c2.301 31.842 12.37 61.525 28.316 87.178l-18.768 55.318c-16.298-18.896-29.455-40.058-39.208-63.117-12.51-29.578-18.853-61.007-18.853-93.414zm147.304 221.439l46.841-34.965c14.695 3.602 30.049 5.526 45.855 5.526s31.159-1.924 45.854-5.525l46.842 34.965c-29.369 12.31-60.55 18.56-92.696 18.56s-63.327-6.25-92.696-18.561zm313.842-128.025c-9.754 23.059-22.91 44.221-39.208 63.117l-18.768-55.318c15.946-25.653 26.016-55.337 28.316-87.178l47.708-33.729c.528 6.52.806 13.085.806 19.694 0 32.407-6.344 63.836-18.854 93.414z"/></svg>