<svg xmlns="http://www.w3.org/2000/svg" viewBox="0 0 512 512"><path d="M509.052 79.515c-4.199-38.088-38.479-72.367-76.566-76.566-103.448-11.402-237.574 7.875-329.617 99.919-92.045 92.042-111.321 226.171-99.921 329.616 4.199 38.088 38.479 72.368 76.566 76.566 103.445 11.401 237.573-7.877 329.616-99.918 92.045-92.043 111.324-226.17 99.922-329.617zm-346.487 211.05c7.42-7.422 19.45-7.422 26.87 0l32 32c7.42 7.42 7.42 19.449 0 26.869-3.71 3.712-8.573 5.566-13.435 5.566s-9.725-1.854-13.435-5.565l-32-32c-7.42-7.42-7.42-19.45 0-26.87zm8.333 187.868c-29.015-14.741-55.835-34.136-79.515-57.815-23.707-23.706-43.119-50.561-57.867-79.613 1.802-21.906 5.369-45.418 11.594-69.638 2.121-8.25 4.489-16.306 7.085-24.178 9.431 52.555 34.577 100.935 73.13 139.487 38.523 38.523 86.859 63.66 139.368 73.107-33.533 11.044-66.133 16.341-93.795 18.65zm114.537-192.998c-3.71 3.711-8.573 5.565-13.435 5.565s-9.725-1.854-13.435-5.565l-32-32c-7.42-7.42-7.42-19.45 0-26.87s19.45-7.42 26.87 0l32 32c7.42 7.42 7.42 19.45 0 26.87zm64-64c-3.71 3.71-8.572 5.565-13.435 5.565s-9.725-1.855-13.435-5.565l-32-32c-7.421-7.42-7.421-19.45 0-26.87 7.42-7.42 19.449-7.42 26.869 0l32 32c7.421 7.42 7.421 19.45.001 26.87zm117.456 19.199c-2.12 8.25-4.488 16.306-7.085 24.178-9.432-52.555-34.577-100.935-73.13-139.487-38.523-38.523-86.858-63.66-139.367-73.107 33.533-11.044 66.132-16.341 93.793-18.649 29.015 14.742 55.835 34.136 79.515 57.815 23.707 23.707 43.119 50.562 57.867 79.615-1.801 21.904-5.368 45.416-11.593 69.635z"/></svg>