<svg xmlns="http://www.w3.org/2000/svg" viewBox="0 0 512 512"><path d="M384.385 439.584l-.004-.004-.114-.123-.009-.01-.359-.387-.01-.011-.111-.121-.008-.009-.236-.255-.018-.019-.097-.105-.023-.025-.103-.111-.012-.013-.115-.126-.016-.018-.098-.106-.027-.03-.089-.098-.026-.027-.112-.123h-.001l-.111-.123-.029-.031-.082-.09-.036-.041-.083-.09-.027-.031-.109-.119-.031-.033-.077-.087-.044-.049-.066-.072-.047-.052-.076-.084-.031-.035-.101-.111-.053-.059-.056-.061-.055-.062-.053-.059-.057-.062-.055-.062-.104-.115-.041-.045-.068-.076-.036-.041-.067-.074-.035-.039-.236-.264-.026-.031-.073-.082-.031-.035-.074-.084-.184-.206-.004-.004-.082-.093-.019-.021-.085-.094-.003-.004-.269-.305-.013-.013-.083-.095-.014-.016-.363-.412-.002-.003c-1.082-1.231-2.152-2.477-3.209-3.731l6.658-5.61c-6.201-7.489-11.959-15.359-17.228-23.573l-8.081 5.438c-1.694-2.518-3.342-5.07-4.943-7.654l-.002-.006-.068-.109-.012-.019-.276-.448-.022-.037-.057-.091-.025-.043-.12-.193-.008-.013-.05-.084-.035-.055-.047-.078-.038-.062-.044-.072-.051-.08-.064-.107-.045-.076-.041-.065-.045-.075-.039-.062-.057-.096-.026-.043-.081-.133-.029-.048-.059-.099-.027-.045-.064-.106-.022-.036-.087-.144-.002-.005-.084-.139-.018-.031-.072-.12-.017-.026-.087-.145-.092-.152-.005-.01-.083-.139-.013-.021-.27-.454-.003-.005-.089-.148-.004-.007-.272-.463-.003-.003c-3.678-6.233-7.075-12.636-10.188-19.212l9.401-4.451c-3.538-7.792-6.66-15.812-9.362-24.021l-9.865 3.414c-2.137-6.174-4.027-12.459-5.662-18.848l-.001-.004-.137-.536-.001-.002-.133-.531-.004-.015-.133-.529-.002-.008-.131-.53-.002-.012-.043-.171-.001-.004-.087-.357-.001-.004-.042-.176-.002-.005-.086-.356-.002-.006-.041-.17-.002-.012-.127-.529-.004-.014-.125-.531-.002-.01-.125-.535-.002-.006-.124-.538-.001-.005-.124-.539-.001-.005c-.738-3.241-1.41-6.505-2.017-9.794l10.659-1.962c-1.417-8.074-2.425-16.289-3.013-24.62l-8.615.636v-35.555l8.616.636c.588-8.331 1.596-16.545 3.013-24.62l-10.659-1.962c.606-3.289 1.278-6.552 2.017-9.793l.001-.005.124-.54.001-.004.124-.538.002-.007.125-.534.002-.01.125-.531.004-.015.127-.529.002-.011.041-.17.002-.006.086-.356.002-.005.042-.175.001-.003.087-.358.001-.004.043-.171.002-.012.131-.53.002-.008.133-.529.004-.015.133-.531.001-.002.137-.536.001-.004c1.635-6.389 3.525-12.674 5.662-18.848l9.865 3.414c2.702-8.21 5.825-16.229 9.362-24.021l-9.401-4.451c3.113-6.576 6.511-12.978 10.188-19.212l.003-.003.272-.463.004-.006.089-.148.003-.005.27-.454.013-.021.083-.138.005-.01.092-.152.087-.144.017-.027.072-.121.018-.031.084-.139.002-.005.087-.143.022-.037.064-.107.027-.045.059-.098.029-.047.081-.133.026-.043.057-.095.039-.062.045-.076.041-.065.045-.077.064-.106.051-.08.044-.073.038-.062.047-.079.035-.055.05-.083.008-.013.12-.193.025-.043.057-.091.022-.037.276-.448.012-.018.068-.11.002-.006c1.602-2.584 3.249-5.136 4.943-7.654l8.081 5.438c5.269-8.215 11.026-16.084 17.228-23.574l-6.658-5.61c1.057-1.254 2.127-2.499 3.209-3.731l.002-.002.363-.413.014-.015.083-.095.013-.013.269-.304.003-.003.085-.095.019-.021.082-.093.004-.004.184-.207.074-.084.031-.035.073-.082.026-.031.236-.264.035-.039.067-.075.036-.042.068-.075.041-.045.104-.116.055-.062.057-.062.053-.059.055-.061.056-.061.053-.059.101-.111.031-.035.076-.084.047-.052.066-.072.044-.049.077-.086.031-.033.109-.12.027-.031.083-.091.036-.041.082-.089.029-.032.111-.123h.001l.112-.123.026-.027.089-.098.027-.03.098-.107.016-.017.115-.126.012-.012.103-.111.023-.025.097-.106.018-.019.236-.255.008-.008.111-.121.01-.011.359-.387.009-.01.114-.123.004-.004c4.284-4.598 8.751-9.019 13.381-13.268-42.187-36.831-97.369-59.149-157.767-59.149-60.399 0-115.58 22.318-157.765 59.148 4.629 4.249 9.096 8.67 13.38 13.268l.004.004.115.123.009.01.358.387.01.011.112.121.007.008.236.255.018.019.097.106.023.025.103.111.011.012.116.126.016.017.098.107.027.03.088.098.026.027.112.123.112.123.029.032.082.089.036.041.083.091.027.031.109.12.031.033.078.086.044.049.066.072.047.052.076.084.032.035.101.111.053.059.056.061.055.061.052.059.056.062.056.062.104.116.041.045.068.075.037.042.067.075.036.039.236.264.027.031.073.082.031.035.074.084.184.207.003.004.083.093.018.021.084.095.003.003.269.304.012.013.083.095.014.015.362.413.002.002c1.083 1.232 2.152 2.477 3.209 3.731l-6.658 5.61c6.201 7.49 11.959 15.36 17.228 23.574l8.082-5.438c1.694 2.518 3.341 5.07 4.942 7.654l.003.006.068.11.011.018.276.448.022.037.056.091.026.043.12.193.008.013.05.083.034.055.048.079.038.062.044.073.05.08.064.106.046.077.04.065.046.076.038.062.058.095.026.043.082.133.029.047.059.098.028.045.064.107.022.037.087.143.001.005.084.139.019.031.072.121.017.027.086.144.092.152.005.01.083.138.013.021.27.454.003.005.088.148.004.006.273.463.002.003c3.678 6.234 7.076 12.636 10.189 19.212l-9.402 4.452c3.538 7.792 6.66 15.811 9.362 24.021l9.865-3.414c2.137 6.174 4.028 12.459 5.663 18.848l.001.004.137.536v.002l.134.531.003.015.132.529.002.008.131.53.003.012.042.171.001.004.087.358v.003l.042.175.001.005.086.356.002.006.041.17.003.011.126.529.004.015.125.531.002.01.125.534.001.007.124.538.001.004.124.54.001.005c.738 3.241 1.41 6.504 2.016 9.793l-10.659 1.962c1.417 8.075 2.425 16.289 3.013 24.62l8.616-.636v35.555l-8.616-.637c-.588 8.331-1.596 16.546-3.013 24.62l10.659 1.962c-.606 3.289-1.278 6.553-2.016 9.794l-.001.005-.124.539-.001.005-.124.538-.001.006-.125.535-.002.01-.125.531-.004.014-.126.529-.003.012-.041.17-.002.006-.086.356-.001.005-.042.176v.004l-.087.357-.001.004-.042.171-.003.012-.131.53-.002.008-.132.529-.003.015-.134.531v.002l-.137.536-.001.004c-1.635 6.389-3.526 12.674-5.663 18.848l-9.865-3.414c-2.702 8.21-5.825 16.229-9.362 24.021l9.402 4.451c-3.113 6.576-6.511 12.979-10.189 19.212l-.002.003-.273.463-.004.007-.088.148-.003.005-.27.454-.013.021-.083.139-.005.01-.092.152-.086.145-.017.026-.072.12-.019.031-.084.139-.001.005-.087.144-.022.036-.064.106-.028.045-.059.099-.029.048-.082.133-.026.043-.058.096-.038.062-.046.075-.04.065-.046.076-.064.107-.05.08-.044.072-.038.062-.048.078-.034.055-.05.084-.008.013-.12.193-.026.043-.056.091-.022.037-.276.448-.011.019-.068.109-.003.006c-1.601 2.584-3.249 5.137-4.942 7.654l-8.082-5.438c-5.268 8.214-11.026 16.084-17.227 23.573l6.658 5.61c-1.057 1.255-2.127 2.5-3.209 3.731l-.002.003-.362.412-.014.016-.083.095-.012.013-.269.305-.003.004-.084.094-.018.021-.083.093-.003.004-.184.206-.074.084-.031.035-.073.082-.027.031-.236.264-.036.039-.067.074-.037.041-.068.076-.041.045-.104.115-.056.062-.056.062-.052.059-.055.062-.056.061-.053.059-.101.111-.032.035-.076.084-.047.052-.066.072-.044.049-.078.087-.031.033-.109.119-.027.031-.083.09-.036.041-.082.09-.029.031-.112.123-.112.123-.026.027-.088.098-.027.03-.098.106-.016.018-.116.126-.011.013-.103.111-.023.025-.097.105-.018.019-.236.255-.007.009-.112.121-.01.011-.358.387-.009.01-.115.123-.004.004c-4.284 4.598-8.75 9.019-13.38 13.268 42.184 36.831 97.365 59.149 157.764 59.149 60.398 0 115.58-22.318 157.766-59.148-4.63-4.249-9.097-8.67-13.381-13.268zm-283.474-47.123l-8.524-5.736c5.686-8.449 10.772-17.387 15.118-26.567l8.676 4.107c.76-1.682 1.502-3.374 2.223-5.078 2.412-5.703 4.564-11.484 6.484-17.328l-9.041-3.129c3.321-9.596 5.938-19.529 7.778-29.524l9.028 1.662c1.319-7.555 2.243-15.195 2.782-22.904l-8.995-.664c.374-5.055.549-10.188.548-15.299.001-5.11-.175-10.244-.548-15.299l8.995-.664c-.539-7.709-1.462-15.35-2.782-22.904l-9.028 1.662c-1.84-9.996-4.457-19.929-7.778-29.525l9.041-3.129c-1.919-5.844-4.072-11.625-6.484-17.328-.721-1.705-1.463-3.397-2.224-5.079l-8.676 4.108c-4.346-9.18-9.433-18.119-15.118-26.567l8.524-5.736c-4.926-7.712-10.33-15.117-16.193-22.195l-8.644 7.283c-5.903-7.006-12.331-13.66-19.127-19.824-35.512 41.845-56.946 96.013-56.946 155.196s21.434 113.351 56.947 155.196c6.797-6.164 13.224-12.817 19.127-19.824l8.644 7.283c5.863-7.079 11.267-14.483 16.193-22.194zm322.142-275.657c-6.797 6.164-13.224 12.818-19.127 19.824l-8.644-7.284c-5.863 7.079-11.267 14.484-16.192 22.196l8.523 5.736c-5.686 8.448-10.771 17.387-15.117 26.567l-8.676-4.108c-.761 1.682-1.503 3.375-2.224 5.079-2.412 5.703-4.564 11.484-6.484 17.328l9.041 3.129c-3.321 9.596-5.938 19.529-7.778 29.525l-9.028-1.662c-1.319 7.554-2.243 15.194-2.782 22.903l8.996.665c-.374 5.055-.55 10.188-.549 15.299-.001 5.11.175 10.244.549 15.299l-8.996.664c.539 7.71 1.463 15.35 2.782 22.904l9.028-1.662c1.84 9.995 4.457 19.929 7.778 29.524l-9.041 3.129c1.92 5.844 4.072 11.625 6.484 17.328.721 1.704 1.463 3.396 2.224 5.078l8.676-4.107c4.346 9.181 9.432 18.118 15.117 26.567l-8.523 5.735c4.926 7.712 10.329 15.117 16.191 22.195l8.645-7.283c5.903 7.007 12.33 13.66 19.127 19.824 35.513-41.845 56.947-96.013 56.947-155.196s-21.434-113.351-56.947-155.196z"/></svg>