<svg xmlns="http://www.w3.org/2000/svg" viewBox="0 0 512 512"><path d="M479.456 256c-3.461-52.57-23.85-100.511-55.763-138.432-3.75 3.247-7.401 6.64-10.943 10.182-34.734 34.734-55.393 79.79-59.128 128.25h125.834zm-80.961-164.195c-38.532-33.918-88.028-55.675-142.495-59.262v223.457h61.544c4.301-65.327 34.732-123.508 80.951-164.195zm-331.245 35.945c-3.542-3.542-7.194-6.936-10.943-10.182-31.913 37.921-52.302 85.862-55.764 138.432h125.834c-3.734-48.46-24.393-93.516-59.127-128.25zm95.207 128.25h61.543v-223.457c-54.466 3.587-103.963 25.344-142.495 59.262 46.219 40.687 76.65 98.868 80.952 164.195zm250.293 160.25c3.542 3.542 7.194 6.936 10.943 10.183 31.913-37.921 52.302-85.862 55.763-138.433h-125.834c3.735 48.46 24.394 93.516 59.128 128.25zm-95.206-128.25h-61.544v223.456c54.467-3.586 103.963-25.343 142.495-59.261-46.219-40.686-76.65-98.867-80.951-164.195zm-317.001 0c3.461 52.57 23.85 100.512 55.763 138.432 3.75-3.246 7.401-6.64 10.943-10.182 34.734-34.734 55.393-79.79 59.128-128.25h-125.834zm80.962 164.195c38.532 33.918 88.029 55.675 142.495 59.261v-223.456h-61.543c-4.302 65.327-34.734 123.509-80.952 164.195z"/></svg>