<svg xmlns="http://www.w3.org/2000/svg" viewBox="0 0 512 512"><path d="M320 57.561v-15.561c0-17.673 42.98-32 96-32s96 14.327 96 32v15.561c-16.585-15.526-56.478-23.561-96-23.561s-79.415 8.035-96 23.561zm0 18.439a96 32 7740 1 0 192 0 96 32 7740 1 0-192 0zm134.402 308l-229.881-288.982c-15.687-18.019-126.371-12.893-184.957-3.903l-.045.001c-26.645 2.943-33.747 13.682-38.07-10.169h-.003c-4.93-37.705 4.325-70.333 4.325-70.333 19.563-20.469 199.608-8.402 218.749 11.447l287.48 361.939h-57.598z" transform="scale(1 -1) translate(0 -480)"/></svg>