<svg xmlns="http://www.w3.org/2000/svg" viewBox="0 0 512 512"><path d="M256 0c-141.385 0-256 114.615-256 256s114.615 256 256 256 256-114.615 256-256-114.615-256-256-256zm0 384c-70.692 0-128-57.308-128-128s57.308-128 128-128 128 57.308 128 128-57.308 128-128 128zm40.963-130.494c10.817-9.805 17.543-23.442 17.543-38.507 0-29.775-26.246-54-58.507-54-32.26 0-58.505 24.224-58.505 54 0 15.065 6.726 28.702 17.542 38.506-14.076 10.281-23.052 25.735-23.052 42.994 0 30.879 28.717 56 64.015 56 35.299 0 64.017-25.121 64.017-56 0-17.258-8.976-32.712-23.053-42.993zm-71.469-38.506c0-14.336 13.685-26 30.505-26 16.821 0 30.507 11.663 30.507 26 0 12.943-11.154 23.704-25.699 25.675-1.59-.104-3.188-.174-4.808-.174-1.619 0-3.218.07-4.807.174-14.544-1.972-25.698-12.733-25.698-25.675zm30.505 108.5c-19.307 0-35.015-12.112-35.015-27s15.708-27 35.015-27c19.309 0 35.017 12.112 35.017 27s-15.708 27-35.017 27z"/></svg>