<svg xmlns="http://www.w3.org/2000/svg" viewBox="0 0 512 512"><path d="M459.941 212.927c-10.505-22.178-21.368-45.11-21.368-74.238 0-11.577 1.754-25.039 3.609-39.29 4.22-32.398 8.582-65.899-7.834-85.215-5.293-6.228-12.221-10.426-20.683-12.548v-1.636h-12.25c-.312 0-.615.008-.919.017h-.011c-.302-.009-.606-.017-.921-.017l-12.25.041v1.595c-8.461 2.123-15.389 6.32-20.682 12.548-16.415 19.315-12.052 52.816-7.833 85.215 1.856 14.251 3.609 27.713 3.609 39.29 0 29.128-10.863 52.061-21.367 74.238-8.701 18.367-17.647 37.26-20.272 59.159-3.886-9.868-8.384-19.365-12.825-28.741-12.006-25.346-24.421-51.555-24.421-84.844 0-13.231 2.004-28.615 4.125-44.903 4.822-37.026 9.808-75.313-8.953-97.388-6.049-7.117-13.967-11.915-23.637-14.341v-1.869h-14c-.357 0-.704.009-1.051.02h-.012c-.348-.011-.695-.02-1.054-.02l-14 .046v1.822c-9.669 2.426-17.587 7.224-23.636 14.341-18.761 22.075-13.775 60.362-8.953 97.389 2.121 16.288 4.125 31.672 4.125 44.902 0 33.289-12.415 59.498-24.42 84.844-4.162 8.786-8.372 17.68-12.082 26.884-2.894-21.113-11.579-39.457-20.033-57.302-10.505-22.178-21.368-45.11-21.368-74.238 0-11.577 1.754-25.039 3.609-39.29 4.22-32.398 8.582-65.899-7.834-85.215-5.293-6.228-12.221-10.426-20.682-12.548v-1.635h-12.25c-.312 0-.616.008-.919.017h-.011c-.304-.009-.609-.017-.922-.017l-12.25.041v1.595c-8.461 2.123-15.389 6.32-20.682 12.548-16.416 19.315-12.053 52.816-7.834 85.215 1.856 14.251 3.609 27.713 3.609 39.29 0 29.128-10.863 52.061-21.368 74.238-10.344 21.838-21.04 44.419-21.04 71.913 0 53.297 22.574 122.356 28.638 136.135 5.86 13.312 20.637 22.863 39.182 25.943v1.082h12.25l.419-.006.423.006 12.25-.022v-1.06c18.544-3.08 33.32-12.632 39.182-25.944 3.277-7.446 11.374-31.038 18.125-59.557 6.611 52.579 24.647 106.924 30.27 119.696 6.698 15.214 23.585 26.13 44.779 29.65v1.237h14l.479-.007.483.007 14-.025v-1.211c21.193-3.521 38.08-14.437 44.78-29.651 5.72-12.998 24.292-69.038 30.604-122.458 6.873 29.752 15.39 54.636 18.772 62.32 5.859 13.312 20.637 22.863 39.182 25.943v1.082h12.25l.419-.006.423.006 12.25-.022v-1.06c18.545-3.08 33.32-12.632 39.183-25.944 6.064-13.78 28.638-82.844 28.638-136.134.001-27.494-10.695-50.075-21.04-71.913zm-237.3-178.585c2.161-2.542 6.249-5.962 16.754-6.303l.444-.016.158.002.131-.002.476.016c10.506.341 14.594 3.761 16.755 6.303 9.06 10.66 7.361 36.188 4.298 61.658h-43.313c-3.064-25.47-4.763-50.998 4.297-61.658zm32.899 125.658h-31.08c.005-.5.017-.996.017-1.499 0-9.585-.902-19.971-2.109-30.501h35.264c-1.208 10.53-2.109 20.916-2.109 30.501-.001.503.012.999.017 1.499zm18.095 309.831c-2.946 6.689-15.628 13.92-33.331 14.145l-.304.003-.304-.004c-17.703-.225-30.385-7.454-33.33-14.143-6.179-14.038-30.356-88.632-30.356-144.302 0-25.126 10.371-47.021 21.351-70.2 8.872-18.73 18.564-39.21 23.612-63.332h38.053c5.048 24.122 14.74 44.601 23.612 63.332 10.98 23.18 21.352 45.074 21.352 70.2 0 55.663-24.178 130.263-30.355 144.301z"/></svg>