<svg xmlns="http://www.w3.org/2000/svg" viewBox="0 0 512 512"><path d="M307.943 243.345c-12.006-25.346-24.421-51.555-24.421-84.844 0-13.231 2.004-28.615 4.125-44.903 4.822-37.026 9.808-75.313-8.953-97.388-6.049-7.117-13.967-11.915-23.637-14.341v-1.869h-14c-.357 0-.704.009-1.051.02h-.012c-.347-.011-.694-.02-1.053-.02l-14 .046v1.822c-9.669 2.426-17.587 7.224-23.636 14.341-18.761 22.075-13.775 60.362-8.953 97.389 2.121 16.288 4.125 31.672 4.125 44.902 0 33.289-12.415 59.498-24.42 84.844-11.822 24.958-24.046 50.765-24.046 82.187 0 60.911 25.799 139.836 32.729 155.582 6.698 15.214 23.585 26.13 44.779 29.65v1.237h14l.479-.007.483.007 14-.025v-1.211c21.193-3.521 38.08-14.437 44.78-29.651 6.93-15.748 32.729-94.678 32.729-155.581 0-31.423-12.224-57.229-24.047-82.187zm-52.403-83.345h-31.08c.005-.5.017-.996.017-1.499 0-9.585-.902-19.971-2.109-30.501h35.264c-1.208 10.53-2.109 20.916-2.109 30.501-.001.503.012.999.017 1.499zm-32.899-125.658c2.161-2.542 6.249-5.962 16.754-6.303l.444-.016.158.002.131-.002.476.016c10.506.341 14.594 3.761 16.755 6.303 9.06 10.66 7.361 36.188 4.298 61.658h-43.313c-3.064-25.47-4.763-50.998 4.297-61.658zm50.994 435.489c-2.946 6.689-15.628 13.92-33.331 14.145l-.304.003-.304-.004c-17.703-.225-30.385-7.454-33.33-14.143-6.179-14.038-30.356-88.632-30.356-144.302 0-25.126 10.371-47.021 21.351-70.2 8.872-18.73 18.564-39.21 23.612-63.332h38.053c5.048 24.122 14.74 44.601 23.612 63.332 10.98 23.18 21.352 45.074 21.352 70.2 0 55.663-24.178 130.263-30.355 144.301z"/></svg>