<svg xmlns="http://www.w3.org/2000/svg" viewBox="0 0 512 512"><path d="M441.435 198.565c-7.42-7.42-19.449-7.42-26.869 0l-78.566 78.566-101.13-101.131 78.564-78.565c7.421-7.42 7.421-19.45 0-26.87-7.42-7.42-19.449-7.42-26.869 0l-78.565 78.565-46.565-46.565c-7.42-7.42-19.45-7.42-26.87 0s-7.42 19.45 0 26.87l33.49 33.49-66.565 66.565c-42.174 42.174-48.766 106.456-19.775 155.541l-72.342 72.342c-12.497 12.496-12.497 32.758 0 45.254 6.248 6.249 14.438 9.373 22.627 9.373s16.379-3.124 22.627-9.373l72.341-72.342c49.085 28.99 113.367 22.398 155.541-19.775l66.565-66.565 33.49 33.49c3.71 3.71 8.572 5.565 13.435 5.565s9.725-1.855 13.435-5.565c7.421-7.42 7.421-19.449 0-26.869l-46.565-46.566 78.565-78.565c7.421-7.42 7.421-19.45.001-26.87z"/></svg>