<svg xmlns="http://www.w3.org/2000/svg" viewBox="0 0 512 512"><path d="M128 160h32v128h-32zm224 0h32v96h-32zm27.996-128h-247.992c-78.716 43.667-132.004 127.604-132.004 224s53.288 180.333 132.004 224h247.992c78.716-43.667 132.004-127.604 132.004-224s-53.288-180.333-132.004-224zm-8.578 416h-230.836c-31.358-18.896-57.763-45.287-76.68-76.726-20.87-34.684-31.902-74.545-31.902-115.274s11.032-80.589 31.902-115.275c18.918-31.438 45.322-57.829 76.68-76.725h230.836c31.357 18.896 57.763 45.287 76.68 76.725 20.871 34.686 31.902 74.547 31.902 115.275 0 40.729-11.031 80.59-31.902 115.274-18.917 31.439-45.322 57.83-76.68 76.726zm-115.418-128c-35.346 0-64 14.327-64 32v64h128v-64c0-17.673-28.653-32-64-32z"/></svg>