<svg xmlns="http://www.w3.org/2000/svg" viewBox="0 0 512 512"><path d="M288 48c0-26.51-21.49-48-48-48-26.509 0-48 21.49-48 48 0 48-96 16-96 80h288c0-64-96-32-96-80zm-48 23.2c-12.813 0-23.2-10.387-23.2-23.2s10.387-23.2 23.2-23.2c12.812 0 23.2 10.387 23.2 23.2s-10.388 23.2-23.2 23.2zm208 24.8h-32v64h-352v-64h-32c-17.673 0-32 14.327-32 32v352c0 17.674 14.326 32 32 32h416c17.672 0 32-14.326 32-32v-352c0-17.673-14.328-32-32-32zm-32 352h-352v-32h352v32zm0-96h-352v-32h352v32zm0-96h-352v-32h352v32z"/></svg>