<svg xmlns="http://www.w3.org/2000/svg" viewBox="0 0 512 512"><path d="M64 0c-35.346 0-64 28.654-64 64s28.654 64 64 64 64-28.654 64-64-28.654-64-64-64zm0 108c-24.262 0-44-19.738-44-44s19.738-44 44-44 44 19.738 44 44-19.738 44-44 44zm0 84c-35.346 0-64 28.654-64 64 0 35.346 28.654 64 64 64s64-28.654 64-64c0-35.346-28.654-64-64-64zm0 108c-24.262 0-44-19.738-44-44s19.738-44 44-44 44 19.738 44 44-19.738 44-44 44zm0 84c-35.346 0-64 28.654-64 64s28.654 64 64 64 64-28.654 64-64-28.654-64-64-64zm0 108c-24.262 0-44-19.738-44-44s19.738-44 44-44 44 19.738 44 44-19.738 44-44 44zm128-460h320v64h-320zm0 192h320v64h-320zm0 192h320v64h-320z"/></svg>