<svg xmlns="http://www.w3.org/2000/svg" viewBox="0 0 512 512"><path d="M0 416a64 64 2700 1 0 128 0 64 64 2700 1 0-128 0zm192 0a64 64 2700 1 0 128 0 64 64 2700 1 0-128 0zm192 0a64 64 2700 1 0 128 0 64 64 2700 1 0-128 0zm-384-192a64 64 2700 1 0 128 0 64 64 2700 1 0-128 0zm192 0a64 64 2700 1 0 128 0 64 64 2700 1 0-128 0zm192 0a64 64 2700 1 0 128 0 64 64 2700 1 0-128 0zm-384-192a64 64 2700 1 0 128 0 64 64 2700 1 0-128 0zm192 0a64 64 2700 1 0 128 0 64 64 2700 1 0-128 0zm192 0a64 64 2700 1 0 128 0 64 64 2700 1 0-128 0z" transform="scale(1 -1) translate(0 -480)"/></svg>