<svg xmlns="http://www.w3.org/2000/svg" viewBox="0 0 512 512"><path d="M446.133 257.245c1.223-5.554 1.867-11.323 1.867-17.245 0-44.183-35.817-80-80-80-7.112 0-14.008.934-20.568 2.676-12.397-38.676-48.643-66.676-91.432-66.676-43.674 0-80.527 29.168-92.164 69.085-11.371-3.31-23.396-5.085-35.836-5.085-70.693 0-128 57.308-128 128 0 70.693 57.307 128 128 128h304c44.182 0 80-35.816 80-80 0-39.359-28.427-72.08-65.867-78.755zm-14.133 126.832v-.077h-304c-53.021 0-96-42.98-96-96 0-53.019 42.979-96 96-96 31.404 0 59.288 15.083 76.803 38.398l25.601-19.201c-9.993-13.305-22.521-24.596-36.864-33.163 6.371-28.628 31.912-50.034 62.46-50.034 35.346 0 64 28.654 64 64 0 8.942-1.839 17.454-5.148 25.184l29.426 12.593c4.627-10.799 7.33-22.615 7.68-35.021 5.017-1.78 10.413-2.756 16.042-2.756 26.51 0 48 21.49 48 48 0 6.541-1.316 12.773-3.688 18.455-8.925 2.261-17.256 6.009-24.701 10.982l17.7 26.567c7.635-5.104 16.813-8.083 26.688-8.083 26.554 0 48.075 21.523 48.075 48.076 0 26.556-21.521 48.08-48.074 48.08z"/></svg>