<svg xmlns="http://www.w3.org/2000/svg" viewBox="0 0 512 512"><path d="M445.502 180.03c-1.621-64.349-54.229-116.03-118.931-116.03-37.896 0-71.633 17.747-93.427 45.366-12.221-15.799-31.345-25.98-52.854-25.98-36.905 0-66.821 29.937-66.821 66.861 0 3.218.24 6.38.682 9.477-5.611-1.012-11.383-1.569-17.285-1.569-53.499-.001-96.866 43.393-96.866 96.921 0 53.531 43.367 96.924 96.865 96.924h49.88l109.255 109.255 109.255-109.255h59.741v-.006c48.069-.092 87.004-39.106 87.004-87.223 0-41.045-28.339-75.45-66.498-84.741zm-189.502 235.97l-96-96h64v-96h64v96h64l-96 96z"/></svg>