<svg xmlns="http://www.w3.org/2000/svg" viewBox="0 0 512 512"><path d="M240 32c-132.548 0-240 107.452-240 240 0 132.549 107.452 240 240 240 132.549 0 240-107.451 240-240 0-132.548-107.451-240-240-240zm135.795 320c4.29-20.227 6.998-41.695 7.879-64h63.724c-1.669 22.098-6.812 43.557-15.341 64h-56.262zm-32.777-160c4.808 20.481 7.699 41.927 8.641 64h-95.659v-64h87.018zm-87.018-32v-93.669c7.295 2.123 14.521 5.685 21.614 10.685 13.291 9.37 26.006 23.804 36.77 41.743 7.441 12.401 13.876 26.208 19.248 41.242l-77.632-.001zm-90.384-41.242c10.764-17.939 23.478-32.374 36.77-41.743 7.091-5 14.319-8.562 21.614-10.685v93.67h-77.632c5.373-15.033 11.808-28.84 19.248-41.242zm58.384 73.242v64h-95.657c.94-22.073 3.833-43.519 8.639-64h87.018zm-95.657 96h95.657v64h-87.018c-4.806-20.48-7.699-41.927-8.639-64zm95.657 96v93.67c-7.294-2.123-14.522-5.686-21.614-10.685-13.292-9.37-26.007-23.806-36.77-41.743-7.441-12.402-13.875-26.209-19.249-41.242h77.633zm90.384 41.242c-10.764 17.938-23.479 32.373-36.77 41.743-7.093 4.999-14.319 8.562-21.614 10.685v-93.67h77.633c-5.373 15.033-11.808 28.84-19.249 41.242zm-58.384-73.242v-64h95.657c-.94 22.073-3.833 43.52-8.641 64h-87.016zm127.674-96c-.881-22.304-3.589-43.773-7.879-64h56.262c8.528 20.443 13.672 41.903 15.341 64h-63.724zm31.655-96h-47.95c-9.319-29.381-22.188-55.147-37.658-75.714 21.269 10.17 40.529 23.808 57.357 40.636 10.74 10.739 20.181 22.469 28.251 35.078zm-28.251 259.078c-16.828 16.829-36.09 30.467-57.357 40.637 15.472-20.566 28.339-46.334 37.658-75.715h47.95c-8.07 12.609-17.511 24.339-28.251 35.078z"/></svg>