<svg xmlns="http://www.w3.org/2000/svg" viewBox="0 0 512 512"><path d="M256 0c-141.385 0-256 114.615-256 256s114.615 256 256 256 256-114.615 256-256-114.615-256-256-256zm9.035 470.342c-3.771 8.332-6.934 12.994-9.035 15.516-2.102-2.521-5.265-7.184-9.036-15.516-5.792-12.799-11.245-30.529-15.768-51.273-.278-1.276-.552-2.566-.823-3.864 8.429.523 16.977.795 25.627.795 8.65 0 17.198-.272 25.628-.796-.271 1.298-.545 2.588-.823 3.864-4.524 20.744-9.977 38.475-15.77 51.274zm-9.035-78.342c-10.145 0-20.19-.387-30.108-1.155-3.553-22.027-6.201-46.185-7.858-71.546 12.389.46 25.064.701 37.966.701 12.901 0 25.577-.241 37.967-.702-1.657 25.362-4.306 49.52-7.858 71.546-9.919.769-19.963 1.156-30.109 1.156zm0-96c-13.225 0-26.339-.261-39.229-.771-.51-12.89-.771-26.004-.771-39.229s.261-26.339.771-39.229c12.89-.51 26.004-.771 39.229-.771 13.225 0 26.339.261 39.229.771.51 12.89.771 26.004.771 39.229 0 13.225-.261 26.339-.771 39.229-12.89.51-26.004.771-39.229.771zm-136-40c0-10.145.387-20.19 1.156-30.108 22.027-3.553 46.184-6.201 71.546-7.858-.461 12.389-.702 25.064-.702 37.966 0 12.901.241 25.577.702 37.967-25.362-1.657-49.519-4.306-71.546-7.857-.769-9.92-1.156-19.964-1.156-30.11zm-23.204 25.628c-1.298-.271-2.588-.545-3.865-.823-20.745-4.523-38.475-9.977-51.274-15.77-8.332-3.771-12.995-6.934-15.515-9.035 2.52-2.101 7.183-5.264 15.515-9.035 12.799-5.793 30.53-11.245 51.274-15.768 1.277-.278 2.567-.552 3.865-.823-.524 8.429-.796 16.977-.796 25.626 0 8.65.272 17.198.796 25.628zm150.168-239.971c3.771-8.332 6.934-12.994 9.036-15.514 2.102 2.52 5.266 7.183 9.035 15.515 5.793 12.799 11.244 30.53 15.77 51.274.278 1.276.552 2.566.823 3.864-8.43-.524-16.978-.796-25.628-.796-8.65 0-17.198.272-25.627.796.271-1.298.545-2.588.823-3.865 4.523-20.745 9.976-38.475 15.768-51.274zm9.036 78.343c10.146 0 20.19.387 30.108 1.156 3.553 22.027 6.201 46.184 7.858 71.546-12.389-.461-25.065-.702-37.966-.702-12.902 0-25.577.241-37.966.702 1.657-25.362 4.305-49.519 7.858-71.546 9.918-.77 19.962-1.156 30.108-1.156zm63.298 98.034c25.362 1.658 49.52 4.305 71.546 7.858.769 9.918 1.156 19.963 1.156 30.108 0 10.146-.387 20.19-1.156 30.108-22.026 3.553-46.184 6.201-71.546 7.858.461-12.389.702-25.065.702-37.966 0-12.902-.241-25.577-.702-37.966zm95.906 12.34c1.298.271 2.588.545 3.864.823 20.744 4.523 38.475 9.975 51.273 15.768 8.332 3.771 12.994 6.934 15.516 9.035-2.521 2.102-7.184 5.266-15.516 9.035-12.8 5.793-30.529 11.244-51.273 15.77-1.276.278-2.566.552-3.864.823.524-8.43.796-16.978.796-25.628 0-8.649-.272-17.197-.796-25.626zm-2.333-24.95c-2.382-19.014-6.075-37.269-10.931-54.507 7.833 3.788 15.299 7.885 22.358 12.297 20.652 12.907 36.703 27.697 47.707 43.958 4.164 6.152 7.51 12.42 10.054 18.775-17.065-8.006-40.73-14.998-69.188-20.523zm-32.648-42.936c3.323 12.571 5.943 25.489 7.865 38.681-21.474-3.24-45.006-5.712-69.988-7.268-1.557-24.982-4.028-48.515-7.268-69.988 13.191 1.921 26.109 4.541 38.681 7.864 8.094 2.14 15.931 4.547 23.513 7.197 2.65 7.583 5.057 15.42 7.197 23.514zm-73.647-63.359c-5.525-28.458-12.518-52.124-20.524-69.189 6.355 2.544 12.624 5.89 18.776 10.054 16.261 11.004 31.05 27.055 43.957 47.707 4.412 7.06 8.511 14.526 12.298 22.359-17.238-4.856-35.493-8.55-54.507-10.931zm-99.403-59.136c6.152-4.164 12.42-7.509 18.775-10.053-8.006 17.065-14.999 40.73-20.523 69.189-19.014 2.381-37.269 6.075-54.507 10.931 3.787-7.833 7.885-15.3 12.297-22.36 12.907-20.651 27.697-36.703 43.958-47.707zm-44.685 91.783c12.571-3.323 25.489-5.942 38.681-7.864-3.24 21.474-5.712 45.006-7.268 69.988-24.982 1.556-48.515 4.028-69.988 7.268 1.921-13.192 4.541-26.11 7.864-38.682 2.14-8.094 4.547-15.931 7.198-23.514 7.582-2.65 15.419-5.056 23.513-7.196zm-63.359 73.648c-28.458 5.525-52.124 12.517-69.189 20.523 2.544-6.355 5.89-12.624 10.054-18.776 11.004-16.261 27.055-31.05 47.707-43.958 7.06-4.412 14.526-8.51 22.359-12.297-4.856 17.239-8.55 35.494-10.931 54.508zm-69.189 80.629c17.065 8.007 40.73 14.999 69.189 20.523 2.382 19.015 6.075 37.27 10.931 54.508-7.833-3.787-15.3-7.886-22.36-12.298-20.651-12.907-36.703-27.696-47.707-43.957-4.163-6.152-7.509-12.422-10.053-18.776zm101.836 63.461c-3.323-12.571-5.942-25.49-7.864-38.682 21.474 3.24 45.006 5.711 69.988 7.268 1.556 24.982 4.028 48.515 7.268 69.988-13.192-1.921-26.11-4.54-38.682-7.863-8.094-2.14-15.931-4.547-23.513-7.197-2.65-7.584-5.057-15.421-7.197-23.514zm73.648 63.357c5.525 28.458 12.517 52.124 20.523 69.188-6.355-2.544-12.624-5.89-18.776-10.054-16.261-11.004-31.05-27.055-43.958-47.707-4.412-7.06-8.51-14.525-12.298-22.359 17.239 4.857 35.495 8.55 54.509 10.932zm99.405 59.135c-6.153 4.164-12.422 7.51-18.777 10.055 8.007-17.065 14.999-40.73 20.524-69.189 19.014-2.382 37.27-6.075 54.508-10.932-3.787 7.834-7.886 15.3-12.298 22.359-12.907 20.652-27.696 36.703-43.957 47.707zm44.684-91.783c-12.571 3.323-25.489 5.943-38.681 7.864 3.239-21.473 5.711-45.005 7.268-69.987 24.982-1.557 48.515-4.028 69.988-7.268-1.922 13.191-4.541 26.109-7.864 38.682-2.14 8.093-4.546 15.93-7.196 23.512-7.584 2.65-15.422 5.057-23.515 7.197zm63.358-73.647c28.458-5.525 52.124-12.518 69.189-20.524-2.545 6.355-5.891 12.624-10.055 18.776-11.004 16.261-27.055 31.05-47.707 43.957-7.06 4.412-14.525 8.511-22.358 12.298 4.856-17.238 8.549-35.493 10.931-54.507zm7.178-214.625c21.314 21.314 38.046 46.128 49.729 73.751.52 1.228 1.013 2.463 1.51 3.698-20.423-19.792-47.646-36.58-79.6-49.088-12.509-31.953-29.296-59.176-49.088-79.6 1.234.498 2.47.991 3.697 1.51 27.624 11.684 52.438 28.416 73.752 49.729zm-328.098.001c21.314-21.314 46.128-38.045 73.751-49.729 1.227-.519 2.462-1.012 3.695-1.509-19.791 20.423-36.578 47.646-49.085 79.598-31.953 12.508-59.176 29.295-79.599 49.086.497-1.233.99-2.468 1.509-3.695 11.684-27.624 28.416-52.437 49.729-73.751zm.001 328.097c-21.314-21.313-38.045-46.128-49.729-73.751-.519-1.228-1.012-2.462-1.509-3.695 20.423 19.791 47.646 36.578 79.598 49.086 12.508 31.952 29.295 59.176 49.087 79.599-1.234-.496-2.469-.989-3.696-1.509-27.624-11.685-52.437-28.416-73.751-49.73zm328.097 0c-21.313 21.314-46.128 38.046-73.751 49.729-1.228.52-2.463 1.013-3.697 1.51 19.792-20.423 36.579-47.646 49.088-79.6 31.953-12.509 59.177-29.296 79.6-49.088-.497 1.234-.99 2.47-1.51 3.697-11.685 27.624-28.416 52.438-49.73 73.752z"/></svg>