<svg xmlns="http://www.w3.org/2000/svg" viewBox="0 0 512 512"><path d="M160 352c8.8 8.8 23.637 8.363 32.971-.971l158.059-158.058c9.334-9.334 9.77-24.171.97-32.971s-23.637-8.363-32.971.971l-158.058 158.058c-9.334 9.334-9.771 24.171-.971 32.971zm78.444-14.444c2.28 4.525 3.495 9.58 3.495 14.848 0 8.808-3.372 17.03-9.496 23.154l-81.691 81.691c-6.124 6.124-14.347 9.496-23.154 9.496s-17.03-3.372-23.154-9.496l-49.691-49.691c-6.124-6.124-9.496-14.347-9.496-23.154s3.372-17.03 9.496-23.154l81.691-81.691c6.124-6.124 14.347-9.497 23.154-9.497 5.268 0 10.322 1.215 14.848 3.495l32.669-32.669c-13.935-10.705-30.72-16.08-47.517-16.08-19.993 0-39.986 7.583-55.154 22.751l-81.691 81.691c-30.335 30.335-30.335 79.974 0 110.309l49.691 49.691c15.167 15.166 35.16 22.75 55.153 22.75 19.994 0 39.987-7.584 55.154-22.751l81.691-81.691c27.91-27.91 30.119-72.149 6.672-102.672l-32.67 32.67zm250.805-265.114l-49.691-49.691c-15.167-15.168-35.16-22.751-55.154-22.751-19.993 0-39.986 7.583-55.154 22.751l-81.691 81.691c-27.91 27.91-30.119 72.149-6.671 102.671l32.669-32.67c-2.279-4.525-3.494-9.58-3.494-14.847 0-8.808 3.372-17.03 9.496-23.154l81.691-81.691c6.124-6.124 14.347-9.497 23.154-9.497s17.03 3.373 23.154 9.497l49.691 49.691c6.124 6.124 9.496 14.347 9.496 23.154s-3.372 17.03-9.496 23.154l-81.691 81.691c-6.124 6.124-14.347 9.496-23.154 9.496-5.268 0-10.322-1.215-14.848-3.495l-32.669 32.669c13.936 10.705 30.72 16.08 47.517 16.08 19.994 0 39.987-7.584 55.154-22.751l81.691-81.691c30.335-30.333 30.335-79.972 0-110.307z"/></svg>