<svg xmlns="http://www.w3.org/2000/svg" viewBox="0 0 512 512"><path d="M159.965 352.034c8.803 8.803 23.209 8.803 32.012 0l160.059-160.059c8.805-8.803 8.805-23.208 0-32.012-8.802-8.803-23.208-8.803-32.012 0l-160.059 160.059c-8.803 8.803-8.803 23.209 0 32.012zm329.492-278.729l-50.765-50.763c-30.056-30.056-79.237-30.056-109.294 0l-82.775 82.775c-21.994 21.995-27.891 54.229-17.695 81.719l119.669-119.668c12.449-12.45 32.822-12.45 45.271 0l50.764 50.763c12.448 12.45 12.448 32.822 0 45.271l-119.667 119.667c27.487 10.195 59.723 4.301 81.717-17.695l82.775-82.773c30.058-30.058 30.058-79.239 0-109.296zm-326.054 371.327c-12.449 12.449-32.821 12.449-45.271 0l-50.762-50.764c-12.449-12.45-12.449-32.822 0-45.271l119.666-119.667c-27.489-10.196-59.725-4.3-81.719 17.695l-82.774 82.773c-30.057 30.06-30.057 79.24 0 109.297l50.764 50.763c30.056 30.058 79.239 30.058 109.293 0l82.777-82.774c21.994-21.994 27.891-54.229 17.694-81.719l-119.668 119.667z"/></svg>