<svg xmlns="http://www.w3.org/2000/svg" viewBox="0 0 512 512"><path d="M490.745 154.745l-69.49-69.49c-12.445-12.446-28.851-18.668-45.255-18.668s-32.81 6.222-45.255 18.667l-133.49 133.49c-24.891 24.89-24.891 65.62 0 90.509l2.745 2.747 31.819-31.82-2.745-2.745c-4.774-4.774-5.487-10.467-5.487-13.435 0-2.969.713-8.661 5.487-13.436l133.49-133.49c4.775-4.775 10.468-5.488 13.436-5.488s8.66.713 13.435 5.488l69.491 69.491c4.774 4.774 5.487 10.466 5.487 13.435s-.713 8.66-5.487 13.435l-133.491 133.49c-4.774 4.775-10.467 5.488-13.435 5.488s-8.66-.713-13.435-5.488l-2.745-2.746-31.82 31.82 2.745 2.746c12.445 12.445 28.851 18.668 45.255 18.668s32.81-6.223 45.255-18.668l133.49-133.491c24.891-24.89 24.891-65.619 0-90.509zm-176 48l-2.745-2.745-31.82 31.82 2.746 2.746c4.774 4.774 5.487 10.466 5.487 13.435s-.713 8.661-5.487 13.435l-133.491 133.49c-4.774 4.775-10.467 5.488-13.435 5.488-2.969 0-8.66-.713-13.436-5.488l-69.489-69.49c-7.283-7.282-7.283-19.587-.001-26.87l133.49-133.49c4.775-4.774 10.467-5.487 13.436-5.487 2.968 0 8.66.713 13.435 5.487l2.745 2.745 31.82-31.821-2.745-2.745c-12.445-12.445-28.851-18.667-45.255-18.667-16.405 0-32.81 6.222-45.255 18.667l-133.49 133.49c-24.891 24.891-24.891 65.62 0 90.511l69.49 69.49c12.445 12.445 28.85 18.668 45.255 18.668 16.404 0 32.81-6.223 45.255-18.668l133.49-133.491c24.891-24.891 24.891-65.62 0-90.51z"/></svg>