<svg xmlns="http://www.w3.org/2000/svg" viewBox="0 0 512 512"><path d="M448 288v66.098c-40.261 41.123-96.519 80.825-160 91.254v-189.352h96v-32l-96-37.465v-.006c37.282-13.18 64-48.731 64-90.529 0-53.02-42.98-96-96-96-53.021 0-96 42.98-96 96 0 41.798 26.715 77.35 64 90.529v.006l-96 37.465v32h96v189.352c-63.484-10.429-119.742-50.131-160-91.254v-66.098h-64v32c0 64 128 192 256 192s256-128 256-192v-32h-64zm-160-192c0 17.673-14.327 32-32 32-17.673 0-32-14.327-32-32s14.327-32 32-32c17.673 0 32 14.327 32 32z"/></svg>