<svg xmlns="http://www.w3.org/2000/svg" viewBox="0 0 512 512"><path d="M295.832 37.094c-11.314-33.643-144.83-23.179-185.568-22.186-3.879-8.779-12.236-14.908-21.88-14.908-13.315 0-24.207 11.638-24.207 25.86v460.281c0 14.223 10.893 25.859 24.207 25.859 13.313 0 24.205-11.637 24.205-25.859v-219.965c42.999-32.181 174.39-71.337 183.246-43.268 9.891 31.352 105.426 56.895 151.99 35.262v-203.115c-103.629 45.598-139.192 20.092-151.993-17.961zm-183.243 217.613v-224.327c14.322 33.588 40.826 118.993 0 224.327z"/></svg>