<svg xmlns="http://www.w3.org/2000/svg" viewBox="0 0 512 512"><path d="M128 32.5c19.393.786 33.686 2.681 46.365 6.903 19.163 6.381 35.674 19.009 55.209 42.224 54.165 64.364 108.925 91.826 183.107 91.826 7.729 0 15.767-.307 24.147-.925-10.09 11.872-20.705 23.466-31.729 34.059-15.453 14.849-30.499 26.521-44.72 34.692-14.99 8.612-29.547 13.609-43.263 14.851-1.81.164-3.533.243-5.271.243-16.82 0-29.746-7.817-49.442-20.573-22.574-14.618-50.668-32.812-91.546-32.812-13.692 0-27.906 2.034-42.859 6.161v-176.649m-31.998-32.5v256c30.587-15.262 54.737-21.011 74.859-21.011 61.341 0 85.367 53.384 140.988 53.384 2.648 0 5.354-.12 8.152-.373 79.729-7.221 147.031-99.564 192-160-38.205 8.835-70.726 13.453-99.318 13.453-66.72 0-112.085-25.129-158.623-80.43-48.177-57.25-84.689-61.023-158.058-61.023zm-96 0h64v512h-64z"/></svg>