<svg xmlns="http://www.w3.org/2000/svg" viewBox="0 0 512 512"><path d="M419.661 148.208c38.822 27.515 70.685 64.546 92.339 107.792-47.561 94.979-144.343 160-256 160-31.283 0-61.396-5.106-89.589-14.542l38.978-38.978c16.529 3.65 33.486 5.52 50.611 5.52 44.779 0 88.427-12.743 126.223-36.852 30.081-19.188 55.572-44.888 74.718-75.149-18.526-29.283-43.007-54.275-71.825-73.247l34.545-34.544zm-163.661 200.792c-11.362 0-22.376-1.488-32.864-4.267l156.593-156.592c2.781 10.486 4.271 21.497 4.271 32.859 0 70.692-57.308 128-128 128zm224-349h-26.869l-109.806 109.806c-27.538-8.962-56.877-13.806-87.325-13.806-111.659 0-208.441 65.021-256 160 21.329 42.596 52.564 79.154 90.597 106.534l-90.597 90.597v26.869h26.869l453.131-453.131v-26.869zm-272 157c24.022 0 43.923 17.647 47.446 40.685l-54.762 54.762c-23.037-3.524-40.684-23.425-40.684-47.447 0-26.51 21.49-48 48-48zm-152.942 99c19.146-30.262 44.637-55.962 74.717-75.148 1.959-1.25 3.938-2.461 5.929-3.65-4.979 13.664-7.704 28.411-7.704 43.798 0 29.262 9.825 56.224 26.349 77.781l-29.275 29.275c-28.036-18.821-51.877-43.386-70.016-72.056z"/></svg>