<svg xmlns="http://www.w3.org/2000/svg" viewBox="0 0 512 512"><path d="M256 320c35.346 0 64-28.654 64-64 0-13.627-4.271-26.249-11.531-36.628l151.68-176.959-24.297-20.825-151.669 176.947c-8.505-4.18-18.068-6.535-28.183-6.535-35.346 0-64 28.654-64 64 0 13.627 4.272 26.249 11.531 36.628l-151.679 176.959 24.296 20.826 151.669-176.947c8.505 4.179 18.067 6.534 28.183 6.534zm-90.564-32.098c-3.517-9.982-5.436-20.717-5.436-31.902 0-53.02 42.979-96 96-96 6.037 0 11.941.563 17.67 1.629l37.081-43.262c-17.998-4.049-36.374-6.367-54.751-6.367-128 0-255.999 111.999-256 144 0 18.815 44.258 65.279 106.74 100.381l58.696-68.479zm239.824-132.282l-58.695 68.478c3.516 9.982 5.435 20.717 5.435 31.902 0 53.02-42.98 96-96 96-6.037 0-11.941-.563-17.67-1.629l-37.081 43.262c17.999 4.049 36.374 6.367 54.751 6.367 128 0 255.997-111.999 256-144-.002-18.815-44.259-65.28-106.74-100.38z"/></svg>