<svg xmlns="http://www.w3.org/2000/svg" viewBox="0 0 512 512"><path d="M256 70.5c-74.095 0-140.032 36.302-172.742 57.941-21.921 14.502-42.094 31.101-56.803 46.74-17.801 18.927-26.455 34.895-26.455 48.818 0 13.924 8.654 29.892 26.456 48.819 14.709 15.639 34.882 32.238 56.803 46.74 32.709 21.639 98.647 57.942 172.741 57.942 74.094 0 140.031-36.303 172.741-57.942 21.92-14.502 42.093-31.101 56.803-46.74 17.801-18.926 26.455-34.894 26.456-48.815-.001-13.927-8.655-29.895-26.456-48.822-14.709-15.639-34.882-32.237-56.803-46.739-32.71-21.64-98.646-57.942-172.741-57.942zm-207.183 153.5c5.511-10.143 28.255-34.967 67.025-59.47 27.2-17.19 81.577-46.029 140.158-46.029 58.582 0 112.959 28.839 140.158 46.03 38.77 24.503 61.514 49.326 67.024 59.469-5.512 10.143-28.255 34.966-67.025 59.47-27.199 17.191-81.576 46.03-140.157 46.03s-112.958-28.839-140.157-46.03c-38.77-24.503-61.515-49.327-67.026-59.47zm143.183 0a64 64 2700 1 0 128 0 64 64 2700 1 0-128 0z" transform="scale(1 -1) translate(0 -480)"/></svg>