<svg xmlns="http://www.w3.org/2000/svg" viewBox="0 0 512 512"><path d="M92.959 357.768c-3.491-2.164-6.736-4.248-9.7-6.21-21.921-14.502-42.094-31.1-56.803-46.74-17.802-18.926-26.456-34.894-26.456-48.817 0-13.924 8.654-29.892 26.454-48.818 14.709-15.639 34.882-32.238 56.803-46.74 32.71-21.639 98.648-57.942 172.742-57.942 6.312 0 12.559.282 18.738.778l-34.203 47.884c-52.543 4.371-99.904 29.702-124.692 45.368-38.77 24.504-61.515 49.328-67.026 59.471 5.511 10.143 28.255 34.967 67.025 59.47 1.599 1.01 3.3 2.064 5.082 3.147l-27.964 39.149zm392.585-150.586c-14.71-15.639-34.883-32.238-56.803-46.74-16.325-10.8-40.938-25.242-70.702-37.007l57.422-80.392-30.922-22.087-320 448 30.922 22.088 70.088-98.124c27.191 9.628 58.037 16.58 90.451 16.58 74.095 0 140.031-36.302 172.741-57.941 21.921-14.502 42.094-31.101 56.803-46.739 17.801-18.927 26.455-34.895 26.456-48.822-.001-13.922-8.655-29.89-26.456-48.816zm-89.386 108.288c-27.199 17.191-81.576 46.03-140.158 46.03-21.332 0-42.102-3.827-61.207-9.521l29.037-40.651c9.453 5.51 20.44 8.673 32.17 8.673 35.347 0 64-28.653 64-64 0-19.321-8.572-36.626-22.11-48.357l31.258-43.76c28.146 9.813 51.818 23.046 67.01 32.647 38.771 24.504 61.514 49.327 67.025 59.47-5.511 10.143-28.255 34.966-67.025 59.469z"/></svg>