<svg xmlns="http://www.w3.org/2000/svg" viewBox="0 0 512 512"><path d="M256 160c-104.684 0-197.622 50.278-256 128 58.378 77.723 151.316 128 256 128s197.622-50.277 256-128c-58.378-77.722-151.316-128-256-128zm-32 64c17.673 0 32 14.327 32 32s-14.327 32-32 32-32-14.327-32-32 14.327-32 32-32zm162.808 128.648c-19.824 10.129-40.826 17.931-62.423 23.188-22.244 5.418-45.251 8.164-68.385 8.164-23.133 0-46.141-2.746-68.384-8.162-21.597-5.259-42.599-13.061-62.423-23.188-31.51-16.101-60.111-38.205-83.82-64.649 23.709-26.444 52.31-48.55 83.82-64.649 16.168-8.261 33.121-14.973 50.541-20.02-9.944 15.121-15.734 33.217-15.734 52.668 0 53.02 42.981 96 96 96s96-42.98 96-96c0-19.451-5.791-37.547-15.733-52.67 17.419 5.048 34.372 11.76 50.541 20.021 31.511 16.099 60.109 38.204 83.819 64.649-23.71 26.443-52.309 48.55-83.819 64.648zm43.651-230.787c-54.36-27.777-113.056-41.861-174.459-41.861-61.403 0-120.099 14.084-174.459 41.861-29.386 15.016-56.866 33.952-81.541 56.038v54.603c27.669-29.283 60.347-53.877 96.097-72.145 49.81-25.452 103.609-38.357 159.903-38.357s110.093 12.905 159.902 38.358c35.751 18.268 68.429 42.862 96.098 72.145v-54.603c-24.675-22.087-52.154-41.023-81.541-56.039z"/></svg>