<svg xmlns="http://www.w3.org/2000/svg" viewBox="0 0 512 512"><path d="M498.608 439.539l.008.006-3.505-3.545h-1.134c-4.219-2.932-9.083-5.615-14.487-8h7.711l-7.911-8h-24.88c-11.764-2.57-24.752-4-38.41-4-13.662 0-26.653 1.43-38.419 4.002l.009-.002h-84.852l4.356 8h55.415l.003-.001c-5.407 2.386-10.273 5.07-14.493 8.003l.003-.002h-36.57l4.356 8h22.901l.006-.006c-2.348 2.557-4.264 5.232-5.692 8.008l.001-.002h-12.858l4.356 8h5.812l.003-.014c-.22 1.324-.337 2.662-.337 4.014 0 1.348.117 2.681.334 4h-1.454l3.015 5.536.003-.001c8.844 21.942 47.613 38.465 94.102 38.465 53.02 0 96-21.49 96-48 0-8.935-4.888-17.298-13.392-24.461zm-167.853 2.369l-.002.002.002-.002zm-9.373 13.95l-.065.196.065-.196zm.802-2.067l-.117.27.117-.27zm-.824 18.285l.046.139-.046-.139zm-.754-2.683l.005.022-.005-.022zm.337 1.336l.033.118-.033-.118zm-141.728-50.729c-15.685-2.57-33.003-4-51.215-4-18.211 0-35.529 1.43-51.213 4h-39.876l-8.439 8h14.873l.056-.018c-7.228 2.389-13.731 5.078-19.37 8.018h-3.999l-8.44 8h.022c-7.453 6.089-11.614 12.861-11.614 20 0 26.51 57.308 48 128 48 65.084 0 118.82-18.216 126.937-41.794l.021.002 1.057-2.208h-.461c.29-1.319.446-2.652.446-4s-.156-2.683-.446-4.002v.002h4.29l3.829-8h-11.706c-1.902-2.771-4.455-5.445-7.581-8h23.116l3.828-8h-39.36l.002.001c-5.625-2.933-12.111-5.616-19.318-8.001h62.506l3.829-8h-99.775.001zm74.03 34.061l-.156-.27.156.27zm.999 1.993l-.086-.194.086.194zm-20.507-19.109zm198.403-336.945h-57.637l-8.441 8h62.25zm-7.658 16h-66.859l-8.439 8h71.469zm22.973-48h-39.193l-8.44 8h43.804zm-7.657 16h-48.416l-8.44 8h53.027zm15.315-32h-29.971l-8.441 8h34.583zm7.658-16h-20.75l-8.44 8h25.36zm15.315-32h-2.306l-8.44 8h6.917zm-7.658 16h-11.528l-8.439 8h16.139zm-61.261 128h-85.303l-8.44 8h89.915zm7.658-16h-76.082l-8.439 8h80.692zm-22.973 48h-103.748l-8.439 8h108.358zm7.658-16h-94.526l-8.439 8h99.136zm69.87 248l-7.91-8h-176.824l3.829-8h165.085l-7.911-8h-153.345l3.829-8h141.606l-7.91-8h-129.868l3.829-8h118.128l-7.91-8h-106.389l3.828-8h94.651l-7.91-8h-82.912l3.829-8h71.172l-7.91-8h-59.433l3.829-8h47.694l-7.911-8h-35.954l3.828-8h24.216l-7.91-8h-12.477l3.829-8h.737l-.497-.503 3.588-7.497h-11.001l-7.91-8h22.74l3.829-8h-34.479l-7.911-8h46.219l3.829-8h-57.958l-7.91-8h69.697l3.828-8h-81.436l-7.91-8h93.175l3.829-8h-104.914l-7.911-8h116.653l3.829-8h-112.968l-7.962 7.546-7.462-7.546h-87.058l4.358 8h89.683l-8.439 8h-76.888l4.357 8h64.091l-8.44 8h-51.294l4.357 8h38.497l-8.439 8h-25.701l4.357 8h12.904l-8.439 8h-.108l.036.067-8.369 7.933h12.69l4.356 8h-25.485l-8.44 8h38.282l4.357 8h-51.079l-8.44 8h63.876l4.357 8h-76.673l-8.44 8h89.47l4.357 8h-102.266l-8.44 8h115.063l4.357 8h-127.86l-8.439 8h140.656l4.357 8h-153.453l-8.44 8h166.249l4.358 8h-179.047l-8.44 8h191.843l4.358 8h-204.641l-8.439 8h217.436l4.357 8h-230.233l-8.44 8h237.465l2.603-5.438 2.962 5.438zm-357.276-320h40.864l-7.91-8h-37.31zm-17.427-32h26.65l-7.91-8h-23.097zm8.714 16h33.757l-7.911-8h-30.203zm-17.428-32h19.544l-7.911-8h-15.99zm-12.098-32l-7.91-8h-1.776l4.356 8zm55.667 112h55.077l-7.91-8h-51.524zm-52.283-96h12.437l-7.91-8h-8.884zm43.569 80h47.971l-7.91-8h-44.418zm26.142 48h69.291l-7.911-8h-65.737zm-8.714-16h62.184l-7.91-8h-58.631zm17.428 32h76.397l-7.91-8h-72.844zm8.714 16h83.504l-7.911-8h-79.95z"/></svg>