<svg xmlns="http://www.w3.org/2000/svg" viewBox="0 0 512 512"><path d="M256.001 40.007l40.548-40.007 26.195 50.579 50.926-25.521 9.286 56.201 56.32-8.534-8.536 56.319 56.202 9.287-25.52 50.925 50.578 26.196-40.007 40.548 40.007 40.548-50.578 26.196 25.52 50.925-56.202 9.287 8.536 56.319-56.32-8.534-9.286 56.201-50.926-25.521-26.195 50.579-40.548-40.007-40.55 40.007-26.196-50.579-50.924 25.521-9.287-56.201-56.319 8.534 8.536-56.319-56.201-9.287 25.519-50.925-50.579-26.196 40.008-40.548-40.008-40.548 50.579-26.196-25.519-50.925 56.201-9.287-8.536-56.319 56.319 8.534 9.287-56.201 50.924 25.521 26.196-50.579z"/></svg>