<svg xmlns="http://www.w3.org/2000/svg" viewBox="0 0 512 512"><path d="M489.923 362.834l-55.26-31.902 47.977-27.609-24.224-42.091-72.356 41.638-81.496-47.053 81.178-46.869 72.674 41.821 24.224-42.092-48.292-27.79 55.416-31.994-24.282-42.058-55.256 31.901.077-55.35-48.563-.068-.121 83.481-81.496 47.051v-93.739l72.556-42.025-24.341-42.023-48.215 27.927v-63.99h-48.564v63.807l-47.897-27.744-24.34 42.023 72.237 41.844v94.103l-81.179-46.868-.119-83.847-48.563.068.079 55.718-55.416-31.995-24.284 42.058 55.258 31.903-47.975 27.607 24.225 42.092 72.354-41.639 81.499 47.053-81.181 46.87-72.672-41.821-24.225 42.091 48.291 27.79-55.415 31.994 24.282 42.059 55.257-31.902-.077 55.351 48.563.068.119-83.482 81.497-47.053v93.741l-72.555 42.023 24.34 42.026 48.215-27.928v63.99h48.564v-63.806l47.897 27.744 24.341-42.026-72.238-41.842v-94.101l81.178 46.867.121 83.847 48.563-.068-.078-55.717 55.417 31.997z"/></svg>