<svg xmlns="http://www.w3.org/2000/svg" viewBox="0 0 512 512"><path d="M288 345.859v-185.859c0-17.673-14.326-32-32-32-17.673 0-32 14.327-32 32v185.859c-10.869 9.131-17.78 22.822-17.78 38.129 0 27.492 22.287 49.779 49.78 49.779 27.494 0 49.779-22.287 49.779-49.779.002-15.306-6.91-28.998-17.779-38.129zm64-46.543v-196.916c0-56.32-43.199-102.4-96-102.4-52.8 0-96 46.08-96 102.4v196.917c-19.919 22.565-32.014 52.205-32.014 84.672.002 70.699 57.316 128.011 128.015 128.011 70.699 0 128.013-57.313 128.013-128.012 0-32.467-12.094-62.105-32.014-84.672zm-95.999 180.684c-53.026 0-96.014-42.986-96.014-96.012 0-28.438 12.367-53.982 32.014-71.564v-210.024c0-19.079 6.94-36.99 19.546-50.435 12.07-12.874 27.857-19.965 44.454-19.965 16.595 0 32.384 7.091 44.455 19.966 12.605 13.444 19.544 31.355 19.544 50.434v210.023c19.646 17.582 32.014 43.127 32.014 71.563 0 53.028-42.986 96.014-96.013 96.014z"/></svg>