<svg xmlns="http://www.w3.org/2000/svg" viewBox="0 0 512 512"><path d="M445.502 148.031c-1.621-64.35-54.229-116.031-118.932-116.031-37.896 0-71.632 17.747-93.426 45.366-12.221-15.8-31.345-25.98-52.854-25.98-36.905 0-66.821 29.938-66.821 66.861 0 3.218.24 6.38.682 9.477-5.61-1.012-11.383-1.569-17.284-1.569-53.5-.001-96.867 43.393-96.867 96.921 0 53.531 43.367 96.924 96.865 96.924h82.737l21.333-64h170.842l-32 64h85.219v-.007c48.069-.091 87.004-39.104 87.004-87.222 0-41.044-28.34-75.45-66.498-84.74zm-125.502 139.969h-96l-32 96h64l-32 96 128-128h-64z"/></svg>