<svg xmlns="http://www.w3.org/2000/svg" viewBox="0 0 512 512"><path d="M445.502 148.031c38.158 9.29 66.498 43.696 66.498 84.74 0 48.118-38.935 87.131-87.004 87.223v.006h-328.131c-53.498 0-96.865-43.393-96.865-96.924 0-53.528 43.367-96.922 96.867-96.921 5.901 0 11.674.557 17.284 1.569-.442-3.097-.682-6.259-.682-9.477 0-36.923 29.916-66.861 66.821-66.861 21.509 0 40.633 10.181 52.854 25.98 21.794-27.619 55.531-45.366 93.427-45.366 64.702 0 117.31 51.681 118.931 116.031zm-333.502 203.969s48 64 48 112c0 26.51-21.49 48-48 48s-48-21.49-48-48c0-48 48-112 48-112zm288 0s48 64 48 112c0 26.51-21.49 48-48 48s-48-21.49-48-48c0-48 48-112 48-112zm-144-32s48 64 48 112c0 26.51-21.49 48-48 48s-48-21.49-48-48c0-48 48-112 48-112z"/></svg>