<svg xmlns="http://www.w3.org/2000/svg" viewBox="0 0 512 512"><path d="M445.502 148.031c38.158 9.29 66.498 43.696 66.498 84.74 0 48.118-38.935 87.131-87.004 87.223v.006h-328.131c-53.498 0-96.865-43.393-96.865-96.924 0-53.528 43.367-96.922 96.867-96.921 5.901 0 11.674.557 17.284 1.569-.442-3.097-.682-6.259-.682-9.477 0-36.923 29.916-66.861 66.821-66.861 21.509 0 40.633 10.181 52.854 25.98 21.794-27.619 55.531-45.366 93.427-45.366 64.702 0 117.31 51.681 118.931 116.031zm2.482 256.053c.153 2.498-.843 4.242-2.992 5.244l-55.422 22.674 55.422 22.889c2.15.853 3.146 2.529 2.992 5.021-.146 2.502-1.985 6.526-5.521 12.087-3.534 5.704-6.408 9.199-8.628 10.48-2.221 1.286-4.254 1.286-6.094 0l-48.992-33.155 6.44 56.047c.464 2.136-.55 3.775-2.995 4.916-2.453 1.142-7.207 1.713-14.263 1.713-7.052 0-11.807-.574-14.249-1.713-2.459-1.141-3.459-2.78-3-4.916l6.443-56.047-48.766 33.155c-1.84 1.286-3.914 1.286-6.207 0-2.301-1.281-5.219-4.776-8.741-10.48-3.542-5.561-5.331-9.585-5.409-12.087-.079-2.492.956-4.167 3.11-5.021l55.425-22.889-55.425-22.674c-2.154-.998-3.189-2.746-3.11-5.244.078-2.493 1.867-6.522 5.409-12.083 3.525-5.558 6.437-8.975 8.741-10.26 2.301-1.282 4.367-1.282 6.207 0l48.766 32.93-6.443-55.825c-.459-2.283.541-3.989 3-5.126 2.447-1.149 7.197-1.72 14.249-1.72 7.056 0 11.81.578 14.263 1.72 2.445 1.134 3.459 2.843 2.995 5.126l-6.44 55.825 48.992-32.93c1.84-1.282 3.876-1.282 6.094 0 2.22 1.286 5.094 4.776 8.628 10.474 3.537 5.416 5.368 9.371 5.521 11.869zm-224 0c.153 2.498-.843 4.242-2.992 5.244l-55.422 22.674 55.422 22.889c2.15.853 3.146 2.529 2.992 5.021-.146 2.502-1.985 6.526-5.521 12.087-3.534 5.704-6.408 9.199-8.628 10.48-2.221 1.286-4.254 1.286-6.094 0l-48.992-33.155 6.44 56.047c.464 2.136-.55 3.775-2.995 4.916-2.453 1.142-7.207 1.713-14.263 1.713-7.052 0-11.807-.574-14.249-1.713-2.459-1.141-3.459-2.78-3-4.916l6.443-56.047-48.766 33.155c-1.84 1.286-3.914 1.286-6.207 0-2.301-1.281-5.219-4.776-8.741-10.48-3.542-5.561-5.331-9.585-5.409-12.087-.079-2.492.956-4.167 3.11-5.021l55.425-22.889-55.425-22.674c-2.154-.998-3.189-2.746-3.11-5.244.078-2.493 1.867-6.522 5.409-12.083 3.525-5.558 6.437-8.975 8.741-10.26 2.301-1.282 4.367-1.282 6.207 0l48.766 32.93-6.443-55.825c-.459-2.283.541-3.989 3-5.126 2.447-1.149 7.197-1.72 14.249-1.72 7.056 0 11.81.578 14.263 1.72 2.445 1.134 3.459 2.843 2.995 5.126l-6.44 55.825 48.992-32.93c1.84-1.282 3.876-1.282 6.094 0 2.22 1.286 5.094 4.776 8.628 10.474 3.537 5.416 5.368 9.371 5.521 11.869z"/></svg>