<svg xmlns="http://www.w3.org/2000/svg" viewBox="0 0 512 512"><path d="M336 160c-26.51 0-48-21.49-48-48s21.49-48 48-48 48 21.49 48 48c0 2.305-.173 4.569-.486 6.788l31.675 4.525c.524-3.698.811-7.471.811-11.313 0-44.183-35.817-80-80-80s-80 35.817-80 80 35.817 80 80 80h176v-32h-176zm-272 224c0 53.019 42.981 96 96 96s96-42.981 96-96c0-8.032-.992-15.831-2.851-23.287l-31.056 7.764c1.24 4.97 1.907 10.169 1.907 15.523 0 35.347-28.654 64-64 64s-64-28.653-64-64 28.654-64 64-64h352v-32h-352c-53.019 0-96 42.979-96 96zm-32-240c0-44.183 35.817-80 80-80s80 35.817 80 80c0 11.811-2.58 23.012-7.174 33.103l29.157 13.253c6.432-14.127 10.017-29.822 10.017-46.356 0-61.856-50.144-112-112-112s-112 50.144-112 112c0 61.855 50.144 112 112 112h400v-32h-400c-44.182 0-80-35.817-80-80z"/></svg>