<svg xmlns="http://www.w3.org/2000/svg" viewBox="0 0 512 512"><path d="M460.453 252.301c-25.392-25.391-56.613-41.391-89.355-48.021l102.556-102.556c21.799-21.801 33.919-49.609-7.144-77.164-67.535-40.093-156.121-31.101-214.208 26.987-25.392 25.392-41.391 56.614-48.021 89.355l-102.556-102.556c-21.801-21.798-49.61-33.919-77.164 7.144-40.093 67.535-31.101 156.121 26.986 214.208 25.392 25.392 56.614 41.391 89.356 48.021l-102.556 102.557c-21.799 21.801-33.919 49.609 7.144 77.162 67.535 40.094 156.121 31.102 214.208-26.984 25.392-25.393 41.392-56.614 48.021-89.357l102.556 102.556c21.802 21.799 49.609 33.92 77.164-7.143 40.093-67.535 31.1-156.121-26.987-214.209zm-204.453 67.699c-35.346 0-64-28.653-64-64 0-35.346 28.654-64 64-64 35.347 0 64 28.654 64 64 0 35.347-28.653 64-64 64z"/></svg>