<svg xmlns="http://www.w3.org/2000/svg" viewBox="0 0 512 512"><path d="M287.933 33.98c126.313 15.718 224.067 123.45 224.067 254.02h-8.582c-11.067-19.124-31.731-32-55.417-32-23.685 0-44.349 12.876-55.416 32h-17.168c-11.067-19.124-31.731-32-55.416-32-11.662 0-22.588 3.127-32 8.579v167.421c0 44.112-35.888 80-80 80s-80-35.888-80-80c0-17.673 14.327-32 32-32 17.673 0 32 14.327 32 32 0 8.822 7.178 16 16 16s16-7.178 16-16v-167.422c-9.413-5.451-20.338-8.578-32-8.578-23.686 0-44.35 12.876-55.417 32h-17.167c-11.068-19.124-31.732-32-55.417-32-23.685 0-44.349 12.876-55.417 32h-8.583c0-130.57 97.754-238.302 224.067-254.02-.04-.655-.067-1.314-.067-1.98 0-17.673 14.327-32 32-32 17.673 0 32 14.327 32 32 0 .666-.027 1.325-.067 1.98z"/></svg>