<svg xmlns="http://www.w3.org/2000/svg" viewBox="0 0 512 512"><path d="M224 32c0-17.673 14.327-32 32-32 17.674 0 32 14.327 32 32 0 17.673-14.326 32-32 32-17.673 0-32-14.327-32-32zm0 448c0-17.673 14.327-32 32-32 17.674 0 32 14.327 32 32 0 17.673-14.326 32-32 32-17.673 0-32-14.327-32-32zm224-224c0-17.673 14.327-32 32-32 17.673 0 32 14.327 32 32 0 17.674-14.327 32-32 32-17.673 0-32-14.326-32-32zm-448 0c0-17.673 14.327-32 32-32 17.673 0 32 14.327 32 32 0 17.674-14.327 32-32 32-17.673 0-32-14.326-32-32zm384.001-160c0-17.673 14.327-32 32-32 17.673 0 32 14.327 32 32 0 17.673-14.327 32-32 32-17.673 0-32-14.327-32-32zm-320.001 320c0-17.673 14.327-32 32-32 17.673 0 32 14.327 32 32 0 17.673-14.327 32-32 32-17.673 0-32-14.327-32-32zm320.001 0c0-17.673 14.327-32 32-32 17.673 0 32 14.327 32 32 0 17.673-14.327 32-32 32-17.673 0-32-14.327-32-32zm-320.001-320c0-17.673 14.327-32 32-32 17.673 0 32 14.327 32 32 0 17.673-14.327 32-32 32-17.673 0-32-14.327-32-32zm192 96c-35.29 0-64 28.71-64 64s28.71 64 64 64 64-28.71 64-64-28.71-64-64-64zm0-64c70.692 0 128 57.308 128 128 0 70.692-57.308 128-128 128-70.692 0-128-57.308-128-128 0-70.692 57.308-128 128-128z"/></svg>