<svg xmlns="http://www.w3.org/2000/svg" viewBox="0 0 512 512"><path d="M459.975 224l45.606 56.965-65.807 31.536 16.375 71.112-72.974-.14-16.102 71.174-65.684-31.787-45.389 57.14-45.389-57.14-65.686 31.788-16.102-71.174-72.973.14 16.374-71.112-65.805-31.537 45.607-56.965-45.607-56.965 65.807-31.536-16.374-71.112 72.973.14 16.102-71.175 65.686 31.788 45.387-57.14 45.389 57.14 65.686-31.788 16.102 71.175 72.974-.14-16.375 71.112 65.807 31.536-45.608 56.965zm-203.975-164.5c-87.765 0-158.913 73.649-158.913 164.5s71.148 164.5 158.913 164.5c87.766 0 158.913-73.649 158.913-164.5s-71.147-164.5-158.913-164.5zm-128 164.5a128 128 4860 1 0 256 0 128 128 4860 1 0-256 0z" transform="scale(1 -1) translate(0 -480)"/></svg>