<svg xmlns="http://www.w3.org/2000/svg" viewBox="0 0 512 512"><path d="M256 211c-24.813 0-45 20.187-45 45s20.187 45 45 45 45-20.187 45-45-20.187-45-45-45zm0-51c53.02 0 96 42.98 96 96s-42.98 96-96 96-96-42.98-96-96 42.98-96 96-96zm182.627 233.373c12.498 12.497 12.497 32.758 0 45.254-12.497 12.498-32.757 12.498-45.254 0l-32-32c-12.498-12.497-12.498-32.757 0-45.254 12.496-12.497 32.757-12.498 45.254 0l32 32zm-288-288c12.498 12.497 12.497 32.758 0 45.254-12.497 12.498-32.757 12.498-45.254 0l-32-32c-12.498-12.497-12.498-32.757 0-45.254 12.496-12.497 32.757-12.498 45.254 0l32 32zm242.745-32c12.497-12.498 32.758-12.497 45.254 0 12.498 12.497 12.498 32.757.001 45.254l-32 32c-12.498 12.498-32.758 12.498-45.254 0-12.498-12.496-12.498-32.757 0-45.254l31.999-32zm-287.999 288c12.497-12.498 32.757-12.497 45.254 0 12.498 12.497 12.498 32.757 0 45.254l-32 32c-12.497 12.498-32.757 12.498-45.254 0-12.497-12.496-12.498-32.757 0-45.254l32-32zm150.627-329.373c17.673 0 32 14.327 32 32v32c0 17.673-14.327 32-32 32-17.673 0-32-14.327-32-32v-32c0-17.673 14.327-32 32-32zm0 352c17.673 0 32 14.326 32 32v32c0 17.674-14.327 32-32 32-17.673 0-32-14.326-32-32v-32c0-17.674 14.327-32 32-32zm-224-128c0-17.673 14.327-32 32-32h32c17.673 0 32 14.327 32 32 0 17.674-14.327 32-32 32h-32c-17.673 0-32-14.326-32-32zm352 0c0-17.673 14.326-32 32-32h32c17.674 0 32 14.327 32 32 0 17.673-14.326 32-32 32h-32c-17.674 0-32-14.327-32-32z"/></svg>