<svg xmlns="http://www.w3.org/2000/svg" viewBox="0 0 512 512"><path d="M224 384a32 32 2700 1 0 64 0 32 32 2700 1 0-64 0zm-128-32a32 32 2700 1 0 64 0 32 32 2700 1 0-64 0zm128-288a32 32 2700 1 0 64 0 32 32 2700 1 0-64 0zm128 32a32 32 2700 1 0 64 0 32 32 2700 1 0-64 0zm-288 128a32 32 2700 1 0 64 0 32 32 2700 1 0-64 0zm320 0a32 32 2700 1 0 64 0 32 32 2700 1 0-64 0zm-32 128a32 32 2700 1 0 64 0 32 32 2700 1 0-64 0zm-256-256a32 32 2700 1 0 64 0 32 32 2700 1 0-64 0zm160 224c-53.02 0-96-42.98-96-96s42.98-96 96-96 96 42.98 96 96-42.98 96-96 96zm0-141c-24.813 0-45 20.187-45 45s20.187 45 45 45 45-20.187 45-45-20.187-45-45-45z" transform="scale(1 -1) translate(0 -480)"/></svg>