<svg xmlns="http://www.w3.org/2000/svg" viewBox="0 0 512 512"><path d="M256 128c-70.692 0-128 57.308-128 128s57.308 128 128 128 128-57.308 128-128-57.308-128-128-128zm0 208v-160c44.112 0 80 35.888 80 80s-35.888 80-80 80zm0 80c17.673 0 32 14.327 32 32v32c0 17.673-14.327 32-32 32-17.673 0-32-14.327-32-32v-32c0-17.673 14.327-32 32-32zm0-320c-17.673 0-32-14.327-32-32v-32c0-17.673 14.327-32 32-32 17.673 0 32 14.327 32 32v32c0 17.673-14.327 32-32 32zm224 128c17.673 0 32 14.327 32 32 0 17.673-14.327 32-32 32h-32c-17.673 0-32-14.327-32-32 0-17.673 14.327-32 32-32h32zm-384 32c0 17.673-14.327 32-32 32h-32c-17.673 0-32-14.327-32-32 0-17.673 14.327-32 32-32h32c17.673 0 32 14.327 32 32zm318.392 113.137l22.628 22.628c12.496 12.496 12.496 32.758 0 45.255-12.497 12.496-32.759 12.496-45.255 0l-22.628-22.628c-12.496-12.496-12.496-32.758 0-45.255 12.497-12.496 32.759-12.496 45.255 0zm-316.784-226.274l-22.628-22.628c-12.497-12.497-12.497-32.758 0-45.255s32.758-12.497 45.255 0l22.628 22.628c12.497 12.497 12.497 32.758 0 45.255s-32.758 12.497-45.255 0zm316.784 0c-12.496 12.496-32.758 12.496-45.255 0-12.496-12.497-12.496-32.758 0-45.255l22.628-22.627c12.496-12.497 32.758-12.497 45.255 0 12.496 12.497 12.496 32.758 0 45.255l-22.628 22.627zm-316.784 226.274c12.496-12.496 32.758-12.496 45.254 0 12.497 12.497 12.497 32.759 0 45.255l-22.627 22.628c-12.497 12.496-32.758 12.496-45.255 0-12.497-12.497-12.497-32.759 0-45.255l22.628-22.628z"/></svg>