<svg xmlns="http://www.w3.org/2000/svg" viewBox="0 0 512 512"><path d="M256.661 512l-26.448-36.033c-32.472-44.238-70.793-76.045-107.854-106.805-31.139-25.844-60.55-50.256-82.931-79.527-26.531-34.697-39.428-72.055-39.428-114.209 0-79.085 67.112-143.426 149.604-143.426 28.833 0 57.551 10.134 83.049 29.306 8.305 6.245 16.154 13.389 23.352 21.197 7.195-7.808 15.041-14.951 23.346-21.196 25.494-19.172 54.211-29.307 83.044-29.307 82.493 0 149.605 64.341 149.605 143.426 0 40.521-12.92 76.971-39.499 111.429-22.229 28.82-51.254 53.197-81.983 79.006-37.83 31.771-76.948 64.623-108.27 109.488l-25.587 36.651zm-107.057-416c-47.203 0-85.604 35.631-85.604 79.426 0 62.126 41.624 96.673 99.233 144.49 29.444 24.438 61.92 51.393 92.271 85.654 30.285-35.332 63.626-63.332 93.853-88.719 28.007-23.521 54.461-45.738 72.467-69.083 18.103-23.47 26.176-45.781 26.176-72.342 0-43.795-38.402-79.426-85.605-79.426-23.976 0-58.52 17.647-77.708 56.393l-28.664 57.88-28.684-57.871c-19.207-38.751-53.76-56.402-77.735-56.402z"/></svg>