<svg xmlns="http://www.w3.org/2000/svg" viewBox="0 0 512 512"><path d="M256 480l-13.97-6.779c-9.883-4.795-242.03-119.45-242.03-293.734 0-81.325 67.738-147.487 151-147.487 39.83 0 77.258 15.237 105 41.462 27.742-26.225 65.17-41.462 105-41.462 83.262 0 151 66.162 151 147.487 0 174.284-232.147 288.938-242.03 293.733l-13.97 6.78zm-105-384c-47.972 0-87 37.452-87 83.487 0 67.976 54.123 127.616 99.526 165.68 36.25 30.39 73.062 52.351 92.474 63.081 19.412-10.73 56.224-32.691 92.474-63.081 45.403-38.063 99.526-97.704 99.526-165.68 0-46.035-39.028-83.487-87-83.487-32.336 0-61.831 17.07-76.974 44.55l-28.026 50.86-28.026-50.86c-15.143-27.48-44.638-44.55-76.974-44.55z"/></svg>