<svg xmlns="http://www.w3.org/2000/svg" viewBox="0 0 512 512"><path d="M482.257 185.558c-14.605 0-64.466-26.681-64.466-26.681-28.426-15.856-60.645-33.828-96.991-33.828-26.883 0-48.65 4.256-64.8 12.659-16.149-8.403-37.917-12.659-64.801-12.659-36.347 0-68.565 17.972-96.991 33.828 0 0-49.86 26.681-64.466 26.681-22.295 0-45.304 29.652-15.688 57.387 15.905 12.17 31.108 27.354 47.204 43.429 23.498 23.469 47.796 47.735 78.253 66.891 36.043 22.668 74.146 33.688 116.489 33.688 42.342 0 80.445-11.02 116.489-33.688 30.456-19.155 54.755-43.422 78.252-66.891 16.096-16.075 31.3-31.259 47.204-43.429 29.617-27.735 6.607-57.387-15.688-57.387zm-226.257 172.593c-112.285 0-159.638-88.491-224.444-138.08 22.842 17.479 148.484 66.579 224.444 66.579s201.602-49.101 224.443-66.579c-64.806 49.589-112.159 138.08-224.443 138.08zm0-117.901c-86.401 0-230.402-26.03-230.402-26.03l4.512-.141c55.732-3.22 104.998-60.229 161.09-60.229 57.601 0 64.801 21.6 64.801 21.6s7.2-21.6 64.8-21.6c56.092 0 105.357 57.01 161.091 60.229l4.511.141c-.002 0-144.003 26.03-230.403 26.03z"/></svg>