<svg xmlns="http://www.w3.org/2000/svg" viewBox="0 0 512 512"><path d="M496 336c0-16.458-8.978-30.977-22.654-39.624 4.222-7.146 6.654-15.476 6.654-24.376 0-26.51-21.49-48-48-48h-93.904c11.228-40.455 16.904-82.296 16.904-125 0-36.944-30.056-67-67-67-36.943 0-67 30.056-67 67 0 51.986-19.361 91.975-57.545 118.855-10.5 7.392-22.371 13.743-35.455 19.033v-44.888h-128v320h128v-31.499c29.945 1.966 44.484 9.461 58.595 16.747 14.044 7.253 28.566 14.752 53.405 14.752h160c26.51 0 48-21.49 48-48 0-6.249-1.207-12.213-3.38-17.688 20.385-5.543 35.38-24.171 35.38-46.312 0-8.9-2.432-17.23-6.654-24.376 13.676-8.647 22.654-23.166 22.654-39.624zm-160-80h96c8.822 0 16 7.178 16 16s-7.178 16-16 16h-96c-8.822 0-16-7.178-16-16s7.178-16 16-16zm-57.455 103.312c-13.537 8.487-22.545 23.532-22.545 40.688 0 17 8.846 31.925 22.177 40.453-3.926 6.958-6.177 14.987-6.177 23.547 0 5.611.973 10.994 2.742 16h-34.742c-17.064 0-26.149-4.691-38.723-11.185-15.874-8.196-35.193-18.16-73.277-20.364v-171.111c21.468-7.214 40.714-16.715 57.329-28.412 48.196-33.928 73.671-85.772 73.671-149.928 0-15.991 13.01-29 29-29s29 13.009 29 29c0 42.83-6.207 84.706-18.48 125-3.33 12.37-6.47 24.614-8.438 33.995-1.271 4.17-1.98 8.582-2.061 13.147-.015.301-.021.59-.021.855 0 8.9 2.432 17.229 6.654 24.376-13.675 8.65-22.654 23.169-22.654 39.627 0 8.462 2.381 16.408 6.545 23.312zm121.455 120.688h-80c-8.822 0-16-7.178-16-16s7.178-16 16-16h80c8.822 0 16 7.178 16 16s-7.178 16-16 16zm32-64h-128c-8.822 0-16-7.178-16-16s7.178-16 16-16h128c8.822 0 16 7.178 16 16s-7.178 16-16 16zm12-64h-120c-10.841 0-20-7.327-20-16s9.159-16 20-16h120c10.841 0 20 7.327 20 16s-9.159 16-20 16zm-380 112c0 8.837-7.164 16-16 16s-16-7.163-16-16 7.164-16 16-16 16 7.163 16 16z"/></svg>