<svg xmlns="http://www.w3.org/2000/svg" viewBox="0 0 512 512"><path d="M496 336c0-16.458-8.978-30.977-22.654-39.624 4.222-7.146 6.654-15.476 6.654-24.376 0-26.51-21.49-48-48-48h-93.904c11.228-40.455 16.904-82.296 16.904-125 0-36.944-30.056-67-67-67-36.943 0-67 30.056-67 67 0 51.986-19.361 91.975-57.545 118.855-10.5 7.392-22.371 13.743-35.455 19.033v-44.888h-128v320h128v-31.499c29.945 1.966 44.484 9.461 58.595 16.747 14.044 7.253 28.566 14.752 53.405 14.752h160c26.51 0 48-21.49 48-48 0-6.249-1.207-12.213-3.38-17.688 20.385-5.543 35.38-24.171 35.38-46.312 0-8.9-2.432-17.23-6.654-24.376 13.676-8.647 22.654-23.166 22.654-39.624zm-448 144c-8.836 0-16-7.163-16-16s7.164-16 16-16 16 7.163 16 16-7.164 16-16 16zm396-128h-28v32h16c8.822 0 16 7.178 16 16s-7.178 16-16 16h-32v32c8.822 0 16 7.178 16 16s-7.178 16-16 16h-160c-17.064 0-26.149-4.691-38.723-11.185-15.874-8.196-35.193-18.16-73.277-20.364v-171.111c21.468-7.214 40.714-16.715 57.329-28.412 48.196-33.928 73.671-85.772 73.671-149.928 0-15.991 13.01-29 29-29s29 13.009 29 29c0 42.83-6.207 84.706-18.48 125-3.099 11.509-6.033 22.913-8.012 32h141.49200000000002c8.822 0 16 7.178 16 16s-7.178 16-16 16h-16v32h28c10.841 0 20 7.327 20 16s-9.159 16-20 16z"/></svg>