<svg xmlns="http://www.w3.org/2000/svg" viewBox="0 0 512 512"><path d="M490.193 304c13.344-11.751 21.807-28.931 21.807-48 0-35.2-28.8-64-64-64h-160c-35.2 0-64-28.8-64-64v-64c0-35.2-28.8-64-64-64s-64 28.8-64 64v64c0 35.2-21.6 64-48 64s-48 28.8-48 64v128c0 70.692 57.308 128 128 128h288c35.2 0 64-28.8 64-64 0-13.154-4.024-25.414-10.9-35.612 24.912-8.771 42.9-32.575 42.9-60.388 0-19.069-8.463-36.249-21.807-48zm-244.386 96c-13.344 11.751-21.807 28.931-21.807 48 0 11.64 3.164 22.57 8.653 32h-104.653c-52.935 0-96-43.065-96-96v-128c0-19.538 10.506-32 16-32 22.751 0 44.438-11.518 59.5-31.6 13.22-17.626 20.5-40.498 20.5-64.4v-64c0-8.477 3.348-16.493 9.427-22.573 6.08-6.079 14.096-9.427 22.573-9.427s16.493 3.348 22.573 9.427c6.079 6.08 9.427 14.096 9.427 22.573v64c0 36.127 20.069 67.642 49.635 84.021-10.907 11.491-17.635 26.983-17.635 43.979 0 19.069 8.463 36.249 21.807 48-13.344 11.751-21.807 28.931-21.807 48s8.463 36.249 21.807 48zm192.765 70.572c-6.079 6.08-14.095 9.428-22.572 9.428h-128c-8.477 0-16.493-3.348-22.572-9.428-6.08-6.079-9.428-14.095-9.428-22.572s3.348-16.493 9.428-22.572c6.079-6.08 14.095-9.428 22.572-9.428h128c8.477 0 16.493 3.348 22.572 9.428 6.08 6.079 9.428 14.095 9.428 22.572s-3.348 16.493-9.428 22.572zm32-96c-6.079 6.08-14.095 9.428-22.572 9.428h-160c-8.477 0-16.493-3.348-22.572-9.428-6.08-6.079-9.428-14.095-9.428-22.572s3.348-16.493 9.428-22.572c6.079-6.08 14.095-9.428 22.572-9.428h160c8.477 0 16.493 3.348 22.572 9.428 6.08 6.079 9.428 14.095 9.428 22.572s-3.348 16.493-9.428 22.572zm0-96c-6.079 6.08-14.095 9.428-22.572 9.428h-160c-8.477 0-16.493-3.348-22.572-9.428-6.08-6.079-9.428-14.095-9.428-22.572 0-8.477 3.348-16.494 9.428-22.573 6.079-6.079 14.095-9.427 22.572-9.427h160c8.477 0 16.493 3.348 22.572 9.427 6.08 6.079 9.428 14.096 9.428 22.573s-3.348 16.493-9.428 22.572z"/></svg>