<svg xmlns="http://www.w3.org/2000/svg" viewBox="0 0 512 512"><path d="M21.807 208c-13.344 11.751-21.807 28.931-21.807 48 0 35.2 28.8 64 64 64h160c35.2 0 64 28.8 64 64v64c0 35.2 28.8 64 64 64s64-28.8 64-64v-64c0-35.2 21.6-64 48-64s48-28.8 48-64v-128c0-70.692-57.308-128-128-128h-288c-35.2 0-64 28.8-64 64 0 13.154 4.024 25.414 10.9 35.612-24.912 8.771-42.9 32.575-42.9 60.388 0 19.069 8.463 36.249 21.807 48zm244.386-96c13.344-11.751 21.807-28.931 21.807-48 0-11.64-3.164-22.57-8.652-32h104.652c52.935 0 96 43.065 96 96v128c0 19.538-10.506 32-16 32-22.752 0-44.438 11.518-59.5 31.6-13.22 17.627-20.5 40.498-20.5 64.4v64c0 8.477-3.348 16.493-9.428 22.572-6.079 6.08-14.095 9.428-22.572 9.428s-16.493-3.348-22.572-9.428c-6.08-6.079-9.428-14.095-9.428-22.572v-64c0-36.127-20.068-67.642-49.635-84.021 10.907-11.491 17.635-26.983 17.635-43.979 0-19.069-8.463-36.249-21.807-48 13.344-11.751 21.807-28.931 21.807-48s-8.463-36.249-21.807-48zm-192.765-70.572c6.079-6.08 14.095-9.428 22.572-9.428h128c8.477 0 16.493 3.348 22.572 9.428 6.08 6.079 9.428 14.095 9.428 22.572s-3.348 16.493-9.428 22.572c-6.079 6.08-14.095 9.428-22.572 9.428h-128c-8.477 0-16.493-3.348-22.572-9.428-6.08-6.079-9.428-14.095-9.428-22.572s3.348-16.493 9.428-22.572zm-32 96c6.079-6.08 14.095-9.428 22.572-9.428h160c8.477 0 16.493 3.348 22.572 9.428 6.08 6.079 9.428 14.095 9.428 22.572s-3.348 16.493-9.428 22.572c-6.079 6.08-14.095 9.428-22.572 9.428h-160c-8.477 0-16.493-3.348-22.572-9.428-6.08-6.079-9.428-14.095-9.428-22.572s3.348-16.493 9.428-22.572zm0 96c6.079-6.08 14.095-9.428 22.572-9.428h160c8.477 0 16.493 3.348 22.572 9.428 6.08 6.079 9.428 14.095 9.428 22.572s-3.348 16.494-9.428 22.572c-6.079 6.08-14.095 9.428-22.572 9.428h-160c-8.477 0-16.493-3.348-22.572-9.428-6.08-6.078-9.428-14.095-9.428-22.572s3.348-16.493 9.428-22.572z"/></svg>