<svg xmlns="http://www.w3.org/2000/svg" viewBox="0 0 512 512"><path d="M192 352h-160c-17.6 0-32-14.4-32-32v-128c0-17.6 14.4-32 32-32v128h16v-296c0-13.2 10.8-24 24-24s24 10.8 24 24v168h32v-168c0-13.2 10.8-24 24-24s24 10.8 24 24v296h16v-128c17.6 0 32 14.4 32 32v128c0 17.6-14.4 32-32 32zm-127.984 80.016a47.984 47.984 12780 1 0 95.968 0 47.984 47.984 12780 1 0-95.968 0zm415.984-80.016h-160c-17.6 0-32-14.4-32-32v-128c0-17.6 14.4-32 32-32v128h16v-296c0-13.2 10.8-24 24-24s24 10.8 24 24v168h32v-168c0-13.2 10.8-24 24-24s24 10.8 24 24v296h16v-128c17.6 0 32 14.4 32 32v128c0 17.6-14.4 32-32 32zm-127.984 80.016a47.984 47.984 12780 1 0 95.968 0 47.984 47.984 12780 1 0-95.968 0z" transform="scale(1 -1) translate(0 -480)"/></svg>