<svg xmlns="http://www.w3.org/2000/svg" viewBox="0 0 512 512"><path d="M405.369 258.501l-62.063 62.063-.207-.075c-22.545 22.545-31.862 31.511-54.42 31.511h-64c-22.557 0-31.875-8.966-54.42-31.511l-.704-.066-62.555-61.925v.003c-13-13.575-10.816-33.939.497-45.253l93.188 92.66-74.32-145.908h65.636v-159.436c0-13.257 10.745-24 24-24 13.254 0 24 10.743 24 24v159.436h32v-159.436c0-13.257 10.745-24 24-24s24 10.743 24 24v159.436h64.68l-73.372 147.027 94.059-93.917.005.076c11.307 11.313 13.565 31.743-.004 45.315zm-196.958 157.499a48 48 12780 1 0 96 0 48 48 12780 1 0-96 0z" transform="scale(1 -1) translate(0 -480)"/></svg>