<svg xmlns="http://www.w3.org/2000/svg" viewBox="0 0 512 512"><path d="M256 0c-141.384 0-256 114.615-256 256s114.616 256 256 256c141.385 0 256-114.615 256-256s-114.615-256-256-256zm208 256c0 47.478-15.812 92.519-44.924 129.135l-139.076-139.076v-196.684c46.477 5.307 89.506 25.975 123.078 59.547 39.286 39.286 60.922 91.519 60.922 147.078zm-232 206.625c-38.565-4.403-74.751-19.392-105.135-43.548l105.135-105.136v148.684zm48-148.684l105.135 105.135c-30.384 24.157-66.569 39.146-105.135 43.549v-148.684zm-171.078-205.019c33.572-33.572 76.601-54.24 123.078-59.547v196.684l-139.076 139.077c-29.112-36.617-44.924-81.658-44.924-129.136 0-55.559 21.636-107.792 60.922-147.078z"/></svg>