<svg xmlns="http://www.w3.org/2000/svg" viewBox="0 0 512 512"><path d="M224 352a32 32 2700 1 0 64 0 32 32 2700 1 0-64 0zm32 128c-141.385 0-256-114.615-256-256s114.615-256 256-256 256 114.615 256 256-114.615 256-256 256zm0-416c-17.674 0-32 14.326-32 32s14.326 32 32 32c17.673 0 32-14.326 32-32s-14.327-32-32-32zm0 160c-57.438 0-104-46.562-104-104s46.562-104 104-104c-114.875 0-208 93.125-208 208s93.125 208 208 208c57.438 0 104-46.562 104-104s-46.562-104-104-104z" transform="scale(1 -1) translate(0 -480)"/></svg>