<svg xmlns="http://www.w3.org/2000/svg" viewBox="0 0 512 512"><path d="M256-32c141.385 0 256 114.615 256 256s-114.615 256-256 256-256-114.615-256-256 114.615-256 256-256zm0 464c114.875 0 208-93.125 208-208s-93.125-208-208-208-208 93.125-208 208 93.125 208 208 208zm0-251.38c57.975 0 113.115 15.403 160 42.46-7.287-89.219-76.564-159.08-160-159.08-83.434 0-152.711 69.936-160 159.152 46.885-27.056 102.025-42.532 160-42.532zm-128 123.38a32 48 2700 1 0 64 0 32 48 2700 1 0-64 0zm192 0a32 48 2700 1 0 64 0 32 48 2700 1 0-64 0z" transform="scale(1 -1) translate(0 -480)"/></svg>