<svg xmlns="http://www.w3.org/2000/svg" viewBox="0 0 512 512"><path d="M256 512c141.385 0 256-114.615 256-256s-114.615-256-256-256-256 114.615-256 256 114.615 256 256 256zm0-464c114.875 0 208 93.125 208 208s-93.125 208-208 208-208-93.125-208-208 93.125-208 208-208zm-128 112c0-17.673 14.327-32 32-32 17.673 0 32 14.327 32 32 0 17.673-14.327 32-32 32-17.673 0-32-14.327-32-32zm192 0c0-17.673 14.327-32 32-32 17.673 0 32 14.327 32 32 0 17.673-14.327 32-32 32-17.673 0-32-14.327-32-32zm-160.049 230.37l-41.164-24.698c27.981-46.535 78.958-77.672 137.213-77.672 58.254 0 109.231 31.137 137.213 77.672l-41.164 24.698c-19.587-32.574-55.271-54.37-96.049-54.37-40.779 0-76.462 21.796-96.049 54.37z"/></svg>