<svg xmlns="http://www.w3.org/2000/svg" viewBox="0 0 512 512"><path d="M256 0c-141.385 0-256 114.615-256 256s114.615 256 256 256 256-114.615 256-256-114.615-256-256-256zm96 128c17.673 0 32 14.327 32 32s-14.327 32-32 32-32-14.327-32-32 14.327-32 32-32zm-192 0c17.673 0 32 14.327 32 32s-14.327 32-32 32-32-14.327-32-32 14.327-32 32-32zm192.049 262.37c-19.587-32.574-55.272-54.37-96.049-54.37-40.778 0-76.462 21.796-96.049 54.37l-41.164-24.698c27.98-46.535 78.958-77.672 137.213-77.672 58.254 0 109.232 31.137 137.213 77.672l-41.164 24.698z"/></svg>