<svg xmlns="http://www.w3.org/2000/svg" viewBox="0 0 512 512"><path d="M256-32c141.385 0 256 114.615 256 256s-114.615 256-256 256-256-114.615-256-256 114.615-256 256-256zm0 464c114.875 0 208-93.125 208-208s-93.125-208-208-208-208 93.125-208 208 93.125 208 208 208zm15.37-307.514c70.124 13.853 124.555 45.771 144.227 88.297-10.827-83.978-80.759-148.783-165.425-148.783-59.621 0-111.929 32.141-141.446 80.474 35.205-27.529 97.267-32.904 162.644-19.988zm48.63 179.514a32 48 2700 1 0 64 0 32 48 2700 1 0-64 0zm-144-9.75c-20.898 0-38.667-7.828-45.258-18.75-1.77 2.933-2.742 16.087-2.742 19.375 0 15.533 21.49 28.125 48 28.125s48-12.592 48-28.125c0-3.288-.972-16.442-2.742-19.375-6.591 10.922-24.36 18.75-45.258 18.75z" transform="scale(1 -1) translate(0 -480)"/></svg>