<svg xmlns="http://www.w3.org/2000/svg" viewBox="0 0 512 512"><path d="M256 0c-141.385 0-256 114.614-256 256 0 141.385 114.614 256 256 256 141.385 0 256-114.615 256-256 0-141.386-114.615-256-256-256zm96 128c17.673 0 32 21.49 32 48s-14.327 48-32 48-32-21.49-32-48 14.327-48 32-48zm-176 28.031c29.823 0 51 11.166 51 28.641 0 3.699 1.906 21.497-.085 24.797-7.414-12.288-27.405-21.094-50.915-21.094s-43.501 8.806-50.915 21.094c-1.991-3.3-.085-21.098-.085-24.797 0-17.475 21.177-28.641 51-28.641zm74.172 259.969c-59.621 0-111.929-32.14-141.446-80.476 35.205 27.53 97.267 32.905 162.644 19.989 70.124-13.853 124.555-45.771 144.227-88.297-10.827 83.98-80.759 148.784-165.425 148.784z"/></svg>