<svg xmlns="http://www.w3.org/2000/svg" viewBox="0 0 512 512"><path d="M256 0c-141.385 0-256 114.615-256 256s114.613 256 256 256c141.385 0 256-114.615 256-256s-114.615-256-256-256zm96 118c31.981 0 58 26.019 58 58 0 3.189-.273 6.438-.814 9.656-.809 4.816-4.979 8.344-9.862 8.344s-9.054-3.528-9.861-8.345c-3.08-18.342-18.835-26.655-37.463-26.655s-34.383 8.313-37.462 26.655c-.808 4.816-4.978 8.345-9.861 8.345h-.001c-4.883 0-9.053-3.528-9.861-8.344-.542-3.218-.815-6.467-.815-9.656 0-31.981 26.019-58 58-58zm-192 0c31.981 0 58 26.019 58 58 0 3.189-.274 6.438-.814 9.656-.809 4.816-4.978 8.344-9.862 8.344s-9.053-3.528-9.861-8.345c-3.08-18.342-18.835-26.655-37.463-26.655s-34.383 8.313-37.462 26.655c-.808 4.816-4.978 8.345-9.861 8.345-4.883 0-9.053-3.528-9.862-8.344-.541-3.218-.815-6.467-.815-9.656 0-31.981 26.019-58 58-58zm-64 170h96v123.923c-55.047-14.303-96-64.562-96-123.923zm128 128v-128h64v128h-64zm96-4.077v-123.923h96c0 59.361-40.952 109.62-96 123.923z"/></svg>