<svg xmlns="http://www.w3.org/2000/svg" viewBox="0 0 512 512"><path d="M256 0c-141.385 0-256 114.615-256 256s114.613 256 256 256c141.385 0 256-114.615 256-256s-114.615-256-256-256zm0 416c-24.229 0-47.192-5.398-67.771-15.041l16.581-27.638c15.678 6.856 32.983 10.679 51.19 10.679 46.604 0 87.386-24.909 109.771-62.139l27.441 16.467c-27.982 46.535-78.957 77.672-137.212 77.672zm160-224c0 17.6-14.4 32-32 32h-64c-17.6 0-32-14.4-32-32h-64c0 17.6-14.4 32-32 32h-64c-17.6 0-32-14.4-32-32v-48c0-8.8 7.2-16 16-16h96c8.8 0 16 7.2 16 16v16h64v-16c0-8.8 7.2-16 16-16h96c8.8 0 16 7.2 16 16v48z"/></svg>