<svg xmlns="http://www.w3.org/2000/svg" viewBox="0 0 512 512"><path d="M256 512c141.385 0 256-114.615 256-256s-114.615-256-256-256-256 114.615-256 256 114.615 256 256 256zm0-464c114.875 0 208 93.125 208 208s-93.125 208-208 208-208-93.125-208-208 93.125-208 208-208zm96.049 342.37c-19.587-32.574-55.272-54.37-96.049-54.37-40.778 0-76.462 21.796-96.049 54.37l-41.164-24.698c27.98-46.535 78.958-77.672 137.213-77.672 58.254 0 109.232 31.137 137.213 77.672l-41.164 24.698zm31.472-250.25c2.142 8.572-3.07 17.259-11.641 19.402-8.813 2.225-19.261 6.06-28.468 10.675 5.324 5.715 8.587 13.376 8.587 21.803 0 17.673-14.327 32-32 32-17.673 0-32-14.327-32-32 0-.585.018-1.165.049-1.742 1.016-23.727 22.606-39.473 40.796-48.569 17.371-8.685 34.551-13.03 35.274-13.211 8.573-2.144 17.259 3.069 19.403 11.642zm-255.042 0c2.144-8.573 10.83-13.786 19.403-11.642.723.181 17.903 4.526 35.274 13.211 18.19 9.096 39.78 24.842 40.796 48.569.031.577.049 1.157.049 1.742 0 17.673-14.327 32-32 32s-32-14.327-32-32c0-8.427 3.263-16.088 8.587-21.803-9.207-4.615-19.655-8.45-28.468-10.675-8.571-2.143-13.783-10.83-11.641-19.402z"/></svg>