<svg xmlns="http://www.w3.org/2000/svg" viewBox="0 0 512 512"><path d="M256 0c-141.385 0-256 114.615-256 256s114.615 256 256 256 256-114.615 256-256-114.615-256-256-256zm32.047 190.258c1.016-23.727 22.605-39.474 40.796-48.569 17.371-8.686 34.552-13.03 35.274-13.211 8.573-2.144 17.26 3.069 19.403 11.642 2.143 8.573-3.069 17.259-11.642 19.403-8.812 2.225-19.261 6.06-28.468 10.675 5.324 5.715 8.587 13.376 8.587 21.803 0 17.673-14.327 32-32 32s-32-14.327-32-32c.001-.585.019-1.166.05-1.743zm-159.568-50.138c2.144-8.573 10.83-13.786 19.403-11.642.723.181 17.903 4.526 35.274 13.211 18.19 9.096 39.78 24.842 40.796 48.569.031.577.049 1.157.049 1.742 0 17.673-14.327 32-32 32s-32-14.327-32-32c0-8.427 3.263-16.088 8.587-21.803-9.207-4.615-19.655-8.45-28.468-10.675-8.571-2.143-13.783-10.83-11.641-19.402zm223.57 250.25c-19.587-32.574-55.272-54.37-96.049-54.37-40.778 0-76.462 21.796-96.049 54.37l-41.164-24.698c27.98-46.535 78.958-77.672 137.213-77.672 58.254 0 109.232 31.137 137.213 77.672l-41.164 24.698z"/></svg>