<svg xmlns="http://www.w3.org/2000/svg" viewBox="0 0 512 512"><path d="M319.998 224c-17.673 0-32-14.327-31.999-32.001 0-.585.018-1.165.049-1.742 1.016-23.727 22.606-39.473 40.796-48.569 17.371-8.685 34.551-13.03 35.274-13.211 8.573-2.144 17.259 3.069 19.403 11.642 2.142 8.573-3.07 17.259-11.642 19.403-8.813 2.225-19.261 6.06-28.468 10.675 5.324 5.715 8.587 13.376 8.587 21.803 0 17.673-14.327 32-32 32zm-179.877-64.478c-8.572-2.143-13.784-10.83-11.641-19.402 2.143-8.573 10.83-13.786 19.403-11.642.722.181 17.903 4.525 35.274 13.211 18.191 9.095 39.78 24.842 40.796 48.569.031.577.049 1.158.049 1.742 0 17.673-14.327 32-32 32-17.673 0-32-14.327-32-32 0-8.427 3.263-16.088 8.587-21.803-9.207-4.615-19.656-8.45-28.468-10.675zm115.879 208.478c40.777 0 76.462-21.796 96.049-54.37l41.164 24.698c-27.981 46.535-78.958 77.672-137.213 77.672-58.255 0-109.232-31.137-137.213-77.672l41.164-24.698c19.587 32.574 55.271 54.37 96.049 54.37zm256-336c0-22.758-4.762-44.4-13.326-64-16.788 38.418-48.224 68.966-87.247 84.589-43.097-32.98-96.968-52.589-155.427-52.589s-112.33 19.609-155.427 52.589c-39.024-15.623-70.459-46.171-87.247-84.589-8.564 19.6-13.326 41.242-13.326 64 0 36.787 12.425 70.664 33.294 97.689-21.185 37.271-33.294 80.375-33.294 126.311 0 141.385 114.615 256 256 256s256-114.615 256-256c0-45.936-12.109-89.04-33.294-126.311 20.869-27.025 33.294-60.902 33.294-97.689zm-256 432c-114.875 0-208-93.125-208-208s93.125-208 208-208 208 93.125 208 208-93.125 208-208 208z"/></svg>