<svg xmlns="http://www.w3.org/2000/svg" viewBox="0 0 512 512"><path d="M256 0c-141.385 0-256 114.615-256 256s114.613 256 256 256c141.385 0 256-114.615 256-256s-114.615-256-256-256zm96 128c17.673 0 32 14.327 32 32 0 17.673-14.327 32-32 32s-32-14.327-32-32c0-17.673 14.327-32 32-32zm-192 0c17.673 0 32 14.327 32 32 0 17.673-14.327 32-32 32s-32-14.327-32-32c0-17.673 14.327-32 32-32zm183.505 277.28c-41.451 15.09-87.45-6.356-102.54-47.807-9.054-24.871-36.653-37.739-61.524-28.686-22.781 8.294-35.479 32.148-30.494 55.212h-32.43c-4.622-36.254 16.225-72.266 51.978-85.28 41.452-15.09 87.451 6.356 102.541 47.807 9.054 24.871 36.653 37.738 61.523 28.685 22.781-8.292 35.479-32.147 30.494-55.211h32.432c4.62 36.253-16.227 72.266-51.98 85.28z"/></svg>