<svg xmlns="http://www.w3.org/2000/svg" viewBox="0 0 512 512"><path d="M64 192h173.904c-11.228-40.455-16.904-50.296-16.904-93 0-36.944 30.056-67 67-67 36.943 0 67 30.056 67 67 0 51.986 19.361 75.975 57.545 102.855 1.134.798 2.289 1.581 3.455 2.355v-44.21h96v320h-96v-28.502c-31.831 2.151-40.56 11.096-51.223 22.042-8.226 8.445-18.464 18.956-37.015 26.638-19.477 8.065-44.823 11.822-79.762 11.822h-32.49c-30.969 0-56.163-25.634-56.163-57.143 0-5.235.712-10.438 2.095-15.45-9.855-10.498-15.482-24.501-15.482-39.407 0-5.234.712-10.438 2.095-15.449-9.855-10.499-15.482-24.503-15.482-39.408 0-9.018 2.071-17.55 5.744-25.143h-74.317c-35.347 0-64-28.653-64-64 0-35.346 28.653-64 64-64zm400 256c8.836 0 16-7.163 16-16s-7.164-16-16-16-16 7.163-16 16 7.164 16 16 16zm-397-160h128v32h-3.266c-13.323 0-24.163 11.279-24.163 25.143 0 8.685 4.234 16.645 11.327 21.293l12.394 8.122-7.149 12.979c-2.083 3.781-3.184 8.091-3.184 12.463 0 8.685 4.234 16.644 11.326 21.291l12.395 8.122-7.149 12.98c-2.083 3.781-3.184 8.091-3.184 12.464 0 13.863 10.84 25.143 24.163 25.143h32.49c63.281 0 76.044-19.103 89.556-32.975 13.794-14.16 29.245-29.992 75.444-33.364v-167.187c-7.878-4.132-15.35-8.632-22.329-13.545-48.196-33.929-73.671-69.773-73.671-133.929 0-15.991-15.01-29-31-29s-30 13.009-30 29c0 42.83 6.207 52.706 18.48 93 3.062 11.371 5.961 22.635 7.938 31.667l-218.418.333c-17.645 0-32 14.355-32 32s14.355 32 32 32z"/></svg>