<svg xmlns="http://www.w3.org/2000/svg" viewBox="0 0 512 512"><path d="M470.667 201.334c-12.445-12.445-32.811-12.445-45.255-.001l-13.917 13.917c-22.002 22.002-59.495 55.178-59.495 8.75v-160c0-17.6-14.4-32-32-32s-32 14.4-32 32v160c0 8.837-7.164 16-16 16s-16-7.163-16-16v-192c0-17.6-14.4-32-32-32s-32 14.4-32 32v192c0 8.837-7.164 16-16 16s-16-7.163-16-16v-160c0-17.6-14.4-32-32-32s-32 14.4-32 32v160c0 8.837-7.164 16-16 16s-16-7.163-16-16v-96c0-17.6-14.4-32-32-32s-32 14.4-32 32v160c0 64 32 224 192 224s188.627-175.373 269.255-256l9.412-9.412c12.445-12.444 12.445-32.81 0-45.254z"/></svg>