<svg xmlns="http://www.w3.org/2000/svg" viewBox="0 0 512 512"><path d="M160 448v-36.948l-83.808-11.778 5.444-38.74-81.636-23.409 105.845-369.125 326.033 93.488 17.87 2.512h62.252v384h-352zm-34.272-444.13l-89.858 313.371 49.843 14.292 43.922-312.522 95.897 13.478-99.804-28.619zm28.588 47.895l-45.37 322.828 51.054 7.174v-317.767h81.375l-87.059-12.235zm325.684 44.235h-288v320h288v-320zm-160 32h-96l32 128h32l74.667-74.667 21.333 42.667h32l32-96zm32 192a32 32 2700 1 0 64 0 32 32 2700 1 0-64 0z" transform="scale(1 -1) translate(0 -480)"/></svg>