<svg xmlns="http://www.w3.org/2000/svg" viewBox="0 0 512 512"><path d="M160 32v36.948l-83.808 11.778 5.444 38.74-81.636 23.409 105.845 369.125 326.033-93.488 17.87-2.512h62.252v-384h-352zm-34.272 444.13l-89.858-313.371 49.843-14.292 43.922 312.522 95.897-13.479-99.804 28.62zm28.588-47.895l-45.37-322.828 51.054-7.174v317.767h81.375l-87.059 12.235zm325.684-44.235h-288v-320h288v320zm-144-318c0 90.5 112 94 112 174 0 26.51-21.49 48-48 48s-48-21.49-48-48v32c0 32 0 64 32 64v16h-96v-16c32 0 32-32 32-64v-32c0 26.51-21.49 48-48 48s-48-21.49-48-48c0-80 112-83.5 112-174z"/></svg>