<svg xmlns="http://www.w3.org/2000/svg" viewBox="0 0 512 512"><path d="M160 32v36.948l-83.808 11.778 5.444 38.74-81.636 23.409 105.845 369.125 326.033-93.488 17.87-2.512h62.252v-384h-352zm-34.272 444.13l-89.858-313.371 49.843-14.292 43.922 312.522 95.897-13.479-99.804 28.62zm28.588-47.895l-45.37-322.828 51.054-7.174v317.767h81.375l-87.059 12.235zm325.684-44.235h-288v-320h288v320zm-34.369-210.685c1.53 4.271 2.369 9.767 2.369 16.685l-112 160-112-160c0-6.917.838-12.413 2.369-16.684 7.23-25.016 26.285-43.316 53.631-43.316 22.238 0 45.636 19.108 56 37.082 10.364-17.974 33.762-37.082 56-37.082 27.345 0 46.4 18.3 53.631 43.315z"/></svg>