<svg xmlns="http://www.w3.org/2000/svg" viewBox="0 0 512 512"><path d="M160 32v36.948l-83.808 11.778 5.444 38.74-81.636 23.409 105.845 369.125 326.033-93.488 17.87-2.512h62.252v-384h-352zm-34.272 444.13l-89.858-313.371 49.843-14.292 43.922 312.522 95.897-13.478-99.804 28.619zm28.588-47.895l-45.37-322.828 51.054-7.174v317.767h81.375l-87.059 12.235zm325.684-44.235h-288v-320h288v320zm-256-156h224v8h-224zm0 16h224v8h-224zm0 32h224v8h-224zm0-16h224v8h-224zm0 32h224v8h-224zm0 48h224v8h-224zm0-32h224v8h-224zm0 16h224v8h-224zm0-176h224v8h-224zm0-32h224v8h-224zm0 16h224v8h-224zm0-32h224v8h-224zm0 112h224v8h-224zm0-16h224v8h-224zm0-32h224v8h-224zm0 16h224v8h-224z"/></svg>