<svg xmlns="http://www.w3.org/2000/svg" viewBox="0 0 512 512"><path d="M256 400.638l-172.417-368.638h344.834l-172.417 368.638zm0 79.362c11.035 0 22.07-7.441 30.442-22.324l218.536-435.556c16.745-29.766 2.5-54.12-31.651-54.12h-434.654c-34.152 0-48.395 24.354-31.652 54.12l218.537 435.556c8.372 14.883 19.407 22.324 30.442 22.324zm-32-384a32 32 2700 1 0 64 0 32 32 2700 1 0-64 0zm32 192c17.673 0 32-14.327 32-32l-10-96h-44l-10 96c0 17.673 14.327 32 32 32z" transform="scale(1 -1) translate(0 -480)"/></svg>