<svg xmlns="http://www.w3.org/2000/svg" viewBox="0 0 512 512"><path d="M224 352h64v64h-64zm128-224c17.673 0 32 14.327 32 32v96l-96 64h-64v-32l96-64v-32h-160v-64h192zm-96-80c-55.559 0-107.792 21.636-147.078 60.922s-60.922 91.519-60.922 147.078 21.636 107.792 60.922 147.078 91.519 60.922 147.078 60.922 107.792-21.636 147.078-60.922 60.922-91.519 60.922-147.078-21.636-107.792-60.922-147.078-91.519-60.922-147.078-60.922zm0-48c141.385 0 256 114.615 256 256s-114.615 256-256 256-256-114.615-256-256 114.615-256 256-256z"/></svg>