<svg xmlns="http://www.w3.org/2000/svg" viewBox="0 0 512 512"><path d="M368 0h-224l-144 144v224l144 144h224l144-144v-224l-144-144zm24.897 368.006l-24.892 24.891c-6.846 6.845-18.046 6.845-24.89 0l-87.115-87.118-87.115 87.117c-6.845 6.844-18.046 6.844-24.89 0l-24.891-24.892c-6.845-6.846-6.845-18.046 0-24.89l87.116-87.114-87.116-87.115c-6.845-6.845-6.845-18.046 0-24.89l24.891-24.891c6.844-6.845 18.045-6.845 24.89 0l87.115 87.116 87.116-87.116c6.844-6.845 18.044-6.845 24.89 0l24.891 24.891c6.845 6.844 6.845 18.045 0 24.89l-87.116 87.115 87.116 87.116c6.844 6.844 6.844 18.044 0 24.89zm119.103-.006"/></svg>