<svg xmlns="http://www.w3.org/2000/svg" viewBox="0 0 512 512"><path d="M380.628 335.372l-45.256 45.256-79.372-79.373-79.373 79.372-45.255-45.255 79.373-79.372-79.372-79.373 45.254-45.254 79.373 79.372 79.372-79.373 45.256 45.255-79.373 79.373 79.373 79.372zm-124.628-261.372c-48.614 0-94.318 18.931-128.693 53.307-34.376 34.375-53.307 80.079-53.307 128.693 0 48.614 18.932 94.318 53.307 128.693 34.375 34.375 80.079 53.307 128.693 53.307 48.614 0 94.318-18.932 128.693-53.307 34.375-34.375 53.307-80.079 53.307-128.693 0-48.614-18.932-94.318-53.307-128.693-34.375-34.376-80.079-53.307-128.693-53.307zm0-42c123.712 0 224 100.288 224 224s-100.288 224-224 224c-123.711 0-224-100.288-224-224s100.289-224 224-224z"/></svg>