<svg xmlns="http://www.w3.org/2000/svg" viewBox="0 0 512 512"><path d="M286.745 180l-8 8h-45.49l-8.001-8zm23.999-24h-109.49l-8-8h125.49zm-15.999 16h-77.491l-8-8h93.49zm31.999-32h-141.49l-8-8h157.49zm-77.489 64l-8-8h29.49l-8 8zm-8 112l8-8h13.49l8 8zm-32.001 32l8-8h77.491l7.999 8zm-24 24h141.49l8 8h-157.49zm16-16h109.49l8 8h-125.49zm32.001-32h45.49l8 8h-61.491zm22.745-292c-123.711 0-224 100.288-224 224s100.289 224 224 224c123.712 0 224-100.288 224-224s-100.288-224-224-224zm192 224c0 1.336-.021 2.668-.049 4h-142.696l8 8h134.364c-.164 2.678-.378 5.345-.65 8h-125.714l8 8h116.725c-.389 2.682-.843 5.347-1.343 8h-107.382l8.001 8h97.694c-.626 2.684-1.303 5.353-2.043 8h-87.651l8 8h77.226c-.882 2.689-1.828 5.355-2.828 8h-66.397l8 8h55.16c-1.161 2.694-2.386 5.361-3.671 8h-43.489l5.372 5.372-2.629 2.628h36.609c-1.479 2.701-3.023 5.368-4.636 8h-39.973l-8 8h42.796c-1.852 2.71-3.776 5.377-5.773 8h-45.023l-8 8h46.591c-2.31 2.721-4.694 5.392-7.167 8h-47.424l-2.628 2.628-2.628-2.628h-173.49l-2.627 2.627-2.627-2.627h-47.423c-2.473-2.608-4.858-5.279-7.167-8h46.59l-8-8h-45.022c-1.997-2.623-3.922-5.29-5.773-8h42.795l-8-8h-39.974c-1.612-2.632-3.157-5.299-4.636-8h36.61l-2.628-2.628 5.372-5.372h-43.489c-1.286-2.639-2.51-5.306-3.671-8h55.16l8-8h-66.397c-1-2.645-1.947-5.311-2.828-8h77.226l8-8h-87.652c-.74-2.647-1.417-5.316-2.043-8h97.695l8-8h-107.383c-.5-2.653-.954-5.318-1.343-8h116.726l8-8h-125.713c-.273-2.655-.487-5.322-.651-8h134.364l8-8h-142.696c-.027-1.332-.049-2.664-.049-4s.021-2.668.049-4h142.696l-8-8h-134.364c.164-2.677.377-5.345.651-8h125.713l-8-8h-116.726c.39-2.682.843-5.347 1.343-8h107.383l-8-8h-97.696c.626-2.684 1.303-5.352 2.043-8h87.653l-8-8h-77.226c.881-2.689 1.829-5.355 2.829-8h66.399l-8-8h-55.163c1.162-2.694 2.386-5.361 3.671-8h43.491l-5.373-5.373 2.627-2.627h-36.609c1.479-2.701 3.024-5.368 4.636-8h39.973l8-8h-42.795c1.851-2.71 3.776-5.377 5.773-8h45.022l8-8h-46.59c2.309-2.721 4.694-5.392 7.167-8h47.423l2.627-2.627 2.627 2.627h173.49l2.628-2.628 2.628 2.628h47.424c2.473 2.608 4.857 5.279 7.167 8h-46.591l8 8h45.021c1.997 2.623 3.923 5.29 5.773 8h-42.794l8 8h39.973c1.612 2.632 3.157 5.299 4.636 8h-36.608l2.627 2.627-5.373 5.373h43.489c1.286 2.639 2.511 5.306 3.672 8h-55.161l-8 8h66.398c1 2.645 1.946 5.311 2.828 8h-77.227l-8 8h87.652c.74 2.648 1.417 5.316 2.043 8h-97.695l-8 8h107.383c.5 2.653.954 5.318 1.343 8h-116.725l-8 8h125.714c.272 2.655.486 5.323.65 8h-134.364l-8 8h142.696c.028 1.332.049 2.664.049 4zm-259.066 180c-6.289-2.34-12.45-5.005-18.459-8h171.05c-6.01 2.995-12.171 5.66-18.459 8h-134.132zm106.297 8c-12.767 2.637-25.894 4-39.231 4s-26.465-1.363-39.231-4h78.462zm-139.189-24c-4.096-2.507-8.106-5.176-12.024-8h223.963c-3.917 2.824-7.927 5.493-12.023 8h-199.916zm-22.368-16c-3.088-2.562-6.106-5.23-9.053-8h262.759c-2.947 2.77-5.965 5.438-9.054 8h-244.652zm189.392-328c6.288 2.339 12.449 5.005 18.459 8h-171.05c6.009-2.995 12.17-5.661 18.459-8h134.132zm-106.297-8c12.767-2.637 25.894-4 39.231-4s26.465 1.363 39.231 4h-78.462zm139.189 24c4.097 2.507 8.106 5.175 12.023 8h-223.962c3.918-2.825 7.928-5.493 12.024-8h199.915zm22.368 16c3.089 2.562 6.106 5.23 9.054 8h-262.759c2.947-2.77 5.965-5.438 9.053-8h244.652z"/></svg>