<svg xmlns="http://www.w3.org/2000/svg" viewBox="0 0 544 512"><path d="M445.02 461.02c-6.143 0-12.284-2.343-16.971-7.029-9.372-9.373-9.372-24.568 0-33.941 43.819-43.821 67.952-102.08 67.952-164.05 0-61.969-24.133-120.229-67.952-164.049-9.372-9.373-9.372-24.569 0-33.941 9.372-9.372 24.569-9.372 33.941 0 52.885 52.886 82.011 123.2 82.011 197.99 0 74.791-29.126 145.104-82.011 197.99-4.686 4.687-10.828 7.03-16.97 7.03zm-85.255-45.255c-6.143 0-12.284-2.343-16.971-7.029-9.372-9.372-9.372-24.568 0-33.941 65.503-65.503 65.503-172.085 0-237.588-9.372-9.373-9.372-24.569 0-33.941 9.372-9.371 24.569-9.372 33.941 0 40.797 40.796 63.265 95.038 63.265 152.734 0 57.695-22.468 111.938-63.265 152.735-4.686 4.687-10.828 7.03-16.97 7.03zm-85.255-45.255c-6.143 0-12.284-2.343-16.971-7.029-9.373-9.373-9.373-24.568 0-33.941 40.55-40.55 40.55-106.529 0-147.078-9.373-9.373-9.373-24.569 0-33.941 9.373-9.372 24.568-9.372 33.941 0 59.265 59.265 59.265 155.696 0 214.961-4.686 4.685-10.828 7.028-16.97 7.028zm-73.844-331.176c12.834-12.834 23.334-8.484 23.334 9.666v414c0 18.15-10.5 22.499-23.334 9.665l-120.666-120.665h-80v-192h80l120.666-120.666z"/></svg>