<svg xmlns="http://www.w3.org/2000/svg" viewBox="0 0 544 512"><path d="M445.02 461.02c-6.143 0-12.284-2.343-16.971-7.029-9.372-9.373-9.372-24.568 0-33.941 43.819-43.821 67.952-102.08 67.952-164.05 0-61.969-24.133-120.229-67.952-164.049-9.372-9.373-9.372-24.569 0-33.941 9.372-9.372 24.569-9.372 33.941 0 52.885 52.886 82.011 123.2 82.011 197.99 0 74.791-29.126 145.104-82.011 197.99-4.686 4.687-10.828 7.03-16.97 7.03zm-85.255-45.255c-6.143 0-12.284-2.343-16.971-7.029-9.372-9.372-9.372-24.568 0-33.941 65.503-65.503 65.503-172.085 0-237.588-9.372-9.373-9.372-24.569 0-33.941 9.372-9.371 24.569-9.372 33.941 0 40.797 40.796 63.265 95.038 63.265 152.734 0 57.695-22.468 111.938-63.265 152.735-4.686 4.687-10.828 7.03-16.97 7.03zm-85.255-45.255c-6.143 0-12.284-2.343-16.971-7.029-9.373-9.373-9.373-24.568 0-33.941 40.55-40.55 40.55-106.529 0-147.078-9.373-9.373-9.373-24.569 0-33.941 9.373-9.372 24.568-9.372 33.941 0 59.265 59.265 59.265 155.696 0 214.961-4.686 4.685-10.828 7.028-16.97 7.028zm-60.428-338.551c-3.802 0-8.433 2.392-13.416 7.375l-120.666 120.666h-80v192h80l120.666 120.665c4.983 4.982 9.615 7.376 13.417 7.376 5.99 0 9.918-5.938 9.918-17.041v-414c-.001-11.102-3.931-17.041-9.919-17.041zm-54.082 332.158l-60.118-60.117h-35.882v-96h35.882l60.118-60.118v216.235z"/></svg>