<svg xmlns="http://www.w3.org/2000/svg" viewBox="0 0 512 512"><path d="M256 104c-50.126 0-94.77 23.401-123.163 59.628l-38.388-28.791c37.16-47.882 95.747-78.837 161.551-78.837v-56l80 80-80 80v-56zm0 304c50.127 0 94.771-23.401 123.163-59.628l38.388 28.791c-37.16 47.882-95.747 78.837-161.551 78.837v56l-80-80 80-80v56zm-155.2-152c0 50.182 24.964 94.754 63.362 122.451l-28.792 38.39c-50.054-36.464-82.57-94.983-82.57-160.841h-52.8l80-80 80 80h-59.2zm358.4 0h52.8l-80 80-80-80h59.2c0-50.182-24.964-94.754-63.362-122.451l28.792-38.389c50.054 36.463 82.57 94.981 82.57 160.84z"/></svg>