<svg xmlns="http://www.w3.org/2000/svg" viewBox="0 0 512 512"><path d="M416 160h64v192c0 17.251-3.393 34.021-10.085 49.843-6.45 15.25-15.671 28.933-27.405 40.667-11.734 11.734-25.417 20.955-40.667 27.405-15.822 6.692-32.591 10.085-49.843 10.085-17.252 0-34.021-3.393-49.843-10.085-15.25-6.45-28.933-15.671-40.667-27.405-11.734-11.734-20.955-25.417-27.405-40.667-6.692-15.822-10.085-32.591-10.085-49.843v-192c0-35.346-28.654-64-64-64-35.346 0-64 28.654-64 64v192h-64v-192c0-17.251 3.393-34.021 10.085-49.843 6.45-15.25 15.671-28.932 27.405-40.667 11.735-11.734 25.417-20.955 40.667-27.405 15.822-6.692 32.592-10.085 49.843-10.085 17.251 0 34.021 3.393 49.843 10.085 15.25 6.45 28.932 15.671 40.667 27.405 11.734 11.735 20.955 25.417 27.405 40.667 6.692 15.822 10.085 32.592 10.085 49.843v192c0 35.347 28.654 64 64 64 35.346 0 64-28.654 64-64v-192z"/></svg>