<svg xmlns="http://www.w3.org/2000/svg" viewBox="0 0 512 512"><path d="M256 0c141.385 0 256 114.615 256 256s-114.615 256-256 256-256-114.615-256-256 114.615-256 256-256zm0 464c114.875 0 208-93.125 208-208s-93.125-208-208-208-208 93.125-208 208 93.125 208 208 208zm64-336c17.673 0 32 14.327 32 32s-14.327 32-32 32h-82.744l137.371 137.372c12.497 12.497 12.497 32.759 0 45.256-6.248 6.248-14.438 9.372-22.627 9.372s-16.379-3.124-22.627-9.372l-137.373-137.373v82.745c0 17.673-14.327 32-32 32s-32-14.327-32-32v-192h192z"/></svg>