<svg xmlns="http://www.w3.org/2000/svg" viewBox="0 0 512 512"><path d="M256 0c-141.385 0-256 114.615-256 256s114.615 256 256 256 256-114.615 256-256-114.615-256-256-256zm0 464c-114.875 0-208-93.125-208-208s93.125-208 208-208 208 93.125 208 208-93.125 208-208 208zm150.628-230.627l-128.001-128c-12.496-12.497-32.757-12.497-45.254 0s-12.497 32.758 0 45.255l73.372 73.372h-178.745c-17.673 0-32 14.327-32 32 0 17.673 14.327 32 32 32h178.745l-73.373 73.372c-12.497 12.497-12.497 32.759 0 45.256 6.249 6.248 14.439 9.372 22.628 9.372s16.379-3.124 22.627-9.372l128.001-128c12.496-12.497 12.496-32.759 0-45.255z"/></svg>