<svg xmlns="http://www.w3.org/2000/svg" viewBox="0 0 512 512"><path d="M256 512c-141.385 0-256-114.615-256-256s114.615-256 256-256 256 114.615 256 256-114.615 256-256 256zm0-464c-114.875 0-208 93.125-208 208s93.125 208 208 208 208-93.125 208-208-93.125-208-208-208zm-64 336c-17.673 0-32-14.327-32-32s14.327-32 32-32h82.744l-137.371-137.372c-12.497-12.497-12.497-32.759 0-45.256 6.248-6.248 14.438-9.372 22.627-9.372s16.379 3.124 22.627 9.372l137.373 137.373v-82.745c0-17.673 14.327-32 32-32s32 14.327 32 32v192h-192z"/></svg>