<svg xmlns="http://www.w3.org/2000/svg" viewBox="0 0 512 512"><path d="M512 256c0-141.385-114.615-256-256-256s-256 114.615-256 256 114.615 256 256 256 256-114.615 256-256zm-464 0c0-114.875 93.125-208 208-208s208 93.125 208 208-93.125 208-208 208-208-93.125-208-208zm230.627 150.628l128-128.001c12.497-12.496 12.497-32.757 0-45.254s-32.758-12.497-45.255 0l-73.372 73.372v-178.745c0-17.673-14.327-32-32-32-17.673 0-32 14.327-32 32v178.745l-73.372-73.373c-12.497-12.497-32.759-12.497-45.256 0-6.248 6.249-9.372 14.439-9.372 22.628s3.124 16.379 9.372 22.627l128 128.001c12.497 12.496 32.759 12.496 45.255 0z"/></svg>