<svg xmlns="http://www.w3.org/2000/svg" viewBox="0 0 512 512"><path d="M256 0c141.385 0 256 114.615 256 256s-114.615 256-256 256-256-114.615-256-256 114.615-256 256-256zm0 464c114.875 0 208-93.125 208-208s-93.125-208-208-208-208 93.125-208 208 93.125 208 208 208zm-150.628-230.627l128.001-128c12.496-12.497 32.757-12.497 45.254 0s12.497 32.758 0 45.255l-73.372 73.372h178.745c17.673 0 32 14.327 32 32 0 17.673-14.327 32-32 32h-178.745l73.373 73.372c12.497 12.497 12.497 32.759 0 45.256-6.249 6.248-14.439 9.372-22.628 9.372s-16.379-3.124-22.627-9.372l-128.001-128c-12.496-12.497-12.496-32.759 0-45.255z"/></svg>