<svg xmlns="http://www.w3.org/2000/svg" viewBox="0 0 512 512"><path d="M256 0c-141.385 0-256 114.615-256 256s114.615 256 256 256 256-114.615 256-256-114.615-256-256-256zm150.628 278.628l-128.001 128c-6.248 6.248-14.438 9.372-22.627 9.372s-16.379-3.124-22.627-9.372c-12.497-12.497-12.497-32.759 0-45.256l73.372-73.372h-178.745c-17.673 0-32-14.327-32-32 0-17.673 14.327-32 32-32h178.745l-73.373-73.373c-12.497-12.497-12.497-32.758 0-45.255s32.758-12.497 45.254 0l128.001 128c12.497 12.497 12.497 32.759.001 45.256z"/></svg>