<svg xmlns="http://www.w3.org/2000/svg" viewBox="0 0 512 512"><path d="M512 256c0-141.385-114.615-256-256-256s-256 114.615-256 256 114.615 256 256 256 256-114.615 256-256zm-278.628 150.628l-128-128.001c-6.248-6.248-9.372-14.438-9.372-22.627s3.124-16.379 9.372-22.627c12.497-12.497 32.759-12.497 45.256 0l73.372 73.372v-178.745c0-17.673 14.327-32 32-32 17.673 0 32 14.327 32 32v178.745l73.373-73.373c12.497-12.497 32.758-12.497 45.255 0s12.497 32.758 0 45.254l-128 128.001c-12.497 12.497-32.759 12.497-45.256.001z"/></svg>