<svg xmlns="http://www.w3.org/2000/svg" viewBox="0 0 512 512"><path d="M361.372 182.628l41.373 41.372h-293.49l41.373-41.372c6.248-6.249 9.372-14.439 9.372-22.628s-3.124-16.379-9.373-22.628c-12.497-12.496-32.758-12.496-45.255 0l-96 96c-12.497 12.498-12.497 32.759 0 45.255l96 96c12.497 12.497 32.758 12.497 45.255 0 12.497-12.496 12.497-32.758 0-45.254l-41.372-41.373h293.49l-41.373 41.372c-12.496 12.497-12.496 32.758 0 45.255 12.497 12.497 32.759 12.497 45.256 0l96-96c6.248-6.248 9.372-14.438 9.372-22.627s-3.124-16.379-9.372-22.628l-96-96c-12.497-12.496-32.759-12.496-45.256 0-12.496 12.498-12.496 32.758 0 45.256z"/></svg>