<svg xmlns="http://www.w3.org/2000/svg" viewBox="0 0 512 512"><path d="M329.372 361.372l-41.372 41.373v-293.49l41.372 41.373c6.249 6.248 14.439 9.372 22.628 9.372s16.379-3.124 22.628-9.373c12.496-12.497 12.496-32.758 0-45.255l-96-96c-12.498-12.497-32.758-12.497-45.255 0l-96 96c-12.497 12.497-12.497 32.758 0 45.255s32.758 12.497 45.255 0l41.372-41.372v293.49l-41.373-41.373c-12.497-12.496-32.758-12.496-45.255 0-12.497 12.497-12.497 32.759 0 45.256l96 96c6.249 6.248 14.439 9.372 22.628 9.372s16.379-3.124 22.628-9.372l96-96c12.496-12.497 12.496-32.759 0-45.256-12.498-12.496-32.758-12.496-45.256 0z"/></svg>