<svg xmlns="http://www.w3.org/2000/svg" viewBox="0 0 512 512"><path d="M256.001 0l-256.001 256h160v255.999l192 .001v-256h160l-255.999-256zm30.745 76l8 8h-77.49l8-8h61.49zm-53.49-8l8-8h29.49l8 8h-45.49zm69.49 24l8 8h-109.491l8-8h93.491zm16 16l8 8h-141.491l8-8h125.491zm16 16l8 8h-173.491l8-8h157.491zm16 16l7.999 8h-205.49l8-8h189.491zm15.999 16l8 8h-237.49l8-8h221.49zm16 16l8 8h-269.49l8-8h253.49zm16 16l8 8h-301.49l8-8h285.49zm16 16l8 8h-333.49l8-8h317.49zm-151.999-152h-13.49l6.745-6.745 6.745 6.745zm-70.746 184h128v8h-128v-8zm0 16h128v8h-128v-8zm0 16h128v8h-128v-8zm0 16h128v8h-128v-8zm0 16h128v8h-128v-8zm0 16h128v8h-128v-8zm0 16h128v8h-128v-8zm0 16h128v8h-128v-8zm0 16h128v8h-128v-8zm0 16h128v8h-128v-8zm0 16h128v8h-128v-8zm0 16h128v8h-128v-8zm0 16h128v8h-128v-8zm0 16h128v8h-128v-8zm0 16h128v8h-128v-8zm0 19.999v-3.999h128v4l-128-.001zm128-255.999v4h-128v-4h-114.745l4-4h349.49l4 4h-114.745z"/></svg>