<svg xmlns="http://www.w3.org/2000/svg" viewBox="0 0 512 512"><path d="M512 256.001l-256-256.001v160h-255.999l-.001 192h256v160l256-255.999zm-76 30.745l-8 8v-77.49l8 8v61.49zm8-53.49l8 8v29.49l-8 8v-45.49zm-24 69.49l-8 8v-109.491l8 8v93.491zm-16 16l-8 8v-141.491l8 8v125.491zm-16 16l-8 8v-173.491l8 8v157.491zm-16 16l-8 7.999v-205.49l8 8v189.491zm-16 15.999l-8 8v-237.49l8 8v221.49zm-16 16l-8 8v-269.49l8 8v253.49zm-16 16l-8 8v-301.49l8 8v285.49zm-16 16l-8 8v-333.49l8 8v317.49zm152-151.999v-13.49l6.745 6.745-6.745 6.745zm-184-70.746v128h-8v-128h8zm-16 0v128h-8v-128h8zm-16 0v128h-8v-128h8zm-16 0v128h-8v-128h8zm-16 0v128h-8v-128h8zm-16 0v128h-8v-128h8zm-16 0v128h-8v-128h8zm-16 0v128h-8v-128h8zm-16 0v128h-8v-128h8zm-16 0v128h-8v-128h8zm-16 0v128h-8v-128h8zm-16 0v128h-8v-128h8zm-16 0v128h-8v-128h8zm-16 0v128h-8v-128h8zm-16 0v128h-8v-128h8zm-19.999 0h3.999v128h-4l.001-128zm255.999 128h-4v-128h4v-114.745l4 4v349.49l-4 4v-114.745z"/></svg>