<svg xmlns="http://www.w3.org/2000/svg" viewBox="0 0 512 512"><path d="M0 255.999l256 256.001v-160h255.999l.001-192h-256v-160l-256 255.999zm76-30.745l8-8v77.49l-8-8v-61.49zm-8 53.49l-8-8v-29.49l8-8v45.49zm24-69.49l8-8v109.491l-8-8v-93.491zm16-16l8-8v141.491l-8-8v-125.491zm16-16l8-8v173.491l-8-8v-157.491zm16-16l8-7.999v205.49l-8-8v-189.491zm16-15.999l8-8v237.49l-8-8v-221.49zm16-16l8-8v269.49l-8-8v-253.49zm16-16l8-8v301.49l-8-8v-285.49zm16-16l8-8v333.49l-8-8v-317.49zm-152 151.999v13.49l-6.745-6.745 6.745-6.745zm184 70.746v-128h8v128h-8zm16 0v-128h8v128h-8zm16 0v-128h8v128h-8zm16 0v-128h8v128h-8zm16 0v-128h8v128h-8zm16 0v-128h8v128h-8zm16 0v-128h8v128h-8zm16 0v-128h8v128h-8zm16 0v-128h8v128h-8zm16 0v-128h8v128h-8zm16 0v-128h8v128h-8zm16 0v-128h8v128h-8zm16 0v-128h8v128h-8zm16 0v-128h8v128h-8zm16 0v-128h8v128h-8zm19.999 0h-3.999v-128h4l-.001 128zm-255.999-128h4v128h-4v114.745l-4-4v-349.49l4-4v114.745z"/></svg>