<svg xmlns="http://www.w3.org/2000/svg" viewBox="0 0 512 512"><path d="M400 504c-57.346 0-104-46.654-104-104v-56h-80v56c0 57.346-46.654 104-104 104s-104-46.654-104-104 46.654-104 104-104h56v-80h-56c-57.346 0-104-46.654-104-104s46.654-104 104-104 104 46.654 104 104v56h80v-56c0-57.346 46.654-104 104-104s104 46.654 104 104-46.654 104-104 104h-56v80h56c57.346 0 104 46.654 104 104s-46.654 104-104 104zm-56-104c0 30.879 25.121 56 56 56s56-25.121 56-56-25.121-56-56-56h-56v56zm-232-56c-30.878 0-56 25.121-56 56s25.122 56 56 56 56-25.121 56-56v-56h-56zm184-48v-80h-80v80h80zm104-128c30.879 0 56-25.122 56-56s-25.121-56-56-56-56 25.122-56 56v56h56zm-288-112c-30.878 0-56 25.122-56 56s25.122 56 56 56h56v-56c0-30.878-25.122-56-56-56z"/></svg>