<svg xmlns="http://www.w3.org/2000/svg" viewBox="0 0 512 512"><path d="M464 0h-416c-26.4 0-48 21.6-48 48v416c0 26.4 21.6 48 48 48h416c26.4 0 48-21.6 48-48v-416c0-26.4-21.6-48-48-48zm-16 448h-384v-384h384v384zm-288-64h192c17.6 0 32-14.4 32-32v-192c0-17.6-14.4-32-32-32h-192c-17.6 0-32 14.4-32 32v192c0 17.6 14.4 32 32 32zm0-36h192v3.942l-.058.058h-191.885l-.057-.058v-3.942zm.057-188h191.885l.058.058v3.942h-192v-3.943l.057-.057zm191.943 12v8h-192v-8h192zm0 16v8h-192v-8h192zm0 16v8h-192v-8h192zm0 16v8h-192v-8h192zm0 16v8h-192v-8h192zm0 16v8h-192v-8h192zm0 16v8h-192v-8h192zm0 16v8h-192v-8h192zm0 16v8h-192v-8h192zm0 16v8h-192v-8h192zm0 16v8h-192v-8h192z"/></svg>