<svg xmlns="http://www.w3.org/2000/svg" viewBox="0 0 512 512"><path d="M80 206c0-17.673-14.327-32-32-32s-32 14.327-32 32c0 11.843 6.438 22.175 16 27.708v278.292h32v-278.292c9.562-5.533 16-15.865 16-27.708zm80-46v74.848c-60.122 76.254-96 172.511-96 277.152h32c0-56.174 10.995-110.65 32.678-161.916 14.316-33.848 32.865-65.338 55.366-94.084h71.956v-71.956c28.746-22.501 60.236-41.049 94.084-55.366 51.266-21.683 105.742-32.678 161.916-32.678v-32c-104.641 0-200.899 35.878-277.152 96h-74.848zm73.708-128c-5.534-9.562-15.866-16-27.708-16-17.673 0-32 14.326-32 32s14.327 32 32 32c11.843 0 22.175-6.438 27.708-16h278.292v-32h-278.292zm-73.708 448h64v32h-64zm128 0h64v32h-64zm192-64v64h-64v32h96v-96zm0-256h32v64h-32zm0 128h32v64h-32z"/></svg>