<svg xmlns="http://www.w3.org/2000/svg" viewBox="0 0 512 512"><path d="M390.979 512c-27.208-.001-61.186-16.608-75.809-53.702-2.034-4.84-4.271-10.714-6.859-17.509-8.285-21.749-20.806-54.616-33.892-68.23-4.79-4.984-8.495-8.599-11.473-11.504-2.673-2.607-4.921-4.801-6.946-7.019-2.025 2.219-4.273 4.412-6.948 7.022-2.976 2.904-6.68 6.519-11.468 11.5-13.086 13.616-25.608 46.488-33.895 68.239-2.586 6.791-4.823 12.661-6.856 17.499-14.625 37.095-48.602 53.704-75.808 53.704-5.303 0-10.138-.646-14.373-1.918-26.772-8.046-43.012-37.939-40.411-74.386l.372-4.206c3.287-29.404 21.199-58.458 50.435-81.806 25.344-20.238 55.31-32.812 78.204-32.812 4.53 0 8.712.494 12.519 1.472l15.711-32.209c-16.148-40.414-39.152-100.774-57.123-153.646-10.015-29.463-17.448-53.594-22.094-71.721-7.352-28.691-6.883-38.393-3.916-44.132l8.601-16.636 107.053 219.465 107.046-219.464 8.602 16.635c2.967 5.739 3.438 15.441-3.915 44.132-4.646 18.126-12.079 42.257-22.093 71.72-17.97 52.868-40.974 113.229-57.123 153.646l15.711 32.209c3.806-.978 7.987-1.472 12.518-1.472 22.895 0 52.861 12.574 78.206 32.814 24.995 19.962 41.713 44.097 48.09 69.052l1.179-.564 1.535 17.522c2.603 36.445-13.635 66.338-40.404 74.386-4.235 1.272-9.071 1.918-14.373 1.918l-.003.001zm-44.138-71.052c18.936 34.353 35.854 39.491 44.263 39.491 11.447 0 20.018-9.238 21.691-18.169 1.097-5.871 1.296-11.914.592-17.961-2.837-24.156-19.338-44.898-32.678-58.044-18.334-18.065-38.889-30.062-52.085-35.3-1.313-.457-2.121-.526-2.489-.526-.255 0-.354.031-.355.031-3.843 2.496-8.438 31.52 21.061 90.478zm-163.711-89.983c-13.115 5.24-33.545 17.236-51.764 35.301-13.26 13.145-29.656 33.888-32.475 58.052-.704 6.03-.506 12.069.589 17.953 1.661 8.93 10.179 18.169 21.556 18.169 8.356 0 25.17-5.139 43.991-39.49 29.312-58.938 24.764-87.944 20.903-90.493l-.004.001-.32-.018c-.367-.001-1.168.068-2.476.525z"/></svg>