<svg xmlns="http://www.w3.org/2000/svg" viewBox="0 0 512 512"><path d="M148.95 0l-8.601 16.636c-2.967 5.739-3.436 15.441 3.916 44.132 4.646 18.127 12.079 42.257 22.094 71.721 12.645 37.202 27.779 78.103 41.266 113.162l30.575-62.683-89.25-182.968zm296.808 435.696l-1.535-17.522-1.179.564c-6.377-24.955-23.095-49.09-48.09-69.052-25.345-20.24-55.312-32.814-78.206-32.814-4.53 0-8.712.494-12.518 1.472l-15.711-32.209c16.149-40.417 39.153-100.779 57.123-153.646 10.014-29.463 17.447-53.594 22.093-71.72 7.353-28.691 6.882-38.393 3.915-44.132l-8.602-16.635-107.046 219.463v-.001l-32.52 66.671-15.711 32.209c-3.806-.978-7.989-1.472-12.519-1.472-22.894 0-52.86 12.574-78.204 32.812-29.236 23.348-47.148 52.402-50.434 81.806l-.372 4.206c-2.601 36.446 13.639 66.34 40.411 74.386 4.235 1.272 9.07 1.918 14.373 1.918 27.206 0 61.183-16.609 75.808-53.703 2.033-4.838 4.27-10.708 6.856-17.499 8.286-21.751 20.809-54.623 33.895-68.239 4.789-4.981 8.493-8.596 11.468-11.5 2.675-2.61 4.923-4.804 6.948-7.022 2.025 2.218 4.273 4.411 6.946 7.019 2.978 2.905 6.683 6.52 11.473 11.504 13.086 13.614 25.606 46.481 33.892 68.23 2.588 6.795 4.825 12.669 6.859 17.509 14.623 37.094 48.601 53.701 75.809 53.702h.002c5.302 0 10.138-.646 14.373-1.918 26.768-8.049 43.005-37.941 40.403-74.387zm-280.731 5.253c-18.821 34.352-35.635 39.49-43.991 39.49-11.377 0-19.895-9.239-21.556-18.169-1.095-5.884-1.293-11.923-.589-17.953 2.818-24.164 19.215-44.907 32.475-58.052 18.219-18.064 38.649-30.061 51.764-35.301 1.308-.457 2.109-.525 2.476-.525l.32.018.004-.001c3.861 2.549 8.409 31.556-20.903 90.493zm247.768 21.322c-1.674 8.931-10.244 18.169-21.691 18.169-8.408 0-25.327-5.139-44.263-39.491-29.499-58.958-24.904-87.982-21.062-90.478.001 0 .101-.031.355-.031.368 0 1.176.069 2.489.526 13.196 5.238 33.751 17.234 52.085 35.3 13.34 13.146 29.841 33.888 32.678 58.044.705 6.046.506 12.089-.591 17.961z"/></svg>