<svg xmlns="http://www.w3.org/2000/svg" viewBox="0 0 512 512"><path d="M320.771 238.502v-4.307c58.147-10.768 126.522-40.379 126.522-116.83 0-38.76-18.309-71.062-47.919-89.908-30.685-19.919-70.526-27.457-131.901-27.457h-235.273v27.995c56.53 5.383 64.606 10.229 64.606 77.528v300.417c0 65.894-7.625 71.844-64.807 77.559v28.501h200.479c67.297 0 128.134-11.846 168.513-33.919 46.303-24.224 75.37-65.681 75.37-117.369.001-75.37-61.374-111.98-155.59-122.21zm-128.77-161.514c0-16.151 1.615-27.459 7-33.379 4.846-4.306 18.846-10.229 36.609-10.229 44.15 0 87.221 26.918 87.221 98.522 0 64.068-35.535 93.678-113.062 93.678l-17.769-.001v-148.591zm60.303 401.094c-44.151 1.076-60.304-15.615-60.304-74.297h.001v-145.902h15.613c93.144 0 140.518 37.688 140.518 111.446 0 75.912-51.142 108.214-95.828 108.753z"/></svg>