<svg xmlns="http://www.w3.org/2000/svg" viewBox="0 0 512 512"><path d="M480 256v32h-90.957c17.024 22.881 26.957 50.395 26.957 80 0 79.529-71.635 144-160 144-82.356 0-150.167-56.002-159.012-128h64.992c3.503 14.155 11.605 27.37 23.697 38.253 18.448 16.603 43.423 25.747 70.323 25.747 26.9 0 51.875-9.144 70.323-25.747 16.558-14.902 25.677-34.17 25.677-54.253s-9.119-39.351-25.677-54.253c-18.448-16.603-43.423-25.747-70.323-25.747h-224v-32h448zm-224-32h-133.043c-17.024-22.881-26.957-50.395-26.957-80 0-79.529 71.634-144 160-144 82.355 0 150.167 56.002 159.011 128h-64.991c-3.504-14.155-11.606-27.37-23.697-38.252-18.448-16.604-43.423-25.748-70.323-25.748-26.9 0-51.875 9.144-70.323 25.748-16.558 14.901-25.677 34.169-25.677 54.252 0 20.083 9.119 39.351 25.677 54.252 18.448 16.604 43.423 25.748 70.323 25.748z"/></svg>