<svg xmlns="http://www.w3.org/2000/svg" viewBox="0 0 512 512"><path d="M336 48.084l119.917 103.916.083-.083-104-119.833 119.917 103.916.042-.042 24.041 24.042-168.18 168.18c-14.806 14.806-37.578 17.083-54.84 6.84l23.02-23.103-104-119.833.79.685 119.127 103.231.083-.083-104-119.833 119.917 103.916.083-.083-104-119.833 119.917 103.916.083-.083-104-119.833 119.917 103.916.083-.083-104-119.833 119.917 103.916.083-.083-104-119.833 119.917 103.916.083-.083-104-119.833 119.917 103.916.083-.083-104-119.833 119.917 103.916.083-.083-104-119.833 119.917 103.916.083-.083-104-119.833zm24.042-24.042l-8.042 8.042-16 16-16 16-16 16-16 16-16 16-16 16-16 16-16 16-16 16-15.947 15.947-31.071 30.987c-4.189-7.058-6.287-15.037-6.287-23.019 0-11.534 4.375-23.069 13.125-31.819l168.18-168.18 24.042 24.042zm-199.061 198.977l112 112-80.981 80.981h-192v-32z"/></svg>