<svg xmlns="http://www.w3.org/2000/svg" viewBox="0 0 512 512"><path d="M432 352c-22.58 0-42.96 9.369-57.506 24.415l-215.502-107.751c.657-4.126 1.008-8.353 1.008-12.664s-.351-8.538-1.008-12.663l215.502-107.751c14.546 15.045 34.926 24.414 57.506 24.414 44.183 0 80-35.817 80-80s-35.817-80-80-80-80 35.817-80 80c0 4.311.352 8.538 1.008 12.663l-215.502 107.752c-14.546-15.045-34.926-24.415-57.506-24.415-44.183 0-80 35.818-80 80 0 44.184 35.817 80 80 80 22.58 0 42.96-9.369 57.506-24.414l215.502 107.751c-.656 4.125-1.008 8.352-1.008 12.663 0 44.184 35.817 80 80 80s80-35.816 80-80c0-44.182-35.817-80-80-80z"/></svg>