<svg xmlns="http://www.w3.org/2000/svg" viewBox="0 0 512 512"><path d="M192 224a64 64 12780 1 0 128 0 64 64 12780 1 0-128 0zm64 128c35.346 0 67.346-14.327 90.51-37.49l45.255 45.255c-34.745 34.745-82.745 56.235-135.765 56.235-83.596 0-154.7-53.431-181.06-128h-74.94v-64h128c0 70.692 57.308 128 128 128zm128-128c0-70.692-57.308-128-128-128-35.346 0-67.346 14.327-90.51 37.49l-45.255-45.255c34.746-34.745 82.746-56.235 135.765-56.235 83.596 0 154.7 53.431 181.06 128h74.94v64h-128z" transform="scale(1 -1) translate(0 -480)"/></svg>