<svg xmlns="http://www.w3.org/2000/svg" viewBox="0 0 512 512"><path d="M426.655 0h-341.31c-46.94 0-85.345 38.392-85.345 85.329v341.328c0 46.938 38.405 85.343 85.345 85.343h341.311c46.969 0 85.344-38.405 85.344-85.343v-341.328c0-46.937-38.375-85.329-85.345-85.329zm-298.655 128h256c4.569 0 9.002.981 13.072 2.831l-141.072 164.584-141.072-164.585c4.07-1.848 8.503-2.83 13.072-2.83zm-32 224v-192c0-.67.028-1.336.07-2l93.832 109.47-92.799 92.8c-.722-2.669-1.103-5.443-1.103-8.27zm288 32h-256c-2.827 0-5.601-.381-8.27-1.103l91.059-91.059 45.211 52.748 45.212-52.747 91.058 91.059c-2.67.721-5.443 1.102-8.27 1.102zm32-32c0 2.827-.381 5.6-1.103 8.27l-92.799-92.799 93.832-109.471c.042.664.07 1.33.07 2v192z"/></svg>