<svg xmlns="http://www.w3.org/2000/svg" viewBox="0 0 512 512"><path d="M426.671 0h-341.328c-46.937 0-85.343 38.405-85.343 85.345v341.311c0 46.969 38.406 85.344 85.343 85.344h341.328c46.938 0 85.329-38.375 85.329-85.345v-341.31c0-46.94-38.391-85.345-85.329-85.345zm-335.357 443.313l-38.628-38.627 128-128 14.628 14.627-104 152zm-14.628-343.999l14.628-14.628 164.686 132.687 164.687-132.687 14.627 14.628-179.314 211.313-179.314-211.313zm344.001 343.999l-104-152 14.627-14.627 128 128-38.627 38.627z"/></svg>