<svg xmlns="http://www.w3.org/2000/svg" viewBox="0 0 512 512"><path d="M256 0c-141.385 0-256 114.615-256 256s114.615 256 256 256 256-114.615 256-256-114.615-256-256-256zm-128 128h256c4.569 0 9.002.981 13.072 2.831l-141.072 164.584-141.072-164.585c4.07-1.848 8.503-2.83 13.072-2.83zm-32 224v-192c0-.67.028-1.336.07-2l93.832 109.471-92.799 92.799c-.722-2.668-1.103-5.443-1.103-8.27zm288 32h-256c-2.827 0-5.601-.381-8.27-1.104l91.059-91.059 45.211 52.749 45.212-52.747 91.058 91.06c-2.67.72-5.443 1.101-8.27 1.101zm32-32c0 2.827-.381 5.6-1.103 8.27l-92.8-92.799 93.833-109.471c.042.664.07 1.33.07 2v192z"/></svg>