<svg xmlns="http://www.w3.org/2000/svg" viewBox="0 0 512 512"><path d="M279.533 32h-133.97c-60.06 0-116.585 45.503-116.585 98.211 0 53.863 40.941 97.333 102.044 97.333 4.249 0 8.378-.085 12.421-.376-3.965 7.593-6.801 16.144-6.801 25.021 0 14.969 8.052 27.105 18.234 37.012-7.693 0-15.121.224-23.226.224-74.391-.001-131.65 47.379-131.65 96.51 0 48.389 62.771 78.657 137.167 78.657 84.812 0 131.653-48.122 131.653-96.514 0-38.8-11.448-62.036-46.843-87.067-12.108-8.572-35.265-29.418-35.265-41.672 0-14.36 4.098-21.434 25.714-38.323 22.156-17.312 37.836-41.651 37.836-69.958 0-33.703-15.01-66.549-43.186-77.386h42.477l29.98-21.672zm-46.793 327.729c1.063 4.486 1.642 9.103 1.642 13.814 0 39.1-25.196 69.655-97.487 69.655-51.421 0-88.558-32.552-88.558-71.65 0-38.321 46.063-70.222 97.482-69.666 12 .127 23.184 2.058 33.335 5.345 27.913 19.413 47.938 30.381 53.586 52.502zm-82.331-145.841c-34.519-1.032-67.318-38.613-73.276-83.93-5.958-45.333 17.185-80.021 51.694-78.995 34.505 1.037 67.319 37.407 73.279 82.729 5.953 45.33-17.195 81.229-51.697 80.196zm265.591-85.888v-96h-32v96h-96v32h96v96h32v-96h96v-32z"/></svg>