<svg xmlns="http://www.w3.org/2000/svg" viewBox="0 0 512 512"><path d="M426.756 0h-342.135c-47.05 0-84.621 38.893-84.621 85.939v340.176c0 48.211 37.571 85.885 84.621 85.885h342.134c47.048 0 85.245-37.674 85.245-85.885v-340.176c0-47.046-38.197-85.939-85.244-85.939zm-74.756 16v80h-80v-80h80zm-112 0v80h-80v-80h80zm-224 80v-10.061c0-38.564 30.783-69.939 68.621-69.939h43.379v80h-112zm368 224h-96v96h-64v-96h-96v-64h96v-96h64v96h96v64zm112-224h-112v-80h42.756c38.182 0 69.244 31.375 69.244 69.939v10.061z"/></svg>