<svg xmlns="http://www.w3.org/2000/svg" viewBox="0 0 512 512"><path d="M218.503 409.081c0 37.534-23.195 67.196-88.879 69.588-38.492-21.893-70.745-53.476-93.454-91.433 11.845-29.248 48.846-51.523 91.158-51.057 12.011.126 23.205 2.057 33.372 5.35 27.954 19.433 50.5 31.576 56.162 53.724 1.057 4.482 1.641 9.103 1.641 13.828zm37.497-409.081c-73.97 0-140.598 31.385-187.333 81.549 18.467-10.226 40.269-16.319 63.451-16.319h128.219l-28.652 30.07h-33.655c23.748 13.606 36.376 41.624 36.376 72.506 0 28.346-15.708 51.19-37.89 68.529-21.64 16.901-25.746 23.983-25.746 38.367 0 12.271 25.861 30.549 37.75 39.468 41.409 31.056 49.789 50.592 49.789 89.435 0 39.363-34.468 78.552-92.933 91.871 28.174 10.669 58.713 16.524 90.624 16.524 141.385 0 256-114.615 256-256s-114.615-256-256-256zm128 192v64h-32v-64h-64v-32h64v-64h32v64h64v32h-64zm-201.116-22.264c5.961 45.388-13.923 74.595-48.467 73.567-34.563-1.041-67.403-32.746-73.37-78.121-5.964-45.394 17.209-80.127 51.765-79.098 34.545 1.037 64.11 38.271 70.072 83.652zm-72.441 151.298c-37.34 0-69.064 12.884-91.421 31.932-12.251-29.91-19.022-62.645-19.022-96.966 0-28.383 4.628-55.684 13.156-81.198 3.687 49.721 38.676 88.096 96.485 88.096 4.257 0 8.382-.221 12.437-.511-3.975 7.615-6.811 16.095-6.811 24.991 0 14.985 8.244 23.535 18.434 33.447-7.701 0-15.135.209-23.258.209z"/></svg>