<svg xmlns="http://www.w3.org/2000/svg" viewBox="0 0 512 512"><path d="M427 0h-342c-46.75 0-85 38.25-85 85v342c0 46.75 38.25 85 85 85h342c46.75 0 85-38.25 85-85v-342c0-46.75-38.25-85-85-85zm-263.1 224h184.2c3.494 10.029 5.4 20.795 5.4 32 0 53.762-43.738 97.5-97.5 97.5s-97.5-43.738-97.5-97.5c0-11.205 1.906-21.971 5.4-32zm284.1.025v191.975c0 17.6-14.4 32-32 32h-320c-17.6 0-32-14.4-32-32v-192h50.054c-2.321 10.301-3.554 21.008-3.554 32 0 80.229 65.271 145.5 145.5 145.5s145.5-65.271 145.5-145.5c0-10.992-1.232-21.699-3.554-32h50.054v.025zm0-112.025c0 8.8-7.2 16-16 16h-32c-8.8 0-16-7.2-16-16v-32c0-8.8 7.2-16 16-16h32c8.8 0 16 7.2 16 16v32z"/></svg>