<svg xmlns="http://www.w3.org/2000/svg" viewBox="0 0 512 512"><path d="M426.671 0h-341.328c-46.937 0-85.343 38.405-85.343 85.345v341.311c0 46.969 38.406 85.344 85.343 85.344h341.328c46.938 0 85.329-38.375 85.329-85.345v-341.31c0-46.94-38.391-85.345-85.329-85.345zm-7.645 170.917c.164 3.671.245 7.364.245 11.074 0 113.107-84.608 243.534-239.329 243.534-47.502 0-91.717-14.174-128.943-38.459 6.58.794 13.276 1.197 20.065 1.197 39.411 0 75.679-13.685 104.467-36.641-36.808-.69-67.872-25.438-78.577-59.441 5.137 1 10.406 1.537 15.826 1.537 7.672 0 15.103-1.048 22.16-3.004-38.48-7.866-67.475-42.458-67.475-83.928 0-.361 0-.719.008-1.076 11.34 6.41 24.312 10.26 38.1 10.705-22.571-15.349-37.421-41.546-37.421-71.244 0-15.685 4.147-30.389 11.389-43.029 41.487 51.785 103.468 85.86 173.377 89.431-1.435-6.266-2.179-12.798-2.179-19.507 0-47.269 37.663-85.59 84.115-85.59 24.195 0 46.059 10.393 61.401 27.029 19.16-3.838 37.162-10.96 53.416-20.771-6.281 19.988-19.617 36.761-36.983 47.355 17.013-2.069 33.226-6.67 48.31-13.477-11.273 17.162-25.535 32.238-41.972 44.305z"/></svg>