<svg xmlns="http://www.w3.org/2000/svg" viewBox="0 0 512 512"><path d="M256 0c-141.385 0-256 114.615-256 256s114.615 256 256 256 256-114.615 256-256-114.615-256-256-256zm147.121 180.544c.146 3.254.221 6.528.221 9.819 0 100.311-76.354 215.982-215.979 215.982-42.868 0-82.768-12.568-116.363-34.107 5.938.704 11.981 1.063 18.108 1.063 35.565 0 68.295-12.138 94.275-32.497-33.217-.61-61.25-22.561-70.912-52.716 4.637.884 9.392 1.361 14.283 1.361 6.923 0 13.629-.928 19.999-2.662-34.726-6.976-60.893-37.656-60.893-74.434 0-.32 0-.639.008-.955 10.235 5.685 21.939 9.1 34.382 9.494-20.37-13.611-33.77-36.846-33.77-63.184 0-13.911 3.744-26.952 10.278-38.162 37.439 45.927 93.374 76.146 156.462 79.314-1.294-5.559-1.965-11.351-1.965-17.302 0-41.92 33.99-75.906 75.909-75.906 21.833 0 41.562 9.218 55.409 23.97 17.29-3.404 33.537-9.721 48.206-18.42-5.668 17.727-17.705 32.603-33.376 41.997 15.355-1.834 29.984-5.916 43.597-11.952-10.175 15.224-23.045 28.593-37.879 39.297z"/></svg>