<svg xmlns="http://www.w3.org/2000/svg" viewBox="0 0 512 512"><path d="M426.67 0h-341.327c-46.938 0-85.343 38.406-85.343 85.344v341.314c0 46.967 38.406 85.342 85.344 85.342h341.326c46.938 0 85.33-38.374 85.33-85.342v-341.314c0-46.938-38.392-85.344-85.33-85.344zm-287.198 415.624c-23.985 0-43.472-19.346-43.472-43.314 0-23.842 19.486-43.406 43.472-43.406 24.079 0 43.53 19.564 43.53 43.406-.001 23.968-19.452 43.314-43.53 43.314zm109.262.374c0-40.905-15.904-79.409-44.73-108.222-28.857-28.875-67.188-44.813-107.952-44.813v-62.593c118.826 0 215.563 96.721 215.563 215.627l-62.881.001zm111.08 0c0-145.531-118.329-263.97-263.688-263.97v-62.624c180.001 0 326.473 146.562 326.473 326.596l-62.785-.002z"/></svg>