<svg xmlns="http://www.w3.org/2000/svg" viewBox="0 0 512 512"><path d="M416 64h-320c-52.8 0-96 43.2-96 96v192c0 52.8 43.2 96 96 96h320c52.8 0 96-43.2 96-96v-192c0-52.8-43.2-96-96-96zm64 288c0 16.989-6.687 33.031-18.827 45.173-12.142 12.14-28.183 18.827-45.173 18.827h-320c-16.989 0-33.031-6.687-45.172-18.827-12.141-12.142-18.828-28.184-18.828-45.173v-192c0-16.989 6.687-33.031 18.828-45.172s28.183-18.828 45.172-18.828h320c16.989 0 33.031 6.687 45.173 18.828 12.141 12.141 18.827 28.183 18.827 45.172v192zm-288 32l160-128-160-128z"/></svg>