<svg xmlns="http://www.w3.org/2000/svg" viewBox="0 0 512 512"><path d="M0 154.185l20.797 27.272s42.885-33.804 57.18-16.901c14.294 16.901 68.868 220.978 87.085 258.623 15.9 33.015 59.759 76.66 107.857 45.491 48.068-31.17 207.92-167.643 236.533-328.808 28.59-161.113-192.36-127.363-215.765 13.005 58.495-35.118 89.718 14.269 59.785 70.186-29.879 55.862-57.18 92.296-71.476 92.296-14.269 0-25.245-37.384-41.594-102.723-16.899-67.551-16.796-189.23-87.058-175.435-66.259 13.006-153.344 116.994-153.344 116.994z"/></svg>