<svg xmlns="http://www.w3.org/2000/svg" viewBox="0 0 512 512"><path d="M426.655 0h-341.31c-46.939 0-85.345 38.408-85.345 85.346v341.31c0 46.969 38.406 85.344 85.345 85.344h341.31c46.939 0 85.345-38.375 85.345-85.345v-341.309c0-46.938-38.406-85.346-85.345-85.346zm-20.221 219.063c-16.979 95.648-111.854 176.648-140.39 195.155-28.544 18.503-54.577-7.411-64.019-26.997-10.808-22.354-43.205-143.47-51.684-153.51-8.482-10.019-33.938 10.04-33.938 10.04l-12.346-16.188s51.691-61.724 91.02-69.439c41.702-8.183 41.64 64.033 51.67 104.121 9.7 38.782 16.22 60.976 24.688 60.976 8.485 0 24.691-21.631 42.426-54.785 17.768-33.188-.769-62.505-35.486-41.646 13.893-83.326 145.031-103.36 128.059-7.727z"/></svg>