<svg xmlns="http://www.w3.org/2000/svg" viewBox="0 0 512 512"><path d="M256 0c-141.385 0-256 114.615-256 256s114.615 256 256 256 256-114.615 256-256-114.615-256-256-256zm150.434 219.063c-16.979 95.648-111.854 176.648-140.39 195.155-28.544 18.503-54.577-7.411-64.019-26.997-10.808-22.354-43.205-143.47-51.684-153.51-8.482-10.019-33.938 10.04-33.938 10.04l-12.346-16.188s51.691-61.724 91.02-69.439c41.702-8.183 41.64 64.033 51.67 104.121 9.7 38.782 16.22 60.976 24.688 60.976 8.485 0 24.691-21.631 42.426-54.785 17.768-33.188-.769-62.505-35.486-41.646 13.893-83.326 145.031-103.36 128.059-7.727z"/></svg>