<svg xmlns="http://www.w3.org/2000/svg" viewBox="0 0 512 512"><path d="M352 197.13l-182.228-182.228c26.945-9.638 55.97-14.902 86.228-14.902 33.952 0 66.352 6.625 96 18.628v178.502zm32 154.87v-317.743c76.517 44.264 128 126.989 128 221.743 0 33.952-6.625 66.352-18.628 96h-109.372zm-224 32h317.743c-44.264 76.517-126.989 128-221.743 128-33.952 0-66.352-6.625-96-18.628v-109.372zm53.13-272l-205.641 205.641c-4.882-19.745-7.489-40.387-7.489-61.641 0-96.691 53.613-180.851 132.726-224.404l80.404 80.404zm-85.13 138.87v226.873c-47.298-27.361-85.018-69.424-106.937-119.936l106.937-106.937z"/></svg>