<svg xmlns="http://www.w3.org/2000/svg" viewBox="0 0 512 512"><path d="M426.688 0h-341.344c-46.938 0-85.344 38.406-85.344 85.341v341.313c0 46.971 38.406 85.346 85.344 85.346h341.34c46.938 0 85.316-38.377 85.316-85.348v-341.311c0-46.935-38.378-85.341-85.312-85.341zm-170.688 32c34.357 0 66.902 7.745 96 21.569v143.561l-156.779-156.779c19.328-5.437 39.713-8.351 60.779-8.351zm-224 224c0-87.944 50.688-164.037 124.437-200.693l56.693 56.693-178.487 178.487c-1.737-11.242-2.643-22.758-2.643-34.487zm96 183.831c-37.342-26.049-66.382-63.174-82.336-106.625l82.336-82.336v188.961zm128 40.169c-34.357 0-66.902-7.745-96-21.569v-74.431h279.831c-40.478 58.026-107.715 96-183.831 96zm202.431-128h-74.431v-279.832c58.026 40.479 96 107.715 96 183.832 0 34.357-7.745 66.902-21.569 96z"/></svg>