<svg xmlns="http://www.w3.org/2000/svg" viewBox="0 0 512 512"><path d="M256.001 512c-141.16 0-256.001-114.841-256.001-256s114.841-256 256.001-256c141.161 0 255.999 114.841 255.999 256s-114.838 256-255.999 256zm215.898-220.957c-7.481-2.36-67.682-20.316-136.205-9.349 28.602 78.593 40.239 142.604 42.479 155.904 49.057-33.168 83.979-85.713 93.726-146.555zm-130.483 166.576c-3.253-19.185-15.949-86.045-46.649-165.82l-1.44.486c-123.335 42.979-167.608 128.508-171.543 136.552 37.075 28.912 83.668 46.16 134.218 46.16 30.29 0 59.159-6.195 85.414-17.378zm-247.867-55.08c4.954-8.48 64.965-107.842 177.738-144.297 2.852-.92 5.724-1.785 8.618-2.6-5.49-12.422-11.47-24.857-17.728-37.108-109.199 32.68-215.162 31.315-224.73 31.118-.066 2.221-.111 4.445-.111 6.683 0 56.16 21.29 107.437 56.213 146.204zm-51.593-190.991c9.779.13 99.868.521 202.151-26.641-36.23-64.406-75.306-118.555-81.071-126.46-61.174 28.854-106.901 85.248-121.08 153.101zm162.803-167.798c6.044 8.092 45.759 62.174 81.59 128.007 77.754-29.142 110.67-73.385 114.604-78.987-38.615-34.259-89.391-55.1-144.951-55.1-17.645 0-34.8 2.116-51.243 6.08zm220.502 74.306c-4.608 6.237-41.252 53.209-122.101 86.217 5.089 10.416 9.967 21.009 14.508 31.672 1.608 3.78 3.177 7.542 4.709 11.285 72.759-9.149 145.052 5.514 152.263 7.039-.484-51.612-18.925-99.005-49.379-136.213z"/></svg>