<svg xmlns="http://www.w3.org/2000/svg" viewBox="0 0 512 512"><path d="M269.376 257.962c-98.676 31.898-151.186 118.839-155.521 126.261-30.558-33.921-49.187-78.788-49.187-127.929 0-1.958.039-3.905.098-5.848 8.372.171 101.09 1.366 196.639-27.229 5.476 10.72 10.708 21.601 15.512 32.47-2.532.713-5.046 1.47-7.541 2.275zm113.457-144.789c-3.441 4.902-32.243 43.615-100.278 69.114-31.352-57.603-66.103-104.925-71.391-112.006 14.388-3.468 29.399-5.32 44.837-5.32 48.615 0 93.044 18.235 126.832 48.212zm-137.239 80.621c-89.498 23.766-168.325 23.424-176.883 23.311 12.407-59.371 52.418-108.716 105.946-133.963 5.044 6.917 39.236 54.297 70.937 110.652zm43.066 93.956l1.261-.426c26.862 69.803 37.971 128.306 40.818 145.093-22.973 9.784-48.233 15.205-74.738 15.205-44.232 0-85.001-15.092-117.441-40.39 3.443-7.039 42.182-81.877 150.1-119.482zm137.34-287.75h-340c-47.3 0-86 38.7-86 86v340c0 47.3 38.7 86 86 86h340c47.3 0 86-38.7 86-86v-340c0-47.3-38.7-86-86-86zm-169.999 480c-123.515 0-224.001-100.485-224.001-224 0-123.514 100.486-224 224.001-224 123.516 0 223.999 100.486 223.999 224 0 123.515-100.483 224-223.999 224zm69.731-201.518c59.958-9.596 112.633 6.116 119.18 8.18-8.53 53.237-39.086 99.214-82.01 128.236-1.961-11.638-12.144-67.647-37.17-136.416zm-28.466-67.744c70.742-28.882 102.804-69.982 106.837-75.44 26.646 32.558 42.783 74.026 43.206 119.186-6.309-1.334-69.565-14.164-133.229-6.158-1.341-3.276-2.713-6.567-4.121-9.875-3.972-9.33-8.241-18.599-12.693-27.713z"/></svg>