<svg xmlns="http://www.w3.org/2000/svg" viewBox="0 0 512 512"><path d="M280.928 203.5c-19.521-1.141-42.041.024-68.125 4.475l60.167 108.444 239.03-65.633c-2.577-6.13-6.343-12.113-11.331-17.899-24.737-28.639-78.37-54.187-136.802-65.709l.001-.013c-57.322-13.437-119.401-12.872-182.98-3.274-2.292.344-4.572.711-6.84 1.092l-21.136-39.146c-20.571 2.746-39.904 7.025-57.803 12.737l20.13 42.099c-32.88 12.738-59.861 30.88-79.329 52.716-32.106 36.532-44.795 82.454-29.373 127.176 3.102 9.021 7.294 17.58 12.468 25.598l239.034-65.649-66.375-122.924c2.279-.44 4.598-.884 6.964-1.312 107.341-19.149 166.051 10.432 198.208 41.915l-81.779 19.824-34.129-54.517zm-193.567 109.695c-7.379-33.676-1.506-71.263 45.202-96.297l36.569 76.474-81.771 19.823z"/></svg>