<svg xmlns="http://www.w3.org/2000/svg" viewBox="0 0 512 512"><path d="M426 0h-340c-47.3 0-86 38.7-86 86v340c0 47.3 38.7 86 86 86h340c47.3 0 86-38.7 86-86v-340c0-47.3-38.7-86-86-86zm54 384h-192v-118s35.167.5 54 20v34h77.205c-5.91-18.941-18.534-37.556-36.564-53.332-30.99-27.115-81.597-40.668-126.641-40.668v158h-224v-48c0-21.698 7.325-43.269 21.182-62.38 12.297-16.959 29.432-31.916 50.93-44.457 25.216-14.709 55.281-25.354 87.888-31.389v-69.774h64v64c73.5 0 110.806 13.198 151.889 37.163 21.498 12.541 38.633 27.498 50.93 44.457 13.857 19.111 21.181 40.682 21.181 62.38v48zm-380.205-64c5.91-18.941 18.535-37.556 36.564-53.332 15.77-13.798 34.81-24.594 55.641-31.878v85.21h-92.205z"/></svg>