<svg xmlns="http://www.w3.org/2000/svg" viewBox="0 0 512 512"><path d="M352 336a48 48 1260 1 0 96 0 48 48 1260 1 0-96 0zm127.196 79.196c-43.739 43.738-114.653 43.738-158.393 0-17.789-17.789-28.342-40.073-31.661-63.196l-102.347-155.114c-13.753-.705-27.388-4.208-39.983-10.508l-78.946 61.712c-18.275 14.287-44.671 11.051-58.956-7.224-14.286-18.275-11.051-44.671 7.224-58.956l77.967-60.946c-8.48-33.391.336-70.269 26.465-96.397 39.453-39.452 103.416-39.452 142.868 0 24.233 24.233 33.575 57.714 28.038 89.083l124.528 111.492-.001.001c23.124 3.319 45.408 13.872 63.197 31.661 43.739 43.738 43.739 114.653 0 158.392zm-287.196-386.545c-37.195 0-67.349 30.152-67.349 67.349l.027 1.062 33.456-26.152c7.68-6.003 16.791-8.912 25.837-8.912 12.481 0 24.836 5.54 33.119 16.136 14.286 18.275 11.051 44.671-7.224 58.956l-31.75 24.818c4.481.939 9.124 1.44 13.884 1.44 37.196 0 67.349-30.152 67.349-67.349s-30.153-67.348-67.349-67.348zm208 227.349c-44.183 0-80 35.817-80 80s35.817 80 80 80 80-35.817 80-80-35.817-80-80-80z" transform="scale(1 -1) translate(0 -480)"/></svg>