<svg xmlns="http://www.w3.org/2000/svg" viewBox="0 0 512 512"><path d="M151.961 418.005c13.572 0 26.893-6.568 34.986-18.708 12.867-19.301 7.651-45.377-11.649-58.244l-33.037-22.024c5.654-1.54 11.597-2.378 17.739-2.378 37.196 0 67.348 30.152 67.348 67.349s-30.153 67.349-67.349 67.349c-36.202 0-65.722-28.566-67.274-64.387l35.977 23.984c7.161 4.774 15.253 7.059 23.259 7.059zm274.709-418.005c46.938 0 85.33 38.406 85.33 85.344v341.314c0 46.968-38.392 85.342-85.33 85.342h-341.326c-46.938 0-85.344-38.375-85.344-85.341v-101.514l60.667 40.444c-5.826 31.587 3.469 65.415 27.899 89.845 39.452 39.452 103.415 39.452 142.868 0 24.234-24.233 33.575-57.715 28.038-89.083l124.529-111.493-.001-.001c23.124-3.319 45.408-13.872 63.197-31.661 43.738-43.738 43.738-114.653 0-158.392-43.74-43.739-114.654-43.739-158.393 0-17.789 17.789-28.342 40.073-31.661 63.196l-102.347 155.115c-15.924.816-31.689 5.382-45.863 13.696l-108.933-72.622v-138.845c0-46.938 38.405-85.344 85.343-85.344h341.327zm21.33 144c0-44.183-35.817-80-80-80s-80 35.817-80 80 35.817 80 80 80 80-35.817 80-80zm-128 0c0-26.51 21.49-48 48-48s48 21.49 48 48-21.49 48-48 48-48-21.49-48-48z"/></svg>