<svg xmlns="http://www.w3.org/2000/svg" viewBox="0 0 512 512"><path d="M256 64.054c-9.577 0-19.154 4.958-29.071 14.875-3.905 3.905-3.905 10.237 0 14.143 3.905 3.904 10.237 3.904 14.143 0 6.103-6.105 10.986-9.072 14.928-9.072 3.941 0 8.825 2.967 14.929 9.071 3.906 3.904 10.236 3.904 14.143 0 3.905-3.905 3.905-10.237 0-14.143-9.918-9.916-19.495-14.874-29.072-14.874zm-256 153.2c0-24.946 2.133-47.561 6.4-67.841 4.267-20.28 10.267-37.87 18-52.766 7.733-14.896 17.511-27.952 29.333-39.17s24.666-20.46 38.533-27.729c13.867-7.268 29.733-13.148 47.6-17.633 17.866-4.487 36.044-7.628 54.533-9.423 18.489-1.795 38.845-2.692 61.067-2.692s42.621.895 61.199 2.69c18.578 1.795 36.801 4.936 54.666 9.423 17.867 4.487 33.779 10.365 47.734 17.633 13.955 7.269 26.889 16.513 38.799 27.729 11.912 11.218 21.735 24.274 29.467 39.17 7.735 14.897 13.78 32.487 18.135 52.766 4.355 20.28 6.533 42.894 6.533 67.84 0 44.69-13.868 83.186-41.6 115.491 1.6 4.308 2.977 9.243 4.133 14.807 1.154 5.564 2.266 13.416 3.332 23.556 1.069 10.141.668 21.852-1.199 35.132-1.867 13.282-5.377 26.832-10.533 40.651l-4 .809c-2.666.538-7.021.359-13.066-.54-6.043-.897-13.111-2.511-21.199-4.845-8.088-2.332-18.533-6.954-31.334-13.864-12.799-6.909-26.31-15.659-40.533-26.248-24.178 7.359-57.51 15.058-100 15.058-42.488 0-75.911-7.698-100.265-15.057-14.223 10.59-27.778 19.294-40.667 26.114-12.89 6.821-23.201 11.487-30.934 13.999-7.734 2.512-14.889 4.128-21.467 4.845-6.578.718-10.801.943-12.667.673-1.866-.269-3.244-.583-4.133-.942-5.157-13.82-8.712-27.37-10.668-40.652-1.955-13.28-2.4-24.946-1.333-34.996 1.067-10.051 2.222-17.949 3.467-23.691 1.245-5.743 2.667-10.679 4.267-14.807-27.733-32.125-41.6-70.621-41.6-115.49zm68.268-56.956c0 29.011 10.666 55.319 32 78.928 6.4 7.203 13.823 12.656 22.267 16.356 8.445 3.701 18.044 5.803 28.8 6.303s21.022.4 30.8-.3c9.778-.701 21.867-1.651 36.267-2.851 14.399-1.202 26.844-1.801 37.333-1.801 10.488 0 22.934.6 37.332 1.801 14.403 1.2 26.491 2.15 36.268 2.851 9.78.7 20.045.8 30.801.3 10.756-.501 20.401-2.602 28.934-6.303 8.533-3.7 16-9.153 22.4-16.356 21.332-23.609 32-49.917 32-78.928 0-17.006-1.777-32.162-5.334-45.467-3.555-13.306-8.045-24.458-13.467-33.461-5.422-9.004-13.024-16.609-22.799-22.81-9.779-6.203-19.246-11.005-28.4-14.405-9.156-3.4-20.979-6.052-35.467-7.953-14.491-1.898-27.467-3.051-38.936-3.45-11.467-.4-25.91-.6-43.332-.6s-31.822.201-43.2.6c-11.378.399-24.311 1.552-38.8 3.45-14.489 1.901-26.311 4.552-35.467 7.953-9.155 3.401-18.622 8.202-28.4 14.405-9.778 6.202-17.378 13.806-22.8 22.81-5.423 9.003-9.912 20.155-13.467 33.461-3.555 13.305-5.333 28.461-5.333 45.467zm59.732 15.7a32 48 2700 1 0 64 0 32 48 2700 1 0-64 0zm192 0a32 48 2700 1 0 64 0 32 48 2700 1 0-64 0z" transform="scale(1 -1) translate(0 -480)"/></svg>