<svg xmlns="http://www.w3.org/2000/svg" viewBox="0 0 512 512"><path d="M117.639 124.36c-25.396 0-47.242 8.403-65.542 25.208-19.043 17.926-28.57 40.33-28.57 67.218 0 17.926 5.188 34.731 15.647 50.416 9.337 14.563 19.09 23.903 31.889 28.012v1.121c-12.799 5.224-18.483 18.295-18.483 39.209 0 16.062 5.686 28.011 18.483 35.854v1.121c-35.327 11.573-51.496 33.047-51.496 64.415 0 27.267 11.874 47.244 35.033 59.939 18.295 10.086 41.789 15.127 70.173 15.127 69.085 0 103.703-28.941 103.703-86.832 0-36.223-26.661-58.441-80.064-66.658-12.323-1.863-21.643-6.348-27.991-13.445-4.854-4.854-7.271-9.709-7.271-14.563 0-13.816 7.479-21.848 22.41-24.088 22.779-3.357 41.364-13.912 55.743-31.648 14.375-17.74 21.565-38.559 21.565-62.458 0-7.469-2.259-15.498-5.244-24.086 9.709-2.244 16.525-4.297 21.646-6.166v-57.696c-22.527 8.964-43.495 13.442-61.421 13.442-15.687-8.961-31.912-13.442-50.21-13.442zm6.162 279.525c31.372 0 47.052 9.521 47.052 28.57 0 20.168-14.377 30.246-43.132 30.246-32.862 0-49.293-9.711-49.293-29.127-.001-19.795 15.122-29.689 45.373-29.689zm-3.921-147.885c-23.527 0-35.293-12.882-35.293-38.654 0-27.631 11.766-41.453 35.293-41.453 11.201 0 19.979 4.298 26.326 12.884 5.229 7.845 7.845 17.18 7.845 28.011 0 26.139-11.393 39.212-34.171 39.212zm170.312-256c-10.828 0-20.07 4.107-27.727 12.324-7.657 8.218-11.485 18.108-11.485 29.688 0 11.205 3.829 20.91 11.485 29.129 7.654 8.217 16.896 12.32 27.727 12.32 10.455 0 19.514-4.104 27.17-12.32 7.656-8.219 11.48-17.924 11.48-29.129 0-11.58-3.824-21.472-11.48-29.688-7.659-8.217-16.715-12.324-27.17-12.324zm31.373 127.999h-63.303c.748 7.168-.32 18.021-.32 35.57v174.216c0 17.928 1.068 32.387.32 38.018h63.303c-.75-8.188-2.697-22.334-2.697-41.379v-171.973c-.003-16.432 1.947-27.284 2.697-34.452zm139.603 194.101c-16.436 0-24.541-12.514-24.541-37.533v-103.32h24.932c4.48 0 8.516-.246 13.559.123 5.043.374 7.076.125 9.639.125v-53.495h-48.129v-23.808c0-8.961 1.408-17.151 2.527-22.271h-64.979c1.121 5.12 1.014 12.938 1.014 23.395v22.684h-28.16v53.494c7.682-1.12 14.545-1.678 19.398-1.678l8.762.559v101.393c0 31.371 3.979 54.336 11.818 68.9 10.461 19.42 28.811 29.129 56.068 29.129 19.424 0 36.559-3.732 49.357-11.205v-56.016c-10.237 6.35-19.691 9.524-31.265 9.524z"/></svg>