<svg xmlns="http://www.w3.org/2000/svg" viewBox="0 0 512 512"><path d="M131.736 379.684c0 13.526 11.447 20.291 34.334 20.291 20.032 0 30.044-7.021 30.044-21.067 0-13.269-10.923-19.898-32.772-19.898-21.073-.002-31.606 6.888-31.606 20.674zm294.938-379.684h-341.33c-46.938 0-85.344 38.405-85.344 85.344v341.313c0 46.968 38.406 85.343 85.344 85.343h341.33c46.934 0 85.326-38.375 85.326-85.344v-341.312c0-46.939-38.391-85.344-85.326-85.344zm-188.81 204.494c-3.642 1.302-8.844 2.729-15.606 4.293 2.08 5.983 3.123 11.576 3.123 16.777 0 16.646-5.009 31.149-15.022 43.506-10.015 12.354-22.956 19.703-38.823 22.043-10.402 1.563-15.604 7.156-15.604 16.779 0 3.381 1.689 6.765 5.072 10.145 4.422 4.943 10.924 8.066 19.509 9.367 37.195 5.721 55.793 21.197 55.793 46.427 0 40.321-24.062 60.481-72.181 60.481-19.771 0-36.028-3.513-48.772-10.535-16.129-8.844-24.188-22.76-24.188-41.75 0-21.852 12.096-36.808 36.282-44.869v-.78c-8.842-5.462-13.263-13.785-13.263-24.972 0-14.566 4.162-23.672 12.484-27.311v-.781c-8.323-2.862-15.737-9.366-22.24-19.512-7.282-10.926-10.925-22.63-10.925-35.115 0-18.729 6.635-34.335 19.896-46.82 12.748-11.707 27.964-17.558 45.653-17.558 12.747 0 24.579 3.119 35.505 9.361 12.485 0 26.921-3.12 43.313-9.361l-.006 40.185zm63.225 135.003h-44.093c.521-5.201.779-14.042.779-26.532v-121.346c0-12.227-.261-20.682-.779-25.359h44.093c-.521 4.942-.781 13.135-.781 24.582v119.782c0 13.267.261 22.892.781 28.873zm-2.93-212.256c-5.332 5.722-11.641 8.581-18.923 8.581-7.543 0-13.979-2.859-19.313-8.581-5.333-5.726-8.001-12.486-8.001-20.289 0-8.067 2.668-14.956 8.001-20.683 5.333-5.721 11.77-8.584 19.313-8.584 7.282 0 13.592 2.863 18.923 8.584 5.333 5.728 7.999 12.615 7.999 20.683 0 7.803-2.666 14.564-7.999 20.289zm122.686 207.183c-9.627 5.205-21.203 7.803-34.729 7.803-18.985 0-32.124-6.76-39.405-20.287-5.465-10.145-8.193-26.14-8.193-47.99v-69.842h.389v-.781l-5.853-.391c-3.382 0-7.806.391-13.267 1.171v-37.847h19.117v-15.216c0-7.285-.389-13.14-1.17-17.56h45.259c-.775 4.94-1.168 10.533-1.168 16.776v15.999h33.943v37.846c-1.299 0-3.705-.129-7.218-.389-3.512-.261-6.828-.393-9.949-.393h-16.777v72.572c0 17.432 5.725 26.145 17.167 26.145 8.063 0 15.348-2.209 21.854-6.632v39.016zm-260.237-134.221c-16.388 0-24.582 9.627-24.582 28.873 0 17.951 8.194 26.924 24.582 26.924 15.868 0 23.801-9.104 23.801-27.313 0-7.545-1.82-14.047-5.461-19.511-4.423-5.981-10.537-8.973-18.34-8.973z"/></svg>