<svg xmlns="http://www.w3.org/2000/svg" viewBox="0 0 512 512"><path d="M64 255.996c0 74.013 44.161 137.984 108.215 168.289l-91.589-244.392c-10.654 23.254-16.626 48.991-16.626 76.103zm321.614-9.432c0-23.117-8.527-39.118-15.827-51.571-9.729-15.41-18.86-28.447-18.86-43.858 0-17.187 13.383-33.188 32.243-33.188.852 0 1.66.102 2.488.151-34.158-30.485-79.67-49.098-129.654-49.098-67.08 0-126.093 33.523-160.422 84.284 4.505.141 8.753.227 12.356.227 20.077 0 51.17-2.376 51.17-2.376 10.345-.591 11.566 14.217 1.229 15.411 0 0-10.405 1.184-21.976 1.775l69.917 202.553 42.022-122.728-29.911-79.825c-10.344-.592-20.139-1.775-20.139-1.775-10.351-.596-9.136-16.001 1.219-15.411 0 0 31.7 2.376 50.567 2.376 20.073 0 51.175-2.376 51.175-2.376 10.351-.591 11.57 14.217 1.223 15.411 0 0-10.417 1.186-21.974 1.775l69.39 201.009 19.156-62.316c8.29-25.875 14.608-44.45 14.608-60.45zm-126.243 25.788l-57.613 163.029c17.208 4.929 35.397 7.619 54.244 7.619 22.358 0 43.802-3.759 63.759-10.6-.509-.801-.987-1.652-1.375-2.577l-59.015-157.471zm165.11-106.066c.826 5.955 1.294 12.343 1.294 19.229 0 18.965-3.646 40.298-14.601 66.975l-58.643 165.136c57.081-32.414 95.469-92.644 95.469-161.629 0-32.515-8.53-63.08-23.519-89.711zm-168.481-166.286c-141.385 0-256 114.615-256 256s114.615 256 256 256 256-114.615 256-256-114.615-256-256-256zm0 480c-123.712 0-224-100.288-224-224s100.288-224 224-224 224 100.288 224 224-100.288 224-224 224z"/></svg>