<svg xmlns="http://www.w3.org/2000/svg" viewBox="0 0 512 512"><path d="M259.371 272.352l59.015 157.471c.389.925.866 1.775 1.375 2.577-19.956 6.841-41.402 10.6-63.759 10.6-18.847 0-37.036-2.69-54.244-7.619l57.613-163.029zm188.629-16.355c0 68.985-38.388 129.215-95.47 161.629l58.643-165.136c10.956-26.677 14.602-48.01 14.602-66.975 0-6.886-.469-13.274-1.294-19.229 14.989 26.631 23.519 57.196 23.519 89.711zm-384-.001c0-27.112 5.972-52.849 16.626-76.103l91.589 244.392c-64.054-30.305-108.215-94.276-108.215-168.289zm31.582-102.712c34.329-50.761 93.342-84.284 160.422-84.284 49.984 0 95.496 18.613 129.654 49.098-.828-.049-1.635-.151-2.488-.151-18.86 0-32.243 16.001-32.243 33.188 0 15.411 9.131 28.448 18.86 43.858 7.3 12.453 15.827 28.454 15.827 51.571 0 16.001-6.318 34.575-14.608 60.45l-19.156 62.316-69.39-201.009c11.558-.589 21.974-1.775 21.974-1.775 10.347-1.194 9.129-16.002-1.223-15.411 0 0-31.102 2.376-51.175 2.376-18.867 0-50.567-2.376-50.567-2.376-10.355-.59-11.57 14.815-1.219 15.411 0 0 9.795 1.183 20.139 1.775l29.911 79.825-42.022 122.728-69.917-202.553c11.571-.591 21.976-1.775 21.976-1.775 10.337-1.194 9.116-16.002-1.229-15.411 0 0-31.093 2.376-51.17 2.376-3.603 0-7.851-.086-12.356-.227zm330.418-153.284h-340c-47.3 0-86 38.7-86 86v340c0 47.3 38.7 86 86 86h340c47.3 0 86-38.7 86-86v-340c0-47.3-38.7-86-86-86zm54 256c0 123.712-100.288 224-224 224s-224-100.288-224-224 100.288-224 224-224 224 100.288 224 224z"/></svg>