<svg xmlns="http://www.w3.org/2000/svg" viewBox="0 0 512 512"><path d="M133.002 138.339c16.416-16.422 43.001-16.422 59.402-.016l3.913 3.934 50.552-50.578-3.937-3.94c-28.812-28.85-69.257-38.939-106.21-30.261-5.297-32.591-33.544-57.462-67.587-57.478-37.825 0-68.477 30.721-68.485 68.579 0 32.668 22.795 60 53.331 66.915-11.569 38.725-2.121 82.417 28.423 112.992l113.913 113.95 50.498-50.607-113.905-113.943c-16.341-16.361-16.371-43.063.092-59.547zm378.354-69.76c.008-37.881-30.659-68.579-68.492-68.579-34.617 0-63.239 25.722-67.841 59.119-38.537-11.332-81.892-1.748-112.32 28.704l-113.92 113.95 50.551 50.586 113.883-113.928c16.47-16.483 42.994-16.453 59.342-.092 16.4 16.415 16.4 43.057-.016 59.478l-3.897 3.918 50.505 50.624 3.929-3.964c30.229-30.283 39.839-73.378 28.806-111.819 33.575-4.417 59.47-33.182 59.47-67.997zm-58.223 306.953c9.051-37.229-.988-78.162-30.054-107.25l-113.745-113.996-50.551 50.561 113.76 114.006c16.47 16.498 16.432 43.048.092 59.424-16.401 16.407-43.002 16.407-59.418-.015l-3.883-3.895-50.497 50.623 3.866 3.864c30.758 30.797 74.809 40.219 113.684 28.244 6.316 31.341 33.967 54.902 67.129 54.902 37.802 0 68.484-30.675 68.484-68.563 0-34.6-25.59-63.228-58.867-67.905zm-146.961-111.19l-113.768 113.996c-16.355 16.384-43.017 16.414-59.472-.062-16.409-16.452-16.416-43.049-.022-59.485l3.904-3.887-50.543-50.562-3.867 3.856c-29.38 29.401-39.28 70.917-29.725 108.491-30.199 7.13-52.679 34.317-52.679 66.748-.008 37.873 30.666 68.563 68.491 68.563 32.55-.016 59.794-22.709 66.77-53.191 37.351 9.276 78.499-.652 107.672-29.878l113.745-113.98-50.506-50.609z"/></svg>