<svg xmlns="http://www.w3.org/2000/svg" viewBox="0 0 512 512"><path d="M478.898 192h-28.703000000000003c-17.583 0-32.994-14.871-34.195-32 .002-91.334-73.629-160-165.595-160h-83.912c-91.906 0-166.428 74-166.493 165.333v181.399c0 91.327 74.587 165.268 166.492 165.268h179.21c91.974 0 166.298-73.941 166.298-165.268v-117.191c0-18.251-14.72-37.541-33.102-37.541zm-318.898-64h96c17.6 0 32 14.4 32 32s-14.4 32-32 32h-96c-17.6 0-32-14.4-32-32s14.4-32 32-32zm192 256h-192c-17.6 0-32-14.4-32-32s14.4-32 32-32h192c17.6 0 32 14.4 32 32s-14.4 32-32 32z"/></svg>