<svg xmlns="http://www.w3.org/2000/svg" viewBox="0 0 512 512"><path d="M426.674 0h-341.349c-47.123 0-85.325 38.209-85.325 85.341v341.318c0 47.133 38.202 85.341 85.325 85.341h341.348c47.125 0 85.324-38.208 85.324-85.341l.003-341.318c0-47.132-38.202-85.341-85.326-85.341zm21.326 324.049c0 68.495-55.743 123.951-124.722 123.951h-134.409c-68.928 0-124.869-55.456-124.869-123.951v-136.049c.048-68.5 55.94-124 124.869-124h62.934c68.976 0 124.199 51.5 124.197 120 .901 12.847 12.461 24 25.646 24h21.526c13.787 0 24.828 14.467 24.828 28.156v87.893zm-96-4.049c0 17.6-14.4 32-32 32h-128c-17.6 0-32-14.4-32-32s14.4-32 32-32h128c17.6 0 32 14.4 32 32zm-64-128c0 17.6-14.4 32-32 32h-64c-17.6 0-32-14.4-32-32s14.4-32 32-32h64c17.6 0 32 14.4 32 32z"/></svg>