<svg xmlns="http://www.w3.org/2000/svg" viewBox="0 0 512 512"><path d="M426.69 0h-341.346c-46.939 0-85.343 38.407-85.343 85.343v341.313c0 46.969 38.404 85.344 85.343 85.344h341.346c46.935 0 85.31-38.375 85.31-85.344v-341.314c-.004-46.935-38.379-85.342-85.31-85.342zm-60.832 412.344c-15.076 7.094-28.764 12.094-41 14.969-12.248 2.845-25.48 4.279-39.701 4.279-16.156 0-25.688-2.029-38.094-6.094-12.404-4.094-23-9.936-31.75-17.436-8.779-7.564-14.843-15.599-18.233-24.097-3.392-8.502-5.078-20.846-5.078-37.002v-123.901h-47.998v-50.033c13.872-4.5 29.968-10.967 39.842-19.375 9.92-8.436 17.859-18.529 23.842-30.342 6.002-11.783 10.125-26.813 12.376-45.033h50.25v81.721h81.686v63.063h-81.689v90.594c0 20.5-.264 32.313 1.908 38.125 2.156 5.78 7.563 11.78 13.451 15.25 7.828 4.688 16.752 7.03 26.813 7.03 17.893 0 35.689-5.813 53.375-17.438v55.72z"/></svg>