<svg xmlns="http://www.w3.org/2000/svg" viewBox="0 0 512 512"><path d="M424 320l-7.429-208.01c-.314-8.795 6.629-15.99 15.429-15.99h64c8.8 0 14.734 7.088 13.188 15.751l-37.188 208.249m8 68c0 15.4-12.6 28-28 28h-8c-15.4 0-28-12.6-28-28v-8c0-15.4 12.6-28 28-28h8c15.4 0 28 12.6 28 28v8zm-288-292c-106.039 0-192 71.634-192 160 0 88.365 85.961 160 192 160s192-71.635 192-160c0-88.366-85.961-160-192-160zm128 128h-37.131l-58.869 58.87v37.13h48v32h-128v-32h48v-37.13l-90.87-90.87h-21.031v-32h95.803v32h-21.032l53.13 53.13 16-16v-37.13h96v32z"/></svg>