<svg xmlns="http://www.w3.org/2000/svg" viewBox="0 0 512 512"><path d="M283.828 368.458c-40.972 19.059-79.079 18.858-104.67 17.01-30.526-2.205-55.079-10.562-65.871-17.866-6.65-4.503-15.692-2.761-20.195 3.891-4.502 6.651-2.76 15.693 3.891 20.195 17.349 11.743 48.034 20.477 80.081 22.79 5.433.392 11.399.639 17.823.639 27.891 0 63.313-2.658 101.21-20.285 7.282-3.389 10.439-12.037 7.052-19.32-3.388-7.283-12.038-10.436-19.321-7.054zm161.646-21.55c1.393-126.344 14.381-365.103-227.485-345.806-238.8 19.221-175.482 271.484-179.041 355.975-3.154 44.693-17.989 99.324-38.948 154.923h64.55c6.633-23.561 11.512-46.86 13.616-69.075 3.891 2.714 8.054 5.337 12.497 7.85 7.229 4.259 13.442 9.922 20.02 15.917 15.372 14.009 32.795 29.887 66.856 31.876 2.286.131 4.587.197 6.838.197 34.448 0 58.007-15.077 76.939-27.191 9.07-5.806 16.909-10.82 24.282-13.226 20.955-6.56 39.266-17.148 52.952-30.626 2.138-2.104 4.121-4.269 5.981-6.474 7.623 27.939 18.059 59.379 29.644 90.752h137.825c-33.087-51.112-67.218-101.187-66.526-165.092zm-383.419-68.732l-.001-.023c-2.373-41.231 17.355-75.916 44.063-77.468 26.706-1.553 50.28 30.614 52.652 71.846l.002.022c.128 2.223.184 4.423.185 6.603-8.462 2.128-16.096 5.218-22.936 8.815l-.076-.915v-.013c-2.285-23.405-14.786-41.08-27.926-39.479-13.14 1.602-21.94 21.875-19.656 45.279l.002.013c.996 10.204 3.934 19.318 8.021 26.222-1.017.802-3.892 2.906-7.203 5.328-2.485 1.817-5.51 4.029-9.157 6.715-9.941-13.047-16.753-31.79-17.97-52.945zm270.575 101.913c-.95 21.793-29.454 42.296-55.791 50.522l-.148.048c-10.95 3.551-20.714 9.8-31.052 16.415-17.366 11.112-35.323 22.604-61.261 22.604-1.702 0-3.447-.052-5.163-.148-23.758-1.389-34.871-11.516-48.94-24.338-7.421-6.763-15.095-13.757-24.988-19.562l-.212-.122c-21.353-12.052-34.606-27.041-35.454-40.097-.421-6.49 2.469-12.109 8.591-16.7 13.318-9.986 22.239-16.511 28.142-20.829 6.555-4.794 8.534-6.24 10-7.632 1.048-.993 2.182-2.094 3.402-3.281 12.223-11.887 32.68-31.781 64.075-31.781 19.202 0 40.449 7.4 63.085 21.951 10.662 6.939 19.941 10.143 31.69 14.2 8.078 2.789 17.234 5.951 29.496 11.202l.198.082c11.44 4.702 24.948 13.282 24.33 27.466zm-6.307-51.186c-2.2-1.107-4.487-2.16-6.872-3.143-11.053-4.728-19.916-7.937-27.267-10.499 4.058-7.947 6.58-17.86 6.812-28.621v-.015c.563-26.187-12.644-47.448-29.498-47.488-16.855-.039-30.975 21.157-31.538 47.343v.014c-.019.857-.021 1.708-.01 2.555-10.381-4.776-20.59-8.245-30.583-10.38-.046-.984-.102-1.966-.122-2.96v-.025c-.969-47.706 28.301-87.195 65.377-88.201 37.075-1.007 67.914 36.85 68.886 84.555v.026c.437 21.573-5.33 41.433-15.185 56.839z"/></svg>