<svg xmlns="http://www.w3.org/2000/svg" viewBox="0 0 512 512"><path d="M256.5 384c-66.156 0-130.837-9.686-193.05-28.849l10.124-30.371c58.952 18.079 120.238 27.22 182.926 27.22 8.172 0 16.319-.164 24.441-.474 2.113-38.78 7.059-63.526 7.059-63.526h-96c0-87.505 29.909-165.027 62.465-223.5h-254.465v383h283.088c-2.336-22.842-3.152-44.43-3.077-63.92-7.816.274-15.653.42-23.511.42zm-160.5-256h32v64h-32v-64zm416-63.5h-213.565c-.974 1.598-1.947 3.207-2.92 4.843-19.208 32.286-34.468 65.379-45.358 98.36-9.103 27.566-15.151 55.116-18.086 82.297h102.429l-9.229 45.417c-.157.808-4.085 21.422-6.1 53.471 40.932-4.063 81.111-12.103 120.257-24.107l10.124 30.371c-42.783 13.178-86.732 21.874-131.526 26.021-.018 2.188-.028 4.395-.021 6.64.062 20.315 1.173 40.285 3.301 59.688h190.694v-383.001zm-96 127.5h-32v-64h32v64zm-122.368 320h39.084c-2.73-10.907-5.094-22.096-7.069-33.543-1.747-10.126-3.191-20.46-4.343-30.957h-38.216c2.116 20.689 5.475 42.401 10.544 64.5zm50.592-512h-48.198c-12.875 17.435-27.466 39.185-41.56 64.5h43.969c16.837-27.656 33.582-49.701 45.789-64.5z"/></svg>