<svg xmlns="http://www.w3.org/2000/svg" viewBox="0 0 512 512"><path d="M432 160c-17.6 0-32 14.4-32 32v128c0 17.6 14.4 32 32 32s32-14.4 32-32v-128c0-17.6-14.4-32-32-32zm-384 0c-17.6 0-32 14.4-32 32v128c0 17.6 14.4 32 32 32s32-14.4 32-32v-128c0-17.6-14.401-32-32-32zm48 208c0 26.51 21.49 48 48 48h16v64c0 17.6 14.4 32 32 32s32-14.4 32-32v-64h32v64c0 17.6 14.401 32 32 32s32-14.4 32-32v-64h16c26.51 0 48-21.49 48-48v-176h-288v176zm203.299-323.253l20.252-38.903c1.016-1.951.25-4.379-1.701-5.395s-4.379-.25-5.395 1.701l-20.559 39.493c-16.099-6.224-33.597-9.643-51.896-9.643-18.298 0-35.796 3.419-51.898 9.643l-20.558-39.492c-1.016-1.951-3.443-2.717-5.395-1.701s-2.717 3.443-1.701 5.395l20.25 38.904c-45.315 20.509-78.12 63.792-83.81 115.252h286.22c-5.688-51.462-38.493-94.744-83.809-115.254zm-123.299 90.453c-12.813 0-23.2-10.387-23.2-23.2 0-12.813 10.387-23.2 23.2-23.2s23.2 10.387 23.2 23.2c-.001 12.813-10.387 23.2-23.2 23.2zm128 0c-12.813 0-23.201-10.387-23.201-23.2 0-12.813 10.389-23.2 23.201-23.2s23.199 10.387 23.199 23.2c0 12.813-10.386 23.2-23.199 23.2z"/></svg>