<svg xmlns="http://www.w3.org/2000/svg" viewBox="0 0 512 512"><path d="M206.115 255.957c-23.854-12.259-47.043-18.479-68.94-18.479-2.978 0-5.976.09-8.974.354-27.94 2.312-53.461 9.684-69.875 15.414-4.354 1.599-8.817 3.288-13.415 5.153l-44.911 155.697c30.851-11.416 58.146-16.969 83.135-16.969 40.423 0 69.764 15.104 93.996 30.652 11.481-38.959 39.022-133.045 47.241-161.162-5.975-3.642-12.038-7.285-18.257-10.66zm58.059 39.578l-45.223 157.074c13.416 7.686 58.549 32.025 93.106 32.025 27.896 0 59.126-7.148 95.417-21.896l43.178-150.988c-29.316 9.461-57.438 14.26-83.732 14.26-47.975 0-81.557-15.549-102.746-30.475zm-117.763-111.14c38.559.399 67.076 15.104 90.708 30.251l46.376-158.672c-9.773-5.598-35.403-19.547-53.929-24.3-12.193-2.842-25.01-4.308-38.602-4.308-25.898.488-54.194 6.973-86.444 19.9l-44.22 155.298c32.404-12.218 60.322-18.17 86.043-18.17l.068.001zm365.589-85.333c-29.407 11.416-58.104 17.233-85.514 17.233-45.843 0-79.646-15.901-101.547-31.183l-45.975 159.118c30.873 19.854 64.145 29.939 99.061 29.939 28.474 0 57.97-6.84 87.731-20.344l-.091-1.111 1.867-.443 44.468-153.209z"/></svg>