<svg xmlns="http://www.w3.org/2000/svg" viewBox="0 0 512 512"><path d="M445.98 257.102c-9.043 0-17.674 1.76-25.532 4.928-5.253-57.179-55.145-102.03-116-102.03-14.893 0-29.341 2.815-42.159 7.582-4.98 1.851-6.289 3.76-6.289 7.458v201.357c0 3.883 3.12 7.117 7.062 7.498.168.017 181.768.105 182.945.105 36.452 0 65.993-28.408 65.993-63.447s-29.567-63.451-66.02-63.451zm-245.98 126.898h16l8-112.11-8-111.89h-16l-8 111.89zm-48 0h-16l-8-81.375 8-78.625h16l8 80zm-80 0h16l8-64-8-64h-16l-8 64zm-64-32h16l8-32-8-32h-16l-8 32z"/></svg>