<svg xmlns="http://www.w3.org/2000/svg" viewBox="0 0 512 512"><path d="M426.686 0h-341.342c-46.937 0-85.343 38.403-85.343 85.34v234.658l7.999-31.998h16l8 32-8 32h-16l-8-31.998v106.652c.001 46.969 38.407 85.346 85.344 85.346h341.342c46.939 0 85.314-38.377 85.314-85.346v-106.101c0 35.039-29.541 63.447-65.993 63.447-1.177 0-182.777-.088-182.945-.105-3.941-.381-7.062-3.615-7.062-7.498v-201.357c0-3.697 1.309-5.606 6.289-7.458 12.818-4.767 27.267-7.582 42.159-7.582 60.854 0 110.746 44.851 115.999 102.029 7.858-3.168 16.489-4.928 25.532-4.928 36.453 0 66.021 28.412 66.021 63.451v-235.211c0-46.938-38.379-85.341-85.314-85.341zm-338.686 384h-16l-8-64 8-64h16l8 64-8 64zm64 0h-16l-8-81.375 8-78.625h16l8 80-8 80zm64 0h-16l-8-112.11 8-111.89h16l8 111.89-8 112.11z"/></svg>