<svg xmlns="http://www.w3.org/2000/svg" viewBox="0 0 512 512"><path d="M487.655 288.969c1.406-10.4 2.215-20.973 2.215-31.736 0-129.155-105.271-233.872-235.103-233.872-12.904 0-25.555 1.06-37.866 3.08-22.072-14.384-48.342-22.767-76.612-22.767-77.523 0-140.289 62.808-140.289 140.306 0 28.198 8.299 54.394 22.59 76.389-1.925 12.017-2.909 24.323-2.909 36.859 0 129.176 105.217 233.882 235.085 233.882 14.657 0 28.927-1.427 42.796-3.933 21.55 13.369 46.934 21.148 74.146 21.148 77.502.001 140.292-62.823 140.292-140.313-.003-29.293-8.96-56.528-24.345-79.043zm-210.915 140.627c-74.705 3.892-109.664-12.637-141.689-42.691-35.765-33.567-21.398-71.854 7.74-73.801 29.122-1.944 46.607 33.013 62.15 42.736 15.524 9.688 74.594 31.76 105.794-3.908 33.976-38.828-22.594-58.92-64.059-65.002-59.203-8.766-133.95-40.792-128.135-103.907 5.816-63.074 53.582-95.414 103.85-99.976 64.077-5.817 105.791 9.707 138.785 37.86 38.15 32.529 17.508 68.894-6.799 71.82-24.212 2.909-51.404-53.504-104.791-54.352-55.027-.864-92.217 57.261-24.286 73.784 67.966 16.505 140.75 23.286 166.961 85.417 26.229 62.137-40.754 128.125-115.521 132.02z"/></svg>