<svg xmlns="http://www.w3.org/2000/svg" viewBox="0 0 512 512"><path d="M409.79 406.814c-53.333-.209-81.749-26.291-101.496-72.251l-5.649-12.541-48.685-111c-16.146-39.293-56.211-65.836-101.417-65.836-61.167 0-110.792 49.626-110.792 110.836 0 61.209 49.624 110.834 110.792 110.834 42.669 0 79.771-24.125 98.291-59.5l19.688 45.416c-27.956 34.085-70.438 55.792-117.977 55.792-84.255 0-152.545-68.251-152.545-152.543 0-84.252 68.29-152.586 152.542-152.586 63.583 0 114.918 33.959 141 94.126 1.978 4.668 27.579 64.543 49.913 115.5 13.834 31.541 25.63 52.459 63.878 53.752 37.584 1.291 63.378-21.584 63.378-50.504 0-28.25-19.668-35.041-52.875-46.082-59.691-19.667-90.503-39.417-90.503-86.751 0-46.168 31.416-76.959 82.457-76.959 33.248 0 57.253 14.793 73.88 44.293l-32.628 16.666c-12.295-17.207-25.854-24-43.086-24-23.956 0-41.063 16.668-41.063 38.833 0 31.461 28.147 36.211 67.503 49.127 52.979 17.25 77.604 36.96 77.604 86.168.001 51.668-44.336 89.294-102.21 89.21z"/></svg>