<svg xmlns="http://www.w3.org/2000/svg" viewBox="0 0 512 512"><path d="M426 0h-340c-47.3 0-86 38.7-86 86v340c0 47.3 38.7 86 86 86h340c47.3 0 86-38.7 86-86v-340c0-47.3-38.7-86-86-86zm-52.742 380.444c-88.779 0-119.569-40.028-135.986-89.802l-16.425-51.318c-12.319-37.463-26.687-66.712-71.842-66.712-31.31 0-63.123 22.579-63.123 85.699 0 49.264 25.144 80.056 60.557 80.056 40.021 0 66.71-29.765 66.71-29.765l16.425 44.644s-27.718 27.197-85.699 27.197c-71.846 0-111.875-42.076-111.875-120.082 0-81.081 40.029-128.805 115.464-128.805 68.253 0 102.64 24.632 124.188 91.346l16.936 51.313c12.318 37.465 33.867 64.662 85.698 64.662 34.896 0 53.367-7.699 53.367-26.684 0-14.885-8.72-25.66-34.892-31.82l-34.9-8.207c-42.587-10.262-59.522-32.329-59.522-67.226 0-55.936 45.16-73.384 91.343-73.384 52.345 0 84.161 18.988 88.266 65.172l-51.317 6.16c-2.054-22.066-15.396-31.305-40.027-31.305-22.582 0-36.436 10.265-36.436 27.713 0 15.395 6.671 24.633 29.247 29.765l32.842 7.182c44.135 10.266 67.746 31.82 67.746 73.386-.002 51.317-43.108 70.815-106.745 70.815z"/></svg>