<svg xmlns="http://www.w3.org/2000/svg" viewBox="0 0 512 512"><path d="M426 0h-340c-47.3 0-86 38.7-86 86v340c0 47.3 38.7 86 86 86h340c47.3 0 86-38.7 86-86v-340c0-47.3-38.7-86-86-86zm-170 160c-17.645 0-32 14.355-32 32v128c0 52.936-43.065 96-96 96s-96-43.064-96-96v-64h64v64c0 17.645 14.355 32 32 32s32-14.355 32-32v-128c0-52.935 43.065-96 96-96s96 43.065 96 89v31l-41 12-23-12v-31c0-10.645-14.355-25-32-25zm224 160c0 52.936-43.065 96-96 96s-96-43.064-96-103v-62l23 12 41-12v62c0 24.645 14.355 39 32 39s32-14.355 32-32v-64h64v64z"/></svg>