<svg xmlns="http://www.w3.org/2000/svg" viewBox="0 0 512 512"><path d="M256 0c-141.385 0-256 114.615-256 256s114.615 256 256 256 256-114.615 256-256-114.615-256-256-256zm0 128c-17.645 0-32 14.355-32 32v128c0 52.935-43.065 96-96 96s-96-43.065-96-96v-64h64v64c0 17.645 14.355 32 32 32s32-14.355 32-32v-128c0-52.935 43.065-96 96-96s96 43.065 96 89v31l-41 12-23-12v-31c0-10.645-14.355-25-32-25zm128 256c-52.935 0-96-43.065-96-103v-62l23 12 41-12v62c0 24.645 14.355 39 32 39s32-14.355 32-32v-64h64v64c0 52.935-43.065 96-96 96z"/></svg>