<svg xmlns="http://www.w3.org/2000/svg" viewBox="0 0 512 512"><path d="M426.675 0h-341.351c-47.125 0-85.324 38.21-85.324 85.343v341.315c0 47.133 38.199 85.342 85.324 85.342h341.351c47.125 0 85.325-38.209 85.325-85.342v-341.315c0-47.133-38.2-85.343-85.325-85.343zm-145.853 342.059c-23.26-1.807-33.021-13.328-51.252-24.404-10.03 52.589-22.281 103.009-58.569 129.344-11.202-79.484 16.447-139.182 29.285-202.557-21.893-36.853 2.635-111.017 48.81-92.737 56.813 22.474-49.2 137.004 21.966 151.308 74.31 14.934 104.644-128.929 58.571-175.712-66.579-67.553-193.799-1.54-178.155 95.178 3.807 23.646 28.236 30.819 9.762 63.451-42.61-9.446-55.325-43.051-53.688-87.856 2.634-73.337 65.892-124.682 129.343-131.783 80.242-8.982 155.553 29.454 165.953 104.938 11.705 85.194-36.225 177.464-122.026 170.83z"/></svg>