<svg xmlns="http://www.w3.org/2000/svg" viewBox="0 0 512 512"><path d="M183.781 0c-121.679 0-183.781 70.081-183.781 200.928v274.517l119.195-119.314v-139.448c0-54.208 14.365-88.703 62.559-96.447 16.836-3.292 51.875-2.139 74.153-2.139v82.798c0 .755.104 2.103.297 2.793.935 3.352 3.965 5.808 7.558 5.815 2.031.004 3.934-1.052 5.895-2.985l206.561-206.487-138.656-.031h-153.781zm209.024 155.873v139.445c0 54.207-14.368 88.707-62.558 96.447-16.836 3.291-51.878 2.139-74.156 2.139v-82.797c0-.75-.103-2.102-.297-2.791-.932-3.356-3.961-5.811-7.556-5.815-2.032-.004-3.933 1.056-5.895 2.983l-206.562 206.483 138.653.033h153.784c121.677 0 183.782-70.084 183.782-200.926v-274.514l-119.195 119.313z"/></svg>