<svg xmlns="http://www.w3.org/2000/svg" viewBox="0 0 512 512"><path d="M511.845 0h-56.539l-123.801 169.948-49.022-49.025c-6.903-6.904-16.085-10.706-25.853-10.706-9.766 0-18.948 3.801-25.858 10.706l-22.257 22.258c-1.249-1.702-2.545-3.382-3.939-5.012-30.324-35.439-83.635-39.604-119.074-9.271-35.443 30.319-39.593 83.625-9.268 119.07 6.955 8.134 15.131 14.599 24.015 19.397.18 9.12 3.729 18.187 10.669 25.132l119.852 119.84c6.907 6.91 16.091 10.717 25.86 10.717 9.771 0 18.953-3.808 25.853-10.715l119.849-119.841c6.91-6.908 10.717-16.092 10.717-25.86s-3.807-18.953-10.715-25.858l-13.789-13.79 123.301-104.045v-122.945zm-264.106 137.896c2.375-2.373 5.532-3.68 8.891-3.68 3.357 0 6.512 1.306 8.882 3.676l51.688 51.691-56.18 77.121c-5.547 6.188-10.435 2.932-12.363.633-.662-.779-13.843-18.037-30.887-40.391 8.462-19.37 9.378-41.408 2.428-61.509l27.541-27.541zm137.625 119.856c2.375 2.374 3.684 5.529 3.684 8.886s-1.309 6.512-3.686 8.888l-119.855 119.847c-2.37 2.373-5.522 3.681-8.877 3.681-3.356 0-6.512-1.309-8.888-3.686l-118.63-118.619c13.809 1.857 28.036.313 41.323-4.74l79.585 64.009s4.353 4.04 9.158.137l110.959-93.631 15.227 15.228z"/></svg>