<svg xmlns="http://www.w3.org/2000/svg" viewBox="0 0 512 512"><path d="M440.317 65.387c12.849 6.288 24.047 15.243 32.251 26.241 17.268 23.15 22.118 54.686 14.418 93.733-7.78 39.513-25.208 72.867-50.583 97.022-4.641 4.851-9.611 9.373-14.902 13.54-27.178 21.401-61.499 32.714-99.254 32.714h-120.03l-32.282 151.363h-66.212l5.043-23.15h23.064l32.282-151.363h94.135c90.125 0 165.469-55.539 185.629-149.968 22.861-106.917-53.799-155.519-119.705-155.519h-224.639l-99.532 456.85h76.016l-12.016 55.15h131.83l32.282-151.363h94.135c90.125 0 165.469-55.539 185.629-149.968 16.858-78.84-20.402-125.966-67.559-145.282zm-120.186 90.132c-6.862 29.53-32.214 54.02-60.328 60.684l15.369-68.011h46.493c-.364 2.403-.861 4.845-1.534 7.327zm-108.959-62.478h64.566c18.38 0 33.254 9.002 40.935 23.15h-67.077l-23.008 101.815h-43.656l28.24-124.965z"/></svg>