<svg xmlns="http://www.w3.org/2000/svg" viewBox="0 0 512 512"><path d="M324.171 32c14.166 0 28.459 2.902 41.333 8.392 13.542 5.774 24.662 13.962 33.052 24.336 16.799 20.771 21.519 49.066 14.025 84.109-8.153 38.189-27.199 69.98-55.08 91.935-27.178 21.401-61.499 32.714-99.254 32.714h-120.03l-5.401 25.325-26.881 126.039h-66.212l85.588-392.85h198.86m-181.278 218.007h101.918c23.718 0 47.747-9.085 67.659-25.582 19.41-16.081 33.137-37.761 38.698-61.1 6.951-26.262 2.315-52.576-12.757-72.277-14.588-19.07-37.432-30.007-62.673-30.007h-90.141l-5.638 24.946-28.241 124.966-8.825 39.054m181.278-250.007h-224.639l-99.532 456.85h76.016l-12.016 55.15h131.83l32.282-151.363h94.135c90.125 0 165.469-55.539 185.629-149.968 16.858-78.84-20.402-125.966-67.559-145.282 12.849 6.288 24.047 15.243 32.251 26.241 17.268 23.15 22.118 54.686 14.418 93.733-7.78 39.513-25.208 72.867-50.583 97.022-4.641 4.851-9.611 9.373-14.902 13.54-27.178 21.401-61.499 32.714-99.254 32.714h-120.03l-32.282 151.363h-66.212l5.043-23.15h23.064l32.282-151.363h94.135c90.125 0 165.469-55.539 185.629-149.968 22.861-106.917-53.799-155.519-119.705-155.519zm-141.239 218.007l28.241-124.966h64.566c32.296 0 53.801 27.769 44.393 62.478-8.068 34.72-41.693 62.488-75.32 62.488h-61.88z"/></svg>