<svg xmlns="http://www.w3.org/2000/svg" viewBox="0 0 512 512"><path d="M304.438 326.734c-8.641 8.713-1.334 24.564-1.334 24.564l65.045 108.609s10.68 14.32 19.932 14.32c9.295 0 18.477-7.635 18.477-7.635l51.422-73.504s5.18-9.273 5.299-17.396c.186-11.553-17.227-14.717-17.227-14.717l-121.744-39.096c-.001.002-11.929-3.164-19.87 4.855zm-6.172-54.742c6.23 10.564 23.414 7.486 23.414 7.486l121.469-35.503s16.553-6.733 18.916-15.709c2.32-8.977-2.73-19.811-2.73-19.811l-58.049-68.376s-5.031-8.646-15.469-9.516c-11.508-.979-18.59 12.949-18.59 12.949l-68.635 108.005c0 .002-6.067 10.758-.326 20.475zm-57.389-42.108c14.304-3.522 16.574-24.302 16.574-24.302l-.972-172.935s-2.157-21.333-11.743-27.116c-15.035-9.121-19.491-4.359-23.798-3.722l-100.848 37.472s-9.877 3.268-15.021 11.509c-7.345 11.676 7.464 28.772 7.464 28.772l104.822 142.878s10.345 10.698 23.522 7.444zm-24.905 69.985c.361-13.338-16.015-21.35-16.015-21.35l-108.398-54.762s-16.063-6.623-23.861-2.008c-5.975 3.53-11.268 9.92-11.786 15.567l-7.06 86.906s-1.058 15.057 2.845 21.91c5.527 9.721 23.714 2.951 23.714 2.951l126.548-27.971c4.916-3.305 13.537-3.602 14.013-21.243zm31.468 46.902c-10.863-5.578-23.862 5.975-23.862 5.975l-84.734 93.283s-10.572 14.264-7.884 23.025c2.533 8.209 6.727 12.289 12.659 15.164l85.096 26.863s10.317 2.143 18.129-.121c11.09-3.215 9.047-20.576 9.047-20.576l1.924-126.301c-.001.001-.434-12.167-10.375-17.312z"/></svg>