<svg xmlns="http://www.w3.org/2000/svg" viewBox="0 0 512 512"><path d="M267.313 11.314c-6.222-6.222-18.513-11.314-27.313-11.314h-192c-8.8 0-16 7.2-16 16v480c0 8.8 7.2 16 16 16h384c8.8 0 16-7.2 16-16v-288c0-8.8-5.091-21.091-11.313-27.313l-169.374-169.373zm148.687 468.686h-352v-448h175.579c1.458.24 4.204 1.377 5.405 2.239l168.778 168.777c.861 1.201 1.998 3.947 2.238 5.405v271.579zm16-480h-96c-8.8 0-10.909 5.091-4.687 11.313l105.373 105.373c6.223 6.223 11.314 4.114 11.314-4.686v-96c0-8.8-7.2-16-16-16z"/></svg>