<svg xmlns="http://www.w3.org/2000/svg" viewBox="0 0 512 512"><path d="M421.006 294.74c-6.824-6.723-21.957-10.283-44.986-10.586-15.589-.172-34.351 1.201-54.085 3.964-8.837-5.099-17.946-10.647-25.094-17.329-19.231-17.958-35.284-42.886-45.288-70.297.652-2.56 1.207-4.81 1.724-7.106 0 0 10.833-61.53 7.965-82.333-.395-2.853-.637-3.681-1.404-5.898l-.941-2.417c-2.948-6.796-8.724-13.997-17.783-13.604l-5.312-.169-.146-.003c-10.1 0-18.332 5.166-20.493 12.887-6.569 24.217.209 60.446 12.491 107.369l-3.144 7.643c-8.794 21.438-19.815 43.03-29.539 62.079l-1.264 2.476c-10.23 20.019-19.512 37.013-27.927 51.411l-8.688 4.594c-.632.334-15.522 8.209-19.014 10.322-29.628 17.691-49.261 37.77-52.518 53.708-1.036 5.085-.265 11.593 5.007 14.607l8.403 4.229c3.645 1.826 7.489 2.751 11.427 2.751 21.102 0 45.6-26.286 79.348-85.183 38.965-12.684 83.327-23.228 122.207-29.045 29.629 16.684 66.071 28.273 89.071 28.273 4.084 0 7.606-.389 10.466-1.148 4.411-1.168 8.129-3.683 10.396-7.096 4.463-6.716 5.367-15.966 4.156-25.438-.361-2.812-2.606-6.288-5.035-8.661zm-315.183 112.284c3.848-10.521 19.08-31.322 41.602-49.778 1.416-1.148 4.904-4.416 8.097-7.451-23.551 37.562-39.323 52.533-49.699 57.229zm133.394-307.181c6.783 0 10.642 17.097 10.962 33.127.32 16.03-3.429 27.28-8.079 35.604-3.851-12.324-5.713-31.75-5.713-44.452 0 0-.283-24.279 2.83-24.279zm-39.791 218.904c4.725-8.458 9.641-17.378 14.665-26.839 12.246-23.158 19.979-41.278 25.739-56.173 11.455 20.842 25.722 38.56 42.493 52.756 2.092 1.771 4.309 3.551 6.637 5.325-34.105 6.748-63.582 14.955-89.534 24.931zm215.026-1.921c-2.077 1.299-8.027 2.05-11.854 2.05-12.353 0-27.636-5.647-49.063-14.833 8.234-.609 15.781-.919 22.55-.919 12.391 0 16.06-.054 28.175 3.036s12.269 9.367 10.192 10.666zm37.264-217.111l-71.432-71.431c-15.556-15.556-46.284-28.284-68.284-28.284h-240c-22 0-40 18-40 40v432c0 22 18 40 40 40h368c22 0 40-18 40-40v-304c0-22-12.728-52.729-28.284-68.285zm-22.627 22.628c1.565 1.565 3.125 3.487 4.64 5.657h-81.729v-81.728c2.17 1.515 4.092 3.075 5.657 4.64l71.432 71.431zm18.911 349.657c0 4.336-3.664 8-8 8h-368c-4.336 0-8-3.664-8-8v-432c0-4.336 3.664-8 8-8h240c2.416 0 5.127.305 8 .852v127.148h127.148c.547 2.873.852 5.583.852 8v304z"/></svg>