<svg xmlns="http://www.w3.org/2000/svg" viewBox="0 0 512 512"><path d="M345.11 235.841c-30.334-14.326-68.986-17.21-97.417 3.024 34.57-3.302 72.479 2.419 97.553 28.562 24-27.54 62.057-32.703 96.479-29.866-28.744-19.072-66.61-16.512-96.615-1.72zm-12.286 67.034c-34.189-.789-67.217 11.586-95.55 30.052-53.588-22.794-121.368-18.562-167.001 19.491 13.165-.467 26.003-3.723 39.028-5.396 47.591-4.744 98.294 7.071 134.256 39.912 14.886-21.771 35.822-39.121 59.826-49.961 31.537-15.26 67.08-16.842 101.41-17.26-20.844-14.324-47.308-16.977-71.969-16.838zm118.892-203.16l-71.432-71.431c-15.556-15.556-46.284-28.284-68.284-28.284h-240c-22 0-40 18-40 40v432c0 22 18 40 40 40h368c22 0 40-18 40-40v-304c0-22-12.728-52.729-28.284-68.285zm-22.627 22.628c1.565 1.565 3.125 3.487 4.64 5.657h-81.729v-81.728c2.17 1.515 4.092 3.075 5.657 4.64l71.432 71.431zm18.911 349.657c0 4.336-3.664 8-8 8h-368c-4.336 0-8-3.664-8-8v-432c0-4.336 3.664-8 8-8h240c2.416 0 5.127.305 8 .852v127.148h127.148c.547 2.873.852 5.583.852 8v304z"/></svg>