<svg xmlns="http://www.w3.org/2000/svg" viewBox="0 0 512 512"><path d="M319.889 237.946h22.106l-25.506 113.089-33.163-159.005h-53.275l-38.557 159.005-28.908-159.005h-55.697l56.546 255.941h54.419l38.147-151.354 34.128 151.354h50.168l64.815-255.941h-85.223zm131.827-138.231l-71.432-71.431c-15.556-15.556-46.284-28.284-68.284-28.284h-240c-22 0-40 18-40 40v432c0 22 18 40 40 40h368c22 0 40-18 40-40v-304c0-22-12.728-52.729-28.284-68.285zm-22.627 22.628c1.565 1.565 3.125 3.487 4.64 5.657h-81.729v-81.728c2.17 1.515 4.092 3.075 5.657 4.64l71.432 71.431zm18.911 349.657c0 4.336-3.664 8-8 8h-368c-4.336 0-8-3.664-8-8v-432c0-4.336 3.664-8 8-8h240c2.416 0 5.127.305 8 .852v127.148h127.148c.547 2.873.852 5.583.852 8v304z"/></svg>