<svg xmlns="http://www.w3.org/2000/svg" viewBox="0 0 512 512"><path d="M96 256h96v32h-96v-32zm0 64h96v32h-96v-32zm0 64h96v32h-96v-32zm355.716-284.285l-71.432-71.431c-15.556-15.556-46.284-28.284-68.284-28.284h-240c-22 0-40 18-40 40v432c0 22 18 40 40 40h368c22 0 40-18 40-40v-304c0-22-12.728-52.729-28.284-68.285zm-22.627 22.628c1.565 1.565 3.125 3.487 4.64 5.657h-81.729v-81.728c2.17 1.515 4.092 3.075 5.657 4.64l71.432 71.431zm18.911 349.657c0 4.336-3.664 8-8 8h-368c-4.336 0-8-3.664-8-8v-432c0-4.336 3.664-8 8-8h240c2.416 0 5.127.305 8 .852v127.148h127.148c.547 2.873.852 5.583.852 8v304zm-160-120h94.396c-7.413 36.516-39.693 64-78.396 64-44.183 0-80-35.817-80-80 0-38.703 27.485-70.983 64-78.396v94.396zm48-128c44.183 0 80 35.817 80 80 0 5.479-.554 10.83-1.604 16h-94.396v-94.396c5.17-1.05 10.521-1.604 16-1.604z"/></svg>