<svg xmlns="http://www.w3.org/2000/svg" viewBox="0 0 512 512"><path d="M30.269 0l41.072 460.815 184.378 51.185 184.862-51.262 41.15-460.738h-451.462zm375.112 431.412l-148.613 41.188v.233l-.388-.117-.391.117v-.233l-148.611-41.188-35.121-393.743h368.248l-35.124 393.743zm-80.004-166.31l-6.535 73.276-62.968 16.996-.137.039-62.931-16.958-4.025-45.117h-56.745l7.915 88.756 115.786 32.127h.137l.115-.039 115.671-32.088 15.52-173.506h-205.983l-5.151-57.874h216.267l5.056-56.513h-283.109l15.249 170.901z"/></svg>