<svg xmlns="http://www.w3.org/2000/svg" viewBox="0 0 512 512"><path d="M397.042 114.956c-40.701-40.526-58.654-88.728-40.099-107.663 18.556-18.935 66.592-1.432 107.293 39.095l.688.688c40.701 40.526 58.654 88.729 40.099 107.663-18.555 18.935-66.592 1.431-107.293-39.095l-.688-.688zm-201.146 292.018l225.637-225.637c13.607 7.621 27.189 13.07 40.16 16.048l-237.693 237.693-224 76.922 76.922-224 237.69-237.691c1.169 5.179 2.738 10.47 4.718 15.841 2.948 8.001 6.768 16.154 11.348 24.302l-225.65 225.653 26.869 26.869 220.66-220.661c5.448 6.685 11.333 13.223 17.62 19.511 6.339 6.339 12.858 12.233 19.485 17.645l-220.635 220.636 26.869 26.869z"/></svg>