<svg xmlns="http://www.w3.org/2000/svg" viewBox="0 0 512 512"><path d="M258.027 130.026c-21.205 20.571-56.098 55.135-63.634 62.679-58.813 58.807-196.9 222.62-194.357 319.26 96.64 2.551 260.449-135.547 319.263-194.354 7.544-7.545 42.108-42.441 62.673-63.64l-123.945-123.945zm214.312-27.936l-9.023-9.007 48.684-40.222-52.86-52.861-40.222 48.686-9.018-9.039c-27.895-1.631-72.881 25.375-117.215 61.04l118.63 118.63c13.414-16.688 25.524-33.433 35.421-49.356 9.648 36.481-5.979 102.913-117.835 190.941l14.233 14.232c104.866-75.426 155.397-164.117 123.129-243.364 4.189-11.079 6.571-21.232 6.076-29.68z"/></svg>