<svg xmlns="http://www.w3.org/2000/svg" viewBox="0 0 512 512"><path d="M256 16l-256 256 48 48 48-48v240h128v-96h64v96h128v-240l48 48 48-48-256-256zm-124 464h-4v-240l4-4v244zm16 0h-8v-252l8-8v260zm16 0h-8v-268l8-8v276zm16 0h-8v-284l8-8v292zm16-96h-4v96h-4v-300l8-8v212zm16 0h-8v-220l8-8v228zm16 0h-8v-236l8-8v244zm16 0h-8v-252l8-8v260zm16 0h-8v-268l4-4 4 4v268zm16 0h-8v-260l8 8v252zm16 0h-8v-244l8 8v236zm16 0h-8v-228l8 8v220zm16 96h-4v-96h-4v-212l8 8v300zm16 0h-8v-292l8 8v284zm16 0h-8v-276l8 8v268zm16 0h-8v-260l8 8v252zm12 0h-4v-244l4 4v240z"/></svg>