<svg xmlns="http://www.w3.org/2000/svg" viewBox="0 0 512 512"><path d="M228 492h284v-8h-276zm16-16h268v-8h-260zm-32 32h300v-8h-292zm80-80h220v-8h-212zm-16 16h236v-8h-228zm-16 16h252v-8h-244zm209.486-417.486c-25.969-25.97-55.528-42.514-84.413-42.514-19.764 0-39.211 7.745-56.979 25.514l-247.871 246.261-80.223 208.225 32 32 208.223-80.225 18.041-18.157 228.224-229.713c43.737-43.738 26.737-97.653-17.002-141.391zm-229.337 343.933l-114.598-114.597 201.804-200.494 113.287 113.288-200.493 201.803z"/></svg>