<svg xmlns="http://www.w3.org/2000/svg" viewBox="0 0 512 512"><path d="M192 96c123.712 0 224 100.289 224 224h-48c0-47.012-18.307-91.209-51.549-124.451-33.242-33.242-77.44-51.549-124.451-51.549v-48zm0-96c176.73 0 320 143.27 320 320h-48c0-36.74-7.185-72.357-21.355-105.859-13.698-32.384-33.317-61.478-58.312-86.474-24.996-24.996-54.09-44.615-86.474-58.312-33.502-14.17-69.118-21.355-105.859-21.355v-48zm95.195 224.804c21.879 21.878 32.798 50.553 32.785 79.225-31.98 47.998-31.98 111.971-31.98 111.971-128 0-224 96-224 96l-7-7-11.565-11.565 141.791-141.791c1.558.233 3.151.356 4.774.356 17.673 0 32-14.327 32-32 0-17.673-14.327-32-32-32-17.673 0-32 14.327-32 32 0 1.623.123 3.217.356 4.774l-141.791 141.791-18.565-18.565s96-96 96-224c0 0 63.999 0 111.999-32 28.664 0 57.327 10.935 79.196 32.804z"/></svg>