<svg xmlns="http://www.w3.org/2000/svg" viewBox="0 0 512 512"><path d="M192 96v48c47.011 0 91.209 18.307 124.451 51.549s51.549 77.439 51.549 124.451h48c0-123.711-100.288-224-224-224zm0-96v48c36.741 0 72.357 7.185 105.859 21.355 32.384 13.697 61.478 33.316 86.474 58.312 24.995 24.996 44.614 54.09 58.312 86.474 14.17 33.502 21.355 69.119 21.355 105.859h48c0-176.73-143.27-320-320-320zm-13.255 242.745l-134.565 134.566 90.51 90.51 134.565-134.565c24.993-24.993 24.994-65.516 0-90.51-24.994-24.995-65.517-24.994-90.51-.001zm-178.745 269.255l106.806-18.325-88.481-88.481z"/></svg>