<svg xmlns="http://www.w3.org/2000/svg" viewBox="0 0 512 512"><path d="M257.54 64c-164.546 0-257.54 109.352-257.54 189.347 0 121.887 109.354 190.477 200.308 212.956 90.962 22.488 125.172-18.765 123.714-66.303-1.771-57.75 27.073-58.496 47.52-56.459 20.431 2.051 140.458 29.764 140.458-62.215 0-113.826-89.928-217.326-254.46-217.326zm-33.54 32c17.673 0 32 14.327 32 32s-14.327 32-32 32-32-14.327-32-32 14.327-32 32-32zm-144 192.246c-8.973 0-16.246-7.273-16.246-16.246s7.273-16.246 16.246-16.246 16.246 7.273 16.246 16.246-7.273 16.246-16.246 16.246zm48-64.246c-17.673 0-32-14.327-32-32s14.327-32 32-32 32 14.327 32 32-14.327 32-32 32zm128 128c-35.346 0-64-21.49-64-48s28.654-48 64-48c35.347 0 64 21.49 64 48s-28.653 48-64 48zm112-128c-26.51 0-48-21.49-48-48s21.49-48 48-48 48 21.49 48 48-21.49 48-48 48z"/></svg>