<svg xmlns="http://www.w3.org/2000/svg" viewBox="0 0 512 512"><path d="M256 64c-141.385 0-256 100.288-256 224 0 82.947 51.529 155.359 128.101 194.078 43.186 21.34 80.116 5.816 54.146-30.87-13.888-13.875-22.247-31.728-22.247-51.208 0-44.183 42.98-80 96-80s96 35.817 96 80c0 19.48-8.359 37.332-22.246 51.207-25.97 36.685 10.955 52.209 54.139 30.874 76.576-38.718 128.107-111.132 128.107-194.081 0-123.712-114.615-224-256-224zm-192 256c-17.673 0-32-14.326-32-32s14.327-32 32-32 32 14.326 32 32-14.327 32-32 32zm64-100.287c-22.958 13.255-48.732 11.593-57.569-3.713-8.836-15.306 2.611-38.458 25.569-51.713s48.732-11.593 57.569 3.713c8.837 15.306-2.611 38.458-25.569 51.713zm128-27.713c-35.346 0-64-21.49-64-48s28.654-48 64-48c35.347 0 64 21.49 64 48s-28.653 48-64 48zm128 27.713c-22.958-13.255-34.406-36.407-25.569-51.713s34.611-16.968 57.569-3.713 34.406 36.407 25.569 51.713-34.611 16.968-57.569 3.713zm64 100.287c-17.673 0-32-14.326-32-32s14.327-32 32-32 32 14.326 32 32-14.327 32-32 32z"/></svg>