<svg xmlns="http://www.w3.org/2000/svg" viewBox="0 0 512 512"><path d="M490.927 21.072c70.41 70.41-55.713 113.366-85.421 143.069-5.505 5.508-10.809 10.808-15.788 15.791l30.319 30.317c6.195 6.196 6.195 16.334 0 22.529l-30.275 30.277c-6.195 6.193-16.334 6.193-22.528 0l-30.164-30.165-188.585 188.583c-32.289 32.293-94.209 60.488-124.248 90.527-9.012-9.012-12.117-12.118-12.117-12.118s-3.108-3.106-12.12-12.119c30.039-30.041 58.235-91.958 90.527-124.252l188.588-188.584-30.162-30.164c-6.197-6.195-6.197-16.332 0-22.527l30.273-30.277c6.198-6.197 16.336-6.197 22.53 0l30.318 30.318 15.788-15.789c29.704-29.702 72.657-155.824 143.065-85.416zm-357.107 385.735l191.801-191.808-28.624-28.625-191.803 191.807c-14.833 14.832-29.705 38.154-44.091 60.715l-.066.103c-7.874 12.345-15.474 24.262-23.192 35.155 10.927-7.744 22.878-15.365 35.257-23.258 22.558-14.384 45.884-29.257 60.718-44.089z"/></svg>