<svg xmlns="http://www.w3.org/2000/svg" viewBox="0 0 512 512"><path d="M384 160h-56c-32 0-8-32-8-96 0-7.555-.9-13.307-2.474-17.61-7.651-26.779-32.29-46.39-61.526-46.39-29.235 0-53.875 19.611-61.526 46.39-1.573 4.303-2.474 10.055-2.474 17.61 0 64 24 96-8 96h-56v64h64v248c0 4.4 3.6 8 8 8h16c4.4 0 8 3.6 8 8v16c0 4.4 3.6 8 8 8h48c4.4 0 8-3.6 8-8v-16c0-4.4 3.6-8 8-8h16c4.4 0 8-3.6 8-8v-248h64v-64zm-96 288.804c-15.649 3.189-28.007 15.547-31.196 31.196h-1.607c-3.19-15.649-15.547-28.007-31.196-31.196v-224.804h64v224.804z"/></svg>