<svg xmlns="http://www.w3.org/2000/svg" viewBox="0 0 512 512"><path d="M447.97 316.751l-.021-1.053c-.016-.714-.035-1.427-.059-2.14-5.015-157.824-191.89-313.558-191.89-313.558s-186.877 155.734-191.89 313.561c-.022.715-.044 1.426-.06 2.141l-.021 1.053c-.018 1.08-.028 2.162-.028 3.248 0 1.184.014 2.361.035 3.539l.007.293c2.039 104.266 87.198 188.165 191.957 188.165 104.758 0 189.916-83.899 191.959-188.168l.005-.293c.021-1.178.036-2.357.036-3.539 0-1.086-.012-2.168-.03-3.249zm-63.995 5.619l-.004.203c-.659 33.643-14.266 65.167-38.313 88.774-24.071 23.636-55.915 36.653-89.658 36.653-6.231 0-12.397-.447-18.462-1.319 69.528-41.423 116.108-117.352 116.108-204.161 0-9.728-.59-19.317-1.726-28.74 20.136 36.97 31.032 71.4 32.001 101.813l.002.072.039 1.422.014.724c.014.728.024 1.459.024 2.189 0 .792-.01 1.581-.025 2.37z"/></svg>