<svg xmlns="http://www.w3.org/2000/svg" viewBox="0 0 512 512"><path d="M120.037 315.356l-.006-.257c-.018-1.031-.031-2.06-.031-3.096 0-.951.009-1.897.024-2.842l.019-.922c.015-.626.033-1.249.053-1.874 4.385-138.098 167.903-274.365 167.903-274.365s37.698 31.418 77.378 79.368l-240.587 240.586c-2.869-11.764-4.507-24.01-4.753-36.598zm335.917-7.121c-.015-.624-.029-1.247-.051-1.872-1.545-48.613-22.809-96.999-49.718-139.293l104.443-104.443-24.628-24.627-448 448 24.627 24.628 93.961-93.962c30.782 38.597 78.205 63.334 131.411 63.334 91.664 0 166.176-73.411 167.965-164.646l.003-.257c.021-1.03.033-2.063.033-3.097 0-.95-.011-1.896-.027-2.843l-.019-.922zm-55.975 5.838l-.004.178c-.576 29.438-12.483 57.022-33.523 77.678-21.064 20.681-48.928 32.071-78.453 32.071-5.451 0-10.847-.391-16.154-1.155 60.839-36.244 101.596-102.682 101.596-178.64 0-8.511-.518-16.902-1.512-25.147 17.619 32.349 27.154 62.475 28.002 89.086l.002.062.033 1.244.013.634c.013.638.021 1.277.021 1.916 0 .692-.009 1.384-.021 2.073z"/></svg>