<svg xmlns="http://www.w3.org/2000/svg" viewBox="0 0 512 512"><path d="M256 65.328c-16.239 15.993-37.06 37.931-57.79 63.754-54.639 68.057-84.42 132.376-86.123 186.003-.018.558-.035 1.115-.048 1.677l-.008.385-.009.443c-.013.803-.021 1.607-.021 2.414 0 .792.009 1.578.022 2.365l.001.024.01.504c.74 37.844 16.045 73.311 43.095 99.869 27.084 26.589 62.908 41.234 100.871 41.234 37.963 0 73.785-14.645 100.87-41.236 27.047-26.554 42.353-62.019 43.098-99.86l.001-.073.003-.166c.016-.887.028-1.775.028-2.665 0-.811-.01-1.619-.023-2.427l-.007-.343-.009-.467c-.012-.519-.025-1.036-.043-1.555l-.002-.063-.002-.063c-1.704-53.627-31.485-117.946-86.124-186.002-20.731-25.821-41.552-47.759-57.79-63.752zm0-65.328s186.875 155.734 191.889 313.558c.025.713.043 1.426.06 2.14l.021 1.053c.018 1.081.03 2.163.03 3.249 0 1.182-.015 2.361-.036 3.539l-.005.293c-2.043 104.269-87.201 188.168-191.959 188.168-104.759 0-189.918-83.899-191.957-188.164l-.007-.293c-.021-1.179-.035-2.354-.035-3.539 0-1.086.01-2.168.028-3.248l.021-1.053c.016-.716.038-1.427.06-2.142 5.013-157.827 191.89-313.561 191.89-313.561zm105.981 312.116c.011.627.019 1.254.019 1.884 0 .688-.01 1.377-.023 2.103l-.003.166-.001.076c-.597 29.396-12.5 56.947-33.521 77.585-21.065 20.68-48.927 32.07-78.452 32.07-23.481 0-45.906-7.21-64.701-20.561 4.201.366 8.437.561 12.701.561 37.963 0 73.785-14.645 100.87-41.236 27.047-26.554 42.353-62.019 43.098-99.86l.001-.073.003-.166c.016-.887.028-1.775.028-2.665 0-.811-.01-1.619-.023-2.428l-.007-.343-.009-.467c-.012-.519-.025-1.036-.043-1.555l-.002-.063-.002-.063c-.298-9.381-1.475-19.095-3.474-29.093 14.729 29.854 22.709 57.547 23.491 82.165l.004.102.001.039.031 1.144.008.431.006.247z"/></svg>