<svg xmlns="http://www.w3.org/2000/svg" viewBox="0 0 512 512"><path d="M0 32v448h512v-448h-512zm480 32v325.154l-125.941-146.932c-8.806-10.272-21.219-16.164-34.059-16.164s-25.253 5.892-34.059 16.164l-148.951 173.778h-93.461l72.914-91.143c3.271-4.09 7.376-6.342 11.557-6.342s8.286 2.252 11.557 6.342l15.867 19.834 18.295-21.954-12.297-15.372c-8.567-10.708-20.749-16.85-33.421-16.85s-24.854 6.142-33.421 16.85l-62.58 78.224v-321.589h448zm-13.868 352h-292.264l133.333-155.556c3.529-4.118 8.075-6.386 12.799-6.386s9.27 2.268 12.799 6.386l133.333 155.556zm-322.132-292c28.673 0 52 23.327 52 52s-23.327 52-52 52-52-23.327-52-52 23.327-52 52-52m0-28c-44.183 0-80 35.817-80 80s35.817 80 80 80 80-35.817 80-80-35.817-80-80-80z"/></svg>