<svg xmlns="http://www.w3.org/2000/svg" viewBox="0 0 512 512"><path d="M256 216c46.869 0 85 39.477 85 88s-38.131 88-85 88-85-39.477-85-88 38.131-88 85-88zm224-120h-96l-16.179-40.717c-3.202-12.805-16.621-23.283-29.821-23.283h-164c-13.2 0-26.619 10.478-29.821 23.283l-16.179 40.717h-96c-17.6 0-32 14.4-32 32v352c0 17.6 14.4 32 32 32h448c17.6 0 32-14.4 32-32v-352c0-17.6-14.4-32-32-32zm-224 344c-73.336 0-133-61.01-133-136 0-74.991 59.664-136 133-136 73.337 0 133 61.009 133 136 0 74.99-59.663 136-133 136z"/></svg>