<svg xmlns="http://www.w3.org/2000/svg" viewBox="0 0 512 512"><path d="M480 96h-96l-16.179-40.717c-3.202-12.805-16.621-23.283-29.821-23.283h-164c-13.2 0-26.619 10.478-29.821 23.283l-16.179 40.717h-96c-17.6 0-32 14.4-32 32v352c0 17.6 14.4 32 32 32h448c17.6 0 32-14.4 32-32v-352c0-17.6-14.4-32-32-32zm-32 352h-384v-288h107.437l25.431-64h118.265l25.431 64h107.436v288zm-192-264c-66.168 0-120 53.832-120 120s53.832 120 120 120 120-53.832 120-120-53.832-120-120-120zm0 192c-39.701 0-72-32.299-72-72s32.299-72 72-72 72 32.299 72 72-32.299 72-72 72z"/></svg>