<svg xmlns="http://www.w3.org/2000/svg" viewBox="0 0 512 512"><path d="M416 32h-320c-35.2 0-64 28.8-64 64v320c0 35.2 28.8 64 64 64h320c35.2 0 64-28.8 64-64v-320c0-35.2-28.8-64-64-64zm-80 256c0 44.112-35.888 80-80 80s-80-35.888-80-80c0-26.142 12.605-49.393 32.056-64h95.889c19.45 14.607 32.055 37.858 32.055 64zm-176-192h32v64h-32v-64zm-64 0h32v64h-32v-64zm320 319.886l-.114.114h-319.772l-.114-.114v-191.886h49.128c-10.891 18.828-17.128 40.685-17.128 64 0 70.692 57.308 128 128 128s128-57.308 128-128c0-23.315-6.236-45.172-17.128-64h49.128v191.886z"/></svg>