<svg xmlns="http://www.w3.org/2000/svg" viewBox="0 0 512 512"><path d="M256 0c-141.385 0-256 114.615-256 256s114.615 256 256 256 256-114.615 256-256-114.615-256-256-256zm0 56.809c30.187 0 54.658 24.471 54.658 54.659 0 30.187-24.472 54.658-54.658 54.658-30.188 0-54.658-24.471-54.658-54.658 0-30.188 24.47-54.659 54.658-54.659zm-198.222 150.555c0-30.187 24.471-54.658 54.659-54.658 30.187 0 54.658 24.471 54.658 54.658 0 30.188-24.471 54.659-54.658 54.659-30.187-.001-54.659-24.472-54.659-54.659zm111.423 215.28c-30.187 0-54.658-24.471-54.658-54.658s24.472-54.659 54.658-54.659c30.187 0 54.659 24.472 54.659 54.659s-24.472 54.658-54.659 54.658zm86.799-134.644c-17.673 0-32-14.327-32-32 0-17.673 14.327-32 32-32 17.673 0 32 14.327 32 32 0 17.673-14.327 32-32 32zm86.799 134.969c-30.188 0-54.658-24.471-54.658-54.658s24.471-54.659 54.658-54.659 54.658 24.472 54.658 54.659-24.472 54.658-54.658 54.658zm56.763-160.621c-30.187 0-54.658-24.471-54.658-54.659 0-30.187 24.472-54.658 54.658-54.658 30.188 0 54.659 24.471 54.659 54.658.001 30.187-24.47 54.659-54.659 54.659z"/></svg>