<svg xmlns="http://www.w3.org/2000/svg" viewBox="0 0 512 512"><path d="M291.571 416h-199c-33.399 0-60.571-26.317-60.571-58.666v-170.667c0-32.349 27.172-58.667 60.571-58.667h199c33.399 0 60.571 26.318 60.571 58.667v21.7l69.58-60.266c9.591-9.084 19.306-13.69 28.881-13.69 13.561 0 29.396 9.961 29.396 38.033v199.111c0 10.083-2.061 18.469-6.124 24.924-5.244 8.331-13.727 13.109-23.271 13.109h-.003c-9.574-.001-19.287-4.605-28.877-13.688l-69.582-60.267v21.699c.001 32.351-27.171 58.668-60.571 58.668zm-199-256c-15.754 0-28.571 11.963-28.571 26.667v170.667c0 14.704 12.817 26.666 28.571 26.666h199c15.754 0 28.571-11.962 28.571-26.666v-57.005c0-6.58 4.028-12.489 10.153-14.894 6.124-2.402 13.098-.814 17.573 4.008.328.354.625.663.902.938l94.188 81.577c.2.175.396.354.589.537 1.623 1.554 3.029 2.668 4.174 3.453.163-1.159.278-2.615.278-4.393v-199.111c0-1.777-.115-3.233-.278-4.392-1.145.784-2.551 1.899-4.174 3.453-.192.184-.389.362-.589.536l-94.19 81.581c-.273.271-.573.582-.908.942-4.479 4.817-11.445 6.404-17.571 3.996-6.121-2.406-10.146-8.313-10.146-14.891v-57.004c0-14.704-12.817-26.667-28.571-26.667h-199.001z"/></svg>