<svg xmlns="http://www.w3.org/2000/svg" viewBox="0 0 512 512"><path d="M393.416 196.386c-29.516 0-56.043 12.298-74.926 32.347-7.998 8.492-21.881 18.556-36.9 27.405 7.055-26.934 29.338-60.85 44.814-75.728 19.82-19.085 31.992-45.915 31.992-75.75.003-57.447-45.738-104.048-102.394-104.66-56.66.611-102.398 47.213-102.398 104.659 0 29.836 12.172 56.665 31.993 75.75 15.477 14.878 37.76 48.794 44.814 75.728-15.021-8.85-28.903-18.913-36.9-27.405-18.884-20.049-45.41-32.347-74.925-32.347-57.193 0-103.54 46.832-103.54 104.664 0 57.819 46.346 104.669 103.54 104.669 29.521 0 56.041-12.678 74.925-32.726 8.402-8.936 23.222-20.069 39.146-29.316-1.501 73.846-36.766 128.084-72.659 149.453v18.871h192.007v-18.87c-35.896-21.368-71.16-75.608-72.66-149.453 15.926 9.247 30.744 20.384 39.146 29.316 18.883 20.047 45.404 32.726 74.926 32.726 57.193 0 103.539-46.85 103.539-104.669-.001-57.832-46.346-104.664-103.54-104.664z"/></svg>