<svg xmlns="http://www.w3.org/2000/svg" viewBox="0 0 512 512"><path d="M487.024 132.75c-16.872-16.872-40.057-24.976-65.75-24.976-34.444 0-73.404 14.558-107.766 42.062-8.132-24.908-23.24-43.758-41.509-50.811v-35.025h48v-32h-48v-32h-32v32h-48v32h48v35.024c-18.268 7.053-33.376 25.902-41.508 50.809-34.361-27.503-73.321-42.062-107.765-42.06-25.693.002-48.879 8.104-65.75 24.976-43.739 43.739-28.542 129.85 33.941 192.333 11.679 11.679 24.186 21.694 37.083 29.993v46.882c43.829 8.785 99.454 14.043 160 14.043s116.171-5.258 160-14.043v-46.88c12.897-8.298 25.404-18.314 37.083-29.993 62.483-62.484 77.68-148.596 33.941-192.334zm-405.478 56.572c.539-.36 3.423-1.548 9.181-1.549h.008c15.925 0 43.814 9.293 70.005 35.484 17.287 17.287 29.66 38.181 33.948 57.326 3.059 13.66.767 20.748-.007 21.868-.536.359-3.416 1.549-9.18 1.549-15.928 0-43.822-9.294-70.015-35.486-17.288-17.289-29.662-38.185-33.948-57.33-3.058-13.656-.766-20.741.008-21.862zm348.915 21.868c-4.287 19.145-16.66 40.039-33.946 57.324-26.193 26.193-54.086 35.486-70.015 35.486-5.762 0-8.644-1.188-9.18-1.548-.773-1.119-3.066-8.204-.009-21.862 4.286-19.146 16.66-40.041 33.948-57.33 26.192-26.192 54.087-35.486 70.015-35.486 5.764 0 8.645 1.188 9.18 1.548.774 1.12 3.067 8.208.007 21.868zm-334.461 239.642v47.125c43.829 8.785 99.454 14.043 160 14.043s116.171-5.258 160-14.043v-47.125c-46.914 8.625-101.98 13.168-160 13.168s-113.086-4.543-160-13.168z"/></svg>