<svg xmlns="http://www.w3.org/2000/svg" viewBox="0 0 512 512"><path d="M256 480c-57.294 0-112.881-4.967-156.521-13.984-1.169-.241-2.328-.487-3.479-.734v32.676c43.829 8.784 99.454 14.042 160 14.042s116.171-5.258 160-14.043v-32.676c-1.151.247-2.31.493-3.479.734-43.639 9.018-99.226 13.985-156.521 13.985zm128-49.003v-14.997l-16-32h-224l-16 32v14.997c37.655 5.446 81.37 8.564 128 8.564 46.631.001 90.345-3.118 128-8.564zm116.754-290.169c-14.997-14.997-39.311-14.997-54.307 0-12.725 12.724-14.646 32.154-5.776 46.911l-97.661 58.597 19.253-90.858c16.84 3.581 34.585-4.562 42.474-20.735 9.297-19.062 1.381-42.05-17.68-51.347-19.062-9.297-42.051-1.381-51.348 17.681-7.889 16.174-3.38 35.171 9.811 46.236l-59.104 70.348-21.101-84.403c16.705-4.163 29.085-19.261 29.085-37.256 0-21.208-17.192-38.4-38.399-38.4-21.208 0-38.4 17.192-38.4 38.4 0 17.995 12.38 33.093 29.086 37.256l-21.101 84.403-59.104-70.348c13.19-11.065 17.699-30.062 9.811-46.236-9.297-19.062-32.286-26.978-51.348-17.681-19.061 9.297-26.977 32.286-17.68 51.347 7.888 16.174 25.634 24.316 42.474 20.735l19.252 90.858-97.66-58.597c8.87-14.757 6.947-34.187-5.777-46.911-14.996-14.997-39.31-14.997-54.307 0-14.995 14.996-14.995 39.309.001 54.306 12.724 12.724 32.154 14.646 46.91 5.777l90.653 151.089h214.378l90.653-151.089c14.756 8.869 34.186 6.947 46.91-5.777 14.997-14.997 14.997-39.311.002-54.306z"/></svg>