<svg xmlns="http://www.w3.org/2000/svg" viewBox="0 0 512 512"><path d="M496 480h-368l-16 32h400zm-212.254-224c6.724 103.949-84.766 144.757-116.334 208h312.588v-176c0-111.17-43.536-191.427-94.956-230.07-2.373-10.093-5.959-21.243-9.954-30.304l-6.18-14.013c-7.102-16.104-22.144-18.229-33.426-4.722l-19.313 23.118-.425-.009c-8.234 0-15.821.257-22.854.745l-42.266-28.178c-14.645-9.763-26.626-3.351-26.626 14.249v32.592c-12.982 7.351-23.863 16.243-36.254 25.691-32 24.399-108.926 121.066-160 178.901-47.246 53.5-21.725 96 23 86-2.246 42 32.754 28.5 57 10 55.907-42.657 180.754-22.5 176-96zm103.717-169.462c17.253 17.466 32.154 39.811 43.73 65.751 17.788 39.857 26.807 85.517 26.807 135.711v144l-48-48v-96c0-43.411-7.617-82.489-22.64-116.149-9.204-20.625-20.739-38.084-33.835-51.375l33.938-33.938zm-307.463 208.09c-12.497 0-22.628-10.13-22.628-22.628 0-12.497 10.131-22.627 22.628-22.627 12.496 0 22.627 10.13 22.627 22.627 0 12.498-10.131 22.628-22.627 22.628zm160.971-150.657c-18.746 18.745-41.539 26.343-50.912 16.971-9.373-9.373-1.775-32.167 16.97-50.912 18.745-18.745 41.539-26.343 50.913-16.97 9.37 9.372 1.774 32.166-16.971 50.911z"/></svg>