<svg xmlns="http://www.w3.org/2000/svg" viewBox="0 0 640 512"><path d="M288 32a32 32 2700 1 0 64 0 32 32 2700 1 0-64 0zm32 352c112.8 0 216.385-34.658 297.72-92.509-70.894 95.607-177.943 156.509-297.72 156.509-119.777 0-226.825-60.902-297.719-156.508 81.335 57.85 184.919 92.508 297.719 92.508zm0-128c76.853 0 147.895-20.56 205.514-55.385-46.052 72.321-120.94 119.385-205.514 119.385s-159.462-47.064-205.514-119.385c57.619 34.825 128.66 55.385 205.514 55.385zm0-128c40.751 0 79.405-5.262 114.121-14.676-23.062 47.089-65.533 78.676-114.121 78.676s-91.059-31.587-114.121-78.676c34.716 9.414 73.369 14.676 114.121 14.676z" transform="scale(1 -1) translate(0 -480)"/></svg>