<svg xmlns="http://www.w3.org/2000/svg" viewBox="0 0 512 512"><path d="M160 512h192l-64-64v-232.583c19.124-11.067 32-31.732 32-55.417 0-35.346-28.653-64-64-64-35.346 0-64 28.654-64 64 0 23.685 12.876 44.349 32 55.417v232.583l-64 64zm195.918-431.996c17.568 21.914 28.082 49.725 28.082 79.996s-10.515 58.082-28.082 79.996l24.979 19.999c21.96-27.392 35.103-62.156 35.103-99.995s-13.144-72.603-35.103-99.995l-24.979 19.999zm-224.816-19.998c-21.959 27.392-35.102 62.156-35.102 99.994s13.143 72.602 35.102 99.994l24.979-19.999c-17.566-21.913-28.081-49.724-28.081-79.995s10.515-58.082 28.082-79.995l-24.98-19.999zm-74.938-60.006c-35.134 43.828-56.164 99.449-56.164 159.991s21.03 116.163 56.164 159.989l24.979-19.998c-30.742-38.349-49.143-87.017-49.143-139.991s18.4-101.643 49.143-139.992l-24.979-19.999zm399.672 0l-24.979 19.999c30.743 38.349 49.143 87.018 49.143 139.992s-18.4 101.644-49.144 139.992l24.979 19.999c35.136-43.828 56.165-99.449 56.165-159.991s-21.029-116.163-56.164-159.991z"/></svg>