<svg xmlns="http://www.w3.org/2000/svg" viewBox="0 0 512 512"><path d="M420 224v64c0 43.807-17.059 84.99-48.035 115.966-30.975 30.975-72.158 48.034-115.965 48.034-43.806 0-84.99-17.059-115.965-48.034-30.975-30.976-48.035-72.159-48.035-115.966v-64h-28v64c0 95.135 69.195 174.094 160 189.33v2.67h-96v32h256v-32h-96v-2.67c90.804-15.236 160-94.195 160-189.33v-64h-28zm-164-224c-70.692 0-128 57.308-128 128v160c0 70.693 57.308 128 128 128 70.692 0 128-57.307 128-128v-160c0-70.692-57.308-128-128-128zm92 79.548c3.314 6.269 6.012 12.912 8 19.852v92.6h-8v-112.452zm-16-22.46c2.854 3.057 5.526 6.286 8 9.669v125.243h-8v-134.912zm-16-13.989c2.77 1.962 5.439 4.056 8 6.273v142.628h-8v-148.901zm-16-9.318c2.732 1.281 5.402 2.674 8 4.18v154.039h-8v-158.219zm-16-5.948c2.713.759 5.381 1.625 8 2.594v161.573h-8v-164.167zm-16-3.137c2.699.312 5.367.726 8 1.241v166.063h-8v-167.304zm-16-.612c1.328-.051 2.66-.084 4-.084s2.672.034 4 .084v167.916h-8v-167.916zm-16 1.854c2.633-.515 5.301-.93 8-1.241v167.303h-8v-166.062zm-16 4.489c2.619-.969 5.287-1.834 8-2.594v164.167h-8v-161.573zm-16 7.534c2.597-1.506 5.268-2.898 8-4.18v158.219h-8v-154.039zm-16 11.411c2.561-2.217 5.231-4.311 8-6.273v148.901h-8v-142.628zm-16 17.385c2.474-3.383 5.146-6.612 8-9.669v134.912h-8v-125.243zm-16 32.643c1.988-6.94 4.686-13.583 8-19.852v112.452h-8v-92.6zm204 188.6c0 57.346-46.654 104-104 104s-104-46.654-104-104v-64h208v64z"/></svg>