<svg xmlns="http://www.w3.org/2000/svg" viewBox="0 0 512 512"><path d="M229.053 168.046l-229.053 279.954c0 32 32 64 64 64l279.954-229.054c-56.186-14.479-100.421-58.714-114.901-114.9zm62.429-128.498c-21.98 22.983-35.482 54.14-35.482 88.452 0 70.692 57.308 128 128 128 34.312 0 65.469-13.502 88.452-35.481-92.011-16.392-164.58-88.959-180.97-180.971zm124.518 24.452h32v32h-32zm-32-64c-23.014 0-44.606 6.078-63.268 16.71 7.994 92.704 81.854 166.564 174.558 174.558 10.632-18.661 16.71-40.254 16.71-63.268 0-70.692-57.307-128-128-128zm96 96h-32v32h32v32h-32v-32h-32v-32h-32v-32h-32v-32h32v32h32v-32h32v32h32v32z"/></svg>