<svg xmlns="http://www.w3.org/2000/svg" viewBox="0 0 512 512"><path d="M384 64c-49.179 0-94.03 18.498-128 48.905-33.969-30.407-78.821-48.905-128-48.905s-94.031 18.498-128 48.904v286.172l1.02.924c8.209 7.244 17.04 13.798 26.406 19.569 9.43-7.631 19.739-14.216 30.761-19.569 21.098-10.248 44.783-16 69.813-16s48.716 5.752 69.813 16c11.021 5.354 21.331 11.938 30.761 19.569 1.842 1.491 3.65 3.022 5.424 4.592 8.108 7.178 15.488 15.159 22.002 23.83 6.515-8.671 13.894-16.652 22.002-23.83 1.773-1.569 3.581-3.101 5.424-4.592 9.43-7.631 19.739-14.216 30.761-19.569 21.098-10.248 44.783-16 69.813-16s48.716 5.752 69.813 16c11.021 5.354 21.331 11.938 30.761 19.569 9.366-5.771 18.196-12.325 26.405-19.569l1.021-.924v-286.17199999999997c-33.969-30.406-78.821-48.904-128-48.904zm-256 288c-34.976 0-67.758 9.365-96 25.705v-249.712c26.741-20.088 59.98-31.993 96-31.993 36.025 0 69.258 11.919 96 32.013v249.692c-28.242-16.34-61.024-25.705-96-25.705zm256 0c-34.976 0-67.758 9.365-96 25.705v-249.692c26.742-20.094 59.976-32.013 96-32.013 36.021 0 69.259 11.906 96 31.994v249.712c-28.242-16.341-61.024-25.706-96-25.706z"/></svg>