<svg xmlns="http://www.w3.org/2000/svg" viewBox="0 0 512 512"><path d="M176 400a80 80 10980 1 0 160 0 80 80 10980 1 0-160 0zm328.988-284.01l-128 160c-6.315 7.894-15.606 11.997-24.984 12.004l-.004.006h-192l-.004-.007c-9.378-.007-18.669-4.11-24.984-12.002l-128-160c-8.402-10.502-9.34-25.138-2.348-36.627 5.881-9.663 16.314-15.365 27.329-15.365 2.082 0 4.186.204 6.282.623l89.725 17.944v-114.566h256v114.566l89.725-17.945c2.097-.419 4.199-.623 6.281-.623 11.015 0 21.449 5.703 27.329 15.365 6.993 11.489 6.055 26.125-2.347 36.627zm-152.988 38.243l-25.725 5.146c-17.325 3.468-34.188-7.772-37.654-25.104-3.466-17.33 7.773-34.188 25.104-37.654l38.275-7.655v-24.966l-96-32-96 32v24.966l38.276 7.655c17.33 3.466 28.569 20.324 25.103 37.654-3.466 17.331-20.326 28.564-37.654 25.104l-25.725-5.146v69.767l96-32 96 32v-69.767z" transform="scale(1 -1) translate(0 -480)"/></svg>