<svg xmlns="http://www.w3.org/2000/svg" viewBox="0 0 512 512"><path d="M255.645 0c-70.134 0-131.857 25.955-179.555 74.347-49.086 49.8-75.735 114.324-75.735 181.661 0 68.027 25.939 131.147 75.041 180.249 49.094 49.094 112.916 75.743 180.249 75.743s132.56-26.649 183.058-76.445c47.697-46.995 72.941-109.413 72.941-179.547 0-69.439-25.244-132.563-73.643-180.959-49.093-49.094-112.222-75.049-182.356-75.049zm.702 46.293c57.512 0 108.711 21.742 148.694 61.72 39.271 39.28 60.311 91.178 60.311 147.995 0 57.511-20.338 108.001-59.609 146.587-41.385 40.676-94.684 62.418-149.395 62.418-55.404 0-107.314-21.742-147.289-61.716-39.974-39.981-62.426-92.586-62.426-147.289 0-55.413 22.452-108.013 62.426-148.697 39.279-39.974 89.777-61.018 147.288-61.018zm-3.305 167.177c-14.453-26.373-39.131-36.865-67.768-36.865-41.686 0-74.867 29.489-74.867 79.403 0 50.759 31.193 79.396 76.287 79.396 28.922 0 53.599-15.881 67.207-39.981l-31.762-16.165c-7.092 17.017-17.868 22.113-31.477 22.113-23.533 0-34.311-19.564-34.311-45.362 0-25.813 9.073-45.378 34.311-45.378 6.808 0 20.416 3.692 28.361 20.701l34.019-17.862zm147.683 0c-14.461-26.373-39.129-36.865-67.766-36.865-41.688 0-74.867 29.489-74.867 79.403 0 50.759 31.193 79.396 76.287 79.396 28.92 0 53.59-15.881 67.199-39.981l-31.762-16.165c-7.084 17.017-17.861 22.113-31.479 22.113-23.525 0-34.309-19.564-34.309-45.362 0-25.813 9.08-45.378 34.309-45.378 6.809 0 20.418 3.692 28.369 20.701l34.019-17.862z"/></svg>