<svg xmlns="http://www.w3.org/2000/svg" viewBox="0 0 544 512"><path d="M496 32h-112c-26.4 0-63.273 15.273-81.941 33.941l-188.118 188.118c-18.667 18.667-18.667 49.214 0 67.882l140.118 140.117c18.667 18.668 49.214 18.668 67.882 0l188.117-188.117c18.669-18.668 33.942-55.541 33.942-81.941v-112c0-26.4-21.6-48-48-48zm-64 160c-26.51 0-48-21.49-48-48s21.49-48 48-48 48 21.49 48 48-21.49 48-48 48zm-388.687 107.313l171.189 171.189c-18.132 9.58-41.231 6.769-56.443-8.444l-140.118-140.117c-18.667-18.668-18.667-49.215 0-67.882l188.118-188.118c18.668-18.668 55.541-33.941 81.941-33.941l-244.687 244.686c-6.222 6.223-6.222 16.404 0 22.627z"/></svg>