<svg xmlns="http://www.w3.org/2000/svg" viewBox="0 0 544 512"><path d="M480 384h-96c-2.842 0-10.348-1.357-19.379-5.098-9.031-3.741-15.299-8.089-17.309-10.098l-176.803-176.804 117.491-117.49 176.803 176.804c2.01 2.009 6.358 8.277 10.098 17.308 3.742 9.03 5.099 16.536 5.099 19.378v96zm16 64c26.4 0 48-21.6 48-48v-112c0-26.4-15.273-63.273-33.942-81.941l-188.117-188.117c-9.334-9.334-21.637-14.001-33.941-14.001-12.304 0-24.608 4.667-33.941 14.001l-140.118 140.117c-18.667 18.668-18.667 49.215 0 67.882l188.118 188.118c18.668 18.668 55.541 33.941 81.941 33.941h112zm-452.687-267.313l171.189-171.189c-18.132-9.58-41.231-6.769-56.443 8.444l-140.118 140.117c-18.667 18.668-18.667 49.215 0 67.882l188.118 188.118c18.668 18.668 55.541 33.941 81.941 33.941l-244.687-244.686c-6.222-6.223-6.222-16.404 0-22.627zm340.687 139.313a32 32 2700 1 0 64 0 32 32 2700 1 0-64 0z" transform="scale(1 -1) translate(0 -480)"/></svg>