<svg xmlns="http://www.w3.org/2000/svg" viewBox="0 0 512 512"><path d="M192 256h32v64h-32zm64 96h32v64h-32zm144.443-208.971l-115.552-126.058c-8.557-9.334-25.457-16.971-37.558-16.971h-14.667c-12.1 0-29 7.637-37.556 16.971l-115.553 126.058c-8.557 9.334-15.557 27.771-15.557 40.971v304c0 13.2 9.9 24 22 24h308c12.101 0 22-10.8 22-24v-304c0-13.2-7-31.637-15.557-40.971zm-80.443 112.971h-64v64h64v128h-64v32h-32v-32h-64v-32h64v-64h-64v-128h64v-32h32v32h64v32zm-55-176c0 13.807-11.193 25-25 25s-25-11.193-25-25 11.193-25 25-25 25 11.193 25 25z"/></svg>