<svg xmlns="http://www.w3.org/2000/svg" viewBox="0 0 512 512"><path d="M160 32h-128v128h128v-128zm32-32v192h-192v-192h192zm-128 64h64v64h-64zm416-32h-128v128h128v-128zm32-32v192h-192v-192h192zm-128 64h64v64h-64zm-224 288h-128v128h128v-128zm32-32v192h-192v-192h192zm-128 64h64v64h-64zm160-384h32v32h-32zm32 32h32v32h-32zm-32 32h32v32h-32zm32 32h32v32h-32zm-32 32h32v32h-32zm32 32h32v32h-32zm-32 32h32v32h-32zm0 64h32v32h-32zm32 32h32v32h-32zm-32 32h32v32h-32zm32 32h32v32h-32zm-32 32h32v32h-32zm32 32h32v32h-32zm-32 32h32v32h-32zm32 32h32v32h-32zm224-224h32v32h-32zm-448 0h32v32h-32zm32-32h32v32h-32zm-64 0h32v32h-32zm128 0h32v32h-32zm32 32h32v32h-32zm32-32h32v32h-32zm96 32h32v32h-32zm32-32h32v32h-32zm32 32h32v32h-32zm32-32h32v32h-32zm32 32h32v32h-32zm32-32h32v32h-32zm32 96h32v32h-32zm-192 0h32v32h-32zm32-32h32v32h-32zm32 32h32v32h-32zm64 0h32v32h-32zm32-32h32v32h-32zm32 96h32v32h-32zm-192 0h32v32h-32zm32-32h32v32h-32zm64 0h32v32h-32zm32 32h32v32h-32zm32-32h32v32h-32zm32 96h32v32h-32zm-160-32h32v32h-32zm32 32h32v32h-32zm32-32h32v32h-32zm32 32h32v32h-32zm-96 32h32v32h-32zm64 0h32v32h-32zm64 0h32v32h-32z"/></svg>