<svg xmlns="http://www.w3.org/2000/svg" viewBox="0 0 512 512"><path d="M423.609 288c17.6 0 35.956-13.846 40.791-30.769l46.418-162.463c4.835-16.922-5.609-30.768-23.209-30.768h-327.609c0-35.346-28.654-64-64-64h-96v64h96v272c0 26.51 21.49 48 48 48h304c17.673 0 32-14.327 32-32s-14.327-32-32-32h-288v-32h263.609zm-263.609-64v-4h263.117l-1.143 4h-261.974zm281.403-68l-2.286 8h-279.117v-8h281.403zm-281.403-8v-8h285.975l-2.285 8h-283.69zm276.832 24l-2.286 8h-274.546v-8h276.832zm-4.571 16l-2.286 8h-269.975v-8h272.261zm-4.573 16l-2.285 8h-265.403v-8h267.688zm21.715-76l-1.143 4h-288.26v-4h289.403zm-297.403 288c22 0 40 18 40 40v16c0 22-18 40-40 40h-16c-22 0-40-18-40-40v-16c0-22 18-40 40-40h16zm288 0c22 0 40 18 40 40v16c0 22-18 40-40 40h-16c-22 0-40-18-40-40v-16c0-22 18-40 40-40h16z"/></svg>