<svg xmlns="http://www.w3.org/2000/svg" viewBox="0 0 512 512"><path d="M488.791 382.769c-16.992 4.854-34.705-4.985-39.56-21.978l-2.511-8.791h-298.471l-4.496 35.969c-2.002 16.014-15.615 28.031-31.753 28.031h-80c-17.673 0-32-14.327-32-32s14.327-32 32-32h51.751l28.496-227.969c2.002-16.013 15.615-28.031 31.753-28.031h272c14.287 0 26.844 9.472 30.769 23.209l64 224c4.855 16.993-4.985 34.705-21.978 39.56zm-96.929-222.769h-219.613l-.5 4h221.256l-1.143-4zm3.429 12h-224.542l-1 8h227.827l-2.285-8zm4.571 16h-231.113l-1 8h234.399l-2.286-8zm4.572 16h-237.685l-1 8h240.971l-2.286-8zm4.571 16h-244.256l-1 8h247.542l-2.286-8zm4.572 16h-250.828l-1 8h254.113l-2.285-8zm4.571 16h-257.399l-1 8h260.685l-2.286-8zm4.572 16h-263.971l-1 8h267.256l-2.285-8zm4.571 16h-270.542l-1 8h273.828l-2.286-8zm4.571 16h-277.113l-1 8h280.399l-2.286-8zm-279.113 16l-.5 4h285.327l-1.143-4h-283.684zm-24.749-300a48 48 2700 1 0 96 0 48 48 2700 1 0-96 0zm192 0a48 48 2700 1 0 96 0 48 48 2700 1 0-96 0z" transform="scale(1 -1) translate(0 -480)"/></svg>