<svg xmlns="http://www.w3.org/2000/svg" viewBox="0 0 512 512"><path d="M488.791 382.769c-16.992 4.854-34.705-4.985-39.56-21.978l-2.511-8.791h-298.471l-4.496 35.969c-2.002 16.014-15.615 28.031-31.753 28.031h-80c-17.673 0-32-14.327-32-32s14.327-32 32-32h51.751l28.496-227.969c2.002-16.013 15.615-28.031 31.753-28.031h272c14.287 0 26.844 9.472 30.769 23.209l64 224c4.855 16.993-4.985 34.705-21.978 39.56zm-232.791-158.769v32h63.998v-32h-63.998zm63.998-32v-32h-63.998v32h63.998zm-63.998 96v32h63.998v-32h-63.998zm-103.751 32h71.751v-32h-67.751l-4 32zm8-64h63.751v-32h-59.751l-4 32zm8-64h55.751v-32h-51.751l-4 32zm223.613-32h-39.864v32h49.007l-9.143-32zm18.286 64h-58.15v32h67.293l-9.143-32zm18.286 64h-76.436v32h85.579l-9.143-32zm-300.434-272a48 48 2700 1 0 96 0 48 48 2700 1 0-96 0zm192 0a48 48 2700 1 0 96 0 48 48 2700 1 0-96 0z" transform="scale(1 -1) translate(0 -480)"/></svg>