<svg xmlns="http://www.w3.org/2000/svg" viewBox="0 0 512 512"><path d="M488.791 382.769c-16.992 4.854-34.705-4.985-39.56-21.978l-2.511-8.791h-298.471l-4.496 35.969c-2.002 16.014-15.615 28.031-31.753 28.031h-80c-17.673 0-32-14.327-32-32s14.327-32 32-32h51.751l28.496-227.969c2.002-16.013 15.615-28.031 31.753-28.031h272c14.287 0 26.844 9.472 30.769 23.209l64 224c4.855 16.993-4.985 34.705-21.978 39.56zm-51.214-62.769l-9.144-32h-272.184l-4 32h285.328zm-18.286-64l-9.143-32h-245.899l-4 32h259.042zm-247.042-96l-4 32h232.756l-9.143-32h-219.613zm-44.249-144a48 48 2700 1 0 96 0 48 48 2700 1 0-96 0zm192 0a48 48 2700 1 0 96 0 48 48 2700 1 0-96 0z" transform="scale(1 -1) translate(0 -480)"/></svg>