<svg xmlns="http://www.w3.org/2000/svg" viewBox="0 0 512 512"><path d="M64 512h383.459s32.541-64 64-256h-511.459c32 192 64 256 64 256zm304-224h48v192h-48v-192zm-90.667 0h48v192h-48v-192zm-90.666 0h48v192h-48v-192zm-90.667 0h48v192h-48v-192zm341.768-128l-89.868-112.334c2.606-4.631 4.1-9.973 4.1-15.666 0-17.673-14.327-32-32-32-17.674 0-32 14.327-32 32s14.326 32 32 32c3.185 0 6.259-.472 9.162-1.338l77.87 97.338h-302.064l77.871-97.338c2.903.866 5.976 1.338 9.161 1.338 17.673 0 32-14.327 32-32s-14.327-32-32-32-32 14.327-32 32c0 5.693 1.493 11.034 4.1 15.666l-89.868 112.334h-74.232v64h512v-64h-74.232z"/></svg>