<svg xmlns="http://www.w3.org/2000/svg" viewBox="0 0 512 512"><path d="M352 96v-16c0-44.183-35.817-80-80-80-18.011 0-34.629 5.955-48 15.999-13.371-10.044-29.989-15.999-48-15.999-44.183 0-80 35.817-80 80v54.4l-64 9.6v336h64l32 32 320-48v-336l-96-32zm-256 352h-32v-276.442l32-4.8v281.242zm176-416c26.468 0 48 21.533 48 48v20.8l-64 9.6v-30.4c0-14.531-3.894-28.145-10.666-39.89 7.633-5.118 16.806-8.11 26.666-8.11zm-144 48c0-26.467 21.533-48 48-48 9.86 0 19.033 2.992 26.666 8.111-6.772 11.744-10.666 25.358-10.666 39.889v40l-64 9.6v-49.6zm288 356.442l-256 38.399v-271.283l256-38.4v271.284z"/></svg>