<svg xmlns="http://www.w3.org/2000/svg" viewBox="0 0 512 512"><path d="M335.333 158.667c-11.648 0-23.03 1.14-34.049 3.292-.873-.659-1.763-1.314-2.694-1.958 13.614-9.414 21.41-20.342 21.41-32v-32.001c0-35.346-71.634-64-160-64s-160 28.654-160 64v32c0 11.658 7.796 22.586 21.41 32-13.614 9.414-21.41 20.342-21.41 32v32c0 11.658 7.796 22.586 21.411 32-13.615 9.414-21.411 20.343-21.411 32v32c0 11.658 7.796 22.586 21.41 32-13.614 9.414-21.41 20.343-21.41 32v32c0 35.347 71.634 64 160 64 23.616 0 46.021-2.057 66.2-5.73 30.044 23.632 67.943 37.73 109.133 37.73 97.571 0 176.667-79.097 176.667-176.667 0-97.57-79.096-176.666-176.667-176.666zm-319.333-62.667c0-9.523 14.447-21.456 36.805-30.399 28.375-11.35 66.445-17.601 107.195-17.601s78.82 6.251 107.195 17.601c22.358 8.943 36.805 20.876 36.805 30.399s-14.447 21.456-36.805 30.399c-9.23 3.692-19.492 6.841-30.533 9.414-22.899 5.337-49.167 8.187-76.662 8.187s-53.763-2.85-76.663-8.187c-11.041-2.573-21.302-5.722-30.532-9.414-22.358-8.943-36.805-20.876-36.805-30.399zm0 192c0-7.067 7.961-15.46 21.203-22.975 29.35 14.041 73.463 22.975 122.797 22.975 1.71 0 3.406-.023 5.102-.047-4.188 15.08-6.436 30.967-6.436 47.38l.008.658c-27.013-.09-52.808-2.927-75.339-8.178-11.04-2.573-21.301-5.722-30.531-9.413-22.357-8.943-36.804-20.877-36.804-30.4zm144 144c-40.75 0-78.82-6.25-107.195-17.6-22.358-8.943-36.805-20.877-36.805-30.4 0-7.067 7.961-15.46 21.203-22.975 29.35 14.041 73.463 22.975 122.797 22.975 1.824 0 3.635-.023 5.443-.05 4.82 16.873 12.088 32.713 21.391 47.114-8.761.613-17.726.936-26.834.936zm0-192c-27.494 0-53.763-2.85-76.662-8.187-11.041-2.573-21.303-5.722-30.533-9.414-22.358-8.943-36.805-20.876-36.805-30.399 0-7.067 7.961-15.46 21.202-22.975 29.35 14.041 73.463 22.975 122.798 22.975 32.961 0 63.569-4.001 89.022-10.836-24.988 14.02-46.22 33.935-61.811 57.865-8.881.631-17.97.971-27.211.971zm175.333 239.879c-79.83 0-144.545-64.715-144.545-144.546 0-79.83 64.715-144.545 144.545-144.545 79.831 0 144.546 64.715 144.546 144.545 0 79.831-64.715 144.546-144.546 144.546zm16.667-255.879h-32v32h-64v96h64v32h-64v32h64v32h32v-32h64v-96h-64v-32h64v-32h-64v-32zm-32 96h-32v-32h32v32zm64 32v32h-32v-32h32z"/></svg>