<svg xmlns="http://www.w3.org/2000/svg" viewBox="0 0 512 512"><path d="M192 32h-160c-17.6 0-32 14.4-32 32v160c0 17.6 14.398 32 32 32h160c17.6 0 32-14.4 32-32v-160c0-17.6-14.4-32-32-32zm0 128h-160v-32h160v32zm256-128h-160c-17.602 0-32 14.4-32 32v416c0 17.6 14.398 32 32 32h160c17.6 0 32-14.4 32-32v-416c0-17.6-14.4-32-32-32zm0 288h-160v-32h160v32zm0-96h-160v-32h160v32zm-256 64h-160c-17.6 0-32 14.4-32 32v160c0 17.6 14.398 32 32 32h160c17.6 0 32-14.4 32-32v-160c0-17.6-14.4-32-32-32zm0 128h-64v64h-32v-64h-64v-32h64v-64h32v64h64v32z"/></svg>