<svg xmlns="http://www.w3.org/2000/svg" viewBox="0 0 512 512"><path d="M256 0c-141.385 0-256 114.615-256 256s114.615 256 256 256 256-114.615 256-256-114.615-256-256-256zm-96 256c0-53.02 42.98-96 96-96s96 42.98 96 96-42.98 96-96 96-96-42.98-96-96zm302.99 85.738l-88.71-36.745c6.259-15.092 9.72-31.638 9.72-48.993s-3.461-33.901-9.72-48.993l61.063-25.293 27.647-11.452c10.954 26.411 17.01 55.365 17.01 85.738 0 30.373-6.057 59.327-17.01 85.738zm-121.251-292.728l-36.745 88.71c-15.092-6.259-31.638-9.72-48.994-9.72s-33.901 3.461-48.993 9.72l-17.23-41.599-19.515-47.112c26.411-10.952 55.366-17.009 85.738-17.009 30.373 0 59.327 6.057 85.739 17.01zm-292.729 121.252l47.112 19.515 41.599 17.23c-6.259 15.092-9.721 31.638-9.721 48.993s3.461 33.901 9.72 48.993l-88.71 36.745c-10.953-26.411-17.01-55.365-17.01-85.738 0-30.373 6.057-59.327 17.01-85.738zm121.252 292.728l11.452-27.647 25.293-61.063c15.092 6.259 31.638 9.72 48.993 9.72s33.901-3.461 48.993-9.72l36.745 88.71c-26.411 10.952-55.365 17.01-85.738 17.01-30.372 0-59.327-6.057-85.738-17.01z"/></svg>