<svg xmlns="http://www.w3.org/2000/svg" viewBox="0 0 512 512"><path d="M403.655 512h-6.055c-32.828 0-82.212-15.348-135.488-42.106-52.054-26.146-99.579-58.811-130.387-89.619-30.809-30.808-63.473-78.332-89.618-130.386-26.76-53.277-42.107-102.661-42.107-135.49v-6.056l3.359-5.038c.667-1 16.557-24.767 36.677-48.91 21.105-25.325 48.63-54.395 74.364-54.395 22.215 0 49.753 22.282 64.191 35.564 11.086 10.199 38.206 37.139 50.555 66.953 13.07 31.554 1.723 49.564-6.205 57.491-13.666 13.666-27.12 21.981-37.931 28.663-16.997 10.505-19.144 12.762-19.144 20.128 0 23.18 29.012 52.193 57.068 80.252 28.069 28.067 57.083 57.081 80.265 57.081 7.366 0 9.624-2.147 20.128-19.144 6.682-10.812 14.998-24.266 28.664-37.932 7.975-7.975 18.547-12.191 30.574-12.191 13.033 0 27.884 4.986 44.139 14.821 12.849 7.772 26.457 18.512 39.355 31.056 10.778 10.483 45.941 46.857 45.941 74.858 0 25.734-29.07 53.26-54.396 74.364-24.144 20.12-47.91 36.011-48.91 36.677l-5.039 3.359zm-363.443-391.718c1.845 26.779 15.62 67.814 37.639 111.653 23.947 47.677 54.66 92.558 82.158 120.055 27.498 27.498 72.378 58.212 120.056 82.158 43.839 22.02 84.871 35.795 111.649 37.64 7.785-5.418 23.196-16.44 38.681-29.225 36.434-30.08 41.072-43.227 41.569-45.081-.911-5.818-11.776-24.986-35.052-47.28-23.913-22.904-44.934-33.336-54.346-33.336-1.204 0-1.975.16-2.29.476-10.373 10.373-16.753 20.695-22.922 30.677-11.041 17.865-23.557 38.114-54.154 38.114-39.75 0-74.721-34.97-108.54-68.787-33.827-33.828-68.794-68.797-68.794-108.546 0-30.598 20.249-43.113 38.115-54.154 9.982-6.169 20.304-12.549 30.676-22.921.598-.598 1.055-4.287-1.481-11.354-5.294-14.753-20.189-34.967-38.872-52.752-20.225-19.252-35.43-26.847-39.793-27.58-1.88.507-15.083 5.192-45.267 41.8-12.738 15.447-23.653 30.711-29.032 38.443zm279.788 7.718c-22.419 0-42.133 11.536-53.563 28.987 7.893-3.206 16.518-4.987 25.563-4.987 37.556 0 68 30.445 68 68 0 9.045-1.781 17.669-4.987 25.563 17.451-11.43 28.987-31.144 28.987-53.563 0-35.346-28.653-64-64-64zm16-64c-33.896 0-64.273 15.059-84.812 38.85 16.792-9.452 36.17-14.85 56.812-14.85 64.064 0 116 51.935 116 116 0 20.642-5.398 40.02-14.85 56.812 23.791-20.539 38.85-50.916 38.85-84.812 0-61.856-50.145-112-112-112zm32-64c-41.519 0-78.926 17.578-105.206 45.689 22.477-13.772 48.913-21.717 77.206-21.717 81.738 0 148 66.269 148 148.014 0 28.326-7.962 54.79-21.761 77.286 28.154-26.283 45.761-63.718 45.761-105.272 0-79.529-64.471-144-144-144z"/></svg>