<svg xmlns="http://www.w3.org/2000/svg" viewBox="0 0 512 512"><path d="M508.689 287.997c4.002 27.741 6.608 65.696-5.832 80.223-20.571 24.022-150.856 24.022-150.856-24.021 0-24.199 21.428-40.067.856-64.089-20.236-23.631-56.513-24.015-96.857-24.021-40.343.006-76.621.39-96.857 24.021-20.571 24.023.857 39.89.857 64.089 0 48.043-130.285 48.043-150.857 24.022-12.439-14.527-9.834-52.482-5.831-80.223 3.08-18.519 10.862-38.498 35.774-63.997l.001-.002c37.369-34.871 93.923-63.369 214.913-63.984v-.015l2 .007 2-.007v.014c120.99.615 177.544 29.113 214.913 63.984l.001.002c24.912 25.498 32.695 45.477 35.775 63.997z"/></svg>