<svg xmlns="http://www.w3.org/2000/svg" viewBox="0 0 512 512"><path d="M424.382 388.799c16.929 0 58.058-2.033 74.47-20.854 8.245-9.45 12.524-23.815 13.084-43.915.349-12.529-.728-27.418-3.203-44.253l-.064-.411c-4.211-24.856-16.05-45.951-38.387-68.398l-.633-.607c-30.108-27.583-79.132-59.11-192.798-62.798v-.362h-19l-1.821.007-1.882-.007-19 .014v.349c-113.666 3.688-162.69 35.215-192.798 62.798l-.634.609c-22.335 22.444-34.174 43.538-38.385 68.396l-.065.411c-2.474 16.834-3.551 31.723-3.203 44.253.56 20.099 4.839 34.464 13.082 43.914 16.416 18.822 57.552 20.854 74.476 20.854 22.98 0 44.609-3.471 60.901-9.774 32.717-12.657 37.602-33.878 37.602-45.4 0-11.069-3.295-20.191-5.942-27.52-4.076-11.282-4.362-12.707.467-18.243 13.355-15.31 43.47-15.316 75.347-15.322 31.883.006 61.999.011 75.353 15.323 4.83 5.536 4.544 6.961.469 18.242-2.648 7.33-5.943 16.452-5.943 27.52 0 11.521 4.886 32.741 37.604 45.398 16.293 6.303 37.92 9.775 60.899 9.776h.004zm-168.385-154.26c-38.974.007-79.274.014-103.984 28.343-19.692 22.577-12.104 43.582-7.57 56.132 1.975 5.47 3.682 10.194 3.682 14.609 0 5.829-21.355 17.175-60.503 17.175-25.569 0-42.365-5.147-45.976-8.005-2.267-3.053-6.474-18.598-.813-57.279 2.025-11.799 6.935-26.657 27.522-47.439 26.736-24.382 72.12-52.293 185.889-52.86l1.41-.008.377.001.218-.001 1.508.008c113.784.567 159.164 28.485 185.897 52.87 20.583 20.781 25.49 35.634 27.515 47.432 5.662 38.683 1.453 54.225-.816 57.278-3.609 2.858-20.403 8.004-45.974 8.004-39.149-.001-60.504-11.346-60.504-17.175 0-4.415 1.707-9.138 3.683-14.608 4.534-12.551 12.123-33.557-7.571-56.133-24.71-28.33-65.01-28.337-103.99-28.344z"/></svg>