<svg xmlns="http://www.w3.org/2000/svg" viewBox="0 0 512 512"><path d="M449.18 32h-385.18v64h-46.82c-8.8 0-17.18 6.264-17.18 15.064v32c0 8.8 8.38 16.936 17.18 16.936h46.82v32h-46.82c-8.8 0-17.18 6.264-17.18 15.064v32c0 8.8 8.38 16.936 17.18 16.936h46.82v32h-46.82c-8.8 0-17.18 6.264-17.18 15.064v32c0 8.799 8.38 16.936 17.18 16.936h46.82v32h-46.82c-8.8 0-17.18 6.264-17.18 15.064v32c0 8.8 8.38 16.936 17.18 16.936h46.82v64h385.18c17.674 0 30.82-15.263 30.82-32.936v-416c0-17.673-13.146-31.064-30.82-31.064zm-289.18 448h-64v-32h17.18c8.8 0 14.82-8.136 14.82-16.936v-32c0-8.801-6.021-15.064-14.82-15.064h-17.18v-32h17.18c8.8 0 14.82-8.136 14.82-16.936v-32c0-8.801-6.021-15.064-14.82-15.064h-17.18v-32h17.18c8.8 0 14.82-8.136 14.82-16.936v-32c0-8.801-6.021-15.064-14.82-15.064h-17.18v-32h17.18c8.8 0 14.82-8.136 14.82-16.936v-32c0-8.801-6.02-15.064-14.82-15.064h-17.18v-32h64v416z"/></svg>