<?xml version="1.0" standalone="no"?>
<!DOCTYPE svg PUBLIC "-//W3C//DTD SVG 1.1//EN" "http://www.w3.org/Graphics/SVG/1.1/DTD/svg11.dtd" >
<svg xmlns="http://www.w3.org/2000/svg">
<metadata>
This is a custom SVG webfont generated by Font Squirrel.
Designer    : Atipus
Foundry     : Atipus
</metadata>
<defs>
<font id="BlanchCaps" horiz-adv-x="643" >
<font-face units-per-em="2048" ascent="1638" descent="-410" />
<missing-glyph horiz-adv-x="294" />
<glyph unicode=" "  horiz-adv-x="294" />
<glyph unicode="&#x09;" horiz-adv-x="294" />
<glyph unicode="&#xa0;" horiz-adv-x="294" />
<glyph unicode="!" horiz-adv-x="301" d="M59 37q0 33 33 33h66q33 0 32 -33v-135q0 -33 -32 -33h-66q-33 0 -33 33v135zM59 231v748q0 33 33 33h66q33 0 32 -33v-748q0 -33 -32 -32h-66q-33 -1 -33 32z" />
<glyph unicode="#" horiz-adv-x="1085" d="M39 276v66q0 14 10 23.5t23 9.5h213v262h-213q-12 0 -22.5 9t-10.5 24v63q0 14 10 23.5t23 9.5h213v213q0 14 10 23.5t22 9.5h66q33 0 33 -33v-213h131v213q0 33 33 33h65q12 0 22.5 -9.5t10.5 -23.5v-213h213q12 0 22.5 -9t10.5 -22v-65q0 -14 -10.5 -23.5t-22.5 -9.5 h-213v-262h213q12 0 22.5 -9.5t10.5 -23.5v-66q0 -12 -10.5 -22t-22.5 -10h-213v-211q0 -14 -10.5 -23.5t-22.5 -9.5h-65q-33 0 -33 33v211h-131v-211q0 -33 -33 -33h-66q-12 0 -22 9t-10 24v211h-213q-12 0 -22.5 10t-10.5 22zM416 375h131v262h-131v-262z" />
<glyph unicode="$" horiz-adv-x="641" d="M59 238v69q0 33 33 33h66q12 0 22 -9t10 -24v-69q0 -43 31 -74t74 -31t73.5 31t30.5 74v24q0 4 -4 10l-289 379q-18 25 -27 39.5t-13.5 26.5t-5.5 26.5t-1 38.5q0 80 48.5 142.5t121.5 85.5v102q0 33 33 33h66q33 0 32 -33v-102q74 -23 122 -85.5t48 -142.5v-69 q0 -33 -32 -33h-66q-12 0 -22.5 9t-10.5 24v69q0 43 -30.5 74t-73.5 31t-74 -31t-31 -74v-24q0 -4 5 -10l288 -379q18 -25 27.5 -39.5t13.5 -26.5t5 -26.5t1 -38.5q0 -82 -48 -143.5t-122 -84.5v-102q0 -33 -32 -33h-66q-33 0 -33 33v102q-74 23 -122 84.5t-48 143.5z" />
<glyph unicode="%" horiz-adv-x="1159" d="M59 778v2q0 49 19.5 91t51.5 74t75 50.5t92 18.5t91 -18.5t74 -50.5t51 -74t19 -91v-2q0 -49 -19 -91t-51 -74.5t-74 -51t-91 -18.5t-92 18.5t-75 51t-51.5 74.5t-19.5 91zM190 778q2 -43 33 -73.5t74 -30.5t73.5 30.5t30.5 73.5t-30.5 74t-73.5 31t-74 -31t-33 -74z M317 33v203q0 25 1 39t5.5 26t14.5 26.5t29 39.5l286 378q4 6 5 10.5t1 24.5v201q0 33 33 33h66q33 0 33 -33v-201q0 -25 -1.5 -40t-5.5 -27.5t-14 -25.5t-29 -38l-286 -381q-4 -4 -5 -8t-1 -24v-203q0 -12 -9.5 -22.5t-23.5 -10.5h-66q-12 0 -22.5 10.5t-10.5 22.5z M578 236v2q0 49 18 91t51 73.5t75 50t91 18.5t91 -18.5t75 -50t51.5 -73.5t18.5 -91v-2q0 -49 -18.5 -91.5t-51.5 -75t-75 -51t-91 -18.5t-91 18.5t-75 51t-51 75t-18 91.5zM709 236q0 -43 30.5 -74t73.5 -31t74 31t31 74t-31 73.5t-74 30.5t-73.5 -30.5t-30.5 -73.5z" />
<glyph unicode="&#x26;" horiz-adv-x="759" d="M59 238v200q0 104 74 172q-74 68 -74 170q0 49 18.5 92t51.5 76t75 51.5t91 18.5h70q14 0 23 -10.5t9 -22.5v-67q0 -12 -9 -22.5t-23 -10.5h-70q-43 0 -74 -31t-31 -74t31 -73.5t74 -30.5h106v104q0 33 33 33h66q12 0 22 -9t10 -24v-104h105q14 0 23.5 -10.5t9.5 -22.5 v-65q0 -33 -33 -33h-105v-512q0 -14 -10 -23.5t-22 -9.5h-205q-49 0 -91 18.5t-75 51t-51.5 76t-18.5 92.5zM190 238q0 -45 31 -76t74 -31h106v414h-106q-43 0 -74 -32t-31 -75v-200z" />
<glyph unicode="'" horiz-adv-x="301" d="M59 713v399q0 33 33 33h66q33 0 32 -33v-399q0 -33 -32 -33h-66q-33 0 -33 33z" />
<glyph unicode="(" horiz-adv-x="438" d="M59 236v540q0 49 18.5 92t51.5 75t75 50.5t91 18.5q33 0 33 -33v-66q0 -12 -9.5 -21t-23.5 -9q-43 0 -74 -31t-31 -76v-540q0 -45 31 -76t74 -31q33 0 33 -33v-63q0 -33 -33 -33q-49 0 -91 18.5t-75 50t-51.5 75t-18.5 92.5z" />
<glyph unicode=")" horiz-adv-x="436" d="M59 33v63q0 33 33 33q43 0 74 30.5t31 76.5v540q0 45 -31 76t-74 31q-14 0 -23.5 9t-9.5 21v66q0 33 33 33q49 0 91 -18.5t75 -50.5t51.5 -75t18.5 -92v-540q0 -49 -18.5 -92.5t-51.5 -75t-75 -50t-91 -18.5q-33 0 -33 33z" />
<glyph unicode="+" horiz-adv-x="569" d="M59 471v66q0 33 33 32h103v103q0 33 32 33h66q33 0 33 -33v-103h102q33 0 33 -32v-66q0 -33 -33 -33h-102v-102q0 -33 -33 -33h-66q-33 0 -32 33v102h-103q-33 0 -33 33z" />
<glyph unicode="," horiz-adv-x="301" d="M59 168q0 33 33 33h66q33 0 32 -33v-399q0 -33 -32 -33h-66q-33 0 -33 33v399z" />
<glyph unicode="-" horiz-adv-x="571" d="M59 471v66q0 12 9.5 22t23.5 10h336q14 0 23.5 -10t9.5 -22v-66q0 -33 -33 -33h-336q-33 0 -33 33z" />
<glyph unicode="." horiz-adv-x="301" d="M59 33v135q0 33 33 33h66q33 0 32 -33v-135q0 -33 -32 -33h-66q-33 0 -33 33z" />
<glyph unicode="/" d="M59 33v203q0 25 1 39t5.5 26t14.5 26.5t29 39.5l286 378q4 6 5 10.5t1 24.5v201q0 33 33 33h66q12 0 22 -9.5t10 -23.5v-201q0 -25 -1 -40t-5 -27.5t-14 -25.5t-29 -38l-286 -381q-4 -4 -5.5 -8t-1.5 -24v-203q0 -12 -9 -22.5t-23 -10.5h-66q-14 0 -23.5 10.5t-9.5 22.5z " />
<glyph unicode="0" horiz-adv-x="641" d="M59 236v2v540q0 49 18.5 91t50.5 75t75 51.5t92 18.5t91 -18.5t75 -50.5t51 -74t18 -91v-542q0 -49 -18 -92.5t-50 -76t-75 -51t-92 -18.5t-91 18.5t-75 51t-51.5 75t-18.5 91.5zM190 238q0 -45 31 -76t74 -31t73.5 31t30.5 76v301l-202 -271q-4 -4 -5.5 -8t-1.5 -22z M190 475l205 270q4 6 4 11v22q0 43 -30.5 74t-73.5 31t-74 -31t-31 -74v-303z" />
<glyph unicode="1" horiz-adv-x="440" d="M59 915v66q0 33 33 33h172q27 0 46.5 -18.5t19.5 -47.5v-915q0 -12 -10.5 -22.5t-22.5 -10.5h-66q-14 0 -23 10t-9 23v850h-107q-33 -1 -33 32z" />
<glyph unicode="2" d="M59 33v200q0 25 1 39.5t5.5 26.5t14.5 26.5t29 39.5l286 378q4 6 5 10.5t1 24.5q0 43 -30.5 74t-75.5 31q-43 0 -74 -31t-31 -74v-71q0 -12 -9 -22.5t-23 -10.5h-66q-14 0 -23.5 10t-9.5 23v71q0 49 18.5 91t51.5 75t75 51.5t91 18.5t92 -18.5t76 -51.5t51 -75t18 -91 q0 -25 -1 -40t-5 -27.5t-14 -25.5t-29 -38l-286 -381q-4 -4 -5.5 -8t-1.5 -25v-102h310q33 0 32 -33v-65q0 -12 -9 -22.5t-23 -10.5h-408q-14 0 -23.5 10.5t-9.5 22.5z" />
<glyph unicode="3" d="M59 238v69q0 33 33 33h66q33 0 32 -33v-69q0 -45 31 -76t74 -31q45 0 75.5 31t30.5 76v100q0 43 -30.5 73.5t-75.5 30.5q-33 0 -33 33v66q0 33 33 32q45 0 75.5 31t30.5 76v98q0 43 -30.5 74t-75.5 31q-43 0 -74 -31t-31 -74v-71q0 -12 -9 -22.5t-23 -10.5h-66 q-14 0 -23.5 10t-9.5 23v71q0 49 18.5 91t51.5 75t75 51.5t91 18.5t92 -18.5t76 -51.5t51 -75t18 -91v-98q0 -51 -19 -95t-54 -77q35 -33 54 -76t19 -94v-100q0 -49 -18 -92.5t-51 -76t-76 -51t-92 -18.5t-91 18.5t-75 51t-51.5 76t-18.5 92.5z" />
<glyph unicode="4" horiz-adv-x="780" d="M59 344v98q0 23 1 36.5t6.5 25.5t14.5 25.5t28 37.5l286 379q4 6 5 10.5t1 24.5q0 33 33 33h66q33 0 32 -33q0 -25 -1 -39t-5 -26.5t-14 -27t-29 -38.5l-286 -379q-4 -6 -5.5 -9t-1.5 -20h211v105q0 33 33 33h66q33 0 32 -33v-105h105q33 0 33 -32v-66q0 -33 -33 -33 h-105v-278q0 -12 -9 -22.5t-23 -10.5h-66q-14 0 -23.5 10t-9.5 23v278h-309q-33 0 -33 33z" />
<glyph unicode="5" d="M59 238v69q0 33 33 33h66q33 0 32 -33v-69q0 -45 31 -76t76 -31q43 0 73.5 31t30.5 76v200q0 43 -30.5 74t-73.5 31h-205q-14 0 -23.5 10t-9.5 22v406q0 33 33 33h408q33 0 32 -33v-66q0 -33 -32 -32h-310v-209h107q49 0 91 -18.5t75 -50.5t51 -75t18 -92v-200 q0 -49 -18 -92.5t-51 -76t-75 -51t-91 -18.5t-92 18.5t-76 51t-51.5 76t-18.5 92.5z" />
<glyph unicode="6" d="M59 238v540q0 49 18.5 91t51.5 75t76 51.5t92 18.5t91 -18.5t75 -51.5t51 -75t18 -91q0 -33 -32 -33h-66q-33 0 -33 33q0 43 -30.5 74t-73.5 31q-45 0 -76 -31t-31 -74v-129q49 25 107 25q49 0 91 -18.5t75 -50.5t51 -75t18 -92v-200q0 -49 -18 -92.5t-51 -76t-75 -51 t-91 -18.5t-92 18.5t-76 51t-51.5 76t-18.5 92.5zM190 238q0 -45 31 -76t76 -31q43 0 73.5 31t30.5 76v200q0 43 -30.5 74t-73.5 31q-45 0 -76 -31t-31 -74v-200z" />
<glyph unicode="7" horiz-adv-x="641" d="M59 33v203q0 25 1 39t5.5 26t13.5 26.5t27 39.5l289 378q4 6 4 11v24v103h-307q-33 0 -33 32v66q0 33 33 33h406q33 0 32 -33v-66v-135q0 -25 -1 -40t-5 -27.5t-13 -25.5t-28 -38l-288 -381q-4 -4 -5 -8v-24v-203q0 -12 -10 -22.5t-22 -10.5h-66q-14 0 -23.5 10.5 t-9.5 22.5z" />
<glyph unicode="8" horiz-adv-x="641" d="M59 238v200q0 102 72 170q-33 33 -52.5 76t-19.5 94v2q0 49 18.5 91t51.5 74t75 50.5t91 18.5t91 -18.5t75 -50.5t51 -74t18 -91v-2q0 -51 -19 -94t-52 -76q72 -68 71 -170v-200q0 -49 -18 -92.5t-50 -76t-75 -51t-92 -18.5t-92 18.5t-75 51t-50.5 76t-18.5 92.5z M190 238q0 -45 31 -76t74 -31t73.5 31t30.5 76v200q0 43 -30.5 74t-73.5 31t-74 -31t-31 -74v-200zM190 778q0 -43 31 -73.5t74 -30.5t73.5 30.5t30.5 73.5t-30.5 74t-73.5 31t-74 -31t-31 -74z" />
<glyph unicode="9" horiz-adv-x="641" d="M59 238q0 33 33 32h66q33 0 32 -32q0 -45 31 -76t74 -31t74.5 31t31.5 76v229q-25 -10 -51 -17.5t-55 -7.5q-49 0 -91 18.5t-75 51.5t-51.5 76t-18.5 92v98q0 49 18.5 91t51.5 75t75 51.5t91 18.5t92 -18.5t76 -51.5t51 -75t18 -91v-540q0 -49 -18 -92.5t-51 -76t-76 -51 t-92 -18.5t-91 18.5t-75 51t-51.5 76t-18.5 92.5zM190 680q0 -45 31 -76t74 -31t74.5 31t31.5 76v98q0 43 -31.5 74t-74.5 31t-74 -31t-31 -74v-98z" />
<glyph unicode=":" horiz-adv-x="301" d="M59 33v135q0 33 33 33h66q33 0 32 -33v-135q0 -33 -32 -33h-66q-33 0 -33 33zM59 528v136q0 33 33 32h66q33 0 32 -32v-136q0 -33 -32 -32h-66q-33 -1 -33 32z" />
<glyph unicode=";" horiz-adv-x="301" d="M59 168q0 33 33 33h66q33 0 32 -33v-399q0 -33 -32 -33h-66q-33 0 -33 33v399zM59 528v136q0 33 33 32h66q33 0 32 -32v-136q0 -33 -32 -32h-66q-33 -1 -33 32z" />
<glyph unicode="=" horiz-adv-x="571" d="M59 342v66q0 12 9.5 22t23.5 10h336q14 0 23.5 -10t9.5 -22v-66q0 -33 -33 -33h-336q-33 0 -33 33zM59 602v66q0 12 9.5 22t23.5 10h336q14 0 23.5 -10t9.5 -22v-66q0 -33 -33 -33h-336q-33 0 -33 33z" />
<glyph unicode="?" horiz-adv-x="641" d="M59 43q0 33 33 33h66q33 0 32 -33v-135q0 -33 -32 -33h-66q-33 0 -33 33v135zM59 238q0 25 1 39t5.5 26t14.5 26.5t29 39.5l286 379q4 6 5 10t1 24q0 43 -30.5 74t-75.5 31q-43 0 -74 -31t-31 -74v-71q0 -12 -9 -22.5t-23 -10.5h-66q-14 0 -23.5 10t-9.5 23v71 q0 49 18.5 91t51.5 75t75 51.5t91 18.5t92 -18.5t76 -51.5t51 -75t18 -91q0 -25 -1 -40t-5 -27.5t-14 -25.5t-29 -38l-286 -381q-4 -6 -5.5 -10t-1.5 -22q0 -33 -32 -33h-66q-33 0 -33 33zM477 774v2v-2z" />
<glyph unicode="@" horiz-adv-x="1236" d="M59 236v540q0 49 18.5 92t51.5 75t75 50.5t91 18.5h430q49 0 91 -18.5t75 -50.5t51.5 -75t18.5 -92v-325q0 -49 -18.5 -92.5t-51.5 -76t-75 -51t-91 -18.5h-78q-14 0 -23.5 10t-9.5 23v182h-208v-180v-2q0 -12 -10.5 -22.5t-22.5 -10.5h-66q-14 0 -23.5 10t-9.5 23v2v315 q0 49 18.5 91t50.5 75t75 51.5t92 18.5t92 -18.5t75 -51.5t50 -75t18 -91v-217q37 8 60.5 37t23.5 68v325q0 43 -30.5 74t-73.5 31h-430q-43 0 -74 -31t-31 -74v-540q0 -43 31 -74t74 -31h328q14 0 23 -10t9 -23v-65q0 -33 -32 -33h-328q-49 0 -91 18.5t-75 50t-51.5 75 t-18.5 92.5zM406 559h208v4q0 43 -30.5 74t-73.5 31t-73.5 -31t-30.5 -74v-4z" />
<glyph unicode="[" horiz-adv-x="509" d="M59 33v948q0 33 33 33h275q33 0 32 -33v-66q0 -33 -32 -32h-177v-752h177q33 0 32 -33v-65q0 -12 -9 -22.5t-23 -10.5h-275q-14 0 -23.5 10.5t-9.5 22.5z" />
<glyph unicode="\" d="M59 780v201q0 33 33 33h66q33 0 32 -33v-201q0 -20 1.5 -24t5.5 -11l286 -378q18 -25 28.5 -39.5t14.5 -26.5t5 -26.5t1 -38.5v-203q0 -12 -10 -22.5t-22 -10.5h-66q-14 0 -23.5 10t-9.5 23v203q0 20 -1 24t-5 8l-286 381q-18 25 -28.5 38t-15 25.5t-5.5 27.5t-1 40z" />
<glyph unicode="]" horiz-adv-x="509" d="M59 33v65q0 33 33 33h178v752h-178q-33 0 -33 32v66q0 33 33 33h277q12 0 22 -9.5t10 -23.5v-948q0 -12 -10 -22.5t-22 -10.5h-277q-14 0 -23.5 10.5t-9.5 22.5z" />
<glyph unicode="^" horiz-adv-x="612" d="M62.5 1161q-7.5 10 3.5 27l118 209q8 14 24.5 24.5t33.5 12.5l12 1q12 1 26.5 1t26.5 -1l12 -1q16 -2 33 -12.5t25 -24.5l119 -209q10 -16 3 -26.5t-26 -10.5h-63q-18 0 -37 10t-29 27l-63 115l-64 -115q-10 -16 -29.5 -26.5t-35.5 -10.5h-64q-18 0 -25.5 10z" />
<glyph unicode="`" horiz-adv-x="452" d="M64.5 1425.5q7.5 10.5 25.5 10.5h64q18 0 36.5 -10.5t28.5 -26.5l119 -211q10 -16 3 -26.5t-26 -10.5h-63q-18 0 -36.5 10t-29.5 27l-118 211q-11 16 -3.5 26.5z" />
<glyph unicode="a" d="M59 33v743q0 49 18.5 91t51.5 75t76 51.5t92 18.5t91 -18.5t75 -51.5t51 -75t18 -91v-743q0 -33 -32 -33h-66q-33 0 -33 33v407h-211v-407q0 -33 -32 -33h-66q-33 0 -33 33zM190 571h211v205q0 43 -30.5 74t-73.5 31q-45 0 -76 -31t-31 -74v-205z" />
<glyph unicode="b" d="M59 66v882q0 29 18.5 47.5t47.5 18.5h172q49 0 91 -18.5t75 -51.5t51 -76t18 -92v-98q0 -102 -73 -170q74 -68 73 -172v-98q0 -49 -18 -92.5t-51 -76t-75 -51t-91 -18.5h-172q-29 0 -47.5 19.5t-18.5 46.5zM190 133h107q43 0 73.5 31t30.5 74v98q0 45 -30.5 75.5 t-73.5 30.5h-107v-309zM190 573h107q43 0 73.5 31t30.5 74v98q0 45 -30.5 76t-73.5 31h-107v-310z" />
<glyph unicode="c" horiz-adv-x="620" d="M59 236v542q0 49 18.5 91t50.5 75t75 51.5t92 18.5t91 -18.5t75 -51.5t51 -75t18 -91v-69q0 -33 -32 -33h-66q-33 0 -33 33v69q0 43 -30.5 74t-73.5 31t-74 -31t-31 -74v-542q0 -43 31 -74t74 -31t73.5 31t30.5 74v75q0 33 33 33h66q33 0 32 -33v-75q0 -49 -18 -91.5 t-51 -75t-75 -51t-91 -18.5t-92 18.5t-75 51t-50.5 75t-18.5 91.5z" />
<glyph unicode="d" d="M59 66v882q0 29 19.5 47.5t46.5 18.5h172q49 0 92 -18.5t75 -51.5t50 -76t18 -92v-538q0 -49 -18 -92.5t-50 -76t-75 -51t-92 -18.5h-172q-27 0 -46.5 19.5t-19.5 46.5zM190 133h107q43 0 73.5 31t30.5 74v538q0 45 -30.5 76t-73.5 31h-107v-750z" />
<glyph unicode="e" horiz-adv-x="512" d="M59 66v882q0 29 18.5 47.5t47.5 18.5h244q33 0 32 -33v-66q0 -33 -32 -32h-179v-310h179q33 0 32 -32v-66q0 -33 -32 -33h-179v-311h179q33 0 32 -33v-65q0 -33 -32 -33h-244q-29 0 -47.5 19.5t-18.5 46.5z" />
<glyph unicode="f" horiz-adv-x="512" d="M59 33v915q0 29 18.5 47.5t47.5 18.5h244q33 0 32 -33v-66q0 -33 -32 -32h-179v-310h179q33 0 32 -32v-66q0 -33 -32 -33h-179v-409q0 -33 -32 -33h-66q-33 0 -33 33z" />
<glyph unicode="g" horiz-adv-x="641" d="M59 233v543q0 49 18.5 92t51.5 75t75 50.5t91 18.5t91 -18.5t75 -50.5t51 -75t18 -92v-69q0 -33 -32 -33h-66q-33 0 -33 33v69q0 45 -30.5 75t-73.5 30t-74 -30t-31 -75v-543q0 -43 31 -73.5t74 -30.5t73.5 30.5t30.5 73.5v211h-71q-14 0 -23.5 9.5t-9.5 21.5v66 q0 33 33 32h170q33 0 32 -32v-308q0 -49 -18 -91t-51 -73.5t-75 -50t-91 -18.5t-91 18.5t-75 50t-51.5 73.5t-18.5 91z" />
<glyph unicode="h" horiz-adv-x="641" d="M59 33v948q0 33 33 33h66q33 0 32 -33v-408h209v408q0 14 10.5 23.5t22.5 9.5h66q33 0 32 -33v-948q0 -33 -32 -33h-66q-12 0 -22.5 9t-10.5 24v409h-209v-409q0 -33 -32 -33h-66q-33 0 -33 33z" />
<glyph unicode="i" horiz-adv-x="301" d="M59 33v948q0 33 33 33h66q12 0 22 -9.5t10 -23.5v-948q0 -33 -32 -33h-66q-33 0 -33 33z" />
<glyph unicode="j" horiz-adv-x="641" d="M59 236v75q0 14 10.5 23.5t22.5 9.5h66q33 0 32 -33v-75q0 -43 31 -74t74 -31q45 0 74.5 31t29.5 74v745q0 14 10.5 23.5t22.5 9.5h66q33 0 32 -33v-745q0 -49 -18 -91.5t-50 -75t-75 -51t-92 -18.5t-91 18.5t-75 51t-51.5 75t-18.5 91.5z" />
<glyph unicode="k" d="M59 33v409v131v408q0 33 33 33h66q33 0 32 -33v-408h105q45 0 75.5 31t30.5 76v301q0 33 33 33h66q33 0 32 -33v-301q0 -51 -19 -95t-54 -77q35 -33 54 -76t19 -94v-305q0 -12 -9 -22.5t-23 -10.5h-66q-14 0 -23.5 10t-9.5 23v305q0 43 -30.5 73.5t-75.5 30.5h-105v-409 q0 -12 -9 -22.5t-23 -10.5h-66q-14 0 -23.5 10.5t-9.5 22.5z" />
<glyph unicode="l" horiz-adv-x="489" d="M59 66v915q0 33 33 33h66q12 0 22 -9.5t10 -23.5v-850h177q33 0 32 -33v-65q0 -12 -9 -22.5t-23 -10.5h-242q-29 0 -47.5 19.5t-18.5 46.5z" />
<glyph unicode="m" horiz-adv-x="985" d="M59 33v745q0 49 18.5 91t51.5 75t76 51.5t92 18.5t93 -19.5t77 -54.5q33 35 77 54.5t93 19.5t92 -18.5t76 -51.5t51 -75t18 -91v-745q0 -12 -9 -22.5t-23 -10.5h-66q-14 0 -23.5 10t-9.5 23v745q0 43 -30.5 74t-75.5 31q-43 0 -74 -31t-31 -74v-745q0 -12 -9 -22.5 t-23 -10.5h-66q-14 0 -23.5 10t-9.5 23v745q0 43 -30.5 74t-73.5 31q-45 0 -76 -31t-31 -74v-745q0 -12 -9 -22.5t-23 -10.5h-66q-12 0 -22.5 10.5t-10.5 22.5z" />
<glyph unicode="n" d="M59 33v745q0 49 18.5 91t51.5 75t76 51.5t92 18.5t91 -18.5t75 -51.5t51 -75t18 -91v-745q0 -12 -9 -22.5t-23 -10.5h-66q-14 0 -23.5 10t-9.5 23v745q0 43 -30.5 74t-73.5 31q-45 0 -76 -31t-31 -74v-745q0 -12 -9 -22.5t-23 -10.5h-66q-14 0 -23.5 10.5t-9.5 22.5z" />
<glyph unicode="o" d="M59 238v540q0 49 18.5 91t51.5 75t76 51.5t92 18.5t91 -18.5t75 -51.5t51 -75t18 -91v-540q0 -49 -18 -92.5t-51 -76t-75 -51t-91 -18.5t-92 18.5t-76 51t-51.5 76t-18.5 92.5zM190 238q0 -45 31 -76t76 -31q43 0 73.5 31t30.5 76v540q0 43 -30.5 74t-73.5 31 q-45 0 -76 -31t-31 -74v-540z" />
<glyph unicode="p" horiz-adv-x="600" d="M59 33v409v131v408q0 14 10.5 23.5t22.5 9.5h205q49 0 91 -18.5t75 -51.5t51 -75t18 -91v-98q0 -49 -18 -92t-51 -76t-75 -51.5t-91 -18.5h-107v-409q0 -12 -9 -22.5t-23 -10.5h-66q-12 0 -22.5 10.5t-10.5 22.5zM190 573h107q43 0 73.5 31t30.5 76v98q0 43 -30.5 74 t-73.5 31h-107v-310z" />
<glyph unicode="q" d="M59 238v540q0 49 18.5 92t50.5 75t75 50.5t92 18.5t91 -18.5t75 -50.5t51 -75t18 -92v-540q0 -80 -48 -142.5t-122 -85.5v-106q0 -33 -32 -33h-66q-33 0 -33 33v106q-74 23 -122 85.5t-48 142.5zM190 238q0 -43 31 -74t74 -31t73.5 31t30.5 74v540q0 43 -30.5 74 t-73.5 31t-74 -31t-31 -74v-540z" />
<glyph unicode="r" horiz-adv-x="630" d="M49 33v915q0 29 18.5 47.5t47.5 18.5h170q49 0 92 -18.5t74.5 -51.5t50 -75t18.5 -91v-98q0 -104 -71 -172q72 -68 71 -170v-305q0 -12 -9 -22.5t-24 -10.5h-65q-14 0 -23.5 10t-9.5 23v305q0 43 -30.5 73.5t-73.5 30.5h-105v-409q0 -12 -10 -22.5t-23 -10.5h-65 q-14 0 -23.5 10.5t-9.5 22.5zM180 573h105q43 0 73.5 31t30.5 76v98q0 43 -30.5 74t-73.5 31h-105v-310z" />
<glyph unicode="s" horiz-adv-x="600" d="M39 236v69q0 33 33 33h65q33 0 33 -33v-69q0 -43 30.5 -74t73.5 -31t74 31t31 74q0 20 -1 24t-5 10l-285 377q-18 25 -28.5 39t-14.5 26.5t-5 27t-1 38.5q0 49 18.5 91t51 75t74.5 51.5t91 18.5t91.5 -18.5t75 -51.5t51 -75t18.5 -91v-69q0 -33 -33 -33h-65q-33 0 -33 33 v69q0 43 -31 74t-74 31t-73.5 -31t-30.5 -74q0 -20 1 -24t5 -11l285 -376q18 -25 28.5 -39.5t14.5 -26.5t5 -26.5t1 -38.5q0 -49 -18.5 -91.5t-51 -75t-74.5 -51t-92 -18.5q-49 0 -91 18.5t-74.5 51t-51 75t-18.5 91.5z" />
<glyph unicode="t" horiz-adv-x="509" d="M39 915v66q0 33 33 33h315q33 0 33 -33v-66q0 -33 -33 -32h-92v-850q0 -12 -9.5 -22.5t-23.5 -10.5h-65q-14 0 -23.5 10t-9.5 23v850h-92q-33 -1 -33 32z" />
<glyph unicode="u" d="M59 238v743q0 14 10.5 23.5t22.5 9.5h66q33 0 32 -33v-743q0 -45 31 -76t76 -31q43 0 73.5 31t30.5 76v743q0 33 33 33h66q33 0 32 -33v-743q0 -49 -18 -92.5t-51 -76t-75 -51t-91 -18.5t-92 18.5t-76 51t-51.5 76t-18.5 92.5z" />
<glyph unicode="v" d="M59 342v637q0 33 33 33h66q33 0 32 -33v-637q0 -18 7 -33l98 -176l100 176q2 8 3 15.5t1 17.5v637q0 14 10.5 23.5t22.5 9.5h66q33 0 32 -33v-637q0 -70 -38 -131l-111 -195q-10 -16 -29 -16h-114q-18 0 -29 16l-111 195q-39 61 -39 131z" />
<glyph unicode="w" horiz-adv-x="983" d="M59 344v635q0 33 33 33h66q33 0 32 -33v-635q0 -16 7 -35l98 -174l100 174q6 18 6 35v635q0 33 33 33h66q12 0 22 -9.5t10 -23.5v-635q0 -10 1.5 -17.5l3.5 -17.5l100 -174l98 174q6 18 6 35v635q0 33 33 33h66q33 0 32 -33v-635q0 -74 -38 -131l-111 -197 q-12 -16 -29 -16h-114q-16 0 -29 16l-84 152l-86 -152q-12 -16 -29 -16h-114q-18 0 -27 16l-113 197q-39 57 -39 131z" />
<glyph unicode="x" d="M59 33v127q0 74 41 131l119 213l-121 213q-39 57 -39 131v133q0 33 33 33h66q33 0 32 -33v-133q0 -16 7 -35l98 -174l100 174q6 18 6 35v133q0 33 33 33h66q33 0 32 -33v-133q0 -74 -40 -131l-119 -213l119 -213q41 -57 40 -131v-127q0 -12 -9 -22.5t-23 -10.5h-66 q-14 0 -23.5 10t-9.5 23v127q0 18 -6 35l-100 176l-98 -176q-6 -16 -7 -35v-127q0 -12 -9 -22.5t-23 -10.5h-66q-14 0 -23.5 10.5t-9.5 22.5z" />
<glyph unicode="y" horiz-adv-x="602" d="M39 680v301q0 33 33 33h65q33 0 33 -33v-301q0 -45 30.5 -76t75.5 -31q43 0 74 31t31 76v301q0 33 33 33h65q33 0 33 -33v-301q0 -82 -48 -143.5t-122 -83.5v-420q0 -12 -10 -22.5t-23 -10.5h-65q-14 0 -23.5 10t-9.5 23v420q-76 23 -124 84t-48 143z" />
<glyph unicode="z" horiz-adv-x="620" d="M59 33v203q0 25 1 39t5.5 26t13.5 26.5t27 39.5l289 378q4 6 4 11v24v103h-307q-33 0 -33 32v66q0 33 33 33h406q33 0 32 -33v-66v-135q0 -25 -1 -40t-5 -27.5t-13 -25.5t-28 -38l-286 -381q-4 -4 -5.5 -8t-1.5 -24v-105h308q33 0 32 -33v-65q0 -12 -9 -22.5t-23 -10.5 h-406q-14 0 -23.5 10.5t-9.5 22.5z" />
<glyph unicode="&#xa1;" horiz-adv-x="301" d="M59 -90v747q0 33 33 33h66q33 0 32 -33v-747q0 -33 -32 -33h-66q-33 0 -33 33zM59 852v135q0 33 33 33h66q33 0 32 -33v-135q0 -33 -32 -33h-66q-33 0 -33 33z" />
<glyph unicode="&#xa8;" horiz-adv-x="509" d="M59 1182v135q0 12 9.5 22.5t23.5 10.5h66q14 0 23 -10.5t9 -22.5v-135q0 -33 -32 -33h-66q-33 0 -33 33zM270 1182v135q0 12 9.5 22.5t23.5 10.5h64q14 0 23 -10.5t9 -22.5v-135q0 -33 -32 -33h-64q-33 0 -33 33z" />
<glyph unicode="&#xaa;" d="M59 33v743q0 49 18.5 91t51.5 75t76 51.5t92 18.5t91 -18.5t75 -51.5t51 -75t18 -91v-743q0 -33 -32 -33h-66q-33 0 -33 33v407h-211v-407q0 -33 -32 -33h-66q-33 0 -33 33zM190 571h211v205q0 43 -30.5 74t-73.5 31q-45 0 -76 -31t-31 -74v-205z" />
<glyph unicode="&#xad;" horiz-adv-x="571" d="M59 471v66q0 12 9.5 22t23.5 10h336q14 0 23.5 -10t9.5 -22v-66q0 -33 -33 -33h-336q-33 0 -33 33z" />
<glyph unicode="&#xb2;" d="M59 33v200q0 25 1 39.5t5.5 26.5t14.5 26.5t29 39.5l286 378q4 6 5 10.5t1 24.5q0 43 -30.5 74t-75.5 31q-43 0 -74 -31t-31 -74v-71q0 -12 -9 -22.5t-23 -10.5h-66q-14 0 -23.5 10t-9.5 23v71q0 49 18.5 91t51.5 75t75 51.5t91 18.5t92 -18.5t76 -51.5t51 -75t18 -91 q0 -25 -1 -40t-5 -27.5t-14 -25.5t-29 -38l-286 -381q-4 -4 -5.5 -8t-1.5 -25v-102h310q33 0 32 -33v-65q0 -12 -9 -22.5t-23 -10.5h-408q-14 0 -23.5 10.5t-9.5 22.5z" />
<glyph unicode="&#xb3;" d="M59 238v69q0 33 33 33h66q33 0 32 -33v-69q0 -45 31 -76t74 -31q45 0 75.5 31t30.5 76v100q0 43 -30.5 73.5t-75.5 30.5q-33 0 -33 33v66q0 33 33 32q45 0 75.5 31t30.5 76v98q0 43 -30.5 74t-75.5 31q-43 0 -74 -31t-31 -74v-71q0 -12 -9 -22.5t-23 -10.5h-66 q-14 0 -23.5 10t-9.5 23v71q0 49 18.5 91t51.5 75t75 51.5t91 18.5t92 -18.5t76 -51.5t51 -75t18 -91v-98q0 -51 -19 -95t-54 -77q35 -33 54 -76t19 -94v-100q0 -49 -18 -92.5t-51 -76t-76 -51t-92 -18.5t-91 18.5t-75 51t-51.5 76t-18.5 92.5z" />
<glyph unicode="&#xb4;" horiz-adv-x="450" d="M62.5 1161q-7.5 10 3.5 27l118 209q8 16 27.5 26.5t36.5 10.5h63q18 0 25.5 -10.5t-2.5 -26.5l-119 -209q-8 -16 -27.5 -26.5t-35.5 -10.5h-64q-18 0 -25.5 10z" />
<glyph unicode="&#xb9;" horiz-adv-x="440" d="M59 915v66q0 33 33 33h172q27 0 46.5 -18.5t19.5 -47.5v-915q0 -12 -10.5 -22.5t-22.5 -10.5h-66q-14 0 -23 10t-9 23v850h-107q-33 -1 -33 32z" />
<glyph unicode="&#xba;" d="M59 238v540q0 49 18.5 91t51.5 75t76 51.5t92 18.5t91 -18.5t75 -51.5t51 -75t18 -91v-540q0 -49 -18 -92.5t-51 -76t-75 -51t-91 -18.5t-92 18.5t-76 51t-51.5 76t-18.5 92.5zM190 238q0 -45 31 -76t76 -31q43 0 73.5 31t30.5 76v540q0 43 -30.5 74t-73.5 31 q-45 0 -76 -31t-31 -74v-540z" />
<glyph unicode="&#xbf;" horiz-adv-x="641" d="M59 111q0 25 1 39t5.5 26t14.5 26.5t29 39.5l286 379q4 6 5 10t1 24q0 33 33 33h66q33 0 32 -33q0 -25 -1 -40t-5 -27.5t-14 -25.5t-29 -38l-286 -379q-4 -6 -5.5 -10t-1.5 -24q0 -43 31 -74t74 -31q45 0 75.5 31t30.5 74v69q0 33 33 33h66q33 0 32 -33v-69 q0 -49 -18 -92.5t-51 -75t-76 -50t-92 -18.5t-91 18.5t-75 50t-51.5 75t-18.5 92.5zM115 115v2v-2zM401 850v135q0 33 33 33h66q33 0 32 -33v-135q0 -33 -32 -33h-66q-33 0 -33 33z" />
<glyph unicode="&#xe0;" d="M59 33v743q0 49 18.5 92t51.5 75t75 50.5t91 18.5t92 -18.5t76 -50.5t51 -75t18 -92v-743q0 -33 -32 -33h-66q-33 0 -33 33v409h-211v-409q0 -33 -32 -33h-66q-33 0 -33 33zM79 1425.5q7 10.5 25 10.5h64q18 0 36.5 -10.5t28.5 -26.5l119 -211q10 -16 3 -26.5t-25 -10.5 h-64q-18 0 -36.5 10t-28.5 27l-119 211q-10 16 -3 26.5zM190 573h211v203q0 43 -30.5 74t-75.5 31q-43 0 -74 -31t-31 -74v-203z" />
<glyph unicode="&#xe1;" d="M59 33v743q0 49 18.5 92t51.5 75t76 50.5t92 18.5t91 -18.5t75 -50.5t51 -75t18 -92v-743q0 -33 -32 -33h-66q-33 0 -33 33v409h-211v-409q0 -33 -32 -33h-66q-33 0 -33 33zM190 573h211v203q0 43 -30.5 74t-73.5 31q-45 0 -76 -31t-31 -74v-203zM228.5 1161 q-7.5 10 2.5 27l119 209q8 16 27.5 26.5t36.5 10.5h63q18 0 25.5 -10.5t-2.5 -26.5l-119 -209q-8 -16 -27.5 -26.5t-36.5 -10.5h-63q-18 0 -25.5 10z" />
<glyph unicode="&#xe2;" d="M59 33v743q0 49 18.5 92t51.5 75t76 50.5t92 18.5t91 -18.5t75 -50.5t51 -75t18 -92v-743q0 -33 -32 -33h-66q-33 0 -33 33v409h-211v-409q0 -33 -32 -33h-66q-33 0 -33 33zM77 1161q-7 10 3 27l119 209q8 14 24.5 24.5t32.5 12.5l12 1q12 1 26.5 1t27.5 -1l12 -1 q16 -2 32.5 -12.5t24.5 -24.5l119 -209q10 -16 3 -26.5t-26 -10.5h-63q-18 0 -36.5 10t-29.5 27l-63 115l-64 -115q-10 -16 -29.5 -26.5t-35.5 -10.5h-64q-18 0 -25 10zM190 573h211v203q0 43 -30.5 74t-73.5 31q-45 0 -76 -31t-31 -74v-203z" />
<glyph unicode="&#xe4;" d="M59 33v743q0 49 18.5 92t51.5 75t76 50.5t92 18.5t91 -18.5t75 -50.5t51 -75t18 -92v-743q0 -33 -32 -33h-66q-33 0 -33 33v409h-211v-409q0 -33 -32 -33h-66q-33 0 -33 33zM125 1182v135q0 12 9 22.5t24 10.5h65q14 0 23.5 -10.5t9.5 -22.5v-135q0 -33 -33 -33h-65 q-33 0 -33 33zM190 573h211v203q0 43 -30.5 74t-73.5 31q-45 0 -76 -31t-31 -74v-203zM336 1182v135q0 12 9 22.5t24 10.5h63q14 0 23.5 -10.5t9.5 -22.5v-135q0 -33 -33 -33h-63q-33 0 -33 33z" />
<glyph unicode="&#xe7;" horiz-adv-x="641" d="M59 236v544q0 49 18.5 92t51.5 75t75 50.5t91 18.5t92 -18.5t76 -50.5t51 -75t18 -92v-69q0 -14 -10 -23.5t-22 -9.5h-66q-33 0 -33 33v69q0 43 -30.5 74t-75.5 31q-43 0 -74 -31t-31 -74v-544q0 -43 31 -74t74 -31q45 0 75.5 31t30.5 74v75q0 33 33 33h66q12 0 22 -9 t10 -24v-75q0 -80 -49 -142.5t-123 -85.5v-102q0 -33 -32 -33h-66q-33 0 -33 33v102q-74 23 -122 85.5t-48 142.5z" />
<glyph unicode="&#xe8;" horiz-adv-x="512" d="M13 1425.5q7 10.5 26 10.5h63q18 0 37 -10.5t29 -26.5l119 -211q10 -16 3 -26.5t-26 -10.5h-63q-18 0 -37 10t-29 27l-119 211q-10 16 -3 26.5zM59 66v882q0 29 18.5 47.5t47.5 18.5h244q33 0 32 -33v-66q0 -33 -32 -32h-179v-310h179q33 0 32 -32v-66q0 -33 -32 -33 h-179v-311h179q33 0 32 -33v-65q0 -33 -32 -33h-244q-29 0 -47.5 19.5t-18.5 46.5z" />
<glyph unicode="&#xe9;" horiz-adv-x="550" d="M59 66v882q0 29 18.5 47.5t47.5 18.5h244q33 0 32 -33v-66q0 -33 -32 -32h-179v-310h179q33 0 32 -32v-66q0 -33 -32 -33h-179v-311h179q33 0 32 -33v-65q0 -33 -32 -33h-244q-29 0 -47.5 19.5t-18.5 46.5zM163 1161q-7 10 3 27l119 209q8 16 27.5 26.5t35.5 10.5h64 q18 0 25 -10.5t-3 -26.5l-119 -209q-8 -16 -27.5 -26.5t-35.5 -10.5h-64q-18 0 -25 10z" />
<glyph unicode="&#xea;" horiz-adv-x="512" d="M13 1161q-7 10 3 27l119 209q8 14 24.5 24.5t33.5 12.5l12 1q12 1 26.5 1t26.5 -1l12 -1q16 -2 32.5 -12.5t25.5 -24.5l118 -209q10 -16 3 -26.5t-25 -10.5h-64q-18 0 -36.5 10t-28.5 27l-64 115l-63 -115q-10 -16 -29.5 -26.5t-36.5 -10.5h-63q-19 0 -26 10zM61 66v882 q0 29 18.5 47.5t47.5 18.5h244q33 0 32 -33v-66q0 -33 -32 -32h-178v-310h178q33 0 32 -32v-66q0 -33 -32 -33h-178v-311h178q33 0 32 -33v-65q0 -33 -32 -33h-244q-29 0 -47.5 19.5t-18.5 46.5z" />
<glyph unicode="&#xeb;" horiz-adv-x="512" d="M59 66v882q0 29 18.5 47.5t47.5 18.5h244q33 0 32 -33v-66q0 -33 -32 -32h-179v-310h179q33 0 32 -32v-66q0 -33 -32 -33h-179v-311h179q33 0 32 -33v-65q0 -33 -32 -33h-244q-29 0 -47.5 19.5t-18.5 46.5zM59 1182v135q0 12 9.5 22.5t23.5 10.5h66q14 0 23 -10.5 t9 -22.5v-135q0 -33 -32 -33h-66q-33 0 -33 33zM270 1182v135q0 12 9.5 22.5t23.5 10.5h64q14 0 23 -10.5t9 -22.5v-135q0 -33 -32 -33h-64q-33 0 -33 33z" />
<glyph unicode="&#xec;" horiz-adv-x="301" d="M-89 1425.5q7 10.5 26 10.5h63q18 0 36.5 -10.5t29.5 -26.5l118 -211q10 -16 3 -26.5t-25 -10.5h-64q-18 0 -36.5 10t-28.5 27l-119 211q-10 16 -3 26.5zM63 33v948q0 33 33 33h66q12 0 22.5 -9.5t10.5 -23.5v-948q0 -33 -33 -33h-66q-33 0 -33 33z" />
<glyph unicode="&#xed;" horiz-adv-x="301" d="M58.5 1161q-7.5 10 2.5 27l119 209q8 16 27.5 26.5t36.5 10.5h63q18 0 25.5 -10.5t-2.5 -26.5l-119 -209q-8 -16 -27.5 -26.5t-36.5 -10.5h-63q-18 0 -25.5 10zM61 33v948q0 33 33 33h66q12 0 22.5 -9.5t10.5 -23.5v-948q0 -33 -33 -33h-66q-33 0 -33 33z" />
<glyph unicode="&#xee;" horiz-adv-x="301" d="M-93 1161q-7 10 3 27l119 209q8 14 24.5 24.5t32.5 12.5l12 1q12 1 26.5 1t27.5 -1l12 -1q16 -2 32.5 -12.5t24.5 -24.5l119 -209q10 -16 3 -26.5t-26 -10.5h-63q-18 0 -36.5 10t-29.5 27l-63 115l-64 -115q-10 -16 -29.5 -26.5t-35.5 -10.5h-64q-18 0 -25 10zM61 33v948 q0 33 33 33h66q12 0 22.5 -9.5t10.5 -23.5v-948q0 -33 -33 -33h-66q-33 0 -33 33z" />
<glyph unicode="&#xef;" horiz-adv-x="301" d="M-45 1182v135q0 12 9 22.5t24 10.5h65q14 0 23.5 -10.5t9.5 -22.5v-135q0 -33 -33 -33h-65q-33 0 -33 33zM59 33v948q0 33 33 33h66q12 0 22 -9.5t10 -23.5v-948q0 -33 -32 -33h-66q-33 0 -33 33zM166 1182v135q0 12 9 22.5t24 10.5h63q14 0 23.5 -10.5t9.5 -22.5v-135 q0 -33 -33 -33h-63q-33 0 -33 33z" />
<glyph unicode="&#xf1;" horiz-adv-x="641" d="M59 33v745q0 49 18.5 91t51.5 75t76 51.5t92 18.5t91 -18.5t75 -51.5t51 -75t18 -91v-745q0 -12 -9 -22.5t-23 -10.5h-66q-14 0 -23.5 10t-9.5 23v745q0 43 -30.5 74t-73.5 31q-45 0 -76 -31t-31 -74v-745q0 -12 -9 -22.5t-23 -10.5h-66q-14 0 -23.5 10.5t-9.5 22.5z M125 1182v65q0 33 33 33h276q33 0 33 -33v-65q0 -33 -33 -33h-276q-33 0 -33 33z" />
<glyph unicode="&#xf2;" d="M59 238v540q0 49 18.5 91t51.5 75t76 51.5t92 18.5t91 -18.5t75 -51.5t51 -75t18 -91v-540q0 -49 -18 -92.5t-51 -76t-75 -51t-91 -18.5t-92 18.5t-76 51t-51.5 76t-18.5 92.5zM79 1425.5q7 10.5 25 10.5h64q18 0 36.5 -10.5t28.5 -26.5l119 -211q10 -16 3 -26.5 t-25 -10.5h-64q-18 0 -36.5 10t-28.5 27l-119 211q-10 16 -3 26.5zM190 238q0 -45 31 -76t76 -31q43 0 73.5 31t30.5 76v540q0 43 -30.5 74t-73.5 31q-45 0 -76 -31t-31 -74v-540z" />
<glyph unicode="&#xf3;" d="M59 238v540q0 49 18.5 91t51.5 75t76 51.5t92 18.5t91 -18.5t75 -51.5t51 -75t18 -91v-540q0 -49 -18 -92.5t-51 -76t-75 -51t-91 -18.5t-92 18.5t-76 51t-51.5 76t-18.5 92.5zM190 238q0 -45 31 -76t76 -31q43 0 73.5 31t30.5 76v540q0 43 -30.5 74t-73.5 31 q-45 0 -76 -31t-31 -74v-540zM236.5 1161q-7.5 10 3.5 27l118 209q8 16 28 26.5t36 10.5h63q18 0 25.5 -10.5t-2.5 -26.5l-119 -209q-8 -16 -27.5 -26.5t-35.5 -10.5h-64q-18 0 -25.5 10z" />
<glyph unicode="&#xf4;" horiz-adv-x="641" d="M59 238v540q0 49 18.5 91t51.5 75t76 51.5t92 18.5t91 -18.5t75 -51.5t51 -75t18 -91v-540q0 -49 -18 -92.5t-51 -76t-75 -51t-91 -18.5t-92 18.5t-76 51t-51.5 76t-18.5 92.5zM77 1161q-7 10 3 27l119 209q8 14 24.5 24.5t32.5 12.5l12 1q12 1 26.5 1t27.5 -1l12 -1 q16 -2 32.5 -12.5t24.5 -24.5l119 -209q10 -16 3 -26.5t-26 -10.5h-63q-18 0 -36.5 10t-29.5 27l-63 115l-64 -115q-10 -16 -29.5 -26.5t-35.5 -10.5h-64q-18 0 -25 10zM190 238q0 -45 31 -76t76 -31q43 0 73.5 31t30.5 76v540q0 43 -30.5 74t-73.5 31q-45 0 -76 -31 t-31 -74v-540z" />
<glyph unicode="&#xf6;" d="M59 238v540q0 49 18.5 91t51.5 75t76 51.5t92 18.5t91 -18.5t75 -51.5t51 -75t18 -91v-540q0 -49 -18 -92.5t-51 -76t-75 -51t-91 -18.5t-92 18.5t-76 51t-51.5 76t-18.5 92.5zM125 1182v135q0 12 9 22.5t24 10.5h65q14 0 23.5 -10.5t9.5 -22.5v-135q0 -33 -33 -33h-65 q-33 0 -33 33zM190 238q0 -45 31 -76t76 -31q43 0 73.5 31t30.5 76v540q0 43 -30.5 74t-73.5 31q-45 0 -76 -31t-31 -74v-540zM336 1182v135q0 12 9 22.5t24 10.5h63q14 0 23.5 -10.5t9.5 -22.5v-135q0 -33 -33 -33h-63q-33 0 -33 33z" />
<glyph unicode="&#xf9;" d="M59 238v743q0 14 10.5 23.5t22.5 9.5h66q33 0 32 -33v-743q0 -45 31 -76t76 -31q43 0 73.5 31t30.5 76v743q0 33 33 33h66q33 0 32 -33v-743q0 -49 -18 -92.5t-51 -76t-75 -51t-91 -18.5t-92 18.5t-76 51t-51.5 76t-18.5 92.5zM79 1425.5q7 10.5 25 10.5h64 q18 0 36.5 -10.5t28.5 -26.5l119 -211q10 -16 3 -26.5t-25 -10.5h-64q-18 0 -36.5 10t-28.5 27l-119 211q-10 16 -3 26.5z" />
<glyph unicode="&#xfa;" d="M59 238v743q0 14 10.5 23.5t22.5 9.5h66q33 0 32 -33v-743q0 -45 31 -76t76 -31q43 0 73.5 31t30.5 76v743q0 33 33 33h66q33 0 32 -33v-743q0 -49 -18 -92.5t-51 -76t-75 -51t-91 -18.5t-92 18.5t-76 51t-51.5 76t-18.5 92.5zM226 1161q-7 10 3 27l119 209 q8 16 27.5 26.5t36.5 10.5h63q18 0 25.5 -10.5t-2.5 -26.5l-119 -209q-8 -16 -27.5 -26.5t-36.5 -10.5h-63q-19 0 -26 10z" />
<glyph unicode="&#xfb;" d="M59 238v743q0 14 10.5 23.5t22.5 9.5h66q33 0 32 -33v-743q0 -45 31 -76t76 -31q43 0 73.5 31t30.5 76v743q0 33 33 33h66q33 0 32 -33v-743q0 -49 -18 -92.5t-51 -76t-75 -51t-91 -18.5t-92 18.5t-76 51t-51.5 76t-18.5 92.5zM77 1161q-7 10 3 27l119 209 q8 14 24.5 24.5t32.5 12.5l12 1q12 1 26.5 1t27.5 -1l12 -1q16 -2 32.5 -12.5t24.5 -24.5l119 -209q10 -16 3 -26.5t-26 -10.5h-63q-18 0 -36.5 10t-29.5 27l-63 115l-64 -115q-10 -16 -29.5 -26.5t-35.5 -10.5h-64q-18 0 -25 10z" />
<glyph unicode="&#xfc;" d="M59 238v743q0 14 10.5 23.5t22.5 9.5h66q33 0 32 -33v-743q0 -45 31 -76t76 -31q43 0 73.5 31t30.5 76v743q0 33 33 33h66q33 0 32 -33v-743q0 -49 -18 -92.5t-51 -76t-75 -51t-91 -18.5t-92 18.5t-76 51t-51.5 76t-18.5 92.5zM125 1182v135q0 12 9 22.5t24 10.5h65 q14 0 23.5 -10.5t9.5 -22.5v-135q0 -33 -33 -33h-65q-33 0 -33 33zM336 1182v135q0 12 9 22.5t24 10.5h63q14 0 23.5 -10.5t9.5 -22.5v-135q0 -33 -33 -33h-63q-33 0 -33 33z" />
<glyph unicode="&#xfd;" horiz-adv-x="602" d="M214.5 1147q-7.5 10 3.5 27l118 209q8 16 27.5 26.5t36.5 10.5h63q18 0 25.5 -10.5t-2.5 -26.5l-119 -209q-8 -16 -27.5 -26.5t-35.5 -10.5h-64q-18 0 -25.5 10zM39 680v301q0 33 33 33h65q33 0 33 -33v-301q0 -45 30.5 -76t75.5 -31q43 0 74 31t31 76v301q0 33 33 33h65 q33 0 33 -33v-301q0 -82 -48 -143.5t-122 -83.5v-420q0 -12 -10 -22.5t-23 -10.5h-65q-14 0 -23.5 10t-9.5 23v420q-76 23 -124 84t-48 143z" />
<glyph unicode="&#xff;" horiz-adv-x="602" d="M104 1170v135q0 12 9.5 22.5t23.5 10.5h66q14 0 23 -10.5t9 -22.5v-135q0 -33 -32 -33h-66q-33 0 -33 33zM315 1170v135q0 12 9.5 22.5t23.5 10.5h64q14 0 23 -10.5t9 -22.5v-135q0 -33 -32 -33h-64q-33 0 -33 33zM39 680v301q0 33 33 33h65q33 0 33 -33v-301 q0 -45 30.5 -76t75.5 -31q43 0 74 31t31 76v301q0 33 33 33h65q33 0 33 -33v-301q0 -82 -48 -143.5t-122 -83.5v-420q0 -12 -10 -22.5t-23 -10.5h-65q-14 0 -23.5 10t-9.5 23v420q-76 23 -124 84t-48 143z" />
<glyph unicode="&#x153;" horiz-adv-x="1155" d="M702 66v882q0 29 18.5 47.5t47.5 18.5h244q33 0 32 -33v-66q0 -33 -32 -32h-179v-310h179q33 0 32 -32v-66q0 -33 -32 -33h-179v-311h179q33 0 32 -33v-65q0 -33 -32 -33h-244q-29 0 -47.5 19.5t-18.5 46.5zM59 238v540q0 49 18.5 91t51.5 75t76 51.5t92 18.5t91 -18.5 t75 -51.5t51 -75t18 -91v-540q0 -49 -18 -92.5t-51 -76t-75 -51t-91 -18.5t-92 18.5t-76 51t-51.5 76t-18.5 92.5zM190 238q0 -45 31 -76t76 -31q43 0 73.5 31t30.5 76v540q0 43 -30.5 74t-73.5 31q-45 0 -76 -31t-31 -74v-540z" />
<glyph unicode="&#x2c6;" horiz-adv-x="612" d="M62.5 1161q-7.5 10 3.5 27l118 209q8 14 24.5 24.5t33.5 12.5l12 1q12 1 26.5 1t26.5 -1l12 -1q16 -2 33 -12.5t25 -24.5l119 -209q10 -16 3 -26.5t-26 -10.5h-63q-18 0 -37 10t-29 27l-63 115l-64 -115q-10 -16 -29.5 -26.5t-35.5 -10.5h-64q-18 0 -25.5 10z" />
<glyph unicode="&#x2000;" horiz-adv-x="716" />
<glyph unicode="&#x2001;" horiz-adv-x="1435" />
<glyph unicode="&#x2002;" horiz-adv-x="716" />
<glyph unicode="&#x2003;" horiz-adv-x="1435" />
<glyph unicode="&#x2004;" horiz-adv-x="477" />
<glyph unicode="&#x2005;" horiz-adv-x="358" />
<glyph unicode="&#x2006;" horiz-adv-x="237" />
<glyph unicode="&#x2007;" horiz-adv-x="237" />
<glyph unicode="&#x2008;" horiz-adv-x="178" />
<glyph unicode="&#x2009;" horiz-adv-x="286" />
<glyph unicode="&#x200a;" horiz-adv-x="77" />
<glyph unicode="&#x2010;" horiz-adv-x="571" d="M59 471v66q0 12 9.5 22t23.5 10h336q14 0 23.5 -10t9.5 -22v-66q0 -33 -33 -33h-336q-33 0 -33 33z" />
<glyph unicode="&#x2011;" horiz-adv-x="571" d="M59 471v66q0 12 9.5 22t23.5 10h336q14 0 23.5 -10t9.5 -22v-66q0 -33 -33 -33h-336q-33 0 -33 33z" />
<glyph unicode="&#x2012;" horiz-adv-x="571" d="M59 471v66q0 12 9.5 22t23.5 10h336q14 0 23.5 -10t9.5 -22v-66q0 -33 -33 -33h-336q-33 0 -33 33z" />
<glyph unicode="&#x2013;" horiz-adv-x="1024" d="M59 438v131h854v-131h-854z" />
<glyph unicode="&#x2014;" horiz-adv-x="2048" d="M59 438v131h1878v-131h-1878z" />
<glyph unicode="&#x2018;" horiz-adv-x="452" d="M64.5 1425.5q7.5 10.5 25.5 10.5h64q18 0 36.5 -10.5t28.5 -26.5l119 -211q10 -16 3 -26.5t-26 -10.5h-63q-18 0 -36.5 10t-29.5 27l-118 211q-11 16 -3.5 26.5z" />
<glyph unicode="&#x2019;" horiz-adv-x="301" d="M59 713v399q0 33 33 33h66q33 0 32 -33v-399q0 -33 -32 -33h-66q-33 0 -33 33z" />
<glyph unicode="&#x2026;" horiz-adv-x="903" d="M661 33v135q0 33 33 33h66q33 0 32 -33v-135q0 -33 -32 -33h-66q-33 0 -33 33zM360 33v135q0 33 33 33h66q33 0 32 -33v-135q0 -33 -32 -33h-66q-33 0 -33 33zM59 33v135q0 33 33 33h66q33 0 32 -33v-135q0 -33 -32 -33h-66q-33 0 -33 33z" />
<glyph unicode="&#x202f;" horiz-adv-x="286" />
<glyph unicode="&#x205f;" horiz-adv-x="358" />
<glyph unicode="&#x20ac;" horiz-adv-x="776" d="M59 342v66q0 33 33 32h103v131h-103q-33 0 -33 33v66q0 12 9.5 22t23.5 10h103v74q0 49 18 92t50 75t74 50.5t91 18.5t92 -18.5t75 -50.5t50.5 -75t18.5 -92v-69q0 -12 -9.5 -22.5t-23.5 -10.5h-66q-12 0 -21 10t-9 23v69q0 45 -31 76t-76 31q-43 0 -73.5 -31t-30.5 -76 v-74h102q14 0 23.5 -10t9.5 -22v-66q0 -33 -33 -33h-102v-131h102q33 0 33 -32v-66q0 -33 -33 -33h-102v-73q0 -45 30.5 -76t73.5 -31q45 0 76 30.5t31 76.5v75q0 14 9 23.5t21 9.5h66q33 0 33 -33v-75q0 -49 -18.5 -92.5t-50.5 -75t-75 -50t-92 -18.5t-91 18.5t-74 50 t-50 74.5t-18 93v73h-103q-33 0 -33 33z" />
<glyph unicode="&#xe000;" horiz-adv-x="1014" d="M0 1015h1015v-1015h-1015v1015z" />
<glyph unicode="&#xfb01;" horiz-adv-x="813" d="M571 33v948q0 33 33 33h66q12 0 22 -9.5t10 -23.5v-948q0 -33 -32 -33h-66q-33 0 -33 33zM59 33v915q0 29 18.5 47.5t47.5 18.5h244q33 0 32 -33v-66q0 -33 -32 -32h-179v-310h179q33 0 32 -32v-66q0 -33 -32 -33h-179v-409q0 -33 -32 -33h-66q-33 0 -33 33z" />
<glyph unicode="&#xfb02;" horiz-adv-x="1001" d="M571 66v915q0 33 33 33h66q12 0 22 -9.5t10 -23.5v-850h177q33 0 32 -33v-65q0 -12 -9 -22.5t-23 -10.5h-242q-29 0 -47.5 19.5t-18.5 46.5zM59 33v915q0 29 18.5 47.5t47.5 18.5h244q33 0 32 -33v-66q0 -33 -32 -32h-179v-310h179q33 0 32 -32v-66q0 -33 -32 -33h-179 v-409q0 -33 -32 -33h-66q-33 0 -33 33z" />
<glyph unicode="&#xfb03;" horiz-adv-x="1325" d="M1083 33v948q0 33 33 33h66q12 0 22 -9.5t10 -23.5v-948q0 -33 -32 -33h-66q-33 0 -33 33zM571 33v915q0 29 18.5 47.5t47.5 18.5h244q33 0 32 -33v-66q0 -33 -32 -32h-179v-310h179q33 0 32 -32v-66q0 -33 -32 -33h-179v-409q0 -33 -32 -33h-66q-33 0 -33 33zM59 33v915 q0 29 18.5 47.5t47.5 18.5h244q33 0 32 -33v-66q0 -33 -32 -32h-179v-310h179q33 0 32 -32v-66q0 -33 -32 -33h-179v-409q0 -33 -32 -33h-66q-33 0 -33 33z" />
<glyph unicode="&#xfb04;" horiz-adv-x="1513" d="M1083 66v915q0 33 33 33h66q12 0 22 -9.5t10 -23.5v-850h177q33 0 32 -33v-65q0 -12 -9 -22.5t-23 -10.5h-242q-29 0 -47.5 19.5t-18.5 46.5zM571 33v915q0 29 18.5 47.5t47.5 18.5h244q33 0 32 -33v-66q0 -33 -32 -32h-179v-310h179q33 0 32 -32v-66q0 -33 -32 -33h-179 v-409q0 -33 -32 -33h-66q-33 0 -33 33zM59 33v915q0 29 18.5 47.5t47.5 18.5h244q33 0 32 -33v-66q0 -33 -32 -32h-179v-310h179q33 0 32 -32v-66q0 -33 -32 -33h-179v-409q0 -33 -32 -33h-66q-33 0 -33 33z" />
</font>
</defs>
</svg>
