<?xml version="1.0" encoding="utf-8"?>
<!-- Generator: Adobe Illustrator 19.1.0, SVG Export Plug-In . SVG Version: 6.00 Build 0)  -->
<svg version="1.1" id="Layer_1" xmlns="http://www.w3.org/2000/svg" xmlns:xlink="http://www.w3.org/1999/xlink" x="0px" y="0px"
	 width="37.6px" height="29.5px" viewBox="0 0 37.6 29.5" enable-background="new 0 0 37.6 29.5" xml:space="preserve">
<g>
	<path fill="#222222" d="M29.2,6.1h-20c-1.1,0-2,0.9-2,2v14c0,1.1,0.9,2,2,2h14l4,4v-4h2c1.1,0,2-0.9,2-2v-14
		C31.2,7,30.3,6.1,29.2,6.1z M30.2,22.1c0,0.6-0.4,1-1,1h-2h-1v1v1.5l-2.3-2.3l-0.3-0.3h-0.4h-14c-0.6,0-1-0.4-1-1v-14
		c0-0.6,0.4-1,1-1h20c0.6,0,1,0.4,1,1V22.1z"/>
	<circle fill="#222222" cx="19.2" cy="15.1" r="1"/>
	<circle fill="#222222" cx="23.2" cy="15.1" r="1"/>
	<circle fill="#222222" cx="15.3" cy="15.1" r="1"/>
</g>
</svg>
