<?xml version="1.0" encoding="utf-8"?>
<!-- Generator: Adobe Illustrator 19.1.0, SVG Export Plug-In . SVG Version: 6.00 Build 0)  -->
<svg version="1.1" id="Layer_1" xmlns="http://www.w3.org/2000/svg" xmlns:xlink="http://www.w3.org/1999/xlink" x="0px" y="0px"
	 width="32px" height="32px" viewBox="0 0 32 32" enable-background="new 0 0 32 32" xml:space="preserve">
<g>
	<path fill="none" stroke="#222222" stroke-linecap="round" stroke-linejoin="round" stroke-miterlimit="10" d="M26.1,4.4H4.7
		C4,4.4,3.4,5,3.4,5.7v21.3c0,0.7,0.6,1.3,1.3,1.3h11.5v-9.3h-3.1v-3.6h3.1v-2.7c0-3.1,1.9-4.8,4.7-4.8c1.3,0,2.5,0.1,2.8,0.1v3.2
		l-1.9,0c-1.5,0-1.8,0.7-1.8,1.8v2.3h3.6l-0.5,3.6H20v9.3h6.1c0.7,0,1.3-0.6,1.3-1.3V5.7C27.4,5,26.8,4.4,26.1,4.4L26.1,4.4z
		 M26.1,4.4"/>
</g>
</svg>
