<?xml version="1.0" encoding="utf-8"?>
<!-- Generator: Adobe Illustrator 19.1.0, SVG Export Plug-In . SVG Version: 6.00 Build 0)  -->
<svg version="1.1" id="Layer_1" xmlns="http://www.w3.org/2000/svg" xmlns:xlink="http://www.w3.org/1999/xlink" x="0px" y="0px"
	 width="41px" height="36px" viewBox="0 0 41 36" enable-background="new 0 0 41 36" xml:space="preserve">
<g>
	<circle fill="#222222" cx="14.6" cy="16.7" r="1"/>
	<circle fill="#222222" cx="17.6" cy="16.7" r="1"/>
	<path fill="#222222" d="M35.1,11.7h-5.5v-5h-14v5h-5.5c-0.3,0-0.5,0.2-0.5,0.5v15c0,0.3,0.2,0.5,0.5,0.5h5.5v4h14v-4h5.5
		c0.3,0,0.5-0.2,0.5-0.5v-15C35.6,11.9,35.3,11.7,35.1,11.7z M16.6,7.7h12v4h-12V7.7z M28.6,30.7h-12v-9h12V30.7z M34.6,26.7h-5v-6
		h-14v6h-5v-14h5h14h5V26.7z"/>
</g>
</svg>
