<?xml version="1.0" encoding="utf-8"?>
<!-- Generator: Adobe Illustrator 19.1.0, SVG Export Plug-In . SVG Version: 6.00 Build 0)  -->
<svg version="1.1" id="Layer_1" xmlns="http://www.w3.org/2000/svg" xmlns:xlink="http://www.w3.org/1999/xlink" x="0px" y="0px"
	 width="32px" height="32px" viewBox="0 0 32 32" enable-background="new 0 0 32 32" xml:space="preserve">
<g>
	<g>
		<path d="M10.8,26.9c-2.9,0-5.7-0.8-8.1-2.4c-0.2-0.1-0.3-0.4-0.2-0.6s0.3-0.4,0.5-0.3c2.2,0.2,4.4-0.2,6.2-1.3
			c-1.8-0.5-3.3-1.9-3.9-3.7c-0.1-0.2,0-0.4,0.1-0.5c0.1-0.1,0.3-0.2,0.5-0.2c0,0,0,0,0,0c-1.5-1-2.4-2.7-2.4-4.6
			c0-0.2,0.1-0.4,0.2-0.5c0.2-0.1,0.3-0.1,0.5,0c0.1,0.1,0.3,0.1,0.4,0.2c-0.7-1-1.1-2.2-1.1-3.4c0-1,0.3-2,0.8-2.8
			c0.1-0.1,0.2-0.2,0.4-0.2c0.2,0,0.3,0.1,0.4,0.2c2.4,2.9,5.9,4.8,9.6,5.1c0-0.2,0-0.4,0-0.6c0-3.1,2.5-5.6,5.6-5.6
			c1.5,0,2.9,0.6,3.9,1.6c1-0.2,2-0.6,2.8-1.1c0.2-0.1,0.4-0.1,0.6,0c0.2,0.1,0.2,0.3,0.2,0.5c-0.2,0.7-0.5,1.3-1,1.8
			c0.3-0.1,0.7-0.2,1-0.4c0.2-0.1,0.4,0,0.6,0.1c0.1,0.2,0.2,0.4,0,0.6c-0.7,1-1.5,1.9-2.5,2.6l0,0.4C25.9,19.2,20.2,26.9,10.8,26.9
			z M4.9,24.6c1.8,0.8,3.8,1.3,5.8,1.3c8.8,0,14.1-7.2,14.1-14.1l0-0.7c0-0.2,0.1-0.3,0.2-0.4c0.5-0.4,1-0.8,1.4-1.2
			C26,9.6,25.5,9.7,25,9.8c-0.2,0-0.5-0.1-0.5-0.3c-0.1-0.2,0-0.5,0.2-0.6c0.6-0.3,1-0.8,1.4-1.3C25.4,7.8,24.7,8,24,8.2
			c-0.2,0-0.3,0-0.5-0.1c-0.9-0.9-2.1-1.5-3.4-1.5c-2.6,0-4.6,2.1-4.6,4.6c0,0.4,0,0.7,0.1,1.1c0,0.2,0,0.3-0.1,0.4
			c-0.1,0.1-0.2,0.2-0.4,0.2c-4-0.2-7.8-2-10.4-5C4.6,8.4,4.4,9,4.4,9.6c0,1.6,0.8,3,2.1,3.8c0.2,0.1,0.3,0.4,0.2,0.6
			c-0.1,0.2-0.3,0.3-0.5,0.3c-0.6,0-1.2-0.1-1.7-0.3c0.3,1.9,1.8,3.4,3.6,3.8c0.2,0,0.4,0.2,0.4,0.5s-0.1,0.4-0.4,0.5
			C7.6,18.9,7,19,6.5,19c0.8,1.5,2.3,2.4,4,2.5c0.2,0,0.4,0.1,0.5,0.3c0.1,0.2,0,0.4-0.2,0.6C9.1,23.7,7.1,24.4,4.9,24.6z"/>
	</g>
</g>
</svg>
